G04*
G04 #@! TF.GenerationSoftware,Altium Limited,Altium Designer,25.8.1 (18)*
G04*
G04 Layer_Color=16711935*
%FSLAX24Y24*%
%MOIN*%
G70*
G04*
G04 #@! TF.SameCoordinates,49C93ACE-A330-4151-A87E-CC17FFCD6081*
G04*
G04*
G04 #@! TF.FilePolarity,Positive*
G04*
G01*
G75*
%ADD17C,0.0079*%
D17*
X-0Y787D02*
G03*
X787Y0I787J0D01*
G01*
X2667Y31095D02*
G03*
X3465Y32677I-1171J1582D01*
G01*
Y36575D02*
G03*
X3425Y36614I-39J0D01*
G01*
X-2264Y22778D02*
G03*
X-1083Y21597I1181J0D01*
G01*
X6693Y0D02*
G03*
X7480Y787I0J787D01*
G01*
Y16142D02*
G03*
X6693Y16929I-787J0D01*
G01*
X787D02*
G03*
X1673Y17815I0J886D01*
G01*
Y20416D02*
G03*
X492Y21597I-1181J0D01*
G01*
X2667Y31095D02*
G03*
X1870Y29513I1171J-1582D01*
G01*
X5807Y17815D02*
G03*
X6693Y16929I886J0D01*
G01*
X5807Y24550D02*
G03*
X4626Y25731I-1181J0D01*
G01*
X-3858Y32677D02*
G03*
X-3061Y31095I1969J0D01*
G01*
X787Y16929D02*
G03*
X-0Y16142I0J-787D01*
G01*
X1870Y26912D02*
G03*
X3051Y25731I1181J0D01*
G01*
X-2264Y29513D02*
G03*
X-3061Y31095I-1969J0D01*
G01*
X-3819Y36614D02*
G03*
X-3858Y36575I0J-39D01*
G01*
X787Y0D02*
X6693D01*
X-1083Y21597D02*
X492D01*
X-2264Y22778D02*
Y29513D01*
X1870Y26912D02*
Y29513D01*
X-3819Y36614D02*
X3425D01*
X0Y787D02*
Y16142D01*
X3051Y25731D02*
X4626D01*
X3465Y32677D02*
Y36575D01*
X-3858Y32677D02*
Y36575D01*
X7480Y787D02*
Y16142D01*
X5807Y17815D02*
Y24550D01*
X1673Y17815D02*
Y20416D01*
M02*
