G04*
G04 #@! TF.GenerationSoftware,Altium Limited,Altium Designer,25.8.1 (18)*
G04*
G04 Layer_Color=65535*
%FSLAX24Y24*%
%MOIN*%
G70*
G04*
G04 #@! TF.SameCoordinates,ECF3816A-458B-41A0-9FA1-F6E4255AF322*
G04*
G04*
G04 #@! TF.FilePolarity,Positive*
G04*
G01*
G75*
%ADD10C,0.0079*%
%ADD11C,0.0098*%
%ADD12C,0.0080*%
D10*
X-1496Y9594D02*
G03*
X-1496Y9594I-98J0D01*
G01*
X-1870Y6130D02*
Y9870D01*
X1870Y6130D02*
Y9870D01*
X-1870D02*
X1870D01*
X-1870Y6130D02*
X1870D01*
X3494Y3099D02*
Y4201D01*
X4006Y3099D02*
Y4201D01*
X3494Y3099D02*
X4006D01*
X3494Y4201D02*
X4006D01*
X-1544Y4249D02*
Y5351D01*
X-2056Y4249D02*
Y5351D01*
X-1544D01*
X-2056Y4249D02*
X-1544D01*
X256D02*
Y5351D01*
X-256Y4249D02*
Y5351D01*
X256D01*
X-256Y4249D02*
X256D01*
X-3344D02*
Y5351D01*
X-3856Y4249D02*
Y5351D01*
X-3344D01*
X-3856Y4249D02*
X-3344D01*
X-4724Y10454D02*
Y12915D01*
X4724Y10454D02*
Y12915D01*
X-4724D02*
X4724D01*
X-4724Y10454D02*
X4724D01*
X-1801Y3024D02*
Y3802D01*
Y1296D02*
Y2139D01*
X1801Y3024D02*
Y3802D01*
Y1296D02*
Y2139D01*
X-1801Y3802D02*
X1801D01*
X3144Y5949D02*
X3656D01*
Y7051D01*
X3144Y5949D02*
Y7051D01*
X3656D01*
X1499Y4944D02*
Y5456D01*
Y4944D02*
X2601D01*
X1499Y5456D02*
X2601D01*
Y4944D02*
Y5456D01*
D11*
X-1043Y3999D02*
G03*
X-1043Y3999I-49J0D01*
G01*
D12*
X-3594Y10253D02*
X-3728D01*
X-3661D01*
Y9920D01*
X-3728Y9853D01*
X-3794D01*
X-3861Y9920D01*
X-3194Y9853D02*
X-3461D01*
X-3194Y10120D01*
Y10186D01*
X-3261Y10253D01*
X-3394D01*
X-3461Y10186D01*
X-2601Y9780D02*
Y9447D01*
X-2535Y9380D01*
X-2401D01*
X-2335Y9447D01*
Y9780D01*
X-2201Y9380D02*
X-2068D01*
X-2135D01*
Y9780D01*
X-2201Y9714D01*
X2430Y927D02*
Y1193D01*
Y1060D01*
X2830D01*
Y1327D02*
X2430D01*
Y1527D01*
X2497Y1593D01*
X2630D01*
X2697Y1527D01*
Y1327D01*
X2830Y1993D02*
Y1727D01*
X2563Y1993D01*
X2497D01*
X2430Y1927D01*
Y1793D01*
X2497Y1727D01*
X-3854Y3667D02*
Y4067D01*
X-3654D01*
X-3587Y4001D01*
Y3867D01*
X-3654Y3801D01*
X-3854D01*
X-3720D02*
X-3587Y3667D01*
X-3454D02*
X-3321D01*
X-3387D01*
Y4067D01*
X-3454Y4001D01*
X-1401Y4260D02*
Y4660D01*
X-1201D01*
X-1134Y4593D01*
Y4460D01*
X-1201Y4393D01*
X-1401D01*
X-1268D02*
X-1134Y4260D01*
X-734Y4660D02*
X-1001D01*
Y4460D01*
X-868Y4527D01*
X-801D01*
X-734Y4460D01*
Y4327D01*
X-801Y4260D01*
X-934D01*
X-1001Y4327D01*
X429Y4976D02*
Y5376D01*
X629D01*
X695Y5309D01*
Y5176D01*
X629Y5109D01*
X429D01*
X562D02*
X695Y4976D01*
X829Y5309D02*
X895Y5376D01*
X1029D01*
X1095Y5309D01*
Y5242D01*
X1029Y5176D01*
X962D01*
X1029D01*
X1095Y5109D01*
Y5042D01*
X1029Y4976D01*
X895D01*
X829Y5042D01*
X4103Y6903D02*
X4037Y6970D01*
X3903D01*
X3837Y6903D01*
Y6637D01*
X3903Y6570D01*
X4037D01*
X4103Y6637D01*
X4237Y6903D02*
X4303Y6970D01*
X4437D01*
X4503Y6903D01*
Y6837D01*
X4437Y6770D01*
X4370D01*
X4437D01*
X4503Y6703D01*
Y6637D01*
X4437Y6570D01*
X4303D01*
X4237Y6637D01*
X2448Y4731D02*
X2382Y4798D01*
X2248D01*
X2182Y4731D01*
Y4465D01*
X2248Y4398D01*
X2382D01*
X2448Y4465D01*
X2581Y4398D02*
X2715D01*
X2648D01*
Y4798D01*
X2581Y4731D01*
X-2350Y1570D02*
X-2483D01*
X-2417D01*
Y1237D01*
X-2483Y1170D01*
X-2550D01*
X-2617Y1237D01*
X-2217Y1170D02*
X-2083D01*
X-2150D01*
Y1570D01*
X-2217Y1503D01*
X-4247Y2910D02*
X-3980D01*
X-4113D01*
Y2510D01*
X-3847D02*
Y2910D01*
X-3647D01*
X-3580Y2843D01*
Y2710D01*
X-3647Y2643D01*
X-3847D01*
X-3447Y2510D02*
X-3313D01*
X-3380D01*
Y2910D01*
X-3447Y2843D01*
X3250Y3267D02*
X2850D01*
Y3467D01*
X2917Y3533D01*
X3050D01*
X3117Y3467D01*
Y3267D01*
Y3400D02*
X3250Y3533D01*
X2850Y3667D02*
Y3933D01*
X2917D01*
X3183Y3667D01*
X3250D01*
M02*
