G04*
G04 #@! TF.GenerationSoftware,Altium Limited,Altium Designer,25.8.1 (18)*
G04*
G04 Layer_Physical_Order=4*
G04 Layer_Color=16440176*
%FSLAX24Y24*%
%MOIN*%
G70*
G04*
G04 #@! TF.SameCoordinates,ECF3816A-458B-41A0-9FA1-F6E4255AF322*
G04*
G04*
G04 #@! TF.FilePolarity,Positive*
G04*
G01*
G75*
%ADD12C,0.0080*%
%ADD29C,0.0256*%
G04:AMPARAMS|DCode=30|XSize=35.4mil|YSize=59.1mil|CornerRadius=17.7mil|HoleSize=0mil|Usage=FLASHONLY|Rotation=0.000|XOffset=0mil|YOffset=0mil|HoleType=Round|Shape=RoundedRectangle|*
%AMROUNDEDRECTD30*
21,1,0.0354,0.0236,0,0,0.0*
21,1,0.0000,0.0591,0,0,0.0*
1,1,0.0354,0.0000,-0.0118*
1,1,0.0354,0.0000,-0.0118*
1,1,0.0354,0.0000,0.0118*
1,1,0.0354,0.0000,0.0118*
%
%ADD30ROUNDEDRECTD30*%
%ADD34C,0.1417*%
%ADD35C,0.0140*%
G36*
X5148Y102D02*
X-5148D01*
Y13398D01*
X5148D01*
Y102D01*
D02*
G37*
%LPC*%
G36*
X1904Y11970D02*
X1836D01*
X1774Y11944D01*
X1726Y11896D01*
X1724Y11892D01*
X146D01*
X144Y11896D01*
X96Y11944D01*
X34Y11970D01*
X-34D01*
X-96Y11944D01*
X-144Y11896D01*
X-146Y11892D01*
X-1724D01*
X-1726Y11896D01*
X-1774Y11944D01*
X-1836Y11970D01*
X-1904D01*
X-1966Y11944D01*
X-2014Y11896D01*
X-2040Y11834D01*
Y11766D01*
X-2038Y11762D01*
X-2821Y10978D01*
X-2841Y10949D01*
X-2848Y10914D01*
Y7654D01*
X-2853Y7652D01*
X-2901Y7604D01*
X-2926Y7542D01*
Y7474D01*
X-2925Y7470D01*
X-3815Y6579D01*
X-3835Y6549D01*
X-3842Y6514D01*
Y2306D01*
X-3986Y2278D01*
X-4133Y2217D01*
X-4265Y2128D01*
X-4378Y2015D01*
X-4467Y1883D01*
X-4528Y1736D01*
X-4559Y1580D01*
Y1420D01*
X-4528Y1264D01*
X-4467Y1117D01*
X-4378Y985D01*
X-4265Y872D01*
X-4133Y783D01*
X-3986Y722D01*
X-3830Y691D01*
X-3670D01*
X-3514Y722D01*
X-3367Y783D01*
X-3235Y872D01*
X-3122Y985D01*
X-3033Y1117D01*
X-2972Y1264D01*
X-2941Y1420D01*
Y1580D01*
X-2972Y1736D01*
X-3033Y1883D01*
X-3122Y2015D01*
X-3235Y2128D01*
X-3367Y2217D01*
X-3514Y2278D01*
X-3658Y2306D01*
Y6476D01*
X-2795Y7340D01*
X-2790Y7338D01*
X-2723D01*
X-2660Y7364D01*
X-2612Y7412D01*
X-2586Y7474D01*
Y7542D01*
X-2612Y7604D01*
X-2660Y7652D01*
X-2665Y7654D01*
Y10876D01*
X-1908Y11632D01*
X-1904Y11630D01*
X-1836D01*
X-1774Y11656D01*
X-1726Y11704D01*
X-1724Y11708D01*
X-146D01*
X-144Y11704D01*
X-96Y11656D01*
X-34Y11630D01*
X34D01*
X96Y11656D01*
X144Y11704D01*
X146Y11708D01*
X1724D01*
X1726Y11704D01*
X1774Y11656D01*
X1836Y11630D01*
X1904D01*
X1908Y11632D01*
X2763Y10778D01*
Y7654D01*
X2758Y7652D01*
X2710Y7604D01*
X2684Y7542D01*
Y7474D01*
X2710Y7412D01*
X2758Y7364D01*
X2763Y7362D01*
Y6596D01*
X2770Y6561D01*
X2789Y6531D01*
X3188Y6132D01*
Y2082D01*
X3122Y2015D01*
X3033Y1883D01*
X2972Y1736D01*
X2941Y1580D01*
Y1420D01*
X2972Y1264D01*
X3033Y1117D01*
X3122Y985D01*
X3235Y872D01*
X3367Y783D01*
X3514Y722D01*
X3670Y691D01*
X3830D01*
X3986Y722D01*
X4133Y783D01*
X4265Y872D01*
X4378Y985D01*
X4467Y1117D01*
X4528Y1264D01*
X4559Y1420D01*
Y1580D01*
X4528Y1736D01*
X4467Y1883D01*
X4378Y2015D01*
X4265Y2128D01*
X4133Y2217D01*
X3986Y2278D01*
X3830Y2309D01*
X3670D01*
X3514Y2278D01*
X3413Y2236D01*
X3372Y2264D01*
Y6170D01*
X3365Y6205D01*
X3345Y6235D01*
X2946Y6634D01*
Y7362D01*
X2951Y7364D01*
X2998Y7412D01*
X3024Y7474D01*
Y7542D01*
X2998Y7604D01*
X2951Y7652D01*
X2946Y7654D01*
Y10816D01*
X2939Y10851D01*
X2919Y10881D01*
X2038Y11762D01*
X2040Y11766D01*
Y11834D01*
X2014Y11896D01*
X1966Y11944D01*
X1904Y11970D01*
D02*
G37*
G36*
X2494Y7093D02*
X2427D01*
X2364Y7067D01*
X2317Y7019D01*
X2315Y7015D01*
X-2034D01*
X-2036Y7019D01*
X-2084Y7067D01*
X-2146Y7093D01*
X-2214D01*
X-2276Y7067D01*
X-2324Y7019D01*
X-2350Y6957D01*
Y6889D01*
X-2324Y6827D01*
X-2276Y6779D01*
X-2272Y6777D01*
Y6496D01*
X-2413Y6355D01*
X-2418Y6357D01*
X-2485D01*
X-2548Y6331D01*
X-2595Y6283D01*
X-2621Y6220D01*
Y6153D01*
X-2595Y6090D01*
X-2548Y6042D01*
X-2485Y6017D01*
X-2418D01*
X-2355Y6042D01*
X-2307Y6090D01*
X-2281Y6153D01*
Y6220D01*
X-2283Y6225D01*
X-2115Y6393D01*
X-2095Y6423D01*
X-2088Y6458D01*
Y6777D01*
X-2084Y6779D01*
X-2036Y6827D01*
X-2034Y6831D01*
X2315D01*
X2317Y6827D01*
X2364Y6779D01*
X2369Y6777D01*
Y5649D01*
X1729Y5009D01*
X1709Y4979D01*
X1702Y4944D01*
Y4690D01*
X1698Y4688D01*
X1650Y4640D01*
X1624Y4578D01*
Y4510D01*
X1650Y4448D01*
X1698Y4400D01*
X1702Y4398D01*
Y4177D01*
X610Y3085D01*
X564Y3105D01*
Y3148D01*
X557Y3183D01*
X537Y3212D01*
X415Y3335D01*
X385Y3355D01*
X350Y3362D01*
X-310D01*
X-345Y3355D01*
X-375Y3335D01*
X-537Y3172D01*
X-557Y3143D01*
X-564Y3108D01*
Y3026D01*
X-602Y3011D01*
X-666Y2947D01*
X-700Y2863D01*
Y2772D01*
X-696Y2762D01*
X-759Y2735D01*
X-787Y2707D01*
X-816Y2735D01*
X-900Y2770D01*
X-990D01*
X-1074Y2735D01*
X-1138Y2671D01*
X-1173Y2587D01*
Y2497D01*
X-1138Y2413D01*
X-1074Y2349D01*
X-990Y2314D01*
X-900D01*
X-816Y2349D01*
X-787Y2377D01*
X-759Y2349D01*
X-675Y2314D01*
X-585D01*
X-501Y2349D01*
X-437Y2413D01*
X-402Y2497D01*
Y2587D01*
X-406Y2598D01*
X-343Y2624D01*
X-315Y2653D01*
X-287Y2624D01*
X-203Y2590D01*
X-112D01*
X-28Y2624D01*
X0Y2653D01*
X28Y2624D01*
X92Y2598D01*
X87Y2587D01*
Y2497D01*
X122Y2413D01*
X186Y2349D01*
X270Y2314D01*
X360D01*
X444Y2349D01*
X472Y2377D01*
X501Y2349D01*
X585Y2314D01*
X675D01*
X759Y2349D01*
X787Y2377D01*
X816Y2349D01*
X900Y2314D01*
X990D01*
X1074Y2349D01*
X1138Y2413D01*
X1173Y2497D01*
Y2587D01*
X1138Y2671D01*
X1074Y2735D01*
X990Y2770D01*
X900D01*
X816Y2735D01*
X787Y2707D01*
X759Y2735D01*
X696Y2762D01*
X700Y2772D01*
Y2863D01*
X685Y2900D01*
X1859Y4074D01*
X1879Y4104D01*
X1886Y4139D01*
Y4398D01*
X1890Y4400D01*
X1938Y4448D01*
X1964Y4510D01*
Y4578D01*
X1938Y4640D01*
X1890Y4688D01*
X1886Y4690D01*
Y4906D01*
X2526Y5546D01*
X2545Y5576D01*
X2552Y5611D01*
Y6777D01*
X2557Y6779D01*
X2605Y6827D01*
X2631Y6889D01*
Y6957D01*
X2605Y7019D01*
X2557Y7067D01*
X2494Y7093D01*
D02*
G37*
G36*
X-458Y5090D02*
X-526D01*
X-588Y5064D01*
X-636Y5016D01*
X-662Y4954D01*
Y4886D01*
X-636Y4824D01*
X-613Y4800D01*
X-636Y4776D01*
X-662Y4714D01*
Y4646D01*
X-636Y4584D01*
X-588Y4536D01*
X-526Y4510D01*
X-458D01*
X-396Y4536D01*
X-348Y4584D01*
X-322Y4646D01*
Y4714D01*
X-348Y4776D01*
X-372Y4800D01*
X-348Y4824D01*
X-322Y4886D01*
Y4954D01*
X-348Y5016D01*
X-396Y5064D01*
X-458Y5090D01*
D02*
G37*
G36*
X-2346D02*
X-2414D01*
X-2476Y5064D01*
X-2524Y5016D01*
X-2550Y4954D01*
Y4886D01*
X-2524Y4824D01*
X-2500Y4800D01*
X-2524Y4776D01*
X-2550Y4714D01*
Y4646D01*
X-2524Y4584D01*
X-2476Y4536D01*
X-2414Y4510D01*
X-2346D01*
X-2284Y4536D01*
X-2236Y4584D01*
X-2210Y4646D01*
Y4714D01*
X-2236Y4776D01*
X-2260Y4800D01*
X-2236Y4824D01*
X-2210Y4886D01*
Y4954D01*
X-2236Y5016D01*
X-2284Y5064D01*
X-2346Y5090D01*
D02*
G37*
G36*
X-4196D02*
X-4264D01*
X-4326Y5064D01*
X-4374Y5016D01*
X-4400Y4954D01*
Y4886D01*
X-4374Y4824D01*
X-4350Y4800D01*
X-4374Y4776D01*
X-4400Y4714D01*
Y4646D01*
X-4374Y4584D01*
X-4326Y4536D01*
X-4264Y4510D01*
X-4196D01*
X-4134Y4536D01*
X-4086Y4584D01*
X-4060Y4646D01*
Y4714D01*
X-4086Y4776D01*
X-4110Y4800D01*
X-4086Y4824D01*
X-4060Y4886D01*
Y4954D01*
X-4086Y5016D01*
X-4134Y5064D01*
X-4196Y5090D01*
D02*
G37*
G36*
X1393Y4330D02*
X1326D01*
X1263Y4304D01*
X1239Y4280D01*
X1216Y4304D01*
X1153Y4330D01*
X1086D01*
X1023Y4304D01*
X975Y4256D01*
X949Y4194D01*
Y4126D01*
X975Y4064D01*
X1023Y4016D01*
X1086Y3990D01*
X1153D01*
X1216Y4016D01*
X1239Y4040D01*
X1263Y4016D01*
X1326Y3990D01*
X1393D01*
X1456Y4016D01*
X1504Y4064D01*
X1530Y4126D01*
Y4194D01*
X1504Y4256D01*
X1456Y4304D01*
X1393Y4330D01*
D02*
G37*
G36*
X-1372Y3302D02*
X-1463D01*
X-1546Y3267D01*
X-1611Y3203D01*
X-1645Y3119D01*
Y3028D01*
X-1611Y2945D01*
X-1546Y2880D01*
X-1463Y2846D01*
X-1372D01*
X-1288Y2880D01*
X-1224Y2945D01*
X-1189Y3028D01*
Y3119D01*
X-1224Y3203D01*
X-1288Y3267D01*
X-1372Y3302D01*
D02*
G37*
G36*
X1476Y3306D02*
X1358D01*
X1269Y3288D01*
X1194Y3238D01*
X1144Y3163D01*
X1126Y3074D01*
X1144Y2985D01*
X1194Y2909D01*
X1269Y2859D01*
X1358Y2841D01*
X1476D01*
X1565Y2859D01*
X1641Y2909D01*
X1691Y2985D01*
X1709Y3074D01*
X1691Y3163D01*
X1641Y3238D01*
X1565Y3288D01*
X1476Y3306D01*
D02*
G37*
%LPD*%
D12*
X-2180Y6458D02*
Y6923D01*
X-2451Y6187D02*
X-2180Y6458D01*
X3280Y1970D02*
X3750Y1500D01*
X3280Y1970D02*
Y6170D01*
X2854Y6596D02*
X3280Y6170D01*
X2854Y6596D02*
Y7508D01*
Y10816D01*
X1870Y11800D02*
X2854Y10816D01*
X0Y11800D02*
X1870D01*
X-1870D02*
X0D01*
X-2756Y10914D02*
X-1870Y11800D01*
X-2756Y7508D02*
Y10914D01*
X-3750Y1500D02*
Y6514D01*
X-2756Y7508D01*
X-2180Y6923D02*
X2461D01*
Y5611D02*
Y6923D01*
X1794Y4944D02*
X2461Y5611D01*
X1794Y4544D02*
Y4944D01*
Y4139D02*
Y4544D01*
X472Y2818D02*
X1794Y4139D01*
X472Y2818D02*
Y3148D01*
X350Y3270D02*
X472Y3148D01*
X-310Y3270D02*
X350D01*
X-472Y3108D02*
X-310Y3270D01*
X-472Y2818D02*
Y3108D01*
D29*
X-1102Y2818D02*
D03*
X-472D02*
D03*
X-315Y2542D02*
D03*
X472Y2818D02*
D03*
X1102D02*
D03*
D30*
X1768Y853D02*
D03*
X-1768D02*
D03*
X1626Y2582D02*
D03*
X-1626D02*
D03*
D34*
X3750Y1500D02*
D03*
X-3750D02*
D03*
D35*
X-2451Y6187D02*
D03*
X945Y4751D02*
D03*
X-4230Y5253D02*
D03*
X4540Y9791D02*
D03*
Y7902D02*
D03*
Y5294D02*
D03*
Y3540D02*
D03*
X2455Y2542D02*
D03*
Y4230D02*
D03*
X-1280Y5200D02*
D03*
X-2972Y4020D02*
D03*
X-4470Y3074D02*
D03*
X-2756Y2818D02*
D03*
X-4160Y8390D02*
D03*
Y9973D02*
D03*
X2854Y7508D02*
D03*
X-2756D02*
D03*
X-4160Y6917D02*
D03*
X-2461Y7311D02*
D03*
Y6720D02*
D03*
X3750Y4544D02*
D03*
X2264Y6720D02*
D03*
X2461Y6923D02*
D03*
X-2180D02*
D03*
X2461Y7311D02*
D03*
X3400D02*
D03*
X2900Y5200D02*
D03*
X1794Y4544D02*
D03*
X0Y11800D02*
D03*
X1870D02*
D03*
X-1870D02*
D03*
M02*
