G04*
G04 #@! TF.GenerationSoftware,Altium Limited,Altium Designer,25.8.1 (18)*
G04*
G04 Layer_Physical_Order=2*
G04 Layer_Color=32768*
%FSLAX24Y24*%
%MOIN*%
G70*
G04*
G04 #@! TF.SameCoordinates,ECF3816A-458B-41A0-9FA1-F6E4255AF322*
G04*
G04*
G04 #@! TF.FilePolarity,Negative*
G04*
G01*
G75*
%ADD36C,0.0400*%
%ADD37C,0.1065*%
%ADD38C,0.0277*%
%ADD39O,0.0494X0.0376*%
%ADD40C,0.0376*%
%ADD41C,0.0200*%
D36*
X-5250Y0D02*
X5250D01*
Y13500D01*
X-5250D02*
X5250D01*
X-5250Y0D02*
Y13500D01*
D37*
X3750Y1500D02*
D03*
X-3750D02*
D03*
D38*
X-945Y2542D02*
D03*
X-630D02*
D03*
X-472Y2818D02*
D03*
X-157D02*
D03*
X157D02*
D03*
X472D02*
D03*
X315Y2542D02*
D03*
X630D02*
D03*
X945D02*
D03*
D39*
X1417Y3074D02*
D03*
D40*
X-1417D02*
D03*
D41*
X-2451Y6187D02*
D03*
X2854Y7508D02*
D03*
X-2756D02*
D03*
X2461Y6923D02*
D03*
X-2180D02*
D03*
X1794Y4544D02*
D03*
X-4230Y4920D02*
D03*
Y4680D02*
D03*
X-2380Y4920D02*
D03*
Y4680D02*
D03*
X-492Y4920D02*
D03*
Y4680D02*
D03*
X1359Y4160D02*
D03*
X1120D02*
D03*
X0Y11800D02*
D03*
X1870D02*
D03*
X-1870D02*
D03*
M02*
