G04*
G04 #@! TF.GenerationSoftware,Altium Limited,Altium Designer,25.8.1 (18)*
G04*
G04 Layer_Color=128*
%FSLAX24Y24*%
%MOIN*%
G70*
G04*
G04 #@! TF.SameCoordinates,D9F99DD4-C6BC-4522-9F04-89AEA5FBAC45*
G04*
G04*
G04 #@! TF.FilePolarity,Positive*
G04*
G01*
G75*
%ADD23C,0.0020*%
D23*
X984Y1378D02*
X1772D01*
X1378Y984D02*
Y1772D01*
X50177Y1378D02*
X50965D01*
X50571Y984D02*
Y1772D01*
X984Y83032D02*
X1772D01*
X1378Y82638D02*
Y83425D01*
X50177Y83032D02*
X50965D01*
X50571Y82638D02*
Y83425D01*
X10935Y65603D02*
X10995D01*
X10965Y65573D02*
Y65633D01*
X8966Y67572D02*
X9026D01*
X8996Y67542D02*
Y67602D01*
X10935Y67572D02*
X10995D01*
X10965Y67542D02*
Y67602D01*
X12903Y67572D02*
X12963D01*
X12933Y67542D02*
Y67602D01*
X14872Y67572D02*
X14932D01*
X14902Y67542D02*
Y67602D01*
X12903Y65603D02*
X12963D01*
X12933Y65573D02*
Y65633D01*
X13213Y63787D02*
X13273D01*
X13243Y63757D02*
Y63817D01*
X12679Y63719D02*
X12739D01*
X12709Y63689D02*
Y63749D01*
X12489Y63999D02*
X12549D01*
X12519Y63969D02*
Y64029D01*
X10625Y63787D02*
X10685D01*
X10655Y63757D02*
Y63817D01*
X11159Y63719D02*
X11219D01*
X11189Y63689D02*
Y63749D01*
X11349Y63999D02*
X11409D01*
X11379Y63969D02*
Y64029D01*
X6106Y47419D02*
X6166D01*
X6136Y47389D02*
Y47449D01*
X9846Y47259D02*
X9906D01*
X9876Y47229D02*
Y47289D01*
X8080Y47139D02*
X8140D01*
X8110Y47109D02*
Y47169D01*
X7886Y47559D02*
X7946D01*
X7916Y47529D02*
Y47589D01*
X42824Y65603D02*
X42884D01*
X42854Y65573D02*
Y65633D01*
X40856Y67572D02*
X40916D01*
X40886Y67542D02*
Y67602D01*
X42824Y67572D02*
X42884D01*
X42854Y67542D02*
Y67602D01*
X44793Y67572D02*
X44853D01*
X44823Y67542D02*
Y67602D01*
X46761Y67572D02*
X46821D01*
X46791Y67542D02*
Y67602D01*
X44793Y65603D02*
X44853D01*
X44823Y65573D02*
Y65633D01*
X45103Y63787D02*
X45163D01*
X45133Y63757D02*
Y63817D01*
X44569Y63719D02*
X44629D01*
X44599Y63689D02*
Y63749D01*
X44379Y63999D02*
X44439D01*
X44409Y63969D02*
Y64029D01*
X42515Y63787D02*
X42575D01*
X42545Y63757D02*
Y63817D01*
X43048Y63719D02*
X43108D01*
X43078Y63689D02*
Y63749D01*
X43238Y63999D02*
X43298D01*
X43268Y63969D02*
Y64029D01*
X37996Y47419D02*
X38056D01*
X38026Y47389D02*
Y47449D01*
X41736Y47259D02*
X41796D01*
X41766Y47229D02*
Y47289D01*
X39970Y47139D02*
X40030D01*
X40000Y47109D02*
Y47169D01*
X39776Y47559D02*
X39836D01*
X39806Y47529D02*
Y47589D01*
X32194Y65603D02*
X32254D01*
X32224Y65573D02*
Y65633D01*
X30226Y67572D02*
X30286D01*
X30256Y67542D02*
Y67602D01*
X32194Y67572D02*
X32254D01*
X32224Y67542D02*
Y67602D01*
X34163Y67572D02*
X34223D01*
X34193Y67542D02*
Y67602D01*
X36131Y67572D02*
X36191D01*
X36161Y67542D02*
Y67602D01*
X34163Y65603D02*
X34223D01*
X34193Y65573D02*
Y65633D01*
X34473Y63787D02*
X34533D01*
X34503Y63757D02*
Y63817D01*
X33939Y63719D02*
X33999D01*
X33969Y63689D02*
Y63749D01*
X33749Y63999D02*
X33809D01*
X33779Y63969D02*
Y64029D01*
X31885Y63787D02*
X31945D01*
X31915Y63757D02*
Y63817D01*
X32418Y63719D02*
X32478D01*
X32448Y63689D02*
Y63749D01*
X32608Y63999D02*
X32668D01*
X32638Y63969D02*
Y64029D01*
X27366Y47419D02*
X27426D01*
X27396Y47389D02*
Y47449D01*
X31106Y47259D02*
X31166D01*
X31136Y47229D02*
Y47289D01*
X29340Y47139D02*
X29400D01*
X29370Y47109D02*
Y47169D01*
X29146Y47559D02*
X29206D01*
X29176Y47529D02*
Y47589D01*
X21564Y65603D02*
X21624D01*
X21594Y65573D02*
Y65633D01*
X19596Y67572D02*
X19656D01*
X19626Y67542D02*
Y67602D01*
X21564Y67572D02*
X21624D01*
X21594Y67542D02*
Y67602D01*
X23533Y67572D02*
X23593D01*
X23563Y67542D02*
Y67602D01*
X25501Y67572D02*
X25561D01*
X25531Y67542D02*
Y67602D01*
X23533Y65603D02*
X23593D01*
X23563Y65573D02*
Y65633D01*
X23843Y63787D02*
X23903D01*
X23873Y63757D02*
Y63817D01*
X23309Y63719D02*
X23369D01*
X23339Y63689D02*
Y63749D01*
X23119Y63999D02*
X23179D01*
X23149Y63969D02*
Y64029D01*
X21255Y63787D02*
X21315D01*
X21285Y63757D02*
Y63817D01*
X21789Y63719D02*
X21849D01*
X21819Y63689D02*
Y63749D01*
X21979Y63999D02*
X22039D01*
X22009Y63969D02*
Y64029D01*
X16736Y47419D02*
X16796D01*
X16766Y47389D02*
Y47449D01*
X20476Y47259D02*
X20536D01*
X20506Y47229D02*
Y47289D01*
X18710Y47139D02*
X18770D01*
X18740Y47109D02*
Y47169D01*
X18516Y47559D02*
X18576D01*
X18546Y47529D02*
Y47589D01*
X21210Y37670D02*
X21270D01*
X21240Y37640D02*
Y37700D01*
X15620Y37390D02*
X15680D01*
X15650Y37360D02*
Y37420D01*
X16013Y37390D02*
X16073D01*
X16043Y37360D02*
Y37420D01*
X16407Y37390D02*
X16467D01*
X16437Y37360D02*
Y37420D01*
X16998Y37390D02*
X17058D01*
X17028Y37360D02*
Y37420D01*
X18179Y37390D02*
X18239D01*
X18209Y37360D02*
Y37420D01*
X18848Y37390D02*
X18908D01*
X18878Y37360D02*
Y37420D01*
X21801Y37390D02*
X21861D01*
X21831Y37360D02*
Y37420D01*
X21407Y37390D02*
X21467D01*
X21437Y37360D02*
Y37420D01*
X21013Y37390D02*
X21073D01*
X21043Y37360D02*
Y37420D01*
X19242Y37390D02*
X19302D01*
X19272Y37360D02*
Y37420D01*
X21998Y37670D02*
X22058D01*
X22028Y37640D02*
Y37700D01*
X20029Y37390D02*
X20089D01*
X20059Y37360D02*
Y37420D01*
X19832Y37670D02*
X19892D01*
X19862Y37640D02*
Y37700D01*
X20620Y37390D02*
X20680D01*
X20650Y37360D02*
Y37420D01*
X19045Y37670D02*
X19105D01*
X19075Y37640D02*
Y37700D01*
X20226Y37670D02*
X20286D01*
X20256Y37640D02*
Y37700D01*
X20816Y37670D02*
X20876D01*
X20846Y37640D02*
Y37700D01*
X19635Y37390D02*
X19695D01*
X19665Y37360D02*
Y37420D01*
X19439Y37670D02*
X19498D01*
X19468Y37640D02*
Y37700D01*
X21604Y37670D02*
X21664D01*
X21634Y37640D02*
Y37700D01*
X15816Y37670D02*
X15876D01*
X15846Y37640D02*
Y37700D01*
X17194Y37670D02*
X17254D01*
X17224Y37640D02*
Y37700D01*
X15423Y37670D02*
X15483D01*
X15453Y37640D02*
Y37700D01*
X17391Y37390D02*
X17451D01*
X17421Y37360D02*
Y37420D01*
X15226Y37390D02*
X15286D01*
X15256Y37360D02*
Y37420D01*
X17588Y37670D02*
X17648D01*
X17618Y37640D02*
Y37700D01*
X17785Y37390D02*
X17845D01*
X17815Y37360D02*
Y37420D01*
X17982Y37670D02*
X18042D01*
X18012Y37640D02*
Y37700D01*
X16210Y37670D02*
X16270D01*
X16240Y37640D02*
Y37700D01*
X18376Y37670D02*
X18436D01*
X18406Y37640D02*
Y37700D01*
X16604Y37670D02*
X16664D01*
X16634Y37640D02*
Y37700D01*
X19599Y16840D02*
X19659D01*
X19629Y16810D02*
Y16870D01*
X21255Y20623D02*
X21315D01*
X21285Y20593D02*
Y20653D01*
X23530Y18809D02*
X23590D01*
X23560Y18779D02*
Y18839D01*
X23309Y20690D02*
X23369D01*
X23339Y20660D02*
Y20720D01*
X23530Y16840D02*
X23590D01*
X23560Y16810D02*
Y16870D01*
X23119Y20410D02*
X23179D01*
X23149Y20380D02*
Y20440D01*
X21567Y16840D02*
X21627D01*
X21597Y16810D02*
Y16870D01*
X21979Y20410D02*
X22039D01*
X22009Y20380D02*
Y20440D01*
X21567Y18809D02*
X21627D01*
X21597Y18779D02*
Y18839D01*
X21789Y20690D02*
X21849D01*
X21819Y20660D02*
Y20720D01*
X25499Y16840D02*
X25559D01*
X25529Y16810D02*
Y16870D01*
X23843Y20623D02*
X23903D01*
X23873Y20593D02*
Y20653D01*
X31840Y37670D02*
X31900D01*
X31870Y37640D02*
Y37700D01*
X26250Y37390D02*
X26310D01*
X26280Y37360D02*
Y37420D01*
X26643Y37390D02*
X26703D01*
X26673Y37360D02*
Y37420D01*
X27037Y37390D02*
X27097D01*
X27067Y37360D02*
Y37420D01*
X27627Y37390D02*
X27687D01*
X27657Y37360D02*
Y37420D01*
X28809Y37390D02*
X28869D01*
X28839Y37360D02*
Y37420D01*
X29478Y37390D02*
X29538D01*
X29508Y37360D02*
Y37420D01*
X32431Y37390D02*
X32491D01*
X32461Y37360D02*
Y37420D01*
X32037Y37390D02*
X32097D01*
X32067Y37360D02*
Y37420D01*
X31643Y37390D02*
X31703D01*
X31673Y37360D02*
Y37420D01*
X29872Y37390D02*
X29932D01*
X29902Y37360D02*
Y37420D01*
X32627Y37670D02*
X32687D01*
X32657Y37640D02*
Y37700D01*
X30659Y37390D02*
X30719D01*
X30689Y37360D02*
Y37420D01*
X30462Y37670D02*
X30522D01*
X30492Y37640D02*
Y37700D01*
X31250Y37390D02*
X31310D01*
X31280Y37360D02*
Y37420D01*
X29675Y37670D02*
X29735D01*
X29705Y37640D02*
Y37700D01*
X30856Y37670D02*
X30916D01*
X30886Y37640D02*
Y37700D01*
X31446Y37670D02*
X31506D01*
X31476Y37640D02*
Y37700D01*
X30265Y37390D02*
X30325D01*
X30295Y37360D02*
Y37420D01*
X30068Y37670D02*
X30128D01*
X30098Y37640D02*
Y37700D01*
X32234Y37670D02*
X32294D01*
X32264Y37640D02*
Y37700D01*
X26446Y37670D02*
X26506D01*
X26476Y37640D02*
Y37700D01*
X27824Y37670D02*
X27884D01*
X27854Y37640D02*
Y37700D01*
X26053Y37670D02*
X26113D01*
X26083Y37640D02*
Y37700D01*
X28021Y37390D02*
X28081D01*
X28051Y37360D02*
Y37420D01*
X25856Y37390D02*
X25916D01*
X25886Y37360D02*
Y37420D01*
X28218Y37670D02*
X28278D01*
X28248Y37640D02*
Y37700D01*
X28415Y37390D02*
X28475D01*
X28445Y37360D02*
Y37420D01*
X28612Y37670D02*
X28672D01*
X28642Y37640D02*
Y37700D01*
X26840Y37670D02*
X26900D01*
X26870Y37640D02*
Y37700D01*
X29005Y37670D02*
X29065D01*
X29035Y37640D02*
Y37700D01*
X27234Y37670D02*
X27294D01*
X27264Y37640D02*
Y37700D01*
X30229Y16840D02*
X30289D01*
X30259Y16810D02*
Y16870D01*
X31885Y20623D02*
X31945D01*
X31915Y20593D02*
Y20653D01*
X34160Y18809D02*
X34220D01*
X34190Y18779D02*
Y18839D01*
X33939Y20690D02*
X33999D01*
X33969Y20660D02*
Y20720D01*
X34160Y16840D02*
X34220D01*
X34190Y16810D02*
Y16870D01*
X33749Y20410D02*
X33809D01*
X33779Y20380D02*
Y20440D01*
X32197Y16840D02*
X32257D01*
X32227Y16810D02*
Y16870D01*
X32608Y20410D02*
X32668D01*
X32638Y20380D02*
Y20440D01*
X32197Y18809D02*
X32257D01*
X32227Y18779D02*
Y18839D01*
X32418Y20690D02*
X32478D01*
X32448Y20660D02*
Y20720D01*
X36129Y16840D02*
X36189D01*
X36159Y16810D02*
Y16870D01*
X34473Y20623D02*
X34533D01*
X34503Y20593D02*
Y20653D01*
X42470Y37670D02*
X42530D01*
X42500Y37640D02*
Y37700D01*
X36879Y37390D02*
X36939D01*
X36909Y37360D02*
Y37420D01*
X37273Y37390D02*
X37333D01*
X37303Y37360D02*
Y37420D01*
X37667Y37390D02*
X37727D01*
X37697Y37360D02*
Y37420D01*
X38257Y37390D02*
X38317D01*
X38287Y37360D02*
Y37420D01*
X39439Y37390D02*
X39499D01*
X39469Y37360D02*
Y37420D01*
X40108Y37390D02*
X40168D01*
X40138Y37360D02*
Y37420D01*
X43061Y37390D02*
X43121D01*
X43091Y37360D02*
Y37420D01*
X42667Y37390D02*
X42727D01*
X42697Y37360D02*
Y37420D01*
X42273Y37390D02*
X42333D01*
X42303Y37360D02*
Y37420D01*
X40501Y37390D02*
X40561D01*
X40532Y37360D02*
Y37420D01*
X43257Y37670D02*
X43317D01*
X43287Y37640D02*
Y37700D01*
X41289Y37390D02*
X41349D01*
X41319Y37360D02*
Y37420D01*
X41092Y37670D02*
X41152D01*
X41122Y37640D02*
Y37700D01*
X41879Y37390D02*
X41939D01*
X41909Y37360D02*
Y37420D01*
X40305Y37670D02*
X40365D01*
X40335Y37640D02*
Y37700D01*
X41486Y37670D02*
X41546D01*
X41516Y37640D02*
Y37700D01*
X42076Y37670D02*
X42136D01*
X42106Y37640D02*
Y37700D01*
X40895Y37390D02*
X40955D01*
X40925Y37360D02*
Y37420D01*
X40698Y37670D02*
X40758D01*
X40728Y37640D02*
Y37700D01*
X42864Y37670D02*
X42924D01*
X42894Y37640D02*
Y37700D01*
X37076Y37670D02*
X37136D01*
X37106Y37640D02*
Y37700D01*
X38454Y37670D02*
X38514D01*
X38484Y37640D02*
Y37700D01*
X36683Y37670D02*
X36743D01*
X36713Y37640D02*
Y37700D01*
X38651Y37390D02*
X38711D01*
X38681Y37360D02*
Y37420D01*
X36486Y37390D02*
X36546D01*
X36516Y37360D02*
Y37420D01*
X38848Y37670D02*
X38908D01*
X38878Y37640D02*
Y37700D01*
X39045Y37390D02*
X39105D01*
X39075Y37360D02*
Y37420D01*
X39242Y37670D02*
X39302D01*
X39272Y37640D02*
Y37700D01*
X37470Y37670D02*
X37530D01*
X37500Y37640D02*
Y37700D01*
X39635Y37670D02*
X39695D01*
X39665Y37640D02*
Y37700D01*
X37864Y37670D02*
X37924D01*
X37894Y37640D02*
Y37700D01*
X40858Y16840D02*
X40918D01*
X40888Y16810D02*
Y16870D01*
X42515Y20623D02*
X42575D01*
X42545Y20593D02*
Y20653D01*
X44790Y18809D02*
X44850D01*
X44820Y18779D02*
Y18839D01*
X44569Y20690D02*
X44629D01*
X44599Y20660D02*
Y20720D01*
X44790Y16840D02*
X44850D01*
X44820Y16810D02*
Y16870D01*
X44379Y20410D02*
X44439D01*
X44409Y20380D02*
Y20440D01*
X42827Y16840D02*
X42887D01*
X42857Y16810D02*
Y16870D01*
X43238Y20410D02*
X43298D01*
X43268Y20380D02*
Y20440D01*
X42827Y18809D02*
X42887D01*
X42857Y18779D02*
Y18839D01*
X43048Y20690D02*
X43108D01*
X43078Y20660D02*
Y20720D01*
X46759Y16840D02*
X46819D01*
X46789Y16810D02*
Y16870D01*
X45103Y20623D02*
X45163D01*
X45133Y20593D02*
Y20653D01*
X10580Y37670D02*
X10640D01*
X10610Y37640D02*
Y37700D01*
X4990Y37390D02*
X5050D01*
X5020Y37360D02*
Y37420D01*
X5383Y37390D02*
X5443D01*
X5413Y37360D02*
Y37420D01*
X5777Y37390D02*
X5837D01*
X5807Y37360D02*
Y37420D01*
X6368Y37390D02*
X6428D01*
X6398Y37360D02*
Y37420D01*
X7549Y37390D02*
X7609D01*
X7579Y37360D02*
Y37420D01*
X8218Y37390D02*
X8278D01*
X8248Y37360D02*
Y37420D01*
X11171Y37390D02*
X11231D01*
X11201Y37360D02*
Y37420D01*
X10777Y37390D02*
X10837D01*
X10807Y37360D02*
Y37420D01*
X10383Y37390D02*
X10443D01*
X10413Y37360D02*
Y37420D01*
X8612Y37390D02*
X8672D01*
X8642Y37360D02*
Y37420D01*
X11368Y37670D02*
X11428D01*
X11398Y37640D02*
Y37700D01*
X9399Y37390D02*
X9459D01*
X9429Y37360D02*
Y37420D01*
X9202Y37670D02*
X9262D01*
X9232Y37640D02*
Y37700D01*
X9990Y37390D02*
X10050D01*
X10020Y37360D02*
Y37420D01*
X8415Y37670D02*
X8475D01*
X8445Y37640D02*
Y37700D01*
X9596Y37670D02*
X9656D01*
X9626Y37640D02*
Y37700D01*
X10187Y37670D02*
X10247D01*
X10217Y37640D02*
Y37700D01*
X9005Y37390D02*
X9065D01*
X9035Y37360D02*
Y37420D01*
X8809Y37670D02*
X8869D01*
X8839Y37640D02*
Y37700D01*
X10974Y37670D02*
X11034D01*
X11004Y37640D02*
Y37700D01*
X5187Y37670D02*
X5247D01*
X5217Y37640D02*
Y37700D01*
X6564Y37670D02*
X6624D01*
X6594Y37640D02*
Y37700D01*
X4793Y37670D02*
X4853D01*
X4823Y37640D02*
Y37700D01*
X6761Y37390D02*
X6821D01*
X6791Y37360D02*
Y37420D01*
X4596Y37390D02*
X4656D01*
X4626Y37360D02*
Y37420D01*
X6958Y37670D02*
X7018D01*
X6988Y37640D02*
Y37700D01*
X7155Y37390D02*
X7215D01*
X7185Y37360D02*
Y37420D01*
X7352Y37670D02*
X7412D01*
X7382Y37640D02*
Y37700D01*
X5580Y37670D02*
X5640D01*
X5610Y37640D02*
Y37700D01*
X7746Y37670D02*
X7806D01*
X7776Y37640D02*
Y37700D01*
X5974Y37670D02*
X6034D01*
X6004Y37640D02*
Y37700D01*
X8969Y16840D02*
X9029D01*
X8999Y16810D02*
Y16870D01*
X10625Y20623D02*
X10685D01*
X10655Y20593D02*
Y20653D01*
X12900Y18809D02*
X12960D01*
X12930Y18779D02*
Y18839D01*
X12679Y20690D02*
X12739D01*
X12709Y20660D02*
Y20720D01*
X12900Y16840D02*
X12960D01*
X12930Y16810D02*
Y16870D01*
X12489Y20410D02*
X12549D01*
X12519Y20380D02*
Y20440D01*
X10937Y16840D02*
X10997D01*
X10967Y16810D02*
Y16870D01*
X11349Y20410D02*
X11409D01*
X11379Y20380D02*
Y20440D01*
X10937Y18809D02*
X10997D01*
X10967Y18779D02*
Y18839D01*
X11159Y20690D02*
X11219D01*
X11189Y20660D02*
Y20720D01*
X14869Y16840D02*
X14929D01*
X14899Y16810D02*
Y16870D01*
X13213Y20623D02*
X13273D01*
X13243Y20593D02*
Y20653D01*
M02*
