M48
;Layer_Color=9474304
;FILE_FORMAT=2:4
INCH,LZ
;TYPE=PLATED
T01F00S00C0.0060
;TYPE=NON_PLATED
T02F00S00C0.0787
%
T01
X036159Y01684
X040888
X042857
X04482
Y018809
X042857
X046789Y01684
X03419
X032227
X030259
X032227Y018809
X03419
X02356
X021597
Y01684
X02356
X025529
X019629
X014899
X01293
X010967
X008999
X010967Y018809
X01293
X012519Y02041
X012709Y02069
X013243Y020623
X011379Y02041
X011189Y02069
X010655Y020623
X021285
X021819Y02069
X022009Y02041
X023149
X023339Y02069
X023873Y020623
X031915
X032448Y02069
X032638Y02041
X033779
X033969Y02069
X034503Y020623
X042545
X043078Y02069
X043268Y02041
X044409
X044599Y02069
X045133Y020623
X043091Y03739
X042697
X042303
X041909
X042106Y03767
X0425
X042894
X043287
X041516
X041122
X040728
X040335
X040138Y03739
X040532
X040925
X041319
X039469
X039075
X038681
X038287
X038484Y03767
X038878
X039272
X039665
X037894
X0375
X037106
X036713
X036516Y03739
X036909
X037303
X037697
X038026Y047419
X039806Y047559
X04Y047139
X041766Y047259
X031136
X02937Y047139
X029176Y047559
X027396Y047419
X020506Y047259
X020256Y03767
X019862
X019468
X019272Y03739
X019665
X020059
X02065
X021043
X021437
X021831
X022028Y03767
X021634
X02124
X020846
X026083
X026476
X02687
X027264
X027067Y03739
X026673
X02628
X025886
X027657
X028051
X028445
X028839
X029035Y03767
X028642
X028248
X027854
X029705
X030098
X030492
X030886
X030689Y03739
X030295
X029902
X029508
X03128
X031673
X032067
X032461
X032657Y03767
X032264
X03187
X031476
X019075
X018878Y03739
X018209
X017815
X017421
X017028
X017224Y03767
X017618
X018012
X018406
X016634
X01624
X015846
X015453
X015256Y03739
X01565
X016043
X016437
X011201
X010807
X010413
X01002
X010217Y03767
X01061
X011004
X011398
X009626
X009232
X008839
X008445
X008248Y03739
X008642
X009035
X009429
X007579
X007185
X006791
X006398
X006594Y03767
X006988
X007382
X007776
X006004
X00561
X005217
X004823
X004626Y03739
X00502
X005413
X005807
X006136Y047419
X007916Y047559
X00811Y047139
X009876Y047259
X016766Y047419
X018546Y047559
X01874Y047139
X013243Y063787
X012709Y063719
X012519Y063999
X011379
X011189Y063719
X010655Y063787
X010965Y065603
X012933
X021594
X023563
X023149Y063999
X023339Y063719
X023873Y063787
X022009Y063999
X021819Y063719
X021285Y063787
X031915
X032448Y063719
X032638Y063999
X033779
X033969Y063719
X034503Y063787
X034193Y065603
X032224
X042854
X044823
X044409Y063999
X044599Y063719
X045133Y063787
X043268Y063999
X043078Y063719
X042545Y063787
X042854Y067572
X044823
X046791
X040886
X036161
X034193
X032224
X030256
X025531
X023563
X021594
X019626
X014902
X012933
X010965
X008996
T02
X001378Y001378
X050571
X001378Y083032
X050571
M30
