G04*
G04 #@! TF.GenerationSoftware,Altium Limited,Altium Designer,25.8.1 (18)*
G04*
G04 Layer_Color=16711935*
%FSLAX24Y24*%
%MOIN*%
G70*
G04*
G04 #@! TF.SameCoordinates,D9F99DD4-C6BC-4522-9F04-89AEA5FBAC45*
G04*
G04*
G04 #@! TF.FilePolarity,Negative*
G04*
G01*
G75*
%ADD10R,0.0118X0.1181*%
%ADD13C,0.0039*%
%ADD17C,0.0220*%
D10*
X22087Y40394D02*
D03*
X21693D02*
D03*
X21496D02*
D03*
X21299D02*
D03*
X21890D02*
D03*
X21102D02*
D03*
X20906D02*
D03*
X20709D02*
D03*
X20512D02*
D03*
X20315D02*
D03*
X20118D02*
D03*
X19921D02*
D03*
X19724D02*
D03*
X19528D02*
D03*
X19331D02*
D03*
X19134D02*
D03*
X18937D02*
D03*
X18740D02*
D03*
X18543D02*
D03*
X18346D02*
D03*
X18150D02*
D03*
X17953D02*
D03*
X17756D02*
D03*
X17559D02*
D03*
X17362D02*
D03*
X17165D02*
D03*
X16969D02*
D03*
X16772D02*
D03*
X16575D02*
D03*
X16378D02*
D03*
X16181D02*
D03*
X15984D02*
D03*
X15787D02*
D03*
X15591D02*
D03*
X15394D02*
D03*
X15197D02*
D03*
X32717D02*
D03*
X32323D02*
D03*
X32126D02*
D03*
X31929D02*
D03*
X32520D02*
D03*
X31732D02*
D03*
X31535D02*
D03*
X31339D02*
D03*
X31142D02*
D03*
X30945D02*
D03*
X30748D02*
D03*
X30551D02*
D03*
X30354D02*
D03*
X30157D02*
D03*
X29961D02*
D03*
X29764D02*
D03*
X29567D02*
D03*
X29370D02*
D03*
X29173D02*
D03*
X28976D02*
D03*
X28780D02*
D03*
X28583D02*
D03*
X28386D02*
D03*
X28189D02*
D03*
X27992D02*
D03*
X27795D02*
D03*
X27598D02*
D03*
X27402D02*
D03*
X27205D02*
D03*
X27008D02*
D03*
X26811D02*
D03*
X26614D02*
D03*
X26417D02*
D03*
X26220D02*
D03*
X26024D02*
D03*
X25827D02*
D03*
X43346D02*
D03*
X42953D02*
D03*
X42756D02*
D03*
X42559D02*
D03*
X43150D02*
D03*
X42362D02*
D03*
X42165D02*
D03*
X41968D02*
D03*
X41772D02*
D03*
X41575D02*
D03*
X41378D02*
D03*
X41181D02*
D03*
X40984D02*
D03*
X40787D02*
D03*
X40591D02*
D03*
X40394D02*
D03*
X40197D02*
D03*
X40000D02*
D03*
X39803D02*
D03*
X39606D02*
D03*
X39409D02*
D03*
X39213D02*
D03*
X39016D02*
D03*
X38819D02*
D03*
X38622D02*
D03*
X38425D02*
D03*
X38228D02*
D03*
X38031D02*
D03*
X37835D02*
D03*
X37638D02*
D03*
X37441D02*
D03*
X37244D02*
D03*
X37047D02*
D03*
X36850D02*
D03*
X36654D02*
D03*
X36457D02*
D03*
X11457D02*
D03*
X11063D02*
D03*
X10866D02*
D03*
X10669D02*
D03*
X11260D02*
D03*
X10472D02*
D03*
X10276D02*
D03*
X10079D02*
D03*
X9882D02*
D03*
X9685D02*
D03*
X9488D02*
D03*
X9291D02*
D03*
X9094D02*
D03*
X8898D02*
D03*
X8701D02*
D03*
X8504D02*
D03*
X8307D02*
D03*
X8110D02*
D03*
X7913D02*
D03*
X7717D02*
D03*
X7520D02*
D03*
X7323D02*
D03*
X7126D02*
D03*
X6929D02*
D03*
X6732D02*
D03*
X6535D02*
D03*
X6339D02*
D03*
X6142D02*
D03*
X5945D02*
D03*
X5748D02*
D03*
X5551D02*
D03*
X5354D02*
D03*
X5157D02*
D03*
X4961D02*
D03*
X4764D02*
D03*
X4567D02*
D03*
D13*
X1378Y1378D02*
D03*
X50571D02*
D03*
X1378Y83032D02*
D03*
X50571D02*
D03*
D17*
X10965Y65603D02*
D03*
X8996Y67572D02*
D03*
X10965D02*
D03*
X12933D02*
D03*
X14902D02*
D03*
X12933Y65603D02*
D03*
X13243Y63787D02*
D03*
X12709Y63719D02*
D03*
X12519Y63999D02*
D03*
X10655Y63787D02*
D03*
X11189Y63719D02*
D03*
X11379Y63999D02*
D03*
X6136Y47419D02*
D03*
X9876Y47259D02*
D03*
X8110Y47139D02*
D03*
X7916Y47559D02*
D03*
X42854Y65603D02*
D03*
X40886Y67572D02*
D03*
X42854D02*
D03*
X44823D02*
D03*
X46791D02*
D03*
X44823Y65603D02*
D03*
X45133Y63787D02*
D03*
X44599Y63719D02*
D03*
X44409Y63999D02*
D03*
X42545Y63787D02*
D03*
X43078Y63719D02*
D03*
X43268Y63999D02*
D03*
X38026Y47419D02*
D03*
X41766Y47259D02*
D03*
X40000Y47139D02*
D03*
X39806Y47559D02*
D03*
X32224Y65603D02*
D03*
X30256Y67572D02*
D03*
X32224D02*
D03*
X34193D02*
D03*
X36161D02*
D03*
X34193Y65603D02*
D03*
X34503Y63787D02*
D03*
X33969Y63719D02*
D03*
X33779Y63999D02*
D03*
X31915Y63787D02*
D03*
X32448Y63719D02*
D03*
X32638Y63999D02*
D03*
X27396Y47419D02*
D03*
X31136Y47259D02*
D03*
X29370Y47139D02*
D03*
X29176Y47559D02*
D03*
X21594Y65603D02*
D03*
X19626Y67572D02*
D03*
X21594D02*
D03*
X23563D02*
D03*
X25531D02*
D03*
X23563Y65603D02*
D03*
X23873Y63787D02*
D03*
X23339Y63719D02*
D03*
X23149Y63999D02*
D03*
X21285Y63787D02*
D03*
X21819Y63719D02*
D03*
X22009Y63999D02*
D03*
X16766Y47419D02*
D03*
X20506Y47259D02*
D03*
X18740Y47139D02*
D03*
X18546Y47559D02*
D03*
X21240Y37670D02*
D03*
X15650Y37390D02*
D03*
X16043D02*
D03*
X16437D02*
D03*
X17028D02*
D03*
X18209D02*
D03*
X18878D02*
D03*
X21831D02*
D03*
X21437D02*
D03*
X21043D02*
D03*
X19272D02*
D03*
X22028Y37670D02*
D03*
X20059Y37390D02*
D03*
X19862Y37670D02*
D03*
X20650Y37390D02*
D03*
X19075Y37670D02*
D03*
X20256D02*
D03*
X20846D02*
D03*
X19665Y37390D02*
D03*
X19468Y37670D02*
D03*
X21634D02*
D03*
X15846D02*
D03*
X17224D02*
D03*
X15453D02*
D03*
X17421Y37390D02*
D03*
X15256D02*
D03*
X17618Y37670D02*
D03*
X17815Y37390D02*
D03*
X18012Y37670D02*
D03*
X16240D02*
D03*
X18406D02*
D03*
X16634D02*
D03*
X19629Y16840D02*
D03*
X21285Y20623D02*
D03*
X23560Y18809D02*
D03*
X23339Y20690D02*
D03*
X23560Y16840D02*
D03*
X23149Y20410D02*
D03*
X21597Y16840D02*
D03*
X22009Y20410D02*
D03*
X21597Y18809D02*
D03*
X21819Y20690D02*
D03*
X25529Y16840D02*
D03*
X23873Y20623D02*
D03*
X31870Y37670D02*
D03*
X26280Y37390D02*
D03*
X26673D02*
D03*
X27067D02*
D03*
X27657D02*
D03*
X28839D02*
D03*
X29508D02*
D03*
X32461D02*
D03*
X32067D02*
D03*
X31673D02*
D03*
X29902D02*
D03*
X32657Y37670D02*
D03*
X30689Y37390D02*
D03*
X30492Y37670D02*
D03*
X31280Y37390D02*
D03*
X29705Y37670D02*
D03*
X30886D02*
D03*
X31476D02*
D03*
X30295Y37390D02*
D03*
X30098Y37670D02*
D03*
X32264D02*
D03*
X26476D02*
D03*
X27854D02*
D03*
X26083D02*
D03*
X28051Y37390D02*
D03*
X25886D02*
D03*
X28248Y37670D02*
D03*
X28445Y37390D02*
D03*
X28642Y37670D02*
D03*
X26870D02*
D03*
X29035D02*
D03*
X27264D02*
D03*
X30259Y16840D02*
D03*
X31915Y20623D02*
D03*
X34190Y18809D02*
D03*
X33969Y20690D02*
D03*
X34190Y16840D02*
D03*
X33779Y20410D02*
D03*
X32227Y16840D02*
D03*
X32638Y20410D02*
D03*
X32227Y18809D02*
D03*
X32448Y20690D02*
D03*
X36159Y16840D02*
D03*
X34503Y20623D02*
D03*
X42500Y37670D02*
D03*
X36909Y37390D02*
D03*
X37303D02*
D03*
X37697D02*
D03*
X38287D02*
D03*
X39469D02*
D03*
X40138D02*
D03*
X43091D02*
D03*
X42697D02*
D03*
X42303D02*
D03*
X40532D02*
D03*
X43287Y37670D02*
D03*
X41319Y37390D02*
D03*
X41122Y37670D02*
D03*
X41909Y37390D02*
D03*
X40335Y37670D02*
D03*
X41516D02*
D03*
X42106D02*
D03*
X40925Y37390D02*
D03*
X40728Y37670D02*
D03*
X42894D02*
D03*
X37106D02*
D03*
X38484D02*
D03*
X36713D02*
D03*
X38681Y37390D02*
D03*
X36516D02*
D03*
X38878Y37670D02*
D03*
X39075Y37390D02*
D03*
X39272Y37670D02*
D03*
X37500D02*
D03*
X39665D02*
D03*
X37894D02*
D03*
X40888Y16840D02*
D03*
X42545Y20623D02*
D03*
X44820Y18809D02*
D03*
X44599Y20690D02*
D03*
X44820Y16840D02*
D03*
X44409Y20410D02*
D03*
X42857Y16840D02*
D03*
X43268Y20410D02*
D03*
X42857Y18809D02*
D03*
X43078Y20690D02*
D03*
X46789Y16840D02*
D03*
X45133Y20623D02*
D03*
X10610Y37670D02*
D03*
X5020Y37390D02*
D03*
X5413D02*
D03*
X5807D02*
D03*
X6398D02*
D03*
X7579D02*
D03*
X8248D02*
D03*
X11201D02*
D03*
X10807D02*
D03*
X10413D02*
D03*
X8642D02*
D03*
X11398Y37670D02*
D03*
X9429Y37390D02*
D03*
X9232Y37670D02*
D03*
X10020Y37390D02*
D03*
X8445Y37670D02*
D03*
X9626D02*
D03*
X10217D02*
D03*
X9035Y37390D02*
D03*
X8839Y37670D02*
D03*
X11004D02*
D03*
X5217D02*
D03*
X6594D02*
D03*
X4823D02*
D03*
X6791Y37390D02*
D03*
X4626D02*
D03*
X6988Y37670D02*
D03*
X7185Y37390D02*
D03*
X7382Y37670D02*
D03*
X5610D02*
D03*
X7776D02*
D03*
X6004D02*
D03*
X8999Y16840D02*
D03*
X10655Y20623D02*
D03*
X12930Y18809D02*
D03*
X12709Y20690D02*
D03*
X12930Y16840D02*
D03*
X12519Y20410D02*
D03*
X10967Y16840D02*
D03*
X11379Y20410D02*
D03*
X10967Y18809D02*
D03*
X11189Y20690D02*
D03*
X14899Y16840D02*
D03*
X13243Y20623D02*
D03*
M02*
