G04*
G04 #@! TF.GenerationSoftware,Altium Limited,Altium Designer,25.8.1 (18)*
G04*
G04 Layer_Color=128*
%FSLAX24Y24*%
%MOIN*%
G70*
G04*
G04 #@! TF.SameCoordinates,FF1D45A5-3A31-4B21-97A2-97707A939336*
G04*
G04*
G04 #@! TF.FilePolarity,Positive*
G04*
G01*
G75*
%ADD10R,0.0118X0.0472*%
%ADD11R,0.0866X0.1299*%
D10*
X-13736Y8850D02*
D03*
X-12752D02*
D03*
X-13146D02*
D03*
X-13539D02*
D03*
X-12555D02*
D03*
X-13933D02*
D03*
X-12949D02*
D03*
X-13343D02*
D03*
X-19445D02*
D03*
X-19248D02*
D03*
X-19051D02*
D03*
X-18854D02*
D03*
X-18657D02*
D03*
X-18461D02*
D03*
X-18264D02*
D03*
X-18067D02*
D03*
X-17870D02*
D03*
X-17673D02*
D03*
X-17476D02*
D03*
X-17280D02*
D03*
X-17083D02*
D03*
X-16886D02*
D03*
X-16689D02*
D03*
X-16492D02*
D03*
X-16295D02*
D03*
X-16098D02*
D03*
X-15902D02*
D03*
X-15705D02*
D03*
X-15508D02*
D03*
X-15311D02*
D03*
X-15114D02*
D03*
X-14917D02*
D03*
X-14720D02*
D03*
X-14524D02*
D03*
X-14327D02*
D03*
X-14130D02*
D03*
X-13736Y25850D02*
D03*
X-12752D02*
D03*
X-13146D02*
D03*
X-13539D02*
D03*
X-12555D02*
D03*
X-13933D02*
D03*
X-12949D02*
D03*
X-13343D02*
D03*
X-19445D02*
D03*
X-19248D02*
D03*
X-19051D02*
D03*
X-18854D02*
D03*
X-18657D02*
D03*
X-18461D02*
D03*
X-18264D02*
D03*
X-18067D02*
D03*
X-17870D02*
D03*
X-17673D02*
D03*
X-17476D02*
D03*
X-17280D02*
D03*
X-17083D02*
D03*
X-16886D02*
D03*
X-16689D02*
D03*
X-16492D02*
D03*
X-16295D02*
D03*
X-16098D02*
D03*
X-15902D02*
D03*
X-15705D02*
D03*
X-15508D02*
D03*
X-15311D02*
D03*
X-15114D02*
D03*
X-14917D02*
D03*
X-14720D02*
D03*
X-14524D02*
D03*
X-14327D02*
D03*
X-14130D02*
D03*
X-13736Y42950D02*
D03*
X-12752D02*
D03*
X-13146D02*
D03*
X-13539D02*
D03*
X-12555D02*
D03*
X-13933D02*
D03*
X-12949D02*
D03*
X-13343D02*
D03*
X-19445D02*
D03*
X-19248D02*
D03*
X-19051D02*
D03*
X-18854D02*
D03*
X-18657D02*
D03*
X-18461D02*
D03*
X-18264D02*
D03*
X-18067D02*
D03*
X-17870D02*
D03*
X-17673D02*
D03*
X-17476D02*
D03*
X-17280D02*
D03*
X-17083D02*
D03*
X-16886D02*
D03*
X-16689D02*
D03*
X-16492D02*
D03*
X-16295D02*
D03*
X-16098D02*
D03*
X-15902D02*
D03*
X-15705D02*
D03*
X-15508D02*
D03*
X-15311D02*
D03*
X-15114D02*
D03*
X-14917D02*
D03*
X-14720D02*
D03*
X-14524D02*
D03*
X-14327D02*
D03*
X-14130D02*
D03*
X-13736Y59950D02*
D03*
X-12752D02*
D03*
X-13146D02*
D03*
X-13539D02*
D03*
X-12555D02*
D03*
X-13933D02*
D03*
X-12949D02*
D03*
X-13343D02*
D03*
X-19445D02*
D03*
X-19248D02*
D03*
X-19051D02*
D03*
X-18854D02*
D03*
X-18657D02*
D03*
X-18461D02*
D03*
X-18264D02*
D03*
X-18067D02*
D03*
X-17870D02*
D03*
X-17673D02*
D03*
X-17476D02*
D03*
X-17280D02*
D03*
X-17083D02*
D03*
X-16886D02*
D03*
X-16689D02*
D03*
X-16492D02*
D03*
X-16295D02*
D03*
X-16098D02*
D03*
X-15902D02*
D03*
X-15705D02*
D03*
X-15508D02*
D03*
X-15311D02*
D03*
X-15114D02*
D03*
X-14917D02*
D03*
X-14720D02*
D03*
X-14524D02*
D03*
X-14327D02*
D03*
X-14130D02*
D03*
D11*
X-20075Y9704D02*
D03*
X-11925D02*
D03*
X-20075Y26704D02*
D03*
X-11925D02*
D03*
X-20075Y43804D02*
D03*
X-11925D02*
D03*
X-20075Y60804D02*
D03*
X-11925D02*
D03*
M02*
