M48
;Layer_Color=9474304
;FILE_FORMAT=2:4
INCH,LZ
;TYPE=PLATED
T01F00S00C0.0080
T02F00S00C0.0120
T03F00S00C0.0157
T04F00S00C0.0160
T07F00S00C0.0400
T08F00S00C0.0402
T09F00S00C0.0409
T10F00S00C0.0945
T11F00S00C0.0984
;TYPE=NON_PLATED
T12F00S00C0.0256
T14F00S00C0.0400
%
T01
X-05906Y0196
X-05706Y0199
X-05206Y0202
X-05006Y0205
X-04606Y0208
X-03826Y021495
Y022021
Y016557
Y015533
Y015021
Y014495
X-03426Y01451
Y015021
Y015533
Y016557
X-03296Y016608
X-03296Y016308
X-032958Y016008
X-032958Y015708
X-031852Y015555
X-03186Y015255
X-032159Y017039
X-032165Y017344
X-03186Y022255
X-03426Y022021
Y02151
X-02915Y0221
X-028847Y0221
Y0151
X-02915Y0151
X-031852Y022555
X-032958Y022708
X-032958Y023008
X-03296Y023308
X-03296Y023608
X-032159Y024039
X-032165Y024344
X-03426Y023557
Y022533
Y02851
Y029021
Y029533
Y030557
X-03296Y030608
X-03296Y030308
X-032958Y030008
X-032958Y029708
X-031852Y029555
X-03186Y029255
X-032159Y031039
X-032165Y031344
X-03186Y036255
X-031852Y036555
X-032958Y036708
X-032958Y037008
X-03296Y037308
X-03296Y037608
X-032159Y038039
X-03426Y037557
Y036533
Y036021
Y03551
X-02915Y0361
X-028847Y0361
Y0291
X-02915Y0291
X-03826Y029021
Y029533
Y030557
Y028495
Y023557
Y022533
Y035495
Y036021
Y036533
Y037557
X-059392Y037
X-060652Y0367
X-06126Y0364
X-06256Y0361
X-06316Y0358
X-06346Y0355
X-06476Y0352
X-06536Y0349
X-06446Y032161
X-063801
X-062227
X-061597
X-060337
X-065691
X-066636Y030252
X-067896Y030558
X-068526
X-070101Y0295
X-070416Y029716
X-07073Y029951
Y0358
X-070416Y0355
X-070101Y0352
X-069156Y0349
X-068841Y035198
X-068526Y0349
X-067896
X-067266
X-066951Y035198
X-066636Y034892
X-066321Y035193
X-065691Y0352
X-071045Y0361
X-07931Y0285
X-08031Y028
X-08131Y0275
X-08231Y027
X-03826Y042495
Y043021
Y043533
Y044557
Y049495
Y050021
Y050533
Y051557
X-03426
Y050533
Y050021
Y04951
X-032958Y050708
X-032958Y051008
X-03296Y051308
X-03296Y051608
X-032159Y052039
X-032165Y052344
X-031852Y050555
X-03186Y050255
X-02915Y0501
X-028847Y0501
Y0431
X-02915Y0431
X-03186Y043255
X-031852Y043555
X-032958Y043708
X-032958Y044008
X-03296Y044308
X-03296Y044608
X-032159Y045039
X-032165Y045344
X-03426Y044557
Y043533
Y043021
Y04251
X-032165Y038344
X-03186Y057255
X-031852Y057555
X-032958Y057708
X-032958Y058008
X-03296Y058308
X-03296Y058608
X-032159Y059039
X-032165Y059344
X-03426Y058557
Y057533
Y057021
Y05651
X-02915Y0571
X-028847Y0571
Y0641
X-02915Y0641
X-03186Y064255
X-031852Y064555
X-032958Y064708
X-032958Y065008
X-03296Y065308
X-03296Y065608
X-032159Y066039
X-032165Y066344
X-03426Y065557
Y064533
Y064021
Y06351
X-03826Y063495
Y064021
Y064533
Y065557
Y058557
Y057533
Y057021
Y056495
X-06216Y0631
X-06146Y064076
X-06056Y065076
X-05976Y066076
T02
X-03826Y0175
Y0197
X-03666Y0196
X-03576Y0183
X-03466Y016806
Y016285
Y015789
X-034673Y015277
X-034667Y014765
Y021765
X-034673Y022277
X-031828Y0202
X-03046Y0195
X-029187
Y0125
X-03046
X-031828Y0132
X-023Y011
X-02175Y00925
X-023Y0205
X-0195
X-016
X-0125
X-009
Y0115
Y0285
Y0375
X-0125
X-016
X-0195
X-023
Y028
X-02175Y02625
X-029187Y0265
X-03046
X-031828Y0272
Y0342
X-03046Y0335
X-029187
X-03666Y0336
X-03826Y0337
Y0315
X-03576Y0323
X-03466Y030806
Y030285
Y029789
X-034673Y029277
X-034667Y028765
X-03666Y0266
X-03826Y0267
Y0245
X-03576Y0253
X-03466Y023806
Y023285
Y022789
X-034667Y035765
X-034673Y036277
X-03466Y036789
Y037285
Y037806
X-065376Y0325
Y02493
X-066006Y0461
X-066636
X-067266
X-067896
X-068526
X-069156
X-069786
X-070416
X-07073Y0465
X-070101
X-069471
X-068841
X-068211
X-067581
X-066951
X-066321
X-065691
X-07136Y046
X-071675Y0456
X-070416Y050631
X-069786
X-070101Y051
X-063171Y0505
Y0465
X-062541
X-061912
X-061282
X-060652
X-060022
X-060337Y0461
X-060967
X-061597
X-062227
X-062856
X-063486
X-064116
X-064746
X-065376
X-065061Y0465
X-064431
X-063801
X-059392Y0461
X-03826Y0455
Y0477
X-03666Y0476
X-03576Y0463
X-03466Y044806
Y044285
Y043789
X-034673Y043277
X-034667Y042765
X-03666Y0406
X-03826Y0407
Y0385
X-03576Y0393
X-034667Y049765
X-034673Y050277
X-03466Y050789
Y051285
Y051806
X-03576Y0533
X-03826Y052512
X-031828Y0482
X-03046Y0475
X-029187
Y0405
X-03046
X-031828Y0412
X-02175Y04335
X-023Y0451
X-009Y0456
Y0546
X-0125
X-016
X-009Y0626
X-023Y0621
X-02175Y06035
X-023Y0546
X-0195
X-029187Y0545
X-03046
X-031828Y0552
X-031861Y0622
X-03046Y0615
X-029187
X-03666Y0616
X-03826Y0617
Y0595
X-03576Y0603
X-03466Y058806
Y058285
Y057789
X-034673Y057277
X-034667Y056765
X-03666Y0546
X-03826Y0547
Y0665
Y0687
X-03666Y0686
X-03576Y0673
X-03466Y065806
Y065285
Y064789
X-034673Y064277
X-034667Y063765
X-05376Y064076
Y063076
Y065076
Y066076
X-05556Y068807
X-05956Y068782
X-05946Y06048
X-05586Y06047
X-066172Y060816
X-070718Y060825
X-077393Y0617
Y0632
X-077193Y0648
X-069645Y068127
X-023Y0716
X-0195
X-016
X-0125
X-009
T03
X-03026Y015098
X-029984Y015255
Y01557
Y015885
X-03026Y015728
Y016043
Y016357
Y016672
X-029984Y01683
Y016515
Y017145
X-03026Y017302
Y022098
X-029984Y022255
Y02257
Y022885
X-03026Y022728
Y023043
Y023357
Y023672
X-029984Y02383
Y023515
Y024145
X-03026Y024302
Y029098
X-029984Y029255
Y02957
Y029885
X-03026Y029728
Y030043
Y030357
Y030672
X-029984Y03083
Y030515
Y031145
X-03026Y031302
Y036098
X-029984Y036255
Y03657
Y036885
X-03026Y036728
Y037043
Y037357
Y037672
X-029984Y03783
Y037515
Y038145
X-03026Y038302
Y043098
X-029984Y043255
Y04357
Y043885
X-03026Y043728
Y044043
Y044357
Y044672
X-029984Y04483
Y044515
Y045145
X-03026Y045302
Y050098
X-029984Y050255
Y05057
Y050885
X-03026Y050728
Y051043
Y051357
Y051672
X-029984Y05183
Y051515
Y052145
X-03026Y052302
Y057098
X-029984Y057255
Y05757
Y057885
X-03026Y057728
Y058043
Y058357
Y058672
X-029984Y05883
Y058515
Y059145
X-03026Y059302
Y064098
X-029984Y064255
Y06457
Y064885
X-03026Y064728
Y065043
Y065357
Y065672
X-029984Y06583
Y065515
Y066145
X-03026Y066302
T04
X-08256Y0171
X-077903Y0129
X-06656Y0171
X-060354Y0136
X-05056Y0171
X-04256Y0141
X-04206Y0291
X-04356Y0351
X-04756Y0311
X-05076Y0294
X-05361Y0319
X-059392Y032161
X-063171Y03228
X-05056Y0356
X-06656Y0324
X-06966Y0347
X-07216Y0346
X-07131Y030757
X-071725Y03033
X-07461Y0288
X-06821Y0262
X-08106Y0361
Y0451
X-07556Y0411
X-06856
X-06951Y0486
X-07246Y0529
X-07491Y0518
X-07636Y0532
X-05306Y0471
X-05406Y0386
X-04456Y0406
X-04806Y0491
X-04406Y0531
X-04706Y0601
Y0681
X-06306Y0686
X-06381Y0566
T07
X-02175Y0135
Y0145
Y0155
Y0165
Y0175
Y0185
Y0195
Y0205
X-02075
Y0195
Y0185
Y0175
Y0165
Y0155
Y0145
Y0135
X-01825
Y0145
Y0155
Y0165
Y0175
Y0185
Y0195
Y0205
X-01725
Y0195
Y0185
Y0175
Y0165
Y0155
Y0145
Y0135
X-01475
Y0145
Y0155
Y0165
Y0175
Y0185
Y0195
Y0205
X-01375
Y0195
Y0185
Y0175
Y0165
Y0155
Y0145
Y0135
X-01125
Y0145
Y0155
Y0165
Y0175
Y0185
Y0195
Y0205
X-01025
Y0195
Y0185
Y0175
Y0165
Y0155
Y0145
Y0135
Y0305
X-01125
Y0315
Y0325
Y0335
Y0345
Y0355
Y0365
Y0375
X-01025
Y0365
Y0355
Y0345
Y0335
Y0325
Y0315
X-01375
X-01475
Y0305
X-01375
Y0325
X-01475
Y0335
Y0345
Y0355
Y0365
Y0375
X-01375
Y0365
Y0355
Y0345
Y0335
X-01725
X-01825
Y0325
Y0315
Y0305
X-01725
Y0315
Y0325
Y0345
X-01825
Y0355
Y0365
Y0375
X-01725
Y0365
Y0355
X-02075
X-02175
Y0345
Y0335
Y0325
Y0315
Y0305
X-02075
Y0315
Y0325
Y0335
Y0345
Y0365
X-02175
Y0375
X-02075
Y0476
X-02175
Y0486
Y0496
Y0506
Y0516
Y0526
Y0536
X-02075
Y0526
Y0516
Y0506
Y0496
Y0486
X-01825
Y0476
X-01725
Y0486
Y0496
X-01825
Y0506
Y0516
Y0526
Y0536
X-01725
Y0526
Y0516
Y0506
X-01475
Y0496
Y0486
Y0476
X-01375
Y0486
Y0496
Y0506
Y0516
X-01475
Y0526
Y0536
X-01375
Y0526
X-01125
Y0516
Y0506
Y0496
Y0486
Y0476
X-01025
Y0486
Y0496
Y0506
Y0516
Y0526
Y0536
X-01125
Y0546
X-01025
X-01375
X-01475
X-01725
X-01825
Y0646
Y0656
Y0666
Y0676
Y0686
X-01725
Y0676
Y0666
Y0656
Y0646
X-01475
Y0656
Y0666
Y0676
Y0686
X-01375
Y0676
Y0666
Y0656
Y0646
X-01125
Y0656
Y0666
Y0676
Y0686
X-01025
Y0676
Y0666
Y0656
Y0646
X-02075
X-02175
Y0656
Y0666
Y0676
Y0686
X-02075
Y0676
Y0666
Y0656
Y0546
X-02175
Y0696
Y0706
Y0716
X-02075
Y0706
Y0696
X-01825
Y0706
Y0716
X-01725
Y0706
Y0696
X-01475
Y0706
Y0716
X-01375
Y0706
Y0696
X-01125
Y0706
Y0716
X-01025
Y0706
Y0696
T08
X-069445Y062527
X-068445
X-067445
Y068127
X-068445
T09
X-08431Y0221
X-08331
X-08231
X-08131
X-08031
X-07931
X-07831
X-07731
X-07631
X-07531
X-07431
X-07331
X-07231
X-07131
X-07031
X-06931
X-06831
X-06731
X-06631
X-06531
X-06206
X-06106
X-06006
X-05906
X-05806
X-05706
X-05606
X-05506
X-05406
X-05306
X-05206
X-05106
X-05006
X-04906
X-04806
X-04706
X-04606
X-04506
X-04406
X-04306
Y0231
X-04406
X-04506
X-04606
X-04706
X-04806
X-04906
X-05006
X-05106
X-05206
X-05306
X-05406
X-05506
X-05606
X-05706
X-05806
X-05906
X-06006
X-06106
X-06206
X-06531
X-06631
X-06731
X-06831
X-06931
X-07031
X-07131
X-07231
X-07331
X-07431
X-07531
X-07631
X-07731
X-07831
X-07931
X-08031
X-08131
X-08231
X-08331
X-08431
X-04906Y0571
X-04806
X-04706
X-04606
X-04506
X-04406
X-04306
Y0581
X-04406
X-04506
X-04606
X-04706
X-04806
X-04906
X-05006
Y0571
X-05106
Y0581
X-05206
Y0571
X-05306
Y0581
X-05406
X-05506
Y0571
X-05406
X-05606
Y0581
X-05706
Y0571
X-05806
Y0581
X-05906
Y0571
X-06006
Y0581
X-06106
Y0571
X-06206
Y0581
X-06531
Y0571
X-06631
Y0581
X-06731
Y0571
X-06831
X-06931
Y0581
X-06831
X-07031
Y0571
X-07131
Y0581
X-07231
Y0571
X-07331
Y0581
X-07431
Y0571
X-07531
Y0581
X-07631
Y0571
X-07731
X-07831
Y0581
X-07931
X-08031
Y0571
X-07931
X-07731Y0581
X-08131
X-08231
X-08331
X-08431
Y0571
X-08331
X-08231
X-08131
T10
X-0095Y0095
Y0265
Y0436
Y0606
T11
X-08456Y0106
X-02976
X-056677Y031939
X-083843
Y049261
X-056677Y049261
X-08456Y0706
X-02976
T12
X-030516Y014783
Y021783
Y028783
Y035783
Y042783
Y049783
Y056783
Y063783
T14
X-058747Y033525
X-07232
Y049273
X-058747
M30
