G04*
G04 #@! TF.GenerationSoftware,Altium Limited,Altium Designer,25.8.1 (18)*
G04*
G04 Layer_Color=2752767*
%FSLAX24Y24*%
%MOIN*%
G70*
G04*
G04 #@! TF.SameCoordinates,3005F47A-DF00-4A05-839E-EE95AA49912D*
G04*
G04*
G04 #@! TF.FilePolarity,Positive*
G04*
G01*
G75*
%ADD38C,0.0020*%
%ADD39C,0.0027*%
D38*
X3660Y3110D02*
X3740Y3190D01*
X3820Y3110D01*
X3740Y3030D01*
X3660Y3110D01*
X-3820D02*
X-3740Y3190D01*
X-3660Y3110D01*
X-3740Y3030D01*
X-3820Y3110D01*
X157Y2451D02*
Y2612D01*
X317D01*
Y2451D01*
X157D01*
X472D02*
Y2612D01*
X632D01*
Y2451D01*
X472D01*
X787D02*
Y2612D01*
X947D01*
Y2451D01*
X787D01*
X-1103D02*
Y2612D01*
X-943D01*
Y2451D01*
X-1103D01*
X-788D02*
Y2612D01*
X-628D01*
Y2451D01*
X-788D01*
X-473D02*
Y2612D01*
X-313D01*
Y2451D01*
X-473D01*
X-631Y2727D02*
Y2887D01*
X-471D01*
Y2727D01*
X-631D01*
X-316D02*
Y2887D01*
X-156D01*
Y2727D01*
X-316D01*
X-1D02*
Y2887D01*
X159D01*
Y2727D01*
X-1D01*
X314D02*
Y2887D01*
X474D01*
Y2727D01*
X314D01*
X-1261D02*
Y2887D01*
X-1101D01*
Y2727D01*
X-1261D01*
X944D02*
Y2887D01*
X1104D01*
Y2727D01*
X944D01*
X1339Y2983D02*
X1259Y3143D01*
X1419D01*
X1339Y2983D01*
X-1496D02*
X-1456Y3023D01*
X-1416D01*
X-1456Y3063D01*
X-1416Y3103D01*
X-1456D01*
X-1496Y3143D01*
X-1536Y3103D01*
X-1576D01*
X-1536Y3063D01*
X-1576Y3023D01*
X-1536D01*
X-1496Y2983D01*
X500Y7567D02*
Y7727D01*
X660D01*
Y7567D01*
X500D01*
X540Y7607D02*
Y7687D01*
X620D01*
Y7607D01*
X540D01*
X779Y7567D02*
Y7727D01*
X939D01*
Y7567D01*
X779D01*
X819Y7607D02*
Y7687D01*
X899D01*
Y7607D01*
X819D01*
X622Y8196D02*
Y8356D01*
X782D01*
Y8196D01*
X622D01*
X662Y8236D02*
Y8316D01*
X742D01*
Y8236D01*
X662D01*
X-3374Y6409D02*
Y6569D01*
X-3214D01*
Y6409D01*
X-3374D01*
X-3334Y6449D02*
Y6529D01*
X-3254D01*
Y6449D01*
X-3334D01*
X169Y7508D02*
Y7667D01*
X329D01*
Y7508D01*
X169D01*
X209Y7548D02*
Y7628D01*
X289D01*
Y7548D01*
X209D01*
X-343Y7507D02*
Y7667D01*
X-183D01*
Y7507D01*
X-343D01*
X-303Y7547D02*
Y7627D01*
X-223D01*
Y7547D01*
X-303D01*
X61Y8216D02*
Y8376D01*
X221D01*
Y8216D01*
X61D01*
X101Y8256D02*
Y8336D01*
X181D01*
Y8256D01*
X101D01*
X350Y8090D02*
Y8250D01*
X510D01*
Y8090D01*
X350D01*
X390Y8130D02*
Y8210D01*
X470D01*
Y8130D01*
X390D01*
X-235Y8216D02*
Y8376D01*
X-75D01*
Y8216D01*
X-235D01*
X-195Y8256D02*
Y8336D01*
X-115D01*
Y8256D01*
X-195D01*
X-524Y8090D02*
Y8250D01*
X-364D01*
Y8090D01*
X-524D01*
X-484Y8130D02*
Y8210D01*
X-404D01*
Y8130D01*
X-484D01*
X2035Y7840D02*
Y8000D01*
X2195D01*
Y7840D01*
X2035D01*
X2075Y7880D02*
Y7960D01*
X2155D01*
Y7880D01*
X2075D01*
X-933Y8433D02*
Y8593D01*
X-773D01*
Y8433D01*
X-933D01*
X-893Y8473D02*
Y8553D01*
X-813D01*
Y8473D01*
X-893D01*
X-796Y8196D02*
Y8356D01*
X-636D01*
Y8196D01*
X-796D01*
X-756Y8236D02*
Y8316D01*
X-676D01*
Y8236D01*
X-756D01*
X61Y8984D02*
Y9144D01*
X221D01*
Y8984D01*
X61D01*
X101Y9024D02*
Y9104D01*
X181D01*
Y9024D01*
X101D01*
X61Y8472D02*
Y8632D01*
X221D01*
Y8472D01*
X61D01*
X101Y8512D02*
Y8592D01*
X181D01*
Y8512D01*
X101D01*
X61Y8728D02*
Y8888D01*
X221D01*
Y8728D01*
X61D01*
X101Y8768D02*
Y8848D01*
X181D01*
Y8768D01*
X101D01*
X267Y7803D02*
Y7963D01*
X427D01*
Y7803D01*
X267D01*
X307Y7843D02*
Y7923D01*
X387D01*
Y7843D01*
X307D01*
X61Y7960D02*
Y8120D01*
X221D01*
Y7960D01*
X61D01*
X101Y8000D02*
Y8080D01*
X181D01*
Y8000D01*
X101D01*
X956Y8925D02*
Y9085D01*
X1116D01*
Y8925D01*
X956D01*
X996Y8965D02*
Y9045D01*
X1076D01*
Y8965D01*
X996D01*
X594Y7866D02*
Y8026D01*
X754D01*
Y7866D01*
X594D01*
X634Y7906D02*
Y7986D01*
X714D01*
Y7906D01*
X634D01*
X760Y8433D02*
Y8593D01*
X920D01*
Y8433D01*
X760D01*
X800Y8473D02*
Y8553D01*
X880D01*
Y8473D01*
X800D01*
X819Y8669D02*
Y8829D01*
X979D01*
Y8669D01*
X819D01*
X859Y8709D02*
Y8789D01*
X939D01*
Y8709D01*
X859D01*
X996Y8196D02*
Y8356D01*
X1156D01*
Y8196D01*
X996D01*
X1036Y8236D02*
Y8316D01*
X1116D01*
Y8236D01*
X1036D01*
X-674Y7567D02*
Y7727D01*
X-514D01*
Y7567D01*
X-674D01*
X-634Y7607D02*
Y7687D01*
X-554D01*
Y7607D01*
X-634D01*
X-1170Y8196D02*
Y8356D01*
X-1010D01*
Y8196D01*
X-1170D01*
X-1130Y8236D02*
Y8316D01*
X-1050D01*
Y8236D01*
X-1130D01*
X-992Y8669D02*
Y8829D01*
X-832D01*
Y8669D01*
X-992D01*
X-952Y8709D02*
Y8789D01*
X-872D01*
Y8709D01*
X-952D01*
X-768Y7866D02*
Y8026D01*
X-608D01*
Y7866D01*
X-768D01*
X-728Y7906D02*
Y7986D01*
X-648D01*
Y7906D01*
X-728D01*
X-1130Y8925D02*
Y9085D01*
X-970D01*
Y8925D01*
X-1130D01*
X-1090Y8965D02*
Y9045D01*
X-1010D01*
Y8965D01*
X-1090D01*
X-87Y7724D02*
Y7884D01*
X73D01*
Y7724D01*
X-87D01*
X-47Y7764D02*
Y7844D01*
X33D01*
Y7764D01*
X-47D01*
X-235Y7960D02*
Y8120D01*
X-75D01*
Y7960D01*
X-235D01*
X-195Y8000D02*
Y8080D01*
X-115D01*
Y8000D01*
X-195D01*
X-953Y7567D02*
Y7727D01*
X-793D01*
Y7567D01*
X-953D01*
X-913Y7607D02*
Y7687D01*
X-833D01*
Y7607D01*
X-913D01*
X-441Y7803D02*
Y7963D01*
X-281D01*
Y7803D01*
X-441D01*
X-401Y7843D02*
Y7923D01*
X-321D01*
Y7843D01*
X-401D01*
X-235Y8728D02*
Y8888D01*
X-75D01*
Y8728D01*
X-235D01*
X-195Y8768D02*
Y8848D01*
X-115D01*
Y8768D01*
X-195D01*
X-235Y8472D02*
Y8632D01*
X-75D01*
Y8472D01*
X-235D01*
X-195Y8512D02*
Y8592D01*
X-115D01*
Y8512D01*
X-195D01*
X-235Y8984D02*
Y9144D01*
X-75D01*
Y8984D01*
X-235D01*
X-195Y9024D02*
Y9104D01*
X-115D01*
Y9024D01*
X-195D01*
X-874Y6700D02*
Y6860D01*
X-714D01*
Y6700D01*
X-874D01*
X-834Y6740D02*
Y6820D01*
X-754D01*
Y6740D01*
X-834D01*
X919Y6298D02*
Y6458D01*
X1079D01*
Y6298D01*
X919D01*
X959Y6338D02*
Y6418D01*
X1039D01*
Y6338D01*
X959D01*
X679Y6298D02*
Y6458D01*
X839D01*
Y6298D01*
X679D01*
X719Y6338D02*
Y6418D01*
X799D01*
Y6338D01*
X719D01*
X525Y6508D02*
Y6668D01*
X685D01*
Y6508D01*
X525D01*
X565Y6548D02*
Y6628D01*
X645D01*
Y6548D01*
X565D01*
X285Y6508D02*
Y6668D01*
X445D01*
Y6508D01*
X285D01*
X325Y6548D02*
Y6628D01*
X405D01*
Y6548D01*
X325D01*
X132Y6700D02*
Y6860D01*
X292D01*
Y6700D01*
X132D01*
X172Y6740D02*
Y6820D01*
X252D01*
Y6740D01*
X172D01*
X-108Y6700D02*
Y6860D01*
X52D01*
Y6700D01*
X-108D01*
X-68Y6740D02*
Y6820D01*
X12D01*
Y6740D01*
X-68D01*
X-180Y5504D02*
Y5664D01*
X-20D01*
Y5504D01*
X-180D01*
X-140Y5544D02*
Y5624D01*
X-60D01*
Y5544D01*
X-140D01*
X-180Y5744D02*
Y5904D01*
X-20D01*
Y5744D01*
X-180D01*
X-140Y5784D02*
Y5864D01*
X-60D01*
Y5784D01*
X-140D01*
X-1511Y4196D02*
Y4356D01*
X-1351D01*
Y4196D01*
X-1511D01*
X-1471Y4236D02*
Y4316D01*
X-1391D01*
Y4236D01*
X-1471D01*
X-1271Y4196D02*
Y4356D01*
X-1111D01*
Y4196D01*
X-1271D01*
X-1231Y4236D02*
Y4316D01*
X-1151D01*
Y4236D01*
X-1231D01*
X-1784Y4002D02*
Y4162D01*
X-1624D01*
Y4002D01*
X-1784D01*
X-1744Y4042D02*
Y4121D01*
X-1664D01*
Y4042D01*
X-1744D01*
X397Y4196D02*
Y4356D01*
X557D01*
Y4196D01*
X397D01*
X437Y4236D02*
Y4316D01*
X517D01*
Y4236D01*
X437D01*
X157Y4196D02*
Y4356D01*
X317D01*
Y4196D01*
X157D01*
X197Y4236D02*
Y4316D01*
X277D01*
Y4236D01*
X197D01*
X-874Y1532D02*
Y1692D01*
X-714D01*
Y1532D01*
X-874D01*
X-834Y1573D02*
Y1653D01*
X-754D01*
Y1573D01*
X-834D01*
X-874Y1293D02*
Y1452D01*
X-714D01*
Y1293D01*
X-874D01*
X-834Y1332D02*
Y1412D01*
X-754D01*
Y1332D01*
X-834D01*
X925Y4196D02*
Y4356D01*
X1085D01*
Y4196D01*
X925D01*
X965Y4236D02*
Y4316D01*
X1045D01*
Y4236D01*
X965D01*
X1165Y4196D02*
Y4356D01*
X1325D01*
Y4196D01*
X1165D01*
X1205Y4236D02*
Y4316D01*
X1285D01*
Y4236D01*
X1205D01*
X-1740Y5504D02*
Y5664D01*
X-1580D01*
Y5504D01*
X-1740D01*
X-1700Y5544D02*
Y5624D01*
X-1620D01*
Y5544D01*
X-1700D01*
X-1740Y5744D02*
Y5904D01*
X-1580D01*
Y5744D01*
X-1740D01*
X-1700Y5784D02*
Y5864D01*
X-1620D01*
Y5784D01*
X-1700D01*
X-461Y4196D02*
Y4356D01*
X-301D01*
Y4196D01*
X-461D01*
X-421Y4236D02*
Y4316D01*
X-341D01*
Y4236D01*
X-421D01*
X-701Y4196D02*
Y4356D01*
X-541D01*
Y4196D01*
X-701D01*
X-661Y4236D02*
Y4316D01*
X-581D01*
Y4236D01*
X-661D01*
X1783Y11748D02*
Y11908D01*
X1943D01*
Y11748D01*
X1783D01*
X1823Y11788D02*
Y11868D01*
X1903D01*
Y11788D01*
X1823D01*
X-87Y11748D02*
Y11908D01*
X73D01*
Y11748D01*
X-87D01*
X-47Y11788D02*
Y11868D01*
X33D01*
Y11788D01*
X-47D01*
X-1957Y11748D02*
Y11908D01*
X-1797D01*
Y11748D01*
X-1957D01*
X-1917Y11788D02*
Y11868D01*
X-1837D01*
Y11788D01*
X-1917D01*
X3210Y4196D02*
Y4356D01*
X3370D01*
Y4196D01*
X3210D01*
X3250Y4236D02*
Y4316D01*
X3330D01*
Y4236D01*
X3250D01*
X-3374Y4196D02*
Y4356D01*
X-3214D01*
Y4196D01*
X-3374D01*
X-3334Y4236D02*
Y4316D01*
X-3254D01*
Y4236D01*
X-3334D01*
X-3188Y12520D02*
Y12680D01*
X-3028D01*
Y12520D01*
X-3188D01*
X-3148Y12560D02*
Y12640D01*
X-3068D01*
Y12560D01*
X-3148D01*
X-1116Y12520D02*
Y12680D01*
X-956D01*
Y12520D01*
X-1116D01*
X-1076Y12560D02*
Y12640D01*
X-996D01*
Y12560D01*
X-1076D01*
X956Y12520D02*
Y12680D01*
X1116D01*
Y12520D01*
X956D01*
X996Y12560D02*
Y12640D01*
X1076D01*
Y12560D01*
X996D01*
X3028Y12520D02*
Y12680D01*
X3188D01*
Y12520D01*
X3028D01*
X3068Y12560D02*
Y12640D01*
X3148D01*
Y12560D01*
X3068D01*
X4395Y5303D02*
Y5463D01*
X4555D01*
Y5303D01*
X4395D01*
X4435Y5343D02*
Y5423D01*
X4515D01*
Y5343D01*
X4435D01*
X3210Y1981D02*
Y2141D01*
X3370D01*
Y1981D01*
X3210D01*
X3250Y2021D02*
Y2101D01*
X3330D01*
Y2021D01*
X3250D01*
X4395Y874D02*
Y1034D01*
X4555D01*
Y874D01*
X4395D01*
X4435Y914D02*
Y994D01*
X4515D01*
Y914D01*
X4435D01*
X-4555Y874D02*
Y1034D01*
X-4395D01*
Y874D01*
X-4555D01*
X-4515Y914D02*
Y994D01*
X-4435D01*
Y914D01*
X-4515D01*
X-3374Y1981D02*
Y2141D01*
X-3214D01*
Y1981D01*
X-3374D01*
X-3334Y2021D02*
Y2101D01*
X-3254D01*
Y2021D01*
X-3334D01*
X-4555Y5303D02*
Y5463D01*
X-4395D01*
Y5303D01*
X-4555D01*
X-4515Y5343D02*
Y5423D01*
X-4435D01*
Y5343D01*
X-4515D01*
X4395Y7517D02*
Y7677D01*
X4555D01*
Y7517D01*
X4395D01*
X4435Y7557D02*
Y7637D01*
X4515D01*
Y7557D01*
X4435D01*
X4395Y9732D02*
Y9892D01*
X4555D01*
Y9732D01*
X4395D01*
X4435Y9772D02*
Y9852D01*
X4515D01*
Y9772D01*
X4435D01*
X-4555Y7517D02*
Y7677D01*
X-4395D01*
Y7517D01*
X-4555D01*
X-4515Y7557D02*
Y7637D01*
X-4435D01*
Y7557D01*
X-4515D01*
X-4555Y9732D02*
Y9892D01*
X-4395D01*
Y9732D01*
X-4555D01*
X-4515Y9772D02*
Y9852D01*
X-4435D01*
Y9772D01*
X-4515D01*
X-2154Y4329D02*
Y4489D01*
X-1994D01*
Y4329D01*
X-2154D01*
X-2114Y4369D02*
Y4449D01*
X-2034D01*
Y4369D01*
X-2114D01*
X1875Y7251D02*
Y7412D01*
X2035D01*
Y7251D01*
X1875D01*
X1915Y7291D02*
Y7372D01*
X1995D01*
Y7291D01*
X1915D01*
X3495Y7052D02*
Y7211D01*
X3655D01*
Y7052D01*
X3495D01*
X3535Y7092D02*
Y7171D01*
X3615D01*
Y7092D01*
X3535D01*
X2630Y5505D02*
Y5665D01*
X2790D01*
Y5505D01*
X2630D01*
X2670Y5545D02*
Y5625D01*
X2750D01*
Y5545D01*
X2670D01*
X1107Y6508D02*
Y6668D01*
X1267D01*
Y6508D01*
X1107D01*
X1147Y6548D02*
Y6628D01*
X1227D01*
Y6548D01*
X1147D01*
X1458Y4002D02*
Y4162D01*
X1618D01*
Y4002D01*
X1458D01*
X1498Y4042D02*
Y4121D01*
X1578D01*
Y4042D01*
X1498D01*
X-176Y4002D02*
Y4162D01*
X-16D01*
Y4002D01*
X-176D01*
X-136Y4042D02*
Y4121D01*
X-56D01*
Y4042D01*
X-136D01*
X615Y4002D02*
Y4162D01*
X775D01*
Y4002D01*
X615D01*
X655Y4042D02*
Y4121D01*
X735D01*
Y4042D01*
X655D01*
X-995Y4002D02*
Y4162D01*
X-835D01*
Y4002D01*
X-995D01*
X-955Y4042D02*
Y4121D01*
X-875D01*
Y4042D01*
X-955D01*
D39*
X1770Y843D02*
G03*
X1770Y843I-80J0D01*
G01*
X-1766D02*
G03*
X-1766Y843I-80J0D01*
G01*
X1628Y2571D02*
G03*
X1628Y2571I-80J0D01*
G01*
X-1624D02*
G03*
X-1624Y2571I-80J0D01*
G01*
M02*
