G04*
G04 #@! TF.GenerationSoftware,Altium Limited,Altium Designer,25.8.1 (18)*
G04*
G04 Layer_Color=16711935*
%FSLAX24Y24*%
%MOIN*%
G70*
G04*
G04 #@! TF.SameCoordinates,BFAA8418-FB48-4662-98FB-23DAB770C147*
G04*
G04*
G04 #@! TF.FilePolarity,Negative*
G04*
G01*
G75*
%ADD37C,0.0266*%
%ADD38O,0.0344X0.0472*%
%ADD71R,0.0886X0.1319*%
%ADD72R,0.0138X0.0492*%
%ADD83C,0.0040*%
%ADD84C,0.1457*%
%ADD85R,0.0639X0.0639*%
%ADD86C,0.0639*%
%ADD87C,0.0587*%
%ADD88O,0.0610X0.0374*%
%ADD89O,0.0634X0.1227*%
%ADD90C,0.0650*%
%ADD91O,0.1227X0.0634*%
%ADD92C,0.0440*%
%ADD93R,0.0650X0.0650*%
%ADD94R,0.0587X0.0587*%
%ADD95C,0.2049*%
D37*
X64331Y63633D02*
D03*
Y56633D02*
D03*
Y49633D02*
D03*
Y42633D02*
D03*
Y35633D02*
D03*
Y28633D02*
D03*
Y21633D02*
D03*
Y14633D02*
D03*
D38*
X64331Y66467D02*
D03*
Y59467D02*
D03*
Y52467D02*
D03*
Y45467D02*
D03*
Y38467D02*
D03*
Y31467D02*
D03*
Y24467D02*
D03*
Y17467D02*
D03*
D71*
X83135Y9826D02*
D03*
X74985D02*
D03*
X83135Y26826D02*
D03*
X74985D02*
D03*
X83135Y43926D02*
D03*
X74985D02*
D03*
X83135Y60926D02*
D03*
X74985D02*
D03*
D72*
X82505Y10681D02*
D03*
X82308D02*
D03*
X82111D02*
D03*
X81914D02*
D03*
X81717D02*
D03*
X81521D02*
D03*
X81324D02*
D03*
X81127D02*
D03*
X80930D02*
D03*
X80733D02*
D03*
X80536D02*
D03*
X80340D02*
D03*
X80143D02*
D03*
X79946D02*
D03*
X79749D02*
D03*
X79552D02*
D03*
X79355D02*
D03*
X79158D02*
D03*
X78962D02*
D03*
X78765D02*
D03*
X78568D02*
D03*
X78371D02*
D03*
X78174D02*
D03*
X77977D02*
D03*
X77780D02*
D03*
X77584D02*
D03*
X77387D02*
D03*
X77190D02*
D03*
X76993D02*
D03*
X76796D02*
D03*
X76599D02*
D03*
X76403D02*
D03*
X76206D02*
D03*
X76009D02*
D03*
X75812D02*
D03*
X75615D02*
D03*
X82505Y27681D02*
D03*
X82308D02*
D03*
X82111D02*
D03*
X81914D02*
D03*
X81717D02*
D03*
X81521D02*
D03*
X81324D02*
D03*
X81127D02*
D03*
X80930D02*
D03*
X80733D02*
D03*
X80536D02*
D03*
X80340D02*
D03*
X80143D02*
D03*
X79946D02*
D03*
X79749D02*
D03*
X79552D02*
D03*
X79355D02*
D03*
X79158D02*
D03*
X78962D02*
D03*
X78765D02*
D03*
X78568D02*
D03*
X78371D02*
D03*
X78174D02*
D03*
X77977D02*
D03*
X77780D02*
D03*
X77584D02*
D03*
X77387D02*
D03*
X77190D02*
D03*
X76993D02*
D03*
X76796D02*
D03*
X76599D02*
D03*
X76403D02*
D03*
X76206D02*
D03*
X76009D02*
D03*
X75812D02*
D03*
X75615D02*
D03*
X82505Y44781D02*
D03*
X82308D02*
D03*
X82111D02*
D03*
X81914D02*
D03*
X81717D02*
D03*
X81521D02*
D03*
X81324D02*
D03*
X81127D02*
D03*
X80930D02*
D03*
X80733D02*
D03*
X80536D02*
D03*
X80340D02*
D03*
X80143D02*
D03*
X79946D02*
D03*
X79749D02*
D03*
X79552D02*
D03*
X79355D02*
D03*
X79158D02*
D03*
X78962D02*
D03*
X78765D02*
D03*
X78568D02*
D03*
X78371D02*
D03*
X78174D02*
D03*
X77977D02*
D03*
X77780D02*
D03*
X77584D02*
D03*
X77387D02*
D03*
X77190D02*
D03*
X76993D02*
D03*
X76796D02*
D03*
X76599D02*
D03*
X76403D02*
D03*
X76206D02*
D03*
X76009D02*
D03*
X75812D02*
D03*
X75615D02*
D03*
X82505Y61781D02*
D03*
X82308D02*
D03*
X82111D02*
D03*
X81914D02*
D03*
X81717D02*
D03*
X81521D02*
D03*
X81324D02*
D03*
X81127D02*
D03*
X80930D02*
D03*
X80733D02*
D03*
X80536D02*
D03*
X80340D02*
D03*
X80143D02*
D03*
X79946D02*
D03*
X79749D02*
D03*
X79552D02*
D03*
X79355D02*
D03*
X79158D02*
D03*
X78962D02*
D03*
X78765D02*
D03*
X78568D02*
D03*
X78371D02*
D03*
X78174D02*
D03*
X77977D02*
D03*
X77780D02*
D03*
X77584D02*
D03*
X77387D02*
D03*
X77190D02*
D03*
X76993D02*
D03*
X76796D02*
D03*
X76599D02*
D03*
X76403D02*
D03*
X76206D02*
D03*
X76009D02*
D03*
X75812D02*
D03*
X75615D02*
D03*
D83*
X4000Y4000D02*
D03*
Y77100D02*
D03*
X91060D02*
D03*
Y4000D02*
D03*
D84*
X72400Y9810D02*
D03*
X85720D02*
D03*
X72400Y26810D02*
D03*
X85720D02*
D03*
X72400Y43910D02*
D03*
X85720D02*
D03*
X72400Y60910D02*
D03*
X85720D02*
D03*
D85*
X73310Y13500D02*
D03*
X76810D02*
D03*
X80310D02*
D03*
X83810D02*
D03*
X73310Y30500D02*
D03*
X76810D02*
D03*
X80310D02*
D03*
X83810D02*
D03*
X73310Y47600D02*
D03*
X76810D02*
D03*
X80310D02*
D03*
X83810D02*
D03*
X73310Y64600D02*
D03*
X76810D02*
D03*
X80310D02*
D03*
X83810D02*
D03*
D86*
X73310Y14500D02*
D03*
Y15500D02*
D03*
Y16500D02*
D03*
Y17500D02*
D03*
Y18500D02*
D03*
Y19500D02*
D03*
Y20500D02*
D03*
X74310D02*
D03*
Y19500D02*
D03*
Y18500D02*
D03*
Y17500D02*
D03*
Y16500D02*
D03*
Y15500D02*
D03*
Y14500D02*
D03*
Y13500D02*
D03*
X76810Y14500D02*
D03*
Y15500D02*
D03*
Y16500D02*
D03*
Y17500D02*
D03*
Y18500D02*
D03*
Y19500D02*
D03*
Y20500D02*
D03*
X77810D02*
D03*
Y19500D02*
D03*
Y18500D02*
D03*
Y17500D02*
D03*
Y16500D02*
D03*
Y15500D02*
D03*
Y14500D02*
D03*
Y13500D02*
D03*
X80310Y14500D02*
D03*
Y15500D02*
D03*
Y16500D02*
D03*
Y17500D02*
D03*
Y18500D02*
D03*
Y19500D02*
D03*
Y20500D02*
D03*
X81310D02*
D03*
Y19500D02*
D03*
Y18500D02*
D03*
Y17500D02*
D03*
Y16500D02*
D03*
Y15500D02*
D03*
Y14500D02*
D03*
Y13500D02*
D03*
X83810Y14500D02*
D03*
Y15500D02*
D03*
Y16500D02*
D03*
Y17500D02*
D03*
Y18500D02*
D03*
Y19500D02*
D03*
Y20500D02*
D03*
X84810D02*
D03*
Y19500D02*
D03*
Y18500D02*
D03*
Y17500D02*
D03*
Y16500D02*
D03*
Y15500D02*
D03*
Y14500D02*
D03*
Y13500D02*
D03*
X73310Y31500D02*
D03*
Y32500D02*
D03*
Y33500D02*
D03*
Y34500D02*
D03*
Y35500D02*
D03*
Y36500D02*
D03*
Y37500D02*
D03*
X74310D02*
D03*
Y36500D02*
D03*
Y35500D02*
D03*
Y34500D02*
D03*
Y33500D02*
D03*
Y32500D02*
D03*
Y31500D02*
D03*
Y30500D02*
D03*
X76810Y31500D02*
D03*
Y32500D02*
D03*
Y33500D02*
D03*
Y34500D02*
D03*
Y35500D02*
D03*
Y36500D02*
D03*
Y37500D02*
D03*
X77810D02*
D03*
Y36500D02*
D03*
Y35500D02*
D03*
Y34500D02*
D03*
Y33500D02*
D03*
Y32500D02*
D03*
Y31500D02*
D03*
Y30500D02*
D03*
X80310Y31500D02*
D03*
Y32500D02*
D03*
Y33500D02*
D03*
Y34500D02*
D03*
Y35500D02*
D03*
Y36500D02*
D03*
Y37500D02*
D03*
X81310D02*
D03*
Y36500D02*
D03*
Y35500D02*
D03*
Y34500D02*
D03*
Y33500D02*
D03*
Y32500D02*
D03*
Y31500D02*
D03*
Y30500D02*
D03*
X83810Y31500D02*
D03*
Y32500D02*
D03*
Y33500D02*
D03*
Y34500D02*
D03*
Y35500D02*
D03*
Y36500D02*
D03*
Y37500D02*
D03*
X84810D02*
D03*
Y36500D02*
D03*
Y35500D02*
D03*
Y34500D02*
D03*
Y33500D02*
D03*
Y32500D02*
D03*
Y31500D02*
D03*
Y30500D02*
D03*
X73310Y48600D02*
D03*
Y49600D02*
D03*
Y50600D02*
D03*
Y51600D02*
D03*
Y52600D02*
D03*
Y53600D02*
D03*
Y54600D02*
D03*
X74310D02*
D03*
Y53600D02*
D03*
Y52600D02*
D03*
Y51600D02*
D03*
Y50600D02*
D03*
Y49600D02*
D03*
Y48600D02*
D03*
Y47600D02*
D03*
X76810Y48600D02*
D03*
Y49600D02*
D03*
Y50600D02*
D03*
Y51600D02*
D03*
Y52600D02*
D03*
Y53600D02*
D03*
Y54600D02*
D03*
X77810D02*
D03*
Y53600D02*
D03*
Y52600D02*
D03*
Y51600D02*
D03*
Y50600D02*
D03*
Y49600D02*
D03*
Y48600D02*
D03*
Y47600D02*
D03*
X80310Y48600D02*
D03*
Y49600D02*
D03*
Y50600D02*
D03*
Y51600D02*
D03*
Y52600D02*
D03*
Y53600D02*
D03*
Y54600D02*
D03*
X81310D02*
D03*
Y53600D02*
D03*
Y52600D02*
D03*
Y51600D02*
D03*
Y50600D02*
D03*
Y49600D02*
D03*
Y48600D02*
D03*
Y47600D02*
D03*
X83810Y48600D02*
D03*
Y49600D02*
D03*
Y50600D02*
D03*
Y51600D02*
D03*
Y52600D02*
D03*
Y53600D02*
D03*
Y54600D02*
D03*
X84810D02*
D03*
Y53600D02*
D03*
Y52600D02*
D03*
Y51600D02*
D03*
Y50600D02*
D03*
Y49600D02*
D03*
Y48600D02*
D03*
Y47600D02*
D03*
X73310Y65600D02*
D03*
Y66600D02*
D03*
Y67600D02*
D03*
Y68600D02*
D03*
Y69600D02*
D03*
Y70600D02*
D03*
Y71600D02*
D03*
X74310D02*
D03*
Y70600D02*
D03*
Y69600D02*
D03*
Y68600D02*
D03*
Y67600D02*
D03*
Y66600D02*
D03*
Y65600D02*
D03*
Y64600D02*
D03*
X76810Y65600D02*
D03*
Y66600D02*
D03*
Y67600D02*
D03*
Y68600D02*
D03*
Y69600D02*
D03*
Y70600D02*
D03*
Y71600D02*
D03*
X77810D02*
D03*
Y70600D02*
D03*
Y69600D02*
D03*
Y68600D02*
D03*
Y67600D02*
D03*
Y66600D02*
D03*
Y65600D02*
D03*
Y64600D02*
D03*
X80310Y65600D02*
D03*
Y66600D02*
D03*
Y67600D02*
D03*
Y68600D02*
D03*
Y69600D02*
D03*
Y70600D02*
D03*
Y71600D02*
D03*
X81310D02*
D03*
Y70600D02*
D03*
Y69600D02*
D03*
Y68600D02*
D03*
Y67600D02*
D03*
Y66600D02*
D03*
Y65600D02*
D03*
Y64600D02*
D03*
X83810Y65600D02*
D03*
Y66600D02*
D03*
Y67600D02*
D03*
Y68600D02*
D03*
Y69600D02*
D03*
Y70600D02*
D03*
Y71600D02*
D03*
X84810D02*
D03*
Y70600D02*
D03*
Y69600D02*
D03*
Y68600D02*
D03*
Y67600D02*
D03*
Y66600D02*
D03*
Y65600D02*
D03*
Y64600D02*
D03*
D87*
X15000Y58550D02*
D03*
X16000D02*
D03*
Y57550D02*
D03*
X28000Y10550D02*
D03*
X31000D02*
D03*
X32000D02*
D03*
X29000D02*
D03*
X30000D02*
D03*
X32000Y58550D02*
D03*
X14000Y57550D02*
D03*
X32000Y20550D02*
D03*
X31000Y19550D02*
D03*
X32000D02*
D03*
X31000Y20550D02*
D03*
X28000Y11550D02*
D03*
X31000D02*
D03*
X32000D02*
D03*
X29000D02*
D03*
X30000D02*
D03*
X13000Y10550D02*
D03*
X14000Y11550D02*
D03*
Y10550D02*
D03*
X15000Y11550D02*
D03*
Y10550D02*
D03*
X16000Y11550D02*
D03*
Y10550D02*
D03*
X17000Y11550D02*
D03*
Y10550D02*
D03*
X18000Y11550D02*
D03*
Y10550D02*
D03*
X19000Y11550D02*
D03*
Y10550D02*
D03*
X20000Y11550D02*
D03*
Y10550D02*
D03*
X21000Y11550D02*
D03*
Y10550D02*
D03*
X22000Y11550D02*
D03*
Y10550D02*
D03*
X23000Y11550D02*
D03*
Y10550D02*
D03*
X24000Y11550D02*
D03*
Y10550D02*
D03*
X25000Y11550D02*
D03*
Y10550D02*
D03*
X26000Y11550D02*
D03*
Y10550D02*
D03*
X27000Y11550D02*
D03*
Y10550D02*
D03*
X13000Y19550D02*
D03*
X14000Y20550D02*
D03*
Y19550D02*
D03*
X15000Y20550D02*
D03*
Y19550D02*
D03*
X16000Y20550D02*
D03*
Y19550D02*
D03*
X17000Y20550D02*
D03*
Y19550D02*
D03*
X18000Y20550D02*
D03*
Y19550D02*
D03*
X19000Y20550D02*
D03*
Y19550D02*
D03*
X20000Y20550D02*
D03*
Y19550D02*
D03*
X21000Y20550D02*
D03*
Y19550D02*
D03*
X22000Y20550D02*
D03*
Y19550D02*
D03*
X23000Y20550D02*
D03*
Y19550D02*
D03*
X24000Y20550D02*
D03*
Y19550D02*
D03*
X25000Y20550D02*
D03*
Y19550D02*
D03*
X26000Y20550D02*
D03*
Y19550D02*
D03*
X27000Y20550D02*
D03*
Y19550D02*
D03*
X28000Y20550D02*
D03*
Y19550D02*
D03*
X29000Y20550D02*
D03*
Y19550D02*
D03*
X30000Y20550D02*
D03*
Y19550D02*
D03*
X13000Y57550D02*
D03*
X14000Y58550D02*
D03*
X15000Y57550D02*
D03*
X17000Y58550D02*
D03*
Y57550D02*
D03*
X18000Y58550D02*
D03*
Y57550D02*
D03*
X19000Y58550D02*
D03*
Y57550D02*
D03*
X20000Y58550D02*
D03*
Y57550D02*
D03*
X21000Y58550D02*
D03*
Y57550D02*
D03*
X22000Y58550D02*
D03*
Y57550D02*
D03*
X23000Y58550D02*
D03*
Y57550D02*
D03*
X24000Y58550D02*
D03*
Y57550D02*
D03*
X25000Y58550D02*
D03*
Y57550D02*
D03*
X26000Y58550D02*
D03*
Y57550D02*
D03*
X27000Y58550D02*
D03*
Y57550D02*
D03*
X28000Y58550D02*
D03*
Y57550D02*
D03*
X29000Y58550D02*
D03*
Y57550D02*
D03*
X30000Y58550D02*
D03*
Y57550D02*
D03*
X31000Y58550D02*
D03*
Y57550D02*
D03*
X32000D02*
D03*
D88*
X67166Y63282D02*
D03*
Y66818D02*
D03*
Y59818D02*
D03*
Y56282D02*
D03*
Y52818D02*
D03*
X64824Y63424D02*
D03*
Y66676D02*
D03*
Y59676D02*
D03*
Y56424D02*
D03*
Y52676D02*
D03*
X67166Y49282D02*
D03*
Y45818D02*
D03*
Y42282D02*
D03*
Y38818D02*
D03*
X64824Y49424D02*
D03*
Y42424D02*
D03*
Y38676D02*
D03*
Y45676D02*
D03*
X67166Y35282D02*
D03*
Y31818D02*
D03*
Y28282D02*
D03*
Y24818D02*
D03*
X64824Y35424D02*
D03*
Y28424D02*
D03*
Y24676D02*
D03*
Y31676D02*
D03*
X67166Y21282D02*
D03*
Y17818D02*
D03*
Y14282D02*
D03*
X64824Y21424D02*
D03*
Y17676D02*
D03*
Y14424D02*
D03*
D89*
X11197Y65050D02*
D03*
X13559D02*
D03*
D90*
X48350Y13610D02*
D03*
Y12610D02*
D03*
D91*
X12378Y63200D02*
D03*
D92*
X22822Y33475D02*
D03*
X36396D02*
D03*
X22822Y49223D02*
D03*
X36396D02*
D03*
D93*
X48350Y11610D02*
D03*
D94*
X13000Y11550D02*
D03*
Y20550D02*
D03*
Y58550D02*
D03*
D95*
X65300Y70600D02*
D03*
X10500D02*
D03*
X11300Y49211D02*
D03*
X38465D02*
D03*
Y31889D02*
D03*
X11300D02*
D03*
X65300Y10600D02*
D03*
X10500D02*
D03*
M02*
