M48
;Layer_Color=9474304
;FILE_FORMAT=2:4
INCH,LZ
;TYPE=PLATED
T01F00S00C0.0080
T02F00S00C0.0120
T05F00S00C0.0400
T06F00S00C0.0402
T07F00S00C0.0409
T08F00S00C0.0945
T09F00S00C0.0984
;TYPE=NON_PLATED
T10F00S00C0.0266
T12F00S00C0.0400
T13F00S00C0.0984
%
T01
X065677Y016247
X065151Y016647
X065134Y016987
X0644Y016829
Y016649
X063767Y016539
X063667Y01614
Y01596
X063714Y015558
X063782Y014801
X063452Y01445
X063417Y013945
Y013605
Y013265
X063324Y012938
X063083Y012697
X062843Y012457
X062602Y012216
X062362Y011976
X062052Y011837
X061804Y011605
X061147Y011553
X060959Y011837
X060634Y01174
X060545Y012561
X060885Y012563
X061112Y012816
X061224Y013011
X06144Y012905
X061772Y012832
X062099Y01274
X06234Y01298
X06258Y013221
X062691Y013542
Y013882
Y014222
X0627Y01445
X061934Y014636
X061612Y014744
X061277Y014801
X06139Y014405
X061728Y014366
X0617Y015074
Y015254
X061402Y015687
X061069Y015756
X061056Y015527
X060716
X060376
X060036
X059959Y016154
X059988Y016493
X060328
X060586Y016235
X060827Y015995
X061294Y016553
X061604Y016413
X061944
X062279Y016473
X062613Y016413
X062913Y016573
X0622Y01614
Y01596
X0644Y015755
Y015254
Y015074
X065151Y015202
X06511Y014865
X065053Y015528
X063875Y017404
X063592Y017593
X063252Y017596
X061804Y018605
X061147Y018553
X060634Y01874
X060566Y017744
X060326Y017985
X05965Y017964
Y017784
X058439Y017755
X058626Y018039
X058406Y018686
X058676Y017155
X058829Y016851
X058669Y01655
X057805Y016472
X057676Y016172
X057635Y016753
X057673Y017091
X056681Y017566
X056341Y017555
X056001
X055661
X055321
X054981
X054641
X054301
X053961
X053621
X053281
X052941
X052601
X052266Y017611
X052328Y017945
X052269Y018279
X051971Y018444
X05164Y018366
X0513
X05096
X05062
X05028
X050204Y016668
X050544
X050884
X050645Y015901
X050305
X050884Y015659
Y015319
Y014979
Y014639
Y014299
Y013959
X05081Y013627
X050926Y013308
X051248Y0132
X051588Y013181
X051843Y012956
X052178Y013014
X052518Y013018
X052858
X053198
X053538
X053878
X054008Y013905
X054348
X054688
X055028
X055368
X055708
X055918Y013018
X056258
X056598
X057805Y013078
X057676Y013394
X057669Y013734
X05873Y013385
X058917Y012602
X058638Y012407
X058381Y011814
X058542Y011515
X059959Y012217
X059909Y012553
X060253Y012387
X060405Y013502
X060702Y013337
X06104Y013297
X061846Y013184
X062097Y013413
X062339Y013652
X061078Y014271
X060749Y014185
X060508Y014425
X06026Y014657
X059923Y014702
X059583
X059243
X058903
X058601Y014545
X058633Y015034
X058148Y014869
X056487Y015879
X056149Y015846
X055813Y015901
X055919Y016532
X056583
X054793Y015901
X053773
X053433
X053101Y015826
X05277Y015901
X05243
X052266Y015603
Y015263
Y014923
Y014583
Y014243
X052308Y013905
X052648
X052988
X053328
X053668
X054898Y013018
X051516Y014222
Y014562
Y014902
Y015242
Y015582
X051634Y015901
X052564Y016668
X052904
X053244
X060164Y013742
X059956Y013474
X049965Y015901
X049625
X049285
X048945
X048605
X048265
X047925
X047585
X047245
X046905
X046565
X046225
X045885
X045545
X045205
X044865
X044525
X044185Y015906
X043905Y016099
X043664Y016339
X043424Y01658
X043184Y01682
X042943Y01706
X042703Y017301
X044424Y016668
X044764
X045104
X045444
X045784
X046124
X046464
X046804
X047144
X047484
X047824
X048164
X048504
X048844
X049184
X049524
X049864
X04994Y018366
X0496
X04926
X04892
X04858
X04824
X0479
X04756
X04722
X04688
X04654
X0462
X04586
X04552
X04518
X04484
X0445
X044166Y01843
X043926Y018671
X032219Y021634
X031739Y022115
X031017Y022836
X030536Y023317
X030296Y023558
X030056Y023798
X029815Y024038
X029575Y024279
X029334Y024519
X029094Y02476
X028854Y025
X028613Y025241
X028373Y025481
X028132Y025721
X027892Y025962
X027651Y026202
X027411Y026443
X027171Y026683
X02693Y026923
X02669Y027164
X026449Y027404
X026209Y027645
X025969Y027885
X025728Y028126
X025488Y028366
X025356Y02902
Y03004
Y03038
Y03072
X028507Y030835
X028821Y030524
X030638Y033334
X031318
X031658
X031979Y033446
X032958Y033334
X033298
X033638Y033335
X033978Y033338
X034318Y033341
X03421Y032016
X03387
X03353
X034658Y033342
X034998Y033339
X035338Y033335
X035678Y033334
X036012Y033398
X036105Y034239
X036443Y034206
X036783
X037123
X037463
X037803
X038143
X038483
X038823
X039163
X039503
X039843
X040183
X040523
X040863
X041203
X041543
X041883
X042223
X042563
X042903
X043243
X043055Y033401
X042762Y033575
X042422
X042082
X041742
X041402
X041062
X040722
X040382
X040042
X039702
X039362
X039022
X038682
X038342
X038002
X037662
X037322
X036982
X037282Y030066
X037622
X037962
X038302
X038642
X038982
X039322
X039662
X039929Y030276
X04017Y030516
X04041Y030756
X04065Y030997
X040891Y031237
X041131Y031478
X041372Y031718
X041612Y031958
X041853Y032199
X042093Y032439
X042333Y03268
X042574Y03292
X042814Y033161
X043086Y03089
X043326Y03113
X043567Y03137
X043807Y031611
X044048Y031851
X044288Y032092
X044528Y032332
X044769Y032573
X045009Y032813
X04525Y033053
X04549Y033294
X045731Y033534
X045971Y033775
X046211Y034015
X046452Y034255
X047103Y034249
X046863Y034009
X046622Y033769
X046382Y033528
X046141Y033288
X045901Y033047
X045661Y032807
X04542Y032567
X04518Y032326
X044939Y032086
X044699Y031845
X044459Y031605
X044218Y031364
X043978Y031124
X043737Y030884
X043497Y030643
X043256Y030403
X043016Y030162
X042776Y029922
X042535Y029682
X042295Y029441
X042054Y029201
X041814Y02896
X041487Y028866
X041163Y028966
X041403Y029207
X041643Y029447
X041884Y029688
X042124Y029928
X042365Y030168
X042605Y030409
X042846Y030649
X04312Y027324
X043398Y027127
X043738
X044078
X044418
X044758
X045098
X045354Y02735
X045594Y027591
X045835Y027831
X046075Y028072
X046316Y028312
X046556Y028552
X046796Y028793
X047037Y029033
X047277Y029274
X047518Y029514
X047758Y029754
X047999Y029995
X048239Y030235
X048479Y030476
X04872Y030716
X04896Y030957
X049201Y031197
X049441Y031437
X049681Y031678
X049922Y031918
X048169Y032373
X04841Y032613
X04865Y032854
X04889Y033094
X049131Y033335
X049371Y033575
X049612Y033815
X049852Y034056
X047929Y032132
X047688Y031892
X047448Y031652
X047208Y031411
X046967Y031171
X046727Y03093
X046486Y03069
X046246Y03045
X046005Y030209
X045765Y029969
X045525Y029728
X045284Y029488
X045044Y029247
X044803Y029007
X044563Y028767
X044323Y028526
X044082Y028286
X043842Y028045
X043601Y027805
X043361Y027565
X043449Y023384
X043109
X042769
X043789
X044129
X044469
X044809
X045149
X045489
X045829
X046169
X046509
X046849
X047189
X047529
X047869
X048209
X048549
X048889
X049229
X049569
X049909
X049847Y025486
X049507
X049167
X048827
X048487
X048147
X047807
X047467
X047127
X046787
X046462Y025586
X046703Y025826
X046943Y026066
X047184Y026307
X047424Y026547
X047664Y026788
X047905Y027028
X048145Y027268
X048386Y027509
X048626Y027749
X048867Y02799
X049107Y02823
X049347Y028471
X049588Y028711
X049828Y028951
X041409Y023384
X041069
X041041Y021556
X039577Y020426
X040299Y019705
X04102Y018984
X043445Y019152
X043204Y019392
X042964Y019632
X042724Y019873
X043685Y018911
X038009Y023384
X037648Y023266
X036628
X050249Y023384
X050589
X050884Y023215
Y022875
Y022535
Y022195
Y021855
Y021515
Y021175
Y020835
X050817Y020502
X051028Y020235
X051368Y020233
X051663Y020064
X051981Y019942
X052312Y020018
X052652
X052992
X053332
X053194Y020905
X053534
X053874
X054214
X054554
X054894
X055234
X055574
X056052Y020018
X056392
X055032
X054692
X052854Y020905
X052514
X052266Y021138
Y021478
Y021818
Y022158
Y022498
Y022838
Y023178
X052536Y023383
X052777Y023143
X052962Y022858
X053298Y022805
X053629Y022883
X054649
X054989
X056009
X056679Y022891
X057653Y023023
X057805Y023472
X057674Y023882
X057676Y024222
X058676Y024155
X058829Y023851
X058669Y02355
X059988Y023493
X060328
X060586Y023235
X060827Y022995
X061069Y022756
X061056Y022527
X060716
X060376
X060036
X059959Y023154
X059924Y021702
X059584
X059244
X058904
X058602Y021546
X058633Y022034
X058148Y021869
X0576Y020866
X057676Y020534
X057805Y020078
X058729Y020385
X058818Y01953
X058381Y019025
X059959Y019338
X060289Y019422
X060598Y019563
X060938
X061137Y019839
X06147Y019905
X061795Y019806
X062134Y019775
X062374Y020015
X062615Y020255
X062691Y020587
Y020927
X0627Y02145
X063452
X063417Y020945
Y020605
Y020265
X063324Y019938
X063083Y019697
X062843Y019457
X062602Y019216
X062362Y018976
X062052Y018837
X060959
X061044Y020239
X060718Y020337
X060415Y020492
X059956Y020472
X060175Y020732
X060261Y021657
X060509Y021424
X06075Y021184
X061078Y021272
X061391Y021405
X061728Y021365
X061934Y021636
X061612Y021744
X061277Y021801
X0617Y022074
Y022254
X061402Y022687
X061604Y023413
X061944
X062279Y023473
X062613Y023413
X062913Y023573
X063767Y023539
X063667Y02314
Y02296
X063714Y022558
X063782Y021801
X0644Y022074
Y022254
Y022755
X065053Y022528
X065151Y022202
X06511Y021865
X065151Y023647
X065134Y023987
X0644Y023829
Y023649
X063875Y024404
X063592Y024593
X063252Y024596
X062362Y025976
X062052Y025837
X061804Y025605
X061147Y025553
X060959Y025837
X060634Y02574
X060598Y026563
X060938
X061137Y026839
X06147Y026905
X061795Y026806
X062134Y026774
X062374Y027015
X062615Y027255
X062691Y027587
Y027927
X0627Y02845
X063452
X063417Y027945
Y027605
Y027265
X063324Y026938
X063083Y026697
X062843Y026457
X062602Y026216
X062133Y027446
X061857Y027246
X061044Y027239
X060718Y027337
X060415Y027492
X059956Y027472
X060175Y027732
X060261Y028657
X059924Y028702
X059584
X059244
X058904
X058602Y028546
X058633Y029034
X058148Y028869
X057667Y03006
X057805Y030472
X057669Y030846
X057676Y031186
X058676Y031155
X058829Y030851
X058669Y03055
X059988Y030493
X060328
X060586Y030235
X060827Y029995
X061069Y029756
X061056Y029527
X060716
X060376
X060036
X059959Y030154
X061294Y030553
X061604Y030413
X061944
X062279Y030473
X062613Y030413
X062913Y030573
X063767Y030539
X063667Y03014
Y02996
X063714Y029558
X063782Y028801
X0644Y029074
Y029254
Y029755
X065053Y029528
X065151Y029202
X06511Y028865
X065151Y030647
X065134Y030987
X0644Y030829
Y030649
X063875Y031404
X063592Y031593
X063252Y031596
X062362Y032976
X062052Y032837
X061804Y032605
X061147Y032553
X060959Y032837
X060634Y03274
X060598Y033563
X060938
X061137Y033839
X06147Y033905
X061795Y033806
X062134Y033774
X062374Y034015
X062615Y034255
X061857Y034246
X061044Y034239
X060718Y034337
X060289Y033422
X059959Y033338
X058818Y03353
X058381Y033025
X058406Y032686
X058626Y032039
X058439Y031755
X05965Y031784
Y031964
X060326Y031985
X060566Y031744
X061402Y029687
X0617Y029254
Y029074
X061612Y028744
X061277Y028801
X061391Y028405
X061728Y028365
X061934Y028636
X061078Y028272
X06075Y028184
X060509Y028424
X060289Y026422
X059959Y026338
X058818Y02653
X058381Y026025
X058406Y025686
X058626Y025039
X058439Y024755
X05965Y024784
Y024964
X060326Y024985
X060566Y024744
X061294Y023553
X0622Y02314
Y02296
X062373Y020686
X062133Y020446
X061857Y020246
X062373Y027686
X0622Y02996
Y03014
X062602Y033216
X062843Y033457
X063083Y033697
X063324Y033938
X063417Y034265
X057805Y034078
X056662Y034018
X056322
X055982
X054962
X053262
X052922
X052582
X052242
X05191Y033944
X05162Y034121
X051291Y034208
X050959Y03428
X050093Y034296
X050162Y032159
X050438Y032357
X050778Y032366
X051118
X051458
X051795Y032411
X052135Y032396
X052336Y032122
X052266Y031789
X052512Y031555
X052852
X053192
X053532
X053872
X054212
X054552
X054892
X055232
X055572
X055912
X056252
X056592
X05602Y030532
X056045Y029901
X055025
X054685
X053665
X053327Y029865
X052987Y029857
X05265Y029901
X05231
X052266Y029563
Y029223
Y028883
Y028543
Y028203
X052429Y027905
X052769
X053109
X053449
X053789
X054129
X054469
X054809
X055149
X055489
X055829
X056135Y027018
X056475
X057805Y027078
X057676Y027276
Y027616
X058729Y027385
X054775Y027018
X053755
X053415
X053075
X052735
X052395
X052061Y026957
X051725Y027012
X051509Y027274
X051178Y027197
X05088Y027362
X050822Y027697
X050884Y028031
Y028371
Y028711
Y029051
Y029391
Y029731
X050549Y029673
X050309Y029432
X050069Y029192
X051516Y029242
Y028902
Y028562
Y028222
Y029582
X051634Y029901
X052314Y030668
X052654
X052994
X053334
X053494Y024555
X053834
X054174
X054514
X054854
X055194
X055534
X055874
X056214
X056554
X056052Y023532
X05337Y023668
X053154Y024555
X052814
X052474
X052266Y024824
X052344Y025155
X052208Y025467
X05188Y025556
X051547Y025486
X051207
X050867
X050527
X050187
X051634Y023384
X051516Y023066
Y022726
Y022386
Y022046
Y021706
Y021366
Y021026
X065677Y023247
Y030247
Y037247
Y044247
X065151Y044647
X065134Y044987
X0644Y044829
Y044649
X063767Y044539
X063667Y04414
Y04396
X063714Y043558
X063782Y042801
X063452Y04245
X063417Y041945
Y041605
Y041265
X063324Y040938
X063083Y040697
X062843Y040457
X062602Y040216
X062362Y039976
X062052Y039837
X061804Y039605
X061147Y039553
X060959Y039837
X060633Y03974
X060598Y040563
X060938
X061137Y040839
X06147Y040905
X061795Y040806
X062134Y040774
X062374Y041015
X062615Y041255
X062691Y041587
Y041927
X0627Y04245
X061934Y042636
X061612Y042744
X061277Y042801
X061391Y042405
X061728Y042365
X0617Y043074
Y043254
X061402Y043687
X061069Y043756
X061056Y043527
X060716
X060376
X060036
X059959Y044154
X059988Y044493
X060328
X060586Y044235
X060827Y043995
X061294Y044553
X061604Y044413
X061944
X062279Y044473
X062613Y044413
X062913Y044573
X0622Y04414
Y04396
X0644Y043755
Y043254
Y043074
X065151Y043202
X06511Y042865
X065053Y043528
X063875Y045404
X063592Y045593
X063252Y045596
X062362Y046976
X062052Y046837
X061803Y046604
X061147Y046553
X060959Y046837
X060633Y04674
X060598Y047563
X060938
X061137Y047839
X06147Y047905
X061795Y047806
X062134Y047775
X062374Y048015
X062615Y048255
X062691Y048587
Y048927
X0627Y04945
X063452
X063417Y048944
Y048604
Y048264
X063324Y047937
X063083Y047697
X062843Y047457
X062602Y047216
X062133Y048446
X061857Y048246
X061044Y048239
X060718Y048337
X060415Y048492
X059956Y048472
X060175Y048732
X060261Y049657
X059924Y049702
X059584
X059244
X058904
X058602Y049546
X058148Y049869
X057653Y048782
X057673Y048442
X057805Y048078
X056645Y048018
X056305
X055965
X054945Y048018
X05498Y048905
X05532
X05566
X05464
X0543
X05396
X05362
X05328
X05294
X0526
X052266Y048966
Y049306
X052292Y049645
X052532Y049886
X052565Y048018
X052905
X053245
X053925Y048018
X052266Y047857
Y047517
X052325Y047182
X052275Y046846
X051981Y046675
X05197Y046444
X051639Y046366
X051642Y046651
X051302
X051299Y046366
X050963Y046313
X050962Y046651
X050626Y046599
X050385Y046359
X050145Y046119
X050476Y045839
X050717Y046079
X050236Y045598
X052266Y045611
X052601Y045555
X052941
X053281
X053621
X053961
X054301
X054641
X054981
X055321
X055661
X056001
X056341
X056681Y045566
X056583Y044532
X05592
X055813Y043901
X056149Y043846
X056487Y043879
X057676Y044172
X057805Y044472
X057635Y044753
X057673Y045091
X058676Y045155
X058829Y044851
X058669Y04455
X058439Y045755
X058626Y046039
X058406Y046686
X058381Y047025
X058818Y04753
X058729Y048385
X059959Y047338
X060289Y047422
X060326Y045985
X060566Y045745
X05965Y045784
Y045964
X059584Y042702
X059924
X060261Y042657
X060509Y042424
X06075Y042184
X061078Y042272
X061044Y041239
X060718Y041337
X060415Y041492
X059956Y041472
X060175Y041732
X060289Y040422
X059959Y040338
X058818Y04053
X058381Y040025
X058406Y039686
X058626Y039039
X058439Y038755
X058676Y038155
X058829Y037851
X058669Y03755
X057805Y037472
X057642Y037765
X057672Y038104
X057675Y037119
X056634Y037532
X055972
X056093Y036874
X055074Y036901
X054734
X053714
X053374Y036894
X053039Y03684
X052704Y036901
X05246Y036664
X052266Y036385
Y036045
Y035705
Y035365
Y035025
X052584Y034905
X052924
X053264
X053604
X053944
X054284
X054624
X054964
X055304
X055644
X057646Y0348
X057671Y034461
X058729Y034385
X058602Y035546
X058904Y035702
X059244
X059584
X059924
X060261Y035657
X060509Y035424
X06075Y035184
X061078Y035272
X061391Y035405
X061728Y035366
X061934Y035636
X061612Y035744
X061277Y035801
X0617Y036074
Y036254
X061402Y036687
X061069Y036756
X061056Y036527
X060716
X060376
X060036
X059959Y037154
X059988Y037493
X060328
X060586Y037235
X060827Y036995
X061294Y037553
X061604Y037413
X061944
X062279Y037473
X062613Y037413
X062913Y037573
X063767Y037539
X063667Y03714
Y03696
X063714Y036558
X063782Y035801
X063452Y03545
X063417Y034945
Y034605
X062691Y034587
Y034927
X0627Y03545
X062373Y034686
X062133Y034446
X060415Y034492
X059956Y034472
X060175Y034732
X058633Y036034
X058148Y035869
X05667Y038559
X05633Y038555
X05599
X05565
X05531
X05497
X05463
X05429
X05395
X05361
X05327
X05293
X05259
X052266Y038453
Y038793
X052335Y039126
X052131Y039398
X051791Y03941
X051454Y039366
X051114
X050817Y039201
X050576Y03896
X050336Y03872
X050096Y038479
X051516Y038416
Y038076
Y037736
X051634Y038734
X052919Y037623
X053256Y037668
X053197Y041018
X052857
X052517
X052177Y041014
X051842Y040957
X051587Y041182
X051248Y0412
X050926Y041308
X05081Y041628
X050884Y041959
Y042299
Y042639
Y042979
Y043319
X050605Y043125
X050365Y042885
X050125Y042644
X051516Y042562
Y042222
Y042902
Y043242
Y043582
X051634Y043901
X052429
X052769
X053101Y043826
X053433Y043901
X053773
X054793
X054689Y041905
X055029
X055369
X055709
X055917Y041018
X056257
X056597
X057805Y041078
X057676Y041393
X057669Y041733
X058729Y041385
X058602Y042546
X058904Y042702
X059244
X058633Y043034
X058148Y042869
X054349Y041905
X054009
X053669
X053329
X052989
X052649
X052309
X052266Y042243
Y042583
Y042923
Y043263
Y043603
X052564Y044668
X052904
X053244
X052329Y045946
X052268Y04628
X050666Y048994
X050747Y049324
X050784Y049662
X050354Y048858
X050085Y048649
X053537Y041018
X053877
X054897
X05965Y038964
Y038784
X060326Y038985
X060566Y038744
X063252Y038596
X063592Y038593
X063875Y038404
X0644Y037829
Y037649
X065151Y037647
X065134Y037987
X065053Y036528
X065151Y036202
X06511Y035865
X0644Y036074
Y036254
Y036755
X0622Y03696
Y03714
X062133Y041446
X061857Y041246
X062373Y041686
Y048686
X061728Y049366
X061391Y049405
X061078Y049272
X06075Y049184
X060509Y049424
X061277Y049801
X061612Y049744
X061934Y049636
X063782Y049801
X06511Y049865
X051634Y035838
X051516Y035519
Y035179
X050884Y034914
X050807Y034583
X050573Y034777
X050333Y034537
X049748Y036894
X049984Y037138
Y037478
Y037818
Y038158
X048566Y038162
Y037822
Y037482
Y037142
Y036802
X048563Y036462
X048375Y036179
X048135Y035938
X047894Y035698
X047654Y035458
X047413Y035217
X047173Y034977
X046933Y034736
X046692Y034496
X047344Y03449
X047584Y03473
X047824Y034971
X048065Y035211
X048305Y035452
X048546Y035692
X048786Y035932
X049026Y036173
X049267Y036413
X049507Y036654
X048566Y038502
Y038842
Y039182
Y039522
Y039862
Y040202
Y040542
Y040882
X048682Y041202
X048922Y041442
X049163Y041683
X049403Y041923
X049644Y042163
X049884Y042404
X049515Y044877
X049274Y044637
X049034Y044396
X048793Y044156
X048553Y043915
X048313Y043675
X048072Y043435
X047832Y043194
X047591Y042954
X047351Y042713
X04711Y042473
X04687Y042233
X04663Y041992
X046534Y041666
Y041326
Y040986
Y040646
Y040306
Y039966
Y039626
Y039286
Y038946
Y038606
Y038266
Y037926
Y037586
X046419Y037266
X046179Y037025
X045939Y036785
X045698Y036545
X045458Y036304
X045217Y036064
X044977Y035823
X044736Y035583
X044496Y035342
X044256Y035102
X044015Y034862
X043775Y034621
X043534Y034381
X040769Y036742
X040528Y036502
X040288Y036261
X040047Y036021
X039807Y035781
X039567Y03554
X039326Y0353
X039086Y035059
X038844Y03482
X038515Y034734
X038175
X037835
X037495
X037155
X036815
X036475
X036135
X035888Y034501
X035941Y036734
X035601
X035261
X036281
X036621Y036737
X03696Y036716
X0373
X03764
X037953Y036849
X038193Y03709
X038434Y03733
X038674Y037571
X038915Y037811
X039155Y038051
X039395Y038292
X039636Y038532
X039876Y038773
X040117Y039013
X040357Y039254
X040598Y039494
X040838Y039734
X041078Y039975
X041319Y040215
X041559Y040456
X0418Y040696
X04204Y040936
X04228Y041177
X042521Y041417
X042761Y041658
X043002Y041898
X043242Y042139
X043483Y042379
X043723Y042619
X043963Y04286
X044204Y0431
X044444Y043341
X044685Y043581
X044925Y043821
X045165Y044062
X045406Y044302
X045646Y044543
X045887Y044783
X046127Y045023
X046368Y045264
X046608Y045504
X046848Y045745
X047089Y045985
X047329Y046226
X04757Y046466
X04781Y046706
X04805Y046947
X048291Y047187
X048531Y047428
X048772Y047668
X049012Y047908
X049253Y048149
X049493Y048389
X049747Y048615
X048691Y048695
X048451Y048454
X04821Y048214
X04797Y047974
X047729Y047733
X047489Y047493
X047249Y047252
X047008Y047012
X046768Y046771
X046527Y046531
X046287Y046291
X046047Y04605
X045806Y04581
X045566Y045569
X045325Y045329
X045085Y045089
X044844Y044848
X044604Y044608
X044364Y044367
X044123Y044127
X043883Y043886
X043642Y043646
X043402Y043406
X043162Y043165
X042921Y042925
X042681Y042684
X04244Y042444
X0422Y042204
X04196Y041963
X041719Y041723
X041479Y041482
X041238Y041242
X040998Y041001
X040757Y040761
X040517Y040521
X040277Y04028
X040036Y04004
X039796Y039799
X039555Y039559
X039315Y039319
X039074Y039078
X038834Y038838
X038594Y038597
X038353Y038357
X038113Y038116
X037872Y037876
X037632Y037636
X037392Y037395
X037151Y037155
X037148Y040444
X036907Y040204
X036667Y039963
X036427Y039723
X036186Y039483
X035946Y039242
X035705Y039002
X035461Y038766
X035121
X034667Y03892
X034907Y039161
X035147Y039401
X035388Y039641
X035628Y039882
X035869Y040122
X036109Y040363
X036349Y040603
X03659Y040843
X03683Y041084
X037071Y041324
X037311Y041565
X037552Y041805
X037792Y042046
X038032Y042286
X038273Y042526
X038513Y042767
X038754Y043007
X038994Y043248
X039234Y043488
X039475Y043728
X039715Y043969
X039956Y044209
X040196Y04445
X040437Y04469
X040677Y044931
X040917Y045171
X041158Y045411
X041398Y045652
X041639Y045892
X041879Y046133
X042119Y046373
X04236Y046613
X0426Y046854
X042841Y047094
X043081Y047335
X043322Y047575
X043562Y047816
X043802Y048056
X044043Y048296
X044283Y048537
X044524Y048777
X044764Y049018
X045004Y049258
X045245Y049498
X045485Y049739
X045726Y049979
X046524Y04982
X046284Y04958
X046043Y04934
X045803Y049099
X045562Y048859
X045322Y048618
X045082Y048378
X044841Y048138
X044601Y047897
X04436Y047657
X04412Y047416
X04388Y047176
X043639Y046935
X043399Y046695
X043158Y046455
X042918Y046214
X042677Y045974
X042437Y045733
X042197Y045493
X041956Y045253
X041716Y045012
X041475Y044772
X041235Y044531
X040995Y044291
X040754Y04405
X040514Y04381
X040273Y04357
X040033Y043329
X039792Y043089
X039552Y042848
X039312Y042608
X039071Y042368
X038831Y042127
X03859Y041887
X03835Y041646
X03811Y041406
X037869Y041165
X037629Y040925
X037388Y040685
X036529Y044025
X036769Y044265
X037009Y044506
X03725Y044746
X03749Y044987
X037731Y045227
X037971Y045467
X038211Y045708
X038452Y045948
X038692Y046189
X038933Y046429
X039173Y046669
X039414Y04691
X039654Y04715
X039894Y047391
X040135Y047631
X040375Y047872
X040616Y048112
X040856Y048352
X041096Y048593
X041337Y048833
X041577Y049074
X041818Y049314
X042058Y049554
X042299Y049795
X048932Y048935
X049172Y049176
X049412Y049416
X049653Y049656
X049892Y049898
X049904Y045878
X049664Y045638
X049424Y045397
X049183Y045157
X048943Y044916
X048702Y044676
X048462Y044436
X048222Y044195
X047981Y043955
X047741Y043714
X0475Y043474
X04726Y043234
X047019Y042993
X046779Y042753
X046539Y042512
X046298Y042272
X046058Y042031
X045817Y041791
X045577Y041551
X045337Y04131
X045096Y04107
X044856Y040829
X044615Y040589
X044375Y040349
X044134Y040108
X043894Y039868
X043654Y039627
X043413Y039387
X043173Y039146
X042932Y038906
X042692Y038666
X042452Y038425
X042211Y038185
X041971Y037944
X04173Y037704
X04149Y037464
X041249Y037223
X041009Y036983
X035807Y043304
X036048Y043544
X036288Y043784
X035567Y043063
X035326Y042823
X035086Y042582
X034846Y042342
X034605Y042102
X049755Y045118
X049995Y045358
X034365Y041861
X034124Y041621
X033884Y04138
X033644Y04114
X033403Y040899
X033065Y040866
X03274Y040766
X032499Y040526
X032259Y040285
X032018Y040045
X031778Y039804
X031538Y039564
X031297Y039324
X031057Y039083
X030816Y038843
X030576Y038602
X030336Y038362
X030095Y038121
X029855Y037881
X029614Y037641
X029451Y037342
Y037002
Y036662
Y036322
Y035982
Y035302
Y034962
X031657Y036326
X031851Y036605
X032092Y036846
X032332Y037086
X032573Y037326
X032813Y037567
X033054Y037807
X033294Y038048
X033534Y038288
X033775Y038528
X034015Y038769
X034355Y038784
X042539Y050035
X042779Y050276
X04302Y050516
X04326Y050757
X043501Y050997
X043741Y051237
X043981Y051478
X044222Y051718
X044462Y051959
X044703Y052199
X044943Y052439
X045164Y052698
Y053038
Y053378
Y053718
Y054058
Y054398
Y054738
Y055078
Y055418
Y055758
Y056098
Y056438
Y056778
Y057118
Y057458
X04519Y057797
X04541Y058056
X04565Y058297
X045891Y058537
X046131Y058777
X046371Y059018
X046612Y059258
X046852Y059499
X047093Y059739
X047333Y05998
X047574Y06022
X047814Y06046
X048054Y060701
X048295Y060941
X048535Y061182
X048776Y061422
X049016Y061662
X049256Y061903
X049497Y062143
X049737Y062384
X04999Y062611
X049789Y061543
X049549Y061303
X049309Y061062
X049068Y060822
X048828Y060581
X048587Y060341
X048347Y060101
X048107Y05986
X047866Y05962
X047626Y059379
X047385Y059139
X047145Y058899
X046904Y058658
X046664Y058418
X046424Y058177
X046183Y057937
X045943Y057696
X047429Y056099
X047196Y055851
Y055511
Y055171
Y054831
Y054491
Y054151
Y053811
Y053471
Y053131
Y052791
Y052451
Y052111
Y051771
X047156Y051434
X046928Y051181
X046687Y050941
X046447Y050701
X046207Y05046
X045966Y05022
X046765Y050061
X047005Y050301
X047245Y050542
X047486Y050782
X047726Y051023
X047934Y051291
Y051631
Y051971
Y052311
Y052651
Y052991
Y053331
X048018Y053661
X048257Y053903
X048497Y054143
X048737Y054384
X048978Y054624
X049218Y054865
X049459Y055105
X049699Y055345
X049942Y055583
X049789Y054543
X049549Y054303
X049309Y054062
X049068Y053822
X048828Y053581
X048587Y053341
X049977Y051587
Y051247
Y050907
Y050567
Y050227
X048631Y057301
X048391Y05706
X04815Y05682
X04791Y05658
X047669Y056339
X048871Y057541
X049112Y057782
X049352Y058022
X049593Y058262
X049833Y058503
X050074Y058743
X050314Y058984
X050554Y059224
X050795Y059465
X051035Y059705
X051276Y059945
X051516Y060186
X051756Y060426
X051997Y060667
X05228Y060854
X052323Y061192
X052266Y061527
Y061867
X05257Y062018
X05291
X05325
X053276Y062905
X053616
X053956
X054296
X054636
X054976
X055316
X055656
X05597Y062018
X05631
X05665
X057805Y062078
X057673Y062447
X057651Y062786
X058729Y062385
X058818Y06153
X058381Y061025
X058406Y060686
X058626Y060039
X058439Y059755
X058676Y059155
X058829Y058851
X058669Y05855
X057805Y058472
X057659Y058807
X057675Y059146
X057673Y058104
X056649Y058532
X055986
X056079Y057882
X05506Y057901
X05472
X0537
X053395Y057749
X053155Y057509
X052915Y057268
X052674Y057028
X052434Y056787
X052266Y056492
Y056152
X0525Y055905
X05284
X05318
X05352
X05386
X0542
X05454
X05488
X05522
X05556
X056065Y055018
X056405
X055045
X054705
X053345Y055018
X053005
X052665
X052325
X052266Y054683
Y054343
X052339Y054012
X052151Y053728
X051869Y053539
X051628Y053298
X051388Y053058
X051148Y052817
X050907Y052577
X050667Y052336
X050426Y052096
X050186Y051856
X052299Y051778
X052059Y051538
X051818Y051297
X051578Y051057
X051337Y050816
X051097Y050576
X050858Y050334
X050784Y050002
X052773Y050126
X053013Y050367
X053253Y050607
X053494Y050848
X05383Y050901
X05485
X05587
X056203Y050833
X056536Y050901
X056537Y051532
X055871
X055739Y052555
X056079
X056419
X055399
X055059
X054719
X054379
X054039
X053699
X053359
X053025Y052495
X05278Y052259
X052539Y052018
X057676Y052011
X057575Y051687
X057805Y051472
X057676Y051215
X05755Y0509
X058669Y05155
X058829Y051851
X058676Y052155
X058439Y052755
X058626Y053039
X058406Y053686
X058381Y054025
X058818Y05453
X058729Y055385
X057676Y055548
X057589Y055877
X057805Y055078
X058148Y056869
X058633Y057034
X058602Y056546
X058904Y056702
X059244
X059584
X059924
X060261Y056657
X060509Y056424
X06075Y056184
X061078Y056272
X061391Y056405
X061728Y056365
X061934Y056636
X061612Y056744
X061277Y056801
X0617Y057074
Y057254
X061402Y057687
X061069Y057756
X061056Y057527
X060716
X060376
X060036
X059959Y058154
X059988Y058493
X060328
X060586Y058235
X060827Y057995
X061294Y058553
X061604Y058413
X061944
X062279Y058473
X062613Y058413
X062913Y058573
X063767Y058539
X063667Y05814
Y05796
X063714Y057558
X063781Y056801
X063452Y05645
X063417Y055944
Y055604
Y055264
X063323Y054937
X063083Y054696
X062842Y054456
X062602Y054216
X062361Y053975
X062051Y053837
X061803Y053604
X061146Y053554
X060958Y053837
X060633Y053739
X060598Y054563
X060938
X061137Y054839
X06147Y054905
X061795Y054806
X062134Y054774
X062374Y055015
X062615Y055255
X062691Y055587
Y055927
X0627Y05645
X062373Y055686
X062133Y055446
X061857Y055246
X061044Y055239
X060718Y055337
X060415Y055492
X059956Y055472
X060175Y055732
X060289Y054422
X059959Y054338
X05965Y052964
Y052784
X060326Y052985
X060566Y052745
X060328Y051493
X059988
X059959Y051154
X060036Y050527
X060376
X060716
X061056
X061069Y050756
X061402Y050687
X0617Y050254
Y050074
X0622Y05096
Y05114
X062279Y051473
X062613Y051413
X062913Y051573
X063767Y051539
X063667Y05114
Y05096
X063714Y050558
X0644Y050755
Y050254
Y050074
X065151Y050202
X065054Y050528
X065151Y051647
X065133Y051987
X0644Y051829
Y051649
X063875Y052404
X063592Y052593
X063252Y052596
X061944Y051413
X061604
X061294Y051553
X060586Y051235
X060827Y050995
X058633Y050034
X05965Y059784
Y059964
X060324Y059987
X060565Y059746
X060618Y060725
X060939Y060837
X061137Y060561
X061796Y060595
X062034Y060837
X06235Y060964
X06259Y061204
X062831Y061445
X063071Y061685
X063311Y061925
X063417Y062249
Y062589
Y062929
X063452Y06345
X06376Y063801
X063714Y064558
X063667Y06496
Y06514
X063767Y065539
X062913Y065573
X062613Y065413
X062279Y065473
X061944Y065413
X061604
X061294Y065553
X061402Y064687
X061069Y064756
X061056Y064527
X060716
X060376
X060036
X059959Y065154
X059988Y065493
X060328
X060586Y065235
X060827Y064995
X0622Y06496
Y06514
X0617Y064254
Y064074
X061612Y063744
X061277Y063801
X061391Y063405
X061728Y063366
X061934Y063636
X0627Y06345
X062691Y062927
Y062587
X062615Y062255
X062374Y062015
X062134Y061775
X061795Y061806
X06147Y061905
X061137Y061839
X060938Y061563
X060598
X060289Y061422
X059959Y061338
X059956Y062472
X060175Y062732
X060415Y062492
X060718Y062337
X061044Y062239
X061857Y062246
X062133Y062446
X062373Y062686
X061078Y063272
X06075Y063184
X060509Y063424
X060261Y063657
X059924Y063702
X059584
X059244
X058904
X058602Y063546
X058633Y064034
X058148Y063869
X057567Y064913
X057676Y065235
X057805Y065472
X058669Y06555
X056518Y065533
X05585Y065532
X05589Y064901
X056223Y064829
X056555Y064901
X05487
X05385
X053512Y064866
X053272Y064625
X053031Y064385
X052791Y064144
X05255Y063904
X05231Y063664
X052266Y063326
Y062986
X052596Y062905
X052936
X050556Y062981
X050727Y063275
X050784Y06361
Y06395
X050829Y064287
X051059Y064538
X051299Y064778
X051539Y065019
X05178Y065259
X05202Y065499
X050292Y062767
X050276Y062018
X05003Y061784
X05495Y062018
X05493Y059555
X05527
X05561
X05595
X05629
X05663
X05459
X05425
X05391
X05357
X05323
X052925Y059404
X052685Y059164
X052444Y058923
X052204Y058683
X051964Y058443
X051723Y058202
X051483Y057962
X051242Y057721
X051002Y057481
X050796Y05721
X050784Y05687
Y05653
X05071Y056198
X050475Y055952
X050267Y055684
X050276Y055018
X05003Y054784
X0622Y05796
Y05814
X06325Y059596
X06359Y059593
X063873Y059406
X0644Y058829
Y058649
X065151Y058649
X065133Y058989
X065054Y057527
X065151Y057201
X065109Y056864
X0644Y057074
Y057254
Y057755
Y064074
Y064254
Y064755
X065073Y064513
X065148Y064181
X065095Y063845
X065081Y065402
X065677Y065247
Y058247
Y051247
X065146Y065735
X065086Y06607
X0644Y065829
Y065649
X063816Y066463
X063503Y066596
X060511Y0668
X060271Y06704
X059991Y067233
X059659Y067307
X05965Y066964
Y066784
X059246Y067237
X058906Y067232
X058626Y067039
X058439Y066755
X058676Y066155
X058829Y065851
X057676Y065978
Y066318
X057545Y065664
X056369Y066555
X056029
X055689
X055349
X055009
X054669
X054329
X053989
X053649
X053309
X052982Y066461
X052742Y066221
X052501Y06598
X052261Y06574
T02
X08608Y012303
X08093Y009826
X08063Y009
X07913
X07813
X078568Y009826
X079552
X07719
X07638Y0095
X07663Y009
X07363
X06685Y012357
X064331Y012054
X064632Y0187
X061Y017535
Y016944
X056285Y016216
X05545Y015467
X0543Y015461
Y0148
X05365Y016645
X05315Y016216
X05195Y01805
X0512Y01765
Y01359
X05195Y013334
X05365Y0128
X0543Y011627
X05545
Y018627
X0543
X045645Y0141
X045055
X0423Y0131
X0431Y012116
X039746Y011837
X035809
X0454Y01056
X0421Y01709
X0414Y0177
X010219Y015774
Y023648
X012187Y027585
X023467Y032262
X024097
X024727
X025357
X025042Y032632
X024412
X023782
X026617Y032262
X028507
X028822Y032632
X030711Y032262
X031971
X032916
X03299Y01983
X03356
X034189Y019827
X0348Y01983
X0355
X03619
X03692
X03763
X038357
X03905
X03974
X04046Y01879
X04762Y019711
X035751Y032262
X034806
X0512Y03165
X05195Y03205
Y034334
X05365Y0338
X0543Y032627
X05545
Y029467
X0543Y029461
Y0288
X05365Y030645
X05315Y030216
X056285
X05545Y025627
X0543
X05365Y0268
X05195Y027334
X0512Y02759
Y02487
X05195Y02517
X053185Y023181
X05365Y023627
X0543Y022461
Y0218
X05545Y022467
X056285Y023216
X061Y023944
Y024535
X064632Y0257
Y0327
X061Y031535
Y030944
X05365Y0198
X05195Y020334
X0512Y02059
X06685Y019357
X07213Y021
X07563
X07913
Y026
X07813
X078568Y026826
X079552
X08093
X08063Y026
X07663
X07638Y0265
X07719Y026826
X07363Y026
X06685Y026357
Y033357
X08608Y029303
X08613Y021
X08263
Y038
X08613
X08608Y046403
X08093Y043926
X08063Y0431
X07913
X07813
X078568Y043926
X079552
X07719
X07638Y0436
X07663Y0431
X07363
X07213Y038
X07563
X07913
X06685Y040357
Y047357
X064632Y0467
X061Y045535
Y044944
X056285Y044216
X05545Y043467
X0543Y043461
Y0428
X05365Y044645
X05315Y044216
X05195Y04605
Y047066
X05155Y047316
X0511Y047566
X05065Y0479
Y0486
X0511Y04915
X05155
X0543Y0498
X05365Y0478
X0543Y046627
X05545
X0512Y04565
Y04159
X05195Y041334
X05365Y0408
X0543Y039627
X05545
Y036467
X0543Y036461
Y0358
X05365Y037645
X05315Y037216
X05195Y03905
X0512Y03865
Y03459
X056285Y037216
X061Y037944
Y038535
X064632Y0397
X049589Y039396
X045652
X037778Y04727
X035751Y046429
X034806Y04801
X034491Y034692
X032601
X031971
X030396
X029452
X028822
X028192
X027562
X026932
X026302
X025672
X025042
X024412
X023782
X024097Y035062
X023467
X024727
X025357
X025987
X026617
X027247
X027877
X028507
X029137
X029137Y04801
X029767
X030396
X031026
X031656
X032286
X032916
X033546
X034176
X029452Y04838
X028192
X027877Y04801
X028507
X027247
X026617
X025987
X025042
X024412
X023467
X025357Y04838
X018093Y04727
X014156
X010219
X012187Y043333
X010219Y039396
X012187Y035459
X024727Y05081
X025357
X025987
X026617
X027247
X027877
X028822
X029452
X030082
X030711
X031341
X032286
X032916
X033546
X034176
X031971Y05115
X028507
X025042
X025967Y063019
X0291Y06355
Y065106
X03165
Y06355
X032Y0628
X03263
X02203Y063019
X0352Y06355
Y065106
X037778Y063019
X041715
X045652
X043683Y059082
X039746
X041715Y055145
X039746Y051207
X035436Y05081
X034806
X05365Y051645
X0543Y050461
X05545Y050467
X056285Y051216
X05545Y053627
X0543
X05365Y0548
X05195Y054066
X05155Y054316
X0511Y054566
X05065Y0549
Y0556
X0511Y05615
X05155
X051557Y059082
X05155Y061316
X05195Y061066
X0511Y061566
X05065Y0619
Y0626
X0511Y06315
X05155
X0543Y0638
Y064461
X05545Y064467
X056285Y065216
X05545Y060627
X0543
X05365Y0618
Y058645
X0543Y057461
Y0568
X05545Y057467
X056285Y058216
X061Y058944
Y059535
X064632Y0607
Y0537
X061Y052535
Y051944
X06685Y054357
X07213Y0551
X07563
X07913
Y0601
X07813
X078568Y060926
X079552
X08093
X08063Y0601
X07663
X07638Y0606
X07719Y060926
X07363Y0601
X06685Y061357
X08608Y063403
X08613Y0551
X08263
Y0721
X08613
X07913
X07563
X07213
X0614Y070893
X057463
X053526
X05365Y065645
X051557Y066956
X061Y066535
Y065944
X04762Y066956
X043683
X039746
X041715Y070893
X045652
X049589
X037778
X025967
X02203
X023998Y066956
X027935
X01825Y0671
X01675
X01525
T05
X08131Y0135
Y0145
Y0155
Y0165
Y0175
Y0185
X08381
Y0175
Y0165
Y0155
Y0145
Y0135
X08481
Y0145
Y0155
Y0165
Y0175
Y0185
X08031
Y0175
Y0165
Y0155
Y0145
Y0135
X07781
X07681
Y0145
Y0155
Y0165
Y0175
Y0185
X07781
Y0175
Y0165
Y0155
Y0145
X07431
X07331
Y0135
X07431
Y0155
X07331
Y0165
Y0175
Y0185
X07431
Y0175
Y0165
Y0195
X07331
Y0205
X07431
X07681
Y0195
X07781
Y0205
X08031
Y0195
Y0305
Y0315
Y0325
Y0335
X07781
X07681
Y0325
Y0315
Y0305
X07781
Y0315
Y0325
X07431
X07331
Y0315
Y0305
X07431
Y0315
Y0335
X07331
X08131
Y0325
Y0315
Y0305
X08381
Y0315
Y0325
Y0335
X08481
Y0325
Y0315
Y0305
Y0205
X08381
Y0195
X08481
X08131
Y0205
Y0345
Y0355
Y0365
Y0375
X08381
Y0365
Y0355
Y0345
X08481
Y0355
Y0365
Y0375
Y0476
X08381
Y0486
Y0496
X08481
Y0486
X08131
Y0496
Y0476
X08031
Y0486
Y0496
X07781
X07681
Y0486
Y0476
X07781
Y0486
X07431
X07331
Y0476
X07431
Y0496
X07331
Y0375
Y0365
Y0355
Y0345
X07431
Y0355
Y0365
Y0375
X07681
Y0365
Y0355
Y0345
X07781
Y0355
Y0365
Y0375
X08031
Y0365
Y0355
Y0345
Y0506
Y0516
Y0526
Y0536
Y0546
X07781
X07681
Y0536
Y0526
Y0516
Y0506
X07781
Y0516
Y0526
Y0536
X07431
X07331
Y0526
Y0516
Y0506
X07431
Y0516
Y0526
Y0546
X07331
Y0646
Y0656
X07431
Y0646
X07681
Y0656
X07781
Y0646
X08031
Y0656
X08131
Y0646
X08381
Y0656
X08481
Y0646
Y0546
X08381
Y0536
Y0526
Y0516
Y0506
X08481
Y0516
Y0526
Y0536
X08131
Y0546
Y0526
Y0516
Y0506
Y0666
Y0676
Y0686
Y0696
Y0706
Y0716
X08381
Y0706
Y0696
Y0686
Y0676
Y0666
X08481
Y0676
Y0686
Y0696
Y0706
Y0716
X08031
Y0706
Y0696
Y0686
Y0676
Y0666
X07781
X07681
Y0676
Y0686
Y0696
Y0706
Y0716
X07781
Y0706
Y0696
Y0686
Y0676
X07431
X07331
Y0666
X07431
Y0686
X07331
Y0696
Y0706
Y0716
X07431
Y0706
Y0696
T06
X04835Y01161
Y01261
Y01361
T07
X019Y01055
Y01155
X02
Y01055
X021
Y01155
X022
Y01055
X023
Y01155
X024
Y01055
X025
Y01155
X026
Y01055
X027
X028
X029
X03
X031
X032
Y01155
X031
X03
X029
X028
X027
X018
X017
X016
X015
X014
X013
Y01055
X014
X015
X016
X017
X018
Y01955
X017
X016
X015
X014
X013
Y02055
X014
X015
X016
X017
X018
X019
Y01955
X02
Y02055
X021
Y01955
X022
Y02055
X023
Y01955
X024
Y02055
X025
Y01955
X026
Y02055
X027
Y01955
X028
Y02055
X029
Y01955
X03
X031
X032
Y02055
X031
X03
X018Y05755
X017
X016
Y05855
X015
X014
Y05755
X013
Y05855
X015Y05755
X017Y05855
X018
X019
Y05755
X02
Y05855
X021
Y05755
X022
Y05855
X023
Y05755
X024
Y05855
X025
Y05755
X026
Y05855
X027
Y05755
X028
Y05855
X029
Y05755
X03
Y05855
X031
X032
Y05755
X031
T08
X08572Y00981
X0724
Y02681
X08572
Y04391
X0724
Y06091
X08572
T09
X0653Y0106
X0105
X0113Y031889
X038465
Y049211
X0113
X0653Y0706
X0105
T10
X064331Y014633
Y021633
Y028633
Y035633
Y042633
Y049633
Y056633
Y063633
T12
X022822Y033475
X036396
Y049223
X022822
T13
X09106Y004
X004
X09106Y0771
X004
M30
