M48
;Layer_Color=9474304
;FILE_FORMAT=2:4
INCH,LZ
;TYPE=PLATED
T03F00S00C0.0217
;TYPE=NON_PLATED
T11F00S00C0.0344
%
G90
G05
T03
G00X067284Y014282
M15
G01X067048
M16
G00X067284Y017818
M15
G01X067048
M16
G00X064942Y017676
M15
G01X064706
M16
G00X064942Y014424
M15
G01X064706
M16
G00X064942Y021424
M15
G01X064706
M16
G00X064942Y024676
M15
G01X064706
M16
G00X064942Y028424
M15
G01X064706
M16
G00X064942Y031676
M15
G01X064706
M16
G00X067284Y031818
M15
G01X067048
M16
G00X067284Y028282
M15
G01X067048
M16
G00X067284Y024818
M15
G01X067048
M16
G00X067284Y021282
M15
G01X067048
M16
G00X067284Y035282
M15
G01X067048
M16
G00X067284Y038818
M15
G01X067048
M16
G00X067284Y042282
M15
G01X067048
M16
G00X067284Y045818
M15
G01X067048
M16
G00X067284Y049282
M15
G01X067048
M16
G00X064942Y049424
M15
G01X064706
M16
G00X064942Y045676
M15
G01X064706
M16
G00X064942Y042424
M15
G01X064706
M16
G00X064942Y038676
M15
G01X064706
M16
G00X064942Y035424
M15
G01X064706
M16
G00X064942Y052676
M15
G01X064706
M16
G00X064942Y056424
M15
G01X064706
M16
G00X064942Y059676
M15
G01X064706
M16
G00X064942Y063424
M15
G01X064706
M16
G00X067284Y063282
M15
G01X067048
M16
G00X067284Y059818
M15
G01X067048
M16
G00X067284Y056282
M15
G01X067048
M16
G00X067284Y052818
M15
G01X067048
M16
G00X067284Y066818
M15
G01X067048
M16
G00X064942Y066676
M15
G01X064706
M16
T11
G00X064331Y017403
M15
G01Y017531
M16
G00X064331Y024403
M15
G01Y024531
M16
G00X064331Y031403
M15
G01Y031531
M16
G00X064331Y038403
M15
G01Y038531
M16
G00X064331Y045403
M15
G01Y045531
M16
G00X064331Y052403
M15
G01Y052531
M16
G00X064331Y059403
M15
G01Y059531
M16
G00X064331Y066403
M15
G01Y066531
M16
M17
M30
