G04*
G04 #@! TF.GenerationSoftware,Altium Limited,Altium Designer,25.8.1 (18)*
G04*
G04 Layer_Physical_Order=3*
G04 Layer_Color=128*
%FSLAX24Y24*%
%MOIN*%
G70*
G04*
G04 #@! TF.SameCoordinates,BFAA8418-FB48-4662-98FB-23DAB770C147*
G04*
G04*
G04 #@! TF.FilePolarity,Negative*
G04*
G01*
G75*
%ADD32C,0.0240*%
%ADD45C,0.0400*%
%ADD46C,0.1104*%
G04:AMPARAMS|DCode=47|XSize=154.488mil|YSize=154.488mil|CornerRadius=0mil|HoleSize=0mil|Usage=FLASHONLY|Rotation=0.000|XOffset=0mil|YOffset=0mil|HoleType=Round|Shape=Relief|Width=10mil|Gap=10mil|Entries=4|*
%AMTHD47*
7,0,0,0.1545,0.1345,0.0100,45*
%
%ADD47THD47*%
%ADD48C,0.1065*%
%ADD49C,0.0520*%
%ADD50C,0.0489*%
G04:AMPARAMS|DCode=52|XSize=72.567mil|YSize=72.567mil|CornerRadius=0mil|HoleSize=0mil|Usage=FLASHONLY|Rotation=0.000|XOffset=0mil|YOffset=0mil|HoleType=Round|Shape=Relief|Width=4mil|Gap=4mil|Entries=4|*
%AMTHD52*
7,0,0,0.0726,0.0646,0.0040,45*
%
%ADD52THD52*%
%ADD55C,0.0346*%
%ADD56O,0.0424X0.0552*%
%ADD57R,0.0710X0.0474*%
%ADD58R,0.0474X0.0710*%
%ADD59C,0.0480*%
%ADD60C,0.0482*%
%ADD61C,0.1064*%
%ADD62C,0.0160*%
%ADD63C,0.0200*%
%ADD64O,0.0533X0.0297*%
D32*
X78568Y9826D02*
D03*
X79552D02*
D03*
X80930D02*
D03*
X77190D02*
D03*
X78568Y26826D02*
D03*
X79552D02*
D03*
X80930D02*
D03*
X77190D02*
D03*
X78568Y43926D02*
D03*
X79552D02*
D03*
X80930D02*
D03*
X77190D02*
D03*
X78568Y60926D02*
D03*
X79552D02*
D03*
X80930D02*
D03*
X77190D02*
D03*
D45*
X0Y0D02*
Y81100D01*
X95060D01*
Y0D02*
Y81100D01*
X0Y0D02*
X95060D01*
X71060Y8000D02*
X87060D01*
Y22000D01*
X71060D02*
X87060D01*
X71060Y8000D02*
Y22000D01*
Y25000D02*
X87060D01*
Y39000D01*
X71060D02*
X87060D01*
X71060Y25000D02*
Y39000D01*
Y42100D02*
X87060D01*
Y56100D01*
X71060D02*
X87060D01*
X71060Y42100D02*
Y56100D01*
Y59100D02*
X87060D01*
Y73100D01*
X71060D02*
X87060D01*
X71060Y59100D02*
Y73100D01*
X8000Y8000D02*
X67800D01*
Y73100D01*
X8000D02*
X67800D01*
X8000Y8000D02*
Y73100D01*
D46*
X4000Y4000D02*
D03*
Y77100D02*
D03*
X91060D02*
D03*
Y4000D02*
D03*
D47*
X72400Y9810D02*
D03*
Y26810D02*
D03*
Y43910D02*
D03*
Y60910D02*
D03*
D48*
X85720Y9810D02*
D03*
Y26810D02*
D03*
Y43910D02*
D03*
Y60910D02*
D03*
D49*
X73310Y13500D02*
D03*
Y14500D02*
D03*
Y15500D02*
D03*
Y16500D02*
D03*
Y17500D02*
D03*
Y18500D02*
D03*
Y19500D02*
D03*
Y20500D02*
D03*
X74310D02*
D03*
Y19500D02*
D03*
Y18500D02*
D03*
Y17500D02*
D03*
Y16500D02*
D03*
Y15500D02*
D03*
Y14500D02*
D03*
Y13500D02*
D03*
X76810D02*
D03*
Y14500D02*
D03*
Y15500D02*
D03*
Y16500D02*
D03*
Y17500D02*
D03*
Y18500D02*
D03*
Y19500D02*
D03*
Y20500D02*
D03*
X77810D02*
D03*
Y19500D02*
D03*
Y18500D02*
D03*
Y17500D02*
D03*
Y16500D02*
D03*
Y15500D02*
D03*
Y14500D02*
D03*
Y13500D02*
D03*
X80310D02*
D03*
Y14500D02*
D03*
Y15500D02*
D03*
Y16500D02*
D03*
Y17500D02*
D03*
Y18500D02*
D03*
Y19500D02*
D03*
Y20500D02*
D03*
X81310D02*
D03*
Y19500D02*
D03*
Y18500D02*
D03*
Y17500D02*
D03*
Y16500D02*
D03*
Y15500D02*
D03*
Y14500D02*
D03*
Y13500D02*
D03*
X83810D02*
D03*
Y14500D02*
D03*
Y15500D02*
D03*
Y16500D02*
D03*
Y17500D02*
D03*
Y18500D02*
D03*
Y19500D02*
D03*
Y20500D02*
D03*
X84810D02*
D03*
Y19500D02*
D03*
Y18500D02*
D03*
Y17500D02*
D03*
Y16500D02*
D03*
Y15500D02*
D03*
Y14500D02*
D03*
Y13500D02*
D03*
X73310Y30500D02*
D03*
Y31500D02*
D03*
Y32500D02*
D03*
Y33500D02*
D03*
Y34500D02*
D03*
Y35500D02*
D03*
Y36500D02*
D03*
Y37500D02*
D03*
X74310D02*
D03*
Y36500D02*
D03*
Y35500D02*
D03*
Y34500D02*
D03*
Y33500D02*
D03*
Y32500D02*
D03*
Y31500D02*
D03*
Y30500D02*
D03*
X76810D02*
D03*
Y31500D02*
D03*
Y32500D02*
D03*
Y33500D02*
D03*
Y34500D02*
D03*
Y35500D02*
D03*
Y36500D02*
D03*
Y37500D02*
D03*
X77810D02*
D03*
Y36500D02*
D03*
Y35500D02*
D03*
Y34500D02*
D03*
Y33500D02*
D03*
Y32500D02*
D03*
Y31500D02*
D03*
Y30500D02*
D03*
X80310D02*
D03*
Y31500D02*
D03*
Y32500D02*
D03*
Y33500D02*
D03*
Y34500D02*
D03*
Y35500D02*
D03*
Y36500D02*
D03*
Y37500D02*
D03*
X81310D02*
D03*
Y36500D02*
D03*
Y35500D02*
D03*
Y34500D02*
D03*
Y33500D02*
D03*
Y32500D02*
D03*
Y31500D02*
D03*
Y30500D02*
D03*
X83810D02*
D03*
Y31500D02*
D03*
Y32500D02*
D03*
Y33500D02*
D03*
Y34500D02*
D03*
Y35500D02*
D03*
Y36500D02*
D03*
Y37500D02*
D03*
X84810D02*
D03*
Y36500D02*
D03*
Y35500D02*
D03*
Y34500D02*
D03*
Y33500D02*
D03*
Y32500D02*
D03*
Y31500D02*
D03*
Y30500D02*
D03*
X73310Y47600D02*
D03*
Y48600D02*
D03*
Y49600D02*
D03*
Y50600D02*
D03*
Y51600D02*
D03*
Y52600D02*
D03*
Y53600D02*
D03*
Y54600D02*
D03*
X74310D02*
D03*
Y53600D02*
D03*
Y52600D02*
D03*
Y51600D02*
D03*
Y50600D02*
D03*
Y49600D02*
D03*
Y48600D02*
D03*
Y47600D02*
D03*
X76810D02*
D03*
Y48600D02*
D03*
Y49600D02*
D03*
Y50600D02*
D03*
Y51600D02*
D03*
Y52600D02*
D03*
Y53600D02*
D03*
Y54600D02*
D03*
X77810D02*
D03*
Y53600D02*
D03*
Y52600D02*
D03*
Y51600D02*
D03*
Y50600D02*
D03*
Y49600D02*
D03*
Y48600D02*
D03*
Y47600D02*
D03*
X80310D02*
D03*
Y48600D02*
D03*
Y49600D02*
D03*
Y50600D02*
D03*
Y51600D02*
D03*
Y52600D02*
D03*
Y53600D02*
D03*
Y54600D02*
D03*
X81310D02*
D03*
Y53600D02*
D03*
Y52600D02*
D03*
Y51600D02*
D03*
Y50600D02*
D03*
Y49600D02*
D03*
Y48600D02*
D03*
Y47600D02*
D03*
X83810D02*
D03*
Y48600D02*
D03*
Y49600D02*
D03*
Y50600D02*
D03*
Y51600D02*
D03*
Y52600D02*
D03*
Y53600D02*
D03*
Y54600D02*
D03*
X84810D02*
D03*
Y53600D02*
D03*
Y52600D02*
D03*
Y51600D02*
D03*
Y50600D02*
D03*
Y49600D02*
D03*
Y48600D02*
D03*
Y47600D02*
D03*
X73310Y64600D02*
D03*
Y65600D02*
D03*
Y66600D02*
D03*
Y67600D02*
D03*
Y68600D02*
D03*
Y69600D02*
D03*
Y70600D02*
D03*
Y71600D02*
D03*
X74310D02*
D03*
Y70600D02*
D03*
Y69600D02*
D03*
Y68600D02*
D03*
Y67600D02*
D03*
Y66600D02*
D03*
Y65600D02*
D03*
Y64600D02*
D03*
X76810D02*
D03*
Y65600D02*
D03*
Y66600D02*
D03*
Y67600D02*
D03*
Y68600D02*
D03*
Y69600D02*
D03*
Y70600D02*
D03*
Y71600D02*
D03*
X77810D02*
D03*
Y70600D02*
D03*
Y69600D02*
D03*
Y68600D02*
D03*
Y67600D02*
D03*
Y66600D02*
D03*
Y65600D02*
D03*
Y64600D02*
D03*
X80310D02*
D03*
Y65600D02*
D03*
Y66600D02*
D03*
Y67600D02*
D03*
Y68600D02*
D03*
Y69600D02*
D03*
Y70600D02*
D03*
Y71600D02*
D03*
X81310D02*
D03*
Y70600D02*
D03*
Y69600D02*
D03*
Y68600D02*
D03*
Y67600D02*
D03*
Y66600D02*
D03*
Y65600D02*
D03*
Y64600D02*
D03*
X83810D02*
D03*
Y65600D02*
D03*
Y66600D02*
D03*
Y67600D02*
D03*
Y68600D02*
D03*
Y69600D02*
D03*
Y70600D02*
D03*
Y71600D02*
D03*
X84810D02*
D03*
Y70600D02*
D03*
Y69600D02*
D03*
Y68600D02*
D03*
Y67600D02*
D03*
Y66600D02*
D03*
Y65600D02*
D03*
Y64600D02*
D03*
D50*
X32000Y58550D02*
D03*
X14000Y57550D02*
D03*
X32000Y20550D02*
D03*
X31000Y19550D02*
D03*
X32000D02*
D03*
X31000Y20550D02*
D03*
X28000Y11550D02*
D03*
X31000D02*
D03*
X32000D02*
D03*
X29000D02*
D03*
X30000D02*
D03*
X13000D02*
D03*
Y10550D02*
D03*
X14000Y11550D02*
D03*
Y10550D02*
D03*
X15000Y11550D02*
D03*
Y10550D02*
D03*
X16000Y11550D02*
D03*
Y10550D02*
D03*
X17000Y11550D02*
D03*
Y10550D02*
D03*
X18000Y11550D02*
D03*
Y10550D02*
D03*
X19000Y11550D02*
D03*
Y10550D02*
D03*
X20000Y11550D02*
D03*
Y10550D02*
D03*
X21000Y11550D02*
D03*
Y10550D02*
D03*
X22000Y11550D02*
D03*
Y10550D02*
D03*
X23000Y11550D02*
D03*
Y10550D02*
D03*
X24000Y11550D02*
D03*
Y10550D02*
D03*
X25000Y11550D02*
D03*
Y10550D02*
D03*
X26000Y11550D02*
D03*
Y10550D02*
D03*
X27000Y11550D02*
D03*
Y10550D02*
D03*
X13000Y20550D02*
D03*
Y19550D02*
D03*
X14000Y20550D02*
D03*
Y19550D02*
D03*
X15000Y20550D02*
D03*
Y19550D02*
D03*
X16000Y20550D02*
D03*
Y19550D02*
D03*
X17000Y20550D02*
D03*
Y19550D02*
D03*
X18000Y20550D02*
D03*
Y19550D02*
D03*
X19000Y20550D02*
D03*
Y19550D02*
D03*
X20000Y20550D02*
D03*
Y19550D02*
D03*
X21000Y20550D02*
D03*
Y19550D02*
D03*
X22000Y20550D02*
D03*
Y19550D02*
D03*
X23000Y20550D02*
D03*
Y19550D02*
D03*
X24000Y20550D02*
D03*
Y19550D02*
D03*
X25000Y20550D02*
D03*
Y19550D02*
D03*
X26000Y20550D02*
D03*
Y19550D02*
D03*
X27000Y20550D02*
D03*
Y19550D02*
D03*
X28000Y20550D02*
D03*
Y19550D02*
D03*
X29000Y20550D02*
D03*
Y19550D02*
D03*
X30000Y20550D02*
D03*
Y19550D02*
D03*
X13000Y58550D02*
D03*
Y57550D02*
D03*
X14000Y58550D02*
D03*
X15000Y57550D02*
D03*
X17000Y58550D02*
D03*
Y57550D02*
D03*
X18000Y58550D02*
D03*
Y57550D02*
D03*
X19000Y58550D02*
D03*
Y57550D02*
D03*
X20000Y58550D02*
D03*
Y57550D02*
D03*
X21000Y58550D02*
D03*
Y57550D02*
D03*
X22000Y58550D02*
D03*
Y57550D02*
D03*
X23000Y58550D02*
D03*
Y57550D02*
D03*
X24000Y58550D02*
D03*
Y57550D02*
D03*
X25000Y58550D02*
D03*
Y57550D02*
D03*
X26000Y58550D02*
D03*
Y57550D02*
D03*
X27000Y58550D02*
D03*
Y57550D02*
D03*
X28000Y58550D02*
D03*
Y57550D02*
D03*
X29000Y58550D02*
D03*
Y57550D02*
D03*
X30000Y58550D02*
D03*
Y57550D02*
D03*
X31000Y58550D02*
D03*
Y57550D02*
D03*
X32000D02*
D03*
D52*
X15000Y58550D02*
D03*
X16000D02*
D03*
Y57550D02*
D03*
X28000Y10550D02*
D03*
X31000D02*
D03*
X32000D02*
D03*
X29000D02*
D03*
X30000D02*
D03*
D55*
X64331Y63633D02*
D03*
Y56633D02*
D03*
Y49633D02*
D03*
Y42633D02*
D03*
Y35633D02*
D03*
Y28633D02*
D03*
Y21633D02*
D03*
Y14633D02*
D03*
D56*
X64331Y66467D02*
D03*
Y59467D02*
D03*
Y52467D02*
D03*
Y45467D02*
D03*
Y38467D02*
D03*
Y31467D02*
D03*
Y24467D02*
D03*
Y17467D02*
D03*
D57*
X12378Y63200D02*
D03*
D58*
X11197Y65050D02*
D03*
X13559D02*
D03*
D59*
X22822Y33475D02*
D03*
X36396D02*
D03*
X22822Y49223D02*
D03*
X36396D02*
D03*
D60*
X48350Y13610D02*
D03*
Y11610D02*
D03*
Y12610D02*
D03*
D61*
X65300Y70600D02*
D03*
X10500D02*
D03*
X11300Y49211D02*
D03*
X38465D02*
D03*
Y31889D02*
D03*
X11300D02*
D03*
X65300Y10600D02*
D03*
X10500D02*
D03*
D62*
X51516Y14222D02*
D03*
Y14562D02*
D03*
Y14902D02*
D03*
Y15242D02*
D03*
Y15582D02*
D03*
X51634Y15901D02*
D03*
X60586Y16235D02*
D03*
X60827Y15995D02*
D03*
X61069Y15756D02*
D03*
X61402Y15687D02*
D03*
X61056Y15527D02*
D03*
X60716D02*
D03*
X60376D02*
D03*
X60036D02*
D03*
X59959Y16154D02*
D03*
X59988Y16493D02*
D03*
X60328D02*
D03*
X62913Y16573D02*
D03*
X62613Y16413D02*
D03*
X62279Y16473D02*
D03*
X61944Y16413D02*
D03*
X61604D02*
D03*
X61294Y16553D02*
D03*
X44424Y16668D02*
D03*
X44764D02*
D03*
X45104D02*
D03*
X45444D02*
D03*
X45784D02*
D03*
X46124D02*
D03*
X46464D02*
D03*
X46804D02*
D03*
X47144D02*
D03*
X47484D02*
D03*
X47824D02*
D03*
X48164D02*
D03*
X48504D02*
D03*
X48844D02*
D03*
X49184D02*
D03*
X49524D02*
D03*
X49864D02*
D03*
X50204D02*
D03*
X50544D02*
D03*
X50884D02*
D03*
X51516Y21026D02*
D03*
Y21366D02*
D03*
Y21706D02*
D03*
Y22046D02*
D03*
Y22386D02*
D03*
Y22726D02*
D03*
Y23066D02*
D03*
X51634Y23384D02*
D03*
X60586Y23235D02*
D03*
X60827Y22995D02*
D03*
X61069Y22756D02*
D03*
X61402Y22687D02*
D03*
X61056Y22527D02*
D03*
X60716D02*
D03*
X60376D02*
D03*
X60036D02*
D03*
X59959Y23154D02*
D03*
X59988Y23493D02*
D03*
X60328D02*
D03*
X62913Y23573D02*
D03*
X62613Y23413D02*
D03*
X62279Y23473D02*
D03*
X61944Y23413D02*
D03*
X61604D02*
D03*
X61294Y23553D02*
D03*
X51516Y28222D02*
D03*
Y28562D02*
D03*
Y28902D02*
D03*
Y29242D02*
D03*
Y29582D02*
D03*
X51634Y29901D02*
D03*
X60586Y30235D02*
D03*
X60827Y29995D02*
D03*
X61069Y29756D02*
D03*
X61402Y29687D02*
D03*
X61056Y29527D02*
D03*
X60716D02*
D03*
X60376D02*
D03*
X60036D02*
D03*
X59959Y30154D02*
D03*
X59988Y30493D02*
D03*
X60328D02*
D03*
X62913Y30573D02*
D03*
X62613Y30413D02*
D03*
X62279Y30473D02*
D03*
X61944Y30413D02*
D03*
X61604D02*
D03*
X61294Y30553D02*
D03*
X51516Y35179D02*
D03*
Y35519D02*
D03*
X51634Y35838D02*
D03*
X60586Y37235D02*
D03*
X60827Y36995D02*
D03*
X61069Y36756D02*
D03*
X61402Y36687D02*
D03*
X61056Y36527D02*
D03*
X60716D02*
D03*
X60376D02*
D03*
X60036D02*
D03*
X59959Y37154D02*
D03*
X59988Y37493D02*
D03*
X60328D02*
D03*
X62913Y37573D02*
D03*
X62613Y37413D02*
D03*
X62279Y37473D02*
D03*
X61944Y37413D02*
D03*
X61604D02*
D03*
X61294Y37553D02*
D03*
X51516Y37736D02*
D03*
Y38076D02*
D03*
Y38416D02*
D03*
X51634Y38734D02*
D03*
X51516Y42222D02*
D03*
Y42562D02*
D03*
Y42902D02*
D03*
Y43242D02*
D03*
Y43582D02*
D03*
X51634Y43901D02*
D03*
X60586Y44235D02*
D03*
X60827Y43995D02*
D03*
X61069Y43756D02*
D03*
X61402Y43687D02*
D03*
X61056Y43527D02*
D03*
X60716D02*
D03*
X60376D02*
D03*
X60036D02*
D03*
X59959Y44154D02*
D03*
X59988Y44493D02*
D03*
X60328D02*
D03*
X62913Y44573D02*
D03*
X62613Y44413D02*
D03*
X62279Y44473D02*
D03*
X61944Y44413D02*
D03*
X61604D02*
D03*
X61294Y44553D02*
D03*
X60586Y51235D02*
D03*
X60827Y50995D02*
D03*
X61069Y50756D02*
D03*
X61402Y50687D02*
D03*
X61056Y50527D02*
D03*
X60716D02*
D03*
X60376D02*
D03*
X60036D02*
D03*
X59959Y51154D02*
D03*
X59988Y51493D02*
D03*
X60328D02*
D03*
X62913Y51573D02*
D03*
X62613Y51413D02*
D03*
X62279Y51473D02*
D03*
X61944Y51413D02*
D03*
X61604D02*
D03*
X61294Y51553D02*
D03*
X48587Y53341D02*
D03*
X48828Y53581D02*
D03*
X49068Y53822D02*
D03*
X49309Y54062D02*
D03*
X49549Y54303D02*
D03*
X49789Y54543D02*
D03*
X50030Y54784D02*
D03*
X50276Y55018D02*
D03*
X45943Y57696D02*
D03*
X46183Y57937D02*
D03*
X46424Y58177D02*
D03*
X46664Y58418D02*
D03*
X46904Y58658D02*
D03*
X47145Y58899D02*
D03*
X47385Y59139D02*
D03*
X47626Y59379D02*
D03*
X47866Y59620D02*
D03*
X48107Y59860D02*
D03*
X48347Y60101D02*
D03*
X48587Y60341D02*
D03*
X48828Y60581D02*
D03*
X49068Y60822D02*
D03*
X49309Y61062D02*
D03*
X49549Y61303D02*
D03*
X49789Y61543D02*
D03*
X50030Y61784D02*
D03*
X50276Y62018D02*
D03*
X60586Y58235D02*
D03*
X60827Y57995D02*
D03*
X61069Y57756D02*
D03*
X61402Y57687D02*
D03*
X61056Y57527D02*
D03*
X60716D02*
D03*
X60376D02*
D03*
X60036D02*
D03*
X59959Y58154D02*
D03*
X59988Y58493D02*
D03*
X60328D02*
D03*
X62913Y58573D02*
D03*
X62613Y58413D02*
D03*
X62279Y58473D02*
D03*
X61944Y58413D02*
D03*
X61604D02*
D03*
X61294Y58553D02*
D03*
X60586Y65235D02*
D03*
X60827Y64995D02*
D03*
X61069Y64756D02*
D03*
X61402Y64687D02*
D03*
X61056Y64527D02*
D03*
X60716D02*
D03*
X60376D02*
D03*
X60036D02*
D03*
X59959Y65154D02*
D03*
X59988Y65493D02*
D03*
X60328D02*
D03*
X62913Y65573D02*
D03*
X62613Y65413D02*
D03*
X62279Y65473D02*
D03*
X61944Y65413D02*
D03*
X61604D02*
D03*
X61294Y65553D02*
D03*
X56369Y66555D02*
D03*
X56029D02*
D03*
X55689D02*
D03*
X55349D02*
D03*
X55009D02*
D03*
X54669D02*
D03*
X54329D02*
D03*
X53989D02*
D03*
X53649D02*
D03*
X53309D02*
D03*
X52982Y66461D02*
D03*
X52742Y66221D02*
D03*
X52501Y65980D02*
D03*
X52261Y65740D02*
D03*
X52020Y65499D02*
D03*
X51780Y65259D02*
D03*
X51539Y65019D02*
D03*
X51299Y64778D02*
D03*
X51059Y64538D02*
D03*
X50829Y64287D02*
D03*
X50784Y63950D02*
D03*
Y63610D02*
D03*
X50727Y63275D02*
D03*
X50556Y62981D02*
D03*
X50292Y62767D02*
D03*
X49990Y62611D02*
D03*
X49737Y62384D02*
D03*
X49497Y62143D02*
D03*
X49256Y61903D02*
D03*
X49016Y61662D02*
D03*
X48776Y61422D02*
D03*
X48535Y61182D02*
D03*
X48295Y60941D02*
D03*
X48054Y60701D02*
D03*
X47814Y60460D02*
D03*
X47574Y60220D02*
D03*
X47333Y59980D02*
D03*
X47093Y59739D02*
D03*
X46852Y59499D02*
D03*
X46612Y59258D02*
D03*
X46371Y59018D02*
D03*
X46131Y58777D02*
D03*
X45891Y58537D02*
D03*
X45650Y58297D02*
D03*
X45410Y58056D02*
D03*
X45190Y57797D02*
D03*
X45164Y57458D02*
D03*
Y57118D02*
D03*
Y56778D02*
D03*
Y56438D02*
D03*
Y56098D02*
D03*
Y55758D02*
D03*
Y55418D02*
D03*
Y55078D02*
D03*
Y54738D02*
D03*
Y54398D02*
D03*
Y54058D02*
D03*
Y53718D02*
D03*
Y53378D02*
D03*
Y53038D02*
D03*
Y52698D02*
D03*
X44943Y52439D02*
D03*
X44703Y52199D02*
D03*
X44462Y51959D02*
D03*
X44222Y51718D02*
D03*
X43981Y51478D02*
D03*
X43741Y51237D02*
D03*
X43501Y50997D02*
D03*
X43260Y50757D02*
D03*
X43020Y50516D02*
D03*
X42779Y50276D02*
D03*
X42539Y50035D02*
D03*
X42299Y49795D02*
D03*
X42058Y49554D02*
D03*
X41818Y49314D02*
D03*
X41577Y49074D02*
D03*
X41337Y48833D02*
D03*
X41096Y48593D02*
D03*
X40856Y48352D02*
D03*
X40616Y48112D02*
D03*
X40375Y47872D02*
D03*
X40135Y47631D02*
D03*
X39894Y47391D02*
D03*
X39654Y47150D02*
D03*
X39414Y46910D02*
D03*
X39173Y46669D02*
D03*
X38933Y46429D02*
D03*
X38692Y46189D02*
D03*
X38452Y45948D02*
D03*
X38211Y45708D02*
D03*
X37971Y45467D02*
D03*
X37731Y45227D02*
D03*
X37490Y44987D02*
D03*
X37250Y44746D02*
D03*
X37009Y44506D02*
D03*
X36769Y44265D02*
D03*
X36529Y44025D02*
D03*
X36288Y43784D02*
D03*
X36048Y43544D02*
D03*
X35807Y43304D02*
D03*
X35567Y43063D02*
D03*
X35326Y42823D02*
D03*
X35086Y42582D02*
D03*
X34846Y42342D02*
D03*
X34605Y42102D02*
D03*
X34365Y41861D02*
D03*
X34124Y41621D02*
D03*
X33884Y41380D02*
D03*
X33644Y41140D02*
D03*
X33403Y40899D02*
D03*
X33065Y40866D02*
D03*
X32740Y40766D02*
D03*
X32499Y40526D02*
D03*
X32259Y40285D02*
D03*
X32018Y40045D02*
D03*
X31778Y39804D02*
D03*
X31538Y39564D02*
D03*
X31297Y39324D02*
D03*
X31057Y39083D02*
D03*
X30816Y38843D02*
D03*
X30576Y38602D02*
D03*
X30336Y38362D02*
D03*
X30095Y38121D02*
D03*
X29855Y37881D02*
D03*
X29614Y37641D02*
D03*
X29451Y37342D02*
D03*
Y37002D02*
D03*
Y36662D02*
D03*
Y36322D02*
D03*
Y35982D02*
D03*
Y35302D02*
D03*
Y34962D02*
D03*
X30638Y33334D02*
D03*
X31318D02*
D03*
X31658D02*
D03*
X31979Y33446D02*
D03*
X32958Y33334D02*
D03*
X33298D02*
D03*
X33638Y33335D02*
D03*
X33978Y33338D02*
D03*
X34318Y33341D02*
D03*
X34658Y33342D02*
D03*
X34998Y33339D02*
D03*
X35338Y33335D02*
D03*
X35678Y33334D02*
D03*
X36012Y33398D02*
D03*
X36982Y33575D02*
D03*
X37322D02*
D03*
X37662D02*
D03*
X38002D02*
D03*
X38342D02*
D03*
X38682D02*
D03*
X39022D02*
D03*
X39362D02*
D03*
X39702D02*
D03*
X40042D02*
D03*
X40382D02*
D03*
X40722D02*
D03*
X41062D02*
D03*
X41402D02*
D03*
X41742D02*
D03*
X42082D02*
D03*
X42422D02*
D03*
X42762D02*
D03*
X43055Y33401D02*
D03*
X42814Y33161D02*
D03*
X42574Y32920D02*
D03*
X42333Y32680D02*
D03*
X42093Y32439D02*
D03*
X41853Y32199D02*
D03*
X41612Y31958D02*
D03*
X41372Y31718D02*
D03*
X41131Y31478D02*
D03*
X40891Y31237D02*
D03*
X40650Y30997D02*
D03*
X40410Y30756D02*
D03*
X40170Y30516D02*
D03*
X39929Y30276D02*
D03*
X39662Y30066D02*
D03*
X39322D02*
D03*
X38982D02*
D03*
X38642D02*
D03*
X38302D02*
D03*
X37962D02*
D03*
X37622D02*
D03*
X37282D02*
D03*
X34210Y32016D02*
D03*
X33870D02*
D03*
X33530D02*
D03*
X28821Y30524D02*
D03*
X28507Y30835D02*
D03*
X25356Y30720D02*
D03*
Y30380D02*
D03*
Y30040D02*
D03*
Y29020D02*
D03*
X25488Y28366D02*
D03*
X25728Y28126D02*
D03*
X25969Y27885D02*
D03*
X26209Y27645D02*
D03*
X26449Y27404D02*
D03*
X26690Y27164D02*
D03*
X26930Y26923D02*
D03*
X27171Y26683D02*
D03*
X27411Y26443D02*
D03*
X27651Y26202D02*
D03*
X27892Y25962D02*
D03*
X28132Y25721D02*
D03*
X28373Y25481D02*
D03*
X28613Y25241D02*
D03*
X28854Y25000D02*
D03*
X29094Y24760D02*
D03*
X29334Y24519D02*
D03*
X29575Y24279D02*
D03*
X29815Y24038D02*
D03*
X30056Y23798D02*
D03*
X30296Y23558D02*
D03*
X30536Y23317D02*
D03*
X31017Y22836D02*
D03*
X31739Y22115D02*
D03*
X32219Y21634D02*
D03*
X39577Y20426D02*
D03*
X40299Y19705D02*
D03*
X41020Y18984D02*
D03*
X42703Y17301D02*
D03*
X42943Y17060D02*
D03*
X43184Y16820D02*
D03*
X43424Y16580D02*
D03*
X43664Y16339D02*
D03*
X43905Y16099D02*
D03*
X44185Y15906D02*
D03*
X44525Y15901D02*
D03*
X44865D02*
D03*
X45205D02*
D03*
X45545D02*
D03*
X45885D02*
D03*
X46225D02*
D03*
X46565D02*
D03*
X46905D02*
D03*
X47245D02*
D03*
X47585D02*
D03*
X47925D02*
D03*
X48265D02*
D03*
X48605D02*
D03*
X48945D02*
D03*
X49285D02*
D03*
X49625D02*
D03*
X49965D02*
D03*
X50305D02*
D03*
X50645D02*
D03*
X50884Y15659D02*
D03*
Y15319D02*
D03*
Y14979D02*
D03*
Y14639D02*
D03*
Y14299D02*
D03*
Y13959D02*
D03*
X50810Y13627D02*
D03*
X50926Y13308D02*
D03*
X51248Y13200D02*
D03*
X51588Y13181D02*
D03*
X51843Y12956D02*
D03*
X52178Y13014D02*
D03*
X52518Y13018D02*
D03*
X52858D02*
D03*
X53198D02*
D03*
X53538D02*
D03*
X53878D02*
D03*
X54898D02*
D03*
X55918D02*
D03*
X56258D02*
D03*
X56598D02*
D03*
X57676Y13394D02*
D03*
X57669Y13734D02*
D03*
X55708Y13905D02*
D03*
X55368D02*
D03*
X55028D02*
D03*
X54688D02*
D03*
X54348D02*
D03*
X54008D02*
D03*
X53668D02*
D03*
X53328D02*
D03*
X52988D02*
D03*
X52648D02*
D03*
X52308D02*
D03*
X52266Y14243D02*
D03*
Y14583D02*
D03*
Y14923D02*
D03*
Y15263D02*
D03*
Y15603D02*
D03*
X52430Y15901D02*
D03*
X52770D02*
D03*
X53101Y15826D02*
D03*
X53433Y15901D02*
D03*
X53773D02*
D03*
X54793D02*
D03*
X55813D02*
D03*
X56149Y15846D02*
D03*
X56487Y15879D02*
D03*
X57676Y16172D02*
D03*
X56583Y16532D02*
D03*
X55919D02*
D03*
X52564Y16668D02*
D03*
X52904D02*
D03*
X53244D02*
D03*
X57635Y16753D02*
D03*
X57673Y17091D02*
D03*
X56681Y17566D02*
D03*
X56341Y17555D02*
D03*
X56001D02*
D03*
X55661D02*
D03*
X55321D02*
D03*
X54981D02*
D03*
X54641D02*
D03*
X54301D02*
D03*
X53961D02*
D03*
X53621D02*
D03*
X53281D02*
D03*
X52941D02*
D03*
X52601D02*
D03*
X52266Y17611D02*
D03*
X52328Y17945D02*
D03*
X52269Y18279D02*
D03*
X51971Y18444D02*
D03*
X51640Y18366D02*
D03*
X51300D02*
D03*
X50960D02*
D03*
X50620D02*
D03*
X50280D02*
D03*
X49940D02*
D03*
X49600D02*
D03*
X49260D02*
D03*
X48920D02*
D03*
X48580D02*
D03*
X48240D02*
D03*
X47900D02*
D03*
X47560D02*
D03*
X47220D02*
D03*
X46880D02*
D03*
X46540D02*
D03*
X46200D02*
D03*
X45860D02*
D03*
X45520D02*
D03*
X45180D02*
D03*
X44840D02*
D03*
X44500D02*
D03*
X44166Y18430D02*
D03*
X43926Y18671D02*
D03*
X43685Y18911D02*
D03*
X43445Y19152D02*
D03*
X43204Y19392D02*
D03*
X42964Y19632D02*
D03*
X42724Y19873D02*
D03*
X41041Y21556D02*
D03*
X37648Y23266D02*
D03*
X36628D02*
D03*
X38009Y23384D02*
D03*
X41069D02*
D03*
X41409D02*
D03*
X42769D02*
D03*
X43109D02*
D03*
X43449D02*
D03*
X43789D02*
D03*
X44129D02*
D03*
X44469D02*
D03*
X44809D02*
D03*
X45149D02*
D03*
X45489D02*
D03*
X45829D02*
D03*
X46169D02*
D03*
X46509D02*
D03*
X46849D02*
D03*
X47189D02*
D03*
X47529D02*
D03*
X47869D02*
D03*
X48209D02*
D03*
X48549D02*
D03*
X48889D02*
D03*
X49229D02*
D03*
X49569D02*
D03*
X49909D02*
D03*
X50249D02*
D03*
X50589D02*
D03*
X50884Y23215D02*
D03*
Y22875D02*
D03*
Y22535D02*
D03*
Y22195D02*
D03*
Y21855D02*
D03*
Y21515D02*
D03*
Y21175D02*
D03*
Y20835D02*
D03*
X50817Y20502D02*
D03*
X51028Y20235D02*
D03*
X51368Y20233D02*
D03*
X51663Y20064D02*
D03*
X51981Y19942D02*
D03*
X52312Y20018D02*
D03*
X52652D02*
D03*
X52992D02*
D03*
X53332D02*
D03*
X54692D02*
D03*
X55032D02*
D03*
X56052D02*
D03*
X56392D02*
D03*
X57676Y20534D02*
D03*
X57600Y20866D02*
D03*
X55574Y20905D02*
D03*
X55234D02*
D03*
X54894D02*
D03*
X54554D02*
D03*
X54214D02*
D03*
X53874D02*
D03*
X53534D02*
D03*
X53194D02*
D03*
X52854D02*
D03*
X52514D02*
D03*
X52266Y21138D02*
D03*
Y21478D02*
D03*
Y21818D02*
D03*
Y22158D02*
D03*
Y22498D02*
D03*
Y22838D02*
D03*
Y23178D02*
D03*
X52536Y23383D02*
D03*
X52777Y23143D02*
D03*
X52962Y22858D02*
D03*
X53298Y22805D02*
D03*
X53629Y22883D02*
D03*
X54649D02*
D03*
X54989D02*
D03*
X56009D02*
D03*
X56679Y22891D02*
D03*
X57653Y23023D02*
D03*
X56052Y23532D02*
D03*
X53370Y23668D02*
D03*
X57674Y23882D02*
D03*
X57676Y24222D02*
D03*
X56554Y24555D02*
D03*
X56214D02*
D03*
X55874D02*
D03*
X55534D02*
D03*
X55194D02*
D03*
X54854D02*
D03*
X54514D02*
D03*
X54174D02*
D03*
X53834D02*
D03*
X53494D02*
D03*
X53154D02*
D03*
X52814D02*
D03*
X52474D02*
D03*
X52266Y24824D02*
D03*
X52344Y25155D02*
D03*
X52208Y25467D02*
D03*
X51880Y25556D02*
D03*
X51547Y25486D02*
D03*
X51207D02*
D03*
X50867D02*
D03*
X50527D02*
D03*
X50187D02*
D03*
X49847D02*
D03*
X49507D02*
D03*
X49167D02*
D03*
X48827D02*
D03*
X48487D02*
D03*
X48147D02*
D03*
X47807D02*
D03*
X47467D02*
D03*
X47127D02*
D03*
X46787D02*
D03*
X46462Y25586D02*
D03*
X46703Y25826D02*
D03*
X46943Y26066D02*
D03*
X47184Y26307D02*
D03*
X47424Y26547D02*
D03*
X47664Y26788D02*
D03*
X47905Y27028D02*
D03*
X48145Y27268D02*
D03*
X48386Y27509D02*
D03*
X48626Y27749D02*
D03*
X48867Y27990D02*
D03*
X49107Y28230D02*
D03*
X49347Y28471D02*
D03*
X49588Y28711D02*
D03*
X49828Y28951D02*
D03*
X50069Y29192D02*
D03*
X50309Y29432D02*
D03*
X50549Y29673D02*
D03*
X50884Y29731D02*
D03*
Y29391D02*
D03*
Y29051D02*
D03*
Y28711D02*
D03*
Y28371D02*
D03*
Y28031D02*
D03*
X50822Y27697D02*
D03*
X50880Y27362D02*
D03*
X51178Y27197D02*
D03*
X51509Y27274D02*
D03*
X51725Y27012D02*
D03*
X52061Y26957D02*
D03*
X52395Y27018D02*
D03*
X52735D02*
D03*
X53075D02*
D03*
X53415D02*
D03*
X53755D02*
D03*
X54775D02*
D03*
X56135D02*
D03*
X56475D02*
D03*
X57676Y27276D02*
D03*
Y27616D02*
D03*
X55829Y27905D02*
D03*
X55489D02*
D03*
X55149D02*
D03*
X54809D02*
D03*
X54469D02*
D03*
X54129D02*
D03*
X53789D02*
D03*
X53449D02*
D03*
X53109D02*
D03*
X52769D02*
D03*
X52429D02*
D03*
X52266Y28203D02*
D03*
Y28543D02*
D03*
Y28883D02*
D03*
Y29223D02*
D03*
Y29563D02*
D03*
X52310Y29901D02*
D03*
X52650D02*
D03*
X52987Y29857D02*
D03*
X53327Y29865D02*
D03*
X53665Y29901D02*
D03*
X54685D02*
D03*
X55025D02*
D03*
X56045D02*
D03*
X57667Y30060D02*
D03*
X56020Y30532D02*
D03*
X52314Y30668D02*
D03*
X52654D02*
D03*
X52994D02*
D03*
X53334D02*
D03*
X57669Y30846D02*
D03*
X57676Y31186D02*
D03*
X56592Y31555D02*
D03*
X56252D02*
D03*
X55912D02*
D03*
X55572D02*
D03*
X55232D02*
D03*
X54892D02*
D03*
X54552D02*
D03*
X54212D02*
D03*
X53872D02*
D03*
X53532D02*
D03*
X53192D02*
D03*
X52852D02*
D03*
X52512D02*
D03*
X52266Y31789D02*
D03*
X52336Y32122D02*
D03*
X52135Y32396D02*
D03*
X51795Y32411D02*
D03*
X51458Y32366D02*
D03*
X51118D02*
D03*
X50778D02*
D03*
X50438Y32357D02*
D03*
X50162Y32159D02*
D03*
X49922Y31918D02*
D03*
X49681Y31678D02*
D03*
X49441Y31437D02*
D03*
X49201Y31197D02*
D03*
X48960Y30957D02*
D03*
X48720Y30716D02*
D03*
X48479Y30476D02*
D03*
X48239Y30235D02*
D03*
X47999Y29995D02*
D03*
X47758Y29754D02*
D03*
X47518Y29514D02*
D03*
X47277Y29274D02*
D03*
X47037Y29033D02*
D03*
X46796Y28793D02*
D03*
X46556Y28552D02*
D03*
X46316Y28312D02*
D03*
X46075Y28072D02*
D03*
X45835Y27831D02*
D03*
X45594Y27591D02*
D03*
X45354Y27350D02*
D03*
X45098Y27127D02*
D03*
X44758D02*
D03*
X44418D02*
D03*
X44078D02*
D03*
X43738D02*
D03*
X43398D02*
D03*
X43120Y27324D02*
D03*
X43361Y27565D02*
D03*
X43601Y27805D02*
D03*
X43842Y28045D02*
D03*
X44082Y28286D02*
D03*
X44323Y28526D02*
D03*
X44563Y28767D02*
D03*
X44803Y29007D02*
D03*
X45044Y29247D02*
D03*
X45284Y29488D02*
D03*
X45525Y29728D02*
D03*
X45765Y29969D02*
D03*
X46005Y30209D02*
D03*
X46246Y30450D02*
D03*
X46486Y30690D02*
D03*
X46727Y30930D02*
D03*
X46967Y31171D02*
D03*
X47208Y31411D02*
D03*
X47448Y31652D02*
D03*
X47688Y31892D02*
D03*
X47929Y32132D02*
D03*
X48169Y32373D02*
D03*
X48410Y32613D02*
D03*
X48650Y32854D02*
D03*
X48890Y33094D02*
D03*
X49131Y33335D02*
D03*
X49371Y33575D02*
D03*
X49612Y33815D02*
D03*
X49852Y34056D02*
D03*
X50093Y34296D02*
D03*
X50333Y34537D02*
D03*
X50573Y34777D02*
D03*
X50884Y34914D02*
D03*
X50807Y34583D02*
D03*
X50959Y34280D02*
D03*
X51291Y34208D02*
D03*
X51620Y34121D02*
D03*
X51910Y33944D02*
D03*
X52242Y34018D02*
D03*
X52582D02*
D03*
X52922D02*
D03*
X53262D02*
D03*
X54962D02*
D03*
X55982D02*
D03*
X56322D02*
D03*
X56662D02*
D03*
X57671Y34461D02*
D03*
X57646Y34800D02*
D03*
X55644Y34905D02*
D03*
X55304D02*
D03*
X54964D02*
D03*
X54624D02*
D03*
X54284D02*
D03*
X53944D02*
D03*
X53604D02*
D03*
X53264D02*
D03*
X52924D02*
D03*
X52584D02*
D03*
X52266Y35025D02*
D03*
Y35365D02*
D03*
Y35705D02*
D03*
Y36045D02*
D03*
Y36385D02*
D03*
X52460Y36664D02*
D03*
X52704Y36901D02*
D03*
X53039Y36840D02*
D03*
X53374Y36894D02*
D03*
X53714Y36901D02*
D03*
X54734D02*
D03*
X55074D02*
D03*
X56093Y36874D02*
D03*
X57675Y37119D02*
D03*
X56634Y37532D02*
D03*
X55972D02*
D03*
X52919Y37623D02*
D03*
X53256Y37668D02*
D03*
X57642Y37765D02*
D03*
X57672Y38104D02*
D03*
X56670Y38559D02*
D03*
X56330Y38555D02*
D03*
X55990D02*
D03*
X55650D02*
D03*
X55310D02*
D03*
X54970D02*
D03*
X54630D02*
D03*
X54290D02*
D03*
X53950D02*
D03*
X53610D02*
D03*
X53270D02*
D03*
X52930D02*
D03*
X52590D02*
D03*
X52266Y38453D02*
D03*
Y38793D02*
D03*
X52335Y39126D02*
D03*
X52131Y39398D02*
D03*
X51791Y39410D02*
D03*
X51454Y39366D02*
D03*
X51114D02*
D03*
X50817Y39201D02*
D03*
X50576Y38960D02*
D03*
X50336Y38720D02*
D03*
X50096Y38479D02*
D03*
X49984Y38158D02*
D03*
Y37818D02*
D03*
Y37478D02*
D03*
Y37138D02*
D03*
X49748Y36894D02*
D03*
X49507Y36654D02*
D03*
X49267Y36413D02*
D03*
X49026Y36173D02*
D03*
X48786Y35932D02*
D03*
X48546Y35692D02*
D03*
X48305Y35452D02*
D03*
X48065Y35211D02*
D03*
X47824Y34971D02*
D03*
X47584Y34730D02*
D03*
X47344Y34490D02*
D03*
X47103Y34249D02*
D03*
X46863Y34009D02*
D03*
X46622Y33769D02*
D03*
X46382Y33528D02*
D03*
X46141Y33288D02*
D03*
X45901Y33047D02*
D03*
X45661Y32807D02*
D03*
X45420Y32567D02*
D03*
X45180Y32326D02*
D03*
X44939Y32086D02*
D03*
X44699Y31845D02*
D03*
X44459Y31605D02*
D03*
X44218Y31364D02*
D03*
X43978Y31124D02*
D03*
X43737Y30884D02*
D03*
X43497Y30643D02*
D03*
X43256Y30403D02*
D03*
X43016Y30162D02*
D03*
X42776Y29922D02*
D03*
X42535Y29682D02*
D03*
X42295Y29441D02*
D03*
X42054Y29201D02*
D03*
X41814Y28960D02*
D03*
X41487Y28866D02*
D03*
X41163Y28966D02*
D03*
X41403Y29207D02*
D03*
X41643Y29447D02*
D03*
X41884Y29688D02*
D03*
X42124Y29928D02*
D03*
X42365Y30168D02*
D03*
X42605Y30409D02*
D03*
X42846Y30649D02*
D03*
X43086Y30890D02*
D03*
X43326Y31130D02*
D03*
X43567Y31370D02*
D03*
X43807Y31611D02*
D03*
X44048Y31851D02*
D03*
X44288Y32092D02*
D03*
X44528Y32332D02*
D03*
X44769Y32573D02*
D03*
X45009Y32813D02*
D03*
X45250Y33053D02*
D03*
X45490Y33294D02*
D03*
X45731Y33534D02*
D03*
X45971Y33775D02*
D03*
X46211Y34015D02*
D03*
X46452Y34255D02*
D03*
X46692Y34496D02*
D03*
X46933Y34736D02*
D03*
X47173Y34977D02*
D03*
X47413Y35217D02*
D03*
X47654Y35458D02*
D03*
X47894Y35698D02*
D03*
X48135Y35938D02*
D03*
X48375Y36179D02*
D03*
X48563Y36462D02*
D03*
X48566Y36802D02*
D03*
Y37142D02*
D03*
Y37482D02*
D03*
Y37822D02*
D03*
Y38162D02*
D03*
Y38502D02*
D03*
Y38842D02*
D03*
Y39182D02*
D03*
Y39522D02*
D03*
Y39862D02*
D03*
Y40202D02*
D03*
Y40542D02*
D03*
Y40882D02*
D03*
X48682Y41202D02*
D03*
X48922Y41442D02*
D03*
X49163Y41683D02*
D03*
X49403Y41923D02*
D03*
X49644Y42163D02*
D03*
X49884Y42404D02*
D03*
X50125Y42644D02*
D03*
X50365Y42885D02*
D03*
X50605Y43125D02*
D03*
X50884Y43319D02*
D03*
Y42979D02*
D03*
Y42639D02*
D03*
Y42299D02*
D03*
Y41959D02*
D03*
X50810Y41628D02*
D03*
X50926Y41308D02*
D03*
X51248Y41200D02*
D03*
X51587Y41182D02*
D03*
X51842Y40957D02*
D03*
X52177Y41014D02*
D03*
X52517Y41018D02*
D03*
X52857D02*
D03*
X53197D02*
D03*
X53537D02*
D03*
X53877D02*
D03*
X54897D02*
D03*
X55917D02*
D03*
X56257D02*
D03*
X56597D02*
D03*
X57676Y41393D02*
D03*
X57669Y41733D02*
D03*
X55709Y41905D02*
D03*
X55369D02*
D03*
X55029D02*
D03*
X54689D02*
D03*
X54349D02*
D03*
X54009D02*
D03*
X53669D02*
D03*
X53329D02*
D03*
X52989D02*
D03*
X52649D02*
D03*
X52309D02*
D03*
X52266Y42243D02*
D03*
Y42583D02*
D03*
Y42923D02*
D03*
Y43263D02*
D03*
Y43603D02*
D03*
X52429Y43901D02*
D03*
X52769D02*
D03*
X53101Y43826D02*
D03*
X53433Y43901D02*
D03*
X53773D02*
D03*
X54793D02*
D03*
X55813D02*
D03*
X56149Y43846D02*
D03*
X56487Y43879D02*
D03*
X57676Y44172D02*
D03*
X56583Y44532D02*
D03*
X55920D02*
D03*
X52564Y44668D02*
D03*
X52904D02*
D03*
X53244D02*
D03*
X57635Y44753D02*
D03*
X57673Y45091D02*
D03*
X56681Y45566D02*
D03*
X56341Y45555D02*
D03*
X56001D02*
D03*
X55661D02*
D03*
X55321D02*
D03*
X54981D02*
D03*
X54641D02*
D03*
X54301D02*
D03*
X53961D02*
D03*
X53621D02*
D03*
X53281D02*
D03*
X52941D02*
D03*
X52601D02*
D03*
X52266Y45611D02*
D03*
X52329Y45946D02*
D03*
X52268Y46280D02*
D03*
X51970Y46444D02*
D03*
X51639Y46366D02*
D03*
X51299D02*
D03*
X50963Y46313D02*
D03*
X50717Y46079D02*
D03*
X50476Y45839D02*
D03*
X50236Y45598D02*
D03*
X49995Y45358D02*
D03*
X49755Y45118D02*
D03*
X49515Y44877D02*
D03*
X49274Y44637D02*
D03*
X49034Y44396D02*
D03*
X48793Y44156D02*
D03*
X48553Y43915D02*
D03*
X48313Y43675D02*
D03*
X48072Y43435D02*
D03*
X47832Y43194D02*
D03*
X47591Y42954D02*
D03*
X47351Y42713D02*
D03*
X47110Y42473D02*
D03*
X46870Y42233D02*
D03*
X46630Y41992D02*
D03*
X46534Y41666D02*
D03*
Y41326D02*
D03*
Y40986D02*
D03*
Y40646D02*
D03*
Y40306D02*
D03*
Y39966D02*
D03*
Y39626D02*
D03*
Y39286D02*
D03*
Y38946D02*
D03*
Y38606D02*
D03*
Y38266D02*
D03*
Y37926D02*
D03*
Y37586D02*
D03*
X46419Y37266D02*
D03*
X46179Y37025D02*
D03*
X45939Y36785D02*
D03*
X45698Y36545D02*
D03*
X45458Y36304D02*
D03*
X45217Y36064D02*
D03*
X44977Y35823D02*
D03*
X44736Y35583D02*
D03*
X44496Y35342D02*
D03*
X44256Y35102D02*
D03*
X44015Y34862D02*
D03*
X43775Y34621D02*
D03*
X43534Y34381D02*
D03*
X43243Y34206D02*
D03*
X42903D02*
D03*
X42563D02*
D03*
X42223D02*
D03*
X41883D02*
D03*
X41543D02*
D03*
X41203D02*
D03*
X40863D02*
D03*
X40523D02*
D03*
X40183D02*
D03*
X39843D02*
D03*
X39503D02*
D03*
X39163D02*
D03*
X38823D02*
D03*
X38483D02*
D03*
X38143D02*
D03*
X37803D02*
D03*
X37463D02*
D03*
X37123D02*
D03*
X36783D02*
D03*
X36443D02*
D03*
X36105Y34239D02*
D03*
X35888Y34501D02*
D03*
X36135Y34734D02*
D03*
X36475D02*
D03*
X36815D02*
D03*
X37155D02*
D03*
X37495D02*
D03*
X37835D02*
D03*
X38175D02*
D03*
X38515D02*
D03*
X38844Y34820D02*
D03*
X39086Y35059D02*
D03*
X39326Y35300D02*
D03*
X39567Y35540D02*
D03*
X39807Y35781D02*
D03*
X40047Y36021D02*
D03*
X40288Y36261D02*
D03*
X40528Y36502D02*
D03*
X40769Y36742D02*
D03*
X41009Y36983D02*
D03*
X41249Y37223D02*
D03*
X41490Y37464D02*
D03*
X41730Y37704D02*
D03*
X41971Y37944D02*
D03*
X42211Y38185D02*
D03*
X42452Y38425D02*
D03*
X42692Y38666D02*
D03*
X42932Y38906D02*
D03*
X43173Y39146D02*
D03*
X43413Y39387D02*
D03*
X43654Y39627D02*
D03*
X43894Y39868D02*
D03*
X44134Y40108D02*
D03*
X44375Y40349D02*
D03*
X44615Y40589D02*
D03*
X44856Y40829D02*
D03*
X45096Y41070D02*
D03*
X45337Y41310D02*
D03*
X45577Y41551D02*
D03*
X45817Y41791D02*
D03*
X46058Y42031D02*
D03*
X46298Y42272D02*
D03*
X46539Y42512D02*
D03*
X46779Y42753D02*
D03*
X47019Y42993D02*
D03*
X47260Y43234D02*
D03*
X47500Y43474D02*
D03*
X47741Y43714D02*
D03*
X47981Y43955D02*
D03*
X48222Y44195D02*
D03*
X48462Y44436D02*
D03*
X48702Y44676D02*
D03*
X48943Y44916D02*
D03*
X49183Y45157D02*
D03*
X49424Y45397D02*
D03*
X49664Y45638D02*
D03*
X49904Y45878D02*
D03*
X50145Y46119D02*
D03*
X50385Y46359D02*
D03*
X50626Y46599D02*
D03*
X50962Y46651D02*
D03*
X51302D02*
D03*
X51642D02*
D03*
X51981Y46675D02*
D03*
X52275Y46846D02*
D03*
X52325Y47182D02*
D03*
X52266Y47517D02*
D03*
Y47857D02*
D03*
X52565Y48018D02*
D03*
X52905D02*
D03*
X53245D02*
D03*
X53925Y48018D02*
D03*
X54945D02*
D03*
X55965Y48018D02*
D03*
X56305D02*
D03*
X56645D02*
D03*
X57673Y48442D02*
D03*
X57653Y48782D02*
D03*
X55660Y48905D02*
D03*
X55320D02*
D03*
X54980D02*
D03*
X54640D02*
D03*
X54300D02*
D03*
X53960D02*
D03*
X53620D02*
D03*
X53280D02*
D03*
X52940D02*
D03*
X52600D02*
D03*
X52266Y48966D02*
D03*
Y49306D02*
D03*
X52292Y49645D02*
D03*
X52532Y49886D02*
D03*
X52773Y50126D02*
D03*
X53013Y50367D02*
D03*
X53253Y50607D02*
D03*
X53494Y50848D02*
D03*
X53830Y50901D02*
D03*
X54850D02*
D03*
X55870D02*
D03*
X56203Y50833D02*
D03*
X56536Y50901D02*
D03*
X57550Y50900D02*
D03*
X57676Y51215D02*
D03*
X56537Y51532D02*
D03*
X55871D02*
D03*
X57575Y51687D02*
D03*
X57676Y52011D02*
D03*
X56419Y52555D02*
D03*
X56079D02*
D03*
X55739D02*
D03*
X55399D02*
D03*
X55059D02*
D03*
X54719D02*
D03*
X54379D02*
D03*
X54039D02*
D03*
X53699D02*
D03*
X53359D02*
D03*
X53025Y52495D02*
D03*
X52780Y52259D02*
D03*
X52539Y52018D02*
D03*
X52299Y51778D02*
D03*
X52059Y51538D02*
D03*
X51818Y51297D02*
D03*
X51578Y51057D02*
D03*
X51337Y50816D02*
D03*
X51097Y50576D02*
D03*
X50858Y50334D02*
D03*
X50784Y50002D02*
D03*
Y49662D02*
D03*
X50747Y49324D02*
D03*
X50666Y48994D02*
D03*
X50354Y48858D02*
D03*
X50085Y48649D02*
D03*
X49747Y48615D02*
D03*
X49493Y48389D02*
D03*
X49253Y48149D02*
D03*
X49012Y47908D02*
D03*
X48772Y47668D02*
D03*
X48531Y47428D02*
D03*
X48291Y47187D02*
D03*
X48050Y46947D02*
D03*
X47810Y46706D02*
D03*
X47570Y46466D02*
D03*
X47329Y46226D02*
D03*
X47089Y45985D02*
D03*
X46848Y45745D02*
D03*
X46608Y45504D02*
D03*
X46368Y45264D02*
D03*
X46127Y45023D02*
D03*
X45887Y44783D02*
D03*
X45646Y44543D02*
D03*
X45406Y44302D02*
D03*
X45165Y44062D02*
D03*
X44925Y43821D02*
D03*
X44685Y43581D02*
D03*
X44444Y43341D02*
D03*
X44204Y43100D02*
D03*
X43963Y42860D02*
D03*
X43723Y42619D02*
D03*
X43483Y42379D02*
D03*
X43242Y42139D02*
D03*
X43002Y41898D02*
D03*
X42761Y41658D02*
D03*
X42521Y41417D02*
D03*
X42280Y41177D02*
D03*
X42040Y40936D02*
D03*
X41800Y40696D02*
D03*
X41559Y40456D02*
D03*
X41319Y40215D02*
D03*
X41078Y39975D02*
D03*
X40838Y39734D02*
D03*
X40598Y39494D02*
D03*
X40357Y39254D02*
D03*
X40117Y39013D02*
D03*
X39876Y38773D02*
D03*
X39636Y38532D02*
D03*
X39395Y38292D02*
D03*
X39155Y38051D02*
D03*
X38915Y37811D02*
D03*
X38674Y37571D02*
D03*
X38434Y37330D02*
D03*
X38193Y37090D02*
D03*
X37953Y36849D02*
D03*
X37640Y36716D02*
D03*
X37300D02*
D03*
X36960D02*
D03*
X35261Y36734D02*
D03*
X35601D02*
D03*
X35941D02*
D03*
X36281D02*
D03*
X36621Y36737D02*
D03*
X37151Y37155D02*
D03*
X37392Y37395D02*
D03*
X37632Y37636D02*
D03*
X37872Y37876D02*
D03*
X38113Y38116D02*
D03*
X38353Y38357D02*
D03*
X38594Y38597D02*
D03*
X38834Y38838D02*
D03*
X39074Y39078D02*
D03*
X39315Y39319D02*
D03*
X39555Y39559D02*
D03*
X39796Y39799D02*
D03*
X40036Y40040D02*
D03*
X40277Y40280D02*
D03*
X40517Y40521D02*
D03*
X40757Y40761D02*
D03*
X40998Y41001D02*
D03*
X41238Y41242D02*
D03*
X41479Y41482D02*
D03*
X41719Y41723D02*
D03*
X41960Y41963D02*
D03*
X42200Y42204D02*
D03*
X42440Y42444D02*
D03*
X42681Y42684D02*
D03*
X42921Y42925D02*
D03*
X43162Y43165D02*
D03*
X43402Y43406D02*
D03*
X43642Y43646D02*
D03*
X43883Y43886D02*
D03*
X44123Y44127D02*
D03*
X44364Y44367D02*
D03*
X44604Y44608D02*
D03*
X44844Y44848D02*
D03*
X45085Y45089D02*
D03*
X45325Y45329D02*
D03*
X45566Y45569D02*
D03*
X45806Y45810D02*
D03*
X46047Y46050D02*
D03*
X46287Y46291D02*
D03*
X46527Y46531D02*
D03*
X46768Y46771D02*
D03*
X47008Y47012D02*
D03*
X47249Y47252D02*
D03*
X47489Y47493D02*
D03*
X47729Y47733D02*
D03*
X47970Y47974D02*
D03*
X48210Y48214D02*
D03*
X48451Y48454D02*
D03*
X48691Y48695D02*
D03*
X48932Y48935D02*
D03*
X49172Y49176D02*
D03*
X49412Y49416D02*
D03*
X49653Y49656D02*
D03*
X49892Y49898D02*
D03*
X49977Y50227D02*
D03*
Y50567D02*
D03*
Y50907D02*
D03*
Y51247D02*
D03*
Y51587D02*
D03*
X50186Y51856D02*
D03*
X50426Y52096D02*
D03*
X50667Y52336D02*
D03*
X50907Y52577D02*
D03*
X51148Y52817D02*
D03*
X51388Y53058D02*
D03*
X51628Y53298D02*
D03*
X51869Y53539D02*
D03*
X52151Y53728D02*
D03*
X52339Y54012D02*
D03*
X52266Y54343D02*
D03*
Y54683D02*
D03*
X52325Y55018D02*
D03*
X52665D02*
D03*
X53005D02*
D03*
X53345D02*
D03*
X54705Y55018D02*
D03*
X55045D02*
D03*
X56065D02*
D03*
X56405D02*
D03*
X57676Y55548D02*
D03*
X57589Y55877D02*
D03*
X55560Y55905D02*
D03*
X55220D02*
D03*
X54880D02*
D03*
X54540D02*
D03*
X54200D02*
D03*
X53860D02*
D03*
X53520D02*
D03*
X53180D02*
D03*
X52840D02*
D03*
X52500D02*
D03*
X52266Y56152D02*
D03*
Y56492D02*
D03*
X52434Y56787D02*
D03*
X52674Y57028D02*
D03*
X52915Y57268D02*
D03*
X53155Y57509D02*
D03*
X53395Y57749D02*
D03*
X53700Y57901D02*
D03*
X54720D02*
D03*
X55060D02*
D03*
X56079Y57882D02*
D03*
X57673Y58104D02*
D03*
X56649Y58532D02*
D03*
X55986D02*
D03*
X57659Y58807D02*
D03*
X57675Y59146D02*
D03*
X56630Y59555D02*
D03*
X56290D02*
D03*
X55950D02*
D03*
X55610D02*
D03*
X55270D02*
D03*
X54930D02*
D03*
X54590D02*
D03*
X54250D02*
D03*
X53910D02*
D03*
X53570D02*
D03*
X53230D02*
D03*
X52925Y59404D02*
D03*
X52685Y59164D02*
D03*
X52444Y58923D02*
D03*
X52204Y58683D02*
D03*
X51964Y58443D02*
D03*
X51723Y58202D02*
D03*
X51483Y57962D02*
D03*
X51242Y57721D02*
D03*
X51002Y57481D02*
D03*
X50796Y57210D02*
D03*
X50784Y56870D02*
D03*
Y56530D02*
D03*
X50710Y56198D02*
D03*
X50475Y55952D02*
D03*
X50267Y55684D02*
D03*
X49942Y55583D02*
D03*
X49699Y55345D02*
D03*
X49459Y55105D02*
D03*
X49218Y54865D02*
D03*
X48978Y54624D02*
D03*
X48737Y54384D02*
D03*
X48497Y54143D02*
D03*
X48257Y53903D02*
D03*
X48018Y53661D02*
D03*
X47934Y53331D02*
D03*
Y52991D02*
D03*
Y52651D02*
D03*
Y52311D02*
D03*
Y51971D02*
D03*
Y51631D02*
D03*
Y51291D02*
D03*
X47726Y51023D02*
D03*
X47486Y50782D02*
D03*
X47245Y50542D02*
D03*
X47005Y50301D02*
D03*
X46765Y50061D02*
D03*
X46524Y49820D02*
D03*
X46284Y49580D02*
D03*
X46043Y49340D02*
D03*
X45803Y49099D02*
D03*
X45562Y48859D02*
D03*
X45322Y48618D02*
D03*
X45082Y48378D02*
D03*
X44841Y48138D02*
D03*
X44601Y47897D02*
D03*
X44360Y47657D02*
D03*
X44120Y47416D02*
D03*
X43880Y47176D02*
D03*
X43639Y46935D02*
D03*
X43399Y46695D02*
D03*
X43158Y46455D02*
D03*
X42918Y46214D02*
D03*
X42677Y45974D02*
D03*
X42437Y45733D02*
D03*
X42197Y45493D02*
D03*
X41956Y45253D02*
D03*
X41716Y45012D02*
D03*
X41475Y44772D02*
D03*
X41235Y44531D02*
D03*
X40995Y44291D02*
D03*
X40754Y44050D02*
D03*
X40514Y43810D02*
D03*
X40273Y43570D02*
D03*
X40033Y43329D02*
D03*
X39792Y43089D02*
D03*
X39552Y42848D02*
D03*
X39312Y42608D02*
D03*
X39071Y42368D02*
D03*
X38831Y42127D02*
D03*
X38590Y41887D02*
D03*
X38350Y41646D02*
D03*
X38110Y41406D02*
D03*
X37869Y41165D02*
D03*
X37629Y40925D02*
D03*
X37388Y40685D02*
D03*
X37148Y40444D02*
D03*
X36907Y40204D02*
D03*
X36667Y39963D02*
D03*
X36427Y39723D02*
D03*
X36186Y39483D02*
D03*
X35946Y39242D02*
D03*
X35705Y39002D02*
D03*
X35461Y38766D02*
D03*
X35121D02*
D03*
X31657Y36326D02*
D03*
X31851Y36605D02*
D03*
X32092Y36846D02*
D03*
X32332Y37086D02*
D03*
X32573Y37326D02*
D03*
X32813Y37567D02*
D03*
X33054Y37807D02*
D03*
X33294Y38048D02*
D03*
X33534Y38288D02*
D03*
X33775Y38528D02*
D03*
X34015Y38769D02*
D03*
X34355Y38784D02*
D03*
X34667Y38920D02*
D03*
X34907Y39161D02*
D03*
X35147Y39401D02*
D03*
X35388Y39641D02*
D03*
X35628Y39882D02*
D03*
X35869Y40122D02*
D03*
X36109Y40363D02*
D03*
X36349Y40603D02*
D03*
X36590Y40843D02*
D03*
X36830Y41084D02*
D03*
X37071Y41324D02*
D03*
X37311Y41565D02*
D03*
X37552Y41805D02*
D03*
X37792Y42046D02*
D03*
X38032Y42286D02*
D03*
X38273Y42526D02*
D03*
X38513Y42767D02*
D03*
X38754Y43007D02*
D03*
X38994Y43248D02*
D03*
X39234Y43488D02*
D03*
X39475Y43728D02*
D03*
X39715Y43969D02*
D03*
X39956Y44209D02*
D03*
X40196Y44450D02*
D03*
X40437Y44690D02*
D03*
X40677Y44931D02*
D03*
X40917Y45171D02*
D03*
X41158Y45411D02*
D03*
X41398Y45652D02*
D03*
X41639Y45892D02*
D03*
X41879Y46133D02*
D03*
X42119Y46373D02*
D03*
X42360Y46613D02*
D03*
X42600Y46854D02*
D03*
X42841Y47094D02*
D03*
X43081Y47335D02*
D03*
X43322Y47575D02*
D03*
X43562Y47816D02*
D03*
X43802Y48056D02*
D03*
X44043Y48296D02*
D03*
X44283Y48537D02*
D03*
X44524Y48777D02*
D03*
X44764Y49018D02*
D03*
X45004Y49258D02*
D03*
X45245Y49498D02*
D03*
X45485Y49739D02*
D03*
X45726Y49979D02*
D03*
X45966Y50220D02*
D03*
X46207Y50460D02*
D03*
X46447Y50701D02*
D03*
X46687Y50941D02*
D03*
X46928Y51181D02*
D03*
X47156Y51434D02*
D03*
X47196Y51771D02*
D03*
Y52111D02*
D03*
Y52451D02*
D03*
Y52791D02*
D03*
Y53131D02*
D03*
Y53471D02*
D03*
Y53811D02*
D03*
Y54151D02*
D03*
Y54491D02*
D03*
Y54831D02*
D03*
Y55171D02*
D03*
Y55511D02*
D03*
Y55851D02*
D03*
X47429Y56099D02*
D03*
X47669Y56339D02*
D03*
X47910Y56580D02*
D03*
X48150Y56820D02*
D03*
X48391Y57060D02*
D03*
X48631Y57301D02*
D03*
X48871Y57541D02*
D03*
X49112Y57782D02*
D03*
X49352Y58022D02*
D03*
X49593Y58262D02*
D03*
X49833Y58503D02*
D03*
X50074Y58743D02*
D03*
X50314Y58984D02*
D03*
X50554Y59224D02*
D03*
X50795Y59465D02*
D03*
X51035Y59705D02*
D03*
X51276Y59945D02*
D03*
X51516Y60186D02*
D03*
X51756Y60426D02*
D03*
X51997Y60667D02*
D03*
X52280Y60854D02*
D03*
X52323Y61192D02*
D03*
X52266Y61527D02*
D03*
Y61867D02*
D03*
X52570Y62018D02*
D03*
X52910D02*
D03*
X53250D02*
D03*
X54950Y62018D02*
D03*
X55970D02*
D03*
X56310D02*
D03*
X56650D02*
D03*
X57673Y62447D02*
D03*
X57651Y62786D02*
D03*
X55656Y62905D02*
D03*
X55316D02*
D03*
X54976D02*
D03*
X54636D02*
D03*
X54296D02*
D03*
X53956D02*
D03*
X53616D02*
D03*
X53276D02*
D03*
X52936D02*
D03*
X52596D02*
D03*
X52266Y62986D02*
D03*
Y63326D02*
D03*
X52310Y63664D02*
D03*
X52550Y63904D02*
D03*
X52791Y64144D02*
D03*
X53031Y64385D02*
D03*
X53272Y64625D02*
D03*
X53512Y64866D02*
D03*
X53850Y64901D02*
D03*
X54870D02*
D03*
X55890D02*
D03*
X56223Y64829D02*
D03*
X56555Y64901D02*
D03*
X57567Y64913D02*
D03*
X57676Y65235D02*
D03*
X56518Y65533D02*
D03*
X55850Y65532D02*
D03*
X57545Y65664D02*
D03*
X57676Y65978D02*
D03*
Y66318D02*
D03*
X59246Y67237D02*
D03*
X58906Y67232D02*
D03*
X58626Y67039D02*
D03*
X58439Y66755D02*
D03*
X58676Y66155D02*
D03*
X58829Y65851D02*
D03*
X58669Y65550D02*
D03*
X58633Y64034D02*
D03*
X61277Y63801D02*
D03*
X61612Y63744D02*
D03*
X61934Y63636D02*
D03*
X61728Y63366D02*
D03*
X61391Y63405D02*
D03*
X61078Y63272D02*
D03*
X60750Y63184D02*
D03*
X60509Y63424D02*
D03*
X60261Y63657D02*
D03*
X59924Y63702D02*
D03*
X59584D02*
D03*
X59244D02*
D03*
X58904D02*
D03*
X58602Y63546D02*
D03*
X58729Y62385D02*
D03*
X59956Y62472D02*
D03*
X60175Y62732D02*
D03*
X60415Y62492D02*
D03*
X60718Y62337D02*
D03*
X61044Y62239D02*
D03*
X61857Y62246D02*
D03*
X62133Y62446D02*
D03*
X62373Y62686D02*
D03*
X62691Y62927D02*
D03*
Y62587D02*
D03*
X62615Y62255D02*
D03*
X62374Y62015D02*
D03*
X62134Y61775D02*
D03*
X61795Y61806D02*
D03*
X61470Y61905D02*
D03*
X61137Y61839D02*
D03*
X60938Y61563D02*
D03*
X60598D02*
D03*
X60289Y61422D02*
D03*
X59959Y61338D02*
D03*
X58818Y61530D02*
D03*
X58381Y61025D02*
D03*
X58406Y60686D02*
D03*
X58626Y60039D02*
D03*
X58439Y59755D02*
D03*
X58676Y59155D02*
D03*
X58829Y58851D02*
D03*
X58669Y58550D02*
D03*
X58633Y57034D02*
D03*
X61277Y56801D02*
D03*
X61612Y56744D02*
D03*
X61934Y56636D02*
D03*
X61728Y56365D02*
D03*
X61391Y56405D02*
D03*
X61078Y56272D02*
D03*
X60750Y56184D02*
D03*
X60509Y56424D02*
D03*
X60261Y56657D02*
D03*
X59924Y56702D02*
D03*
X59584D02*
D03*
X59244D02*
D03*
X58904D02*
D03*
X58602Y56546D02*
D03*
X58729Y55385D02*
D03*
X59956Y55472D02*
D03*
X60175Y55732D02*
D03*
X60415Y55492D02*
D03*
X60718Y55337D02*
D03*
X61044Y55239D02*
D03*
X61857Y55246D02*
D03*
X62133Y55446D02*
D03*
X62373Y55686D02*
D03*
X62691Y55927D02*
D03*
Y55587D02*
D03*
X62615Y55255D02*
D03*
X62374Y55015D02*
D03*
X62134Y54774D02*
D03*
X61795Y54806D02*
D03*
X61470Y54905D02*
D03*
X61137Y54839D02*
D03*
X60938Y54563D02*
D03*
X60598D02*
D03*
X60289Y54422D02*
D03*
X59959Y54338D02*
D03*
X58818Y54530D02*
D03*
X58381Y54025D02*
D03*
X58406Y53686D02*
D03*
X58626Y53039D02*
D03*
X58439Y52755D02*
D03*
X58676Y52155D02*
D03*
X58829Y51851D02*
D03*
X58669Y51550D02*
D03*
X58633Y50034D02*
D03*
X61277Y49801D02*
D03*
X61612Y49744D02*
D03*
X61934Y49636D02*
D03*
X61728Y49366D02*
D03*
X61391Y49405D02*
D03*
X61078Y49272D02*
D03*
X60750Y49184D02*
D03*
X60509Y49424D02*
D03*
X60261Y49657D02*
D03*
X59924Y49702D02*
D03*
X59584D02*
D03*
X59244D02*
D03*
X58904D02*
D03*
X58602Y49546D02*
D03*
X58729Y48385D02*
D03*
X59956Y48472D02*
D03*
X60175Y48732D02*
D03*
X60415Y48492D02*
D03*
X60718Y48337D02*
D03*
X61044Y48239D02*
D03*
X61857Y48246D02*
D03*
X62133Y48446D02*
D03*
X62373Y48686D02*
D03*
X62691Y48927D02*
D03*
Y48587D02*
D03*
X62615Y48255D02*
D03*
X62374Y48015D02*
D03*
X62134Y47775D02*
D03*
X61795Y47806D02*
D03*
X61470Y47905D02*
D03*
X61137Y47839D02*
D03*
X60938Y47563D02*
D03*
X60598D02*
D03*
X60289Y47422D02*
D03*
X59959Y47338D02*
D03*
X58818Y47530D02*
D03*
X58381Y47025D02*
D03*
X58406Y46686D02*
D03*
X58626Y46039D02*
D03*
X58439Y45755D02*
D03*
X58676Y45155D02*
D03*
X58829Y44851D02*
D03*
X58669Y44550D02*
D03*
X58633Y43034D02*
D03*
X61277Y42801D02*
D03*
X61612Y42744D02*
D03*
X61934Y42636D02*
D03*
X61728Y42365D02*
D03*
X61391Y42405D02*
D03*
X61078Y42272D02*
D03*
X60750Y42184D02*
D03*
X60509Y42424D02*
D03*
X60261Y42657D02*
D03*
X59924Y42702D02*
D03*
X59584D02*
D03*
X59244D02*
D03*
X58904D02*
D03*
X58602Y42546D02*
D03*
X58729Y41385D02*
D03*
X59956Y41472D02*
D03*
X60175Y41732D02*
D03*
X60415Y41492D02*
D03*
X60718Y41337D02*
D03*
X61044Y41239D02*
D03*
X61857Y41246D02*
D03*
X62133Y41446D02*
D03*
X62373Y41686D02*
D03*
X62691Y41927D02*
D03*
Y41587D02*
D03*
X62615Y41255D02*
D03*
X62374Y41015D02*
D03*
X62134Y40774D02*
D03*
X61795Y40806D02*
D03*
X61470Y40905D02*
D03*
X61137Y40839D02*
D03*
X60938Y40563D02*
D03*
X60598D02*
D03*
X60289Y40422D02*
D03*
X59959Y40338D02*
D03*
X58818Y40530D02*
D03*
X58381Y40025D02*
D03*
X58406Y39686D02*
D03*
X58626Y39039D02*
D03*
X58439Y38755D02*
D03*
X58676Y38155D02*
D03*
X58829Y37851D02*
D03*
X58669Y37550D02*
D03*
X58633Y36034D02*
D03*
X61277Y35801D02*
D03*
X61612Y35744D02*
D03*
X61934Y35636D02*
D03*
X61728Y35366D02*
D03*
X61391Y35405D02*
D03*
X61078Y35272D02*
D03*
X60750Y35184D02*
D03*
X60509Y35424D02*
D03*
X60261Y35657D02*
D03*
X59924Y35702D02*
D03*
X59584D02*
D03*
X59244D02*
D03*
X58904D02*
D03*
X58602Y35546D02*
D03*
X58729Y34385D02*
D03*
X59956Y34472D02*
D03*
X60175Y34732D02*
D03*
X60415Y34492D02*
D03*
X60718Y34337D02*
D03*
X61044Y34239D02*
D03*
X61857Y34246D02*
D03*
X62133Y34446D02*
D03*
X62373Y34686D02*
D03*
X62691Y34927D02*
D03*
Y34587D02*
D03*
X62615Y34255D02*
D03*
X62374Y34015D02*
D03*
X62134Y33774D02*
D03*
X61795Y33806D02*
D03*
X61470Y33905D02*
D03*
X61137Y33839D02*
D03*
X60938Y33563D02*
D03*
X60598D02*
D03*
X60289Y33422D02*
D03*
X59959Y33338D02*
D03*
X58818Y33530D02*
D03*
X58381Y33025D02*
D03*
X58406Y32686D02*
D03*
X58626Y32039D02*
D03*
X58439Y31755D02*
D03*
X58676Y31155D02*
D03*
X58829Y30851D02*
D03*
X58669Y30550D02*
D03*
X58633Y29034D02*
D03*
X61277Y28801D02*
D03*
X61612Y28744D02*
D03*
X61934Y28636D02*
D03*
X61728Y28365D02*
D03*
X61391Y28405D02*
D03*
X61078Y28272D02*
D03*
X60750Y28184D02*
D03*
X60509Y28424D02*
D03*
X60261Y28657D02*
D03*
X59924Y28702D02*
D03*
X59584D02*
D03*
X59244D02*
D03*
X58904D02*
D03*
X58602Y28546D02*
D03*
X58729Y27385D02*
D03*
X59956Y27472D02*
D03*
X60175Y27732D02*
D03*
X60415Y27492D02*
D03*
X60718Y27337D02*
D03*
X61044Y27239D02*
D03*
X61857Y27246D02*
D03*
X62133Y27446D02*
D03*
X62373Y27686D02*
D03*
X62691Y27927D02*
D03*
Y27587D02*
D03*
X62615Y27255D02*
D03*
X62374Y27015D02*
D03*
X62134Y26774D02*
D03*
X61795Y26806D02*
D03*
X61470Y26905D02*
D03*
X61137Y26839D02*
D03*
X60938Y26563D02*
D03*
X60598D02*
D03*
X60289Y26422D02*
D03*
X59959Y26338D02*
D03*
X58818Y26530D02*
D03*
X58381Y26025D02*
D03*
X58406Y25686D02*
D03*
X58626Y25039D02*
D03*
X58439Y24755D02*
D03*
X58676Y24155D02*
D03*
X58829Y23851D02*
D03*
X58669Y23550D02*
D03*
X58633Y22034D02*
D03*
X61277Y21801D02*
D03*
X61612Y21744D02*
D03*
X61934Y21636D02*
D03*
X61728Y21365D02*
D03*
X61391Y21405D02*
D03*
X61078Y21272D02*
D03*
X60750Y21184D02*
D03*
X60509Y21424D02*
D03*
X60261Y21657D02*
D03*
X59924Y21702D02*
D03*
X59584D02*
D03*
X59244D02*
D03*
X58904D02*
D03*
X58602Y21546D02*
D03*
X58729Y20385D02*
D03*
X59956Y20472D02*
D03*
X60175Y20732D02*
D03*
X60415Y20492D02*
D03*
X60718Y20337D02*
D03*
X61044Y20239D02*
D03*
X61857Y20246D02*
D03*
X62133Y20446D02*
D03*
X62373Y20686D02*
D03*
X62691Y20927D02*
D03*
Y20587D02*
D03*
X62615Y20255D02*
D03*
X62374Y20015D02*
D03*
X62134Y19775D02*
D03*
X61795Y19806D02*
D03*
X61470Y19905D02*
D03*
X61137Y19839D02*
D03*
X60938Y19563D02*
D03*
X60598D02*
D03*
X60289Y19422D02*
D03*
X59959Y19338D02*
D03*
X58818Y19530D02*
D03*
X58381Y19025D02*
D03*
X58406Y18686D02*
D03*
X58626Y18039D02*
D03*
X58439Y17755D02*
D03*
X58676Y17155D02*
D03*
X58829Y16851D02*
D03*
X58669Y16550D02*
D03*
X58633Y15034D02*
D03*
X61277Y14801D02*
D03*
X61612Y14744D02*
D03*
X61934Y14636D02*
D03*
X61728Y14366D02*
D03*
X61390Y14405D02*
D03*
X61078Y14271D02*
D03*
X60749Y14185D02*
D03*
X60508Y14425D02*
D03*
X60260Y14657D02*
D03*
X59923Y14702D02*
D03*
X59583D02*
D03*
X59243D02*
D03*
X58903D02*
D03*
X58601Y14545D02*
D03*
X58730Y13385D02*
D03*
X59956Y13474D02*
D03*
X60164Y13742D02*
D03*
X60405Y13502D02*
D03*
X60702Y13337D02*
D03*
X61040Y13297D02*
D03*
X61224Y13011D02*
D03*
X61846Y13184D02*
D03*
X62097Y13413D02*
D03*
X62339Y13652D02*
D03*
X62691Y14222D02*
D03*
Y13882D02*
D03*
Y13542D02*
D03*
X62580Y13221D02*
D03*
X62340Y12980D02*
D03*
X62099Y12740D02*
D03*
X61772Y12832D02*
D03*
X61440Y12905D02*
D03*
X61112Y12816D02*
D03*
X60885Y12563D02*
D03*
X60545Y12561D02*
D03*
X60253Y12387D02*
D03*
X59959Y12217D02*
D03*
X59909Y12553D02*
D03*
X58917Y12602D02*
D03*
X58638Y12407D02*
D03*
X58381Y11814D02*
D03*
X58542Y11515D02*
D03*
X60634Y11740D02*
D03*
X60959Y11837D02*
D03*
X61147Y11553D02*
D03*
X61804Y11605D02*
D03*
X62052Y11837D02*
D03*
X62362Y11976D02*
D03*
X62602Y12216D02*
D03*
X62843Y12457D02*
D03*
X63083Y12697D02*
D03*
X63324Y12938D02*
D03*
X63417Y13265D02*
D03*
Y13605D02*
D03*
Y13945D02*
D03*
X63782Y14801D02*
D03*
X65110Y14865D02*
D03*
X65151Y15202D02*
D03*
X65053Y15528D02*
D03*
X65151Y16647D02*
D03*
X65134Y16987D02*
D03*
X63875Y17404D02*
D03*
X63592Y17593D02*
D03*
X63252Y17596D02*
D03*
X60566Y17744D02*
D03*
X60326Y17985D02*
D03*
X60634Y18740D02*
D03*
X60959Y18837D02*
D03*
X61147Y18553D02*
D03*
X61804Y18605D02*
D03*
X62052Y18837D02*
D03*
X62362Y18976D02*
D03*
X62602Y19216D02*
D03*
X62843Y19457D02*
D03*
X63083Y19697D02*
D03*
X63324Y19938D02*
D03*
X63417Y20265D02*
D03*
Y20605D02*
D03*
Y20945D02*
D03*
X63782Y21801D02*
D03*
X65110Y21865D02*
D03*
X65151Y22202D02*
D03*
X65053Y22528D02*
D03*
X65151Y23647D02*
D03*
X65134Y23987D02*
D03*
X63875Y24404D02*
D03*
X63592Y24593D02*
D03*
X63252Y24596D02*
D03*
X60566Y24744D02*
D03*
X60326Y24985D02*
D03*
X60634Y25740D02*
D03*
X60959Y25837D02*
D03*
X61147Y25553D02*
D03*
X61804Y25605D02*
D03*
X62052Y25837D02*
D03*
X62362Y25976D02*
D03*
X62602Y26216D02*
D03*
X62843Y26457D02*
D03*
X63083Y26697D02*
D03*
X63324Y26938D02*
D03*
X63417Y27265D02*
D03*
Y27605D02*
D03*
Y27945D02*
D03*
X63782Y28801D02*
D03*
X65110Y28865D02*
D03*
X65151Y29202D02*
D03*
X65053Y29528D02*
D03*
X65151Y30647D02*
D03*
X65134Y30987D02*
D03*
X63875Y31404D02*
D03*
X63592Y31593D02*
D03*
X63252Y31596D02*
D03*
X60566Y31744D02*
D03*
X60326Y31985D02*
D03*
X60634Y32740D02*
D03*
X60959Y32837D02*
D03*
X61147Y32553D02*
D03*
X61804Y32605D02*
D03*
X62052Y32837D02*
D03*
X62362Y32976D02*
D03*
X62602Y33216D02*
D03*
X62843Y33457D02*
D03*
X63083Y33697D02*
D03*
X63324Y33938D02*
D03*
X63417Y34265D02*
D03*
Y34605D02*
D03*
Y34945D02*
D03*
X63782Y35801D02*
D03*
X65110Y35865D02*
D03*
X65151Y36202D02*
D03*
X65053Y36528D02*
D03*
X65151Y37647D02*
D03*
X65134Y37987D02*
D03*
X63875Y38404D02*
D03*
X63592Y38593D02*
D03*
X63252Y38596D02*
D03*
X60566Y38744D02*
D03*
X60326Y38985D02*
D03*
X60633Y39740D02*
D03*
X60959Y39837D02*
D03*
X61147Y39553D02*
D03*
X61804Y39605D02*
D03*
X62052Y39837D02*
D03*
X62362Y39976D02*
D03*
X62602Y40216D02*
D03*
X62843Y40457D02*
D03*
X63083Y40697D02*
D03*
X63324Y40938D02*
D03*
X63417Y41265D02*
D03*
Y41605D02*
D03*
Y41945D02*
D03*
X63782Y42801D02*
D03*
X65110Y42865D02*
D03*
X65151Y43202D02*
D03*
X65053Y43528D02*
D03*
X65151Y44647D02*
D03*
X65134Y44987D02*
D03*
X63875Y45404D02*
D03*
X63592Y45593D02*
D03*
X63252Y45596D02*
D03*
X60566Y45745D02*
D03*
X60326Y45985D02*
D03*
X60633Y46740D02*
D03*
X60959Y46837D02*
D03*
X61147Y46553D02*
D03*
X61803Y46604D02*
D03*
X62052Y46837D02*
D03*
X62362Y46976D02*
D03*
X62602Y47216D02*
D03*
X62843Y47457D02*
D03*
X63083Y47697D02*
D03*
X63324Y47937D02*
D03*
X63417Y48264D02*
D03*
Y48604D02*
D03*
Y48944D02*
D03*
X63782Y49801D02*
D03*
X65110Y49865D02*
D03*
X65151Y50202D02*
D03*
X65054Y50528D02*
D03*
X65151Y51647D02*
D03*
X65133Y51987D02*
D03*
X63875Y52404D02*
D03*
X63592Y52593D02*
D03*
X63252Y52596D02*
D03*
X60566Y52745D02*
D03*
X60326Y52985D02*
D03*
X60633Y53739D02*
D03*
X60958Y53837D02*
D03*
X61146Y53554D02*
D03*
X61803Y53604D02*
D03*
X62051Y53837D02*
D03*
X62361Y53975D02*
D03*
X62602Y54216D02*
D03*
X62842Y54456D02*
D03*
X63083Y54696D02*
D03*
X63323Y54937D02*
D03*
X63417Y55264D02*
D03*
Y55604D02*
D03*
Y55944D02*
D03*
X63781Y56801D02*
D03*
X65109Y56864D02*
D03*
X65151Y57201D02*
D03*
X65054Y57527D02*
D03*
X65151Y58649D02*
D03*
X65133Y58989D02*
D03*
X63873Y59406D02*
D03*
X63590Y59593D02*
D03*
X63250Y59596D02*
D03*
X60565Y59746D02*
D03*
X60324Y59987D02*
D03*
X60618Y60725D02*
D03*
X60939Y60837D02*
D03*
X61137Y60561D02*
D03*
X61796Y60595D02*
D03*
X62034Y60837D02*
D03*
X62350Y60964D02*
D03*
X62590Y61204D02*
D03*
X62831Y61445D02*
D03*
X63071Y61685D02*
D03*
X63311Y61925D02*
D03*
X63417Y62249D02*
D03*
Y62589D02*
D03*
Y62929D02*
D03*
X63760Y63801D02*
D03*
X65095Y63845D02*
D03*
X65148Y64181D02*
D03*
X65073Y64513D02*
D03*
X65081Y65402D02*
D03*
X65146Y65735D02*
D03*
X65086Y66070D02*
D03*
X63816Y66463D02*
D03*
X63503Y66596D02*
D03*
X60511Y66800D02*
D03*
X60271Y67040D02*
D03*
X59991Y67233D02*
D03*
X59659Y67307D02*
D03*
X65677Y16247D02*
D03*
Y23247D02*
D03*
Y30247D02*
D03*
Y37247D02*
D03*
Y44247D02*
D03*
Y51247D02*
D03*
Y58247D02*
D03*
Y65247D02*
D03*
X57805Y65472D02*
D03*
Y62078D02*
D03*
Y58472D02*
D03*
Y55078D02*
D03*
Y51472D02*
D03*
Y48078D02*
D03*
Y44472D02*
D03*
Y41078D02*
D03*
Y37472D02*
D03*
Y34078D02*
D03*
Y30472D02*
D03*
Y27078D02*
D03*
Y16472D02*
D03*
Y13078D02*
D03*
X64400Y15254D02*
D03*
Y15074D02*
D03*
Y16829D02*
D03*
X63667Y16140D02*
D03*
Y15960D02*
D03*
X59650Y17784D02*
D03*
Y17964D02*
D03*
X62200Y15960D02*
D03*
Y16140D02*
D03*
X61700Y15074D02*
D03*
Y15254D02*
D03*
X64400Y16649D02*
D03*
X62700Y14450D02*
D03*
X63452D02*
D03*
X58148Y14869D02*
D03*
X64400Y15755D02*
D03*
X58148Y35869D02*
D03*
X64400Y64254D02*
D03*
Y64074D02*
D03*
Y65829D02*
D03*
X63667Y65140D02*
D03*
Y64960D02*
D03*
X59650Y66784D02*
D03*
Y66964D02*
D03*
X62200Y64960D02*
D03*
Y65140D02*
D03*
X61700Y64074D02*
D03*
Y64254D02*
D03*
X64400Y65649D02*
D03*
X62700Y63450D02*
D03*
X63452D02*
D03*
X58148Y63869D02*
D03*
X64400Y64755D02*
D03*
Y57254D02*
D03*
Y57074D02*
D03*
Y58829D02*
D03*
X63667Y58140D02*
D03*
Y57960D02*
D03*
X59650Y59784D02*
D03*
Y59964D02*
D03*
X62200Y57960D02*
D03*
Y58140D02*
D03*
X61700Y57074D02*
D03*
Y57254D02*
D03*
X64400Y58649D02*
D03*
X62700Y56450D02*
D03*
X63452D02*
D03*
X58148Y56869D02*
D03*
X64400Y57755D02*
D03*
Y50254D02*
D03*
Y50074D02*
D03*
Y51829D02*
D03*
X63667Y51140D02*
D03*
Y50960D02*
D03*
X59650Y52784D02*
D03*
Y52964D02*
D03*
X62200Y50960D02*
D03*
Y51140D02*
D03*
X61700Y50074D02*
D03*
Y50254D02*
D03*
X64400Y51649D02*
D03*
X62700Y49450D02*
D03*
X63452D02*
D03*
X58148Y49869D02*
D03*
X64400Y50755D02*
D03*
Y43254D02*
D03*
Y43074D02*
D03*
Y44829D02*
D03*
X63667Y44140D02*
D03*
Y43960D02*
D03*
X59650Y45784D02*
D03*
Y45964D02*
D03*
X62200Y43960D02*
D03*
Y44140D02*
D03*
X61700Y43074D02*
D03*
Y43254D02*
D03*
X64400Y44649D02*
D03*
X62700Y42450D02*
D03*
X63452D02*
D03*
X58148Y42869D02*
D03*
X64400Y43755D02*
D03*
Y36254D02*
D03*
Y36074D02*
D03*
Y37829D02*
D03*
X63667Y37140D02*
D03*
Y36960D02*
D03*
X59650Y38784D02*
D03*
Y38964D02*
D03*
X62200Y36960D02*
D03*
Y37140D02*
D03*
X61700Y36074D02*
D03*
Y36254D02*
D03*
X64400Y37649D02*
D03*
X62700Y35450D02*
D03*
X63452D02*
D03*
X64400Y36755D02*
D03*
Y29254D02*
D03*
Y29074D02*
D03*
Y30829D02*
D03*
X63667Y30140D02*
D03*
Y29960D02*
D03*
X59650Y31784D02*
D03*
Y31964D02*
D03*
X62200Y29960D02*
D03*
Y30140D02*
D03*
X61700Y29074D02*
D03*
Y29254D02*
D03*
X64400Y30649D02*
D03*
X62700Y28450D02*
D03*
X63452D02*
D03*
X58148Y28869D02*
D03*
X64400Y29755D02*
D03*
X57805Y20078D02*
D03*
X64400Y22755D02*
D03*
X58148Y21869D02*
D03*
X57805Y23472D02*
D03*
X63452Y21450D02*
D03*
X62700D02*
D03*
X64400Y23649D02*
D03*
X61700Y22254D02*
D03*
Y22074D02*
D03*
X62200Y23140D02*
D03*
Y22960D02*
D03*
X59650Y24964D02*
D03*
Y24784D02*
D03*
X63667Y22960D02*
D03*
Y23140D02*
D03*
X64400Y23829D02*
D03*
Y22074D02*
D03*
Y22254D02*
D03*
D63*
X15250Y67100D02*
D03*
X16750D02*
D03*
X18250D02*
D03*
X23467Y35062D02*
D03*
X25357D02*
D03*
X35751Y32262D02*
D03*
X31971D02*
D03*
X28822Y32632D02*
D03*
X25357Y32262D02*
D03*
X31971Y51150D02*
D03*
X23467Y48010D02*
D03*
X28822Y50810D02*
D03*
X35751Y46429D02*
D03*
X25357Y48380D02*
D03*
X61400Y70893D02*
D03*
X57463D02*
D03*
X53526D02*
D03*
X51557Y66956D02*
D03*
Y59082D02*
D03*
X49589Y70893D02*
D03*
X47620Y66956D02*
D03*
X49589Y39396D02*
D03*
X47620Y19711D02*
D03*
X45652Y70893D02*
D03*
X43683Y66956D02*
D03*
X45652Y63019D02*
D03*
X43683Y59082D02*
D03*
X45652Y39396D02*
D03*
X41715Y70893D02*
D03*
X39746Y66956D02*
D03*
X41715Y63019D02*
D03*
X39746Y59082D02*
D03*
X41715Y55145D02*
D03*
X39746Y51207D02*
D03*
Y11837D02*
D03*
X37778Y70893D02*
D03*
Y63019D02*
D03*
Y47270D02*
D03*
X35809Y11837D02*
D03*
X27935Y66956D02*
D03*
X25967Y70893D02*
D03*
X23998Y66956D02*
D03*
X25967Y63019D02*
D03*
X22030Y70893D02*
D03*
Y63019D02*
D03*
X18093Y47270D02*
D03*
X14156D02*
D03*
X12187Y43333D02*
D03*
Y35459D02*
D03*
Y27585D02*
D03*
X10219Y47270D02*
D03*
Y39396D02*
D03*
Y23648D02*
D03*
Y15774D02*
D03*
X45645Y14100D02*
D03*
X45400Y10560D02*
D03*
X64331Y12054D02*
D03*
X54300Y15461D02*
D03*
X55450Y15467D02*
D03*
X54300Y14800D02*
D03*
Y11627D02*
D03*
X55450D02*
D03*
X66850Y12357D02*
D03*
X54300Y22461D02*
D03*
X55450Y22467D02*
D03*
X54300Y21800D02*
D03*
Y18627D02*
D03*
X55450D02*
D03*
X64632Y18700D02*
D03*
X66850Y19357D02*
D03*
X54300Y29461D02*
D03*
X55450Y29467D02*
D03*
X54300Y28800D02*
D03*
Y25627D02*
D03*
X55450D02*
D03*
X64632Y25700D02*
D03*
X66850Y26357D02*
D03*
X54300Y36461D02*
D03*
X55450Y36467D02*
D03*
X54300Y35800D02*
D03*
Y32627D02*
D03*
X55450D02*
D03*
X64632Y32700D02*
D03*
X66850Y33357D02*
D03*
X54300Y43461D02*
D03*
X55450Y43467D02*
D03*
X54300Y42800D02*
D03*
Y39627D02*
D03*
X55450D02*
D03*
X64632Y39700D02*
D03*
X66850Y40357D02*
D03*
X54300Y50461D02*
D03*
X55450Y50467D02*
D03*
X54300Y49800D02*
D03*
Y46627D02*
D03*
X55450D02*
D03*
X64632Y46700D02*
D03*
X66850Y47357D02*
D03*
X54300Y57461D02*
D03*
X55450Y57467D02*
D03*
X54300Y56800D02*
D03*
Y53627D02*
D03*
X55450D02*
D03*
X64632Y53700D02*
D03*
X66850Y54357D02*
D03*
Y61357D02*
D03*
X64632Y60700D02*
D03*
X55450Y60627D02*
D03*
X54300D02*
D03*
Y63800D02*
D03*
X55450Y64467D02*
D03*
X54300Y64461D02*
D03*
X61000Y66535D02*
D03*
Y59535D02*
D03*
Y52535D02*
D03*
Y45535D02*
D03*
Y38535D02*
D03*
Y31535D02*
D03*
Y17535D02*
D03*
X43100Y12116D02*
D03*
X61000Y24535D02*
D03*
X51950Y20334D02*
D03*
X32000Y62800D02*
D03*
X32630D02*
D03*
X31650Y63550D02*
D03*
Y65106D02*
D03*
X42100Y17090D02*
D03*
X41400Y17700D02*
D03*
X40460Y18790D02*
D03*
X39740Y19830D02*
D03*
X39050D02*
D03*
X38357D02*
D03*
X37630D02*
D03*
X34189Y19827D02*
D03*
X36920Y19830D02*
D03*
X36190D02*
D03*
X34800D02*
D03*
X26617Y32262D02*
D03*
X35500Y19830D02*
D03*
X33560D02*
D03*
X32990D02*
D03*
X24412Y32632D02*
D03*
X25042D02*
D03*
X24727Y32262D02*
D03*
X28507D02*
D03*
X30711D02*
D03*
X32916D02*
D03*
X34806D02*
D03*
X34491Y34692D02*
D03*
X32601D02*
D03*
X31971D02*
D03*
X30396D02*
D03*
X29452D02*
D03*
X28822D02*
D03*
X29137Y35062D02*
D03*
X28192Y34692D02*
D03*
X28507Y35062D02*
D03*
X27562Y34692D02*
D03*
X27877Y35062D02*
D03*
X26932Y34692D02*
D03*
X27247Y35062D02*
D03*
X26302Y34692D02*
D03*
X26617Y35062D02*
D03*
X25672Y34692D02*
D03*
X25987Y35062D02*
D03*
X25042Y34692D02*
D03*
X24412D02*
D03*
X24727Y35062D02*
D03*
X23782Y34692D02*
D03*
X24097Y35062D02*
D03*
X28192Y48380D02*
D03*
X29452D02*
D03*
X34806Y48010D02*
D03*
X34176D02*
D03*
X33546D02*
D03*
X32916D02*
D03*
X32286D02*
D03*
X31656D02*
D03*
X31026D02*
D03*
X30396D02*
D03*
X29767D02*
D03*
X29137D02*
D03*
X28507D02*
D03*
X27877D02*
D03*
X27247D02*
D03*
X26617D02*
D03*
X25987D02*
D03*
X25042D02*
D03*
X24412D02*
D03*
X32286Y50810D02*
D03*
X28507Y51150D02*
D03*
X35436Y50810D02*
D03*
X34806D02*
D03*
X34176D02*
D03*
X33546D02*
D03*
X32916D02*
D03*
X31341D02*
D03*
X30711D02*
D03*
X30082D02*
D03*
X29452D02*
D03*
X27877D02*
D03*
X27247D02*
D03*
X26617D02*
D03*
X25987D02*
D03*
X51200Y38650D02*
D03*
X56285Y65216D02*
D03*
X51550Y63150D02*
D03*
X51100D02*
D03*
Y61566D02*
D03*
X51550Y61316D02*
D03*
X51950Y61066D02*
D03*
X50650Y61900D02*
D03*
Y62600D02*
D03*
X56285Y58216D02*
D03*
X51550Y56150D02*
D03*
X51100D02*
D03*
Y54566D02*
D03*
X51550Y54316D02*
D03*
X51950Y54066D02*
D03*
X50650Y54900D02*
D03*
Y55600D02*
D03*
Y48600D02*
D03*
Y47900D02*
D03*
X51950Y47066D02*
D03*
X51550Y47316D02*
D03*
X51100Y47566D02*
D03*
Y49150D02*
D03*
X51550D02*
D03*
X56285Y51216D02*
D03*
X51200Y24870D02*
D03*
X51950Y25170D02*
D03*
X53185Y23181D02*
D03*
X56285Y44216D02*
D03*
X53150D02*
D03*
X51950Y41334D02*
D03*
X51200Y41590D02*
D03*
Y45650D02*
D03*
X51950Y46050D02*
D03*
X56285Y37216D02*
D03*
X53150D02*
D03*
X51950Y34334D02*
D03*
X51200Y34590D02*
D03*
X51950Y39050D02*
D03*
X56285Y30216D02*
D03*
X53150D02*
D03*
X51950Y27334D02*
D03*
X51200Y27590D02*
D03*
Y31650D02*
D03*
X51950Y32050D02*
D03*
X56285Y23216D02*
D03*
X51200Y20590D02*
D03*
X51950Y18050D02*
D03*
X51200Y17650D02*
D03*
Y13590D02*
D03*
X51950Y13334D02*
D03*
X53150Y16216D02*
D03*
X56285D02*
D03*
D64*
X67166Y63282D02*
D03*
Y66818D02*
D03*
Y59818D02*
D03*
Y56282D02*
D03*
Y52818D02*
D03*
X64824Y63424D02*
D03*
Y66676D02*
D03*
Y59676D02*
D03*
Y56424D02*
D03*
Y52676D02*
D03*
X67166Y49282D02*
D03*
Y45818D02*
D03*
Y42282D02*
D03*
Y38818D02*
D03*
X64824Y49424D02*
D03*
Y42424D02*
D03*
Y38676D02*
D03*
Y45676D02*
D03*
X67166Y35282D02*
D03*
Y31818D02*
D03*
Y28282D02*
D03*
Y24818D02*
D03*
X64824Y35424D02*
D03*
Y28424D02*
D03*
Y24676D02*
D03*
Y31676D02*
D03*
X67166Y21282D02*
D03*
Y17818D02*
D03*
Y14282D02*
D03*
X64824Y21424D02*
D03*
Y17676D02*
D03*
Y14424D02*
D03*
M02*
