G04*
G04 #@! TF.GenerationSoftware,Altium Limited,Altium Designer,25.8.1 (18)*
G04*
G04 Layer_Color=8421504*
%FSLAX24Y24*%
%MOIN*%
G70*
G04*
G04 #@! TF.SameCoordinates,BFAA8418-FB48-4662-98FB-23DAB770C147*
G04*
G04*
G04 #@! TF.FilePolarity,Positive*
G04*
G01*
G75*
%ADD10R,0.0276X0.0354*%
%ADD11R,0.0866X0.1299*%
%ADD12R,0.0118X0.0472*%
%ADD15R,0.0591X0.0177*%
%ADD16R,0.0276X0.0118*%
%ADD17R,0.0413X0.0413*%
%ADD18R,0.0394X0.0413*%
%ADD19R,0.0180X0.0567*%
%ADD20R,0.0413X0.0394*%
%ADD21R,0.0413X0.0413*%
%ADD23R,0.0315X0.0315*%
%ADD24R,0.0433X0.0591*%
%ADD25R,0.0610X0.0591*%
D10*
X86080Y11134D02*
D03*
Y11646D02*
D03*
Y28134D02*
D03*
Y28646D02*
D03*
Y45234D02*
D03*
Y45746D02*
D03*
Y62234D02*
D03*
Y62746D02*
D03*
X61450Y62956D02*
D03*
Y62444D02*
D03*
Y55956D02*
D03*
Y55444D02*
D03*
Y48956D02*
D03*
Y48444D02*
D03*
Y41956D02*
D03*
Y41444D02*
D03*
Y34956D02*
D03*
Y34444D02*
D03*
Y27956D02*
D03*
Y27444D02*
D03*
Y20956D02*
D03*
Y20444D02*
D03*
Y13956D02*
D03*
Y13444D02*
D03*
Y60944D02*
D03*
Y61456D02*
D03*
Y53944D02*
D03*
Y54456D02*
D03*
Y46944D02*
D03*
Y47456D02*
D03*
Y39944D02*
D03*
Y40456D02*
D03*
Y32944D02*
D03*
Y33456D02*
D03*
Y25944D02*
D03*
Y26456D02*
D03*
Y18944D02*
D03*
Y19456D02*
D03*
Y11944D02*
D03*
Y12456D02*
D03*
D11*
X83135Y9826D02*
D03*
X74985D02*
D03*
X83135Y26826D02*
D03*
X74985D02*
D03*
X83135Y43926D02*
D03*
X74985D02*
D03*
X83135Y60926D02*
D03*
X74985D02*
D03*
D12*
X82505Y10681D02*
D03*
X82308D02*
D03*
X82111D02*
D03*
X81914D02*
D03*
X81717D02*
D03*
X81521D02*
D03*
X81324D02*
D03*
X81127D02*
D03*
X80930D02*
D03*
X80733D02*
D03*
X80536D02*
D03*
X80340D02*
D03*
X80143D02*
D03*
X79946D02*
D03*
X79749D02*
D03*
X79552D02*
D03*
X79355D02*
D03*
X79158D02*
D03*
X78962D02*
D03*
X78765D02*
D03*
X78568D02*
D03*
X78371D02*
D03*
X78174D02*
D03*
X77977D02*
D03*
X77780D02*
D03*
X77584D02*
D03*
X77387D02*
D03*
X77190D02*
D03*
X76993D02*
D03*
X76796D02*
D03*
X76599D02*
D03*
X76403D02*
D03*
X76206D02*
D03*
X76009D02*
D03*
X75812D02*
D03*
X75615D02*
D03*
X82505Y27681D02*
D03*
X82308D02*
D03*
X82111D02*
D03*
X81914D02*
D03*
X81717D02*
D03*
X81521D02*
D03*
X81324D02*
D03*
X81127D02*
D03*
X80930D02*
D03*
X80733D02*
D03*
X80536D02*
D03*
X80340D02*
D03*
X80143D02*
D03*
X79946D02*
D03*
X79749D02*
D03*
X79552D02*
D03*
X79355D02*
D03*
X79158D02*
D03*
X78962D02*
D03*
X78765D02*
D03*
X78568D02*
D03*
X78371D02*
D03*
X78174D02*
D03*
X77977D02*
D03*
X77780D02*
D03*
X77584D02*
D03*
X77387D02*
D03*
X77190D02*
D03*
X76993D02*
D03*
X76796D02*
D03*
X76599D02*
D03*
X76403D02*
D03*
X76206D02*
D03*
X76009D02*
D03*
X75812D02*
D03*
X75615D02*
D03*
X82505Y44781D02*
D03*
X82308D02*
D03*
X82111D02*
D03*
X81914D02*
D03*
X81717D02*
D03*
X81521D02*
D03*
X81324D02*
D03*
X81127D02*
D03*
X80930D02*
D03*
X80733D02*
D03*
X80536D02*
D03*
X80340D02*
D03*
X80143D02*
D03*
X79946D02*
D03*
X79749D02*
D03*
X79552D02*
D03*
X79355D02*
D03*
X79158D02*
D03*
X78962D02*
D03*
X78765D02*
D03*
X78568D02*
D03*
X78371D02*
D03*
X78174D02*
D03*
X77977D02*
D03*
X77780D02*
D03*
X77584D02*
D03*
X77387D02*
D03*
X77190D02*
D03*
X76993D02*
D03*
X76796D02*
D03*
X76599D02*
D03*
X76403D02*
D03*
X76206D02*
D03*
X76009D02*
D03*
X75812D02*
D03*
X75615D02*
D03*
X82505Y61781D02*
D03*
X82308D02*
D03*
X82111D02*
D03*
X81914D02*
D03*
X81717D02*
D03*
X81521D02*
D03*
X81324D02*
D03*
X81127D02*
D03*
X80930D02*
D03*
X80733D02*
D03*
X80536D02*
D03*
X80340D02*
D03*
X80143D02*
D03*
X79946D02*
D03*
X79749D02*
D03*
X79552D02*
D03*
X79355D02*
D03*
X79158D02*
D03*
X78962D02*
D03*
X78765D02*
D03*
X78568D02*
D03*
X78371D02*
D03*
X78174D02*
D03*
X77977D02*
D03*
X77780D02*
D03*
X77584D02*
D03*
X77387D02*
D03*
X77190D02*
D03*
X76993D02*
D03*
X76796D02*
D03*
X76599D02*
D03*
X76403D02*
D03*
X76206D02*
D03*
X76009D02*
D03*
X75812D02*
D03*
X75615D02*
D03*
D15*
X57108Y19054D02*
D03*
Y19310D02*
D03*
Y19566D02*
D03*
Y19822D02*
D03*
Y20078D02*
D03*
Y20334D02*
D03*
Y20590D02*
D03*
Y20846D02*
D03*
X59392D02*
D03*
Y20590D02*
D03*
Y20334D02*
D03*
Y20078D02*
D03*
Y19822D02*
D03*
Y19566D02*
D03*
Y19310D02*
D03*
Y19054D02*
D03*
X57108Y22704D02*
D03*
Y58728D02*
D03*
Y54822D02*
D03*
Y65728D02*
D03*
Y61822D02*
D03*
Y44728D02*
D03*
Y40822D02*
D03*
Y37728D02*
D03*
Y47822D02*
D03*
Y51728D02*
D03*
Y26822D02*
D03*
Y33822D02*
D03*
Y30728D02*
D03*
Y16728D02*
D03*
Y12822D02*
D03*
Y23728D02*
D03*
Y65472D02*
D03*
Y62078D02*
D03*
Y58472D02*
D03*
Y55078D02*
D03*
Y44472D02*
D03*
Y51472D02*
D03*
Y48078D02*
D03*
Y41078D02*
D03*
Y37472D02*
D03*
Y30472D02*
D03*
Y27078D02*
D03*
Y34078D02*
D03*
Y16472D02*
D03*
Y13078D02*
D03*
Y23472D02*
D03*
Y24496D02*
D03*
Y61054D02*
D03*
Y61310D02*
D03*
Y61566D02*
D03*
Y62334D02*
D03*
Y62590D02*
D03*
Y62846D02*
D03*
X59392D02*
D03*
Y62590D02*
D03*
Y62334D02*
D03*
Y62078D02*
D03*
Y61822D02*
D03*
Y61566D02*
D03*
Y61310D02*
D03*
Y61054D02*
D03*
X57108Y54054D02*
D03*
Y54310D02*
D03*
Y54566D02*
D03*
Y55334D02*
D03*
Y55590D02*
D03*
Y55846D02*
D03*
X59392D02*
D03*
Y55590D02*
D03*
Y55334D02*
D03*
Y55078D02*
D03*
Y54822D02*
D03*
Y54566D02*
D03*
Y54310D02*
D03*
Y54054D02*
D03*
X57108Y47054D02*
D03*
Y47310D02*
D03*
Y47566D02*
D03*
Y48334D02*
D03*
Y48590D02*
D03*
Y48846D02*
D03*
X59392D02*
D03*
Y48590D02*
D03*
Y48334D02*
D03*
Y48078D02*
D03*
Y47822D02*
D03*
Y47566D02*
D03*
Y47310D02*
D03*
Y47054D02*
D03*
X57108Y40054D02*
D03*
Y40310D02*
D03*
Y40566D02*
D03*
Y41334D02*
D03*
Y41590D02*
D03*
Y41846D02*
D03*
X59392D02*
D03*
Y41590D02*
D03*
Y41334D02*
D03*
Y41078D02*
D03*
Y40822D02*
D03*
Y40566D02*
D03*
Y40310D02*
D03*
Y40054D02*
D03*
X57108Y33054D02*
D03*
Y33310D02*
D03*
Y33566D02*
D03*
Y34334D02*
D03*
Y34590D02*
D03*
Y34846D02*
D03*
X59392D02*
D03*
Y34590D02*
D03*
Y34334D02*
D03*
Y34078D02*
D03*
Y33822D02*
D03*
Y33566D02*
D03*
Y33310D02*
D03*
Y33054D02*
D03*
X57108Y26054D02*
D03*
Y26310D02*
D03*
Y26566D02*
D03*
Y27334D02*
D03*
Y27590D02*
D03*
Y27846D02*
D03*
X59392D02*
D03*
Y27590D02*
D03*
Y27334D02*
D03*
Y27078D02*
D03*
Y26822D02*
D03*
Y26566D02*
D03*
Y26310D02*
D03*
Y26054D02*
D03*
X57108Y12054D02*
D03*
Y12310D02*
D03*
Y12566D02*
D03*
Y13334D02*
D03*
Y13590D02*
D03*
Y13846D02*
D03*
X59392D02*
D03*
Y13590D02*
D03*
Y13334D02*
D03*
Y13078D02*
D03*
Y12822D02*
D03*
Y12566D02*
D03*
Y12310D02*
D03*
Y12054D02*
D03*
Y66496D02*
D03*
Y66240D02*
D03*
Y65984D02*
D03*
Y65728D02*
D03*
Y65472D02*
D03*
Y65216D02*
D03*
Y64960D02*
D03*
Y64704D02*
D03*
X57108D02*
D03*
Y64960D02*
D03*
Y65216D02*
D03*
Y65984D02*
D03*
Y66240D02*
D03*
Y66496D02*
D03*
X59392Y59496D02*
D03*
Y59240D02*
D03*
Y58984D02*
D03*
Y58728D02*
D03*
Y58472D02*
D03*
Y58216D02*
D03*
Y57960D02*
D03*
Y57704D02*
D03*
X57108D02*
D03*
Y57960D02*
D03*
Y58216D02*
D03*
Y58984D02*
D03*
Y59240D02*
D03*
Y59496D02*
D03*
X59392Y52496D02*
D03*
Y52240D02*
D03*
Y51984D02*
D03*
Y51728D02*
D03*
Y51472D02*
D03*
Y51216D02*
D03*
Y50960D02*
D03*
Y50704D02*
D03*
X57108D02*
D03*
Y50960D02*
D03*
Y51216D02*
D03*
Y51984D02*
D03*
Y52240D02*
D03*
Y52496D02*
D03*
X59392Y45496D02*
D03*
Y45240D02*
D03*
Y44984D02*
D03*
Y44728D02*
D03*
Y44472D02*
D03*
Y44216D02*
D03*
Y43960D02*
D03*
Y43704D02*
D03*
X57108D02*
D03*
Y43960D02*
D03*
Y44216D02*
D03*
Y44984D02*
D03*
Y45240D02*
D03*
Y45496D02*
D03*
X59392Y38496D02*
D03*
Y38240D02*
D03*
Y37984D02*
D03*
Y37728D02*
D03*
Y37472D02*
D03*
Y37216D02*
D03*
Y36960D02*
D03*
Y36704D02*
D03*
X57108D02*
D03*
Y36960D02*
D03*
Y37216D02*
D03*
Y37984D02*
D03*
Y38240D02*
D03*
Y38496D02*
D03*
X59392Y31496D02*
D03*
Y31240D02*
D03*
Y30984D02*
D03*
Y30728D02*
D03*
Y30472D02*
D03*
Y30216D02*
D03*
Y29960D02*
D03*
Y29704D02*
D03*
X57108D02*
D03*
Y29960D02*
D03*
Y30216D02*
D03*
Y30984D02*
D03*
Y31240D02*
D03*
Y31496D02*
D03*
X59392Y24496D02*
D03*
Y24240D02*
D03*
Y23984D02*
D03*
Y23728D02*
D03*
Y23472D02*
D03*
Y23216D02*
D03*
Y22960D02*
D03*
Y22704D02*
D03*
X57108Y22960D02*
D03*
Y23216D02*
D03*
Y23984D02*
D03*
Y24240D02*
D03*
X59392Y17496D02*
D03*
Y17240D02*
D03*
Y16984D02*
D03*
Y16728D02*
D03*
Y16472D02*
D03*
Y16216D02*
D03*
Y15960D02*
D03*
Y15704D02*
D03*
X57108D02*
D03*
Y15960D02*
D03*
Y16216D02*
D03*
Y16984D02*
D03*
Y17240D02*
D03*
Y17496D02*
D03*
D16*
X64741Y22656D02*
D03*
Y65444D02*
D03*
Y64459D02*
D03*
Y58444D02*
D03*
Y57459D02*
D03*
X64072Y65542D02*
D03*
Y64558D02*
D03*
Y58542D02*
D03*
Y57558D02*
D03*
X64741Y51444D02*
D03*
Y50459D02*
D03*
Y44444D02*
D03*
Y43459D02*
D03*
X64072Y51542D02*
D03*
Y50558D02*
D03*
Y44542D02*
D03*
Y43558D02*
D03*
X64741Y37444D02*
D03*
Y36459D02*
D03*
Y30444D02*
D03*
Y29459D02*
D03*
X64072Y36558D02*
D03*
Y37542D02*
D03*
Y30542D02*
D03*
Y23542D02*
D03*
Y29558D02*
D03*
X64741Y23444D02*
D03*
Y16444D02*
D03*
Y15459D02*
D03*
Y22459D02*
D03*
X64072Y22558D02*
D03*
Y16542D02*
D03*
Y15558D02*
D03*
X64741Y57853D02*
D03*
Y56869D02*
D03*
Y65050D02*
D03*
Y64853D02*
D03*
Y59034D02*
D03*
Y58050D02*
D03*
Y44050D02*
D03*
Y43853D02*
D03*
Y42869D02*
D03*
Y49869D02*
D03*
Y50853D02*
D03*
Y52034D02*
D03*
Y51050D02*
D03*
Y45034D02*
D03*
Y63869D02*
D03*
Y66034D02*
D03*
X64072Y63967D02*
D03*
Y66133D02*
D03*
Y56967D02*
D03*
Y59133D02*
D03*
Y49967D02*
D03*
Y52133D02*
D03*
Y42967D02*
D03*
Y38133D02*
D03*
Y45133D02*
D03*
X64741Y30050D02*
D03*
Y29853D02*
D03*
Y28869D02*
D03*
Y35869D02*
D03*
Y36853D02*
D03*
Y38034D02*
D03*
Y37050D02*
D03*
Y31034D02*
D03*
Y15853D02*
D03*
Y14869D02*
D03*
Y21869D02*
D03*
Y22853D02*
D03*
Y24034D02*
D03*
Y23050D02*
D03*
Y17034D02*
D03*
Y16050D02*
D03*
X64072Y31133D02*
D03*
Y28967D02*
D03*
Y35967D02*
D03*
Y24133D02*
D03*
Y21967D02*
D03*
Y14967D02*
D03*
Y17133D02*
D03*
Y23345D02*
D03*
X64741Y64066D02*
D03*
Y64263D02*
D03*
Y64656D02*
D03*
Y65247D02*
D03*
Y65641D02*
D03*
Y65837D02*
D03*
X64072Y65936D02*
D03*
Y65739D02*
D03*
Y65345D02*
D03*
Y65148D02*
D03*
Y64952D02*
D03*
Y64755D02*
D03*
Y64361D02*
D03*
Y64164D02*
D03*
X64741Y57066D02*
D03*
Y57263D02*
D03*
Y57656D02*
D03*
Y58247D02*
D03*
Y58641D02*
D03*
Y58837D02*
D03*
X64072Y58936D02*
D03*
Y58739D02*
D03*
Y58345D02*
D03*
Y58148D02*
D03*
Y57952D02*
D03*
Y57755D02*
D03*
Y57361D02*
D03*
Y57164D02*
D03*
X64741Y50066D02*
D03*
Y50263D02*
D03*
Y50656D02*
D03*
Y51247D02*
D03*
Y51641D02*
D03*
Y51837D02*
D03*
X64072Y51936D02*
D03*
Y51739D02*
D03*
Y51345D02*
D03*
Y51148D02*
D03*
Y50952D02*
D03*
Y50755D02*
D03*
Y50361D02*
D03*
Y50164D02*
D03*
X64741Y43066D02*
D03*
Y43263D02*
D03*
Y43656D02*
D03*
Y44247D02*
D03*
Y44641D02*
D03*
Y44837D02*
D03*
X64072Y44936D02*
D03*
Y44739D02*
D03*
Y44345D02*
D03*
Y44148D02*
D03*
Y43952D02*
D03*
Y43755D02*
D03*
Y43361D02*
D03*
Y43164D02*
D03*
X64741Y36066D02*
D03*
Y36263D02*
D03*
Y36656D02*
D03*
Y37247D02*
D03*
Y37641D02*
D03*
Y37837D02*
D03*
X64072Y37936D02*
D03*
Y37739D02*
D03*
Y37345D02*
D03*
Y37148D02*
D03*
Y36952D02*
D03*
Y36755D02*
D03*
Y36361D02*
D03*
Y36164D02*
D03*
X64741Y29066D02*
D03*
Y29263D02*
D03*
Y29656D02*
D03*
Y30247D02*
D03*
Y30641D02*
D03*
Y30837D02*
D03*
X64072Y30936D02*
D03*
Y30739D02*
D03*
Y30345D02*
D03*
Y30148D02*
D03*
Y29952D02*
D03*
Y29755D02*
D03*
Y29361D02*
D03*
Y29164D02*
D03*
X64741Y22066D02*
D03*
Y22263D02*
D03*
Y23247D02*
D03*
Y23641D02*
D03*
Y23837D02*
D03*
X64072Y23936D02*
D03*
Y23739D02*
D03*
Y23148D02*
D03*
Y22952D02*
D03*
Y22755D02*
D03*
Y22361D02*
D03*
Y22164D02*
D03*
X64741Y15066D02*
D03*
Y15263D02*
D03*
Y15656D02*
D03*
Y16247D02*
D03*
Y16641D02*
D03*
Y16837D02*
D03*
X64072Y16936D02*
D03*
Y16739D02*
D03*
Y16345D02*
D03*
Y16148D02*
D03*
Y15952D02*
D03*
Y15755D02*
D03*
Y15361D02*
D03*
Y15164D02*
D03*
D17*
X55694Y21800D02*
D03*
X34344Y65100D02*
D03*
Y63550D02*
D03*
X29956Y65100D02*
D03*
Y63550D02*
D03*
X63594Y60700D02*
D03*
Y53700D02*
D03*
Y46700D02*
D03*
Y39700D02*
D03*
Y32700D02*
D03*
Y25700D02*
D03*
Y18700D02*
D03*
Y11700D02*
D03*
X55006Y63800D02*
D03*
Y49800D02*
D03*
Y56800D02*
D03*
Y42800D02*
D03*
Y35800D02*
D03*
Y28800D02*
D03*
Y21800D02*
D03*
Y14800D02*
D03*
X44444Y10560D02*
D03*
X64331Y20000D02*
D03*
X62906Y18700D02*
D03*
X43756Y10560D02*
D03*
X46589Y11604D02*
D03*
X45900D02*
D03*
X62906Y60700D02*
D03*
Y53700D02*
D03*
Y46700D02*
D03*
Y39700D02*
D03*
Y32700D02*
D03*
Y25700D02*
D03*
Y11700D02*
D03*
X55694Y63800D02*
D03*
Y56800D02*
D03*
Y49800D02*
D03*
Y42800D02*
D03*
Y35800D02*
D03*
Y28800D02*
D03*
Y14800D02*
D03*
X64331Y62000D02*
D03*
X65020D02*
D03*
X64331Y55000D02*
D03*
X65020D02*
D03*
X64331Y48000D02*
D03*
X65020D02*
D03*
X64331Y41000D02*
D03*
X65020D02*
D03*
X64331Y34000D02*
D03*
X65020D02*
D03*
X64331Y27000D02*
D03*
X65020D02*
D03*
Y20000D02*
D03*
X64331Y13000D02*
D03*
X65020D02*
D03*
X30644Y65100D02*
D03*
Y63550D02*
D03*
X33656D02*
D03*
Y65100D02*
D03*
D18*
X62900Y65944D02*
D03*
Y58944D02*
D03*
Y51944D02*
D03*
Y44944D02*
D03*
Y37944D02*
D03*
X61750Y65944D02*
D03*
Y58944D02*
D03*
Y51944D02*
D03*
Y44944D02*
D03*
Y37944D02*
D03*
X62900Y30944D02*
D03*
X61750D02*
D03*
X62900Y23944D02*
D03*
X61750D02*
D03*
Y16944D02*
D03*
X62900D02*
D03*
X55450Y61811D02*
D03*
Y65645D02*
D03*
Y54811D02*
D03*
Y58645D02*
D03*
X54300D02*
D03*
Y54811D02*
D03*
Y61811D02*
D03*
Y65645D02*
D03*
X55450Y51645D02*
D03*
Y44645D02*
D03*
Y47811D02*
D03*
X54300D02*
D03*
Y51645D02*
D03*
Y44645D02*
D03*
X55450Y37645D02*
D03*
Y40811D02*
D03*
Y33811D02*
D03*
Y26811D02*
D03*
Y30645D02*
D03*
X54300Y23645D02*
D03*
Y37645D02*
D03*
Y40811D02*
D03*
Y33811D02*
D03*
Y30645D02*
D03*
Y26811D02*
D03*
X55450Y23645D02*
D03*
Y16645D02*
D03*
Y12811D02*
D03*
Y19811D02*
D03*
X54300D02*
D03*
Y12811D02*
D03*
Y16645D02*
D03*
X62900Y59535D02*
D03*
Y66535D02*
D03*
X61750D02*
D03*
Y59535D02*
D03*
Y52535D02*
D03*
X62900D02*
D03*
X55450Y65055D02*
D03*
Y61221D02*
D03*
Y54221D02*
D03*
Y58055D02*
D03*
X62900Y45535D02*
D03*
X61750D02*
D03*
Y38535D02*
D03*
X62900D02*
D03*
X55450Y47221D02*
D03*
Y51055D02*
D03*
Y44055D02*
D03*
Y40221D02*
D03*
X54300Y65055D02*
D03*
Y61221D02*
D03*
Y58055D02*
D03*
X15250Y65695D02*
D03*
X16750D02*
D03*
X54300Y47221D02*
D03*
Y40221D02*
D03*
Y44055D02*
D03*
Y51055D02*
D03*
Y54221D02*
D03*
X62900Y31535D02*
D03*
X61750D02*
D03*
X62900Y24535D02*
D03*
X61750D02*
D03*
X55450Y37055D02*
D03*
Y33221D02*
D03*
Y30055D02*
D03*
Y26221D02*
D03*
X61750Y17535D02*
D03*
X62900D02*
D03*
X55450Y23055D02*
D03*
Y19221D02*
D03*
Y16055D02*
D03*
Y12221D02*
D03*
X54300Y30055D02*
D03*
Y33221D02*
D03*
Y23055D02*
D03*
Y26221D02*
D03*
Y37055D02*
D03*
Y16055D02*
D03*
Y19221D02*
D03*
Y12221D02*
D03*
X15250Y65105D02*
D03*
X16750D02*
D03*
D19*
X25042Y49638D02*
D03*
X25357D02*
D03*
X24727D02*
D03*
X23782Y31460D02*
D03*
X24097D02*
D03*
X23467D02*
D03*
X31971Y49638D02*
D03*
X28822D02*
D03*
X35436Y47208D02*
D03*
X35751D02*
D03*
X23467D02*
D03*
X25357D02*
D03*
Y31460D02*
D03*
X23467Y33890D02*
D03*
X25357D02*
D03*
X35436Y31460D02*
D03*
X35751D02*
D03*
X28822D02*
D03*
X31971D02*
D03*
X23782Y33890D02*
D03*
X24097D02*
D03*
X24412D02*
D03*
Y31460D02*
D03*
X24727Y33890D02*
D03*
Y31460D02*
D03*
X25042Y33890D02*
D03*
Y31460D02*
D03*
X25672Y33890D02*
D03*
Y31460D02*
D03*
X25987Y33890D02*
D03*
Y31460D02*
D03*
X26302Y33890D02*
D03*
Y31460D02*
D03*
X26617Y33890D02*
D03*
Y31460D02*
D03*
X26932Y33890D02*
D03*
Y31460D02*
D03*
X27247Y33890D02*
D03*
Y31460D02*
D03*
X27562Y33890D02*
D03*
Y31460D02*
D03*
X27877Y33890D02*
D03*
Y31460D02*
D03*
X28192Y33890D02*
D03*
Y31460D02*
D03*
X28507Y33890D02*
D03*
Y31460D02*
D03*
X28822Y33890D02*
D03*
X29137D02*
D03*
Y31460D02*
D03*
X29452Y33890D02*
D03*
Y31460D02*
D03*
X29767Y33890D02*
D03*
Y31460D02*
D03*
X30082Y33890D02*
D03*
Y31460D02*
D03*
X30396Y33890D02*
D03*
Y31460D02*
D03*
X30711Y33890D02*
D03*
Y31460D02*
D03*
X31026Y33890D02*
D03*
Y31460D02*
D03*
X31341Y33890D02*
D03*
Y31460D02*
D03*
X31656Y33890D02*
D03*
Y31460D02*
D03*
X31971Y33890D02*
D03*
X32286D02*
D03*
Y31460D02*
D03*
X32601Y33890D02*
D03*
Y31460D02*
D03*
X32916Y33890D02*
D03*
Y31460D02*
D03*
X33231Y33890D02*
D03*
Y31460D02*
D03*
X33546Y33890D02*
D03*
Y31460D02*
D03*
X33861Y33890D02*
D03*
Y31460D02*
D03*
X34176Y33890D02*
D03*
Y31460D02*
D03*
X34491Y33890D02*
D03*
Y31460D02*
D03*
X34806Y33890D02*
D03*
Y31460D02*
D03*
X35121Y33890D02*
D03*
Y31460D02*
D03*
X35436Y33890D02*
D03*
X35751D02*
D03*
X23467Y49638D02*
D03*
X23782D02*
D03*
Y47208D02*
D03*
X24097Y49638D02*
D03*
Y47208D02*
D03*
X24412Y49638D02*
D03*
Y47208D02*
D03*
X24727D02*
D03*
X25042D02*
D03*
X25672Y49638D02*
D03*
Y47208D02*
D03*
X25987Y49638D02*
D03*
Y47208D02*
D03*
X26302Y49638D02*
D03*
Y47208D02*
D03*
X26617Y49638D02*
D03*
Y47208D02*
D03*
X26932Y49638D02*
D03*
Y47208D02*
D03*
X27247Y49638D02*
D03*
Y47208D02*
D03*
X27562Y49638D02*
D03*
Y47208D02*
D03*
X27877Y49638D02*
D03*
Y47208D02*
D03*
X28192Y49638D02*
D03*
Y47208D02*
D03*
X28507Y49638D02*
D03*
Y47208D02*
D03*
X28822D02*
D03*
X29137Y49638D02*
D03*
Y47208D02*
D03*
X29452Y49638D02*
D03*
Y47208D02*
D03*
X29767Y49638D02*
D03*
Y47208D02*
D03*
X30082Y49638D02*
D03*
Y47208D02*
D03*
X30396Y49638D02*
D03*
Y47208D02*
D03*
X30711Y49638D02*
D03*
Y47208D02*
D03*
X31026Y49638D02*
D03*
Y47208D02*
D03*
X31341Y49638D02*
D03*
Y47208D02*
D03*
X31656Y49638D02*
D03*
Y47208D02*
D03*
X31971D02*
D03*
X32286Y49638D02*
D03*
Y47208D02*
D03*
X32601Y49638D02*
D03*
Y47208D02*
D03*
X32916Y49638D02*
D03*
Y47208D02*
D03*
X33231Y49638D02*
D03*
Y47208D02*
D03*
X33546Y49638D02*
D03*
Y47208D02*
D03*
X33861Y49638D02*
D03*
Y47208D02*
D03*
X34176Y49638D02*
D03*
Y47208D02*
D03*
X34491Y49638D02*
D03*
Y47208D02*
D03*
X34806Y49638D02*
D03*
Y47208D02*
D03*
X35121Y49638D02*
D03*
Y47208D02*
D03*
X35436Y49638D02*
D03*
X35751D02*
D03*
D20*
X45055Y13210D02*
D03*
X45645D02*
D03*
D21*
X42300Y12299D02*
D03*
Y11610D02*
D03*
D23*
X66850Y62000D02*
D03*
Y55000D02*
D03*
Y48000D02*
D03*
Y41000D02*
D03*
Y34000D02*
D03*
Y27000D02*
D03*
Y20000D02*
D03*
X66850Y13000D02*
D03*
X66200Y62000D02*
D03*
Y55000D02*
D03*
Y48000D02*
D03*
Y41000D02*
D03*
Y34000D02*
D03*
Y27000D02*
D03*
Y20000D02*
D03*
X66200Y13000D02*
D03*
D24*
X32650Y70152D02*
D03*
X33650D02*
D03*
X31650D02*
D03*
X30650D02*
D03*
X33650Y66648D02*
D03*
X32650D02*
D03*
X31650D02*
D03*
X30650D02*
D03*
D25*
X18250Y65804D02*
D03*
Y65096D02*
D03*
M02*
