G04*
G04 #@! TF.GenerationSoftware,Altium Limited,Altium Designer,25.8.1 (18)*
G04*
G04 Layer_Physical_Order=1*
G04 Layer_Color=255*
%FSLAX24Y24*%
%MOIN*%
G70*
G04*
G04 #@! TF.SameCoordinates,0B069E76-09E9-47D6-99B5-871596FF3947*
G04*
G04*
G04 #@! TF.FilePolarity,Positive*
G04*
G01*
G75*
%ADD10C,0.0050*%
%ADD13C,0.0080*%
G04:AMPARAMS|DCode=14|XSize=9.8mil|YSize=9.8mil|CornerRadius=4.9mil|HoleSize=0mil|Usage=FLASHONLY|Rotation=0.000|XOffset=0mil|YOffset=0mil|HoleType=Round|Shape=RoundedRectangle|*
%AMROUNDEDRECTD14*
21,1,0.0098,0.0000,0,0,0.0*
21,1,0.0000,0.0098,0,0,0.0*
1,1,0.0098,0.0000,0.0000*
1,1,0.0098,0.0000,0.0000*
1,1,0.0098,0.0000,0.0000*
1,1,0.0098,0.0000,0.0000*
%
%ADD14ROUNDEDRECTD14*%
%ADD15R,0.0354X0.0276*%
%ADD16R,0.0118X0.0354*%
%ADD17R,0.0118X0.0472*%
%ADD18R,0.0866X0.1299*%
%ADD22C,0.0256*%
G04:AMPARAMS|DCode=23|XSize=35.4mil|YSize=59.1mil|CornerRadius=17.7mil|HoleSize=0mil|Usage=FLASHONLY|Rotation=0.000|XOffset=0mil|YOffset=0mil|HoleType=Round|Shape=RoundedRectangle|*
%AMROUNDEDRECTD23*
21,1,0.0354,0.0236,0,0,0.0*
21,1,0.0000,0.0591,0,0,0.0*
1,1,0.0354,0.0000,-0.0118*
1,1,0.0354,0.0000,-0.0118*
1,1,0.0354,0.0000,0.0118*
1,1,0.0354,0.0000,0.0118*
%
%ADD23ROUNDEDRECTD23*%
G04:AMPARAMS|DCode=24|XSize=37.4mil|YSize=25.6mil|CornerRadius=12.8mil|HoleSize=0mil|Usage=FLASHONLY|Rotation=0.000|XOffset=0mil|YOffset=0mil|HoleType=Round|Shape=RoundedRectangle|*
%AMROUNDEDRECTD24*
21,1,0.0374,0.0000,0,0,0.0*
21,1,0.0118,0.0256,0,0,0.0*
1,1,0.0256,0.0059,0.0000*
1,1,0.0256,-0.0059,0.0000*
1,1,0.0256,-0.0059,0.0000*
1,1,0.0256,0.0059,0.0000*
%
%ADD24ROUNDEDRECTD24*%
%ADD25C,0.0090*%
%ADD26C,0.0140*%
%ADD27C,0.0049*%
%ADD28C,0.0100*%
%ADD29C,0.1417*%
%ADD30C,0.0140*%
G36*
X5078Y102D02*
X-5078D01*
Y13458D01*
X5078D01*
Y102D01*
D02*
G37*
%LPC*%
G36*
X4601Y12577D02*
X3535D01*
Y11309D01*
X1965D01*
Y11689D01*
X2007Y11731D01*
X2033Y11794D01*
Y11861D01*
X2007Y11924D01*
X1959Y11972D01*
X1897Y11998D01*
X1829D01*
X1767Y11972D01*
X1719Y11924D01*
X1693Y11861D01*
Y11794D01*
X1719Y11731D01*
X1761Y11689D01*
Y11309D01*
X193D01*
Y11729D01*
X186Y11768D01*
X164Y11801D01*
X163Y11802D01*
Y11861D01*
X137Y11924D01*
X89Y11972D01*
X27Y11998D01*
X-41D01*
X-103Y11972D01*
X-151Y11924D01*
X-177Y11861D01*
Y11802D01*
X-177Y11801D01*
X-200Y11768D01*
X-207Y11729D01*
Y11309D01*
X-1775D01*
Y11689D01*
X-1733Y11731D01*
X-1707Y11794D01*
Y11861D01*
X-1733Y11924D01*
X-1781Y11972D01*
X-1843Y11998D01*
X-1911D01*
X-1973Y11972D01*
X-2021Y11924D01*
X-2047Y11861D01*
Y11794D01*
X-2021Y11731D01*
X-1979Y11689D01*
Y11309D01*
X-3549D01*
Y12577D01*
X-4615D01*
Y11078D01*
X-3611D01*
Y10637D01*
X-3528D01*
Y9792D01*
X-3522Y9763D01*
X-3506Y9738D01*
X-1728Y7960D01*
X-1731Y7952D01*
Y7892D01*
X-1708Y7838D01*
X-1666Y7796D01*
X-1611Y7773D01*
X-1549Y7758D01*
X-1534Y7696D01*
X-1511Y7641D01*
X-1469Y7599D01*
X-1415Y7576D01*
X-1355D01*
X-1300Y7599D01*
X-1258Y7641D01*
X-1255Y7649D01*
X-1043D01*
Y7613D01*
X-1017Y7550D01*
X-969Y7502D01*
X-907Y7477D01*
X-839D01*
X-777Y7502D01*
X-734Y7546D01*
X-690Y7502D01*
X-628Y7477D01*
X-560D01*
X-498Y7502D01*
X-450Y7550D01*
X-424Y7613D01*
Y7620D01*
X-403Y7688D01*
X-332Y7713D01*
X-327D01*
X-265Y7739D01*
X-152Y7710D01*
X-151Y7708D01*
X-103Y7660D01*
X-41Y7634D01*
X27D01*
X89Y7660D01*
X137Y7708D01*
X138Y7710D01*
X251Y7739D01*
X314Y7713D01*
X318D01*
X389Y7688D01*
X410Y7620D01*
Y7613D01*
X436Y7550D01*
X484Y7502D01*
X546Y7477D01*
X614D01*
X676Y7502D01*
X720Y7546D01*
X763Y7502D01*
X825Y7477D01*
X893D01*
X956Y7502D01*
X1003Y7550D01*
X1029Y7613D01*
Y7649D01*
X1241D01*
X1245Y7641D01*
X1287Y7599D01*
X1298Y7486D01*
X1295Y7484D01*
X1249Y7462D01*
X1204Y7481D01*
X1144D01*
X1090Y7458D01*
X1048Y7416D01*
X1025Y7361D01*
X1010Y7298D01*
X948Y7284D01*
X893Y7261D01*
X879Y7247D01*
X865Y7261D01*
X810Y7284D01*
X751D01*
X696Y7261D01*
X682Y7247D01*
X668Y7261D01*
X613Y7284D01*
X554D01*
X499Y7261D01*
X485Y7247D01*
X471Y7261D01*
X416Y7284D01*
X357D01*
X302Y7261D01*
X288Y7247D01*
X274Y7261D01*
X220Y7284D01*
X160D01*
X105Y7261D01*
X92Y7247D01*
X78Y7261D01*
X23Y7284D01*
X-37D01*
X-91Y7261D01*
X-105Y7247D01*
X-119Y7261D01*
X-174Y7284D01*
X-234D01*
X-288Y7261D01*
X-302Y7247D01*
X-316Y7261D01*
X-371Y7284D01*
X-430D01*
X-485Y7261D01*
X-527Y7219D01*
X-550Y7164D01*
X-645D01*
X-668Y7219D01*
X-710Y7261D01*
X-765Y7284D01*
X-824D01*
X-879Y7261D01*
X-893Y7247D01*
X-907Y7261D01*
X-962Y7284D01*
X-1021D01*
X-1076Y7261D01*
X-1090Y7247D01*
X-1104Y7261D01*
X-1158Y7284D01*
X-1218D01*
X-1273Y7261D01*
X-1286Y7247D01*
X-1300Y7261D01*
X-1355Y7284D01*
X-1418Y7298D01*
X-1433Y7361D01*
X-1455Y7416D01*
X-1497Y7458D01*
X-1552Y7481D01*
X-1611D01*
X-1666Y7458D01*
X-1696Y7428D01*
X-3029D01*
X-3066Y7421D01*
X-3097Y7400D01*
X-3776Y6721D01*
X-3797Y6689D01*
X-3805Y6652D01*
Y5620D01*
X-3985D01*
Y5145D01*
X-3830D01*
Y3917D01*
X-3976Y3888D01*
X-4123Y3827D01*
X-4256Y3738D01*
X-4368Y3626D01*
X-4457Y3493D01*
X-4518Y3346D01*
X-4549Y3190D01*
Y3031D01*
X-4518Y2874D01*
X-4457Y2727D01*
X-4368Y2595D01*
X-4256Y2482D01*
X-4123Y2394D01*
X-3976Y2333D01*
X-3820Y2302D01*
X-3661D01*
X-3504Y2333D01*
X-3357Y2394D01*
X-3225Y2482D01*
X-3112Y2595D01*
X-3024Y2727D01*
X-2963Y2874D01*
X-2932Y3031D01*
Y3190D01*
X-2963Y3346D01*
X-3024Y3493D01*
X-3112Y3626D01*
X-3225Y3738D01*
X-3357Y3827D01*
X-3504Y3888D01*
X-3585Y3904D01*
Y5145D01*
X-3431D01*
Y5620D01*
X-3611D01*
Y6612D01*
X-2988Y7235D01*
X-1696D01*
X-1666Y7205D01*
X-1611Y7182D01*
X-1549Y7168D01*
X-1534Y7105D01*
X-1511Y7050D01*
X-1469Y7008D01*
X-1415Y6985D01*
X-1355D01*
X-1300Y7008D01*
X-1286Y7022D01*
X-1273Y7008D01*
X-1218Y6985D01*
X-1158D01*
X-1104Y7008D01*
X-1090Y7022D01*
X-1076Y7008D01*
X-1021Y6985D01*
X-971D01*
X-951Y6962D01*
X-920Y6894D01*
X-938Y6876D01*
X-964Y6814D01*
Y6746D01*
X-962Y6742D01*
X-1432Y6272D01*
X-1718D01*
X-1753Y6265D01*
X-1783Y6245D01*
X-2139Y5889D01*
X-2159Y5859D01*
X-2166Y5824D01*
Y4555D01*
X-2170Y4553D01*
X-2218Y4505D01*
X-2244Y4442D01*
Y4375D01*
X-2218Y4312D01*
X-2170Y4264D01*
X-2108Y4239D01*
X-2040D01*
X-1978Y4264D01*
X-1930Y4312D01*
X-1904Y4375D01*
Y4442D01*
X-1930Y4505D01*
X-1978Y4553D01*
X-1982Y4555D01*
Y5760D01*
X-1928Y5802D01*
X-1901Y5799D01*
X-1822Y5772D01*
X-1804Y5728D01*
X-1780Y5704D01*
X-1804Y5681D01*
X-1830Y5618D01*
Y5550D01*
X-1804Y5488D01*
X-1756Y5440D01*
X-1694Y5414D01*
X-1626D01*
X-1564Y5440D01*
X-1516Y5488D01*
X-1490Y5550D01*
Y5575D01*
X-1390Y5577D01*
X-1319Y5506D01*
Y5288D01*
X-1319Y5288D01*
X-1726D01*
Y4812D01*
X-1336D01*
Y4699D01*
X-1330Y4670D01*
X-1314Y4645D01*
X-1222Y4554D01*
X-1244Y4458D01*
X-1312Y4430D01*
X-1339Y4422D01*
X-1397Y4446D01*
X-1465D01*
X-1527Y4421D01*
X-1575Y4373D01*
X-1601Y4310D01*
Y4243D01*
X-1575Y4180D01*
X-1527Y4132D01*
X-1465Y4106D01*
X-1436D01*
Y4058D01*
X-1430Y4029D01*
X-1414Y4004D01*
X-1071Y3661D01*
X-1112Y3561D01*
X-1123D01*
Y3006D01*
X-815D01*
X-795Y2987D01*
X-756Y2906D01*
X-779Y2852D01*
Y2762D01*
X-774Y2751D01*
X-837Y2725D01*
X-866Y2696D01*
X-894Y2725D01*
X-978Y2759D01*
X-1068D01*
X-1152Y2725D01*
X-1216Y2661D01*
X-1251Y2577D01*
Y2486D01*
X-1216Y2402D01*
X-1152Y2338D01*
X-1068Y2304D01*
X-978D01*
X-894Y2338D01*
X-866Y2367D01*
X-837Y2338D01*
X-753Y2304D01*
X-663D01*
X-579Y2338D01*
X-551Y2367D01*
X-522Y2338D01*
X-438Y2304D01*
X-348D01*
X-264Y2338D01*
X-200Y2402D01*
X-165Y2486D01*
Y2492D01*
X-148Y2502D01*
X-48Y2445D01*
Y1784D01*
X-214Y1618D01*
X-624D01*
Y1646D01*
X-650Y1709D01*
X-698Y1757D01*
X-761Y1782D01*
X-828D01*
X-891Y1757D01*
X-938Y1709D01*
X-964Y1646D01*
Y1579D01*
X-938Y1516D01*
X-915Y1493D01*
X-938Y1469D01*
X-964Y1406D01*
Y1339D01*
X-938Y1276D01*
X-891Y1228D01*
X-828Y1203D01*
X-761D01*
X-698Y1228D01*
X-650Y1276D01*
X-624Y1339D01*
Y1367D01*
X-142D01*
X-113Y1373D01*
X-88Y1389D01*
X181Y1658D01*
X197Y1682D01*
X203Y1711D01*
Y2304D01*
X282D01*
X366Y2338D01*
X394Y2367D01*
X423Y2338D01*
X506Y2304D01*
X597D01*
X681Y2338D01*
X709Y2367D01*
X738Y2338D01*
X821Y2304D01*
X912D01*
X996Y2338D01*
X1060Y2402D01*
X1095Y2486D01*
Y2577D01*
X1060Y2661D01*
X996Y2725D01*
X912Y2759D01*
X821D01*
X738Y2725D01*
X709Y2696D01*
X681Y2725D01*
X618Y2751D01*
X622Y2762D01*
Y2852D01*
X600Y2906D01*
X639Y2987D01*
X658Y3006D01*
X957D01*
X967Y3006D01*
X1061Y2994D01*
X1065Y2974D01*
X1116Y2899D01*
X1191Y2848D01*
X1280Y2831D01*
X1398D01*
X1487Y2848D01*
X1563Y2899D01*
X1613Y2974D01*
X1631Y3063D01*
X1613Y3152D01*
X1563Y3227D01*
X1487Y3278D01*
X1398Y3295D01*
X1280D01*
X1191Y3278D01*
X1116Y3227D01*
X1065Y3152D01*
X967Y3169D01*
Y3561D01*
X957D01*
X915Y3661D01*
X1228Y3973D01*
X1244Y3998D01*
X1250Y4027D01*
Y4106D01*
X1279D01*
X1341Y4132D01*
X1389Y4180D01*
X1415Y4243D01*
Y4310D01*
X1396Y4355D01*
X1424Y4420D01*
X1448Y4455D01*
X1701D01*
X1730Y4460D01*
X1755Y4477D01*
X1912Y4634D01*
X1929Y4659D01*
X1934Y4688D01*
Y4812D01*
X2340D01*
Y5288D01*
X1932D01*
X1932Y5288D01*
Y5424D01*
X1927Y5453D01*
X1910Y5477D01*
X1197Y6190D01*
X1195Y6192D01*
X1166Y6241D01*
X1154Y6309D01*
X1169Y6344D01*
X1269Y6376D01*
X1530Y6115D01*
X1560Y6095D01*
X1595Y6089D01*
X1921D01*
Y5942D01*
X2475D01*
Y6418D01*
X1921D01*
Y6272D01*
X1633D01*
X1355Y6550D01*
X1357Y6554D01*
Y6622D01*
X1331Y6684D01*
X1283Y6732D01*
X1266Y6739D01*
Y6909D01*
X1341Y6985D01*
X1401D01*
X1456Y7008D01*
X1469Y7022D01*
X1483Y7008D01*
X1538Y6985D01*
X1598D01*
X1652Y7008D01*
X1694Y7050D01*
X1698Y7058D01*
X2142D01*
Y6894D01*
X2696D01*
Y7369D01*
X2142D01*
Y7211D01*
X1698D01*
X1694Y7219D01*
X1652Y7261D01*
X1598Y7284D01*
Y7379D01*
X1652Y7402D01*
X1694Y7444D01*
X1717Y7499D01*
Y7558D01*
X1694Y7613D01*
X1652Y7655D01*
X1598Y7678D01*
Y7773D01*
X1652Y7796D01*
X1694Y7838D01*
X1698Y7846D01*
X1962D01*
X1971Y7824D01*
X2019Y7776D01*
X2081Y7750D01*
X2149D01*
X2211Y7776D01*
X2259Y7824D01*
X2285Y7886D01*
Y7954D01*
X2259Y8016D01*
X2211Y8064D01*
X2149Y8090D01*
X2081D01*
X2019Y8064D01*
X1971Y8016D01*
X1964Y7999D01*
X1788D01*
X1717Y8089D01*
Y8149D01*
X1714Y8157D01*
X3492Y9935D01*
X3509Y9960D01*
X3514Y9989D01*
Y10637D01*
X3597D01*
Y11078D01*
X4601D01*
Y12577D01*
D02*
G37*
G36*
X-1450Y3291D02*
X-1541D01*
X-1625Y3256D01*
X-1689Y3192D01*
X-1723Y3108D01*
Y3018D01*
X-1689Y2934D01*
X-1625Y2870D01*
X-1541Y2835D01*
X-1450D01*
X-1366Y2870D01*
X-1302Y2934D01*
X-1268Y3018D01*
Y3108D01*
X-1302Y3192D01*
X-1366Y3256D01*
X-1450Y3291D01*
D02*
G37*
G36*
X3820Y3919D02*
X3661D01*
X3504Y3888D01*
X3357Y3827D01*
X3225Y3738D01*
X3112Y3626D01*
X3024Y3493D01*
X2963Y3346D01*
X2932Y3190D01*
Y3031D01*
X2963Y2874D01*
X3024Y2727D01*
X3112Y2595D01*
X3225Y2482D01*
X3357Y2394D01*
X3504Y2333D01*
X3661Y2302D01*
X3820D01*
X3976Y2333D01*
X4123Y2394D01*
X4256Y2482D01*
X4368Y2595D01*
X4457Y2727D01*
X4518Y2874D01*
X4549Y3031D01*
Y3190D01*
X4518Y3346D01*
X4457Y3493D01*
X4368Y3626D01*
X4256Y3738D01*
X4123Y3827D01*
X3976Y3888D01*
X3820Y3919D01*
D02*
G37*
%LPD*%
G36*
X-550Y7105D02*
X-527Y7050D01*
X-485Y7008D01*
X-430Y6985D01*
X-429D01*
Y6378D01*
X-423Y6349D01*
X-407Y6324D01*
X-169Y6087D01*
X-194Y5969D01*
X-196Y5968D01*
X-244Y5921D01*
X-270Y5858D01*
Y5790D01*
X-244Y5728D01*
X-220Y5704D01*
X-244Y5681D01*
X-270Y5618D01*
Y5550D01*
X-244Y5488D01*
X-196Y5440D01*
X-134Y5414D01*
X-66D01*
X-4Y5440D01*
X44Y5488D01*
X66Y5540D01*
X127Y5552D01*
X169Y5553D01*
X231Y5496D01*
Y5288D01*
X231Y5288D01*
X-176D01*
Y4812D01*
X231D01*
X232Y4812D01*
Y4446D01*
X203D01*
X141Y4421D01*
X93Y4373D01*
X67Y4310D01*
Y4243D01*
X93Y4180D01*
X141Y4132D01*
X157Y4125D01*
X187Y4015D01*
X187Y4013D01*
X15Y3842D01*
X-1Y3817D01*
X-7Y3788D01*
Y3561D01*
X-150D01*
Y3652D01*
X-155Y3682D01*
X-172Y3706D01*
X-369Y3903D01*
Y4106D01*
X-347D01*
X-285Y4132D01*
X-237Y4180D01*
X-211Y4243D01*
Y4310D01*
X-237Y4373D01*
X-285Y4421D01*
X-347Y4446D01*
X-376Y4488D01*
X-381Y4517D01*
X-398Y4541D01*
X-398Y4541D01*
X-537Y4681D01*
X-537Y4681D01*
X-562Y4697D01*
X-591Y4703D01*
X-921D01*
X-927Y4712D01*
X-874Y4812D01*
X-660D01*
Y5288D01*
X-1068D01*
X-1068Y5288D01*
Y5578D01*
X-1068Y5578D01*
X-1073Y5607D01*
X-1090Y5632D01*
X-1266Y5807D01*
X-1290Y5824D01*
X-1319Y5830D01*
X-1490D01*
Y5858D01*
X-1516Y5921D01*
X-1564Y5968D01*
X-1626Y5994D01*
X-1612Y6089D01*
X-1394D01*
X-1359Y6095D01*
X-1329Y6115D01*
X-833Y6612D01*
X-828Y6610D01*
X-761D01*
X-698Y6636D01*
X-650Y6684D01*
X-624Y6746D01*
Y6814D01*
X-650Y6876D01*
X-698Y6924D01*
X-700Y7018D01*
X-668Y7050D01*
X-645Y7105D01*
X-550D01*
D02*
G37*
G36*
X1645Y5388D02*
X1603Y5288D01*
X1274D01*
Y4812D01*
X1481D01*
X1534Y4712D01*
X1530Y4705D01*
X1255D01*
X1226Y4700D01*
X1201Y4683D01*
X1022Y4503D01*
X1005Y4479D01*
X999Y4450D01*
Y4446D01*
X971D01*
X908Y4421D01*
X861Y4373D01*
X835Y4310D01*
Y4243D01*
X861Y4180D01*
X908Y4132D01*
X919Y4020D01*
X606Y3706D01*
X590Y3682D01*
X584Y3652D01*
Y3561D01*
X244D01*
Y3716D01*
X460Y3932D01*
X477Y3957D01*
X483Y3986D01*
Y4106D01*
X511D01*
X574Y4132D01*
X621Y4180D01*
X647Y4243D01*
Y4310D01*
X621Y4373D01*
X574Y4421D01*
X511Y4446D01*
X483D01*
Y4812D01*
X890D01*
Y5288D01*
X482D01*
X482Y5288D01*
Y5578D01*
X477Y5607D01*
X460Y5632D01*
X284Y5807D01*
X260Y5824D01*
X231Y5830D01*
X167D01*
X150Y5862D01*
X209Y5962D01*
X1071D01*
X1645Y5388D01*
D02*
G37*
G36*
X-804Y4422D02*
X-774Y4352D01*
X-791Y4310D01*
Y4243D01*
X-765Y4180D01*
X-717Y4132D01*
X-655Y4106D01*
X-620D01*
Y3831D01*
X-614Y3802D01*
X-598Y3777D01*
X-481Y3661D01*
X-523Y3561D01*
X-740D01*
Y3654D01*
X-746Y3683D01*
X-762Y3707D01*
X-1084Y4029D01*
X-1094Y4132D01*
X-1047Y4180D01*
X-1021Y4243D01*
Y4310D01*
X-1038Y4352D01*
X-1008Y4422D01*
X-985Y4452D01*
X-827D01*
X-804Y4422D01*
D02*
G37*
D10*
X2416Y7135D02*
X2419Y7132D01*
X1568Y7135D02*
X2416D01*
X141Y8296D02*
X141D01*
X492Y8648D01*
X430Y8170D02*
Y8195D01*
X501Y8340D02*
X692Y8531D01*
X430Y8195D02*
X501Y8266D01*
Y8340D01*
X596Y8131D02*
X1187D01*
X347Y7883D02*
X596Y8131D01*
X-706Y8531D02*
X-444Y8269D01*
Y8195D02*
Y8269D01*
X-1201Y8131D02*
X-610D01*
X-361Y7883D01*
X-444Y8170D02*
Y8195D01*
X2113Y7922D02*
X2115Y7920D01*
X1568Y7922D02*
X2113D01*
X-506Y8648D02*
X-155Y8296D01*
X-1306Y8906D02*
X-912Y8513D01*
X-853D01*
X-853Y8276D02*
X-716D01*
X-1286Y8709D02*
X-853Y8276D01*
X-3452Y9792D02*
Y10973D01*
Y9792D02*
X-1582Y7922D01*
X-3255Y9792D02*
X-1582Y8119D01*
X-3255Y9792D02*
Y10973D01*
X-3058Y9792D02*
Y10973D01*
Y9792D02*
X-1582Y8316D01*
X-2861Y9792D02*
X-1582Y8513D01*
X-2861Y9792D02*
Y10973D01*
X-2664Y9792D02*
Y10973D01*
Y9792D02*
X-1582Y8709D01*
X3438Y9989D02*
Y10973D01*
X1568Y8119D02*
X3438Y9989D01*
X3241Y9989D02*
Y10973D01*
X1568Y8316D02*
X3241Y9989D01*
X3044Y9989D02*
Y10973D01*
X1568Y8513D02*
X3044Y9989D01*
X2847Y9989D02*
Y10973D01*
X1568Y8709D02*
X2847Y9989D01*
X2651Y9989D02*
Y10973D01*
X1568Y8906D02*
X2651Y9989D01*
X2454Y9989D02*
Y10973D01*
X1568Y9103D02*
X2454Y9989D01*
X2257Y9989D02*
Y10973D01*
X1568Y9300D02*
X2257Y9989D01*
X2060Y9989D02*
Y10973D01*
X1568Y9497D02*
X2060Y9989D01*
X1666Y9792D02*
Y10973D01*
X1371Y9497D02*
X1666Y9792D01*
X1273D02*
Y10973D01*
X977Y9497D02*
X1273Y9792D01*
X1469Y9792D02*
Y10973D01*
X1174Y9497D02*
X1469Y9792D01*
X584Y9497D02*
X879Y9792D01*
Y10973D01*
X1076Y9792D02*
Y10973D01*
X780Y9497D02*
X1076Y9792D01*
X190Y9497D02*
X485Y9792D01*
Y10973D01*
X387Y9497D02*
X682Y9792D01*
Y10973D01*
X288Y9792D02*
Y10973D01*
X-7Y9497D02*
X288Y9792D01*
X-302Y9595D02*
Y10973D01*
Y9595D02*
X-204Y9497D01*
X-499Y9595D02*
Y10973D01*
Y9595D02*
X-401Y9497D01*
X-696Y9595D02*
Y10973D01*
Y9595D02*
X-598Y9497D01*
X-893Y9595D02*
Y10973D01*
Y9595D02*
X-794Y9497D01*
X-1090Y9595D02*
Y10973D01*
Y9595D02*
X-991Y9497D01*
X-1286Y9595D02*
Y10973D01*
Y9595D02*
X-1188Y9497D01*
X-1483Y9595D02*
Y10973D01*
Y9595D02*
X-1385Y9497D01*
X-1680Y9595D02*
Y10973D01*
Y9595D02*
X-1582Y9497D01*
X-2074Y9792D02*
Y10973D01*
Y9792D02*
X-1582Y9300D01*
X-2271Y9792D02*
Y10973D01*
Y9792D02*
X-1582Y9103D01*
X-2468Y9792D02*
Y10973D01*
Y9792D02*
X-1582Y8906D01*
X141Y9064D02*
Y9251D01*
X190Y9300D01*
X141Y8808D02*
X287Y8955D01*
Y9201D01*
X387Y9300D01*
X141Y8552D02*
X390Y8802D01*
Y9107D01*
X584Y9300D01*
X774Y9294D02*
X780Y9300D01*
X774Y9294D02*
Y9294D01*
X492Y9012D02*
X774Y9294D01*
X1024Y9150D02*
X1174Y9300D01*
X976Y9150D02*
X1024D01*
X891Y9065D02*
X976Y9150D01*
X891Y9017D02*
Y9065D01*
X692Y8818D02*
X891Y9017D01*
X492Y8648D02*
Y9012D01*
X286Y8185D02*
Y8300D01*
X592Y8606D02*
Y8915D01*
X977Y9300D01*
X286Y8300D02*
X592Y8606D01*
X141Y8040D02*
X286Y8185D01*
X1076Y9005D02*
X1371Y9300D01*
X1036Y9005D02*
X1076D01*
X1096Y8860D02*
X1340Y9103D01*
X1371D01*
X840Y8513D02*
X898D01*
X899Y8749D02*
X1010Y8860D01*
X898Y8513D02*
X1292Y8906D01*
X1010Y8860D02*
X1096D01*
X1292Y8906D02*
X1371D01*
X1273Y8709D02*
X1371D01*
X1312Y8513D02*
X1371D01*
X1076Y8276D02*
X1312Y8513D01*
X1187Y8131D02*
X1371Y8316D01*
X840Y8276D02*
X1273Y8709D01*
X702Y8276D02*
X840D01*
X692Y8531D02*
Y8818D01*
X674Y7946D02*
X760Y8031D01*
X1228D01*
X1316Y8119D01*
X1371D01*
X580Y7647D02*
X856Y7922D01*
X1371D01*
X859Y7647D02*
X938Y7725D01*
X1371D01*
X-1385D02*
X-952D01*
X-873Y7647D01*
X-1385Y7922D02*
X-869D01*
X-594Y7647D01*
X-1385Y8119D02*
X-1329D01*
X-1242Y8031D01*
X-774D01*
X-688Y7946D01*
X-706Y8531D02*
Y8818D01*
X-1385Y8316D02*
X-1201Y8131D01*
X-1326Y8513D02*
X-1090Y8276D01*
X-1385Y8513D02*
X-1326D01*
X-1385Y8709D02*
X-1286D01*
X-1385Y8906D02*
X-1306D01*
X-1110Y8860D02*
X-1023D01*
X-912Y8749D01*
X-1354Y9103D02*
X-1110Y8860D01*
X-1385Y9103D02*
X-1354D01*
X-1090Y9005D02*
X-1050D01*
X-1385Y9300D02*
X-1090Y9005D01*
X-7Y7804D02*
Y9300D01*
X-300Y8185D02*
X-155Y8040D01*
X-606Y8606D02*
X-300Y8300D01*
X-991Y9300D02*
X-606Y8915D01*
Y8606D02*
Y8915D01*
X-300Y8185D02*
Y8300D01*
X-506Y8648D02*
Y9012D01*
X-905Y9017D02*
X-706Y8818D01*
X-905Y9017D02*
Y9065D01*
X-990Y9150D02*
X-905Y9065D01*
X-1038Y9150D02*
X-990D01*
X-1188Y9300D02*
X-1038Y9150D01*
X-788Y9294D02*
X-506Y9012D01*
X-788Y9294D02*
Y9294D01*
X-794Y9300D02*
X-788Y9294D01*
X-598Y9300D02*
X-404Y9107D01*
Y8802D02*
Y9107D01*
Y8802D02*
X-155Y8552D01*
X-401Y9300D02*
X-301Y9201D01*
Y8955D02*
Y9201D01*
Y8955D02*
X-155Y8808D01*
X-204Y9300D02*
X-155Y9251D01*
Y9064D02*
Y9251D01*
D13*
X1163Y7528D02*
X1371D01*
X977Y7342D02*
X1163Y7528D01*
X977Y7332D02*
Y7342D01*
X-2074Y4409D02*
Y5824D01*
X-1718Y6180D01*
X-1394D01*
X-794Y6780D01*
Y7135D01*
X-1385D02*
X-1188D01*
X-991D01*
X-794D01*
X-1181Y2807D02*
X-1161Y2827D01*
Y3283D01*
X-570Y2827D02*
X-551Y2807D01*
X-570Y2827D02*
Y3283D01*
X394Y2807D02*
X414Y2827D01*
Y3283D01*
X1004Y2827D02*
X1024Y2807D01*
X1004Y2827D02*
Y3283D01*
X1174Y7332D02*
X1371D01*
X1568D02*
X1955D01*
X2931Y7132D02*
X3575D01*
X1174Y7135D02*
Y7332D01*
X2710Y5585D02*
Y6180D01*
X1595D02*
X2198D01*
X1187Y6588D02*
X1595Y6180D01*
X1174Y6601D02*
Y7135D01*
Y6601D02*
X1187Y6588D01*
D14*
X1568Y7135D02*
D03*
X1371D02*
D03*
X1174D02*
D03*
X977D02*
D03*
X780D02*
D03*
X584D02*
D03*
X387D02*
D03*
X190D02*
D03*
X-7D02*
D03*
X-204D02*
D03*
X-401D02*
D03*
X-598D02*
D03*
X-794D02*
D03*
X-991D02*
D03*
X-1188D02*
D03*
X-1385D02*
D03*
X-1582D02*
D03*
X1568Y7332D02*
D03*
X1371D02*
D03*
X1174D02*
D03*
X977D02*
D03*
X780D02*
D03*
X584D02*
D03*
X387D02*
D03*
X190D02*
D03*
X-7D02*
D03*
X-204D02*
D03*
X-401D02*
D03*
X-598D02*
D03*
X-794D02*
D03*
X-991D02*
D03*
X-1188D02*
D03*
X-1385D02*
D03*
X-1582D02*
D03*
X1568Y7528D02*
D03*
Y9103D02*
D03*
Y9300D02*
D03*
Y9497D02*
D03*
X1371Y7528D02*
D03*
X-1385D02*
D03*
X-1582D02*
D03*
X1568Y7725D02*
D03*
X1371D02*
D03*
X-1385D02*
D03*
X-1582D02*
D03*
X1568Y7922D02*
D03*
X1371D02*
D03*
X-1385D02*
D03*
X-1582D02*
D03*
X1568Y8119D02*
D03*
X1371D02*
D03*
X-1385D02*
D03*
X-1582D02*
D03*
X1568Y8316D02*
D03*
X1371D02*
D03*
X-1385D02*
D03*
X-1582D02*
D03*
X1568Y8513D02*
D03*
X1371D02*
D03*
X-1385D02*
D03*
X-1582D02*
D03*
X1568Y8709D02*
D03*
X1371D02*
D03*
X-1385D02*
D03*
X1568Y8906D02*
D03*
X1371D02*
D03*
X-1385D02*
D03*
X-1582Y8709D02*
D03*
Y8906D02*
D03*
X1371Y9103D02*
D03*
X-1385D02*
D03*
X-1582D02*
D03*
X1371Y9300D02*
D03*
X1174D02*
D03*
X977D02*
D03*
X780D02*
D03*
X584D02*
D03*
X387D02*
D03*
X190D02*
D03*
X-7D02*
D03*
X-204D02*
D03*
X-401D02*
D03*
X-598D02*
D03*
X-794D02*
D03*
X-991D02*
D03*
X-1188D02*
D03*
X-1385D02*
D03*
X-1582D02*
D03*
X1371Y9497D02*
D03*
X1174D02*
D03*
X977D02*
D03*
X780D02*
D03*
X584D02*
D03*
X387D02*
D03*
X190D02*
D03*
X-7D02*
D03*
X-204D02*
D03*
X-401D02*
D03*
X-598D02*
D03*
X-794D02*
D03*
X-991D02*
D03*
X-1188D02*
D03*
X-1385D02*
D03*
X-1582D02*
D03*
D15*
X613Y5050D02*
D03*
X101D02*
D03*
X-937D02*
D03*
X-1449D02*
D03*
X1551D02*
D03*
X2063D02*
D03*
X-3708Y5383D02*
D03*
X-3196D02*
D03*
X2931Y7132D02*
D03*
X2419D02*
D03*
X2198Y6180D02*
D03*
X2710D02*
D03*
D16*
X1004Y3283D02*
D03*
X808D02*
D03*
X611D02*
D03*
X414D02*
D03*
X217D02*
D03*
X20D02*
D03*
X-177D02*
D03*
X-373D02*
D03*
X-570D02*
D03*
X-767D02*
D03*
X-964D02*
D03*
X-1161D02*
D03*
D17*
X3438Y10973D02*
D03*
X3241D02*
D03*
X3044D02*
D03*
X2847D02*
D03*
X2651D02*
D03*
X2454D02*
D03*
X2257D02*
D03*
X2060D02*
D03*
X1863D02*
D03*
X1666D02*
D03*
X1469D02*
D03*
X1273D02*
D03*
X1076D02*
D03*
X879D02*
D03*
X682D02*
D03*
X485D02*
D03*
X288D02*
D03*
X92D02*
D03*
X-105D02*
D03*
X-302D02*
D03*
X-499D02*
D03*
X-696D02*
D03*
X-893D02*
D03*
X-1090D02*
D03*
X-1286D02*
D03*
X-1483D02*
D03*
X-1680D02*
D03*
X-1877D02*
D03*
X-2074D02*
D03*
X-2271D02*
D03*
X-2468D02*
D03*
X-2664D02*
D03*
X-2861D02*
D03*
X-3058D02*
D03*
X-3255D02*
D03*
X-3452D02*
D03*
D18*
X4068Y11828D02*
D03*
X-4082D02*
D03*
D22*
X237Y2531D02*
D03*
X552D02*
D03*
X867D02*
D03*
X-1023D02*
D03*
X-708D02*
D03*
X-393D02*
D03*
X-551Y2807D02*
D03*
X-236D02*
D03*
X79D02*
D03*
X394D02*
D03*
X-1181D02*
D03*
X1024D02*
D03*
X-1496Y3063D02*
D03*
D23*
X1690Y843D02*
D03*
X-1846D02*
D03*
X1548Y2571D02*
D03*
X-1704D02*
D03*
D24*
X1339Y3063D02*
D03*
D25*
X-3029Y7332D02*
X-1582D01*
X-3708Y6652D02*
X-3029Y7332D01*
X-3708Y5383D02*
Y6652D01*
D26*
X-3740Y3110D02*
X-3708Y3143D01*
Y5383D01*
D27*
X-1089Y4528D02*
X-632D01*
X-1260Y4699D02*
X-1089Y4528D01*
X-1048Y4627D02*
X-591D01*
X-1161Y4740D02*
X-1048Y4627D01*
X-591D02*
X-452Y4488D01*
X-632Y4528D02*
X-551Y4447D01*
Y4347D02*
Y4447D01*
X-452Y4347D02*
Y4488D01*
X928Y6448D02*
X999Y6378D01*
X928Y6448D02*
Y7086D01*
X977Y7135D01*
X759Y6378D02*
X829Y6448D01*
Y7086D01*
X780Y7135D02*
X829Y7086D01*
X535Y6659D02*
X605Y6588D01*
X535Y6659D02*
Y7086D01*
X584Y7135D01*
X365Y6588D02*
X436Y6659D01*
Y7086D01*
X387Y7135D02*
X436Y7086D01*
X141Y6851D02*
X212Y6780D01*
X141Y6851D02*
Y7086D01*
X190Y7135D01*
X-28Y6780D02*
X42Y6851D01*
Y7086D01*
X-7Y7135D02*
X42Y7086D01*
X-13Y6038D02*
X1103D01*
X-353Y6378D02*
Y7087D01*
Y6378D02*
X-13Y6038D01*
X28Y6137D02*
X1144D01*
X-254Y6419D02*
Y7084D01*
Y6419D02*
X28Y6137D01*
X1144D02*
X1856Y5424D01*
X1103Y6038D02*
X1757Y5383D01*
X-1144Y5256D02*
X-937Y5050D01*
X-401Y7135D02*
X-353Y7087D01*
X-254Y7084D02*
X-204Y7135D01*
X1757Y5256D02*
Y5383D01*
X1551Y5050D02*
X1757Y5256D01*
X1856D02*
Y5424D01*
Y5256D02*
X2063Y5050D01*
X-100Y5584D02*
X-30Y5655D01*
X190D01*
X307Y5537D01*
Y5256D02*
Y5537D01*
X101Y5050D02*
X307Y5256D01*
X-100Y5824D02*
X-30Y5754D01*
X231D01*
X406Y5578D01*
Y5256D02*
Y5578D01*
Y5256D02*
X613Y5050D01*
X-1431Y4276D02*
X-1360Y4206D01*
Y4058D02*
Y4206D01*
Y4058D02*
X-915Y3613D01*
Y3332D02*
Y3613D01*
X-964Y3283D02*
X-915Y3332D01*
X-1261Y4206D02*
X-1191Y4276D01*
X-1261Y4099D02*
Y4206D01*
Y4099D02*
X-816Y3654D01*
Y3332D02*
Y3654D01*
Y3332D02*
X-767Y3283D01*
X168Y3747D02*
X407Y3986D01*
X20Y3283D02*
X69Y3332D01*
Y3788D02*
X308Y4027D01*
X168Y3333D02*
Y3747D01*
Y3333D02*
X217Y3283D01*
X69Y3332D02*
Y3788D01*
X407Y3986D02*
Y4206D01*
X477Y4276D01*
X308Y4027D02*
Y4206D01*
X237Y4276D02*
X308Y4206D01*
X407Y4347D02*
X477Y4276D01*
X407Y4347D02*
Y4844D01*
X237Y4276D02*
X308Y4347D01*
Y4843D01*
X101Y5050D02*
X308Y4843D01*
X407Y4844D02*
X613Y5050D01*
X-794Y1612D02*
X-724Y1542D01*
X-794Y1373D02*
X-724Y1443D01*
X-142D01*
X127Y1711D01*
X-183Y1542D02*
X28Y1752D01*
X-724Y1542D02*
X-183D01*
X1859Y4860D02*
X2049Y5050D01*
X1859Y4688D02*
Y4860D01*
X1701Y4531D02*
X1859Y4688D01*
X1296Y4531D02*
X1701D01*
X1174Y4409D02*
X1296Y4531D01*
X1174Y4347D02*
Y4409D01*
Y4347D02*
X1245Y4276D01*
X1570Y5050D02*
X1760Y4860D01*
Y4729D02*
Y4860D01*
X1660Y4630D02*
X1760Y4729D01*
X1255Y4630D02*
X1660D01*
X1075Y4450D02*
X1255Y4630D01*
X1075Y4347D02*
Y4450D01*
X1005Y4276D02*
X1075Y4347D01*
X1005Y4276D02*
X1075Y4206D01*
Y4068D02*
Y4206D01*
X1174D02*
X1245Y4276D01*
X1174Y4027D02*
Y4206D01*
X660Y3652D02*
X1075Y4068D01*
X759Y3611D02*
X1174Y4027D01*
X-1660Y5584D02*
X-1590Y5655D01*
X-1360D01*
X-1660Y5824D02*
X-1590Y5754D01*
X-1319D01*
X-1144Y5578D01*
Y5256D02*
Y5578D01*
X-1360Y5655D02*
X-1243Y5537D01*
Y5256D02*
Y5537D01*
X-1449Y5050D02*
X-1243Y5256D01*
X-1449Y5050D02*
X-1260Y4861D01*
Y4699D02*
Y4861D01*
X-621Y4276D02*
X-551Y4347D01*
X-971Y5050D02*
X-937D01*
X-1161Y4860D02*
X-971Y5050D01*
X-1161Y4740D02*
Y4860D01*
X-452Y4347D02*
X-381Y4276D01*
X-445Y3872D02*
X-226Y3652D01*
X-544Y3831D02*
X-325Y3611D01*
X-544Y3831D02*
Y4199D01*
X-621Y4276D02*
X-544Y4199D01*
X-445Y4212D02*
X-381Y4276D01*
X-445Y3872D02*
Y4212D01*
X660Y3332D02*
Y3652D01*
X611Y3283D02*
X660Y3332D01*
X-226D02*
Y3652D01*
Y3332D02*
X-177Y3283D01*
X28Y2756D02*
X79Y2807D01*
X28Y1752D02*
Y2756D01*
X759Y3332D02*
Y3611D01*
Y3332D02*
X808Y3283D01*
X-325Y3332D02*
Y3611D01*
X-373Y3283D02*
X-325Y3332D01*
X127Y2422D02*
X237Y2531D01*
X127Y1711D02*
Y2422D01*
D28*
X-7Y11828D02*
X92Y11729D01*
X-105D02*
X-7Y11828D01*
X-105Y10973D02*
Y11729D01*
X1863Y10973D02*
Y11828D01*
X92Y10973D02*
Y11729D01*
X-1877Y10973D02*
Y11828D01*
D29*
X3740Y3110D02*
D03*
X-3740D02*
D03*
D30*
X580Y7647D02*
D03*
X859D02*
D03*
X702Y8276D02*
D03*
X-3294Y6489D02*
D03*
X249Y7588D02*
D03*
X-263Y7587D02*
D03*
X141Y8296D02*
D03*
X430Y8170D02*
D03*
X-155Y8296D02*
D03*
X-444Y8170D02*
D03*
X2115Y7920D02*
D03*
X-853Y8513D02*
D03*
X-716Y8276D02*
D03*
X141Y9064D02*
D03*
Y8552D02*
D03*
Y8808D02*
D03*
X347Y7883D02*
D03*
X141Y8040D02*
D03*
X1036Y9005D02*
D03*
X674Y7946D02*
D03*
X840Y8513D02*
D03*
X899Y8749D02*
D03*
X1076Y8276D02*
D03*
X-594Y7647D02*
D03*
X-1090Y8276D02*
D03*
X-912Y8749D02*
D03*
X-688Y7946D02*
D03*
X-1050Y9005D02*
D03*
X-7Y7804D02*
D03*
X-155Y8040D02*
D03*
X-873Y7647D02*
D03*
X-361Y7883D02*
D03*
X-155Y8808D02*
D03*
Y8552D02*
D03*
Y9064D02*
D03*
X-794Y6780D02*
D03*
X999Y6378D02*
D03*
X759D02*
D03*
X605Y6588D02*
D03*
X365D02*
D03*
X212Y6780D02*
D03*
X-28D02*
D03*
X-100Y5584D02*
D03*
Y5824D02*
D03*
X-1431Y4276D02*
D03*
X-1191D02*
D03*
X-1704Y4081D02*
D03*
X477Y4276D02*
D03*
X237D02*
D03*
X-794Y1612D02*
D03*
Y1373D02*
D03*
X1005Y4276D02*
D03*
X1245D02*
D03*
X-1660Y5584D02*
D03*
Y5824D02*
D03*
X-381Y4276D02*
D03*
X-621D02*
D03*
X1863Y11828D02*
D03*
X-7D02*
D03*
X-1877D02*
D03*
X3290Y4276D02*
D03*
X-3294D02*
D03*
X-3108Y12600D02*
D03*
X-1036D02*
D03*
X1036D02*
D03*
X3108D02*
D03*
X4475Y5383D02*
D03*
X3290Y2061D02*
D03*
X4475Y954D02*
D03*
X-4475D02*
D03*
X-3294Y2061D02*
D03*
X-4475Y5383D02*
D03*
X4475Y7597D02*
D03*
Y9812D02*
D03*
X-4475Y7597D02*
D03*
Y9812D02*
D03*
X-2074Y4409D02*
D03*
X1955Y7332D02*
D03*
X3575Y7132D02*
D03*
X2710Y5585D02*
D03*
X1187Y6588D02*
D03*
X1538Y4081D02*
D03*
X-96D02*
D03*
X695D02*
D03*
X-915D02*
D03*
M02*
