G04*
G04 #@! TF.GenerationSoftware,Altium Limited,Altium Designer,25.8.1 (18)*
G04*
G04 Layer_Color=65535*
%FSLAX24Y24*%
%MOIN*%
G70*
G04*
G04 #@! TF.SameCoordinates,0B069E76-09E9-47D6-99B5-871596FF3947*
G04*
G04*
G04 #@! TF.FilePolarity,Positive*
G04*
G01*
G75*
%ADD10C,0.0050*%
%ADD11C,0.0098*%
%ADD12C,0.0079*%
%ADD13C,0.0080*%
G36*
X-1779Y9694D02*
Y9497D01*
X-1582Y9694D01*
X-1779D01*
D01*
D02*
G37*
D10*
X-1661Y9891D02*
G03*
X-1661Y9891I-118J0D01*
G01*
X-1779Y6938D02*
Y9694D01*
Y6938D02*
X1765D01*
Y9694D01*
X-1779D02*
X1765D01*
D11*
X-1121Y3988D02*
G03*
X-1121Y3988I-49J0D01*
G01*
D12*
X-194Y4794D02*
X908D01*
X-194Y5306D02*
X908D01*
Y4794D02*
Y5306D01*
X-194Y4794D02*
Y5306D01*
X-1744Y4794D02*
X-642D01*
X-1744Y5306D02*
X-642D01*
Y4794D02*
Y5306D01*
X-1744Y4794D02*
Y5306D01*
X1256Y5306D02*
X2358D01*
X1256Y4794D02*
X2358D01*
X1256D02*
Y5306D01*
X2358Y4794D02*
Y5306D01*
X-4003Y5639D02*
X-2901D01*
X-4003Y5127D02*
X-2901D01*
X-4003D02*
Y5639D01*
X-2901Y5127D02*
Y5639D01*
X-1879Y3014D02*
Y3791D01*
Y1285D02*
Y2128D01*
X1723Y3014D02*
Y3791D01*
Y1285D02*
Y2128D01*
X-1879Y3791D02*
X1723D01*
X-4731Y13119D02*
X4717D01*
X-4731Y10658D02*
X4717D01*
X-4731D02*
Y13119D01*
X4717Y10658D02*
Y13119D01*
X2124Y6876D02*
Y7387D01*
Y6876D02*
X3226D01*
X2124Y7387D02*
X3226D01*
Y6876D02*
Y7387D01*
X3005Y5924D02*
Y6436D01*
X1903D02*
X3005D01*
X1903Y5924D02*
X3005D01*
X1903D02*
Y6436D01*
D13*
X-4082Y10420D02*
X-4215D01*
X-4148D01*
Y10087D01*
X-4215Y10020D01*
X-4282D01*
X-4348Y10087D01*
X-3948Y10020D02*
X-3815D01*
X-3882D01*
Y10420D01*
X-3948Y10353D01*
X-2567Y9560D02*
Y9227D01*
X-2500Y9160D01*
X-2367D01*
X-2300Y9227D01*
Y9560D01*
X-2167Y9160D02*
X-2033D01*
X-2100D01*
Y9560D01*
X-2167Y9493D01*
X202Y5455D02*
Y5855D01*
X401D01*
X468Y5788D01*
Y5655D01*
X401Y5588D01*
X202D01*
X335D02*
X468Y5455D01*
X801D02*
Y5855D01*
X601Y5655D01*
X868D01*
X-1304Y5455D02*
Y5855D01*
X-1104D01*
X-1038Y5788D01*
Y5655D01*
X-1104Y5588D01*
X-1304D01*
X-1171D02*
X-1038Y5455D01*
X-904Y5788D02*
X-838Y5855D01*
X-704D01*
X-638Y5788D01*
Y5721D01*
X-704Y5655D01*
X-771D01*
X-704D01*
X-638Y5588D01*
Y5521D01*
X-704Y5455D01*
X-838D01*
X-904Y5521D01*
X1865Y4209D02*
Y4609D01*
X2065D01*
X2131Y4542D01*
Y4409D01*
X2065Y4342D01*
X1865D01*
X1998D02*
X2131Y4209D01*
X2531D02*
X2264D01*
X2531Y4475D01*
Y4542D01*
X2464Y4609D01*
X2331D01*
X2264Y4542D01*
X-3718Y5838D02*
Y6237D01*
X-3518D01*
X-3452Y6171D01*
Y6038D01*
X-3518Y5971D01*
X-3718D01*
X-3585D02*
X-3452Y5838D01*
X-3319D02*
X-3185D01*
X-3252D01*
Y6237D01*
X-3319Y6171D01*
X-2731Y4072D02*
X-2864D01*
X-2798D01*
Y3739D01*
X-2864Y3672D01*
X-2931D01*
X-2998Y3739D01*
X-2598Y4005D02*
X-2531Y4072D01*
X-2398D01*
X-2331Y4005D01*
Y3939D01*
X-2398Y3872D01*
X-2464D01*
X-2398D01*
X-2331Y3805D01*
Y3739D01*
X-2398Y3672D01*
X-2531D01*
X-2598Y3739D01*
X3993Y7333D02*
X3927Y7400D01*
X3793D01*
X3727Y7333D01*
Y7067D01*
X3793Y7000D01*
X3927D01*
X3993Y7067D01*
X4393Y7000D02*
X4127D01*
X4393Y7267D01*
Y7333D01*
X4327Y7400D01*
X4193D01*
X4127Y7333D01*
X3438Y6314D02*
X3371Y6380D01*
X3238D01*
X3171Y6314D01*
Y6047D01*
X3238Y5980D01*
X3371D01*
X3438Y6047D01*
X3571Y5980D02*
X3705D01*
X3638D01*
Y6380D01*
X3571Y6314D01*
M02*
