G04*
G04 #@! TF.GenerationSoftware,Altium Limited,Altium Designer,25.8.1 (18)*
G04*
G04 Layer_Color=8421504*
%FSLAX24Y24*%
%MOIN*%
G70*
G04*
G04 #@! TF.SameCoordinates,9AE8A2C5-6196-4BC8-9162-DC58875C59FE*
G04*
G04*
G04 #@! TF.FilePolarity,Positive*
G04*
G01*
G75*
%ADD10C,0.0079*%
%ADD11R,0.0138X0.0984*%
D10*
X945Y15138D02*
D03*
X630D02*
D03*
X472Y15295D02*
D03*
X1102D02*
D03*
Y15610D02*
D03*
X945Y15768D02*
D03*
X630D02*
D03*
X472Y15610D02*
D03*
Y15453D02*
D03*
X787Y15138D02*
D03*
X1102Y15453D02*
D03*
X787Y15768D02*
D03*
Y15453D02*
D03*
X630D02*
D03*
X787Y15610D02*
D03*
X945D02*
D03*
X630D02*
D03*
X787Y15295D02*
D03*
X945D02*
D03*
X630D02*
D03*
X945Y15453D02*
D03*
Y13169D02*
D03*
X630D02*
D03*
X472Y13327D02*
D03*
X1102D02*
D03*
Y13642D02*
D03*
X945Y13799D02*
D03*
X630D02*
D03*
X472Y13642D02*
D03*
Y13484D02*
D03*
X787Y13169D02*
D03*
X1102Y13484D02*
D03*
X787Y13799D02*
D03*
Y13484D02*
D03*
X630D02*
D03*
X787Y13642D02*
D03*
X945D02*
D03*
X630D02*
D03*
X787Y13327D02*
D03*
X945D02*
D03*
X630D02*
D03*
X945Y13484D02*
D03*
Y7264D02*
D03*
X630D02*
D03*
X472Y7421D02*
D03*
X1102D02*
D03*
Y7736D02*
D03*
X945Y7894D02*
D03*
X630D02*
D03*
X472Y7736D02*
D03*
Y7579D02*
D03*
X787Y7264D02*
D03*
X1102Y7579D02*
D03*
X787Y7894D02*
D03*
Y7579D02*
D03*
X630D02*
D03*
X787Y7736D02*
D03*
X945D02*
D03*
X630D02*
D03*
X787Y7421D02*
D03*
X945D02*
D03*
X630D02*
D03*
X945Y7579D02*
D03*
Y9232D02*
D03*
X630D02*
D03*
X472Y9390D02*
D03*
X1102D02*
D03*
Y9705D02*
D03*
X945Y9862D02*
D03*
X630D02*
D03*
X472Y9705D02*
D03*
Y9547D02*
D03*
X787Y9232D02*
D03*
X1102Y9547D02*
D03*
X787Y9862D02*
D03*
Y9547D02*
D03*
X630D02*
D03*
X787Y9705D02*
D03*
X945D02*
D03*
X630D02*
D03*
X787Y9390D02*
D03*
X945D02*
D03*
X630D02*
D03*
X945Y9547D02*
D03*
X6693Y13642D02*
D03*
X6850Y13327D02*
D03*
Y13642D02*
D03*
Y13484D02*
D03*
X6535Y13327D02*
D03*
Y13642D02*
D03*
Y13484D02*
D03*
X6693Y13327D02*
D03*
Y13484D02*
D03*
X6378D02*
D03*
X6693Y13799D02*
D03*
X7008Y13484D02*
D03*
X6693Y13169D02*
D03*
X6535D02*
D03*
X6378Y13327D02*
D03*
Y13642D02*
D03*
X6535Y13799D02*
D03*
X6850D02*
D03*
Y13169D02*
D03*
X7008Y13327D02*
D03*
Y13642D02*
D03*
X6850Y15453D02*
D03*
X6535Y15295D02*
D03*
X6850D02*
D03*
X6693D02*
D03*
X6535Y15610D02*
D03*
X6850D02*
D03*
X6693D02*
D03*
X6535Y15453D02*
D03*
X6693D02*
D03*
Y15768D02*
D03*
X7008Y15453D02*
D03*
X6693Y15138D02*
D03*
X6378Y15453D02*
D03*
Y15610D02*
D03*
X6535Y15768D02*
D03*
X6850D02*
D03*
X7008Y15610D02*
D03*
Y15295D02*
D03*
X6378D02*
D03*
X6535Y15138D02*
D03*
X6850D02*
D03*
X6693Y9705D02*
D03*
X6850Y9390D02*
D03*
Y9705D02*
D03*
Y9547D02*
D03*
X6535Y9390D02*
D03*
Y9705D02*
D03*
Y9547D02*
D03*
X6693Y9390D02*
D03*
Y9547D02*
D03*
X6378D02*
D03*
X6693Y9862D02*
D03*
X7008Y9547D02*
D03*
X6693Y9232D02*
D03*
X6535D02*
D03*
X6378Y9390D02*
D03*
Y9705D02*
D03*
X6535Y9862D02*
D03*
X6850D02*
D03*
Y9232D02*
D03*
X7008Y9390D02*
D03*
Y9705D02*
D03*
X6693Y7736D02*
D03*
X6850Y7421D02*
D03*
Y7736D02*
D03*
Y7579D02*
D03*
X6535Y7421D02*
D03*
Y7736D02*
D03*
Y7579D02*
D03*
X6693Y7421D02*
D03*
Y7579D02*
D03*
X6378D02*
D03*
X6693Y7894D02*
D03*
X7008Y7579D02*
D03*
X6693Y7264D02*
D03*
X6535D02*
D03*
X6378Y7421D02*
D03*
Y7736D02*
D03*
X6535Y7894D02*
D03*
X6850D02*
D03*
Y7264D02*
D03*
X7008Y7421D02*
D03*
Y7736D02*
D03*
X6693Y5768D02*
D03*
X6850Y5453D02*
D03*
Y5768D02*
D03*
Y5610D02*
D03*
X6535Y5453D02*
D03*
Y5768D02*
D03*
Y5610D02*
D03*
X6693Y5453D02*
D03*
Y5610D02*
D03*
X6378D02*
D03*
X6693Y5925D02*
D03*
X7008Y5610D02*
D03*
X6693Y5295D02*
D03*
X6535D02*
D03*
X6378Y5453D02*
D03*
Y5768D02*
D03*
X6535Y5925D02*
D03*
X6850D02*
D03*
Y5295D02*
D03*
X7008Y5453D02*
D03*
Y5768D02*
D03*
X6693Y3799D02*
D03*
X6850Y3484D02*
D03*
Y3799D02*
D03*
Y3642D02*
D03*
X6535Y3484D02*
D03*
Y3799D02*
D03*
Y3642D02*
D03*
X6693Y3484D02*
D03*
Y3642D02*
D03*
X6378D02*
D03*
X6693Y3957D02*
D03*
X7008Y3642D02*
D03*
X6693Y3327D02*
D03*
X6535D02*
D03*
X6378Y3484D02*
D03*
Y3799D02*
D03*
X6535Y3957D02*
D03*
X6850D02*
D03*
Y3327D02*
D03*
X7008Y3484D02*
D03*
Y3799D02*
D03*
X6693Y1831D02*
D03*
X6850Y1516D02*
D03*
Y1831D02*
D03*
Y1673D02*
D03*
X6535Y1516D02*
D03*
Y1831D02*
D03*
Y1673D02*
D03*
X6693Y1516D02*
D03*
Y1673D02*
D03*
X6378D02*
D03*
X6693Y1988D02*
D03*
X7008Y1673D02*
D03*
X6693Y1358D02*
D03*
X6535D02*
D03*
X6378Y1516D02*
D03*
Y1831D02*
D03*
X6535Y1988D02*
D03*
X6850D02*
D03*
Y1358D02*
D03*
X7008Y1516D02*
D03*
Y1831D02*
D03*
X4724D02*
D03*
X4882Y1516D02*
D03*
Y1831D02*
D03*
Y1673D02*
D03*
X4567Y1516D02*
D03*
Y1831D02*
D03*
Y1673D02*
D03*
X4724Y1516D02*
D03*
Y1673D02*
D03*
X4409D02*
D03*
X4724Y1988D02*
D03*
X5039Y1673D02*
D03*
X4724Y1358D02*
D03*
X4567D02*
D03*
X4409Y1516D02*
D03*
Y1831D02*
D03*
X4567Y1988D02*
D03*
X4882D02*
D03*
Y1358D02*
D03*
X5039Y1516D02*
D03*
Y1831D02*
D03*
X4724Y3799D02*
D03*
X4882Y3484D02*
D03*
Y3799D02*
D03*
Y3642D02*
D03*
X4567Y3484D02*
D03*
Y3799D02*
D03*
Y3642D02*
D03*
X4724Y3484D02*
D03*
Y3642D02*
D03*
X4409D02*
D03*
X4724Y3957D02*
D03*
X5039Y3642D02*
D03*
X4724Y3327D02*
D03*
X4567D02*
D03*
X4409Y3484D02*
D03*
Y3799D02*
D03*
X4567Y3957D02*
D03*
X4882D02*
D03*
Y3327D02*
D03*
X5039Y3484D02*
D03*
Y3799D02*
D03*
X6693Y11673D02*
D03*
X6850Y11358D02*
D03*
Y11673D02*
D03*
Y11516D02*
D03*
X6535Y11358D02*
D03*
Y11673D02*
D03*
Y11516D02*
D03*
X6693Y11358D02*
D03*
Y11516D02*
D03*
X6378D02*
D03*
X6693Y11831D02*
D03*
X7008Y11516D02*
D03*
X6693Y11201D02*
D03*
X6535D02*
D03*
X6378Y11358D02*
D03*
Y11673D02*
D03*
X6535Y11831D02*
D03*
X6850D02*
D03*
Y11201D02*
D03*
X7008Y11358D02*
D03*
Y11673D02*
D03*
X4724Y15610D02*
D03*
X4882Y15295D02*
D03*
Y15610D02*
D03*
Y15453D02*
D03*
X4567Y15295D02*
D03*
Y15610D02*
D03*
Y15453D02*
D03*
X4724Y15295D02*
D03*
Y15453D02*
D03*
X4409D02*
D03*
X4724Y15768D02*
D03*
X5039Y15453D02*
D03*
X4724Y15138D02*
D03*
X4567D02*
D03*
X4409Y15295D02*
D03*
Y15610D02*
D03*
X4567Y15768D02*
D03*
X4882D02*
D03*
Y15138D02*
D03*
X5039Y15295D02*
D03*
Y15610D02*
D03*
X4882Y13484D02*
D03*
X4567Y13327D02*
D03*
X4882D02*
D03*
X4724D02*
D03*
X4567Y13642D02*
D03*
X4882D02*
D03*
X4724D02*
D03*
X4567Y13484D02*
D03*
X4724D02*
D03*
Y13799D02*
D03*
X5039Y13484D02*
D03*
X4724Y13169D02*
D03*
X4409Y13484D02*
D03*
Y13642D02*
D03*
X4567Y13799D02*
D03*
X4882D02*
D03*
X5039Y13642D02*
D03*
Y13327D02*
D03*
X4409D02*
D03*
X4567Y13169D02*
D03*
X4882D02*
D03*
X4724Y11673D02*
D03*
X4882Y11358D02*
D03*
Y11673D02*
D03*
Y11516D02*
D03*
X4567Y11358D02*
D03*
Y11673D02*
D03*
Y11516D02*
D03*
X4724Y11358D02*
D03*
Y11516D02*
D03*
X4409D02*
D03*
X4724Y11831D02*
D03*
X5039Y11516D02*
D03*
X4724Y11201D02*
D03*
X4567D02*
D03*
X4409Y11358D02*
D03*
Y11673D02*
D03*
X4567Y11831D02*
D03*
X4882D02*
D03*
Y11201D02*
D03*
X5039Y11358D02*
D03*
Y11673D02*
D03*
X4882Y9547D02*
D03*
X4567Y9390D02*
D03*
X4882D02*
D03*
X4724D02*
D03*
X4567Y9705D02*
D03*
X4882D02*
D03*
X4724D02*
D03*
X4567Y9547D02*
D03*
X4724D02*
D03*
Y9862D02*
D03*
X5039Y9547D02*
D03*
X4724Y9232D02*
D03*
X4409Y9547D02*
D03*
Y9705D02*
D03*
X4567Y9862D02*
D03*
X4882D02*
D03*
X5039Y9705D02*
D03*
Y9390D02*
D03*
X4409D02*
D03*
X4567Y9232D02*
D03*
X4882D02*
D03*
Y7579D02*
D03*
X4567Y7421D02*
D03*
X4882D02*
D03*
X4724D02*
D03*
X4567Y7736D02*
D03*
X4882D02*
D03*
X4724D02*
D03*
X4567Y7579D02*
D03*
X4724D02*
D03*
Y7894D02*
D03*
X5039Y7579D02*
D03*
X4724Y7264D02*
D03*
X4409Y7579D02*
D03*
Y7736D02*
D03*
X4567Y7894D02*
D03*
X4882D02*
D03*
X5039Y7736D02*
D03*
Y7421D02*
D03*
X4409D02*
D03*
X4567Y7264D02*
D03*
X4882D02*
D03*
Y5610D02*
D03*
X4567Y5453D02*
D03*
X4882D02*
D03*
X4724D02*
D03*
X4567Y5768D02*
D03*
X4882D02*
D03*
X4724D02*
D03*
X4567Y5610D02*
D03*
X4724D02*
D03*
Y5925D02*
D03*
X5039Y5610D02*
D03*
X4724Y5295D02*
D03*
X4409Y5610D02*
D03*
Y5768D02*
D03*
X4567Y5925D02*
D03*
X4882D02*
D03*
X5039Y5768D02*
D03*
Y5453D02*
D03*
X4409D02*
D03*
X4567Y5295D02*
D03*
X4882D02*
D03*
X2913Y5610D02*
D03*
X2598Y5453D02*
D03*
X2913D02*
D03*
X2756D02*
D03*
X2598Y5768D02*
D03*
X2913D02*
D03*
X2756D02*
D03*
X2598Y5610D02*
D03*
X2756D02*
D03*
Y5925D02*
D03*
X3071Y5610D02*
D03*
X2756Y5295D02*
D03*
X2441Y5610D02*
D03*
Y5768D02*
D03*
X2598Y5925D02*
D03*
X2913D02*
D03*
X3071Y5768D02*
D03*
Y5453D02*
D03*
X2441D02*
D03*
X2598Y5295D02*
D03*
X2913D02*
D03*
Y7579D02*
D03*
X2598Y7421D02*
D03*
X2913D02*
D03*
X2756D02*
D03*
X2598Y7736D02*
D03*
X2913D02*
D03*
X2756D02*
D03*
X2598Y7579D02*
D03*
X2756D02*
D03*
Y7894D02*
D03*
X3071Y7579D02*
D03*
X2756Y7264D02*
D03*
X2441Y7579D02*
D03*
Y7736D02*
D03*
X2598Y7894D02*
D03*
X2913D02*
D03*
X3071Y7736D02*
D03*
Y7421D02*
D03*
X2441D02*
D03*
X2598Y7264D02*
D03*
X2913D02*
D03*
Y9547D02*
D03*
X2598Y9390D02*
D03*
X2913D02*
D03*
X2756D02*
D03*
X2598Y9705D02*
D03*
X2913D02*
D03*
X2756D02*
D03*
X2598Y9547D02*
D03*
X2756D02*
D03*
Y9862D02*
D03*
X3071Y9547D02*
D03*
X2756Y9232D02*
D03*
X2441Y9547D02*
D03*
Y9705D02*
D03*
X2598Y9862D02*
D03*
X2913D02*
D03*
X3071Y9705D02*
D03*
Y9390D02*
D03*
X2441D02*
D03*
X2598Y9232D02*
D03*
X2913D02*
D03*
Y11516D02*
D03*
X2598Y11358D02*
D03*
X2913D02*
D03*
X2756D02*
D03*
X2598Y11673D02*
D03*
X2913D02*
D03*
X2756D02*
D03*
X2598Y11516D02*
D03*
X2756D02*
D03*
Y11831D02*
D03*
X3071Y11516D02*
D03*
X2756Y11201D02*
D03*
X2441Y11516D02*
D03*
Y11673D02*
D03*
X2598Y11831D02*
D03*
X2913D02*
D03*
X3071Y11673D02*
D03*
Y11358D02*
D03*
X2441D02*
D03*
X2598Y11201D02*
D03*
X2913D02*
D03*
Y13484D02*
D03*
X2598Y13327D02*
D03*
X2913D02*
D03*
X2756D02*
D03*
X2598Y13642D02*
D03*
X2913D02*
D03*
X2756D02*
D03*
X2598Y13484D02*
D03*
X2756D02*
D03*
Y13799D02*
D03*
X3071Y13484D02*
D03*
X2756Y13169D02*
D03*
X2441Y13484D02*
D03*
Y13642D02*
D03*
X2598Y13799D02*
D03*
X2913D02*
D03*
X3071Y13642D02*
D03*
Y13327D02*
D03*
X2441D02*
D03*
X2598Y13169D02*
D03*
X2913D02*
D03*
Y15453D02*
D03*
X2598Y15295D02*
D03*
X2913D02*
D03*
X2756D02*
D03*
X2598Y15610D02*
D03*
X2913D02*
D03*
X2756D02*
D03*
X2598Y15453D02*
D03*
X2756D02*
D03*
Y15768D02*
D03*
X3071Y15453D02*
D03*
X2756Y15138D02*
D03*
X2441Y15453D02*
D03*
Y15610D02*
D03*
X2598Y15768D02*
D03*
X2913D02*
D03*
X3071Y15610D02*
D03*
Y15295D02*
D03*
X2441D02*
D03*
X2598Y15138D02*
D03*
X2913D02*
D03*
X945Y11516D02*
D03*
X630Y11358D02*
D03*
X945D02*
D03*
X787D02*
D03*
X630Y11673D02*
D03*
X945D02*
D03*
X787D02*
D03*
X630Y11516D02*
D03*
X787D02*
D03*
Y11831D02*
D03*
X1102Y11516D02*
D03*
X787Y11201D02*
D03*
X472Y11516D02*
D03*
Y11673D02*
D03*
X630Y11831D02*
D03*
X945D02*
D03*
X1102Y11673D02*
D03*
Y11358D02*
D03*
X472D02*
D03*
X630Y11201D02*
D03*
X945D02*
D03*
X2913Y3642D02*
D03*
X2598Y3484D02*
D03*
X2913D02*
D03*
X2756D02*
D03*
X2598Y3799D02*
D03*
X2913D02*
D03*
X2756D02*
D03*
X2598Y3642D02*
D03*
X2756D02*
D03*
Y3957D02*
D03*
X3071Y3642D02*
D03*
X2756Y3327D02*
D03*
X2441Y3642D02*
D03*
Y3799D02*
D03*
X2598Y3957D02*
D03*
X2913D02*
D03*
X3071Y3799D02*
D03*
Y3484D02*
D03*
X2441D02*
D03*
X2598Y3327D02*
D03*
X2913D02*
D03*
Y1673D02*
D03*
X2598Y1516D02*
D03*
X2913D02*
D03*
X2756D02*
D03*
X2598Y1831D02*
D03*
X2913D02*
D03*
X2756D02*
D03*
X2598Y1673D02*
D03*
X2756D02*
D03*
Y1988D02*
D03*
X3071Y1673D02*
D03*
X2756Y1358D02*
D03*
X2441Y1673D02*
D03*
Y1831D02*
D03*
X2598Y1988D02*
D03*
X2913D02*
D03*
X3071Y1831D02*
D03*
Y1516D02*
D03*
X2441D02*
D03*
X2598Y1358D02*
D03*
X2913D02*
D03*
X945Y1673D02*
D03*
X630Y1516D02*
D03*
X945D02*
D03*
X787D02*
D03*
X630Y1831D02*
D03*
X945D02*
D03*
X787D02*
D03*
X630Y1673D02*
D03*
X787D02*
D03*
Y1988D02*
D03*
X1102Y1673D02*
D03*
X787Y1358D02*
D03*
X472Y1673D02*
D03*
Y1831D02*
D03*
X630Y1988D02*
D03*
X945D02*
D03*
X1102Y1831D02*
D03*
Y1516D02*
D03*
X472D02*
D03*
X630Y1358D02*
D03*
X945D02*
D03*
Y3642D02*
D03*
X630Y3484D02*
D03*
X945D02*
D03*
X787D02*
D03*
X630Y3799D02*
D03*
X945D02*
D03*
X787D02*
D03*
X630Y3642D02*
D03*
X787D02*
D03*
Y3957D02*
D03*
X1102Y3642D02*
D03*
X787Y3327D02*
D03*
X472Y3642D02*
D03*
Y3799D02*
D03*
X630Y3957D02*
D03*
X945D02*
D03*
X1102Y3799D02*
D03*
Y3484D02*
D03*
X472D02*
D03*
X630Y3327D02*
D03*
X945D02*
D03*
Y5610D02*
D03*
X630Y5453D02*
D03*
X945D02*
D03*
X787D02*
D03*
X630Y5768D02*
D03*
X945D02*
D03*
X787D02*
D03*
X630Y5610D02*
D03*
X787D02*
D03*
Y5925D02*
D03*
X1102Y5610D02*
D03*
X787Y5295D02*
D03*
X472Y5610D02*
D03*
Y5768D02*
D03*
X630Y5925D02*
D03*
X945D02*
D03*
X1102Y5768D02*
D03*
Y5453D02*
D03*
X472D02*
D03*
X630Y5295D02*
D03*
X945D02*
D03*
D11*
X11122Y36122D02*
D03*
X10728D02*
D03*
X10532D02*
D03*
X10335D02*
D03*
X10925D02*
D03*
X10138D02*
D03*
X9941D02*
D03*
X9744D02*
D03*
X9547D02*
D03*
X9350D02*
D03*
X9154D02*
D03*
X8957D02*
D03*
X8760D02*
D03*
X8563D02*
D03*
X8366D02*
D03*
X8169D02*
D03*
X7972D02*
D03*
X7776D02*
D03*
X7579D02*
D03*
X7382D02*
D03*
X7185D02*
D03*
X6988D02*
D03*
X6791D02*
D03*
X6594D02*
D03*
X6398D02*
D03*
X6201D02*
D03*
X6004D02*
D03*
X5807D02*
D03*
X5610D02*
D03*
X5413D02*
D03*
X5217D02*
D03*
X5020D02*
D03*
X4823D02*
D03*
X4626D02*
D03*
X4429D02*
D03*
X4232D02*
D03*
M02*
