G04*
G04 #@! TF.GenerationSoftware,Altium Limited,Altium Designer,25.8.1 (18)*
G04*
G04 Layer_Physical_Order=1*
G04 Layer_Color=255*
%FSLAX24Y24*%
%MOIN*%
G70*
G04*
G04 #@! TF.SameCoordinates,9AE8A2C5-6196-4BC8-9162-DC58875C59FE*
G04*
G04*
G04 #@! TF.FilePolarity,Positive*
G04*
G01*
G75*
%ADD10C,0.0079*%
%ADD11R,0.0138X0.0984*%
%ADD14C,0.0040*%
%ADD15C,0.0180*%
G36*
X931Y2146D02*
X1021Y2109D01*
X1101Y2055D01*
X1170Y1987D01*
X1224Y1906D01*
X1261Y1817D01*
X1280Y1722D01*
Y1673D01*
Y1625D01*
X1261Y1530D01*
X1224Y1440D01*
X1170Y1360D01*
X1101Y1291D01*
X1021Y1237D01*
X931Y1200D01*
X836Y1181D01*
X739D01*
X644Y1200D01*
X554Y1237D01*
X474Y1291D01*
X405Y1360D01*
X351Y1440D01*
X314Y1530D01*
X295Y1625D01*
Y1673D01*
Y1722D01*
X314Y1817D01*
X351Y1906D01*
X405Y1987D01*
X474Y2055D01*
X554Y2109D01*
X644Y2146D01*
X739Y2165D01*
X836D01*
X931Y2146D01*
D02*
G37*
G36*
Y4115D02*
X1021Y4078D01*
X1101Y4024D01*
X1170Y3955D01*
X1224Y3875D01*
X1261Y3785D01*
X1280Y3690D01*
Y3642D01*
Y3593D01*
X1261Y3498D01*
X1224Y3409D01*
X1170Y3328D01*
X1101Y3259D01*
X1021Y3206D01*
X931Y3169D01*
X836Y3150D01*
X739D01*
X644Y3169D01*
X554Y3206D01*
X474Y3259D01*
X405Y3328D01*
X351Y3409D01*
X314Y3498D01*
X295Y3593D01*
Y3642D01*
Y3690D01*
X314Y3785D01*
X351Y3875D01*
X405Y3955D01*
X474Y4024D01*
X554Y4078D01*
X644Y4115D01*
X739Y4134D01*
X836D01*
X931Y4115D01*
D02*
G37*
G36*
X2899Y2146D02*
X2989Y2109D01*
X3070Y2055D01*
X3138Y1987D01*
X3192Y1906D01*
X3229Y1817D01*
X3248Y1722D01*
Y1673D01*
Y1625D01*
X3229Y1530D01*
X3192Y1440D01*
X3138Y1360D01*
X3070Y1291D01*
X2989Y1237D01*
X2899Y1200D01*
X2804Y1181D01*
X2707D01*
X2612Y1200D01*
X2523Y1237D01*
X2442Y1291D01*
X2374Y1360D01*
X2320Y1440D01*
X2283Y1530D01*
X2264Y1625D01*
Y1673D01*
Y1722D01*
X2283Y1817D01*
X2320Y1906D01*
X2374Y1987D01*
X2442Y2055D01*
X2523Y2109D01*
X2612Y2146D01*
X2707Y2165D01*
X2804D01*
X2899Y2146D01*
D02*
G37*
G36*
Y4115D02*
X2989Y4078D01*
X3070Y4024D01*
X3138Y3955D01*
X3192Y3875D01*
X3229Y3785D01*
X3248Y3690D01*
Y3642D01*
Y3593D01*
X3229Y3498D01*
X3192Y3409D01*
X3138Y3328D01*
X3070Y3259D01*
X2989Y3206D01*
X2899Y3169D01*
X2804Y3150D01*
X2707D01*
X2612Y3169D01*
X2523Y3206D01*
X2442Y3259D01*
X2374Y3328D01*
X2320Y3409D01*
X2283Y3498D01*
X2264Y3593D01*
Y3642D01*
Y3690D01*
X2283Y3785D01*
X2320Y3875D01*
X2374Y3955D01*
X2442Y4024D01*
X2523Y4078D01*
X2612Y4115D01*
X2707Y4134D01*
X2804D01*
X2899Y4115D01*
D02*
G37*
G36*
X4868Y2146D02*
X4958Y2109D01*
X5038Y2055D01*
X5107Y1987D01*
X5161Y1906D01*
X5198Y1817D01*
X5217Y1722D01*
Y1673D01*
Y1625D01*
X5198Y1530D01*
X5161Y1440D01*
X5107Y1360D01*
X5038Y1291D01*
X4958Y1237D01*
X4868Y1200D01*
X4773Y1181D01*
X4676D01*
X4581Y1200D01*
X4491Y1237D01*
X4411Y1291D01*
X4342Y1360D01*
X4288Y1440D01*
X4251Y1530D01*
X4232Y1625D01*
Y1673D01*
Y1722D01*
X4251Y1817D01*
X4288Y1906D01*
X4342Y1987D01*
X4411Y2055D01*
X4491Y2109D01*
X4581Y2146D01*
X4676Y2165D01*
X4773D01*
X4868Y2146D01*
D02*
G37*
G36*
Y4115D02*
X4958Y4078D01*
X5038Y4024D01*
X5107Y3955D01*
X5161Y3875D01*
X5198Y3785D01*
X5217Y3690D01*
Y3642D01*
Y3593D01*
X5198Y3498D01*
X5161Y3409D01*
X5107Y3328D01*
X5038Y3259D01*
X4958Y3206D01*
X4868Y3169D01*
X4773Y3150D01*
X4676D01*
X4581Y3169D01*
X4491Y3206D01*
X4411Y3259D01*
X4342Y3328D01*
X4288Y3409D01*
X4251Y3498D01*
X4232Y3593D01*
Y3642D01*
Y3690D01*
X4251Y3785D01*
X4288Y3875D01*
X4342Y3955D01*
X4411Y4024D01*
X4491Y4078D01*
X4581Y4115D01*
X4676Y4134D01*
X4773D01*
X4868Y4115D01*
D02*
G37*
G36*
X6836Y2146D02*
X6926Y2109D01*
X7007Y2055D01*
X7075Y1987D01*
X7129Y1906D01*
X7166Y1817D01*
X7185Y1722D01*
Y1673D01*
Y1625D01*
X7166Y1530D01*
X7129Y1440D01*
X7075Y1360D01*
X7007Y1291D01*
X6926Y1237D01*
X6836Y1200D01*
X6741Y1181D01*
X6644D01*
X6549Y1200D01*
X6460Y1237D01*
X6379Y1291D01*
X6311Y1360D01*
X6257Y1440D01*
X6220Y1530D01*
X6201Y1625D01*
Y1673D01*
Y1722D01*
X6220Y1817D01*
X6257Y1906D01*
X6311Y1987D01*
X6379Y2055D01*
X6460Y2109D01*
X6549Y2146D01*
X6644Y2165D01*
X6741D01*
X6836Y2146D01*
D02*
G37*
G36*
Y4115D02*
X6926Y4078D01*
X7007Y4024D01*
X7075Y3955D01*
X7129Y3875D01*
X7166Y3785D01*
X7185Y3690D01*
Y3642D01*
Y3593D01*
X7166Y3498D01*
X7129Y3409D01*
X7075Y3328D01*
X7007Y3259D01*
X6926Y3206D01*
X6836Y3169D01*
X6741Y3150D01*
X6644D01*
X6549Y3169D01*
X6460Y3206D01*
X6379Y3259D01*
X6311Y3328D01*
X6257Y3409D01*
X6220Y3498D01*
X6201Y3593D01*
Y3642D01*
Y3690D01*
X6220Y3785D01*
X6257Y3875D01*
X6311Y3955D01*
X6379Y4024D01*
X6460Y4078D01*
X6549Y4115D01*
X6644Y4134D01*
X6741D01*
X6836Y4115D01*
D02*
G37*
G36*
X931Y6083D02*
X1021Y6046D01*
X1101Y5993D01*
X1170Y5924D01*
X1224Y5843D01*
X1261Y5754D01*
X1280Y5659D01*
Y5610D01*
Y5562D01*
X1261Y5467D01*
X1224Y5377D01*
X1170Y5297D01*
X1101Y5228D01*
X1021Y5174D01*
X931Y5137D01*
X836Y5118D01*
X739D01*
X644Y5137D01*
X554Y5174D01*
X474Y5228D01*
X405Y5297D01*
X351Y5377D01*
X314Y5467D01*
X295Y5562D01*
Y5610D01*
Y5659D01*
X314Y5754D01*
X351Y5843D01*
X405Y5924D01*
X474Y5993D01*
X554Y6046D01*
X644Y6083D01*
X739Y6102D01*
X836D01*
X931Y6083D01*
D02*
G37*
G36*
Y8052D02*
X1021Y8015D01*
X1101Y7961D01*
X1170Y7892D01*
X1224Y7812D01*
X1261Y7722D01*
X1280Y7627D01*
Y7579D01*
Y7530D01*
X1261Y7435D01*
X1224Y7346D01*
X1170Y7265D01*
X1101Y7196D01*
X1021Y7143D01*
X931Y7106D01*
X836Y7087D01*
X739D01*
X644Y7106D01*
X554Y7143D01*
X474Y7196D01*
X405Y7265D01*
X351Y7346D01*
X314Y7435D01*
X295Y7530D01*
Y7579D01*
Y7627D01*
X314Y7722D01*
X351Y7812D01*
X405Y7892D01*
X474Y7961D01*
X554Y8015D01*
X644Y8052D01*
X739Y8071D01*
X836D01*
X931Y8052D01*
D02*
G37*
G36*
X2899Y6083D02*
X2989Y6046D01*
X3070Y5993D01*
X3138Y5924D01*
X3192Y5843D01*
X3229Y5754D01*
X3248Y5659D01*
Y5610D01*
Y5562D01*
X3229Y5467D01*
X3192Y5377D01*
X3138Y5297D01*
X3070Y5228D01*
X2989Y5174D01*
X2899Y5137D01*
X2804Y5118D01*
X2707D01*
X2612Y5137D01*
X2523Y5174D01*
X2442Y5228D01*
X2374Y5297D01*
X2320Y5377D01*
X2283Y5467D01*
X2264Y5562D01*
Y5610D01*
Y5659D01*
X2283Y5754D01*
X2320Y5843D01*
X2374Y5924D01*
X2442Y5993D01*
X2523Y6046D01*
X2612Y6083D01*
X2707Y6102D01*
X2804D01*
X2899Y6083D01*
D02*
G37*
G36*
Y8052D02*
X2989Y8015D01*
X3070Y7961D01*
X3138Y7892D01*
X3192Y7812D01*
X3229Y7722D01*
X3248Y7627D01*
Y7579D01*
Y7530D01*
X3229Y7435D01*
X3192Y7346D01*
X3138Y7265D01*
X3070Y7196D01*
X2989Y7143D01*
X2899Y7106D01*
X2804Y7087D01*
X2707D01*
X2612Y7106D01*
X2523Y7143D01*
X2442Y7196D01*
X2374Y7265D01*
X2320Y7346D01*
X2283Y7435D01*
X2264Y7530D01*
Y7579D01*
Y7627D01*
X2283Y7722D01*
X2320Y7812D01*
X2374Y7892D01*
X2442Y7961D01*
X2523Y8015D01*
X2612Y8052D01*
X2707Y8071D01*
X2804D01*
X2899Y8052D01*
D02*
G37*
G36*
X4868Y6083D02*
X4958Y6046D01*
X5038Y5993D01*
X5107Y5924D01*
X5161Y5843D01*
X5198Y5754D01*
X5217Y5659D01*
Y5610D01*
Y5562D01*
X5198Y5467D01*
X5161Y5377D01*
X5107Y5297D01*
X5038Y5228D01*
X4958Y5174D01*
X4868Y5137D01*
X4773Y5118D01*
X4676D01*
X4581Y5137D01*
X4491Y5174D01*
X4411Y5228D01*
X4342Y5297D01*
X4288Y5377D01*
X4251Y5467D01*
X4232Y5562D01*
Y5610D01*
Y5659D01*
X4251Y5754D01*
X4288Y5843D01*
X4342Y5924D01*
X4411Y5993D01*
X4491Y6046D01*
X4581Y6083D01*
X4676Y6102D01*
X4773D01*
X4868Y6083D01*
D02*
G37*
G36*
Y8052D02*
X4958Y8015D01*
X5038Y7961D01*
X5107Y7892D01*
X5161Y7812D01*
X5198Y7722D01*
X5217Y7627D01*
Y7579D01*
Y7530D01*
X5198Y7435D01*
X5161Y7346D01*
X5107Y7265D01*
X5038Y7196D01*
X4958Y7143D01*
X4868Y7106D01*
X4773Y7087D01*
X4676D01*
X4581Y7106D01*
X4491Y7143D01*
X4411Y7196D01*
X4342Y7265D01*
X4288Y7346D01*
X4251Y7435D01*
X4232Y7530D01*
Y7579D01*
Y7627D01*
X4251Y7722D01*
X4288Y7812D01*
X4342Y7892D01*
X4411Y7961D01*
X4491Y8015D01*
X4581Y8052D01*
X4676Y8071D01*
X4773D01*
X4868Y8052D01*
D02*
G37*
G36*
X6836Y6083D02*
X6926Y6046D01*
X7007Y5993D01*
X7075Y5924D01*
X7129Y5843D01*
X7166Y5754D01*
X7185Y5659D01*
Y5610D01*
Y5562D01*
X7166Y5467D01*
X7129Y5377D01*
X7075Y5297D01*
X7007Y5228D01*
X6926Y5174D01*
X6836Y5137D01*
X6741Y5118D01*
X6644D01*
X6549Y5137D01*
X6460Y5174D01*
X6379Y5228D01*
X6311Y5297D01*
X6257Y5377D01*
X6220Y5467D01*
X6201Y5562D01*
Y5610D01*
Y5659D01*
X6220Y5754D01*
X6257Y5843D01*
X6311Y5924D01*
X6379Y5993D01*
X6460Y6046D01*
X6549Y6083D01*
X6644Y6102D01*
X6741D01*
X6836Y6083D01*
D02*
G37*
G36*
Y8052D02*
X6926Y8015D01*
X7007Y7961D01*
X7075Y7892D01*
X7129Y7812D01*
X7166Y7722D01*
X7185Y7627D01*
Y7579D01*
Y7530D01*
X7166Y7435D01*
X7129Y7346D01*
X7075Y7265D01*
X7007Y7196D01*
X6926Y7143D01*
X6836Y7106D01*
X6741Y7087D01*
X6644D01*
X6549Y7106D01*
X6460Y7143D01*
X6379Y7196D01*
X6311Y7265D01*
X6257Y7346D01*
X6220Y7435D01*
X6201Y7530D01*
Y7579D01*
Y7627D01*
X6220Y7722D01*
X6257Y7812D01*
X6311Y7892D01*
X6379Y7961D01*
X6460Y8015D01*
X6549Y8052D01*
X6644Y8071D01*
X6741D01*
X6836Y8052D01*
D02*
G37*
G36*
X931Y10020D02*
X1021Y9983D01*
X1101Y9930D01*
X1170Y9861D01*
X1224Y9780D01*
X1261Y9691D01*
X1280Y9596D01*
Y9547D01*
Y9499D01*
X1261Y9404D01*
X1224Y9314D01*
X1170Y9234D01*
X1101Y9165D01*
X1021Y9111D01*
X931Y9074D01*
X836Y9055D01*
X739D01*
X644Y9074D01*
X554Y9111D01*
X474Y9165D01*
X405Y9234D01*
X351Y9314D01*
X314Y9404D01*
X295Y9499D01*
Y9547D01*
Y9596D01*
X314Y9691D01*
X351Y9780D01*
X405Y9861D01*
X474Y9930D01*
X554Y9983D01*
X644Y10020D01*
X739Y10039D01*
X836D01*
X931Y10020D01*
D02*
G37*
G36*
Y11989D02*
X1021Y11952D01*
X1101Y11898D01*
X1170Y11829D01*
X1224Y11749D01*
X1261Y11659D01*
X1280Y11564D01*
Y11516D01*
Y11467D01*
X1261Y11372D01*
X1224Y11283D01*
X1170Y11202D01*
X1101Y11133D01*
X1021Y11080D01*
X931Y11043D01*
X836Y11024D01*
X739D01*
X644Y11043D01*
X554Y11080D01*
X474Y11133D01*
X405Y11202D01*
X351Y11283D01*
X314Y11372D01*
X295Y11467D01*
Y11516D01*
Y11564D01*
X314Y11659D01*
X351Y11749D01*
X405Y11829D01*
X474Y11898D01*
X554Y11952D01*
X644Y11989D01*
X739Y12008D01*
X836D01*
X931Y11989D01*
D02*
G37*
G36*
X2899Y10020D02*
X2989Y9983D01*
X3070Y9930D01*
X3138Y9861D01*
X3192Y9780D01*
X3229Y9691D01*
X3248Y9596D01*
Y9547D01*
Y9499D01*
X3229Y9404D01*
X3192Y9314D01*
X3138Y9234D01*
X3070Y9165D01*
X2989Y9111D01*
X2899Y9074D01*
X2804Y9055D01*
X2707D01*
X2612Y9074D01*
X2523Y9111D01*
X2442Y9165D01*
X2374Y9234D01*
X2320Y9314D01*
X2283Y9404D01*
X2264Y9499D01*
Y9547D01*
Y9596D01*
X2283Y9691D01*
X2320Y9780D01*
X2374Y9861D01*
X2442Y9930D01*
X2523Y9983D01*
X2612Y10020D01*
X2707Y10039D01*
X2804D01*
X2899Y10020D01*
D02*
G37*
G36*
Y11989D02*
X2989Y11952D01*
X3070Y11898D01*
X3138Y11829D01*
X3192Y11749D01*
X3229Y11659D01*
X3248Y11564D01*
Y11516D01*
Y11467D01*
X3229Y11372D01*
X3192Y11283D01*
X3138Y11202D01*
X3070Y11133D01*
X2989Y11080D01*
X2899Y11043D01*
X2804Y11024D01*
X2707D01*
X2612Y11043D01*
X2523Y11080D01*
X2442Y11133D01*
X2374Y11202D01*
X2320Y11283D01*
X2283Y11372D01*
X2264Y11467D01*
Y11516D01*
Y11564D01*
X2283Y11659D01*
X2320Y11749D01*
X2374Y11829D01*
X2442Y11898D01*
X2523Y11952D01*
X2612Y11989D01*
X2707Y12008D01*
X2804D01*
X2899Y11989D01*
D02*
G37*
G36*
X4868Y10020D02*
X4958Y9983D01*
X5038Y9930D01*
X5107Y9861D01*
X5161Y9780D01*
X5198Y9691D01*
X5217Y9596D01*
Y9547D01*
Y9499D01*
X5198Y9404D01*
X5161Y9314D01*
X5107Y9234D01*
X5038Y9165D01*
X4958Y9111D01*
X4868Y9074D01*
X4773Y9055D01*
X4676D01*
X4581Y9074D01*
X4491Y9111D01*
X4411Y9165D01*
X4342Y9234D01*
X4288Y9314D01*
X4251Y9404D01*
X4232Y9499D01*
Y9547D01*
Y9596D01*
X4251Y9691D01*
X4288Y9780D01*
X4342Y9861D01*
X4411Y9930D01*
X4491Y9983D01*
X4581Y10020D01*
X4676Y10039D01*
X4773D01*
X4868Y10020D01*
D02*
G37*
G36*
Y11989D02*
X4958Y11952D01*
X5038Y11898D01*
X5107Y11829D01*
X5161Y11749D01*
X5198Y11659D01*
X5217Y11564D01*
Y11516D01*
Y11467D01*
X5198Y11372D01*
X5161Y11283D01*
X5107Y11202D01*
X5038Y11133D01*
X4958Y11080D01*
X4868Y11043D01*
X4773Y11024D01*
X4676D01*
X4581Y11043D01*
X4491Y11080D01*
X4411Y11133D01*
X4342Y11202D01*
X4288Y11283D01*
X4251Y11372D01*
X4232Y11467D01*
Y11516D01*
Y11564D01*
X4251Y11659D01*
X4288Y11749D01*
X4342Y11829D01*
X4411Y11898D01*
X4491Y11952D01*
X4581Y11989D01*
X4676Y12008D01*
X4773D01*
X4868Y11989D01*
D02*
G37*
G36*
X6836Y10020D02*
X6926Y9983D01*
X7007Y9930D01*
X7075Y9861D01*
X7129Y9780D01*
X7166Y9691D01*
X7185Y9596D01*
Y9547D01*
Y9499D01*
X7166Y9404D01*
X7129Y9314D01*
X7075Y9234D01*
X7007Y9165D01*
X6926Y9111D01*
X6836Y9074D01*
X6741Y9055D01*
X6644D01*
X6549Y9074D01*
X6460Y9111D01*
X6379Y9165D01*
X6311Y9234D01*
X6257Y9314D01*
X6220Y9404D01*
X6201Y9499D01*
Y9547D01*
Y9596D01*
X6220Y9691D01*
X6257Y9780D01*
X6311Y9861D01*
X6379Y9930D01*
X6460Y9983D01*
X6549Y10020D01*
X6644Y10039D01*
X6741D01*
X6836Y10020D01*
D02*
G37*
G36*
Y11989D02*
X6926Y11952D01*
X7007Y11898D01*
X7075Y11829D01*
X7129Y11749D01*
X7166Y11659D01*
X7185Y11564D01*
Y11516D01*
Y11467D01*
X7166Y11372D01*
X7129Y11283D01*
X7075Y11202D01*
X7007Y11133D01*
X6926Y11080D01*
X6836Y11043D01*
X6741Y11024D01*
X6644D01*
X6549Y11043D01*
X6460Y11080D01*
X6379Y11133D01*
X6311Y11202D01*
X6257Y11283D01*
X6220Y11372D01*
X6201Y11467D01*
Y11516D01*
Y11564D01*
X6220Y11659D01*
X6257Y11749D01*
X6311Y11829D01*
X6379Y11898D01*
X6460Y11952D01*
X6549Y11989D01*
X6644Y12008D01*
X6741D01*
X6836Y11989D01*
D02*
G37*
G36*
X931Y13957D02*
X1021Y13920D01*
X1101Y13867D01*
X1170Y13798D01*
X1224Y13717D01*
X1261Y13628D01*
X1280Y13533D01*
Y13484D01*
Y13436D01*
X1261Y13341D01*
X1224Y13251D01*
X1170Y13171D01*
X1101Y13102D01*
X1021Y13048D01*
X931Y13011D01*
X836Y12992D01*
X739D01*
X644Y13011D01*
X554Y13048D01*
X474Y13102D01*
X405Y13171D01*
X351Y13251D01*
X314Y13341D01*
X295Y13436D01*
Y13484D01*
Y13533D01*
X314Y13628D01*
X351Y13717D01*
X405Y13798D01*
X474Y13867D01*
X554Y13920D01*
X644Y13957D01*
X739Y13976D01*
X836D01*
X931Y13957D01*
D02*
G37*
G36*
Y15926D02*
X1021Y15889D01*
X1101Y15835D01*
X1170Y15766D01*
X1224Y15686D01*
X1261Y15596D01*
X1280Y15501D01*
Y15453D01*
Y15404D01*
X1261Y15309D01*
X1224Y15220D01*
X1170Y15139D01*
X1101Y15071D01*
X1021Y15017D01*
X931Y14980D01*
X836Y14961D01*
X739D01*
X644Y14980D01*
X554Y15017D01*
X474Y15071D01*
X405Y15139D01*
X351Y15220D01*
X314Y15309D01*
X295Y15404D01*
Y15453D01*
Y15501D01*
X314Y15596D01*
X351Y15686D01*
X405Y15766D01*
X474Y15835D01*
X554Y15889D01*
X644Y15926D01*
X739Y15945D01*
X836D01*
X931Y15926D01*
D02*
G37*
G36*
X2899Y13957D02*
X2989Y13920D01*
X3070Y13867D01*
X3138Y13798D01*
X3192Y13717D01*
X3229Y13628D01*
X3248Y13533D01*
Y13484D01*
Y13436D01*
X3229Y13341D01*
X3192Y13251D01*
X3138Y13171D01*
X3070Y13102D01*
X2989Y13048D01*
X2899Y13011D01*
X2804Y12992D01*
X2707D01*
X2612Y13011D01*
X2523Y13048D01*
X2442Y13102D01*
X2374Y13171D01*
X2320Y13251D01*
X2283Y13341D01*
X2264Y13436D01*
Y13484D01*
Y13533D01*
X2283Y13628D01*
X2320Y13717D01*
X2374Y13798D01*
X2442Y13867D01*
X2523Y13920D01*
X2612Y13957D01*
X2707Y13976D01*
X2804D01*
X2899Y13957D01*
D02*
G37*
G36*
Y15926D02*
X2989Y15889D01*
X3070Y15835D01*
X3138Y15766D01*
X3192Y15686D01*
X3229Y15596D01*
X3248Y15501D01*
Y15453D01*
Y15404D01*
X3229Y15309D01*
X3192Y15220D01*
X3138Y15139D01*
X3070Y15071D01*
X2989Y15017D01*
X2899Y14980D01*
X2804Y14961D01*
X2707D01*
X2612Y14980D01*
X2523Y15017D01*
X2442Y15071D01*
X2374Y15139D01*
X2320Y15220D01*
X2283Y15309D01*
X2264Y15404D01*
Y15453D01*
Y15501D01*
X2283Y15596D01*
X2320Y15686D01*
X2374Y15766D01*
X2442Y15835D01*
X2523Y15889D01*
X2612Y15926D01*
X2707Y15945D01*
X2804D01*
X2899Y15926D01*
D02*
G37*
G36*
X4868Y13957D02*
X4958Y13920D01*
X5038Y13867D01*
X5107Y13798D01*
X5161Y13717D01*
X5198Y13628D01*
X5217Y13533D01*
Y13484D01*
Y13436D01*
X5198Y13341D01*
X5161Y13251D01*
X5107Y13171D01*
X5038Y13102D01*
X4958Y13048D01*
X4868Y13011D01*
X4773Y12992D01*
X4676D01*
X4581Y13011D01*
X4491Y13048D01*
X4411Y13102D01*
X4342Y13171D01*
X4288Y13251D01*
X4251Y13341D01*
X4232Y13436D01*
Y13484D01*
Y13533D01*
X4251Y13628D01*
X4288Y13717D01*
X4342Y13798D01*
X4411Y13867D01*
X4491Y13920D01*
X4581Y13957D01*
X4676Y13976D01*
X4773D01*
X4868Y13957D01*
D02*
G37*
G36*
Y15926D02*
X4958Y15889D01*
X5038Y15835D01*
X5107Y15766D01*
X5161Y15686D01*
X5198Y15596D01*
X5217Y15501D01*
Y15453D01*
Y15404D01*
X5198Y15309D01*
X5161Y15220D01*
X5107Y15139D01*
X5038Y15071D01*
X4958Y15017D01*
X4868Y14980D01*
X4773Y14961D01*
X4676D01*
X4581Y14980D01*
X4491Y15017D01*
X4411Y15071D01*
X4342Y15139D01*
X4288Y15220D01*
X4251Y15309D01*
X4232Y15404D01*
Y15453D01*
Y15501D01*
X4251Y15596D01*
X4288Y15686D01*
X4342Y15766D01*
X4411Y15835D01*
X4491Y15889D01*
X4581Y15926D01*
X4676Y15945D01*
X4773D01*
X4868Y15926D01*
D02*
G37*
G36*
X6836Y13957D02*
X6926Y13920D01*
X7007Y13867D01*
X7075Y13798D01*
X7129Y13717D01*
X7166Y13628D01*
X7185Y13533D01*
Y13484D01*
Y13436D01*
X7166Y13341D01*
X7129Y13251D01*
X7075Y13171D01*
X7007Y13102D01*
X6926Y13048D01*
X6836Y13011D01*
X6741Y12992D01*
X6644D01*
X6549Y13011D01*
X6460Y13048D01*
X6379Y13102D01*
X6311Y13171D01*
X6257Y13251D01*
X6220Y13341D01*
X6201Y13436D01*
Y13484D01*
Y13533D01*
X6220Y13628D01*
X6257Y13717D01*
X6311Y13798D01*
X6379Y13867D01*
X6460Y13920D01*
X6549Y13957D01*
X6644Y13976D01*
X6741D01*
X6836Y13957D01*
D02*
G37*
G36*
Y15926D02*
X6926Y15889D01*
X7007Y15835D01*
X7075Y15766D01*
X7129Y15686D01*
X7166Y15596D01*
X7185Y15501D01*
Y15453D01*
Y15404D01*
X7166Y15309D01*
X7129Y15220D01*
X7075Y15139D01*
X7007Y15071D01*
X6926Y15017D01*
X6836Y14980D01*
X6741Y14961D01*
X6644D01*
X6549Y14980D01*
X6460Y15017D01*
X6379Y15071D01*
X6311Y15139D01*
X6257Y15220D01*
X6220Y15309D01*
X6201Y15404D01*
Y15453D01*
Y15501D01*
X6220Y15596D01*
X6257Y15686D01*
X6311Y15766D01*
X6379Y15835D01*
X6460Y15889D01*
X6549Y15926D01*
X6644Y15945D01*
X6741D01*
X6836Y15926D01*
D02*
G37*
D10*
X945Y15138D02*
D03*
X630D02*
D03*
X472Y15295D02*
D03*
X1102D02*
D03*
Y15610D02*
D03*
X945Y15768D02*
D03*
X630D02*
D03*
X472Y15610D02*
D03*
Y15453D02*
D03*
X787Y15138D02*
D03*
X1102Y15453D02*
D03*
X787Y15768D02*
D03*
Y15453D02*
D03*
X630D02*
D03*
X787Y15610D02*
D03*
X945D02*
D03*
X630D02*
D03*
X787Y15295D02*
D03*
X945D02*
D03*
X630D02*
D03*
X945Y15453D02*
D03*
Y13169D02*
D03*
X630D02*
D03*
X472Y13327D02*
D03*
X1102D02*
D03*
Y13642D02*
D03*
X945Y13799D02*
D03*
X630D02*
D03*
X472Y13642D02*
D03*
Y13484D02*
D03*
X787Y13169D02*
D03*
X1102Y13484D02*
D03*
X787Y13799D02*
D03*
Y13484D02*
D03*
X630D02*
D03*
X787Y13642D02*
D03*
X945D02*
D03*
X630D02*
D03*
X787Y13327D02*
D03*
X945D02*
D03*
X630D02*
D03*
X945Y13484D02*
D03*
Y7264D02*
D03*
X630D02*
D03*
X472Y7421D02*
D03*
X1102D02*
D03*
Y7736D02*
D03*
X945Y7894D02*
D03*
X630D02*
D03*
X472Y7736D02*
D03*
Y7579D02*
D03*
X787Y7264D02*
D03*
X1102Y7579D02*
D03*
X787Y7894D02*
D03*
Y7579D02*
D03*
X630D02*
D03*
X787Y7736D02*
D03*
X945D02*
D03*
X630D02*
D03*
X787Y7421D02*
D03*
X945D02*
D03*
X630D02*
D03*
X945Y7579D02*
D03*
Y9232D02*
D03*
X630D02*
D03*
X472Y9390D02*
D03*
X1102D02*
D03*
Y9705D02*
D03*
X945Y9862D02*
D03*
X630D02*
D03*
X472Y9705D02*
D03*
Y9547D02*
D03*
X787Y9232D02*
D03*
X1102Y9547D02*
D03*
X787Y9862D02*
D03*
Y9547D02*
D03*
X630D02*
D03*
X787Y9705D02*
D03*
X945D02*
D03*
X630D02*
D03*
X787Y9390D02*
D03*
X945D02*
D03*
X630D02*
D03*
X945Y9547D02*
D03*
X6693Y13642D02*
D03*
X6850Y13327D02*
D03*
Y13642D02*
D03*
Y13484D02*
D03*
X6535Y13327D02*
D03*
Y13642D02*
D03*
Y13484D02*
D03*
X6693Y13327D02*
D03*
Y13484D02*
D03*
X6378D02*
D03*
X6693Y13799D02*
D03*
X7008Y13484D02*
D03*
X6693Y13169D02*
D03*
X6535D02*
D03*
X6378Y13327D02*
D03*
Y13642D02*
D03*
X6535Y13799D02*
D03*
X6850D02*
D03*
Y13169D02*
D03*
X7008Y13327D02*
D03*
Y13642D02*
D03*
X6850Y15453D02*
D03*
X6535Y15295D02*
D03*
X6850D02*
D03*
X6693D02*
D03*
X6535Y15610D02*
D03*
X6850D02*
D03*
X6693D02*
D03*
X6535Y15453D02*
D03*
X6693D02*
D03*
Y15768D02*
D03*
X7008Y15453D02*
D03*
X6693Y15138D02*
D03*
X6378Y15453D02*
D03*
Y15610D02*
D03*
X6535Y15768D02*
D03*
X6850D02*
D03*
X7008Y15610D02*
D03*
Y15295D02*
D03*
X6378D02*
D03*
X6535Y15138D02*
D03*
X6850D02*
D03*
X6693Y9705D02*
D03*
X6850Y9390D02*
D03*
Y9705D02*
D03*
Y9547D02*
D03*
X6535Y9390D02*
D03*
Y9705D02*
D03*
Y9547D02*
D03*
X6693Y9390D02*
D03*
Y9547D02*
D03*
X6378D02*
D03*
X6693Y9862D02*
D03*
X7008Y9547D02*
D03*
X6693Y9232D02*
D03*
X6535D02*
D03*
X6378Y9390D02*
D03*
Y9705D02*
D03*
X6535Y9862D02*
D03*
X6850D02*
D03*
Y9232D02*
D03*
X7008Y9390D02*
D03*
Y9705D02*
D03*
X6693Y7736D02*
D03*
X6850Y7421D02*
D03*
Y7736D02*
D03*
Y7579D02*
D03*
X6535Y7421D02*
D03*
Y7736D02*
D03*
Y7579D02*
D03*
X6693Y7421D02*
D03*
Y7579D02*
D03*
X6378D02*
D03*
X6693Y7894D02*
D03*
X7008Y7579D02*
D03*
X6693Y7264D02*
D03*
X6535D02*
D03*
X6378Y7421D02*
D03*
Y7736D02*
D03*
X6535Y7894D02*
D03*
X6850D02*
D03*
Y7264D02*
D03*
X7008Y7421D02*
D03*
Y7736D02*
D03*
X6693Y5768D02*
D03*
X6850Y5453D02*
D03*
Y5768D02*
D03*
Y5610D02*
D03*
X6535Y5453D02*
D03*
Y5768D02*
D03*
Y5610D02*
D03*
X6693Y5453D02*
D03*
Y5610D02*
D03*
X6378D02*
D03*
X6693Y5925D02*
D03*
X7008Y5610D02*
D03*
X6693Y5295D02*
D03*
X6535D02*
D03*
X6378Y5453D02*
D03*
Y5768D02*
D03*
X6535Y5925D02*
D03*
X6850D02*
D03*
Y5295D02*
D03*
X7008Y5453D02*
D03*
Y5768D02*
D03*
X6693Y3799D02*
D03*
X6850Y3484D02*
D03*
Y3799D02*
D03*
Y3642D02*
D03*
X6535Y3484D02*
D03*
Y3799D02*
D03*
Y3642D02*
D03*
X6693Y3484D02*
D03*
Y3642D02*
D03*
X6378D02*
D03*
X6693Y3957D02*
D03*
X7008Y3642D02*
D03*
X6693Y3327D02*
D03*
X6535D02*
D03*
X6378Y3484D02*
D03*
Y3799D02*
D03*
X6535Y3957D02*
D03*
X6850D02*
D03*
Y3327D02*
D03*
X7008Y3484D02*
D03*
Y3799D02*
D03*
X6693Y1831D02*
D03*
X6850Y1516D02*
D03*
Y1831D02*
D03*
Y1673D02*
D03*
X6535Y1516D02*
D03*
Y1831D02*
D03*
Y1673D02*
D03*
X6693Y1516D02*
D03*
Y1673D02*
D03*
X6378D02*
D03*
X6693Y1988D02*
D03*
X7008Y1673D02*
D03*
X6693Y1358D02*
D03*
X6535D02*
D03*
X6378Y1516D02*
D03*
Y1831D02*
D03*
X6535Y1988D02*
D03*
X6850D02*
D03*
Y1358D02*
D03*
X7008Y1516D02*
D03*
Y1831D02*
D03*
X4724D02*
D03*
X4882Y1516D02*
D03*
Y1831D02*
D03*
Y1673D02*
D03*
X4567Y1516D02*
D03*
Y1831D02*
D03*
Y1673D02*
D03*
X4724Y1516D02*
D03*
Y1673D02*
D03*
X4409D02*
D03*
X4724Y1988D02*
D03*
X5039Y1673D02*
D03*
X4724Y1358D02*
D03*
X4567D02*
D03*
X4409Y1516D02*
D03*
Y1831D02*
D03*
X4567Y1988D02*
D03*
X4882D02*
D03*
Y1358D02*
D03*
X5039Y1516D02*
D03*
Y1831D02*
D03*
X4724Y3799D02*
D03*
X4882Y3484D02*
D03*
Y3799D02*
D03*
Y3642D02*
D03*
X4567Y3484D02*
D03*
Y3799D02*
D03*
Y3642D02*
D03*
X4724Y3484D02*
D03*
Y3642D02*
D03*
X4409D02*
D03*
X4724Y3957D02*
D03*
X5039Y3642D02*
D03*
X4724Y3327D02*
D03*
X4567D02*
D03*
X4409Y3484D02*
D03*
Y3799D02*
D03*
X4567Y3957D02*
D03*
X4882D02*
D03*
Y3327D02*
D03*
X5039Y3484D02*
D03*
Y3799D02*
D03*
X6693Y11673D02*
D03*
X6850Y11358D02*
D03*
Y11673D02*
D03*
Y11516D02*
D03*
X6535Y11358D02*
D03*
Y11673D02*
D03*
Y11516D02*
D03*
X6693Y11358D02*
D03*
Y11516D02*
D03*
X6378D02*
D03*
X6693Y11831D02*
D03*
X7008Y11516D02*
D03*
X6693Y11201D02*
D03*
X6535D02*
D03*
X6378Y11358D02*
D03*
Y11673D02*
D03*
X6535Y11831D02*
D03*
X6850D02*
D03*
Y11201D02*
D03*
X7008Y11358D02*
D03*
Y11673D02*
D03*
X4724Y15610D02*
D03*
X4882Y15295D02*
D03*
Y15610D02*
D03*
Y15453D02*
D03*
X4567Y15295D02*
D03*
Y15610D02*
D03*
Y15453D02*
D03*
X4724Y15295D02*
D03*
Y15453D02*
D03*
X4409D02*
D03*
X4724Y15768D02*
D03*
X5039Y15453D02*
D03*
X4724Y15138D02*
D03*
X4567D02*
D03*
X4409Y15295D02*
D03*
Y15610D02*
D03*
X4567Y15768D02*
D03*
X4882D02*
D03*
Y15138D02*
D03*
X5039Y15295D02*
D03*
Y15610D02*
D03*
X4882Y13484D02*
D03*
X4567Y13327D02*
D03*
X4882D02*
D03*
X4724D02*
D03*
X4567Y13642D02*
D03*
X4882D02*
D03*
X4724D02*
D03*
X4567Y13484D02*
D03*
X4724D02*
D03*
Y13799D02*
D03*
X5039Y13484D02*
D03*
X4724Y13169D02*
D03*
X4409Y13484D02*
D03*
Y13642D02*
D03*
X4567Y13799D02*
D03*
X4882D02*
D03*
X5039Y13642D02*
D03*
Y13327D02*
D03*
X4409D02*
D03*
X4567Y13169D02*
D03*
X4882D02*
D03*
X4724Y11673D02*
D03*
X4882Y11358D02*
D03*
Y11673D02*
D03*
Y11516D02*
D03*
X4567Y11358D02*
D03*
Y11673D02*
D03*
Y11516D02*
D03*
X4724Y11358D02*
D03*
Y11516D02*
D03*
X4409D02*
D03*
X4724Y11831D02*
D03*
X5039Y11516D02*
D03*
X4724Y11201D02*
D03*
X4567D02*
D03*
X4409Y11358D02*
D03*
Y11673D02*
D03*
X4567Y11831D02*
D03*
X4882D02*
D03*
Y11201D02*
D03*
X5039Y11358D02*
D03*
Y11673D02*
D03*
X4882Y9547D02*
D03*
X4567Y9390D02*
D03*
X4882D02*
D03*
X4724D02*
D03*
X4567Y9705D02*
D03*
X4882D02*
D03*
X4724D02*
D03*
X4567Y9547D02*
D03*
X4724D02*
D03*
Y9862D02*
D03*
X5039Y9547D02*
D03*
X4724Y9232D02*
D03*
X4409Y9547D02*
D03*
Y9705D02*
D03*
X4567Y9862D02*
D03*
X4882D02*
D03*
X5039Y9705D02*
D03*
Y9390D02*
D03*
X4409D02*
D03*
X4567Y9232D02*
D03*
X4882D02*
D03*
Y7579D02*
D03*
X4567Y7421D02*
D03*
X4882D02*
D03*
X4724D02*
D03*
X4567Y7736D02*
D03*
X4882D02*
D03*
X4724D02*
D03*
X4567Y7579D02*
D03*
X4724D02*
D03*
Y7894D02*
D03*
X5039Y7579D02*
D03*
X4724Y7264D02*
D03*
X4409Y7579D02*
D03*
Y7736D02*
D03*
X4567Y7894D02*
D03*
X4882D02*
D03*
X5039Y7736D02*
D03*
Y7421D02*
D03*
X4409D02*
D03*
X4567Y7264D02*
D03*
X4882D02*
D03*
Y5610D02*
D03*
X4567Y5453D02*
D03*
X4882D02*
D03*
X4724D02*
D03*
X4567Y5768D02*
D03*
X4882D02*
D03*
X4724D02*
D03*
X4567Y5610D02*
D03*
X4724D02*
D03*
Y5925D02*
D03*
X5039Y5610D02*
D03*
X4724Y5295D02*
D03*
X4409Y5610D02*
D03*
Y5768D02*
D03*
X4567Y5925D02*
D03*
X4882D02*
D03*
X5039Y5768D02*
D03*
Y5453D02*
D03*
X4409D02*
D03*
X4567Y5295D02*
D03*
X4882D02*
D03*
X2913Y5610D02*
D03*
X2598Y5453D02*
D03*
X2913D02*
D03*
X2756D02*
D03*
X2598Y5768D02*
D03*
X2913D02*
D03*
X2756D02*
D03*
X2598Y5610D02*
D03*
X2756D02*
D03*
Y5925D02*
D03*
X3071Y5610D02*
D03*
X2756Y5295D02*
D03*
X2441Y5610D02*
D03*
Y5768D02*
D03*
X2598Y5925D02*
D03*
X2913D02*
D03*
X3071Y5768D02*
D03*
Y5453D02*
D03*
X2441D02*
D03*
X2598Y5295D02*
D03*
X2913D02*
D03*
Y7579D02*
D03*
X2598Y7421D02*
D03*
X2913D02*
D03*
X2756D02*
D03*
X2598Y7736D02*
D03*
X2913D02*
D03*
X2756D02*
D03*
X2598Y7579D02*
D03*
X2756D02*
D03*
Y7894D02*
D03*
X3071Y7579D02*
D03*
X2756Y7264D02*
D03*
X2441Y7579D02*
D03*
Y7736D02*
D03*
X2598Y7894D02*
D03*
X2913D02*
D03*
X3071Y7736D02*
D03*
Y7421D02*
D03*
X2441D02*
D03*
X2598Y7264D02*
D03*
X2913D02*
D03*
Y9547D02*
D03*
X2598Y9390D02*
D03*
X2913D02*
D03*
X2756D02*
D03*
X2598Y9705D02*
D03*
X2913D02*
D03*
X2756D02*
D03*
X2598Y9547D02*
D03*
X2756D02*
D03*
Y9862D02*
D03*
X3071Y9547D02*
D03*
X2756Y9232D02*
D03*
X2441Y9547D02*
D03*
Y9705D02*
D03*
X2598Y9862D02*
D03*
X2913D02*
D03*
X3071Y9705D02*
D03*
Y9390D02*
D03*
X2441D02*
D03*
X2598Y9232D02*
D03*
X2913D02*
D03*
Y11516D02*
D03*
X2598Y11358D02*
D03*
X2913D02*
D03*
X2756D02*
D03*
X2598Y11673D02*
D03*
X2913D02*
D03*
X2756D02*
D03*
X2598Y11516D02*
D03*
X2756D02*
D03*
Y11831D02*
D03*
X3071Y11516D02*
D03*
X2756Y11201D02*
D03*
X2441Y11516D02*
D03*
Y11673D02*
D03*
X2598Y11831D02*
D03*
X2913D02*
D03*
X3071Y11673D02*
D03*
Y11358D02*
D03*
X2441D02*
D03*
X2598Y11201D02*
D03*
X2913D02*
D03*
Y13484D02*
D03*
X2598Y13327D02*
D03*
X2913D02*
D03*
X2756D02*
D03*
X2598Y13642D02*
D03*
X2913D02*
D03*
X2756D02*
D03*
X2598Y13484D02*
D03*
X2756D02*
D03*
Y13799D02*
D03*
X3071Y13484D02*
D03*
X2756Y13169D02*
D03*
X2441Y13484D02*
D03*
Y13642D02*
D03*
X2598Y13799D02*
D03*
X2913D02*
D03*
X3071Y13642D02*
D03*
Y13327D02*
D03*
X2441D02*
D03*
X2598Y13169D02*
D03*
X2913D02*
D03*
Y15453D02*
D03*
X2598Y15295D02*
D03*
X2913D02*
D03*
X2756D02*
D03*
X2598Y15610D02*
D03*
X2913D02*
D03*
X2756D02*
D03*
X2598Y15453D02*
D03*
X2756D02*
D03*
Y15768D02*
D03*
X3071Y15453D02*
D03*
X2756Y15138D02*
D03*
X2441Y15453D02*
D03*
Y15610D02*
D03*
X2598Y15768D02*
D03*
X2913D02*
D03*
X3071Y15610D02*
D03*
Y15295D02*
D03*
X2441D02*
D03*
X2598Y15138D02*
D03*
X2913D02*
D03*
X945Y11516D02*
D03*
X630Y11358D02*
D03*
X945D02*
D03*
X787D02*
D03*
X630Y11673D02*
D03*
X945D02*
D03*
X787D02*
D03*
X630Y11516D02*
D03*
X787D02*
D03*
Y11831D02*
D03*
X1102Y11516D02*
D03*
X787Y11201D02*
D03*
X472Y11516D02*
D03*
Y11673D02*
D03*
X630Y11831D02*
D03*
X945D02*
D03*
X1102Y11673D02*
D03*
Y11358D02*
D03*
X472D02*
D03*
X630Y11201D02*
D03*
X945D02*
D03*
X2913Y3642D02*
D03*
X2598Y3484D02*
D03*
X2913D02*
D03*
X2756D02*
D03*
X2598Y3799D02*
D03*
X2913D02*
D03*
X2756D02*
D03*
X2598Y3642D02*
D03*
X2756D02*
D03*
Y3957D02*
D03*
X3071Y3642D02*
D03*
X2756Y3327D02*
D03*
X2441Y3642D02*
D03*
Y3799D02*
D03*
X2598Y3957D02*
D03*
X2913D02*
D03*
X3071Y3799D02*
D03*
Y3484D02*
D03*
X2441D02*
D03*
X2598Y3327D02*
D03*
X2913D02*
D03*
Y1673D02*
D03*
X2598Y1516D02*
D03*
X2913D02*
D03*
X2756D02*
D03*
X2598Y1831D02*
D03*
X2913D02*
D03*
X2756D02*
D03*
X2598Y1673D02*
D03*
X2756D02*
D03*
Y1988D02*
D03*
X3071Y1673D02*
D03*
X2756Y1358D02*
D03*
X2441Y1673D02*
D03*
Y1831D02*
D03*
X2598Y1988D02*
D03*
X2913D02*
D03*
X3071Y1831D02*
D03*
Y1516D02*
D03*
X2441D02*
D03*
X2598Y1358D02*
D03*
X2913D02*
D03*
X945Y1673D02*
D03*
X630Y1516D02*
D03*
X945D02*
D03*
X787D02*
D03*
X630Y1831D02*
D03*
X945D02*
D03*
X787D02*
D03*
X630Y1673D02*
D03*
X787D02*
D03*
Y1988D02*
D03*
X1102Y1673D02*
D03*
X787Y1358D02*
D03*
X472Y1673D02*
D03*
Y1831D02*
D03*
X630Y1988D02*
D03*
X945D02*
D03*
X1102Y1831D02*
D03*
Y1516D02*
D03*
X472D02*
D03*
X630Y1358D02*
D03*
X945D02*
D03*
Y3642D02*
D03*
X630Y3484D02*
D03*
X945D02*
D03*
X787D02*
D03*
X630Y3799D02*
D03*
X945D02*
D03*
X787D02*
D03*
X630Y3642D02*
D03*
X787D02*
D03*
Y3957D02*
D03*
X1102Y3642D02*
D03*
X787Y3327D02*
D03*
X472Y3642D02*
D03*
Y3799D02*
D03*
X630Y3957D02*
D03*
X945D02*
D03*
X1102Y3799D02*
D03*
Y3484D02*
D03*
X472D02*
D03*
X630Y3327D02*
D03*
X945D02*
D03*
Y5610D02*
D03*
X630Y5453D02*
D03*
X945D02*
D03*
X787D02*
D03*
X630Y5768D02*
D03*
X945D02*
D03*
X787D02*
D03*
X630Y5610D02*
D03*
X787D02*
D03*
Y5925D02*
D03*
X1102Y5610D02*
D03*
X787Y5295D02*
D03*
X472Y5610D02*
D03*
Y5768D02*
D03*
X630Y5925D02*
D03*
X945D02*
D03*
X1102Y5768D02*
D03*
Y5453D02*
D03*
X472D02*
D03*
X630Y5295D02*
D03*
X945D02*
D03*
D11*
X11122Y36122D02*
D03*
X10728D02*
D03*
X10532D02*
D03*
X10335D02*
D03*
X10925D02*
D03*
X10138D02*
D03*
X9941D02*
D03*
X9744D02*
D03*
X9547D02*
D03*
X9350D02*
D03*
X9154D02*
D03*
X8957D02*
D03*
X8760D02*
D03*
X8563D02*
D03*
X8366D02*
D03*
X8169D02*
D03*
X7972D02*
D03*
X7776D02*
D03*
X7579D02*
D03*
X7382D02*
D03*
X7185D02*
D03*
X6988D02*
D03*
X6791D02*
D03*
X6594D02*
D03*
X6398D02*
D03*
X6201D02*
D03*
X6004D02*
D03*
X5807D02*
D03*
X5610D02*
D03*
X5413D02*
D03*
X5217D02*
D03*
X5020D02*
D03*
X4823D02*
D03*
X4626D02*
D03*
X4429D02*
D03*
X4232D02*
D03*
D14*
X787Y11909D02*
Y12467D01*
X6693Y11909D02*
Y12467D01*
X4724Y11909D02*
Y12467D01*
Y13878D02*
Y14436D01*
X2756Y11909D02*
Y12467D01*
Y13878D02*
Y14436D01*
X787Y4035D02*
X1772Y5020D01*
X787Y6004D02*
X1652Y6868D01*
X787Y9941D02*
X1412Y10565D01*
X787Y7972D02*
X1532Y8717D01*
X2132Y4660D02*
X2756Y4035D01*
X2012Y2811D02*
X2756Y2067D01*
X554Y16200D02*
X767D01*
X787Y15846D02*
Y16051D01*
X2756Y15846D02*
Y16393D01*
X2012Y2811D02*
Y16257D01*
X1772Y5020D02*
Y16356D01*
X2132Y4660D02*
Y16207D01*
X1652Y6868D02*
Y16406D01*
X2980Y16320D02*
X3016D01*
X1532Y8717D02*
Y16456D01*
X1412Y10565D02*
Y16505D01*
X180Y14485D02*
Y15825D01*
Y14485D02*
X787Y13878D01*
X180Y15825D02*
X554Y16200D01*
X1892Y3171D02*
Y16306D01*
X787Y2067D02*
X1892Y3171D01*
X5469Y2811D02*
Y16257D01*
X4724Y2067D02*
X5469Y2811D01*
X5349Y4660D02*
Y16207D01*
X4724Y4035D02*
X5349Y4660D01*
X5709Y5020D02*
Y16356D01*
Y5020D02*
X6693Y4035D01*
X5589Y3171D02*
Y16306D01*
Y3171D02*
X6693Y2067D01*
X5829Y6868D02*
Y16406D01*
Y6868D02*
X6693Y6004D01*
X4724Y15846D02*
Y16393D01*
X6069Y10565D02*
Y16505D01*
Y10565D02*
X6693Y9941D01*
X5949Y8717D02*
X6693Y7972D01*
X5949Y8717D02*
Y16456D01*
X6714Y16200D02*
X6926D01*
X7300Y14485D02*
Y15825D01*
X6693Y13878D02*
X7300Y14485D01*
X6926Y16200D02*
X7300Y15825D01*
X5660Y17253D02*
X6714Y16200D01*
X4700Y16856D02*
X5349Y16207D01*
X5180Y17055D02*
X5829Y16406D01*
X5300Y17104D02*
X5949Y16456D01*
X4460Y16657D02*
X4724Y16393D01*
X4820Y16905D02*
X5469Y16257D01*
X4580Y16707D02*
X5034Y16253D01*
X5060Y17005D02*
X5709Y16356D01*
X5420Y17154D02*
X6069Y16505D01*
X4940Y16955D02*
X5589Y16306D01*
X3860Y6868D02*
X4724Y6004D01*
X4340Y16480D02*
X4500Y16320D01*
X3980Y8717D02*
X4724Y7972D01*
X4100Y10565D02*
X4724Y9941D01*
X4310Y16040D02*
Y16071D01*
X4220Y16162D02*
X4310Y16071D01*
X3170Y16040D02*
Y16062D01*
X5660Y21080D02*
X6317Y21737D01*
X5660Y17253D02*
Y21080D01*
X4100Y21726D02*
X5671Y23297D01*
X5300Y21229D02*
X6168Y22097D01*
X5180Y17055D02*
Y21279D01*
X3980Y8717D02*
Y21776D01*
X4460Y21577D02*
X5820Y22937D01*
X4580Y21527D02*
X5870Y22817D01*
X4580Y16707D02*
Y21527D01*
X3980Y21776D02*
X5621Y23417D01*
X4820Y16905D02*
Y21428D01*
X4220Y21676D02*
X5721Y23177D01*
X5060Y17005D02*
Y21329D01*
X5420Y21179D02*
X6218Y21977D01*
X4220Y16162D02*
Y21676D01*
X4940Y21378D02*
X6019Y22457D01*
X4700Y21478D02*
X5919Y22697D01*
X3860Y21826D02*
X5571Y23537D01*
X3860Y6868D02*
Y21826D01*
X4100Y10565D02*
Y21726D01*
X5180Y21279D02*
X6118Y22217D01*
X4700Y16856D02*
Y21478D01*
X4820Y21428D02*
X5969Y22577D01*
X4940Y16955D02*
Y21378D01*
X4340Y21627D02*
X5770Y23057D01*
X4340Y16480D02*
Y21627D01*
X5820Y22937D02*
X7513D01*
X5870Y22817D02*
X7563D01*
X5060Y21329D02*
X6068Y22337D01*
X5300Y17104D02*
Y21229D01*
X5969Y22577D02*
X7662D01*
X4460Y16657D02*
Y21577D01*
X5420Y17154D02*
Y21179D01*
X5919Y22697D02*
X7613D01*
X5671Y23297D02*
X7350D01*
X5621Y23417D02*
X7300D01*
X3420Y10605D02*
Y22051D01*
X1892Y16306D02*
X2580Y16995D01*
X3170Y16062D02*
X3300Y16192D01*
X3540Y8757D02*
Y22002D01*
X2340Y22499D02*
X4928Y25087D01*
X2220Y17144D02*
Y22549D01*
X2700Y16945D02*
Y22350D01*
X3060Y22201D02*
X5226Y24367D01*
X1980Y22491D02*
Y22648D01*
X2940Y16747D02*
Y22250D01*
X3180Y22151D02*
X5276Y24247D01*
X2132Y16207D02*
X2820Y16896D01*
X2100Y17194D02*
Y22598D01*
X3060Y16697D02*
Y22201D01*
X3420Y22051D02*
X5375Y24007D01*
X2756Y9941D02*
X3420Y10605D01*
X1772Y16356D02*
X2460Y17045D01*
X2700Y22350D02*
X5077Y24727D01*
X3016Y16320D02*
X3180Y16484D01*
X3300Y22101D02*
X5326Y24127D01*
X2340Y17094D02*
Y22499D01*
X2580Y16995D02*
Y22399D01*
X2820Y16896D02*
Y22300D01*
X1980Y17244D02*
Y22491D01*
X3660Y6908D02*
Y21952D01*
X1532Y16456D02*
X2220Y17144D01*
X1652Y16406D02*
X2340Y17094D01*
X2940Y22250D02*
X5177Y24487D01*
X3540Y22002D02*
X5425Y23887D01*
X2012Y16257D02*
X2700Y16945D01*
X3180Y16484D02*
Y22151D01*
X2220Y22549D02*
X4878Y25207D01*
X1980Y22648D02*
X4779Y25447D01*
X3660Y21952D02*
X5475Y23767D01*
X2756Y6004D02*
X3660Y6908D01*
X2460Y22449D02*
X4978Y24967D01*
X2446Y16253D02*
X2940Y16747D01*
X3300Y16192D02*
Y22101D01*
X2756Y7972D02*
X3540Y8757D01*
X2460Y17045D02*
Y22449D01*
X1412Y16505D02*
X2100Y17194D01*
X2580Y22399D02*
X5028Y24847D01*
X2756Y16393D02*
X3060Y16697D01*
X2820Y22300D02*
X5127Y24607D01*
X787Y16051D02*
X1980Y17244D01*
X2100Y22598D02*
X4829Y25327D01*
X1860Y17293D02*
Y22698D01*
X4729Y25567D01*
X767Y16200D02*
X1860Y17293D01*
X9593Y23319D02*
Y30740D01*
X8010Y21737D02*
X9593Y23319D01*
Y30740D02*
X11122Y32269D01*
Y36122D01*
X10728Y32215D02*
Y36122D01*
X7911Y21977D02*
X9353Y23419D01*
Y30839D01*
X10728Y32215D01*
X9233Y30889D02*
X10532Y32188D01*
X9233Y23469D02*
Y30889D01*
X10532Y32188D02*
Y36122D01*
X9113Y30939D02*
X10335Y32161D01*
Y36122D01*
X7811Y22217D02*
X9113Y23518D01*
Y30939D01*
X10138Y32134D02*
Y36122D01*
X7762Y22337D02*
X8993Y23568D01*
Y30989D01*
X10138Y32134D01*
X7712Y22457D02*
X8873Y23618D01*
X9941Y32107D02*
Y36122D01*
X8873Y31038D02*
X9941Y32107D01*
X8873Y23618D02*
Y31038D01*
X8753Y23667D02*
Y31088D01*
X9744Y32079D01*
Y36122D01*
X7613Y22697D02*
X8633Y23717D01*
Y31138D01*
X9350Y31855D01*
Y36122D01*
X8513Y31187D02*
X9154Y31828D01*
Y36122D01*
X8513Y23767D02*
Y31187D01*
X8393Y23816D02*
Y31237D01*
X8957Y31801D01*
X7513Y22937D02*
X8393Y23816D01*
X8957Y31801D02*
Y36122D01*
X8273Y31287D02*
X8760Y31774D01*
X8273Y23866D02*
Y31287D01*
X8760Y31774D02*
Y36122D01*
X7463Y23057D02*
X8273Y23866D01*
X8563Y31747D02*
Y36122D01*
X8153Y31336D02*
X8563Y31747D01*
X7399Y23177D02*
X8153Y23930D01*
Y31336D01*
X8033Y31386D02*
X8366Y31720D01*
Y36122D01*
X7350Y23297D02*
X8033Y23980D01*
Y31386D01*
X7300Y23417D02*
X7913Y24030D01*
X8169Y31693D02*
Y36122D01*
X7913Y31436D02*
X8169Y31693D01*
X7913Y24030D02*
Y31436D01*
X6830Y25449D02*
Y31199D01*
X6201Y31828D02*
X6830Y31199D01*
X6201Y31828D02*
Y36122D01*
X6398Y31801D02*
X6950Y31249D01*
Y25399D02*
Y31249D01*
X6398Y31801D02*
Y36122D01*
X5968Y24247D02*
X7070Y25349D01*
X6594Y31774D02*
Y36122D01*
X7070Y25349D02*
Y31298D01*
X6594Y31774D02*
X7070Y31298D01*
X5217Y32134D02*
X6350Y31000D01*
X5217Y32134D02*
Y36122D01*
X6350Y25648D02*
Y31000D01*
X5413Y32107D02*
Y36122D01*
Y32107D02*
X6470Y31050D01*
X5610Y32079D02*
X6590Y31099D01*
X5610Y32079D02*
Y36122D01*
X6590Y25548D02*
Y31099D01*
X6710Y25499D02*
Y31149D01*
X6004Y31855D02*
X6710Y31149D01*
X6004Y31855D02*
Y36122D01*
X7190Y25300D02*
Y31348D01*
X6791Y31747D02*
X7190Y31348D01*
X6017Y24127D02*
X7190Y25300D01*
X6791Y31747D02*
Y36122D01*
X6988Y31720D02*
Y36122D01*
X7310Y25250D02*
Y31398D01*
X6988Y31720D02*
X7310Y31398D01*
X6067Y24007D02*
X7310Y25250D01*
X6117Y23887D02*
X7430Y25200D01*
X7185Y31693D02*
X7430Y31447D01*
Y25200D02*
Y31447D01*
X7185Y31693D02*
Y36122D01*
X7972Y31665D02*
Y36122D01*
X7793Y24096D02*
Y31486D01*
X7234Y23537D02*
X7793Y24096D01*
Y31486D02*
X7972Y31665D01*
X7550Y25151D02*
Y31497D01*
X7382Y31665D02*
X7550Y31497D01*
X7382Y31665D02*
Y36122D01*
X6166Y23767D02*
X7550Y25151D01*
X4626Y32215D02*
X5990Y30851D01*
X4626Y32215D02*
Y36122D01*
X4429Y32242D02*
X5870Y30801D01*
Y25847D02*
Y30801D01*
X4429Y32242D02*
Y36122D01*
X4232Y32269D02*
X5750Y30752D01*
Y25896D02*
Y30752D01*
X4232Y32269D02*
Y36122D01*
X5020Y32161D02*
X6230Y30950D01*
Y25697D02*
Y30950D01*
X5020Y32161D02*
Y36122D01*
X4823Y32188D02*
Y36122D01*
X6110Y25747D02*
Y30901D01*
X4823Y32188D02*
X6110Y30901D01*
X9553Y32620D02*
Y36117D01*
X7773Y36119D02*
X7776Y36122D01*
X5807D02*
X5813Y36117D01*
X9547Y36122D02*
X9553Y36117D01*
X7773Y32480D02*
Y36119D01*
X7579Y32900D02*
Y36122D01*
X5813Y32780D02*
Y36117D01*
X5990Y25797D02*
Y30851D01*
X6470Y25598D02*
Y31050D01*
X5421Y25567D02*
X5750Y25896D01*
X5470Y25447D02*
X5870Y25847D01*
X5719Y24847D02*
X6470Y25598D01*
X4978Y24967D02*
X5669D01*
X4829Y25327D02*
X5520D01*
X5620Y25087D02*
X6230Y25697D01*
X5769Y24727D02*
X6590Y25548D01*
X5028Y24847D02*
X5719D01*
X5127Y24607D02*
X5818D01*
X4928Y25087D02*
X5620D01*
X5570Y25207D02*
X6110Y25747D01*
X4878Y25207D02*
X5570D01*
X5520Y25327D02*
X5990Y25797D01*
X5868Y24487D02*
X6830Y25449D01*
X5077Y24727D02*
X5769D01*
X4729Y25567D02*
X5421D01*
X5177Y24487D02*
X5868D01*
X5818Y24607D02*
X6710Y25499D01*
X5918Y24367D02*
X6950Y25399D01*
X4779Y25447D02*
X5470D01*
X5226Y24367D02*
X5918D01*
X5669Y24967D02*
X6350Y25648D01*
X5276Y24247D02*
X5968D01*
X5326Y24127D02*
X6017D01*
X5375Y24007D02*
X6067D01*
X5425Y23887D02*
X6117D01*
X5475Y23767D02*
X6166D01*
X6317Y21737D02*
X8010D01*
X7861Y22097D02*
X9233Y23469D01*
X6218Y21977D02*
X7911D01*
X6168Y22097D02*
X7861D01*
X6118Y22217D02*
X7811D01*
X6068Y22337D02*
X7762D01*
X7662Y22577D02*
X8753Y23667D01*
X6019Y22457D02*
X7712D01*
X7563Y22817D02*
X8513Y23767D01*
X5770Y23057D02*
X7463D01*
X5721Y23177D02*
X7399D01*
X5571Y23537D02*
X7234D01*
X6267Y21857D02*
X7960D01*
X9473Y23369D02*
Y30790D01*
X10925Y32242D01*
Y36122D01*
X7960Y21857D02*
X9473Y23369D01*
X6693Y15846D02*
Y16051D01*
X5540Y17204D02*
X6693Y16051D01*
X5540Y21130D02*
X6267Y21857D01*
X5540Y17204D02*
Y21130D01*
D15*
X4724Y14436D02*
D03*
X6693Y12467D02*
D03*
X4724D02*
D03*
X2756D02*
D03*
X787D02*
D03*
X2756Y14436D02*
D03*
X2446Y16253D02*
D03*
X2980Y16320D02*
D03*
X3170Y16040D02*
D03*
X5034Y16253D02*
D03*
X4500Y16320D02*
D03*
X4310Y16040D02*
D03*
X9553Y32620D02*
D03*
X5813Y32780D02*
D03*
X7579Y32900D02*
D03*
X7773Y32480D02*
D03*
M02*
