G04*
G04 #@! TF.GenerationSoftware,Altium Limited,Altium Designer,25.8.1 (18)*
G04*
G04 Layer_Color=128*
%FSLAX24Y24*%
%MOIN*%
G70*
G04*
G04 #@! TF.SameCoordinates,9AE8A2C5-6196-4BC8-9162-DC58875C59FE*
G04*
G04*
G04 #@! TF.FilePolarity,Positive*
G04*
G01*
G75*
%ADD20C,0.0020*%
D20*
X4694Y14436D02*
X4754D01*
X4724Y14406D02*
Y14466D01*
X6663Y12467D02*
X6723D01*
X6693Y12437D02*
Y12497D01*
X4694Y12467D02*
X4754D01*
X4724Y12437D02*
Y12497D01*
X2726Y12467D02*
X2786D01*
X2756Y12437D02*
Y12497D01*
X757Y12467D02*
X817D01*
X787Y12437D02*
Y12497D01*
X2726Y14436D02*
X2786D01*
X2756Y14406D02*
Y14466D01*
X2416Y16253D02*
X2476D01*
X2446Y16223D02*
Y16283D01*
X2950Y16320D02*
X3010D01*
X2980Y16290D02*
Y16350D01*
X3140Y16040D02*
X3200D01*
X3170Y16010D02*
Y16070D01*
X5004Y16253D02*
X5064D01*
X5034Y16223D02*
Y16283D01*
X4470Y16320D02*
X4530D01*
X4500Y16290D02*
Y16350D01*
X4280Y16040D02*
X4340D01*
X4310Y16010D02*
Y16070D01*
X9523Y32620D02*
X9583D01*
X9553Y32590D02*
Y32650D01*
X5783Y32780D02*
X5843D01*
X5813Y32750D02*
Y32810D01*
X7549Y32900D02*
X7609D01*
X7579Y32870D02*
Y32930D01*
X7743Y32480D02*
X7803D01*
X7773Y32450D02*
Y32510D01*
M02*
