G04*
G04 #@! TF.GenerationSoftware,Altium Limited,Altium Designer,25.8.1 (18)*
G04*
G04 Layer_Color=128*
%FSLAX24Y24*%
%MOIN*%
G70*
G04*
G04 #@! TF.SameCoordinates,BF8114AC-BC8E-4BEE-B45B-DAF2C2359EF3*
G04*
G04*
G04 #@! TF.FilePolarity,Positive*
G04*
G01*
G75*
%ADD21C,0.0020*%
D21*
X2372Y33300D02*
X2432D01*
X2402Y33270D02*
Y33330D01*
X-3219Y33020D02*
X-3159D01*
X-3189Y32990D02*
Y33050D01*
X-2825Y33020D02*
X-2765D01*
X-2795Y32990D02*
Y33050D01*
X-2432Y33020D02*
X-2372D01*
X-2402Y32990D02*
Y33050D01*
X-1841Y33020D02*
X-1781D01*
X-1811Y32990D02*
Y33050D01*
X-660Y33020D02*
X-600D01*
X-630Y32990D02*
Y33050D01*
X9Y33020D02*
X69D01*
X39Y32990D02*
Y33050D01*
X2962Y33020D02*
X3022D01*
X2992Y32990D02*
Y33050D01*
X2568Y33020D02*
X2628D01*
X2598Y32990D02*
Y33050D01*
X2175Y33020D02*
X2235D01*
X2205Y32990D02*
Y33050D01*
X403Y33020D02*
X463D01*
X433Y32990D02*
Y33050D01*
X3159Y33300D02*
X3219D01*
X3189Y33270D02*
Y33330D01*
X1190Y33020D02*
X1250D01*
X1220Y32990D02*
Y33050D01*
X994Y33300D02*
X1054D01*
X1024Y33270D02*
Y33330D01*
X1781Y33020D02*
X1841D01*
X1811Y32990D02*
Y33050D01*
X206Y33300D02*
X266D01*
X236Y33270D02*
Y33330D01*
X1387Y33300D02*
X1447D01*
X1417Y33270D02*
Y33330D01*
X1978Y33300D02*
X2038D01*
X2008Y33270D02*
Y33330D01*
X797Y33020D02*
X857D01*
X827Y32990D02*
Y33050D01*
X600Y33300D02*
X660D01*
X630Y33270D02*
Y33330D01*
X2765Y33300D02*
X2825D01*
X2795Y33270D02*
Y33330D01*
X-3022Y33300D02*
X-2962D01*
X-2992Y33270D02*
Y33330D01*
X-1644Y33300D02*
X-1584D01*
X-1614Y33270D02*
Y33330D01*
X-3416Y33300D02*
X-3356D01*
X-3386Y33270D02*
Y33330D01*
X-1447Y33020D02*
X-1387D01*
X-1417Y32990D02*
Y33050D01*
X-3613Y33020D02*
X-3553D01*
X-3583Y32990D02*
Y33050D01*
X-1250Y33300D02*
X-1190D01*
X-1220Y33270D02*
Y33330D01*
X-1054Y33020D02*
X-994D01*
X-1024Y32990D02*
Y33050D01*
X-857Y33300D02*
X-797D01*
X-827Y33270D02*
Y33330D01*
X-2628Y33300D02*
X-2568D01*
X-2598Y33270D02*
Y33330D01*
X-463Y33300D02*
X-403D01*
X-433Y33270D02*
Y33330D01*
X-2235Y33300D02*
X-2175D01*
X-2205Y33270D02*
Y33330D01*
X760Y12470D02*
X820D01*
X790Y12440D02*
Y12500D01*
X2416Y16253D02*
X2476D01*
X2446Y16223D02*
Y16283D01*
X4692Y14439D02*
X4752D01*
X4722Y14409D02*
Y14468D01*
X4470Y16320D02*
X4530D01*
X4500Y16290D02*
Y16350D01*
X4692Y12470D02*
X4752D01*
X4722Y12440D02*
Y12500D01*
X4280Y16040D02*
X4340D01*
X4310Y16010D02*
Y16070D01*
X2729Y12470D02*
X2788D01*
X2758Y12440D02*
Y12500D01*
X3140Y16040D02*
X3200D01*
X3170Y16010D02*
Y16070D01*
X2729Y14439D02*
X2788D01*
X2758Y14409D02*
Y14468D01*
X2950Y16320D02*
X3010D01*
X2980Y16290D02*
Y16350D01*
X6660Y12470D02*
X6720D01*
X6690Y12440D02*
Y12500D01*
X5004Y16253D02*
X5064D01*
X5034Y16223D02*
Y16283D01*
M02*
