G04*
G04 #@! TF.GenerationSoftware,Altium Limited,Altium Designer,25.8.1 (18)*
G04*
G04 Layer_Color=16711935*
%FSLAX24Y24*%
%MOIN*%
G70*
G04*
G04 #@! TF.SameCoordinates,BF8114AC-BC8E-4BEE-B45B-DAF2C2359EF3*
G04*
G04*
G04 #@! TF.FilePolarity,Negative*
G04*
G01*
G75*
%ADD12C,0.0220*%
%ADD16R,0.0118X0.1181*%
D12*
X2402Y33300D02*
D03*
X-3189Y33020D02*
D03*
X-2795D02*
D03*
X-2402D02*
D03*
X-1811D02*
D03*
X-630D02*
D03*
X39D02*
D03*
X2992D02*
D03*
X2598D02*
D03*
X2205D02*
D03*
X433D02*
D03*
X3189Y33300D02*
D03*
X1220Y33020D02*
D03*
X1024Y33300D02*
D03*
X1811Y33020D02*
D03*
X236Y33300D02*
D03*
X1417D02*
D03*
X2008D02*
D03*
X827Y33020D02*
D03*
X630Y33300D02*
D03*
X2795D02*
D03*
X-2992D02*
D03*
X-1614D02*
D03*
X-3386D02*
D03*
X-1417Y33020D02*
D03*
X-3583D02*
D03*
X-1220Y33300D02*
D03*
X-1024Y33020D02*
D03*
X-827Y33300D02*
D03*
X-2598D02*
D03*
X-433D02*
D03*
X-2205D02*
D03*
X790Y12470D02*
D03*
X2446Y16253D02*
D03*
X4722Y14439D02*
D03*
X4500Y16320D02*
D03*
X4722Y12470D02*
D03*
X4310Y16040D02*
D03*
X2758Y12470D02*
D03*
X3170Y16040D02*
D03*
X2758Y14439D02*
D03*
X2980Y16320D02*
D03*
X6690Y12470D02*
D03*
X5034Y16253D02*
D03*
D16*
X3248Y36024D02*
D03*
X2854D02*
D03*
X2657D02*
D03*
X2461D02*
D03*
X3051D02*
D03*
X2264D02*
D03*
X2067D02*
D03*
X1870D02*
D03*
X1673D02*
D03*
X1476D02*
D03*
X1280D02*
D03*
X1083D02*
D03*
X886D02*
D03*
X689D02*
D03*
X492D02*
D03*
X295D02*
D03*
X98D02*
D03*
X-98D02*
D03*
X-295D02*
D03*
X-492D02*
D03*
X-689D02*
D03*
X-886D02*
D03*
X-1083D02*
D03*
X-1280D02*
D03*
X-1476D02*
D03*
X-1673D02*
D03*
X-1870D02*
D03*
X-2067D02*
D03*
X-2264D02*
D03*
X-2461D02*
D03*
X-2657D02*
D03*
X-2854D02*
D03*
X-3051D02*
D03*
X-3248D02*
D03*
X-3445D02*
D03*
X-3642D02*
D03*
M02*
