G04*
G04 #@! TF.GenerationSoftware,Altium Limited,Altium Designer,25.8.1 (18)*
G04*
G04 Layer_Color=32896*
%FSLAX24Y24*%
%MOIN*%
G70*
G04*
G04 #@! TF.SameCoordinates,BF8114AC-BC8E-4BEE-B45B-DAF2C2359EF3*
G04*
G04*
G04 #@! TF.FilePolarity,Positive*
G04*
G01*
G75*
%ADD17C,0.0079*%
%ADD18R,0.2759X0.5296*%
G36*
X3633Y3031D02*
X3648D01*
Y2320D01*
X3492D01*
Y2322D01*
X3490D01*
Y2588D01*
X3492D01*
Y2609D01*
X3490D01*
Y2607D01*
X3488D01*
Y2602D01*
X3486D01*
Y2598D01*
X3483D01*
Y2594D01*
X3481D01*
Y2590D01*
X3479D01*
Y2583D01*
X3477D01*
Y2577D01*
X3475D01*
Y2573D01*
X3473D01*
Y2571D01*
X3471D01*
Y2564D01*
X3469D01*
Y2560D01*
X3467D01*
Y2554D01*
X3465D01*
Y2550D01*
X3462D01*
Y2545D01*
X3460D01*
Y2541D01*
X3458D01*
Y2537D01*
X3456D01*
Y2533D01*
X3454D01*
Y2528D01*
X3452D01*
Y2524D01*
X3450D01*
Y2520D01*
X3448D01*
Y2516D01*
X3446D01*
Y2512D01*
X3443D01*
Y2507D01*
X3441D01*
Y2503D01*
X3439D01*
Y2499D01*
X3437D01*
Y2493D01*
X3435D01*
Y2488D01*
X3433D01*
Y2484D01*
X3431D01*
Y2480D01*
X3429D01*
Y2476D01*
X3427D01*
Y2471D01*
X3424D01*
Y2467D01*
X3422D01*
Y2463D01*
X3420D01*
Y2459D01*
X3418D01*
Y2455D01*
X3416D01*
Y2452D01*
X3414D01*
Y2446D01*
X3412D01*
Y2444D01*
X3410D01*
Y2440D01*
X3408D01*
Y2436D01*
X3405D01*
Y2431D01*
X3403D01*
Y2427D01*
X3401D01*
Y2423D01*
X3399D01*
Y2419D01*
X3397D01*
Y2415D01*
X3395D01*
Y2410D01*
X3393D01*
Y2406D01*
X3391D01*
Y2402D01*
X3389D01*
Y2398D01*
X3386D01*
Y2393D01*
X3384D01*
Y2389D01*
X3382D01*
Y2385D01*
X3380D01*
Y2381D01*
X3378D01*
Y2377D01*
X3376D01*
Y2372D01*
X3374D01*
Y2368D01*
X3372D01*
Y2364D01*
X3370D01*
Y2360D01*
X3367D01*
Y2355D01*
X3365D01*
Y2351D01*
X3363D01*
Y2347D01*
X3361D01*
Y2343D01*
X3359D01*
Y2339D01*
X3357D01*
Y2334D01*
X3355D01*
Y2330D01*
X3353D01*
Y2324D01*
X3351D01*
Y2320D01*
X3348D01*
Y2315D01*
X3346D01*
Y2313D01*
X3344D01*
Y2309D01*
X3342D01*
Y2303D01*
X3340D01*
Y2298D01*
X3338D01*
Y2296D01*
X3336D01*
Y2292D01*
X3334D01*
Y2288D01*
X3332D01*
Y2284D01*
X3329D01*
Y2279D01*
X3327D01*
Y2275D01*
X3325D01*
Y2271D01*
X3323D01*
Y2267D01*
X3321D01*
Y2263D01*
X3319D01*
Y2258D01*
X3317D01*
Y2254D01*
X3315D01*
Y2250D01*
X3313D01*
Y2246D01*
X3310D01*
Y2241D01*
X3308D01*
Y2237D01*
X3306D01*
Y2233D01*
X3304D01*
Y2229D01*
X3302D01*
Y2225D01*
X3300D01*
Y2220D01*
X3298D01*
Y2216D01*
X3296D01*
Y2212D01*
X3294D01*
Y2208D01*
X3291D01*
Y2204D01*
X3289D01*
Y2199D01*
X3287D01*
Y2195D01*
X3285D01*
Y2191D01*
X3283D01*
Y2187D01*
X3281D01*
Y2182D01*
X3279D01*
Y2178D01*
X3277D01*
Y2174D01*
X3275D01*
Y2170D01*
X3273D01*
Y2166D01*
X3270D01*
Y2159D01*
X3268D01*
Y2155D01*
X3266D01*
Y2147D01*
X3268D01*
Y2142D01*
X3270D01*
Y2140D01*
X3273D01*
Y2138D01*
X3275D01*
Y2134D01*
X3277D01*
Y2132D01*
X3279D01*
Y2130D01*
X3281D01*
Y2125D01*
X3283D01*
Y2121D01*
X3285D01*
Y2119D01*
X3287D01*
Y2115D01*
X3289D01*
Y2113D01*
X3291D01*
Y2109D01*
X3294D01*
Y2106D01*
X3296D01*
Y2102D01*
X3298D01*
Y2098D01*
X3300D01*
Y2094D01*
X3302D01*
Y2090D01*
X3304D01*
Y2085D01*
X3306D01*
Y2081D01*
X3308D01*
Y2077D01*
X3310D01*
Y2073D01*
X3313D01*
Y2068D01*
X3315D01*
Y2062D01*
X3317D01*
Y2058D01*
X3319D01*
Y2052D01*
X3321D01*
Y2047D01*
X3323D01*
Y2041D01*
X3325D01*
Y2035D01*
X3327D01*
Y2028D01*
X3329D01*
Y2022D01*
X3332D01*
Y2016D01*
X3334D01*
Y2007D01*
X3336D01*
Y1999D01*
X3338D01*
Y1988D01*
X3340D01*
Y1978D01*
X3342D01*
Y1965D01*
X3344D01*
Y1955D01*
X3346D01*
Y1938D01*
X3348D01*
Y1906D01*
X3351D01*
Y1841D01*
X3348D01*
Y1811D01*
X3346D01*
Y1792D01*
X3344D01*
Y1784D01*
X3342D01*
Y1771D01*
X3340D01*
Y1758D01*
X3338D01*
Y1748D01*
X3336D01*
Y1741D01*
X3334D01*
Y1733D01*
X3332D01*
Y1725D01*
X3329D01*
Y1718D01*
X3327D01*
Y1712D01*
X3325D01*
Y1706D01*
X3323D01*
Y1701D01*
X3321D01*
Y1695D01*
X3319D01*
Y1689D01*
X3317D01*
Y1684D01*
X3315D01*
Y1678D01*
X3313D01*
Y1674D01*
X3310D01*
Y1670D01*
X3308D01*
Y1663D01*
X3306D01*
Y1659D01*
X3304D01*
Y1655D01*
X3302D01*
Y1651D01*
X3300D01*
Y1646D01*
X3298D01*
Y1642D01*
X3296D01*
Y1638D01*
X3294D01*
Y1636D01*
X3291D01*
Y1632D01*
X3289D01*
Y1628D01*
X3287D01*
Y1625D01*
X3285D01*
Y1621D01*
X3283D01*
Y1617D01*
X3281D01*
Y1615D01*
X3279D01*
Y1611D01*
X3277D01*
Y1609D01*
X3275D01*
Y1604D01*
X3273D01*
Y1602D01*
X3270D01*
Y1600D01*
X3268D01*
Y1596D01*
X3266D01*
Y1594D01*
X3264D01*
Y1592D01*
X3262D01*
Y1587D01*
X3260D01*
Y1585D01*
X3258D01*
Y1583D01*
X3256D01*
Y1581D01*
X3254D01*
Y1579D01*
X3251D01*
Y1577D01*
X3249D01*
Y1573D01*
X3247D01*
Y1571D01*
X3245D01*
Y1568D01*
X3243D01*
Y1566D01*
X3241D01*
Y1564D01*
X3239D01*
Y1562D01*
X3237D01*
Y1560D01*
X3235D01*
Y1558D01*
X3232D01*
Y1556D01*
X3230D01*
Y1554D01*
X3226D01*
Y1552D01*
X3224D01*
Y1549D01*
X3222D01*
Y1547D01*
X3218D01*
Y1545D01*
X3216D01*
Y1543D01*
X3213D01*
Y1541D01*
X3211D01*
Y1539D01*
X3207D01*
Y1537D01*
X3205D01*
Y1535D01*
X3201D01*
Y1533D01*
X3199D01*
Y1530D01*
X3197D01*
Y1528D01*
X3192D01*
Y1526D01*
X3190D01*
Y1524D01*
X3186D01*
Y1522D01*
X3182D01*
Y1520D01*
X3178D01*
Y1518D01*
X3173D01*
Y1516D01*
X3169D01*
Y1514D01*
X3165D01*
Y1511D01*
X3161D01*
Y1509D01*
X3156D01*
Y1507D01*
X3150D01*
Y1505D01*
X3146D01*
Y1503D01*
X3142D01*
Y1501D01*
X3135D01*
Y1499D01*
X3129D01*
Y1497D01*
X3123D01*
Y1495D01*
X3116D01*
Y1492D01*
X3106D01*
Y1490D01*
X3097D01*
Y1488D01*
X3089D01*
Y1486D01*
X3076D01*
Y1484D01*
X3057D01*
Y1482D01*
X2973D01*
Y1484D01*
X2954D01*
Y1486D01*
X2943D01*
Y1488D01*
X2935D01*
Y1490D01*
X2924D01*
Y1492D01*
X2916D01*
Y1495D01*
X2907D01*
Y1497D01*
X2901D01*
Y1499D01*
X2895D01*
Y1501D01*
X2888D01*
Y1503D01*
X2884D01*
Y1505D01*
X2880D01*
Y1507D01*
X2874D01*
Y1509D01*
X2869D01*
Y1511D01*
X2865D01*
Y1514D01*
X2861D01*
Y1516D01*
X2857D01*
Y1518D01*
X2853D01*
Y1520D01*
X2848D01*
Y1522D01*
X2844D01*
Y1524D01*
X2842D01*
Y1526D01*
X2838D01*
Y1528D01*
X2834D01*
Y1530D01*
X2832D01*
Y1533D01*
X2827D01*
Y1535D01*
X2825D01*
Y1537D01*
X2821D01*
Y1539D01*
X2819D01*
Y1541D01*
X2817D01*
Y1543D01*
X2813D01*
Y1545D01*
X2810D01*
Y1547D01*
X2808D01*
Y1549D01*
X2806D01*
Y1552D01*
X2804D01*
Y1554D01*
X2800D01*
Y1556D01*
X2798D01*
Y1558D01*
X2796D01*
Y1560D01*
X2791D01*
Y1562D01*
X2789D01*
Y1564D01*
X2787D01*
Y1566D01*
X2785D01*
Y1568D01*
X2783D01*
Y1571D01*
X2781D01*
Y1573D01*
X2779D01*
Y1575D01*
X2777D01*
Y1577D01*
X2775D01*
Y1579D01*
X2772D01*
Y1581D01*
X2770D01*
Y1585D01*
X2768D01*
Y1587D01*
X2766D01*
Y1590D01*
X2764D01*
Y1594D01*
X2762D01*
Y1596D01*
X2760D01*
Y1598D01*
X2758D01*
Y1602D01*
X2756D01*
Y1604D01*
X2753D01*
Y1606D01*
X2751D01*
Y1611D01*
X2749D01*
Y1613D01*
X2747D01*
Y1617D01*
X2745D01*
Y1619D01*
X2743D01*
Y1623D01*
X2741D01*
Y1625D01*
X2739D01*
Y1630D01*
X2737D01*
Y1632D01*
X2734D01*
Y1636D01*
X2732D01*
Y1640D01*
X2730D01*
Y1644D01*
X2728D01*
Y1649D01*
X2726D01*
Y1653D01*
X2724D01*
Y1657D01*
X2722D01*
Y1661D01*
X2720D01*
Y1665D01*
X2718D01*
Y1670D01*
X2715D01*
Y1674D01*
X2713D01*
Y1680D01*
X2711D01*
Y1684D01*
X2709D01*
Y1691D01*
X2707D01*
Y1695D01*
X2705D01*
Y1701D01*
X2703D01*
Y1708D01*
X2701D01*
Y1714D01*
X2699D01*
Y1718D01*
X2696D01*
Y1727D01*
X2694D01*
Y1733D01*
X2692D01*
Y1741D01*
X2690D01*
Y1750D01*
X2688D01*
Y1758D01*
X2686D01*
Y1771D01*
X2684D01*
Y1784D01*
X2682D01*
Y1792D01*
X2680D01*
Y1807D01*
X2677D01*
Y1845D01*
X2675D01*
Y1902D01*
X2677D01*
Y1936D01*
X2680D01*
Y1952D01*
X2682D01*
Y1963D01*
X2684D01*
Y1974D01*
X2686D01*
Y1986D01*
X2688D01*
Y1995D01*
X2690D01*
Y2003D01*
X2692D01*
Y2012D01*
X2694D01*
Y2020D01*
X2696D01*
Y2026D01*
X2699D01*
Y2033D01*
X2701D01*
Y2039D01*
X2703D01*
Y2043D01*
X2705D01*
Y2049D01*
X2707D01*
Y2054D01*
X2709D01*
Y2060D01*
X2711D01*
Y2064D01*
X2713D01*
Y2071D01*
X2715D01*
Y2075D01*
X2718D01*
Y2079D01*
X2720D01*
Y2083D01*
X2722D01*
Y2087D01*
X2724D01*
Y2092D01*
X2726D01*
Y2096D01*
X2728D01*
Y2100D01*
X2730D01*
Y2102D01*
Y2104D01*
X2732D01*
Y2109D01*
X2734D01*
Y2111D01*
X2737D01*
Y2115D01*
X2739D01*
Y2119D01*
X2741D01*
Y2121D01*
X2743D01*
Y2125D01*
X2745D01*
Y2128D01*
X2747D01*
Y2132D01*
X2749D01*
Y2134D01*
X2751D01*
Y2138D01*
X2753D01*
Y2140D01*
X2756D01*
Y2147D01*
X2753D01*
Y2151D01*
X2751D01*
Y2155D01*
X2749D01*
Y2159D01*
X2747D01*
Y2163D01*
X2745D01*
Y2168D01*
X2743D01*
Y2172D01*
X2741D01*
Y2176D01*
X2739D01*
Y2180D01*
X2737D01*
Y2182D01*
X2734D01*
Y2189D01*
X2732D01*
Y2191D01*
X2730D01*
Y2195D01*
X2728D01*
Y2199D01*
X2726D01*
Y2204D01*
X2724D01*
Y2208D01*
X2722D01*
Y2212D01*
X2720D01*
Y2216D01*
X2718D01*
Y2218D01*
X2715D01*
Y2222D01*
X2713D01*
Y2227D01*
X2711D01*
Y2231D01*
X2709D01*
Y2235D01*
X2707D01*
Y2239D01*
X2705D01*
Y2244D01*
X2703D01*
Y2246D01*
X2701D01*
Y2250D01*
X2699D01*
Y2254D01*
X2696D01*
Y2258D01*
X2694D01*
Y2263D01*
X2692D01*
Y2267D01*
X2690D01*
Y2271D01*
X2688D01*
Y2275D01*
X2686D01*
Y2277D01*
X2684D01*
Y2282D01*
X2682D01*
Y2286D01*
X2680D01*
Y2290D01*
X2677D01*
Y2292D01*
X2675D01*
Y2296D01*
X2673D01*
Y2301D01*
X2671D01*
Y2305D01*
X2669D01*
Y2309D01*
X2667D01*
Y2313D01*
X2665D01*
Y2317D01*
X2663D01*
Y2322D01*
X2661D01*
Y2324D01*
X2659D01*
Y2328D01*
X2656D01*
Y2332D01*
X2654D01*
Y2336D01*
X2652D01*
Y2339D01*
X2650D01*
Y2343D01*
X2648D01*
Y2347D01*
X2646D01*
Y2351D01*
X2644D01*
Y2355D01*
X2642D01*
Y2360D01*
X2640D01*
Y2364D01*
X2637D01*
Y2368D01*
X2635D01*
Y2370D01*
X2633D01*
Y2374D01*
X2631D01*
Y2379D01*
X2629D01*
Y2383D01*
X2627D01*
Y2387D01*
X2625D01*
Y2389D01*
X2623D01*
Y2393D01*
X2621D01*
Y2398D01*
X2618D01*
Y2402D01*
X2616D01*
Y2404D01*
X2614D01*
Y2408D01*
X2612D01*
Y2412D01*
X2610D01*
Y2417D01*
X2608D01*
Y2421D01*
X2606D01*
Y2425D01*
X2604D01*
Y2429D01*
X2602D01*
Y2433D01*
X2599D01*
Y2436D01*
X2597D01*
Y2440D01*
X2595D01*
Y2444D01*
X2593D01*
Y2448D01*
X2591D01*
Y2452D01*
X2589D01*
Y2457D01*
X2587D01*
Y2459D01*
X2585D01*
Y2463D01*
X2583D01*
Y2467D01*
X2580D01*
Y2471D01*
X2578D01*
Y2476D01*
X2576D01*
Y2478D01*
X2574D01*
Y2482D01*
X2572D01*
Y2486D01*
X2570D01*
Y2490D01*
X2568D01*
Y2493D01*
X2566D01*
Y2497D01*
X2564D01*
Y2501D01*
X2561D01*
Y2505D01*
X2559D01*
Y2509D01*
X2557D01*
Y2514D01*
X2555D01*
Y2518D01*
X2553D01*
Y2520D01*
X2551D01*
Y2524D01*
X2549D01*
Y2528D01*
X2547D01*
Y2533D01*
X2545D01*
Y2535D01*
X2542D01*
Y2539D01*
X2540D01*
Y2543D01*
X2538D01*
Y2545D01*
X2536D01*
Y2552D01*
X2534D01*
Y2556D01*
X2532D01*
Y2560D01*
X2530D01*
Y2564D01*
X2528D01*
Y2569D01*
X2526D01*
Y2571D01*
X2523D01*
Y2575D01*
X2521D01*
Y2579D01*
X2519D01*
Y2583D01*
X2517D01*
Y2590D01*
X2515D01*
Y2594D01*
X2513D01*
Y2598D01*
X2511D01*
Y2602D01*
X2509D01*
Y2607D01*
X2507D01*
Y2613D01*
X2504D01*
Y2615D01*
X2502D01*
Y2613D01*
X2500D01*
Y2607D01*
X2502D01*
Y1497D01*
X2500D01*
Y1495D01*
X2496D01*
Y1492D01*
X2350D01*
Y1495D01*
X2346D01*
Y3031D01*
X2350D01*
Y3033D01*
X2477D01*
Y3031D01*
X2483D01*
Y3029D01*
X2485D01*
Y3026D01*
X2488D01*
Y3024D01*
X2490D01*
Y3020D01*
X2492D01*
Y3016D01*
X2494D01*
Y3012D01*
X2496D01*
Y3007D01*
X2498D01*
Y3003D01*
X2500D01*
Y2999D01*
X2502D01*
Y2995D01*
X2504D01*
Y2993D01*
X2507D01*
Y2988D01*
X2509D01*
Y2984D01*
X2511D01*
Y2982D01*
X2513D01*
Y2978D01*
X2515D01*
Y2974D01*
X2517D01*
Y2969D01*
X2519D01*
Y2965D01*
X2521D01*
Y2961D01*
X2523D01*
Y2957D01*
X2526D01*
Y2953D01*
X2528D01*
Y2948D01*
X2530D01*
Y2944D01*
X2532D01*
Y2940D01*
X2534D01*
Y2936D01*
X2536D01*
Y2934D01*
X2538D01*
Y2929D01*
X2540D01*
Y2925D01*
X2542D01*
Y2921D01*
X2545D01*
Y2919D01*
X2547D01*
Y2915D01*
X2549D01*
Y2910D01*
X2551D01*
Y2906D01*
X2553D01*
Y2902D01*
X2555D01*
Y2898D01*
X2557D01*
Y2893D01*
X2559D01*
Y2889D01*
X2561D01*
Y2887D01*
X2564D01*
Y2883D01*
X2566D01*
Y2879D01*
X2568D01*
Y2874D01*
X2570D01*
Y2870D01*
X2572D01*
Y2866D01*
X2574D01*
Y2864D01*
X2576D01*
Y2860D01*
X2578D01*
Y2855D01*
X2580D01*
Y2851D01*
X2583D01*
Y2847D01*
X2585D01*
Y2843D01*
X2587D01*
Y2839D01*
X2589D01*
Y2834D01*
X2591D01*
Y2832D01*
X2593D01*
Y2828D01*
X2595D01*
Y2824D01*
X2597D01*
Y2820D01*
X2599D01*
Y2815D01*
X2602D01*
Y2811D01*
X2604D01*
Y2807D01*
X2606D01*
Y2803D01*
X2608D01*
Y2799D01*
X2610D01*
Y2796D01*
X2612D01*
Y2792D01*
X2614D01*
Y2788D01*
X2616D01*
Y2784D01*
X2618D01*
Y2782D01*
X2621D01*
Y2777D01*
X2623D01*
Y2773D01*
X2625D01*
Y2769D01*
X2627D01*
Y2765D01*
X2629D01*
Y2761D01*
X2631D01*
Y2758D01*
X2633D01*
Y2754D01*
X2635D01*
Y2750D01*
X2637D01*
Y2746D01*
X2640D01*
Y2742D01*
X2642D01*
Y2737D01*
X2644D01*
Y2733D01*
X2646D01*
Y2729D01*
X2648D01*
Y2725D01*
X2650D01*
Y2720D01*
X2652D01*
Y2718D01*
X2654D01*
Y2714D01*
X2656D01*
Y2710D01*
X2659D01*
Y2706D01*
X2661D01*
Y2701D01*
X2663D01*
Y2697D01*
X2665D01*
Y2695D01*
X2667D01*
Y2691D01*
X2669D01*
Y2687D01*
X2671D01*
Y2682D01*
X2673D01*
Y2678D01*
X2675D01*
Y2674D01*
X2677D01*
Y2670D01*
X2680D01*
Y2668D01*
X2682D01*
Y2663D01*
X2684D01*
Y2659D01*
X2686D01*
Y2655D01*
X2688D01*
Y2651D01*
X2690D01*
Y2647D01*
X2692D01*
Y2642D01*
X2694D01*
Y2638D01*
X2696D01*
Y2636D01*
X2699D01*
Y2632D01*
X2701D01*
Y2628D01*
X2703D01*
Y2623D01*
X2705D01*
Y2619D01*
X2707D01*
Y2615D01*
X2709D01*
Y2611D01*
X2711D01*
Y2609D01*
X2713D01*
Y2604D01*
X2715D01*
Y2600D01*
X2718D01*
Y2596D01*
X2720D01*
Y2592D01*
X2722D01*
Y2588D01*
X2724D01*
Y2583D01*
X2726D01*
Y2579D01*
X2728D01*
Y2575D01*
X2730D01*
Y2571D01*
X2732D01*
Y2566D01*
X2734D01*
Y2564D01*
X2737D01*
Y2560D01*
X2739D01*
Y2556D01*
X2741D01*
Y2552D01*
X2743D01*
Y2547D01*
X2745D01*
Y2543D01*
X2747D01*
Y2541D01*
X2749D01*
Y2537D01*
X2751D01*
Y2533D01*
X2753D01*
Y2528D01*
X2756D01*
Y2524D01*
X2758D01*
Y2520D01*
X2760D01*
Y2516D01*
X2762D01*
Y2512D01*
X2764D01*
Y2507D01*
X2766D01*
Y2505D01*
X2768D01*
Y2501D01*
X2770D01*
Y2497D01*
X2772D01*
Y2493D01*
X2775D01*
Y2488D01*
X2777D01*
Y2484D01*
X2779D01*
Y2480D01*
X2781D01*
Y2478D01*
X2783D01*
Y2474D01*
X2785D01*
Y2469D01*
X2787D01*
Y2465D01*
X2789D01*
Y2461D01*
X2791D01*
Y2457D01*
X2794D01*
Y2452D01*
X2796D01*
Y2448D01*
X2798D01*
Y2444D01*
X2800D01*
Y2440D01*
X2802D01*
Y2436D01*
X2804D01*
Y2433D01*
X2806D01*
Y2429D01*
X2808D01*
Y2425D01*
X2810D01*
Y2421D01*
X2813D01*
Y2417D01*
X2815D01*
Y2412D01*
X2817D01*
Y2410D01*
X2819D01*
Y2406D01*
X2821D01*
Y2402D01*
X2823D01*
Y2398D01*
X2825D01*
Y2393D01*
X2827D01*
Y2389D01*
X2829D01*
Y2385D01*
X2832D01*
Y2381D01*
X2834D01*
Y2377D01*
X2836D01*
Y2372D01*
X2838D01*
Y2368D01*
X2840D01*
Y2364D01*
X2842D01*
Y2362D01*
X2844D01*
Y2358D01*
X2846D01*
Y2353D01*
X2848D01*
Y2349D01*
X2851D01*
Y2345D01*
X2853D01*
Y2341D01*
X2855D01*
Y2336D01*
X2857D01*
Y2332D01*
X2859D01*
Y2328D01*
X2861D01*
Y2326D01*
X2863D01*
Y2322D01*
X2865D01*
Y2317D01*
X2867D01*
Y2313D01*
X2869D01*
Y2309D01*
X2872D01*
Y2305D01*
X2874D01*
Y2301D01*
X2876D01*
Y2296D01*
X2878D01*
Y2292D01*
X2880D01*
Y2288D01*
X2882D01*
Y2284D01*
X2884D01*
Y2282D01*
X2886D01*
Y2277D01*
X2888D01*
Y2273D01*
X2891D01*
Y2269D01*
X2893D01*
Y2265D01*
X2895D01*
Y2260D01*
X2897D01*
Y2256D01*
X2899D01*
Y2254D01*
X2901D01*
Y2250D01*
X2910D01*
Y2252D01*
X2918D01*
Y2254D01*
X2926D01*
Y2256D01*
X2937D01*
Y2258D01*
X2945D01*
Y2260D01*
X2956D01*
Y2263D01*
X2969D01*
Y2265D01*
X2992D01*
Y2267D01*
X3034D01*
Y2265D01*
X3049D01*
Y2263D01*
X3068D01*
Y2260D01*
X3080D01*
Y2258D01*
X3089D01*
Y2256D01*
X3099D01*
Y2254D01*
X3108D01*
Y2256D01*
X3110D01*
Y2260D01*
X3112D01*
Y2265D01*
X3114D01*
Y2267D01*
X3116D01*
Y2271D01*
X3118D01*
Y2275D01*
X3121D01*
Y2279D01*
X3123D01*
Y2284D01*
X3125D01*
Y2288D01*
X3127D01*
Y2292D01*
X3129D01*
Y2296D01*
X3131D01*
Y2301D01*
X3133D01*
Y2303D01*
X3135D01*
Y2307D01*
X3137D01*
Y2311D01*
X3140D01*
Y2315D01*
X3142D01*
Y2320D01*
X3144D01*
Y2324D01*
X3146D01*
Y2328D01*
X3148D01*
Y2332D01*
X3150D01*
Y2336D01*
X3152D01*
Y2341D01*
X3154D01*
Y2345D01*
X3156D01*
Y2349D01*
X3159D01*
Y2353D01*
X3161D01*
Y2358D01*
X3163D01*
Y2360D01*
X3165D01*
Y2364D01*
X3167D01*
Y2368D01*
X3169D01*
Y2372D01*
X3171D01*
Y2377D01*
X3173D01*
Y2383D01*
X3175D01*
Y2385D01*
X3178D01*
Y2389D01*
X3180D01*
Y2393D01*
X3182D01*
Y2398D01*
X3184D01*
Y2402D01*
X3186D01*
Y2406D01*
X3188D01*
Y2410D01*
X3190D01*
Y2415D01*
X3192D01*
Y2419D01*
X3194D01*
Y2423D01*
X3197D01*
Y2427D01*
X3199D01*
Y2431D01*
X3201D01*
Y2433D01*
X3203D01*
Y2438D01*
X3205D01*
Y2444D01*
X3207D01*
Y2448D01*
X3209D01*
Y2452D01*
X3211D01*
Y2455D01*
X3213D01*
Y2459D01*
X3216D01*
Y2463D01*
X3218D01*
Y2467D01*
X3220D01*
Y2471D01*
X3222D01*
Y2476D01*
X3224D01*
Y2480D01*
X3226D01*
Y2484D01*
X3228D01*
Y2488D01*
X3230D01*
Y2493D01*
X3232D01*
Y2497D01*
X3235D01*
Y2499D01*
X3237D01*
Y2503D01*
X3239D01*
Y2507D01*
X3241D01*
Y2512D01*
X3243D01*
Y2516D01*
X3245D01*
Y2520D01*
X3247D01*
Y2524D01*
X3249D01*
Y2528D01*
X3251D01*
Y2533D01*
X3254D01*
Y2537D01*
X3256D01*
Y2541D01*
X3258D01*
Y2545D01*
X3260D01*
Y2550D01*
X3262D01*
Y2554D01*
X3264D01*
Y2558D01*
X3266D01*
Y2560D01*
X3268D01*
Y2564D01*
X3270D01*
Y2569D01*
X3273D01*
Y2573D01*
X3275D01*
Y2577D01*
X3277D01*
Y2581D01*
X3279D01*
Y2585D01*
X3281D01*
Y2590D01*
X3283D01*
Y2594D01*
X3285D01*
Y2598D01*
X3287D01*
Y2600D01*
X3289D01*
Y2604D01*
X3291D01*
Y2609D01*
X3294D01*
Y2613D01*
X3296D01*
Y2617D01*
X3298D01*
Y2621D01*
X3300D01*
Y2625D01*
X3302D01*
Y2630D01*
X3304D01*
Y2634D01*
X3306D01*
Y2638D01*
X3308D01*
Y2642D01*
X3310D01*
Y2647D01*
X3313D01*
Y2651D01*
X3315D01*
Y2655D01*
X3317D01*
Y2657D01*
X3319D01*
Y2661D01*
X3321D01*
Y2666D01*
X3323D01*
Y2672D01*
X3325D01*
Y2676D01*
X3327D01*
Y2678D01*
X3329D01*
Y2682D01*
X3332D01*
Y2687D01*
X3334D01*
Y2691D01*
X3336D01*
Y2693D01*
X3338D01*
Y2697D01*
X3340D01*
Y2701D01*
X3342D01*
Y2706D01*
X3344D01*
Y2710D01*
X3346D01*
Y2714D01*
X3348D01*
Y2718D01*
X3351D01*
Y2723D01*
X3353D01*
Y2727D01*
X3355D01*
Y2731D01*
X3357D01*
Y2733D01*
X3359D01*
Y2737D01*
X3361D01*
Y2742D01*
X3363D01*
Y2746D01*
X3365D01*
Y2750D01*
X3367D01*
Y2754D01*
X3370D01*
Y2758D01*
X3372D01*
Y2763D01*
X3374D01*
Y2767D01*
X3376D01*
Y2771D01*
X3378D01*
Y2775D01*
X3380D01*
Y2780D01*
X3382D01*
Y2782D01*
X3384D01*
Y2786D01*
X3386D01*
Y2790D01*
X3389D01*
Y2794D01*
X3391D01*
Y2799D01*
X3393D01*
Y2803D01*
X3395D01*
Y2805D01*
X3397D01*
Y2809D01*
X3399D01*
Y2813D01*
X3401D01*
Y2817D01*
X3403D01*
Y2822D01*
X3405D01*
Y2826D01*
X3408D01*
Y2830D01*
X3410D01*
Y2834D01*
X3412D01*
Y2839D01*
X3414D01*
Y2843D01*
X3416D01*
Y2847D01*
X3418D01*
Y2851D01*
X3420D01*
Y2855D01*
X3422D01*
Y2860D01*
X3424D01*
Y2864D01*
X3427D01*
Y2868D01*
X3429D01*
Y2870D01*
X3431D01*
Y2874D01*
X3433D01*
Y2879D01*
X3435D01*
Y2883D01*
X3437D01*
Y2887D01*
X3439D01*
Y2891D01*
X3441D01*
Y2896D01*
X3443D01*
Y2900D01*
X3446D01*
Y2904D01*
X3448D01*
Y2908D01*
X3450D01*
Y2912D01*
X3452D01*
Y2917D01*
X3454D01*
Y2921D01*
X3456D01*
Y2925D01*
X3458D01*
Y2929D01*
X3460D01*
Y2934D01*
X3462D01*
Y2938D01*
X3465D01*
Y2940D01*
X3467D01*
Y2944D01*
X3469D01*
Y2948D01*
X3471D01*
Y2953D01*
X3473D01*
Y2957D01*
X3475D01*
Y2961D01*
X3477D01*
Y2965D01*
X3479D01*
Y2969D01*
X3481D01*
Y2972D01*
X3483D01*
Y2976D01*
X3486D01*
Y2980D01*
X3488D01*
Y2984D01*
X3490D01*
Y2988D01*
X3492D01*
Y2993D01*
X3494D01*
Y2997D01*
X3496D01*
Y3001D01*
X3498D01*
Y3005D01*
X3500D01*
Y3010D01*
X3502D01*
Y3014D01*
X3505D01*
Y3018D01*
X3507D01*
Y3022D01*
X3509D01*
Y3026D01*
X3511D01*
Y3029D01*
X3513D01*
Y3031D01*
X3517D01*
Y3033D01*
X3633D01*
Y3031D01*
D02*
G37*
G36*
X5376Y3045D02*
X5406D01*
Y3043D01*
X5418D01*
Y3041D01*
X5429D01*
Y3039D01*
X5441D01*
Y3037D01*
X5456D01*
Y3035D01*
X5465D01*
Y3033D01*
X5473D01*
Y3031D01*
X5482D01*
Y3029D01*
X5490D01*
Y3026D01*
X5498D01*
Y3024D01*
X5505D01*
Y3022D01*
X5511D01*
Y3020D01*
X5517D01*
Y3018D01*
X5524D01*
Y3016D01*
X5528D01*
Y3014D01*
X5534D01*
Y3012D01*
X5541D01*
Y3010D01*
X5545D01*
Y3007D01*
X5551D01*
Y3005D01*
X5555D01*
Y3003D01*
X5560D01*
Y3001D01*
X5564D01*
Y2999D01*
X5568D01*
Y2997D01*
X5572D01*
Y2995D01*
X5577D01*
Y2993D01*
X5581D01*
Y2991D01*
X5585D01*
Y2988D01*
X5589D01*
Y2986D01*
X5593D01*
Y2984D01*
X5596D01*
Y2982D01*
X5600D01*
Y2980D01*
X5604D01*
Y2978D01*
X5606D01*
Y2976D01*
X5608D01*
Y2974D01*
X5612D01*
Y2972D01*
X5615D01*
Y2969D01*
X5619D01*
Y2967D01*
X5623D01*
Y2965D01*
X5625D01*
Y2963D01*
X5629D01*
Y2961D01*
X5631D01*
Y2959D01*
X5634D01*
Y2957D01*
X5636D01*
Y2955D01*
X5640D01*
Y2953D01*
X5642D01*
Y2950D01*
X5644D01*
Y2948D01*
X5646D01*
Y2946D01*
X5650D01*
Y2944D01*
X5652D01*
Y2942D01*
X5655D01*
Y2940D01*
X5657D01*
Y2938D01*
X5659D01*
Y2936D01*
X5661D01*
Y2934D01*
X5663D01*
Y2931D01*
X5665D01*
Y2929D01*
X5667D01*
Y2927D01*
X5669D01*
Y2925D01*
X5671D01*
Y2923D01*
X5674D01*
Y2921D01*
X5676D01*
Y2919D01*
X5678D01*
Y2917D01*
X5682D01*
Y2915D01*
X5684D01*
Y2912D01*
X5686D01*
Y2910D01*
X5688D01*
Y2908D01*
X5690D01*
Y2906D01*
X5693D01*
Y2904D01*
X5695D01*
Y2900D01*
X5697D01*
Y2898D01*
X5699D01*
Y2896D01*
X5701D01*
Y2893D01*
X5703D01*
Y2889D01*
X5705D01*
Y2887D01*
X5707D01*
Y2885D01*
X5709D01*
Y2881D01*
X5712D01*
Y2879D01*
X5714D01*
Y2874D01*
X5716D01*
Y2872D01*
X5718D01*
Y2868D01*
X5720D01*
Y2866D01*
X5722D01*
Y2862D01*
X5724D01*
Y2860D01*
X5726D01*
Y2855D01*
X5728D01*
Y2851D01*
X5731D01*
Y2849D01*
X5733D01*
Y2845D01*
X5735D01*
Y2841D01*
X5737D01*
Y2836D01*
X5739D01*
Y2832D01*
X5741D01*
Y2828D01*
X5743D01*
Y2824D01*
X5745D01*
Y2820D01*
X5747D01*
Y2813D01*
X5750D01*
Y2809D01*
X5752D01*
Y2803D01*
X5754D01*
Y2799D01*
X5756D01*
Y2792D01*
X5758D01*
Y2786D01*
X5760D01*
Y2777D01*
X5762D01*
Y2771D01*
X5764D01*
Y2763D01*
X5766D01*
Y2750D01*
X5769D01*
Y2735D01*
X5771D01*
Y2727D01*
X5773D01*
Y2655D01*
X5771D01*
Y2649D01*
X5769D01*
Y2628D01*
X5766D01*
Y2615D01*
X5764D01*
Y2607D01*
X5762D01*
Y2598D01*
X5760D01*
Y2592D01*
X5758D01*
Y2583D01*
X5756D01*
Y2577D01*
X5754D01*
Y2571D01*
X5752D01*
Y2564D01*
X5750D01*
Y2560D01*
X5747D01*
Y2556D01*
X5745D01*
Y2550D01*
X5743D01*
Y2545D01*
X5741D01*
Y2541D01*
X5739D01*
Y2535D01*
X5737D01*
Y2531D01*
X5735D01*
Y2526D01*
X5733D01*
Y2522D01*
X5731D01*
Y2520D01*
X5728D01*
Y2516D01*
X5726D01*
Y2512D01*
X5724D01*
Y2507D01*
X5722D01*
Y2505D01*
X5720D01*
Y2501D01*
X5718D01*
Y2497D01*
X5716D01*
Y2495D01*
X5714D01*
Y2490D01*
X5712D01*
Y2488D01*
X5709D01*
Y2484D01*
X5707D01*
Y2482D01*
X5705D01*
Y2480D01*
X5703D01*
Y2476D01*
X5701D01*
Y2474D01*
X5699D01*
Y2471D01*
X5697D01*
Y2469D01*
X5695D01*
Y2465D01*
X5693D01*
Y2463D01*
X5690D01*
Y2459D01*
X5688D01*
Y2457D01*
X5686D01*
Y2455D01*
X5684D01*
Y2452D01*
X5682D01*
Y2450D01*
X5680D01*
Y2448D01*
X5678D01*
Y2446D01*
X5676D01*
Y2444D01*
X5674D01*
Y2442D01*
X5671D01*
Y2440D01*
X5669D01*
Y2438D01*
X5667D01*
Y2436D01*
X5665D01*
Y2433D01*
X5663D01*
Y2431D01*
X5661D01*
Y2429D01*
X5659D01*
Y2427D01*
X5657D01*
Y2425D01*
X5655D01*
Y2423D01*
X5652D01*
Y2421D01*
X5650D01*
Y2419D01*
X5648D01*
Y2417D01*
X5646D01*
Y2415D01*
X5644D01*
Y2412D01*
X5642D01*
Y2410D01*
X5640D01*
Y2408D01*
X5638D01*
Y2406D01*
X5634D01*
Y2404D01*
X5631D01*
Y2402D01*
X5629D01*
Y2400D01*
X5625D01*
Y2398D01*
X5623D01*
Y2396D01*
X5621D01*
Y2393D01*
X5617D01*
Y2391D01*
X5615D01*
Y2389D01*
X5610D01*
Y2387D01*
X5608D01*
Y2385D01*
X5606D01*
Y2383D01*
X5602D01*
Y2381D01*
X5600D01*
Y2379D01*
X5598D01*
Y2377D01*
X5593D01*
Y2374D01*
X5591D01*
Y2372D01*
X5587D01*
Y2370D01*
X5585D01*
Y2368D01*
X5581D01*
Y2366D01*
X5579D01*
Y2364D01*
X5574D01*
Y2362D01*
X5570D01*
Y2360D01*
X5568D01*
Y2358D01*
X5564D01*
Y2355D01*
X5562D01*
Y2353D01*
X5558D01*
Y2351D01*
X5555D01*
Y2349D01*
X5551D01*
Y2347D01*
X5549D01*
Y2345D01*
X5545D01*
Y2343D01*
X5541D01*
Y2341D01*
X5539D01*
Y2339D01*
X5534D01*
Y2336D01*
X5530D01*
Y2334D01*
X5526D01*
Y2332D01*
X5524D01*
Y2330D01*
X5520D01*
Y2328D01*
X5515D01*
Y2326D01*
X5511D01*
Y2324D01*
X5507D01*
Y2322D01*
X5505D01*
Y2320D01*
X5501D01*
Y2317D01*
X5496D01*
Y2315D01*
X5492D01*
Y2313D01*
X5488D01*
Y2311D01*
X5484D01*
Y2309D01*
X5479D01*
Y2307D01*
X5475D01*
Y2305D01*
X5471D01*
Y2303D01*
X5467D01*
Y2301D01*
X5463D01*
Y2298D01*
X5458D01*
Y2296D01*
X5454D01*
Y2294D01*
X5450D01*
Y2292D01*
X5446D01*
Y2290D01*
X5439D01*
Y2288D01*
X5435D01*
Y2286D01*
X5431D01*
Y2284D01*
X5427D01*
Y2282D01*
X5423D01*
Y2279D01*
X5416D01*
Y2277D01*
X5412D01*
Y2275D01*
X5408D01*
Y2273D01*
X5401D01*
Y2271D01*
X5397D01*
Y2269D01*
X5391D01*
Y2267D01*
X5387D01*
Y2265D01*
X5380D01*
Y2263D01*
X5376D01*
Y2260D01*
X5370D01*
Y2258D01*
X5366D01*
Y2256D01*
X5359D01*
Y2254D01*
X5355D01*
Y2252D01*
X5351D01*
Y2250D01*
X5344D01*
Y2248D01*
X5338D01*
Y2246D01*
X5332D01*
Y2244D01*
X5328D01*
Y2241D01*
X5321D01*
Y2239D01*
X5315D01*
Y2237D01*
X5311D01*
Y2235D01*
X5304D01*
Y2233D01*
X5300D01*
Y2231D01*
X5294D01*
Y2229D01*
X5290D01*
Y2227D01*
X5285D01*
Y2225D01*
X5279D01*
Y2222D01*
X5273D01*
Y2220D01*
X5268D01*
Y2218D01*
X5264D01*
Y2216D01*
X5260D01*
Y2214D01*
X5254D01*
Y2212D01*
X5250D01*
Y2210D01*
X5243D01*
Y2208D01*
X5239D01*
Y2206D01*
X5235D01*
Y2204D01*
X5231D01*
Y2201D01*
X5226D01*
Y2199D01*
X5222D01*
Y2197D01*
X5218D01*
Y2195D01*
X5214D01*
Y2193D01*
X5212D01*
Y2191D01*
X5207D01*
Y2189D01*
X5203D01*
Y2187D01*
X5199D01*
Y2185D01*
X5195D01*
Y2182D01*
X5190D01*
Y2180D01*
X5188D01*
Y2178D01*
X5184D01*
Y2176D01*
X5180D01*
Y2174D01*
X5178D01*
Y2172D01*
X5174D01*
Y2170D01*
X5169D01*
Y2168D01*
X5167D01*
Y2166D01*
X5163D01*
Y2163D01*
X5159D01*
Y2161D01*
X5157D01*
Y2159D01*
X5152D01*
Y2157D01*
X5150D01*
Y2155D01*
X5148D01*
Y2153D01*
X5144D01*
Y2151D01*
X5142D01*
Y2149D01*
X5138D01*
Y2147D01*
X5136D01*
Y2144D01*
X5131D01*
Y2142D01*
X5129D01*
Y2140D01*
X5125D01*
Y2138D01*
X5123D01*
Y2136D01*
X5121D01*
Y2134D01*
X5117D01*
Y2132D01*
X5114D01*
Y2130D01*
X5112D01*
Y2128D01*
X5110D01*
Y2125D01*
X5106D01*
Y2123D01*
X5104D01*
Y2121D01*
X5102D01*
Y2119D01*
X5100D01*
Y2117D01*
X5095D01*
Y2115D01*
X5093D01*
Y2113D01*
X5091D01*
Y2111D01*
X5089D01*
Y2109D01*
X5087D01*
Y2106D01*
X5085D01*
Y2104D01*
X5083D01*
Y2102D01*
X5081D01*
Y2100D01*
X5079D01*
Y2098D01*
X5076D01*
Y2096D01*
X5074D01*
Y2094D01*
X5072D01*
Y2092D01*
X5070D01*
Y2090D01*
X5068D01*
Y2087D01*
X5066D01*
Y2085D01*
X5064D01*
Y2083D01*
X5062D01*
Y2081D01*
X5060D01*
Y2079D01*
X5057D01*
Y2077D01*
X5055D01*
Y2075D01*
X5053D01*
Y2071D01*
X5051D01*
Y2068D01*
X5049D01*
Y2066D01*
X5047D01*
Y2064D01*
X5045D01*
Y2060D01*
X5043D01*
Y2058D01*
X5041D01*
Y2056D01*
X5038D01*
Y2052D01*
X5036D01*
Y2047D01*
X5034D01*
Y2045D01*
X5032D01*
Y2041D01*
X5030D01*
Y2039D01*
X5028D01*
Y2035D01*
X5026D01*
Y2031D01*
X5024D01*
Y2028D01*
X5022D01*
Y2024D01*
X5020D01*
Y2020D01*
X5017D01*
Y2016D01*
X5015D01*
Y2009D01*
X5013D01*
Y2005D01*
X5011D01*
Y2001D01*
X5009D01*
Y1995D01*
X5007D01*
Y1988D01*
X5005D01*
Y1980D01*
X5003D01*
Y1974D01*
X5001D01*
Y1965D01*
X4998D01*
Y1957D01*
X4996D01*
Y1940D01*
X4994D01*
Y1866D01*
X4996D01*
Y1849D01*
X4998D01*
Y1839D01*
X5001D01*
Y1830D01*
X5003D01*
Y1824D01*
X5005D01*
Y1815D01*
X5007D01*
Y1809D01*
X5009D01*
Y1803D01*
X5011D01*
Y1798D01*
X5013D01*
Y1794D01*
X5015D01*
Y1790D01*
X5017D01*
Y1784D01*
X5020D01*
Y1779D01*
X5022D01*
Y1777D01*
X5024D01*
Y1773D01*
X5026D01*
Y1769D01*
X5028D01*
Y1765D01*
X5030D01*
Y1763D01*
X5032D01*
Y1758D01*
X5034D01*
Y1756D01*
X5036D01*
Y1752D01*
X5038D01*
Y1750D01*
X5041D01*
Y1748D01*
X5043D01*
Y1744D01*
X5045D01*
Y1741D01*
X5047D01*
Y1739D01*
X5049D01*
Y1737D01*
X5051D01*
Y1733D01*
X5053D01*
Y1731D01*
X5055D01*
Y1729D01*
X5057D01*
Y1727D01*
X5060D01*
Y1725D01*
X5062D01*
Y1722D01*
X5064D01*
Y1720D01*
X5066D01*
Y1718D01*
X5068D01*
Y1716D01*
X5070D01*
Y1714D01*
X5072D01*
Y1712D01*
X5076D01*
Y1710D01*
X5079D01*
Y1708D01*
X5081D01*
Y1706D01*
X5083D01*
Y1703D01*
X5085D01*
Y1701D01*
X5089D01*
Y1699D01*
X5091D01*
Y1697D01*
X5095D01*
Y1695D01*
X5098D01*
Y1693D01*
X5100D01*
Y1691D01*
X5104D01*
Y1689D01*
X5108D01*
Y1687D01*
X5110D01*
Y1684D01*
X5114D01*
Y1682D01*
X5119D01*
Y1680D01*
X5123D01*
Y1678D01*
X5127D01*
Y1676D01*
X5131D01*
Y1674D01*
X5136D01*
Y1672D01*
X5140D01*
Y1670D01*
X5144D01*
Y1668D01*
X5148D01*
Y1665D01*
X5152D01*
Y1663D01*
X5159D01*
Y1661D01*
X5165D01*
Y1659D01*
X5171D01*
Y1657D01*
X5178D01*
Y1655D01*
X5184D01*
Y1653D01*
X5193D01*
Y1651D01*
X5201D01*
Y1649D01*
X5209D01*
Y1646D01*
X5220D01*
Y1644D01*
X5241D01*
Y1642D01*
X5275D01*
Y1640D01*
X5290D01*
Y1642D01*
X5328D01*
Y1640D01*
X5332D01*
Y1642D01*
X5357D01*
Y1644D01*
X5372D01*
Y1646D01*
X5380D01*
Y1649D01*
X5393D01*
Y1651D01*
X5401D01*
Y1653D01*
X5410D01*
Y1655D01*
X5416D01*
Y1657D01*
X5423D01*
Y1659D01*
X5429D01*
Y1661D01*
X5435D01*
Y1663D01*
X5441D01*
Y1665D01*
X5448D01*
Y1668D01*
X5454D01*
Y1670D01*
X5458D01*
Y1672D01*
X5463D01*
Y1674D01*
X5467D01*
Y1676D01*
X5473D01*
Y1678D01*
X5477D01*
Y1680D01*
X5482D01*
Y1682D01*
X5484D01*
Y1684D01*
X5488D01*
Y1687D01*
X5492D01*
Y1689D01*
X5496D01*
Y1691D01*
X5498D01*
Y1693D01*
X5501D01*
Y1695D01*
X5505D01*
Y1697D01*
X5507D01*
Y1699D01*
X5511D01*
Y1701D01*
X5515D01*
Y1703D01*
X5517D01*
Y1706D01*
X5522D01*
Y1708D01*
X5524D01*
Y1710D01*
X5526D01*
Y1712D01*
X5530D01*
Y1714D01*
X5532D01*
Y1716D01*
X5534D01*
Y1718D01*
X5539D01*
Y1720D01*
X5541D01*
Y1722D01*
X5543D01*
Y1725D01*
X5545D01*
Y1727D01*
X5547D01*
Y1729D01*
X5551D01*
Y1731D01*
X5553D01*
Y1733D01*
X5555D01*
Y1735D01*
X5560D01*
Y1737D01*
X5562D01*
Y1739D01*
X5564D01*
Y1741D01*
X5566D01*
Y1744D01*
X5568D01*
Y1746D01*
X5570D01*
Y1748D01*
X5572D01*
Y1750D01*
X5574D01*
Y1752D01*
X5577D01*
Y1754D01*
X5579D01*
Y1756D01*
X5581D01*
Y1758D01*
X5583D01*
Y1760D01*
X5585D01*
Y1763D01*
X5587D01*
Y1767D01*
X5589D01*
Y1769D01*
X5591D01*
Y1771D01*
X5593D01*
Y1773D01*
X5596D01*
Y1775D01*
X5598D01*
Y1777D01*
X5600D01*
Y1779D01*
X5602D01*
Y1782D01*
X5604D01*
Y1786D01*
X5606D01*
Y1788D01*
X5608D01*
Y1792D01*
X5610D01*
Y1794D01*
X5612D01*
Y1796D01*
X5615D01*
Y1801D01*
X5617D01*
Y1803D01*
X5619D01*
Y1805D01*
X5621D01*
Y1809D01*
X5623D01*
Y1811D01*
X5625D01*
Y1815D01*
X5627D01*
Y1817D01*
X5629D01*
Y1822D01*
X5631D01*
Y1826D01*
X5634D01*
Y1828D01*
X5636D01*
Y1832D01*
X5638D01*
Y1836D01*
X5640D01*
Y1839D01*
X5642D01*
Y1843D01*
X5644D01*
Y1847D01*
X5646D01*
Y1851D01*
X5648D01*
Y1857D01*
X5650D01*
Y1862D01*
X5652D01*
Y1864D01*
X5663D01*
Y1862D01*
X5667D01*
Y1860D01*
X5674D01*
Y1857D01*
X5678D01*
Y1855D01*
X5684D01*
Y1853D01*
X5690D01*
Y1851D01*
X5695D01*
Y1849D01*
X5699D01*
Y1847D01*
X5705D01*
Y1845D01*
X5709D01*
Y1843D01*
X5716D01*
Y1841D01*
X5722D01*
Y1839D01*
X5726D01*
Y1836D01*
X5731D01*
Y1834D01*
X5735D01*
Y1832D01*
X5741D01*
Y1830D01*
X5745D01*
Y1828D01*
X5752D01*
Y1826D01*
X5758D01*
Y1824D01*
X5762D01*
Y1822D01*
X5769D01*
Y1820D01*
X5775D01*
Y1817D01*
X5779D01*
Y1815D01*
X5785D01*
Y1813D01*
X5790D01*
Y1811D01*
X5796D01*
Y1809D01*
X5800D01*
Y1807D01*
X5807D01*
Y1805D01*
X5811D01*
Y1803D01*
X5813D01*
Y1796D01*
X5811D01*
Y1790D01*
X5809D01*
Y1784D01*
X5807D01*
Y1779D01*
X5804D01*
Y1775D01*
X5802D01*
Y1769D01*
X5800D01*
Y1765D01*
X5798D01*
Y1760D01*
X5796D01*
Y1756D01*
X5794D01*
Y1752D01*
X5792D01*
Y1748D01*
X5790D01*
Y1744D01*
X5788D01*
Y1739D01*
X5785D01*
Y1735D01*
X5783D01*
Y1733D01*
X5781D01*
Y1729D01*
X5779D01*
Y1725D01*
X5777D01*
Y1720D01*
X5775D01*
Y1718D01*
X5773D01*
Y1714D01*
X5771D01*
Y1712D01*
X5769D01*
Y1710D01*
X5766D01*
Y1706D01*
X5764D01*
Y1703D01*
X5762D01*
Y1699D01*
X5760D01*
Y1697D01*
X5758D01*
Y1695D01*
X5756D01*
Y1691D01*
X5754D01*
Y1689D01*
X5752D01*
Y1684D01*
X5750D01*
Y1682D01*
X5747D01*
Y1680D01*
X5745D01*
Y1678D01*
X5743D01*
Y1676D01*
X5741D01*
Y1674D01*
X5739D01*
Y1672D01*
X5737D01*
Y1670D01*
X5735D01*
Y1665D01*
X5733D01*
Y1663D01*
X5731D01*
Y1661D01*
X5728D01*
Y1657D01*
X5726D01*
Y1655D01*
X5724D01*
Y1653D01*
X5722D01*
Y1651D01*
X5720D01*
Y1649D01*
X5718D01*
Y1646D01*
X5716D01*
Y1644D01*
X5714D01*
Y1642D01*
X5712D01*
Y1640D01*
X5709D01*
Y1638D01*
X5707D01*
Y1636D01*
X5705D01*
Y1634D01*
X5703D01*
Y1632D01*
X5701D01*
Y1630D01*
X5699D01*
Y1628D01*
X5697D01*
Y1625D01*
X5693D01*
Y1623D01*
X5690D01*
Y1621D01*
X5688D01*
Y1619D01*
X5684D01*
Y1617D01*
X5682D01*
Y1615D01*
X5680D01*
Y1613D01*
X5678D01*
Y1611D01*
X5676D01*
Y1609D01*
X5674D01*
Y1606D01*
X5671D01*
Y1604D01*
X5667D01*
Y1602D01*
X5665D01*
Y1600D01*
X5663D01*
Y1598D01*
X5661D01*
Y1596D01*
X5657D01*
Y1594D01*
X5655D01*
Y1592D01*
X5650D01*
Y1590D01*
X5648D01*
Y1587D01*
X5644D01*
Y1585D01*
X5642D01*
Y1583D01*
X5638D01*
Y1581D01*
X5636D01*
Y1579D01*
X5634D01*
Y1577D01*
X5629D01*
Y1575D01*
X5627D01*
Y1573D01*
X5623D01*
Y1571D01*
X5619D01*
Y1568D01*
X5615D01*
Y1566D01*
X5612D01*
Y1564D01*
X5608D01*
Y1562D01*
X5606D01*
Y1560D01*
X5602D01*
Y1558D01*
X5598D01*
Y1556D01*
X5596D01*
Y1554D01*
X5591D01*
Y1552D01*
X5587D01*
Y1549D01*
X5583D01*
Y1547D01*
X5579D01*
Y1545D01*
X5574D01*
Y1543D01*
X5570D01*
Y1541D01*
X5566D01*
Y1539D01*
X5562D01*
Y1537D01*
X5558D01*
Y1535D01*
X5553D01*
Y1533D01*
X5547D01*
Y1530D01*
X5543D01*
Y1528D01*
X5536D01*
Y1526D01*
X5532D01*
Y1524D01*
X5526D01*
Y1522D01*
X5522D01*
Y1520D01*
X5515D01*
Y1518D01*
X5509D01*
Y1516D01*
X5503D01*
Y1514D01*
X5494D01*
Y1511D01*
X5488D01*
Y1509D01*
X5482D01*
Y1507D01*
X5473D01*
Y1505D01*
X5465D01*
Y1503D01*
X5456D01*
Y1501D01*
X5448D01*
Y1499D01*
X5439D01*
Y1497D01*
X5429D01*
Y1495D01*
X5414D01*
Y1492D01*
X5395D01*
Y1490D01*
X5387D01*
Y1488D01*
X5355D01*
Y1486D01*
X5247D01*
Y1488D01*
X5216D01*
Y1490D01*
X5209D01*
Y1492D01*
X5188D01*
Y1495D01*
X5176D01*
Y1497D01*
X5167D01*
Y1499D01*
X5157D01*
Y1501D01*
X5146D01*
Y1503D01*
X5140D01*
Y1505D01*
X5131D01*
Y1507D01*
X5123D01*
Y1509D01*
X5117D01*
Y1511D01*
X5110D01*
Y1514D01*
X5104D01*
Y1516D01*
X5098D01*
Y1518D01*
X5091D01*
Y1520D01*
X5085D01*
Y1522D01*
X5081D01*
Y1524D01*
X5074D01*
Y1526D01*
X5070D01*
Y1528D01*
X5064D01*
Y1530D01*
X5060D01*
Y1533D01*
X5055D01*
Y1535D01*
X5051D01*
Y1537D01*
X5047D01*
Y1539D01*
X5043D01*
Y1541D01*
X5038D01*
Y1543D01*
X5034D01*
Y1545D01*
X5030D01*
Y1547D01*
X5026D01*
Y1549D01*
X5022D01*
Y1552D01*
X5017D01*
Y1554D01*
X5015D01*
Y1556D01*
X5011D01*
Y1558D01*
X5009D01*
Y1560D01*
X5005D01*
Y1562D01*
X5001D01*
Y1564D01*
X4998D01*
Y1566D01*
X4994D01*
Y1568D01*
X4992D01*
Y1571D01*
X4988D01*
Y1573D01*
X4986D01*
Y1575D01*
X4982D01*
Y1577D01*
X4979D01*
Y1579D01*
X4977D01*
Y1581D01*
X4973D01*
Y1583D01*
X4971D01*
Y1585D01*
X4969D01*
Y1587D01*
X4965D01*
Y1590D01*
X4963D01*
Y1592D01*
X4960D01*
Y1594D01*
X4958D01*
Y1596D01*
X4954D01*
Y1598D01*
X4952D01*
Y1600D01*
X4950D01*
Y1602D01*
X4948D01*
Y1604D01*
X4946D01*
Y1606D01*
X4944D01*
Y1609D01*
X4941D01*
Y1611D01*
X4939D01*
Y1613D01*
X4937D01*
Y1615D01*
X4935D01*
Y1617D01*
X4933D01*
Y1619D01*
X4931D01*
Y1621D01*
X4929D01*
Y1623D01*
X4927D01*
Y1625D01*
X4925D01*
Y1628D01*
X4922D01*
Y1630D01*
X4920D01*
Y1632D01*
X4918D01*
Y1634D01*
X4916D01*
Y1636D01*
X4914D01*
Y1638D01*
X4912D01*
Y1640D01*
X4910D01*
Y1642D01*
X4908D01*
Y1644D01*
X4906D01*
Y1646D01*
X4903D01*
Y1649D01*
X4901D01*
Y1651D01*
X4899D01*
Y1655D01*
X4897D01*
Y1657D01*
X4895D01*
Y1661D01*
X4893D01*
Y1663D01*
X4891D01*
Y1665D01*
X4889D01*
Y1670D01*
X4887D01*
Y1672D01*
X4884D01*
Y1674D01*
X4882D01*
Y1678D01*
X4880D01*
Y1680D01*
X4878D01*
Y1684D01*
X4876D01*
Y1687D01*
X4874D01*
Y1691D01*
X4872D01*
Y1695D01*
X4870D01*
Y1699D01*
X4868D01*
Y1701D01*
X4865D01*
Y1706D01*
X4863D01*
Y1710D01*
X4861D01*
Y1714D01*
X4859D01*
Y1718D01*
X4857D01*
Y1722D01*
X4855D01*
Y1727D01*
X4853D01*
Y1731D01*
X4851D01*
Y1735D01*
X4849D01*
Y1741D01*
X4846D01*
Y1746D01*
X4844D01*
Y1752D01*
X4842D01*
Y1758D01*
X4840D01*
Y1765D01*
X4838D01*
Y1771D01*
X4836D01*
Y1777D01*
X4834D01*
Y1784D01*
X4832D01*
Y1792D01*
X4830D01*
Y1801D01*
X4828D01*
Y1811D01*
X4825D01*
Y1820D01*
X4823D01*
Y1839D01*
X4821D01*
Y1868D01*
X4819D01*
Y1879D01*
X4817D01*
Y1931D01*
X4819D01*
Y1944D01*
X4817D01*
Y1946D01*
X4806D01*
Y1948D01*
X4798D01*
Y1950D01*
X4792D01*
Y1952D01*
X4785D01*
Y1955D01*
X4781D01*
Y1957D01*
X4777D01*
Y1959D01*
X4775D01*
Y1961D01*
X4771D01*
Y1963D01*
X4768D01*
Y1965D01*
X4766D01*
Y1967D01*
X4762D01*
Y1969D01*
X4760D01*
Y1971D01*
X4758D01*
Y1974D01*
X4756D01*
Y1976D01*
X4754D01*
Y1978D01*
X4752D01*
Y1980D01*
X4749D01*
Y1984D01*
X4747D01*
Y1986D01*
X4745D01*
Y1988D01*
X4743D01*
Y1993D01*
X4741D01*
Y1995D01*
X4739D01*
Y1997D01*
X4737D01*
Y1990D01*
X4735D01*
Y1988D01*
X4737D01*
Y1891D01*
X4735D01*
Y1889D01*
X4737D01*
Y1887D01*
X4735D01*
Y1874D01*
X4737D01*
Y1505D01*
X4735D01*
Y1501D01*
X4133D01*
Y1503D01*
X4093D01*
Y1505D01*
X4085D01*
Y1507D01*
X4066D01*
Y1509D01*
X4053D01*
Y1511D01*
X4043D01*
Y1514D01*
X4032D01*
Y1516D01*
X4022D01*
Y1518D01*
X4013D01*
Y1520D01*
X4005D01*
Y1522D01*
X3996D01*
Y1524D01*
X3990D01*
Y1526D01*
X3984D01*
Y1528D01*
X3975D01*
Y1530D01*
X3971D01*
Y1533D01*
X3965D01*
Y1535D01*
X3958D01*
Y1537D01*
X3952D01*
Y1539D01*
X3946D01*
Y1541D01*
X3941D01*
Y1543D01*
X3937D01*
Y1545D01*
X3933D01*
Y1547D01*
X3929D01*
Y1549D01*
X3922D01*
Y1552D01*
X3918D01*
Y1554D01*
X3914D01*
Y1556D01*
X3910D01*
Y1558D01*
X3905D01*
Y1560D01*
X3901D01*
Y1562D01*
X3899D01*
Y1564D01*
X3895D01*
Y1566D01*
X3891D01*
Y1568D01*
X3889D01*
Y1571D01*
X3884D01*
Y1573D01*
X3882D01*
Y1575D01*
X3878D01*
Y1577D01*
X3874D01*
Y1579D01*
X3872D01*
Y1581D01*
X3870D01*
Y1583D01*
X3865D01*
Y1585D01*
X3863D01*
Y1587D01*
X3861D01*
Y1590D01*
X3857D01*
Y1592D01*
X3855D01*
Y1594D01*
X3853D01*
Y1596D01*
X3849D01*
Y1598D01*
X3846D01*
Y1600D01*
X3844D01*
Y1602D01*
X3840D01*
Y1604D01*
X3838D01*
Y1606D01*
X3836D01*
Y1609D01*
X3834D01*
Y1611D01*
X3832D01*
Y1613D01*
X3830D01*
Y1615D01*
X3827D01*
Y1617D01*
X3825D01*
Y1619D01*
X3823D01*
Y1621D01*
X3821D01*
Y1623D01*
X3819D01*
Y1625D01*
X3817D01*
Y1628D01*
X3815D01*
Y1630D01*
X3813D01*
Y1632D01*
X3811D01*
Y1634D01*
X3808D01*
Y1636D01*
X3806D01*
Y1638D01*
X3804D01*
Y1640D01*
X3802D01*
Y1644D01*
X3800D01*
Y1646D01*
X3798D01*
Y1649D01*
X3796D01*
Y1651D01*
X3794D01*
Y1655D01*
X3792D01*
Y1657D01*
X3789D01*
Y1659D01*
X3787D01*
Y1663D01*
X3785D01*
Y1665D01*
X3783D01*
Y1670D01*
X3781D01*
Y1672D01*
X3779D01*
Y1674D01*
X3777D01*
Y1678D01*
X3775D01*
Y1680D01*
X3773D01*
Y1684D01*
X3770D01*
Y1687D01*
X3768D01*
Y1691D01*
X3766D01*
Y1693D01*
X3764D01*
Y1697D01*
X3762D01*
Y1699D01*
X3760D01*
Y1703D01*
X3758D01*
Y1708D01*
X3756D01*
Y1710D01*
X3754D01*
Y1714D01*
X3751D01*
Y1718D01*
X3749D01*
Y1720D01*
X3747D01*
Y1725D01*
X3745D01*
Y1731D01*
X3743D01*
Y1733D01*
X3741D01*
Y1737D01*
X3739D01*
Y1744D01*
X3737D01*
Y1748D01*
X3735D01*
Y1752D01*
X3732D01*
Y1758D01*
X3730D01*
Y1763D01*
X3728D01*
Y1769D01*
X3726D01*
Y1775D01*
X3724D01*
Y1779D01*
X3722D01*
Y1788D01*
X3720D01*
Y1794D01*
X3718D01*
Y1803D01*
X3716D01*
Y1809D01*
X3713D01*
Y1817D01*
X3711D01*
Y1828D01*
X3709D01*
Y1841D01*
X3707D01*
Y1851D01*
X3705D01*
Y1872D01*
X3703D01*
Y1978D01*
X3705D01*
Y1997D01*
X3707D01*
Y2007D01*
X3709D01*
Y2018D01*
X3711D01*
Y2031D01*
X3713D01*
Y2039D01*
X3716D01*
Y2045D01*
X3718D01*
Y2054D01*
X3720D01*
Y2060D01*
X3722D01*
Y2066D01*
X3724D01*
Y2073D01*
X3726D01*
Y2077D01*
X3728D01*
Y2083D01*
X3730D01*
Y2087D01*
X3732D01*
Y2094D01*
X3735D01*
Y2098D01*
X3737D01*
Y2104D01*
X3739D01*
Y2109D01*
X3741D01*
Y2113D01*
X3743D01*
Y2117D01*
X3745D01*
Y2119D01*
Y2121D01*
X3747D01*
Y2125D01*
X3749D01*
Y2130D01*
X3751D01*
Y2134D01*
X3754D01*
Y2136D01*
X3756D01*
Y2140D01*
X3758D01*
Y2147D01*
X3743D01*
Y2149D01*
X3735D01*
Y2151D01*
X3728D01*
Y2153D01*
X3724D01*
Y2155D01*
X3722D01*
Y2157D01*
X3718D01*
Y2159D01*
X3716D01*
Y2161D01*
X3713D01*
Y2163D01*
X3711D01*
Y2166D01*
X3709D01*
Y2168D01*
X3707D01*
Y2170D01*
X3705D01*
Y2174D01*
X3703D01*
Y2176D01*
X3701D01*
Y2180D01*
X3699D01*
Y2185D01*
X3697D01*
Y2193D01*
X3694D01*
Y2201D01*
X3692D01*
Y2212D01*
X3694D01*
Y2225D01*
X3697D01*
Y2231D01*
X3699D01*
Y2235D01*
X3701D01*
Y2239D01*
X3703D01*
Y2244D01*
X3705D01*
Y2246D01*
X3707D01*
Y2248D01*
X3709D01*
Y2252D01*
X3711D01*
Y2254D01*
X3716D01*
Y2256D01*
X3718D01*
Y2258D01*
X3720D01*
Y2260D01*
X3724D01*
Y2263D01*
X3728D01*
Y2265D01*
X3732D01*
Y2267D01*
X3739D01*
Y2269D01*
X3768D01*
Y2267D01*
X3775D01*
Y2265D01*
X3779D01*
Y2263D01*
X3783D01*
Y2260D01*
X3787D01*
Y2258D01*
X3792D01*
Y2256D01*
X3794D01*
Y2254D01*
X3796D01*
Y2252D01*
X3798D01*
Y2250D01*
X3800D01*
Y2246D01*
X3802D01*
Y2244D01*
X3804D01*
Y2241D01*
X3806D01*
Y2237D01*
X3808D01*
Y2233D01*
X3811D01*
Y2227D01*
X3813D01*
Y2220D01*
X3815D01*
Y2214D01*
X3817D01*
Y2216D01*
X3819D01*
Y2218D01*
X3821D01*
Y2220D01*
X3825D01*
Y2222D01*
X3827D01*
Y2225D01*
X3830D01*
Y2227D01*
X3832D01*
Y2229D01*
X3836D01*
Y2231D01*
X3838D01*
Y2233D01*
X3840D01*
Y2235D01*
X3842D01*
Y2237D01*
X3846D01*
Y2239D01*
X3849D01*
Y2241D01*
X3851D01*
Y2244D01*
X3853D01*
Y2246D01*
X3857D01*
Y2248D01*
X3859D01*
Y2250D01*
X3863D01*
Y2252D01*
X3868D01*
Y2254D01*
X3872D01*
Y2256D01*
X3874D01*
Y2258D01*
X3878D01*
Y2260D01*
X3882D01*
Y2263D01*
X3884D01*
Y2265D01*
X3889D01*
Y2267D01*
X3893D01*
Y2269D01*
X3897D01*
Y2271D01*
X3901D01*
Y2273D01*
X3903D01*
Y2275D01*
X3908D01*
Y2277D01*
X3912D01*
Y2279D01*
X3916D01*
Y2282D01*
X3920D01*
Y2284D01*
X3924D01*
Y2286D01*
X3929D01*
Y2288D01*
X3935D01*
Y2290D01*
X3939D01*
Y2292D01*
X3946D01*
Y2294D01*
X3950D01*
Y2296D01*
X3956D01*
Y2298D01*
X3962D01*
Y2301D01*
X3971D01*
Y2303D01*
X3977D01*
Y2305D01*
X3988D01*
Y2307D01*
X3992D01*
Y2311D01*
X3990D01*
Y2313D01*
X3984D01*
Y2315D01*
X3977D01*
Y2317D01*
X3973D01*
Y2320D01*
X3969D01*
Y2322D01*
X3962D01*
Y2324D01*
X3958D01*
Y2326D01*
X3952D01*
Y2328D01*
X3948D01*
Y2330D01*
X3943D01*
Y2332D01*
X3941D01*
Y2334D01*
X3937D01*
Y2336D01*
X3933D01*
Y2339D01*
X3929D01*
Y2341D01*
X3927D01*
Y2343D01*
X3922D01*
Y2345D01*
X3920D01*
Y2347D01*
X3916D01*
Y2349D01*
X3912D01*
Y2351D01*
X3910D01*
Y2353D01*
X3905D01*
Y2355D01*
X3903D01*
Y2358D01*
X3901D01*
Y2360D01*
X3897D01*
Y2362D01*
X3895D01*
Y2364D01*
X3891D01*
Y2366D01*
X3889D01*
Y2368D01*
X3886D01*
Y2370D01*
X3884D01*
Y2372D01*
X3882D01*
Y2374D01*
X3878D01*
Y2377D01*
X3876D01*
Y2379D01*
X3874D01*
Y2381D01*
X3872D01*
Y2383D01*
X3870D01*
Y2385D01*
X3865D01*
Y2387D01*
X3863D01*
Y2389D01*
X3861D01*
Y2391D01*
X3859D01*
Y2393D01*
X3857D01*
Y2396D01*
X3855D01*
Y2398D01*
X3853D01*
Y2400D01*
X3851D01*
Y2402D01*
X3849D01*
Y2404D01*
X3846D01*
Y2406D01*
X3844D01*
Y2408D01*
X3842D01*
Y2410D01*
X3840D01*
Y2412D01*
X3838D01*
Y2417D01*
X3836D01*
Y2419D01*
X3834D01*
Y2421D01*
X3832D01*
Y2423D01*
X3830D01*
Y2425D01*
X3827D01*
Y2427D01*
X3825D01*
Y2431D01*
X3823D01*
Y2433D01*
X3821D01*
Y2436D01*
X3819D01*
Y2438D01*
X3817D01*
Y2442D01*
X3815D01*
Y2444D01*
X3813D01*
Y2448D01*
X3811D01*
Y2450D01*
X3808D01*
Y2455D01*
X3806D01*
Y2457D01*
X3804D01*
Y2461D01*
X3802D01*
Y2463D01*
X3800D01*
Y2467D01*
X3798D01*
Y2471D01*
X3796D01*
Y2476D01*
X3794D01*
Y2478D01*
X3792D01*
Y2482D01*
X3789D01*
Y2486D01*
X3787D01*
Y2490D01*
X3785D01*
Y2495D01*
X3783D01*
Y2501D01*
X3781D01*
Y2505D01*
X3779D01*
Y2512D01*
X3777D01*
Y2516D01*
X3775D01*
Y2522D01*
X3773D01*
Y2528D01*
X3770D01*
Y2537D01*
X3768D01*
Y2543D01*
X3766D01*
Y2554D01*
X3764D01*
Y2562D01*
X3762D01*
Y2575D01*
X3760D01*
Y2583D01*
X3758D01*
Y2609D01*
X3756D01*
Y2630D01*
X3754D01*
Y2636D01*
X3756D01*
Y2661D01*
X3758D01*
Y2689D01*
X3760D01*
Y2704D01*
X3762D01*
Y2712D01*
X3764D01*
Y2723D01*
X3766D01*
Y2735D01*
X3768D01*
Y2744D01*
X3770D01*
Y2752D01*
X3773D01*
Y2758D01*
X3775D01*
Y2767D01*
X3777D01*
Y2773D01*
X3779D01*
Y2780D01*
X3781D01*
Y2784D01*
X3783D01*
Y2790D01*
X3785D01*
Y2794D01*
X3787D01*
Y2801D01*
X3789D01*
Y2805D01*
X3792D01*
Y2811D01*
X3794D01*
Y2815D01*
X3796D01*
Y2820D01*
X3798D01*
Y2824D01*
X3800D01*
Y2828D01*
X3802D01*
Y2832D01*
X3804D01*
Y2834D01*
X3806D01*
Y2839D01*
X3808D01*
Y2843D01*
X3811D01*
Y2845D01*
X3813D01*
Y2849D01*
X3815D01*
Y2853D01*
X3817D01*
Y2855D01*
X3819D01*
Y2860D01*
X3821D01*
Y2864D01*
X3823D01*
Y2866D01*
X3825D01*
Y2870D01*
X3827D01*
Y2872D01*
X3830D01*
Y2877D01*
X3832D01*
Y2879D01*
X3834D01*
Y2881D01*
X3836D01*
Y2885D01*
X3838D01*
Y2887D01*
X3840D01*
Y2889D01*
X3842D01*
Y2891D01*
X3844D01*
Y2896D01*
X3846D01*
Y2898D01*
X3849D01*
Y2900D01*
X3851D01*
Y2902D01*
X3853D01*
Y2904D01*
X3855D01*
Y2908D01*
X3857D01*
Y2910D01*
X3859D01*
Y2912D01*
X3861D01*
Y2915D01*
X3863D01*
Y2917D01*
X3865D01*
Y2919D01*
X3868D01*
Y2921D01*
X3870D01*
Y2923D01*
X3872D01*
Y2925D01*
X3874D01*
Y2927D01*
X3876D01*
Y2929D01*
X3878D01*
Y2931D01*
X3880D01*
Y2934D01*
X3882D01*
Y2936D01*
X3884D01*
Y2938D01*
X3889D01*
Y2940D01*
X3891D01*
Y2942D01*
X3893D01*
Y2944D01*
X3895D01*
Y2946D01*
X3897D01*
Y2948D01*
X3901D01*
Y2950D01*
X3903D01*
Y2953D01*
X3905D01*
Y2955D01*
X3910D01*
Y2957D01*
X3912D01*
Y2959D01*
X3916D01*
Y2961D01*
X3918D01*
Y2963D01*
X3922D01*
Y2965D01*
X3924D01*
Y2967D01*
X3929D01*
Y2969D01*
X3931D01*
Y2972D01*
X3935D01*
Y2974D01*
X3939D01*
Y2976D01*
X3943D01*
Y2978D01*
X3948D01*
Y2980D01*
X3952D01*
Y2982D01*
X3954D01*
Y2984D01*
X3960D01*
Y2986D01*
X3965D01*
Y2988D01*
X3969D01*
Y2991D01*
X3973D01*
Y2993D01*
X3977D01*
Y2995D01*
X3981D01*
Y2997D01*
X3988D01*
Y2999D01*
X3994D01*
Y3001D01*
X4000D01*
Y3003D01*
X4007D01*
Y3005D01*
X4013D01*
Y3007D01*
X4019D01*
Y3010D01*
X4026D01*
Y3012D01*
X4034D01*
Y3014D01*
X4043D01*
Y3016D01*
X4051D01*
Y3018D01*
X4062D01*
Y3020D01*
X4072D01*
Y3022D01*
X4081D01*
Y3024D01*
X4093D01*
Y3026D01*
X4104D01*
Y3029D01*
X4121D01*
Y3031D01*
X4159D01*
Y3033D01*
X4167D01*
Y3035D01*
X4730D01*
Y3033D01*
X4735D01*
Y3031D01*
X4737D01*
Y2130D01*
X4735D01*
Y2121D01*
X4737D01*
Y2098D01*
X4741D01*
Y2100D01*
X4743D01*
Y2104D01*
X4745D01*
Y2106D01*
X4747D01*
Y2111D01*
X4749D01*
Y2113D01*
X4752D01*
Y2115D01*
X4754D01*
Y2117D01*
X4756D01*
Y2119D01*
X4758D01*
Y2121D01*
X4760D01*
Y2123D01*
X4762D01*
Y2125D01*
X4766D01*
Y2128D01*
X4768D01*
Y2130D01*
X4771D01*
Y2132D01*
X4775D01*
Y2134D01*
X4779D01*
Y2136D01*
X4783D01*
Y2138D01*
X4787D01*
Y2140D01*
X4794D01*
Y2142D01*
X4800D01*
Y2144D01*
X4809D01*
Y2147D01*
X4844D01*
Y2144D01*
X4855D01*
Y2142D01*
X4861D01*
Y2140D01*
X4868D01*
Y2138D01*
X4872D01*
Y2136D01*
X4876D01*
Y2138D01*
X4878D01*
Y2142D01*
X4880D01*
Y2144D01*
X4882D01*
Y2149D01*
X4884D01*
Y2151D01*
X4887D01*
Y2153D01*
X4889D01*
Y2157D01*
X4891D01*
Y2159D01*
X4893D01*
Y2163D01*
X4895D01*
Y2166D01*
X4897D01*
Y2168D01*
X4899D01*
Y2170D01*
X4901D01*
Y2174D01*
X4903D01*
Y2176D01*
X4906D01*
Y2178D01*
X4908D01*
Y2182D01*
X4910D01*
Y2185D01*
X4912D01*
Y2187D01*
X4914D01*
Y2189D01*
X4916D01*
Y2191D01*
X4918D01*
Y2193D01*
X4920D01*
Y2197D01*
X4922D01*
Y2199D01*
X4925D01*
Y2201D01*
X4927D01*
Y2204D01*
X4929D01*
Y2206D01*
X4931D01*
Y2208D01*
X4933D01*
Y2210D01*
X4935D01*
Y2212D01*
X4937D01*
Y2214D01*
X4939D01*
Y2216D01*
X4941D01*
Y2218D01*
X4944D01*
Y2220D01*
X4946D01*
Y2222D01*
X4948D01*
Y2225D01*
X4950D01*
Y2227D01*
X4952D01*
Y2229D01*
X4954D01*
Y2231D01*
X4956D01*
Y2233D01*
X4958D01*
Y2235D01*
X4960D01*
Y2237D01*
X4965D01*
Y2239D01*
X4967D01*
Y2241D01*
X4969D01*
Y2244D01*
X4971D01*
Y2246D01*
X4973D01*
Y2248D01*
X4975D01*
Y2250D01*
X4979D01*
Y2252D01*
X4982D01*
Y2254D01*
X4984D01*
Y2256D01*
X4986D01*
Y2258D01*
X4990D01*
Y2260D01*
X4992D01*
Y2263D01*
X4994D01*
Y2265D01*
X4996D01*
Y2267D01*
X5001D01*
Y2269D01*
X5003D01*
Y2271D01*
X5005D01*
Y2273D01*
X5009D01*
Y2275D01*
X5011D01*
Y2277D01*
X5013D01*
Y2279D01*
X5017D01*
Y2282D01*
X5020D01*
Y2284D01*
X5022D01*
Y2286D01*
X5026D01*
Y2288D01*
X5028D01*
Y2290D01*
X5032D01*
Y2292D01*
X5034D01*
Y2294D01*
X5038D01*
Y2296D01*
X5041D01*
Y2298D01*
X5043D01*
Y2301D01*
X5047D01*
Y2303D01*
X5049D01*
Y2305D01*
X5053D01*
Y2307D01*
X5055D01*
Y2309D01*
X5060D01*
Y2311D01*
X5062D01*
Y2313D01*
X5066D01*
Y2315D01*
X5070D01*
Y2317D01*
X5072D01*
Y2320D01*
X5076D01*
Y2322D01*
X5081D01*
Y2324D01*
X5083D01*
Y2326D01*
X5087D01*
Y2328D01*
X5091D01*
Y2330D01*
X5093D01*
Y2332D01*
X5100D01*
Y2334D01*
X5104D01*
Y2336D01*
X5106D01*
Y2339D01*
X5110D01*
Y2341D01*
X5114D01*
Y2343D01*
X5117D01*
Y2345D01*
X5121D01*
Y2347D01*
X5125D01*
Y2349D01*
X5129D01*
Y2351D01*
X5133D01*
Y2353D01*
X5138D01*
Y2355D01*
X5142D01*
Y2358D01*
X5146D01*
Y2360D01*
X5150D01*
Y2362D01*
X5155D01*
Y2364D01*
X5159D01*
Y2366D01*
X5163D01*
Y2368D01*
X5167D01*
Y2370D01*
X5174D01*
Y2372D01*
X5178D01*
Y2374D01*
X5182D01*
Y2377D01*
X5186D01*
Y2379D01*
X5190D01*
Y2381D01*
X5195D01*
Y2383D01*
X5201D01*
Y2385D01*
X5205D01*
Y2387D01*
X5212D01*
Y2389D01*
X5216D01*
Y2391D01*
X5220D01*
Y2393D01*
X5226D01*
Y2396D01*
X5233D01*
Y2398D01*
X5239D01*
Y2400D01*
X5245D01*
Y2402D01*
X5250D01*
Y2404D01*
X5254D01*
Y2406D01*
X5258D01*
Y2408D01*
X5264D01*
Y2410D01*
X5268D01*
Y2412D01*
X5275D01*
Y2415D01*
X5279D01*
Y2417D01*
X5285D01*
Y2419D01*
X5292D01*
Y2421D01*
X5296D01*
Y2423D01*
X5302D01*
Y2425D01*
X5306D01*
Y2427D01*
X5311D01*
Y2429D01*
X5315D01*
Y2431D01*
X5321D01*
Y2433D01*
X5325D01*
Y2436D01*
X5332D01*
Y2438D01*
X5336D01*
Y2440D01*
X5340D01*
Y2442D01*
X5347D01*
Y2444D01*
X5351D01*
Y2446D01*
X5357D01*
Y2448D01*
X5361D01*
Y2450D01*
X5366D01*
Y2452D01*
X5370D01*
Y2455D01*
X5374D01*
Y2457D01*
X5378D01*
Y2459D01*
X5385D01*
Y2461D01*
X5389D01*
Y2463D01*
X5393D01*
Y2465D01*
X5397D01*
Y2467D01*
X5401D01*
Y2469D01*
X5406D01*
Y2471D01*
X5410D01*
Y2474D01*
X5414D01*
Y2476D01*
X5416D01*
Y2478D01*
X5420D01*
Y2480D01*
X5425D01*
Y2482D01*
X5427D01*
Y2484D01*
X5431D01*
Y2486D01*
X5435D01*
Y2488D01*
X5439D01*
Y2490D01*
X5444D01*
Y2493D01*
X5448D01*
Y2495D01*
X5450D01*
Y2497D01*
X5454D01*
Y2499D01*
X5458D01*
Y2501D01*
X5460D01*
Y2503D01*
X5463D01*
Y2505D01*
X5467D01*
Y2507D01*
X5471D01*
Y2509D01*
X5475D01*
Y2512D01*
X5477D01*
Y2514D01*
X5482D01*
Y2516D01*
X5484D01*
Y2518D01*
X5486D01*
Y2520D01*
X5488D01*
Y2522D01*
X5492D01*
Y2524D01*
X5494D01*
Y2526D01*
X5498D01*
Y2528D01*
X5501D01*
Y2531D01*
X5503D01*
Y2533D01*
X5507D01*
Y2535D01*
X5509D01*
Y2537D01*
X5513D01*
Y2539D01*
X5515D01*
Y2541D01*
X5517D01*
Y2543D01*
X5522D01*
Y2545D01*
X5524D01*
Y2547D01*
X5526D01*
Y2550D01*
X5528D01*
Y2552D01*
X5530D01*
Y2554D01*
X5532D01*
Y2556D01*
X5534D01*
Y2558D01*
X5536D01*
Y2560D01*
X5539D01*
Y2562D01*
X5541D01*
Y2564D01*
X5543D01*
Y2566D01*
X5545D01*
Y2569D01*
X5547D01*
Y2571D01*
X5549D01*
Y2573D01*
X5551D01*
Y2577D01*
X5553D01*
Y2579D01*
X5555D01*
Y2581D01*
X5558D01*
Y2585D01*
X5560D01*
Y2588D01*
X5562D01*
Y2592D01*
X5564D01*
Y2594D01*
X5566D01*
Y2598D01*
X5568D01*
Y2600D01*
X5570D01*
Y2604D01*
X5572D01*
Y2609D01*
X5574D01*
Y2611D01*
X5577D01*
Y2615D01*
X5579D01*
Y2621D01*
X5581D01*
Y2625D01*
X5583D01*
Y2632D01*
X5585D01*
Y2638D01*
X5587D01*
Y2647D01*
X5589D01*
Y2653D01*
X5591D01*
Y2666D01*
X5593D01*
Y2729D01*
X5591D01*
Y2737D01*
X5589D01*
Y2746D01*
X5587D01*
Y2754D01*
X5585D01*
Y2761D01*
X5583D01*
Y2765D01*
X5581D01*
Y2769D01*
X5579D01*
Y2775D01*
X5577D01*
Y2780D01*
X5574D01*
Y2782D01*
X5572D01*
Y2786D01*
X5570D01*
Y2790D01*
X5568D01*
Y2792D01*
X5566D01*
Y2796D01*
X5564D01*
Y2799D01*
X5562D01*
Y2803D01*
X5560D01*
Y2805D01*
X5558D01*
Y2807D01*
X5555D01*
Y2811D01*
X5553D01*
Y2813D01*
X5551D01*
Y2815D01*
X5549D01*
Y2817D01*
X5547D01*
Y2820D01*
X5545D01*
Y2822D01*
X5543D01*
Y2824D01*
X5541D01*
Y2826D01*
X5539D01*
Y2828D01*
X5536D01*
Y2830D01*
X5534D01*
Y2832D01*
X5530D01*
Y2834D01*
X5528D01*
Y2836D01*
X5526D01*
Y2839D01*
X5524D01*
Y2841D01*
X5520D01*
Y2843D01*
X5517D01*
Y2845D01*
X5513D01*
Y2847D01*
X5511D01*
Y2849D01*
X5509D01*
Y2851D01*
X5505D01*
Y2853D01*
X5501D01*
Y2855D01*
X5498D01*
Y2858D01*
X5494D01*
Y2860D01*
X5490D01*
Y2862D01*
X5486D01*
Y2864D01*
X5482D01*
Y2866D01*
X5477D01*
Y2868D01*
X5471D01*
Y2870D01*
X5467D01*
Y2872D01*
X5463D01*
Y2874D01*
X5456D01*
Y2877D01*
X5452D01*
Y2879D01*
X5444D01*
Y2881D01*
X5437D01*
Y2883D01*
X5431D01*
Y2885D01*
X5420D01*
Y2887D01*
X5414D01*
Y2889D01*
X5404D01*
Y2891D01*
X5389D01*
Y2893D01*
X5378D01*
Y2896D01*
X5342D01*
Y2898D01*
X5306D01*
Y2896D01*
X5271D01*
Y2893D01*
X5262D01*
Y2891D01*
X5247D01*
Y2889D01*
X5239D01*
Y2887D01*
X5228D01*
Y2885D01*
X5220D01*
Y2883D01*
X5209D01*
Y2881D01*
X5203D01*
Y2879D01*
X5199D01*
Y2877D01*
X5193D01*
Y2874D01*
X5188D01*
Y2872D01*
X5182D01*
Y2870D01*
X5178D01*
Y2868D01*
X5174D01*
Y2866D01*
X5169D01*
Y2864D01*
X5165D01*
Y2862D01*
X5161D01*
Y2860D01*
X5157D01*
Y2858D01*
X5152D01*
Y2855D01*
X5148D01*
Y2853D01*
X5144D01*
Y2851D01*
X5142D01*
Y2849D01*
X5138D01*
Y2847D01*
X5136D01*
Y2845D01*
X5131D01*
Y2843D01*
X5129D01*
Y2841D01*
X5125D01*
Y2839D01*
X5123D01*
Y2836D01*
X5121D01*
Y2834D01*
X5119D01*
Y2832D01*
X5114D01*
Y2830D01*
X5112D01*
Y2828D01*
X5110D01*
Y2826D01*
X5106D01*
Y2824D01*
X5104D01*
Y2822D01*
X5102D01*
Y2820D01*
X5100D01*
Y2817D01*
X5098D01*
Y2815D01*
X5095D01*
Y2813D01*
X5093D01*
Y2811D01*
X5091D01*
Y2809D01*
X5089D01*
Y2807D01*
X5087D01*
Y2805D01*
X5085D01*
Y2803D01*
X5083D01*
Y2801D01*
X5081D01*
Y2799D01*
X5079D01*
Y2794D01*
X5076D01*
Y2792D01*
X5074D01*
Y2790D01*
X5072D01*
Y2786D01*
X5070D01*
Y2784D01*
X5068D01*
Y2780D01*
X5066D01*
Y2777D01*
X5064D01*
Y2773D01*
X5062D01*
Y2769D01*
X5060D01*
Y2765D01*
X5057D01*
Y2761D01*
X5055D01*
Y2758D01*
X5053D01*
Y2754D01*
X5051D01*
Y2748D01*
X5049D01*
Y2746D01*
X5036D01*
Y2748D01*
X5030D01*
Y2750D01*
X5024D01*
Y2752D01*
X5017D01*
Y2754D01*
X5013D01*
Y2756D01*
X5007D01*
Y2758D01*
X5001D01*
Y2761D01*
X4994D01*
Y2763D01*
X4988D01*
Y2765D01*
X4984D01*
Y2767D01*
X4977D01*
Y2769D01*
X4971D01*
Y2771D01*
X4965D01*
Y2773D01*
X4958D01*
Y2775D01*
X4952D01*
Y2777D01*
X4946D01*
Y2780D01*
X4939D01*
Y2782D01*
X4933D01*
Y2784D01*
X4929D01*
Y2786D01*
X4922D01*
Y2788D01*
X4916D01*
Y2790D01*
X4910D01*
Y2792D01*
X4901D01*
Y2794D01*
X4893D01*
Y2796D01*
X4889D01*
Y2805D01*
X4891D01*
Y2809D01*
X4893D01*
Y2815D01*
X4895D01*
Y2822D01*
X4897D01*
Y2828D01*
X4899D01*
Y2834D01*
X4901D01*
Y2839D01*
X4903D01*
Y2843D01*
X4906D01*
Y2847D01*
X4908D01*
Y2851D01*
X4910D01*
Y2855D01*
X4912D01*
Y2860D01*
X4914D01*
Y2864D01*
X4916D01*
Y2866D01*
X4918D01*
Y2870D01*
X4920D01*
Y2872D01*
X4922D01*
Y2877D01*
X4925D01*
Y2879D01*
X4927D01*
Y2883D01*
X4929D01*
Y2885D01*
X4931D01*
Y2887D01*
X4933D01*
Y2889D01*
X4935D01*
Y2893D01*
X4937D01*
Y2896D01*
X4939D01*
Y2900D01*
X4941D01*
Y2902D01*
X4944D01*
Y2904D01*
X4946D01*
Y2908D01*
X4948D01*
Y2910D01*
X4950D01*
Y2912D01*
X4952D01*
Y2915D01*
X4954D01*
Y2917D01*
X4956D01*
Y2919D01*
X4958D01*
Y2921D01*
X4960D01*
Y2923D01*
X4963D01*
Y2925D01*
X4965D01*
Y2927D01*
X4967D01*
Y2929D01*
X4969D01*
Y2931D01*
X4971D01*
Y2934D01*
X4973D01*
Y2936D01*
X4975D01*
Y2938D01*
X4977D01*
Y2940D01*
X4979D01*
Y2942D01*
X4982D01*
Y2944D01*
X4986D01*
Y2946D01*
X4988D01*
Y2948D01*
X4990D01*
Y2950D01*
X4992D01*
Y2953D01*
X4996D01*
Y2955D01*
X4998D01*
Y2957D01*
X5001D01*
Y2959D01*
X5003D01*
Y2961D01*
X5007D01*
Y2963D01*
X5009D01*
Y2965D01*
X5011D01*
Y2967D01*
X5015D01*
Y2969D01*
X5017D01*
Y2972D01*
X5022D01*
Y2974D01*
X5026D01*
Y2976D01*
X5028D01*
Y2978D01*
X5032D01*
Y2980D01*
X5034D01*
Y2982D01*
X5038D01*
Y2984D01*
X5043D01*
Y2986D01*
X5045D01*
Y2988D01*
X5049D01*
Y2991D01*
X5053D01*
Y2993D01*
X5057D01*
Y2995D01*
X5062D01*
Y2997D01*
X5066D01*
Y2999D01*
X5070D01*
Y3001D01*
X5074D01*
Y3003D01*
X5079D01*
Y3005D01*
X5083D01*
Y3007D01*
X5089D01*
Y3010D01*
X5093D01*
Y3012D01*
X5100D01*
Y3014D01*
X5104D01*
Y3016D01*
X5110D01*
Y3018D01*
X5114D01*
Y3020D01*
X5123D01*
Y3022D01*
X5129D01*
Y3024D01*
X5136D01*
Y3026D01*
X5142D01*
Y3029D01*
X5148D01*
Y3031D01*
X5155D01*
Y3033D01*
X5165D01*
Y3035D01*
X5176D01*
Y3037D01*
X5186D01*
Y3039D01*
X5199D01*
Y3041D01*
X5207D01*
Y3043D01*
X5224D01*
Y3045D01*
X5254D01*
Y3047D01*
X5376D01*
Y3045D01*
D02*
G37*
G36*
X3581Y2288D02*
X3589D01*
Y2286D01*
X3597D01*
Y2284D01*
X3602D01*
Y2282D01*
X3606D01*
Y2279D01*
X3610D01*
Y2277D01*
X3614D01*
Y2275D01*
X3616D01*
Y2273D01*
X3621D01*
Y2271D01*
X3623D01*
Y2269D01*
X3625D01*
Y2267D01*
X3627D01*
Y2265D01*
X3629D01*
Y2263D01*
X3631D01*
Y2260D01*
X3633D01*
Y2256D01*
X3635D01*
Y2254D01*
X3638D01*
Y2250D01*
X3640D01*
Y2246D01*
X3642D01*
Y2241D01*
X3644D01*
Y2237D01*
X3646D01*
Y2231D01*
X3648D01*
Y2218D01*
X3650D01*
Y2199D01*
X3648D01*
Y2187D01*
X3646D01*
Y2180D01*
X3644D01*
Y2176D01*
X3642D01*
Y2172D01*
X3640D01*
Y2168D01*
X3638D01*
Y2166D01*
X3635D01*
Y2161D01*
X3633D01*
Y2159D01*
X3631D01*
Y2157D01*
X3629D01*
Y2155D01*
X3627D01*
Y2153D01*
X3625D01*
Y2151D01*
X3623D01*
Y2149D01*
X3621D01*
Y2147D01*
X3619D01*
Y2144D01*
X3616D01*
Y2142D01*
X3612D01*
Y2140D01*
X3608D01*
Y2138D01*
X3604D01*
Y2136D01*
X3600D01*
Y2134D01*
X3593D01*
Y2132D01*
X3583D01*
Y2130D01*
X3559D01*
Y2132D01*
X3549D01*
Y2134D01*
X3543D01*
Y2136D01*
X3538D01*
Y2138D01*
X3534D01*
Y2140D01*
X3530D01*
Y2142D01*
X3528D01*
Y2144D01*
X3524D01*
Y2147D01*
X3521D01*
Y2149D01*
X3517D01*
Y2151D01*
X3515D01*
Y2153D01*
X3513D01*
Y2155D01*
X3511D01*
Y2159D01*
X3509D01*
Y2161D01*
X3507D01*
Y2163D01*
X3505D01*
Y2168D01*
X3502D01*
Y2172D01*
X3500D01*
Y2174D01*
X3498D01*
Y2178D01*
X3496D01*
Y2185D01*
X3494D01*
Y2195D01*
X3492D01*
Y2225D01*
X3494D01*
Y2233D01*
X3496D01*
Y2239D01*
X3498D01*
Y2244D01*
X3500D01*
Y2248D01*
X3502D01*
Y2252D01*
X3505D01*
Y2256D01*
X3507D01*
Y2258D01*
X3509D01*
Y2260D01*
X3511D01*
Y2263D01*
X3513D01*
Y2265D01*
X3515D01*
Y2267D01*
X3517D01*
Y2269D01*
X3519D01*
Y2271D01*
X3521D01*
Y2273D01*
X3524D01*
Y2275D01*
X3528D01*
Y2277D01*
X3530D01*
Y2279D01*
X3534D01*
Y2282D01*
X3538D01*
Y2284D01*
X3545D01*
Y2286D01*
X3551D01*
Y2288D01*
X3559D01*
Y2290D01*
X3581D01*
Y2288D01*
D02*
G37*
G36*
X3646Y2096D02*
X3648D01*
Y2094D01*
X3650D01*
Y1767D01*
Y1765D01*
Y1497D01*
X3648D01*
Y1495D01*
X3646D01*
Y1492D01*
X3623D01*
Y1495D01*
X3608D01*
Y1492D01*
X3581D01*
Y1495D01*
X3566D01*
Y1492D01*
X3492D01*
Y1495D01*
X3490D01*
Y2096D01*
X3492D01*
Y2098D01*
X3646D01*
Y2096D01*
D02*
G37*
%LPC*%
G36*
X3040Y2136D02*
X2986D01*
Y2134D01*
X2973D01*
Y2132D01*
X2967D01*
Y2130D01*
X2964D01*
Y2123D01*
X2967D01*
Y2119D01*
X2969D01*
Y2115D01*
X2971D01*
Y2111D01*
X2973D01*
Y2106D01*
X2975D01*
Y2102D01*
X2977D01*
Y2098D01*
X2979D01*
Y2094D01*
X2981D01*
Y2087D01*
X2983D01*
Y2083D01*
X2986D01*
Y2079D01*
X2988D01*
Y2077D01*
X2990D01*
Y2071D01*
X2992D01*
Y2066D01*
X2994D01*
Y2062D01*
X2996D01*
Y2058D01*
X2998D01*
Y2052D01*
X3000D01*
Y2047D01*
X3002D01*
Y2043D01*
X3009D01*
Y2047D01*
X3011D01*
Y2052D01*
X3013D01*
Y2056D01*
X3015D01*
Y2062D01*
X3017D01*
Y2066D01*
X3019D01*
Y2073D01*
X3021D01*
Y2075D01*
X3024D01*
Y2079D01*
X3026D01*
Y2085D01*
X3028D01*
Y2087D01*
Y2090D01*
X3030D01*
Y2094D01*
X3032D01*
Y2100D01*
X3034D01*
Y2104D01*
X3036D01*
Y2109D01*
X3038D01*
Y2113D01*
X3040D01*
Y2117D01*
X3043D01*
Y2123D01*
X3045D01*
Y2128D01*
X3047D01*
Y2134D01*
X3040D01*
Y2136D01*
D02*
G37*
G36*
X3190Y1993D02*
X3184D01*
Y1988D01*
X3182D01*
Y1984D01*
X3180D01*
Y1980D01*
X3178D01*
Y1976D01*
X3175D01*
Y1971D01*
X3173D01*
Y1967D01*
X3171D01*
Y1963D01*
X3169D01*
Y1959D01*
X3167D01*
Y1955D01*
X3165D01*
Y1950D01*
X3163D01*
Y1946D01*
X3161D01*
Y1942D01*
X3159D01*
Y1938D01*
X3156D01*
Y1933D01*
X3154D01*
Y1931D01*
X3152D01*
Y1927D01*
X3150D01*
Y1923D01*
X3148D01*
Y1919D01*
X3146D01*
Y1914D01*
X3144D01*
Y1910D01*
X3142D01*
Y1906D01*
X3140D01*
Y1902D01*
X3137D01*
Y1898D01*
X3135D01*
Y1893D01*
X3133D01*
Y1887D01*
X3131D01*
Y1885D01*
X3129D01*
Y1881D01*
X3127D01*
Y1876D01*
X3125D01*
Y1870D01*
X3123D01*
Y1866D01*
X3121D01*
Y1862D01*
X3118D01*
Y1857D01*
X3116D01*
Y1853D01*
X3114D01*
Y1849D01*
X3112D01*
Y1845D01*
X3110D01*
Y1841D01*
X3108D01*
Y1836D01*
X3106D01*
Y1832D01*
X3104D01*
Y1828D01*
X3102D01*
Y1824D01*
X3099D01*
Y1820D01*
X3097D01*
Y1815D01*
X3095D01*
Y1811D01*
X3093D01*
Y1805D01*
X3091D01*
Y1801D01*
X3089D01*
Y1796D01*
X3087D01*
Y1794D01*
X3085D01*
Y1790D01*
X3083D01*
Y1786D01*
X3080D01*
Y1782D01*
X3078D01*
Y1777D01*
X3076D01*
Y1773D01*
X3074D01*
Y1769D01*
X3072D01*
Y1765D01*
X3070D01*
Y1760D01*
X3068D01*
Y1756D01*
X3066D01*
Y1750D01*
X3064D01*
Y1746D01*
X3061D01*
Y1741D01*
X3059D01*
Y1737D01*
X3057D01*
Y1733D01*
X3055D01*
Y1729D01*
X3053D01*
Y1725D01*
X3051D01*
Y1720D01*
X3049D01*
Y1716D01*
X3047D01*
Y1712D01*
X3045D01*
Y1708D01*
X3043D01*
Y1703D01*
X3040D01*
Y1699D01*
X3038D01*
Y1695D01*
X3036D01*
Y1691D01*
X3034D01*
Y1687D01*
X3032D01*
Y1682D01*
X3030D01*
Y1678D01*
X3028D01*
Y1674D01*
X3026D01*
Y1672D01*
X3024D01*
Y1670D01*
X3021D01*
Y1668D01*
X3013D01*
Y1670D01*
X3011D01*
Y1674D01*
X3009D01*
Y1678D01*
X3007D01*
Y1682D01*
X3005D01*
Y1687D01*
X3002D01*
Y1691D01*
X3000D01*
Y1695D01*
X2998D01*
Y1697D01*
X2996D01*
Y1701D01*
X2994D01*
Y1706D01*
X2992D01*
Y1710D01*
X2990D01*
Y1714D01*
X2988D01*
Y1718D01*
X2986D01*
Y1722D01*
X2983D01*
Y1727D01*
X2981D01*
Y1729D01*
X2979D01*
Y1733D01*
X2977D01*
Y1737D01*
X2975D01*
Y1741D01*
X2973D01*
Y1746D01*
X2971D01*
Y1750D01*
X2969D01*
Y1754D01*
X2967D01*
Y1758D01*
X2964D01*
Y1760D01*
X2962D01*
Y1765D01*
X2960D01*
Y1769D01*
X2958D01*
Y1773D01*
X2956D01*
Y1777D01*
X2954D01*
Y1782D01*
X2952D01*
Y1786D01*
X2950D01*
Y1790D01*
X2948D01*
Y1794D01*
X2945D01*
Y1796D01*
X2943D01*
Y1801D01*
X2941D01*
Y1805D01*
X2939D01*
Y1809D01*
X2937D01*
Y1813D01*
X2935D01*
Y1817D01*
X2933D01*
Y1822D01*
X2931D01*
Y1826D01*
X2929D01*
Y1828D01*
X2926D01*
Y1832D01*
X2924D01*
Y1836D01*
X2922D01*
Y1841D01*
X2920D01*
Y1845D01*
X2918D01*
Y1847D01*
X2916D01*
Y1851D01*
X2914D01*
Y1855D01*
X2912D01*
Y1860D01*
X2910D01*
Y1864D01*
X2907D01*
Y1868D01*
X2905D01*
Y1872D01*
X2903D01*
Y1874D01*
X2901D01*
Y1879D01*
X2899D01*
Y1883D01*
X2897D01*
Y1887D01*
X2895D01*
Y1891D01*
X2893D01*
Y1895D01*
X2891D01*
Y1900D01*
X2888D01*
Y1902D01*
X2886D01*
Y1906D01*
X2884D01*
Y1910D01*
X2882D01*
Y1912D01*
X2880D01*
Y1917D01*
X2878D01*
Y1921D01*
X2876D01*
Y1925D01*
X2874D01*
Y1929D01*
X2872D01*
Y1933D01*
X2869D01*
Y1938D01*
X2867D01*
Y1940D01*
X2865D01*
Y1944D01*
X2863D01*
Y1948D01*
X2861D01*
Y1950D01*
X2859D01*
Y1955D01*
X2857D01*
Y1959D01*
X2855D01*
Y1963D01*
X2853D01*
Y1967D01*
X2851D01*
Y1971D01*
X2848D01*
Y1976D01*
X2846D01*
Y1980D01*
X2844D01*
Y1984D01*
X2842D01*
Y1988D01*
X2840D01*
Y1990D01*
X2836D01*
Y1986D01*
X2834D01*
Y1980D01*
X2832D01*
Y1978D01*
Y1974D01*
X2829D01*
Y1963D01*
X2827D01*
Y1955D01*
X2825D01*
Y1946D01*
X2823D01*
Y1933D01*
X2821D01*
Y1923D01*
X2819D01*
Y1895D01*
X2817D01*
Y1853D01*
X2819D01*
Y1826D01*
X2821D01*
Y1815D01*
X2823D01*
Y1803D01*
X2825D01*
Y1792D01*
X2827D01*
Y1784D01*
X2829D01*
Y1775D01*
X2832D01*
Y1769D01*
X2834D01*
Y1763D01*
X2836D01*
Y1756D01*
X2838D01*
Y1750D01*
X2840D01*
Y1744D01*
X2842D01*
Y1739D01*
X2844D01*
Y1735D01*
X2846D01*
Y1731D01*
X2848D01*
Y1727D01*
X2851D01*
Y1722D01*
X2853D01*
Y1718D01*
X2855D01*
Y1714D01*
X2857D01*
Y1710D01*
X2859D01*
Y1706D01*
X2861D01*
Y1703D01*
X2863D01*
Y1699D01*
X2865D01*
Y1695D01*
X2867D01*
Y1693D01*
X2869D01*
Y1689D01*
X2872D01*
Y1687D01*
X2874D01*
Y1684D01*
X2876D01*
Y1680D01*
X2878D01*
Y1678D01*
X2880D01*
Y1676D01*
X2882D01*
Y1674D01*
X2884D01*
Y1672D01*
X2886D01*
Y1670D01*
X2888D01*
Y1665D01*
X2891D01*
Y1663D01*
X2893D01*
Y1661D01*
X2895D01*
Y1659D01*
X2899D01*
Y1657D01*
X2901D01*
Y1655D01*
X2903D01*
Y1653D01*
X2905D01*
Y1651D01*
X2910D01*
Y1649D01*
X2912D01*
Y1646D01*
X2914D01*
Y1644D01*
X2918D01*
Y1642D01*
X2920D01*
Y1640D01*
X2924D01*
Y1638D01*
X2926D01*
Y1636D01*
X2931D01*
Y1634D01*
X2935D01*
Y1632D01*
X2939D01*
Y1630D01*
X2943D01*
Y1628D01*
X2948D01*
Y1625D01*
X2954D01*
Y1623D01*
X2958D01*
Y1621D01*
X2964D01*
Y1619D01*
X2973D01*
Y1617D01*
X2983D01*
Y1615D01*
X3000D01*
Y1613D01*
X3007D01*
Y1611D01*
X3024D01*
Y1613D01*
X3034D01*
Y1615D01*
X3049D01*
Y1617D01*
X3059D01*
Y1619D01*
X3068D01*
Y1621D01*
X3074D01*
Y1623D01*
X3080D01*
Y1625D01*
X3085D01*
Y1628D01*
X3089D01*
Y1630D01*
X3093D01*
Y1632D01*
X3097D01*
Y1634D01*
X3102D01*
Y1636D01*
X3104D01*
Y1638D01*
X3108D01*
Y1640D01*
X3110D01*
Y1642D01*
X3114D01*
Y1644D01*
X3116D01*
Y1646D01*
X3118D01*
Y1649D01*
X3121D01*
Y1651D01*
X3123D01*
Y1653D01*
X3127D01*
Y1655D01*
X3129D01*
Y1657D01*
X3131D01*
Y1659D01*
X3133D01*
Y1661D01*
X3135D01*
Y1663D01*
X3137D01*
Y1665D01*
X3140D01*
Y1668D01*
X3142D01*
Y1670D01*
X3144D01*
Y1672D01*
X3146D01*
Y1676D01*
X3148D01*
Y1678D01*
X3150D01*
Y1680D01*
X3152D01*
Y1684D01*
X3154D01*
Y1687D01*
X3156D01*
Y1691D01*
X3159D01*
Y1693D01*
X3161D01*
Y1697D01*
X3163D01*
Y1699D01*
X3165D01*
Y1703D01*
X3167D01*
Y1708D01*
X3169D01*
Y1712D01*
X3171D01*
Y1714D01*
X3173D01*
Y1718D01*
X3175D01*
Y1722D01*
X3178D01*
Y1727D01*
X3180D01*
Y1733D01*
X3182D01*
Y1737D01*
X3184D01*
Y1741D01*
X3186D01*
Y1748D01*
X3188D01*
Y1754D01*
X3190D01*
Y1760D01*
X3192D01*
Y1767D01*
X3194D01*
Y1775D01*
X3197D01*
Y1784D01*
X3199D01*
Y1790D01*
X3201D01*
Y1801D01*
X3203D01*
Y1815D01*
X3205D01*
Y1839D01*
X3207D01*
Y1906D01*
X3205D01*
Y1931D01*
X3203D01*
Y1944D01*
X3201D01*
Y1955D01*
X3199D01*
Y1961D01*
X3197D01*
Y1971D01*
X3194D01*
Y1980D01*
X3192D01*
Y1986D01*
X3190D01*
Y1993D01*
D02*
G37*
G36*
X4439Y2452D02*
X4406D01*
Y2450D01*
X4395D01*
Y2448D01*
X4391D01*
Y2446D01*
X4387D01*
Y2444D01*
X4382D01*
Y2442D01*
X4378D01*
Y2440D01*
X4374D01*
Y2438D01*
X4372D01*
Y2436D01*
X4370D01*
Y2433D01*
X4365D01*
Y2431D01*
X4363D01*
Y2429D01*
X4361D01*
Y2427D01*
X4359D01*
Y2425D01*
X4357D01*
Y2423D01*
X4355D01*
Y2419D01*
X4353D01*
Y2417D01*
X4351D01*
Y2412D01*
X4349D01*
Y2410D01*
X4346D01*
Y2406D01*
X4344D01*
Y2402D01*
X4342D01*
Y2396D01*
X4340D01*
Y2389D01*
X4338D01*
Y2379D01*
X4336D01*
Y2358D01*
X4338D01*
Y2349D01*
X4340D01*
Y2341D01*
X4342D01*
Y2336D01*
X4344D01*
Y2332D01*
X4346D01*
Y2326D01*
X4349D01*
Y2324D01*
X4351D01*
Y2320D01*
X4353D01*
Y2317D01*
X4355D01*
Y2315D01*
X4357D01*
Y2311D01*
X4359D01*
Y2309D01*
X4361D01*
Y2307D01*
X4363D01*
Y2305D01*
X4368D01*
Y2303D01*
X4370D01*
Y2301D01*
X4372D01*
Y2298D01*
X4376D01*
Y2296D01*
X4378D01*
Y2294D01*
X4382D01*
Y2292D01*
X4387D01*
Y2290D01*
X4391D01*
Y2288D01*
X4397D01*
Y2286D01*
X4406D01*
Y2284D01*
X4422D01*
Y2282D01*
X4427D01*
Y2284D01*
X4439D01*
Y2286D01*
X4448D01*
Y2288D01*
X4454D01*
Y2290D01*
X4458D01*
Y2292D01*
X4462D01*
Y2294D01*
X4467D01*
Y2296D01*
X4469D01*
Y2298D01*
X4473D01*
Y2301D01*
X4475D01*
Y2303D01*
X4477D01*
Y2305D01*
X4479D01*
Y2307D01*
X4481D01*
Y2309D01*
X4484D01*
Y2311D01*
X4486D01*
Y2313D01*
X4488D01*
Y2315D01*
X4490D01*
Y2317D01*
X4492D01*
Y2322D01*
X4494D01*
Y2324D01*
X4496D01*
Y2328D01*
X4498D01*
Y2332D01*
X4500D01*
Y2336D01*
X4503D01*
Y2343D01*
X4505D01*
Y2353D01*
X4507D01*
Y2383D01*
X4505D01*
Y2393D01*
X4503D01*
Y2398D01*
X4500D01*
Y2404D01*
X4498D01*
Y2408D01*
X4496D01*
Y2412D01*
X4494D01*
Y2415D01*
X4492D01*
Y2417D01*
X4490D01*
Y2421D01*
X4488D01*
Y2423D01*
X4486D01*
Y2425D01*
X4484D01*
Y2427D01*
X4481D01*
Y2429D01*
X4479D01*
Y2431D01*
X4477D01*
Y2433D01*
X4475D01*
Y2436D01*
X4473D01*
Y2438D01*
X4469D01*
Y2440D01*
X4467D01*
Y2442D01*
X4462D01*
Y2444D01*
X4458D01*
Y2446D01*
X4454D01*
Y2448D01*
X4448D01*
Y2450D01*
X4439D01*
Y2452D01*
D02*
G37*
G36*
X4591Y2273D02*
X4579D01*
Y2271D01*
X4568D01*
Y2269D01*
X4562D01*
Y2267D01*
X4557D01*
Y2265D01*
X4553D01*
Y2263D01*
X4549D01*
Y2260D01*
X4545D01*
Y2258D01*
X4543D01*
Y2256D01*
X4541D01*
Y2254D01*
X4536D01*
Y2252D01*
X4534D01*
Y2248D01*
X4532D01*
Y2246D01*
X4530D01*
Y2244D01*
X4528D01*
Y2241D01*
X4526D01*
Y2237D01*
X4524D01*
Y2235D01*
X4522D01*
Y2231D01*
X4519D01*
Y2229D01*
X4517D01*
Y2227D01*
X4515D01*
Y2222D01*
X4511D01*
Y2220D01*
X4327D01*
Y2222D01*
X4325D01*
Y2225D01*
X4321D01*
Y2229D01*
X4319D01*
Y2231D01*
X4317D01*
Y2235D01*
X4315D01*
Y2237D01*
X4313D01*
Y2239D01*
X4311D01*
Y2241D01*
X4308D01*
Y2244D01*
X4306D01*
Y2246D01*
X4304D01*
Y2248D01*
X4302D01*
Y2250D01*
X4300D01*
Y2252D01*
X4298D01*
Y2254D01*
X4296D01*
Y2256D01*
X4292D01*
Y2258D01*
X4289D01*
Y2260D01*
X4285D01*
Y2263D01*
X4281D01*
Y2265D01*
X4277D01*
Y2267D01*
X4273D01*
Y2269D01*
X4264D01*
Y2271D01*
X4241D01*
Y2269D01*
X4233D01*
Y2267D01*
X4226D01*
Y2265D01*
X4222D01*
Y2263D01*
X4220D01*
Y2260D01*
X4216D01*
Y2258D01*
X4214D01*
Y2256D01*
X4211D01*
Y2254D01*
X4207D01*
Y2252D01*
X4205D01*
Y2248D01*
X4203D01*
Y2246D01*
X4201D01*
Y2244D01*
X4199D01*
Y2239D01*
X4197D01*
Y2237D01*
X4195D01*
Y2231D01*
X4192D01*
Y2225D01*
X4190D01*
Y2216D01*
X4188D01*
Y2201D01*
X4190D01*
Y2191D01*
X4192D01*
Y2185D01*
X4195D01*
Y2180D01*
X4197D01*
Y2176D01*
X4199D01*
Y2174D01*
X4201D01*
Y2170D01*
X4203D01*
Y2168D01*
X4205D01*
Y2166D01*
X4207D01*
Y2163D01*
X4209D01*
Y2161D01*
X4211D01*
Y2159D01*
X4214D01*
Y2157D01*
X4218D01*
Y2155D01*
X4220D01*
Y2153D01*
X4224D01*
Y2151D01*
X4228D01*
Y2149D01*
X4235D01*
Y2147D01*
X4241D01*
Y2144D01*
X4243D01*
Y2100D01*
X4241D01*
Y2098D01*
X4188D01*
Y2100D01*
X4186D01*
Y2102D01*
X4184D01*
Y2104D01*
X4182D01*
Y2106D01*
X4180D01*
Y2111D01*
X4178D01*
Y2113D01*
X4176D01*
Y2115D01*
X4173D01*
Y2119D01*
X4171D01*
Y2121D01*
X4169D01*
Y2123D01*
X4167D01*
Y2125D01*
X4165D01*
Y2130D01*
X4163D01*
Y2132D01*
X4161D01*
Y2134D01*
X4159D01*
Y2138D01*
X4157D01*
Y2140D01*
X4154D01*
Y2142D01*
X4152D01*
Y2147D01*
X4150D01*
Y2149D01*
X4148D01*
Y2151D01*
X4146D01*
Y2153D01*
X4144D01*
Y2157D01*
X4142D01*
Y2159D01*
X4140D01*
Y2163D01*
X4138D01*
Y2166D01*
X4135D01*
Y2168D01*
X4133D01*
Y2170D01*
X4131D01*
Y2174D01*
X4129D01*
Y2176D01*
X4127D01*
Y2178D01*
X4125D01*
Y2180D01*
X4123D01*
Y2189D01*
X4125D01*
Y2191D01*
X4127D01*
Y2193D01*
X4129D01*
Y2199D01*
X4131D01*
Y2206D01*
X4133D01*
Y2214D01*
X4131D01*
Y2220D01*
X4129D01*
Y2225D01*
X4127D01*
Y2227D01*
X4125D01*
Y2229D01*
X4123D01*
Y2231D01*
X4121D01*
Y2233D01*
X4119D01*
Y2235D01*
X4116D01*
Y2237D01*
X4112D01*
Y2239D01*
X4102D01*
Y2241D01*
X4100D01*
Y2239D01*
X4089D01*
Y2237D01*
X4085D01*
Y2235D01*
X4081D01*
Y2233D01*
X4078D01*
Y2231D01*
X4076D01*
Y2229D01*
X4074D01*
Y2225D01*
X4072D01*
Y2222D01*
X4070D01*
Y2216D01*
X4068D01*
Y2204D01*
X4070D01*
Y2197D01*
X4072D01*
Y2193D01*
X4074D01*
Y2189D01*
X4076D01*
Y2187D01*
X4078D01*
Y2185D01*
X4081D01*
Y2182D01*
X4085D01*
Y2180D01*
X4089D01*
Y2178D01*
X4106D01*
Y2176D01*
X4108D01*
Y2174D01*
X4110D01*
Y2172D01*
X4112D01*
Y2168D01*
X4114D01*
Y2166D01*
X4116D01*
Y2163D01*
X4119D01*
Y2159D01*
X4121D01*
Y2157D01*
X4123D01*
Y2155D01*
X4125D01*
Y2153D01*
X4127D01*
Y2149D01*
X4129D01*
Y2147D01*
X4131D01*
Y2144D01*
X4133D01*
Y2142D01*
X4135D01*
Y2138D01*
X4138D01*
Y2136D01*
X4140D01*
Y2134D01*
X4142D01*
Y2132D01*
X4144D01*
Y2128D01*
X4146D01*
Y2125D01*
X4148D01*
Y2121D01*
X4150D01*
Y2119D01*
X4152D01*
Y2117D01*
X4154D01*
Y2115D01*
X4157D01*
Y2111D01*
X4159D01*
Y2109D01*
X4161D01*
Y2104D01*
X4163D01*
Y2102D01*
X4165D01*
Y2100D01*
X4167D01*
Y2098D01*
X4169D01*
Y2094D01*
X4171D01*
Y2092D01*
X4173D01*
Y2090D01*
X4176D01*
Y2085D01*
X4178D01*
Y2083D01*
X4239D01*
Y2081D01*
X4243D01*
Y2064D01*
X4241D01*
Y2062D01*
X4060D01*
Y2064D01*
X4055D01*
Y2068D01*
X4053D01*
Y2071D01*
X4051D01*
Y2075D01*
X4049D01*
Y2077D01*
X4047D01*
Y2079D01*
X4045D01*
Y2083D01*
X4043D01*
Y2085D01*
X4041D01*
Y2087D01*
X4038D01*
Y2092D01*
X4036D01*
Y2094D01*
X4034D01*
Y2098D01*
X4032D01*
Y2100D01*
X4030D01*
Y2102D01*
X4028D01*
Y2106D01*
X4026D01*
Y2109D01*
X4024D01*
Y2111D01*
X4022D01*
Y2115D01*
X4019D01*
Y2117D01*
X4017D01*
Y2121D01*
X4015D01*
Y2123D01*
X4013D01*
Y2128D01*
X4011D01*
Y2130D01*
X4009D01*
Y2132D01*
X4007D01*
Y2134D01*
X4005D01*
Y2138D01*
X4003D01*
Y2140D01*
X4000D01*
Y2144D01*
X3998D01*
Y2147D01*
X3996D01*
Y2149D01*
X3994D01*
Y2153D01*
X3992D01*
Y2155D01*
X3990D01*
Y2157D01*
X3988D01*
Y2161D01*
X3986D01*
Y2163D01*
X3984D01*
Y2166D01*
X3981D01*
Y2168D01*
X3979D01*
Y2172D01*
X3977D01*
Y2176D01*
X3979D01*
Y2178D01*
X3981D01*
Y2182D01*
X3984D01*
Y2185D01*
X3986D01*
Y2189D01*
X3988D01*
Y2193D01*
X3990D01*
Y2199D01*
Y2201D01*
Y2204D01*
X3992D01*
Y2214D01*
X3990D01*
Y2222D01*
X3988D01*
Y2227D01*
X3986D01*
Y2231D01*
X3984D01*
Y2233D01*
X3981D01*
Y2237D01*
X3979D01*
Y2239D01*
X3977D01*
Y2241D01*
X3973D01*
Y2244D01*
X3971D01*
Y2246D01*
X3967D01*
Y2248D01*
X3965D01*
Y2250D01*
X3956D01*
Y2252D01*
X3933D01*
Y2250D01*
X3927D01*
Y2248D01*
X3924D01*
Y2246D01*
X3920D01*
Y2244D01*
X3918D01*
Y2241D01*
X3916D01*
Y2239D01*
X3914D01*
Y2237D01*
X3912D01*
Y2235D01*
X3910D01*
Y2233D01*
X3908D01*
Y2229D01*
X3905D01*
Y2225D01*
X3903D01*
Y2216D01*
X3901D01*
Y2199D01*
X3903D01*
Y2191D01*
X3905D01*
Y2187D01*
X3908D01*
Y2182D01*
X3910D01*
Y2180D01*
X3912D01*
Y2178D01*
X3914D01*
Y2176D01*
X3916D01*
Y2174D01*
X3918D01*
Y2172D01*
X3920D01*
Y2170D01*
X3924D01*
Y2168D01*
X3927D01*
Y2166D01*
X3933D01*
Y2163D01*
X3965D01*
Y2159D01*
X3967D01*
Y2157D01*
X3969D01*
Y2155D01*
X3971D01*
Y2151D01*
X3973D01*
Y2149D01*
X3975D01*
Y2147D01*
X3977D01*
Y2142D01*
X3979D01*
Y2140D01*
X3981D01*
Y2138D01*
X3984D01*
Y2136D01*
X3986D01*
Y2132D01*
X3988D01*
Y2130D01*
X3990D01*
Y2128D01*
X3992D01*
Y2123D01*
X3994D01*
Y2121D01*
X3996D01*
Y2117D01*
X3998D01*
Y2115D01*
X4000D01*
Y2113D01*
X4003D01*
Y2109D01*
X4005D01*
Y2106D01*
X4007D01*
Y2104D01*
X4009D01*
Y2100D01*
X4011D01*
Y2098D01*
X4013D01*
Y2094D01*
X4015D01*
Y2092D01*
X4017D01*
Y2090D01*
X4019D01*
Y2085D01*
X4022D01*
Y2083D01*
X4024D01*
Y2081D01*
X4026D01*
Y2077D01*
X4028D01*
Y2075D01*
X4030D01*
Y2071D01*
X4032D01*
Y2068D01*
X4034D01*
Y2064D01*
X4036D01*
Y2062D01*
X4038D01*
Y2060D01*
X4041D01*
Y2056D01*
X4043D01*
Y2054D01*
X4045D01*
Y2049D01*
X4047D01*
Y2047D01*
X4211D01*
Y2045D01*
X4237D01*
Y2047D01*
X4239D01*
Y2045D01*
X4243D01*
Y2024D01*
X4241D01*
Y2022D01*
X3882D01*
Y2024D01*
X3880D01*
Y2026D01*
X3878D01*
Y2028D01*
X3876D01*
Y2033D01*
X3874D01*
Y2035D01*
X3872D01*
Y2039D01*
X3870D01*
Y2041D01*
X3868D01*
Y2045D01*
X3865D01*
Y2049D01*
X3863D01*
Y2052D01*
X3861D01*
Y2056D01*
X3859D01*
Y2058D01*
X3857D01*
Y2062D01*
X3855D01*
Y2064D01*
X3853D01*
Y2068D01*
X3851D01*
Y2073D01*
X3849D01*
Y2075D01*
X3846D01*
Y2079D01*
X3844D01*
Y2081D01*
X3842D01*
Y2085D01*
X3840D01*
Y2087D01*
X3838D01*
Y2092D01*
X3836D01*
Y2094D01*
X3834D01*
Y2098D01*
X3832D01*
Y2100D01*
X3830D01*
Y2104D01*
X3827D01*
Y2106D01*
X3825D01*
Y2111D01*
X3823D01*
Y2115D01*
X3821D01*
Y2117D01*
X3819D01*
Y2121D01*
X3817D01*
Y2123D01*
X3815D01*
Y2128D01*
X3813D01*
Y2130D01*
X3811D01*
Y2134D01*
X3808D01*
Y2136D01*
X3806D01*
Y2140D01*
X3804D01*
Y2142D01*
X3802D01*
Y2147D01*
X3800D01*
Y2149D01*
X3798D01*
Y2153D01*
X3796D01*
Y2155D01*
X3794D01*
Y2159D01*
X3792D01*
Y2157D01*
X3787D01*
Y2155D01*
X3785D01*
Y2153D01*
X3781D01*
Y2151D01*
X3779D01*
Y2147D01*
X3781D01*
Y2144D01*
X3783D01*
Y2140D01*
X3785D01*
Y2138D01*
X3787D01*
Y2134D01*
X3789D01*
Y2132D01*
X3792D01*
Y2128D01*
X3794D01*
Y2125D01*
X3796D01*
Y2121D01*
X3798D01*
Y2117D01*
X3800D01*
Y2115D01*
X3802D01*
Y2111D01*
X3804D01*
Y2109D01*
X3806D01*
Y2104D01*
X3808D01*
Y2102D01*
X3811D01*
Y2098D01*
X3813D01*
Y2096D01*
X3815D01*
Y2092D01*
X3817D01*
Y2087D01*
X3819D01*
Y2085D01*
X3821D01*
Y2081D01*
X3823D01*
Y2079D01*
X3825D01*
Y2075D01*
X3827D01*
Y2071D01*
X3830D01*
Y2068D01*
X3832D01*
Y2064D01*
X3834D01*
Y2062D01*
X3836D01*
Y2058D01*
X3838D01*
Y2056D01*
X3840D01*
Y2052D01*
X3842D01*
Y2049D01*
X3844D01*
Y2045D01*
X3846D01*
Y2043D01*
X3849D01*
Y2039D01*
X3851D01*
Y2037D01*
X3853D01*
Y2033D01*
X3855D01*
Y2028D01*
X3857D01*
Y2026D01*
X3859D01*
Y2022D01*
X3861D01*
Y2020D01*
X3863D01*
Y2016D01*
X3865D01*
Y2014D01*
X3868D01*
Y2009D01*
X3870D01*
Y2007D01*
X3872D01*
Y2005D01*
X4243D01*
Y1942D01*
X4241D01*
Y1940D01*
X4237D01*
Y1938D01*
X4230D01*
Y1936D01*
X4226D01*
Y1933D01*
X4222D01*
Y1931D01*
X4218D01*
Y1929D01*
X4216D01*
Y1927D01*
X4211D01*
Y1925D01*
X4209D01*
Y1923D01*
X4207D01*
Y1921D01*
X4205D01*
Y1919D01*
X4203D01*
Y1914D01*
X4201D01*
Y1912D01*
X4199D01*
Y1908D01*
X4197D01*
Y1906D01*
X4195D01*
Y1900D01*
X4192D01*
Y1893D01*
X4190D01*
Y1885D01*
X4188D01*
Y1868D01*
X4190D01*
Y1860D01*
X4192D01*
Y1853D01*
X4195D01*
Y1849D01*
X4197D01*
Y1845D01*
X4199D01*
Y1843D01*
X4201D01*
Y1839D01*
X4203D01*
Y1836D01*
X4205D01*
Y1834D01*
X4207D01*
Y1832D01*
X4209D01*
Y1830D01*
X4211D01*
Y1828D01*
X4214D01*
Y1826D01*
X4216D01*
Y1824D01*
X4218D01*
Y1822D01*
X4222D01*
Y1820D01*
X4226D01*
Y1817D01*
X4233D01*
Y1815D01*
X4239D01*
Y1813D01*
X4266D01*
Y1815D01*
X4275D01*
Y1817D01*
X4279D01*
Y1820D01*
X4283D01*
Y1822D01*
X4287D01*
Y1824D01*
X4289D01*
Y1826D01*
X4294D01*
Y1828D01*
X4296D01*
Y1830D01*
X4298D01*
Y1832D01*
X4300D01*
Y1834D01*
X4302D01*
Y1836D01*
X4304D01*
Y1841D01*
X4306D01*
Y1843D01*
X4308D01*
Y1845D01*
X4311D01*
Y1847D01*
X4313D01*
Y1849D01*
X4315D01*
Y1851D01*
X4317D01*
Y1855D01*
X4319D01*
Y1857D01*
X4321D01*
Y1860D01*
X4325D01*
Y1862D01*
X4330D01*
Y1864D01*
X4507D01*
Y1862D01*
X4513D01*
Y1860D01*
X4515D01*
Y1857D01*
X4517D01*
Y1855D01*
X4519D01*
Y1851D01*
X4522D01*
Y1847D01*
X4524D01*
Y1845D01*
X4526D01*
Y1843D01*
X4528D01*
Y1841D01*
X4530D01*
Y1839D01*
X4532D01*
Y1836D01*
X4534D01*
Y1834D01*
X4536D01*
Y1832D01*
X4538D01*
Y1830D01*
X4541D01*
Y1828D01*
X4543D01*
Y1826D01*
X4547D01*
Y1824D01*
X4551D01*
Y1822D01*
X4553D01*
Y1820D01*
X4557D01*
Y1817D01*
X4562D01*
Y1815D01*
X4572D01*
Y1813D01*
X4585D01*
Y1811D01*
X4587D01*
Y1813D01*
X4600D01*
Y1815D01*
X4606D01*
Y1817D01*
X4612D01*
Y1820D01*
X4614D01*
Y1822D01*
X4619D01*
Y1824D01*
X4623D01*
Y1826D01*
X4625D01*
Y1828D01*
X4627D01*
Y1830D01*
X4629D01*
Y1832D01*
X4631D01*
Y1834D01*
X4633D01*
Y1836D01*
X4636D01*
Y1839D01*
X4638D01*
Y1843D01*
X4640D01*
Y1845D01*
X4642D01*
Y1849D01*
X4644D01*
Y1855D01*
X4646D01*
Y1862D01*
X4648D01*
Y1891D01*
X4646D01*
Y1900D01*
X4644D01*
Y1904D01*
X4642D01*
Y1908D01*
X4640D01*
Y1912D01*
X4638D01*
Y1914D01*
X4636D01*
Y1917D01*
X4633D01*
Y1919D01*
X4631D01*
Y1921D01*
X4629D01*
Y1923D01*
X4627D01*
Y1925D01*
X4625D01*
Y1927D01*
X4623D01*
Y1929D01*
X4619D01*
Y1931D01*
X4617D01*
Y1933D01*
X4612D01*
Y1936D01*
X4608D01*
Y1938D01*
X4600D01*
Y1940D01*
X4595D01*
Y1942D01*
X4593D01*
Y2028D01*
X4595D01*
Y2031D01*
X4701D01*
Y2028D01*
X4707D01*
Y2026D01*
X4711D01*
Y2024D01*
X4716D01*
Y2022D01*
X4718D01*
Y2020D01*
X4720D01*
Y2018D01*
X4722D01*
Y2016D01*
X4726D01*
Y2012D01*
X4733D01*
Y2014D01*
X4730D01*
Y2024D01*
X4728D01*
Y2035D01*
X4726D01*
Y2058D01*
X4728D01*
Y2068D01*
X4730D01*
Y2077D01*
X4733D01*
Y2085D01*
X4730D01*
Y2083D01*
X4728D01*
Y2081D01*
X4726D01*
Y2079D01*
X4724D01*
Y2077D01*
X4722D01*
Y2075D01*
X4718D01*
Y2073D01*
X4716D01*
Y2071D01*
X4711D01*
Y2068D01*
X4707D01*
Y2066D01*
X4697D01*
Y2064D01*
X4595D01*
Y2066D01*
X4593D01*
Y2142D01*
X4595D01*
Y2144D01*
X4598D01*
Y2147D01*
X4604D01*
Y2149D01*
X4610D01*
Y2151D01*
X4614D01*
Y2153D01*
X4619D01*
Y2155D01*
X4621D01*
Y2157D01*
X4625D01*
Y2159D01*
X4627D01*
Y2161D01*
X4629D01*
Y2163D01*
X4631D01*
Y2166D01*
X4633D01*
Y2168D01*
X4636D01*
Y2172D01*
X4638D01*
Y2174D01*
X4640D01*
Y2178D01*
X4642D01*
Y2182D01*
X4644D01*
Y2187D01*
X4646D01*
Y2195D01*
X4648D01*
Y2206D01*
X4650D01*
Y2212D01*
X4648D01*
Y2222D01*
X4646D01*
Y2229D01*
X4644D01*
Y2235D01*
X4642D01*
Y2239D01*
X4640D01*
Y2241D01*
X4638D01*
Y2246D01*
X4636D01*
Y2248D01*
X4633D01*
Y2250D01*
X4631D01*
Y2252D01*
X4629D01*
Y2254D01*
X4627D01*
Y2256D01*
X4625D01*
Y2258D01*
X4623D01*
Y2260D01*
X4619D01*
Y2263D01*
X4617D01*
Y2265D01*
X4612D01*
Y2267D01*
X4606D01*
Y2269D01*
X4600D01*
Y2271D01*
X4591D01*
Y2273D01*
D02*
G37*
G36*
X3817Y2208D02*
X3815D01*
Y2195D01*
X3817D01*
Y2208D01*
D02*
G37*
G36*
X3815Y2191D02*
X3813D01*
Y2185D01*
X3815D01*
Y2189D01*
Y2191D01*
D02*
G37*
G36*
X3813Y2185D02*
X3811D01*
Y2182D01*
X3813D01*
Y2185D01*
D02*
G37*
G36*
X4439Y1813D02*
X4406D01*
Y1811D01*
X4397D01*
Y1809D01*
X4391D01*
Y1807D01*
X4384D01*
Y1805D01*
X4380D01*
Y1803D01*
X4378D01*
Y1801D01*
X4374D01*
Y1798D01*
X4372D01*
Y1796D01*
X4370D01*
Y1794D01*
X4365D01*
Y1792D01*
X4363D01*
Y1790D01*
X4361D01*
Y1788D01*
X4359D01*
Y1786D01*
X4357D01*
Y1784D01*
X4355D01*
Y1782D01*
X4353D01*
Y1777D01*
X4351D01*
Y1775D01*
X4349D01*
Y1771D01*
X4346D01*
Y1767D01*
X4344D01*
Y1763D01*
X4342D01*
Y1756D01*
X4340D01*
Y1750D01*
X4338D01*
Y1739D01*
X4336D01*
Y1718D01*
X4338D01*
Y1708D01*
X4340D01*
Y1701D01*
X4342D01*
Y1695D01*
X4344D01*
Y1691D01*
X4346D01*
Y1687D01*
X4349D01*
Y1682D01*
X4351D01*
Y1680D01*
X4353D01*
Y1676D01*
X4355D01*
Y1674D01*
X4357D01*
Y1672D01*
X4359D01*
Y1670D01*
X4361D01*
Y1668D01*
X4363D01*
Y1665D01*
X4365D01*
Y1663D01*
X4368D01*
Y1661D01*
X4370D01*
Y1659D01*
X4372D01*
Y1657D01*
X4376D01*
Y1655D01*
X4380D01*
Y1653D01*
X4384D01*
Y1651D01*
X4387D01*
Y1649D01*
X4393D01*
Y1646D01*
X4399D01*
Y1644D01*
X4408D01*
Y1642D01*
X4435D01*
Y1644D01*
X4446D01*
Y1646D01*
X4450D01*
Y1649D01*
X4456D01*
Y1651D01*
X4460D01*
Y1653D01*
X4465D01*
Y1655D01*
X4469D01*
Y1657D01*
X4471D01*
Y1659D01*
X4475D01*
Y1661D01*
X4477D01*
Y1663D01*
X4479D01*
Y1665D01*
X4481D01*
Y1668D01*
X4484D01*
Y1670D01*
X4486D01*
Y1672D01*
X4488D01*
Y1674D01*
X4490D01*
Y1678D01*
X4492D01*
Y1680D01*
X4494D01*
Y1684D01*
X4496D01*
Y1689D01*
X4498D01*
Y1691D01*
X4500D01*
Y1697D01*
X4503D01*
Y1703D01*
X4505D01*
Y1714D01*
X4507D01*
Y1744D01*
X4505D01*
Y1754D01*
X4503D01*
Y1758D01*
X4500D01*
Y1763D01*
X4498D01*
Y1769D01*
X4496D01*
Y1771D01*
X4494D01*
Y1775D01*
X4492D01*
Y1777D01*
X4490D01*
Y1782D01*
X4488D01*
Y1784D01*
X4486D01*
Y1786D01*
X4484D01*
Y1788D01*
X4481D01*
Y1790D01*
X4479D01*
Y1792D01*
X4477D01*
Y1794D01*
X4475D01*
Y1796D01*
X4471D01*
Y1798D01*
X4469D01*
Y1801D01*
X4465D01*
Y1803D01*
X4462D01*
Y1805D01*
X4458D01*
Y1807D01*
X4454D01*
Y1809D01*
X4448D01*
Y1811D01*
X4439D01*
Y1813D01*
D02*
G37*
%LPD*%
G36*
X4511Y2193D02*
X4515D01*
Y2191D01*
X4517D01*
Y2187D01*
X4519D01*
Y2182D01*
X4522D01*
Y2180D01*
X4524D01*
Y2178D01*
X4526D01*
Y2176D01*
X4528D01*
Y2174D01*
X4530D01*
Y2172D01*
X4532D01*
Y2170D01*
X4534D01*
Y2168D01*
X4536D01*
Y2166D01*
X4538D01*
Y2163D01*
X4541D01*
Y2161D01*
X4543D01*
Y2159D01*
X4545D01*
Y2157D01*
X4547D01*
Y2155D01*
X4551D01*
Y2153D01*
X4555D01*
Y2151D01*
X4560D01*
Y2149D01*
X4566D01*
Y2147D01*
X4574D01*
Y2144D01*
X4576D01*
Y2096D01*
Y2094D01*
Y2066D01*
X4574D01*
Y2064D01*
X4509D01*
Y2066D01*
X4507D01*
Y2136D01*
X4505D01*
Y2138D01*
X4334D01*
Y2102D01*
X4332D01*
Y2100D01*
X4330D01*
Y2098D01*
X4264D01*
Y2100D01*
X4262D01*
Y2144D01*
X4264D01*
Y2147D01*
X4273D01*
Y2149D01*
X4277D01*
Y2151D01*
X4283D01*
Y2153D01*
X4285D01*
Y2155D01*
X4289D01*
Y2157D01*
X4292D01*
Y2159D01*
X4294D01*
Y2161D01*
X4296D01*
Y2163D01*
X4298D01*
Y2166D01*
X4300D01*
Y2168D01*
X4302D01*
Y2170D01*
X4304D01*
Y2172D01*
X4306D01*
Y2174D01*
X4308D01*
Y2176D01*
X4311D01*
Y2178D01*
X4313D01*
Y2180D01*
X4315D01*
Y2182D01*
X4317D01*
Y2187D01*
X4319D01*
Y2189D01*
X4321D01*
Y2193D01*
X4325D01*
Y2195D01*
X4511D01*
Y2193D01*
D02*
G37*
G36*
X4332Y2079D02*
X4334D01*
Y2064D01*
X4332D01*
Y2062D01*
X4277D01*
Y2064D01*
X4270D01*
Y2062D01*
X4264D01*
Y2064D01*
X4262D01*
Y2081D01*
X4332D01*
Y2079D01*
D02*
G37*
G36*
X4319Y2045D02*
X4332D01*
Y2043D01*
X4334D01*
Y2024D01*
X4332D01*
Y2022D01*
X4264D01*
Y2024D01*
X4262D01*
Y2045D01*
X4264D01*
Y2047D01*
X4319D01*
Y2045D01*
D02*
G37*
G36*
X4492Y2026D02*
Y2024D01*
Y1978D01*
X4490D01*
Y1976D01*
X4349D01*
Y1978D01*
X4346D01*
Y2123D01*
X4492D01*
Y2026D01*
D02*
G37*
G36*
X4574Y2028D02*
X4576D01*
Y1942D01*
X4574D01*
Y1940D01*
X4568D01*
Y1938D01*
X4562D01*
Y1936D01*
X4557D01*
Y1933D01*
X4553D01*
Y1931D01*
X4551D01*
Y1929D01*
X4547D01*
Y1927D01*
X4545D01*
Y1925D01*
X4541D01*
Y1923D01*
X4538D01*
Y1921D01*
X4536D01*
Y1919D01*
X4534D01*
Y1917D01*
X4532D01*
Y1914D01*
X4530D01*
Y1910D01*
X4528D01*
Y1908D01*
X4526D01*
Y1906D01*
X4524D01*
Y1904D01*
X4522D01*
Y1902D01*
X4519D01*
Y1898D01*
X4517D01*
Y1895D01*
X4515D01*
Y1893D01*
X4513D01*
Y1891D01*
X4507D01*
Y1889D01*
X4399D01*
Y1891D01*
X4382D01*
Y1889D01*
X4361D01*
Y1891D01*
X4325D01*
Y1893D01*
X4323D01*
Y1895D01*
X4321D01*
Y1898D01*
X4319D01*
Y1900D01*
X4317D01*
Y1902D01*
X4315D01*
Y1904D01*
X4313D01*
Y1906D01*
X4311D01*
Y1908D01*
X4308D01*
Y1910D01*
X4306D01*
Y1914D01*
X4304D01*
Y1917D01*
X4302D01*
Y1919D01*
X4300D01*
Y1921D01*
X4298D01*
Y1923D01*
X4296D01*
Y1925D01*
X4294D01*
Y1927D01*
X4292D01*
Y1929D01*
X4287D01*
Y1931D01*
X4283D01*
Y1933D01*
X4281D01*
Y1936D01*
X4275D01*
Y1938D01*
X4268D01*
Y1940D01*
X4262D01*
Y2005D01*
X4332D01*
Y2001D01*
X4334D01*
Y1963D01*
X4505D01*
Y1965D01*
X4507D01*
Y2031D01*
X4574D01*
Y2028D01*
D02*
G37*
D17*
X5768Y3957D02*
X5440D01*
X5374Y4022D01*
Y4153D01*
X5440Y4219D01*
X5768D01*
Y4350D02*
X5374D01*
X5571D01*
Y4613D01*
X5768D01*
X5374D01*
X5768Y4744D02*
X5374D01*
Y4941D01*
X5440Y5006D01*
X5702D01*
X5768Y4941D01*
Y4744D01*
X5571Y5137D02*
Y5400D01*
X5768Y5793D02*
Y5531D01*
X5374D01*
Y5793D01*
X5571Y5531D02*
Y5662D01*
X5374Y5925D02*
X5768D01*
X5636Y6056D01*
X5768Y6187D01*
X5374D01*
X5702Y6581D02*
X5768Y6515D01*
Y6384D01*
X5702Y6318D01*
X5440D01*
X5374Y6384D01*
Y6515D01*
X5440Y6581D01*
X5571D01*
Y6449D01*
X4990Y4134D02*
Y4003D01*
X4924Y3937D01*
X4662D01*
X4596Y4003D01*
Y4134D01*
X4662Y4199D01*
X4924D01*
X4990Y4134D01*
X4596Y4331D02*
Y4462D01*
Y4396D01*
X4990D01*
Y4331D01*
X4596Y4659D02*
Y4790D01*
Y4724D01*
X4859D01*
Y4659D01*
Y4987D02*
X4596Y5118D01*
X4859Y5249D01*
X4596Y5380D02*
Y5511D01*
Y5446D01*
X4859D01*
Y5380D01*
X4596Y5905D02*
Y5774D01*
X4662Y5708D01*
X4793D01*
X4859Y5774D01*
Y5905D01*
X4793Y5970D01*
X4728D01*
Y5708D01*
X4859Y6102D02*
X4596D01*
X4728D01*
X4793Y6167D01*
X4859Y6233D01*
Y6298D01*
X4990Y6889D02*
X4596D01*
Y7086D01*
X4662Y7151D01*
X4728D01*
X4793Y7086D01*
Y6889D01*
Y7086D01*
X4859Y7151D01*
X4924D01*
X4990Y7086D01*
Y6889D01*
X4596Y7479D02*
Y7348D01*
X4662Y7282D01*
X4793D01*
X4859Y7348D01*
Y7479D01*
X4793Y7545D01*
X4728D01*
Y7282D01*
X4859Y7676D02*
X4596D01*
X4728D01*
X4793Y7742D01*
X4859Y7807D01*
Y7873D01*
X4465Y8201D02*
Y8266D01*
X4531Y8332D01*
X4859D01*
Y8135D01*
X4793Y8070D01*
X4662D01*
X4596Y8135D01*
Y8332D01*
Y8660D02*
Y8529D01*
X4662Y8463D01*
X4793D01*
X4859Y8529D01*
Y8660D01*
X4793Y8725D01*
X4728D01*
Y8463D01*
X4859Y8857D02*
X4596D01*
X4728D01*
X4793Y8922D01*
X4859Y8988D01*
Y9053D01*
X4596Y9316D02*
Y9447D01*
X4662Y9513D01*
X4793D01*
X4859Y9447D01*
Y9316D01*
X4793Y9250D01*
X4662D01*
X4596Y9316D01*
Y9644D02*
X4859D01*
Y9841D01*
X4793Y9906D01*
X4596D01*
D18*
X2582Y6526D02*
D03*
M02*
