M48
;Layer_Color=9474304
;FILE_FORMAT=2:4
INCH,LZ
;TYPE=PLATED
T01F00S00C0.0060
%
T01
X004722Y01247
Y014439
X00431Y01604
X0045Y01632
X005034Y016253
X00317Y01604
X00669Y01247
X002758
X00079
X002758Y014439
X00298Y01632
X002446Y016253
X002598Y03302
X002992
X002795Y0333
X002402
X002008
X002205Y03302
X001811
X00122
X000827
X000433
X000039
X000236Y0333
X00063
X001024
X001417
X-000433
X-000827
X-00122
X-001614
X-001417Y03302
X-001811
X-002402
X-002795
X-003189
X-003583
X-003386Y0333
X-002992
X-002598
X-002205
X-001024Y03302
X-00063
X003189Y0333
M30
