G04*
G04 #@! TF.GenerationSoftware,Altium Limited,Altium Designer,25.8.1 (18)*
G04*
G04 Layer_Color=2752767*
%FSLAX24Y24*%
%MOIN*%
G70*
G04*
G04 #@! TF.SameCoordinates,11A0BD64-0B8A-420F-B800-B284AFDE532D*
G04*
G04*
G04 #@! TF.FilePolarity,Positive*
G04*
G01*
G75*
%ADD45C,0.0020*%
D45*
X1688Y554D02*
X1728D01*
X1768Y594D01*
X1808Y554D01*
X1848D01*
Y594D01*
X1808Y634D01*
X1848Y674D01*
Y714D01*
X1808D01*
X1768Y674D01*
X1728Y714D01*
X1688D01*
Y674D01*
X1728Y634D01*
X1688Y594D01*
Y554D01*
X1546Y2896D02*
X1586D01*
X1626Y2936D01*
X1666Y2896D01*
X1706D01*
Y2936D01*
X1666Y2976D01*
X1706Y3016D01*
Y3056D01*
X1666D01*
X1626Y3016D01*
X1586Y3056D01*
X1546D01*
Y3016D01*
X1586Y2976D01*
X1546Y2936D01*
Y2896D01*
X-1848Y554D02*
X-1808D01*
X-1768Y594D01*
X-1728Y554D01*
X-1688D01*
Y594D01*
X-1728Y634D01*
X-1688Y674D01*
Y714D01*
X-1728D01*
X-1768Y674D01*
X-1808Y714D01*
X-1848D01*
Y674D01*
X-1808Y634D01*
X-1848Y594D01*
Y554D01*
X-1706Y2896D02*
X-1666D01*
X-1626Y2936D01*
X-1586Y2896D01*
X-1546D01*
Y2936D01*
X-1586Y2976D01*
X-1546Y3016D01*
Y3056D01*
X-1586D01*
X-1626Y3016D01*
X-1666Y3056D01*
X-1706D01*
Y3016D01*
X-1666Y2976D01*
X-1706Y2936D01*
Y2896D01*
X-1497Y3469D02*
X-1417Y3548D01*
X-1337Y3469D01*
X-1417Y3388D01*
X-1497Y3469D01*
X1337Y3389D02*
Y3549D01*
X1497D01*
Y3389D01*
X1337D01*
X1377Y3429D02*
Y3509D01*
X1457D01*
Y3429D01*
X1377D01*
X3670Y1420D02*
X3710Y1500D01*
X3670Y1580D01*
X3750Y1540D01*
X3830Y1580D01*
X3790Y1500D01*
X3830Y1420D01*
X3750Y1460D01*
X3670Y1420D01*
X-3830D02*
X-3790Y1500D01*
X-3830Y1580D01*
X-3750Y1540D01*
X-3670Y1580D01*
X-3710Y1500D01*
X-3670Y1420D01*
X-3750Y1460D01*
X-3830Y1420D01*
X4329Y10253D02*
Y10213D01*
X4409D01*
Y10253D01*
X4449D01*
Y10333D01*
X4409D01*
Y10373D01*
X4329D01*
Y10333D01*
X4289D01*
Y10253D01*
X4329D01*
X4497Y9916D02*
Y9876D01*
X4577D01*
Y9916D01*
X4617D01*
Y9996D01*
X4577D01*
Y10036D01*
X4497D01*
Y9996D01*
X4457D01*
Y9916D01*
X4497D01*
X4329Y9579D02*
Y9539D01*
X4409D01*
Y9579D01*
X4449D01*
Y9659D01*
X4409D01*
Y9699D01*
X4329D01*
Y9659D01*
X4289D01*
Y9579D01*
X4329D01*
X4497Y9242D02*
Y9202D01*
X4577D01*
Y9242D01*
X4617D01*
Y9322D01*
X4577D01*
Y9362D01*
X4497D01*
Y9322D01*
X4457D01*
Y9242D01*
X4497D01*
X4329Y8905D02*
Y8865D01*
X4409D01*
Y8905D01*
X4449D01*
Y8985D01*
X4409D01*
Y9025D01*
X4329D01*
Y8985D01*
X4289D01*
Y8905D01*
X4329D01*
X4497Y8568D02*
Y8528D01*
X4577D01*
Y8568D01*
X4617D01*
Y8648D01*
X4577D01*
Y8688D01*
X4497D01*
Y8648D01*
X4457D01*
Y8568D01*
X4497D01*
X4329Y8231D02*
Y8191D01*
X4409D01*
Y8231D01*
X4449D01*
Y8311D01*
X4409D01*
Y8351D01*
X4329D01*
Y8311D01*
X4289D01*
Y8231D01*
X4329D01*
X4497Y7894D02*
Y7854D01*
X4577D01*
Y7894D01*
X4617D01*
Y7974D01*
X4577D01*
Y8014D01*
X4497D01*
Y7974D01*
X4457D01*
Y7894D01*
X4497D01*
X4329Y7557D02*
Y7517D01*
X4409D01*
Y7557D01*
X4449D01*
Y7637D01*
X4409D01*
Y7677D01*
X4329D01*
Y7637D01*
X4289D01*
Y7557D01*
X4329D01*
X4497Y7220D02*
Y7180D01*
X4577D01*
Y7220D01*
X4617D01*
Y7300D01*
X4577D01*
Y7340D01*
X4497D01*
Y7300D01*
X4457D01*
Y7220D01*
X4497D01*
X4329Y6883D02*
Y6843D01*
X4409D01*
Y6883D01*
X4449D01*
Y6963D01*
X4409D01*
Y7003D01*
X4329D01*
Y6963D01*
X4289D01*
Y6883D01*
X4329D01*
X4497Y6546D02*
Y6506D01*
X4577D01*
Y6546D01*
X4617D01*
Y6626D01*
X4577D01*
Y6666D01*
X4497D01*
Y6626D01*
X4457D01*
Y6546D01*
X4497D01*
X4329Y6209D02*
Y6169D01*
X4409D01*
Y6209D01*
X4449D01*
Y6289D01*
X4409D01*
Y6329D01*
X4329D01*
Y6289D01*
X4289D01*
Y6209D01*
X4329D01*
X4497Y5872D02*
Y5832D01*
X4577D01*
Y5872D01*
X4617D01*
Y5952D01*
X4577D01*
Y5992D01*
X4497D01*
Y5952D01*
X4457D01*
Y5872D01*
X4497D01*
X4329Y5535D02*
Y5495D01*
X4409D01*
Y5535D01*
X4449D01*
Y5615D01*
X4409D01*
Y5655D01*
X4329D01*
Y5615D01*
X4289D01*
Y5535D01*
X4329D01*
X4497Y5198D02*
Y5158D01*
X4577D01*
Y5198D01*
X4617D01*
Y5278D01*
X4577D01*
Y5318D01*
X4497D01*
Y5278D01*
X4457D01*
Y5198D01*
X4497D01*
X4329Y4861D02*
Y4821D01*
X4409D01*
Y4861D01*
X4449D01*
Y4941D01*
X4409D01*
Y4981D01*
X4329D01*
Y4941D01*
X4289D01*
Y4861D01*
X4329D01*
X4497Y4524D02*
Y4484D01*
X4577D01*
Y4524D01*
X4617D01*
Y4604D01*
X4577D01*
Y4644D01*
X4497D01*
Y4604D01*
X4457D01*
Y4524D01*
X4497D01*
X4329Y4187D02*
Y4147D01*
X4409D01*
Y4187D01*
X4449D01*
Y4267D01*
X4409D01*
Y4307D01*
X4329D01*
Y4267D01*
X4289D01*
Y4187D01*
X4329D01*
X4497Y3850D02*
Y3810D01*
X4577D01*
Y3850D01*
X4617D01*
Y3930D01*
X4577D01*
Y3970D01*
X4497D01*
Y3930D01*
X4457D01*
Y3850D01*
X4497D01*
X4329Y3513D02*
Y3473D01*
X4409D01*
Y3513D01*
X4449D01*
Y3593D01*
X4409D01*
Y3633D01*
X4329D01*
Y3593D01*
X4289D01*
Y3513D01*
X4329D01*
X4497Y3176D02*
Y3136D01*
X4577D01*
Y3176D01*
X4617D01*
Y3256D01*
X4577D01*
Y3296D01*
X4497D01*
Y3256D01*
X4457D01*
Y3176D01*
X4497D01*
X4329Y2839D02*
Y2799D01*
X4409D01*
Y2839D01*
X4449D01*
Y2919D01*
X4409D01*
Y2959D01*
X4329D01*
Y2919D01*
X4289D01*
Y2839D01*
X4329D01*
X4497Y2502D02*
Y2462D01*
X4577D01*
Y2502D01*
X4617D01*
Y2582D01*
X4577D01*
Y2622D01*
X4497D01*
Y2582D01*
X4457D01*
Y2502D01*
X4497D01*
X4160Y9916D02*
Y9876D01*
X4240D01*
Y9916D01*
X4280D01*
Y9996D01*
X4240D01*
Y10036D01*
X4160D01*
Y9996D01*
X4120D01*
Y9916D01*
X4160D01*
X3992Y9579D02*
Y9539D01*
X4072D01*
Y9579D01*
X4112D01*
Y9659D01*
X4072D01*
Y9699D01*
X3992D01*
Y9659D01*
X3952D01*
Y9579D01*
X3992D01*
X4160Y9242D02*
Y9202D01*
X4240D01*
Y9242D01*
X4280D01*
Y9322D01*
X4240D01*
Y9362D01*
X4160D01*
Y9322D01*
X4120D01*
Y9242D01*
X4160D01*
X3992Y8905D02*
Y8865D01*
X4072D01*
Y8905D01*
X4112D01*
Y8985D01*
X4072D01*
Y9025D01*
X3992D01*
Y8985D01*
X3952D01*
Y8905D01*
X3992D01*
X4160Y8568D02*
Y8528D01*
X4240D01*
Y8568D01*
X4280D01*
Y8648D01*
X4240D01*
Y8688D01*
X4160D01*
Y8648D01*
X4120D01*
Y8568D01*
X4160D01*
X3992Y8231D02*
Y8191D01*
X4072D01*
Y8231D01*
X4112D01*
Y8311D01*
X4072D01*
Y8351D01*
X3992D01*
Y8311D01*
X3952D01*
Y8231D01*
X3992D01*
X4160Y7894D02*
Y7854D01*
X4240D01*
Y7894D01*
X4280D01*
Y7974D01*
X4240D01*
Y8014D01*
X4160D01*
Y7974D01*
X4120D01*
Y7894D01*
X4160D01*
X3992Y7557D02*
Y7517D01*
X4072D01*
Y7557D01*
X4112D01*
Y7637D01*
X4072D01*
Y7677D01*
X3992D01*
Y7637D01*
X3952D01*
Y7557D01*
X3992D01*
X4160Y7220D02*
Y7180D01*
X4240D01*
Y7220D01*
X4280D01*
Y7300D01*
X4240D01*
Y7340D01*
X4160D01*
Y7300D01*
X4120D01*
Y7220D01*
X4160D01*
X3992Y6883D02*
Y6843D01*
X4072D01*
Y6883D01*
X4112D01*
Y6963D01*
X4072D01*
Y7003D01*
X3992D01*
Y6963D01*
X3952D01*
Y6883D01*
X3992D01*
X4160Y6546D02*
Y6506D01*
X4240D01*
Y6546D01*
X4280D01*
Y6626D01*
X4240D01*
Y6666D01*
X4160D01*
Y6626D01*
X4120D01*
Y6546D01*
X4160D01*
Y5872D02*
Y5832D01*
X4240D01*
Y5872D01*
X4280D01*
Y5952D01*
X4240D01*
Y5992D01*
X4160D01*
Y5952D01*
X4120D01*
Y5872D01*
X4160D01*
X3992Y5535D02*
Y5495D01*
X4072D01*
Y5535D01*
X4112D01*
Y5615D01*
X4072D01*
Y5655D01*
X3992D01*
Y5615D01*
X3952D01*
Y5535D01*
X3992D01*
X3823Y7220D02*
Y7180D01*
X3903D01*
Y7220D01*
X3943D01*
Y7300D01*
X3903D01*
Y7340D01*
X3823D01*
Y7300D01*
X3783D01*
Y7220D01*
X3823D01*
X2981Y12275D02*
Y12235D01*
X3061D01*
Y12275D01*
X3101D01*
Y12355D01*
X3061D01*
Y12395D01*
X2981D01*
Y12355D01*
X2941D01*
Y12275D01*
X2981D01*
Y11601D02*
Y11561D01*
X3061D01*
Y11601D01*
X3101D01*
Y11681D01*
X3061D01*
Y11721D01*
X2981D01*
Y11681D01*
X2941D01*
Y11601D01*
X2981D01*
Y3513D02*
Y3473D01*
X3061D01*
Y3513D01*
X3101D01*
Y3593D01*
X3061D01*
Y3633D01*
X2981D01*
Y3593D01*
X2941D01*
Y3513D01*
X2981D01*
X3149Y3176D02*
Y3136D01*
X3229D01*
Y3176D01*
X3269D01*
Y3256D01*
X3229D01*
Y3296D01*
X3149D01*
Y3256D01*
X3109D01*
Y3176D01*
X3149D01*
X2981Y2839D02*
Y2799D01*
X3061D01*
Y2839D01*
X3101D01*
Y2919D01*
X3061D01*
Y2959D01*
X2981D01*
Y2919D01*
X2941D01*
Y2839D01*
X2981D01*
X2812Y12612D02*
Y12572D01*
X2892D01*
Y12612D01*
X2932D01*
Y12692D01*
X2892D01*
Y12732D01*
X2812D01*
Y12692D01*
X2772D01*
Y12612D01*
X2812D01*
X2644Y12275D02*
Y12235D01*
X2724D01*
Y12275D01*
X2764D01*
Y12355D01*
X2724D01*
Y12395D01*
X2644D01*
Y12355D01*
X2604D01*
Y12275D01*
X2644D01*
X2812Y11938D02*
Y11898D01*
X2892D01*
Y11938D01*
X2932D01*
Y12018D01*
X2892D01*
Y12058D01*
X2812D01*
Y12018D01*
X2772D01*
Y11938D01*
X2812D01*
X2644Y11601D02*
Y11561D01*
X2724D01*
Y11601D01*
X2764D01*
Y11681D01*
X2724D01*
Y11721D01*
X2644D01*
Y11681D01*
X2604D01*
Y11601D01*
X2644D01*
X2812Y3176D02*
Y3136D01*
X2892D01*
Y3176D01*
X2932D01*
Y3256D01*
X2892D01*
Y3296D01*
X2812D01*
Y3256D01*
X2772D01*
Y3176D01*
X2812D01*
X2644Y2839D02*
Y2799D01*
X2724D01*
Y2839D01*
X2764D01*
Y2919D01*
X2724D01*
Y2959D01*
X2644D01*
Y2919D01*
X2604D01*
Y2839D01*
X2644D01*
X2812Y2502D02*
Y2462D01*
X2892D01*
Y2502D01*
X2932D01*
Y2582D01*
X2892D01*
Y2622D01*
X2812D01*
Y2582D01*
X2772D01*
Y2502D01*
X2812D01*
X2644Y2165D02*
Y2125D01*
X2724D01*
Y2165D01*
X2764D01*
Y2245D01*
X2724D01*
Y2285D01*
X2644D01*
Y2245D01*
X2604D01*
Y2165D01*
X2644D01*
X2475Y12612D02*
Y12572D01*
X2555D01*
Y12612D01*
X2595D01*
Y12692D01*
X2555D01*
Y12732D01*
X2475D01*
Y12692D01*
X2435D01*
Y12612D01*
X2475D01*
X2307Y12275D02*
Y12235D01*
X2387D01*
Y12275D01*
X2427D01*
Y12355D01*
X2387D01*
Y12395D01*
X2307D01*
Y12355D01*
X2267D01*
Y12275D01*
X2307D01*
X2475Y11938D02*
Y11898D01*
X2555D01*
Y11938D01*
X2595D01*
Y12018D01*
X2555D01*
Y12058D01*
X2475D01*
Y12018D01*
X2435D01*
Y11938D01*
X2475D01*
X2307Y2839D02*
Y2799D01*
X2387D01*
Y2839D01*
X2427D01*
Y2919D01*
X2387D01*
Y2959D01*
X2307D01*
Y2919D01*
X2267D01*
Y2839D01*
X2307D01*
X2475Y2502D02*
Y2462D01*
X2555D01*
Y2502D01*
X2595D01*
Y2582D01*
X2555D01*
Y2622D01*
X2475D01*
Y2582D01*
X2435D01*
Y2502D01*
X2475D01*
X2307Y2165D02*
Y2125D01*
X2387D01*
Y2165D01*
X2427D01*
Y2245D01*
X2387D01*
Y2285D01*
X2307D01*
Y2245D01*
X2267D01*
Y2165D01*
X2307D01*
Y817D02*
Y777D01*
X2387D01*
Y817D01*
X2427D01*
Y897D01*
X2387D01*
Y937D01*
X2307D01*
Y897D01*
X2267D01*
Y817D01*
X2307D01*
X2138Y12612D02*
Y12572D01*
X2218D01*
Y12612D01*
X2258D01*
Y12692D01*
X2218D01*
Y12732D01*
X2138D01*
Y12692D01*
X2098D01*
Y12612D01*
X2138D01*
X1970Y12275D02*
Y12235D01*
X2050D01*
Y12275D01*
X2090D01*
Y12355D01*
X2050D01*
Y12395D01*
X1970D01*
Y12355D01*
X1930D01*
Y12275D01*
X1970D01*
X2138Y2502D02*
Y2462D01*
X2218D01*
Y2502D01*
X2258D01*
Y2582D01*
X2218D01*
Y2622D01*
X2138D01*
Y2582D01*
X2098D01*
Y2502D01*
X2138D01*
X1970Y2165D02*
Y2125D01*
X2050D01*
Y2165D01*
X2090D01*
Y2245D01*
X2050D01*
Y2285D01*
X1970D01*
Y2245D01*
X1930D01*
Y2165D01*
X1970D01*
X1801Y12612D02*
Y12572D01*
X1881D01*
Y12612D01*
X1921D01*
Y12692D01*
X1881D01*
Y12732D01*
X1801D01*
Y12692D01*
X1761D01*
Y12612D01*
X1801D01*
X1633Y12275D02*
Y12235D01*
X1713D01*
Y12275D01*
X1753D01*
Y12355D01*
X1713D01*
Y12395D01*
X1633D01*
Y12355D01*
X1593D01*
Y12275D01*
X1633D01*
X1801Y9916D02*
Y9876D01*
X1881D01*
Y9916D01*
X1921D01*
Y9996D01*
X1881D01*
Y10036D01*
X1801D01*
Y9996D01*
X1761D01*
Y9916D01*
X1801D01*
X1633Y2165D02*
Y2125D01*
X1713D01*
Y2165D01*
X1753D01*
Y2245D01*
X1713D01*
Y2285D01*
X1633D01*
Y2245D01*
X1593D01*
Y2165D01*
X1633D01*
X1464Y12612D02*
Y12572D01*
X1544D01*
Y12612D01*
X1584D01*
Y12692D01*
X1544D01*
Y12732D01*
X1464D01*
Y12692D01*
X1424D01*
Y12612D01*
X1464D01*
X1296Y12275D02*
Y12235D01*
X1376D01*
Y12275D01*
X1416D01*
Y12355D01*
X1376D01*
Y12395D01*
X1296D01*
Y12355D01*
X1256D01*
Y12275D01*
X1296D01*
Y2165D02*
Y2125D01*
X1376D01*
Y2165D01*
X1416D01*
Y2245D01*
X1376D01*
Y2285D01*
X1296D01*
Y2245D01*
X1256D01*
Y2165D01*
X1296D01*
Y817D02*
Y777D01*
X1376D01*
Y817D01*
X1416D01*
Y897D01*
X1376D01*
Y937D01*
X1296D01*
Y897D01*
X1256D01*
Y817D01*
X1296D01*
X1127Y12612D02*
Y12572D01*
X1207D01*
Y12612D01*
X1247D01*
Y12692D01*
X1207D01*
Y12732D01*
X1127D01*
Y12692D01*
X1087D01*
Y12612D01*
X1127D01*
X959Y12275D02*
Y12235D01*
X1039D01*
Y12275D01*
X1079D01*
Y12355D01*
X1039D01*
Y12395D01*
X959D01*
Y12355D01*
X919D01*
Y12275D01*
X959D01*
Y2165D02*
Y2125D01*
X1039D01*
Y2165D01*
X1079D01*
Y2245D01*
X1039D01*
Y2285D01*
X959D01*
Y2245D01*
X919D01*
Y2165D01*
X959D01*
Y817D02*
Y777D01*
X1039D01*
Y817D01*
X1079D01*
Y897D01*
X1039D01*
Y937D01*
X959D01*
Y897D01*
X919D01*
Y817D01*
X959D01*
X790Y12612D02*
Y12572D01*
X870D01*
Y12612D01*
X910D01*
Y12692D01*
X870D01*
Y12732D01*
X790D01*
Y12692D01*
X750D01*
Y12612D01*
X790D01*
X622Y12275D02*
Y12235D01*
X702D01*
Y12275D01*
X742D01*
Y12355D01*
X702D01*
Y12395D01*
X622D01*
Y12355D01*
X582D01*
Y12275D01*
X622D01*
Y817D02*
Y777D01*
X702D01*
Y817D01*
X742D01*
Y897D01*
X702D01*
Y937D01*
X622D01*
Y897D01*
X582D01*
Y817D01*
X622D01*
X453Y12612D02*
Y12572D01*
X533D01*
Y12612D01*
X573D01*
Y12692D01*
X533D01*
Y12732D01*
X453D01*
Y12692D01*
X413D01*
Y12612D01*
X453D01*
X285Y12275D02*
Y12235D01*
X365D01*
Y12275D01*
X405D01*
Y12355D01*
X365D01*
Y12395D01*
X285D01*
Y12355D01*
X245D01*
Y12275D01*
X285D01*
Y817D02*
Y777D01*
X365D01*
Y817D01*
X405D01*
Y897D01*
X365D01*
Y937D01*
X285D01*
Y897D01*
X245D01*
Y817D01*
X285D01*
X116Y12612D02*
Y12572D01*
X196D01*
Y12612D01*
X236D01*
Y12692D01*
X196D01*
Y12732D01*
X116D01*
Y12692D01*
X76D01*
Y12612D01*
X116D01*
X-52Y12275D02*
Y12235D01*
X28D01*
Y12275D01*
X68D01*
Y12355D01*
X28D01*
Y12395D01*
X-52D01*
Y12355D01*
X-92D01*
Y12275D01*
X-52D01*
Y10253D02*
Y10213D01*
X28D01*
Y10253D01*
X68D01*
Y10333D01*
X28D01*
Y10373D01*
X-52D01*
Y10333D01*
X-92D01*
Y10253D01*
X-52D01*
Y817D02*
Y777D01*
X28D01*
Y817D01*
X68D01*
Y897D01*
X28D01*
Y937D01*
X-52D01*
Y897D01*
X-92D01*
Y817D01*
X-52D01*
X-221Y12612D02*
Y12572D01*
X-141D01*
Y12612D01*
X-101D01*
Y12692D01*
X-141D01*
Y12732D01*
X-221D01*
Y12692D01*
X-261D01*
Y12612D01*
X-221D01*
X-389Y12275D02*
Y12235D01*
X-309D01*
Y12275D01*
X-269D01*
Y12355D01*
X-309D01*
Y12395D01*
X-389D01*
Y12355D01*
X-429D01*
Y12275D01*
X-389D01*
Y817D02*
Y777D01*
X-309D01*
Y817D01*
X-269D01*
Y897D01*
X-309D01*
Y937D01*
X-389D01*
Y897D01*
X-429D01*
Y817D01*
X-389D01*
X-558Y12612D02*
Y12572D01*
X-478D01*
Y12612D01*
X-438D01*
Y12692D01*
X-478D01*
Y12732D01*
X-558D01*
Y12692D01*
X-598D01*
Y12612D01*
X-558D01*
X-726Y12275D02*
Y12235D01*
X-646D01*
Y12275D01*
X-606D01*
Y12355D01*
X-646D01*
Y12395D01*
X-726D01*
Y12355D01*
X-766D01*
Y12275D01*
X-726D01*
Y2165D02*
Y2125D01*
X-646D01*
Y2165D01*
X-606D01*
Y2245D01*
X-646D01*
Y2285D01*
X-726D01*
Y2245D01*
X-766D01*
Y2165D01*
X-726D01*
Y817D02*
Y777D01*
X-646D01*
Y817D01*
X-606D01*
Y897D01*
X-646D01*
Y937D01*
X-726D01*
Y897D01*
X-766D01*
Y817D01*
X-726D01*
X-895Y12612D02*
Y12572D01*
X-815D01*
Y12612D01*
X-775D01*
Y12692D01*
X-815D01*
Y12732D01*
X-895D01*
Y12692D01*
X-935D01*
Y12612D01*
X-895D01*
X-1063Y12275D02*
Y12235D01*
X-983D01*
Y12275D01*
X-943D01*
Y12355D01*
X-983D01*
Y12395D01*
X-1063D01*
Y12355D01*
X-1103D01*
Y12275D01*
X-1063D01*
Y2165D02*
Y2125D01*
X-983D01*
Y2165D01*
X-943D01*
Y2245D01*
X-983D01*
Y2285D01*
X-1063D01*
Y2245D01*
X-1103D01*
Y2165D01*
X-1063D01*
Y817D02*
Y777D01*
X-983D01*
Y817D01*
X-943D01*
Y897D01*
X-983D01*
Y937D01*
X-1063D01*
Y897D01*
X-1103D01*
Y817D01*
X-1063D01*
X-1232Y12612D02*
Y12572D01*
X-1152D01*
Y12612D01*
X-1112D01*
Y12692D01*
X-1152D01*
Y12732D01*
X-1232D01*
Y12692D01*
X-1272D01*
Y12612D01*
X-1232D01*
X-1400Y12275D02*
Y12235D01*
X-1320D01*
Y12275D01*
X-1280D01*
Y12355D01*
X-1320D01*
Y12395D01*
X-1400D01*
Y12355D01*
X-1440D01*
Y12275D01*
X-1400D01*
Y2165D02*
Y2125D01*
X-1320D01*
Y2165D01*
X-1280D01*
Y2245D01*
X-1320D01*
Y2285D01*
X-1400D01*
Y2245D01*
X-1440D01*
Y2165D01*
X-1400D01*
X-1569Y12612D02*
Y12572D01*
X-1489D01*
Y12612D01*
X-1449D01*
Y12692D01*
X-1489D01*
Y12732D01*
X-1569D01*
Y12692D01*
X-1609D01*
Y12612D01*
X-1569D01*
X-1737Y12275D02*
Y12235D01*
X-1657D01*
Y12275D01*
X-1617D01*
Y12355D01*
X-1657D01*
Y12395D01*
X-1737D01*
Y12355D01*
X-1777D01*
Y12275D01*
X-1737D01*
Y2165D02*
Y2125D01*
X-1657D01*
Y2165D01*
X-1617D01*
Y2245D01*
X-1657D01*
Y2285D01*
X-1737D01*
Y2245D01*
X-1777D01*
Y2165D01*
X-1737D01*
X-1906Y12612D02*
Y12572D01*
X-1826D01*
Y12612D01*
X-1786D01*
Y12692D01*
X-1826D01*
Y12732D01*
X-1906D01*
Y12692D01*
X-1946D01*
Y12612D01*
X-1906D01*
X-2074Y12275D02*
Y12235D01*
X-1994D01*
Y12275D01*
X-1954D01*
Y12355D01*
X-1994D01*
Y12395D01*
X-2074D01*
Y12355D01*
X-2114D01*
Y12275D01*
X-2074D01*
X-1906Y9916D02*
Y9876D01*
X-1826D01*
Y9916D01*
X-1786D01*
Y9996D01*
X-1826D01*
Y10036D01*
X-1906D01*
Y9996D01*
X-1946D01*
Y9916D01*
X-1906D01*
X-2074Y2165D02*
Y2125D01*
X-1994D01*
Y2165D01*
X-1954D01*
Y2245D01*
X-1994D01*
Y2285D01*
X-2074D01*
Y2245D01*
X-2114D01*
Y2165D01*
X-2074D01*
X-2243Y12612D02*
Y12572D01*
X-2163D01*
Y12612D01*
X-2123D01*
Y12692D01*
X-2163D01*
Y12732D01*
X-2243D01*
Y12692D01*
X-2283D01*
Y12612D01*
X-2243D01*
X-2411Y12275D02*
Y12235D01*
X-2331D01*
Y12275D01*
X-2291D01*
Y12355D01*
X-2331D01*
Y12395D01*
X-2411D01*
Y12355D01*
X-2451D01*
Y12275D01*
X-2411D01*
X-2243Y3176D02*
Y3136D01*
X-2163D01*
Y3176D01*
X-2123D01*
Y3256D01*
X-2163D01*
Y3296D01*
X-2243D01*
Y3256D01*
X-2283D01*
Y3176D01*
X-2243D01*
X-2411Y2839D02*
Y2799D01*
X-2331D01*
Y2839D01*
X-2291D01*
Y2919D01*
X-2331D01*
Y2959D01*
X-2411D01*
Y2919D01*
X-2451D01*
Y2839D01*
X-2411D01*
X-2243Y2502D02*
Y2462D01*
X-2163D01*
Y2502D01*
X-2123D01*
Y2582D01*
X-2163D01*
Y2622D01*
X-2243D01*
Y2582D01*
X-2283D01*
Y2502D01*
X-2243D01*
X-2411Y2165D02*
Y2125D01*
X-2331D01*
Y2165D01*
X-2291D01*
Y2245D01*
X-2331D01*
Y2285D01*
X-2411D01*
Y2245D01*
X-2451D01*
Y2165D01*
X-2411D01*
Y817D02*
Y777D01*
X-2331D01*
Y817D01*
X-2291D01*
Y897D01*
X-2331D01*
Y937D01*
X-2411D01*
Y897D01*
X-2451D01*
Y817D01*
X-2411D01*
X-2580Y12612D02*
Y12572D01*
X-2500D01*
Y12612D01*
X-2460D01*
Y12692D01*
X-2500D01*
Y12732D01*
X-2580D01*
Y12692D01*
X-2620D01*
Y12612D01*
X-2580D01*
X-2748Y12275D02*
Y12235D01*
X-2668D01*
Y12275D01*
X-2628D01*
Y12355D01*
X-2668D01*
Y12395D01*
X-2748D01*
Y12355D01*
X-2788D01*
Y12275D01*
X-2748D01*
X-2580Y11938D02*
Y11898D01*
X-2500D01*
Y11938D01*
X-2460D01*
Y12018D01*
X-2500D01*
Y12058D01*
X-2580D01*
Y12018D01*
X-2620D01*
Y11938D01*
X-2580D01*
X-2748Y11601D02*
Y11561D01*
X-2668D01*
Y11601D01*
X-2628D01*
Y11681D01*
X-2668D01*
Y11721D01*
X-2748D01*
Y11681D01*
X-2788D01*
Y11601D01*
X-2748D01*
Y3513D02*
Y3473D01*
X-2668D01*
Y3513D01*
X-2628D01*
Y3593D01*
X-2668D01*
Y3633D01*
X-2748D01*
Y3593D01*
X-2788D01*
Y3513D01*
X-2748D01*
X-2580Y3176D02*
Y3136D01*
X-2500D01*
Y3176D01*
X-2460D01*
Y3256D01*
X-2500D01*
Y3296D01*
X-2580D01*
Y3256D01*
X-2620D01*
Y3176D01*
X-2580D01*
X-2748Y2839D02*
Y2799D01*
X-2668D01*
Y2839D01*
X-2628D01*
Y2919D01*
X-2668D01*
Y2959D01*
X-2748D01*
Y2919D01*
X-2788D01*
Y2839D01*
X-2748D01*
X-2580Y2502D02*
Y2462D01*
X-2500D01*
Y2502D01*
X-2460D01*
Y2582D01*
X-2500D01*
Y2622D01*
X-2580D01*
Y2582D01*
X-2620D01*
Y2502D01*
X-2580D01*
X-2917Y12612D02*
Y12572D01*
X-2837D01*
Y12612D01*
X-2797D01*
Y12692D01*
X-2837D01*
Y12732D01*
X-2917D01*
Y12692D01*
X-2957D01*
Y12612D01*
X-2917D01*
X-3085Y12275D02*
Y12235D01*
X-3005D01*
Y12275D01*
X-2965D01*
Y12355D01*
X-3005D01*
Y12395D01*
X-3085D01*
Y12355D01*
X-3125D01*
Y12275D01*
X-3085D01*
X-2917Y11938D02*
Y11898D01*
X-2837D01*
Y11938D01*
X-2797D01*
Y12018D01*
X-2837D01*
Y12058D01*
X-2917D01*
Y12018D01*
X-2957D01*
Y11938D01*
X-2917D01*
X-3085Y11601D02*
Y11561D01*
X-3005D01*
Y11601D01*
X-2965D01*
Y11681D01*
X-3005D01*
Y11721D01*
X-3085D01*
Y11681D01*
X-3125D01*
Y11601D01*
X-3085D01*
X-2917Y3850D02*
Y3810D01*
X-2837D01*
Y3850D01*
X-2797D01*
Y3930D01*
X-2837D01*
Y3970D01*
X-2917D01*
Y3930D01*
X-2957D01*
Y3850D01*
X-2917D01*
X-3085Y3513D02*
Y3473D01*
X-3005D01*
Y3513D01*
X-2965D01*
Y3593D01*
X-3005D01*
Y3633D01*
X-3085D01*
Y3593D01*
X-3125D01*
Y3513D01*
X-3085D01*
X-2917Y3176D02*
Y3136D01*
X-2837D01*
Y3176D01*
X-2797D01*
Y3256D01*
X-2837D01*
Y3296D01*
X-2917D01*
Y3256D01*
X-2957D01*
Y3176D01*
X-2917D01*
X-3085Y2839D02*
Y2799D01*
X-3005D01*
Y2839D01*
X-2965D01*
Y2919D01*
X-3005D01*
Y2959D01*
X-3085D01*
Y2919D01*
X-3125D01*
Y2839D01*
X-3085D01*
X-2917Y2502D02*
Y2462D01*
X-2837D01*
Y2502D01*
X-2797D01*
Y2582D01*
X-2837D01*
Y2622D01*
X-2917D01*
Y2582D01*
X-2957D01*
Y2502D01*
X-2917D01*
X-3422Y5535D02*
Y5495D01*
X-3342D01*
Y5535D01*
X-3302D01*
Y5615D01*
X-3342D01*
Y5655D01*
X-3422D01*
Y5615D01*
X-3462D01*
Y5535D01*
X-3422D01*
Y4861D02*
Y4821D01*
X-3342D01*
Y4861D01*
X-3302D01*
Y4941D01*
X-3342D01*
Y4981D01*
X-3422D01*
Y4941D01*
X-3462D01*
Y4861D01*
X-3422D01*
Y4187D02*
Y4147D01*
X-3342D01*
Y4187D01*
X-3302D01*
Y4267D01*
X-3342D01*
Y4307D01*
X-3422D01*
Y4267D01*
X-3462D01*
Y4187D01*
X-3422D01*
X-3254Y3850D02*
Y3810D01*
X-3174D01*
Y3850D01*
X-3134D01*
Y3930D01*
X-3174D01*
Y3970D01*
X-3254D01*
Y3930D01*
X-3294D01*
Y3850D01*
X-3254D01*
X-3422Y3513D02*
Y3473D01*
X-3342D01*
Y3513D01*
X-3302D01*
Y3593D01*
X-3342D01*
Y3633D01*
X-3422D01*
Y3593D01*
X-3462D01*
Y3513D01*
X-3422D01*
X-3254Y3176D02*
Y3136D01*
X-3174D01*
Y3176D01*
X-3134D01*
Y3256D01*
X-3174D01*
Y3296D01*
X-3254D01*
Y3256D01*
X-3294D01*
Y3176D01*
X-3254D01*
X-3422Y2839D02*
Y2799D01*
X-3342D01*
Y2839D01*
X-3302D01*
Y2919D01*
X-3342D01*
Y2959D01*
X-3422D01*
Y2919D01*
X-3462D01*
Y2839D01*
X-3422D01*
X-3759Y7557D02*
Y7517D01*
X-3679D01*
Y7557D01*
X-3639D01*
Y7637D01*
X-3679D01*
Y7677D01*
X-3759D01*
Y7637D01*
X-3799D01*
Y7557D01*
X-3759D01*
Y5535D02*
Y5495D01*
X-3679D01*
Y5535D01*
X-3639D01*
Y5615D01*
X-3679D01*
Y5655D01*
X-3759D01*
Y5615D01*
X-3799D01*
Y5535D01*
X-3759D01*
X-3591Y5198D02*
Y5158D01*
X-3511D01*
Y5198D01*
X-3471D01*
Y5278D01*
X-3511D01*
Y5318D01*
X-3591D01*
Y5278D01*
X-3631D01*
Y5198D01*
X-3591D01*
X-3759Y4861D02*
Y4821D01*
X-3679D01*
Y4861D01*
X-3639D01*
Y4941D01*
X-3679D01*
Y4981D01*
X-3759D01*
Y4941D01*
X-3799D01*
Y4861D01*
X-3759D01*
X-3591Y4524D02*
Y4484D01*
X-3511D01*
Y4524D01*
X-3471D01*
Y4604D01*
X-3511D01*
Y4644D01*
X-3591D01*
Y4604D01*
X-3631D01*
Y4524D01*
X-3591D01*
X-3759Y4187D02*
Y4147D01*
X-3679D01*
Y4187D01*
X-3639D01*
Y4267D01*
X-3679D01*
Y4307D01*
X-3759D01*
Y4267D01*
X-3799D01*
Y4187D01*
X-3759D01*
X-3591Y3850D02*
Y3810D01*
X-3511D01*
Y3850D01*
X-3471D01*
Y3930D01*
X-3511D01*
Y3970D01*
X-3591D01*
Y3930D01*
X-3631D01*
Y3850D01*
X-3591D01*
X-3759Y3513D02*
Y3473D01*
X-3679D01*
Y3513D01*
X-3639D01*
Y3593D01*
X-3679D01*
Y3633D01*
X-3759D01*
Y3593D01*
X-3799D01*
Y3513D01*
X-3759D01*
X-3591Y3176D02*
Y3136D01*
X-3511D01*
Y3176D01*
X-3471D01*
Y3256D01*
X-3511D01*
Y3296D01*
X-3591D01*
Y3256D01*
X-3631D01*
Y3176D01*
X-3591D01*
X-3759Y2839D02*
Y2799D01*
X-3679D01*
Y2839D01*
X-3639D01*
Y2919D01*
X-3679D01*
Y2959D01*
X-3759D01*
Y2919D01*
X-3799D01*
Y2839D01*
X-3759D01*
X-4096Y10253D02*
Y10213D01*
X-4016D01*
Y10253D01*
X-3976D01*
Y10333D01*
X-4016D01*
Y10373D01*
X-4096D01*
Y10333D01*
X-4136D01*
Y10253D01*
X-4096D01*
Y9579D02*
Y9539D01*
X-4016D01*
Y9579D01*
X-3976D01*
Y9659D01*
X-4016D01*
Y9699D01*
X-4096D01*
Y9659D01*
X-4136D01*
Y9579D01*
X-4096D01*
Y8905D02*
Y8865D01*
X-4016D01*
Y8905D01*
X-3976D01*
Y8985D01*
X-4016D01*
Y9025D01*
X-4096D01*
Y8985D01*
X-4136D01*
Y8905D01*
X-4096D01*
Y8231D02*
Y8191D01*
X-4016D01*
Y8231D01*
X-3976D01*
Y8311D01*
X-4016D01*
Y8351D01*
X-4096D01*
Y8311D01*
X-4136D01*
Y8231D01*
X-4096D01*
Y7557D02*
Y7517D01*
X-4016D01*
Y7557D01*
X-3976D01*
Y7637D01*
X-4016D01*
Y7677D01*
X-4096D01*
Y7637D01*
X-4136D01*
Y7557D01*
X-4096D01*
Y5535D02*
Y5495D01*
X-4016D01*
Y5535D01*
X-3976D01*
Y5615D01*
X-4016D01*
Y5655D01*
X-4096D01*
Y5615D01*
X-4136D01*
Y5535D01*
X-4096D01*
X-3928Y5198D02*
Y5158D01*
X-3848D01*
Y5198D01*
X-3808D01*
Y5278D01*
X-3848D01*
Y5318D01*
X-3928D01*
Y5278D01*
X-3968D01*
Y5198D01*
X-3928D01*
X-4096Y4861D02*
Y4821D01*
X-4016D01*
Y4861D01*
X-3976D01*
Y4941D01*
X-4016D01*
Y4981D01*
X-4096D01*
Y4941D01*
X-4136D01*
Y4861D01*
X-4096D01*
X-3928Y4524D02*
Y4484D01*
X-3848D01*
Y4524D01*
X-3808D01*
Y4604D01*
X-3848D01*
Y4644D01*
X-3928D01*
Y4604D01*
X-3968D01*
Y4524D01*
X-3928D01*
X-4096Y4187D02*
Y4147D01*
X-4016D01*
Y4187D01*
X-3976D01*
Y4267D01*
X-4016D01*
Y4307D01*
X-4096D01*
Y4267D01*
X-4136D01*
Y4187D01*
X-4096D01*
X-3928Y3850D02*
Y3810D01*
X-3848D01*
Y3850D01*
X-3808D01*
Y3930D01*
X-3848D01*
Y3970D01*
X-3928D01*
Y3930D01*
X-3968D01*
Y3850D01*
X-3928D01*
X-4096Y3513D02*
Y3473D01*
X-4016D01*
Y3513D01*
X-3976D01*
Y3593D01*
X-4016D01*
Y3633D01*
X-4096D01*
Y3593D01*
X-4136D01*
Y3513D01*
X-4096D01*
X-3928Y3176D02*
Y3136D01*
X-3848D01*
Y3176D01*
X-3808D01*
Y3256D01*
X-3848D01*
Y3296D01*
X-3928D01*
Y3256D01*
X-3968D01*
Y3176D01*
X-3928D01*
X-4096Y2839D02*
Y2799D01*
X-4016D01*
Y2839D01*
X-3976D01*
Y2919D01*
X-4016D01*
Y2959D01*
X-4096D01*
Y2919D01*
X-4136D01*
Y2839D01*
X-4096D01*
X-4433Y10253D02*
Y10213D01*
X-4353D01*
Y10253D01*
X-4313D01*
Y10333D01*
X-4353D01*
Y10373D01*
X-4433D01*
Y10333D01*
X-4473D01*
Y10253D01*
X-4433D01*
X-4265Y9916D02*
Y9876D01*
X-4185D01*
Y9916D01*
X-4145D01*
Y9996D01*
X-4185D01*
Y10036D01*
X-4265D01*
Y9996D01*
X-4305D01*
Y9916D01*
X-4265D01*
X-4433Y9579D02*
Y9539D01*
X-4353D01*
Y9579D01*
X-4313D01*
Y9659D01*
X-4353D01*
Y9699D01*
X-4433D01*
Y9659D01*
X-4473D01*
Y9579D01*
X-4433D01*
X-4265Y9242D02*
Y9202D01*
X-4185D01*
Y9242D01*
X-4145D01*
Y9322D01*
X-4185D01*
Y9362D01*
X-4265D01*
Y9322D01*
X-4305D01*
Y9242D01*
X-4265D01*
X-4433Y8905D02*
Y8865D01*
X-4353D01*
Y8905D01*
X-4313D01*
Y8985D01*
X-4353D01*
Y9025D01*
X-4433D01*
Y8985D01*
X-4473D01*
Y8905D01*
X-4433D01*
X-4265Y8568D02*
Y8528D01*
X-4185D01*
Y8568D01*
X-4145D01*
Y8648D01*
X-4185D01*
Y8688D01*
X-4265D01*
Y8648D01*
X-4305D01*
Y8568D01*
X-4265D01*
X-4433Y8231D02*
Y8191D01*
X-4353D01*
Y8231D01*
X-4313D01*
Y8311D01*
X-4353D01*
Y8351D01*
X-4433D01*
Y8311D01*
X-4473D01*
Y8231D01*
X-4433D01*
X-4265Y7894D02*
Y7854D01*
X-4185D01*
Y7894D01*
X-4145D01*
Y7974D01*
X-4185D01*
Y8014D01*
X-4265D01*
Y7974D01*
X-4305D01*
Y7894D01*
X-4265D01*
X-4433Y7557D02*
Y7517D01*
X-4353D01*
Y7557D01*
X-4313D01*
Y7637D01*
X-4353D01*
Y7677D01*
X-4433D01*
Y7637D01*
X-4473D01*
Y7557D01*
X-4433D01*
X-4265Y7220D02*
Y7180D01*
X-4185D01*
Y7220D01*
X-4145D01*
Y7300D01*
X-4185D01*
Y7340D01*
X-4265D01*
Y7300D01*
X-4305D01*
Y7220D01*
X-4265D01*
Y6546D02*
Y6506D01*
X-4185D01*
Y6546D01*
X-4145D01*
Y6626D01*
X-4185D01*
Y6666D01*
X-4265D01*
Y6626D01*
X-4305D01*
Y6546D01*
X-4265D01*
X-4433Y6209D02*
Y6169D01*
X-4353D01*
Y6209D01*
X-4313D01*
Y6289D01*
X-4353D01*
Y6329D01*
X-4433D01*
Y6289D01*
X-4473D01*
Y6209D01*
X-4433D01*
X-4265Y5872D02*
Y5832D01*
X-4185D01*
Y5872D01*
X-4145D01*
Y5952D01*
X-4185D01*
Y5992D01*
X-4265D01*
Y5952D01*
X-4305D01*
Y5872D01*
X-4265D01*
X-4433Y5535D02*
Y5495D01*
X-4353D01*
Y5535D01*
X-4313D01*
Y5615D01*
X-4353D01*
Y5655D01*
X-4433D01*
Y5615D01*
X-4473D01*
Y5535D01*
X-4433D01*
X-4265Y5198D02*
Y5158D01*
X-4185D01*
Y5198D01*
X-4145D01*
Y5278D01*
X-4185D01*
Y5318D01*
X-4265D01*
Y5278D01*
X-4305D01*
Y5198D01*
X-4265D01*
X-4433Y4861D02*
Y4821D01*
X-4353D01*
Y4861D01*
X-4313D01*
Y4941D01*
X-4353D01*
Y4981D01*
X-4433D01*
Y4941D01*
X-4473D01*
Y4861D01*
X-4433D01*
X-4265Y4524D02*
Y4484D01*
X-4185D01*
Y4524D01*
X-4145D01*
Y4604D01*
X-4185D01*
Y4644D01*
X-4265D01*
Y4604D01*
X-4305D01*
Y4524D01*
X-4265D01*
X-4433Y4187D02*
Y4147D01*
X-4353D01*
Y4187D01*
X-4313D01*
Y4267D01*
X-4353D01*
Y4307D01*
X-4433D01*
Y4267D01*
X-4473D01*
Y4187D01*
X-4433D01*
X-4265Y3850D02*
Y3810D01*
X-4185D01*
Y3850D01*
X-4145D01*
Y3930D01*
X-4185D01*
Y3970D01*
X-4265D01*
Y3930D01*
X-4305D01*
Y3850D01*
X-4265D01*
X-4433Y3513D02*
Y3473D01*
X-4353D01*
Y3513D01*
X-4313D01*
Y3593D01*
X-4353D01*
Y3633D01*
X-4433D01*
Y3593D01*
X-4473D01*
Y3513D01*
X-4433D01*
X-4265Y3176D02*
Y3136D01*
X-4185D01*
Y3176D01*
X-4145D01*
Y3256D01*
X-4185D01*
Y3296D01*
X-4265D01*
Y3256D01*
X-4305D01*
Y3176D01*
X-4265D01*
X-4433Y2839D02*
Y2799D01*
X-4353D01*
Y2839D01*
X-4313D01*
Y2919D01*
X-4353D01*
Y2959D01*
X-4433D01*
Y2919D01*
X-4473D01*
Y2839D01*
X-4433D01*
X-4602Y9916D02*
Y9876D01*
X-4522D01*
Y9916D01*
X-4482D01*
Y9996D01*
X-4522D01*
Y10036D01*
X-4602D01*
Y9996D01*
X-4642D01*
Y9916D01*
X-4602D01*
Y9242D02*
Y9202D01*
X-4522D01*
Y9242D01*
X-4482D01*
Y9322D01*
X-4522D01*
Y9362D01*
X-4602D01*
Y9322D01*
X-4642D01*
Y9242D01*
X-4602D01*
Y8568D02*
Y8528D01*
X-4522D01*
Y8568D01*
X-4482D01*
Y8648D01*
X-4522D01*
Y8688D01*
X-4602D01*
Y8648D01*
X-4642D01*
Y8568D01*
X-4602D01*
Y7894D02*
Y7854D01*
X-4522D01*
Y7894D01*
X-4482D01*
Y7974D01*
X-4522D01*
Y8014D01*
X-4602D01*
Y7974D01*
X-4642D01*
Y7894D01*
X-4602D01*
Y7220D02*
Y7180D01*
X-4522D01*
Y7220D01*
X-4482D01*
Y7300D01*
X-4522D01*
Y7340D01*
X-4602D01*
Y7300D01*
X-4642D01*
Y7220D01*
X-4602D01*
Y6546D02*
Y6506D01*
X-4522D01*
Y6546D01*
X-4482D01*
Y6626D01*
X-4522D01*
Y6666D01*
X-4602D01*
Y6626D01*
X-4642D01*
Y6546D01*
X-4602D01*
Y5872D02*
Y5832D01*
X-4522D01*
Y5872D01*
X-4482D01*
Y5952D01*
X-4522D01*
Y5992D01*
X-4602D01*
Y5952D01*
X-4642D01*
Y5872D01*
X-4602D01*
Y5198D02*
Y5158D01*
X-4522D01*
Y5198D01*
X-4482D01*
Y5278D01*
X-4522D01*
Y5318D01*
X-4602D01*
Y5278D01*
X-4642D01*
Y5198D01*
X-4602D01*
Y4524D02*
Y4484D01*
X-4522D01*
Y4524D01*
X-4482D01*
Y4604D01*
X-4522D01*
Y4644D01*
X-4602D01*
Y4604D01*
X-4642D01*
Y4524D01*
X-4602D01*
Y3850D02*
Y3810D01*
X-4522D01*
Y3850D01*
X-4482D01*
Y3930D01*
X-4522D01*
Y3970D01*
X-4602D01*
Y3930D01*
X-4642D01*
Y3850D01*
X-4602D01*
Y3176D02*
Y3136D01*
X-4522D01*
Y3176D01*
X-4482D01*
Y3256D01*
X-4522D01*
Y3296D01*
X-4602D01*
Y3256D01*
X-4642D01*
Y3176D01*
X-4602D01*
Y2502D02*
Y2462D01*
X-4522D01*
Y2502D01*
X-4482D01*
Y2582D01*
X-4522D01*
Y2622D01*
X-4602D01*
Y2582D01*
X-4642D01*
Y2502D01*
X-4602D01*
X1126Y4896D02*
Y4856D01*
X1206D01*
Y4896D01*
X1246D01*
Y4976D01*
X1206D01*
Y5016D01*
X1126D01*
Y4976D01*
X1086D01*
Y4896D01*
X1126D01*
X543Y2609D02*
Y2569D01*
X623D01*
Y2609D01*
X663D01*
Y2689D01*
X623D01*
Y2729D01*
X543D01*
Y2689D01*
X503D01*
Y2609D01*
X543D01*
X883Y2621D02*
Y2581D01*
X963D01*
Y2621D01*
X1003D01*
Y2701D01*
X963D01*
Y2741D01*
X883D01*
Y2701D01*
X843D01*
Y2621D01*
X883D01*
X2014Y3481D02*
Y3441D01*
X2094D01*
Y3481D01*
X2134D01*
Y3561D01*
X2094D01*
Y3601D01*
X2014D01*
Y3561D01*
X1974D01*
Y3481D01*
X2014D01*
X2354D02*
Y3441D01*
X2434D01*
Y3481D01*
X2474D01*
Y3561D01*
X2434D01*
Y3601D01*
X2354D01*
Y3561D01*
X2314D01*
Y3481D01*
X2354D01*
X2657Y3634D02*
Y3594D01*
X2737D01*
Y3634D01*
X2777D01*
Y3714D01*
X2737D01*
Y3754D01*
X2657D01*
Y3714D01*
X2617D01*
Y3634D01*
X2657D01*
X2898Y3875D02*
Y3835D01*
X2977D01*
Y3875D01*
X3018D01*
Y3955D01*
X2977D01*
Y3995D01*
X2898D01*
Y3955D01*
X2858D01*
Y3875D01*
X2898D01*
X3083Y4160D02*
Y4120D01*
X3163D01*
Y4160D01*
X3203D01*
Y4240D01*
X3163D01*
Y4280D01*
X3083D01*
Y4240D01*
X3043D01*
Y4160D01*
X3083D01*
X3085Y4500D02*
Y4460D01*
X3165D01*
Y4500D01*
X3205D01*
Y4580D01*
X3165D01*
Y4620D01*
X3085D01*
Y4580D01*
X3045D01*
Y4500D01*
X3085D01*
X3200Y4820D02*
Y4780D01*
X3280D01*
Y4820D01*
X3320D01*
Y4900D01*
X3280D01*
Y4940D01*
X3200D01*
Y4900D01*
X3160D01*
Y4820D01*
X3200D01*
X3085Y5140D02*
Y5100D01*
X3165D01*
Y5140D01*
X3205D01*
Y5220D01*
X3165D01*
Y5260D01*
X3085D01*
Y5220D01*
X3045D01*
Y5140D01*
X3085D01*
X-2800Y5805D02*
Y5765D01*
X-2720D01*
Y5805D01*
X-2680D01*
Y5885D01*
X-2720D01*
Y5925D01*
X-2800D01*
Y5885D01*
X-2840D01*
Y5805D01*
X-2800D01*
X-2987Y5521D02*
Y5481D01*
X-2907D01*
Y5521D01*
X-2867D01*
Y5601D01*
X-2907D01*
Y5641D01*
X-2987D01*
Y5601D01*
X-3027D01*
Y5521D01*
X-2987D01*
X-2989Y5181D02*
Y5141D01*
X-2909D01*
Y5181D01*
X-2869D01*
Y5261D01*
X-2909D01*
Y5301D01*
X-2989D01*
Y5261D01*
X-3029D01*
Y5181D01*
X-2989D01*
Y4841D02*
Y4801D01*
X-2909D01*
Y4841D01*
X-2869D01*
Y4921D01*
X-2909D01*
Y4961D01*
X-2989D01*
Y4921D01*
X-3029D01*
Y4841D01*
X-2989D01*
X-2982Y4501D02*
Y4461D01*
X-2903D01*
Y4501D01*
X-2862D01*
Y4581D01*
X-2903D01*
Y4621D01*
X-2982D01*
Y4581D01*
X-3022D01*
Y4501D01*
X-2982D01*
X-2784Y4225D02*
Y4185D01*
X-2704D01*
Y4225D01*
X-2664D01*
Y4305D01*
X-2704D01*
Y4345D01*
X-2784D01*
Y4305D01*
X-2824D01*
Y4225D01*
X-2784D01*
X-2544Y3985D02*
Y3945D01*
X-2464D01*
Y3985D01*
X-2424D01*
Y4065D01*
X-2464D01*
Y4105D01*
X-2544D01*
Y4065D01*
X-2584D01*
Y3985D01*
X-2544D01*
X-2303Y3744D02*
Y3704D01*
X-2223D01*
Y3744D01*
X-2183D01*
Y3824D01*
X-2223D01*
Y3864D01*
X-2303D01*
Y3824D01*
X-2343D01*
Y3744D01*
X-2303D01*
X-2051Y3516D02*
Y3476D01*
X-1971D01*
Y3516D01*
X-1931D01*
Y3596D01*
X-1971D01*
Y3636D01*
X-2051D01*
Y3596D01*
X-2091D01*
Y3516D01*
X-2051D01*
X-1320Y2747D02*
Y2707D01*
X-1240D01*
Y2747D01*
X-1200D01*
Y2827D01*
X-1240D01*
Y2867D01*
X-1320D01*
Y2827D01*
X-1360D01*
Y2747D01*
X-1320D01*
X-1009Y2609D02*
Y2569D01*
X-929D01*
Y2609D01*
X-889D01*
Y2689D01*
X-929D01*
Y2729D01*
X-1009D01*
Y2689D01*
X-1049D01*
Y2609D01*
X-1009D01*
X-670Y2630D02*
Y2590D01*
X-590D01*
Y2630D01*
X-550D01*
Y2710D01*
X-590D01*
Y2750D01*
X-670D01*
Y2710D01*
X-710D01*
Y2630D01*
X-670D01*
X-673Y4631D02*
Y4591D01*
X-593D01*
Y4631D01*
X-553D01*
Y4711D01*
X-593D01*
Y4751D01*
X-673D01*
Y4711D01*
X-713D01*
Y4631D01*
X-673D01*
X2114Y4200D02*
Y4160D01*
X2194D01*
Y4200D01*
X2234D01*
Y4280D01*
X2194D01*
Y4320D01*
X2114D01*
Y4280D01*
X2074D01*
Y4200D01*
X2114D01*
X2399Y4385D02*
Y4345D01*
X2479D01*
Y4385D01*
X2519D01*
Y4465D01*
X2479D01*
Y4505D01*
X2399D01*
Y4465D01*
X2359D01*
Y4385D01*
X2399D01*
X-994Y5183D02*
Y5143D01*
X-914D01*
Y5183D01*
X-874D01*
Y5263D01*
X-914D01*
Y5303D01*
X-994D01*
Y5263D01*
X-1034D01*
Y5183D01*
X-994D01*
X157Y1460D02*
Y1420D01*
X237D01*
Y1460D01*
X277D01*
Y1540D01*
X237D01*
Y1580D01*
X157D01*
Y1540D01*
X117D01*
Y1460D01*
X157D01*
X255Y3340D02*
Y3300D01*
X335D01*
Y3340D01*
X375D01*
Y3420D01*
X335D01*
Y3460D01*
X255D01*
Y3420D01*
X215D01*
Y3340D01*
X255D01*
X-1046D02*
Y3300D01*
X-966D01*
Y3340D01*
X-926D01*
Y3420D01*
X-966D01*
Y3460D01*
X-1046D01*
Y3420D01*
X-1086D01*
Y3340D01*
X-1046D01*
X-250D02*
Y3300D01*
X-170D01*
Y3340D01*
X-130D01*
Y3420D01*
X-170D01*
Y3460D01*
X-250D01*
Y3420D01*
X-290D01*
Y3340D01*
X-250D01*
X-532D02*
Y3300D01*
X-452D01*
Y3340D01*
X-412D01*
Y3420D01*
X-452D01*
Y3460D01*
X-532D01*
Y3420D01*
X-572D01*
Y3340D01*
X-532D01*
X1661Y6147D02*
Y6107D01*
X1741D01*
Y6147D01*
X1780D01*
Y6227D01*
X1741D01*
Y6267D01*
X1661D01*
Y6227D01*
X1620D01*
Y6147D01*
X1661D01*
X-806Y3340D02*
Y3300D01*
X-726D01*
Y3340D01*
X-686D01*
Y3420D01*
X-726D01*
Y3460D01*
X-806D01*
Y3420D01*
X-846D01*
Y3340D01*
X-806D01*
X938Y4550D02*
Y4510D01*
X1018D01*
Y4550D01*
X1058D01*
Y4630D01*
X1018D01*
Y4670D01*
X938D01*
Y4630D01*
X898D01*
Y4550D01*
X938D01*
X671Y5379D02*
Y5339D01*
X751D01*
Y5379D01*
X791D01*
Y5459D01*
X751D01*
Y5499D01*
X671D01*
Y5459D01*
X631D01*
Y5379D01*
X671D01*
X698Y4550D02*
Y4510D01*
X778D01*
Y4550D01*
X818D01*
Y4630D01*
X778D01*
Y4670D01*
X698D01*
Y4630D01*
X658D01*
Y4550D01*
X698D01*
X431Y5379D02*
Y5339D01*
X511D01*
Y5379D01*
X551D01*
Y5459D01*
X511D01*
Y5499D01*
X431D01*
Y5459D01*
X391D01*
Y5379D01*
X431D01*
X769Y3340D02*
Y3300D01*
X849D01*
Y3340D01*
X889D01*
Y3420D01*
X849D01*
Y3460D01*
X769D01*
Y3420D01*
X729D01*
Y3340D01*
X769D01*
X529D02*
Y3300D01*
X609D01*
Y3340D01*
X649D01*
Y3420D01*
X609D01*
Y3460D01*
X529D01*
Y3420D01*
X489D01*
Y3340D01*
X529D01*
X2857Y4800D02*
Y4760D01*
X2937D01*
Y4800D01*
X2977D01*
Y4880D01*
X2937D01*
Y4920D01*
X2857D01*
Y4880D01*
X2817D01*
Y4800D01*
X2857D01*
X2617D02*
Y4760D01*
X2697D01*
Y4800D01*
X2737D01*
Y4880D01*
X2697D01*
Y4920D01*
X2617D01*
Y4880D01*
X2577D01*
Y4800D01*
X2617D01*
X2140Y5218D02*
Y5178D01*
X2220D01*
Y5218D01*
X2260D01*
Y5299D01*
X2220D01*
Y5339D01*
X2140D01*
Y5299D01*
X2100D01*
Y5218D01*
X2140D01*
Y4979D02*
Y4938D01*
X2220D01*
Y4979D01*
X2260D01*
Y5059D01*
X2220D01*
Y5099D01*
X2140D01*
Y5059D01*
X2100D01*
Y4979D01*
X2140D01*
X-2220Y5289D02*
Y5249D01*
X-2140D01*
Y5289D01*
X-2100D01*
Y5369D01*
X-2140D01*
Y5409D01*
X-2220D01*
Y5369D01*
X-2260D01*
Y5289D01*
X-2220D01*
Y5049D02*
Y5009D01*
X-2140D01*
Y5049D01*
X-2100D01*
Y5129D01*
X-2140D01*
Y5169D01*
X-2220D01*
Y5129D01*
X-2260D01*
Y5049D01*
X-2220D01*
X-440Y5210D02*
Y5170D01*
X-360D01*
Y5210D01*
X-320D01*
Y5289D01*
X-360D01*
Y5329D01*
X-440D01*
Y5289D01*
X-480D01*
Y5210D01*
X-440D01*
Y5450D02*
Y5410D01*
X-360D01*
Y5450D01*
X-320D01*
Y5530D01*
X-360D01*
Y5569D01*
X-440D01*
Y5530D01*
X-480D01*
Y5450D01*
X-440D01*
X3360Y7271D02*
Y7231D01*
X3440D01*
Y7271D01*
X3480D01*
Y7351D01*
X3440D01*
Y7391D01*
X3360D01*
Y7351D01*
X3320D01*
Y7271D01*
X3360D01*
X2421D02*
Y7231D01*
X2501D01*
Y7271D01*
X2541D01*
Y7351D01*
X2501D01*
Y7391D01*
X2421D01*
Y7351D01*
X2381D01*
Y7271D01*
X2421D01*
X2224Y6680D02*
Y6640D01*
X2304D01*
Y6680D01*
X2344D01*
Y6760D01*
X2304D01*
Y6800D01*
X2224D01*
Y6760D01*
X2184D01*
Y6680D01*
X2224D01*
X-2501D02*
Y6640D01*
X-2421D01*
Y6680D01*
X-2381D01*
Y6760D01*
X-2421D01*
Y6800D01*
X-2501D01*
Y6760D01*
X-2541D01*
Y6680D01*
X-2501D01*
Y7271D02*
Y7231D01*
X-2421D01*
Y7271D01*
X-2381D01*
Y7351D01*
X-2421D01*
Y7391D01*
X-2501D01*
Y7351D01*
X-2541D01*
Y7271D01*
X-2501D01*
X-4200Y6877D02*
Y6837D01*
X-4120D01*
Y6877D01*
X-4080D01*
Y6957D01*
X-4120D01*
Y6997D01*
X-4200D01*
Y6957D01*
X-4240D01*
Y6877D01*
X-4200D01*
X-2220Y6883D02*
Y6843D01*
X-2140D01*
Y6883D01*
X-2100D01*
Y6963D01*
X-2140D01*
Y7003D01*
X-2220D01*
Y6963D01*
X-2260D01*
Y6883D01*
X-2220D01*
X2421D02*
Y6843D01*
X2501D01*
Y6883D01*
X2541D01*
Y6963D01*
X2501D01*
Y7003D01*
X2421D01*
Y6963D01*
X2381D01*
Y6883D01*
X2421D01*
X-2491Y6147D02*
Y6107D01*
X-2411D01*
Y6147D01*
X-2371D01*
Y6227D01*
X-2411D01*
Y6267D01*
X-2491D01*
Y6227D01*
X-2531D01*
Y6147D01*
X-2491D01*
X-1910Y11485D02*
Y11445D01*
X-1830D01*
Y11485D01*
X-1790D01*
Y11565D01*
X-1830D01*
Y11605D01*
X-1910D01*
Y11565D01*
X-1950D01*
Y11485D01*
X-1910D01*
X1830D02*
Y11445D01*
X1910D01*
Y11485D01*
X1950D01*
Y11565D01*
X1910D01*
Y11605D01*
X1830D01*
Y11565D01*
X1790D01*
Y11485D01*
X1830D01*
X2814Y7468D02*
Y7428D01*
X2894D01*
Y7468D01*
X2934D01*
Y7548D01*
X2894D01*
Y7588D01*
X2814D01*
Y7548D01*
X2774D01*
Y7468D01*
X2814D01*
X-40Y11485D02*
Y11445D01*
X40D01*
Y11485D01*
X80D01*
Y11565D01*
X40D01*
Y11605D01*
X-40D01*
Y11565D01*
X-80D01*
Y11485D01*
X-40D01*
X-2796Y7468D02*
Y7428D01*
X-2716D01*
Y7468D01*
X-2676D01*
Y7548D01*
X-2716D01*
Y7588D01*
X-2796D01*
Y7548D01*
X-2836D01*
Y7468D01*
X-2796D01*
M02*
