G04*
G04 #@! TF.GenerationSoftware,Altium Limited,Altium Designer,25.8.1 (18)*
G04*
G04 Layer_Color=65535*
%FSLAX24Y24*%
%MOIN*%
G70*
G04*
G04 #@! TF.SameCoordinates,11A0BD64-0B8A-420F-B800-B284AFDE532D*
G04*
G04*
G04 #@! TF.FilePolarity,Positive*
G04*
G01*
G75*
%ADD10C,0.0079*%
%ADD11C,0.0050*%
%ADD12C,0.0063*%
D10*
X-1043Y4112D02*
G03*
X-1043Y4112I-39J0D01*
G01*
X-1496Y9594D02*
G03*
X-1496Y9594I-98J0D01*
G01*
X4724Y10454D02*
Y12915D01*
X-4724Y10454D02*
Y12915D01*
Y10454D02*
X4724D01*
X-4724Y12915D02*
X4724D01*
X-1870Y6130D02*
Y9870D01*
X1870Y6130D02*
Y9870D01*
X-1870D02*
X1870D01*
X-1870Y6130D02*
X1870D01*
X-551Y4394D02*
X551D01*
X-551Y4906D02*
X551D01*
Y4394D02*
Y4906D01*
X-551Y4394D02*
Y4906D01*
X1199Y4394D02*
X2301D01*
X1199Y4906D02*
X2301D01*
Y4394D02*
Y4906D01*
X1199Y4394D02*
Y4906D01*
X-2301Y4394D02*
X-1199D01*
X-2301Y4906D02*
X-1199D01*
Y4394D02*
Y4906D01*
X-2301Y4394D02*
Y4906D01*
X3144Y7051D02*
X3656D01*
X3144Y5949D02*
Y7051D01*
X3656Y5949D02*
Y7051D01*
X3144Y5949D02*
X3656D01*
X-3596Y5955D02*
X-3084D01*
Y7057D01*
X-3596Y5955D02*
Y7057D01*
X-3084D01*
D11*
X1258Y3807D02*
X1811D01*
Y3388D02*
Y3807D01*
Y1045D02*
Y2565D01*
X-1811Y3807D02*
X-1258D01*
X-1811Y3388D02*
Y3807D01*
Y1045D02*
Y2565D01*
D12*
X-2350Y1477D02*
X-2455D01*
X-2402D01*
Y1215D01*
X-2455Y1163D01*
X-2507D01*
X-2560Y1215D01*
X-2245Y1163D02*
X-2140D01*
X-2193D01*
Y1477D01*
X-2245Y1425D01*
X-2545Y9738D02*
Y9475D01*
X-2492Y9423D01*
X-2387D01*
X-2335Y9475D01*
Y9738D01*
X-2230Y9423D02*
X-2125D01*
X-2177D01*
Y9738D01*
X-2230Y9685D01*
X-217Y5082D02*
Y5397D01*
X-59D01*
X-7Y5345D01*
Y5240D01*
X-59Y5187D01*
X-217D01*
X-112D02*
X-7Y5082D01*
X308Y5397D02*
X98D01*
Y5240D01*
X203Y5292D01*
X256D01*
X308Y5240D01*
Y5135D01*
X256Y5082D01*
X151D01*
X98Y5135D01*
X2508Y4303D02*
Y4617D01*
X2665D01*
X2718Y4565D01*
Y4460D01*
X2665Y4408D01*
X2508D01*
X2613D02*
X2718Y4303D01*
X2822Y4565D02*
X2875Y4617D01*
X2980D01*
X3032Y4565D01*
Y4512D01*
X2980Y4460D01*
X2927D01*
X2980D01*
X3032Y4408D01*
Y4355D01*
X2980Y4303D01*
X2875D01*
X2822Y4355D01*
X-2966Y4433D02*
Y4747D01*
X-2809D01*
X-2756Y4695D01*
Y4590D01*
X-2809Y4538D01*
X-2966D01*
X-2861D02*
X-2756Y4433D01*
X-2652D02*
X-2547D01*
X-2599D01*
Y4747D01*
X-2652Y4695D01*
X3898Y10157D02*
X3793D01*
X3845D01*
Y9895D01*
X3793Y9843D01*
X3740D01*
X3688Y9895D01*
X4212Y9843D02*
X4002D01*
X4212Y10052D01*
Y10105D01*
X4160Y10157D01*
X4055D01*
X4002Y10105D01*
X3338Y5725D02*
X3285Y5777D01*
X3180D01*
X3128Y5725D01*
Y5515D01*
X3180Y5463D01*
X3285D01*
X3338Y5515D01*
X3442Y5725D02*
X3495Y5777D01*
X3600D01*
X3652Y5725D01*
Y5672D01*
X3600Y5620D01*
X3547D01*
X3600D01*
X3652Y5568D01*
Y5515D01*
X3600Y5463D01*
X3495D01*
X3442Y5515D01*
X-3360Y5685D02*
X-3412Y5737D01*
X-3517D01*
X-3570Y5685D01*
Y5475D01*
X-3517Y5423D01*
X-3412D01*
X-3360Y5475D01*
X-3255Y5423D02*
X-3150D01*
X-3203D01*
Y5737D01*
X-3255Y5685D01*
M02*
