M48
;Layer_Color=9474304
;FILE_FORMAT=2:4
INCH,LZ
;TYPE=PLATED
T01F00S00C0.0080
T03F00S00C0.0945
;TYPE=NON_PLATED
T04F00S00C0.0266
%
T01
X-004562Y002542
X-004393Y002879
X-004056
X-003719
X-003382
X-003045
X-002708
X-002371
X-002203Y002542
X-00254
X-002877
X-002371Y002205
Y000857
X-001023
X-000686
X-000349
X-000012
X000325
X000662
X000999
X001336
X002347
Y002205
X002684
X002852Y002542
X002515
X002178
X002347Y002879
X002684
X003021
X004369
X004537Y002542
X00201Y002205
X001673
X001336
X000999
X000923Y002661
X000583Y002649
X-00063Y00267
X-000969Y002649
X-00128Y002787
X-00136Y002205
X-001023
X-000686
X-001697
X-002034
X000197Y0015
X000295Y00338
X000569
X000809
X-00021
X-000492
X-000766
X-001006
X-002011Y003556
X-000633Y004671
X-0004Y00525
Y00549
X-000954Y005223
X000471Y005419
X000711
X000738Y00459
X000978
X001166Y004936
X00218Y005019
Y005258
X002657Y00484
X002897
X00324Y00486
X003125Y00454
X003123Y0042
X002937Y003915
X003021Y003553
X002697Y003674
X002394Y003521
X002054
X002154Y00424
X002439Y004425
X003125Y00518
X004032Y005575
X004369
X004537Y005912
X0042
X004369Y006249
X004537Y006586
X0042
X004369Y006923
X004032
X0042Y00726
X004537
X004369Y007597
X004032
X0042Y007934
X004537
X004369Y008271
X004032
X0042Y008608
X004537
X004369Y008945
X004032
X0042Y009282
X004537
X004369Y009619
X004032
X0042Y009956
X004537
X004369Y010293
X003021Y011641
X002684
X002852Y011978
X002515
X002684Y012315
X003021
X002852Y012652
X002515
X002178
X001841
X001504
X001167
X00083
X000493
X000156
X-000181
X-000518
X-000855
X-001192
X-001529
X-001866
X-001697Y012315
X-00136
X-001023
X-000686
X-000349
X-000012
X000325
X000662
X000999
X001336
X001673
X00201
X002347
X00187Y011525
X001841Y009956
X-000012Y010293
X0Y011525
X-00187
X-002034Y012315
X-001866Y009956
X002461Y007311
Y006923
X002264Y00672
X0017Y006187
X002854Y007508
X0034Y007311
X003863Y00726
X004537Y005238
X004369Y004901
X004537Y004564
X004369Y004227
X004537Y00389
X004369Y003553
X004537Y003216
X003189
X002852
X-002203
X-00254
X-002877
X-003214
X-003551
X-003888
X-004225
X-004562
X-004393Y003553
X-004056
X-003719
X-003382
X-003045
X-002708
X-002877Y00389
X-003214
X-003551
X-003888
X-004225
X-004562
X-004393Y004227
X-004056
X-003719
X-003382
X-003551Y004564
X-003888
X-004225
X-004562
X-004393Y004901
X-004056
X-003719
X-003382
X-002949Y004881
Y005221
X-002947Y005561
X-003382Y005575
X-003719
X-004056
X-004393
X-004225Y005912
X-004562
X-004393Y006249
X-004225Y006586
X-004562
Y00726
X-004225
X-00416Y006917
X-004056Y007597
X-003719
X-004393
X-004225Y007934
X-004562
X-004393Y008271
X-004056
X-004225Y008608
X-004562
X-004393Y008945
X-004056
X-004225Y009282
X-004562
X-004393Y009619
X-004056
X-004225Y009956
X-004562
X-004393Y010293
X-004056
X-003045Y011641
X-002708
X-00254Y011978
X-002877
X-002708Y012315
X-002371
X-002203Y012652
X-00254
X-002877
X-003045Y012315
X-002756Y007508
X-002461Y007311
Y00672
X-00218Y006923
X-002451Y006187
X-00276Y005845
X-00218Y005329
Y005089
X-002943Y004541
X-002744Y004265
X-002504Y004025
X-002263Y003784
X-003551Y005238
X-003888
X-004225
X-004562
T03
X-00375Y0015
X00375
T04
X-001417Y003469
M30
