G04*
G04 #@! TF.GenerationSoftware,Altium Limited,Altium Designer,25.8.1 (18)*
G04*
G04 Layer_Physical_Order=6*
G04 Layer_Color=16711680*
%FSLAX24Y24*%
%MOIN*%
G70*
G04*
G04 #@! TF.SameCoordinates,11A0BD64-0B8A-420F-B800-B284AFDE532D*
G04*
G04*
G04 #@! TF.FilePolarity,Positive*
G04*
G01*
G75*
%ADD11C,0.0050*%
%ADD14R,0.0354X0.0276*%
%ADD15R,0.0098X0.0354*%
%ADD16R,0.0276X0.0354*%
%ADD17R,0.2402X0.2402*%
%ADD18R,0.0354X0.0098*%
%ADD19R,0.0118X0.0472*%
%ADD20R,0.0866X0.1299*%
%ADD30C,0.0266*%
%ADD31O,0.0472X0.0344*%
%ADD33C,0.0080*%
%ADD34C,0.0049*%
%ADD35O,0.0335X0.0571*%
%ADD36C,0.1417*%
%ADD37C,0.0140*%
G36*
X5148Y102D02*
X-5148D01*
Y13398D01*
X5148D01*
Y102D01*
D02*
G37*
%LPC*%
G36*
X4608Y12373D02*
X3542D01*
Y11106D01*
X1962D01*
Y11379D01*
X1966Y11381D01*
X2014Y11429D01*
X2040Y11491D01*
Y11559D01*
X2014Y11621D01*
X1966Y11669D01*
X1904Y11695D01*
X1836D01*
X1774Y11669D01*
X1726Y11621D01*
X1700Y11559D01*
Y11491D01*
X1726Y11429D01*
X1774Y11381D01*
X1778Y11379D01*
Y11106D01*
X190D01*
Y11427D01*
X183Y11462D01*
X168Y11485D01*
X170Y11491D01*
Y11559D01*
X144Y11621D01*
X96Y11669D01*
X34Y11695D01*
X-34D01*
X-96Y11669D01*
X-144Y11621D01*
X-170Y11559D01*
Y11491D01*
X-168Y11485D01*
X-183Y11462D01*
X-190Y11427D01*
Y11106D01*
X-1778D01*
Y11379D01*
X-1774Y11381D01*
X-1726Y11429D01*
X-1700Y11491D01*
Y11559D01*
X-1726Y11621D01*
X-1774Y11669D01*
X-1836Y11695D01*
X-1904D01*
X-1966Y11669D01*
X-2014Y11621D01*
X-2040Y11559D01*
Y11491D01*
X-2014Y11429D01*
X-1966Y11381D01*
X-1962Y11379D01*
Y11106D01*
X-3542D01*
Y12373D01*
X-4608D01*
Y10874D01*
X-3604D01*
Y10433D01*
X-3521D01*
Y8098D01*
X-3516Y8069D01*
X-3499Y8044D01*
X-3105Y7651D01*
X-3080Y7634D01*
X-3051Y7628D01*
X-2942D01*
X-2911Y7578D01*
X-2926Y7542D01*
Y7474D01*
X-2901Y7412D01*
X-2853Y7364D01*
X-2790Y7338D01*
X-2723D01*
X-2660Y7364D01*
X-2612Y7412D01*
X-2586Y7474D01*
Y7542D01*
X-2602Y7578D01*
X-2571Y7628D01*
X-1872D01*
Y7359D01*
X-1317D01*
Y7752D01*
Y8146D01*
Y8540D01*
Y8933D01*
Y9317D01*
X1317D01*
Y8933D01*
Y8540D01*
Y8146D01*
Y7752D01*
Y7359D01*
X1872D01*
Y7416D01*
X2708D01*
X2710Y7412D01*
X2758Y7364D01*
X2821Y7338D01*
X2888D01*
X2951Y7364D01*
X2998Y7412D01*
X3024Y7474D01*
Y7542D01*
X3009Y7578D01*
X3040Y7628D01*
X3051D01*
X3080Y7634D01*
X3105Y7651D01*
X3499Y8044D01*
X3516Y8069D01*
X3521Y8098D01*
Y10433D01*
X3604D01*
Y10874D01*
X4608D01*
Y12373D01*
D02*
G37*
G36*
X2494Y7093D02*
X2427D01*
X2364Y7067D01*
X2317Y7019D01*
X2312Y7009D01*
X1872D01*
Y7067D01*
X1317D01*
Y6683D01*
X933D01*
Y6128D01*
X1429D01*
Y6314D01*
X1466D01*
X1501Y6321D01*
X1530Y6341D01*
X1655Y6465D01*
X1675Y6495D01*
X1682Y6530D01*
Y6571D01*
X1872D01*
Y6826D01*
X2318D01*
X2364Y6779D01*
X2369Y6777D01*
Y6444D01*
X2204Y6278D01*
X1847D01*
X1845Y6283D01*
X1797Y6331D01*
X1734Y6357D01*
X1667D01*
X1604Y6331D01*
X1556Y6283D01*
X1531Y6220D01*
Y6153D01*
X1556Y6090D01*
X1604Y6042D01*
X1667Y6017D01*
X1734D01*
X1797Y6042D01*
X1845Y6090D01*
X1847Y6095D01*
X2242D01*
X2277Y6102D01*
X2307Y6122D01*
X2526Y6341D01*
X2545Y6370D01*
X2552Y6406D01*
Y6777D01*
X2557Y6779D01*
X2605Y6827D01*
X2607Y6831D01*
X2713D01*
X2867Y6677D01*
Y6292D01*
X3421D01*
Y6768D01*
X3036D01*
X2816Y6988D01*
X2786Y7008D01*
X2751Y7015D01*
X2607D01*
X2605Y7019D01*
X2557Y7067D01*
X2494Y7093D01*
D02*
G37*
G36*
X-1317Y7263D02*
X-1872D01*
Y7009D01*
X-2032D01*
X-2036Y7019D01*
X-2084Y7067D01*
X-2146Y7093D01*
X-2214D01*
X-2276Y7067D01*
X-2324Y7019D01*
X-2350Y6957D01*
Y6889D01*
X-2324Y6827D01*
X-2276Y6779D01*
X-2214Y6753D01*
X-2146D01*
X-2084Y6779D01*
X-2037Y6826D01*
X-1872D01*
Y6768D01*
X-1317D01*
Y6965D01*
Y7263D01*
D02*
G37*
G36*
X838Y6683D02*
X-1429D01*
Y6497D01*
X-3162D01*
Y6671D01*
X-3638D01*
Y6117D01*
X-3162D01*
Y6314D01*
X-2630D01*
X-2603Y6264D01*
X-2621Y6220D01*
Y6153D01*
X-2595Y6090D01*
X-2548Y6042D01*
X-2485Y6017D01*
X-2418D01*
X-2413Y6018D01*
X-2359Y5964D01*
X-2329Y5944D01*
X-2294Y5937D01*
X-1038D01*
X-1037Y5936D01*
X-1014Y5891D01*
X-1142Y5762D01*
X-2496D01*
X-2525Y5757D01*
X-2550Y5740D01*
X-2704Y5585D01*
X-2721Y5561D01*
X-2727Y5532D01*
Y4594D01*
X-2721Y4565D01*
X-2704Y4540D01*
X-2247Y4083D01*
X-2247Y4083D01*
X-1930Y3766D01*
X-1930Y3766D01*
X-1906Y3750D01*
X-1876Y3744D01*
X-1491D01*
X-1481Y3694D01*
X-1549Y3666D01*
X-1615Y3600D01*
X-1650Y3515D01*
Y3422D01*
X-1615Y3337D01*
X-1549Y3271D01*
X-1464Y3236D01*
X-1371D01*
X-1285Y3271D01*
X-1222Y3334D01*
X-1205Y3334D01*
X-1169Y3329D01*
X-1150Y3284D01*
X-1102Y3236D01*
X-1040Y3210D01*
X-972D01*
X-910Y3236D01*
X-886Y3260D01*
X-862Y3236D01*
X-800Y3210D01*
X-732D01*
X-670Y3236D01*
X-629Y3276D01*
X-588Y3236D01*
X-526Y3210D01*
X-458D01*
X-396Y3236D01*
X-348Y3284D01*
X-322Y3346D01*
Y3414D01*
X-348Y3476D01*
X-396Y3524D01*
X-458Y3550D01*
X-526D01*
X-588Y3524D01*
X-629Y3484D01*
X-670Y3524D01*
X-732Y3550D01*
X-770D01*
Y3623D01*
X-776Y3652D01*
X-792Y3677D01*
X-1088Y3973D01*
X-1113Y3989D01*
X-1142Y3995D01*
X-1804D01*
X-2476Y4667D01*
Y5459D01*
X-2423Y5511D01*
X-2304D01*
X-2288Y5461D01*
X-2324Y5425D01*
X-2350Y5363D01*
Y5295D01*
X-2324Y5233D01*
X-2300Y5209D01*
X-2324Y5185D01*
X-2350Y5123D01*
Y5055D01*
X-2324Y4993D01*
X-2276Y4945D01*
X-2214Y4919D01*
X-2146D01*
X-2084Y4945D01*
X-2036Y4993D01*
X-2010Y5055D01*
Y5084D01*
X-1539D01*
X-522Y4067D01*
X-498Y4050D01*
X-469Y4045D01*
X695D01*
X724Y4050D01*
X749Y4067D01*
X962Y4280D01*
X978Y4304D01*
X984Y4333D01*
Y4420D01*
X1012D01*
X1075Y4446D01*
X1123Y4494D01*
X1148Y4556D01*
Y4624D01*
X1123Y4686D01*
X1075Y4734D01*
X1012Y4760D01*
X945D01*
X882Y4734D01*
X858Y4710D01*
X835Y4734D01*
X772Y4760D01*
X705D01*
X642Y4734D01*
X594Y4686D01*
X568Y4624D01*
Y4556D01*
X594Y4494D01*
X642Y4446D01*
X685Y4428D01*
X700Y4377D01*
X699Y4372D01*
X623Y4296D01*
X-396D01*
X-1413Y5312D01*
X-1437Y5329D01*
X-1467Y5334D01*
X-2010D01*
Y5363D01*
X-2036Y5425D01*
X-2072Y5461D01*
X-2056Y5511D01*
X-1070D01*
X-1041Y5517D01*
X-1016Y5534D01*
X-914Y5636D01*
X-864Y5615D01*
Y5178D01*
X-858Y5149D01*
X-842Y5124D01*
X-626Y4908D01*
X-601Y4892D01*
X-572Y4886D01*
X259D01*
X288Y4892D01*
X313Y4908D01*
X418Y5013D01*
X2010D01*
Y4985D01*
X2036Y4922D01*
X2084Y4874D01*
X2146Y4848D01*
X2214D01*
X2276Y4874D01*
X2324Y4922D01*
X2350Y4985D01*
Y5052D01*
X2324Y5115D01*
X2300Y5138D01*
X2324Y5162D01*
X2350Y5225D01*
Y5292D01*
X2324Y5355D01*
X2276Y5403D01*
X2214Y5429D01*
X2146D01*
X2084Y5403D01*
X2036Y5355D01*
X2010Y5292D01*
Y5264D01*
X867D01*
X846Y5314D01*
X855Y5323D01*
X881Y5385D01*
Y5453D01*
X855Y5515D01*
X807Y5563D01*
X744Y5589D01*
X716D01*
Y6128D01*
X838D01*
Y6683D01*
D02*
G37*
G36*
X2931Y5010D02*
X2863D01*
X2801Y4984D01*
X2777Y4960D01*
X2753Y4984D01*
X2691Y5010D01*
X2623D01*
X2561Y4984D01*
X2513Y4936D01*
X2487Y4874D01*
Y4806D01*
X2513Y4744D01*
X2561Y4696D01*
X2623Y4670D01*
X2652D01*
Y4299D01*
X2348Y3995D01*
X917D01*
X888Y3989D01*
X864Y3973D01*
X864Y3973D01*
X586Y3695D01*
X569Y3670D01*
X564Y3641D01*
Y3550D01*
X535D01*
X473Y3524D01*
X432Y3484D01*
X392Y3524D01*
X329Y3550D01*
X261D01*
X199Y3524D01*
X151Y3476D01*
X125Y3414D01*
Y3346D01*
X151Y3284D01*
X199Y3236D01*
X261Y3210D01*
X329D01*
X392Y3236D01*
X432Y3276D01*
X473Y3236D01*
X535Y3210D01*
X603D01*
X665Y3236D01*
X689Y3260D01*
X713Y3236D01*
X775Y3210D01*
X843D01*
X905Y3236D01*
X953Y3284D01*
X979Y3346D01*
Y3414D01*
X953Y3476D01*
X905Y3524D01*
X860Y3543D01*
X845Y3589D01*
X845Y3599D01*
X990Y3744D01*
X1183D01*
X1200Y3694D01*
X1159Y3663D01*
X1116Y3606D01*
X1088Y3540D01*
X1079Y3469D01*
X1088Y3398D01*
X1116Y3332D01*
X1159Y3275D01*
X1216Y3231D01*
X1282Y3204D01*
X1353Y3194D01*
X1481D01*
X1552Y3204D01*
X1619Y3231D01*
X1675Y3275D01*
X1719Y3332D01*
X1747Y3398D01*
X1756Y3469D01*
X1747Y3540D01*
X1719Y3606D01*
X1675Y3663D01*
X1635Y3694D01*
X1652Y3744D01*
X2420D01*
X2449Y3750D01*
X2474Y3766D01*
X2880Y4173D01*
X2897Y4197D01*
X2902Y4226D01*
Y4670D01*
X2931D01*
X2993Y4696D01*
X3041Y4744D01*
X3067Y4806D01*
Y4874D01*
X3041Y4936D01*
X2993Y4984D01*
X2931Y5010D01*
D02*
G37*
G36*
X231Y1670D02*
X163D01*
X101Y1644D01*
X53Y1596D01*
X27Y1534D01*
Y1466D01*
X53Y1404D01*
X101Y1356D01*
X163Y1330D01*
X231D01*
X293Y1356D01*
X341Y1404D01*
X367Y1466D01*
Y1534D01*
X341Y1596D01*
X293Y1644D01*
X231Y1670D01*
D02*
G37*
G36*
X3830Y2309D02*
X3670D01*
X3514Y2278D01*
X3367Y2217D01*
X3235Y2128D01*
X3122Y2015D01*
X3033Y1883D01*
X2972Y1736D01*
X2941Y1580D01*
Y1420D01*
X2972Y1264D01*
X3033Y1117D01*
X3122Y985D01*
X3235Y872D01*
X3367Y783D01*
X3514Y722D01*
X3670Y691D01*
X3830D01*
X3986Y722D01*
X4133Y783D01*
X4265Y872D01*
X4378Y985D01*
X4467Y1117D01*
X4528Y1264D01*
X4559Y1420D01*
Y1580D01*
X4528Y1736D01*
X4467Y1883D01*
X4378Y2015D01*
X4265Y2128D01*
X4133Y2217D01*
X3986Y2278D01*
X3830Y2309D01*
D02*
G37*
G36*
X-3670D02*
X-3830D01*
X-3986Y2278D01*
X-4133Y2217D01*
X-4265Y2128D01*
X-4378Y2015D01*
X-4467Y1883D01*
X-4528Y1736D01*
X-4559Y1580D01*
Y1420D01*
X-4528Y1264D01*
X-4467Y1117D01*
X-4378Y985D01*
X-4265Y872D01*
X-4133Y783D01*
X-3986Y722D01*
X-3830Y691D01*
X-3670D01*
X-3514Y722D01*
X-3367Y783D01*
X-3235Y872D01*
X-3122Y985D01*
X-3033Y1117D01*
X-2972Y1264D01*
X-2941Y1420D01*
Y1580D01*
X-2972Y1736D01*
X-3033Y1883D01*
X-3122Y2015D01*
X-3235Y2128D01*
X-3367Y2217D01*
X-3514Y2278D01*
X-3670Y2309D01*
D02*
G37*
%LPD*%
D11*
X-3445Y8098D02*
Y10769D01*
Y8098D02*
X-3051Y7705D01*
X-1594D01*
X295Y9594D02*
Y9999D01*
X492Y10196D01*
Y10769D01*
X-2264Y9064D02*
Y10769D01*
Y9064D02*
X-2086Y8886D01*
X-1594D01*
X-2070Y9190D02*
Y10766D01*
Y9190D02*
X-1963Y9083D01*
X-1594D01*
X1594Y9280D02*
X1673D01*
Y10769D01*
X-2657Y8689D02*
Y10769D01*
X-2461Y8492D02*
X-1594D01*
X-2657Y8689D02*
X-2461Y8492D01*
X1083Y9594D02*
Y9865D01*
X1280Y10062D01*
Y10769D01*
X3248Y8178D02*
Y10769D01*
X1594Y7902D02*
X2972D01*
X3248Y8178D01*
X-3051Y8295D02*
Y10769D01*
X-2854Y8098D02*
X-1594D01*
X-3051Y8295D02*
X-2854Y8098D01*
X689Y9911D02*
X886Y10108D01*
X689Y9594D02*
Y9911D01*
X886Y10108D02*
Y10769D01*
X1280Y9714D02*
X1476Y9911D01*
X1280Y9603D02*
Y9714D01*
Y9594D02*
Y9603D01*
X1476Y9911D02*
Y10769D01*
X2657Y8689D02*
Y10769D01*
X1594Y8492D02*
X2461D01*
X2657Y8689D01*
X2067Y10769D02*
X2070Y10766D01*
Y9190D02*
Y10766D01*
X1594Y9083D02*
X1963D01*
X2070Y9190D01*
X2461Y8886D02*
Y10769D01*
X1594Y8689D02*
X2264D01*
X2461Y8886D01*
X3445Y8098D02*
Y10769D01*
X1594Y7705D02*
X3051D01*
X3445Y8098D01*
X-2854Y8504D02*
Y10769D01*
X-2645Y8295D02*
X-1594D01*
X-2854Y8504D02*
X-2645Y8295D01*
X98Y9594D02*
Y10034D01*
X295Y10231D01*
Y10769D01*
X492Y9973D02*
X689Y10170D01*
X492Y9594D02*
Y9973D01*
X689Y10170D02*
Y10769D01*
X2264Y9064D02*
Y10769D01*
X1594Y8886D02*
X2086D01*
X2264Y9064D01*
X-3248Y8178D02*
Y10769D01*
X-2972Y7902D02*
X-1594D01*
X-3248Y8178D02*
X-2972Y7902D01*
X-2461Y8886D02*
Y10769D01*
Y8886D02*
X-2264Y8689D01*
X-1594D01*
X886Y9594D02*
Y9865D01*
X1083Y10062D01*
Y10769D01*
X2854Y8504D02*
Y10769D01*
X2645Y8295D02*
X2854Y8504D01*
X1594Y8295D02*
X2645D01*
X3051D02*
Y10769D01*
X1594Y8098D02*
X2854D01*
X3051Y8295D01*
X-1673Y9280D02*
Y10769D01*
Y9280D02*
X-1594D01*
X-1476Y9911D02*
Y10769D01*
X-1280Y9594D02*
Y9603D01*
Y9714D01*
X-1476Y9911D02*
X-1280Y9714D01*
Y10062D02*
Y10769D01*
Y10062D02*
X-1083Y9865D01*
Y9594D02*
Y9865D01*
Y10062D02*
Y10769D01*
Y10062D02*
X-886Y9865D01*
Y9594D02*
Y9865D01*
Y10108D02*
Y10769D01*
X-689Y10170D02*
Y10769D01*
Y9594D02*
Y9911D01*
X-886Y10108D02*
X-689Y9911D01*
X-492Y9594D02*
Y9973D01*
X-689Y10170D02*
X-492Y9973D01*
Y10196D02*
Y10769D01*
Y10196D02*
X-295Y9999D01*
Y9594D02*
Y9999D01*
Y10231D02*
Y10769D01*
Y10231D02*
X-98Y10034D01*
Y9594D02*
Y10034D01*
X-1673Y9280D02*
X-1594D01*
D14*
X3656Y6530D02*
D03*
X3144D02*
D03*
D15*
X492Y6406D02*
D03*
X98D02*
D03*
X-98D02*
D03*
X886D02*
D03*
X-886D02*
D03*
X1083D02*
D03*
X1280D02*
D03*
X-689D02*
D03*
X-295D02*
D03*
X-492D02*
D03*
X689D02*
D03*
X295D02*
D03*
Y9594D02*
D03*
X1083D02*
D03*
X689D02*
D03*
X1280D02*
D03*
X98D02*
D03*
X492D02*
D03*
X886D02*
D03*
X-1083Y6406D02*
D03*
X-1280D02*
D03*
Y9594D02*
D03*
X-1083D02*
D03*
X-886D02*
D03*
X-689D02*
D03*
X-492D02*
D03*
X-295D02*
D03*
X-98D02*
D03*
D16*
X-3400Y6906D02*
D03*
Y6394D02*
D03*
D17*
X0Y8000D02*
D03*
D18*
X-1594Y7311D02*
D03*
Y6720D02*
D03*
X1594Y7114D02*
D03*
Y7311D02*
D03*
X-1594Y7114D02*
D03*
Y6917D02*
D03*
X1594Y6720D02*
D03*
Y6917D02*
D03*
X-1594Y7705D02*
D03*
Y8886D02*
D03*
Y9083D02*
D03*
X1594Y9280D02*
D03*
X-1594Y8492D02*
D03*
X1594Y7902D02*
D03*
X-1594Y8098D02*
D03*
X1594Y8492D02*
D03*
Y9083D02*
D03*
Y8689D02*
D03*
Y7705D02*
D03*
X-1594Y8295D02*
D03*
X1594Y7508D02*
D03*
Y8886D02*
D03*
X-1594Y7902D02*
D03*
Y8689D02*
D03*
X1594Y8295D02*
D03*
Y8098D02*
D03*
X-1594Y7508D02*
D03*
Y9280D02*
D03*
D19*
X3445Y10769D02*
D03*
X3248D02*
D03*
X3051D02*
D03*
X2854D02*
D03*
X2657D02*
D03*
X2461D02*
D03*
X2264D02*
D03*
X2067D02*
D03*
X1870D02*
D03*
X1673D02*
D03*
X1476D02*
D03*
X1280D02*
D03*
X1083D02*
D03*
X886D02*
D03*
X689D02*
D03*
X492D02*
D03*
X295D02*
D03*
X98D02*
D03*
X-98D02*
D03*
X-295D02*
D03*
X-492D02*
D03*
X-689D02*
D03*
X-886D02*
D03*
X-1083D02*
D03*
X-1280D02*
D03*
X-1476D02*
D03*
X-1673D02*
D03*
X-1870D02*
D03*
X-2067D02*
D03*
X-2264D02*
D03*
X-2461D02*
D03*
X-2657D02*
D03*
X-2854D02*
D03*
X-3051D02*
D03*
X-3248D02*
D03*
X-3445D02*
D03*
D20*
X4075Y11624D02*
D03*
X-4075D02*
D03*
D30*
X-1417Y3469D02*
D03*
D31*
X1417Y3469D02*
D03*
D33*
X2461Y6406D02*
Y6923D01*
X2242Y6187D02*
X2461Y6406D01*
X1700Y6187D02*
X2242D01*
X-886Y6181D02*
Y6406D01*
X-2294Y6029D02*
X-1038D01*
X-886Y6181D01*
X3400Y7311D02*
X3656Y7055D01*
Y6530D02*
Y7055D01*
X2751Y6923D02*
X3144Y6530D01*
X2461Y6923D02*
X2751D01*
X1590Y6716D02*
X1594Y6720D01*
X1590Y6530D02*
Y6716D01*
X1466Y6406D02*
X1590Y6530D01*
X1280Y6406D02*
X1466D01*
X1083D02*
X1280D01*
X1594Y7311D02*
X2461D01*
X-2461Y6720D02*
X-1594D01*
X-2461Y7311D02*
X-1594D01*
X-689D01*
X-1594Y6720D02*
X-1280D01*
X-689Y7311D01*
X886Y6406D02*
Y7114D01*
X1594D01*
X2264D01*
X2461Y7311D01*
X-3411Y6917D02*
X-3400Y6906D01*
X-4160Y6917D02*
X-3411D01*
X1594Y6720D02*
Y6917D01*
X2455D01*
X2461Y6923D01*
X-2174Y6917D02*
X-1594D01*
X-2180Y6923D02*
X-2174Y6917D01*
X-2451Y6187D02*
X-2294Y6029D01*
X-1594Y6917D02*
Y7114D01*
X-1870Y10769D02*
Y11525D01*
X-98Y11427D02*
X0Y11525D01*
X-98Y10769D02*
Y11427D01*
X0Y11525D02*
X98Y11427D01*
Y10769D02*
Y11427D01*
X1870Y10769D02*
Y11525D01*
X1594Y7508D02*
X2854D01*
X-3400Y6394D02*
X-3389Y6406D01*
X-1280D01*
D34*
X2826Y4769D02*
X2897Y4840D01*
X2727Y4267D02*
Y4769D01*
X2657Y4840D02*
X2727Y4769D01*
X2420Y3820D02*
X2826Y4226D01*
Y4769D01*
X2379Y3919D02*
X2727Y4267D01*
X-846Y3460D02*
Y3623D01*
Y3460D02*
X-766Y3380D01*
X-1142Y3919D02*
X-846Y3623D01*
X-945Y3441D02*
Y3582D01*
X-1006Y3380D02*
X-945Y3441D01*
X-2496Y5686D02*
X-1111D01*
X-541Y6116D02*
Y6357D01*
X-1070Y5587D02*
X-541Y6116D01*
X-689Y6406D02*
X-640Y6357D01*
Y6157D02*
Y6357D01*
X-541D02*
X-492Y6406D01*
X-1111Y5686D02*
X-640Y6157D01*
X-2455Y5587D02*
X-1070D01*
X-2552Y5491D02*
X-2455Y5587D01*
X-2651Y5532D02*
X-2496Y5686D01*
X-2552Y4635D02*
X-1835Y3919D01*
X-2651Y4594D02*
Y5532D01*
Y4594D02*
X-2193Y4136D01*
X-2552Y4635D02*
Y5491D01*
X-1835Y3919D02*
X-1142D01*
X-1876Y3820D02*
X-1183D01*
X-945Y3582D01*
X-2193Y4136D02*
X-1876Y3820D01*
X-2193Y4136D02*
Y4136D01*
X-577Y5860D02*
X-398D01*
X-788Y5649D02*
X-577Y5860D01*
X-536Y5761D02*
X-357D01*
X-689Y5608D02*
X-536Y5761D01*
X-469Y4121D02*
X695D01*
X-2110Y5258D02*
X-1467D01*
X-1508Y5160D02*
X-469Y4121D01*
X-2110Y5160D02*
X-1508D01*
X-428Y4220D02*
X654D01*
X-1467Y5258D02*
X-428Y4220D01*
X809Y4374D02*
Y4520D01*
X654Y4220D02*
X809Y4374D01*
X695Y4121D02*
X908Y4333D01*
Y4520D01*
X978Y4590D01*
X738D02*
X809Y4520D01*
X640Y5490D02*
X711Y5419D01*
X640Y5490D02*
Y6357D01*
X689Y6406D01*
X471Y5419D02*
X541Y5490D01*
Y6357D01*
X492Y6406D02*
X541Y6357D01*
X345Y5188D02*
X2110D01*
X218Y5061D02*
X345Y5188D01*
X-531Y5061D02*
X218D01*
X386Y5089D02*
X2110D01*
X259Y4962D02*
X386Y5089D01*
X-572Y4962D02*
X259D01*
X2110Y5188D02*
X2180Y5258D01*
X2110Y5089D02*
X2180Y5019D01*
X958Y3820D02*
X2420D01*
X738Y3600D02*
X958Y3820D01*
X738Y3451D02*
Y3600D01*
Y3451D02*
X809Y3380D01*
X917Y3919D02*
X2379D01*
X639Y3641D02*
X917Y3919D01*
X639Y3451D02*
Y3641D01*
X569Y3380D02*
X639Y3451D01*
X-2180Y5089D02*
X-2110Y5160D01*
X-2180Y5329D02*
X-2110Y5258D01*
X-689Y5219D02*
X-531Y5061D01*
X-788Y5178D02*
X-572Y4962D01*
X-246Y6011D02*
Y6357D01*
X-147Y5970D02*
Y6357D01*
X-357Y5761D02*
X-147Y5970D01*
X-398Y5860D02*
X-246Y6011D01*
X-788Y5178D02*
Y5649D01*
X-689Y5219D02*
Y5608D01*
X-295Y6406D02*
X-246Y6357D01*
X-147Y6357D02*
X-98Y6406D01*
X-57Y5320D02*
X246Y5624D01*
X-329Y5320D02*
X-57D01*
X-98Y5419D02*
X147Y5665D01*
X246Y5624D02*
Y6357D01*
X295Y6406D01*
X147Y5665D02*
Y6357D01*
X98Y6406D02*
X147Y6357D01*
X-400Y5250D02*
X-329Y5320D01*
Y5419D02*
X-98D01*
X-400Y5490D02*
X-329Y5419D01*
D35*
X1768Y634D02*
D03*
X1626Y2976D02*
D03*
X-1768Y634D02*
D03*
X-1626Y2976D02*
D03*
D36*
X3750Y1500D02*
D03*
X-3750D02*
D03*
D37*
X4369Y10293D02*
D03*
X4537Y9956D02*
D03*
X4369Y9619D02*
D03*
X4537Y9282D02*
D03*
X4369Y8945D02*
D03*
X4537Y8608D02*
D03*
X4369Y8271D02*
D03*
X4537Y7934D02*
D03*
X4369Y7597D02*
D03*
X4537Y7260D02*
D03*
X4369Y6923D02*
D03*
X4537Y6586D02*
D03*
X4369Y6249D02*
D03*
X4537Y5912D02*
D03*
X4369Y5575D02*
D03*
X4537Y5238D02*
D03*
X4369Y4901D02*
D03*
X4537Y4564D02*
D03*
X4369Y4227D02*
D03*
X4537Y3890D02*
D03*
X4369Y3553D02*
D03*
X4537Y3216D02*
D03*
X4369Y2879D02*
D03*
X4537Y2542D02*
D03*
X4200Y9956D02*
D03*
X4032Y9619D02*
D03*
X4200Y9282D02*
D03*
X4032Y8945D02*
D03*
X4200Y8608D02*
D03*
X4032Y8271D02*
D03*
X4200Y7934D02*
D03*
X4032Y7597D02*
D03*
X4200Y7260D02*
D03*
X4032Y6923D02*
D03*
X4200Y6586D02*
D03*
Y5912D02*
D03*
X4032Y5575D02*
D03*
X3863Y7260D02*
D03*
X3021Y12315D02*
D03*
Y11641D02*
D03*
Y3553D02*
D03*
X3189Y3216D02*
D03*
X3021Y2879D02*
D03*
X2852Y12652D02*
D03*
X2684Y12315D02*
D03*
X2852Y11978D02*
D03*
X2684Y11641D02*
D03*
X2852Y3216D02*
D03*
X2684Y2879D02*
D03*
X2852Y2542D02*
D03*
X2684Y2205D02*
D03*
X2515Y12652D02*
D03*
X2347Y12315D02*
D03*
X2515Y11978D02*
D03*
X2347Y2879D02*
D03*
X2515Y2542D02*
D03*
X2347Y2205D02*
D03*
Y857D02*
D03*
X2178Y12652D02*
D03*
X2010Y12315D02*
D03*
X2178Y2542D02*
D03*
X2010Y2205D02*
D03*
X1841Y12652D02*
D03*
X1673Y12315D02*
D03*
X1841Y9956D02*
D03*
X1673Y2205D02*
D03*
X1504Y12652D02*
D03*
X1336Y12315D02*
D03*
Y2205D02*
D03*
Y857D02*
D03*
X1167Y12652D02*
D03*
X999Y12315D02*
D03*
Y2205D02*
D03*
Y857D02*
D03*
X830Y12652D02*
D03*
X662Y12315D02*
D03*
Y857D02*
D03*
X493Y12652D02*
D03*
X325Y12315D02*
D03*
Y857D02*
D03*
X156Y12652D02*
D03*
X-12Y12315D02*
D03*
Y10293D02*
D03*
Y857D02*
D03*
X-181Y12652D02*
D03*
X-349Y12315D02*
D03*
Y857D02*
D03*
X-518Y12652D02*
D03*
X-686Y12315D02*
D03*
Y2205D02*
D03*
Y857D02*
D03*
X-855Y12652D02*
D03*
X-1023Y12315D02*
D03*
Y2205D02*
D03*
Y857D02*
D03*
X-1192Y12652D02*
D03*
X-1360Y12315D02*
D03*
Y2205D02*
D03*
X-1529Y12652D02*
D03*
X-1697Y12315D02*
D03*
Y2205D02*
D03*
X-1866Y12652D02*
D03*
X-2034Y12315D02*
D03*
X-1866Y9956D02*
D03*
X-2034Y2205D02*
D03*
X-2203Y12652D02*
D03*
X-2371Y12315D02*
D03*
X-2203Y3216D02*
D03*
X-2371Y2879D02*
D03*
X-2203Y2542D02*
D03*
X-2371Y2205D02*
D03*
Y857D02*
D03*
X-2540Y12652D02*
D03*
X-2708Y12315D02*
D03*
X-2540Y11978D02*
D03*
X-2708Y11641D02*
D03*
Y3553D02*
D03*
X-2540Y3216D02*
D03*
X-2708Y2879D02*
D03*
X-2540Y2542D02*
D03*
X-2877Y12652D02*
D03*
X-3045Y12315D02*
D03*
X-2877Y11978D02*
D03*
X-3045Y11641D02*
D03*
X-2877Y3890D02*
D03*
X-3045Y3553D02*
D03*
X-2877Y3216D02*
D03*
X-3045Y2879D02*
D03*
X-2877Y2542D02*
D03*
X-3382Y5575D02*
D03*
Y4901D02*
D03*
Y4227D02*
D03*
X-3214Y3890D02*
D03*
X-3382Y3553D02*
D03*
X-3214Y3216D02*
D03*
X-3382Y2879D02*
D03*
X-3719Y7597D02*
D03*
Y5575D02*
D03*
X-3551Y5238D02*
D03*
X-3719Y4901D02*
D03*
X-3551Y4564D02*
D03*
X-3719Y4227D02*
D03*
X-3551Y3890D02*
D03*
X-3719Y3553D02*
D03*
X-3551Y3216D02*
D03*
X-3719Y2879D02*
D03*
X-4056Y10293D02*
D03*
Y9619D02*
D03*
Y8945D02*
D03*
Y8271D02*
D03*
Y7597D02*
D03*
Y5575D02*
D03*
X-3888Y5238D02*
D03*
X-4056Y4901D02*
D03*
X-3888Y4564D02*
D03*
X-4056Y4227D02*
D03*
X-3888Y3890D02*
D03*
X-4056Y3553D02*
D03*
X-3888Y3216D02*
D03*
X-4056Y2879D02*
D03*
X-4393Y10293D02*
D03*
X-4225Y9956D02*
D03*
X-4393Y9619D02*
D03*
X-4225Y9282D02*
D03*
X-4393Y8945D02*
D03*
X-4225Y8608D02*
D03*
X-4393Y8271D02*
D03*
X-4225Y7934D02*
D03*
X-4393Y7597D02*
D03*
X-4225Y7260D02*
D03*
Y6586D02*
D03*
X-4393Y6249D02*
D03*
X-4225Y5912D02*
D03*
X-4393Y5575D02*
D03*
X-4225Y5238D02*
D03*
X-4393Y4901D02*
D03*
X-4225Y4564D02*
D03*
X-4393Y4227D02*
D03*
X-4225Y3890D02*
D03*
X-4393Y3553D02*
D03*
X-4225Y3216D02*
D03*
X-4393Y2879D02*
D03*
X-4562Y9956D02*
D03*
Y9282D02*
D03*
Y8608D02*
D03*
Y7934D02*
D03*
Y7260D02*
D03*
Y6586D02*
D03*
Y5912D02*
D03*
Y5238D02*
D03*
Y4564D02*
D03*
Y3890D02*
D03*
Y3216D02*
D03*
Y2542D02*
D03*
X1166Y4936D02*
D03*
X583Y2649D02*
D03*
X923Y2661D02*
D03*
X2054Y3521D02*
D03*
X2394D02*
D03*
X2697Y3674D02*
D03*
X2937Y3915D02*
D03*
X3123Y4200D02*
D03*
X3125Y4540D02*
D03*
X3240Y4860D02*
D03*
X3125Y5180D02*
D03*
X-2760Y5845D02*
D03*
X-2947Y5561D02*
D03*
X-2949Y5221D02*
D03*
Y4881D02*
D03*
X-2943Y4541D02*
D03*
X-2744Y4265D02*
D03*
X-2504Y4025D02*
D03*
X-2263Y3784D02*
D03*
X-2011Y3556D02*
D03*
X-1280Y2787D02*
D03*
X-969Y2649D02*
D03*
X-630Y2670D02*
D03*
X-633Y4671D02*
D03*
X2154Y4240D02*
D03*
X2439Y4425D02*
D03*
X-954Y5223D02*
D03*
X197Y1500D02*
D03*
X295Y3380D02*
D03*
X-1006D02*
D03*
X-210D02*
D03*
X-492D02*
D03*
X1700Y6187D02*
D03*
X-766Y3380D02*
D03*
X978Y4590D02*
D03*
X711Y5419D02*
D03*
X738Y4590D02*
D03*
X471Y5419D02*
D03*
X809Y3380D02*
D03*
X569D02*
D03*
X2897Y4840D02*
D03*
X2657D02*
D03*
X2180Y5258D02*
D03*
Y5019D02*
D03*
X-2180Y5329D02*
D03*
Y5089D02*
D03*
X-400Y5250D02*
D03*
Y5490D02*
D03*
X3400Y7311D02*
D03*
X2461D02*
D03*
X2264Y6720D02*
D03*
X-2461D02*
D03*
Y7311D02*
D03*
X-4160Y6917D02*
D03*
X-2180Y6923D02*
D03*
X2461D02*
D03*
X-2451Y6187D02*
D03*
X-1870Y11525D02*
D03*
X1870D02*
D03*
X2854Y7508D02*
D03*
X0Y11525D02*
D03*
X-2756Y7508D02*
D03*
M02*
