G04*
G04 #@! TF.GenerationSoftware,Altium Limited,Altium Designer,25.8.1 (18)*
G04*
G04 Layer_Color=8388736*
%FSLAX24Y24*%
%MOIN*%
G70*
G04*
G04 #@! TF.SameCoordinates,11A0BD64-0B8A-420F-B800-B284AFDE532D*
G04*
G04*
G04 #@! TF.FilePolarity,Negative*
G04*
G01*
G75*
%ADD21R,0.0157X0.0315*%
%ADD22R,0.0394X0.0316*%
%ADD23R,0.0138X0.0394*%
%ADD24R,0.0316X0.0394*%
%ADD25R,0.2442X0.2442*%
%ADD26R,0.0394X0.0138*%
%ADD27R,0.0138X0.0492*%
%ADD28R,0.0886X0.1319*%
%ADD29O,0.0374X0.0610*%
%ADD30C,0.0266*%
%ADD31O,0.0472X0.0344*%
%ADD32C,0.1457*%
D21*
X-1181Y3059D02*
D03*
X-984D02*
D03*
X-787D02*
D03*
X-591D02*
D03*
X-394D02*
D03*
X-197D02*
D03*
X0D02*
D03*
X197D02*
D03*
X394D02*
D03*
X591D02*
D03*
X787D02*
D03*
X1083Y3728D02*
D03*
X886D02*
D03*
X689D02*
D03*
X492D02*
D03*
X295D02*
D03*
X98D02*
D03*
X-98D02*
D03*
X-295D02*
D03*
X-492D02*
D03*
X-689D02*
D03*
X-886D02*
D03*
X984Y3059D02*
D03*
X-1083Y3728D02*
D03*
D22*
X-1494Y4650D02*
D03*
X256D02*
D03*
X1494D02*
D03*
X2006D02*
D03*
X-2006D02*
D03*
X-256D02*
D03*
D23*
X-492Y6406D02*
D03*
X-98D02*
D03*
X98D02*
D03*
X-886D02*
D03*
X886D02*
D03*
X-1083D02*
D03*
X-1280D02*
D03*
X689D02*
D03*
X492D02*
D03*
X295D02*
D03*
X-689D02*
D03*
X-295D02*
D03*
X98Y9594D02*
D03*
X1083D02*
D03*
X689D02*
D03*
X1280D02*
D03*
X-98D02*
D03*
X-1280D02*
D03*
X-492D02*
D03*
X-295D02*
D03*
X492D02*
D03*
X-886D02*
D03*
X-1083D02*
D03*
X-689D02*
D03*
X295D02*
D03*
X886D02*
D03*
X1083Y6406D02*
D03*
X1280D02*
D03*
D24*
X-3340Y6250D02*
D03*
X3400Y6756D02*
D03*
X-3340Y6762D02*
D03*
X3400Y6244D02*
D03*
D25*
X0Y8000D02*
D03*
D26*
X1594Y7311D02*
D03*
Y6720D02*
D03*
X-1594Y7114D02*
D03*
Y7311D02*
D03*
X1594Y7114D02*
D03*
Y6917D02*
D03*
X-1594Y6720D02*
D03*
Y6917D02*
D03*
Y7508D02*
D03*
X1594Y8689D02*
D03*
Y7705D02*
D03*
Y8295D02*
D03*
Y7902D02*
D03*
Y8098D02*
D03*
Y9280D02*
D03*
Y8492D02*
D03*
Y8886D02*
D03*
Y9083D02*
D03*
X-1594Y9280D02*
D03*
Y8295D02*
D03*
Y7902D02*
D03*
Y8689D02*
D03*
Y9083D02*
D03*
Y7705D02*
D03*
Y8886D02*
D03*
Y8098D02*
D03*
Y8492D02*
D03*
X1594Y7508D02*
D03*
D27*
X98Y10769D02*
D03*
X1870D02*
D03*
X-1870D02*
D03*
X-98D02*
D03*
X-3445D02*
D03*
X-3248D02*
D03*
X-3051D02*
D03*
X-2854D02*
D03*
X-2657D02*
D03*
X-2461D02*
D03*
X-2264D02*
D03*
X-2067D02*
D03*
X-1673D02*
D03*
X-1476D02*
D03*
X-1280D02*
D03*
X-1083D02*
D03*
X-886D02*
D03*
X-689D02*
D03*
X-492D02*
D03*
X-295D02*
D03*
X295D02*
D03*
X492D02*
D03*
X689D02*
D03*
X886D02*
D03*
X1083D02*
D03*
X1280D02*
D03*
X1476D02*
D03*
X1673D02*
D03*
X2067D02*
D03*
X2264D02*
D03*
X2461D02*
D03*
X2657D02*
D03*
X2854D02*
D03*
X3051D02*
D03*
X3248D02*
D03*
X3445D02*
D03*
D28*
X-4075Y11624D02*
D03*
X4075D02*
D03*
D29*
X1768Y634D02*
D03*
X1626Y2976D02*
D03*
X-1768Y634D02*
D03*
X-1626Y2976D02*
D03*
D30*
X-1417Y3469D02*
D03*
D31*
X1417Y3469D02*
D03*
D32*
X3750Y1500D02*
D03*
X-3750D02*
D03*
M02*
