G04*
G04 #@! TF.GenerationSoftware,Altium Limited,Altium Designer,25.8.1 (18)*
G04*
G04 Layer_Color=32896*
%FSLAX24Y24*%
%MOIN*%
G70*
G04*
G04 #@! TF.SameCoordinates,FB535185-60C9-4DA5-A862-71F2FEF65C4D*
G04*
G04*
G04 #@! TF.FilePolarity,Positive*
G04*
G01*
G75*
%ADD12C,0.0080*%
%ADD57C,0.0079*%
%ADD59C,0.0157*%
%ADD78R,0.2653X0.1260*%
%ADD79R,0.7700X0.4396*%
D12*
X73807Y10830D02*
X73940D01*
X73873D01*
Y10497D01*
X73940Y10430D01*
X74007D01*
X74073Y10497D01*
X73407Y10430D02*
X73673D01*
X73407Y10697D01*
Y10763D01*
X73473Y10830D01*
X73607D01*
X73673Y10763D01*
X73807Y27830D02*
X73940D01*
X73873D01*
Y27497D01*
X73940Y27430D01*
X74007D01*
X74073Y27497D01*
X73407Y27430D02*
X73673D01*
X73407Y27697D01*
Y27763D01*
X73473Y27830D01*
X73607D01*
X73673Y27763D01*
X73807Y44930D02*
X73940D01*
X73873D01*
Y44597D01*
X73940Y44530D01*
X74007D01*
X74073Y44597D01*
X73407Y44530D02*
X73673D01*
X73407Y44797D01*
Y44863D01*
X73473Y44930D01*
X73607D01*
X73673Y44863D01*
X73807Y61930D02*
X73940D01*
X73873D01*
Y61597D01*
X73940Y61530D01*
X74007D01*
X74073Y61597D01*
X73407Y61530D02*
X73673D01*
X73407Y61797D01*
Y61863D01*
X73473Y61930D01*
X73607D01*
X73673Y61863D01*
D57*
X74336Y8535D02*
X83784D01*
X74336Y10996D02*
X83784D01*
X74336Y8535D02*
Y10996D01*
X83784Y8535D02*
Y10996D01*
X83514Y12101D02*
X83580Y12167D01*
X83711D01*
X83777Y12101D01*
Y12035D01*
X83711Y11970D01*
X83580D01*
X83514Y11904D01*
Y11839D01*
X83580Y11773D01*
X83711D01*
X83777Y11839D01*
X83383Y12167D02*
Y11773D01*
X83186D01*
X83121Y11839D01*
Y11904D01*
X83186Y11970D01*
X83383D01*
X83186D01*
X83121Y12035D01*
Y12101D01*
X83186Y12167D01*
X83383D01*
X82990Y11773D02*
X82858D01*
X82924D01*
Y12035D01*
X82990D01*
X82596Y11773D02*
X82465D01*
X82399Y11839D01*
Y11970D01*
X82465Y12035D01*
X82596D01*
X82662Y11970D01*
Y11839D01*
X82596Y11773D01*
X82268D02*
Y12167D01*
X82137Y12035D01*
X82006Y12167D01*
Y11773D01*
X81874Y12167D02*
Y11773D01*
X81612D01*
X79744Y12136D02*
X79810Y12201D01*
X79941D01*
X80007Y12136D01*
Y12070D01*
X79941Y12005D01*
X79810D01*
X79744Y11939D01*
Y11873D01*
X79810Y11808D01*
X79941D01*
X80007Y11873D01*
X79416Y11808D02*
X79548D01*
X79613Y11873D01*
Y12005D01*
X79548Y12070D01*
X79416D01*
X79351Y12005D01*
Y11939D01*
X79613D01*
X79220Y12070D02*
Y11808D01*
Y11939D01*
X79154Y12005D01*
X79088Y12070D01*
X79023D01*
X78826Y11808D02*
X78695D01*
X78760D01*
Y12070D01*
X78826D01*
X78432D02*
X78301D01*
X78236Y12005D01*
Y11808D01*
X78432D01*
X78498Y11873D01*
X78432Y11939D01*
X78236D01*
X78104Y11808D02*
X77973D01*
X78039D01*
Y12201D01*
X78104D01*
X77317Y11808D02*
Y12201D01*
X77186D02*
Y11808D01*
X77383Y12070D02*
X77186D01*
X77120D01*
X77383Y11939D02*
X77120D01*
X74336Y25535D02*
X83784D01*
X74336Y27996D02*
X83784D01*
X74336Y25535D02*
Y27996D01*
X83784Y25535D02*
Y27996D01*
X83514Y29101D02*
X83580Y29167D01*
X83711D01*
X83777Y29101D01*
Y29035D01*
X83711Y28970D01*
X83580D01*
X83514Y28904D01*
Y28839D01*
X83580Y28773D01*
X83711D01*
X83777Y28839D01*
X83383Y29167D02*
Y28773D01*
X83186D01*
X83121Y28839D01*
Y28904D01*
X83186Y28970D01*
X83383D01*
X83186D01*
X83121Y29035D01*
Y29101D01*
X83186Y29167D01*
X83383D01*
X82990Y28773D02*
X82858D01*
X82924D01*
Y29035D01*
X82990D01*
X82596Y28773D02*
X82465D01*
X82399Y28839D01*
Y28970D01*
X82465Y29035D01*
X82596D01*
X82662Y28970D01*
Y28839D01*
X82596Y28773D01*
X82268D02*
Y29167D01*
X82137Y29035D01*
X82006Y29167D01*
Y28773D01*
X81874Y29167D02*
Y28773D01*
X81612D01*
X79744Y29136D02*
X79810Y29201D01*
X79941D01*
X80007Y29136D01*
Y29070D01*
X79941Y29005D01*
X79810D01*
X79744Y28939D01*
Y28873D01*
X79810Y28808D01*
X79941D01*
X80007Y28873D01*
X79416Y28808D02*
X79548D01*
X79613Y28873D01*
Y29005D01*
X79548Y29070D01*
X79416D01*
X79351Y29005D01*
Y28939D01*
X79613D01*
X79220Y29070D02*
Y28808D01*
Y28939D01*
X79154Y29005D01*
X79088Y29070D01*
X79023D01*
X78826Y28808D02*
X78695D01*
X78760D01*
Y29070D01*
X78826D01*
X78432D02*
X78301D01*
X78236Y29005D01*
Y28808D01*
X78432D01*
X78498Y28873D01*
X78432Y28939D01*
X78236D01*
X78104Y28808D02*
X77973D01*
X78039D01*
Y29201D01*
X78104D01*
X77317Y28808D02*
Y29201D01*
X77186D02*
Y28808D01*
X77383Y29070D02*
X77186D01*
X77120D01*
X77383Y28939D02*
X77120D01*
X74336Y42635D02*
X83784D01*
X74336Y45096D02*
X83784D01*
X74336Y42635D02*
Y45096D01*
X83784Y42635D02*
Y45096D01*
X83514Y46201D02*
X83580Y46267D01*
X83711D01*
X83777Y46201D01*
Y46135D01*
X83711Y46070D01*
X83580D01*
X83514Y46004D01*
Y45939D01*
X83580Y45873D01*
X83711D01*
X83777Y45939D01*
X83383Y46267D02*
Y45873D01*
X83186D01*
X83121Y45939D01*
Y46004D01*
X83186Y46070D01*
X83383D01*
X83186D01*
X83121Y46135D01*
Y46201D01*
X83186Y46267D01*
X83383D01*
X82990Y45873D02*
X82858D01*
X82924D01*
Y46135D01*
X82990D01*
X82596Y45873D02*
X82465D01*
X82399Y45939D01*
Y46070D01*
X82465Y46135D01*
X82596D01*
X82662Y46070D01*
Y45939D01*
X82596Y45873D01*
X82268D02*
Y46267D01*
X82137Y46135D01*
X82006Y46267D01*
Y45873D01*
X81874Y46267D02*
Y45873D01*
X81612D01*
X79744Y46236D02*
X79810Y46301D01*
X79941D01*
X80007Y46236D01*
Y46170D01*
X79941Y46105D01*
X79810D01*
X79744Y46039D01*
Y45973D01*
X79810Y45908D01*
X79941D01*
X80007Y45973D01*
X79416Y45908D02*
X79548D01*
X79613Y45973D01*
Y46105D01*
X79548Y46170D01*
X79416D01*
X79351Y46105D01*
Y46039D01*
X79613D01*
X79220Y46170D02*
Y45908D01*
Y46039D01*
X79154Y46105D01*
X79088Y46170D01*
X79023D01*
X78826Y45908D02*
X78695D01*
X78760D01*
Y46170D01*
X78826D01*
X78432D02*
X78301D01*
X78236Y46105D01*
Y45908D01*
X78432D01*
X78498Y45973D01*
X78432Y46039D01*
X78236D01*
X78104Y45908D02*
X77973D01*
X78039D01*
Y46301D01*
X78104D01*
X77317Y45908D02*
Y46301D01*
X77186D02*
Y45908D01*
X77383Y46170D02*
X77186D01*
X77120D01*
X77383Y46039D02*
X77120D01*
X74336Y59635D02*
X83784D01*
X74336Y62096D02*
X83784D01*
X74336Y59635D02*
Y62096D01*
X83784Y59635D02*
Y62096D01*
X83514Y63201D02*
X83580Y63267D01*
X83711D01*
X83777Y63201D01*
Y63135D01*
X83711Y63070D01*
X83580D01*
X83514Y63004D01*
Y62939D01*
X83580Y62873D01*
X83711D01*
X83777Y62939D01*
X83383Y63267D02*
Y62873D01*
X83186D01*
X83121Y62939D01*
Y63004D01*
X83186Y63070D01*
X83383D01*
X83186D01*
X83121Y63135D01*
Y63201D01*
X83186Y63267D01*
X83383D01*
X82990Y62873D02*
X82858D01*
X82924D01*
Y63135D01*
X82990D01*
X82596Y62873D02*
X82465D01*
X82399Y62939D01*
Y63070D01*
X82465Y63135D01*
X82596D01*
X82662Y63070D01*
Y62939D01*
X82596Y62873D01*
X82268D02*
Y63267D01*
X82137Y63135D01*
X82006Y63267D01*
Y62873D01*
X81874Y63267D02*
Y62873D01*
X81612D01*
X79744Y63236D02*
X79810Y63301D01*
X79941D01*
X80007Y63236D01*
Y63170D01*
X79941Y63105D01*
X79810D01*
X79744Y63039D01*
Y62973D01*
X79810Y62908D01*
X79941D01*
X80007Y62973D01*
X79416Y62908D02*
X79548D01*
X79613Y62973D01*
Y63105D01*
X79548Y63170D01*
X79416D01*
X79351Y63105D01*
Y63039D01*
X79613D01*
X79220Y63170D02*
Y62908D01*
Y63039D01*
X79154Y63105D01*
X79088Y63170D01*
X79023D01*
X78826Y62908D02*
X78695D01*
X78760D01*
Y63170D01*
X78826D01*
X78432D02*
X78301D01*
X78236Y63105D01*
Y62908D01*
X78432D01*
X78498Y62973D01*
X78432Y63039D01*
X78236D01*
X78104Y62908D02*
X77973D01*
X78039D01*
Y63301D01*
X78104D01*
X77317Y62908D02*
Y63301D01*
X77186D02*
Y62908D01*
X77383Y63170D02*
X77186D01*
X77120D01*
X77383Y63039D02*
X77120D01*
D59*
X61418Y70163D02*
X61549Y70295D01*
X61811D01*
X61943Y70163D01*
Y70032D01*
X61811Y69901D01*
X61549D01*
X61418Y69770D01*
Y69639D01*
X61549Y69507D01*
X61811D01*
X61943Y69639D01*
X61155Y70295D02*
Y69507D01*
X60762D01*
X60631Y69639D01*
Y69770D01*
X60762Y69901D01*
X61155D01*
X60762D01*
X60631Y70032D01*
Y70163D01*
X60762Y70295D01*
X61155D01*
X60368Y69507D02*
X60106D01*
X60237D01*
Y70032D01*
X60368D01*
X59581Y69507D02*
X59319D01*
X59187Y69639D01*
Y69901D01*
X59319Y70032D01*
X59581D01*
X59712Y69901D01*
Y69639D01*
X59581Y69507D01*
X58925D02*
Y70295D01*
X58663Y70032D01*
X58400Y70295D01*
Y69507D01*
X58138Y70295D02*
Y69507D01*
X57613D01*
X61356Y71675D02*
X61881D01*
Y71281D01*
X61619D01*
X61881D01*
Y70888D01*
X61094D02*
Y71675D01*
X60700D01*
X60569Y71544D01*
Y71281D01*
X60700Y71150D01*
X61094D01*
X59782Y71544D02*
X59913Y71675D01*
X60176D01*
X60307Y71544D01*
Y71019D01*
X60176Y70888D01*
X59913D01*
X59782Y71019D01*
Y71281D01*
X60044D01*
X59520Y70888D02*
Y71412D01*
X59257Y71675D01*
X58995Y71412D01*
Y70888D01*
Y71281D01*
X59520D01*
X57945Y71675D02*
Y70888D01*
X57552D01*
X57421Y71019D01*
Y71544D01*
X57552Y71675D01*
X57945D01*
X57027Y71412D02*
X56765D01*
X56633Y71281D01*
Y70888D01*
X57027D01*
X57158Y71019D01*
X57027Y71150D01*
X56633D01*
X56371Y71412D02*
Y71019D01*
X56240Y70888D01*
X55846D01*
Y71412D01*
X55322Y70625D02*
X55190D01*
X55059Y70756D01*
Y71412D01*
X55453D01*
X55584Y71281D01*
Y71019D01*
X55453Y70888D01*
X55059D01*
X54797Y71675D02*
Y70888D01*
Y71281D01*
X54666Y71412D01*
X54403D01*
X54272Y71281D01*
Y70888D01*
X53878Y71544D02*
Y71412D01*
X54010D01*
X53747D01*
X53878D01*
Y71019D01*
X53747Y70888D01*
X52960D02*
X53222D01*
X53354Y71019D01*
Y71281D01*
X53222Y71412D01*
X52960D01*
X52829Y71281D01*
Y71150D01*
X53354D01*
X52567Y71412D02*
Y70888D01*
Y71150D01*
X52435Y71281D01*
X52304Y71412D01*
X52173D01*
X50992Y71675D02*
Y70888D01*
X50599D01*
X50467Y71019D01*
Y71150D01*
X50599Y71281D01*
X50992D01*
X50599D01*
X50467Y71412D01*
Y71544D01*
X50599Y71675D01*
X50992D01*
X50074Y70888D02*
X49812D01*
X49680Y71019D01*
Y71281D01*
X49812Y71412D01*
X50074D01*
X50205Y71281D01*
Y71019D01*
X50074Y70888D01*
X49287Y71412D02*
X49024D01*
X48893Y71281D01*
Y70888D01*
X49287D01*
X49418Y71019D01*
X49287Y71150D01*
X48893D01*
X48631Y71412D02*
Y70888D01*
Y71150D01*
X48500Y71281D01*
X48368Y71412D01*
X48237D01*
X47319Y71675D02*
Y70888D01*
X47712D01*
X47844Y71019D01*
Y71281D01*
X47712Y71412D01*
X47319D01*
X61843Y68795D02*
Y68139D01*
X61711Y68007D01*
X61449D01*
X61318Y68139D01*
Y68795D01*
X61055D02*
Y68007D01*
Y68401D01*
X60531D01*
Y68795D01*
Y68007D01*
X60268Y68795D02*
Y68007D01*
X59875D01*
X59743Y68139D01*
Y68663D01*
X59875Y68795D01*
X60268D01*
X58956D02*
X59481D01*
Y68007D01*
X58956D01*
X59481Y68401D02*
X59219D01*
X58694Y68007D02*
Y68795D01*
X58432Y68532D01*
X58169Y68795D01*
Y68007D01*
X57382Y68663D02*
X57513Y68795D01*
X57776D01*
X57907Y68663D01*
Y68139D01*
X57776Y68007D01*
X57513D01*
X57382Y68139D01*
Y68401D01*
X57644D01*
X42468Y71575D02*
X42599Y71706D01*
X42861D01*
X42993Y71575D01*
Y71444D01*
X42861Y71312D01*
X42599D01*
X42468Y71181D01*
Y71050D01*
X42599Y70919D01*
X42861D01*
X42993Y71050D01*
X41812Y70919D02*
X42074D01*
X42205Y71050D01*
Y71312D01*
X42074Y71444D01*
X41812D01*
X41681Y71312D01*
Y71181D01*
X42205D01*
X41418Y71444D02*
Y70919D01*
Y71181D01*
X41287Y71312D01*
X41156Y71444D01*
X41025D01*
X40631Y70919D02*
X40369D01*
X40500D01*
Y71444D01*
X40631D01*
X39844D02*
X39582D01*
X39450Y71312D01*
Y70919D01*
X39844D01*
X39975Y71050D01*
X39844Y71181D01*
X39450D01*
X39188Y70919D02*
X38926D01*
X39057D01*
Y71706D01*
X39188D01*
X37614Y70919D02*
Y71706D01*
X37351D02*
Y70919D01*
X37745Y71444D02*
X37351D01*
X37220D01*
X37745Y71181D02*
X37220D01*
D78*
X75632Y11987D02*
D03*
Y28987D02*
D03*
Y46087D02*
D03*
Y63087D02*
D03*
D79*
X39400Y68202D02*
D03*
M02*
