G04*
G04 #@! TF.GenerationSoftware,Altium Limited,Altium Designer,25.8.1 (18)*
G04*
G04 Layer_Color=32768*
%FSLAX24Y24*%
%MOIN*%
G70*
G04*
G04 #@! TF.SameCoordinates,5FCEB518-3EE5-4CCA-B45C-A2208EEB9964*
G04*
G04*
G04 #@! TF.FilePolarity,Positive*
G04*
G01*
G75*
%ADD18C,0.0079*%
D18*
X11575Y43425D02*
G03*
X11654Y43504I0J79D01*
G01*
X4370D02*
G03*
X4449Y43425I79J0D01*
G01*
X11654Y45787D02*
X4370D01*
X11654D02*
Y43504D01*
X11575Y43425D02*
X4449D01*
X4370Y45787D02*
Y43504D01*
X43465Y43425D02*
G03*
X43543Y43504I0J79D01*
G01*
X36260D02*
G03*
X36339Y43425I79J0D01*
G01*
X43543Y45787D02*
X36260D01*
X43543D02*
Y43504D01*
X43465Y43425D02*
X36339D01*
X36260Y45787D02*
Y43504D01*
X32835Y43425D02*
G03*
X32913Y43504I0J79D01*
G01*
X25630D02*
G03*
X25709Y43425I79J0D01*
G01*
X32913Y45787D02*
X25630D01*
X32913D02*
Y43504D01*
X32835Y43425D02*
X25709D01*
X25630Y45787D02*
Y43504D01*
X22205Y43425D02*
G03*
X22283Y43504I0J79D01*
G01*
X15000D02*
G03*
X15079Y43425I79J0D01*
G01*
X22283Y45787D02*
X15000D01*
X22283D02*
Y43504D01*
X22205Y43425D02*
X15079D01*
X15000Y45787D02*
Y43504D01*
M02*
