G04*
G04 #@! TF.GenerationSoftware,Altium Limited,Altium Designer,25.8.1 (18)*
G04*
G04 Layer_Color=8388736*
%FSLAX24Y24*%
%MOIN*%
G70*
G04*
G04 #@! TF.SameCoordinates,5FCEB518-3EE5-4CCA-B45C-A2208EEB9964*
G04*
G04*
G04 #@! TF.FilePolarity,Positive*
G04*
G01*
G75*
%ADD18C,0.0079*%
D18*
X15079Y40984D02*
G03*
X15000Y40906I0J-79D01*
G01*
X22283D02*
G03*
X22205Y40984I-79J0D01*
G01*
X15000Y38622D02*
X22283D01*
X15000D02*
Y40906D01*
X15079Y40984D02*
X22205D01*
X22283Y38622D02*
Y40906D01*
X25709Y40984D02*
G03*
X25630Y40906I0J-79D01*
G01*
X32913D02*
G03*
X32835Y40984I-79J0D01*
G01*
X25630Y38622D02*
X32913D01*
X25630D02*
Y40906D01*
X25709Y40984D02*
X32835D01*
X32913Y38622D02*
Y40906D01*
X36339Y40984D02*
G03*
X36260Y40906I0J-79D01*
G01*
X43543D02*
G03*
X43465Y40984I-79J0D01*
G01*
X36260Y38622D02*
X43543D01*
X36260D02*
Y40906D01*
X36339Y40984D02*
X43465D01*
X43543Y38622D02*
Y40906D01*
X4449Y40984D02*
G03*
X4370Y40906I0J-79D01*
G01*
X11654D02*
G03*
X11575Y40984I-79J0D01*
G01*
X4370Y38622D02*
X11654D01*
X4370D02*
Y40906D01*
X4449Y40984D02*
X11575D01*
X11654Y38622D02*
Y40906D01*
M02*
