G04*
G04 #@! TF.GenerationSoftware,Altium Limited,Altium Designer,25.8.1 (18)*
G04*
G04 Layer_Color=65535*
%FSLAX24Y24*%
%MOIN*%
G70*
G04*
G04 #@! TF.SameCoordinates,BE914EC3-FA8D-4840-B4FE-782DDA987089*
G04*
G04*
G04 #@! TF.FilePolarity,Positive*
G04*
G01*
G75*
%ADD22C,0.0080*%
%ADD23C,0.0100*%
%ADD57C,0.0079*%
%ADD58C,0.0098*%
%ADD59C,0.0157*%
%ADD60C,0.0050*%
%ADD61C,0.0063*%
%ADD62R,0.0900X0.1800*%
D22*
X83490Y21563D02*
X83557Y21630D01*
X83690D01*
X83757Y21563D01*
Y21297D01*
X83690Y21230D01*
X83557D01*
X83490Y21297D01*
Y21563D01*
X83890D02*
X83957Y21630D01*
X84090D01*
X84156Y21563D01*
Y21497D01*
X84090Y21430D01*
X84156Y21363D01*
Y21297D01*
X84090Y21230D01*
X83957D01*
X83890Y21297D01*
Y21363D01*
X83957Y21430D01*
X83890Y21497D01*
Y21563D01*
X83957Y21430D02*
X84090D01*
X84807Y21630D02*
X84673Y21563D01*
X84540Y21430D01*
Y21297D01*
X84607Y21230D01*
X84740D01*
X84807Y21297D01*
Y21363D01*
X84740Y21430D01*
X84540D01*
X85140Y21230D02*
Y21630D01*
X84940Y21430D01*
X85206D01*
X81257Y21630D02*
X80990D01*
Y21430D01*
X81123Y21497D01*
X81190D01*
X81257Y21430D01*
Y21297D01*
X81190Y21230D01*
X81057D01*
X80990Y21297D01*
X81656Y21630D02*
X81523Y21563D01*
X81390Y21430D01*
Y21297D01*
X81457Y21230D01*
X81590D01*
X81656Y21297D01*
Y21363D01*
X81590Y21430D01*
X81390D01*
X79990Y21230D02*
X80123D01*
X80057D01*
Y21630D01*
X79990Y21563D01*
X80590Y21630D02*
X80457Y21563D01*
X80323Y21430D01*
Y21297D01*
X80390Y21230D01*
X80523D01*
X80590Y21297D01*
Y21363D01*
X80523Y21430D01*
X80323D01*
X77790Y21230D02*
Y21630D01*
X77590Y21430D01*
X77857D01*
X77990Y21563D02*
X78057Y21630D01*
X78190D01*
X78256Y21563D01*
Y21497D01*
X78190Y21430D01*
X78256Y21363D01*
Y21297D01*
X78190Y21230D01*
X78057D01*
X77990Y21297D01*
Y21363D01*
X78057Y21430D01*
X77990Y21497D01*
Y21563D01*
X78057Y21430D02*
X78190D01*
X76757Y21230D02*
X76490D01*
X76757Y21497D01*
Y21563D01*
X76690Y21630D01*
X76557D01*
X76490Y21563D01*
X77090Y21230D02*
Y21630D01*
X76890Y21430D01*
X77156D01*
X74190Y21230D02*
Y21630D01*
X73990Y21430D01*
X74257D01*
X74390Y21563D02*
X74457Y21630D01*
X74590D01*
X74656Y21563D01*
Y21297D01*
X74590Y21230D01*
X74457D01*
X74390Y21297D01*
Y21563D01*
X72990D02*
X73057Y21630D01*
X73190D01*
X73257Y21563D01*
Y21497D01*
X73190Y21430D01*
X73123D01*
X73190D01*
X73257Y21363D01*
Y21297D01*
X73190Y21230D01*
X73057D01*
X72990Y21297D01*
X73656Y21230D02*
X73390D01*
X73656Y21497D01*
Y21563D01*
X73590Y21630D01*
X73457D01*
X73390Y21563D01*
X73257Y12380D02*
X72990D01*
X73257Y12647D01*
Y12713D01*
X73190Y12780D01*
X73057D01*
X72990Y12713D01*
X73656Y12780D02*
X73390D01*
Y12580D01*
X73523Y12647D01*
X73590D01*
X73656Y12580D01*
Y12447D01*
X73590Y12380D01*
X73457D01*
X73390Y12447D01*
X73990Y12713D02*
X74057Y12780D01*
X74190D01*
X74257Y12713D01*
Y12647D01*
X74190Y12580D01*
X74123D01*
X74190D01*
X74257Y12513D01*
Y12447D01*
X74190Y12380D01*
X74057D01*
X73990Y12447D01*
X74390Y12713D02*
X74457Y12780D01*
X74590D01*
X74656Y12713D01*
Y12647D01*
X74590Y12580D01*
X74523D01*
X74590D01*
X74656Y12513D01*
Y12447D01*
X74590Y12380D01*
X74457D01*
X74390Y12447D01*
X76490Y12380D02*
X76623D01*
X76557D01*
Y12780D01*
X76490Y12713D01*
X76823Y12780D02*
X77090D01*
Y12713D01*
X76823Y12447D01*
Y12380D01*
X77790D02*
Y12780D01*
X77590Y12580D01*
X77857D01*
X77990Y12380D02*
X78123D01*
X78057D01*
Y12780D01*
X77990Y12713D01*
X79990D02*
X80057Y12780D01*
X80190D01*
X80257Y12713D01*
Y12447D01*
X80190Y12380D01*
X80057D01*
X79990Y12447D01*
Y12713D01*
X80390Y12447D02*
X80457Y12380D01*
X80590D01*
X80656Y12447D01*
Y12713D01*
X80590Y12780D01*
X80457D01*
X80390Y12713D01*
Y12647D01*
X80457Y12580D01*
X80656D01*
X81190Y12380D02*
Y12780D01*
X80990Y12580D01*
X81257D01*
X81390Y12447D02*
X81457Y12380D01*
X81590D01*
X81656Y12447D01*
Y12713D01*
X81590Y12780D01*
X81457D01*
X81390Y12713D01*
Y12647D01*
X81457Y12580D01*
X81656D01*
X84807Y12780D02*
X84540D01*
Y12580D01*
X84673Y12647D01*
X84740D01*
X84807Y12580D01*
Y12447D01*
X84740Y12380D01*
X84607D01*
X84540Y12447D01*
X84940Y12780D02*
X85206D01*
Y12713D01*
X84940Y12447D01*
Y12380D01*
X83490Y12713D02*
X83557Y12780D01*
X83690D01*
X83757Y12713D01*
Y12447D01*
X83690Y12380D01*
X83557D01*
X83490Y12447D01*
Y12713D01*
X83890Y12380D02*
X84023D01*
X83957D01*
Y12780D01*
X83890Y12713D01*
X83490Y38563D02*
X83557Y38630D01*
X83690D01*
X83757Y38563D01*
Y38297D01*
X83690Y38230D01*
X83557D01*
X83490Y38297D01*
Y38563D01*
X83890D02*
X83957Y38630D01*
X84090D01*
X84156Y38563D01*
Y38497D01*
X84090Y38430D01*
X84156Y38363D01*
Y38297D01*
X84090Y38230D01*
X83957D01*
X83890Y38297D01*
Y38363D01*
X83957Y38430D01*
X83890Y38497D01*
Y38563D01*
X83957Y38430D02*
X84090D01*
X84807Y38630D02*
X84673Y38563D01*
X84540Y38430D01*
Y38297D01*
X84607Y38230D01*
X84740D01*
X84807Y38297D01*
Y38363D01*
X84740Y38430D01*
X84540D01*
X85140Y38230D02*
Y38630D01*
X84940Y38430D01*
X85206D01*
X81257Y38630D02*
X80990D01*
Y38430D01*
X81123Y38497D01*
X81190D01*
X81257Y38430D01*
Y38297D01*
X81190Y38230D01*
X81057D01*
X80990Y38297D01*
X81656Y38630D02*
X81523Y38563D01*
X81390Y38430D01*
Y38297D01*
X81457Y38230D01*
X81590D01*
X81656Y38297D01*
Y38363D01*
X81590Y38430D01*
X81390D01*
X79990Y38230D02*
X80123D01*
X80057D01*
Y38630D01*
X79990Y38563D01*
X80590Y38630D02*
X80457Y38563D01*
X80323Y38430D01*
Y38297D01*
X80390Y38230D01*
X80523D01*
X80590Y38297D01*
Y38363D01*
X80523Y38430D01*
X80323D01*
X77790Y38230D02*
Y38630D01*
X77590Y38430D01*
X77857D01*
X77990Y38563D02*
X78057Y38630D01*
X78190D01*
X78256Y38563D01*
Y38497D01*
X78190Y38430D01*
X78256Y38363D01*
Y38297D01*
X78190Y38230D01*
X78057D01*
X77990Y38297D01*
Y38363D01*
X78057Y38430D01*
X77990Y38497D01*
Y38563D01*
X78057Y38430D02*
X78190D01*
X76757Y38230D02*
X76490D01*
X76757Y38497D01*
Y38563D01*
X76690Y38630D01*
X76557D01*
X76490Y38563D01*
X77090Y38230D02*
Y38630D01*
X76890Y38430D01*
X77156D01*
X74190Y38230D02*
Y38630D01*
X73990Y38430D01*
X74257D01*
X74390Y38563D02*
X74457Y38630D01*
X74590D01*
X74656Y38563D01*
Y38297D01*
X74590Y38230D01*
X74457D01*
X74390Y38297D01*
Y38563D01*
X72990D02*
X73057Y38630D01*
X73190D01*
X73257Y38563D01*
Y38497D01*
X73190Y38430D01*
X73123D01*
X73190D01*
X73257Y38363D01*
Y38297D01*
X73190Y38230D01*
X73057D01*
X72990Y38297D01*
X73656Y38230D02*
X73390D01*
X73656Y38497D01*
Y38563D01*
X73590Y38630D01*
X73457D01*
X73390Y38563D01*
X73257Y29380D02*
X72990D01*
X73257Y29647D01*
Y29713D01*
X73190Y29780D01*
X73057D01*
X72990Y29713D01*
X73656Y29780D02*
X73390D01*
Y29580D01*
X73523Y29647D01*
X73590D01*
X73656Y29580D01*
Y29447D01*
X73590Y29380D01*
X73457D01*
X73390Y29447D01*
X73990Y29713D02*
X74057Y29780D01*
X74190D01*
X74257Y29713D01*
Y29647D01*
X74190Y29580D01*
X74123D01*
X74190D01*
X74257Y29513D01*
Y29447D01*
X74190Y29380D01*
X74057D01*
X73990Y29447D01*
X74390Y29713D02*
X74457Y29780D01*
X74590D01*
X74656Y29713D01*
Y29647D01*
X74590Y29580D01*
X74523D01*
X74590D01*
X74656Y29513D01*
Y29447D01*
X74590Y29380D01*
X74457D01*
X74390Y29447D01*
X76490Y29380D02*
X76623D01*
X76557D01*
Y29780D01*
X76490Y29713D01*
X76823Y29780D02*
X77090D01*
Y29713D01*
X76823Y29447D01*
Y29380D01*
X77790D02*
Y29780D01*
X77590Y29580D01*
X77857D01*
X77990Y29380D02*
X78123D01*
X78057D01*
Y29780D01*
X77990Y29713D01*
X79990D02*
X80057Y29780D01*
X80190D01*
X80257Y29713D01*
Y29447D01*
X80190Y29380D01*
X80057D01*
X79990Y29447D01*
Y29713D01*
X80390Y29447D02*
X80457Y29380D01*
X80590D01*
X80656Y29447D01*
Y29713D01*
X80590Y29780D01*
X80457D01*
X80390Y29713D01*
Y29647D01*
X80457Y29580D01*
X80656D01*
X81190Y29380D02*
Y29780D01*
X80990Y29580D01*
X81257D01*
X81390Y29447D02*
X81457Y29380D01*
X81590D01*
X81656Y29447D01*
Y29713D01*
X81590Y29780D01*
X81457D01*
X81390Y29713D01*
Y29647D01*
X81457Y29580D01*
X81656D01*
X84807Y29780D02*
X84540D01*
Y29580D01*
X84673Y29647D01*
X84740D01*
X84807Y29580D01*
Y29447D01*
X84740Y29380D01*
X84607D01*
X84540Y29447D01*
X84940Y29780D02*
X85206D01*
Y29713D01*
X84940Y29447D01*
Y29380D01*
X83490Y29713D02*
X83557Y29780D01*
X83690D01*
X83757Y29713D01*
Y29447D01*
X83690Y29380D01*
X83557D01*
X83490Y29447D01*
Y29713D01*
X83890Y29380D02*
X84023D01*
X83957D01*
Y29780D01*
X83890Y29713D01*
X83490Y55663D02*
X83557Y55730D01*
X83690D01*
X83757Y55663D01*
Y55397D01*
X83690Y55330D01*
X83557D01*
X83490Y55397D01*
Y55663D01*
X83890D02*
X83957Y55730D01*
X84090D01*
X84156Y55663D01*
Y55597D01*
X84090Y55530D01*
X84156Y55463D01*
Y55397D01*
X84090Y55330D01*
X83957D01*
X83890Y55397D01*
Y55463D01*
X83957Y55530D01*
X83890Y55597D01*
Y55663D01*
X83957Y55530D02*
X84090D01*
X84807Y55730D02*
X84673Y55663D01*
X84540Y55530D01*
Y55397D01*
X84607Y55330D01*
X84740D01*
X84807Y55397D01*
Y55463D01*
X84740Y55530D01*
X84540D01*
X85140Y55330D02*
Y55730D01*
X84940Y55530D01*
X85206D01*
X81257Y55730D02*
X80990D01*
Y55530D01*
X81123Y55597D01*
X81190D01*
X81257Y55530D01*
Y55397D01*
X81190Y55330D01*
X81057D01*
X80990Y55397D01*
X81656Y55730D02*
X81523Y55663D01*
X81390Y55530D01*
Y55397D01*
X81457Y55330D01*
X81590D01*
X81656Y55397D01*
Y55463D01*
X81590Y55530D01*
X81390D01*
X79990Y55330D02*
X80123D01*
X80057D01*
Y55730D01*
X79990Y55663D01*
X80590Y55730D02*
X80457Y55663D01*
X80323Y55530D01*
Y55397D01*
X80390Y55330D01*
X80523D01*
X80590Y55397D01*
Y55463D01*
X80523Y55530D01*
X80323D01*
X77790Y55330D02*
Y55730D01*
X77590Y55530D01*
X77857D01*
X77990Y55663D02*
X78057Y55730D01*
X78190D01*
X78256Y55663D01*
Y55597D01*
X78190Y55530D01*
X78256Y55463D01*
Y55397D01*
X78190Y55330D01*
X78057D01*
X77990Y55397D01*
Y55463D01*
X78057Y55530D01*
X77990Y55597D01*
Y55663D01*
X78057Y55530D02*
X78190D01*
X76757Y55330D02*
X76490D01*
X76757Y55597D01*
Y55663D01*
X76690Y55730D01*
X76557D01*
X76490Y55663D01*
X77090Y55330D02*
Y55730D01*
X76890Y55530D01*
X77156D01*
X74190Y55330D02*
Y55730D01*
X73990Y55530D01*
X74257D01*
X74390Y55663D02*
X74457Y55730D01*
X74590D01*
X74656Y55663D01*
Y55397D01*
X74590Y55330D01*
X74457D01*
X74390Y55397D01*
Y55663D01*
X72990D02*
X73057Y55730D01*
X73190D01*
X73257Y55663D01*
Y55597D01*
X73190Y55530D01*
X73123D01*
X73190D01*
X73257Y55463D01*
Y55397D01*
X73190Y55330D01*
X73057D01*
X72990Y55397D01*
X73656Y55330D02*
X73390D01*
X73656Y55597D01*
Y55663D01*
X73590Y55730D01*
X73457D01*
X73390Y55663D01*
X73257Y46480D02*
X72990D01*
X73257Y46747D01*
Y46813D01*
X73190Y46880D01*
X73057D01*
X72990Y46813D01*
X73656Y46880D02*
X73390D01*
Y46680D01*
X73523Y46747D01*
X73590D01*
X73656Y46680D01*
Y46547D01*
X73590Y46480D01*
X73457D01*
X73390Y46547D01*
X73990Y46813D02*
X74057Y46880D01*
X74190D01*
X74257Y46813D01*
Y46747D01*
X74190Y46680D01*
X74123D01*
X74190D01*
X74257Y46613D01*
Y46547D01*
X74190Y46480D01*
X74057D01*
X73990Y46547D01*
X74390Y46813D02*
X74457Y46880D01*
X74590D01*
X74656Y46813D01*
Y46747D01*
X74590Y46680D01*
X74523D01*
X74590D01*
X74656Y46613D01*
Y46547D01*
X74590Y46480D01*
X74457D01*
X74390Y46547D01*
X76490Y46480D02*
X76623D01*
X76557D01*
Y46880D01*
X76490Y46813D01*
X76823Y46880D02*
X77090D01*
Y46813D01*
X76823Y46547D01*
Y46480D01*
X77790D02*
Y46880D01*
X77590Y46680D01*
X77857D01*
X77990Y46480D02*
X78123D01*
X78057D01*
Y46880D01*
X77990Y46813D01*
X79990D02*
X80057Y46880D01*
X80190D01*
X80257Y46813D01*
Y46547D01*
X80190Y46480D01*
X80057D01*
X79990Y46547D01*
Y46813D01*
X80390Y46547D02*
X80457Y46480D01*
X80590D01*
X80656Y46547D01*
Y46813D01*
X80590Y46880D01*
X80457D01*
X80390Y46813D01*
Y46747D01*
X80457Y46680D01*
X80656D01*
X81190Y46480D02*
Y46880D01*
X80990Y46680D01*
X81257D01*
X81390Y46547D02*
X81457Y46480D01*
X81590D01*
X81656Y46547D01*
Y46813D01*
X81590Y46880D01*
X81457D01*
X81390Y46813D01*
Y46747D01*
X81457Y46680D01*
X81656D01*
X84807Y46880D02*
X84540D01*
Y46680D01*
X84673Y46747D01*
X84740D01*
X84807Y46680D01*
Y46547D01*
X84740Y46480D01*
X84607D01*
X84540Y46547D01*
X84940Y46880D02*
X85206D01*
Y46813D01*
X84940Y46547D01*
Y46480D01*
X83490Y46813D02*
X83557Y46880D01*
X83690D01*
X83757Y46813D01*
Y46547D01*
X83690Y46480D01*
X83557D01*
X83490Y46547D01*
Y46813D01*
X83890Y46480D02*
X84023D01*
X83957D01*
Y46880D01*
X83890Y46813D01*
X83490Y72663D02*
X83557Y72730D01*
X83690D01*
X83757Y72663D01*
Y72397D01*
X83690Y72330D01*
X83557D01*
X83490Y72397D01*
Y72663D01*
X83890D02*
X83957Y72730D01*
X84090D01*
X84156Y72663D01*
Y72597D01*
X84090Y72530D01*
X84156Y72463D01*
Y72397D01*
X84090Y72330D01*
X83957D01*
X83890Y72397D01*
Y72463D01*
X83957Y72530D01*
X83890Y72597D01*
Y72663D01*
X83957Y72530D02*
X84090D01*
X84807Y72730D02*
X84673Y72663D01*
X84540Y72530D01*
Y72397D01*
X84607Y72330D01*
X84740D01*
X84807Y72397D01*
Y72463D01*
X84740Y72530D01*
X84540D01*
X85140Y72330D02*
Y72730D01*
X84940Y72530D01*
X85206D01*
X81257Y72730D02*
X80990D01*
Y72530D01*
X81123Y72597D01*
X81190D01*
X81257Y72530D01*
Y72397D01*
X81190Y72330D01*
X81057D01*
X80990Y72397D01*
X81656Y72730D02*
X81523Y72663D01*
X81390Y72530D01*
Y72397D01*
X81457Y72330D01*
X81590D01*
X81656Y72397D01*
Y72463D01*
X81590Y72530D01*
X81390D01*
X79990Y72330D02*
X80123D01*
X80057D01*
Y72730D01*
X79990Y72663D01*
X80590Y72730D02*
X80457Y72663D01*
X80323Y72530D01*
Y72397D01*
X80390Y72330D01*
X80523D01*
X80590Y72397D01*
Y72463D01*
X80523Y72530D01*
X80323D01*
X77790Y72330D02*
Y72730D01*
X77590Y72530D01*
X77857D01*
X77990Y72663D02*
X78057Y72730D01*
X78190D01*
X78256Y72663D01*
Y72597D01*
X78190Y72530D01*
X78256Y72463D01*
Y72397D01*
X78190Y72330D01*
X78057D01*
X77990Y72397D01*
Y72463D01*
X78057Y72530D01*
X77990Y72597D01*
Y72663D01*
X78057Y72530D02*
X78190D01*
X76757Y72330D02*
X76490D01*
X76757Y72597D01*
Y72663D01*
X76690Y72730D01*
X76557D01*
X76490Y72663D01*
X77090Y72330D02*
Y72730D01*
X76890Y72530D01*
X77156D01*
X74190Y72330D02*
Y72730D01*
X73990Y72530D01*
X74257D01*
X74390Y72663D02*
X74457Y72730D01*
X74590D01*
X74656Y72663D01*
Y72397D01*
X74590Y72330D01*
X74457D01*
X74390Y72397D01*
Y72663D01*
X72990D02*
X73057Y72730D01*
X73190D01*
X73257Y72663D01*
Y72597D01*
X73190Y72530D01*
X73123D01*
X73190D01*
X73257Y72463D01*
Y72397D01*
X73190Y72330D01*
X73057D01*
X72990Y72397D01*
X73656Y72330D02*
X73390D01*
X73656Y72597D01*
Y72663D01*
X73590Y72730D01*
X73457D01*
X73390Y72663D01*
X73257Y63480D02*
X72990D01*
X73257Y63747D01*
Y63813D01*
X73190Y63880D01*
X73057D01*
X72990Y63813D01*
X73656Y63880D02*
X73390D01*
Y63680D01*
X73523Y63747D01*
X73590D01*
X73656Y63680D01*
Y63547D01*
X73590Y63480D01*
X73457D01*
X73390Y63547D01*
X73990Y63813D02*
X74057Y63880D01*
X74190D01*
X74257Y63813D01*
Y63747D01*
X74190Y63680D01*
X74123D01*
X74190D01*
X74257Y63613D01*
Y63547D01*
X74190Y63480D01*
X74057D01*
X73990Y63547D01*
X74390Y63813D02*
X74457Y63880D01*
X74590D01*
X74656Y63813D01*
Y63747D01*
X74590Y63680D01*
X74523D01*
X74590D01*
X74656Y63613D01*
Y63547D01*
X74590Y63480D01*
X74457D01*
X74390Y63547D01*
X76490Y63480D02*
X76623D01*
X76557D01*
Y63880D01*
X76490Y63813D01*
X76823Y63880D02*
X77090D01*
Y63813D01*
X76823Y63547D01*
Y63480D01*
X77790D02*
Y63880D01*
X77590Y63680D01*
X77857D01*
X77990Y63480D02*
X78123D01*
X78057D01*
Y63880D01*
X77990Y63813D01*
X79990D02*
X80057Y63880D01*
X80190D01*
X80257Y63813D01*
Y63547D01*
X80190Y63480D01*
X80057D01*
X79990Y63547D01*
Y63813D01*
X80390Y63547D02*
X80457Y63480D01*
X80590D01*
X80656Y63547D01*
Y63813D01*
X80590Y63880D01*
X80457D01*
X80390Y63813D01*
Y63747D01*
X80457Y63680D01*
X80656D01*
X81190Y63480D02*
Y63880D01*
X80990Y63680D01*
X81257D01*
X81390Y63547D02*
X81457Y63480D01*
X81590D01*
X81656Y63547D01*
Y63813D01*
X81590Y63880D01*
X81457D01*
X81390Y63813D01*
Y63747D01*
X81457Y63680D01*
X81656D01*
X84807Y63880D02*
X84540D01*
Y63680D01*
X84673Y63747D01*
X84740D01*
X84807Y63680D01*
Y63547D01*
X84740Y63480D01*
X84607D01*
X84540Y63547D01*
X84940Y63880D02*
X85206D01*
Y63813D01*
X84940Y63547D01*
Y63480D01*
X83490Y63813D02*
X83557Y63880D01*
X83690D01*
X83757Y63813D01*
Y63547D01*
X83690Y63480D01*
X83557D01*
X83490Y63547D01*
Y63813D01*
X83890Y63480D02*
X84023D01*
X83957D01*
Y63880D01*
X83890Y63813D01*
D23*
X72810Y13000D02*
X74810D01*
X72810Y21000D02*
X74810D01*
X72810Y13000D02*
Y21000D01*
X74810Y13000D02*
Y21000D01*
X76310Y13000D02*
X78310D01*
X76310Y21000D02*
X78310D01*
X76310Y13000D02*
Y21000D01*
X78310Y13000D02*
Y21000D01*
X79810Y13000D02*
X81810D01*
X79810Y21000D02*
X81810D01*
X79810Y13000D02*
Y21000D01*
X81810Y13000D02*
Y21000D01*
X83310Y13000D02*
X85310D01*
X83310Y21000D02*
X85310D01*
X83310Y13000D02*
Y21000D01*
X85310Y13000D02*
Y21000D01*
X72810Y30000D02*
X74810D01*
X72810Y38000D02*
X74810D01*
X72810Y30000D02*
Y38000D01*
X74810Y30000D02*
Y38000D01*
X76310Y30000D02*
X78310D01*
X76310Y38000D02*
X78310D01*
X76310Y30000D02*
Y38000D01*
X78310Y30000D02*
Y38000D01*
X79810Y30000D02*
X81810D01*
X79810Y38000D02*
X81810D01*
X79810Y30000D02*
Y38000D01*
X81810Y30000D02*
Y38000D01*
X83310Y30000D02*
X85310D01*
X83310Y38000D02*
X85310D01*
X83310Y30000D02*
Y38000D01*
X85310Y30000D02*
Y38000D01*
X72810Y47100D02*
X74810D01*
X72810Y55100D02*
X74810D01*
X72810Y47100D02*
Y55100D01*
X74810Y47100D02*
Y55100D01*
X76310Y47100D02*
X78310D01*
X76310Y55100D02*
X78310D01*
X76310Y47100D02*
Y55100D01*
X78310Y47100D02*
Y55100D01*
X79810Y47100D02*
X81810D01*
X79810Y55100D02*
X81810D01*
X79810Y47100D02*
Y55100D01*
X81810Y47100D02*
Y55100D01*
X83310Y47100D02*
X85310D01*
X83310Y55100D02*
X85310D01*
X83310Y47100D02*
Y55100D01*
X85310Y47100D02*
Y55100D01*
X72810Y64100D02*
X74810D01*
X72810Y72100D02*
X74810D01*
X72810Y64100D02*
Y72100D01*
X74810Y64100D02*
Y72100D01*
X76310Y64100D02*
X78310D01*
X76310Y72100D02*
X78310D01*
X76310Y64100D02*
Y72100D01*
X78310Y64100D02*
Y72100D01*
X79810Y64100D02*
X81810D01*
X79810Y72100D02*
X81810D01*
X79810Y64100D02*
Y72100D01*
X81810Y64100D02*
Y72100D01*
X83310Y64100D02*
X85310D01*
X83310Y72100D02*
X85310D01*
X83310Y64100D02*
Y72100D01*
X85310Y64100D02*
Y72100D01*
X45980Y65530D02*
Y69430D01*
X41780Y65530D02*
Y69430D01*
X45980D01*
X41780Y65530D02*
X45980D01*
X10119Y30707D02*
X39646D01*
X10119Y50393D02*
X39646D01*
Y30707D02*
Y50393D01*
X10119Y30707D02*
Y50393D01*
D57*
X74336Y10996D02*
X83784D01*
X74336Y8535D02*
X83784D01*
X74336D02*
Y10996D01*
X83784Y8535D02*
Y10996D01*
X74336Y27996D02*
X83784D01*
X74336Y25535D02*
X83784D01*
X74336D02*
Y27996D01*
X83784Y25535D02*
Y27996D01*
X74336Y45096D02*
X83784D01*
X74336Y42635D02*
X83784D01*
X74336D02*
Y45096D01*
X83784Y42635D02*
Y45096D01*
X74336Y62096D02*
X83784D01*
X74336Y59635D02*
X83784D01*
X74336D02*
Y62096D01*
X83784Y59635D02*
Y62096D01*
X60169Y61044D02*
G03*
X60169Y61044I-39J0D01*
G01*
Y54044D02*
G03*
X60169Y54044I-39J0D01*
G01*
Y47044D02*
G03*
X60169Y47044I-39J0D01*
G01*
Y40044D02*
G03*
X60169Y40044I-39J0D01*
G01*
Y33044D02*
G03*
X60169Y33044I-39J0D01*
G01*
Y26044D02*
G03*
X60169Y26044I-39J0D01*
G01*
Y19044D02*
G03*
X60169Y19044I-39J0D01*
G01*
Y12044D02*
G03*
X60169Y12044I-39J0D01*
G01*
X56409Y66506D02*
G03*
X56409Y66506I-39J0D01*
G01*
Y59506D02*
G03*
X56409Y59506I-39J0D01*
G01*
Y52506D02*
G03*
X56409Y52506I-39J0D01*
G01*
Y45506D02*
G03*
X56409Y45506I-39J0D01*
G01*
Y38506D02*
G03*
X56409Y38506I-39J0D01*
G01*
Y31506D02*
G03*
X56409Y31506I-39J0D01*
G01*
Y24506D02*
G03*
X56409Y24506I-39J0D01*
G01*
Y17506D02*
G03*
X56409Y17506I-39J0D01*
G01*
X30520Y66136D02*
G03*
X30520Y66136I-39J0D01*
G01*
X22306Y33890D02*
G03*
X22306Y33890I-39J0D01*
G01*
X12183Y11550D02*
G03*
X12183Y11550I-39J0D01*
G01*
Y20550D02*
G03*
X12183Y20550I-39J0D01*
G01*
Y58550D02*
G03*
X12183Y58550I-39J0D01*
G01*
X22306Y49638D02*
G03*
X22306Y49638I-39J0D01*
G01*
X67401Y62000D02*
G03*
X67401Y62000I-39J0D01*
G01*
Y55000D02*
G03*
X67401Y55000I-39J0D01*
G01*
Y48000D02*
G03*
X67401Y48000I-39J0D01*
G01*
Y41000D02*
G03*
X67401Y41000I-39J0D01*
G01*
Y34000D02*
G03*
X67401Y34000I-39J0D01*
G01*
Y27000D02*
G03*
X67401Y27000I-39J0D01*
G01*
Y20000D02*
G03*
X67401Y20000I-39J0D01*
G01*
X67401Y13000D02*
G03*
X67401Y13000I-39J0D01*
G01*
X59825Y60867D02*
Y63033D01*
X56675Y60867D02*
Y63033D01*
Y60867D02*
X59825D01*
X56675Y63033D02*
X59825D01*
Y53867D02*
Y56033D01*
X56675Y53867D02*
Y56033D01*
Y53867D02*
X59825D01*
X56675Y56033D02*
X59825D01*
Y46867D02*
Y49033D01*
X56675Y46867D02*
Y49033D01*
Y46867D02*
X59825D01*
X56675Y49033D02*
X59825D01*
Y39867D02*
Y42033D01*
X56675Y39867D02*
Y42033D01*
Y39867D02*
X59825D01*
X56675Y42033D02*
X59825D01*
Y32867D02*
Y35033D01*
X56675Y32867D02*
Y35033D01*
Y32867D02*
X59825D01*
X56675Y35033D02*
X59825D01*
Y25867D02*
Y28033D01*
X56675Y25867D02*
Y28033D01*
Y25867D02*
X59825D01*
X56675Y28033D02*
X59825D01*
Y18867D02*
Y21033D01*
X56675Y18867D02*
Y21033D01*
Y18867D02*
X59825D01*
X56675Y21033D02*
X59825D01*
Y11867D02*
Y14033D01*
X56675Y11867D02*
Y14033D01*
Y11867D02*
X59825D01*
X56675Y14033D02*
X59825D01*
X56675Y64517D02*
Y66683D01*
X59825Y64517D02*
Y66683D01*
X56675D02*
X59825D01*
X56675Y64517D02*
X59825D01*
X56675Y57517D02*
Y59683D01*
X59825Y57517D02*
Y59683D01*
X56675D02*
X59825D01*
X56675Y57517D02*
X59825D01*
X56675Y50517D02*
Y52683D01*
X59825Y50517D02*
Y52683D01*
X56675D02*
X59825D01*
X56675Y50517D02*
X59825D01*
X56675Y43517D02*
Y45683D01*
X59825Y43517D02*
Y45683D01*
X56675D02*
X59825D01*
X56675Y43517D02*
X59825D01*
X56675Y36517D02*
Y38683D01*
X59825Y36517D02*
Y38683D01*
X56675D02*
X59825D01*
X56675Y36517D02*
X59825D01*
X56675Y29517D02*
Y31683D01*
X59825Y29517D02*
Y31683D01*
X56675D02*
X59825D01*
X56675Y29517D02*
X59825D01*
X56675Y22517D02*
Y24683D01*
X59825Y22517D02*
Y24683D01*
X56675D02*
X59825D01*
X56675Y22517D02*
X59825D01*
X56675Y15517D02*
Y17683D01*
X59825Y15517D02*
Y17683D01*
X56675D02*
X59825D01*
X56675Y15517D02*
X59825D01*
X63978Y60306D02*
Y61094D01*
X62522Y60306D02*
Y61094D01*
Y60306D02*
X63978D01*
X62522Y61094D02*
X63978D01*
Y53306D02*
Y54094D01*
X62522Y53306D02*
Y54094D01*
Y53306D02*
X63978D01*
X62522Y54094D02*
X63978D01*
Y46306D02*
Y47094D01*
X62522Y46306D02*
Y47094D01*
Y46306D02*
X63978D01*
X62522Y47094D02*
X63978D01*
Y39306D02*
Y40094D01*
X62522Y39306D02*
Y40094D01*
Y39306D02*
X63978D01*
X62522Y40094D02*
X63978D01*
Y32306D02*
Y33094D01*
X62522Y32306D02*
Y33094D01*
Y32306D02*
X63978D01*
X62522Y33094D02*
X63978D01*
Y25306D02*
Y26094D01*
X62522Y25306D02*
Y26094D01*
Y25306D02*
X63978D01*
X62522Y26094D02*
X63978D01*
Y18306D02*
Y19094D01*
X62522Y18306D02*
Y19094D01*
Y18306D02*
X63978D01*
X62522Y19094D02*
X63978D01*
Y11306D02*
Y12094D01*
X62522Y11306D02*
Y12094D01*
Y11306D02*
X63978D01*
X62522Y12094D02*
X63978D01*
X61706Y62149D02*
Y63251D01*
X61194Y62149D02*
Y63251D01*
X61706D01*
X61194Y62149D02*
X61706D01*
Y55149D02*
Y56251D01*
X61194Y55149D02*
Y56251D01*
X61706D01*
X61194Y55149D02*
X61706D01*
Y48149D02*
Y49251D01*
X61194Y48149D02*
Y49251D01*
X61706D01*
X61194Y48149D02*
X61706D01*
Y41149D02*
Y42251D01*
X61194Y41149D02*
Y42251D01*
X61706D01*
X61194Y41149D02*
X61706D01*
Y34149D02*
Y35251D01*
X61194Y34149D02*
Y35251D01*
X61706D01*
X61194Y34149D02*
X61706D01*
Y27149D02*
Y28251D01*
X61194Y27149D02*
Y28251D01*
X61706D01*
X61194Y27149D02*
X61706D01*
Y20149D02*
Y21251D01*
X61194Y20149D02*
Y21251D01*
X61706D01*
X61194Y20149D02*
X61706D01*
Y13149D02*
Y14251D01*
X61194Y13149D02*
Y14251D01*
X61706D01*
X61194Y13149D02*
X61706D01*
X61194Y60649D02*
Y61751D01*
X61706Y60649D02*
Y61751D01*
X61194Y60649D02*
X61706D01*
X61194Y61751D02*
X61706D01*
X61194Y53649D02*
Y54751D01*
X61706Y53649D02*
Y54751D01*
X61194Y53649D02*
X61706D01*
X61194Y54751D02*
X61706D01*
X61194Y46649D02*
Y47751D01*
X61706Y46649D02*
Y47751D01*
X61194Y46649D02*
X61706D01*
X61194Y47751D02*
X61706D01*
X61194Y39649D02*
Y40751D01*
X61706Y39649D02*
Y40751D01*
X61194Y39649D02*
X61706D01*
X61194Y40751D02*
X61706D01*
X61194Y32649D02*
Y33751D01*
X61706Y32649D02*
Y33751D01*
X61194Y32649D02*
X61706D01*
X61194Y33751D02*
X61706D01*
X61194Y25649D02*
Y26751D01*
X61706Y25649D02*
Y26751D01*
X61194Y25649D02*
X61706D01*
X61194Y26751D02*
X61706D01*
X61194Y18649D02*
Y19751D01*
X61706Y18649D02*
Y19751D01*
X61194Y18649D02*
X61706D01*
X61194Y19751D02*
X61706D01*
X61194Y11649D02*
Y12751D01*
X61706Y11649D02*
Y12751D01*
X61194Y11649D02*
X61706D01*
X61194Y12751D02*
X61706D01*
X54622Y63406D02*
Y64194D01*
X56078Y63406D02*
Y64194D01*
X54622D02*
X56078D01*
X54622Y63406D02*
X56078D01*
X54622Y56406D02*
Y57194D01*
X56078Y56406D02*
Y57194D01*
X54622D02*
X56078D01*
X54622Y56406D02*
X56078D01*
X54622Y49406D02*
Y50194D01*
X56078Y49406D02*
Y50194D01*
X54622D02*
X56078D01*
X54622Y49406D02*
X56078D01*
X54622Y42406D02*
Y43194D01*
X56078Y42406D02*
Y43194D01*
X54622D02*
X56078D01*
X54622Y42406D02*
X56078D01*
X54622Y35406D02*
Y36194D01*
X56078Y35406D02*
Y36194D01*
X54622D02*
X56078D01*
X54622Y35406D02*
X56078D01*
X54622Y28406D02*
Y29194D01*
X56078Y28406D02*
Y29194D01*
X54622D02*
X56078D01*
X54622Y28406D02*
X56078D01*
X54622Y21406D02*
Y22194D01*
X56078Y21406D02*
Y22194D01*
X54622D02*
X56078D01*
X54622Y21406D02*
X56078D01*
X54622Y14406D02*
Y15194D01*
X56078Y14406D02*
Y15194D01*
X54622D02*
X56078D01*
X54622Y14406D02*
X56078D01*
X65404Y61606D02*
Y62394D01*
X63947Y61606D02*
Y62394D01*
Y61606D02*
X65404D01*
X63947Y62394D02*
X65404D01*
Y54606D02*
Y55394D01*
X63947Y54606D02*
Y55394D01*
Y54606D02*
X65404D01*
X63947Y55394D02*
X65404D01*
Y47606D02*
Y48394D01*
X63947Y47606D02*
Y48394D01*
Y47606D02*
X65404D01*
X63947Y48394D02*
X65404D01*
Y40606D02*
Y41394D01*
X63947Y40606D02*
Y41394D01*
Y40606D02*
X65404D01*
X63947Y41394D02*
X65404D01*
Y33606D02*
Y34394D01*
X63947Y33606D02*
Y34394D01*
Y33606D02*
X65404D01*
X63947Y34394D02*
X65404D01*
Y26606D02*
Y27394D01*
X63947Y26606D02*
Y27394D01*
Y26606D02*
X65404D01*
X63947Y27394D02*
X65404D01*
Y19606D02*
Y20394D01*
X63947Y19606D02*
Y20394D01*
Y19606D02*
X65404D01*
X63947Y20394D02*
X65404D01*
X65404Y12606D02*
Y13394D01*
X63947Y12606D02*
Y13394D01*
Y12606D02*
X65404D01*
X63947Y13394D02*
X65404D01*
X31028Y64706D02*
Y65494D01*
X29572Y64706D02*
Y65494D01*
Y64706D02*
X31028D01*
X29572Y65494D02*
X31028D01*
Y63156D02*
Y63944D01*
X29572Y63156D02*
Y63944D01*
Y63156D02*
X31028D01*
X29572Y63944D02*
X31028D01*
X33272Y63156D02*
Y63944D01*
X34728Y63156D02*
Y63944D01*
X33272D02*
X34728D01*
X33272Y63156D02*
X34728D01*
X33272Y64706D02*
Y65494D01*
X34728Y64706D02*
Y65494D01*
X33272D02*
X34728D01*
X33272Y64706D02*
X34728D01*
X63998Y63249D02*
X64776D01*
X65661D02*
X66504D01*
X63998Y66851D02*
X64776D01*
X65661D02*
X66504D01*
X63998Y63249D02*
Y66851D01*
Y56249D02*
X64776D01*
X65661D02*
X66504D01*
X63998Y59851D02*
X64776D01*
X65661D02*
X66504D01*
X63998Y56249D02*
Y59851D01*
Y49249D02*
X64776D01*
X65661D02*
X66504D01*
X63998Y52851D02*
X64776D01*
X65661D02*
X66504D01*
X63998Y49249D02*
Y52851D01*
Y42249D02*
X64776D01*
X65661D02*
X66504D01*
X63998Y45851D02*
X64776D01*
X65661D02*
X66504D01*
X63998Y42249D02*
Y45851D01*
Y35249D02*
X64776D01*
X65661D02*
X66504D01*
X63998Y38851D02*
X64776D01*
X65661D02*
X66504D01*
X63998Y35249D02*
Y38851D01*
Y28249D02*
X64776D01*
X65661D02*
X66504D01*
X63998Y31851D02*
X64776D01*
X65661D02*
X66504D01*
X63998Y28249D02*
Y31851D01*
Y21249D02*
X64776D01*
X65661D02*
X66504D01*
X63998Y24851D02*
X64776D01*
X65661D02*
X66504D01*
X63998Y21249D02*
Y24851D01*
Y14249D02*
X64776D01*
X65661D02*
X66504D01*
X63998Y17851D02*
X64776D01*
X65661D02*
X66504D01*
X63998Y14249D02*
Y17851D01*
X36696Y31420D02*
Y33206D01*
Y33744D02*
Y33850D01*
X22522Y31420D02*
Y33206D01*
Y33744D02*
Y33850D01*
Y31420D02*
X23240D01*
X35979D02*
X36696D01*
X35979Y33850D02*
X36696D01*
X22522D02*
X23240D01*
X32600Y10075D02*
Y12025D01*
X12400Y10075D02*
Y12025D01*
Y10075D02*
X32600D01*
X12400Y12025D02*
X32600D01*
Y19075D02*
Y21025D01*
X12400Y19075D02*
Y21025D01*
Y19075D02*
X32600D01*
X12400Y21025D02*
X32600D01*
Y57075D02*
Y59025D01*
X12400Y57075D02*
Y59025D01*
Y57075D02*
X32600D01*
X12400Y59025D02*
X32600D01*
X36696Y47168D02*
Y48954D01*
Y49492D02*
Y49598D01*
X22522Y47168D02*
Y48954D01*
Y49492D02*
Y49598D01*
Y47168D02*
X23240D01*
X35979D02*
X36696D01*
X35979Y49598D02*
X36696D01*
X22522D02*
X23240D01*
X65895Y61724D02*
Y62276D01*
X67155Y61724D02*
Y62276D01*
X65895D02*
X67155D01*
X65895Y61724D02*
X67155D01*
X65895Y54724D02*
Y55276D01*
X67155Y54724D02*
Y55276D01*
X65895D02*
X67155D01*
X65895Y54724D02*
X67155D01*
X65895Y47724D02*
Y48276D01*
X67155Y47724D02*
Y48276D01*
X65895D02*
X67155D01*
X65895Y47724D02*
X67155D01*
X65895Y40724D02*
Y41276D01*
X67155Y40724D02*
Y41276D01*
X65895D02*
X67155D01*
X65895Y40724D02*
X67155D01*
X65895Y33724D02*
Y34276D01*
X67155Y33724D02*
Y34276D01*
X65895D02*
X67155D01*
X65895Y33724D02*
X67155D01*
X65895Y26724D02*
Y27276D01*
X67155Y26724D02*
Y27276D01*
X65895D02*
X67155D01*
X65895Y26724D02*
X67155D01*
X65895Y19724D02*
Y20276D01*
X67155Y19724D02*
Y20276D01*
X65895D02*
X67155D01*
X65895Y19724D02*
X67155D01*
X65895Y12724D02*
Y13276D01*
X67155Y12724D02*
Y13276D01*
X65895D02*
X67155D01*
X65895Y12724D02*
X67155D01*
X55115Y62146D02*
X55785D01*
X55115Y60886D02*
X55785D01*
Y62146D01*
X55115Y60886D02*
Y62146D01*
Y55146D02*
X55785D01*
X55115Y53886D02*
X55785D01*
Y55146D01*
X55115Y53886D02*
Y55146D01*
Y48146D02*
X55785D01*
X55115Y46886D02*
X55785D01*
Y48146D01*
X55115Y46886D02*
Y48146D01*
Y41146D02*
X55785D01*
X55115Y39886D02*
X55785D01*
Y41146D01*
X55115Y39886D02*
Y41146D01*
Y34146D02*
X55785D01*
X55115Y32886D02*
X55785D01*
Y34146D01*
X55115Y32886D02*
Y34146D01*
Y27146D02*
X55785D01*
X55115Y25886D02*
X55785D01*
Y27146D01*
X55115Y25886D02*
Y27146D01*
Y20146D02*
X55785D01*
X55115Y18886D02*
X55785D01*
Y20146D01*
X55115Y18886D02*
Y20146D01*
Y13146D02*
X55785D01*
X55115Y11886D02*
X55785D01*
Y13146D01*
X55115Y11886D02*
Y13146D01*
X53965Y62146D02*
X54635D01*
X53965Y60886D02*
X54635D01*
Y62146D01*
X53965Y60886D02*
Y62146D01*
Y55146D02*
X54635D01*
X53965Y53886D02*
X54635D01*
Y55146D01*
X53965Y53886D02*
Y55146D01*
Y48146D02*
X54635D01*
X53965Y46886D02*
X54635D01*
Y48146D01*
X53965Y46886D02*
Y48146D01*
Y41146D02*
X54635D01*
X53965Y39886D02*
X54635D01*
Y41146D01*
X53965Y39886D02*
Y41146D01*
Y34146D02*
X54635D01*
X53965Y32886D02*
X54635D01*
Y34146D01*
X53965Y32886D02*
Y34146D01*
Y27146D02*
X54635D01*
X53965Y25886D02*
X54635D01*
Y27146D01*
X53965Y25886D02*
Y27146D01*
Y20146D02*
X54635D01*
X53965Y18886D02*
X54635D01*
Y20146D01*
X53965Y18886D02*
Y20146D01*
Y13146D02*
X54635D01*
X53965Y11886D02*
X54635D01*
Y13146D01*
X53965Y11886D02*
Y13146D01*
X55115Y65980D02*
X55785D01*
X55115Y64720D02*
X55785D01*
Y65980D01*
X55115Y64720D02*
Y65980D01*
Y58980D02*
X55785D01*
X55115Y57720D02*
X55785D01*
Y58980D01*
X55115Y57720D02*
Y58980D01*
Y51980D02*
X55785D01*
X55115Y50720D02*
X55785D01*
Y51980D01*
X55115Y50720D02*
Y51980D01*
Y44980D02*
X55785D01*
X55115Y43720D02*
X55785D01*
Y44980D01*
X55115Y43720D02*
Y44980D01*
Y37980D02*
X55785D01*
X55115Y36720D02*
X55785D01*
Y37980D01*
X55115Y36720D02*
Y37980D01*
Y30980D02*
X55785D01*
X55115Y29720D02*
X55785D01*
Y30980D01*
X55115Y29720D02*
Y30980D01*
Y23980D02*
X55785D01*
X55115Y22720D02*
X55785D01*
Y23980D01*
X55115Y22720D02*
Y23980D01*
Y16980D02*
X55785D01*
X55115Y15720D02*
X55785D01*
Y16980D01*
X55115Y15720D02*
Y16980D01*
X53965Y65980D02*
X54635D01*
X53965Y64720D02*
X54635D01*
Y65980D01*
X53965Y64720D02*
Y65980D01*
Y58980D02*
X54635D01*
X53965Y57720D02*
X54635D01*
Y58980D01*
X53965Y57720D02*
Y58980D01*
Y51980D02*
X54635D01*
X53965Y50720D02*
X54635D01*
Y51980D01*
X53965Y50720D02*
Y51980D01*
Y44980D02*
X54635D01*
X53965Y43720D02*
X54635D01*
Y44980D01*
X53965Y43720D02*
Y44980D01*
Y37980D02*
X54635D01*
X53965Y36720D02*
X54635D01*
Y37980D01*
X53965Y36720D02*
Y37980D01*
Y30980D02*
X54635D01*
X53965Y29720D02*
X54635D01*
Y30980D01*
X53965Y29720D02*
Y30980D01*
Y23980D02*
X54635D01*
X53965Y22720D02*
X54635D01*
Y23980D01*
X53965Y22720D02*
Y23980D01*
Y16980D02*
X54635D01*
X53965Y15720D02*
X54635D01*
Y16980D01*
X53965Y15720D02*
Y16980D01*
X61415Y66870D02*
X62085D01*
X61415Y65610D02*
X62085D01*
Y66870D01*
X61415Y65610D02*
Y66870D01*
Y59870D02*
X62085D01*
X61415Y58610D02*
X62085D01*
Y59870D01*
X61415Y58610D02*
Y59870D01*
Y52870D02*
X62085D01*
X61415Y51610D02*
X62085D01*
Y52870D01*
X61415Y51610D02*
Y52870D01*
Y45870D02*
X62085D01*
X61415Y44610D02*
X62085D01*
Y45870D01*
X61415Y44610D02*
Y45870D01*
Y38870D02*
X62085D01*
X61415Y37610D02*
X62085D01*
Y38870D01*
X61415Y37610D02*
Y38870D01*
Y31870D02*
X62085D01*
X61415Y30610D02*
X62085D01*
Y31870D01*
X61415Y30610D02*
Y31870D01*
Y24870D02*
X62085D01*
X61415Y23610D02*
X62085D01*
Y24870D01*
X61415Y23610D02*
Y24870D01*
Y17870D02*
X62085D01*
X61415Y16610D02*
X62085D01*
Y17870D01*
X61415Y16610D02*
Y17870D01*
X62565Y66870D02*
X63235D01*
X62565Y65610D02*
X63235D01*
Y66870D01*
X62565Y65610D02*
Y66870D01*
Y59870D02*
X63235D01*
X62565Y58610D02*
X63235D01*
Y59870D01*
X62565Y58610D02*
Y59870D01*
Y52870D02*
X63235D01*
X62565Y51610D02*
X63235D01*
Y52870D01*
X62565Y51610D02*
Y52870D01*
Y45870D02*
X63235D01*
X62565Y44610D02*
X63235D01*
Y45870D01*
X62565Y44610D02*
Y45870D01*
Y38870D02*
X63235D01*
X62565Y37610D02*
X63235D01*
Y38870D01*
X62565Y37610D02*
Y38870D01*
Y31870D02*
X63235D01*
X62565Y30610D02*
X63235D01*
Y31870D01*
X62565Y30610D02*
Y31870D01*
Y24870D02*
X63235D01*
X62565Y23610D02*
X63235D01*
Y24870D01*
X62565Y23610D02*
Y24870D01*
Y17870D02*
X63235D01*
X62565Y16610D02*
X63235D01*
Y17870D01*
X62565Y16610D02*
Y17870D01*
X14915Y66030D02*
X15585D01*
X14915Y64770D02*
X15585D01*
Y66030D01*
X14915Y64770D02*
Y66030D01*
X16415D02*
X17085D01*
X16415Y64770D02*
X17085D01*
Y66030D01*
X16415Y64770D02*
Y66030D01*
X17758Y66277D02*
X18742D01*
X17758Y64623D02*
X18742D01*
Y66277D01*
X17758Y64623D02*
Y66277D01*
X40883Y66306D02*
Y66174D01*
X40948Y66109D01*
X41210D01*
X41276Y66174D01*
Y66306D01*
X41210Y66371D01*
X40948D01*
X40883Y66306D01*
X41276Y66502D02*
X40883D01*
X41276Y66765D01*
X40883D01*
Y68206D02*
Y68074D01*
X40948Y68009D01*
X41210D01*
X41276Y68074D01*
Y68206D01*
X41210Y68271D01*
X40948D01*
X40883Y68206D01*
Y68665D02*
Y68402D01*
X41079D01*
Y68534D01*
Y68402D01*
X41276D01*
X40883Y69058D02*
Y68796D01*
X41079D01*
Y68927D01*
Y68796D01*
X41276D01*
X40508Y63309D02*
X40901D01*
Y63506D01*
X40836Y63571D01*
X40770D01*
X40704Y63506D01*
Y63309D01*
Y63506D01*
X40639Y63571D01*
X40573D01*
X40508Y63506D01*
Y63309D01*
X40901Y63768D02*
Y63899D01*
X40836Y63965D01*
X40704D01*
X40639Y63899D01*
Y63768D01*
X40704Y63702D01*
X40836D01*
X40901Y63768D01*
X40639Y64161D02*
Y64293D01*
X40704Y64358D01*
X40901D01*
Y64161D01*
X40836Y64096D01*
X40770Y64161D01*
Y64358D01*
X40639Y64489D02*
X40901D01*
X40770D01*
X40704Y64555D01*
X40639Y64621D01*
Y64686D01*
X40508Y65145D02*
X40901D01*
Y64949D01*
X40836Y64883D01*
X40704D01*
X40639Y64949D01*
Y65145D01*
X42273Y64109D02*
X42208Y64174D01*
Y64306D01*
X42273Y64371D01*
X42339D01*
X42404Y64306D01*
Y64240D01*
Y64306D01*
X42470Y64371D01*
X42536D01*
X42601Y64306D01*
Y64174D01*
X42536Y64109D01*
X43601Y64371D02*
Y64109D01*
X43339Y64371D01*
X43273D01*
X43208Y64306D01*
Y64174D01*
X43273Y64109D01*
X44601Y64189D02*
Y64320D01*
Y64254D01*
X44208D01*
X44273Y64189D01*
X45273Y64109D02*
X45208Y64174D01*
Y64306D01*
X45273Y64371D01*
X45536D01*
X45601Y64306D01*
Y64174D01*
X45536Y64109D01*
X45273D01*
X41628Y63509D02*
X41235D01*
X41366Y63640D01*
X41235Y63771D01*
X41628D01*
Y63968D02*
Y64099D01*
X41563Y64165D01*
X41432D01*
X41366Y64099D01*
Y63968D01*
X41432Y63902D01*
X41563D01*
X41628Y63968D01*
X41235Y64558D02*
X41628D01*
Y64361D01*
X41563Y64296D01*
X41432D01*
X41366Y64361D01*
Y64558D01*
X41628Y64886D02*
Y64755D01*
X41563Y64689D01*
X41432D01*
X41366Y64755D01*
Y64886D01*
X41432Y64952D01*
X41497D01*
Y64689D01*
D58*
X63850Y63957D02*
G03*
X63850Y63957I-49J0D01*
G01*
Y56957D02*
G03*
X63850Y56957I-49J0D01*
G01*
Y49957D02*
G03*
X63850Y49957I-49J0D01*
G01*
Y42957D02*
G03*
X63850Y42957I-49J0D01*
G01*
Y35957D02*
G03*
X63850Y35957I-49J0D01*
G01*
Y28957D02*
G03*
X63850Y28957I-49J0D01*
G01*
Y21957D02*
G03*
X63850Y21957I-49J0D01*
G01*
Y14957D02*
G03*
X63850Y14957I-49J0D01*
G01*
D59*
X14268Y65050D02*
G03*
X14268Y65050I-79J0D01*
G01*
D60*
X29953Y67180D02*
X34347D01*
Y69620D01*
X29953D02*
X34347D01*
X29953Y67180D02*
Y69620D01*
X13835Y63278D02*
Y64479D01*
X8165Y63278D02*
X11689D01*
X13835Y65660D02*
Y66822D01*
X13106Y63278D02*
X13835D01*
X8165Y66822D02*
X13835D01*
X8165Y63278D02*
Y66822D01*
D61*
X12925Y59456D02*
X12872Y59508D01*
Y59613D01*
X12925Y59665D01*
X13135D01*
X13187Y59613D01*
Y59508D01*
X13135Y59456D01*
X12925D01*
X13187Y59770D02*
Y59875D01*
Y59823D01*
X12872D01*
X12925Y59770D01*
Y56063D02*
X12872Y56115D01*
Y56220D01*
X12925Y56273D01*
X13135D01*
X13187Y56220D01*
Y56115D01*
X13135Y56063D01*
X12925D01*
X13187Y56588D02*
Y56378D01*
X12977Y56588D01*
X12925D01*
X12872Y56535D01*
Y56430D01*
X12925Y56378D01*
X31875Y59413D02*
X31822Y59465D01*
Y59570D01*
X31875Y59623D01*
X31927D01*
X31980Y59570D01*
Y59518D01*
Y59570D01*
X32032Y59623D01*
X32085D01*
X32137Y59570D01*
Y59465D01*
X32085Y59413D01*
Y59728D02*
X32137Y59780D01*
Y59885D01*
X32085Y59938D01*
X31875D01*
X31822Y59885D01*
Y59780D01*
X31875Y59728D01*
X31927D01*
X31980Y59780D01*
Y59938D01*
X32137Y56320D02*
X31822D01*
X31980Y56163D01*
Y56373D01*
X31875Y56478D02*
X31822Y56530D01*
Y56635D01*
X31875Y56688D01*
X32085D01*
X32137Y56635D01*
Y56530D01*
X32085Y56478D01*
X31875D01*
X12875Y12256D02*
X12822Y12308D01*
Y12413D01*
X12875Y12465D01*
X13085D01*
X13137Y12413D01*
Y12308D01*
X13085Y12256D01*
X12875D01*
X13137Y12570D02*
Y12675D01*
Y12623D01*
X12822D01*
X12875Y12570D01*
Y9213D02*
X12822Y9265D01*
Y9370D01*
X12875Y9423D01*
X13085D01*
X13137Y9370D01*
Y9265D01*
X13085Y9213D01*
X12875D01*
X13137Y9738D02*
Y9528D01*
X12927Y9738D01*
X12875D01*
X12822Y9685D01*
Y9580D01*
X12875Y9528D01*
X31875Y12313D02*
X31822Y12365D01*
Y12470D01*
X31875Y12523D01*
X31927D01*
X31980Y12470D01*
Y12418D01*
Y12470D01*
X32032Y12523D01*
X32085D01*
X32137Y12470D01*
Y12365D01*
X32085Y12313D01*
Y12628D02*
X32137Y12680D01*
Y12785D01*
X32085Y12838D01*
X31875D01*
X31822Y12785D01*
Y12680D01*
X31875Y12628D01*
X31927D01*
X31980Y12680D01*
Y12838D01*
X32187Y9370D02*
X31872D01*
X32030Y9213D01*
Y9423D01*
X31925Y9528D02*
X31872Y9580D01*
Y9685D01*
X31925Y9738D01*
X32135D01*
X32187Y9685D01*
Y9580D01*
X32135Y9528D01*
X31925D01*
X32137Y18370D02*
X31822D01*
X31980Y18213D01*
Y18423D01*
X31875Y18528D02*
X31822Y18580D01*
Y18685D01*
X31875Y18738D01*
X32085D01*
X32137Y18685D01*
Y18580D01*
X32085Y18528D01*
X31875D01*
Y21263D02*
X31822Y21315D01*
Y21420D01*
X31875Y21473D01*
X31927D01*
X31980Y21420D01*
Y21368D01*
Y21420D01*
X32032Y21473D01*
X32085D01*
X32137Y21420D01*
Y21315D01*
X32085Y21263D01*
Y21578D02*
X32137Y21630D01*
Y21735D01*
X32085Y21788D01*
X31875D01*
X31822Y21735D01*
Y21630D01*
X31875Y21578D01*
X31927D01*
X31980Y21630D01*
Y21788D01*
X12875Y18213D02*
X12822Y18265D01*
Y18370D01*
X12875Y18423D01*
X13085D01*
X13137Y18370D01*
Y18265D01*
X13085Y18213D01*
X12875D01*
X13137Y18738D02*
Y18528D01*
X12927Y18738D01*
X12875D01*
X12822Y18685D01*
Y18580D01*
X12875Y18528D01*
Y21306D02*
X12822Y21358D01*
Y21463D01*
X12875Y21515D01*
X13085D01*
X13137Y21463D01*
Y21358D01*
X13085Y21306D01*
X12875D01*
X13137Y21620D02*
Y21725D01*
Y21673D01*
X12822D01*
X12875Y21620D01*
X24160Y29786D02*
Y30101D01*
X24265Y29996D01*
X24370Y30101D01*
Y29786D01*
X24685Y30049D02*
X24633Y30101D01*
X24528D01*
X24475Y30049D01*
Y29839D01*
X24528Y29786D01*
X24633D01*
X24685Y29839D01*
X25000Y29786D02*
X24790D01*
X25000Y29996D01*
Y30049D01*
X24947Y30101D01*
X24842D01*
X24790Y30049D01*
X21063Y50829D02*
Y51144D01*
X21168Y51039D01*
X21273Y51144D01*
Y50829D01*
X21588Y51092D02*
X21535Y51144D01*
X21430D01*
X21378Y51092D01*
Y50882D01*
X21430Y50829D01*
X21535D01*
X21588Y50882D01*
X21693Y50829D02*
X21798D01*
X21745D01*
Y51144D01*
X21693Y51092D01*
X56723Y28590D02*
Y28328D01*
X56775Y28275D01*
X56880D01*
X56933Y28328D01*
Y28590D01*
X57248Y28275D02*
X57038D01*
X57248Y28485D01*
Y28537D01*
X57195Y28590D01*
X57090D01*
X57038Y28537D01*
X57352Y28223D02*
X57562D01*
X57877Y28537D02*
X57825Y28590D01*
X57720D01*
X57667Y28537D01*
Y28328D01*
X57720Y28275D01*
X57825D01*
X57877Y28328D01*
X62142Y61419D02*
Y61734D01*
X62299D01*
X62351Y61681D01*
Y61576D01*
X62299Y61524D01*
X62142D01*
X62247D02*
X62351Y61419D01*
X62456D02*
X62561D01*
X62509D01*
Y61734D01*
X62456Y61681D01*
X62719D02*
X62771Y61734D01*
X62876D01*
X62929Y61681D01*
Y61471D01*
X62876Y61419D01*
X62771D01*
X62719Y61471D01*
Y61681D01*
X63034Y61366D02*
X63244D01*
X63349Y61734D02*
Y61419D01*
Y61576D01*
X63558D01*
Y61734D01*
Y61419D01*
X62242Y54369D02*
Y54684D01*
X62399D01*
X62451Y54631D01*
Y54526D01*
X62399Y54474D01*
X62242D01*
X62347D02*
X62451Y54369D01*
X62556D02*
X62661D01*
X62609D01*
Y54684D01*
X62556Y54631D01*
X62819D02*
X62871Y54684D01*
X62976D01*
X63029Y54631D01*
Y54421D01*
X62976Y54369D01*
X62871D01*
X62819Y54421D01*
Y54631D01*
X63134Y54316D02*
X63344D01*
X63658Y54631D02*
X63606Y54684D01*
X63501D01*
X63449Y54631D01*
Y54421D01*
X63501Y54369D01*
X63606D01*
X63658Y54421D01*
Y54526D01*
X63553D01*
X62242Y47369D02*
Y47684D01*
X62399D01*
X62451Y47631D01*
Y47526D01*
X62399Y47474D01*
X62242D01*
X62347D02*
X62451Y47369D01*
X62556D02*
X62661D01*
X62609D01*
Y47684D01*
X62556Y47631D01*
X62819D02*
X62871Y47684D01*
X62976D01*
X63029Y47631D01*
Y47421D01*
X62976Y47369D01*
X62871D01*
X62819Y47421D01*
Y47631D01*
X63134Y47316D02*
X63344D01*
X63658Y47684D02*
X63449D01*
Y47526D01*
X63553D01*
X63449D01*
Y47369D01*
X62342Y40369D02*
Y40684D01*
X62499D01*
X62551Y40631D01*
Y40526D01*
X62499Y40474D01*
X62342D01*
X62447D02*
X62551Y40369D01*
X62656D02*
X62761D01*
X62709D01*
Y40684D01*
X62656Y40631D01*
X62919D02*
X62971Y40684D01*
X63076D01*
X63129Y40631D01*
Y40421D01*
X63076Y40369D01*
X62971D01*
X62919Y40421D01*
Y40631D01*
X63234Y40316D02*
X63444D01*
X63758Y40684D02*
X63549D01*
Y40369D01*
X63758D01*
X63549Y40526D02*
X63653D01*
X62192Y33319D02*
Y33634D01*
X62349D01*
X62401Y33581D01*
Y33476D01*
X62349Y33424D01*
X62192D01*
X62297D02*
X62401Y33319D01*
X62506D02*
X62611D01*
X62559D01*
Y33634D01*
X62506Y33581D01*
X62769D02*
X62821Y33634D01*
X62926D01*
X62979Y33581D01*
Y33371D01*
X62926Y33319D01*
X62821D01*
X62769Y33371D01*
Y33581D01*
X63084Y33266D02*
X63294D01*
X63399Y33634D02*
Y33319D01*
X63556D01*
X63608Y33371D01*
Y33581D01*
X63556Y33634D01*
X63399D01*
X62192Y26319D02*
Y26634D01*
X62349D01*
X62401Y26581D01*
Y26476D01*
X62349Y26424D01*
X62192D01*
X62297D02*
X62401Y26319D01*
X62506D02*
X62611D01*
X62559D01*
Y26634D01*
X62506Y26581D01*
X62769D02*
X62821Y26634D01*
X62926D01*
X62979Y26581D01*
Y26371D01*
X62926Y26319D01*
X62821D01*
X62769Y26371D01*
Y26581D01*
X63084Y26266D02*
X63294D01*
X63608Y26581D02*
X63556Y26634D01*
X63451D01*
X63399Y26581D01*
Y26371D01*
X63451Y26319D01*
X63556D01*
X63608Y26371D01*
X62242Y19328D02*
Y19643D01*
X62399D01*
X62452Y19591D01*
Y19486D01*
X62399Y19433D01*
X62242D01*
X62347D02*
X62452Y19328D01*
X62556D02*
X62661D01*
X62609D01*
Y19643D01*
X62556Y19591D01*
X62819D02*
X62871Y19643D01*
X62976D01*
X63029Y19591D01*
Y19381D01*
X62976Y19328D01*
X62871D01*
X62819Y19381D01*
Y19591D01*
X63134Y19276D02*
X63344D01*
X63449Y19643D02*
Y19328D01*
X63606D01*
X63658Y19381D01*
Y19433D01*
X63606Y19486D01*
X63449D01*
X63606D01*
X63658Y19538D01*
Y19591D01*
X63606Y19643D01*
X63449D01*
X62192Y12319D02*
Y12634D01*
X62349D01*
X62401Y12581D01*
Y12476D01*
X62349Y12424D01*
X62192D01*
X62297D02*
X62401Y12319D01*
X62506D02*
X62611D01*
X62559D01*
Y12634D01*
X62506Y12581D01*
X62769D02*
X62821Y12634D01*
X62926D01*
X62979Y12581D01*
Y12371D01*
X62926Y12319D01*
X62821D01*
X62769Y12371D01*
Y12581D01*
X63084Y12266D02*
X63294D01*
X63399Y12319D02*
Y12529D01*
X63503Y12634D01*
X63608Y12529D01*
Y12319D01*
Y12476D01*
X63399D01*
X60931Y62213D02*
X60616D01*
Y62370D01*
X60669Y62423D01*
X60774D01*
X60826Y62370D01*
Y62213D01*
Y62318D02*
X60931Y62423D01*
X60879Y62528D02*
X60931Y62580D01*
Y62685D01*
X60879Y62738D01*
X60669D01*
X60616Y62685D01*
Y62580D01*
X60669Y62528D01*
X60721D01*
X60774Y62580D01*
Y62738D01*
X60984Y62842D02*
Y63052D01*
X60616Y63157D02*
X60931D01*
X60774D01*
Y63367D01*
X60616D01*
X60931D01*
X60931Y60516D02*
X60616D01*
Y60674D01*
X60669Y60726D01*
X60774D01*
X60826Y60674D01*
Y60516D01*
Y60621D02*
X60931Y60726D01*
X60669Y60831D02*
X60616Y60884D01*
Y60989D01*
X60669Y61041D01*
X60721D01*
X60774Y60989D01*
X60826Y61041D01*
X60879D01*
X60931Y60989D01*
Y60884D01*
X60879Y60831D01*
X60826D01*
X60774Y60884D01*
X60721Y60831D01*
X60669D01*
X60774Y60884D02*
Y60989D01*
X60984Y61146D02*
Y61356D01*
X60616Y61461D02*
X60931D01*
X60774D01*
Y61671D01*
X60616D01*
X60931D01*
X60931Y55223D02*
X60616D01*
Y55380D01*
X60669Y55433D01*
X60774D01*
X60826Y55380D01*
Y55223D01*
Y55328D02*
X60931Y55433D01*
X60879Y55538D02*
X60931Y55590D01*
Y55695D01*
X60879Y55748D01*
X60669D01*
X60616Y55695D01*
Y55590D01*
X60669Y55538D01*
X60721D01*
X60774Y55590D01*
Y55748D01*
X60984Y55852D02*
Y56062D01*
X60669Y56377D02*
X60616Y56325D01*
Y56220D01*
X60669Y56167D01*
X60879D01*
X60931Y56220D01*
Y56325D01*
X60879Y56377D01*
X60774D01*
Y56272D01*
X60931Y53623D02*
X60616D01*
Y53780D01*
X60669Y53833D01*
X60774D01*
X60826Y53780D01*
Y53623D01*
Y53728D02*
X60931Y53833D01*
X60669Y53938D02*
X60616Y53990D01*
Y54095D01*
X60669Y54148D01*
X60721D01*
X60774Y54095D01*
X60826Y54148D01*
X60879D01*
X60931Y54095D01*
Y53990D01*
X60879Y53938D01*
X60826D01*
X60774Y53990D01*
X60721Y53938D01*
X60669D01*
X60774Y53990D02*
Y54095D01*
X60984Y54252D02*
Y54462D01*
X60669Y54777D02*
X60616Y54725D01*
Y54620D01*
X60669Y54567D01*
X60879D01*
X60931Y54620D01*
Y54725D01*
X60879Y54777D01*
X60774D01*
Y54672D01*
X60994Y48213D02*
X60679D01*
Y48370D01*
X60732Y48423D01*
X60837D01*
X60889Y48370D01*
Y48213D01*
Y48318D02*
X60994Y48423D01*
X60941Y48528D02*
X60994Y48580D01*
Y48685D01*
X60941Y48738D01*
X60732D01*
X60679Y48685D01*
Y48580D01*
X60732Y48528D01*
X60784D01*
X60837Y48580D01*
Y48738D01*
X61046Y48842D02*
Y49052D01*
X60679Y49367D02*
Y49157D01*
X60837D01*
Y49262D01*
Y49157D01*
X60994D01*
X60931Y46673D02*
X60616D01*
Y46830D01*
X60669Y46883D01*
X60774D01*
X60826Y46830D01*
Y46673D01*
Y46778D02*
X60931Y46883D01*
X60669Y46988D02*
X60616Y47040D01*
Y47145D01*
X60669Y47198D01*
X60721D01*
X60774Y47145D01*
X60826Y47198D01*
X60879D01*
X60931Y47145D01*
Y47040D01*
X60879Y46988D01*
X60826D01*
X60774Y47040D01*
X60721Y46988D01*
X60669D01*
X60774Y47040D02*
Y47145D01*
X60984Y47302D02*
Y47512D01*
X60616Y47827D02*
Y47617D01*
X60774D01*
Y47722D01*
Y47617D01*
X60931D01*
X60931Y41273D02*
X60616D01*
Y41430D01*
X60669Y41483D01*
X60774D01*
X60826Y41430D01*
Y41273D01*
Y41378D02*
X60931Y41483D01*
X60879Y41588D02*
X60931Y41640D01*
Y41745D01*
X60879Y41798D01*
X60669D01*
X60616Y41745D01*
Y41640D01*
X60669Y41588D01*
X60721D01*
X60774Y41640D01*
Y41798D01*
X60984Y41902D02*
Y42112D01*
X60616Y42427D02*
Y42217D01*
X60931D01*
Y42427D01*
X60774Y42217D02*
Y42322D01*
X60931Y39623D02*
X60616D01*
Y39780D01*
X60669Y39833D01*
X60774D01*
X60826Y39780D01*
Y39623D01*
Y39728D02*
X60931Y39833D01*
X60669Y39938D02*
X60616Y39990D01*
Y40095D01*
X60669Y40148D01*
X60721D01*
X60774Y40095D01*
X60826Y40148D01*
X60879D01*
X60931Y40095D01*
Y39990D01*
X60879Y39938D01*
X60826D01*
X60774Y39990D01*
X60721Y39938D01*
X60669D01*
X60774Y39990D02*
Y40095D01*
X60984Y40252D02*
Y40462D01*
X60616Y40777D02*
Y40567D01*
X60931D01*
Y40777D01*
X60774Y40567D02*
Y40672D01*
X60931Y34273D02*
X60616D01*
Y34430D01*
X60669Y34483D01*
X60774D01*
X60826Y34430D01*
Y34273D01*
Y34378D02*
X60931Y34483D01*
X60879Y34588D02*
X60931Y34640D01*
Y34745D01*
X60879Y34798D01*
X60669D01*
X60616Y34745D01*
Y34640D01*
X60669Y34588D01*
X60721D01*
X60774Y34640D01*
Y34798D01*
X60984Y34902D02*
Y35112D01*
X60616Y35217D02*
X60931D01*
Y35375D01*
X60879Y35427D01*
X60669D01*
X60616Y35375D01*
Y35217D01*
X60931Y32516D02*
X60616D01*
Y32674D01*
X60669Y32726D01*
X60774D01*
X60826Y32674D01*
Y32516D01*
Y32621D02*
X60931Y32726D01*
X60669Y32831D02*
X60616Y32884D01*
Y32989D01*
X60669Y33041D01*
X60721D01*
X60774Y32989D01*
X60826Y33041D01*
X60879D01*
X60931Y32989D01*
Y32884D01*
X60879Y32831D01*
X60826D01*
X60774Y32884D01*
X60721Y32831D01*
X60669D01*
X60774Y32884D02*
Y32989D01*
X60984Y33146D02*
Y33356D01*
X60616Y33461D02*
X60931D01*
Y33618D01*
X60879Y33671D01*
X60669D01*
X60616Y33618D01*
Y33461D01*
X60928Y27213D02*
X60613D01*
Y27370D01*
X60665Y27423D01*
X60770D01*
X60823Y27370D01*
Y27213D01*
Y27318D02*
X60928Y27423D01*
X60875Y27528D02*
X60928Y27580D01*
Y27685D01*
X60875Y27738D01*
X60665D01*
X60613Y27685D01*
Y27580D01*
X60665Y27528D01*
X60718D01*
X60770Y27580D01*
Y27738D01*
X60980Y27842D02*
Y28052D01*
X60665Y28367D02*
X60613Y28315D01*
Y28210D01*
X60665Y28157D01*
X60875D01*
X60928Y28210D01*
Y28315D01*
X60875Y28367D01*
X60928Y25673D02*
X60613D01*
Y25830D01*
X60665Y25883D01*
X60770D01*
X60823Y25830D01*
Y25673D01*
Y25778D02*
X60928Y25883D01*
X60665Y25988D02*
X60613Y26040D01*
Y26145D01*
X60665Y26198D01*
X60718D01*
X60770Y26145D01*
X60823Y26198D01*
X60875D01*
X60928Y26145D01*
Y26040D01*
X60875Y25988D01*
X60823D01*
X60770Y26040D01*
X60718Y25988D01*
X60665D01*
X60770Y26040D02*
Y26145D01*
X60980Y26302D02*
Y26512D01*
X60665Y26827D02*
X60613Y26775D01*
Y26670D01*
X60665Y26617D01*
X60875D01*
X60928Y26670D01*
Y26775D01*
X60875Y26827D01*
X60928Y18679D02*
X60613D01*
Y18837D01*
X60665Y18889D01*
X60770D01*
X60823Y18837D01*
Y18679D01*
Y18784D02*
X60928Y18889D01*
X60665Y18994D02*
X60613Y19047D01*
Y19152D01*
X60665Y19204D01*
X60718D01*
X60770Y19152D01*
X60823Y19204D01*
X60875D01*
X60928Y19152D01*
Y19047D01*
X60875Y18994D01*
X60823D01*
X60770Y19047D01*
X60718Y18994D01*
X60665D01*
X60770Y19047D02*
Y19152D01*
X60980Y19309D02*
Y19519D01*
X60613Y19624D02*
X60928D01*
Y19781D01*
X60875Y19834D01*
X60823D01*
X60770Y19781D01*
Y19624D01*
Y19781D01*
X60718Y19834D01*
X60665D01*
X60613Y19781D01*
Y19624D01*
X60928Y20179D02*
X60613D01*
Y20337D01*
X60665Y20389D01*
X60770D01*
X60823Y20337D01*
Y20179D01*
Y20284D02*
X60928Y20389D01*
X60875Y20494D02*
X60928Y20547D01*
Y20652D01*
X60875Y20704D01*
X60665D01*
X60613Y20652D01*
Y20547D01*
X60665Y20494D01*
X60718D01*
X60770Y20547D01*
Y20704D01*
X60980Y20809D02*
Y21019D01*
X60613Y21124D02*
X60928D01*
Y21281D01*
X60875Y21334D01*
X60823D01*
X60770Y21281D01*
Y21124D01*
Y21281D01*
X60718Y21334D01*
X60665D01*
X60613Y21281D01*
Y21124D01*
X60928Y13423D02*
X60613D01*
Y13580D01*
X60665Y13633D01*
X60770D01*
X60823Y13580D01*
Y13423D01*
Y13528D02*
X60928Y13633D01*
X60875Y13738D02*
X60928Y13790D01*
Y13895D01*
X60875Y13948D01*
X60665D01*
X60613Y13895D01*
Y13790D01*
X60665Y13738D01*
X60718D01*
X60770Y13790D01*
Y13948D01*
X60980Y14052D02*
Y14262D01*
X60928Y14367D02*
X60718D01*
X60613Y14472D01*
X60718Y14577D01*
X60928D01*
X60770D01*
Y14367D01*
X60931Y11573D02*
X60616D01*
Y11730D01*
X60669Y11783D01*
X60774D01*
X60826Y11730D01*
Y11573D01*
Y11678D02*
X60931Y11783D01*
X60669Y11888D02*
X60616Y11940D01*
Y12045D01*
X60669Y12098D01*
X60721D01*
X60774Y12045D01*
X60826Y12098D01*
X60879D01*
X60931Y12045D01*
Y11940D01*
X60879Y11888D01*
X60826D01*
X60774Y11940D01*
X60721Y11888D01*
X60669D01*
X60774Y11940D02*
Y12045D01*
X60984Y12202D02*
Y12412D01*
X60931Y12517D02*
X60721D01*
X60616Y12622D01*
X60721Y12727D01*
X60931D01*
X60774D01*
Y12517D01*
X56823Y63590D02*
Y63328D01*
X56875Y63275D01*
X56980D01*
X57033Y63328D01*
Y63590D01*
X57348Y63275D02*
X57138D01*
X57348Y63485D01*
Y63537D01*
X57295Y63590D01*
X57190D01*
X57138Y63537D01*
X57452Y63223D02*
X57662D01*
X57767Y63590D02*
Y63275D01*
Y63433D01*
X57977D01*
Y63590D01*
Y63275D01*
X56673Y56590D02*
Y56328D01*
X56725Y56275D01*
X56830D01*
X56883Y56328D01*
Y56590D01*
X57198Y56275D02*
X56988D01*
X57198Y56485D01*
Y56537D01*
X57145Y56590D01*
X57040D01*
X56988Y56537D01*
X57302Y56223D02*
X57512D01*
X57827Y56537D02*
X57775Y56590D01*
X57670D01*
X57617Y56537D01*
Y56328D01*
X57670Y56275D01*
X57775D01*
X57827Y56328D01*
Y56433D01*
X57722D01*
X56723Y49590D02*
Y49328D01*
X56775Y49275D01*
X56880D01*
X56933Y49328D01*
Y49590D01*
X57248Y49275D02*
X57038D01*
X57248Y49485D01*
Y49537D01*
X57195Y49590D01*
X57090D01*
X57038Y49537D01*
X57352Y49223D02*
X57562D01*
X57877Y49590D02*
X57667D01*
Y49433D01*
X57772D01*
X57667D01*
Y49275D01*
X56873Y42684D02*
Y42421D01*
X56925Y42369D01*
X57030D01*
X57083Y42421D01*
Y42684D01*
X57398Y42369D02*
X57188D01*
X57398Y42579D01*
Y42631D01*
X57345Y42684D01*
X57240D01*
X57188Y42631D01*
X57502Y42316D02*
X57712D01*
X58027Y42684D02*
X57817D01*
Y42369D01*
X58027D01*
X57817Y42526D02*
X57922D01*
X56723Y35590D02*
Y35328D01*
X56775Y35275D01*
X56880D01*
X56933Y35328D01*
Y35590D01*
X57248Y35275D02*
X57038D01*
X57248Y35485D01*
Y35537D01*
X57195Y35590D01*
X57090D01*
X57038Y35537D01*
X57352Y35223D02*
X57562D01*
X57667Y35590D02*
Y35275D01*
X57825D01*
X57877Y35328D01*
Y35537D01*
X57825Y35590D01*
X57667D01*
X56531Y21684D02*
Y21421D01*
X56583Y21369D01*
X56688D01*
X56741Y21421D01*
Y21684D01*
X57056Y21369D02*
X56846D01*
X57056Y21579D01*
Y21631D01*
X57003Y21684D01*
X56898D01*
X56846Y21631D01*
X57161Y21316D02*
X57371D01*
X57476Y21684D02*
Y21369D01*
X57633D01*
X57686Y21421D01*
Y21474D01*
X57633Y21526D01*
X57476D01*
X57633D01*
X57686Y21579D01*
Y21631D01*
X57633Y21684D01*
X57476D01*
X56669Y14572D02*
Y14309D01*
X56721Y14257D01*
X56826D01*
X56879Y14309D01*
Y14572D01*
X57194Y14257D02*
X56984D01*
X57194Y14467D01*
Y14519D01*
X57141Y14572D01*
X57036D01*
X56984Y14519D01*
X57299Y14204D02*
X57508D01*
X57613Y14257D02*
Y14467D01*
X57718Y14572D01*
X57823Y14467D01*
Y14257D01*
Y14414D01*
X57613D01*
X56749Y67284D02*
Y67021D01*
X56801Y66969D01*
X56906D01*
X56959Y67021D01*
Y67284D01*
X57064Y66969D02*
X57169D01*
X57116D01*
Y67284D01*
X57064Y67231D01*
X57326Y66916D02*
X57536D01*
X57641Y67284D02*
Y66969D01*
Y67126D01*
X57851D01*
Y67284D01*
Y66969D01*
X56749Y60234D02*
Y59971D01*
X56801Y59919D01*
X56906D01*
X56959Y59971D01*
Y60234D01*
X57064Y59919D02*
X57169D01*
X57116D01*
Y60234D01*
X57064Y60181D01*
X57326Y59866D02*
X57536D01*
X57851Y60181D02*
X57799Y60234D01*
X57694D01*
X57641Y60181D01*
Y59971D01*
X57694Y59919D01*
X57799D01*
X57851Y59971D01*
Y60076D01*
X57746D01*
X56749Y53234D02*
Y52971D01*
X56801Y52919D01*
X56906D01*
X56959Y52971D01*
Y53234D01*
X57064Y52919D02*
X57169D01*
X57116D01*
Y53234D01*
X57064Y53181D01*
X57326Y52866D02*
X57536D01*
X57851Y53234D02*
X57641D01*
Y53076D01*
X57746D01*
X57641D01*
Y52919D01*
X56749Y46234D02*
Y45971D01*
X56801Y45919D01*
X56906D01*
X56959Y45971D01*
Y46234D01*
X57064Y45919D02*
X57169D01*
X57116D01*
Y46234D01*
X57064Y46181D01*
X57326Y45866D02*
X57536D01*
X57851Y46234D02*
X57641D01*
Y45919D01*
X57851D01*
X57641Y46076D02*
X57746D01*
X56749Y39234D02*
Y38971D01*
X56801Y38919D01*
X56906D01*
X56959Y38971D01*
Y39234D01*
X57064Y38919D02*
X57169D01*
X57116D01*
Y39234D01*
X57064Y39181D01*
X57326Y38866D02*
X57536D01*
X57641Y39234D02*
Y38919D01*
X57799D01*
X57851Y38971D01*
Y39181D01*
X57799Y39234D01*
X57641D01*
X56749Y32234D02*
Y31971D01*
X56801Y31919D01*
X56906D01*
X56959Y31971D01*
Y32234D01*
X57064Y31919D02*
X57169D01*
X57116D01*
Y32234D01*
X57064Y32181D01*
X57326Y31866D02*
X57536D01*
X57851Y32181D02*
X57799Y32234D01*
X57694D01*
X57641Y32181D01*
Y31971D01*
X57694Y31919D01*
X57799D01*
X57851Y31971D01*
X56557Y25234D02*
Y24971D01*
X56610Y24919D01*
X56715D01*
X56767Y24971D01*
Y25234D01*
X56872Y24919D02*
X56977D01*
X56925D01*
Y25234D01*
X56872Y25181D01*
X57135Y24866D02*
X57344D01*
X57449Y25234D02*
Y24919D01*
X57607D01*
X57659Y24971D01*
Y25024D01*
X57607Y25076D01*
X57449D01*
X57607D01*
X57659Y25129D01*
Y25181D01*
X57607Y25234D01*
X57449D01*
X56699Y18234D02*
Y17971D01*
X56751Y17919D01*
X56856D01*
X56909Y17971D01*
Y18234D01*
X57014Y17919D02*
X57119D01*
X57066D01*
Y18234D01*
X57014Y18181D01*
X57276Y17866D02*
X57486D01*
X57591Y17919D02*
Y18129D01*
X57696Y18234D01*
X57801Y18129D01*
Y17919D01*
Y18076D01*
X57591D01*
X29572Y69255D02*
X29519Y69307D01*
X29414D01*
X29362Y69255D01*
Y69202D01*
X29414Y69150D01*
X29519D01*
X29572Y69098D01*
Y69045D01*
X29519Y68993D01*
X29414D01*
X29362Y69045D01*
X29677Y68993D02*
X29782D01*
X29729D01*
Y69307D01*
X29677Y69255D01*
X53223Y63610D02*
Y63925D01*
X53380D01*
X53433Y63872D01*
Y63767D01*
X53380Y63715D01*
X53223D01*
X53328D02*
X53433Y63610D01*
X53538Y63925D02*
X53748D01*
Y63872D01*
X53538Y63662D01*
Y63610D01*
X53852Y63558D02*
X54062D01*
X54167Y63925D02*
Y63610D01*
Y63767D01*
X54377D01*
Y63925D01*
Y63610D01*
X53223Y56669D02*
Y56984D01*
X53380D01*
X53433Y56931D01*
Y56826D01*
X53380Y56774D01*
X53223D01*
X53328D02*
X53433Y56669D01*
X53538Y56984D02*
X53748D01*
Y56931D01*
X53538Y56721D01*
Y56669D01*
X53852Y56616D02*
X54062D01*
X54377Y56931D02*
X54325Y56984D01*
X54220D01*
X54167Y56931D01*
Y56721D01*
X54220Y56669D01*
X54325D01*
X54377Y56721D01*
Y56826D01*
X54272D01*
X53223Y49569D02*
Y49884D01*
X53380D01*
X53433Y49831D01*
Y49726D01*
X53380Y49674D01*
X53223D01*
X53328D02*
X53433Y49569D01*
X53538Y49884D02*
X53748D01*
Y49831D01*
X53538Y49621D01*
Y49569D01*
X53852Y49516D02*
X54062D01*
X54377Y49884D02*
X54167D01*
Y49726D01*
X54272D01*
X54167D01*
Y49569D01*
X53223Y42669D02*
Y42984D01*
X53380D01*
X53433Y42931D01*
Y42826D01*
X53380Y42774D01*
X53223D01*
X53328D02*
X53433Y42669D01*
X53538Y42984D02*
X53748D01*
Y42931D01*
X53538Y42721D01*
Y42669D01*
X53852Y42616D02*
X54062D01*
X54377Y42984D02*
X54167D01*
Y42669D01*
X54377D01*
X54167Y42826D02*
X54272D01*
X53223Y35619D02*
Y35934D01*
X53380D01*
X53433Y35881D01*
Y35776D01*
X53380Y35724D01*
X53223D01*
X53328D02*
X53433Y35619D01*
X53538Y35934D02*
X53748D01*
Y35881D01*
X53538Y35671D01*
Y35619D01*
X53852Y35566D02*
X54062D01*
X54167Y35934D02*
Y35619D01*
X54325D01*
X54377Y35671D01*
Y35881D01*
X54325Y35934D01*
X54167D01*
X53223Y28719D02*
Y29034D01*
X53380D01*
X53433Y28981D01*
Y28876D01*
X53380Y28824D01*
X53223D01*
X53328D02*
X53433Y28719D01*
X53538Y29034D02*
X53748D01*
Y28981D01*
X53538Y28771D01*
Y28719D01*
X53852Y28666D02*
X54062D01*
X54377Y28981D02*
X54325Y29034D01*
X54220D01*
X54167Y28981D01*
Y28771D01*
X54220Y28719D01*
X54325D01*
X54377Y28771D01*
X53223Y21619D02*
Y21934D01*
X53380D01*
X53433Y21881D01*
Y21776D01*
X53380Y21724D01*
X53223D01*
X53328D02*
X53433Y21619D01*
X53538Y21934D02*
X53748D01*
Y21881D01*
X53538Y21671D01*
Y21619D01*
X53852Y21566D02*
X54062D01*
X54167Y21934D02*
Y21619D01*
X54325D01*
X54377Y21671D01*
Y21724D01*
X54325Y21776D01*
X54167D01*
X54325D01*
X54377Y21829D01*
Y21881D01*
X54325Y21934D01*
X54167D01*
X53123Y14619D02*
Y14934D01*
X53280D01*
X53333Y14881D01*
Y14776D01*
X53280Y14724D01*
X53123D01*
X53228D02*
X53333Y14619D01*
X53438Y14934D02*
X53648D01*
Y14881D01*
X53438Y14671D01*
Y14619D01*
X53752Y14566D02*
X53962D01*
X54067Y14619D02*
Y14829D01*
X54172Y14934D01*
X54277Y14829D01*
Y14619D01*
Y14776D01*
X54067D01*
X64073Y62659D02*
Y62974D01*
X64230D01*
X64283Y62921D01*
Y62816D01*
X64230Y62764D01*
X64073D01*
X64178D02*
X64283Y62659D01*
X64598Y62974D02*
X64493Y62921D01*
X64388Y62816D01*
Y62711D01*
X64440Y62659D01*
X64545D01*
X64598Y62711D01*
Y62764D01*
X64545Y62816D01*
X64388D01*
X64702Y62606D02*
X64912D01*
X65017Y62974D02*
Y62659D01*
Y62816D01*
X65227D01*
Y62974D01*
Y62659D01*
X63973Y55669D02*
Y55984D01*
X64130D01*
X64183Y55931D01*
Y55826D01*
X64130Y55774D01*
X63973D01*
X64078D02*
X64183Y55669D01*
X64498Y55984D02*
X64393Y55931D01*
X64288Y55826D01*
Y55721D01*
X64340Y55669D01*
X64445D01*
X64498Y55721D01*
Y55774D01*
X64445Y55826D01*
X64288D01*
X64602Y55616D02*
X64812D01*
X65127Y55931D02*
X65075Y55984D01*
X64970D01*
X64917Y55931D01*
Y55721D01*
X64970Y55669D01*
X65075D01*
X65127Y55721D01*
Y55826D01*
X65022D01*
X64073Y48659D02*
Y48974D01*
X64230D01*
X64283Y48921D01*
Y48816D01*
X64230Y48764D01*
X64073D01*
X64178D02*
X64283Y48659D01*
X64598Y48974D02*
X64493Y48921D01*
X64388Y48816D01*
Y48711D01*
X64440Y48659D01*
X64545D01*
X64598Y48711D01*
Y48764D01*
X64545Y48816D01*
X64388D01*
X64702Y48606D02*
X64912D01*
X65227Y48974D02*
X65017D01*
Y48816D01*
X65122D01*
X65017D01*
Y48659D01*
X64073Y41619D02*
Y41934D01*
X64230D01*
X64283Y41881D01*
Y41776D01*
X64230Y41724D01*
X64073D01*
X64178D02*
X64283Y41619D01*
X64598Y41934D02*
X64493Y41881D01*
X64388Y41776D01*
Y41671D01*
X64440Y41619D01*
X64545D01*
X64598Y41671D01*
Y41724D01*
X64545Y41776D01*
X64388D01*
X64702Y41566D02*
X64912D01*
X65227Y41934D02*
X65017D01*
Y41619D01*
X65227D01*
X65017Y41776D02*
X65122D01*
X63970Y34659D02*
Y34974D01*
X64127D01*
X64180Y34921D01*
Y34816D01*
X64127Y34764D01*
X63970D01*
X64075D02*
X64180Y34659D01*
X64495Y34974D02*
X64390Y34921D01*
X64285Y34816D01*
Y34711D01*
X64337Y34659D01*
X64442D01*
X64495Y34711D01*
Y34764D01*
X64442Y34816D01*
X64285D01*
X64600Y34606D02*
X64810D01*
X64915Y34974D02*
Y34659D01*
X65072D01*
X65124Y34711D01*
Y34921D01*
X65072Y34974D01*
X64915D01*
X63970Y27659D02*
Y27974D01*
X64127D01*
X64180Y27921D01*
Y27816D01*
X64127Y27764D01*
X63970D01*
X64075D02*
X64180Y27659D01*
X64495Y27974D02*
X64390Y27921D01*
X64285Y27816D01*
Y27711D01*
X64337Y27659D01*
X64442D01*
X64495Y27711D01*
Y27764D01*
X64442Y27816D01*
X64285D01*
X64600Y27606D02*
X64810D01*
X65124Y27921D02*
X65072Y27974D01*
X64967D01*
X64915Y27921D01*
Y27711D01*
X64967Y27659D01*
X65072D01*
X65124Y27711D01*
X64123Y20625D02*
Y20940D01*
X64280D01*
X64333Y20888D01*
Y20783D01*
X64280Y20730D01*
X64123D01*
X64228D02*
X64333Y20625D01*
X64648Y20940D02*
X64543Y20888D01*
X64438Y20783D01*
Y20678D01*
X64490Y20625D01*
X64595D01*
X64648Y20678D01*
Y20730D01*
X64595Y20783D01*
X64438D01*
X64752Y20573D02*
X64962D01*
X65067Y20940D02*
Y20625D01*
X65225D01*
X65277Y20678D01*
Y20730D01*
X65225Y20783D01*
X65067D01*
X65225D01*
X65277Y20835D01*
Y20888D01*
X65225Y20940D01*
X65067D01*
X64123Y13619D02*
Y13934D01*
X64280D01*
X64333Y13881D01*
Y13776D01*
X64280Y13724D01*
X64123D01*
X64228D02*
X64333Y13619D01*
X64648Y13934D02*
X64543Y13881D01*
X64438Y13776D01*
Y13671D01*
X64490Y13619D01*
X64595D01*
X64648Y13671D01*
Y13724D01*
X64595Y13776D01*
X64438D01*
X64752Y13566D02*
X64962D01*
X65067Y13619D02*
Y13829D01*
X65172Y13934D01*
X65277Y13829D01*
Y13619D01*
Y13776D01*
X65067D01*
X29600Y65800D02*
Y66115D01*
X29757D01*
X29810Y66062D01*
Y65957D01*
X29757Y65905D01*
X29600D01*
X29705D02*
X29810Y65800D01*
X30125Y66115D02*
X29915D01*
Y65957D01*
X30020Y66010D01*
X30072D01*
X30125Y65957D01*
Y65852D01*
X30072Y65800D01*
X29967D01*
X29915Y65852D01*
X29600Y62593D02*
Y62907D01*
X29757D01*
X29810Y62855D01*
Y62750D01*
X29757Y62698D01*
X29600D01*
X29705D02*
X29810Y62593D01*
X30072D02*
Y62907D01*
X29915Y62750D01*
X30125D01*
X33300Y62593D02*
Y62907D01*
X33457D01*
X33510Y62855D01*
Y62750D01*
X33457Y62698D01*
X33300D01*
X33405D02*
X33510Y62593D01*
X33615Y62855D02*
X33667Y62907D01*
X33772D01*
X33825Y62855D01*
Y62802D01*
X33772Y62750D01*
X33720D01*
X33772D01*
X33825Y62698D01*
Y62645D01*
X33772Y62593D01*
X33667D01*
X33615Y62645D01*
X33300Y65800D02*
Y66115D01*
X33457D01*
X33510Y66062D01*
Y65957D01*
X33457Y65905D01*
X33300D01*
X33405D02*
X33510Y65800D01*
X33825D02*
X33615D01*
X33825Y66010D01*
Y66062D01*
X33772Y66115D01*
X33667D01*
X33615Y66062D01*
X64551Y67584D02*
X64447D01*
X64499D01*
Y67321D01*
X64447Y67269D01*
X64394D01*
X64342Y67321D01*
X64656Y67269D02*
X64761D01*
X64709D01*
Y67584D01*
X64656Y67531D01*
X64919D02*
X64971Y67584D01*
X65076D01*
X65129Y67531D01*
Y67321D01*
X65076Y67269D01*
X64971D01*
X64919Y67321D01*
Y67531D01*
X65234Y67216D02*
X65444D01*
X65549Y67584D02*
Y67269D01*
Y67426D01*
X65758D01*
Y67584D01*
Y67269D01*
X64701Y60684D02*
X64597D01*
X64649D01*
Y60421D01*
X64597Y60369D01*
X64544D01*
X64492Y60421D01*
X64806Y60369D02*
X64911D01*
X64859D01*
Y60684D01*
X64806Y60631D01*
X65069D02*
X65121Y60684D01*
X65226D01*
X65279Y60631D01*
Y60421D01*
X65226Y60369D01*
X65121D01*
X65069Y60421D01*
Y60631D01*
X65384Y60316D02*
X65594D01*
X65908Y60631D02*
X65856Y60684D01*
X65751D01*
X65699Y60631D01*
Y60421D01*
X65751Y60369D01*
X65856D01*
X65908Y60421D01*
Y60526D01*
X65803D01*
X64601Y53545D02*
X64497D01*
X64549D01*
Y53282D01*
X64497Y53230D01*
X64444D01*
X64392Y53282D01*
X64706Y53230D02*
X64811D01*
X64759D01*
Y53545D01*
X64706Y53492D01*
X64969D02*
X65021Y53545D01*
X65126D01*
X65179Y53492D01*
Y53282D01*
X65126Y53230D01*
X65021D01*
X64969Y53282D01*
Y53492D01*
X65284Y53178D02*
X65494D01*
X65808Y53545D02*
X65599D01*
Y53387D01*
X65703D01*
X65599D01*
Y53230D01*
X64601Y46584D02*
X64497D01*
X64549D01*
Y46321D01*
X64497Y46269D01*
X64444D01*
X64392Y46321D01*
X64706Y46269D02*
X64811D01*
X64759D01*
Y46584D01*
X64706Y46531D01*
X64969D02*
X65021Y46584D01*
X65126D01*
X65179Y46531D01*
Y46321D01*
X65126Y46269D01*
X65021D01*
X64969Y46321D01*
Y46531D01*
X65284Y46216D02*
X65494D01*
X65808Y46584D02*
X65599D01*
Y46269D01*
X65808D01*
X65599Y46426D02*
X65703D01*
X64601Y39584D02*
X64497D01*
X64549D01*
Y39321D01*
X64497Y39269D01*
X64444D01*
X64392Y39321D01*
X64706Y39269D02*
X64811D01*
X64759D01*
Y39584D01*
X64706Y39531D01*
X64969D02*
X65021Y39584D01*
X65126D01*
X65179Y39531D01*
Y39321D01*
X65126Y39269D01*
X65021D01*
X64969Y39321D01*
Y39531D01*
X65284Y39216D02*
X65494D01*
X65599Y39584D02*
Y39269D01*
X65756D01*
X65808Y39321D01*
Y39531D01*
X65756Y39584D01*
X65599D01*
X64601Y32534D02*
X64497D01*
X64549D01*
Y32271D01*
X64497Y32219D01*
X64444D01*
X64392Y32271D01*
X64706Y32219D02*
X64811D01*
X64759D01*
Y32534D01*
X64706Y32481D01*
X64969D02*
X65021Y32534D01*
X65126D01*
X65179Y32481D01*
Y32271D01*
X65126Y32219D01*
X65021D01*
X64969Y32271D01*
Y32481D01*
X65284Y32166D02*
X65494D01*
X65808Y32481D02*
X65756Y32534D01*
X65651D01*
X65599Y32481D01*
Y32271D01*
X65651Y32219D01*
X65756D01*
X65808Y32271D01*
X65101Y25534D02*
X64997D01*
X65049D01*
Y25271D01*
X64997Y25219D01*
X64944D01*
X64892Y25271D01*
X65206Y25219D02*
X65311D01*
X65259D01*
Y25534D01*
X65206Y25481D01*
X65469D02*
X65521Y25534D01*
X65626D01*
X65679Y25481D01*
Y25271D01*
X65626Y25219D01*
X65521D01*
X65469Y25271D01*
Y25481D01*
X65784Y25166D02*
X65994D01*
X66099Y25534D02*
Y25219D01*
X66256D01*
X66308Y25271D01*
Y25324D01*
X66256Y25376D01*
X66099D01*
X66256D01*
X66308Y25429D01*
Y25481D01*
X66256Y25534D01*
X66099D01*
X64905Y18535D02*
X64800D01*
X64853D01*
Y18272D01*
X64800Y18220D01*
X64748D01*
X64695Y18272D01*
X65010Y18220D02*
X65115D01*
X65062D01*
Y18535D01*
X65010Y18482D01*
X65272D02*
X65325Y18535D01*
X65430D01*
X65482Y18482D01*
Y18272D01*
X65430Y18220D01*
X65325D01*
X65272Y18272D01*
Y18482D01*
X65587Y18168D02*
X65797D01*
X65902Y18220D02*
Y18430D01*
X66007Y18535D01*
X66112Y18430D01*
Y18220D01*
Y18377D01*
X65902D01*
X13198Y67337D02*
X13093D01*
X13145D01*
Y67075D01*
X13093Y67023D01*
X13040D01*
X12988Y67075D01*
X13302D02*
X13355Y67023D01*
X13460D01*
X13512Y67075D01*
Y67285D01*
X13460Y67337D01*
X13355D01*
X13302Y67285D01*
Y67232D01*
X13355Y67180D01*
X13512D01*
X22770Y30107D02*
X22665D01*
X22717D01*
Y29845D01*
X22665Y29793D01*
X22612D01*
X22560Y29845D01*
X23085Y30107D02*
X22980Y30055D01*
X22875Y29950D01*
Y29845D01*
X22927Y29793D01*
X23032D01*
X23085Y29845D01*
Y29898D01*
X23032Y29950D01*
X22875D01*
X14398Y12507D02*
X14293D01*
X14345D01*
Y12245D01*
X14293Y12193D01*
X14240D01*
X14188Y12245D01*
X14660Y12193D02*
Y12507D01*
X14502Y12350D01*
X14712D01*
X14598Y21557D02*
X14493D01*
X14545D01*
Y21295D01*
X14493Y21243D01*
X14440D01*
X14388Y21295D01*
X14702Y21505D02*
X14755Y21557D01*
X14860D01*
X14912Y21505D01*
Y21452D01*
X14860Y21400D01*
X14807D01*
X14860D01*
X14912Y21348D01*
Y21295D01*
X14860Y21243D01*
X14755D01*
X14702Y21295D01*
X14648Y59707D02*
X14543D01*
X14595D01*
Y59445D01*
X14543Y59393D01*
X14490D01*
X14438Y59445D01*
X14962Y59393D02*
X14752D01*
X14962Y59602D01*
Y59655D01*
X14910Y59707D01*
X14805D01*
X14752Y59655D01*
X20340Y51157D02*
X20235D01*
X20288D01*
Y50895D01*
X20235Y50843D01*
X20183D01*
X20130Y50895D01*
X20445Y50843D02*
X20550D01*
X20497D01*
Y51157D01*
X20445Y51105D01*
X65953Y62842D02*
Y62528D01*
X66110D01*
X66163Y62580D01*
Y62790D01*
X66110Y62842D01*
X65953D01*
X66268Y62528D02*
X66373D01*
X66320D01*
Y62842D01*
X66268Y62790D01*
X66530Y62475D02*
X66740D01*
X66845Y62842D02*
Y62528D01*
Y62685D01*
X67055D01*
Y62842D01*
Y62528D01*
X65999Y55784D02*
Y55469D01*
X66156D01*
X66209Y55521D01*
Y55731D01*
X66156Y55784D01*
X65999D01*
X66314Y55469D02*
X66419D01*
X66366D01*
Y55784D01*
X66314Y55731D01*
X66576Y55416D02*
X66786D01*
X67101Y55731D02*
X67049Y55784D01*
X66944D01*
X66891Y55731D01*
Y55521D01*
X66944Y55469D01*
X67049D01*
X67101Y55521D01*
Y55626D01*
X66996D01*
X65996Y48843D02*
Y48528D01*
X66153D01*
X66206Y48581D01*
Y48791D01*
X66153Y48843D01*
X65996D01*
X66311Y48528D02*
X66416D01*
X66363D01*
Y48843D01*
X66311Y48791D01*
X66573Y48476D02*
X66783D01*
X67098Y48843D02*
X66888D01*
Y48686D01*
X66993D01*
X66888D01*
Y48528D01*
X65953Y41802D02*
Y41488D01*
X66110D01*
X66163Y41540D01*
Y41750D01*
X66110Y41802D01*
X65953D01*
X66268Y41488D02*
X66373D01*
X66320D01*
Y41802D01*
X66268Y41750D01*
X66530Y41435D02*
X66740D01*
X67055Y41802D02*
X66845D01*
Y41488D01*
X67055D01*
X66845Y41645D02*
X66950D01*
X65953Y34842D02*
Y34528D01*
X66110D01*
X66163Y34580D01*
Y34790D01*
X66110Y34842D01*
X65953D01*
X66268Y34528D02*
X66373D01*
X66320D01*
Y34842D01*
X66268Y34790D01*
X66530Y34475D02*
X66740D01*
X66845Y34842D02*
Y34528D01*
X67002D01*
X67055Y34580D01*
Y34790D01*
X67002Y34842D01*
X66845D01*
X65953Y27842D02*
Y27528D01*
X66110D01*
X66163Y27580D01*
Y27790D01*
X66110Y27842D01*
X65953D01*
X66268Y27528D02*
X66373D01*
X66320D01*
Y27842D01*
X66268Y27790D01*
X66530Y27475D02*
X66740D01*
X67055Y27790D02*
X67002Y27842D01*
X66898D01*
X66845Y27790D01*
Y27580D01*
X66898Y27528D01*
X67002D01*
X67055Y27580D01*
X65953Y20809D02*
Y20494D01*
X66110D01*
X66163Y20547D01*
Y20757D01*
X66110Y20809D01*
X65953D01*
X66268Y20494D02*
X66373D01*
X66320D01*
Y20809D01*
X66268Y20757D01*
X66530Y20442D02*
X66740D01*
X66845Y20809D02*
Y20494D01*
X67002D01*
X67055Y20547D01*
Y20599D01*
X67002Y20652D01*
X66845D01*
X67002D01*
X67055Y20704D01*
Y20757D01*
X67002Y20809D01*
X66845D01*
X65989Y13802D02*
Y13488D01*
X66147D01*
X66199Y13540D01*
Y13750D01*
X66147Y13802D01*
X65989D01*
X66304Y13488D02*
X66409D01*
X66357D01*
Y13802D01*
X66304Y13750D01*
X66566Y13435D02*
X66776D01*
X66881Y13488D02*
Y13698D01*
X66986Y13802D01*
X67091Y13698D01*
Y13488D01*
Y13645D01*
X66881D01*
X55312Y62762D02*
X55260Y62815D01*
X55155D01*
X55102Y62762D01*
Y62552D01*
X55155Y62500D01*
X55260D01*
X55312Y62552D01*
X55417Y62500D02*
X55522D01*
X55470D01*
Y62815D01*
X55417Y62762D01*
X55680Y62500D02*
X55785D01*
X55732D01*
Y62815D01*
X55680Y62762D01*
X55942Y62448D02*
X56152D01*
X56257Y62815D02*
Y62500D01*
Y62657D01*
X56467D01*
Y62815D01*
Y62500D01*
X55350Y55762D02*
X55297Y55815D01*
X55192D01*
X55140Y55762D01*
Y55552D01*
X55192Y55500D01*
X55297D01*
X55350Y55552D01*
X55455Y55500D02*
X55560D01*
X55507D01*
Y55815D01*
X55455Y55762D01*
X55717Y55500D02*
X55822D01*
X55770D01*
Y55815D01*
X55717Y55762D01*
X55980Y55448D02*
X56190D01*
X56504Y55762D02*
X56452Y55815D01*
X56347D01*
X56294Y55762D01*
Y55552D01*
X56347Y55500D01*
X56452D01*
X56504Y55552D01*
Y55657D01*
X56399D01*
X55350Y48631D02*
X55297Y48684D01*
X55192D01*
X55140Y48631D01*
Y48421D01*
X55192Y48369D01*
X55297D01*
X55350Y48421D01*
X55455Y48369D02*
X55560D01*
X55507D01*
Y48684D01*
X55455Y48631D01*
X55717Y48369D02*
X55822D01*
X55770D01*
Y48684D01*
X55717Y48631D01*
X55980Y48316D02*
X56190D01*
X56504Y48684D02*
X56294D01*
Y48526D01*
X56399D01*
X56294D01*
Y48369D01*
X55128Y41681D02*
X55075Y41734D01*
X54970D01*
X54918Y41681D01*
Y41471D01*
X54970Y41419D01*
X55075D01*
X55128Y41471D01*
X55233Y41419D02*
X55338D01*
X55285D01*
Y41734D01*
X55233Y41681D01*
X55495Y41419D02*
X55600D01*
X55548D01*
Y41734D01*
X55495Y41681D01*
X55757Y41366D02*
X55967D01*
X56282Y41734D02*
X56072D01*
Y41419D01*
X56282D01*
X56072Y41576D02*
X56177D01*
X55245Y34631D02*
X55192Y34684D01*
X55088D01*
X55035Y34631D01*
Y34421D01*
X55088Y34369D01*
X55192D01*
X55245Y34421D01*
X55350Y34369D02*
X55455D01*
X55402D01*
Y34684D01*
X55350Y34631D01*
X55612Y34369D02*
X55717D01*
X55665D01*
Y34684D01*
X55612Y34631D01*
X55875Y34316D02*
X56085D01*
X56190Y34684D02*
Y34369D01*
X56347D01*
X56399Y34421D01*
Y34631D01*
X56347Y34684D01*
X56190D01*
X55350Y27631D02*
X55297Y27684D01*
X55192D01*
X55140Y27631D01*
Y27421D01*
X55192Y27369D01*
X55297D01*
X55350Y27421D01*
X55455Y27369D02*
X55560D01*
X55507D01*
Y27684D01*
X55455Y27631D01*
X55717Y27369D02*
X55822D01*
X55770D01*
Y27684D01*
X55717Y27631D01*
X55980Y27316D02*
X56190D01*
X56504Y27631D02*
X56452Y27684D01*
X56347D01*
X56294Y27631D01*
Y27421D01*
X56347Y27369D01*
X56452D01*
X56504Y27421D01*
X55180Y20670D02*
X55127Y20722D01*
X55022D01*
X54970Y20670D01*
Y20460D01*
X55022Y20407D01*
X55127D01*
X55180Y20460D01*
X55285Y20407D02*
X55390D01*
X55337D01*
Y20722D01*
X55285Y20670D01*
X55547Y20407D02*
X55652D01*
X55599D01*
Y20722D01*
X55547Y20670D01*
X55809Y20355D02*
X56019D01*
X56124Y20722D02*
Y20407D01*
X56282D01*
X56334Y20460D01*
Y20512D01*
X56282Y20565D01*
X56124D01*
X56282D01*
X56334Y20617D01*
Y20670D01*
X56282Y20722D01*
X56124D01*
X55222Y13575D02*
X55170Y13628D01*
X55065D01*
X55012Y13575D01*
Y13365D01*
X55065Y13313D01*
X55170D01*
X55222Y13365D01*
X55327Y13313D02*
X55432D01*
X55380D01*
Y13628D01*
X55327Y13575D01*
X55590Y13313D02*
X55694D01*
X55642D01*
Y13628D01*
X55590Y13575D01*
X55852Y13260D02*
X56062D01*
X56167Y13313D02*
Y13523D01*
X56272Y13628D01*
X56377Y13523D01*
Y13313D01*
Y13470D01*
X56167D01*
X53301Y62762D02*
X53249Y62815D01*
X53144D01*
X53092Y62762D01*
Y62552D01*
X53144Y62500D01*
X53249D01*
X53301Y62552D01*
X53406Y62500D02*
X53511D01*
X53459D01*
Y62815D01*
X53406Y62762D01*
X53669D02*
X53721Y62815D01*
X53826D01*
X53879Y62762D01*
Y62552D01*
X53826Y62500D01*
X53721D01*
X53669Y62552D01*
Y62762D01*
X53984Y62448D02*
X54194D01*
X54299Y62815D02*
Y62500D01*
Y62657D01*
X54508D01*
Y62815D01*
Y62500D01*
X53301Y55762D02*
X53249Y55815D01*
X53144D01*
X53092Y55762D01*
Y55552D01*
X53144Y55500D01*
X53249D01*
X53301Y55552D01*
X53406Y55500D02*
X53511D01*
X53459D01*
Y55815D01*
X53406Y55762D01*
X53669D02*
X53721Y55815D01*
X53826D01*
X53879Y55762D01*
Y55552D01*
X53826Y55500D01*
X53721D01*
X53669Y55552D01*
Y55762D01*
X53984Y55448D02*
X54194D01*
X54508Y55762D02*
X54456Y55815D01*
X54351D01*
X54299Y55762D01*
Y55552D01*
X54351Y55500D01*
X54456D01*
X54508Y55552D01*
Y55657D01*
X54403D01*
X53467Y48631D02*
X53414Y48684D01*
X53309D01*
X53257Y48631D01*
Y48421D01*
X53309Y48369D01*
X53414D01*
X53467Y48421D01*
X53572Y48369D02*
X53677D01*
X53624D01*
Y48684D01*
X53572Y48631D01*
X53834D02*
X53887Y48684D01*
X53992D01*
X54044Y48631D01*
Y48421D01*
X53992Y48369D01*
X53887D01*
X53834Y48421D01*
Y48631D01*
X54149Y48316D02*
X54359D01*
X54674Y48684D02*
X54464D01*
Y48526D01*
X54569D01*
X54464D01*
Y48369D01*
X53301Y41681D02*
X53249Y41734D01*
X53144D01*
X53092Y41681D01*
Y41471D01*
X53144Y41419D01*
X53249D01*
X53301Y41471D01*
X53406Y41419D02*
X53511D01*
X53459D01*
Y41734D01*
X53406Y41681D01*
X53669D02*
X53721Y41734D01*
X53826D01*
X53879Y41681D01*
Y41471D01*
X53826Y41419D01*
X53721D01*
X53669Y41471D01*
Y41681D01*
X53984Y41366D02*
X54194D01*
X54508Y41734D02*
X54299D01*
Y41419D01*
X54508D01*
X54299Y41576D02*
X54403D01*
X53301Y34631D02*
X53249Y34684D01*
X53144D01*
X53092Y34631D01*
Y34421D01*
X53144Y34369D01*
X53249D01*
X53301Y34421D01*
X53406Y34369D02*
X53511D01*
X53459D01*
Y34684D01*
X53406Y34631D01*
X53669D02*
X53721Y34684D01*
X53826D01*
X53879Y34631D01*
Y34421D01*
X53826Y34369D01*
X53721D01*
X53669Y34421D01*
Y34631D01*
X53984Y34316D02*
X54194D01*
X54299Y34684D02*
Y34369D01*
X54456D01*
X54508Y34421D01*
Y34631D01*
X54456Y34684D01*
X54299D01*
X53501Y27631D02*
X53449Y27684D01*
X53344D01*
X53292Y27631D01*
Y27421D01*
X53344Y27369D01*
X53449D01*
X53501Y27421D01*
X53606Y27369D02*
X53711D01*
X53659D01*
Y27684D01*
X53606Y27631D01*
X53869D02*
X53921Y27684D01*
X54026D01*
X54079Y27631D01*
Y27421D01*
X54026Y27369D01*
X53921D01*
X53869Y27421D01*
Y27631D01*
X54184Y27316D02*
X54394D01*
X54708Y27631D02*
X54656Y27684D01*
X54551D01*
X54499Y27631D01*
Y27421D01*
X54551Y27369D01*
X54656D01*
X54708Y27421D01*
X53410Y20670D02*
X53358Y20722D01*
X53253D01*
X53200Y20670D01*
Y20460D01*
X53253Y20407D01*
X53358D01*
X53410Y20460D01*
X53515Y20407D02*
X53620D01*
X53567D01*
Y20722D01*
X53515Y20670D01*
X53777D02*
X53830Y20722D01*
X53935D01*
X53987Y20670D01*
Y20460D01*
X53935Y20407D01*
X53830D01*
X53777Y20460D01*
Y20670D01*
X54092Y20355D02*
X54302D01*
X54407Y20722D02*
Y20407D01*
X54565D01*
X54617Y20460D01*
Y20512D01*
X54565Y20565D01*
X54407D01*
X54565D01*
X54617Y20617D01*
Y20670D01*
X54565Y20722D01*
X54407D01*
X53401Y13631D02*
X53349Y13684D01*
X53244D01*
X53192Y13631D01*
Y13421D01*
X53244Y13369D01*
X53349D01*
X53401Y13421D01*
X53506Y13369D02*
X53611D01*
X53559D01*
Y13684D01*
X53506Y13631D01*
X53769D02*
X53821Y13684D01*
X53926D01*
X53979Y13631D01*
Y13421D01*
X53926Y13369D01*
X53821D01*
X53769Y13421D01*
Y13631D01*
X54084Y13316D02*
X54294D01*
X54399Y13369D02*
Y13579D01*
X54503Y13684D01*
X54608Y13579D01*
Y13369D01*
Y13526D01*
X54399D01*
X55319Y66502D02*
X55266Y66450D01*
Y66345D01*
X55319Y66292D01*
X55529D01*
X55581Y66345D01*
Y66450D01*
X55529Y66502D01*
Y66607D02*
X55581Y66660D01*
Y66765D01*
X55529Y66817D01*
X55319D01*
X55266Y66765D01*
Y66660D01*
X55319Y66607D01*
X55371D01*
X55424Y66660D01*
Y66817D01*
X55634Y66922D02*
Y67132D01*
X55266Y67237D02*
X55581D01*
X55424D01*
Y67447D01*
X55266D01*
X55581D01*
X55319Y59502D02*
X55266Y59450D01*
Y59345D01*
X55319Y59292D01*
X55529D01*
X55581Y59345D01*
Y59450D01*
X55529Y59502D01*
Y59607D02*
X55581Y59660D01*
Y59765D01*
X55529Y59817D01*
X55319D01*
X55266Y59765D01*
Y59660D01*
X55319Y59607D01*
X55371D01*
X55424Y59660D01*
Y59817D01*
X55634Y59922D02*
Y60132D01*
X55319Y60447D02*
X55266Y60394D01*
Y60289D01*
X55319Y60237D01*
X55529D01*
X55581Y60289D01*
Y60394D01*
X55529Y60447D01*
X55424D01*
Y60342D01*
X55319Y52484D02*
X55266Y52431D01*
Y52326D01*
X55319Y52274D01*
X55529D01*
X55581Y52326D01*
Y52431D01*
X55529Y52484D01*
Y52589D02*
X55581Y52641D01*
Y52746D01*
X55529Y52799D01*
X55319D01*
X55266Y52746D01*
Y52641D01*
X55319Y52589D01*
X55371D01*
X55424Y52641D01*
Y52799D01*
X55634Y52904D02*
Y53114D01*
X55266Y53428D02*
Y53219D01*
X55424D01*
Y53323D01*
Y53219D01*
X55581D01*
X55319Y45484D02*
X55266Y45431D01*
Y45326D01*
X55319Y45274D01*
X55529D01*
X55581Y45326D01*
Y45431D01*
X55529Y45484D01*
Y45589D02*
X55581Y45641D01*
Y45746D01*
X55529Y45799D01*
X55319D01*
X55266Y45746D01*
Y45641D01*
X55319Y45589D01*
X55371D01*
X55424Y45641D01*
Y45799D01*
X55634Y45904D02*
Y46114D01*
X55266Y46428D02*
Y46219D01*
X55581D01*
Y46428D01*
X55424Y46219D02*
Y46323D01*
X54933Y38592D02*
X54880Y38645D01*
X54775D01*
X54723Y38592D01*
Y38382D01*
X54775Y38330D01*
X54880D01*
X54933Y38382D01*
X55038D02*
X55090Y38330D01*
X55195D01*
X55248Y38382D01*
Y38592D01*
X55195Y38645D01*
X55090D01*
X55038Y38592D01*
Y38540D01*
X55090Y38487D01*
X55248D01*
X55352Y38278D02*
X55562D01*
X55667Y38645D02*
Y38330D01*
X55825D01*
X55877Y38382D01*
Y38592D01*
X55825Y38645D01*
X55667D01*
X55329Y31484D02*
X55277Y31431D01*
Y31326D01*
X55329Y31274D01*
X55539D01*
X55592Y31326D01*
Y31431D01*
X55539Y31484D01*
Y31589D02*
X55592Y31641D01*
Y31746D01*
X55539Y31799D01*
X55329D01*
X55277Y31746D01*
Y31641D01*
X55329Y31589D01*
X55382D01*
X55434Y31641D01*
Y31799D01*
X55644Y31904D02*
Y32114D01*
X55329Y32428D02*
X55277Y32376D01*
Y32271D01*
X55329Y32219D01*
X55539D01*
X55592Y32271D01*
Y32376D01*
X55539Y32428D01*
X55329Y24484D02*
X55277Y24431D01*
Y24326D01*
X55329Y24274D01*
X55539D01*
X55592Y24326D01*
Y24431D01*
X55539Y24484D01*
Y24589D02*
X55592Y24641D01*
Y24746D01*
X55539Y24799D01*
X55329D01*
X55277Y24746D01*
Y24641D01*
X55329Y24589D01*
X55382D01*
X55434Y24641D01*
Y24799D01*
X55644Y24904D02*
Y25114D01*
X55277Y25219D02*
X55592D01*
Y25376D01*
X55539Y25428D01*
X55487D01*
X55434Y25376D01*
Y25219D01*
Y25376D01*
X55382Y25428D01*
X55329D01*
X55277Y25376D01*
Y25219D01*
X55329Y17484D02*
X55277Y17431D01*
Y17326D01*
X55329Y17274D01*
X55539D01*
X55592Y17326D01*
Y17431D01*
X55539Y17484D01*
Y17589D02*
X55592Y17641D01*
Y17746D01*
X55539Y17799D01*
X55329D01*
X55277Y17746D01*
Y17641D01*
X55329Y17589D01*
X55382D01*
X55434Y17641D01*
Y17799D01*
X55644Y17904D02*
Y18114D01*
X55592Y18219D02*
X55382D01*
X55277Y18323D01*
X55382Y18428D01*
X55592D01*
X55434D01*
Y18219D01*
X54169Y66484D02*
X54116Y66431D01*
Y66326D01*
X54169Y66274D01*
X54379D01*
X54431Y66326D01*
Y66431D01*
X54379Y66484D01*
X54169Y66589D02*
X54116Y66641D01*
Y66746D01*
X54169Y66799D01*
X54221D01*
X54274Y66746D01*
X54326Y66799D01*
X54379D01*
X54431Y66746D01*
Y66641D01*
X54379Y66589D01*
X54326D01*
X54274Y66641D01*
X54221Y66589D01*
X54169D01*
X54274Y66641D02*
Y66746D01*
X54484Y66904D02*
Y67114D01*
X54116Y67219D02*
X54431D01*
X54274D01*
Y67428D01*
X54116D01*
X54431D01*
X54169Y59502D02*
X54116Y59450D01*
Y59345D01*
X54169Y59292D01*
X54379D01*
X54431Y59345D01*
Y59450D01*
X54379Y59502D01*
X54169Y59607D02*
X54116Y59660D01*
Y59765D01*
X54169Y59817D01*
X54221D01*
X54274Y59765D01*
X54326Y59817D01*
X54379D01*
X54431Y59765D01*
Y59660D01*
X54379Y59607D01*
X54326D01*
X54274Y59660D01*
X54221Y59607D01*
X54169D01*
X54274Y59660D02*
Y59765D01*
X54484Y59922D02*
Y60132D01*
X54169Y60447D02*
X54116Y60394D01*
Y60289D01*
X54169Y60237D01*
X54379D01*
X54431Y60289D01*
Y60394D01*
X54379Y60447D01*
X54274D01*
Y60342D01*
X54169Y52502D02*
X54116Y52450D01*
Y52345D01*
X54169Y52292D01*
X54379D01*
X54431Y52345D01*
Y52450D01*
X54379Y52502D01*
X54169Y52607D02*
X54116Y52660D01*
Y52765D01*
X54169Y52817D01*
X54221D01*
X54274Y52765D01*
X54326Y52817D01*
X54379D01*
X54431Y52765D01*
Y52660D01*
X54379Y52607D01*
X54326D01*
X54274Y52660D01*
X54221Y52607D01*
X54169D01*
X54274Y52660D02*
Y52765D01*
X54484Y52922D02*
Y53132D01*
X54116Y53447D02*
Y53237D01*
X54274D01*
Y53342D01*
Y53237D01*
X54431D01*
X54169Y45433D02*
X54116Y45380D01*
Y45275D01*
X54169Y45223D01*
X54379D01*
X54431Y45275D01*
Y45380D01*
X54379Y45433D01*
X54169Y45538D02*
X54116Y45590D01*
Y45695D01*
X54169Y45748D01*
X54221D01*
X54274Y45695D01*
X54326Y45748D01*
X54379D01*
X54431Y45695D01*
Y45590D01*
X54379Y45538D01*
X54326D01*
X54274Y45590D01*
X54221Y45538D01*
X54169D01*
X54274Y45590D02*
Y45695D01*
X54484Y45852D02*
Y46062D01*
X54116Y46377D02*
Y46167D01*
X54431D01*
Y46377D01*
X54274Y46167D02*
Y46272D01*
X53333Y38592D02*
X53280Y38645D01*
X53175D01*
X53123Y38592D01*
Y38382D01*
X53175Y38330D01*
X53280D01*
X53333Y38382D01*
X53438Y38592D02*
X53490Y38645D01*
X53595D01*
X53648Y38592D01*
Y38540D01*
X53595Y38487D01*
X53648Y38435D01*
Y38382D01*
X53595Y38330D01*
X53490D01*
X53438Y38382D01*
Y38435D01*
X53490Y38487D01*
X53438Y38540D01*
Y38592D01*
X53490Y38487D02*
X53595D01*
X53752Y38278D02*
X53962D01*
X54067Y38645D02*
Y38330D01*
X54225D01*
X54277Y38382D01*
Y38592D01*
X54225Y38645D01*
X54067D01*
X54169Y31483D02*
X54116Y31430D01*
Y31325D01*
X54169Y31273D01*
X54379D01*
X54431Y31325D01*
Y31430D01*
X54379Y31483D01*
X54169Y31588D02*
X54116Y31640D01*
Y31745D01*
X54169Y31798D01*
X54221D01*
X54274Y31745D01*
X54326Y31798D01*
X54379D01*
X54431Y31745D01*
Y31640D01*
X54379Y31588D01*
X54326D01*
X54274Y31640D01*
X54221Y31588D01*
X54169D01*
X54274Y31640D02*
Y31745D01*
X54484Y31902D02*
Y32112D01*
X54169Y32427D02*
X54116Y32375D01*
Y32270D01*
X54169Y32217D01*
X54379D01*
X54431Y32270D01*
Y32375D01*
X54379Y32427D01*
X54169Y24484D02*
X54116Y24431D01*
Y24326D01*
X54169Y24274D01*
X54379D01*
X54431Y24326D01*
Y24431D01*
X54379Y24484D01*
X54169Y24589D02*
X54116Y24641D01*
Y24746D01*
X54169Y24799D01*
X54221D01*
X54274Y24746D01*
X54326Y24799D01*
X54379D01*
X54431Y24746D01*
Y24641D01*
X54379Y24589D01*
X54326D01*
X54274Y24641D01*
X54221Y24589D01*
X54169D01*
X54274Y24641D02*
Y24746D01*
X54484Y24904D02*
Y25114D01*
X54116Y25219D02*
X54431D01*
Y25376D01*
X54379Y25428D01*
X54326D01*
X54274Y25376D01*
Y25219D01*
Y25376D01*
X54221Y25428D01*
X54169D01*
X54116Y25376D01*
Y25219D01*
X54169Y17502D02*
X54116Y17450D01*
Y17345D01*
X54169Y17292D01*
X54379D01*
X54431Y17345D01*
Y17450D01*
X54379Y17502D01*
X54169Y17607D02*
X54116Y17660D01*
Y17765D01*
X54169Y17817D01*
X54221D01*
X54274Y17765D01*
X54326Y17817D01*
X54379D01*
X54431Y17765D01*
Y17660D01*
X54379Y17607D01*
X54326D01*
X54274Y17660D01*
X54221Y17607D01*
X54169D01*
X54274Y17660D02*
Y17765D01*
X54484Y17922D02*
Y18132D01*
X54431Y18237D02*
X54221D01*
X54116Y18342D01*
X54221Y18447D01*
X54431D01*
X54274D01*
Y18237D01*
X60983Y65181D02*
X60930Y65234D01*
X60825D01*
X60773Y65181D01*
Y64971D01*
X60825Y64919D01*
X60930D01*
X60983Y64971D01*
X61088Y65234D02*
X61298D01*
Y65181D01*
X61088Y64971D01*
Y64919D01*
X61402Y64866D02*
X61612D01*
X61717Y65234D02*
Y64919D01*
Y65076D01*
X61927D01*
Y65234D01*
Y64919D01*
X60933Y58281D02*
X60880Y58334D01*
X60775D01*
X60723Y58281D01*
Y58071D01*
X60775Y58019D01*
X60880D01*
X60933Y58071D01*
X61038Y58334D02*
X61248D01*
Y58281D01*
X61038Y58071D01*
Y58019D01*
X61352Y57966D02*
X61562D01*
X61877Y58281D02*
X61825Y58334D01*
X61720D01*
X61667Y58281D01*
Y58071D01*
X61720Y58019D01*
X61825D01*
X61877Y58071D01*
Y58176D01*
X61772D01*
X61083Y51331D02*
X61030Y51384D01*
X60925D01*
X60873Y51331D01*
Y51121D01*
X60925Y51069D01*
X61030D01*
X61083Y51121D01*
X61188Y51384D02*
X61398D01*
Y51331D01*
X61188Y51121D01*
Y51069D01*
X61502Y51016D02*
X61712D01*
X62027Y51384D02*
X61817D01*
Y51226D01*
X61922D01*
X61817D01*
Y51069D01*
X61073Y44181D02*
X61020Y44234D01*
X60915D01*
X60863Y44181D01*
Y43971D01*
X60915Y43919D01*
X61020D01*
X61073Y43971D01*
X61178Y44234D02*
X61388D01*
Y44181D01*
X61178Y43971D01*
Y43919D01*
X61492Y43866D02*
X61702D01*
X62017Y44234D02*
X61807D01*
Y43919D01*
X62017D01*
X61807Y44076D02*
X61912D01*
X60933Y37231D02*
X60880Y37284D01*
X60775D01*
X60723Y37231D01*
Y37021D01*
X60775Y36969D01*
X60880D01*
X60933Y37021D01*
X61038Y37284D02*
X61248D01*
Y37231D01*
X61038Y37021D01*
Y36969D01*
X61352Y36916D02*
X61562D01*
X61667Y37284D02*
Y36969D01*
X61825D01*
X61877Y37021D01*
Y37231D01*
X61825Y37284D01*
X61667D01*
X60933Y30281D02*
X60880Y30334D01*
X60775D01*
X60723Y30281D01*
Y30071D01*
X60775Y30019D01*
X60880D01*
X60933Y30071D01*
X61038Y30334D02*
X61248D01*
Y30281D01*
X61038Y30071D01*
Y30019D01*
X61352Y29966D02*
X61562D01*
X61877Y30281D02*
X61825Y30334D01*
X61720D01*
X61667Y30281D01*
Y30071D01*
X61720Y30019D01*
X61825D01*
X61877Y30071D01*
X60883Y23339D02*
X60831Y23391D01*
X60726D01*
X60673Y23339D01*
Y23129D01*
X60726Y23076D01*
X60831D01*
X60883Y23129D01*
X60988Y23391D02*
X61198D01*
Y23339D01*
X60988Y23129D01*
Y23076D01*
X61303Y23024D02*
X61513D01*
X61618Y23391D02*
Y23076D01*
X61775D01*
X61828Y23129D01*
Y23181D01*
X61775Y23234D01*
X61618D01*
X61775D01*
X61828Y23286D01*
Y23339D01*
X61775Y23391D01*
X61618D01*
X60933Y16281D02*
X60880Y16334D01*
X60775D01*
X60723Y16281D01*
Y16071D01*
X60775Y16019D01*
X60880D01*
X60933Y16071D01*
X61038Y16334D02*
X61248D01*
Y16281D01*
X61038Y16071D01*
Y16019D01*
X61352Y15966D02*
X61562D01*
X61667Y16019D02*
Y16229D01*
X61772Y16334D01*
X61877Y16229D01*
Y16019D01*
Y16176D01*
X61667D01*
X62683Y65181D02*
X62630Y65234D01*
X62525D01*
X62473Y65181D01*
Y64971D01*
X62525Y64919D01*
X62630D01*
X62683Y64971D01*
X62998Y65234D02*
X62893Y65181D01*
X62788Y65076D01*
Y64971D01*
X62840Y64919D01*
X62945D01*
X62998Y64971D01*
Y65024D01*
X62945Y65076D01*
X62788D01*
X63102Y64866D02*
X63312D01*
X63417Y65234D02*
Y64919D01*
Y65076D01*
X63627D01*
Y65234D01*
Y64919D01*
X62800Y58281D02*
X62747Y58334D01*
X62642D01*
X62590Y58281D01*
Y58071D01*
X62642Y58019D01*
X62747D01*
X62800Y58071D01*
X63115Y58334D02*
X63010Y58281D01*
X62905Y58176D01*
Y58071D01*
X62957Y58019D01*
X63062D01*
X63115Y58071D01*
Y58124D01*
X63062Y58176D01*
X62905D01*
X63220Y57966D02*
X63430D01*
X63744Y58281D02*
X63692Y58334D01*
X63587D01*
X63535Y58281D01*
Y58071D01*
X63587Y58019D01*
X63692D01*
X63744Y58071D01*
Y58176D01*
X63640D01*
X62800Y51331D02*
X62747Y51384D01*
X62642D01*
X62590Y51331D01*
Y51121D01*
X62642Y51069D01*
X62747D01*
X62800Y51121D01*
X63115Y51384D02*
X63010Y51331D01*
X62905Y51226D01*
Y51121D01*
X62957Y51069D01*
X63062D01*
X63115Y51121D01*
Y51174D01*
X63062Y51226D01*
X62905D01*
X63220Y51016D02*
X63430D01*
X63744Y51384D02*
X63535D01*
Y51226D01*
X63640D01*
X63535D01*
Y51069D01*
X62683Y44181D02*
X62630Y44234D01*
X62525D01*
X62473Y44181D01*
Y43971D01*
X62525Y43919D01*
X62630D01*
X62683Y43971D01*
X62998Y44234D02*
X62893Y44181D01*
X62788Y44076D01*
Y43971D01*
X62840Y43919D01*
X62945D01*
X62998Y43971D01*
Y44024D01*
X62945Y44076D01*
X62788D01*
X63102Y43866D02*
X63312D01*
X63627Y44234D02*
X63417D01*
Y43919D01*
X63627D01*
X63417Y44076D02*
X63522D01*
X62800Y37231D02*
X62747Y37284D01*
X62642D01*
X62590Y37231D01*
Y37021D01*
X62642Y36969D01*
X62747D01*
X62800Y37021D01*
X63115Y37284D02*
X63010Y37231D01*
X62905Y37126D01*
Y37021D01*
X62957Y36969D01*
X63062D01*
X63115Y37021D01*
Y37074D01*
X63062Y37126D01*
X62905D01*
X63220Y36916D02*
X63430D01*
X63535Y37284D02*
Y36969D01*
X63692D01*
X63744Y37021D01*
Y37231D01*
X63692Y37284D01*
X63535D01*
X62800Y30281D02*
X62747Y30334D01*
X62642D01*
X62590Y30281D01*
Y30071D01*
X62642Y30019D01*
X62747D01*
X62800Y30071D01*
X63115Y30334D02*
X63010Y30281D01*
X62905Y30176D01*
Y30071D01*
X62957Y30019D01*
X63062D01*
X63115Y30071D01*
Y30124D01*
X63062Y30176D01*
X62905D01*
X63220Y29966D02*
X63430D01*
X63744Y30281D02*
X63692Y30334D01*
X63587D01*
X63535Y30281D01*
Y30071D01*
X63587Y30019D01*
X63692D01*
X63744Y30071D01*
X62538Y23339D02*
X62486Y23391D01*
X62381D01*
X62328Y23339D01*
Y23129D01*
X62381Y23076D01*
X62486D01*
X62538Y23129D01*
X62853Y23391D02*
X62748Y23339D01*
X62643Y23234D01*
Y23129D01*
X62696Y23076D01*
X62801D01*
X62853Y23129D01*
Y23181D01*
X62801Y23234D01*
X62643D01*
X62958Y23024D02*
X63168D01*
X63273Y23391D02*
Y23076D01*
X63430D01*
X63483Y23129D01*
Y23181D01*
X63430Y23234D01*
X63273D01*
X63430D01*
X63483Y23286D01*
Y23339D01*
X63430Y23391D01*
X63273D01*
X62706Y16281D02*
X62653Y16334D01*
X62548D01*
X62496Y16281D01*
Y16071D01*
X62548Y16019D01*
X62653D01*
X62706Y16071D01*
X63020Y16334D02*
X62915Y16281D01*
X62810Y16176D01*
Y16071D01*
X62863Y16019D01*
X62968D01*
X63020Y16071D01*
Y16124D01*
X62968Y16176D01*
X62810D01*
X63125Y15966D02*
X63335D01*
X63440Y16019D02*
Y16229D01*
X63545Y16334D01*
X63650Y16229D01*
Y16019D01*
Y16176D01*
X63440D01*
X15150Y66592D02*
X15097Y66645D01*
X14992D01*
X14940Y66592D01*
Y66382D01*
X14992Y66330D01*
X15097D01*
X15150Y66382D01*
X15255Y66592D02*
X15307Y66645D01*
X15412D01*
X15465Y66592D01*
Y66540D01*
X15412Y66487D01*
X15360D01*
X15412D01*
X15465Y66435D01*
Y66382D01*
X15412Y66330D01*
X15307D01*
X15255Y66382D01*
X16650Y66592D02*
X16597Y66645D01*
X16492D01*
X16440Y66592D01*
Y66382D01*
X16492Y66330D01*
X16597D01*
X16650Y66382D01*
X16965Y66330D02*
X16755D01*
X16965Y66540D01*
Y66592D01*
X16912Y66645D01*
X16807D01*
X16755Y66592D01*
X17990Y66842D02*
X17937Y66895D01*
X17832D01*
X17780Y66842D01*
Y66632D01*
X17832Y66580D01*
X17937D01*
X17990Y66632D01*
X18095Y66580D02*
X18200D01*
X18147D01*
Y66895D01*
X18095Y66842D01*
D62*
X42380Y66530D02*
D03*
X44380Y68430D02*
D03*
X43380Y66530D02*
D03*
X45380D02*
D03*
M02*
