G04*
G04 #@! TF.GenerationSoftware,Altium Limited,Altium Designer,25.8.1 (18)*
G04*
G04 Layer_Physical_Order=4*
G04 Layer_Color=6736896*
%FSLAX24Y24*%
%MOIN*%
G70*
G04*
G04 #@! TF.SameCoordinates,9D8C9C82-6ACF-4F5F-9D46-B5F6B3BB53C1*
G04*
G04*
G04 #@! TF.FilePolarity,Positive*
G04*
G01*
G75*
%ADD13C,0.0080*%
%ADD25C,0.0256*%
G04:AMPARAMS|DCode=26|XSize=35.4mil|YSize=59.1mil|CornerRadius=17.7mil|HoleSize=0mil|Usage=FLASHONLY|Rotation=0.000|XOffset=0mil|YOffset=0mil|HoleType=Round|Shape=RoundedRectangle|*
%AMROUNDEDRECTD26*
21,1,0.0354,0.0236,0,0,0.0*
21,1,0.0000,0.0591,0,0,0.0*
1,1,0.0354,0.0000,-0.0118*
1,1,0.0354,0.0000,-0.0118*
1,1,0.0354,0.0000,0.0118*
1,1,0.0354,0.0000,0.0118*
%
%ADD26ROUNDEDRECTD26*%
%ADD30C,0.0140*%
%ADD32C,0.1417*%
%ADD33C,0.0140*%
%ADD40C,0.0040*%
G36*
X5078Y102D02*
X-5078D01*
Y13458D01*
X5078D01*
Y102D01*
D02*
G37*
%LPC*%
G36*
X1897Y11998D02*
X1829D01*
X1767Y11972D01*
X1758Y11962D01*
X99D01*
X89Y11972D01*
X27Y11998D01*
X-41D01*
X-103Y11972D01*
X-113Y11962D01*
X-1771D01*
X-1781Y11972D01*
X-1843Y11998D01*
X-1911D01*
X-1973Y11972D01*
X-1983Y11962D01*
X-3190D01*
X-3237Y11953D01*
X-3277Y11927D01*
X-4047Y11157D01*
X-4073Y11117D01*
X-4082Y11070D01*
Y3872D01*
X-4196D01*
X-4353Y3841D01*
X-4500Y3780D01*
X-4632Y3691D01*
X-4745Y3578D01*
X-4833Y3446D01*
X-4894Y3299D01*
X-4926Y3143D01*
Y2983D01*
X-4894Y2827D01*
X-4833Y2680D01*
X-4745Y2548D01*
X-4632Y2435D01*
X-4500Y2346D01*
X-4353Y2285D01*
X-4196Y2254D01*
X-4037D01*
X-3881Y2285D01*
X-3734Y2346D01*
X-3601Y2435D01*
X-3489Y2548D01*
X-3400Y2680D01*
X-3339Y2827D01*
X-3308Y2983D01*
Y3143D01*
X-3339Y3299D01*
X-3400Y3446D01*
X-3489Y3578D01*
X-3601Y3691D01*
X-3734Y3780D01*
X-3838Y3823D01*
Y11019D01*
X-3139Y11718D01*
X-2008D01*
X-1973Y11683D01*
X-1911Y11658D01*
X-1843D01*
X-1781Y11683D01*
X-1746Y11718D01*
X-137D01*
X-103Y11683D01*
X-41Y11658D01*
X27D01*
X89Y11683D01*
X124Y11718D01*
X1733D01*
X1767Y11683D01*
X1829Y11658D01*
X1897D01*
X1959Y11683D01*
X1981Y11705D01*
X3422D01*
X3898Y11229D01*
Y3919D01*
X3740D01*
X3584Y3888D01*
X3437Y3827D01*
X3304Y3738D01*
X3192Y3626D01*
X3103Y3493D01*
X3042Y3346D01*
X3011Y3190D01*
Y3031D01*
X3042Y2874D01*
X3103Y2727D01*
X3192Y2595D01*
X3304Y2482D01*
X3437Y2394D01*
X3584Y2333D01*
X3740Y2302D01*
X3899D01*
X4056Y2333D01*
X4203Y2394D01*
X4335Y2482D01*
X4448Y2595D01*
X4536Y2727D01*
X4597Y2874D01*
X4628Y3031D01*
Y3190D01*
X4597Y3346D01*
X4536Y3493D01*
X4448Y3626D01*
X4335Y3738D01*
X4203Y3827D01*
X4142Y3852D01*
Y11280D01*
X4133Y11327D01*
X4107Y11367D01*
X3559Y11914D01*
X3519Y11941D01*
X3472Y11950D01*
X1981D01*
X1959Y11972D01*
X1897Y11998D01*
D02*
G37*
G36*
X175Y9234D02*
X107D01*
X44Y9208D01*
X-7Y9163D01*
X-58Y9208D01*
X-121Y9234D01*
X-188D01*
X-251Y9208D01*
X-299Y9160D01*
X-325Y9098D01*
Y9030D01*
X-299Y8968D01*
X-267Y8936D01*
X-299Y8904D01*
X-325Y8842D01*
Y8774D01*
X-299Y8712D01*
X-267Y8680D01*
X-299Y8648D01*
X-325Y8586D01*
Y8518D01*
X-299Y8456D01*
X-267Y8424D01*
X-299Y8392D01*
X-337Y8331D01*
X-410Y8340D01*
X-478D01*
X-540Y8314D01*
X-572Y8373D01*
X-619Y8421D01*
X-682Y8446D01*
X-691Y8460D01*
X-683Y8479D01*
Y8547D01*
X-709Y8609D01*
X-757Y8657D01*
X-765Y8660D01*
X-742Y8715D01*
Y8783D01*
X-768Y8845D01*
X-816Y8893D01*
X-880Y8971D01*
Y9039D01*
X-906Y9101D01*
X-954Y9149D01*
X-1016Y9175D01*
X-1084D01*
X-1147Y9149D01*
X-1194Y9101D01*
X-1220Y9039D01*
Y8971D01*
X-1194Y8909D01*
X-1147Y8861D01*
X-1082Y8783D01*
Y8715D01*
X-1057Y8653D01*
X-1009Y8605D01*
X-1001Y8601D01*
X-1023Y8547D01*
Y8539D01*
X-1047Y8470D01*
X-1116Y8446D01*
X-1123D01*
X-1186Y8421D01*
X-1234Y8373D01*
X-1260Y8310D01*
Y8243D01*
X-1234Y8180D01*
X-1186Y8132D01*
X-1123Y8106D01*
X-1056D01*
X-993Y8132D01*
X-982Y8143D01*
X-871Y8140D01*
X-825Y8074D01*
X-832Y8042D01*
X-858Y7980D01*
Y7912D01*
X-907Y7817D01*
X-917Y7812D01*
X-969Y7791D01*
X-1017Y7743D01*
X-1043Y7680D01*
Y7613D01*
X-1017Y7550D01*
X-969Y7502D01*
X-907Y7477D01*
X-839D01*
X-777Y7502D01*
X-734Y7546D01*
X-690Y7502D01*
X-628Y7477D01*
X-560D01*
X-498Y7502D01*
X-450Y7550D01*
X-424Y7613D01*
Y7620D01*
X-403Y7688D01*
X-332Y7713D01*
X-327D01*
X-265Y7739D01*
X-152Y7710D01*
X-151Y7708D01*
X-103Y7660D01*
X-41Y7634D01*
X27D01*
X89Y7660D01*
X137Y7708D01*
X138Y7710D01*
X251Y7739D01*
X314Y7713D01*
X318D01*
X389Y7688D01*
X410Y7620D01*
Y7613D01*
X436Y7550D01*
X484Y7502D01*
X546Y7477D01*
X614D01*
X676Y7502D01*
X720Y7546D01*
X763Y7502D01*
X825Y7477D01*
X893D01*
X956Y7502D01*
X1003Y7550D01*
X1029Y7613D01*
Y7680D01*
X1003Y7743D01*
X956Y7791D01*
X903Y7812D01*
X893Y7817D01*
X844Y7912D01*
Y7980D01*
X818Y8042D01*
X811Y8074D01*
X858Y8140D01*
X968Y8143D01*
X979Y8132D01*
X1042Y8106D01*
X1110D01*
X1172Y8132D01*
X1220Y8180D01*
X1246Y8243D01*
Y8310D01*
X1220Y8373D01*
X1172Y8421D01*
X1110Y8446D01*
X1102D01*
X1034Y8470D01*
X1010Y8539D01*
Y8547D01*
X987Y8601D01*
X995Y8605D01*
X1043Y8653D01*
X1069Y8715D01*
Y8783D01*
X1133Y8861D01*
X1181Y8909D01*
X1206Y8971D01*
Y9039D01*
X1181Y9101D01*
X1133Y9149D01*
X1070Y9175D01*
X1003D01*
X940Y9149D01*
X892Y9101D01*
X866Y9039D01*
Y8971D01*
X802Y8893D01*
X755Y8845D01*
X729Y8783D01*
Y8715D01*
X751Y8660D01*
X743Y8657D01*
X695Y8609D01*
X670Y8547D01*
Y8479D01*
X677Y8460D01*
X668Y8446D01*
X605Y8421D01*
X558Y8373D01*
X526Y8314D01*
X464Y8340D01*
X396D01*
X361Y8336D01*
X285Y8416D01*
Y8456D01*
X285Y8456D01*
X311Y8518D01*
Y8586D01*
X285Y8648D01*
X253Y8680D01*
X285Y8712D01*
X311Y8774D01*
Y8842D01*
X285Y8904D01*
X253Y8936D01*
X285Y8968D01*
X311Y9030D01*
Y9098D01*
X285Y9160D01*
X237Y9208D01*
X175Y9234D01*
D02*
G37*
G36*
X2149Y8090D02*
X2081D01*
X2019Y8064D01*
X1971Y8016D01*
X1945Y7954D01*
Y7886D01*
X1971Y7824D01*
X2019Y7776D01*
X2081Y7750D01*
X2149D01*
X2211Y7776D01*
X2259Y7824D01*
X2285Y7886D01*
Y7954D01*
X2259Y8016D01*
X2211Y8064D01*
X2149Y8090D01*
D02*
G37*
G36*
X245Y6950D02*
X178D01*
X115Y6924D01*
X92Y6900D01*
X68Y6924D01*
X5Y6950D01*
X-62D01*
X-125Y6924D01*
X-173Y6876D01*
X-198Y6814D01*
Y6746D01*
X-173Y6684D01*
X-125Y6636D01*
X-62Y6610D01*
X5D01*
X68Y6636D01*
X92Y6660D01*
X115Y6636D01*
X178Y6610D01*
X195D01*
Y6554D01*
X221Y6492D01*
X269Y6444D01*
X331Y6418D01*
X399D01*
X462Y6444D01*
X485Y6468D01*
X509Y6444D01*
X571Y6418D01*
X573D01*
X589Y6412D01*
Y6344D01*
X615Y6282D01*
X663Y6234D01*
X725Y6208D01*
X793D01*
X855Y6234D01*
X879Y6257D01*
X903Y6234D01*
X965Y6208D01*
X1033D01*
X1095Y6234D01*
X1143Y6282D01*
X1169Y6344D01*
X1221Y6418D01*
X1283Y6444D01*
X1331Y6492D01*
X1357Y6554D01*
Y6622D01*
X1331Y6684D01*
X1283Y6732D01*
X1221Y6758D01*
X1153D01*
X1091Y6732D01*
X1043Y6684D01*
X1017Y6622D01*
X965Y6548D01*
X903Y6522D01*
X879Y6498D01*
X855Y6522D01*
X793Y6548D01*
X791D01*
X775Y6554D01*
Y6622D01*
X749Y6684D01*
X702Y6732D01*
X639Y6758D01*
X571D01*
X509Y6732D01*
X485Y6708D01*
X462Y6732D01*
X399Y6758D01*
X382D01*
Y6814D01*
X356Y6876D01*
X308Y6924D01*
X245Y6950D01*
D02*
G37*
G36*
X-761D02*
X-828D01*
X-891Y6924D01*
X-938Y6876D01*
X-964Y6814D01*
Y6746D01*
X-938Y6684D01*
X-891Y6636D01*
X-828Y6610D01*
X-761D01*
X-698Y6636D01*
X-650Y6684D01*
X-624Y6746D01*
Y6814D01*
X-650Y6876D01*
X-698Y6924D01*
X-761Y6950D01*
D02*
G37*
G36*
X-66Y5994D02*
X-134D01*
X-196Y5968D01*
X-244Y5921D01*
X-270Y5858D01*
Y5790D01*
X-244Y5728D01*
X-220Y5704D01*
X-244Y5681D01*
X-270Y5618D01*
Y5550D01*
X-244Y5488D01*
X-196Y5440D01*
X-134Y5414D01*
X-66D01*
X-4Y5440D01*
X44Y5488D01*
X70Y5550D01*
Y5618D01*
X44Y5681D01*
X20Y5704D01*
X44Y5728D01*
X70Y5790D01*
Y5858D01*
X44Y5921D01*
X-4Y5968D01*
X-66Y5994D01*
D02*
G37*
G36*
X-1626D02*
X-1694D01*
X-1756Y5968D01*
X-1804Y5921D01*
X-1830Y5858D01*
Y5790D01*
X-1804Y5728D01*
X-1780Y5704D01*
X-1804Y5681D01*
X-1830Y5618D01*
Y5550D01*
X-1804Y5488D01*
X-1756Y5440D01*
X-1694Y5414D01*
X-1626D01*
X-1564Y5440D01*
X-1516Y5488D01*
X-1490Y5550D01*
Y5618D01*
X-1516Y5681D01*
X-1540Y5704D01*
X-1516Y5728D01*
X-1490Y5790D01*
Y5858D01*
X-1516Y5921D01*
X-1564Y5968D01*
X-1626Y5994D01*
D02*
G37*
G36*
X1279Y4446D02*
X1211D01*
X1148Y4421D01*
X1125Y4397D01*
X1101Y4421D01*
X1039Y4446D01*
X971D01*
X908Y4421D01*
X861Y4373D01*
X835Y4310D01*
Y4243D01*
X861Y4180D01*
X908Y4132D01*
X971Y4106D01*
X1039D01*
X1101Y4132D01*
X1125Y4156D01*
X1148Y4132D01*
X1211Y4106D01*
X1279D01*
X1341Y4132D01*
X1389Y4180D01*
X1415Y4243D01*
Y4310D01*
X1389Y4373D01*
X1341Y4421D01*
X1279Y4446D01*
D02*
G37*
G36*
X-347D02*
X-415D01*
X-477Y4421D01*
X-501Y4397D01*
X-525Y4421D01*
X-587Y4446D01*
X-655D01*
X-717Y4421D01*
X-765Y4373D01*
X-791Y4310D01*
Y4243D01*
X-765Y4180D01*
X-717Y4132D01*
X-655Y4106D01*
X-587D01*
X-525Y4132D01*
X-501Y4156D01*
X-477Y4132D01*
X-415Y4106D01*
X-347D01*
X-285Y4132D01*
X-237Y4180D01*
X-211Y4243D01*
Y4310D01*
X-237Y4373D01*
X-285Y4421D01*
X-347Y4446D01*
D02*
G37*
G36*
X-1157D02*
X-1225D01*
X-1287Y4421D01*
X-1311Y4397D01*
X-1334Y4421D01*
X-1397Y4446D01*
X-1465D01*
X-1527Y4421D01*
X-1575Y4373D01*
X-1601Y4310D01*
Y4243D01*
X-1575Y4180D01*
X-1527Y4132D01*
X-1465Y4106D01*
X-1397D01*
X-1334Y4132D01*
X-1311Y4156D01*
X-1287Y4132D01*
X-1225Y4106D01*
X-1157D01*
X-1094Y4132D01*
X-1047Y4180D01*
X-1021Y4243D01*
Y4310D01*
X-1047Y4373D01*
X-1094Y4421D01*
X-1157Y4446D01*
D02*
G37*
G36*
X1398Y3295D02*
X1280D01*
X1191Y3278D01*
X1116Y3227D01*
X1065Y3152D01*
X1048Y3063D01*
X1065Y2974D01*
X1116Y2899D01*
X1191Y2848D01*
X1280Y2831D01*
X1398D01*
X1487Y2848D01*
X1563Y2899D01*
X1613Y2974D01*
X1631Y3063D01*
X1613Y3152D01*
X1563Y3227D01*
X1487Y3278D01*
X1398Y3295D01*
D02*
G37*
G36*
X-2040Y4579D02*
X-2108D01*
X-2170Y4553D01*
X-2218Y4505D01*
X-2244Y4442D01*
Y4375D01*
X-2218Y4312D01*
X-2170Y4264D01*
X-2166Y4263D01*
Y4074D01*
X-2159Y4039D01*
X-2139Y4009D01*
X-1521Y3391D01*
X-1530Y3344D01*
X-1556Y3285D01*
X-1625Y3256D01*
X-1689Y3192D01*
X-1723Y3108D01*
Y3018D01*
X-1689Y2934D01*
X-1625Y2870D01*
X-1541Y2835D01*
X-1450D01*
X-1366Y2870D01*
X-1302Y2934D01*
X-1274Y3003D01*
X-1214Y3028D01*
X-1168Y3038D01*
X-989Y2859D01*
X-1031Y2759D01*
X-1068D01*
X-1152Y2725D01*
X-1216Y2661D01*
X-1251Y2577D01*
Y2486D01*
X-1216Y2402D01*
X-1152Y2338D01*
X-1068Y2304D01*
X-978D01*
X-894Y2338D01*
X-866Y2367D01*
X-837Y2338D01*
X-753Y2304D01*
X-663D01*
X-579Y2338D01*
X-551Y2367D01*
X-522Y2338D01*
X-438Y2304D01*
X-366D01*
Y1756D01*
X-361Y1728D01*
X-345Y1705D01*
X15Y1345D01*
X15Y1345D01*
X50Y1310D01*
X74Y1294D01*
X101Y1289D01*
X1830D01*
X1857Y1294D01*
X1880Y1310D01*
X2350Y1780D01*
X2366Y1803D01*
X2371Y1830D01*
Y3350D01*
X2366Y3377D01*
X2350Y3400D01*
X1900Y3850D01*
X1877Y3866D01*
X1850Y3871D01*
X581D01*
X489Y3964D01*
Y4106D01*
X511D01*
X574Y4132D01*
X621Y4180D01*
X647Y4243D01*
Y4310D01*
X621Y4373D01*
X574Y4421D01*
X511Y4446D01*
X443D01*
X381Y4421D01*
X357Y4397D01*
X334Y4421D01*
X271Y4446D01*
X203D01*
X141Y4421D01*
X93Y4373D01*
X67Y4310D01*
Y4243D01*
X93Y4180D01*
X141Y4132D01*
X203Y4106D01*
X226D01*
Y3885D01*
X231Y3857D01*
X247Y3834D01*
X452Y3630D01*
X475Y3614D01*
X502Y3609D01*
X1770D01*
X2109Y3270D01*
Y1910D01*
X1750Y1551D01*
X180D01*
X-103Y1835D01*
Y2435D01*
X-3Y2493D01*
X9Y2486D01*
X44Y2402D01*
X108Y2338D01*
X191Y2304D01*
X282D01*
X366Y2338D01*
X394Y2367D01*
X423Y2338D01*
X506Y2304D01*
X597D01*
X681Y2338D01*
X709Y2367D01*
X738Y2338D01*
X821Y2304D01*
X912D01*
X996Y2338D01*
X1060Y2402D01*
X1095Y2486D01*
Y2577D01*
X1060Y2661D01*
X996Y2725D01*
X912Y2759D01*
X821D01*
X738Y2725D01*
X709Y2696D01*
X681Y2725D01*
X618Y2751D01*
X622Y2762D01*
Y2852D01*
X587Y2936D01*
X523Y3000D01*
X440Y3035D01*
X349D01*
X312Y3020D01*
X203Y3128D01*
X173Y3148D01*
X138Y3155D01*
X-295D01*
X-330Y3148D01*
X-360Y3128D01*
X-468Y3020D01*
X-505Y3035D01*
X-596D01*
X-680Y3000D01*
X-744Y2936D01*
X-839Y2969D01*
X-1982Y4112D01*
Y4263D01*
X-1978Y4264D01*
X-1930Y4312D01*
X-1904Y4375D01*
Y4442D01*
X-1930Y4505D01*
X-1978Y4553D01*
X-2040Y4579D01*
D02*
G37*
G36*
X-761Y1782D02*
X-828D01*
X-891Y1757D01*
X-938Y1709D01*
X-964Y1646D01*
Y1579D01*
X-938Y1516D01*
X-915Y1493D01*
X-938Y1469D01*
X-964Y1406D01*
Y1339D01*
X-938Y1276D01*
X-891Y1228D01*
X-828Y1203D01*
X-761D01*
X-698Y1228D01*
X-650Y1276D01*
X-624Y1339D01*
Y1406D01*
X-650Y1469D01*
X-674Y1493D01*
X-650Y1516D01*
X-624Y1579D01*
Y1646D01*
X-650Y1709D01*
X-698Y1757D01*
X-761Y1782D01*
D02*
G37*
%LPD*%
D13*
X138Y3063D02*
X394Y2807D01*
X-295Y3063D02*
X138D01*
X-551Y2807D02*
X-295Y3063D01*
X-807Y2807D02*
X-551D01*
X-2074Y4074D02*
X-807Y2807D01*
X-2074Y4074D02*
Y4409D01*
D25*
X-393Y2531D02*
D03*
X-551Y2807D02*
D03*
X-236D02*
D03*
X394D02*
D03*
X-1181D02*
D03*
X1024D02*
D03*
D26*
X1690Y843D02*
D03*
X-1846D02*
D03*
X1548Y2571D02*
D03*
X-1704D02*
D03*
D30*
X-3190Y11840D02*
X1851D01*
X3740Y3110D02*
X4020Y3390D01*
Y11280D01*
X3472Y11828D02*
X4020Y11280D01*
X1863Y11828D02*
X3472D01*
X-3960Y3330D02*
X-3740Y3110D01*
X-3960Y3330D02*
Y11070D01*
X-3190Y11840D01*
X1851D02*
X1863Y11828D01*
D32*
X3820Y3110D02*
D03*
X-4117Y3063D02*
D03*
D33*
X-3294Y6489D02*
D03*
X249Y7588D02*
D03*
X-263Y7587D02*
D03*
X-1704Y4081D02*
D03*
X477Y4276D02*
D03*
X237D02*
D03*
X1863Y11828D02*
D03*
X-7D02*
D03*
X-1877D02*
D03*
X3290Y4276D02*
D03*
X-3294D02*
D03*
X-3108Y12600D02*
D03*
X-1036D02*
D03*
X1036D02*
D03*
X3108D02*
D03*
X4475Y5383D02*
D03*
X3290Y2061D02*
D03*
X4475Y954D02*
D03*
X-4475D02*
D03*
X-3294Y2061D02*
D03*
X-4475Y5383D02*
D03*
X4475Y7597D02*
D03*
Y9812D02*
D03*
X-4475Y7597D02*
D03*
Y9812D02*
D03*
X-2074Y4409D02*
D03*
X1955Y7332D02*
D03*
X3575Y7132D02*
D03*
X2710Y5585D02*
D03*
X1538Y4081D02*
D03*
X-96D02*
D03*
X695D02*
D03*
X-915D02*
D03*
D40*
X-175Y2428D02*
Y2635D01*
X297Y3885D02*
X502Y3680D01*
X297Y3885D02*
Y4216D01*
X237Y4276D02*
X297Y4216D01*
X417Y3934D02*
X552Y3800D01*
X417Y3934D02*
Y4216D01*
X477Y4276D01*
X-175Y1805D02*
Y2428D01*
Y2635D02*
Y2746D01*
X-295Y1756D02*
X66Y1395D01*
X552Y3800D02*
X1850D01*
X2300Y3350D01*
Y1830D02*
Y3350D01*
X1830Y1360D02*
X2300Y1830D01*
X101Y1360D02*
X1830D01*
X66Y1395D02*
X101Y1360D01*
X66Y1395D02*
X66D01*
X-295Y1756D02*
Y2433D01*
X-393Y2531D02*
X-295Y2433D01*
X502Y3680D02*
X1800D01*
X2180Y3300D01*
Y1880D02*
Y3300D01*
X1780Y1480D02*
X2180Y1880D01*
X151Y1480D02*
X1780D01*
X-175Y1805D02*
X151Y1480D01*
X-236Y2807D02*
X-175Y2746D01*
M02*
