G04*
G04 #@! TF.GenerationSoftware,Altium Limited,Altium Designer,25.8.1 (18)*
G04*
G04 Layer_Color=128*
%FSLAX24Y24*%
%MOIN*%
G70*
G04*
G04 #@! TF.SameCoordinates,49C93ACE-A330-4151-A87E-CC17FFCD6081*
G04*
G04*
G04 #@! TF.FilePolarity,Positive*
G04*
G01*
G75*
%ADD20C,0.0020*%
D20*
X760Y12470D02*
X820D01*
X790Y12440D02*
Y12500D01*
X2416Y16253D02*
X2476D01*
X2446Y16223D02*
Y16283D01*
X4692Y14439D02*
X4752D01*
X4722Y14409D02*
Y14468D01*
X4470Y16320D02*
X4530D01*
X4500Y16290D02*
Y16350D01*
X4692Y12470D02*
X4752D01*
X4722Y12440D02*
Y12500D01*
X4280Y16040D02*
X4340D01*
X4310Y16010D02*
Y16070D01*
X2729Y12470D02*
X2788D01*
X2758Y12440D02*
Y12500D01*
X3140Y16040D02*
X3200D01*
X3170Y16010D02*
Y16070D01*
X2729Y14439D02*
X2788D01*
X2758Y14409D02*
Y14468D01*
X2950Y16320D02*
X3010D01*
X2980Y16290D02*
Y16350D01*
X6660Y12470D02*
X6720D01*
X6690Y12440D02*
Y12500D01*
X5004Y16253D02*
X5064D01*
X5034Y16223D02*
Y16283D01*
X-3672Y33020D02*
X-3612D01*
X-3642Y32990D02*
Y33050D01*
X-3475Y33300D02*
X-3415D01*
X-3445Y33270D02*
Y33330D01*
X-3278Y33020D02*
X-3218D01*
X-3248Y32990D02*
Y33050D01*
X-3081Y33300D02*
X-3021D01*
X-3051Y33270D02*
Y33330D01*
X-2294Y33300D02*
X-2234D01*
X-2264Y33270D02*
Y33330D01*
X-2491Y33020D02*
X-2431D01*
X-2461Y32990D02*
Y33050D01*
X-2687Y33300D02*
X-2627D01*
X-2657Y33270D02*
Y33330D01*
X-2884Y33020D02*
X-2824D01*
X-2854Y32990D02*
Y33050D01*
X-1310Y33300D02*
X-1250D01*
X-1280Y33270D02*
Y33330D01*
X-1506Y33020D02*
X-1446D01*
X-1476Y32990D02*
Y33050D01*
X-1703Y33300D02*
X-1643D01*
X-1673Y33270D02*
Y33330D01*
X-1900Y33020D02*
X-1840D01*
X-1870Y32990D02*
Y33050D01*
X-522Y33300D02*
X-462D01*
X-492Y33270D02*
Y33330D01*
X-719Y33020D02*
X-659D01*
X-689Y32990D02*
Y33050D01*
X-916Y33300D02*
X-856D01*
X-886Y33270D02*
Y33330D01*
X-1113Y33020D02*
X-1053D01*
X-1083Y32990D02*
Y33050D01*
X659Y33300D02*
X719D01*
X689Y33270D02*
Y33330D01*
X462Y33020D02*
X522D01*
X492Y32990D02*
Y33050D01*
X265Y33300D02*
X325D01*
X295Y33270D02*
Y33330D01*
X68Y33020D02*
X128D01*
X98Y32990D02*
Y33050D01*
X1446Y33300D02*
X1506D01*
X1476Y33270D02*
Y33330D01*
X1250Y33020D02*
X1310D01*
X1280Y32990D02*
Y33050D01*
X1053Y33300D02*
X1113D01*
X1083Y33270D02*
Y33330D01*
X856Y33020D02*
X916D01*
X886Y32990D02*
Y33050D01*
X2431Y33300D02*
X2491D01*
X2461Y33270D02*
Y33330D01*
X2234Y33020D02*
X2294D01*
X2264Y32990D02*
Y33050D01*
X2037Y33300D02*
X2097D01*
X2067Y33270D02*
Y33330D01*
X1840Y33020D02*
X1900D01*
X1870Y32990D02*
Y33050D01*
X2824Y33300D02*
X2884D01*
X2854Y33270D02*
Y33330D01*
X2627Y33020D02*
X2687D01*
X2657Y32990D02*
Y33050D01*
X3218Y33300D02*
X3278D01*
X3248Y33270D02*
Y33330D01*
X3021Y33020D02*
X3081D01*
X3051Y32990D02*
Y33050D01*
M02*
