G04*
G04 #@! TF.GenerationSoftware,Altium Limited,Altium Designer,25.8.1 (18)*
G04*
G04 Layer_Color=16711935*
%FSLAX24Y24*%
%MOIN*%
G70*
G04*
G04 #@! TF.SameCoordinates,49C93ACE-A330-4151-A87E-CC17FFCD6081*
G04*
G04*
G04 #@! TF.FilePolarity,Negative*
G04*
G01*
G75*
%ADD12C,0.0220*%
%ADD16R,0.0138X0.0984*%
D12*
X790Y12470D02*
D03*
X2446Y16253D02*
D03*
X4722Y14439D02*
D03*
X4500Y16320D02*
D03*
X4722Y12470D02*
D03*
X4310Y16040D02*
D03*
X2758Y12470D02*
D03*
X3170Y16040D02*
D03*
X2758Y14439D02*
D03*
X2980Y16320D02*
D03*
X6690Y12470D02*
D03*
X5034Y16253D02*
D03*
X-3642Y33020D02*
D03*
X-3445Y33300D02*
D03*
X-3248Y33020D02*
D03*
X-3051Y33300D02*
D03*
X-2264D02*
D03*
X-2461Y33020D02*
D03*
X-2657Y33300D02*
D03*
X-2854Y33020D02*
D03*
X-1280Y33300D02*
D03*
X-1476Y33020D02*
D03*
X-1673Y33300D02*
D03*
X-1870Y33020D02*
D03*
X-492Y33300D02*
D03*
X-689Y33020D02*
D03*
X-886Y33300D02*
D03*
X-1083Y33020D02*
D03*
X689Y33300D02*
D03*
X492Y33020D02*
D03*
X295Y33300D02*
D03*
X98Y33020D02*
D03*
X1476Y33300D02*
D03*
X1280Y33020D02*
D03*
X1083Y33300D02*
D03*
X886Y33020D02*
D03*
X2461Y33300D02*
D03*
X2264Y33020D02*
D03*
X2067Y33300D02*
D03*
X1870Y33020D02*
D03*
X2854Y33300D02*
D03*
X2657Y33020D02*
D03*
X3248Y33300D02*
D03*
X3051Y33020D02*
D03*
D16*
X3248Y36122D02*
D03*
X2854D02*
D03*
X2657D02*
D03*
X2461D02*
D03*
X3051D02*
D03*
X2264D02*
D03*
X2067D02*
D03*
X1870D02*
D03*
X1673D02*
D03*
X1476D02*
D03*
X1280D02*
D03*
X1083D02*
D03*
X886D02*
D03*
X689D02*
D03*
X492D02*
D03*
X295D02*
D03*
X98D02*
D03*
X-98D02*
D03*
X-295D02*
D03*
X-492D02*
D03*
X-689D02*
D03*
X-886D02*
D03*
X-1083D02*
D03*
X-1280D02*
D03*
X-1476D02*
D03*
X-1673D02*
D03*
X-1870D02*
D03*
X-2067D02*
D03*
X-2264D02*
D03*
X-2461D02*
D03*
X-2657D02*
D03*
X-2854D02*
D03*
X-3051D02*
D03*
X-3248D02*
D03*
X-3445D02*
D03*
X-3642D02*
D03*
M02*
