G04*
G04 #@! TF.GenerationSoftware,Altium Limited,Altium Designer,25.8.1 (18)*
G04*
G04 Layer_Color=16711935*
%FSLAX24Y24*%
%MOIN*%
G70*
G04*
G04 #@! TF.SameCoordinates,9AE8A2C5-6196-4BC8-9162-DC58875C59FE*
G04*
G04*
G04 #@! TF.FilePolarity,Positive*
G04*
G01*
G75*
%ADD17C,0.0079*%
D17*
X6693Y0D02*
G03*
X7480Y787I0J787D01*
G01*
X5610Y29513D02*
G03*
X4813Y31095I-1969J0D01*
G01*
X7480Y16142D02*
G03*
X6693Y16929I-787J0D01*
G01*
X6988Y21597D02*
G03*
X5807Y20416I0J-1181D01*
G01*
X4429Y25731D02*
G03*
X5610Y26912I0J1181D01*
G01*
X4055Y36614D02*
G03*
X4016Y36575I0J-39D01*
G01*
X787Y16929D02*
G03*
X0Y16142I0J-787D01*
G01*
X5807Y17815D02*
G03*
X6693Y16929I886J0D01*
G01*
X8563Y21597D02*
G03*
X9744Y22778I0J1181D01*
G01*
X3760Y0D02*
G03*
X3760Y0I-20J0D01*
G01*
X11339Y36575D02*
G03*
X11299Y36614I-39J0D01*
G01*
X10541Y31095D02*
G03*
X11339Y32677I-1171J1582D01*
G01*
X0Y787D02*
G03*
X787Y0I787J0D01*
G01*
X10541Y31095D02*
G03*
X9744Y29513I1171J-1582D01*
G01*
X4016Y32677D02*
G03*
X4813Y31095I1969J0D01*
G01*
X787Y16929D02*
G03*
X1673Y17815I0J886D01*
G01*
X2854Y25731D02*
G03*
X1673Y24550I0J-1181D01*
G01*
X787Y0D02*
X6693D01*
X1673Y17815D02*
Y24550D01*
X7480Y787D02*
Y16142D01*
X5807Y17815D02*
Y20416D01*
X11339Y32677D02*
Y36575D01*
X0Y787D02*
Y16142D01*
X6988Y21597D02*
X8563D01*
X4055Y36614D02*
X11299D01*
X5610Y26912D02*
Y29513D01*
X9744Y22778D02*
Y29513D01*
X2854Y25731D02*
X4429D01*
X4016Y32677D02*
Y36575D01*
M02*
