G04*
G04 #@! TF.GenerationSoftware,Altium Limited,Altium Designer,25.8.1 (18)*
G04*
G04 Layer_Color=128*
%FSLAX24Y24*%
%MOIN*%
G70*
G04*
G04 #@! TF.SameCoordinates,AD389247-0CA5-447C-8CCF-F1E00723D5D1*
G04*
G04*
G04 #@! TF.FilePolarity,Positive*
G04*
G01*
G75*
%ADD13R,0.0118X0.0472*%
%ADD14R,0.0276X0.0354*%
%ADD15R,0.0354X0.0098*%
%ADD16R,0.0866X0.1299*%
%ADD17R,0.0098X0.0354*%
%ADD18R,0.2402X0.2402*%
%ADD20R,0.0354X0.0276*%
D13*
X3445Y10769D02*
D03*
X3248D02*
D03*
X3051D02*
D03*
X2854D02*
D03*
X2657D02*
D03*
X2461D02*
D03*
X2264D02*
D03*
X2067D02*
D03*
X1870D02*
D03*
X1673D02*
D03*
X1476D02*
D03*
X1280D02*
D03*
X1083D02*
D03*
X886D02*
D03*
X689D02*
D03*
X492D02*
D03*
X295D02*
D03*
X98D02*
D03*
X-98D02*
D03*
X-295D02*
D03*
X-492D02*
D03*
X-689D02*
D03*
X-886D02*
D03*
X-1083D02*
D03*
X-1280D02*
D03*
X-1476D02*
D03*
X-1673D02*
D03*
X-1870D02*
D03*
X-2067D02*
D03*
X-2264D02*
D03*
X-2461D02*
D03*
X-2657D02*
D03*
X-2854D02*
D03*
X-3051D02*
D03*
X-3248D02*
D03*
X-3445D02*
D03*
D14*
X-3400Y6394D02*
D03*
Y6906D02*
D03*
D15*
X-1594Y7705D02*
D03*
Y8886D02*
D03*
Y9083D02*
D03*
X1594Y9280D02*
D03*
X-1594Y8492D02*
D03*
X1594Y7902D02*
D03*
X-1594Y8098D02*
D03*
X1594Y8492D02*
D03*
Y9083D02*
D03*
Y8689D02*
D03*
Y7705D02*
D03*
X-1594Y8295D02*
D03*
X1594Y7508D02*
D03*
Y8886D02*
D03*
X-1594Y7902D02*
D03*
Y8689D02*
D03*
X1594Y8295D02*
D03*
Y8098D02*
D03*
Y7311D02*
D03*
Y7114D02*
D03*
Y6917D02*
D03*
Y6720D02*
D03*
X-1594D02*
D03*
Y6917D02*
D03*
Y7114D02*
D03*
Y7311D02*
D03*
Y7508D02*
D03*
Y9280D02*
D03*
D16*
X4075Y11624D02*
D03*
X-4075D02*
D03*
D17*
X295Y9594D02*
D03*
X1083D02*
D03*
X689D02*
D03*
X1280D02*
D03*
X98D02*
D03*
X492D02*
D03*
X886D02*
D03*
X1280Y6406D02*
D03*
X1083D02*
D03*
X886D02*
D03*
X689D02*
D03*
X492D02*
D03*
X295D02*
D03*
X98D02*
D03*
X-98D02*
D03*
X-295D02*
D03*
X-492D02*
D03*
X-689D02*
D03*
X-886D02*
D03*
X-1083D02*
D03*
X-1280D02*
D03*
Y9594D02*
D03*
X-1083D02*
D03*
X-886D02*
D03*
X-689D02*
D03*
X-492D02*
D03*
X-295D02*
D03*
X-98D02*
D03*
D18*
X0Y8000D02*
D03*
D20*
X1244Y5200D02*
D03*
X1756D02*
D03*
M02*
