G04*
G04 #@! TF.GenerationSoftware,Altium Limited,Altium Designer,25.8.1 (18)*
G04*
G04 Layer_Color=32896*
%FSLAX24Y24*%
%MOIN*%
G70*
G04*
G04 #@! TF.SameCoordinates,AD389247-0CA5-447C-8CCF-F1E00723D5D1*
G04*
G04*
G04 #@! TF.FilePolarity,Positive*
G04*
G01*
G75*
%ADD10C,0.0079*%
%ADD12C,0.0080*%
%ADD42R,0.2030X0.3060*%
D10*
X1693Y9594D02*
G03*
X1693Y9594I-98J0D01*
G01*
X-4724Y10454D02*
Y12915D01*
X4724Y10454D02*
Y12915D01*
X-4724Y10454D02*
X4724D01*
X-4724Y12915D02*
X4724D01*
X1870Y6130D02*
Y9870D01*
X-1870Y6130D02*
Y9870D01*
X1870D01*
X-1870Y6130D02*
X1870D01*
X-3656Y7201D02*
X-3144D01*
Y6099D02*
Y7201D01*
X-3656Y6099D02*
Y7201D01*
Y6099D02*
X-3144D01*
X2051Y4944D02*
Y5456D01*
X949Y4944D02*
X2051D01*
X949Y5456D02*
X2051D01*
X949Y4944D02*
Y5456D01*
D12*
X4303Y6737D02*
X4370Y6670D01*
Y6537D01*
X4303Y6470D01*
X4237D01*
X4170Y6537D01*
Y6670D01*
X4103Y6737D01*
X4037D01*
X3970Y6670D01*
Y6537D01*
X4037Y6470D01*
X4370Y6870D02*
X3970D01*
Y7070D01*
X4037Y7136D01*
X4103D01*
X4170Y7070D01*
Y6870D01*
Y7070D01*
X4237Y7136D01*
X4303D01*
X4370Y7070D01*
Y6870D01*
X3970Y7270D02*
Y7403D01*
Y7336D01*
X4237D01*
Y7270D01*
X3970Y7670D02*
Y7803D01*
X4037Y7870D01*
X4170D01*
X4237Y7803D01*
Y7670D01*
X4170Y7603D01*
X4037D01*
X3970Y7670D01*
Y8003D02*
X4370D01*
X4237Y8136D01*
X4370Y8269D01*
X3970D01*
X4370Y8403D02*
X3970D01*
Y8669D01*
X3607Y6467D02*
X3274D01*
X3207Y6534D01*
Y6667D01*
X3274Y6734D01*
X3607D01*
Y6867D02*
X3207D01*
X3407D01*
Y7133D01*
X3607D01*
X3207D01*
X3607Y7267D02*
X3207D01*
Y7467D01*
X3274Y7533D01*
X3540D01*
X3607Y7467D01*
Y7267D01*
Y7933D02*
Y7667D01*
X3207D01*
Y7933D01*
X3407Y7667D02*
Y7800D01*
X3207Y8067D02*
X3607D01*
X3473Y8200D01*
X3607Y8333D01*
X3207D01*
X3540Y8733D02*
X3607Y8666D01*
Y8533D01*
X3540Y8466D01*
X3274D01*
X3207Y8533D01*
Y8666D01*
X3274Y8733D01*
X3407D01*
Y8600D01*
X-2157Y9850D02*
Y9517D01*
X-2223Y9450D01*
X-2357D01*
X-2423Y9517D01*
Y9850D01*
X-2823Y9450D02*
X-2557D01*
X-2823Y9717D01*
Y9783D01*
X-2757Y9850D01*
X-2623D01*
X-2557Y9783D01*
X-4223Y10060D02*
X-4090D01*
X-4157D01*
Y9727D01*
X-4090Y9660D01*
X-4023D01*
X-3957Y9727D01*
X-4357Y9993D02*
X-4423Y10060D01*
X-4557D01*
X-4623Y9993D01*
Y9927D01*
X-4557Y9860D01*
X-4490D01*
X-4557D01*
X-4623Y9793D01*
Y9727D01*
X-4557Y9660D01*
X-4423D01*
X-4357Y9727D01*
X-3345Y7777D02*
X-3278Y7844D01*
X-3145D01*
X-3078Y7777D01*
Y7511D01*
X-3145Y7444D01*
X-3278D01*
X-3345Y7511D01*
X-3678Y7444D02*
Y7844D01*
X-3478Y7644D01*
X-3745D01*
X427Y5333D02*
X493Y5400D01*
X627D01*
X693Y5333D01*
Y5067D01*
X627Y5000D01*
X493D01*
X427Y5067D01*
X27Y5000D02*
X293D01*
X27Y5267D01*
Y5333D01*
X93Y5400D01*
X227D01*
X293Y5333D01*
D42*
X3625Y4290D02*
D03*
M02*
