G04*
G04 #@! TF.GenerationSoftware,Altium Limited,Altium Designer,25.8.1 (18)*
G04*
G04 Layer_Physical_Order=1*
G04 Layer_Color=255*
%FSLAX24Y24*%
%MOIN*%
G70*
G04*
G04 #@! TF.SameCoordinates,AD389247-0CA5-447C-8CCF-F1E00723D5D1*
G04*
G04*
G04 #@! TF.FilePolarity,Positive*
G04*
G01*
G75*
%ADD12C,0.0080*%
%ADD13R,0.0118X0.0472*%
%ADD14R,0.0276X0.0354*%
%ADD15R,0.0354X0.0098*%
%ADD16R,0.0866X0.1299*%
%ADD17R,0.0098X0.0354*%
%ADD18R,0.2402X0.2402*%
%ADD19R,0.0118X0.0354*%
%ADD20R,0.0354X0.0276*%
%ADD29C,0.0256*%
G04:AMPARAMS|DCode=30|XSize=37.4mil|YSize=25.6mil|CornerRadius=12.8mil|HoleSize=0mil|Usage=FLASHONLY|Rotation=0.000|XOffset=0mil|YOffset=0mil|HoleType=Round|Shape=RoundedRectangle|*
%AMROUNDEDRECTD30*
21,1,0.0374,0.0000,0,0,0.0*
21,1,0.0118,0.0256,0,0,0.0*
1,1,0.0256,0.0059,0.0000*
1,1,0.0256,-0.0059,0.0000*
1,1,0.0256,-0.0059,0.0000*
1,1,0.0256,0.0059,0.0000*
%
%ADD30ROUNDEDRECTD30*%
G04:AMPARAMS|DCode=31|XSize=35.4mil|YSize=59.1mil|CornerRadius=17.7mil|HoleSize=0mil|Usage=FLASHONLY|Rotation=0.000|XOffset=0mil|YOffset=0mil|HoleType=Round|Shape=RoundedRectangle|*
%AMROUNDEDRECTD31*
21,1,0.0354,0.0236,0,0,0.0*
21,1,0.0000,0.0591,0,0,0.0*
1,1,0.0354,0.0000,-0.0118*
1,1,0.0354,0.0000,-0.0118*
1,1,0.0354,0.0000,0.0118*
1,1,0.0354,0.0000,0.0118*
%
%ADD31ROUNDEDRECTD31*%
%ADD32C,0.0050*%
%ADD33C,0.0049*%
%ADD34C,0.1417*%
%ADD35C,0.0140*%
G36*
X5148Y102D02*
X-5148D01*
Y13398D01*
X5148D01*
Y102D01*
D02*
G37*
%LPC*%
G36*
X4608Y12373D02*
X3542D01*
Y11106D01*
X1962D01*
Y11379D01*
X1966Y11381D01*
X2014Y11429D01*
X2040Y11491D01*
Y11559D01*
X2014Y11621D01*
X1966Y11669D01*
X1904Y11695D01*
X1836D01*
X1774Y11669D01*
X1726Y11621D01*
X1700Y11559D01*
Y11491D01*
X1726Y11429D01*
X1774Y11381D01*
X1778Y11379D01*
Y11106D01*
X190D01*
Y11427D01*
X183Y11462D01*
X168Y11485D01*
X170Y11491D01*
Y11559D01*
X144Y11621D01*
X96Y11669D01*
X34Y11695D01*
X-34D01*
X-96Y11669D01*
X-144Y11621D01*
X-170Y11559D01*
Y11491D01*
X-168Y11485D01*
X-183Y11462D01*
X-190Y11427D01*
Y11106D01*
X-1778D01*
Y11379D01*
X-1774Y11381D01*
X-1726Y11429D01*
X-1700Y11491D01*
Y11559D01*
X-1726Y11621D01*
X-1774Y11669D01*
X-1836Y11695D01*
X-1904D01*
X-1966Y11669D01*
X-2014Y11621D01*
X-2040Y11559D01*
Y11491D01*
X-2014Y11429D01*
X-1966Y11381D01*
X-1962Y11379D01*
Y11106D01*
X-3542D01*
Y12373D01*
X-4608D01*
Y10874D01*
X-3604D01*
Y10433D01*
X-3521D01*
Y8098D01*
X-3516Y8069D01*
X-3499Y8044D01*
X-3105Y7651D01*
X-3080Y7634D01*
X-3051Y7628D01*
X-2942D01*
X-2911Y7578D01*
X-2926Y7542D01*
Y7474D01*
X-2901Y7412D01*
X-2853Y7364D01*
X-2790Y7338D01*
X-2723D01*
X-2660Y7364D01*
X-2612Y7412D01*
X-2610Y7416D01*
X-1872D01*
Y7359D01*
X-1317D01*
Y7752D01*
Y8146D01*
Y8540D01*
Y8933D01*
Y9317D01*
X1317D01*
Y8933D01*
Y8540D01*
Y8146D01*
Y7752D01*
Y7359D01*
X1872D01*
Y7628D01*
X2669D01*
X2699Y7578D01*
X2684Y7542D01*
Y7474D01*
X2710Y7412D01*
X2758Y7364D01*
X2821Y7338D01*
X2888D01*
X2951Y7364D01*
X2998Y7412D01*
X3024Y7474D01*
Y7542D01*
X3009Y7578D01*
X3040Y7628D01*
X3051D01*
X3080Y7634D01*
X3105Y7651D01*
X3499Y8044D01*
X3516Y8069D01*
X3521Y8098D01*
Y10433D01*
X3604D01*
Y10874D01*
X4608D01*
Y12373D01*
D02*
G37*
G36*
X1872Y7263D02*
X1317D01*
Y6768D01*
X1872D01*
Y6826D01*
X2318D01*
X2364Y6779D01*
X2427Y6753D01*
X2494D01*
X2557Y6779D01*
X2605Y6827D01*
X2631Y6889D01*
Y6957D01*
X2605Y7019D01*
X2557Y7067D01*
X2494Y7093D01*
X2427D01*
X2364Y7067D01*
X2317Y7019D01*
X2312Y7009D01*
X1872D01*
Y7067D01*
Y7263D01*
D02*
G37*
G36*
X-2146Y7093D02*
X-2214D01*
X-2276Y7067D01*
X-2324Y7019D01*
X-2350Y6957D01*
Y6889D01*
X-2324Y6827D01*
X-2276Y6779D01*
X-2214Y6753D01*
X-2146D01*
X-2084Y6779D01*
X-2037Y6826D01*
X-1872D01*
Y6571D01*
X-1682D01*
X-1679Y6559D01*
X-1659Y6529D01*
X-1471Y6341D01*
X-1441Y6321D01*
X-1429Y6318D01*
Y6128D01*
X-933D01*
Y6683D01*
X-1317D01*
Y7067D01*
X-1872D01*
Y7009D01*
X-2032D01*
X-2036Y7019D01*
X-2084Y7067D01*
X-2146Y7093D01*
D02*
G37*
G36*
X1429Y6683D02*
X-838D01*
Y6128D01*
X-838D01*
X-843Y6080D01*
X-853Y6066D01*
X-2266D01*
X-2297Y6116D01*
X-2281Y6153D01*
Y6220D01*
X-2307Y6283D01*
X-2355Y6331D01*
X-2418Y6357D01*
X-2485D01*
X-2548Y6331D01*
X-2595Y6283D01*
X-2621Y6220D01*
Y6153D01*
X-2606Y6116D01*
X-2636Y6066D01*
X-4417D01*
X-4446Y6060D01*
X-4471Y6044D01*
X-4823Y5692D01*
X-4839Y5667D01*
X-4845Y5638D01*
Y5008D01*
X-4839Y4979D01*
X-4823Y4955D01*
X-4565Y4697D01*
X-4540Y4680D01*
X-4511Y4675D01*
X-4400D01*
Y4646D01*
X-4374Y4584D01*
X-4326Y4536D01*
X-4264Y4510D01*
X-4196D01*
X-4134Y4536D01*
X-4086Y4584D01*
X-4060Y4646D01*
Y4675D01*
X-3838D01*
X-3838Y4674D01*
Y4267D01*
X-3362D01*
Y4674D01*
X-3362Y4675D01*
X-3142D01*
X-2213Y3746D01*
X-2189Y3729D01*
X-2160Y3724D01*
X-1098D01*
X-992Y3617D01*
X-1011Y3571D01*
X-1045D01*
Y3017D01*
X-666D01*
X-646Y2967D01*
X-666Y2947D01*
X-700Y2863D01*
Y2772D01*
X-696Y2762D01*
X-759Y2735D01*
X-787Y2707D01*
X-816Y2735D01*
X-900Y2770D01*
X-990D01*
X-1074Y2735D01*
X-1138Y2671D01*
X-1173Y2587D01*
Y2497D01*
X-1138Y2413D01*
X-1074Y2349D01*
X-990Y2314D01*
X-900D01*
X-816Y2349D01*
X-787Y2377D01*
X-759Y2349D01*
X-675Y2314D01*
X-585D01*
X-501Y2349D01*
X-437Y2413D01*
X-402Y2497D01*
Y2587D01*
X-406Y2598D01*
X-343Y2624D01*
X-315Y2653D01*
X-287Y2624D01*
X-203Y2590D01*
X-112D01*
X-28Y2624D01*
X0Y2653D01*
X28Y2624D01*
X92Y2598D01*
X87Y2587D01*
Y2497D01*
X122Y2413D01*
X186Y2349D01*
X270Y2314D01*
X360D01*
X444Y2349D01*
X472Y2377D01*
X501Y2349D01*
X585Y2314D01*
X675D01*
X759Y2349D01*
X787Y2377D01*
X816Y2349D01*
X900Y2314D01*
X990D01*
X1074Y2349D01*
X1138Y2413D01*
X1173Y2497D01*
Y2587D01*
X1138Y2671D01*
X1074Y2735D01*
X990Y2770D01*
X900D01*
X816Y2735D01*
X787Y2707D01*
X759Y2735D01*
X696Y2762D01*
X700Y2772D01*
Y2863D01*
X666Y2947D01*
X646Y2967D01*
X666Y3017D01*
X1045D01*
Y3571D01*
X913D01*
Y4084D01*
X963Y4094D01*
X975Y4064D01*
X1023Y4016D01*
X1086Y3990D01*
X1153D01*
X1216Y4016D01*
X1239Y4040D01*
X1263Y4016D01*
X1326Y3990D01*
X1393D01*
X1456Y4016D01*
X1504Y4064D01*
X1530Y4126D01*
Y4194D01*
X1504Y4256D01*
X1456Y4304D01*
X1393Y4330D01*
X1365D01*
Y5341D01*
X1359Y5370D01*
X1343Y5395D01*
X1343Y5395D01*
X716Y6021D01*
Y6128D01*
X794D01*
Y6108D01*
X801Y6073D01*
X821Y6043D01*
X1517Y5347D01*
Y4962D01*
X1702D01*
Y4690D01*
X1698Y4688D01*
X1650Y4640D01*
X1624Y4578D01*
Y4510D01*
X1650Y4448D01*
X1698Y4400D01*
X1760Y4374D01*
X1828D01*
X1890Y4400D01*
X1938Y4448D01*
X1964Y4510D01*
Y4578D01*
X1938Y4640D01*
X1890Y4688D01*
X1886Y4690D01*
Y4962D01*
X2071D01*
Y5438D01*
X1686D01*
X1042Y6082D01*
X1061Y6128D01*
X1429D01*
Y6329D01*
X2071D01*
X2210Y6190D01*
X2210Y6190D01*
X2235Y6173D01*
X2264Y6168D01*
X2264Y6168D01*
X3162D01*
Y5967D01*
X3638D01*
Y6521D01*
X3162D01*
Y6321D01*
X2295D01*
X2156Y6460D01*
X2132Y6476D01*
X2102Y6482D01*
X1429D01*
Y6683D01*
D02*
G37*
G36*
X-1372Y3302D02*
X-1463D01*
X-1546Y3267D01*
X-1611Y3203D01*
X-1645Y3119D01*
Y3028D01*
X-1611Y2945D01*
X-1546Y2880D01*
X-1463Y2846D01*
X-1372D01*
X-1288Y2880D01*
X-1224Y2945D01*
X-1189Y3028D01*
Y3119D01*
X-1224Y3203D01*
X-1288Y3267D01*
X-1372Y3302D01*
D02*
G37*
G36*
X1476Y3306D02*
X1358D01*
X1269Y3288D01*
X1194Y3238D01*
X1144Y3163D01*
X1126Y3074D01*
X1144Y2985D01*
X1194Y2909D01*
X1269Y2859D01*
X1358Y2841D01*
X1476D01*
X1565Y2859D01*
X1641Y2909D01*
X1691Y2985D01*
X1709Y3074D01*
X1691Y3163D01*
X1641Y3238D01*
X1565Y3288D01*
X1476Y3306D01*
D02*
G37*
G36*
X3988Y3671D02*
X3512D01*
Y3117D01*
X3674D01*
Y2309D01*
X3670D01*
X3514Y2278D01*
X3367Y2217D01*
X3235Y2128D01*
X3122Y2015D01*
X3033Y1883D01*
X2972Y1736D01*
X2941Y1580D01*
Y1420D01*
X2972Y1264D01*
X3033Y1117D01*
X3122Y985D01*
X3235Y872D01*
X3367Y783D01*
X3514Y722D01*
X3670Y691D01*
X3830D01*
X3986Y722D01*
X4133Y783D01*
X4265Y872D01*
X4378Y985D01*
X4467Y1117D01*
X4528Y1264D01*
X4559Y1420D01*
Y1580D01*
X4528Y1736D01*
X4467Y1883D01*
X4378Y2015D01*
X4265Y2128D01*
X4133Y2217D01*
X3986Y2278D01*
X3830Y2309D01*
X3826D01*
Y3117D01*
X3988D01*
Y3671D01*
D02*
G37*
G36*
X-3670Y2309D02*
X-3830D01*
X-3986Y2278D01*
X-4133Y2217D01*
X-4265Y2128D01*
X-4378Y2015D01*
X-4467Y1883D01*
X-4528Y1736D01*
X-4559Y1580D01*
Y1420D01*
X-4528Y1264D01*
X-4467Y1117D01*
X-4378Y985D01*
X-4265Y872D01*
X-4133Y783D01*
X-3986Y722D01*
X-3830Y691D01*
X-3670D01*
X-3514Y722D01*
X-3367Y783D01*
X-3235Y872D01*
X-3122Y985D01*
X-3033Y1117D01*
X-2972Y1264D01*
X-2941Y1420D01*
Y1580D01*
X-2972Y1736D01*
X-3033Y1883D01*
X-3122Y2015D01*
X-3235Y2128D01*
X-3367Y2217D01*
X-3514Y2278D01*
X-3670Y2309D01*
D02*
G37*
%LPD*%
G36*
X465Y5949D02*
X471Y5920D01*
X487Y5895D01*
X1114Y5269D01*
Y4330D01*
X1086D01*
X1023Y4304D01*
X975Y4256D01*
X963Y4226D01*
X913Y4236D01*
Y4504D01*
X907Y4533D01*
X891Y4557D01*
X545Y4903D01*
X520Y4920D01*
X491Y4925D01*
X238D01*
X238Y4926D01*
Y5333D01*
X47D01*
X26Y5383D01*
X300Y5657D01*
X317Y5682D01*
X322Y5711D01*
Y6128D01*
X465D01*
Y5949D01*
D02*
G37*
G36*
X-857Y5529D02*
X-1039Y5348D01*
X-1055Y5323D01*
X-1061Y5294D01*
Y5005D01*
X-1055Y4976D01*
X-1039Y4952D01*
X-784Y4697D01*
X-759Y4680D01*
X-730Y4675D01*
X-662D01*
Y4646D01*
X-636Y4584D01*
X-588Y4536D01*
X-526Y4510D01*
X-458D01*
X-396Y4536D01*
X-348Y4584D01*
X-322Y4646D01*
Y4675D01*
X-238D01*
X-238Y4674D01*
Y4267D01*
X238D01*
Y4674D01*
X238Y4675D01*
X419D01*
X662Y4431D01*
Y3571D01*
X125D01*
Y3841D01*
X120Y3870D01*
X103Y3894D01*
X-175Y4173D01*
X-200Y4189D01*
X-229Y4195D01*
X-614D01*
X-1323Y4903D01*
X-1347Y4920D01*
X-1376Y4925D01*
X-1562D01*
X-1562Y4926D01*
Y5333D01*
X-2038D01*
Y4926D01*
X-2038Y4925D01*
X-2210D01*
Y4954D01*
X-2236Y5016D01*
X-2284Y5064D01*
X-2346Y5090D01*
X-2414D01*
X-2476Y5064D01*
X-2524Y5016D01*
X-2570Y5036D01*
X-2582Y5045D01*
Y5385D01*
X-2387Y5579D01*
X-878D01*
X-857Y5529D01*
D02*
G37*
G36*
X-2556Y5765D02*
X-2810Y5511D01*
X-2827Y5486D01*
X-2832Y5457D01*
Y4926D01*
X-2827Y4897D01*
X-2810Y4872D01*
X-2635Y4697D01*
X-2610Y4680D01*
X-2581Y4675D01*
X-2550D01*
Y4646D01*
X-2524Y4584D01*
X-2476Y4536D01*
X-2414Y4510D01*
X-2346D01*
X-2284Y4536D01*
X-2236Y4584D01*
X-2210Y4646D01*
Y4675D01*
X-2038D01*
X-2038Y4674D01*
Y4267D01*
X-1562D01*
Y4674D01*
X-1562Y4675D01*
X-1449D01*
X-741Y3966D01*
X-716Y3950D01*
X-687Y3944D01*
X-301D01*
X-125Y3768D01*
Y3571D01*
X-662D01*
Y3611D01*
X-668Y3640D01*
X-684Y3665D01*
X-684Y3665D01*
X-972Y3952D01*
X-996Y3969D01*
X-1025Y3974D01*
X-2087D01*
X-3016Y4903D01*
X-3040Y4920D01*
X-3070Y4925D01*
X-3362D01*
X-3362Y4926D01*
Y5333D01*
X-3838D01*
Y4926D01*
X-3838Y4925D01*
X-4060D01*
Y4954D01*
X-4086Y5016D01*
X-4134Y5064D01*
X-4196Y5090D01*
X-4264D01*
X-4326Y5064D01*
X-4374Y5016D01*
X-4400Y4954D01*
Y4953D01*
X-4450Y4937D01*
X-4594Y5081D01*
Y5565D01*
X-4344Y5815D01*
X-2577D01*
X-2556Y5765D01*
D02*
G37*
D12*
X-1870Y10769D02*
Y11525D01*
X1870Y10769D02*
Y11525D01*
X98Y10769D02*
Y11427D01*
X0Y11525D02*
X98Y11427D01*
X-98D02*
X0Y11525D01*
X-98Y10769D02*
Y11427D01*
X-2756Y7508D02*
X-1594D01*
Y6720D02*
Y6917D01*
X1594D02*
Y7114D01*
X-1594Y6594D02*
Y6720D01*
X-1406Y6406D02*
X-1280D01*
X-1594Y6594D02*
X-1406Y6406D01*
X-1280D02*
X-1083D01*
X1083Y2837D02*
X1102Y2818D01*
X1083Y2837D02*
Y3294D01*
X492Y2837D02*
Y3294D01*
X472Y2818D02*
X492Y2837D01*
X295Y3294D02*
X492D01*
X-492Y2837D02*
X-472Y2818D01*
X-492Y2837D02*
Y3294D01*
X-1102Y2818D02*
X-1083Y2837D01*
Y3294D01*
X-689Y7311D02*
X0Y8000D01*
X-1594Y7311D02*
X-689D01*
X3750Y3906D02*
Y4544D01*
X1594Y6720D02*
X2264D01*
X2455Y6917D02*
X2461Y6923D01*
X1594Y6917D02*
X2455D01*
X-2174D02*
X-1594D01*
X-2180Y6923D02*
X-2174Y6917D01*
X-1594Y7114D02*
X-886D01*
Y6406D02*
Y7114D01*
X689Y7311D02*
X1280Y6720D01*
X1594D01*
X689Y7311D02*
X1594D01*
X2461D01*
X3400Y6756D02*
Y7311D01*
X2306Y5200D02*
X2900D01*
X1794Y4544D02*
Y5200D01*
X886Y6108D02*
X1794Y5200D01*
X886Y6108D02*
Y6406D01*
D13*
X98Y10769D02*
D03*
X1870D02*
D03*
X-1870D02*
D03*
X-98D02*
D03*
X-3445D02*
D03*
X-3248D02*
D03*
X-3051D02*
D03*
X-2854D02*
D03*
X-2657D02*
D03*
X-2461D02*
D03*
X-2264D02*
D03*
X-2067D02*
D03*
X-1673D02*
D03*
X-1476D02*
D03*
X-1280D02*
D03*
X-1083D02*
D03*
X-886D02*
D03*
X-689D02*
D03*
X-492D02*
D03*
X-295D02*
D03*
X295D02*
D03*
X492D02*
D03*
X689D02*
D03*
X886D02*
D03*
X1083D02*
D03*
X1280D02*
D03*
X1476D02*
D03*
X1673D02*
D03*
X2067D02*
D03*
X2264D02*
D03*
X2461D02*
D03*
X2657D02*
D03*
X2854D02*
D03*
X3051D02*
D03*
X3248D02*
D03*
X3445D02*
D03*
D14*
X3750Y3394D02*
D03*
Y3906D02*
D03*
X-1800Y5056D02*
D03*
Y4544D02*
D03*
X0Y5056D02*
D03*
Y4544D02*
D03*
X-3600Y5056D02*
D03*
Y4544D02*
D03*
X3400Y6244D02*
D03*
Y6756D02*
D03*
D15*
X-1594Y7508D02*
D03*
X1594Y8689D02*
D03*
Y7705D02*
D03*
Y8295D02*
D03*
Y7902D02*
D03*
Y8098D02*
D03*
Y9280D02*
D03*
Y8492D02*
D03*
Y8886D02*
D03*
Y9083D02*
D03*
X-1594Y9280D02*
D03*
Y8295D02*
D03*
Y7902D02*
D03*
Y8689D02*
D03*
Y9083D02*
D03*
Y7705D02*
D03*
Y8886D02*
D03*
Y8098D02*
D03*
Y8492D02*
D03*
Y7311D02*
D03*
Y7114D02*
D03*
Y6917D02*
D03*
Y6720D02*
D03*
X1594D02*
D03*
Y6917D02*
D03*
Y7114D02*
D03*
Y7311D02*
D03*
Y7508D02*
D03*
D16*
X-4075Y11624D02*
D03*
X4075D02*
D03*
D17*
X98Y9594D02*
D03*
X1083D02*
D03*
X689D02*
D03*
X1280D02*
D03*
X-98D02*
D03*
X-1280D02*
D03*
X-492D02*
D03*
X-295D02*
D03*
X492D02*
D03*
X-886D02*
D03*
X-1083D02*
D03*
X-689D02*
D03*
X295D02*
D03*
X886D02*
D03*
X-1280Y6406D02*
D03*
X-1083D02*
D03*
X-886D02*
D03*
X-689D02*
D03*
X-492D02*
D03*
X-295D02*
D03*
X-98D02*
D03*
X98D02*
D03*
X295D02*
D03*
X492D02*
D03*
X689D02*
D03*
X886D02*
D03*
X1083D02*
D03*
X1280D02*
D03*
D18*
X0Y8000D02*
D03*
D19*
X-1083Y3294D02*
D03*
X-886D02*
D03*
X-689D02*
D03*
X-492D02*
D03*
X-295D02*
D03*
X-98D02*
D03*
X98D02*
D03*
X295D02*
D03*
X492D02*
D03*
X689D02*
D03*
X886D02*
D03*
X1083D02*
D03*
D20*
X1794Y5200D02*
D03*
X2306D02*
D03*
D29*
X-1417Y3074D02*
D03*
X1102Y2818D02*
D03*
X945Y2542D02*
D03*
X630D02*
D03*
X315D02*
D03*
X472Y2818D02*
D03*
X157D02*
D03*
X-157D02*
D03*
X-315Y2542D02*
D03*
X-472Y2818D02*
D03*
X-630Y2542D02*
D03*
X-945D02*
D03*
X-1102Y2818D02*
D03*
D30*
X1417Y3074D02*
D03*
D31*
X-1626Y2582D02*
D03*
X1626D02*
D03*
X-1768Y853D02*
D03*
X1768D02*
D03*
D32*
X3750Y1500D02*
Y3394D01*
X-3445Y8098D02*
Y10769D01*
X-3248Y8178D02*
Y10769D01*
X-3051Y8295D02*
Y10769D01*
X-2854Y8504D02*
Y10769D01*
X-2657Y8689D02*
Y10769D01*
X-2461Y8886D02*
Y10769D01*
X-2264Y9064D02*
Y10769D01*
X-2070Y10766D02*
X-2067Y10769D01*
X-2070Y9190D02*
Y10766D01*
X-1673Y9280D02*
Y10769D01*
X-1476Y9908D02*
X-1280Y9711D01*
Y9594D02*
Y9711D01*
X-1476Y9908D02*
Y10769D01*
X-1280Y10062D02*
X-1083Y9865D01*
Y9594D02*
Y9865D01*
X-1280Y10062D02*
Y10769D01*
X-1083Y10062D02*
X-886Y9865D01*
Y9594D02*
Y9865D01*
X-1083Y10062D02*
Y10769D01*
X-886Y10111D02*
Y10769D01*
X-689Y9594D02*
Y9914D01*
X-886Y10111D02*
X-689Y9914D01*
X-492Y9594D02*
Y9963D01*
X-689Y10160D02*
X-492Y9963D01*
X-689Y10160D02*
Y10769D01*
X-492Y10202D02*
X-295Y10005D01*
X-492Y10202D02*
Y10769D01*
X-295Y9594D02*
Y10005D01*
Y10251D02*
X-98Y10054D01*
X-295Y10251D02*
Y10769D01*
X-98Y9594D02*
Y10054D01*
X2461Y8886D02*
Y10769D01*
X1594Y8689D02*
X2264D01*
X2461Y8886D01*
X3445Y8098D02*
Y10769D01*
X1594Y7705D02*
X3051D01*
X3445Y8098D01*
X2854Y8504D02*
Y10769D01*
X1594Y8295D02*
X2645D01*
X2854Y8504D01*
X3248Y8178D02*
Y10769D01*
X1594Y7902D02*
X2972D01*
X3248Y8178D01*
X3051Y8295D02*
Y10769D01*
X1594Y8098D02*
X2854D01*
X3051Y8295D01*
X1673Y9280D02*
Y10769D01*
X1594Y9280D02*
X1673D01*
X2657Y8689D02*
Y10769D01*
X1594Y8492D02*
X2461D01*
X2657Y8689D01*
X2264Y9064D02*
Y10769D01*
X1594Y8886D02*
X2086D01*
X2264Y9064D01*
X2067Y10769D02*
X2070Y10766D01*
Y9190D02*
Y10766D01*
X1594Y9083D02*
X1963D01*
X2070Y9190D01*
X98Y9594D02*
Y10054D01*
X295Y10251D02*
Y10769D01*
X98Y10054D02*
X295Y10251D01*
Y9594D02*
Y10005D01*
X492Y10202D02*
Y10769D01*
X295Y10005D02*
X492Y10202D01*
X689Y10160D02*
Y10769D01*
X492Y9963D02*
X689Y10160D01*
X492Y9594D02*
Y9963D01*
X689Y9914D02*
X886Y10111D01*
X689Y9594D02*
Y9914D01*
X886Y10111D02*
Y10769D01*
X1083Y10062D02*
Y10769D01*
X886Y9594D02*
Y9865D01*
X1083Y10062D01*
X1280D02*
Y10769D01*
X1083Y9594D02*
Y9865D01*
X1280Y10062D01*
X1476Y9908D02*
Y10769D01*
X1280Y9594D02*
Y9711D01*
X1476Y9908D01*
X-1673Y9280D02*
X-1594D01*
X-2645Y8295D02*
X-1594D01*
X-2854Y8504D02*
X-2645Y8295D01*
X-2972Y7902D02*
X-1594D01*
X-3248Y8178D02*
X-2972Y7902D01*
X-2264Y8689D02*
X-1594D01*
X-2461Y8886D02*
X-2264Y8689D01*
X-1963Y9083D02*
X-1594D01*
X-2070Y9190D02*
X-1963Y9083D01*
X-3051Y7705D02*
X-1594D01*
X-3445Y8098D02*
X-3051Y7705D01*
X-2086Y8886D02*
X-1594D01*
X-2264Y9064D02*
X-2086Y8886D01*
X-2854Y8098D02*
X-1594D01*
X-3051Y8295D02*
X-2854Y8098D01*
X-2461Y8492D02*
X-1594D01*
X-2657Y8689D02*
X-2461Y8492D01*
X2264Y6244D02*
X3400D01*
X2102Y6406D02*
X2264Y6244D01*
X1280Y6406D02*
X2102D01*
D33*
X-749Y5891D02*
X-541Y6099D01*
X-4376Y5891D02*
X-749D01*
X-4417Y5990D02*
X-790D01*
X-4769Y5638D02*
X-4417Y5990D01*
X-790D02*
X-640Y6140D01*
X-4670Y5597D02*
X-4376Y5891D01*
X-3394Y4850D02*
X-3070D01*
X-2160Y3799D02*
X-1066D01*
X-3111Y4751D02*
X-2160Y3799D01*
X-3394Y4751D02*
X-3111D01*
X-3070Y4850D02*
X-2119Y3898D01*
X-1025D01*
X-687Y4020D02*
X-270D01*
X-229Y4119D02*
X49Y3841D01*
X-646Y4119D02*
X-229D01*
X-1376Y4850D02*
X-646Y4119D01*
X-270Y4020D02*
X-49Y3799D01*
X-1417Y4751D02*
X-687Y4020D01*
X-3600Y4544D02*
X-3394Y4751D01*
X-4670Y5049D02*
Y5597D01*
X-4769Y5008D02*
Y5638D01*
Y5008D02*
X-4511Y4751D01*
X-4300D01*
X-4230Y4680D01*
X-4670Y5049D02*
X-4470Y4850D01*
X-4300D01*
X-4230Y4920D01*
X-4160Y4850D01*
X-3806D01*
X-3600Y5056D01*
X-4230Y4680D02*
X-4160Y4751D01*
X-3806D01*
X-3600Y4544D01*
Y5056D02*
X-3394Y4850D01*
X-1066Y3799D02*
X-837Y3570D01*
Y3343D02*
Y3570D01*
X-886Y3294D02*
X-837Y3343D01*
X-1025Y3898D02*
X-738Y3611D01*
Y3343D02*
Y3611D01*
Y3343D02*
X-689Y3294D01*
X-2657Y4967D02*
Y5416D01*
X-2756Y4926D02*
Y5457D01*
X-2459Y5754D02*
X-591D01*
X-2418Y5655D02*
X-550D01*
X-2657Y5416D02*
X-2418Y5655D01*
X-2756Y5457D02*
X-2459Y5754D01*
X-985Y5005D02*
Y5294D01*
X-886Y5046D02*
Y5253D01*
X-732Y5407D02*
X-57D01*
X-886Y5253D02*
X-732Y5407D01*
X-985Y5294D02*
X-773Y5506D01*
X-591Y5754D02*
X-246Y6099D01*
X-550Y5655D02*
X-147Y6058D01*
X-541Y6099D02*
Y6357D01*
X-57Y5407D02*
X246Y5711D01*
X-98Y5506D02*
X147Y5752D01*
Y6357D01*
X246Y5711D02*
Y6357D01*
X-773Y5506D02*
X-98D01*
X-147Y6058D02*
Y6357D01*
X-98Y6406D01*
X-246Y6099D02*
Y6357D01*
X-295Y6406D02*
X-246Y6357D01*
X-886Y5046D02*
X-689Y4850D01*
X-985Y5005D02*
X-730Y4751D01*
X-640Y6140D02*
Y6357D01*
X-689Y6406D02*
X-640Y6357D01*
X-541D02*
X-492Y6406D01*
X-2756Y4926D02*
X-2581Y4751D01*
X-2450D01*
X-2380Y4680D01*
X-2657Y4967D02*
X-2540Y4850D01*
X-2450D01*
X-2380Y4920D01*
X-2309Y4850D01*
X-2006D01*
X-1800Y5056D01*
X-2380Y4680D02*
X-2309Y4751D01*
X-2006D01*
X-1800Y4544D01*
X49Y3343D02*
Y3841D01*
X-1594Y4850D02*
X-1376D01*
X-1800Y5056D02*
X-1594Y4850D01*
X-49Y3343D02*
Y3799D01*
X-1594Y4751D02*
X-1417D01*
X-1800Y4544D02*
X-1594Y4751D01*
X49Y3343D02*
X98Y3294D01*
X-98D02*
X-49Y3343D01*
X246Y6357D02*
X295Y6406D01*
X98D02*
X147Y6357D01*
X-689Y4850D02*
X-563D01*
X-492Y4920D01*
X-730Y4751D02*
X-563D01*
X-492Y4680D01*
Y4920D02*
X-422Y4850D01*
X-206D01*
X0Y5056D01*
X-492Y4680D02*
X-422Y4751D01*
X-206D01*
X0Y4544D01*
X837Y3343D02*
Y4504D01*
X491Y4850D02*
X837Y4504D01*
X206Y4850D02*
X491D01*
X0Y5056D02*
X206Y4850D01*
X738Y3343D02*
Y4463D01*
X450Y4751D02*
X738Y4463D01*
X206Y4751D02*
X450D01*
X0Y4544D02*
X206Y4751D01*
X837Y3343D02*
X886Y3294D01*
X689D02*
X738Y3343D01*
X1289Y4230D02*
Y5341D01*
X640Y5990D02*
Y6357D01*
X1190Y4230D02*
Y5300D01*
X541Y5949D02*
X1190Y5300D01*
X541Y5949D02*
Y6357D01*
X640Y5990D02*
X1289Y5341D01*
Y4230D02*
X1359Y4160D01*
X640Y6357D02*
X689Y6406D01*
X1120Y4160D02*
X1190Y4230D01*
X492Y6406D02*
X541Y6357D01*
D34*
X3750Y1500D02*
D03*
X-3750D02*
D03*
D35*
X-1870Y11525D02*
D03*
X1870D02*
D03*
X2854Y7508D02*
D03*
X0Y11525D02*
D03*
X-2756Y7508D02*
D03*
X-2451Y6187D02*
D03*
X945Y4751D02*
D03*
X-4230Y5253D02*
D03*
X4540Y9791D02*
D03*
Y7902D02*
D03*
Y5294D02*
D03*
Y3540D02*
D03*
X2455Y2542D02*
D03*
Y4230D02*
D03*
X-1280Y5200D02*
D03*
X-2972Y4020D02*
D03*
X-4470Y3074D02*
D03*
X-2756Y2818D02*
D03*
X-4160Y8390D02*
D03*
Y9973D02*
D03*
Y6917D02*
D03*
X-2461Y7311D02*
D03*
Y6720D02*
D03*
X3750Y4544D02*
D03*
X2264Y6720D02*
D03*
X2461Y6923D02*
D03*
X-2180D02*
D03*
X2461Y7311D02*
D03*
X3400D02*
D03*
X2900Y5200D02*
D03*
X1794Y4544D02*
D03*
X-4230Y4920D02*
D03*
Y4680D02*
D03*
X-2380Y4920D02*
D03*
Y4680D02*
D03*
X-492Y4920D02*
D03*
Y4680D02*
D03*
X1359Y4160D02*
D03*
X1120D02*
D03*
M02*
