G04*
G04 #@! TF.GenerationSoftware,Altium Limited,Altium Designer,25.8.1 (18)*
G04*
G04 Layer_Color=16711935*
%FSLAX24Y24*%
%MOIN*%
G70*
G04*
G04 #@! TF.SameCoordinates,E1EB2F7F-13AF-4CD7-81AC-88ABE11EA0C5*
G04*
G04*
G04 #@! TF.FilePolarity,Negative*
G04*
G01*
G75*
%ADD33C,0.0240*%
%ADD37C,0.0618*%
%ADD38C,0.0256*%
G04:AMPARAMS|DCode=39|XSize=35.4mil|YSize=59.1mil|CornerRadius=17.7mil|HoleSize=0mil|Usage=FLASHONLY|Rotation=90.000|XOffset=0mil|YOffset=0mil|HoleType=Round|Shape=RoundedRectangle|*
%AMROUNDEDRECTD39*
21,1,0.0354,0.0236,0,0,90.0*
21,1,0.0000,0.0591,0,0,90.0*
1,1,0.0354,0.0118,0.0000*
1,1,0.0354,0.0118,0.0000*
1,1,0.0354,-0.0118,0.0000*
1,1,0.0354,-0.0118,0.0000*
%
%ADD39ROUNDEDRECTD39*%
G04:AMPARAMS|DCode=40|XSize=37.4mil|YSize=25.6mil|CornerRadius=12.8mil|HoleSize=0mil|Usage=FLASHONLY|Rotation=90.000|XOffset=0mil|YOffset=0mil|HoleType=Round|Shape=RoundedRectangle|*
%AMROUNDEDRECTD40*
21,1,0.0374,0.0000,0,0,90.0*
21,1,0.0118,0.0256,0,0,90.0*
1,1,0.0256,0.0000,0.0059*
1,1,0.0256,0.0000,-0.0059*
1,1,0.0256,0.0000,-0.0059*
1,1,0.0256,0.0000,0.0059*
%
%ADD40ROUNDEDRECTD40*%
%ADD43R,0.0618X0.0618*%
%ADD47C,0.0320*%
%ADD48C,0.0200*%
%ADD76R,0.0138X0.0492*%
%ADD77R,0.0886X0.1319*%
%ADD90C,0.1457*%
%ADD91R,0.0640X0.0640*%
%ADD92C,0.0640*%
%ADD93C,0.0280*%
%ADD94C,0.0587*%
%ADD95R,0.0587X0.0587*%
%ADD96O,0.0634X0.1227*%
%ADD97O,0.1227X0.0634*%
%ADD98C,0.0650*%
%ADD99R,0.0650X0.0650*%
%ADD100C,0.0440*%
%ADD101C,0.2009*%
D33*
X-69645Y68127D02*
D03*
X-38260Y19700D02*
D03*
X-36660Y19600D02*
D03*
X-38260Y26700D02*
D03*
Y33700D02*
D03*
X-36660Y26600D02*
D03*
Y33600D02*
D03*
X-71675Y45600D02*
D03*
X-69786Y46100D02*
D03*
X-59392D02*
D03*
X-63171Y50500D02*
D03*
X-70718Y60825D02*
D03*
X-77393Y61700D02*
D03*
Y63200D02*
D03*
X-77193Y64800D02*
D03*
X-66172Y60816D02*
D03*
X-38260Y40700D02*
D03*
Y47700D02*
D03*
X-36660Y54600D02*
D03*
Y40600D02*
D03*
Y47600D02*
D03*
X-53760Y63076D02*
D03*
X-38260Y61700D02*
D03*
X-53760Y64076D02*
D03*
Y66076D02*
D03*
Y65076D02*
D03*
X-38260Y68700D02*
D03*
X-36660Y61600D02*
D03*
Y68600D02*
D03*
X-34667Y14765D02*
D03*
X-34660Y16806D02*
D03*
Y15789D02*
D03*
X-34667Y21765D02*
D03*
X-34660Y22789D02*
D03*
X-31828Y13200D02*
D03*
Y20200D02*
D03*
X-34667Y28765D02*
D03*
X-34660Y30806D02*
D03*
Y29789D02*
D03*
X-34667Y35765D02*
D03*
X-34660Y37806D02*
D03*
Y36789D02*
D03*
Y23806D02*
D03*
X-31828Y27200D02*
D03*
Y34200D02*
D03*
X-34667Y42765D02*
D03*
X-34660Y44806D02*
D03*
Y43789D02*
D03*
X-34667Y49765D02*
D03*
X-34660Y51806D02*
D03*
Y50789D02*
D03*
X-31828Y41200D02*
D03*
Y48200D02*
D03*
X-34667Y56765D02*
D03*
Y63765D02*
D03*
X-34660Y58806D02*
D03*
Y65806D02*
D03*
Y64789D02*
D03*
X-31828Y55200D02*
D03*
X-34660Y57789D02*
D03*
X-31861Y62200D02*
D03*
X-38260Y54700D02*
D03*
Y52512D02*
D03*
X-30460Y33500D02*
D03*
X-59560Y68782D02*
D03*
X-55560Y68807D02*
D03*
X-59460Y60480D02*
D03*
X-55860Y60470D02*
D03*
X-65376Y24930D02*
D03*
Y32500D02*
D03*
X-71360Y46000D02*
D03*
X-30460Y61500D02*
D03*
X-29187D02*
D03*
X-38260Y66500D02*
D03*
X-35760Y67300D02*
D03*
X-30460Y54500D02*
D03*
X-29187D02*
D03*
X-38260Y59500D02*
D03*
X-35760Y60300D02*
D03*
X-30460Y47500D02*
D03*
X-29187D02*
D03*
X-35760Y53300D02*
D03*
X-30460Y40500D02*
D03*
X-29187D02*
D03*
X-38260Y45500D02*
D03*
X-35760Y46300D02*
D03*
X-29187Y33500D02*
D03*
X-38260Y38500D02*
D03*
X-35760Y39300D02*
D03*
X-30460Y26500D02*
D03*
X-29187D02*
D03*
X-38260Y31500D02*
D03*
X-35760Y32300D02*
D03*
X-30460Y19500D02*
D03*
X-29187D02*
D03*
X-38260Y24500D02*
D03*
X-35760Y25300D02*
D03*
Y18300D02*
D03*
X-38260Y17500D02*
D03*
X-29187Y12500D02*
D03*
X-30460D02*
D03*
X-34673Y64277D02*
D03*
X-34660Y65285D02*
D03*
X-34673Y57277D02*
D03*
X-34660Y58285D02*
D03*
X-34673Y50277D02*
D03*
X-34660Y51285D02*
D03*
X-34673Y43277D02*
D03*
X-34660Y44285D02*
D03*
X-34673Y36277D02*
D03*
X-34660Y37285D02*
D03*
X-34673Y29277D02*
D03*
X-34660Y30285D02*
D03*
X-34673Y22277D02*
D03*
X-34660Y23285D02*
D03*
Y16285D02*
D03*
X-70101Y51000D02*
D03*
X-69786Y50631D02*
D03*
X-70416D02*
D03*
X-34673Y15277D02*
D03*
X-66636Y46100D02*
D03*
X-66006D02*
D03*
X-65691Y46500D02*
D03*
X-66951D02*
D03*
X-69471D02*
D03*
X-69156Y46100D02*
D03*
X-68211Y46500D02*
D03*
X-68526Y46100D02*
D03*
X-68841Y46500D02*
D03*
X-67896Y46100D02*
D03*
X-70730Y46500D02*
D03*
X-60652D02*
D03*
X-64746Y46100D02*
D03*
X-60022Y46500D02*
D03*
X-60337Y46100D02*
D03*
X-60967D02*
D03*
X-61282Y46500D02*
D03*
X-61597Y46100D02*
D03*
X-61912Y46500D02*
D03*
X-62227Y46100D02*
D03*
X-62541Y46500D02*
D03*
X-62856Y46100D02*
D03*
X-63171Y46500D02*
D03*
X-63486Y46100D02*
D03*
X-63801Y46500D02*
D03*
X-64116Y46100D02*
D03*
X-64431Y46500D02*
D03*
X-65061D02*
D03*
X-65376Y46100D02*
D03*
X-70416D02*
D03*
X-70101Y46500D02*
D03*
X-67581D02*
D03*
X-67266Y46100D02*
D03*
X-66321Y46500D02*
D03*
D37*
X-68445Y68127D02*
D03*
D38*
X-30260Y17302D02*
D03*
Y22098D02*
D03*
Y31302D02*
D03*
Y24302D02*
D03*
Y29098D02*
D03*
Y38302D02*
D03*
Y36098D02*
D03*
Y45302D02*
D03*
Y43098D02*
D03*
Y52302D02*
D03*
Y50098D02*
D03*
Y57098D02*
D03*
Y59302D02*
D03*
Y66302D02*
D03*
Y64098D02*
D03*
Y15098D02*
D03*
X-30516Y14783D02*
D03*
X-29984Y16830D02*
D03*
Y15885D02*
D03*
Y16515D02*
D03*
Y15570D02*
D03*
X-30260Y16357D02*
D03*
X-29984Y17145D02*
D03*
X-30260Y16043D02*
D03*
X-29984Y15255D02*
D03*
X-30260Y15728D02*
D03*
Y16672D02*
D03*
Y51672D02*
D03*
Y65672D02*
D03*
Y64728D02*
D03*
Y58672D02*
D03*
Y57728D02*
D03*
Y50728D02*
D03*
Y44672D02*
D03*
Y37672D02*
D03*
Y36728D02*
D03*
Y43728D02*
D03*
Y30672D02*
D03*
Y29728D02*
D03*
Y23672D02*
D03*
Y22728D02*
D03*
X-30516Y56783D02*
D03*
X-30260Y58357D02*
D03*
Y58043D02*
D03*
X-29984Y57885D02*
D03*
Y57570D02*
D03*
Y57255D02*
D03*
Y59145D02*
D03*
Y58830D02*
D03*
Y58515D02*
D03*
X-30516Y42783D02*
D03*
X-30260Y44357D02*
D03*
Y44043D02*
D03*
X-29984Y43885D02*
D03*
Y43570D02*
D03*
Y43255D02*
D03*
Y45145D02*
D03*
Y44830D02*
D03*
Y44515D02*
D03*
X-30516Y49783D02*
D03*
X-30260Y51357D02*
D03*
Y51043D02*
D03*
X-29984Y50885D02*
D03*
Y50570D02*
D03*
Y50255D02*
D03*
Y52145D02*
D03*
Y51830D02*
D03*
Y51515D02*
D03*
X-30516Y63783D02*
D03*
X-30260Y65357D02*
D03*
Y65043D02*
D03*
X-29984Y64885D02*
D03*
Y64570D02*
D03*
Y64255D02*
D03*
Y66145D02*
D03*
Y65830D02*
D03*
Y65515D02*
D03*
X-30516Y35783D02*
D03*
X-30260Y37357D02*
D03*
Y37043D02*
D03*
X-29984Y36885D02*
D03*
Y36570D02*
D03*
Y36255D02*
D03*
Y38145D02*
D03*
Y37830D02*
D03*
Y37515D02*
D03*
X-30516Y28783D02*
D03*
X-30260Y30357D02*
D03*
Y30043D02*
D03*
X-29984Y29885D02*
D03*
Y29570D02*
D03*
Y29255D02*
D03*
Y31145D02*
D03*
Y30830D02*
D03*
Y30515D02*
D03*
X-30516Y21783D02*
D03*
X-30260Y23357D02*
D03*
Y23043D02*
D03*
X-29984Y22885D02*
D03*
Y22570D02*
D03*
Y22255D02*
D03*
Y24145D02*
D03*
Y23830D02*
D03*
Y23515D02*
D03*
D39*
X-30023Y14574D02*
D03*
Y17826D02*
D03*
Y21574D02*
D03*
X-28295Y14432D02*
D03*
Y17968D02*
D03*
Y21432D02*
D03*
X-30023Y28574D02*
D03*
Y31826D02*
D03*
Y35574D02*
D03*
Y24826D02*
D03*
X-28295Y24968D02*
D03*
Y31968D02*
D03*
Y28432D02*
D03*
Y35432D02*
D03*
X-30023Y42574D02*
D03*
Y45826D02*
D03*
Y49574D02*
D03*
Y38826D02*
D03*
X-28295Y38968D02*
D03*
Y45968D02*
D03*
Y42432D02*
D03*
Y49432D02*
D03*
X-30023Y52826D02*
D03*
Y59826D02*
D03*
Y56574D02*
D03*
Y63574D02*
D03*
Y66826D02*
D03*
X-28295Y52968D02*
D03*
Y56432D02*
D03*
Y59968D02*
D03*
Y66968D02*
D03*
Y63432D02*
D03*
D40*
X-30516Y17617D02*
D03*
Y59617D02*
D03*
Y45617D02*
D03*
Y52617D02*
D03*
Y66617D02*
D03*
Y38617D02*
D03*
Y31617D02*
D03*
Y24617D02*
D03*
D43*
X-67445Y68127D02*
D03*
D47*
X-77903Y12900D02*
D03*
X-60354Y13600D02*
D03*
X-69510Y48600D02*
D03*
X-53610Y31900D02*
D03*
X-50760Y29400D02*
D03*
X-74610Y28800D02*
D03*
X-68210Y26200D02*
D03*
X-63810Y56600D02*
D03*
X-74910Y51800D02*
D03*
X-76360Y53200D02*
D03*
X-72460Y52900D02*
D03*
X-44060Y53100D02*
D03*
X-48060Y49100D02*
D03*
X-53060Y47100D02*
D03*
X-50560Y35600D02*
D03*
X-54060Y38600D02*
D03*
X-43560Y35100D02*
D03*
X-47560Y31100D02*
D03*
X-42060Y29100D02*
D03*
X-75560Y41100D02*
D03*
X-68560D02*
D03*
X-81060Y36100D02*
D03*
Y45100D02*
D03*
X-63060Y68600D02*
D03*
X-47060Y60100D02*
D03*
Y68100D02*
D03*
X-44560Y40600D02*
D03*
X-82560Y17100D02*
D03*
X-66560D02*
D03*
X-50560D02*
D03*
X-42560Y14100D02*
D03*
X-63171Y32280D02*
D03*
X-66560Y32400D02*
D03*
X-72160Y34600D02*
D03*
X-69660Y34700D02*
D03*
X-59392Y32161D02*
D03*
X-71310Y30757D02*
D03*
X-71725Y30330D02*
D03*
D48*
X-28847Y64100D02*
D03*
X-29150Y64100D02*
D03*
X-32958Y65008D02*
D03*
X-32165Y66344D02*
D03*
X-32159Y66039D02*
D03*
X-32958Y64708D02*
D03*
X-31852Y64555D02*
D03*
X-31860Y64255D02*
D03*
X-32960Y65608D02*
D03*
X-32960Y65308D02*
D03*
X-28847Y57100D02*
D03*
X-29150Y57100D02*
D03*
X-32958Y58008D02*
D03*
X-32165Y59344D02*
D03*
X-32159Y59039D02*
D03*
X-32958Y57708D02*
D03*
X-31852Y57555D02*
D03*
X-31860Y57255D02*
D03*
X-32960Y58608D02*
D03*
X-32960Y58308D02*
D03*
X-28847Y50100D02*
D03*
X-29150Y50100D02*
D03*
X-32958Y51008D02*
D03*
X-32165Y52344D02*
D03*
X-32159Y52039D02*
D03*
X-32958Y50708D02*
D03*
X-31852Y50555D02*
D03*
X-31860Y50255D02*
D03*
X-32960Y51608D02*
D03*
X-32960Y51308D02*
D03*
X-28847Y43100D02*
D03*
X-29150Y43100D02*
D03*
X-32958Y44008D02*
D03*
X-32165Y45344D02*
D03*
X-32159Y45039D02*
D03*
X-32958Y43708D02*
D03*
X-31852Y43555D02*
D03*
X-31860Y43255D02*
D03*
X-32960Y44608D02*
D03*
X-32960Y44308D02*
D03*
X-28847Y36100D02*
D03*
X-29150Y36100D02*
D03*
X-32958Y37008D02*
D03*
X-32165Y38344D02*
D03*
X-32159Y38039D02*
D03*
X-32958Y36708D02*
D03*
X-31852Y36555D02*
D03*
X-31860Y36255D02*
D03*
X-32960Y37608D02*
D03*
X-32960Y37308D02*
D03*
X-28847Y29100D02*
D03*
X-29150Y29100D02*
D03*
X-32958Y30008D02*
D03*
X-32165Y31344D02*
D03*
X-32159Y31039D02*
D03*
X-32958Y29708D02*
D03*
X-31852Y29555D02*
D03*
X-31860Y29255D02*
D03*
X-32960Y30608D02*
D03*
X-32960Y30308D02*
D03*
X-28847Y22100D02*
D03*
X-29150Y22100D02*
D03*
X-32958Y23008D02*
D03*
X-32165Y24344D02*
D03*
X-32159Y24039D02*
D03*
X-32958Y22708D02*
D03*
X-31852Y22555D02*
D03*
X-31860Y22255D02*
D03*
X-32960Y23608D02*
D03*
X-32960Y23308D02*
D03*
Y16308D02*
D03*
X-32960Y16608D02*
D03*
X-31860Y15255D02*
D03*
X-31852Y15555D02*
D03*
X-32958Y15708D02*
D03*
X-32159Y17039D02*
D03*
X-32165Y17344D02*
D03*
X-32958Y16008D02*
D03*
X-29150Y15100D02*
D03*
X-28847Y15100D02*
D03*
X-62160Y63100D02*
D03*
X-61460Y64076D02*
D03*
X-60560Y65076D02*
D03*
X-59760Y66076D02*
D03*
X-70730Y29951D02*
D03*
X-70416Y29716D02*
D03*
X-70101Y29500D02*
D03*
X-70730Y35800D02*
D03*
X-70101Y35200D02*
D03*
X-82310Y27000D02*
D03*
X-71045Y36100D02*
D03*
X-81310Y27500D02*
D03*
X-80310Y28000D02*
D03*
X-70416Y35500D02*
D03*
X-79310Y28500D02*
D03*
X-66636Y30252D02*
D03*
X-67896Y30558D02*
D03*
X-68526D02*
D03*
X-69156Y34900D02*
D03*
X-68841Y35198D02*
D03*
X-68526Y34900D02*
D03*
X-67896D02*
D03*
X-67266D02*
D03*
X-66951Y35198D02*
D03*
X-60337Y32161D02*
D03*
X-61597D02*
D03*
X-62227D02*
D03*
X-63801D02*
D03*
X-64460D02*
D03*
X-65691D02*
D03*
X-59060Y19600D02*
D03*
X-57060Y19900D02*
D03*
X-52060Y20200D02*
D03*
X-50060Y20500D02*
D03*
X-46060Y20800D02*
D03*
X-66636Y34892D02*
D03*
X-66321Y35193D02*
D03*
X-65691Y35200D02*
D03*
X-59392Y37000D02*
D03*
X-60652Y36700D02*
D03*
X-61260Y36400D02*
D03*
X-62560Y36100D02*
D03*
X-63160Y35800D02*
D03*
X-63460Y35500D02*
D03*
X-64760Y35200D02*
D03*
X-65360Y34900D02*
D03*
X-38260Y63495D02*
D03*
Y64021D02*
D03*
Y64533D02*
D03*
Y65557D02*
D03*
Y56495D02*
D03*
Y57021D02*
D03*
Y57533D02*
D03*
Y58557D02*
D03*
Y49495D02*
D03*
Y50021D02*
D03*
Y50533D02*
D03*
Y51557D02*
D03*
Y42495D02*
D03*
Y43021D02*
D03*
Y43533D02*
D03*
Y44557D02*
D03*
Y35495D02*
D03*
Y36021D02*
D03*
Y36533D02*
D03*
Y37557D02*
D03*
Y28495D02*
D03*
Y29021D02*
D03*
Y29533D02*
D03*
Y30557D02*
D03*
Y21495D02*
D03*
Y22021D02*
D03*
Y22533D02*
D03*
Y23557D02*
D03*
X-34260Y65557D02*
D03*
Y64533D02*
D03*
Y64021D02*
D03*
Y63510D02*
D03*
Y58557D02*
D03*
Y57533D02*
D03*
Y57021D02*
D03*
Y56510D02*
D03*
Y51557D02*
D03*
Y50533D02*
D03*
Y50021D02*
D03*
Y49510D02*
D03*
Y44557D02*
D03*
Y43533D02*
D03*
Y43021D02*
D03*
Y42510D02*
D03*
Y37557D02*
D03*
Y36533D02*
D03*
Y36021D02*
D03*
Y35510D02*
D03*
Y30557D02*
D03*
Y29533D02*
D03*
Y29021D02*
D03*
Y28510D02*
D03*
Y23557D02*
D03*
Y22533D02*
D03*
Y22021D02*
D03*
Y21510D02*
D03*
X-38260Y16557D02*
D03*
Y15533D02*
D03*
Y15021D02*
D03*
Y14495D02*
D03*
X-34260Y14510D02*
D03*
Y15021D02*
D03*
Y15533D02*
D03*
Y16557D02*
D03*
D76*
X-19445Y8850D02*
D03*
X-19248D02*
D03*
X-19051D02*
D03*
X-18854D02*
D03*
X-18657D02*
D03*
X-18461D02*
D03*
X-18264D02*
D03*
X-18067D02*
D03*
X-17870D02*
D03*
X-17673D02*
D03*
X-17476D02*
D03*
X-17280D02*
D03*
X-17083D02*
D03*
X-16886D02*
D03*
X-16689D02*
D03*
X-16492D02*
D03*
X-16295D02*
D03*
X-16098D02*
D03*
X-15902D02*
D03*
X-15705D02*
D03*
X-15508D02*
D03*
X-15311D02*
D03*
X-15114D02*
D03*
X-14917D02*
D03*
X-14720D02*
D03*
X-14524D02*
D03*
X-14327D02*
D03*
X-14130D02*
D03*
X-13933D02*
D03*
X-13736D02*
D03*
X-13539D02*
D03*
X-13343D02*
D03*
X-13146D02*
D03*
X-12949D02*
D03*
X-12752D02*
D03*
X-12555D02*
D03*
X-19445Y25850D02*
D03*
X-19248D02*
D03*
X-19051D02*
D03*
X-18854D02*
D03*
X-18657D02*
D03*
X-18461D02*
D03*
X-18264D02*
D03*
X-18067D02*
D03*
X-17870D02*
D03*
X-17673D02*
D03*
X-17476D02*
D03*
X-17280D02*
D03*
X-17083D02*
D03*
X-16886D02*
D03*
X-16689D02*
D03*
X-16492D02*
D03*
X-16295D02*
D03*
X-16098D02*
D03*
X-15902D02*
D03*
X-15705D02*
D03*
X-15508D02*
D03*
X-15311D02*
D03*
X-15114D02*
D03*
X-14917D02*
D03*
X-14720D02*
D03*
X-14524D02*
D03*
X-14327D02*
D03*
X-14130D02*
D03*
X-13933D02*
D03*
X-13736D02*
D03*
X-13539D02*
D03*
X-13343D02*
D03*
X-13146D02*
D03*
X-12949D02*
D03*
X-12752D02*
D03*
X-12555D02*
D03*
X-19445Y42950D02*
D03*
X-19248D02*
D03*
X-19051D02*
D03*
X-18854D02*
D03*
X-18657D02*
D03*
X-18461D02*
D03*
X-18264D02*
D03*
X-18067D02*
D03*
X-17870D02*
D03*
X-17673D02*
D03*
X-17476D02*
D03*
X-17280D02*
D03*
X-17083D02*
D03*
X-16886D02*
D03*
X-16689D02*
D03*
X-16492D02*
D03*
X-16295D02*
D03*
X-16098D02*
D03*
X-15902D02*
D03*
X-15705D02*
D03*
X-15508D02*
D03*
X-15311D02*
D03*
X-15114D02*
D03*
X-14917D02*
D03*
X-14720D02*
D03*
X-14524D02*
D03*
X-14327D02*
D03*
X-14130D02*
D03*
X-13933D02*
D03*
X-13736D02*
D03*
X-13539D02*
D03*
X-13343D02*
D03*
X-13146D02*
D03*
X-12949D02*
D03*
X-12752D02*
D03*
X-12555D02*
D03*
X-19445Y59950D02*
D03*
X-19248D02*
D03*
X-19051D02*
D03*
X-18854D02*
D03*
X-18657D02*
D03*
X-18461D02*
D03*
X-18264D02*
D03*
X-18067D02*
D03*
X-17870D02*
D03*
X-17673D02*
D03*
X-17476D02*
D03*
X-17280D02*
D03*
X-17083D02*
D03*
X-16886D02*
D03*
X-16689D02*
D03*
X-16492D02*
D03*
X-16295D02*
D03*
X-16098D02*
D03*
X-15902D02*
D03*
X-15705D02*
D03*
X-15508D02*
D03*
X-15311D02*
D03*
X-15114D02*
D03*
X-14917D02*
D03*
X-14720D02*
D03*
X-14524D02*
D03*
X-14327D02*
D03*
X-14130D02*
D03*
X-13933D02*
D03*
X-13736D02*
D03*
X-13539D02*
D03*
X-13343D02*
D03*
X-13146D02*
D03*
X-12949D02*
D03*
X-12752D02*
D03*
X-12555D02*
D03*
D77*
X-20075Y9704D02*
D03*
X-11925D02*
D03*
X-20075Y26704D02*
D03*
X-11925D02*
D03*
X-20075Y43804D02*
D03*
X-11925D02*
D03*
X-20075Y60804D02*
D03*
X-11925D02*
D03*
D90*
X-9340Y9810D02*
D03*
Y26810D02*
D03*
Y43910D02*
D03*
Y60910D02*
D03*
D91*
X-21750Y13500D02*
D03*
X-18250D02*
D03*
X-14750D02*
D03*
X-11250D02*
D03*
X-21750Y30500D02*
D03*
X-18250D02*
D03*
X-14750D02*
D03*
X-11250D02*
D03*
X-21750Y47600D02*
D03*
X-18250D02*
D03*
X-14750D02*
D03*
X-11250D02*
D03*
X-21750Y64600D02*
D03*
X-18250D02*
D03*
X-14750D02*
D03*
X-11250D02*
D03*
D92*
X-21750Y14500D02*
D03*
Y15500D02*
D03*
Y16500D02*
D03*
Y17500D02*
D03*
Y18500D02*
D03*
Y19500D02*
D03*
Y20500D02*
D03*
X-20750D02*
D03*
Y19500D02*
D03*
Y18500D02*
D03*
Y17500D02*
D03*
Y16500D02*
D03*
Y15500D02*
D03*
Y14500D02*
D03*
Y13500D02*
D03*
X-18250Y14500D02*
D03*
Y15500D02*
D03*
Y16500D02*
D03*
Y17500D02*
D03*
Y18500D02*
D03*
Y19500D02*
D03*
Y20500D02*
D03*
X-17250D02*
D03*
Y19500D02*
D03*
Y18500D02*
D03*
Y17500D02*
D03*
Y16500D02*
D03*
Y15500D02*
D03*
Y14500D02*
D03*
Y13500D02*
D03*
X-14750Y14500D02*
D03*
Y15500D02*
D03*
Y16500D02*
D03*
Y17500D02*
D03*
Y18500D02*
D03*
Y19500D02*
D03*
Y20500D02*
D03*
X-13750D02*
D03*
Y19500D02*
D03*
Y18500D02*
D03*
Y17500D02*
D03*
Y16500D02*
D03*
Y15500D02*
D03*
Y14500D02*
D03*
Y13500D02*
D03*
X-11250Y14500D02*
D03*
Y15500D02*
D03*
Y16500D02*
D03*
Y17500D02*
D03*
Y18500D02*
D03*
Y19500D02*
D03*
Y20500D02*
D03*
X-10250D02*
D03*
Y19500D02*
D03*
Y18500D02*
D03*
Y17500D02*
D03*
Y16500D02*
D03*
Y15500D02*
D03*
Y14500D02*
D03*
Y13500D02*
D03*
X-21750Y31500D02*
D03*
Y32500D02*
D03*
Y33500D02*
D03*
Y34500D02*
D03*
Y35500D02*
D03*
Y36500D02*
D03*
Y37500D02*
D03*
X-20750D02*
D03*
Y36500D02*
D03*
Y35500D02*
D03*
Y34500D02*
D03*
Y33500D02*
D03*
Y32500D02*
D03*
Y31500D02*
D03*
Y30500D02*
D03*
X-18250Y31500D02*
D03*
Y32500D02*
D03*
Y33500D02*
D03*
Y34500D02*
D03*
Y35500D02*
D03*
Y36500D02*
D03*
Y37500D02*
D03*
X-17250D02*
D03*
Y36500D02*
D03*
Y35500D02*
D03*
Y34500D02*
D03*
Y33500D02*
D03*
Y32500D02*
D03*
Y31500D02*
D03*
Y30500D02*
D03*
X-14750Y31500D02*
D03*
Y32500D02*
D03*
Y33500D02*
D03*
Y34500D02*
D03*
Y35500D02*
D03*
Y36500D02*
D03*
Y37500D02*
D03*
X-13750D02*
D03*
Y36500D02*
D03*
Y35500D02*
D03*
Y34500D02*
D03*
Y33500D02*
D03*
Y32500D02*
D03*
Y31500D02*
D03*
Y30500D02*
D03*
X-11250Y31500D02*
D03*
Y32500D02*
D03*
Y33500D02*
D03*
Y34500D02*
D03*
Y35500D02*
D03*
Y36500D02*
D03*
Y37500D02*
D03*
X-10250D02*
D03*
Y36500D02*
D03*
Y35500D02*
D03*
Y34500D02*
D03*
Y33500D02*
D03*
Y32500D02*
D03*
Y31500D02*
D03*
Y30500D02*
D03*
X-21750Y48600D02*
D03*
Y49600D02*
D03*
Y50600D02*
D03*
Y51600D02*
D03*
Y52600D02*
D03*
Y53600D02*
D03*
Y54600D02*
D03*
X-20750D02*
D03*
Y53600D02*
D03*
Y52600D02*
D03*
Y51600D02*
D03*
Y50600D02*
D03*
Y49600D02*
D03*
Y48600D02*
D03*
Y47600D02*
D03*
X-18250Y48600D02*
D03*
Y49600D02*
D03*
Y50600D02*
D03*
Y51600D02*
D03*
Y52600D02*
D03*
Y53600D02*
D03*
Y54600D02*
D03*
X-17250D02*
D03*
Y53600D02*
D03*
Y52600D02*
D03*
Y51600D02*
D03*
Y50600D02*
D03*
Y49600D02*
D03*
Y48600D02*
D03*
Y47600D02*
D03*
X-14750Y48600D02*
D03*
Y49600D02*
D03*
Y50600D02*
D03*
Y51600D02*
D03*
Y52600D02*
D03*
Y53600D02*
D03*
Y54600D02*
D03*
X-13750D02*
D03*
Y53600D02*
D03*
Y52600D02*
D03*
Y51600D02*
D03*
Y50600D02*
D03*
Y49600D02*
D03*
Y48600D02*
D03*
Y47600D02*
D03*
X-11250Y48600D02*
D03*
Y49600D02*
D03*
Y50600D02*
D03*
Y51600D02*
D03*
Y52600D02*
D03*
Y53600D02*
D03*
Y54600D02*
D03*
X-10250D02*
D03*
Y53600D02*
D03*
Y52600D02*
D03*
Y51600D02*
D03*
Y50600D02*
D03*
Y49600D02*
D03*
Y48600D02*
D03*
Y47600D02*
D03*
X-21750Y65600D02*
D03*
Y66600D02*
D03*
Y67600D02*
D03*
Y68600D02*
D03*
Y69600D02*
D03*
Y70600D02*
D03*
Y71600D02*
D03*
X-20750D02*
D03*
Y70600D02*
D03*
Y69600D02*
D03*
Y68600D02*
D03*
Y67600D02*
D03*
Y66600D02*
D03*
Y65600D02*
D03*
Y64600D02*
D03*
X-18250Y65600D02*
D03*
Y66600D02*
D03*
Y67600D02*
D03*
Y68600D02*
D03*
Y69600D02*
D03*
Y70600D02*
D03*
Y71600D02*
D03*
X-17250D02*
D03*
Y70600D02*
D03*
Y69600D02*
D03*
Y68600D02*
D03*
Y67600D02*
D03*
Y66600D02*
D03*
Y65600D02*
D03*
Y64600D02*
D03*
X-14750Y65600D02*
D03*
Y66600D02*
D03*
Y67600D02*
D03*
Y68600D02*
D03*
Y69600D02*
D03*
Y70600D02*
D03*
Y71600D02*
D03*
X-13750D02*
D03*
Y70600D02*
D03*
Y69600D02*
D03*
Y68600D02*
D03*
Y67600D02*
D03*
Y66600D02*
D03*
Y65600D02*
D03*
Y64600D02*
D03*
X-11250Y65600D02*
D03*
Y66600D02*
D03*
Y67600D02*
D03*
Y68600D02*
D03*
Y69600D02*
D03*
Y70600D02*
D03*
Y71600D02*
D03*
X-10250D02*
D03*
Y70600D02*
D03*
Y69600D02*
D03*
Y68600D02*
D03*
Y67600D02*
D03*
Y66600D02*
D03*
Y65600D02*
D03*
Y64600D02*
D03*
D93*
X-21750Y9250D02*
D03*
X-23000Y11000D02*
D03*
Y20500D02*
D03*
X-19500D02*
D03*
X-16000D02*
D03*
X-12500D02*
D03*
X-9000D02*
D03*
Y11500D02*
D03*
X-21750Y26250D02*
D03*
X-23000Y28000D02*
D03*
Y37500D02*
D03*
X-19500D02*
D03*
X-16000D02*
D03*
X-12500D02*
D03*
X-9000D02*
D03*
Y28500D02*
D03*
X-21750Y43350D02*
D03*
X-23000Y45100D02*
D03*
Y54600D02*
D03*
X-19500D02*
D03*
X-16000D02*
D03*
X-12500D02*
D03*
X-9000D02*
D03*
Y45600D02*
D03*
X-21750Y60350D02*
D03*
X-23000Y62100D02*
D03*
Y71600D02*
D03*
X-19500D02*
D03*
X-16000D02*
D03*
X-12500D02*
D03*
X-9000D02*
D03*
Y62600D02*
D03*
D94*
X-71310Y22100D02*
D03*
X-75310D02*
D03*
X-73310D02*
D03*
X-67310D02*
D03*
X-70310D02*
D03*
X-69310D02*
D03*
X-78310D02*
D03*
Y23100D02*
D03*
X-76310Y22100D02*
D03*
X-77310D02*
D03*
X-58060D02*
D03*
X-61060D02*
D03*
X-60060D02*
D03*
X-54060D02*
D03*
X-56060D02*
D03*
X-55060D02*
D03*
X-62060D02*
D03*
X-66310D02*
D03*
X-61060Y23100D02*
D03*
X-57060D02*
D03*
X-54060D02*
D03*
X-59060D02*
D03*
X-58060D02*
D03*
X-47060Y22100D02*
D03*
X-49060D02*
D03*
X-48060D02*
D03*
X-43060D02*
D03*
X-45060D02*
D03*
X-44060D02*
D03*
X-51060D02*
D03*
X-53060D02*
D03*
X-50060Y23100D02*
D03*
X-44060D02*
D03*
X-46060D02*
D03*
X-45060D02*
D03*
X-48060D02*
D03*
X-52060D02*
D03*
X-51060D02*
D03*
X-78310Y57100D02*
D03*
X-84310D02*
D03*
X-67310Y58100D02*
D03*
X-55060D02*
D03*
X-43060Y57100D02*
D03*
X-44060D02*
D03*
X-79310Y58100D02*
D03*
X-78310D02*
D03*
X-80310D02*
D03*
X-83310Y22100D02*
D03*
X-82310D02*
D03*
X-84310D02*
D03*
X-68310Y57100D02*
D03*
X-66310D02*
D03*
X-65310D02*
D03*
X-69310D02*
D03*
X-83310Y58100D02*
D03*
X-82310D02*
D03*
X-43060Y23100D02*
D03*
X-50060Y22100D02*
D03*
X-52060D02*
D03*
X-60060Y23100D02*
D03*
X-65310Y22100D02*
D03*
X-73310Y23100D02*
D03*
X-79310Y22100D02*
D03*
X-46060D02*
D03*
X-56060Y23100D02*
D03*
X-70310D02*
D03*
X-53060D02*
D03*
X-57060Y22100D02*
D03*
X-66310Y23100D02*
D03*
X-68310D02*
D03*
X-74310D02*
D03*
X-77310D02*
D03*
X-67310D02*
D03*
X-55060D02*
D03*
X-83310D02*
D03*
X-59060Y22100D02*
D03*
X-80310D02*
D03*
X-47060Y23100D02*
D03*
X-65310D02*
D03*
X-68310Y22100D02*
D03*
X-71310Y23100D02*
D03*
X-72310Y22100D02*
D03*
X-69310Y23100D02*
D03*
X-80310D02*
D03*
X-81310Y22100D02*
D03*
Y23100D02*
D03*
X-82310D02*
D03*
X-49060D02*
D03*
X-72310D02*
D03*
X-74310Y22100D02*
D03*
X-75310Y23100D02*
D03*
X-76310D02*
D03*
X-79310D02*
D03*
X-43060Y58100D02*
D03*
X-44060D02*
D03*
X-45060Y57100D02*
D03*
Y58100D02*
D03*
X-46060Y57100D02*
D03*
Y58100D02*
D03*
X-47060Y57100D02*
D03*
Y58100D02*
D03*
X-48060Y57100D02*
D03*
Y58100D02*
D03*
X-49060Y57100D02*
D03*
Y58100D02*
D03*
X-50060Y57100D02*
D03*
Y58100D02*
D03*
X-51060Y57100D02*
D03*
Y58100D02*
D03*
X-52060Y57100D02*
D03*
Y58100D02*
D03*
X-53060Y57100D02*
D03*
Y58100D02*
D03*
X-54060Y57100D02*
D03*
Y58100D02*
D03*
X-55060Y57100D02*
D03*
X-56060D02*
D03*
Y58100D02*
D03*
X-57060Y57100D02*
D03*
Y58100D02*
D03*
X-58060Y57100D02*
D03*
Y58100D02*
D03*
X-59060Y57100D02*
D03*
Y58100D02*
D03*
X-60060Y57100D02*
D03*
Y58100D02*
D03*
X-61060Y57100D02*
D03*
Y58100D02*
D03*
X-62060Y57100D02*
D03*
X-65310Y58100D02*
D03*
X-66310D02*
D03*
X-67310Y57100D02*
D03*
X-68310Y58100D02*
D03*
X-69310D02*
D03*
X-70310Y57100D02*
D03*
Y58100D02*
D03*
X-71310Y57100D02*
D03*
Y58100D02*
D03*
X-72310Y57100D02*
D03*
Y58100D02*
D03*
X-73310Y57100D02*
D03*
Y58100D02*
D03*
X-74310Y57100D02*
D03*
Y58100D02*
D03*
X-75310Y57100D02*
D03*
Y58100D02*
D03*
X-76310Y57100D02*
D03*
Y58100D02*
D03*
X-77310Y57100D02*
D03*
Y58100D02*
D03*
X-79310Y57100D02*
D03*
X-80310D02*
D03*
X-81310D02*
D03*
Y58100D02*
D03*
X-82310Y57100D02*
D03*
X-83310D02*
D03*
D95*
X-84310Y23100D02*
D03*
Y58100D02*
D03*
X-62060Y23100D02*
D03*
Y58100D02*
D03*
D96*
X-83863Y63500D02*
D03*
X-81501D02*
D03*
D97*
X-82682Y61650D02*
D03*
D98*
X-68445Y62527D02*
D03*
X-67445D02*
D03*
D99*
X-69445D02*
D03*
D100*
X-72320Y49273D02*
D03*
X-58747D02*
D03*
X-72320Y33525D02*
D03*
X-58747D02*
D03*
D101*
X-83843Y31939D02*
D03*
X-56677Y49261D02*
D03*
X-84560Y10600D02*
D03*
X-29760D02*
D03*
X-83843Y49261D02*
D03*
X-56677Y31939D02*
D03*
X-29760Y70600D02*
D03*
X-84560D02*
D03*
M02*
