G04*
G04 #@! TF.GenerationSoftware,Altium Limited,Altium Designer,25.8.1 (18)*
G04*
G04 Layer_Color=16711935*
%FSLAX24Y24*%
%MOIN*%
G70*
G04*
G04 #@! TF.SameCoordinates,0747261C-A30E-42C5-B94E-B19C60964289*
G04*
G04*
G04 #@! TF.FilePolarity,Negative*
G04*
G01*
G75*
%ADD34C,0.0607*%
%ADD35R,0.0607X0.0607*%
%ADD36O,0.0654X0.1247*%
%ADD37C,0.0618*%
%ADD38C,0.0256*%
G04:AMPARAMS|DCode=39|XSize=35.4mil|YSize=59.1mil|CornerRadius=17.7mil|HoleSize=0mil|Usage=FLASHONLY|Rotation=90.000|XOffset=0mil|YOffset=0mil|HoleType=Round|Shape=RoundedRectangle|*
%AMROUNDEDRECTD39*
21,1,0.0354,0.0236,0,0,90.0*
21,1,0.0000,0.0591,0,0,90.0*
1,1,0.0354,0.0118,0.0000*
1,1,0.0354,0.0118,0.0000*
1,1,0.0354,-0.0118,0.0000*
1,1,0.0354,-0.0118,0.0000*
%
%ADD39ROUNDEDRECTD39*%
G04:AMPARAMS|DCode=40|XSize=37.4mil|YSize=25.6mil|CornerRadius=12.8mil|HoleSize=0mil|Usage=FLASHONLY|Rotation=90.000|XOffset=0mil|YOffset=0mil|HoleType=Round|Shape=RoundedRectangle|*
%AMROUNDEDRECTD40*
21,1,0.0374,0.0000,0,0,90.0*
21,1,0.0118,0.0256,0,0,90.0*
1,1,0.0256,0.0000,0.0059*
1,1,0.0256,0.0000,-0.0059*
1,1,0.0256,0.0000,-0.0059*
1,1,0.0256,0.0000,0.0059*
%
%ADD40ROUNDEDRECTD40*%
%ADD41O,0.1247X0.0654*%
%ADD42C,0.0670*%
%ADD43R,0.0618X0.0618*%
%ADD44R,0.0670X0.0670*%
%ADD45C,0.0460*%
%ADD46C,0.2029*%
%ADD47C,0.0320*%
%ADD48C,0.0240*%
%ADD49C,0.0200*%
D34*
X15750Y14000D02*
D03*
X11750D02*
D03*
X13750D02*
D03*
X19750D02*
D03*
X16750D02*
D03*
X17750D02*
D03*
X8750D02*
D03*
Y15000D02*
D03*
X10750Y14000D02*
D03*
X9750D02*
D03*
X29000D02*
D03*
X26000D02*
D03*
X27000D02*
D03*
X33000D02*
D03*
X31000D02*
D03*
X32000D02*
D03*
X25000D02*
D03*
X20750D02*
D03*
X26000Y15000D02*
D03*
X30000D02*
D03*
X33000D02*
D03*
X28000D02*
D03*
X29000D02*
D03*
X40000Y14000D02*
D03*
X38000D02*
D03*
X39000D02*
D03*
X44000D02*
D03*
X42000D02*
D03*
X43000D02*
D03*
X36000D02*
D03*
X34000D02*
D03*
X37000Y15000D02*
D03*
X43000D02*
D03*
X41000D02*
D03*
X42000D02*
D03*
X39000D02*
D03*
X35000D02*
D03*
X36000D02*
D03*
X8750Y49000D02*
D03*
X2750D02*
D03*
X19750Y50000D02*
D03*
X32000D02*
D03*
X44000Y49000D02*
D03*
X43000D02*
D03*
X7750Y50000D02*
D03*
X8750D02*
D03*
X6750D02*
D03*
X3750Y14000D02*
D03*
X4750D02*
D03*
X2750D02*
D03*
X18750Y49000D02*
D03*
X20750D02*
D03*
X21750D02*
D03*
X17750D02*
D03*
X3750Y50000D02*
D03*
X4750D02*
D03*
X44000Y15000D02*
D03*
X37000Y14000D02*
D03*
X35000D02*
D03*
X27000Y15000D02*
D03*
X21750Y14000D02*
D03*
X13750Y15000D02*
D03*
X7750Y14000D02*
D03*
X41000D02*
D03*
X31000Y15000D02*
D03*
X16750D02*
D03*
X34000D02*
D03*
X30000Y14000D02*
D03*
X20750Y15000D02*
D03*
X18750D02*
D03*
X12750D02*
D03*
X9750D02*
D03*
X19750D02*
D03*
X32000D02*
D03*
X3750D02*
D03*
X28000Y14000D02*
D03*
X6750D02*
D03*
X40000Y15000D02*
D03*
X21750D02*
D03*
X18750Y14000D02*
D03*
X15750Y15000D02*
D03*
X14750Y14000D02*
D03*
X17750Y15000D02*
D03*
X6750D02*
D03*
X5750Y14000D02*
D03*
Y15000D02*
D03*
X4750D02*
D03*
X38000D02*
D03*
X14750D02*
D03*
X12750Y14000D02*
D03*
X11750Y15000D02*
D03*
X10750D02*
D03*
X7750D02*
D03*
X44000Y50000D02*
D03*
X43000D02*
D03*
X42000Y49000D02*
D03*
Y50000D02*
D03*
X41000Y49000D02*
D03*
Y50000D02*
D03*
X40000Y49000D02*
D03*
Y50000D02*
D03*
X39000Y49000D02*
D03*
Y50000D02*
D03*
X38000Y49000D02*
D03*
Y50000D02*
D03*
X37000Y49000D02*
D03*
Y50000D02*
D03*
X36000Y49000D02*
D03*
Y50000D02*
D03*
X35000Y49000D02*
D03*
Y50000D02*
D03*
X34000Y49000D02*
D03*
Y50000D02*
D03*
X33000Y49000D02*
D03*
Y50000D02*
D03*
X32000Y49000D02*
D03*
X31000D02*
D03*
Y50000D02*
D03*
X30000Y49000D02*
D03*
Y50000D02*
D03*
X29000Y49000D02*
D03*
Y50000D02*
D03*
X28000Y49000D02*
D03*
Y50000D02*
D03*
X27000Y49000D02*
D03*
Y50000D02*
D03*
X26000Y49000D02*
D03*
Y50000D02*
D03*
X25000Y49000D02*
D03*
X21750Y50000D02*
D03*
X20750D02*
D03*
X19750Y49000D02*
D03*
X18750Y50000D02*
D03*
X17750D02*
D03*
X16750Y49000D02*
D03*
Y50000D02*
D03*
X15750Y49000D02*
D03*
Y50000D02*
D03*
X14750Y49000D02*
D03*
Y50000D02*
D03*
X13750Y49000D02*
D03*
Y50000D02*
D03*
X12750Y49000D02*
D03*
Y50000D02*
D03*
X11750Y49000D02*
D03*
Y50000D02*
D03*
X10750Y49000D02*
D03*
Y50000D02*
D03*
X9750Y49000D02*
D03*
Y50000D02*
D03*
X7750Y49000D02*
D03*
X6750D02*
D03*
X5750D02*
D03*
Y50000D02*
D03*
X4750Y49000D02*
D03*
X3750D02*
D03*
D35*
X2750Y15000D02*
D03*
Y50000D02*
D03*
X25000Y15000D02*
D03*
Y50000D02*
D03*
D36*
X3197Y55400D02*
D03*
X5559D02*
D03*
D37*
X18615Y60027D02*
D03*
D38*
X56800Y9202D02*
D03*
Y13998D02*
D03*
Y23202D02*
D03*
Y16202D02*
D03*
Y20998D02*
D03*
Y30202D02*
D03*
Y27998D02*
D03*
Y37202D02*
D03*
Y34998D02*
D03*
Y44202D02*
D03*
Y41998D02*
D03*
Y48998D02*
D03*
Y51202D02*
D03*
Y58202D02*
D03*
Y55998D02*
D03*
Y6998D02*
D03*
X56544Y6683D02*
D03*
X57076Y8730D02*
D03*
Y7785D02*
D03*
Y8415D02*
D03*
Y7470D02*
D03*
X56800Y8257D02*
D03*
X57076Y9045D02*
D03*
X56800Y7943D02*
D03*
X57076Y7155D02*
D03*
X56800Y7628D02*
D03*
Y8572D02*
D03*
Y43572D02*
D03*
Y57572D02*
D03*
Y56628D02*
D03*
Y50572D02*
D03*
Y49628D02*
D03*
Y42628D02*
D03*
Y36572D02*
D03*
Y29572D02*
D03*
Y28628D02*
D03*
Y35628D02*
D03*
Y22572D02*
D03*
Y21628D02*
D03*
Y15572D02*
D03*
Y14628D02*
D03*
X56544Y48683D02*
D03*
X56800Y50257D02*
D03*
Y49943D02*
D03*
X57076Y49785D02*
D03*
Y49470D02*
D03*
Y49155D02*
D03*
Y51045D02*
D03*
Y50730D02*
D03*
Y50415D02*
D03*
X56544Y34683D02*
D03*
X56800Y36257D02*
D03*
Y35943D02*
D03*
X57076Y35785D02*
D03*
Y35470D02*
D03*
Y35155D02*
D03*
Y37045D02*
D03*
Y36730D02*
D03*
Y36415D02*
D03*
X56544Y41683D02*
D03*
X56800Y43257D02*
D03*
Y42943D02*
D03*
X57076Y42785D02*
D03*
Y42470D02*
D03*
Y42155D02*
D03*
Y44045D02*
D03*
Y43730D02*
D03*
Y43415D02*
D03*
X56544Y55683D02*
D03*
X56800Y57257D02*
D03*
Y56943D02*
D03*
X57076Y56785D02*
D03*
Y56470D02*
D03*
Y56155D02*
D03*
Y58045D02*
D03*
Y57730D02*
D03*
Y57415D02*
D03*
X56544Y27683D02*
D03*
X56800Y29257D02*
D03*
Y28943D02*
D03*
X57076Y28785D02*
D03*
Y28470D02*
D03*
Y28155D02*
D03*
Y30045D02*
D03*
Y29730D02*
D03*
Y29415D02*
D03*
X56544Y20683D02*
D03*
X56800Y22257D02*
D03*
Y21943D02*
D03*
X57076Y21785D02*
D03*
Y21470D02*
D03*
Y21155D02*
D03*
Y23045D02*
D03*
Y22730D02*
D03*
Y22415D02*
D03*
X56544Y13683D02*
D03*
X56800Y15257D02*
D03*
Y14943D02*
D03*
X57076Y14785D02*
D03*
Y14470D02*
D03*
Y14155D02*
D03*
Y16045D02*
D03*
Y15730D02*
D03*
Y15415D02*
D03*
D39*
X57037Y6474D02*
D03*
Y9726D02*
D03*
Y13474D02*
D03*
X58765Y6332D02*
D03*
Y9868D02*
D03*
Y13332D02*
D03*
X57037Y20474D02*
D03*
Y23726D02*
D03*
Y27474D02*
D03*
Y16726D02*
D03*
X58765Y16868D02*
D03*
Y23868D02*
D03*
Y20332D02*
D03*
Y27332D02*
D03*
X57037Y34474D02*
D03*
Y37726D02*
D03*
Y41474D02*
D03*
Y30726D02*
D03*
X58765Y30868D02*
D03*
Y37868D02*
D03*
Y34332D02*
D03*
Y41332D02*
D03*
X57037Y44726D02*
D03*
Y51726D02*
D03*
Y48474D02*
D03*
Y55474D02*
D03*
Y58726D02*
D03*
X58765Y44868D02*
D03*
Y48332D02*
D03*
Y51868D02*
D03*
Y58868D02*
D03*
Y55332D02*
D03*
D40*
X56544Y9517D02*
D03*
Y51517D02*
D03*
Y37517D02*
D03*
Y44517D02*
D03*
Y58517D02*
D03*
Y30517D02*
D03*
Y23517D02*
D03*
Y16517D02*
D03*
D41*
X4378Y53550D02*
D03*
D42*
X18615Y54427D02*
D03*
X19615D02*
D03*
D43*
Y60027D02*
D03*
D44*
X17615Y54427D02*
D03*
D45*
X14740Y41173D02*
D03*
X28313D02*
D03*
X14740Y25425D02*
D03*
X28313D02*
D03*
D46*
X3217Y23839D02*
D03*
X30383Y41161D02*
D03*
X2500Y2500D02*
D03*
X57300D02*
D03*
X3217Y41161D02*
D03*
X30383Y23839D02*
D03*
X57300Y62500D02*
D03*
X2500D02*
D03*
D47*
X9157Y4800D02*
D03*
X26706Y5500D02*
D03*
X17550Y40500D02*
D03*
X33450Y23800D02*
D03*
X36300Y21300D02*
D03*
X12450Y20700D02*
D03*
X18850Y18100D02*
D03*
X23250Y48500D02*
D03*
X12150Y43700D02*
D03*
X10700Y45100D02*
D03*
X14600Y44800D02*
D03*
X43000Y45000D02*
D03*
X39000Y41000D02*
D03*
X34000Y39000D02*
D03*
X36500Y27500D02*
D03*
X33000Y30500D02*
D03*
X43500Y27000D02*
D03*
X39500Y23000D02*
D03*
X45000Y21000D02*
D03*
X11500Y33000D02*
D03*
X18500D02*
D03*
X6000Y28000D02*
D03*
Y37000D02*
D03*
X24000Y60500D02*
D03*
X40000Y52000D02*
D03*
Y60000D02*
D03*
X42500Y32500D02*
D03*
X4500Y9000D02*
D03*
X20500D02*
D03*
X36500D02*
D03*
X44500Y6000D02*
D03*
X23889Y24180D02*
D03*
X20500Y24300D02*
D03*
X14900Y26500D02*
D03*
X17400Y26600D02*
D03*
X27668Y24061D02*
D03*
X15750Y22657D02*
D03*
X15335Y22230D02*
D03*
D48*
X17415Y60027D02*
D03*
X48800Y11600D02*
D03*
X50400Y11500D02*
D03*
X48800Y18600D02*
D03*
Y25600D02*
D03*
X50400Y18500D02*
D03*
Y25500D02*
D03*
X15385Y37500D02*
D03*
X17274Y38000D02*
D03*
X27668D02*
D03*
X23889Y42400D02*
D03*
X16342Y52725D02*
D03*
X9667Y53600D02*
D03*
Y55100D02*
D03*
X9867Y56700D02*
D03*
X20888Y52716D02*
D03*
X48800Y32600D02*
D03*
Y39600D02*
D03*
X50400Y46500D02*
D03*
Y32500D02*
D03*
Y39500D02*
D03*
X33300Y54976D02*
D03*
X48800Y53600D02*
D03*
X33300Y55976D02*
D03*
Y57976D02*
D03*
Y56976D02*
D03*
X48800Y60600D02*
D03*
X50400Y53500D02*
D03*
Y60500D02*
D03*
X52393Y6665D02*
D03*
X52400Y8706D02*
D03*
Y7689D02*
D03*
X52393Y13665D02*
D03*
X52400Y14689D02*
D03*
X55232Y5100D02*
D03*
Y12100D02*
D03*
X52393Y20665D02*
D03*
X52400Y22706D02*
D03*
Y21689D02*
D03*
X52393Y27665D02*
D03*
X52400Y29706D02*
D03*
Y28689D02*
D03*
Y15706D02*
D03*
X55232Y19100D02*
D03*
Y26100D02*
D03*
X52393Y34665D02*
D03*
X52400Y36706D02*
D03*
Y35689D02*
D03*
X52393Y41665D02*
D03*
X52400Y43706D02*
D03*
Y42689D02*
D03*
X55232Y33100D02*
D03*
Y40100D02*
D03*
X52393Y48665D02*
D03*
Y55665D02*
D03*
X52400Y50706D02*
D03*
Y57706D02*
D03*
Y56689D02*
D03*
X55232Y47100D02*
D03*
X52400Y49689D02*
D03*
X55199Y54100D02*
D03*
X48800Y46600D02*
D03*
Y44412D02*
D03*
X56600Y25400D02*
D03*
X27500Y60682D02*
D03*
X31500Y60707D02*
D03*
X27600Y52380D02*
D03*
X31200Y52370D02*
D03*
X21684Y16830D02*
D03*
Y24400D02*
D03*
X15700Y37900D02*
D03*
X56600Y53400D02*
D03*
X57873D02*
D03*
X48800Y58400D02*
D03*
X51300Y59200D02*
D03*
X56600Y46400D02*
D03*
X57873D02*
D03*
X48800Y51400D02*
D03*
X51300Y52200D02*
D03*
X56600Y39400D02*
D03*
X57873D02*
D03*
X51300Y45200D02*
D03*
X56600Y32400D02*
D03*
X57873D02*
D03*
X48800Y37400D02*
D03*
X51300Y38200D02*
D03*
X57873Y25400D02*
D03*
X48800Y30400D02*
D03*
X51300Y31200D02*
D03*
X56600Y18400D02*
D03*
X57873D02*
D03*
X48800Y23400D02*
D03*
X51300Y24200D02*
D03*
X56600Y11400D02*
D03*
X57873D02*
D03*
X48800Y16400D02*
D03*
X51300Y17200D02*
D03*
Y10200D02*
D03*
X48800Y9400D02*
D03*
X57873Y4400D02*
D03*
X56600D02*
D03*
X52387Y56177D02*
D03*
X52400Y57185D02*
D03*
X52387Y49177D02*
D03*
X52400Y50185D02*
D03*
X52387Y42177D02*
D03*
X52400Y43185D02*
D03*
X52387Y35177D02*
D03*
X52400Y36185D02*
D03*
X52387Y28177D02*
D03*
X52400Y29185D02*
D03*
X52387Y21177D02*
D03*
X52400Y22185D02*
D03*
X52387Y14177D02*
D03*
X52400Y15185D02*
D03*
Y8185D02*
D03*
X16959Y42900D02*
D03*
X17274Y42531D02*
D03*
X16644D02*
D03*
X52387Y7177D02*
D03*
X20424Y38000D02*
D03*
X21054D02*
D03*
X21369Y38400D02*
D03*
X20109D02*
D03*
X17589D02*
D03*
X17904Y38000D02*
D03*
X18849Y38400D02*
D03*
X18534Y38000D02*
D03*
X18219Y38400D02*
D03*
X19164Y38000D02*
D03*
X16330Y38400D02*
D03*
X26408D02*
D03*
X22314Y38000D02*
D03*
X27038Y38400D02*
D03*
X26723Y38000D02*
D03*
X26093D02*
D03*
X25778Y38400D02*
D03*
X25463Y38000D02*
D03*
X25148Y38400D02*
D03*
X24833Y38000D02*
D03*
X24519Y38400D02*
D03*
X24204Y38000D02*
D03*
X23889Y38400D02*
D03*
X23574Y38000D02*
D03*
X23259Y38400D02*
D03*
X22944Y38000D02*
D03*
X22629Y38400D02*
D03*
X21999D02*
D03*
X21684Y38000D02*
D03*
X16644D02*
D03*
X16959Y38400D02*
D03*
X19479D02*
D03*
X19794Y38000D02*
D03*
X20739Y38400D02*
D03*
D49*
X58213Y56000D02*
D03*
X57910Y56000D02*
D03*
X54102Y56908D02*
D03*
X54895Y58244D02*
D03*
X54901Y57939D02*
D03*
X54102Y56608D02*
D03*
X55208Y56455D02*
D03*
X55200Y56155D02*
D03*
X54100Y57508D02*
D03*
X54100Y57208D02*
D03*
X58213Y49000D02*
D03*
X57910Y49000D02*
D03*
X54102Y49908D02*
D03*
X54895Y51244D02*
D03*
X54901Y50939D02*
D03*
X54102Y49608D02*
D03*
X55208Y49455D02*
D03*
X55200Y49155D02*
D03*
X54100Y50508D02*
D03*
X54100Y50208D02*
D03*
X58213Y42000D02*
D03*
X57910Y42000D02*
D03*
X54102Y42908D02*
D03*
X54895Y44244D02*
D03*
X54901Y43939D02*
D03*
X54102Y42608D02*
D03*
X55208Y42455D02*
D03*
X55200Y42155D02*
D03*
X54100Y43508D02*
D03*
X54100Y43208D02*
D03*
X58213Y35000D02*
D03*
X57910Y35000D02*
D03*
X54102Y35908D02*
D03*
X54895Y37244D02*
D03*
X54901Y36939D02*
D03*
X54102Y35608D02*
D03*
X55208Y35455D02*
D03*
X55200Y35155D02*
D03*
X54100Y36508D02*
D03*
X54100Y36208D02*
D03*
X58213Y28000D02*
D03*
X57910Y28000D02*
D03*
X54102Y28908D02*
D03*
X54895Y30244D02*
D03*
X54901Y29939D02*
D03*
X54102Y28608D02*
D03*
X55208Y28455D02*
D03*
X55200Y28155D02*
D03*
X54100Y29508D02*
D03*
X54100Y29208D02*
D03*
X58213Y21000D02*
D03*
X57910Y21000D02*
D03*
X54102Y21908D02*
D03*
X54895Y23244D02*
D03*
X54901Y22939D02*
D03*
X54102Y21608D02*
D03*
X55208Y21455D02*
D03*
X55200Y21155D02*
D03*
X54100Y22508D02*
D03*
X54100Y22208D02*
D03*
X58213Y14000D02*
D03*
X57910Y14000D02*
D03*
X54102Y14908D02*
D03*
X54895Y16244D02*
D03*
X54901Y15939D02*
D03*
X54102Y14608D02*
D03*
X55208Y14455D02*
D03*
X55200Y14155D02*
D03*
X54100Y15508D02*
D03*
X54100Y15208D02*
D03*
Y8208D02*
D03*
X54100Y8508D02*
D03*
X55200Y7155D02*
D03*
X55208Y7455D02*
D03*
X54102Y7608D02*
D03*
X54901Y8939D02*
D03*
X54895Y9244D02*
D03*
X54102Y7908D02*
D03*
X57910Y7000D02*
D03*
X58213Y7000D02*
D03*
X24900Y55000D02*
D03*
X25600Y55976D02*
D03*
X26500Y56976D02*
D03*
X27300Y57976D02*
D03*
X16330Y21851D02*
D03*
X16644Y21616D02*
D03*
X16959Y21400D02*
D03*
X16330Y27700D02*
D03*
X16959Y27100D02*
D03*
X4750Y18900D02*
D03*
X16015Y28000D02*
D03*
X5750Y19400D02*
D03*
X6750Y19900D02*
D03*
X16644Y27400D02*
D03*
X7750Y20400D02*
D03*
X20424Y22152D02*
D03*
X19164Y22458D02*
D03*
X18534D02*
D03*
X17904Y26800D02*
D03*
X18219Y27098D02*
D03*
X18534Y26800D02*
D03*
X19164D02*
D03*
X19794D02*
D03*
X20109Y27098D02*
D03*
X26723Y24061D02*
D03*
X25463D02*
D03*
X24833D02*
D03*
X23259D02*
D03*
X22600D02*
D03*
X21369D02*
D03*
X28000Y11500D02*
D03*
X30000Y11800D02*
D03*
X35000Y12100D02*
D03*
X37000Y12400D02*
D03*
X41000Y12700D02*
D03*
X20424Y26792D02*
D03*
X20739Y27093D02*
D03*
X21369Y27100D02*
D03*
X27668Y28900D02*
D03*
X26408Y28600D02*
D03*
X25800Y28300D02*
D03*
X24500Y28000D02*
D03*
X23900Y27700D02*
D03*
X23600Y27400D02*
D03*
X22300Y27100D02*
D03*
X21700Y26800D02*
D03*
X48800Y55395D02*
D03*
Y55921D02*
D03*
Y56433D02*
D03*
Y57457D02*
D03*
Y48395D02*
D03*
Y48921D02*
D03*
Y49433D02*
D03*
Y50457D02*
D03*
Y41395D02*
D03*
Y41921D02*
D03*
Y42433D02*
D03*
Y43457D02*
D03*
Y34395D02*
D03*
Y34921D02*
D03*
Y35433D02*
D03*
Y36457D02*
D03*
Y27395D02*
D03*
Y27921D02*
D03*
Y28433D02*
D03*
Y29457D02*
D03*
Y20395D02*
D03*
Y20921D02*
D03*
Y21433D02*
D03*
Y22457D02*
D03*
Y13395D02*
D03*
Y13921D02*
D03*
Y14433D02*
D03*
Y15457D02*
D03*
X52800Y57457D02*
D03*
Y56433D02*
D03*
Y55921D02*
D03*
Y55410D02*
D03*
Y50457D02*
D03*
Y49433D02*
D03*
Y48921D02*
D03*
Y48410D02*
D03*
Y43457D02*
D03*
Y42433D02*
D03*
Y41921D02*
D03*
Y41410D02*
D03*
Y36457D02*
D03*
Y35433D02*
D03*
Y34921D02*
D03*
Y34410D02*
D03*
Y29457D02*
D03*
Y28433D02*
D03*
Y27921D02*
D03*
Y27410D02*
D03*
Y22457D02*
D03*
Y21433D02*
D03*
Y20921D02*
D03*
Y20410D02*
D03*
Y15457D02*
D03*
Y14433D02*
D03*
Y13921D02*
D03*
Y13410D02*
D03*
X48800Y8457D02*
D03*
Y7433D02*
D03*
Y6921D02*
D03*
Y6395D02*
D03*
X52800Y6410D02*
D03*
Y6921D02*
D03*
Y7433D02*
D03*
Y8457D02*
D03*
M02*
