G04*
G04 #@! TF.GenerationSoftware,Altium Limited,Altium Designer,25.8.1 (18)*
G04*
G04 Layer_Physical_Order=4*
G04 Layer_Color=16711680*
%FSLAX24Y24*%
%MOIN*%
G70*
G04*
G04 #@! TF.SameCoordinates,0747261C-A30E-42C5-B94E-B19C60964289*
G04*
G04*
G04 #@! TF.FilePolarity,Positive*
G04*
G01*
G75*
%ADD17C,0.0080*%
%ADD37C,0.0618*%
%ADD38C,0.0256*%
G04:AMPARAMS|DCode=39|XSize=35.4mil|YSize=59.1mil|CornerRadius=17.7mil|HoleSize=0mil|Usage=FLASHONLY|Rotation=90.000|XOffset=0mil|YOffset=0mil|HoleType=Round|Shape=RoundedRectangle|*
%AMROUNDEDRECTD39*
21,1,0.0354,0.0236,0,0,90.0*
21,1,0.0000,0.0591,0,0,90.0*
1,1,0.0354,0.0118,0.0000*
1,1,0.0354,0.0118,0.0000*
1,1,0.0354,-0.0118,0.0000*
1,1,0.0354,-0.0118,0.0000*
%
%ADD39ROUNDEDRECTD39*%
G04:AMPARAMS|DCode=40|XSize=37.4mil|YSize=25.6mil|CornerRadius=12.8mil|HoleSize=0mil|Usage=FLASHONLY|Rotation=90.000|XOffset=0mil|YOffset=0mil|HoleType=Round|Shape=RoundedRectangle|*
%AMROUNDEDRECTD40*
21,1,0.0374,0.0000,0,0,90.0*
21,1,0.0118,0.0256,0,0,90.0*
1,1,0.0256,0.0000,0.0059*
1,1,0.0256,0.0000,-0.0059*
1,1,0.0256,0.0000,-0.0059*
1,1,0.0256,0.0000,0.0059*
%
%ADD40ROUNDEDRECTD40*%
%ADD43R,0.0618X0.0618*%
%ADD47C,0.0320*%
%ADD48C,0.0240*%
%ADD49C,0.0200*%
%ADD50C,0.0120*%
%ADD52C,0.0063*%
%ADD53C,0.0547*%
%ADD54R,0.0547X0.0547*%
%ADD55O,0.0594X0.1187*%
%ADD56O,0.1187X0.0594*%
%ADD57C,0.0610*%
%ADD58R,0.0610X0.0610*%
%ADD59C,0.0400*%
%ADD60C,0.1969*%
G36*
X58800Y59127D02*
X58647D01*
X58580Y59118D01*
X58517Y59092D01*
X58463Y59051D01*
X58422Y58997D01*
X58396Y58935D01*
X58394Y58918D01*
X58765D01*
Y58818D01*
X58394D01*
X58396Y58801D01*
X58422Y58738D01*
X58463Y58684D01*
X58517Y58643D01*
X58580Y58617D01*
X58647Y58608D01*
X58800D01*
Y55592D01*
X58647D01*
X58580Y55583D01*
X58517Y55557D01*
X58463Y55516D01*
X58422Y55462D01*
X58396Y55399D01*
X58394Y55382D01*
X58765D01*
Y55282D01*
X58394D01*
X58396Y55265D01*
X58422Y55203D01*
X58463Y55149D01*
X58517Y55108D01*
X58580Y55082D01*
X58647Y55073D01*
X58800D01*
Y52127D01*
X58647D01*
X58580Y52118D01*
X58517Y52092D01*
X58463Y52051D01*
X58422Y51997D01*
X58396Y51935D01*
X58394Y51918D01*
X58765D01*
Y51818D01*
X58394D01*
X58396Y51801D01*
X58422Y51738D01*
X58463Y51684D01*
X58517Y51643D01*
X58580Y51617D01*
X58647Y51608D01*
X58800D01*
Y48592D01*
X58647D01*
X58580Y48583D01*
X58517Y48557D01*
X58463Y48516D01*
X58422Y48462D01*
X58396Y48399D01*
X58394Y48382D01*
X58765D01*
Y48282D01*
X58394D01*
X58396Y48265D01*
X58422Y48203D01*
X58463Y48149D01*
X58517Y48108D01*
X58580Y48082D01*
X58647Y48073D01*
X58800D01*
Y45127D01*
X58647D01*
X58580Y45118D01*
X58517Y45092D01*
X58463Y45051D01*
X58422Y44997D01*
X58396Y44935D01*
X58394Y44918D01*
X58765D01*
Y44818D01*
X58394D01*
X58396Y44801D01*
X58422Y44738D01*
X58463Y44684D01*
X58517Y44643D01*
X58580Y44617D01*
X58647Y44608D01*
X58800D01*
Y41592D01*
X58647D01*
X58580Y41583D01*
X58517Y41557D01*
X58463Y41516D01*
X58422Y41462D01*
X58396Y41399D01*
X58394Y41382D01*
X58765D01*
Y41282D01*
X58394D01*
X58396Y41265D01*
X58422Y41203D01*
X58463Y41149D01*
X58517Y41108D01*
X58580Y41082D01*
X58647Y41073D01*
X58800D01*
Y38127D01*
X58647D01*
X58580Y38118D01*
X58517Y38092D01*
X58463Y38051D01*
X58422Y37997D01*
X58396Y37935D01*
X58394Y37918D01*
X58765D01*
Y37818D01*
X58394D01*
X58396Y37801D01*
X58422Y37738D01*
X58463Y37684D01*
X58517Y37643D01*
X58580Y37617D01*
X58647Y37608D01*
X58800D01*
Y34592D01*
X58647D01*
X58580Y34583D01*
X58517Y34557D01*
X58463Y34516D01*
X58422Y34462D01*
X58396Y34399D01*
X58394Y34382D01*
X58765D01*
Y34282D01*
X58394D01*
X58396Y34265D01*
X58422Y34203D01*
X58463Y34149D01*
X58517Y34108D01*
X58580Y34082D01*
X58647Y34073D01*
X58800D01*
Y31127D01*
X58647D01*
X58580Y31118D01*
X58517Y31092D01*
X58463Y31051D01*
X58422Y30997D01*
X58396Y30935D01*
X58394Y30918D01*
X58765D01*
Y30818D01*
X58394D01*
X58396Y30801D01*
X58422Y30738D01*
X58463Y30684D01*
X58517Y30643D01*
X58580Y30617D01*
X58647Y30608D01*
X58800D01*
Y27592D01*
X58647D01*
X58580Y27583D01*
X58517Y27557D01*
X58463Y27516D01*
X58422Y27462D01*
X58396Y27399D01*
X58394Y27382D01*
X58765D01*
Y27282D01*
X58394D01*
X58396Y27265D01*
X58422Y27203D01*
X58463Y27149D01*
X58517Y27108D01*
X58580Y27082D01*
X58647Y27073D01*
X58800D01*
Y24127D01*
X58647D01*
X58580Y24118D01*
X58517Y24092D01*
X58463Y24051D01*
X58422Y23997D01*
X58396Y23935D01*
X58394Y23918D01*
X58765D01*
Y23818D01*
X58394D01*
X58396Y23801D01*
X58422Y23738D01*
X58463Y23684D01*
X58517Y23643D01*
X58580Y23617D01*
X58647Y23608D01*
X58800D01*
Y20592D01*
X58647D01*
X58580Y20583D01*
X58517Y20557D01*
X58463Y20516D01*
X58422Y20462D01*
X58396Y20399D01*
X58394Y20382D01*
X58765D01*
Y20282D01*
X58394D01*
X58396Y20265D01*
X58422Y20203D01*
X58463Y20149D01*
X58517Y20108D01*
X58580Y20082D01*
X58647Y20073D01*
X58800D01*
Y17127D01*
X58647D01*
X58580Y17118D01*
X58517Y17092D01*
X58463Y17051D01*
X58422Y16997D01*
X58396Y16935D01*
X58394Y16918D01*
X58765D01*
Y16818D01*
X58394D01*
X58396Y16801D01*
X58422Y16738D01*
X58463Y16684D01*
X58517Y16643D01*
X58580Y16617D01*
X58647Y16608D01*
X58800D01*
Y13592D01*
X58647D01*
X58580Y13583D01*
X58517Y13557D01*
X58463Y13516D01*
X58422Y13462D01*
X58396Y13399D01*
X58394Y13382D01*
X58765D01*
Y13282D01*
X58394D01*
X58396Y13265D01*
X58422Y13203D01*
X58463Y13149D01*
X58517Y13108D01*
X58580Y13082D01*
X58647Y13073D01*
X58800D01*
Y10127D01*
X58647D01*
X58580Y10118D01*
X58517Y10092D01*
X58463Y10051D01*
X58422Y9997D01*
X58396Y9935D01*
X58394Y9918D01*
X58765D01*
Y9818D01*
X58394D01*
X58396Y9801D01*
X58422Y9738D01*
X58463Y9684D01*
X58517Y9643D01*
X58580Y9617D01*
X58647Y9608D01*
X58800D01*
Y6592D01*
X58647D01*
X58580Y6583D01*
X58517Y6557D01*
X58463Y6516D01*
X58422Y6462D01*
X58396Y6399D01*
X58394Y6382D01*
X58765D01*
Y6282D01*
X58394D01*
X58396Y6265D01*
X58422Y6203D01*
X58463Y6149D01*
X58517Y6108D01*
X58580Y6082D01*
X58647Y6073D01*
X58800D01*
Y1000D01*
X1000D01*
Y64000D01*
X58800D01*
Y59127D01*
D02*
G37*
%LPC*%
G36*
X57385Y63584D02*
X57215D01*
X57046Y63558D01*
X56884Y63505D01*
X56732Y63427D01*
X56594Y63327D01*
X56473Y63206D01*
X56373Y63068D01*
X56295Y62916D01*
X56242Y62754D01*
X56216Y62585D01*
Y62415D01*
X56242Y62246D01*
X56295Y62084D01*
X56373Y61932D01*
X56473Y61794D01*
X56594Y61673D01*
X56732Y61573D01*
X56884Y61495D01*
X57046Y61442D01*
X57215Y61416D01*
X57385D01*
X57554Y61442D01*
X57716Y61495D01*
X57868Y61573D01*
X58006Y61673D01*
X58127Y61794D01*
X58227Y61932D01*
X58305Y62084D01*
X58358Y62246D01*
X58384Y62415D01*
Y62585D01*
X58358Y62754D01*
X58305Y62916D01*
X58227Y63068D01*
X58127Y63206D01*
X58006Y63327D01*
X57868Y63427D01*
X57716Y63505D01*
X57554Y63558D01*
X57385Y63584D01*
D02*
G37*
G36*
X2585D02*
X2415D01*
X2246Y63558D01*
X2084Y63505D01*
X1932Y63427D01*
X1794Y63327D01*
X1673Y63206D01*
X1573Y63068D01*
X1495Y62916D01*
X1442Y62754D01*
X1416Y62585D01*
Y62415D01*
X1442Y62246D01*
X1495Y62084D01*
X1573Y61932D01*
X1673Y61794D01*
X1794Y61673D01*
X1932Y61573D01*
X2084Y61495D01*
X2246Y61442D01*
X2415Y61416D01*
X2585D01*
X2754Y61442D01*
X2916Y61495D01*
X3068Y61573D01*
X3206Y61673D01*
X3327Y61794D01*
X3427Y61932D01*
X3505Y62084D01*
X3558Y62246D01*
X3584Y62415D01*
Y62585D01*
X3558Y62754D01*
X3505Y62916D01*
X3427Y63068D01*
X3327Y63206D01*
X3206Y63327D01*
X3068Y63427D01*
X2916Y63505D01*
X2754Y63558D01*
X2585Y63584D01*
D02*
G37*
G36*
X31544Y60927D02*
X31456D01*
X31375Y60893D01*
X31313Y60831D01*
X31280Y60751D01*
Y60663D01*
X31313Y60582D01*
X31375Y60520D01*
X31456Y60487D01*
X31544D01*
X31625Y60520D01*
X31687Y60582D01*
X31720Y60663D01*
Y60751D01*
X31687Y60831D01*
X31625Y60893D01*
X31544Y60927D01*
D02*
G37*
G36*
X27544Y60902D02*
X27456D01*
X27375Y60868D01*
X27313Y60806D01*
X27280Y60726D01*
Y60638D01*
X27313Y60557D01*
X27375Y60495D01*
X27456Y60462D01*
X27544D01*
X27625Y60495D01*
X27687Y60557D01*
X27720Y60638D01*
Y60726D01*
X27687Y60806D01*
X27625Y60868D01*
X27544Y60902D01*
D02*
G37*
G36*
X18666Y60416D02*
X18665D01*
Y60077D01*
X19004D01*
Y60078D01*
X18977Y60177D01*
X18926Y60266D01*
X18854Y60338D01*
X18765Y60389D01*
X18666Y60416D01*
D02*
G37*
G36*
X18565D02*
X18564D01*
X18465Y60389D01*
X18376Y60338D01*
X18304Y60266D01*
X18252Y60177D01*
X18226Y60078D01*
Y60077D01*
X18565D01*
Y60416D01*
D02*
G37*
G36*
X19004Y59977D02*
X18665D01*
Y59638D01*
X18666D01*
X18765Y59664D01*
X18854Y59715D01*
X18926Y59788D01*
X18977Y59877D01*
X19004Y59975D01*
Y59977D01*
D02*
G37*
G36*
X18565D02*
X18226D01*
Y59975D01*
X18252Y59877D01*
X18304Y59788D01*
X18376Y59715D01*
X18465Y59664D01*
X18564Y59638D01*
X18565D01*
Y59977D01*
D02*
G37*
G36*
X20024Y60436D02*
X19206D01*
Y59618D01*
X20024D01*
Y60436D01*
D02*
G37*
G36*
X51344Y59420D02*
X51256D01*
X51175Y59387D01*
X51113Y59325D01*
X51080Y59244D01*
Y59156D01*
X51113Y59075D01*
X51175Y59013D01*
X51256Y58980D01*
X51344D01*
X51425Y59013D01*
X51487Y59075D01*
X51520Y59156D01*
Y59244D01*
X51487Y59325D01*
X51425Y59387D01*
X51344Y59420D01*
D02*
G37*
G36*
X48844Y58620D02*
X48756D01*
X48675Y58587D01*
X48613Y58525D01*
X48580Y58444D01*
Y58356D01*
X48613Y58275D01*
X48675Y58213D01*
X48756Y58180D01*
X48844D01*
X48925Y58213D01*
X48987Y58275D01*
X49020Y58356D01*
Y58444D01*
X48987Y58525D01*
X48925Y58587D01*
X48844Y58620D01*
D02*
G37*
G36*
X57337Y59794D02*
X55419D01*
X55367Y59784D01*
X55324Y59755D01*
X54425Y58856D01*
X54396Y58813D01*
X54386Y58761D01*
Y57787D01*
X54245Y57646D01*
X54213Y57677D01*
X54140Y57708D01*
X54060D01*
X53987Y57677D01*
X53930Y57621D01*
X53900Y57547D01*
Y57468D01*
X53930Y57394D01*
X53967Y57357D01*
X53931Y57321D01*
X53900Y57247D01*
Y57168D01*
X53931Y57094D01*
X53968Y57057D01*
X53932Y57021D01*
X53902Y56947D01*
Y56868D01*
X53932Y56794D01*
X53969Y56757D01*
X53933Y56721D01*
X53902Y56647D01*
Y56568D01*
X53933Y56494D01*
X53989Y56438D01*
X54063Y56408D01*
X54142D01*
X54173Y56420D01*
X54269Y56367D01*
X54273Y56362D01*
Y55348D01*
X54283Y55297D01*
X54312Y55253D01*
X54873Y54692D01*
X54917Y54663D01*
X54968Y54653D01*
X57620D01*
X57671Y54663D01*
X57715Y54692D01*
X58213Y55190D01*
X58242Y55234D01*
X58252Y55285D01*
Y55800D01*
X58253D01*
X58326Y55830D01*
X58383Y55886D01*
X58413Y55960D01*
Y56039D01*
X58383Y56113D01*
X58326Y56169D01*
X58253Y56200D01*
X58173D01*
X58100Y56169D01*
X58061Y56131D01*
X58023Y56169D01*
X57950Y56200D01*
X57870D01*
X57820Y56179D01*
X57788Y56172D01*
X57695Y56200D01*
X57431Y56464D01*
X57388Y56493D01*
X57337Y56503D01*
X57304D01*
Y56515D01*
X57269Y56599D01*
X57241Y56628D01*
X57269Y56656D01*
X57304Y56740D01*
Y56830D01*
X57282Y56919D01*
X57325Y56948D01*
X58008Y57630D01*
X58037Y57674D01*
X58047Y57725D01*
Y59083D01*
X58037Y59135D01*
X58008Y59178D01*
X57511Y59675D01*
X57431Y59755D01*
X57388Y59784D01*
X57337Y59794D01*
D02*
G37*
G36*
X52840Y57657D02*
X52760D01*
X52687Y57626D01*
X52660Y57600D01*
X48940D01*
X48913Y57626D01*
X48840Y57657D01*
X48760D01*
X48687Y57626D01*
X48630Y57570D01*
X48600Y57497D01*
Y57417D01*
X48630Y57344D01*
X48687Y57287D01*
X48760Y57257D01*
X48840D01*
X48913Y57287D01*
X48940Y57314D01*
X52107D01*
X52180Y57229D01*
Y57141D01*
X52213Y57060D01*
X52275Y56999D01*
X52356Y56965D01*
X52444D01*
X52525Y56999D01*
X52587Y57060D01*
X52620Y57141D01*
Y57215D01*
X52646Y57243D01*
X52648Y57245D01*
X52708Y57279D01*
X52760Y57257D01*
X52840D01*
X52913Y57287D01*
X52970Y57344D01*
X53000Y57417D01*
Y57497D01*
X52970Y57570D01*
X52913Y57626D01*
X52840Y57657D01*
D02*
G37*
G36*
Y56633D02*
X52760D01*
X52687Y56603D01*
X52660Y56576D01*
X48940D01*
X48913Y56603D01*
X48840Y56633D01*
X48760D01*
X48687Y56603D01*
X48630Y56546D01*
X48600Y56473D01*
Y56393D01*
X48630Y56320D01*
X48687Y56264D01*
X48760Y56233D01*
X48840D01*
X48913Y56264D01*
X48940Y56290D01*
X52120D01*
X52167Y56221D01*
Y56134D01*
X52120Y56064D01*
X48940D01*
X48913Y56091D01*
X48840Y56121D01*
X48760D01*
X48687Y56091D01*
X48630Y56035D01*
X48600Y55961D01*
Y55882D01*
X48630Y55808D01*
X48687Y55752D01*
X48760Y55721D01*
X48840D01*
X48913Y55752D01*
X48940Y55779D01*
X52660D01*
X52687Y55752D01*
X52760Y55721D01*
X52840D01*
X52913Y55752D01*
X52970Y55808D01*
X53000Y55882D01*
Y55961D01*
X52970Y56035D01*
X52913Y56091D01*
X52840Y56121D01*
X52760D01*
X52751Y56117D01*
X52653Y56177D01*
X52751Y56237D01*
X52760Y56233D01*
X52840D01*
X52913Y56264D01*
X52970Y56320D01*
X53000Y56393D01*
Y56473D01*
X52970Y56546D01*
X52913Y56603D01*
X52840Y56633D01*
D02*
G37*
G36*
Y55610D02*
X52760D01*
X52687Y55579D01*
X52653Y55545D01*
X48933D01*
X48913Y55565D01*
X48840Y55595D01*
X48760D01*
X48687Y55565D01*
X48630Y55508D01*
X48600Y55435D01*
Y55355D01*
X48630Y55282D01*
X48687Y55226D01*
X48760Y55195D01*
X48840D01*
X48913Y55226D01*
X48947Y55260D01*
X52667D01*
X52687Y55240D01*
X52760Y55210D01*
X52840D01*
X52913Y55240D01*
X52970Y55296D01*
X53000Y55370D01*
Y55449D01*
X52970Y55523D01*
X52913Y55579D01*
X52840Y55610D01*
D02*
G37*
G36*
X3247Y56070D02*
Y55450D01*
X3577D01*
Y55697D01*
X3564Y55795D01*
X3526Y55887D01*
X3466Y55966D01*
X3387Y56026D01*
X3295Y56064D01*
X3247Y56070D01*
D02*
G37*
G36*
X3147D02*
X3098Y56064D01*
X3007Y56026D01*
X2928Y55966D01*
X2868Y55887D01*
X2830Y55795D01*
X2817Y55697D01*
Y55450D01*
X3147D01*
Y56070D01*
D02*
G37*
G36*
Y55350D02*
X2817D01*
Y55103D01*
X2830Y55005D01*
X2868Y54913D01*
X2928Y54834D01*
X3007Y54774D01*
X3098Y54736D01*
X3147Y54730D01*
Y55350D01*
D02*
G37*
G36*
X3577D02*
X3247D01*
Y54730D01*
X3295Y54736D01*
X3387Y54774D01*
X3466Y54834D01*
X3526Y54913D01*
X3564Y55005D01*
X3577Y55103D01*
Y55350D01*
D02*
G37*
G36*
X5559Y56097D02*
X5455Y56083D01*
X5359Y56044D01*
X5276Y55980D01*
X5212Y55897D01*
X5172Y55800D01*
X5159Y55697D01*
Y55103D01*
X5172Y55000D01*
X5212Y54903D01*
X5276Y54820D01*
X5359Y54756D01*
X5455Y54717D01*
X5559Y54703D01*
X5663Y54717D01*
X5759Y54756D01*
X5842Y54820D01*
X5906Y54903D01*
X5946Y55000D01*
X5959Y55103D01*
Y55697D01*
X5946Y55800D01*
X5906Y55897D01*
X5842Y55980D01*
X5759Y56044D01*
X5663Y56083D01*
X5559Y56097D01*
D02*
G37*
G36*
X19668Y54832D02*
X19562D01*
X19459Y54804D01*
X19366Y54751D01*
X19291Y54675D01*
X19237Y54583D01*
X19210Y54480D01*
Y54373D01*
X19237Y54270D01*
X19291Y54178D01*
X19366Y54103D01*
X19459Y54049D01*
X19562Y54022D01*
X19668D01*
X19771Y54049D01*
X19864Y54103D01*
X19939Y54178D01*
X19992Y54270D01*
X20020Y54373D01*
Y54480D01*
X19992Y54583D01*
X19939Y54675D01*
X19864Y54751D01*
X19771Y54804D01*
X19668Y54832D01*
D02*
G37*
G36*
X18668D02*
X18562D01*
X18459Y54804D01*
X18366Y54751D01*
X18291Y54675D01*
X18237Y54583D01*
X18210Y54480D01*
Y54373D01*
X18237Y54270D01*
X18291Y54178D01*
X18366Y54103D01*
X18459Y54049D01*
X18562Y54022D01*
X18668D01*
X18771Y54049D01*
X18864Y54103D01*
X18939Y54178D01*
X18992Y54270D01*
X19020Y54373D01*
Y54480D01*
X18992Y54583D01*
X18939Y54675D01*
X18864Y54751D01*
X18771Y54804D01*
X18668Y54832D01*
D02*
G37*
G36*
X18020D02*
X17210D01*
Y54022D01*
X18020D01*
Y54832D01*
D02*
G37*
G36*
X57917Y53620D02*
X57829D01*
X57748Y53587D01*
X57687Y53525D01*
X57653Y53444D01*
Y53356D01*
X57687Y53275D01*
X57748Y53213D01*
X57829Y53180D01*
X57917D01*
X57998Y53213D01*
X58060Y53275D01*
X58093Y53356D01*
Y53444D01*
X58060Y53525D01*
X57998Y53587D01*
X57917Y53620D01*
D02*
G37*
G36*
X56644D02*
X56556D01*
X56475Y53587D01*
X56413Y53525D01*
X56380Y53444D01*
Y53356D01*
X56413Y53275D01*
X56475Y53213D01*
X56556Y53180D01*
X56644D01*
X56725Y53213D01*
X56787Y53275D01*
X56820Y53356D01*
Y53444D01*
X56787Y53525D01*
X56725Y53587D01*
X56644Y53620D01*
D02*
G37*
G36*
X4675Y53950D02*
X4081D01*
X3977Y53936D01*
X3881Y53896D01*
X3798Y53833D01*
X3734Y53750D01*
X3694Y53653D01*
X3681Y53550D01*
X3694Y53446D01*
X3734Y53349D01*
X3798Y53267D01*
X3881Y53203D01*
X3977Y53163D01*
X4081Y53149D01*
X4675D01*
X4778Y53163D01*
X4875Y53203D01*
X4958Y53267D01*
X5021Y53349D01*
X5061Y53446D01*
X5075Y53550D01*
X5061Y53653D01*
X5021Y53750D01*
X4958Y53833D01*
X4875Y53896D01*
X4778Y53936D01*
X4675Y53950D01*
D02*
G37*
G36*
X27644Y52600D02*
X27556D01*
X27475Y52567D01*
X27413Y52505D01*
X27380Y52424D01*
Y52337D01*
X27413Y52256D01*
X27475Y52194D01*
X27556Y52160D01*
X27644D01*
X27725Y52194D01*
X27787Y52256D01*
X27820Y52337D01*
Y52424D01*
X27787Y52505D01*
X27725Y52567D01*
X27644Y52600D01*
D02*
G37*
G36*
X31244Y52590D02*
X31156D01*
X31075Y52557D01*
X31013Y52495D01*
X30980Y52414D01*
Y52326D01*
X31013Y52246D01*
X31075Y52184D01*
X31156Y52150D01*
X31244D01*
X31325Y52184D01*
X31387Y52246D01*
X31420Y52326D01*
Y52414D01*
X31387Y52495D01*
X31325Y52557D01*
X31244Y52590D01*
D02*
G37*
G36*
X51344Y52420D02*
X51256D01*
X51175Y52387D01*
X51113Y52325D01*
X51080Y52244D01*
Y52156D01*
X51113Y52075D01*
X51175Y52013D01*
X51256Y51980D01*
X51344D01*
X51425Y52013D01*
X51487Y52075D01*
X51520Y52156D01*
Y52244D01*
X51487Y52325D01*
X51425Y52387D01*
X51344Y52420D01*
D02*
G37*
G36*
X48844Y51620D02*
X48756D01*
X48675Y51587D01*
X48613Y51525D01*
X48580Y51444D01*
Y51356D01*
X48613Y51275D01*
X48675Y51213D01*
X48756Y51180D01*
X48844D01*
X48925Y51213D01*
X48987Y51275D01*
X49020Y51356D01*
Y51444D01*
X48987Y51525D01*
X48925Y51587D01*
X48844Y51620D01*
D02*
G37*
G36*
X57337Y52794D02*
X55419D01*
X55367Y52784D01*
X55324Y52755D01*
X54425Y51856D01*
X54396Y51813D01*
X54386Y51761D01*
Y50787D01*
X54245Y50646D01*
X54213Y50677D01*
X54140Y50708D01*
X54060D01*
X53987Y50677D01*
X53930Y50621D01*
X53900Y50547D01*
Y50468D01*
X53930Y50394D01*
X53967Y50357D01*
X53931Y50321D01*
X53900Y50247D01*
Y50168D01*
X53931Y50094D01*
X53968Y50057D01*
X53932Y50021D01*
X53902Y49947D01*
Y49868D01*
X53932Y49794D01*
X53969Y49757D01*
X53933Y49721D01*
X53902Y49647D01*
Y49568D01*
X53933Y49494D01*
X53989Y49438D01*
X54063Y49408D01*
X54142D01*
X54173Y49420D01*
X54269Y49367D01*
X54273Y49362D01*
Y48348D01*
X54283Y48297D01*
X54312Y48253D01*
X54873Y47692D01*
X54917Y47663D01*
X54968Y47653D01*
X57620D01*
X57671Y47663D01*
X57715Y47692D01*
X58213Y48190D01*
X58242Y48234D01*
X58252Y48285D01*
Y48800D01*
X58253D01*
X58326Y48830D01*
X58383Y48886D01*
X58413Y48960D01*
Y49039D01*
X58383Y49113D01*
X58326Y49169D01*
X58253Y49200D01*
X58173D01*
X58100Y49169D01*
X58061Y49131D01*
X58023Y49169D01*
X57950Y49200D01*
X57870D01*
X57820Y49179D01*
X57788Y49172D01*
X57695Y49200D01*
X57431Y49464D01*
X57388Y49493D01*
X57337Y49503D01*
X57304D01*
Y49515D01*
X57269Y49599D01*
X57241Y49628D01*
X57269Y49656D01*
X57304Y49740D01*
Y49830D01*
X57282Y49919D01*
X57325Y49948D01*
X58008Y50630D01*
X58037Y50674D01*
X58047Y50725D01*
Y52083D01*
X58037Y52135D01*
X58008Y52178D01*
X57511Y52675D01*
X57431Y52755D01*
X57388Y52784D01*
X57337Y52794D01*
D02*
G37*
G36*
X52840Y50657D02*
X52760D01*
X52687Y50626D01*
X52660Y50600D01*
X48940D01*
X48913Y50626D01*
X48840Y50657D01*
X48760D01*
X48687Y50626D01*
X48630Y50570D01*
X48600Y50497D01*
Y50417D01*
X48630Y50344D01*
X48687Y50287D01*
X48760Y50257D01*
X48840D01*
X48913Y50287D01*
X48940Y50314D01*
X52107D01*
X52180Y50229D01*
Y50141D01*
X52213Y50060D01*
X52275Y49999D01*
X52356Y49965D01*
X52444D01*
X52525Y49999D01*
X52587Y50060D01*
X52620Y50141D01*
Y50215D01*
X52646Y50243D01*
X52648Y50245D01*
X52708Y50279D01*
X52760Y50257D01*
X52840D01*
X52913Y50287D01*
X52970Y50344D01*
X53000Y50417D01*
Y50497D01*
X52970Y50570D01*
X52913Y50626D01*
X52840Y50657D01*
D02*
G37*
G36*
X27340Y58176D02*
X27260D01*
X27187Y58146D01*
X27130Y58089D01*
X27100Y58016D01*
Y57936D01*
X27130Y57863D01*
X27157Y57836D01*
Y54609D01*
X21896Y49347D01*
X21894Y49348D01*
X21799Y49374D01*
X21701D01*
X21606Y49348D01*
X21521Y49299D01*
X21451Y49229D01*
X21402Y49144D01*
X21376Y49049D01*
Y48951D01*
X21402Y48856D01*
X21403Y48854D01*
X21288Y48740D01*
X21237Y48740D01*
X21207Y48745D01*
X21174Y48759D01*
X21155Y48787D01*
X21155Y48787D01*
X21094Y48848D01*
X21098Y48856D01*
X21124Y48951D01*
Y49049D01*
X21098Y49144D01*
X21097Y49146D01*
X21301Y49349D01*
X21301Y49349D01*
X21332Y49395D01*
X21343Y49450D01*
X21343Y49450D01*
Y49758D01*
X21443Y49785D01*
X21451Y49771D01*
X21521Y49701D01*
X21606Y49652D01*
X21701Y49626D01*
X21799D01*
X21894Y49652D01*
X21979Y49701D01*
X22049Y49771D01*
X22098Y49856D01*
X22124Y49951D01*
Y50049D01*
X22098Y50144D01*
X22049Y50229D01*
X21979Y50299D01*
X21894Y50348D01*
X21799Y50374D01*
X21717D01*
X21689Y50413D01*
X21671Y50469D01*
X21759Y50557D01*
X22438D01*
X22438Y50557D01*
X22492Y50568D01*
X22539Y50599D01*
X26601Y54661D01*
X26601Y54661D01*
X26632Y54708D01*
X26643Y54762D01*
X26643Y54762D01*
Y56836D01*
X26670Y56863D01*
X26700Y56936D01*
Y57016D01*
X26670Y57089D01*
X26613Y57146D01*
X26540Y57176D01*
X26460D01*
X26387Y57146D01*
X26330Y57089D01*
X26300Y57016D01*
Y56936D01*
X26330Y56863D01*
X26357Y56836D01*
Y54822D01*
X22378Y50843D01*
X21886D01*
X21845Y50943D01*
X25701Y54799D01*
X25701Y54799D01*
X25732Y54845D01*
X25743Y54900D01*
X25743Y54900D01*
Y55836D01*
X25770Y55863D01*
X25800Y55936D01*
Y56016D01*
X25770Y56089D01*
X25713Y56146D01*
X25640Y56176D01*
X25560D01*
X25487Y56146D01*
X25430Y56089D01*
X25400Y56016D01*
Y55936D01*
X25430Y55863D01*
X25457Y55836D01*
Y54959D01*
X21641Y51143D01*
X19815D01*
X19760Y51132D01*
X19714Y51101D01*
X19714Y51101D01*
X19099Y50486D01*
X19068Y50440D01*
X19057Y50385D01*
X19057Y50385D01*
Y50363D01*
X19027Y50338D01*
X18957Y50312D01*
X18894Y50348D01*
X18799Y50374D01*
X18701D01*
X18606Y50348D01*
X18521Y50299D01*
X18462Y50240D01*
X18416Y50248D01*
X18362Y50275D01*
Y50541D01*
X19078Y51257D01*
X21300D01*
X21300Y51257D01*
X21355Y51268D01*
X21401Y51299D01*
X24902Y54800D01*
X24940D01*
X25013Y54830D01*
X25070Y54887D01*
X25100Y54960D01*
Y55040D01*
X25070Y55113D01*
X25013Y55170D01*
X24940Y55200D01*
X24860D01*
X24787Y55170D01*
X24730Y55113D01*
X24700Y55040D01*
Y55002D01*
X21241Y51543D01*
X19019D01*
X19019Y51543D01*
X18965Y51532D01*
X18918Y51501D01*
X18918Y51501D01*
X18118Y50701D01*
X18087Y50655D01*
X18077Y50600D01*
X18077Y50600D01*
Y50343D01*
X17979Y50299D01*
X17894Y50348D01*
X17799Y50374D01*
X17701D01*
X17606Y50348D01*
X17521Y50299D01*
X17451Y50229D01*
X17402Y50144D01*
X17376Y50049D01*
Y49951D01*
X17402Y49856D01*
X17451Y49771D01*
X17521Y49701D01*
X17606Y49652D01*
X17701Y49626D01*
X17799D01*
X17894Y49652D01*
X17979Y49701D01*
X18077Y49657D01*
Y49528D01*
X17896Y49347D01*
X17894Y49348D01*
X17799Y49374D01*
X17701D01*
X17606Y49348D01*
X17521Y49299D01*
X17451Y49229D01*
X17402Y49144D01*
X17376Y49049D01*
Y48951D01*
X17402Y48856D01*
X17451Y48771D01*
X17521Y48701D01*
X17606Y48652D01*
X17701Y48626D01*
X17799D01*
X17894Y48652D01*
X17896Y48653D01*
X19616Y46932D01*
Y46478D01*
X19516Y46436D01*
X17097Y48854D01*
X17098Y48856D01*
X17124Y48951D01*
Y49049D01*
X17098Y49144D01*
X17049Y49229D01*
X16979Y49299D01*
X16894Y49348D01*
X16799Y49374D01*
X16701D01*
X16606Y49348D01*
X16521Y49299D01*
X16451Y49229D01*
X16402Y49144D01*
X16376Y49049D01*
Y48951D01*
X16402Y48856D01*
X16451Y48771D01*
X16521Y48701D01*
X16606Y48652D01*
X16701Y48626D01*
X16799D01*
X16894Y48652D01*
X16896Y48653D01*
X19336Y46212D01*
Y45756D01*
X19236Y45715D01*
X16097Y48854D01*
X16098Y48856D01*
X16124Y48951D01*
Y49049D01*
X16098Y49144D01*
X16049Y49229D01*
X15979Y49299D01*
X15894Y49348D01*
X15799Y49374D01*
X15701D01*
X15606Y49348D01*
X15521Y49299D01*
X15451Y49229D01*
X15402Y49144D01*
X15376Y49049D01*
Y48951D01*
X15402Y48856D01*
X15451Y48771D01*
X15521Y48701D01*
X15606Y48652D01*
X15701Y48626D01*
X15799D01*
X15894Y48652D01*
X15896Y48653D01*
X19021Y45527D01*
Y45071D01*
X18921Y45030D01*
X15097Y48854D01*
X15098Y48856D01*
X15124Y48951D01*
Y49049D01*
X15098Y49144D01*
X15049Y49229D01*
X14979Y49299D01*
X14894Y49348D01*
X14799Y49374D01*
X14701D01*
X14606Y49348D01*
X14521Y49299D01*
X14451Y49229D01*
X14402Y49144D01*
X14376Y49049D01*
Y48951D01*
X14402Y48856D01*
X14451Y48771D01*
X14521Y48701D01*
X14606Y48652D01*
X14701Y48626D01*
X14799D01*
X14894Y48652D01*
X14896Y48653D01*
X18706Y44842D01*
Y44386D01*
X18606Y44345D01*
X14097Y48854D01*
X14098Y48856D01*
X14124Y48951D01*
Y49049D01*
X14098Y49144D01*
X14049Y49229D01*
X13979Y49299D01*
X13894Y49348D01*
X13799Y49374D01*
X13701D01*
X13606Y49348D01*
X13521Y49299D01*
X13451Y49229D01*
X13402Y49144D01*
X13376Y49049D01*
Y48951D01*
X13402Y48856D01*
X13451Y48771D01*
X13521Y48701D01*
X13606Y48652D01*
X13701Y48626D01*
X13799D01*
X13894Y48652D01*
X13896Y48653D01*
X18392Y44157D01*
Y43701D01*
X18292Y43660D01*
X13097Y48854D01*
X13098Y48856D01*
X13124Y48951D01*
Y49049D01*
X13098Y49144D01*
X13049Y49229D01*
X12979Y49299D01*
X12894Y49348D01*
X12799Y49374D01*
X12701D01*
X12606Y49348D01*
X12521Y49299D01*
X12451Y49229D01*
X12402Y49144D01*
X12376Y49049D01*
Y48951D01*
X12402Y48856D01*
X12451Y48771D01*
X12521Y48701D01*
X12606Y48652D01*
X12701Y48626D01*
X12799D01*
X12894Y48652D01*
X12896Y48653D01*
X18077Y43472D01*
Y43016D01*
X17977Y42975D01*
X12097Y48854D01*
X12098Y48856D01*
X12124Y48951D01*
Y49049D01*
X12098Y49144D01*
X12049Y49229D01*
X11979Y49299D01*
X11894Y49348D01*
X11799Y49374D01*
X11701D01*
X11606Y49348D01*
X11521Y49299D01*
X11451Y49229D01*
X11402Y49144D01*
X11376Y49049D01*
Y48951D01*
X11402Y48856D01*
X11451Y48771D01*
X11521Y48701D01*
X11606Y48652D01*
X11701Y48626D01*
X11799D01*
X11894Y48652D01*
X11896Y48653D01*
X17762Y42787D01*
Y41296D01*
X17762Y41296D01*
X17772Y41241D01*
X17803Y41195D01*
X18077Y40922D01*
Y39169D01*
X17977Y39128D01*
X10893Y46212D01*
Y48651D01*
X10894Y48652D01*
X10979Y48701D01*
X11049Y48771D01*
X11098Y48856D01*
X11124Y48951D01*
Y49049D01*
X11098Y49144D01*
X11049Y49229D01*
X10979Y49299D01*
X10894Y49348D01*
X10799Y49374D01*
X10701D01*
X10606Y49348D01*
X10521Y49299D01*
X10451Y49229D01*
X10402Y49144D01*
X10376Y49049D01*
Y48951D01*
X10402Y48856D01*
X10451Y48771D01*
X10521Y48701D01*
X10606Y48652D01*
X10607Y48651D01*
Y46153D01*
X10607Y46153D01*
X10618Y46099D01*
X10649Y46052D01*
X15967Y40734D01*
X15918Y40642D01*
X15915Y40643D01*
X15915Y40643D01*
X14459D01*
X9893Y45209D01*
Y48651D01*
X9894Y48652D01*
X9979Y48701D01*
X10049Y48771D01*
X10098Y48856D01*
X10124Y48951D01*
Y49049D01*
X10098Y49144D01*
X10049Y49229D01*
X9979Y49299D01*
X9894Y49348D01*
X9799Y49374D01*
X9701D01*
X9606Y49348D01*
X9521Y49299D01*
X9451Y49229D01*
X9402Y49144D01*
X9376Y49049D01*
Y48951D01*
X9402Y48856D01*
X9451Y48771D01*
X9521Y48701D01*
X9606Y48652D01*
X9607Y48651D01*
Y45150D01*
X9607Y45150D01*
X9618Y45095D01*
X9649Y45049D01*
X14299Y40399D01*
X14299Y40399D01*
X14345Y40368D01*
X14400Y40357D01*
X14400Y40357D01*
X15855D01*
X15995Y40218D01*
X15982Y40191D01*
X15936Y40136D01*
X15900Y40143D01*
X15900Y40143D01*
X13759D01*
X7893Y46009D01*
Y48651D01*
X7894Y48652D01*
X7979Y48701D01*
X8049Y48771D01*
X8098Y48856D01*
X8124Y48951D01*
Y49049D01*
X8098Y49144D01*
X8049Y49229D01*
X7979Y49299D01*
X7894Y49348D01*
X7799Y49374D01*
X7701D01*
X7606Y49348D01*
X7521Y49299D01*
X7451Y49229D01*
X7402Y49144D01*
X7376Y49049D01*
Y48951D01*
X7402Y48856D01*
X7451Y48771D01*
X7521Y48701D01*
X7606Y48652D01*
X7607Y48651D01*
Y45950D01*
X7607Y45950D01*
X7618Y45895D01*
X7649Y45849D01*
X13599Y39899D01*
X13599Y39899D01*
X13645Y39868D01*
X13700Y39857D01*
X13700Y39857D01*
X15841D01*
X15967Y39731D01*
X15917Y39639D01*
X15900Y39643D01*
X15900Y39643D01*
X13459D01*
X6893Y46209D01*
Y48651D01*
X6894Y48652D01*
X6979Y48701D01*
X7049Y48771D01*
X7098Y48856D01*
X7124Y48951D01*
Y49049D01*
X7098Y49144D01*
X7049Y49229D01*
X6979Y49299D01*
X6894Y49348D01*
X6799Y49374D01*
X6701D01*
X6606Y49348D01*
X6521Y49299D01*
X6451Y49229D01*
X6402Y49144D01*
X6376Y49049D01*
Y48951D01*
X6402Y48856D01*
X6451Y48771D01*
X6521Y48701D01*
X6606Y48652D01*
X6607Y48651D01*
Y46150D01*
X6607Y46150D01*
X6618Y46095D01*
X6649Y46049D01*
X13299Y39399D01*
X13299Y39399D01*
X13345Y39368D01*
X13400Y39357D01*
X13400Y39357D01*
X15841D01*
X16446Y38752D01*
X16440Y38701D01*
X16373Y38620D01*
X16286D01*
X16205Y38587D01*
X16161Y38543D01*
X13659D01*
X5893Y46309D01*
Y48651D01*
X5894Y48652D01*
X5979Y48701D01*
X6049Y48771D01*
X6098Y48856D01*
X6124Y48951D01*
Y49049D01*
X6098Y49144D01*
X6049Y49229D01*
X5979Y49299D01*
X5894Y49348D01*
X5799Y49374D01*
X5701D01*
X5606Y49348D01*
X5521Y49299D01*
X5451Y49229D01*
X5402Y49144D01*
X5376Y49049D01*
Y48951D01*
X5402Y48856D01*
X5451Y48771D01*
X5521Y48701D01*
X5606Y48652D01*
X5607Y48651D01*
Y46250D01*
X5607Y46250D01*
X5618Y46195D01*
X5649Y46149D01*
X13499Y38299D01*
X13499Y38299D01*
X13545Y38268D01*
X13600Y38257D01*
X16161D01*
X16205Y38213D01*
X16286Y38180D01*
X16373D01*
X16382Y38184D01*
X16403Y38168D01*
X16449Y38103D01*
X16424Y38044D01*
Y37956D01*
X16458Y37875D01*
X16520Y37813D01*
X16601Y37780D01*
X16688D01*
X16769Y37813D01*
X16831Y37875D01*
X16864Y37956D01*
Y38044D01*
X16840Y38103D01*
X16886Y38168D01*
X16906Y38184D01*
X16916Y38180D01*
X17003D01*
X17084Y38213D01*
X17146Y38275D01*
X17179Y38356D01*
Y38444D01*
X17146Y38525D01*
X17102Y38568D01*
Y38941D01*
X17102Y38941D01*
X17095Y38976D01*
X17151Y39023D01*
X17178Y39035D01*
X17447Y38766D01*
Y38568D01*
X17403Y38525D01*
X17369Y38444D01*
Y38356D01*
X17403Y38275D01*
X17465Y38213D01*
X17546Y38180D01*
X17633D01*
X17642Y38184D01*
X17663Y38168D01*
X17709Y38103D01*
X17684Y38044D01*
Y37956D01*
X17718Y37875D01*
X17780Y37813D01*
X17861Y37780D01*
X17948D01*
X18029Y37813D01*
X18091Y37875D01*
X18124Y37956D01*
Y38044D01*
X18100Y38103D01*
X18146Y38168D01*
X18166Y38184D01*
X18176Y38180D01*
X18263D01*
X18272Y38184D01*
X18293Y38168D01*
X18339Y38103D01*
X18314Y38044D01*
Y37956D01*
X18348Y37875D01*
X18410Y37813D01*
X18490Y37780D01*
X18578D01*
X18659Y37813D01*
X18721Y37875D01*
X18754Y37956D01*
Y38044D01*
X18730Y38103D01*
X18776Y38168D01*
X18796Y38184D01*
X18805Y38180D01*
X18893D01*
X18902Y38184D01*
X18922Y38168D01*
X18969Y38103D01*
X18944Y38044D01*
Y37956D01*
X18978Y37875D01*
X19040Y37813D01*
X19120Y37780D01*
X19208D01*
X19289Y37813D01*
X19351Y37875D01*
X19384Y37956D01*
Y38044D01*
X19360Y38103D01*
X19406Y38168D01*
X19426Y38184D01*
X19435Y38180D01*
X19523D01*
X19532Y38184D01*
X19552Y38168D01*
X19599Y38103D01*
X19574Y38044D01*
Y37956D01*
X19608Y37875D01*
X19669Y37813D01*
X19750Y37780D01*
X19838D01*
X19919Y37813D01*
X19981Y37875D01*
X20014Y37956D01*
Y38044D01*
X19989Y38103D01*
X20036Y38168D01*
X20056Y38184D01*
X20065Y38180D01*
X20153D01*
X20162Y38184D01*
X20182Y38168D01*
X20229Y38103D01*
X20204Y38044D01*
Y37956D01*
X20238Y37875D01*
X20299Y37813D01*
X20380Y37780D01*
X20468D01*
X20496Y37792D01*
X20535Y37780D01*
X20601Y37736D01*
X20601Y37735D01*
X20607Y37706D01*
X20638Y37660D01*
X20999Y37299D01*
X20999Y37299D01*
X21045Y37268D01*
X21100Y37257D01*
X23500D01*
X23500Y37257D01*
X23555Y37268D01*
X23601Y37299D01*
X23990Y37688D01*
X23990Y37688D01*
X24020Y37734D01*
X24021Y37737D01*
X24024Y37741D01*
X24118Y37791D01*
X24131Y37792D01*
X24160Y37780D01*
X24247D01*
X24328Y37813D01*
X24390Y37875D01*
X24424Y37956D01*
Y38044D01*
X24399Y38103D01*
X24445Y38168D01*
X24466Y38184D01*
X24475Y38180D01*
X24562D01*
X24571Y38184D01*
X24592Y38168D01*
X24638Y38103D01*
X24613Y38044D01*
Y37956D01*
X24647Y37875D01*
X24709Y37813D01*
X24790Y37780D01*
X24877D01*
X24958Y37813D01*
X25020Y37875D01*
X25053Y37956D01*
Y38044D01*
X25029Y38103D01*
X25075Y38168D01*
X25095Y38184D01*
X25105Y38180D01*
X25192D01*
X25201Y38184D01*
X25222Y38168D01*
X25268Y38103D01*
X25243Y38044D01*
Y37956D01*
X25277Y37875D01*
X25339Y37813D01*
X25420Y37780D01*
X25507D01*
X25588Y37813D01*
X25650Y37875D01*
X25683Y37956D01*
Y38044D01*
X25659Y38103D01*
X25705Y38168D01*
X25725Y38184D01*
X25735Y38180D01*
X25822D01*
X25831Y38184D01*
X25852Y38168D01*
X25898Y38103D01*
X25873Y38044D01*
Y37956D01*
X25907Y37875D01*
X25969Y37813D01*
X26050Y37780D01*
X26137D01*
X26218Y37813D01*
X26280Y37875D01*
X26313Y37956D01*
Y38044D01*
X26289Y38103D01*
X26335Y38168D01*
X26355Y38184D01*
X26365Y38180D01*
X26452D01*
X26461Y38184D01*
X26482Y38168D01*
X26528Y38103D01*
X26503Y38044D01*
Y37956D01*
X26537Y37875D01*
X26599Y37813D01*
X26679Y37780D01*
X26767D01*
X26848Y37813D01*
X26910Y37875D01*
X26943Y37956D01*
Y38044D01*
X26919Y38103D01*
X26965Y38168D01*
X26985Y38184D01*
X26994Y38180D01*
X27082D01*
X27163Y38213D01*
X27225Y38275D01*
X27258Y38356D01*
Y38444D01*
X27225Y38525D01*
X27181Y38568D01*
Y40263D01*
X27979Y41062D01*
X28093Y41034D01*
X28105Y41014D01*
X28153Y40965D01*
X28213Y40931D01*
X28279Y40913D01*
X28347D01*
X28413Y40931D01*
X28473Y40965D01*
X28521Y41014D01*
X28555Y41073D01*
X28573Y41139D01*
Y41207D01*
X28555Y41274D01*
X28521Y41333D01*
X28473Y41381D01*
X28452Y41393D01*
X28425Y41507D01*
X29375Y42457D01*
X35600D01*
X35600Y42457D01*
X35655Y42468D01*
X35701Y42499D01*
X41854Y48653D01*
X41856Y48652D01*
X41951Y48626D01*
X42049D01*
X42144Y48652D01*
X42229Y48701D01*
X42299Y48771D01*
X42348Y48856D01*
X42374Y48951D01*
Y49049D01*
X42348Y49144D01*
X42299Y49229D01*
X42229Y49299D01*
X42144Y49348D01*
X42049Y49374D01*
X41951D01*
X41856Y49348D01*
X41771Y49299D01*
X41701Y49229D01*
X41652Y49144D01*
X41626Y49049D01*
Y48951D01*
X41652Y48856D01*
X41653Y48854D01*
X35541Y42743D01*
X35086D01*
X35045Y42843D01*
X40854Y48653D01*
X40856Y48652D01*
X40951Y48626D01*
X41049D01*
X41144Y48652D01*
X41229Y48701D01*
X41299Y48771D01*
X41348Y48856D01*
X41374Y48951D01*
Y49049D01*
X41348Y49144D01*
X41299Y49229D01*
X41229Y49299D01*
X41144Y49348D01*
X41049Y49374D01*
X40951D01*
X40856Y49348D01*
X40771Y49299D01*
X40701Y49229D01*
X40652Y49144D01*
X40626Y49049D01*
Y48951D01*
X40652Y48856D01*
X40653Y48854D01*
X34841Y43043D01*
X34386D01*
X34345Y43143D01*
X39854Y48653D01*
X39856Y48652D01*
X39951Y48626D01*
X40049D01*
X40144Y48652D01*
X40229Y48701D01*
X40299Y48771D01*
X40348Y48856D01*
X40374Y48951D01*
Y49049D01*
X40348Y49144D01*
X40299Y49229D01*
X40229Y49299D01*
X40144Y49348D01*
X40049Y49374D01*
X39951D01*
X39856Y49348D01*
X39771Y49299D01*
X39701Y49229D01*
X39652Y49144D01*
X39626Y49049D01*
Y48951D01*
X39652Y48856D01*
X39653Y48854D01*
X34141Y43343D01*
X33686D01*
X33645Y43443D01*
X38854Y48653D01*
X38856Y48652D01*
X38951Y48626D01*
X39049D01*
X39144Y48652D01*
X39229Y48701D01*
X39299Y48771D01*
X39348Y48856D01*
X39374Y48951D01*
Y49049D01*
X39348Y49144D01*
X39299Y49229D01*
X39229Y49299D01*
X39144Y49348D01*
X39049Y49374D01*
X38951D01*
X38856Y49348D01*
X38771Y49299D01*
X38701Y49229D01*
X38652Y49144D01*
X38626Y49049D01*
Y48951D01*
X38652Y48856D01*
X38653Y48854D01*
X33441Y43643D01*
X32986D01*
X32945Y43743D01*
X37854Y48653D01*
X37856Y48652D01*
X37951Y48626D01*
X38049D01*
X38144Y48652D01*
X38229Y48701D01*
X38299Y48771D01*
X38348Y48856D01*
X38374Y48951D01*
Y49049D01*
X38348Y49144D01*
X38299Y49229D01*
X38229Y49299D01*
X38144Y49348D01*
X38049Y49374D01*
X37951D01*
X37856Y49348D01*
X37771Y49299D01*
X37701Y49229D01*
X37652Y49144D01*
X37626Y49049D01*
Y48951D01*
X37652Y48856D01*
X37653Y48854D01*
X32741Y43943D01*
X32286D01*
X32245Y44043D01*
X36854Y48653D01*
X36856Y48652D01*
X36951Y48626D01*
X37049D01*
X37144Y48652D01*
X37229Y48701D01*
X37299Y48771D01*
X37348Y48856D01*
X37374Y48951D01*
Y49049D01*
X37348Y49144D01*
X37299Y49229D01*
X37229Y49299D01*
X37144Y49348D01*
X37049Y49374D01*
X36951D01*
X36856Y49348D01*
X36771Y49299D01*
X36701Y49229D01*
X36652Y49144D01*
X36626Y49049D01*
Y48951D01*
X36652Y48856D01*
X36653Y48854D01*
X32041Y44243D01*
X31586D01*
X31545Y44343D01*
X35854Y48653D01*
X35856Y48652D01*
X35951Y48626D01*
X36049D01*
X36144Y48652D01*
X36229Y48701D01*
X36299Y48771D01*
X36348Y48856D01*
X36374Y48951D01*
Y49049D01*
X36348Y49144D01*
X36299Y49229D01*
X36229Y49299D01*
X36144Y49348D01*
X36049Y49374D01*
X35951D01*
X35856Y49348D01*
X35771Y49299D01*
X35701Y49229D01*
X35652Y49144D01*
X35626Y49049D01*
Y48951D01*
X35652Y48856D01*
X35653Y48854D01*
X31341Y44543D01*
X30886D01*
X30845Y44643D01*
X34854Y48653D01*
X34856Y48652D01*
X34951Y48626D01*
X35049D01*
X35144Y48652D01*
X35229Y48701D01*
X35299Y48771D01*
X35348Y48856D01*
X35374Y48951D01*
Y49049D01*
X35348Y49144D01*
X35299Y49229D01*
X35229Y49299D01*
X35144Y49348D01*
X35049Y49374D01*
X34951D01*
X34856Y49348D01*
X34771Y49299D01*
X34701Y49229D01*
X34652Y49144D01*
X34626Y49049D01*
Y48951D01*
X34652Y48856D01*
X34653Y48854D01*
X30641Y44843D01*
X30186D01*
X30145Y44943D01*
X33854Y48653D01*
X33856Y48652D01*
X33951Y48626D01*
X34049D01*
X34144Y48652D01*
X34229Y48701D01*
X34299Y48771D01*
X34348Y48856D01*
X34374Y48951D01*
Y49049D01*
X34348Y49144D01*
X34299Y49229D01*
X34229Y49299D01*
X34144Y49348D01*
X34049Y49374D01*
X33951D01*
X33856Y49348D01*
X33771Y49299D01*
X33701Y49229D01*
X33652Y49144D01*
X33626Y49049D01*
Y48951D01*
X33652Y48856D01*
X33653Y48854D01*
X29941Y45143D01*
X29475D01*
X29437Y45235D01*
X32854Y48653D01*
X32856Y48652D01*
X32951Y48626D01*
X33049D01*
X33144Y48652D01*
X33229Y48701D01*
X33299Y48771D01*
X33348Y48856D01*
X33374Y48951D01*
Y49049D01*
X33348Y49144D01*
X33299Y49229D01*
X33229Y49299D01*
X33144Y49348D01*
X33049Y49374D01*
X32951D01*
X32856Y49348D01*
X32771Y49299D01*
X32701Y49229D01*
X32652Y49144D01*
X32626Y49049D01*
Y48951D01*
X32652Y48856D01*
X32653Y48854D01*
X24131Y40333D01*
X24031Y40374D01*
Y40829D01*
X31854Y48653D01*
X31856Y48652D01*
X31951Y48626D01*
X32049D01*
X32144Y48652D01*
X32229Y48701D01*
X32299Y48771D01*
X32348Y48856D01*
X32374Y48951D01*
Y49049D01*
X32348Y49144D01*
X32299Y49229D01*
X32229Y49299D01*
X32144Y49348D01*
X32049Y49374D01*
X31951D01*
X31856Y49348D01*
X31771Y49299D01*
X31701Y49229D01*
X31652Y49144D01*
X31626Y49049D01*
Y48951D01*
X31652Y48856D01*
X31653Y48854D01*
X23816Y41018D01*
X23716Y41059D01*
Y41515D01*
X30854Y48653D01*
X30856Y48652D01*
X30951Y48626D01*
X31049D01*
X31144Y48652D01*
X31229Y48701D01*
X31299Y48771D01*
X31348Y48856D01*
X31374Y48951D01*
Y49049D01*
X31348Y49144D01*
X31299Y49229D01*
X31229Y49299D01*
X31144Y49348D01*
X31049Y49374D01*
X30951D01*
X30856Y49348D01*
X30771Y49299D01*
X30701Y49229D01*
X30652Y49144D01*
X30626Y49049D01*
Y48951D01*
X30652Y48856D01*
X30653Y48854D01*
X23501Y41703D01*
X23401Y41744D01*
Y42200D01*
X29854Y48653D01*
X29856Y48652D01*
X29951Y48626D01*
X30049D01*
X30144Y48652D01*
X30229Y48701D01*
X30299Y48771D01*
X30348Y48856D01*
X30374Y48951D01*
Y49049D01*
X30348Y49144D01*
X30299Y49229D01*
X30229Y49299D01*
X30144Y49348D01*
X30049Y49374D01*
X29951D01*
X29856Y49348D01*
X29771Y49299D01*
X29701Y49229D01*
X29652Y49144D01*
X29626Y49049D01*
Y48951D01*
X29652Y48856D01*
X29653Y48854D01*
X23186Y42388D01*
X23086Y42429D01*
Y42885D01*
X28854Y48653D01*
X28856Y48652D01*
X28951Y48626D01*
X29049D01*
X29144Y48652D01*
X29229Y48701D01*
X29299Y48771D01*
X29348Y48856D01*
X29374Y48951D01*
Y49049D01*
X29348Y49144D01*
X29299Y49229D01*
X29229Y49299D01*
X29144Y49348D01*
X29049Y49374D01*
X28951D01*
X28856Y49348D01*
X28771Y49299D01*
X28701Y49229D01*
X28652Y49144D01*
X28626Y49049D01*
Y48951D01*
X28652Y48856D01*
X28653Y48854D01*
X22871Y43073D01*
X22771Y43114D01*
Y43570D01*
X27854Y48653D01*
X27856Y48652D01*
X27951Y48626D01*
X28049D01*
X28144Y48652D01*
X28229Y48701D01*
X28299Y48771D01*
X28348Y48856D01*
X28374Y48951D01*
Y49049D01*
X28348Y49144D01*
X28299Y49229D01*
X28229Y49299D01*
X28144Y49348D01*
X28049Y49374D01*
X27951D01*
X27856Y49348D01*
X27771Y49299D01*
X27701Y49229D01*
X27652Y49144D01*
X27626Y49049D01*
Y48951D01*
X27652Y48856D01*
X27653Y48854D01*
X22557Y43758D01*
X22457Y43799D01*
Y44255D01*
X26854Y48653D01*
X26856Y48652D01*
X26951Y48626D01*
X27049D01*
X27144Y48652D01*
X27229Y48701D01*
X27299Y48771D01*
X27348Y48856D01*
X27374Y48951D01*
Y49049D01*
X27348Y49144D01*
X27299Y49229D01*
X27229Y49299D01*
X27144Y49348D01*
X27049Y49374D01*
X26951D01*
X26856Y49348D01*
X26771Y49299D01*
X26701Y49229D01*
X26652Y49144D01*
X26626Y49049D01*
Y48951D01*
X26652Y48856D01*
X26653Y48854D01*
X22242Y44443D01*
X22142Y44484D01*
Y44940D01*
X25854Y48653D01*
X25856Y48652D01*
X25951Y48626D01*
X26049D01*
X26144Y48652D01*
X26229Y48701D01*
X26299Y48771D01*
X26348Y48856D01*
X26374Y48951D01*
Y49049D01*
X26348Y49144D01*
X26299Y49229D01*
X26229Y49299D01*
X26144Y49348D01*
X26049Y49374D01*
X25951D01*
X25856Y49348D01*
X25771Y49299D01*
X25701Y49229D01*
X25652Y49144D01*
X25626Y49049D01*
Y48951D01*
X25652Y48856D01*
X25653Y48854D01*
X21927Y45128D01*
X21827Y45169D01*
Y45625D01*
X24854Y48653D01*
X24856Y48652D01*
X24951Y48626D01*
X25049D01*
X25144Y48652D01*
X25229Y48701D01*
X25299Y48771D01*
X25348Y48856D01*
X25374Y48951D01*
Y49049D01*
X25348Y49144D01*
X25299Y49229D01*
X25229Y49299D01*
X25144Y49348D01*
X25049Y49374D01*
X24951D01*
X24856Y49348D01*
X24771Y49299D01*
X24701Y49229D01*
X24652Y49144D01*
X24626Y49049D01*
Y48951D01*
X24652Y48856D01*
X24653Y48854D01*
X21612Y45814D01*
X21512Y45854D01*
Y48560D01*
X21604Y48653D01*
X21606Y48652D01*
X21701Y48626D01*
X21799D01*
X21894Y48652D01*
X21979Y48701D01*
X22049Y48771D01*
X22098Y48856D01*
X22124Y48951D01*
Y49049D01*
X22098Y49144D01*
X22097Y49146D01*
X27401Y54449D01*
X27401Y54449D01*
X27432Y54495D01*
X27443Y54550D01*
Y57836D01*
X27470Y57863D01*
X27500Y57936D01*
Y58016D01*
X27470Y58089D01*
X27413Y58146D01*
X27340Y58176D01*
D02*
G37*
G36*
X32050Y50353D02*
Y50050D01*
X32353D01*
X32330Y50136D01*
X32283Y50217D01*
X32217Y50283D01*
X32136Y50330D01*
X32050Y50353D01*
D02*
G37*
G36*
X31950D02*
X31864Y50330D01*
X31783Y50283D01*
X31717Y50217D01*
X31670Y50136D01*
X31647Y50050D01*
X31950D01*
Y50353D01*
D02*
G37*
G36*
X32353Y49950D02*
X32050D01*
Y49647D01*
X32136Y49670D01*
X32217Y49717D01*
X32283Y49783D01*
X32330Y49864D01*
X32353Y49950D01*
D02*
G37*
G36*
X31950D02*
X31647D01*
X31670Y49864D01*
X31717Y49783D01*
X31783Y49717D01*
X31864Y49670D01*
X31950Y49647D01*
Y49950D01*
D02*
G37*
G36*
X44049Y50374D02*
X43951D01*
X43856Y50348D01*
X43771Y50299D01*
X43701Y50229D01*
X43652Y50144D01*
X43626Y50049D01*
Y49951D01*
X43652Y49856D01*
X43701Y49771D01*
X43771Y49701D01*
X43856Y49652D01*
X43951Y49626D01*
X44049D01*
X44144Y49652D01*
X44229Y49701D01*
X44299Y49771D01*
X44348Y49856D01*
X44374Y49951D01*
Y50049D01*
X44348Y50144D01*
X44299Y50229D01*
X44229Y50299D01*
X44144Y50348D01*
X44049Y50374D01*
D02*
G37*
G36*
X43049D02*
X42951D01*
X42856Y50348D01*
X42771Y50299D01*
X42701Y50229D01*
X42652Y50144D01*
X42626Y50049D01*
Y49951D01*
X42652Y49856D01*
X42701Y49771D01*
X42771Y49701D01*
X42856Y49652D01*
X42951Y49626D01*
X43049D01*
X43144Y49652D01*
X43229Y49701D01*
X43299Y49771D01*
X43348Y49856D01*
X43374Y49951D01*
Y50049D01*
X43348Y50144D01*
X43299Y50229D01*
X43229Y50299D01*
X43144Y50348D01*
X43049Y50374D01*
D02*
G37*
G36*
X42049D02*
X41951D01*
X41856Y50348D01*
X41771Y50299D01*
X41701Y50229D01*
X41652Y50144D01*
X41626Y50049D01*
Y49951D01*
X41652Y49856D01*
X41701Y49771D01*
X41771Y49701D01*
X41856Y49652D01*
X41951Y49626D01*
X42049D01*
X42144Y49652D01*
X42229Y49701D01*
X42299Y49771D01*
X42348Y49856D01*
X42374Y49951D01*
Y50049D01*
X42348Y50144D01*
X42299Y50229D01*
X42229Y50299D01*
X42144Y50348D01*
X42049Y50374D01*
D02*
G37*
G36*
X41049D02*
X40951D01*
X40856Y50348D01*
X40771Y50299D01*
X40701Y50229D01*
X40652Y50144D01*
X40626Y50049D01*
Y49951D01*
X40652Y49856D01*
X40701Y49771D01*
X40771Y49701D01*
X40856Y49652D01*
X40951Y49626D01*
X41049D01*
X41144Y49652D01*
X41229Y49701D01*
X41299Y49771D01*
X41348Y49856D01*
X41374Y49951D01*
Y50049D01*
X41348Y50144D01*
X41299Y50229D01*
X41229Y50299D01*
X41144Y50348D01*
X41049Y50374D01*
D02*
G37*
G36*
X40049D02*
X39951D01*
X39856Y50348D01*
X39771Y50299D01*
X39701Y50229D01*
X39652Y50144D01*
X39626Y50049D01*
Y49951D01*
X39652Y49856D01*
X39701Y49771D01*
X39771Y49701D01*
X39856Y49652D01*
X39951Y49626D01*
X40049D01*
X40144Y49652D01*
X40229Y49701D01*
X40299Y49771D01*
X40348Y49856D01*
X40374Y49951D01*
Y50049D01*
X40348Y50144D01*
X40299Y50229D01*
X40229Y50299D01*
X40144Y50348D01*
X40049Y50374D01*
D02*
G37*
G36*
X39049D02*
X38951D01*
X38856Y50348D01*
X38771Y50299D01*
X38701Y50229D01*
X38652Y50144D01*
X38626Y50049D01*
Y49951D01*
X38652Y49856D01*
X38701Y49771D01*
X38771Y49701D01*
X38856Y49652D01*
X38951Y49626D01*
X39049D01*
X39144Y49652D01*
X39229Y49701D01*
X39299Y49771D01*
X39348Y49856D01*
X39374Y49951D01*
Y50049D01*
X39348Y50144D01*
X39299Y50229D01*
X39229Y50299D01*
X39144Y50348D01*
X39049Y50374D01*
D02*
G37*
G36*
X38049D02*
X37951D01*
X37856Y50348D01*
X37771Y50299D01*
X37701Y50229D01*
X37652Y50144D01*
X37626Y50049D01*
Y49951D01*
X37652Y49856D01*
X37701Y49771D01*
X37771Y49701D01*
X37856Y49652D01*
X37951Y49626D01*
X38049D01*
X38144Y49652D01*
X38229Y49701D01*
X38299Y49771D01*
X38348Y49856D01*
X38374Y49951D01*
Y50049D01*
X38348Y50144D01*
X38299Y50229D01*
X38229Y50299D01*
X38144Y50348D01*
X38049Y50374D01*
D02*
G37*
G36*
X37049D02*
X36951D01*
X36856Y50348D01*
X36771Y50299D01*
X36701Y50229D01*
X36652Y50144D01*
X36626Y50049D01*
Y49951D01*
X36652Y49856D01*
X36701Y49771D01*
X36771Y49701D01*
X36856Y49652D01*
X36951Y49626D01*
X37049D01*
X37144Y49652D01*
X37229Y49701D01*
X37299Y49771D01*
X37348Y49856D01*
X37374Y49951D01*
Y50049D01*
X37348Y50144D01*
X37299Y50229D01*
X37229Y50299D01*
X37144Y50348D01*
X37049Y50374D01*
D02*
G37*
G36*
X36049D02*
X35951D01*
X35856Y50348D01*
X35771Y50299D01*
X35701Y50229D01*
X35652Y50144D01*
X35626Y50049D01*
Y49951D01*
X35652Y49856D01*
X35701Y49771D01*
X35771Y49701D01*
X35856Y49652D01*
X35951Y49626D01*
X36049D01*
X36144Y49652D01*
X36229Y49701D01*
X36299Y49771D01*
X36348Y49856D01*
X36374Y49951D01*
Y50049D01*
X36348Y50144D01*
X36299Y50229D01*
X36229Y50299D01*
X36144Y50348D01*
X36049Y50374D01*
D02*
G37*
G36*
X35049D02*
X34951D01*
X34856Y50348D01*
X34771Y50299D01*
X34701Y50229D01*
X34652Y50144D01*
X34626Y50049D01*
Y49951D01*
X34652Y49856D01*
X34701Y49771D01*
X34771Y49701D01*
X34856Y49652D01*
X34951Y49626D01*
X35049D01*
X35144Y49652D01*
X35229Y49701D01*
X35299Y49771D01*
X35348Y49856D01*
X35374Y49951D01*
Y50049D01*
X35348Y50144D01*
X35299Y50229D01*
X35229Y50299D01*
X35144Y50348D01*
X35049Y50374D01*
D02*
G37*
G36*
X34049D02*
X33951D01*
X33856Y50348D01*
X33771Y50299D01*
X33701Y50229D01*
X33652Y50144D01*
X33626Y50049D01*
Y49951D01*
X33652Y49856D01*
X33701Y49771D01*
X33771Y49701D01*
X33856Y49652D01*
X33951Y49626D01*
X34049D01*
X34144Y49652D01*
X34229Y49701D01*
X34299Y49771D01*
X34348Y49856D01*
X34374Y49951D01*
Y50049D01*
X34348Y50144D01*
X34299Y50229D01*
X34229Y50299D01*
X34144Y50348D01*
X34049Y50374D01*
D02*
G37*
G36*
X33049D02*
X32951D01*
X32856Y50348D01*
X32771Y50299D01*
X32701Y50229D01*
X32652Y50144D01*
X32626Y50049D01*
Y49951D01*
X32652Y49856D01*
X32701Y49771D01*
X32771Y49701D01*
X32856Y49652D01*
X32951Y49626D01*
X33049D01*
X33144Y49652D01*
X33229Y49701D01*
X33299Y49771D01*
X33348Y49856D01*
X33374Y49951D01*
Y50049D01*
X33348Y50144D01*
X33299Y50229D01*
X33229Y50299D01*
X33144Y50348D01*
X33049Y50374D01*
D02*
G37*
G36*
X31049D02*
X30951D01*
X30856Y50348D01*
X30771Y50299D01*
X30701Y50229D01*
X30652Y50144D01*
X30626Y50049D01*
Y49951D01*
X30652Y49856D01*
X30701Y49771D01*
X30771Y49701D01*
X30856Y49652D01*
X30951Y49626D01*
X31049D01*
X31144Y49652D01*
X31229Y49701D01*
X31299Y49771D01*
X31348Y49856D01*
X31374Y49951D01*
Y50049D01*
X31348Y50144D01*
X31299Y50229D01*
X31229Y50299D01*
X31144Y50348D01*
X31049Y50374D01*
D02*
G37*
G36*
X30049D02*
X29951D01*
X29856Y50348D01*
X29771Y50299D01*
X29701Y50229D01*
X29652Y50144D01*
X29626Y50049D01*
Y49951D01*
X29652Y49856D01*
X29701Y49771D01*
X29771Y49701D01*
X29856Y49652D01*
X29951Y49626D01*
X30049D01*
X30144Y49652D01*
X30229Y49701D01*
X30299Y49771D01*
X30348Y49856D01*
X30374Y49951D01*
Y50049D01*
X30348Y50144D01*
X30299Y50229D01*
X30229Y50299D01*
X30144Y50348D01*
X30049Y50374D01*
D02*
G37*
G36*
X29049D02*
X28951D01*
X28856Y50348D01*
X28771Y50299D01*
X28701Y50229D01*
X28652Y50144D01*
X28626Y50049D01*
Y49951D01*
X28652Y49856D01*
X28701Y49771D01*
X28771Y49701D01*
X28856Y49652D01*
X28951Y49626D01*
X29049D01*
X29144Y49652D01*
X29229Y49701D01*
X29299Y49771D01*
X29348Y49856D01*
X29374Y49951D01*
Y50049D01*
X29348Y50144D01*
X29299Y50229D01*
X29229Y50299D01*
X29144Y50348D01*
X29049Y50374D01*
D02*
G37*
G36*
X28049D02*
X27951D01*
X27856Y50348D01*
X27771Y50299D01*
X27701Y50229D01*
X27652Y50144D01*
X27626Y50049D01*
Y49951D01*
X27652Y49856D01*
X27701Y49771D01*
X27771Y49701D01*
X27856Y49652D01*
X27951Y49626D01*
X28049D01*
X28144Y49652D01*
X28229Y49701D01*
X28299Y49771D01*
X28348Y49856D01*
X28374Y49951D01*
Y50049D01*
X28348Y50144D01*
X28299Y50229D01*
X28229Y50299D01*
X28144Y50348D01*
X28049Y50374D01*
D02*
G37*
G36*
X27049D02*
X26951D01*
X26856Y50348D01*
X26771Y50299D01*
X26701Y50229D01*
X26652Y50144D01*
X26626Y50049D01*
Y49951D01*
X26652Y49856D01*
X26701Y49771D01*
X26771Y49701D01*
X26856Y49652D01*
X26951Y49626D01*
X27049D01*
X27144Y49652D01*
X27229Y49701D01*
X27299Y49771D01*
X27348Y49856D01*
X27374Y49951D01*
Y50049D01*
X27348Y50144D01*
X27299Y50229D01*
X27229Y50299D01*
X27144Y50348D01*
X27049Y50374D01*
D02*
G37*
G36*
X26049D02*
X25951D01*
X25856Y50348D01*
X25771Y50299D01*
X25701Y50229D01*
X25652Y50144D01*
X25626Y50049D01*
Y49951D01*
X25652Y49856D01*
X25701Y49771D01*
X25771Y49701D01*
X25856Y49652D01*
X25951Y49626D01*
X26049D01*
X26144Y49652D01*
X26229Y49701D01*
X26299Y49771D01*
X26348Y49856D01*
X26374Y49951D01*
Y50049D01*
X26348Y50144D01*
X26299Y50229D01*
X26229Y50299D01*
X26144Y50348D01*
X26049Y50374D01*
D02*
G37*
G36*
X25374D02*
X24626D01*
Y49626D01*
X25374D01*
Y50374D01*
D02*
G37*
G36*
X16799D02*
X16701D01*
X16606Y50348D01*
X16521Y50299D01*
X16451Y50229D01*
X16402Y50144D01*
X16376Y50049D01*
Y49951D01*
X16402Y49856D01*
X16451Y49771D01*
X16521Y49701D01*
X16606Y49652D01*
X16701Y49626D01*
X16799D01*
X16894Y49652D01*
X16979Y49701D01*
X17049Y49771D01*
X17098Y49856D01*
X17124Y49951D01*
Y50049D01*
X17098Y50144D01*
X17049Y50229D01*
X16979Y50299D01*
X16894Y50348D01*
X16799Y50374D01*
D02*
G37*
G36*
X15799D02*
X15701D01*
X15606Y50348D01*
X15521Y50299D01*
X15451Y50229D01*
X15402Y50144D01*
X15376Y50049D01*
Y49951D01*
X15402Y49856D01*
X15451Y49771D01*
X15521Y49701D01*
X15606Y49652D01*
X15701Y49626D01*
X15799D01*
X15894Y49652D01*
X15979Y49701D01*
X16049Y49771D01*
X16098Y49856D01*
X16124Y49951D01*
Y50049D01*
X16098Y50144D01*
X16049Y50229D01*
X15979Y50299D01*
X15894Y50348D01*
X15799Y50374D01*
D02*
G37*
G36*
X14799D02*
X14701D01*
X14606Y50348D01*
X14521Y50299D01*
X14451Y50229D01*
X14402Y50144D01*
X14376Y50049D01*
Y49951D01*
X14402Y49856D01*
X14451Y49771D01*
X14521Y49701D01*
X14606Y49652D01*
X14701Y49626D01*
X14799D01*
X14894Y49652D01*
X14979Y49701D01*
X15049Y49771D01*
X15098Y49856D01*
X15124Y49951D01*
Y50049D01*
X15098Y50144D01*
X15049Y50229D01*
X14979Y50299D01*
X14894Y50348D01*
X14799Y50374D01*
D02*
G37*
G36*
X13799D02*
X13701D01*
X13606Y50348D01*
X13521Y50299D01*
X13451Y50229D01*
X13402Y50144D01*
X13376Y50049D01*
Y49951D01*
X13402Y49856D01*
X13451Y49771D01*
X13521Y49701D01*
X13606Y49652D01*
X13701Y49626D01*
X13799D01*
X13894Y49652D01*
X13979Y49701D01*
X14049Y49771D01*
X14098Y49856D01*
X14124Y49951D01*
Y50049D01*
X14098Y50144D01*
X14049Y50229D01*
X13979Y50299D01*
X13894Y50348D01*
X13799Y50374D01*
D02*
G37*
G36*
X12799D02*
X12701D01*
X12606Y50348D01*
X12521Y50299D01*
X12451Y50229D01*
X12402Y50144D01*
X12376Y50049D01*
Y49951D01*
X12402Y49856D01*
X12451Y49771D01*
X12521Y49701D01*
X12606Y49652D01*
X12701Y49626D01*
X12799D01*
X12894Y49652D01*
X12979Y49701D01*
X13049Y49771D01*
X13098Y49856D01*
X13124Y49951D01*
Y50049D01*
X13098Y50144D01*
X13049Y50229D01*
X12979Y50299D01*
X12894Y50348D01*
X12799Y50374D01*
D02*
G37*
G36*
X11799D02*
X11701D01*
X11606Y50348D01*
X11521Y50299D01*
X11451Y50229D01*
X11402Y50144D01*
X11376Y50049D01*
Y49951D01*
X11402Y49856D01*
X11451Y49771D01*
X11521Y49701D01*
X11606Y49652D01*
X11701Y49626D01*
X11799D01*
X11894Y49652D01*
X11979Y49701D01*
X12049Y49771D01*
X12098Y49856D01*
X12124Y49951D01*
Y50049D01*
X12098Y50144D01*
X12049Y50229D01*
X11979Y50299D01*
X11894Y50348D01*
X11799Y50374D01*
D02*
G37*
G36*
X10799D02*
X10701D01*
X10606Y50348D01*
X10521Y50299D01*
X10451Y50229D01*
X10402Y50144D01*
X10376Y50049D01*
Y49951D01*
X10402Y49856D01*
X10451Y49771D01*
X10521Y49701D01*
X10606Y49652D01*
X10701Y49626D01*
X10799D01*
X10894Y49652D01*
X10979Y49701D01*
X11049Y49771D01*
X11098Y49856D01*
X11124Y49951D01*
Y50049D01*
X11098Y50144D01*
X11049Y50229D01*
X10979Y50299D01*
X10894Y50348D01*
X10799Y50374D01*
D02*
G37*
G36*
X9799D02*
X9701D01*
X9606Y50348D01*
X9521Y50299D01*
X9451Y50229D01*
X9402Y50144D01*
X9376Y50049D01*
Y49951D01*
X9402Y49856D01*
X9451Y49771D01*
X9521Y49701D01*
X9606Y49652D01*
X9701Y49626D01*
X9799D01*
X9894Y49652D01*
X9979Y49701D01*
X10049Y49771D01*
X10098Y49856D01*
X10124Y49951D01*
Y50049D01*
X10098Y50144D01*
X10049Y50229D01*
X9979Y50299D01*
X9894Y50348D01*
X9799Y50374D01*
D02*
G37*
G36*
X8799D02*
X8701D01*
X8606Y50348D01*
X8521Y50299D01*
X8451Y50229D01*
X8402Y50144D01*
X8376Y50049D01*
Y49951D01*
X8402Y49856D01*
X8451Y49771D01*
X8521Y49701D01*
X8606Y49652D01*
X8701Y49626D01*
X8799D01*
X8894Y49652D01*
X8979Y49701D01*
X9049Y49771D01*
X9098Y49856D01*
X9124Y49951D01*
Y50049D01*
X9098Y50144D01*
X9049Y50229D01*
X8979Y50299D01*
X8894Y50348D01*
X8799Y50374D01*
D02*
G37*
G36*
X7799D02*
X7701D01*
X7606Y50348D01*
X7521Y50299D01*
X7451Y50229D01*
X7402Y50144D01*
X7376Y50049D01*
Y49951D01*
X7402Y49856D01*
X7451Y49771D01*
X7521Y49701D01*
X7606Y49652D01*
X7701Y49626D01*
X7799D01*
X7894Y49652D01*
X7979Y49701D01*
X8049Y49771D01*
X8098Y49856D01*
X8124Y49951D01*
Y50049D01*
X8098Y50144D01*
X8049Y50229D01*
X7979Y50299D01*
X7894Y50348D01*
X7799Y50374D01*
D02*
G37*
G36*
X6799D02*
X6701D01*
X6606Y50348D01*
X6521Y50299D01*
X6451Y50229D01*
X6402Y50144D01*
X6376Y50049D01*
Y49951D01*
X6402Y49856D01*
X6451Y49771D01*
X6521Y49701D01*
X6606Y49652D01*
X6701Y49626D01*
X6799D01*
X6894Y49652D01*
X6979Y49701D01*
X7049Y49771D01*
X7098Y49856D01*
X7124Y49951D01*
Y50049D01*
X7098Y50144D01*
X7049Y50229D01*
X6979Y50299D01*
X6894Y50348D01*
X6799Y50374D01*
D02*
G37*
G36*
X5799D02*
X5701D01*
X5606Y50348D01*
X5521Y50299D01*
X5451Y50229D01*
X5402Y50144D01*
X5376Y50049D01*
Y49951D01*
X5402Y49856D01*
X5451Y49771D01*
X5521Y49701D01*
X5606Y49652D01*
X5701Y49626D01*
X5799D01*
X5894Y49652D01*
X5979Y49701D01*
X6049Y49771D01*
X6098Y49856D01*
X6124Y49951D01*
Y50049D01*
X6098Y50144D01*
X6049Y50229D01*
X5979Y50299D01*
X5894Y50348D01*
X5799Y50374D01*
D02*
G37*
G36*
X4799D02*
X4701D01*
X4606Y50348D01*
X4521Y50299D01*
X4451Y50229D01*
X4402Y50144D01*
X4376Y50049D01*
Y49951D01*
X4402Y49856D01*
X4451Y49771D01*
X4521Y49701D01*
X4606Y49652D01*
X4701Y49626D01*
X4799D01*
X4894Y49652D01*
X4979Y49701D01*
X5049Y49771D01*
X5098Y49856D01*
X5124Y49951D01*
Y50049D01*
X5098Y50144D01*
X5049Y50229D01*
X4979Y50299D01*
X4894Y50348D01*
X4799Y50374D01*
D02*
G37*
G36*
X3799D02*
X3701D01*
X3606Y50348D01*
X3521Y50299D01*
X3451Y50229D01*
X3402Y50144D01*
X3376Y50049D01*
Y49951D01*
X3402Y49856D01*
X3451Y49771D01*
X3521Y49701D01*
X3606Y49652D01*
X3701Y49626D01*
X3799D01*
X3894Y49652D01*
X3979Y49701D01*
X4049Y49771D01*
X4098Y49856D01*
X4124Y49951D01*
Y50049D01*
X4098Y50144D01*
X4049Y50229D01*
X3979Y50299D01*
X3894Y50348D01*
X3799Y50374D01*
D02*
G37*
G36*
X3124D02*
X2376D01*
Y49626D01*
X3124D01*
Y50374D01*
D02*
G37*
G36*
X52840Y49633D02*
X52760D01*
X52687Y49603D01*
X52660Y49576D01*
X48940D01*
X48913Y49603D01*
X48840Y49633D01*
X48760D01*
X48687Y49603D01*
X48630Y49546D01*
X48600Y49473D01*
Y49393D01*
X48630Y49320D01*
X48687Y49264D01*
X48760Y49233D01*
X48840D01*
X48913Y49264D01*
X48940Y49290D01*
X52120D01*
X52167Y49221D01*
Y49134D01*
X52120Y49064D01*
X48940D01*
X48913Y49091D01*
X48840Y49121D01*
X48760D01*
X48687Y49091D01*
X48630Y49035D01*
X48600Y48961D01*
Y48882D01*
X48630Y48808D01*
X48687Y48752D01*
X48760Y48721D01*
X48840D01*
X48913Y48752D01*
X48940Y48779D01*
X52660D01*
X52687Y48752D01*
X52760Y48721D01*
X52840D01*
X52913Y48752D01*
X52970Y48808D01*
X53000Y48882D01*
Y48961D01*
X52970Y49035D01*
X52913Y49091D01*
X52840Y49121D01*
X52760D01*
X52751Y49117D01*
X52653Y49177D01*
X52751Y49237D01*
X52760Y49233D01*
X52840D01*
X52913Y49264D01*
X52970Y49320D01*
X53000Y49393D01*
Y49473D01*
X52970Y49546D01*
X52913Y49603D01*
X52840Y49633D01*
D02*
G37*
G36*
X4799Y49374D02*
X4701D01*
X4606Y49348D01*
X4521Y49299D01*
X4451Y49229D01*
X4413Y49163D01*
X4087D01*
X4049Y49229D01*
X3979Y49299D01*
X3894Y49348D01*
X3799Y49374D01*
X3701D01*
X3606Y49348D01*
X3521Y49299D01*
X3451Y49229D01*
X3402Y49144D01*
X3376Y49049D01*
Y48951D01*
X3402Y48856D01*
X3451Y48771D01*
X3521Y48701D01*
X3587Y48663D01*
Y47300D01*
X3599Y47238D01*
X3635Y47185D01*
X13035Y37785D01*
X13088Y37749D01*
X13150Y37737D01*
X15552D01*
X15575Y37713D01*
X15656Y37680D01*
X15744D01*
X15825Y37713D01*
X15887Y37775D01*
X15920Y37856D01*
Y37944D01*
X15887Y38025D01*
X15825Y38087D01*
X15744Y38120D01*
X15656D01*
X15575Y38087D01*
X15552Y38063D01*
X13218D01*
X3913Y47368D01*
Y48663D01*
X3979Y48701D01*
X4049Y48771D01*
X4087Y48837D01*
X4413D01*
X4451Y48771D01*
X4521Y48701D01*
X4606Y48652D01*
X4701Y48626D01*
X4799D01*
X4894Y48652D01*
X4979Y48701D01*
X5049Y48771D01*
X5098Y48856D01*
X5124Y48951D01*
Y49049D01*
X5098Y49144D01*
X5049Y49229D01*
X4979Y49299D01*
X4894Y49348D01*
X4799Y49374D01*
D02*
G37*
G36*
X43050Y49353D02*
Y49050D01*
X43353D01*
X43330Y49136D01*
X43283Y49217D01*
X43217Y49283D01*
X43136Y49330D01*
X43050Y49353D01*
D02*
G37*
G36*
X2800D02*
Y49050D01*
X3103D01*
X3080Y49136D01*
X3033Y49217D01*
X2967Y49283D01*
X2886Y49330D01*
X2800Y49353D01*
D02*
G37*
G36*
X44050D02*
Y49050D01*
X44353D01*
X44330Y49136D01*
X44283Y49217D01*
X44217Y49283D01*
X44136Y49330D01*
X44050Y49353D01*
D02*
G37*
G36*
X8800D02*
Y49050D01*
X9103D01*
X9080Y49136D01*
X9033Y49217D01*
X8967Y49283D01*
X8886Y49330D01*
X8800Y49353D01*
D02*
G37*
G36*
X42950D02*
X42864Y49330D01*
X42783Y49283D01*
X42717Y49217D01*
X42670Y49136D01*
X42647Y49050D01*
X42950D01*
Y49353D01*
D02*
G37*
G36*
X2700D02*
X2614Y49330D01*
X2533Y49283D01*
X2467Y49217D01*
X2420Y49136D01*
X2397Y49050D01*
X2700D01*
Y49353D01*
D02*
G37*
G36*
X43950D02*
X43864Y49330D01*
X43783Y49283D01*
X43717Y49217D01*
X43670Y49136D01*
X43647Y49050D01*
X43950D01*
Y49353D01*
D02*
G37*
G36*
X8700D02*
X8614Y49330D01*
X8533Y49283D01*
X8467Y49217D01*
X8420Y49136D01*
X8397Y49050D01*
X8700D01*
Y49353D01*
D02*
G37*
G36*
X44353Y48950D02*
X44050D01*
Y48647D01*
X44136Y48670D01*
X44217Y48717D01*
X44283Y48783D01*
X44330Y48864D01*
X44353Y48950D01*
D02*
G37*
G36*
X43353D02*
X43050D01*
Y48647D01*
X43136Y48670D01*
X43217Y48717D01*
X43283Y48783D01*
X43330Y48864D01*
X43353Y48950D01*
D02*
G37*
G36*
X9103D02*
X8800D01*
Y48647D01*
X8886Y48670D01*
X8967Y48717D01*
X9033Y48783D01*
X9080Y48864D01*
X9103Y48950D01*
D02*
G37*
G36*
X3103D02*
X2800D01*
Y48647D01*
X2886Y48670D01*
X2967Y48717D01*
X3033Y48783D01*
X3080Y48864D01*
X3103Y48950D01*
D02*
G37*
G36*
X43950D02*
X43647D01*
X43670Y48864D01*
X43717Y48783D01*
X43783Y48717D01*
X43864Y48670D01*
X43950Y48647D01*
Y48950D01*
D02*
G37*
G36*
X42950D02*
X42647D01*
X42670Y48864D01*
X42717Y48783D01*
X42783Y48717D01*
X42864Y48670D01*
X42950Y48647D01*
Y48950D01*
D02*
G37*
G36*
X8700D02*
X8397D01*
X8420Y48864D01*
X8467Y48783D01*
X8533Y48717D01*
X8614Y48670D01*
X8700Y48647D01*
Y48950D01*
D02*
G37*
G36*
X2700D02*
X2397D01*
X2420Y48864D01*
X2467Y48783D01*
X2533Y48717D01*
X2614Y48670D01*
X2700Y48647D01*
Y48950D01*
D02*
G37*
G36*
X52840Y48610D02*
X52760D01*
X52687Y48579D01*
X52653Y48545D01*
X48933D01*
X48913Y48565D01*
X48840Y48595D01*
X48760D01*
X48687Y48565D01*
X48630Y48508D01*
X48600Y48435D01*
Y48355D01*
X48630Y48282D01*
X48687Y48226D01*
X48760Y48195D01*
X48840D01*
X48913Y48226D01*
X48947Y48260D01*
X52667D01*
X52687Y48240D01*
X52760Y48210D01*
X52840D01*
X52913Y48240D01*
X52970Y48296D01*
X53000Y48370D01*
Y48449D01*
X52970Y48523D01*
X52913Y48579D01*
X52840Y48610D01*
D02*
G37*
G36*
X57917Y46620D02*
X57829D01*
X57748Y46587D01*
X57687Y46525D01*
X57653Y46444D01*
Y46356D01*
X57687Y46275D01*
X57748Y46213D01*
X57829Y46180D01*
X57917D01*
X57998Y46213D01*
X58060Y46275D01*
X58093Y46356D01*
Y46444D01*
X58060Y46525D01*
X57998Y46587D01*
X57917Y46620D01*
D02*
G37*
G36*
X56644D02*
X56556D01*
X56475Y46587D01*
X56413Y46525D01*
X56380Y46444D01*
Y46356D01*
X56413Y46275D01*
X56475Y46213D01*
X56556Y46180D01*
X56644D01*
X56725Y46213D01*
X56787Y46275D01*
X56820Y46356D01*
Y46444D01*
X56787Y46525D01*
X56725Y46587D01*
X56644Y46620D01*
D02*
G37*
G36*
X51344Y45420D02*
X51256D01*
X51175Y45387D01*
X51113Y45325D01*
X51080Y45244D01*
Y45156D01*
X51113Y45075D01*
X51175Y45013D01*
X51256Y44980D01*
X51344D01*
X51425Y45013D01*
X51487Y45075D01*
X51520Y45156D01*
Y45244D01*
X51487Y45325D01*
X51425Y45387D01*
X51344Y45420D01*
D02*
G37*
G36*
X48844Y44632D02*
X48756D01*
X48675Y44599D01*
X48613Y44537D01*
X48580Y44456D01*
Y44368D01*
X48613Y44288D01*
X48675Y44226D01*
X48756Y44192D01*
X48844D01*
X48925Y44226D01*
X48987Y44288D01*
X49020Y44368D01*
Y44456D01*
X48987Y44537D01*
X48925Y44599D01*
X48844Y44632D01*
D02*
G37*
G36*
X57337Y45794D02*
X55419D01*
X55367Y45784D01*
X55324Y45755D01*
X54425Y44856D01*
X54396Y44813D01*
X54386Y44761D01*
Y43787D01*
X54245Y43646D01*
X54213Y43677D01*
X54140Y43708D01*
X54060D01*
X53987Y43677D01*
X53930Y43621D01*
X53900Y43547D01*
Y43468D01*
X53930Y43394D01*
X53967Y43357D01*
X53931Y43321D01*
X53900Y43247D01*
Y43168D01*
X53931Y43094D01*
X53968Y43057D01*
X53932Y43021D01*
X53902Y42947D01*
Y42868D01*
X53932Y42794D01*
X53969Y42757D01*
X53933Y42721D01*
X53902Y42647D01*
Y42568D01*
X53933Y42494D01*
X53989Y42438D01*
X54063Y42408D01*
X54142D01*
X54173Y42420D01*
X54269Y42367D01*
X54273Y42362D01*
Y41348D01*
X54283Y41297D01*
X54312Y41253D01*
X54873Y40692D01*
X54917Y40663D01*
X54968Y40653D01*
X57620D01*
X57671Y40663D01*
X57715Y40692D01*
X58213Y41190D01*
X58242Y41234D01*
X58252Y41285D01*
Y41800D01*
X58253D01*
X58326Y41830D01*
X58383Y41886D01*
X58413Y41960D01*
Y42039D01*
X58383Y42113D01*
X58326Y42169D01*
X58253Y42200D01*
X58173D01*
X58100Y42169D01*
X58061Y42131D01*
X58023Y42169D01*
X57950Y42200D01*
X57870D01*
X57820Y42179D01*
X57788Y42172D01*
X57695Y42200D01*
X57431Y42464D01*
X57388Y42493D01*
X57337Y42503D01*
X57304D01*
Y42515D01*
X57269Y42599D01*
X57241Y42628D01*
X57269Y42656D01*
X57304Y42740D01*
Y42830D01*
X57282Y42919D01*
X57325Y42948D01*
X58008Y43630D01*
X58037Y43674D01*
X58047Y43725D01*
Y45083D01*
X58037Y45135D01*
X58008Y45178D01*
X57511Y45675D01*
X57431Y45755D01*
X57388Y45784D01*
X57337Y45794D01*
D02*
G37*
G36*
X52840Y43657D02*
X52760D01*
X52687Y43626D01*
X52660Y43600D01*
X48940D01*
X48913Y43626D01*
X48840Y43657D01*
X48760D01*
X48687Y43626D01*
X48630Y43570D01*
X48600Y43497D01*
Y43417D01*
X48630Y43344D01*
X48687Y43287D01*
X48760Y43257D01*
X48840D01*
X48913Y43287D01*
X48940Y43314D01*
X52107D01*
X52180Y43229D01*
Y43141D01*
X52213Y43060D01*
X52275Y42999D01*
X52356Y42965D01*
X52444D01*
X52525Y42999D01*
X52587Y43060D01*
X52620Y43141D01*
Y43215D01*
X52646Y43243D01*
X52648Y43245D01*
X52708Y43279D01*
X52760Y43257D01*
X52840D01*
X52913Y43287D01*
X52970Y43344D01*
X53000Y43417D01*
Y43497D01*
X52970Y43570D01*
X52913Y43626D01*
X52840Y43657D01*
D02*
G37*
G36*
Y42633D02*
X52760D01*
X52687Y42603D01*
X52660Y42576D01*
X48940D01*
X48913Y42603D01*
X48840Y42633D01*
X48760D01*
X48687Y42603D01*
X48630Y42546D01*
X48600Y42473D01*
Y42393D01*
X48630Y42320D01*
X48687Y42264D01*
X48760Y42233D01*
X48840D01*
X48913Y42264D01*
X48940Y42290D01*
X52120D01*
X52167Y42221D01*
Y42134D01*
X52120Y42064D01*
X48940D01*
X48913Y42091D01*
X48840Y42121D01*
X48760D01*
X48687Y42091D01*
X48630Y42035D01*
X48600Y41961D01*
Y41882D01*
X48630Y41808D01*
X48687Y41752D01*
X48760Y41721D01*
X48840D01*
X48913Y41752D01*
X48940Y41779D01*
X52660D01*
X52687Y41752D01*
X52760Y41721D01*
X52840D01*
X52913Y41752D01*
X52970Y41808D01*
X53000Y41882D01*
Y41961D01*
X52970Y42035D01*
X52913Y42091D01*
X52840Y42121D01*
X52760D01*
X52751Y42117D01*
X52653Y42177D01*
X52751Y42237D01*
X52760Y42233D01*
X52840D01*
X52913Y42264D01*
X52970Y42320D01*
X53000Y42393D01*
Y42473D01*
X52970Y42546D01*
X52913Y42603D01*
X52840Y42633D01*
D02*
G37*
G36*
X17003Y43120D02*
X16916D01*
X16835Y43087D01*
X16773Y43025D01*
X16739Y42944D01*
Y42856D01*
X16749Y42834D01*
X16717Y42790D01*
X16675Y42751D01*
X16601D01*
X16520Y42717D01*
X16458Y42655D01*
X16424Y42574D01*
Y42487D01*
X16458Y42406D01*
X16520Y42344D01*
X16601Y42311D01*
X16688D01*
X16769Y42344D01*
X16831Y42406D01*
X16864Y42487D01*
Y42574D01*
X16855Y42597D01*
X16887Y42640D01*
X16929Y42680D01*
X16990D01*
X17032Y42640D01*
X17064Y42597D01*
X17054Y42574D01*
Y42487D01*
X17088Y42406D01*
X17150Y42344D01*
X17231Y42311D01*
X17318D01*
X17399Y42344D01*
X17461Y42406D01*
X17494Y42487D01*
Y42574D01*
X17461Y42655D01*
X17399Y42717D01*
X17318Y42751D01*
X17244D01*
X17202Y42790D01*
X17170Y42834D01*
X17179Y42856D01*
Y42944D01*
X17146Y43025D01*
X17084Y43087D01*
X17003Y43120D01*
D02*
G37*
G36*
X52840Y41610D02*
X52760D01*
X52687Y41579D01*
X52653Y41545D01*
X48933D01*
X48913Y41565D01*
X48840Y41595D01*
X48760D01*
X48687Y41565D01*
X48630Y41508D01*
X48600Y41435D01*
Y41355D01*
X48630Y41282D01*
X48687Y41226D01*
X48760Y41195D01*
X48840D01*
X48913Y41226D01*
X48947Y41260D01*
X52667D01*
X52687Y41240D01*
X52760Y41210D01*
X52840D01*
X52913Y41240D01*
X52970Y41296D01*
X53000Y41370D01*
Y41449D01*
X52970Y41523D01*
X52913Y41579D01*
X52840Y41610D01*
D02*
G37*
G36*
X14774Y41433D02*
X14705D01*
X14639Y41416D01*
X14580Y41381D01*
X14532Y41333D01*
X14497Y41274D01*
X14480Y41207D01*
Y41139D01*
X14497Y41073D01*
X14532Y41014D01*
X14580Y40965D01*
X14639Y40931D01*
X14705Y40913D01*
X14774D01*
X14840Y40931D01*
X14899Y40965D01*
X14948Y41014D01*
X14982Y41073D01*
X15000Y41139D01*
Y41207D01*
X14982Y41274D01*
X14948Y41333D01*
X14899Y41381D01*
X14840Y41416D01*
X14774Y41433D01*
D02*
G37*
G36*
X30468Y42246D02*
X30297D01*
X30129Y42219D01*
X29966Y42166D01*
X29814Y42089D01*
X29676Y41988D01*
X29556Y41868D01*
X29455Y41730D01*
X29378Y41578D01*
X29325Y41415D01*
X29298Y41247D01*
Y41076D01*
X29325Y40908D01*
X29378Y40745D01*
X29455Y40593D01*
X29556Y40455D01*
X29676Y40334D01*
X29814Y40234D01*
X29966Y40157D01*
X30129Y40104D01*
X30297Y40077D01*
X30468D01*
X30637Y40104D01*
X30799Y40157D01*
X30951Y40234D01*
X31089Y40334D01*
X31210Y40455D01*
X31310Y40593D01*
X31387Y40745D01*
X31440Y40908D01*
X31467Y41076D01*
Y41247D01*
X31440Y41415D01*
X31387Y41578D01*
X31310Y41730D01*
X31210Y41868D01*
X31089Y41988D01*
X30951Y42089D01*
X30799Y42166D01*
X30637Y42219D01*
X30468Y42246D01*
D02*
G37*
G36*
X3303Y42246D02*
X3132D01*
X2963Y42219D01*
X2801Y42166D01*
X2649Y42089D01*
X2511Y41988D01*
X2390Y41868D01*
X2290Y41730D01*
X2212Y41578D01*
X2160Y41415D01*
X2133Y41247D01*
Y41076D01*
X2160Y40908D01*
X2212Y40745D01*
X2290Y40593D01*
X2390Y40455D01*
X2511Y40334D01*
X2649Y40234D01*
X2801Y40157D01*
X2963Y40104D01*
X3132Y40077D01*
X3303D01*
X3471Y40104D01*
X3634Y40157D01*
X3786Y40234D01*
X3924Y40334D01*
X4044Y40455D01*
X4145Y40593D01*
X4222Y40745D01*
X4275Y40908D01*
X4302Y41076D01*
Y41247D01*
X4275Y41415D01*
X4222Y41578D01*
X4145Y41730D01*
X4044Y41868D01*
X3924Y41988D01*
X3786Y42089D01*
X3634Y42166D01*
X3471Y42219D01*
X3303Y42246D01*
D02*
G37*
G36*
X57917Y39620D02*
X57829D01*
X57748Y39587D01*
X57687Y39525D01*
X57653Y39444D01*
Y39356D01*
X57687Y39275D01*
X57748Y39213D01*
X57829Y39180D01*
X57917D01*
X57998Y39213D01*
X58060Y39275D01*
X58093Y39356D01*
Y39444D01*
X58060Y39525D01*
X57998Y39587D01*
X57917Y39620D01*
D02*
G37*
G36*
X56644D02*
X56556D01*
X56475Y39587D01*
X56413Y39525D01*
X56380Y39444D01*
Y39356D01*
X56413Y39275D01*
X56475Y39213D01*
X56556Y39180D01*
X56644D01*
X56725Y39213D01*
X56787Y39275D01*
X56820Y39356D01*
Y39444D01*
X56787Y39525D01*
X56725Y39587D01*
X56644Y39620D01*
D02*
G37*
G36*
X51344Y38420D02*
X51256D01*
X51175Y38387D01*
X51113Y38325D01*
X51080Y38244D01*
Y38156D01*
X51113Y38075D01*
X51175Y38013D01*
X51256Y37980D01*
X51344D01*
X51425Y38013D01*
X51487Y38075D01*
X51520Y38156D01*
Y38244D01*
X51487Y38325D01*
X51425Y38387D01*
X51344Y38420D01*
D02*
G37*
G36*
X48844Y37620D02*
X48756D01*
X48675Y37587D01*
X48613Y37525D01*
X48580Y37444D01*
Y37356D01*
X48613Y37275D01*
X48675Y37213D01*
X48756Y37180D01*
X48844D01*
X48925Y37213D01*
X48987Y37275D01*
X49020Y37356D01*
Y37444D01*
X48987Y37525D01*
X48925Y37587D01*
X48844Y37620D01*
D02*
G37*
G36*
X57337Y38794D02*
X55419D01*
X55367Y38784D01*
X55324Y38755D01*
X54425Y37856D01*
X54396Y37813D01*
X54386Y37761D01*
Y36787D01*
X54245Y36646D01*
X54213Y36677D01*
X54140Y36708D01*
X54060D01*
X53987Y36677D01*
X53930Y36621D01*
X53900Y36547D01*
Y36468D01*
X53930Y36394D01*
X53967Y36357D01*
X53931Y36321D01*
X53900Y36247D01*
Y36168D01*
X53931Y36094D01*
X53968Y36057D01*
X53932Y36021D01*
X53902Y35947D01*
Y35868D01*
X53932Y35794D01*
X53969Y35757D01*
X53933Y35721D01*
X53902Y35647D01*
Y35568D01*
X53933Y35494D01*
X53989Y35438D01*
X54063Y35408D01*
X54142D01*
X54173Y35420D01*
X54269Y35367D01*
X54273Y35362D01*
Y34348D01*
X54283Y34297D01*
X54312Y34253D01*
X54873Y33692D01*
X54917Y33663D01*
X54968Y33653D01*
X57620D01*
X57671Y33663D01*
X57715Y33692D01*
X58213Y34190D01*
X58242Y34234D01*
X58252Y34285D01*
Y34800D01*
X58253D01*
X58326Y34830D01*
X58383Y34886D01*
X58413Y34960D01*
Y35039D01*
X58383Y35113D01*
X58326Y35169D01*
X58253Y35200D01*
X58173D01*
X58100Y35169D01*
X58061Y35131D01*
X58023Y35169D01*
X57950Y35200D01*
X57870D01*
X57820Y35179D01*
X57788Y35172D01*
X57695Y35200D01*
X57431Y35464D01*
X57388Y35493D01*
X57337Y35503D01*
X57304D01*
Y35515D01*
X57269Y35599D01*
X57241Y35628D01*
X57269Y35656D01*
X57304Y35740D01*
Y35830D01*
X57282Y35919D01*
X57325Y35948D01*
X58008Y36630D01*
X58037Y36674D01*
X58047Y36725D01*
Y38083D01*
X58037Y38135D01*
X58008Y38178D01*
X57511Y38675D01*
X57431Y38755D01*
X57388Y38784D01*
X57337Y38794D01*
D02*
G37*
G36*
X52840Y36657D02*
X52760D01*
X52687Y36626D01*
X52660Y36600D01*
X48940D01*
X48913Y36626D01*
X48840Y36657D01*
X48760D01*
X48687Y36626D01*
X48630Y36570D01*
X48600Y36497D01*
Y36417D01*
X48630Y36344D01*
X48687Y36287D01*
X48760Y36257D01*
X48840D01*
X48913Y36287D01*
X48940Y36314D01*
X52107D01*
X52180Y36229D01*
Y36141D01*
X52213Y36060D01*
X52275Y35999D01*
X52356Y35965D01*
X52444D01*
X52525Y35999D01*
X52587Y36060D01*
X52620Y36141D01*
Y36215D01*
X52646Y36243D01*
X52648Y36245D01*
X52708Y36279D01*
X52760Y36257D01*
X52840D01*
X52913Y36287D01*
X52970Y36344D01*
X53000Y36417D01*
Y36497D01*
X52970Y36570D01*
X52913Y36626D01*
X52840Y36657D01*
D02*
G37*
G36*
Y35633D02*
X52760D01*
X52687Y35603D01*
X52660Y35576D01*
X48940D01*
X48913Y35603D01*
X48840Y35633D01*
X48760D01*
X48687Y35603D01*
X48630Y35546D01*
X48600Y35473D01*
Y35393D01*
X48630Y35320D01*
X48687Y35264D01*
X48760Y35233D01*
X48840D01*
X48913Y35264D01*
X48940Y35290D01*
X52120D01*
X52167Y35221D01*
Y35134D01*
X52120Y35064D01*
X48940D01*
X48913Y35091D01*
X48840Y35121D01*
X48760D01*
X48687Y35091D01*
X48630Y35035D01*
X48600Y34961D01*
Y34882D01*
X48630Y34808D01*
X48687Y34752D01*
X48760Y34721D01*
X48840D01*
X48913Y34752D01*
X48940Y34779D01*
X52660D01*
X52687Y34752D01*
X52760Y34721D01*
X52840D01*
X52913Y34752D01*
X52970Y34808D01*
X53000Y34882D01*
Y34961D01*
X52970Y35035D01*
X52913Y35091D01*
X52840Y35121D01*
X52760D01*
X52751Y35117D01*
X52653Y35177D01*
X52751Y35237D01*
X52760Y35233D01*
X52840D01*
X52913Y35264D01*
X52970Y35320D01*
X53000Y35393D01*
Y35473D01*
X52970Y35546D01*
X52913Y35603D01*
X52840Y35633D01*
D02*
G37*
G36*
Y34610D02*
X52760D01*
X52687Y34579D01*
X52653Y34545D01*
X48933D01*
X48913Y34565D01*
X48840Y34595D01*
X48760D01*
X48687Y34565D01*
X48630Y34508D01*
X48600Y34435D01*
Y34355D01*
X48630Y34282D01*
X48687Y34226D01*
X48760Y34195D01*
X48840D01*
X48913Y34226D01*
X48947Y34260D01*
X52667D01*
X52687Y34240D01*
X52760Y34210D01*
X52840D01*
X52913Y34240D01*
X52970Y34296D01*
X53000Y34370D01*
Y34449D01*
X52970Y34523D01*
X52913Y34579D01*
X52840Y34610D01*
D02*
G37*
G36*
X57917Y32620D02*
X57829D01*
X57748Y32587D01*
X57687Y32525D01*
X57653Y32444D01*
Y32356D01*
X57687Y32275D01*
X57748Y32213D01*
X57829Y32180D01*
X57917D01*
X57998Y32213D01*
X58060Y32275D01*
X58093Y32356D01*
Y32444D01*
X58060Y32525D01*
X57998Y32587D01*
X57917Y32620D01*
D02*
G37*
G36*
X56644D02*
X56556D01*
X56475Y32587D01*
X56413Y32525D01*
X56380Y32444D01*
Y32356D01*
X56413Y32275D01*
X56475Y32213D01*
X56556Y32180D01*
X56644D01*
X56725Y32213D01*
X56787Y32275D01*
X56820Y32356D01*
Y32444D01*
X56787Y32525D01*
X56725Y32587D01*
X56644Y32620D01*
D02*
G37*
G36*
X51344Y31420D02*
X51256D01*
X51175Y31387D01*
X51113Y31325D01*
X51080Y31244D01*
Y31156D01*
X51113Y31075D01*
X51175Y31013D01*
X51256Y30980D01*
X51344D01*
X51425Y31013D01*
X51487Y31075D01*
X51520Y31156D01*
Y31244D01*
X51487Y31325D01*
X51425Y31387D01*
X51344Y31420D01*
D02*
G37*
G36*
X48844Y30620D02*
X48756D01*
X48675Y30587D01*
X48613Y30525D01*
X48580Y30444D01*
Y30356D01*
X48613Y30275D01*
X48675Y30213D01*
X48756Y30180D01*
X48844D01*
X48925Y30213D01*
X48987Y30275D01*
X49020Y30356D01*
Y30444D01*
X48987Y30525D01*
X48925Y30587D01*
X48844Y30620D01*
D02*
G37*
G36*
X57337Y31794D02*
X55419D01*
X55367Y31784D01*
X55324Y31755D01*
X54425Y30856D01*
X54396Y30813D01*
X54386Y30761D01*
Y29787D01*
X54245Y29646D01*
X54213Y29677D01*
X54140Y29708D01*
X54060D01*
X53987Y29677D01*
X53930Y29621D01*
X53900Y29547D01*
Y29468D01*
X53930Y29394D01*
X53967Y29357D01*
X53931Y29321D01*
X53900Y29247D01*
Y29168D01*
X53931Y29094D01*
X53968Y29057D01*
X53932Y29021D01*
X53902Y28947D01*
Y28868D01*
X53932Y28794D01*
X53969Y28757D01*
X53933Y28721D01*
X53902Y28647D01*
Y28568D01*
X53933Y28494D01*
X53989Y28438D01*
X54063Y28408D01*
X54142D01*
X54173Y28420D01*
X54269Y28367D01*
X54273Y28362D01*
Y27348D01*
X54283Y27297D01*
X54312Y27253D01*
X54873Y26692D01*
X54917Y26663D01*
X54968Y26653D01*
X57620D01*
X57671Y26663D01*
X57715Y26692D01*
X58213Y27190D01*
X58242Y27234D01*
X58252Y27285D01*
Y27800D01*
X58253D01*
X58326Y27830D01*
X58383Y27886D01*
X58413Y27960D01*
Y28039D01*
X58383Y28113D01*
X58326Y28169D01*
X58253Y28200D01*
X58173D01*
X58100Y28169D01*
X58061Y28131D01*
X58023Y28169D01*
X57950Y28200D01*
X57870D01*
X57820Y28179D01*
X57788Y28172D01*
X57695Y28200D01*
X57431Y28464D01*
X57388Y28493D01*
X57337Y28503D01*
X57304D01*
Y28515D01*
X57269Y28599D01*
X57241Y28628D01*
X57269Y28656D01*
X57304Y28740D01*
Y28830D01*
X57282Y28919D01*
X57325Y28948D01*
X58008Y29630D01*
X58037Y29674D01*
X58047Y29725D01*
Y31083D01*
X58037Y31135D01*
X58008Y31178D01*
X57511Y31675D01*
X57431Y31755D01*
X57388Y31784D01*
X57337Y31794D01*
D02*
G37*
G36*
X52840Y29657D02*
X52760D01*
X52687Y29626D01*
X52660Y29600D01*
X48940D01*
X48913Y29626D01*
X48840Y29657D01*
X48760D01*
X48687Y29626D01*
X48630Y29570D01*
X48600Y29497D01*
Y29417D01*
X48630Y29344D01*
X48687Y29287D01*
X48760Y29257D01*
X48840D01*
X48913Y29287D01*
X48940Y29314D01*
X52107D01*
X52180Y29229D01*
Y29141D01*
X52213Y29060D01*
X52275Y28999D01*
X52356Y28965D01*
X52444D01*
X52525Y28999D01*
X52587Y29060D01*
X52620Y29141D01*
Y29215D01*
X52646Y29243D01*
X52648Y29245D01*
X52708Y29279D01*
X52760Y29257D01*
X52840D01*
X52913Y29287D01*
X52970Y29344D01*
X53000Y29417D01*
Y29497D01*
X52970Y29570D01*
X52913Y29626D01*
X52840Y29657D01*
D02*
G37*
G36*
X27708Y29100D02*
X27628D01*
X27555Y29070D01*
X27499Y29013D01*
X27468Y28940D01*
Y28860D01*
X27475Y28843D01*
X27412Y28743D01*
X26548D01*
X26522Y28770D01*
X26448Y28800D01*
X26368D01*
X26295Y28770D01*
X26239Y28713D01*
X26208Y28640D01*
Y28560D01*
X26216Y28543D01*
X26152Y28443D01*
X25940D01*
X25913Y28470D01*
X25840Y28500D01*
X25760D01*
X25687Y28470D01*
X25630Y28413D01*
X25600Y28340D01*
Y28260D01*
X25607Y28243D01*
X25544Y28143D01*
X24640D01*
X24613Y28170D01*
X24540Y28200D01*
X24460D01*
X24387Y28170D01*
X24330Y28113D01*
X24300Y28040D01*
Y27960D01*
X24307Y27943D01*
X24244Y27843D01*
X24040D01*
X24013Y27870D01*
X23940Y27900D01*
X23860D01*
X23787Y27870D01*
X23760Y27843D01*
X21346D01*
X21291Y27832D01*
X21245Y27801D01*
X21245Y27801D01*
X20737Y27293D01*
X20699D01*
X20626Y27263D01*
X20569Y27206D01*
X20539Y27133D01*
Y27069D01*
X20469Y26996D01*
X20464Y26992D01*
X20384D01*
X20362Y27012D01*
X20309Y27069D01*
Y27138D01*
X20279Y27211D01*
X20222Y27267D01*
X20149Y27298D01*
X20069D01*
X19996Y27267D01*
X19940Y27211D01*
X19909Y27138D01*
Y27077D01*
X19852Y27019D01*
X19825Y27000D01*
X19754D01*
X19681Y26970D01*
X19625Y26913D01*
X19594Y26840D01*
Y26760D01*
X19625Y26687D01*
X19651Y26660D01*
Y25298D01*
X19407Y25054D01*
X19307Y25094D01*
Y26660D01*
X19334Y26687D01*
X19364Y26760D01*
Y26840D01*
X19334Y26913D01*
X19277Y26970D01*
X19204Y27000D01*
X19124D01*
X19051Y26970D01*
X18995Y26913D01*
X18964Y26840D01*
Y26760D01*
X18995Y26687D01*
X19021Y26660D01*
Y24585D01*
X18748Y24312D01*
X18717Y24266D01*
X18706Y24211D01*
X18706Y24211D01*
Y22704D01*
X18701Y22697D01*
X18606Y22645D01*
X18574Y22658D01*
X18494D01*
X18462Y22645D01*
X18367Y22697D01*
X18362Y22704D01*
Y24160D01*
X18635Y24433D01*
X18635Y24433D01*
X18666Y24480D01*
X18677Y24534D01*
X18677Y24534D01*
Y26660D01*
X18704Y26687D01*
X18734Y26760D01*
Y26840D01*
X18704Y26913D01*
X18648Y26970D01*
X18574Y27000D01*
X18503D01*
X18476Y27019D01*
X18419Y27077D01*
Y27138D01*
X18389Y27211D01*
X18333Y27267D01*
X18259Y27298D01*
X18180D01*
X18106Y27267D01*
X18050Y27211D01*
X18019Y27138D01*
Y27077D01*
X17963Y27019D01*
X17935Y27000D01*
X17865D01*
X17791Y26970D01*
X17735Y26913D01*
X17704Y26840D01*
Y26760D01*
X17735Y26687D01*
X17762Y26660D01*
Y24928D01*
X17499Y24666D01*
X17468Y24619D01*
X17457Y24565D01*
X17457Y24565D01*
Y22953D01*
X17447Y22900D01*
X17447Y22900D01*
Y21474D01*
X17222Y21249D01*
X17137Y21306D01*
X17159Y21360D01*
Y21440D01*
X17129Y21513D01*
X17073Y21570D01*
X16999Y21600D01*
X16920D01*
X16844Y21656D01*
X16814Y21729D01*
X16758Y21786D01*
X16684Y21816D01*
X16605D01*
X16530Y21891D01*
X16499Y21964D01*
X16443Y22020D01*
X16369Y22051D01*
X16290D01*
X16216Y22020D01*
X16160Y21964D01*
X16130Y21891D01*
Y21853D01*
X11120Y16843D01*
X7500D01*
X7500Y16843D01*
X7445Y16832D01*
X7399Y16801D01*
X7399Y16801D01*
X6099Y15501D01*
X6068Y15455D01*
X6057Y15400D01*
X6057Y15400D01*
Y15363D01*
X6027Y15338D01*
X5957Y15312D01*
X5894Y15348D01*
X5799Y15374D01*
X5701D01*
X5606Y15348D01*
X5521Y15299D01*
X5451Y15229D01*
X5402Y15144D01*
X5376Y15049D01*
Y14951D01*
X5402Y14856D01*
X5451Y14771D01*
X5521Y14701D01*
X5606Y14652D01*
X5701Y14626D01*
X5799D01*
X5894Y14652D01*
X5957Y14688D01*
X6027Y14662D01*
X6057Y14637D01*
Y14509D01*
X5896Y14347D01*
X5894Y14348D01*
X5799Y14374D01*
X5701D01*
X5606Y14348D01*
X5521Y14299D01*
X5451Y14229D01*
X5402Y14144D01*
X5376Y14049D01*
Y13951D01*
X5402Y13856D01*
X5451Y13771D01*
X5521Y13701D01*
X5606Y13652D01*
X5701Y13626D01*
X5799D01*
X5894Y13652D01*
X5979Y13701D01*
X6049Y13771D01*
X6098Y13856D01*
X6124Y13951D01*
Y14049D01*
X6098Y14144D01*
X6097Y14146D01*
X6301Y14349D01*
X6301Y14349D01*
X6332Y14395D01*
X6343Y14450D01*
X6343Y14450D01*
Y14758D01*
X6443Y14785D01*
X6451Y14771D01*
X6521Y14701D01*
X6606Y14652D01*
X6701Y14626D01*
X6799D01*
X6894Y14652D01*
X6979Y14701D01*
X7049Y14771D01*
X7057Y14785D01*
X7157Y14758D01*
Y14609D01*
X6896Y14347D01*
X6894Y14348D01*
X6799Y14374D01*
X6701D01*
X6606Y14348D01*
X6521Y14299D01*
X6451Y14229D01*
X6402Y14144D01*
X6376Y14049D01*
Y13951D01*
X6402Y13856D01*
X6451Y13771D01*
X6521Y13701D01*
X6606Y13652D01*
X6701Y13626D01*
X6799D01*
X6894Y13652D01*
X6979Y13701D01*
X7049Y13771D01*
X7098Y13856D01*
X7124Y13951D01*
Y14049D01*
X7098Y14144D01*
X7097Y14146D01*
X7401Y14449D01*
X7401Y14449D01*
X7432Y14495D01*
X7443Y14550D01*
Y14637D01*
X7473Y14662D01*
X7543Y14688D01*
X7606Y14652D01*
X7701Y14626D01*
X7799D01*
X7894Y14652D01*
X7979Y14701D01*
X8049Y14771D01*
X8057Y14785D01*
X8157Y14758D01*
Y14609D01*
X7896Y14347D01*
X7894Y14348D01*
X7799Y14374D01*
X7701D01*
X7606Y14348D01*
X7521Y14299D01*
X7451Y14229D01*
X7402Y14144D01*
X7376Y14049D01*
Y13951D01*
X7402Y13856D01*
X7451Y13771D01*
X7521Y13701D01*
X7606Y13652D01*
X7701Y13626D01*
X7799D01*
X7894Y13652D01*
X7979Y13701D01*
X8049Y13771D01*
X8098Y13856D01*
X8124Y13951D01*
Y14049D01*
X8098Y14144D01*
X8097Y14146D01*
X8401Y14449D01*
X8401Y14449D01*
X8432Y14495D01*
X8443Y14550D01*
Y14666D01*
X8503Y14700D01*
X8543Y14711D01*
X8614Y14670D01*
X8700Y14647D01*
Y15000D01*
Y15353D01*
X8614Y15330D01*
X8543Y15289D01*
X8503Y15300D01*
X8443Y15334D01*
Y15441D01*
X8959Y15957D01*
X11659D01*
X11659Y15957D01*
X11714Y15968D01*
X11760Y15999D01*
X16961Y21200D01*
X16999D01*
X17054Y21223D01*
X17110Y21138D01*
X11815Y15843D01*
X11450D01*
X11395Y15832D01*
X11349Y15801D01*
X11349Y15801D01*
X10896Y15347D01*
X10894Y15348D01*
X10799Y15374D01*
X10701D01*
X10606Y15348D01*
X10521Y15299D01*
X10451Y15229D01*
X10402Y15144D01*
X10376Y15049D01*
Y14951D01*
X10402Y14856D01*
X10451Y14771D01*
X10521Y14701D01*
X10606Y14652D01*
X10701Y14626D01*
X10799D01*
X10894Y14652D01*
X10979Y14701D01*
X11049Y14771D01*
X11098Y14856D01*
X11124Y14951D01*
Y15049D01*
X11098Y15144D01*
X11097Y15146D01*
X11509Y15557D01*
X11874D01*
X11874Y15557D01*
X11929Y15568D01*
X11975Y15599D01*
X17593Y21217D01*
X17702Y21184D01*
X17707Y21159D01*
X11896Y15347D01*
X11894Y15348D01*
X11799Y15374D01*
X11701D01*
X11606Y15348D01*
X11521Y15299D01*
X11451Y15229D01*
X11402Y15144D01*
X11376Y15049D01*
Y14951D01*
X11402Y14856D01*
X11451Y14771D01*
X11521Y14701D01*
X11606Y14652D01*
X11701Y14626D01*
X11799D01*
X11894Y14652D01*
X11979Y14701D01*
X12049Y14771D01*
X12098Y14856D01*
X12124Y14951D01*
Y15049D01*
X12098Y15144D01*
X12097Y15146D01*
X17930Y20978D01*
X18036Y20943D01*
X18044Y20891D01*
X12677Y15525D01*
X12646Y15478D01*
X12635Y15424D01*
X12635Y15424D01*
Y15356D01*
X12606Y15348D01*
X12521Y15299D01*
X12451Y15229D01*
X12402Y15144D01*
X12376Y15049D01*
Y14951D01*
X12402Y14856D01*
X12451Y14771D01*
X12521Y14701D01*
X12606Y14652D01*
X12701Y14626D01*
X12799D01*
X12894Y14652D01*
X12979Y14701D01*
X13049Y14771D01*
X13057Y14785D01*
X13157Y14758D01*
Y14609D01*
X12896Y14347D01*
X12894Y14348D01*
X12799Y14374D01*
X12701D01*
X12606Y14348D01*
X12521Y14299D01*
X12451Y14229D01*
X12402Y14144D01*
X12376Y14049D01*
Y13951D01*
X12402Y13856D01*
X12451Y13771D01*
X12521Y13701D01*
X12606Y13652D01*
X12701Y13626D01*
X12799D01*
X12894Y13652D01*
X12979Y13701D01*
X13049Y13771D01*
X13098Y13856D01*
X13124Y13951D01*
Y14049D01*
X13098Y14144D01*
X13097Y14146D01*
X13401Y14449D01*
X13401Y14449D01*
X13432Y14495D01*
X13443Y14550D01*
Y14637D01*
X13473Y14662D01*
X13543Y14688D01*
X13606Y14652D01*
X13701Y14626D01*
X13799D01*
X13894Y14652D01*
X13979Y14701D01*
X14049Y14771D01*
X14098Y14856D01*
X14124Y14951D01*
Y15049D01*
X14098Y15144D01*
X14049Y15229D01*
X13979Y15299D01*
X13894Y15348D01*
X13799Y15374D01*
X13701D01*
X13606Y15348D01*
X13572Y15329D01*
X13510Y15409D01*
X18606Y20505D01*
X18706Y20464D01*
Y20124D01*
X14649Y16066D01*
X14618Y16020D01*
X14607Y15965D01*
X14607Y15965D01*
Y15349D01*
X14606Y15348D01*
X14521Y15299D01*
X14451Y15229D01*
X14402Y15144D01*
X14376Y15049D01*
Y14951D01*
X14402Y14856D01*
X14451Y14771D01*
X14521Y14701D01*
X14606Y14652D01*
X14701Y14626D01*
X14799D01*
X14894Y14652D01*
X14957Y14688D01*
X15027Y14662D01*
X15057Y14637D01*
Y14509D01*
X14896Y14347D01*
X14894Y14348D01*
X14799Y14374D01*
X14701D01*
X14606Y14348D01*
X14521Y14299D01*
X14451Y14229D01*
X14402Y14144D01*
X14376Y14049D01*
Y13951D01*
X14402Y13856D01*
X14451Y13771D01*
X14521Y13701D01*
X14606Y13652D01*
X14701Y13626D01*
X14799D01*
X14894Y13652D01*
X14979Y13701D01*
X15049Y13771D01*
X15098Y13856D01*
X15124Y13951D01*
Y14049D01*
X15098Y14144D01*
X15097Y14146D01*
X15301Y14349D01*
X15301Y14349D01*
X15332Y14395D01*
X15343Y14450D01*
X15343Y14450D01*
Y14758D01*
X15443Y14785D01*
X15451Y14771D01*
X15521Y14701D01*
X15606Y14652D01*
X15701Y14626D01*
X15799D01*
X15894Y14652D01*
X15979Y14701D01*
X16049Y14771D01*
X16098Y14856D01*
X16124Y14951D01*
Y15049D01*
X16098Y15144D01*
X16049Y15229D01*
X15979Y15299D01*
X15894Y15348D01*
X15799Y15374D01*
X15701D01*
X15606Y15348D01*
X15521Y15299D01*
X15451Y15229D01*
X15443Y15215D01*
X15343Y15242D01*
Y15341D01*
X19236Y19235D01*
X19336Y19194D01*
Y17847D01*
X16849Y15360D01*
X16799Y15374D01*
X16701D01*
X16606Y15348D01*
X16521Y15299D01*
X16451Y15229D01*
X16402Y15144D01*
X16376Y15049D01*
Y14951D01*
X16402Y14856D01*
X16451Y14771D01*
X16521Y14701D01*
X16606Y14652D01*
X16701Y14626D01*
X16799D01*
X16894Y14652D01*
X16979Y14701D01*
X17049Y14771D01*
X17098Y14856D01*
X17124Y14951D01*
Y15049D01*
X17098Y15144D01*
X17076Y15183D01*
X19510Y17617D01*
X19616Y17582D01*
X19623Y17525D01*
X17649Y15551D01*
X17618Y15505D01*
X17607Y15450D01*
X17607Y15450D01*
Y15349D01*
X17606Y15348D01*
X17521Y15299D01*
X17451Y15229D01*
X17402Y15144D01*
X17376Y15049D01*
Y14951D01*
X17402Y14856D01*
X17451Y14771D01*
X17521Y14701D01*
X17606Y14652D01*
X17701Y14626D01*
X17799D01*
X17894Y14652D01*
X17979Y14701D01*
X18049Y14771D01*
X18098Y14856D01*
X18124Y14951D01*
Y15049D01*
X18098Y15144D01*
X18049Y15229D01*
X17979Y15299D01*
X17951Y15315D01*
X17938Y15436D01*
X19866Y17364D01*
X19966Y17324D01*
Y17118D01*
X18649Y15801D01*
X18618Y15755D01*
X18607Y15700D01*
X18607Y15700D01*
Y15349D01*
X18606Y15348D01*
X18521Y15299D01*
X18451Y15229D01*
X18402Y15144D01*
X18376Y15049D01*
Y14951D01*
X18402Y14856D01*
X18451Y14771D01*
X18521Y14701D01*
X18606Y14652D01*
X18701Y14626D01*
X18799D01*
X18894Y14652D01*
X18957Y14688D01*
X19027Y14662D01*
X19057Y14637D01*
Y14509D01*
X18896Y14347D01*
X18894Y14348D01*
X18799Y14374D01*
X18701D01*
X18606Y14348D01*
X18521Y14299D01*
X18451Y14229D01*
X18402Y14144D01*
X18376Y14049D01*
Y13951D01*
X18402Y13856D01*
X18451Y13771D01*
X18521Y13701D01*
X18606Y13652D01*
X18701Y13626D01*
X18799D01*
X18894Y13652D01*
X18979Y13701D01*
X19049Y13771D01*
X19098Y13856D01*
X19124Y13951D01*
Y14049D01*
X19098Y14144D01*
X19097Y14146D01*
X19301Y14349D01*
X19301Y14349D01*
X19332Y14395D01*
X19343Y14450D01*
X19343Y14450D01*
Y14758D01*
X19443Y14785D01*
X19451Y14771D01*
X19521Y14701D01*
X19606Y14652D01*
X19701Y14626D01*
X19799D01*
X19894Y14652D01*
X19979Y14701D01*
X20049Y14771D01*
X20098Y14856D01*
X20124Y14951D01*
Y15049D01*
X20098Y15144D01*
X20049Y15229D01*
X19979Y15299D01*
X19894Y15348D01*
X19799Y15374D01*
X19701D01*
X19606Y15348D01*
X19521Y15299D01*
X19451Y15229D01*
X19443Y15215D01*
X19343Y15242D01*
Y15487D01*
X20566Y16710D01*
X20566Y16710D01*
X20597Y16757D01*
X20608Y16811D01*
X20608Y16811D01*
Y20230D01*
X20597Y20284D01*
X20567Y20330D01*
Y22011D01*
X20594Y22038D01*
X20624Y22112D01*
Y22191D01*
X20594Y22265D01*
X20537Y22321D01*
X20464Y22352D01*
X20384D01*
X20352Y22338D01*
X20257Y22390D01*
X20252Y22397D01*
Y24550D01*
X20525Y24823D01*
X20525Y24823D01*
X20556Y24869D01*
X20567Y24924D01*
X20567Y24924D01*
Y26652D01*
X20594Y26679D01*
X20624Y26752D01*
Y26816D01*
X20694Y26889D01*
X20699Y26893D01*
X20779D01*
X20852Y26924D01*
X20909Y26980D01*
X20939Y27053D01*
Y27091D01*
X21119Y27272D01*
X21129Y27277D01*
X21199Y27213D01*
X21193Y27197D01*
X21169Y27140D01*
Y27060D01*
X21199Y26987D01*
X21226Y26960D01*
Y24928D01*
X20953Y24655D01*
X20922Y24609D01*
X20911Y24554D01*
X20911Y24554D01*
Y16246D01*
X20911Y16246D01*
X20922Y16191D01*
X20953Y16145D01*
X21607Y15491D01*
Y15349D01*
X21606Y15348D01*
X21521Y15299D01*
X21451Y15229D01*
X21402Y15144D01*
X21376Y15049D01*
Y14951D01*
X21402Y14856D01*
X21451Y14771D01*
X21521Y14701D01*
X21606Y14652D01*
X21701Y14626D01*
X21799D01*
X21894Y14652D01*
X21979Y14701D01*
X22049Y14771D01*
X22098Y14856D01*
X22124Y14951D01*
Y15049D01*
X22098Y15144D01*
X22049Y15229D01*
X21979Y15299D01*
X21894Y15348D01*
X21893Y15349D01*
Y15550D01*
X21893Y15550D01*
X21889Y15567D01*
X21981Y15617D01*
X22257Y15341D01*
Y14709D01*
X21896Y14347D01*
X21894Y14348D01*
X21799Y14374D01*
X21701D01*
X21606Y14348D01*
X21521Y14299D01*
X21451Y14229D01*
X21402Y14144D01*
X21376Y14049D01*
Y13951D01*
X21402Y13856D01*
X21451Y13771D01*
X21521Y13701D01*
X21606Y13652D01*
X21701Y13626D01*
X21799D01*
X21894Y13652D01*
X21979Y13701D01*
X22049Y13771D01*
X22098Y13856D01*
X22124Y13951D01*
Y14049D01*
X22098Y14144D01*
X22097Y14146D01*
X22501Y14549D01*
X22501Y14549D01*
X22532Y14595D01*
X22543Y14650D01*
X22543Y14650D01*
Y15400D01*
X22543Y15400D01*
X22532Y15455D01*
X22501Y15501D01*
X22501Y15501D01*
X21532Y16470D01*
X21539Y16563D01*
X21626Y16616D01*
X21640Y16610D01*
X21728D01*
X21808Y16643D01*
X21870Y16705D01*
X21904Y16786D01*
Y16874D01*
X21870Y16955D01*
X21827Y16998D01*
Y24232D01*
X21870Y24275D01*
X21904Y24356D01*
Y24444D01*
X21870Y24525D01*
X21808Y24587D01*
X21728Y24620D01*
X21640D01*
X21559Y24587D01*
X21497Y24525D01*
X21464Y24444D01*
Y24356D01*
X21469Y24344D01*
X21438Y24301D01*
X21395Y24261D01*
X21329D01*
X21297Y24247D01*
X21202Y24299D01*
X21197Y24306D01*
Y24495D01*
X21470Y24768D01*
X21470Y24768D01*
X21501Y24814D01*
X21512Y24869D01*
X21512Y24869D01*
Y26564D01*
X21537Y26586D01*
X21612Y26620D01*
X21660Y26600D01*
X21740D01*
X21813Y26630D01*
X21840Y26657D01*
X29741D01*
X31857Y24541D01*
Y22059D01*
X25172Y15374D01*
X24626D01*
Y14626D01*
X25374D01*
Y15172D01*
X32057Y21855D01*
X32157Y21814D01*
Y20359D01*
X27146Y15347D01*
X27144Y15348D01*
X27049Y15374D01*
X26951D01*
X26856Y15348D01*
X26771Y15299D01*
X26701Y15229D01*
X26652Y15144D01*
X26626Y15049D01*
Y14951D01*
X26652Y14856D01*
X26701Y14771D01*
X26771Y14701D01*
X26856Y14652D01*
X26951Y14626D01*
X27049D01*
X27144Y14652D01*
X27229Y14701D01*
X27299Y14771D01*
X27348Y14856D01*
X27374Y14951D01*
Y15049D01*
X27348Y15144D01*
X27347Y15146D01*
X32357Y20155D01*
X32457Y20114D01*
Y16659D01*
X31146Y15347D01*
X31144Y15348D01*
X31049Y15374D01*
X30951D01*
X30856Y15348D01*
X30771Y15299D01*
X30701Y15229D01*
X30652Y15144D01*
X30626Y15049D01*
Y14951D01*
X30652Y14856D01*
X30701Y14771D01*
X30771Y14701D01*
X30856Y14652D01*
X30951Y14626D01*
X31049D01*
X31144Y14652D01*
X31229Y14701D01*
X31299Y14771D01*
X31348Y14856D01*
X31374Y14951D01*
Y15049D01*
X31348Y15144D01*
X31347Y15146D01*
X32657Y16455D01*
X32757Y16414D01*
Y15959D01*
X32146Y15347D01*
X32144Y15348D01*
X32049Y15374D01*
X31951D01*
X31856Y15348D01*
X31771Y15299D01*
X31701Y15229D01*
X31652Y15144D01*
X31626Y15049D01*
Y14951D01*
X31652Y14856D01*
X31701Y14771D01*
X31771Y14701D01*
X31856Y14652D01*
X31951Y14626D01*
X32049D01*
X32144Y14652D01*
X32229Y14701D01*
X32299Y14771D01*
X32348Y14856D01*
X32374Y14951D01*
Y15049D01*
X32348Y15144D01*
X32347Y15146D01*
X33001Y15799D01*
X33001Y15799D01*
X33032Y15845D01*
X33043Y15900D01*
X33043Y15900D01*
Y25200D01*
X33043Y25200D01*
X33039Y25217D01*
X33131Y25267D01*
X33857Y24541D01*
Y15349D01*
X33856Y15348D01*
X33771Y15299D01*
X33701Y15229D01*
X33652Y15144D01*
X33626Y15049D01*
Y14951D01*
X33652Y14856D01*
X33701Y14771D01*
X33771Y14701D01*
X33856Y14652D01*
X33951Y14626D01*
X34049D01*
X34144Y14652D01*
X34229Y14701D01*
X34299Y14771D01*
X34348Y14856D01*
X34374Y14951D01*
Y15049D01*
X34348Y15144D01*
X34299Y15229D01*
X34229Y15299D01*
X34144Y15348D01*
X34143Y15349D01*
Y24600D01*
X34143Y24600D01*
X34133Y24649D01*
X34137Y24655D01*
X34230Y24694D01*
X37857Y21066D01*
Y15349D01*
X37856Y15348D01*
X37771Y15299D01*
X37701Y15229D01*
X37652Y15144D01*
X37626Y15049D01*
Y14951D01*
X37652Y14856D01*
X37701Y14771D01*
X37771Y14701D01*
X37856Y14652D01*
X37951Y14626D01*
X38049D01*
X38144Y14652D01*
X38229Y14701D01*
X38299Y14771D01*
X38348Y14856D01*
X38374Y14951D01*
Y15049D01*
X38348Y15144D01*
X38299Y15229D01*
X38229Y15299D01*
X38144Y15348D01*
X38143Y15349D01*
Y21125D01*
X38139Y21143D01*
X38231Y21192D01*
X39857Y19566D01*
Y15349D01*
X39856Y15348D01*
X39771Y15299D01*
X39701Y15229D01*
X39652Y15144D01*
X39626Y15049D01*
Y14951D01*
X39652Y14856D01*
X39701Y14771D01*
X39771Y14701D01*
X39856Y14652D01*
X39951Y14626D01*
X40049D01*
X40144Y14652D01*
X40229Y14701D01*
X40299Y14771D01*
X40348Y14856D01*
X40374Y14951D01*
Y15049D01*
X40348Y15144D01*
X40299Y15229D01*
X40229Y15299D01*
X40144Y15348D01*
X40143Y15349D01*
Y19614D01*
X40169Y19635D01*
X40238Y19660D01*
X43857Y16041D01*
Y15349D01*
X43856Y15348D01*
X43771Y15299D01*
X43701Y15229D01*
X43652Y15144D01*
X43626Y15049D01*
Y14951D01*
X43652Y14856D01*
X43701Y14771D01*
X43771Y14701D01*
X43856Y14652D01*
X43951Y14626D01*
X44049D01*
X44144Y14652D01*
X44229Y14701D01*
X44299Y14771D01*
X44348Y14856D01*
X44374Y14951D01*
Y15049D01*
X44348Y15144D01*
X44299Y15229D01*
X44229Y15299D01*
X44144Y15348D01*
X44143Y15349D01*
Y16100D01*
X44143Y16100D01*
X44132Y16155D01*
X44101Y16201D01*
X44101Y16201D01*
X31301Y29001D01*
X31255Y29032D01*
X31200Y29043D01*
X31200Y29043D01*
X27808D01*
X27781Y29070D01*
X27708Y29100D01*
D02*
G37*
G36*
X52840Y28633D02*
X52760D01*
X52687Y28603D01*
X52660Y28576D01*
X48940D01*
X48913Y28603D01*
X48840Y28633D01*
X48760D01*
X48687Y28603D01*
X48630Y28546D01*
X48600Y28473D01*
Y28393D01*
X48630Y28320D01*
X48687Y28264D01*
X48760Y28233D01*
X48840D01*
X48913Y28264D01*
X48940Y28290D01*
X52120D01*
X52167Y28221D01*
Y28134D01*
X52120Y28064D01*
X48940D01*
X48913Y28091D01*
X48840Y28121D01*
X48760D01*
X48687Y28091D01*
X48630Y28035D01*
X48600Y27961D01*
Y27882D01*
X48630Y27808D01*
X48687Y27752D01*
X48760Y27721D01*
X48840D01*
X48913Y27752D01*
X48940Y27779D01*
X52660D01*
X52687Y27752D01*
X52760Y27721D01*
X52840D01*
X52913Y27752D01*
X52970Y27808D01*
X53000Y27882D01*
Y27961D01*
X52970Y28035D01*
X52913Y28091D01*
X52840Y28121D01*
X52760D01*
X52751Y28117D01*
X52653Y28177D01*
X52751Y28237D01*
X52760Y28233D01*
X52840D01*
X52913Y28264D01*
X52970Y28320D01*
X53000Y28393D01*
Y28473D01*
X52970Y28546D01*
X52913Y28603D01*
X52840Y28633D01*
D02*
G37*
G36*
Y27610D02*
X52760D01*
X52687Y27579D01*
X52653Y27545D01*
X48933D01*
X48913Y27565D01*
X48840Y27595D01*
X48760D01*
X48687Y27565D01*
X48630Y27508D01*
X48600Y27435D01*
Y27355D01*
X48630Y27282D01*
X48687Y27226D01*
X48760Y27195D01*
X48840D01*
X48913Y27226D01*
X48947Y27260D01*
X52667D01*
X52687Y27240D01*
X52760Y27210D01*
X52840D01*
X52913Y27240D01*
X52970Y27296D01*
X53000Y27370D01*
Y27449D01*
X52970Y27523D01*
X52913Y27579D01*
X52840Y27610D01*
D02*
G37*
G36*
X16054Y28200D02*
X15975D01*
X15901Y28170D01*
X15874Y28143D01*
X13850D01*
X13795Y28132D01*
X13749Y28101D01*
X13749Y28101D01*
X4748Y19100D01*
X4710D01*
X4637Y19070D01*
X4580Y19013D01*
X4550Y18940D01*
Y18860D01*
X4580Y18787D01*
X4637Y18730D01*
X4710Y18700D01*
X4790D01*
X4863Y18730D01*
X4920Y18787D01*
X4950Y18860D01*
Y18898D01*
X5450Y19398D01*
X5550Y19360D01*
X5580Y19287D01*
X5637Y19230D01*
X5710Y19200D01*
X5790D01*
X5863Y19230D01*
X5920Y19287D01*
X5950Y19360D01*
Y19398D01*
X6450Y19898D01*
X6550Y19860D01*
X6580Y19787D01*
X6637Y19730D01*
X6710Y19700D01*
X6790D01*
X6863Y19730D01*
X6920Y19787D01*
X6950Y19860D01*
Y19898D01*
X7450Y20398D01*
X7550Y20360D01*
X7580Y20287D01*
X7637Y20230D01*
X7710Y20200D01*
X7790D01*
X7863Y20230D01*
X7920Y20287D01*
X7950Y20360D01*
Y20398D01*
X14509Y26957D01*
X16819D01*
X16846Y26930D01*
X16920Y26900D01*
X16999D01*
X17073Y26930D01*
X17129Y26987D01*
X17159Y27060D01*
Y27140D01*
X17129Y27213D01*
X17073Y27270D01*
X16999Y27300D01*
X16920D01*
X16919Y27301D01*
X16844Y27377D01*
Y27440D01*
X16814Y27513D01*
X16758Y27570D01*
X16684Y27600D01*
X16605D01*
X16604Y27601D01*
X16530Y27677D01*
Y27740D01*
X16499Y27813D01*
X16443Y27870D01*
X16369Y27900D01*
X16290D01*
X16289Y27901D01*
X16215Y27977D01*
Y28040D01*
X16184Y28113D01*
X16128Y28170D01*
X16054Y28200D01*
D02*
G37*
G36*
X57917Y25620D02*
X57829D01*
X57748Y25587D01*
X57687Y25525D01*
X57653Y25444D01*
Y25356D01*
X57687Y25275D01*
X57748Y25213D01*
X57829Y25180D01*
X57917D01*
X57998Y25213D01*
X58060Y25275D01*
X58093Y25356D01*
Y25444D01*
X58060Y25525D01*
X57998Y25587D01*
X57917Y25620D01*
D02*
G37*
G36*
X56644D02*
X56556D01*
X56475Y25587D01*
X56413Y25525D01*
X56380Y25444D01*
Y25356D01*
X56413Y25275D01*
X56475Y25213D01*
X56556Y25180D01*
X56644D01*
X56725Y25213D01*
X56787Y25275D01*
X56820Y25356D01*
Y25444D01*
X56787Y25525D01*
X56725Y25587D01*
X56644Y25620D01*
D02*
G37*
G36*
X28347Y25685D02*
X28279D01*
X28213Y25667D01*
X28153Y25633D01*
X28105Y25585D01*
X28071Y25526D01*
X28053Y25459D01*
Y25391D01*
X28071Y25325D01*
X28105Y25266D01*
X28153Y25217D01*
X28213Y25183D01*
X28279Y25165D01*
X28347D01*
X28413Y25183D01*
X28473Y25217D01*
X28521Y25266D01*
X28555Y25325D01*
X28573Y25391D01*
Y25459D01*
X28555Y25526D01*
X28521Y25585D01*
X28473Y25633D01*
X28413Y25667D01*
X28347Y25685D01*
D02*
G37*
G36*
X14774D02*
X14705D01*
X14639Y25667D01*
X14580Y25633D01*
X14532Y25585D01*
X14497Y25526D01*
X14480Y25459D01*
Y25391D01*
X14497Y25325D01*
X14532Y25266D01*
X14580Y25217D01*
X14639Y25183D01*
X14705Y25165D01*
X14774D01*
X14840Y25183D01*
X14899Y25217D01*
X14948Y25266D01*
X14982Y25325D01*
X15000Y25391D01*
Y25459D01*
X14982Y25526D01*
X14948Y25585D01*
X14899Y25633D01*
X14840Y25667D01*
X14774Y25685D01*
D02*
G37*
G36*
X51344Y24420D02*
X51256D01*
X51175Y24387D01*
X51113Y24325D01*
X51080Y24244D01*
Y24156D01*
X51113Y24075D01*
X51175Y24013D01*
X51256Y23980D01*
X51344D01*
X51425Y24013D01*
X51487Y24075D01*
X51520Y24156D01*
Y24244D01*
X51487Y24325D01*
X51425Y24387D01*
X51344Y24420D01*
D02*
G37*
G36*
X48844Y23620D02*
X48756D01*
X48675Y23587D01*
X48613Y23525D01*
X48580Y23444D01*
Y23356D01*
X48613Y23275D01*
X48675Y23213D01*
X48756Y23180D01*
X48844D01*
X48925Y23213D01*
X48987Y23275D01*
X49020Y23356D01*
Y23444D01*
X48987Y23525D01*
X48925Y23587D01*
X48844Y23620D01*
D02*
G37*
G36*
X30468Y24923D02*
X30297D01*
X30129Y24896D01*
X29966Y24843D01*
X29814Y24766D01*
X29676Y24666D01*
X29556Y24545D01*
X29455Y24407D01*
X29378Y24255D01*
X29325Y24092D01*
X29298Y23924D01*
Y23753D01*
X29325Y23585D01*
X29378Y23422D01*
X29455Y23270D01*
X29556Y23132D01*
X29676Y23012D01*
X29814Y22911D01*
X29966Y22834D01*
X30129Y22781D01*
X30297Y22754D01*
X30468D01*
X30637Y22781D01*
X30799Y22834D01*
X30951Y22911D01*
X31089Y23012D01*
X31210Y23132D01*
X31310Y23270D01*
X31387Y23422D01*
X31440Y23585D01*
X31467Y23753D01*
Y23924D01*
X31440Y24092D01*
X31387Y24255D01*
X31310Y24407D01*
X31210Y24545D01*
X31089Y24666D01*
X30951Y24766D01*
X30799Y24843D01*
X30637Y24896D01*
X30468Y24923D01*
D02*
G37*
G36*
X3303D02*
X3132D01*
X2963Y24896D01*
X2801Y24843D01*
X2649Y24766D01*
X2511Y24666D01*
X2390Y24545D01*
X2290Y24407D01*
X2212Y24255D01*
X2160Y24092D01*
X2133Y23924D01*
Y23753D01*
X2160Y23585D01*
X2212Y23422D01*
X2290Y23270D01*
X2390Y23132D01*
X2511Y23012D01*
X2649Y22911D01*
X2801Y22834D01*
X2963Y22781D01*
X3132Y22754D01*
X3303D01*
X3471Y22781D01*
X3634Y22834D01*
X3786Y22911D01*
X3924Y23012D01*
X4044Y23132D01*
X4145Y23270D01*
X4222Y23422D01*
X4275Y23585D01*
X4302Y23753D01*
Y23924D01*
X4275Y24092D01*
X4222Y24255D01*
X4145Y24407D01*
X4044Y24545D01*
X3924Y24666D01*
X3786Y24766D01*
X3634Y24843D01*
X3471Y24896D01*
X3303Y24923D01*
D02*
G37*
G36*
X57337Y24794D02*
X55419D01*
X55367Y24784D01*
X55324Y24755D01*
X54425Y23856D01*
X54396Y23813D01*
X54386Y23761D01*
Y22787D01*
X54245Y22646D01*
X54213Y22677D01*
X54140Y22708D01*
X54060D01*
X53987Y22677D01*
X53930Y22621D01*
X53900Y22547D01*
Y22468D01*
X53930Y22394D01*
X53967Y22357D01*
X53931Y22321D01*
X53900Y22247D01*
Y22168D01*
X53931Y22094D01*
X53968Y22057D01*
X53932Y22021D01*
X53902Y21947D01*
Y21868D01*
X53932Y21794D01*
X53969Y21757D01*
X53933Y21721D01*
X53902Y21647D01*
Y21568D01*
X53933Y21494D01*
X53989Y21438D01*
X54063Y21408D01*
X54142D01*
X54173Y21420D01*
X54269Y21367D01*
X54273Y21362D01*
Y20348D01*
X54283Y20297D01*
X54312Y20253D01*
X54873Y19692D01*
X54917Y19663D01*
X54968Y19653D01*
X57620D01*
X57671Y19663D01*
X57715Y19692D01*
X58213Y20190D01*
X58242Y20234D01*
X58252Y20285D01*
Y20800D01*
X58253D01*
X58326Y20830D01*
X58383Y20886D01*
X58413Y20960D01*
Y21039D01*
X58383Y21113D01*
X58326Y21169D01*
X58253Y21200D01*
X58173D01*
X58100Y21169D01*
X58061Y21131D01*
X58023Y21169D01*
X57950Y21200D01*
X57870D01*
X57820Y21179D01*
X57788Y21172D01*
X57695Y21200D01*
X57431Y21464D01*
X57388Y21493D01*
X57337Y21503D01*
X57304D01*
Y21515D01*
X57269Y21599D01*
X57241Y21628D01*
X57269Y21656D01*
X57304Y21740D01*
Y21830D01*
X57282Y21919D01*
X57325Y21948D01*
X58008Y22630D01*
X58037Y22674D01*
X58047Y22725D01*
Y24083D01*
X58037Y24135D01*
X58008Y24178D01*
X57511Y24675D01*
X57431Y24755D01*
X57388Y24784D01*
X57337Y24794D01*
D02*
G37*
G36*
X52840Y22657D02*
X52760D01*
X52687Y22626D01*
X52660Y22600D01*
X48940D01*
X48913Y22626D01*
X48840Y22657D01*
X48760D01*
X48687Y22626D01*
X48630Y22570D01*
X48600Y22497D01*
Y22417D01*
X48630Y22344D01*
X48687Y22287D01*
X48760Y22257D01*
X48840D01*
X48913Y22287D01*
X48940Y22314D01*
X52107D01*
X52180Y22229D01*
Y22141D01*
X52213Y22060D01*
X52275Y21999D01*
X52356Y21965D01*
X52444D01*
X52525Y21999D01*
X52587Y22060D01*
X52620Y22141D01*
Y22215D01*
X52646Y22243D01*
X52648Y22245D01*
X52708Y22279D01*
X52760Y22257D01*
X52840D01*
X52913Y22287D01*
X52970Y22344D01*
X53000Y22417D01*
Y22497D01*
X52970Y22570D01*
X52913Y22626D01*
X52840Y22657D01*
D02*
G37*
G36*
X15784Y22917D02*
X15716D01*
X15650Y22899D01*
X15590Y22865D01*
X15542Y22817D01*
X15508Y22758D01*
X15490Y22691D01*
Y22623D01*
X15508Y22557D01*
X15517Y22540D01*
X15444Y22467D01*
X15435Y22472D01*
X15369Y22490D01*
X15300D01*
X15234Y22472D01*
X15175Y22438D01*
X15127Y22390D01*
X15092Y22330D01*
X15075Y22264D01*
Y22196D01*
X15092Y22130D01*
X15127Y22070D01*
X15175Y22022D01*
X15234Y21988D01*
X15300Y21970D01*
X15369D01*
X15435Y21988D01*
X15494Y22022D01*
X15543Y22070D01*
X15577Y22130D01*
X15595Y22196D01*
Y22264D01*
X15577Y22330D01*
X15567Y22347D01*
X15640Y22420D01*
X15650Y22415D01*
X15716Y22397D01*
X15784D01*
X15850Y22415D01*
X15910Y22449D01*
X15958Y22498D01*
X15992Y22557D01*
X16010Y22623D01*
Y22691D01*
X15992Y22758D01*
X15958Y22817D01*
X15910Y22865D01*
X15850Y22899D01*
X15784Y22917D01*
D02*
G37*
G36*
X52840Y21633D02*
X52760D01*
X52687Y21603D01*
X52660Y21576D01*
X48940D01*
X48913Y21603D01*
X48840Y21633D01*
X48760D01*
X48687Y21603D01*
X48630Y21546D01*
X48600Y21473D01*
Y21393D01*
X48630Y21320D01*
X48687Y21264D01*
X48760Y21233D01*
X48840D01*
X48913Y21264D01*
X48940Y21290D01*
X52120D01*
X52167Y21221D01*
Y21134D01*
X52120Y21064D01*
X48940D01*
X48913Y21091D01*
X48840Y21121D01*
X48760D01*
X48687Y21091D01*
X48630Y21035D01*
X48600Y20961D01*
Y20882D01*
X48630Y20808D01*
X48687Y20752D01*
X48760Y20721D01*
X48840D01*
X48913Y20752D01*
X48940Y20779D01*
X52660D01*
X52687Y20752D01*
X52760Y20721D01*
X52840D01*
X52913Y20752D01*
X52970Y20808D01*
X53000Y20882D01*
Y20961D01*
X52970Y21035D01*
X52913Y21091D01*
X52840Y21121D01*
X52760D01*
X52751Y21117D01*
X52653Y21177D01*
X52751Y21237D01*
X52760Y21233D01*
X52840D01*
X52913Y21264D01*
X52970Y21320D01*
X53000Y21393D01*
Y21473D01*
X52970Y21546D01*
X52913Y21603D01*
X52840Y21633D01*
D02*
G37*
G36*
Y20610D02*
X52760D01*
X52687Y20579D01*
X52653Y20545D01*
X48933D01*
X48913Y20565D01*
X48840Y20595D01*
X48760D01*
X48687Y20565D01*
X48630Y20508D01*
X48600Y20435D01*
Y20355D01*
X48630Y20282D01*
X48687Y20226D01*
X48760Y20195D01*
X48840D01*
X48913Y20226D01*
X48947Y20260D01*
X52667D01*
X52687Y20240D01*
X52760Y20210D01*
X52840D01*
X52913Y20240D01*
X52970Y20296D01*
X53000Y20370D01*
Y20449D01*
X52970Y20523D01*
X52913Y20579D01*
X52840Y20610D01*
D02*
G37*
G36*
X57917Y18620D02*
X57829D01*
X57748Y18587D01*
X57687Y18525D01*
X57653Y18444D01*
Y18356D01*
X57687Y18275D01*
X57748Y18213D01*
X57829Y18180D01*
X57917D01*
X57998Y18213D01*
X58060Y18275D01*
X58093Y18356D01*
Y18444D01*
X58060Y18525D01*
X57998Y18587D01*
X57917Y18620D01*
D02*
G37*
G36*
X56644D02*
X56556D01*
X56475Y18587D01*
X56413Y18525D01*
X56380Y18444D01*
Y18356D01*
X56413Y18275D01*
X56475Y18213D01*
X56556Y18180D01*
X56644D01*
X56725Y18213D01*
X56787Y18275D01*
X56820Y18356D01*
Y18444D01*
X56787Y18525D01*
X56725Y18587D01*
X56644Y18620D01*
D02*
G37*
G36*
X26763Y24261D02*
X26683D01*
X26610Y24230D01*
X26554Y24174D01*
X26523Y24101D01*
Y24021D01*
X26554Y23948D01*
X26580Y23921D01*
Y17882D01*
X25695Y16997D01*
X25603Y17046D01*
X25606Y17063D01*
X25606Y17063D01*
Y23921D01*
X25633Y23948D01*
X25663Y24021D01*
Y24101D01*
X25633Y24174D01*
X25577Y24230D01*
X25503Y24261D01*
X25424D01*
X25350Y24230D01*
X25294Y24174D01*
X25263Y24101D01*
Y24021D01*
X25294Y23948D01*
X25321Y23921D01*
Y17123D01*
X25052Y16854D01*
X24970Y16913D01*
X24976Y16945D01*
Y23921D01*
X25003Y23948D01*
X25033Y24021D01*
Y24101D01*
X25003Y24174D01*
X24947Y24230D01*
X24873Y24261D01*
X24794D01*
X24720Y24230D01*
X24664Y24174D01*
X24633Y24101D01*
Y24021D01*
X24664Y23948D01*
X24691Y23921D01*
Y17004D01*
X23599Y15912D01*
X23568Y15866D01*
X23557Y15811D01*
X23557Y15811D01*
Y13400D01*
X23557Y13400D01*
X23561Y13383D01*
X23469Y13333D01*
X23401Y13400D01*
Y23921D01*
X23428Y23948D01*
X23459Y24021D01*
Y24101D01*
X23428Y24174D01*
X23372Y24230D01*
X23298Y24261D01*
X23219D01*
X23145Y24230D01*
X23089Y24174D01*
X23059Y24101D01*
Y24021D01*
X23083Y23961D01*
X23080Y23926D01*
X23078Y23921D01*
X23075Y23918D01*
X22962Y23900D01*
X22800Y24063D01*
Y24101D01*
X22770Y24174D01*
X22713Y24230D01*
X22640Y24261D01*
X22560D01*
X22487Y24230D01*
X22430Y24174D01*
X22400Y24101D01*
Y24021D01*
X22430Y23948D01*
X22487Y23891D01*
X22560Y23861D01*
X22598D01*
X22757Y23702D01*
Y13200D01*
X22757Y13200D01*
X22768Y13145D01*
X22799Y13099D01*
X24499Y11399D01*
X24545Y11368D01*
X24600Y11357D01*
X24600Y11357D01*
X27860D01*
X27887Y11330D01*
X27960Y11300D01*
X28040D01*
X28113Y11330D01*
X28170Y11387D01*
X28200Y11460D01*
Y11540D01*
X28193Y11557D01*
X28256Y11657D01*
X29860D01*
X29887Y11630D01*
X29960Y11600D01*
X30040D01*
X30113Y11630D01*
X30170Y11687D01*
X30200Y11760D01*
Y11840D01*
X30193Y11857D01*
X30256Y11957D01*
X34860D01*
X34887Y11930D01*
X34960Y11900D01*
X35040D01*
X35113Y11930D01*
X35170Y11987D01*
X35200Y12060D01*
Y12140D01*
X35193Y12157D01*
X35256Y12257D01*
X36860D01*
X36887Y12230D01*
X36960Y12200D01*
X37040D01*
X37113Y12230D01*
X37170Y12287D01*
X37200Y12360D01*
Y12440D01*
X37193Y12457D01*
X37256Y12557D01*
X40860D01*
X40887Y12530D01*
X40960Y12500D01*
X41040D01*
X41113Y12530D01*
X41170Y12587D01*
X41200Y12660D01*
Y12740D01*
X41170Y12813D01*
X41113Y12870D01*
X41040Y12900D01*
X40960D01*
X40887Y12870D01*
X40860Y12843D01*
X25459D01*
X24443Y13859D01*
Y15341D01*
X26824Y17722D01*
X26824Y17722D01*
X26855Y17769D01*
X26866Y17823D01*
X26866Y17823D01*
Y23921D01*
X26893Y23948D01*
X26923Y24021D01*
Y24101D01*
X26893Y24174D01*
X26837Y24230D01*
X26763Y24261D01*
D02*
G37*
G36*
X51344Y17420D02*
X51256D01*
X51175Y17387D01*
X51113Y17325D01*
X51080Y17244D01*
Y17156D01*
X51113Y17075D01*
X51175Y17013D01*
X51256Y16980D01*
X51344D01*
X51425Y17013D01*
X51487Y17075D01*
X51520Y17156D01*
Y17244D01*
X51487Y17325D01*
X51425Y17387D01*
X51344Y17420D01*
D02*
G37*
G36*
X48844Y16620D02*
X48756D01*
X48675Y16587D01*
X48613Y16525D01*
X48580Y16444D01*
Y16356D01*
X48613Y16275D01*
X48675Y16213D01*
X48756Y16180D01*
X48844D01*
X48925Y16213D01*
X48987Y16275D01*
X49020Y16356D01*
Y16444D01*
X48987Y16525D01*
X48925Y16587D01*
X48844Y16620D01*
D02*
G37*
G36*
X57337Y17794D02*
X55419D01*
X55367Y17784D01*
X55324Y17755D01*
X54425Y16856D01*
X54396Y16813D01*
X54386Y16761D01*
Y15787D01*
X54245Y15646D01*
X54213Y15677D01*
X54140Y15708D01*
X54060D01*
X53987Y15677D01*
X53930Y15621D01*
X53900Y15547D01*
Y15468D01*
X53930Y15394D01*
X53967Y15357D01*
X53931Y15321D01*
X53900Y15247D01*
Y15168D01*
X53931Y15094D01*
X53968Y15057D01*
X53932Y15021D01*
X53902Y14947D01*
Y14868D01*
X53932Y14794D01*
X53969Y14757D01*
X53933Y14721D01*
X53902Y14647D01*
Y14568D01*
X53933Y14494D01*
X53989Y14438D01*
X54063Y14408D01*
X54142D01*
X54173Y14420D01*
X54269Y14367D01*
X54273Y14362D01*
Y13348D01*
X54283Y13297D01*
X54312Y13253D01*
X54873Y12692D01*
X54917Y12663D01*
X54968Y12653D01*
X57620D01*
X57671Y12663D01*
X57715Y12692D01*
X58213Y13190D01*
X58242Y13234D01*
X58252Y13285D01*
Y13800D01*
X58253D01*
X58326Y13830D01*
X58383Y13886D01*
X58413Y13960D01*
Y14039D01*
X58383Y14113D01*
X58326Y14169D01*
X58253Y14200D01*
X58173D01*
X58100Y14169D01*
X58061Y14131D01*
X58023Y14169D01*
X57950Y14200D01*
X57870D01*
X57820Y14179D01*
X57788Y14172D01*
X57695Y14200D01*
X57431Y14464D01*
X57388Y14493D01*
X57337Y14503D01*
X57304D01*
Y14515D01*
X57269Y14599D01*
X57241Y14628D01*
X57269Y14656D01*
X57304Y14740D01*
Y14830D01*
X57282Y14919D01*
X57325Y14948D01*
X58008Y15630D01*
X58037Y15674D01*
X58047Y15725D01*
Y17083D01*
X58037Y17135D01*
X58008Y17178D01*
X57511Y17675D01*
X57431Y17755D01*
X57388Y17784D01*
X57337Y17794D01*
D02*
G37*
G36*
X52840Y15657D02*
X52760D01*
X52687Y15626D01*
X52660Y15600D01*
X48940D01*
X48913Y15626D01*
X48840Y15657D01*
X48760D01*
X48687Y15626D01*
X48630Y15570D01*
X48600Y15497D01*
Y15417D01*
X48630Y15344D01*
X48687Y15287D01*
X48760Y15257D01*
X48840D01*
X48913Y15287D01*
X48940Y15314D01*
X52107D01*
X52180Y15229D01*
Y15141D01*
X52213Y15060D01*
X52275Y14999D01*
X52356Y14965D01*
X52444D01*
X52525Y14999D01*
X52587Y15060D01*
X52620Y15141D01*
Y15215D01*
X52646Y15243D01*
X52648Y15245D01*
X52708Y15279D01*
X52760Y15257D01*
X52840D01*
X52913Y15287D01*
X52970Y15344D01*
X53000Y15417D01*
Y15497D01*
X52970Y15570D01*
X52913Y15626D01*
X52840Y15657D01*
D02*
G37*
G36*
X35050Y15353D02*
Y15050D01*
X35353D01*
X35330Y15136D01*
X35283Y15217D01*
X35217Y15283D01*
X35136Y15330D01*
X35050Y15353D01*
D02*
G37*
G36*
X30050D02*
Y15050D01*
X30353D01*
X30330Y15136D01*
X30283Y15217D01*
X30217Y15283D01*
X30136Y15330D01*
X30050Y15353D01*
D02*
G37*
G36*
X28050D02*
Y15050D01*
X28353D01*
X28330Y15136D01*
X28283Y15217D01*
X28217Y15283D01*
X28136Y15330D01*
X28050Y15353D01*
D02*
G37*
G36*
X43050D02*
Y15050D01*
X43353D01*
X43330Y15136D01*
X43283Y15217D01*
X43217Y15283D01*
X43136Y15330D01*
X43050Y15353D01*
D02*
G37*
G36*
X42050D02*
Y15050D01*
X42353D01*
X42330Y15136D01*
X42283Y15217D01*
X42217Y15283D01*
X42136Y15330D01*
X42050Y15353D01*
D02*
G37*
G36*
X41050D02*
Y15050D01*
X41353D01*
X41330Y15136D01*
X41283Y15217D01*
X41217Y15283D01*
X41136Y15330D01*
X41050Y15353D01*
D02*
G37*
G36*
X37050D02*
Y15050D01*
X37353D01*
X37330Y15136D01*
X37283Y15217D01*
X37217Y15283D01*
X37136Y15330D01*
X37050Y15353D01*
D02*
G37*
G36*
X36050D02*
Y15050D01*
X36353D01*
X36330Y15136D01*
X36283Y15217D01*
X36217Y15283D01*
X36136Y15330D01*
X36050Y15353D01*
D02*
G37*
G36*
X33050D02*
Y15050D01*
X33353D01*
X33330Y15136D01*
X33283Y15217D01*
X33217Y15283D01*
X33136Y15330D01*
X33050Y15353D01*
D02*
G37*
G36*
X26050D02*
Y15050D01*
X26353D01*
X26330Y15136D01*
X26283Y15217D01*
X26217Y15283D01*
X26136Y15330D01*
X26050Y15353D01*
D02*
G37*
G36*
X3104Y15354D02*
X2800D01*
Y15050D01*
X3104D01*
Y15354D01*
D02*
G37*
G36*
X39050Y15353D02*
Y15050D01*
X39353D01*
X39330Y15136D01*
X39283Y15217D01*
X39217Y15283D01*
X39136Y15330D01*
X39050Y15353D01*
D02*
G37*
G36*
X29050D02*
Y15050D01*
X29353D01*
X29330Y15136D01*
X29283Y15217D01*
X29217Y15283D01*
X29136Y15330D01*
X29050Y15353D01*
D02*
G37*
G36*
X8800D02*
Y15050D01*
X9103D01*
X9080Y15136D01*
X9033Y15217D01*
X8967Y15283D01*
X8886Y15330D01*
X8800Y15353D01*
D02*
G37*
G36*
X34950D02*
X34864Y15330D01*
X34783Y15283D01*
X34717Y15217D01*
X34670Y15136D01*
X34647Y15050D01*
X34950D01*
Y15353D01*
D02*
G37*
G36*
X29950D02*
X29864Y15330D01*
X29783Y15283D01*
X29717Y15217D01*
X29670Y15136D01*
X29647Y15050D01*
X29950D01*
Y15353D01*
D02*
G37*
G36*
X27950D02*
X27864Y15330D01*
X27783Y15283D01*
X27717Y15217D01*
X27670Y15136D01*
X27647Y15050D01*
X27950D01*
Y15353D01*
D02*
G37*
G36*
X42950D02*
X42864Y15330D01*
X42783Y15283D01*
X42717Y15217D01*
X42670Y15136D01*
X42647Y15050D01*
X42950D01*
Y15353D01*
D02*
G37*
G36*
X32950D02*
X32864Y15330D01*
X32783Y15283D01*
X32717Y15217D01*
X32670Y15136D01*
X32647Y15050D01*
X32950D01*
Y15353D01*
D02*
G37*
G36*
X41950D02*
X41864Y15330D01*
X41783Y15283D01*
X41717Y15217D01*
X41670Y15136D01*
X41647Y15050D01*
X41950D01*
Y15353D01*
D02*
G37*
G36*
X40950D02*
X40864Y15330D01*
X40783Y15283D01*
X40717Y15217D01*
X40670Y15136D01*
X40647Y15050D01*
X40950D01*
Y15353D01*
D02*
G37*
G36*
X36950D02*
X36864Y15330D01*
X36783Y15283D01*
X36717Y15217D01*
X36670Y15136D01*
X36647Y15050D01*
X36950D01*
Y15353D01*
D02*
G37*
G36*
X35950D02*
X35864Y15330D01*
X35783Y15283D01*
X35717Y15217D01*
X35670Y15136D01*
X35647Y15050D01*
X35950D01*
Y15353D01*
D02*
G37*
G36*
X25950D02*
X25864Y15330D01*
X25783Y15283D01*
X25717Y15217D01*
X25670Y15136D01*
X25647Y15050D01*
X25950D01*
Y15353D01*
D02*
G37*
G36*
X38950D02*
X38864Y15330D01*
X38783Y15283D01*
X38717Y15217D01*
X38670Y15136D01*
X38647Y15050D01*
X38950D01*
Y15353D01*
D02*
G37*
G36*
X28950D02*
X28864Y15330D01*
X28783Y15283D01*
X28717Y15217D01*
X28670Y15136D01*
X28647Y15050D01*
X28950D01*
Y15353D01*
D02*
G37*
G36*
X2700Y15354D02*
X2396D01*
Y15050D01*
X2700D01*
Y15354D01*
D02*
G37*
G36*
X43353Y14950D02*
X43050D01*
Y14647D01*
X43136Y14670D01*
X43217Y14717D01*
X43283Y14783D01*
X43330Y14864D01*
X43353Y14950D01*
D02*
G37*
G36*
X42353D02*
X42050D01*
Y14647D01*
X42136Y14670D01*
X42217Y14717D01*
X42283Y14783D01*
X42330Y14864D01*
X42353Y14950D01*
D02*
G37*
G36*
X41353D02*
X41050D01*
Y14647D01*
X41136Y14670D01*
X41217Y14717D01*
X41283Y14783D01*
X41330Y14864D01*
X41353Y14950D01*
D02*
G37*
G36*
X39353D02*
X39050D01*
Y14647D01*
X39136Y14670D01*
X39217Y14717D01*
X39283Y14783D01*
X39330Y14864D01*
X39353Y14950D01*
D02*
G37*
G36*
X37353D02*
X37050D01*
Y14647D01*
X37136Y14670D01*
X37217Y14717D01*
X37283Y14783D01*
X37330Y14864D01*
X37353Y14950D01*
D02*
G37*
G36*
X36353D02*
X36050D01*
Y14647D01*
X36136Y14670D01*
X36217Y14717D01*
X36283Y14783D01*
X36330Y14864D01*
X36353Y14950D01*
D02*
G37*
G36*
X35353D02*
X35050D01*
Y14647D01*
X35136Y14670D01*
X35217Y14717D01*
X35283Y14783D01*
X35330Y14864D01*
X35353Y14950D01*
D02*
G37*
G36*
X33353D02*
X33050D01*
Y14647D01*
X33136Y14670D01*
X33217Y14717D01*
X33283Y14783D01*
X33330Y14864D01*
X33353Y14950D01*
D02*
G37*
G36*
X30353D02*
X30050D01*
Y14647D01*
X30136Y14670D01*
X30217Y14717D01*
X30283Y14783D01*
X30330Y14864D01*
X30353Y14950D01*
D02*
G37*
G36*
X29353D02*
X29050D01*
Y14647D01*
X29136Y14670D01*
X29217Y14717D01*
X29283Y14783D01*
X29330Y14864D01*
X29353Y14950D01*
D02*
G37*
G36*
X28353D02*
X28050D01*
Y14647D01*
X28136Y14670D01*
X28217Y14717D01*
X28283Y14783D01*
X28330Y14864D01*
X28353Y14950D01*
D02*
G37*
G36*
X26353D02*
X26050D01*
Y14647D01*
X26136Y14670D01*
X26217Y14717D01*
X26283Y14783D01*
X26330Y14864D01*
X26353Y14950D01*
D02*
G37*
G36*
X9103D02*
X8800D01*
Y14647D01*
X8886Y14670D01*
X8967Y14717D01*
X9033Y14783D01*
X9080Y14864D01*
X9103Y14950D01*
D02*
G37*
G36*
X42950D02*
X42647D01*
X42670Y14864D01*
X42717Y14783D01*
X42783Y14717D01*
X42864Y14670D01*
X42950Y14647D01*
Y14950D01*
D02*
G37*
G36*
X41950D02*
X41647D01*
X41670Y14864D01*
X41717Y14783D01*
X41783Y14717D01*
X41864Y14670D01*
X41950Y14647D01*
Y14950D01*
D02*
G37*
G36*
X40950D02*
X40647D01*
X40670Y14864D01*
X40717Y14783D01*
X40783Y14717D01*
X40864Y14670D01*
X40950Y14647D01*
Y14950D01*
D02*
G37*
G36*
X38950D02*
X38647D01*
X38670Y14864D01*
X38717Y14783D01*
X38783Y14717D01*
X38864Y14670D01*
X38950Y14647D01*
Y14950D01*
D02*
G37*
G36*
X36950D02*
X36647D01*
X36670Y14864D01*
X36717Y14783D01*
X36783Y14717D01*
X36864Y14670D01*
X36950Y14647D01*
Y14950D01*
D02*
G37*
G36*
X35950D02*
X35647D01*
X35670Y14864D01*
X35717Y14783D01*
X35783Y14717D01*
X35864Y14670D01*
X35950Y14647D01*
Y14950D01*
D02*
G37*
G36*
X34950D02*
X34647D01*
X34670Y14864D01*
X34717Y14783D01*
X34783Y14717D01*
X34864Y14670D01*
X34950Y14647D01*
Y14950D01*
D02*
G37*
G36*
X32950D02*
X32647D01*
X32670Y14864D01*
X32717Y14783D01*
X32783Y14717D01*
X32864Y14670D01*
X32950Y14647D01*
Y14950D01*
D02*
G37*
G36*
X29950D02*
X29647D01*
X29670Y14864D01*
X29717Y14783D01*
X29783Y14717D01*
X29864Y14670D01*
X29950Y14647D01*
Y14950D01*
D02*
G37*
G36*
X28950D02*
X28647D01*
X28670Y14864D01*
X28717Y14783D01*
X28783Y14717D01*
X28864Y14670D01*
X28950Y14647D01*
Y14950D01*
D02*
G37*
G36*
X27950D02*
X27647D01*
X27670Y14864D01*
X27717Y14783D01*
X27783Y14717D01*
X27864Y14670D01*
X27950Y14647D01*
Y14950D01*
D02*
G37*
G36*
X25950D02*
X25647D01*
X25670Y14864D01*
X25717Y14783D01*
X25783Y14717D01*
X25864Y14670D01*
X25950Y14647D01*
Y14950D01*
D02*
G37*
G36*
X3104D02*
X2800D01*
Y14646D01*
X3104D01*
Y14950D01*
D02*
G37*
G36*
X2700D02*
X2396D01*
Y14646D01*
X2700D01*
Y14950D01*
D02*
G37*
G36*
X20799Y15374D02*
X20701D01*
X20606Y15348D01*
X20521Y15299D01*
X20451Y15229D01*
X20402Y15144D01*
X20376Y15049D01*
Y14951D01*
X20402Y14856D01*
X20451Y14771D01*
X20521Y14701D01*
X20606Y14652D01*
X20701Y14626D01*
X20799D01*
X20894Y14652D01*
X20979Y14701D01*
X21049Y14771D01*
X21098Y14856D01*
X21124Y14951D01*
Y15049D01*
X21098Y15144D01*
X21049Y15229D01*
X20979Y15299D01*
X20894Y15348D01*
X20799Y15374D01*
D02*
G37*
G36*
X9799D02*
X9701D01*
X9606Y15348D01*
X9521Y15299D01*
X9451Y15229D01*
X9402Y15144D01*
X9376Y15049D01*
Y14951D01*
X9402Y14856D01*
X9451Y14771D01*
X9521Y14701D01*
X9606Y14652D01*
X9701Y14626D01*
X9799D01*
X9894Y14652D01*
X9979Y14701D01*
X10049Y14771D01*
X10098Y14856D01*
X10124Y14951D01*
Y15049D01*
X10098Y15144D01*
X10049Y15229D01*
X9979Y15299D01*
X9894Y15348D01*
X9799Y15374D01*
D02*
G37*
G36*
X4799D02*
X4701D01*
X4606Y15348D01*
X4521Y15299D01*
X4451Y15229D01*
X4402Y15144D01*
X4376Y15049D01*
Y14951D01*
X4402Y14856D01*
X4451Y14771D01*
X4521Y14701D01*
X4606Y14652D01*
X4701Y14626D01*
X4799D01*
X4894Y14652D01*
X4979Y14701D01*
X5049Y14771D01*
X5098Y14856D01*
X5124Y14951D01*
Y15049D01*
X5098Y15144D01*
X5049Y15229D01*
X4979Y15299D01*
X4894Y15348D01*
X4799Y15374D01*
D02*
G37*
G36*
X3799D02*
X3701D01*
X3606Y15348D01*
X3521Y15299D01*
X3451Y15229D01*
X3402Y15144D01*
X3376Y15049D01*
Y14951D01*
X3402Y14856D01*
X3451Y14771D01*
X3521Y14701D01*
X3606Y14652D01*
X3701Y14626D01*
X3799D01*
X3894Y14652D01*
X3979Y14701D01*
X4049Y14771D01*
X4098Y14856D01*
X4124Y14951D01*
Y15049D01*
X4098Y15144D01*
X4049Y15229D01*
X3979Y15299D01*
X3894Y15348D01*
X3799Y15374D01*
D02*
G37*
G36*
X52840Y14633D02*
X52760D01*
X52687Y14603D01*
X52660Y14576D01*
X48940D01*
X48913Y14603D01*
X48840Y14633D01*
X48760D01*
X48687Y14603D01*
X48630Y14546D01*
X48600Y14473D01*
Y14393D01*
X48630Y14320D01*
X48687Y14264D01*
X48760Y14233D01*
X48840D01*
X48913Y14264D01*
X48940Y14290D01*
X52120D01*
X52167Y14221D01*
Y14134D01*
X52120Y14064D01*
X48940D01*
X48913Y14091D01*
X48840Y14121D01*
X48760D01*
X48687Y14091D01*
X48630Y14035D01*
X48600Y13961D01*
Y13882D01*
X48630Y13808D01*
X48687Y13752D01*
X48760Y13721D01*
X48840D01*
X48913Y13752D01*
X48940Y13779D01*
X52660D01*
X52687Y13752D01*
X52760Y13721D01*
X52840D01*
X52913Y13752D01*
X52970Y13808D01*
X53000Y13882D01*
Y13961D01*
X52970Y14035D01*
X52913Y14091D01*
X52840Y14121D01*
X52760D01*
X52751Y14117D01*
X52653Y14177D01*
X52751Y14237D01*
X52760Y14233D01*
X52840D01*
X52913Y14264D01*
X52970Y14320D01*
X53000Y14393D01*
Y14473D01*
X52970Y14546D01*
X52913Y14603D01*
X52840Y14633D01*
D02*
G37*
G36*
X40050Y14353D02*
Y14050D01*
X40353D01*
X40330Y14136D01*
X40283Y14217D01*
X40217Y14283D01*
X40136Y14330D01*
X40050Y14353D01*
D02*
G37*
G36*
X25050D02*
Y14050D01*
X25353D01*
X25330Y14136D01*
X25283Y14217D01*
X25217Y14283D01*
X25136Y14330D01*
X25050Y14353D01*
D02*
G37*
G36*
X19800D02*
Y14050D01*
X20103D01*
X20080Y14136D01*
X20033Y14217D01*
X19967Y14283D01*
X19886Y14330D01*
X19800Y14353D01*
D02*
G37*
G36*
X9800D02*
Y14050D01*
X10103D01*
X10080Y14136D01*
X10033Y14217D01*
X9967Y14283D01*
X9886Y14330D01*
X9800Y14353D01*
D02*
G37*
G36*
X43050D02*
Y14050D01*
X43353D01*
X43330Y14136D01*
X43283Y14217D01*
X43217Y14283D01*
X43136Y14330D01*
X43050Y14353D01*
D02*
G37*
G36*
X42050D02*
Y14050D01*
X42353D01*
X42330Y14136D01*
X42283Y14217D01*
X42217Y14283D01*
X42136Y14330D01*
X42050Y14353D01*
D02*
G37*
G36*
X38050D02*
Y14050D01*
X38353D01*
X38330Y14136D01*
X38283Y14217D01*
X38217Y14283D01*
X38136Y14330D01*
X38050Y14353D01*
D02*
G37*
G36*
X36050D02*
Y14050D01*
X36353D01*
X36330Y14136D01*
X36283Y14217D01*
X36217Y14283D01*
X36136Y14330D01*
X36050Y14353D01*
D02*
G37*
G36*
X33050D02*
Y14050D01*
X33353D01*
X33330Y14136D01*
X33283Y14217D01*
X33217Y14283D01*
X33136Y14330D01*
X33050Y14353D01*
D02*
G37*
G36*
X32050D02*
Y14050D01*
X32353D01*
X32330Y14136D01*
X32283Y14217D01*
X32217Y14283D01*
X32136Y14330D01*
X32050Y14353D01*
D02*
G37*
G36*
X31050D02*
Y14050D01*
X31353D01*
X31330Y14136D01*
X31283Y14217D01*
X31217Y14283D01*
X31136Y14330D01*
X31050Y14353D01*
D02*
G37*
G36*
X27050D02*
Y14050D01*
X27353D01*
X27330Y14136D01*
X27283Y14217D01*
X27217Y14283D01*
X27136Y14330D01*
X27050Y14353D01*
D02*
G37*
G36*
X26050D02*
Y14050D01*
X26353D01*
X26330Y14136D01*
X26283Y14217D01*
X26217Y14283D01*
X26136Y14330D01*
X26050Y14353D01*
D02*
G37*
G36*
X17800D02*
Y14050D01*
X18103D01*
X18080Y14136D01*
X18033Y14217D01*
X17967Y14283D01*
X17886Y14330D01*
X17800Y14353D01*
D02*
G37*
G36*
X16800D02*
Y14050D01*
X17103D01*
X17080Y14136D01*
X17033Y14217D01*
X16967Y14283D01*
X16886Y14330D01*
X16800Y14353D01*
D02*
G37*
G36*
X13800D02*
Y14050D01*
X14103D01*
X14080Y14136D01*
X14033Y14217D01*
X13967Y14283D01*
X13886Y14330D01*
X13800Y14353D01*
D02*
G37*
G36*
X11800D02*
Y14050D01*
X12103D01*
X12080Y14136D01*
X12033Y14217D01*
X11967Y14283D01*
X11886Y14330D01*
X11800Y14353D01*
D02*
G37*
G36*
X44050D02*
Y14050D01*
X44353D01*
X44330Y14136D01*
X44283Y14217D01*
X44217Y14283D01*
X44136Y14330D01*
X44050Y14353D01*
D02*
G37*
G36*
X39050D02*
Y14050D01*
X39353D01*
X39330Y14136D01*
X39283Y14217D01*
X39217Y14283D01*
X39136Y14330D01*
X39050Y14353D01*
D02*
G37*
G36*
X34050D02*
Y14050D01*
X34353D01*
X34330Y14136D01*
X34283Y14217D01*
X34217Y14283D01*
X34136Y14330D01*
X34050Y14353D01*
D02*
G37*
G36*
X29050D02*
Y14050D01*
X29353D01*
X29330Y14136D01*
X29283Y14217D01*
X29217Y14283D01*
X29136Y14330D01*
X29050Y14353D01*
D02*
G37*
G36*
X20800D02*
Y14050D01*
X21103D01*
X21080Y14136D01*
X21033Y14217D01*
X20967Y14283D01*
X20886Y14330D01*
X20800Y14353D01*
D02*
G37*
G36*
X15800D02*
Y14050D01*
X16103D01*
X16080Y14136D01*
X16033Y14217D01*
X15967Y14283D01*
X15886Y14330D01*
X15800Y14353D01*
D02*
G37*
G36*
X10800D02*
Y14050D01*
X11103D01*
X11080Y14136D01*
X11033Y14217D01*
X10967Y14283D01*
X10886Y14330D01*
X10800Y14353D01*
D02*
G37*
G36*
X8800D02*
Y14050D01*
X9103D01*
X9080Y14136D01*
X9033Y14217D01*
X8967Y14283D01*
X8886Y14330D01*
X8800Y14353D01*
D02*
G37*
G36*
X24950D02*
X24864Y14330D01*
X24783Y14283D01*
X24717Y14217D01*
X24670Y14136D01*
X24647Y14050D01*
X24950D01*
Y14353D01*
D02*
G37*
G36*
X39950D02*
X39864Y14330D01*
X39783Y14283D01*
X39717Y14217D01*
X39670Y14136D01*
X39647Y14050D01*
X39950D01*
Y14353D01*
D02*
G37*
G36*
X19700D02*
X19614Y14330D01*
X19533Y14283D01*
X19467Y14217D01*
X19420Y14136D01*
X19397Y14050D01*
X19700D01*
Y14353D01*
D02*
G37*
G36*
X9700D02*
X9614Y14330D01*
X9533Y14283D01*
X9467Y14217D01*
X9420Y14136D01*
X9397Y14050D01*
X9700D01*
Y14353D01*
D02*
G37*
G36*
X42950D02*
X42864Y14330D01*
X42783Y14283D01*
X42717Y14217D01*
X42670Y14136D01*
X42647Y14050D01*
X42950D01*
Y14353D01*
D02*
G37*
G36*
X37950D02*
X37864Y14330D01*
X37783Y14283D01*
X37717Y14217D01*
X37670Y14136D01*
X37647Y14050D01*
X37950D01*
Y14353D01*
D02*
G37*
G36*
X32950D02*
X32864Y14330D01*
X32783Y14283D01*
X32717Y14217D01*
X32670Y14136D01*
X32647Y14050D01*
X32950D01*
Y14353D01*
D02*
G37*
G36*
X13700D02*
X13614Y14330D01*
X13533Y14283D01*
X13467Y14217D01*
X13420Y14136D01*
X13397Y14050D01*
X13700D01*
Y14353D01*
D02*
G37*
G36*
X41950D02*
X41864Y14330D01*
X41783Y14283D01*
X41717Y14217D01*
X41670Y14136D01*
X41647Y14050D01*
X41950D01*
Y14353D01*
D02*
G37*
G36*
X35950D02*
X35864Y14330D01*
X35783Y14283D01*
X35717Y14217D01*
X35670Y14136D01*
X35647Y14050D01*
X35950D01*
Y14353D01*
D02*
G37*
G36*
X31950D02*
X31864Y14330D01*
X31783Y14283D01*
X31717Y14217D01*
X31670Y14136D01*
X31647Y14050D01*
X31950D01*
Y14353D01*
D02*
G37*
G36*
X30950D02*
X30864Y14330D01*
X30783Y14283D01*
X30717Y14217D01*
X30670Y14136D01*
X30647Y14050D01*
X30950D01*
Y14353D01*
D02*
G37*
G36*
X26950D02*
X26864Y14330D01*
X26783Y14283D01*
X26717Y14217D01*
X26670Y14136D01*
X26647Y14050D01*
X26950D01*
Y14353D01*
D02*
G37*
G36*
X25950D02*
X25864Y14330D01*
X25783Y14283D01*
X25717Y14217D01*
X25670Y14136D01*
X25647Y14050D01*
X25950D01*
Y14353D01*
D02*
G37*
G36*
X17700D02*
X17614Y14330D01*
X17533Y14283D01*
X17467Y14217D01*
X17420Y14136D01*
X17397Y14050D01*
X17700D01*
Y14353D01*
D02*
G37*
G36*
X16700D02*
X16614Y14330D01*
X16533Y14283D01*
X16467Y14217D01*
X16420Y14136D01*
X16397Y14050D01*
X16700D01*
Y14353D01*
D02*
G37*
G36*
X11700D02*
X11614Y14330D01*
X11533Y14283D01*
X11467Y14217D01*
X11420Y14136D01*
X11397Y14050D01*
X11700D01*
Y14353D01*
D02*
G37*
G36*
X43950D02*
X43864Y14330D01*
X43783Y14283D01*
X43717Y14217D01*
X43670Y14136D01*
X43647Y14050D01*
X43950D01*
Y14353D01*
D02*
G37*
G36*
X38950D02*
X38864Y14330D01*
X38783Y14283D01*
X38717Y14217D01*
X38670Y14136D01*
X38647Y14050D01*
X38950D01*
Y14353D01*
D02*
G37*
G36*
X33950D02*
X33864Y14330D01*
X33783Y14283D01*
X33717Y14217D01*
X33670Y14136D01*
X33647Y14050D01*
X33950D01*
Y14353D01*
D02*
G37*
G36*
X28950D02*
X28864Y14330D01*
X28783Y14283D01*
X28717Y14217D01*
X28670Y14136D01*
X28647Y14050D01*
X28950D01*
Y14353D01*
D02*
G37*
G36*
X20700D02*
X20614Y14330D01*
X20533Y14283D01*
X20467Y14217D01*
X20420Y14136D01*
X20397Y14050D01*
X20700D01*
Y14353D01*
D02*
G37*
G36*
X15700D02*
X15614Y14330D01*
X15533Y14283D01*
X15467Y14217D01*
X15420Y14136D01*
X15397Y14050D01*
X15700D01*
Y14353D01*
D02*
G37*
G36*
X10700D02*
X10614Y14330D01*
X10533Y14283D01*
X10467Y14217D01*
X10420Y14136D01*
X10397Y14050D01*
X10700D01*
Y14353D01*
D02*
G37*
G36*
X8700D02*
X8614Y14330D01*
X8533Y14283D01*
X8467Y14217D01*
X8420Y14136D01*
X8397Y14050D01*
X8700D01*
Y14353D01*
D02*
G37*
G36*
X44353Y13950D02*
X44050D01*
Y13647D01*
X44136Y13670D01*
X44217Y13717D01*
X44283Y13783D01*
X44330Y13864D01*
X44353Y13950D01*
D02*
G37*
G36*
X43353D02*
X43050D01*
Y13647D01*
X43136Y13670D01*
X43217Y13717D01*
X43283Y13783D01*
X43330Y13864D01*
X43353Y13950D01*
D02*
G37*
G36*
X42353D02*
X42050D01*
Y13647D01*
X42136Y13670D01*
X42217Y13717D01*
X42283Y13783D01*
X42330Y13864D01*
X42353Y13950D01*
D02*
G37*
G36*
X40353D02*
X40050D01*
Y13647D01*
X40136Y13670D01*
X40217Y13717D01*
X40283Y13783D01*
X40330Y13864D01*
X40353Y13950D01*
D02*
G37*
G36*
X39353D02*
X39050D01*
Y13647D01*
X39136Y13670D01*
X39217Y13717D01*
X39283Y13783D01*
X39330Y13864D01*
X39353Y13950D01*
D02*
G37*
G36*
X38353D02*
X38050D01*
Y13647D01*
X38136Y13670D01*
X38217Y13717D01*
X38283Y13783D01*
X38330Y13864D01*
X38353Y13950D01*
D02*
G37*
G36*
X36353D02*
X36050D01*
Y13647D01*
X36136Y13670D01*
X36217Y13717D01*
X36283Y13783D01*
X36330Y13864D01*
X36353Y13950D01*
D02*
G37*
G36*
X34353D02*
X34050D01*
Y13647D01*
X34136Y13670D01*
X34217Y13717D01*
X34283Y13783D01*
X34330Y13864D01*
X34353Y13950D01*
D02*
G37*
G36*
X33353D02*
X33050D01*
Y13647D01*
X33136Y13670D01*
X33217Y13717D01*
X33283Y13783D01*
X33330Y13864D01*
X33353Y13950D01*
D02*
G37*
G36*
X32353D02*
X32050D01*
Y13647D01*
X32136Y13670D01*
X32217Y13717D01*
X32283Y13783D01*
X32330Y13864D01*
X32353Y13950D01*
D02*
G37*
G36*
X31353D02*
X31050D01*
Y13647D01*
X31136Y13670D01*
X31217Y13717D01*
X31283Y13783D01*
X31330Y13864D01*
X31353Y13950D01*
D02*
G37*
G36*
X29353D02*
X29050D01*
Y13647D01*
X29136Y13670D01*
X29217Y13717D01*
X29283Y13783D01*
X29330Y13864D01*
X29353Y13950D01*
D02*
G37*
G36*
X27353D02*
X27050D01*
Y13647D01*
X27136Y13670D01*
X27217Y13717D01*
X27283Y13783D01*
X27330Y13864D01*
X27353Y13950D01*
D02*
G37*
G36*
X26353D02*
X26050D01*
Y13647D01*
X26136Y13670D01*
X26217Y13717D01*
X26283Y13783D01*
X26330Y13864D01*
X26353Y13950D01*
D02*
G37*
G36*
X25353D02*
X25050D01*
Y13647D01*
X25136Y13670D01*
X25217Y13717D01*
X25283Y13783D01*
X25330Y13864D01*
X25353Y13950D01*
D02*
G37*
G36*
X21103D02*
X20800D01*
Y13647D01*
X20886Y13670D01*
X20967Y13717D01*
X21033Y13783D01*
X21080Y13864D01*
X21103Y13950D01*
D02*
G37*
G36*
X20103D02*
X19800D01*
Y13647D01*
X19886Y13670D01*
X19967Y13717D01*
X20033Y13783D01*
X20080Y13864D01*
X20103Y13950D01*
D02*
G37*
G36*
X18103D02*
X17800D01*
Y13647D01*
X17886Y13670D01*
X17967Y13717D01*
X18033Y13783D01*
X18080Y13864D01*
X18103Y13950D01*
D02*
G37*
G36*
X17103D02*
X16800D01*
Y13647D01*
X16886Y13670D01*
X16967Y13717D01*
X17033Y13783D01*
X17080Y13864D01*
X17103Y13950D01*
D02*
G37*
G36*
X16103D02*
X15800D01*
Y13647D01*
X15886Y13670D01*
X15967Y13717D01*
X16033Y13783D01*
X16080Y13864D01*
X16103Y13950D01*
D02*
G37*
G36*
X14103D02*
X13800D01*
Y13647D01*
X13886Y13670D01*
X13967Y13717D01*
X14033Y13783D01*
X14080Y13864D01*
X14103Y13950D01*
D02*
G37*
G36*
X12103D02*
X11800D01*
Y13647D01*
X11886Y13670D01*
X11967Y13717D01*
X12033Y13783D01*
X12080Y13864D01*
X12103Y13950D01*
D02*
G37*
G36*
X11103D02*
X10800D01*
Y13647D01*
X10886Y13670D01*
X10967Y13717D01*
X11033Y13783D01*
X11080Y13864D01*
X11103Y13950D01*
D02*
G37*
G36*
X10103D02*
X9800D01*
Y13647D01*
X9886Y13670D01*
X9967Y13717D01*
X10033Y13783D01*
X10080Y13864D01*
X10103Y13950D01*
D02*
G37*
G36*
X9103D02*
X8800D01*
Y13647D01*
X8886Y13670D01*
X8967Y13717D01*
X9033Y13783D01*
X9080Y13864D01*
X9103Y13950D01*
D02*
G37*
G36*
X43950D02*
X43647D01*
X43670Y13864D01*
X43717Y13783D01*
X43783Y13717D01*
X43864Y13670D01*
X43950Y13647D01*
Y13950D01*
D02*
G37*
G36*
X42950D02*
X42647D01*
X42670Y13864D01*
X42717Y13783D01*
X42783Y13717D01*
X42864Y13670D01*
X42950Y13647D01*
Y13950D01*
D02*
G37*
G36*
X41950D02*
X41647D01*
X41670Y13864D01*
X41717Y13783D01*
X41783Y13717D01*
X41864Y13670D01*
X41950Y13647D01*
Y13950D01*
D02*
G37*
G36*
X39950D02*
X39647D01*
X39670Y13864D01*
X39717Y13783D01*
X39783Y13717D01*
X39864Y13670D01*
X39950Y13647D01*
Y13950D01*
D02*
G37*
G36*
X38950D02*
X38647D01*
X38670Y13864D01*
X38717Y13783D01*
X38783Y13717D01*
X38864Y13670D01*
X38950Y13647D01*
Y13950D01*
D02*
G37*
G36*
X37950D02*
X37647D01*
X37670Y13864D01*
X37717Y13783D01*
X37783Y13717D01*
X37864Y13670D01*
X37950Y13647D01*
Y13950D01*
D02*
G37*
G36*
X35950D02*
X35647D01*
X35670Y13864D01*
X35717Y13783D01*
X35783Y13717D01*
X35864Y13670D01*
X35950Y13647D01*
Y13950D01*
D02*
G37*
G36*
X33950D02*
X33647D01*
X33670Y13864D01*
X33717Y13783D01*
X33783Y13717D01*
X33864Y13670D01*
X33950Y13647D01*
Y13950D01*
D02*
G37*
G36*
X32950D02*
X32647D01*
X32670Y13864D01*
X32717Y13783D01*
X32783Y13717D01*
X32864Y13670D01*
X32950Y13647D01*
Y13950D01*
D02*
G37*
G36*
X31950D02*
X31647D01*
X31670Y13864D01*
X31717Y13783D01*
X31783Y13717D01*
X31864Y13670D01*
X31950Y13647D01*
Y13950D01*
D02*
G37*
G36*
X30950D02*
X30647D01*
X30670Y13864D01*
X30717Y13783D01*
X30783Y13717D01*
X30864Y13670D01*
X30950Y13647D01*
Y13950D01*
D02*
G37*
G36*
X28950D02*
X28647D01*
X28670Y13864D01*
X28717Y13783D01*
X28783Y13717D01*
X28864Y13670D01*
X28950Y13647D01*
Y13950D01*
D02*
G37*
G36*
X26950D02*
X26647D01*
X26670Y13864D01*
X26717Y13783D01*
X26783Y13717D01*
X26864Y13670D01*
X26950Y13647D01*
Y13950D01*
D02*
G37*
G36*
X25950D02*
X25647D01*
X25670Y13864D01*
X25717Y13783D01*
X25783Y13717D01*
X25864Y13670D01*
X25950Y13647D01*
Y13950D01*
D02*
G37*
G36*
X24950D02*
X24647D01*
X24670Y13864D01*
X24717Y13783D01*
X24783Y13717D01*
X24864Y13670D01*
X24950Y13647D01*
Y13950D01*
D02*
G37*
G36*
X20700D02*
X20397D01*
X20420Y13864D01*
X20467Y13783D01*
X20533Y13717D01*
X20614Y13670D01*
X20700Y13647D01*
Y13950D01*
D02*
G37*
G36*
X19700D02*
X19397D01*
X19420Y13864D01*
X19467Y13783D01*
X19533Y13717D01*
X19614Y13670D01*
X19700Y13647D01*
Y13950D01*
D02*
G37*
G36*
X17700D02*
X17397D01*
X17420Y13864D01*
X17467Y13783D01*
X17533Y13717D01*
X17614Y13670D01*
X17700Y13647D01*
Y13950D01*
D02*
G37*
G36*
X16700D02*
X16397D01*
X16420Y13864D01*
X16467Y13783D01*
X16533Y13717D01*
X16614Y13670D01*
X16700Y13647D01*
Y13950D01*
D02*
G37*
G36*
X15700D02*
X15397D01*
X15420Y13864D01*
X15467Y13783D01*
X15533Y13717D01*
X15614Y13670D01*
X15700Y13647D01*
Y13950D01*
D02*
G37*
G36*
X13700D02*
X13397D01*
X13420Y13864D01*
X13467Y13783D01*
X13533Y13717D01*
X13614Y13670D01*
X13700Y13647D01*
Y13950D01*
D02*
G37*
G36*
X11700D02*
X11397D01*
X11420Y13864D01*
X11467Y13783D01*
X11533Y13717D01*
X11614Y13670D01*
X11700Y13647D01*
Y13950D01*
D02*
G37*
G36*
X10700D02*
X10397D01*
X10420Y13864D01*
X10467Y13783D01*
X10533Y13717D01*
X10614Y13670D01*
X10700Y13647D01*
Y13950D01*
D02*
G37*
G36*
X9700D02*
X9397D01*
X9420Y13864D01*
X9467Y13783D01*
X9533Y13717D01*
X9614Y13670D01*
X9700Y13647D01*
Y13950D01*
D02*
G37*
G36*
X8700D02*
X8397D01*
X8420Y13864D01*
X8467Y13783D01*
X8533Y13717D01*
X8614Y13670D01*
X8700Y13647D01*
Y13950D01*
D02*
G37*
G36*
X41049Y14374D02*
X40951D01*
X40856Y14348D01*
X40771Y14299D01*
X40701Y14229D01*
X40652Y14144D01*
X40626Y14049D01*
Y13951D01*
X40652Y13856D01*
X40701Y13771D01*
X40771Y13701D01*
X40856Y13652D01*
X40951Y13626D01*
X41049D01*
X41144Y13652D01*
X41229Y13701D01*
X41299Y13771D01*
X41348Y13856D01*
X41374Y13951D01*
Y14049D01*
X41348Y14144D01*
X41299Y14229D01*
X41229Y14299D01*
X41144Y14348D01*
X41049Y14374D01*
D02*
G37*
G36*
X37049D02*
X36951D01*
X36856Y14348D01*
X36771Y14299D01*
X36701Y14229D01*
X36652Y14144D01*
X36626Y14049D01*
Y13951D01*
X36652Y13856D01*
X36701Y13771D01*
X36771Y13701D01*
X36856Y13652D01*
X36951Y13626D01*
X37049D01*
X37144Y13652D01*
X37229Y13701D01*
X37299Y13771D01*
X37348Y13856D01*
X37374Y13951D01*
Y14049D01*
X37348Y14144D01*
X37299Y14229D01*
X37229Y14299D01*
X37144Y14348D01*
X37049Y14374D01*
D02*
G37*
G36*
X35049D02*
X34951D01*
X34856Y14348D01*
X34771Y14299D01*
X34701Y14229D01*
X34652Y14144D01*
X34626Y14049D01*
Y13951D01*
X34652Y13856D01*
X34701Y13771D01*
X34771Y13701D01*
X34856Y13652D01*
X34951Y13626D01*
X35049D01*
X35144Y13652D01*
X35229Y13701D01*
X35299Y13771D01*
X35348Y13856D01*
X35374Y13951D01*
Y14049D01*
X35348Y14144D01*
X35299Y14229D01*
X35229Y14299D01*
X35144Y14348D01*
X35049Y14374D01*
D02*
G37*
G36*
X30049D02*
X29951D01*
X29856Y14348D01*
X29771Y14299D01*
X29701Y14229D01*
X29652Y14144D01*
X29626Y14049D01*
Y13951D01*
X29652Y13856D01*
X29701Y13771D01*
X29771Y13701D01*
X29856Y13652D01*
X29951Y13626D01*
X30049D01*
X30144Y13652D01*
X30229Y13701D01*
X30299Y13771D01*
X30348Y13856D01*
X30374Y13951D01*
Y14049D01*
X30348Y14144D01*
X30299Y14229D01*
X30229Y14299D01*
X30144Y14348D01*
X30049Y14374D01*
D02*
G37*
G36*
X28049D02*
X27951D01*
X27856Y14348D01*
X27771Y14299D01*
X27701Y14229D01*
X27652Y14144D01*
X27626Y14049D01*
Y13951D01*
X27652Y13856D01*
X27701Y13771D01*
X27771Y13701D01*
X27856Y13652D01*
X27951Y13626D01*
X28049D01*
X28144Y13652D01*
X28229Y13701D01*
X28299Y13771D01*
X28348Y13856D01*
X28374Y13951D01*
Y14049D01*
X28348Y14144D01*
X28299Y14229D01*
X28229Y14299D01*
X28144Y14348D01*
X28049Y14374D01*
D02*
G37*
G36*
X4799D02*
X4701D01*
X4606Y14348D01*
X4521Y14299D01*
X4451Y14229D01*
X4402Y14144D01*
X4376Y14049D01*
Y13951D01*
X4402Y13856D01*
X4451Y13771D01*
X4521Y13701D01*
X4606Y13652D01*
X4701Y13626D01*
X4799D01*
X4894Y13652D01*
X4979Y13701D01*
X5049Y13771D01*
X5098Y13856D01*
X5124Y13951D01*
Y14049D01*
X5098Y14144D01*
X5049Y14229D01*
X4979Y14299D01*
X4894Y14348D01*
X4799Y14374D01*
D02*
G37*
G36*
X3799D02*
X3701D01*
X3606Y14348D01*
X3521Y14299D01*
X3451Y14229D01*
X3402Y14144D01*
X3376Y14049D01*
Y13951D01*
X3402Y13856D01*
X3451Y13771D01*
X3521Y13701D01*
X3606Y13652D01*
X3701Y13626D01*
X3799D01*
X3894Y13652D01*
X3979Y13701D01*
X4049Y13771D01*
X4098Y13856D01*
X4124Y13951D01*
Y14049D01*
X4098Y14144D01*
X4049Y14229D01*
X3979Y14299D01*
X3894Y14348D01*
X3799Y14374D01*
D02*
G37*
G36*
X2799D02*
X2701D01*
X2606Y14348D01*
X2521Y14299D01*
X2451Y14229D01*
X2402Y14144D01*
X2376Y14049D01*
Y13951D01*
X2402Y13856D01*
X2451Y13771D01*
X2521Y13701D01*
X2606Y13652D01*
X2701Y13626D01*
X2799D01*
X2894Y13652D01*
X2979Y13701D01*
X3049Y13771D01*
X3098Y13856D01*
X3124Y13951D01*
Y14049D01*
X3098Y14144D01*
X3049Y14229D01*
X2979Y14299D01*
X2894Y14348D01*
X2799Y14374D01*
D02*
G37*
G36*
X52840Y13610D02*
X52760D01*
X52687Y13579D01*
X52653Y13545D01*
X48933D01*
X48913Y13565D01*
X48840Y13595D01*
X48760D01*
X48687Y13565D01*
X48630Y13508D01*
X48600Y13435D01*
Y13355D01*
X48630Y13282D01*
X48687Y13226D01*
X48760Y13195D01*
X48840D01*
X48913Y13226D01*
X48947Y13260D01*
X52667D01*
X52687Y13240D01*
X52760Y13210D01*
X52840D01*
X52913Y13240D01*
X52970Y13296D01*
X53000Y13370D01*
Y13449D01*
X52970Y13523D01*
X52913Y13579D01*
X52840Y13610D01*
D02*
G37*
G36*
X57917Y11620D02*
X57829D01*
X57748Y11587D01*
X57687Y11525D01*
X57653Y11444D01*
Y11356D01*
X57687Y11275D01*
X57748Y11213D01*
X57829Y11180D01*
X57917D01*
X57998Y11213D01*
X58060Y11275D01*
X58093Y11356D01*
Y11444D01*
X58060Y11525D01*
X57998Y11587D01*
X57917Y11620D01*
D02*
G37*
G36*
X56644D02*
X56556D01*
X56475Y11587D01*
X56413Y11525D01*
X56380Y11444D01*
Y11356D01*
X56413Y11275D01*
X56475Y11213D01*
X56556Y11180D01*
X56644D01*
X56725Y11213D01*
X56787Y11275D01*
X56820Y11356D01*
Y11444D01*
X56787Y11525D01*
X56725Y11587D01*
X56644Y11620D01*
D02*
G37*
G36*
X51344Y10420D02*
X51256D01*
X51175Y10387D01*
X51113Y10325D01*
X51080Y10244D01*
Y10156D01*
X51113Y10075D01*
X51175Y10013D01*
X51256Y9980D01*
X51344D01*
X51425Y10013D01*
X51487Y10075D01*
X51520Y10156D01*
Y10244D01*
X51487Y10325D01*
X51425Y10387D01*
X51344Y10420D01*
D02*
G37*
G36*
X48844Y9620D02*
X48756D01*
X48675Y9587D01*
X48613Y9525D01*
X48580Y9444D01*
Y9356D01*
X48613Y9275D01*
X48675Y9213D01*
X48756Y9180D01*
X48844D01*
X48925Y9213D01*
X48987Y9275D01*
X49020Y9356D01*
Y9444D01*
X48987Y9525D01*
X48925Y9587D01*
X48844Y9620D01*
D02*
G37*
G36*
X57337Y10794D02*
X55419D01*
X55367Y10784D01*
X55324Y10755D01*
X54425Y9856D01*
X54396Y9813D01*
X54386Y9761D01*
Y8787D01*
X54245Y8646D01*
X54213Y8677D01*
X54140Y8708D01*
X54060D01*
X53987Y8677D01*
X53930Y8621D01*
X53900Y8547D01*
Y8468D01*
X53930Y8394D01*
X53967Y8357D01*
X53931Y8321D01*
X53900Y8247D01*
Y8168D01*
X53931Y8094D01*
X53968Y8057D01*
X53932Y8021D01*
X53902Y7947D01*
Y7868D01*
X53932Y7794D01*
X53969Y7757D01*
X53933Y7721D01*
X53902Y7647D01*
Y7568D01*
X53933Y7494D01*
X53989Y7438D01*
X54063Y7408D01*
X54142D01*
X54173Y7420D01*
X54269Y7367D01*
X54273Y7362D01*
Y6348D01*
X54283Y6297D01*
X54312Y6253D01*
X54873Y5692D01*
X54917Y5663D01*
X54968Y5653D01*
X57620D01*
X57671Y5663D01*
X57715Y5692D01*
X58213Y6190D01*
X58242Y6234D01*
X58252Y6285D01*
Y6800D01*
X58253D01*
X58326Y6830D01*
X58383Y6886D01*
X58413Y6960D01*
Y7039D01*
X58383Y7113D01*
X58326Y7169D01*
X58253Y7200D01*
X58173D01*
X58100Y7169D01*
X58061Y7131D01*
X58023Y7169D01*
X57950Y7200D01*
X57870D01*
X57820Y7179D01*
X57788Y7172D01*
X57695Y7200D01*
X57431Y7464D01*
X57388Y7493D01*
X57337Y7503D01*
X57304D01*
Y7515D01*
X57269Y7599D01*
X57241Y7628D01*
X57269Y7656D01*
X57304Y7740D01*
Y7830D01*
X57282Y7919D01*
X57325Y7948D01*
X58008Y8630D01*
X58037Y8674D01*
X58047Y8725D01*
Y10083D01*
X58037Y10135D01*
X58008Y10178D01*
X57511Y10675D01*
X57431Y10755D01*
X57388Y10784D01*
X57337Y10794D01*
D02*
G37*
G36*
X52840Y8657D02*
X52760D01*
X52687Y8626D01*
X52660Y8600D01*
X48940D01*
X48913Y8626D01*
X48840Y8657D01*
X48760D01*
X48687Y8626D01*
X48630Y8570D01*
X48600Y8497D01*
Y8417D01*
X48630Y8344D01*
X48687Y8287D01*
X48760Y8257D01*
X48840D01*
X48913Y8287D01*
X48940Y8314D01*
X52107D01*
X52180Y8229D01*
Y8141D01*
X52213Y8060D01*
X52275Y7999D01*
X52356Y7965D01*
X52444D01*
X52525Y7999D01*
X52587Y8060D01*
X52620Y8141D01*
Y8215D01*
X52646Y8243D01*
X52648Y8245D01*
X52708Y8279D01*
X52760Y8257D01*
X52840D01*
X52913Y8287D01*
X52970Y8344D01*
X53000Y8417D01*
Y8497D01*
X52970Y8570D01*
X52913Y8626D01*
X52840Y8657D01*
D02*
G37*
G36*
Y7633D02*
X52760D01*
X52687Y7603D01*
X52660Y7576D01*
X48940D01*
X48913Y7603D01*
X48840Y7633D01*
X48760D01*
X48687Y7603D01*
X48630Y7546D01*
X48600Y7473D01*
Y7393D01*
X48630Y7320D01*
X48687Y7264D01*
X48760Y7233D01*
X48840D01*
X48913Y7264D01*
X48940Y7290D01*
X52120D01*
X52167Y7221D01*
Y7134D01*
X52120Y7064D01*
X48940D01*
X48913Y7091D01*
X48840Y7121D01*
X48760D01*
X48687Y7091D01*
X48630Y7035D01*
X48600Y6961D01*
Y6882D01*
X48630Y6808D01*
X48687Y6752D01*
X48760Y6721D01*
X48840D01*
X48913Y6752D01*
X48940Y6779D01*
X52660D01*
X52687Y6752D01*
X52760Y6721D01*
X52840D01*
X52913Y6752D01*
X52970Y6808D01*
X53000Y6882D01*
Y6961D01*
X52970Y7035D01*
X52913Y7091D01*
X52840Y7121D01*
X52760D01*
X52751Y7117D01*
X52653Y7177D01*
X52751Y7237D01*
X52760Y7233D01*
X52840D01*
X52913Y7264D01*
X52970Y7320D01*
X53000Y7393D01*
Y7473D01*
X52970Y7546D01*
X52913Y7603D01*
X52840Y7633D01*
D02*
G37*
G36*
Y6610D02*
X52760D01*
X52687Y6579D01*
X52653Y6545D01*
X48933D01*
X48913Y6565D01*
X48840Y6595D01*
X48760D01*
X48687Y6565D01*
X48630Y6508D01*
X48600Y6435D01*
Y6355D01*
X48630Y6282D01*
X48687Y6226D01*
X48760Y6195D01*
X48840D01*
X48913Y6226D01*
X48947Y6260D01*
X52667D01*
X52687Y6240D01*
X52760Y6210D01*
X52840D01*
X52913Y6240D01*
X52970Y6296D01*
X53000Y6370D01*
Y6449D01*
X52970Y6523D01*
X52913Y6579D01*
X52840Y6610D01*
D02*
G37*
G36*
X57917Y4620D02*
X57829D01*
X57748Y4587D01*
X57687Y4525D01*
X57653Y4444D01*
Y4356D01*
X57687Y4275D01*
X57748Y4213D01*
X57829Y4180D01*
X57917D01*
X57998Y4213D01*
X58060Y4275D01*
X58093Y4356D01*
Y4444D01*
X58060Y4525D01*
X57998Y4587D01*
X57917Y4620D01*
D02*
G37*
G36*
X56644D02*
X56556D01*
X56475Y4587D01*
X56413Y4525D01*
X56380Y4444D01*
Y4356D01*
X56413Y4275D01*
X56475Y4213D01*
X56556Y4180D01*
X56644D01*
X56725Y4213D01*
X56787Y4275D01*
X56820Y4356D01*
Y4444D01*
X56787Y4525D01*
X56725Y4587D01*
X56644Y4620D01*
D02*
G37*
G36*
X57385Y3584D02*
X57215D01*
X57046Y3558D01*
X56884Y3505D01*
X56732Y3427D01*
X56594Y3327D01*
X56473Y3206D01*
X56373Y3068D01*
X56295Y2916D01*
X56242Y2754D01*
X56216Y2585D01*
Y2415D01*
X56242Y2246D01*
X56295Y2084D01*
X56373Y1932D01*
X56473Y1794D01*
X56594Y1673D01*
X56732Y1573D01*
X56884Y1495D01*
X57046Y1442D01*
X57215Y1416D01*
X57385D01*
X57554Y1442D01*
X57716Y1495D01*
X57868Y1573D01*
X58006Y1673D01*
X58127Y1794D01*
X58227Y1932D01*
X58305Y2084D01*
X58358Y2246D01*
X58384Y2415D01*
Y2585D01*
X58358Y2754D01*
X58305Y2916D01*
X58227Y3068D01*
X58127Y3206D01*
X58006Y3327D01*
X57868Y3427D01*
X57716Y3505D01*
X57554Y3558D01*
X57385Y3584D01*
D02*
G37*
G36*
X2585D02*
X2415D01*
X2246Y3558D01*
X2084Y3505D01*
X1932Y3427D01*
X1794Y3327D01*
X1673Y3206D01*
X1573Y3068D01*
X1495Y2916D01*
X1442Y2754D01*
X1416Y2585D01*
Y2415D01*
X1442Y2246D01*
X1495Y2084D01*
X1573Y1932D01*
X1673Y1794D01*
X1794Y1673D01*
X1932Y1573D01*
X2084Y1495D01*
X2246Y1442D01*
X2415Y1416D01*
X2585D01*
X2754Y1442D01*
X2916Y1495D01*
X3068Y1573D01*
X3206Y1673D01*
X3327Y1794D01*
X3427Y1932D01*
X3505Y2084D01*
X3558Y2246D01*
X3584Y2415D01*
Y2585D01*
X3558Y2754D01*
X3505Y2916D01*
X3427Y3068D01*
X3327Y3206D01*
X3206Y3327D01*
X3068Y3427D01*
X2916Y3505D01*
X2754Y3558D01*
X2585Y3584D01*
D02*
G37*
%LPD*%
D17*
X44000Y15000D02*
Y16100D01*
X27668Y28900D02*
X31200D01*
X44000Y16100D01*
X17589Y21415D02*
Y22900D01*
X17600Y22911D02*
Y24565D01*
X17904Y24869D01*
X17589Y22900D02*
X17600Y22911D01*
X11874Y15700D02*
X17589Y21415D01*
X26500Y54762D02*
Y56976D01*
X22438Y50700D02*
X26500Y54762D01*
X21700Y50700D02*
X22438D01*
X25600Y54900D02*
Y55976D01*
X19815Y51000D02*
X21700D01*
X25600Y54900D01*
X21300Y51400D02*
X24900Y55000D01*
X19019Y51400D02*
X21300D01*
X19794Y38000D02*
Y41546D01*
X18750Y49000D02*
X20109Y47641D01*
X19758Y42008D02*
Y46992D01*
Y42008D02*
X20109Y41658D01*
Y42067D02*
Y47641D01*
X16750Y49000D02*
X19479Y46271D01*
X20109Y42067D02*
X20424Y41752D01*
X17750Y49000D02*
X19758Y46992D01*
X19479Y41861D02*
Y46271D01*
Y41861D02*
X19794Y41546D01*
X18219Y50600D02*
X19019Y51400D01*
X19200Y50385D02*
X19815Y51000D01*
X21200Y50200D02*
X21700Y50700D01*
X21200Y49450D02*
Y50200D01*
X19200Y49450D02*
Y50385D01*
X20750Y49000D02*
X21200Y49450D01*
X27300Y54550D02*
Y57976D01*
X21750Y49000D02*
X27300Y54550D01*
X21369Y48619D02*
X21750Y49000D01*
X18219Y49469D02*
Y50600D01*
X18750Y49000D02*
X19200Y49450D01*
X17750Y49000D02*
X18219Y49469D01*
X11179Y16700D02*
X16330Y21851D01*
X7500Y16700D02*
X11179D01*
X11428Y16400D02*
X16644Y21616D01*
X8200Y16400D02*
X11428D01*
X11659Y16100D02*
X16959Y21400D01*
X8900Y16100D02*
X11659D01*
X21054Y16246D02*
Y24554D01*
X21369Y24869D01*
X21054Y16246D02*
X21750Y15550D01*
X21684Y16830D02*
Y24400D01*
X13850Y28000D02*
X16015D01*
X4750Y18900D02*
X13850Y28000D01*
X5750Y19400D02*
X14050Y27700D01*
X16330D01*
X14450Y27100D02*
X16959D01*
X7750Y20400D02*
X14450Y27100D01*
X14250Y27400D02*
X16644D01*
X6750Y19900D02*
X14250Y27400D01*
X20424Y20271D02*
Y22152D01*
X19164Y19364D02*
Y22458D01*
X18534Y20634D02*
Y22458D01*
X16750Y15000D02*
Y15059D01*
X19479Y17788D01*
Y24924D01*
X19794Y25239D01*
Y26800D01*
X15200Y15400D02*
X19164Y19364D01*
X15200Y14450D02*
Y15400D01*
X17750Y15450D02*
X19794Y17494D01*
X17750Y15000D02*
Y15450D01*
X19794Y17494D02*
Y24673D01*
X20109Y24988D01*
Y27098D01*
Y17059D02*
Y24609D01*
X18750Y15700D02*
X20109Y17059D01*
X18750Y15000D02*
Y15700D01*
X20465Y16811D02*
Y20230D01*
X19200Y15546D02*
X20465Y16811D01*
X19200Y14450D02*
Y15546D01*
X17904Y24869D02*
Y26800D01*
Y24358D02*
X18219Y24673D01*
X17904Y21154D02*
Y24358D01*
X18219Y24673D02*
Y27098D01*
X18534Y24534D02*
Y26800D01*
X18219Y24219D02*
X18534Y24534D01*
X18219Y20865D02*
Y24219D01*
X18849Y20065D02*
Y24211D01*
X19164Y24526D02*
Y26800D01*
X18849Y24211D02*
X19164Y24526D01*
X10750Y15000D02*
X11450Y15700D01*
X11874D01*
X11750Y15000D02*
X17904Y21154D01*
X12778Y15424D02*
X18219Y20865D01*
X12778Y15028D02*
Y15424D01*
X12750Y15000D02*
X12778Y15028D01*
X20424Y24924D02*
Y26792D01*
X20109Y24609D02*
X20424Y24924D01*
X21369Y24869D02*
Y27100D01*
X14750Y15965D02*
X18849Y20065D01*
X14750Y15000D02*
Y15965D01*
X21750Y15000D02*
Y15550D01*
X26723Y17823D02*
Y24061D01*
X25463Y17063D02*
Y24061D01*
X24000Y15600D02*
X25463Y17063D01*
X24833Y16945D02*
Y24061D01*
X23259Y13341D02*
X24800Y11800D01*
X23259Y13341D02*
Y24061D01*
X23700Y13400D02*
Y15811D01*
X24833Y16945D01*
X23700Y13400D02*
X25000Y12100D01*
X22900Y13200D02*
Y23761D01*
X22600Y24061D02*
X22900Y23761D01*
Y13200D02*
X24600Y11500D01*
X21369Y16431D02*
Y24061D01*
X20424Y20271D02*
X20465Y20230D01*
X21369Y16431D02*
X22400Y15400D01*
X13300D02*
X18534Y20634D01*
X24300Y15400D02*
X26723Y17823D01*
X6200Y15400D02*
X7500Y16700D01*
X6200Y14450D02*
Y15400D01*
X7300Y15500D02*
X8200Y16400D01*
X7300Y14550D02*
Y15500D01*
X8300D02*
X8900Y16100D01*
X8300Y14550D02*
Y15500D01*
X13300Y14550D02*
Y15400D01*
X12750Y14000D02*
X13300Y14550D01*
X14750Y14000D02*
X15200Y14450D01*
X22400Y14650D02*
Y15400D01*
X21750Y14000D02*
X22400Y14650D01*
X18750Y14000D02*
X19200Y14450D01*
X7750Y14000D02*
X8300Y14550D01*
X6750Y14000D02*
X7300Y14550D01*
X5750Y14000D02*
X6200Y14450D01*
X24600Y11500D02*
X28000D01*
X24800Y11800D02*
X30000D01*
X25000Y12100D02*
X35000D01*
X24000Y13600D02*
X25200Y12400D01*
X37000D01*
X24000Y13600D02*
Y15600D01*
X24300Y13800D02*
X25400Y12700D01*
X41000D01*
X24300Y13800D02*
Y15400D01*
X23889Y37789D02*
Y38400D01*
X23500Y37400D02*
X23889Y37789D01*
X21100Y37400D02*
X23500D01*
X20739Y37761D02*
X21100Y37400D01*
X20739Y37761D02*
Y38400D01*
Y27093D02*
X21346Y27700D01*
X23900D01*
X31025Y28600D02*
X40000Y19625D01*
X26408Y28600D02*
X31025D01*
X40000Y15000D02*
Y19625D01*
X30825Y28300D02*
X38000Y21125D01*
X25800Y28300D02*
X30825D01*
X38000Y15000D02*
Y21125D01*
X34000Y15000D02*
Y24600D01*
X30600Y28000D02*
X34000Y24600D01*
X24500Y28000D02*
X30600D01*
X32000Y15000D02*
X32900Y15900D01*
Y25200D01*
X30400Y27700D02*
X32900Y25200D01*
X23900Y27700D02*
X30400D01*
X31000Y15000D02*
X32600Y16600D01*
Y25000D01*
X30200Y27400D02*
X32600Y25000D01*
X23600Y27400D02*
X30200D01*
X27000Y15000D02*
X32300Y20300D01*
Y24800D01*
X30000Y27100D02*
X32300Y24800D01*
X22300Y27100D02*
X30000D01*
X25000Y15000D02*
X32000Y22000D01*
Y24600D01*
X29800Y26800D02*
X32000Y24600D01*
X21700Y26800D02*
X29800D01*
X5750Y46250D02*
X13600Y38400D01*
X16330D01*
X48800Y55395D02*
X48807Y55402D01*
X48800Y48395D02*
X48807Y48402D01*
X48800Y34395D02*
X48807Y34402D01*
X48800Y13395D02*
X48807Y13402D01*
X52793Y55402D02*
X52800Y55410D01*
X48807Y55402D02*
X52793D01*
X48800Y55921D02*
X52800D01*
X48800Y56433D02*
X52800D01*
X48800Y57457D02*
X52800D01*
X52793Y48402D02*
X52800Y48410D01*
X48807Y48402D02*
X52793D01*
X48800Y48921D02*
X52800D01*
X48800Y49433D02*
X52800D01*
X48800Y50457D02*
X52800D01*
X52793Y41402D02*
X52800Y41410D01*
X48807Y41402D02*
X52793D01*
X48800Y41395D02*
X48807Y41402D01*
X48800Y41921D02*
X52800D01*
X48800Y42433D02*
X52800D01*
X48800Y43457D02*
X52800D01*
X52793Y34402D02*
X52800Y34410D01*
X48807Y34402D02*
X52793D01*
X48800Y34921D02*
X52800D01*
X48800Y35433D02*
X52800D01*
X48800Y36457D02*
X52800D01*
X52793Y27402D02*
X52800Y27410D01*
X48807Y27402D02*
X52793D01*
X48800Y27395D02*
X48807Y27402D01*
X48800Y27921D02*
X52800D01*
X48800Y28433D02*
X52800D01*
X48800Y29457D02*
X52800D01*
X52793Y20402D02*
X52800Y20410D01*
X48807Y20402D02*
X52793D01*
X48800Y20395D02*
X48807Y20402D01*
X48800Y20921D02*
X52800D01*
X48800Y21433D02*
X52800D01*
X48800Y22457D02*
X52800D01*
X52793Y13402D02*
X52800Y13410D01*
X48807Y13402D02*
X52793D01*
X48800Y13921D02*
X52800D01*
X48800Y14433D02*
X52800D01*
X48800Y15457D02*
X52800D01*
X48800Y8457D02*
X52800D01*
X48800Y7433D02*
X52800D01*
X48800Y6921D02*
X52800D01*
X48800Y6395D02*
X48807Y6402D01*
X52793D01*
X52800Y6410D01*
X20424Y38000D02*
Y41752D01*
X20750Y48990D02*
Y49000D01*
Y48990D02*
X21054Y48686D01*
Y38000D02*
Y48686D01*
X21369Y38400D02*
Y48619D01*
X20109Y38400D02*
Y41658D01*
X10750Y46153D02*
Y49000D01*
Y46153D02*
X17904Y38999D01*
Y38000D02*
Y38999D01*
X9750Y45150D02*
Y49000D01*
Y45150D02*
X14400Y40500D01*
X15915D01*
X17589Y38825D01*
Y38400D02*
Y38825D01*
X15900Y40000D02*
X16959Y38941D01*
X13700Y40000D02*
X15900D01*
X16959Y38400D02*
Y38941D01*
X7750Y45950D02*
X13700Y40000D01*
X6750Y46150D02*
X13400Y39500D01*
X15900D02*
X16644Y38756D01*
X13400Y39500D02*
X15900D01*
X7750Y45950D02*
Y49000D01*
X6750Y46150D02*
Y49000D01*
X5750Y46250D02*
Y49000D01*
X16644Y38000D02*
Y38756D01*
X18219Y38400D02*
Y40981D01*
X17904Y41296D02*
Y42846D01*
Y41296D02*
X18219Y40981D01*
X11750Y49000D02*
X17904Y42846D01*
X18219Y41415D02*
X18534Y41100D01*
X18219Y41415D02*
Y43531D01*
X18534Y38000D02*
Y41100D01*
X12750Y49000D02*
X18219Y43531D01*
X18534Y41546D02*
Y44216D01*
Y41546D02*
X18849Y41231D01*
Y41574D02*
Y44901D01*
Y41574D02*
X19164Y41259D01*
X13750Y49000D02*
X18534Y44216D01*
X18849Y38400D02*
Y41231D01*
X14750Y49000D02*
X18849Y44901D01*
X19164Y38000D02*
Y41259D01*
X15750Y49000D02*
X19164Y45586D01*
Y41752D02*
Y45586D01*
Y41752D02*
X19479Y41437D01*
Y38400D02*
Y41437D01*
X19750Y49000D02*
X20424Y48326D01*
Y42176D02*
Y48326D01*
Y42176D02*
X20739Y41861D01*
Y38400D02*
Y41861D01*
X21684Y38000D02*
Y45684D01*
X25000Y49000D01*
X21999Y44999D02*
X26000Y49000D01*
X21999Y38400D02*
Y44999D01*
X22314Y38000D02*
Y44314D01*
X27000Y49000D01*
X22629Y43629D02*
X28000Y49000D01*
X22629Y38400D02*
Y43629D01*
X22944Y42944D02*
X29000Y49000D01*
X22944Y38000D02*
Y42944D01*
X23259Y38400D02*
Y42259D01*
X30000Y49000D01*
X23574Y41574D02*
X31000Y49000D01*
X23574Y38000D02*
Y41574D01*
X23889Y38400D02*
Y40889D01*
X32000Y49000D01*
X24204Y40204D02*
X33000Y49000D01*
X24204Y38000D02*
Y40204D01*
X24519Y38400D02*
Y40203D01*
X29316Y45000D01*
X24833Y38000D02*
Y40233D01*
X29300Y44700D01*
X25148Y38400D02*
Y40248D01*
X29300Y44400D01*
X25463Y40263D02*
X29300Y44100D01*
X25463Y38000D02*
Y40263D01*
X29300Y44700D02*
X30700D01*
X29300Y44100D02*
X32100D01*
X29300Y44400D02*
X31400D01*
X29316Y45000D02*
X30000D01*
X34000Y49000D01*
X30700Y44700D02*
X35000Y49000D01*
X31400Y44400D02*
X36000Y49000D01*
X25778Y40265D02*
X29313Y43800D01*
X25778Y38400D02*
Y40265D01*
X29313Y43800D02*
X32800D01*
X32100Y44100D02*
X37000Y49000D01*
X26408Y40308D02*
X29300Y43200D01*
Y43500D02*
X33500D01*
X26093Y40293D02*
X29300Y43500D01*
Y43200D02*
X34200D01*
X29300Y42900D02*
X34900D01*
X26723Y40323D02*
X29300Y42900D01*
X32800Y43800D02*
X38000Y49000D01*
X26093Y38000D02*
Y40293D01*
X26408Y38400D02*
Y40308D01*
X33500Y43500D02*
X39000Y49000D01*
X26723Y38000D02*
Y40323D01*
X29316Y42600D02*
X35600D01*
X27038Y38400D02*
Y40323D01*
X29316Y42600D01*
X34200Y43200D02*
X40000Y49000D01*
X34900Y42900D02*
X41000Y49000D01*
X35600Y42600D02*
X42000Y49000D01*
D37*
X18615Y60027D02*
D03*
D38*
X56800Y9202D02*
D03*
Y13998D02*
D03*
Y23202D02*
D03*
Y16202D02*
D03*
Y20998D02*
D03*
Y30202D02*
D03*
Y27998D02*
D03*
Y37202D02*
D03*
Y34998D02*
D03*
Y44202D02*
D03*
Y41998D02*
D03*
Y48998D02*
D03*
Y51202D02*
D03*
Y58202D02*
D03*
Y55998D02*
D03*
Y6998D02*
D03*
X56544Y6683D02*
D03*
X57076Y8730D02*
D03*
Y7785D02*
D03*
Y8415D02*
D03*
Y7470D02*
D03*
X56800Y8257D02*
D03*
X57076Y9045D02*
D03*
X56800Y7943D02*
D03*
X57076Y7155D02*
D03*
X56800Y7628D02*
D03*
Y8572D02*
D03*
Y43572D02*
D03*
Y57572D02*
D03*
Y56628D02*
D03*
Y50572D02*
D03*
Y49628D02*
D03*
Y42628D02*
D03*
Y36572D02*
D03*
Y29572D02*
D03*
Y28628D02*
D03*
Y35628D02*
D03*
Y22572D02*
D03*
Y21628D02*
D03*
Y15572D02*
D03*
Y14628D02*
D03*
X56544Y48683D02*
D03*
X56800Y50257D02*
D03*
Y49943D02*
D03*
X57076Y49785D02*
D03*
Y49470D02*
D03*
Y49155D02*
D03*
Y51045D02*
D03*
Y50730D02*
D03*
Y50415D02*
D03*
X56544Y34683D02*
D03*
X56800Y36257D02*
D03*
Y35943D02*
D03*
X57076Y35785D02*
D03*
Y35470D02*
D03*
Y35155D02*
D03*
Y37045D02*
D03*
Y36730D02*
D03*
Y36415D02*
D03*
X56544Y41683D02*
D03*
X56800Y43257D02*
D03*
Y42943D02*
D03*
X57076Y42785D02*
D03*
Y42470D02*
D03*
Y42155D02*
D03*
Y44045D02*
D03*
Y43730D02*
D03*
Y43415D02*
D03*
X56544Y55683D02*
D03*
X56800Y57257D02*
D03*
Y56943D02*
D03*
X57076Y56785D02*
D03*
Y56470D02*
D03*
Y56155D02*
D03*
Y58045D02*
D03*
Y57730D02*
D03*
Y57415D02*
D03*
X56544Y27683D02*
D03*
X56800Y29257D02*
D03*
Y28943D02*
D03*
X57076Y28785D02*
D03*
Y28470D02*
D03*
Y28155D02*
D03*
Y30045D02*
D03*
Y29730D02*
D03*
Y29415D02*
D03*
X56544Y20683D02*
D03*
X56800Y22257D02*
D03*
Y21943D02*
D03*
X57076Y21785D02*
D03*
Y21470D02*
D03*
Y21155D02*
D03*
Y23045D02*
D03*
Y22730D02*
D03*
Y22415D02*
D03*
X56544Y13683D02*
D03*
X56800Y15257D02*
D03*
Y14943D02*
D03*
X57076Y14785D02*
D03*
Y14470D02*
D03*
Y14155D02*
D03*
Y16045D02*
D03*
Y15730D02*
D03*
Y15415D02*
D03*
D39*
X57037Y6474D02*
D03*
Y9726D02*
D03*
Y13474D02*
D03*
X58765Y6332D02*
D03*
Y9868D02*
D03*
Y13332D02*
D03*
X57037Y20474D02*
D03*
Y23726D02*
D03*
Y27474D02*
D03*
Y16726D02*
D03*
X58765Y16868D02*
D03*
Y23868D02*
D03*
Y20332D02*
D03*
Y27332D02*
D03*
X57037Y34474D02*
D03*
Y37726D02*
D03*
Y41474D02*
D03*
Y30726D02*
D03*
X58765Y30868D02*
D03*
Y37868D02*
D03*
Y34332D02*
D03*
Y41332D02*
D03*
X57037Y44726D02*
D03*
Y51726D02*
D03*
Y48474D02*
D03*
Y55474D02*
D03*
Y58726D02*
D03*
X58765Y44868D02*
D03*
Y48332D02*
D03*
Y51868D02*
D03*
Y58868D02*
D03*
Y55332D02*
D03*
D40*
X56544Y9517D02*
D03*
Y51517D02*
D03*
Y37517D02*
D03*
Y44517D02*
D03*
Y58517D02*
D03*
Y30517D02*
D03*
Y23517D02*
D03*
Y16517D02*
D03*
D43*
X19615Y60027D02*
D03*
D47*
X9157Y4800D02*
D03*
X26706Y5500D02*
D03*
X17550Y40500D02*
D03*
X33450Y23800D02*
D03*
X36300Y21300D02*
D03*
X12450Y20700D02*
D03*
X18850Y18100D02*
D03*
X23250Y48500D02*
D03*
X12150Y43700D02*
D03*
X10700Y45100D02*
D03*
X14600Y44800D02*
D03*
X43000Y45000D02*
D03*
X39000Y41000D02*
D03*
X34000Y39000D02*
D03*
X36500Y27500D02*
D03*
X33000Y30500D02*
D03*
X43500Y27000D02*
D03*
X39500Y23000D02*
D03*
X45000Y21000D02*
D03*
X11500Y33000D02*
D03*
X18500D02*
D03*
X6000Y28000D02*
D03*
Y37000D02*
D03*
X24000Y60500D02*
D03*
X40000Y52000D02*
D03*
Y60000D02*
D03*
X42500Y32500D02*
D03*
X4500Y9000D02*
D03*
X20500D02*
D03*
X36500D02*
D03*
X44500Y6000D02*
D03*
X23889Y24180D02*
D03*
X20500Y24300D02*
D03*
X14900Y26500D02*
D03*
X17400Y26600D02*
D03*
X27668Y24061D02*
D03*
X15750Y22657D02*
D03*
X15335Y22230D02*
D03*
D48*
X17415Y60027D02*
D03*
X48800Y11600D02*
D03*
X50400Y11500D02*
D03*
X48800Y18600D02*
D03*
Y25600D02*
D03*
X50400Y18500D02*
D03*
Y25500D02*
D03*
X15385Y37500D02*
D03*
X17274Y38000D02*
D03*
X27668D02*
D03*
X23889Y42400D02*
D03*
X16342Y52725D02*
D03*
X9667Y53600D02*
D03*
Y55100D02*
D03*
X9867Y56700D02*
D03*
X20888Y52716D02*
D03*
X48800Y32600D02*
D03*
Y39600D02*
D03*
X50400Y46500D02*
D03*
Y32500D02*
D03*
Y39500D02*
D03*
X33300Y54976D02*
D03*
X48800Y53600D02*
D03*
X33300Y55976D02*
D03*
Y57976D02*
D03*
Y56976D02*
D03*
X48800Y60600D02*
D03*
X50400Y53500D02*
D03*
Y60500D02*
D03*
X52393Y6665D02*
D03*
X52400Y8706D02*
D03*
Y7689D02*
D03*
X52393Y13665D02*
D03*
X52400Y14689D02*
D03*
X55232Y5100D02*
D03*
Y12100D02*
D03*
X52393Y20665D02*
D03*
X52400Y22706D02*
D03*
Y21689D02*
D03*
X52393Y27665D02*
D03*
X52400Y29706D02*
D03*
Y28689D02*
D03*
Y15706D02*
D03*
X55232Y19100D02*
D03*
Y26100D02*
D03*
X52393Y34665D02*
D03*
X52400Y36706D02*
D03*
Y35689D02*
D03*
X52393Y41665D02*
D03*
X52400Y43706D02*
D03*
Y42689D02*
D03*
X55232Y33100D02*
D03*
Y40100D02*
D03*
X52393Y48665D02*
D03*
Y55665D02*
D03*
X52400Y50706D02*
D03*
Y57706D02*
D03*
Y56689D02*
D03*
X55232Y47100D02*
D03*
X52400Y49689D02*
D03*
X55199Y54100D02*
D03*
X48800Y46600D02*
D03*
Y44412D02*
D03*
X56600Y25400D02*
D03*
X27500Y60682D02*
D03*
X31500Y60707D02*
D03*
X27600Y52380D02*
D03*
X31200Y52370D02*
D03*
X21684Y16830D02*
D03*
Y24400D02*
D03*
X15700Y37900D02*
D03*
X56600Y53400D02*
D03*
X57873D02*
D03*
X48800Y58400D02*
D03*
X51300Y59200D02*
D03*
X56600Y46400D02*
D03*
X57873D02*
D03*
X48800Y51400D02*
D03*
X51300Y52200D02*
D03*
X56600Y39400D02*
D03*
X57873D02*
D03*
X51300Y45200D02*
D03*
X56600Y32400D02*
D03*
X57873D02*
D03*
X48800Y37400D02*
D03*
X51300Y38200D02*
D03*
X57873Y25400D02*
D03*
X48800Y30400D02*
D03*
X51300Y31200D02*
D03*
X56600Y18400D02*
D03*
X57873D02*
D03*
X48800Y23400D02*
D03*
X51300Y24200D02*
D03*
X56600Y11400D02*
D03*
X57873D02*
D03*
X48800Y16400D02*
D03*
X51300Y17200D02*
D03*
Y10200D02*
D03*
X48800Y9400D02*
D03*
X57873Y4400D02*
D03*
X56600D02*
D03*
X52387Y56177D02*
D03*
X52400Y57185D02*
D03*
X52387Y49177D02*
D03*
X52400Y50185D02*
D03*
X52387Y42177D02*
D03*
X52400Y43185D02*
D03*
X52387Y35177D02*
D03*
X52400Y36185D02*
D03*
X52387Y28177D02*
D03*
X52400Y29185D02*
D03*
X52387Y21177D02*
D03*
X52400Y22185D02*
D03*
X52387Y14177D02*
D03*
X52400Y15185D02*
D03*
Y8185D02*
D03*
X16959Y42900D02*
D03*
X17274Y42531D02*
D03*
X16644D02*
D03*
X52387Y7177D02*
D03*
X20424Y38000D02*
D03*
X21054D02*
D03*
X21369Y38400D02*
D03*
X20109D02*
D03*
X17589D02*
D03*
X17904Y38000D02*
D03*
X18849Y38400D02*
D03*
X18534Y38000D02*
D03*
X18219Y38400D02*
D03*
X19164Y38000D02*
D03*
X16330Y38400D02*
D03*
X26408D02*
D03*
X22314Y38000D02*
D03*
X27038Y38400D02*
D03*
X26723Y38000D02*
D03*
X26093D02*
D03*
X25778Y38400D02*
D03*
X25463Y38000D02*
D03*
X25148Y38400D02*
D03*
X24833Y38000D02*
D03*
X24519Y38400D02*
D03*
X24204Y38000D02*
D03*
X23889Y38400D02*
D03*
X23574Y38000D02*
D03*
X23259Y38400D02*
D03*
X22944Y38000D02*
D03*
X22629Y38400D02*
D03*
X21999D02*
D03*
X21684Y38000D02*
D03*
X16644D02*
D03*
X16959Y38400D02*
D03*
X19479D02*
D03*
X19794Y38000D02*
D03*
X20739Y38400D02*
D03*
D49*
X58213Y56000D02*
D03*
X57910Y56000D02*
D03*
X54102Y56908D02*
D03*
X54895Y58244D02*
D03*
X54901Y57939D02*
D03*
X54102Y56608D02*
D03*
X55208Y56455D02*
D03*
X55200Y56155D02*
D03*
X54100Y57508D02*
D03*
X54100Y57208D02*
D03*
X58213Y49000D02*
D03*
X57910Y49000D02*
D03*
X54102Y49908D02*
D03*
X54895Y51244D02*
D03*
X54901Y50939D02*
D03*
X54102Y49608D02*
D03*
X55208Y49455D02*
D03*
X55200Y49155D02*
D03*
X54100Y50508D02*
D03*
X54100Y50208D02*
D03*
X58213Y42000D02*
D03*
X57910Y42000D02*
D03*
X54102Y42908D02*
D03*
X54895Y44244D02*
D03*
X54901Y43939D02*
D03*
X54102Y42608D02*
D03*
X55208Y42455D02*
D03*
X55200Y42155D02*
D03*
X54100Y43508D02*
D03*
X54100Y43208D02*
D03*
X58213Y35000D02*
D03*
X57910Y35000D02*
D03*
X54102Y35908D02*
D03*
X54895Y37244D02*
D03*
X54901Y36939D02*
D03*
X54102Y35608D02*
D03*
X55208Y35455D02*
D03*
X55200Y35155D02*
D03*
X54100Y36508D02*
D03*
X54100Y36208D02*
D03*
X58213Y28000D02*
D03*
X57910Y28000D02*
D03*
X54102Y28908D02*
D03*
X54895Y30244D02*
D03*
X54901Y29939D02*
D03*
X54102Y28608D02*
D03*
X55208Y28455D02*
D03*
X55200Y28155D02*
D03*
X54100Y29508D02*
D03*
X54100Y29208D02*
D03*
X58213Y21000D02*
D03*
X57910Y21000D02*
D03*
X54102Y21908D02*
D03*
X54895Y23244D02*
D03*
X54901Y22939D02*
D03*
X54102Y21608D02*
D03*
X55208Y21455D02*
D03*
X55200Y21155D02*
D03*
X54100Y22508D02*
D03*
X54100Y22208D02*
D03*
X58213Y14000D02*
D03*
X57910Y14000D02*
D03*
X54102Y14908D02*
D03*
X54895Y16244D02*
D03*
X54901Y15939D02*
D03*
X54102Y14608D02*
D03*
X55208Y14455D02*
D03*
X55200Y14155D02*
D03*
X54100Y15508D02*
D03*
X54100Y15208D02*
D03*
Y8208D02*
D03*
X54100Y8508D02*
D03*
X55200Y7155D02*
D03*
X55208Y7455D02*
D03*
X54102Y7608D02*
D03*
X54901Y8939D02*
D03*
X54895Y9244D02*
D03*
X54102Y7908D02*
D03*
X57910Y7000D02*
D03*
X58213Y7000D02*
D03*
X24900Y55000D02*
D03*
X25600Y55976D02*
D03*
X26500Y56976D02*
D03*
X27300Y57976D02*
D03*
X16330Y21851D02*
D03*
X16644Y21616D02*
D03*
X16959Y21400D02*
D03*
X16330Y27700D02*
D03*
X16959Y27100D02*
D03*
X4750Y18900D02*
D03*
X16015Y28000D02*
D03*
X5750Y19400D02*
D03*
X6750Y19900D02*
D03*
X16644Y27400D02*
D03*
X7750Y20400D02*
D03*
X20424Y22152D02*
D03*
X19164Y22458D02*
D03*
X18534D02*
D03*
X17904Y26800D02*
D03*
X18219Y27098D02*
D03*
X18534Y26800D02*
D03*
X19164D02*
D03*
X19794D02*
D03*
X20109Y27098D02*
D03*
X26723Y24061D02*
D03*
X25463D02*
D03*
X24833D02*
D03*
X23259D02*
D03*
X22600D02*
D03*
X21369D02*
D03*
X28000Y11500D02*
D03*
X30000Y11800D02*
D03*
X35000Y12100D02*
D03*
X37000Y12400D02*
D03*
X41000Y12700D02*
D03*
X20424Y26792D02*
D03*
X20739Y27093D02*
D03*
X21369Y27100D02*
D03*
X27668Y28900D02*
D03*
X26408Y28600D02*
D03*
X25800Y28300D02*
D03*
X24500Y28000D02*
D03*
X23900Y27700D02*
D03*
X23600Y27400D02*
D03*
X22300Y27100D02*
D03*
X21700Y26800D02*
D03*
X48800Y55395D02*
D03*
Y55921D02*
D03*
Y56433D02*
D03*
Y57457D02*
D03*
Y48395D02*
D03*
Y48921D02*
D03*
Y49433D02*
D03*
Y50457D02*
D03*
Y41395D02*
D03*
Y41921D02*
D03*
Y42433D02*
D03*
Y43457D02*
D03*
Y34395D02*
D03*
Y34921D02*
D03*
Y35433D02*
D03*
Y36457D02*
D03*
Y27395D02*
D03*
Y27921D02*
D03*
Y28433D02*
D03*
Y29457D02*
D03*
Y20395D02*
D03*
Y20921D02*
D03*
Y21433D02*
D03*
Y22457D02*
D03*
Y13395D02*
D03*
Y13921D02*
D03*
Y14433D02*
D03*
Y15457D02*
D03*
X52800Y57457D02*
D03*
Y56433D02*
D03*
Y55921D02*
D03*
Y55410D02*
D03*
Y50457D02*
D03*
Y49433D02*
D03*
Y48921D02*
D03*
Y48410D02*
D03*
Y43457D02*
D03*
Y42433D02*
D03*
Y41921D02*
D03*
Y41410D02*
D03*
Y36457D02*
D03*
Y35433D02*
D03*
Y34921D02*
D03*
Y34410D02*
D03*
Y29457D02*
D03*
Y28433D02*
D03*
Y27921D02*
D03*
Y27410D02*
D03*
Y22457D02*
D03*
Y21433D02*
D03*
Y20921D02*
D03*
Y20410D02*
D03*
Y15457D02*
D03*
Y14433D02*
D03*
Y13921D02*
D03*
Y13410D02*
D03*
X48800Y8457D02*
D03*
Y7433D02*
D03*
Y6921D02*
D03*
Y6395D02*
D03*
X52800Y6410D02*
D03*
Y6921D02*
D03*
Y7433D02*
D03*
Y8457D02*
D03*
D50*
X13150Y37900D02*
X15700D01*
X3750Y47300D02*
X13150Y37900D01*
X3750Y49000D02*
X4750D01*
X3750Y47300D02*
Y49000D01*
D52*
X57076Y57730D02*
X57128D01*
X55687Y58647D02*
X56353Y59313D01*
X55687Y56568D02*
Y58647D01*
X57128Y57730D02*
X57229Y57831D01*
X57337D01*
X57613Y58107D01*
X56353Y59313D02*
X57247D01*
X57613Y58107D02*
Y58947D01*
X57247Y59313D02*
X57613Y58947D01*
X57066Y56795D02*
Y56971D01*
Y56795D02*
X57076Y56785D01*
X57066Y56971D02*
X57138Y57042D01*
X57230D02*
X57913Y57725D01*
X57138Y57042D02*
X57230D01*
X54520Y58761D02*
X55419Y59660D01*
X57913Y57725D02*
Y59083D01*
X55419Y59660D02*
X57337D01*
X57416Y59580D02*
X57913Y59083D01*
X57337Y59660D02*
X57416Y59580D01*
X54407Y55348D02*
X54968Y54787D01*
X54407Y55348D02*
Y56582D01*
X57076Y56470D02*
X57128D01*
X57229Y56369D01*
X55195Y55092D02*
X57313D01*
X57229Y56369D02*
X57337D01*
X54520Y55395D02*
X55015Y54900D01*
X54520Y55395D02*
Y56628D01*
X57076Y58045D02*
X57128D01*
X55800Y58600D02*
X56400Y59200D01*
X57128Y58045D02*
X57229Y57944D01*
X57290D02*
X57500Y58154D01*
X57229Y57944D02*
X57290D01*
X56400Y59200D02*
X57200D01*
X57500Y58154D02*
Y58900D01*
X57200Y59200D02*
X57500Y58900D01*
X56800Y56943D02*
X56853D01*
X56955Y57045D01*
X56980D01*
X57091Y57155D01*
X57183D02*
X57800Y57772D01*
X57091Y57155D02*
X57183D01*
X54633Y58714D02*
X55465Y59547D01*
X57290D01*
X57800Y57772D02*
Y59036D01*
X57290Y59547D02*
X57800Y59036D01*
X57076Y56155D02*
X57128D01*
X57229Y56256D01*
X55242Y55205D02*
X57266D01*
X57229Y56256D02*
X57290D01*
X55015Y54900D02*
X57573D01*
X54968Y54787D02*
X57620D01*
X57487Y55426D02*
Y56059D01*
X57337Y56369D02*
X57600Y56106D01*
X57313Y55092D02*
X57600Y55379D01*
X57290Y56256D02*
X57487Y56059D01*
X57266Y55205D02*
X57487Y55426D01*
X57600Y55379D02*
Y56106D01*
X57573Y54900D02*
X58005Y55332D01*
Y55880D01*
X58213Y55975D02*
Y56000D01*
X57910Y55975D02*
X58005Y55880D01*
X58118Y55880D02*
X58213Y55975D01*
X57910Y55975D02*
Y56000D01*
X58118Y55285D02*
Y55880D01*
X57620Y54787D02*
X58118Y55285D01*
X55234Y58045D02*
X55382Y57897D01*
X55023Y58045D02*
X55234D01*
X54901Y57939D02*
X54917D01*
X55023Y58045D01*
X54254Y56792D02*
X54356D01*
X54139Y56908D02*
X54254Y56792D01*
X54102Y56908D02*
X54139D01*
X54250Y56634D02*
X54276Y56660D01*
X54328D02*
X54407Y56582D01*
X54129Y56634D02*
X54250D01*
X54276Y56660D02*
X54328D01*
X54102Y56608D02*
X54129Y56634D01*
X54356Y56792D02*
X54520Y56628D01*
X55281Y58158D02*
X55495Y57944D01*
X54819Y55468D02*
Y56606D01*
X55382Y57169D01*
Y57897D01*
X54819Y55468D02*
X55195Y55092D01*
X54895Y58231D02*
X54940D01*
X54932Y56559D02*
X55495Y57123D01*
X55013Y58158D02*
X55281D01*
X55495Y57123D02*
Y57944D01*
X54912Y58244D02*
X54932Y58224D01*
Y55515D02*
Y56559D01*
Y55515D02*
X55242Y55205D01*
X54895Y58244D02*
X54912D01*
X54940Y58231D02*
X55013Y58158D01*
X55208Y56455D02*
X55228D01*
X55800Y56521D02*
Y58600D01*
X55356Y56328D02*
X55446D01*
X55228Y56455D02*
X55356Y56328D01*
X55446D02*
X55687Y56568D01*
X55237Y56155D02*
X55296Y56215D01*
X55493D01*
X55800Y56521D01*
X55200Y56155D02*
X55237D01*
X54520Y57732D02*
Y58761D01*
X54633Y57685D02*
Y58714D01*
X54100Y57208D02*
X54137D01*
X54187Y57257D01*
X54100Y57508D02*
X54112Y57496D01*
X54205Y57257D02*
X54633Y57685D01*
X54187Y57257D02*
X54205D01*
X54112Y57496D02*
X54285D01*
X54520Y57732D01*
X57076Y50730D02*
X57128D01*
X55687Y51647D02*
X56353Y52313D01*
X55687Y49568D02*
Y51647D01*
X57128Y50730D02*
X57229Y50831D01*
X57337D01*
X57613Y51107D01*
X56353Y52313D02*
X57247D01*
X57613Y51107D02*
Y51947D01*
X57247Y52313D02*
X57613Y51947D01*
X57066Y49795D02*
Y49971D01*
Y49795D02*
X57076Y49785D01*
X57066Y49971D02*
X57138Y50042D01*
X57230D02*
X57913Y50725D01*
X57138Y50042D02*
X57230D01*
X54520Y51761D02*
X55419Y52660D01*
X57913Y50725D02*
Y52083D01*
X55419Y52660D02*
X57337D01*
X57416Y52580D02*
X57913Y52083D01*
X57337Y52660D02*
X57416Y52580D01*
X54407Y48348D02*
X54968Y47787D01*
X54407Y48348D02*
Y49581D01*
X57076Y49470D02*
X57128D01*
X57229Y49369D01*
X55195Y48092D02*
X57313D01*
X57229Y49369D02*
X57337D01*
X54520Y48395D02*
X55015Y47900D01*
X54520Y48395D02*
Y49628D01*
X57076Y51045D02*
X57128D01*
X55800Y51600D02*
X56400Y52200D01*
X57128Y51045D02*
X57229Y50944D01*
X57290D02*
X57500Y51154D01*
X57229Y50944D02*
X57290D01*
X56400Y52200D02*
X57200D01*
X57500Y51154D02*
Y51900D01*
X57200Y52200D02*
X57500Y51900D01*
X56800Y49943D02*
X56853D01*
X56955Y50045D01*
X56980D01*
X57091Y50155D01*
X57183D02*
X57800Y50772D01*
X57091Y50155D02*
X57183D01*
X54633Y51714D02*
X55465Y52547D01*
X57290D01*
X57800Y50772D02*
Y52036D01*
X57290Y52547D02*
X57800Y52036D01*
X57076Y49155D02*
X57128D01*
X57229Y49256D01*
X55242Y48205D02*
X57266D01*
X57229Y49256D02*
X57290D01*
X55015Y47900D02*
X57573D01*
X54968Y47787D02*
X57620D01*
X57487Y48426D02*
Y49059D01*
X57337Y49369D02*
X57600Y49106D01*
X57313Y48092D02*
X57600Y48379D01*
X57290Y49256D02*
X57487Y49059D01*
X57266Y48205D02*
X57487Y48426D01*
X57600Y48379D02*
Y49106D01*
X57573Y47900D02*
X58005Y48332D01*
Y48880D01*
X58213Y48975D02*
Y49000D01*
X57910Y48975D02*
X58005Y48880D01*
X58118Y48880D02*
X58213Y48975D01*
X57910Y48975D02*
Y49000D01*
X58118Y48285D02*
Y48880D01*
X57620Y47787D02*
X58118Y48285D01*
X55234Y51045D02*
X55382Y50897D01*
X55023Y51045D02*
X55234D01*
X54901Y50939D02*
X54917D01*
X55023Y51045D01*
X54254Y49792D02*
X54356D01*
X54139Y49908D02*
X54254Y49792D01*
X54102Y49908D02*
X54139D01*
X54250Y49634D02*
X54276Y49660D01*
X54328D02*
X54407Y49581D01*
X54129Y49634D02*
X54250D01*
X54276Y49660D02*
X54328D01*
X54102Y49608D02*
X54129Y49634D01*
X54356Y49792D02*
X54520Y49628D01*
X55281Y51158D02*
X55495Y50944D01*
X54819Y48468D02*
Y49606D01*
X55382Y50169D01*
Y50897D01*
X54819Y48468D02*
X55195Y48092D01*
X54895Y51231D02*
X54940D01*
X54932Y49559D02*
X55495Y50123D01*
X55013Y51158D02*
X55281D01*
X55495Y50123D02*
Y50944D01*
X54912Y51244D02*
X54932Y51224D01*
Y48515D02*
Y49559D01*
Y48515D02*
X55242Y48205D01*
X54895Y51244D02*
X54912D01*
X54940Y51231D02*
X55013Y51158D01*
X55208Y49455D02*
X55228D01*
X55800Y49521D02*
Y51600D01*
X55356Y49328D02*
X55446D01*
X55228Y49455D02*
X55356Y49328D01*
X55446D02*
X55687Y49568D01*
X55237Y49155D02*
X55296Y49215D01*
X55493D01*
X55800Y49521D01*
X55200Y49155D02*
X55237D01*
X54520Y50732D02*
Y51761D01*
X54633Y50685D02*
Y51714D01*
X54100Y50208D02*
X54137D01*
X54187Y50257D01*
X54100Y50508D02*
X54112Y50496D01*
X54205Y50257D02*
X54633Y50685D01*
X54187Y50257D02*
X54205D01*
X54112Y50496D02*
X54285D01*
X54520Y50732D01*
X57076Y43730D02*
X57128D01*
X55687Y44647D02*
X56353Y45313D01*
X55687Y42568D02*
Y44647D01*
X57128Y43730D02*
X57229Y43831D01*
X57337D01*
X57613Y44107D01*
X56353Y45313D02*
X57247D01*
X57613Y44107D02*
Y44947D01*
X57247Y45313D02*
X57613Y44947D01*
X57066Y42795D02*
Y42971D01*
Y42795D02*
X57076Y42785D01*
X57066Y42971D02*
X57138Y43042D01*
X57230D02*
X57913Y43725D01*
X57138Y43042D02*
X57230D01*
X54520Y44761D02*
X55419Y45660D01*
X57913Y43725D02*
Y45083D01*
X55419Y45660D02*
X57337D01*
X57416Y45580D02*
X57913Y45083D01*
X57337Y45660D02*
X57416Y45580D01*
X54407Y41348D02*
X54968Y40787D01*
X54407Y41348D02*
Y42582D01*
X57076Y42470D02*
X57128D01*
X57229Y42369D01*
X55195Y41092D02*
X57313D01*
X57229Y42369D02*
X57337D01*
X54520Y41395D02*
X55015Y40900D01*
X54520Y41395D02*
Y42628D01*
X57076Y44045D02*
X57128D01*
X55800Y44600D02*
X56400Y45200D01*
X57128Y44045D02*
X57229Y43944D01*
X57290D02*
X57500Y44154D01*
X57229Y43944D02*
X57290D01*
X56400Y45200D02*
X57200D01*
X57500Y44154D02*
Y44900D01*
X57200Y45200D02*
X57500Y44900D01*
X56800Y42943D02*
X56853D01*
X56955Y43045D01*
X56980D01*
X57091Y43155D01*
X57183D02*
X57800Y43772D01*
X57091Y43155D02*
X57183D01*
X54633Y44714D02*
X55465Y45547D01*
X57290D01*
X57800Y43772D02*
Y45037D01*
X57290Y45547D02*
X57800Y45037D01*
X57076Y42155D02*
X57128D01*
X57229Y42256D01*
X55242Y41205D02*
X57266D01*
X57229Y42256D02*
X57290D01*
X55015Y40900D02*
X57573D01*
X54968Y40787D02*
X57620D01*
X57487Y41426D02*
Y42059D01*
X57337Y42369D02*
X57600Y42106D01*
X57313Y41092D02*
X57600Y41379D01*
X57290Y42256D02*
X57487Y42059D01*
X57266Y41205D02*
X57487Y41426D01*
X57600Y41379D02*
Y42106D01*
X57573Y40900D02*
X58005Y41332D01*
Y41880D01*
X58213Y41975D02*
Y42000D01*
X57910Y41975D02*
X58005Y41880D01*
X58118Y41880D02*
X58213Y41975D01*
X57910Y41975D02*
Y42000D01*
X58118Y41285D02*
Y41880D01*
X57620Y40787D02*
X58118Y41285D01*
X55234Y44045D02*
X55382Y43897D01*
X55023Y44045D02*
X55234D01*
X54901Y43939D02*
X54917D01*
X55023Y44045D01*
X54254Y42792D02*
X54356D01*
X54139Y42908D02*
X54254Y42792D01*
X54102Y42908D02*
X54139D01*
X54250Y42634D02*
X54276Y42660D01*
X54328D02*
X54407Y42582D01*
X54129Y42634D02*
X54250D01*
X54276Y42660D02*
X54328D01*
X54102Y42608D02*
X54129Y42634D01*
X54356Y42792D02*
X54520Y42628D01*
X55281Y44158D02*
X55495Y43944D01*
X54819Y41468D02*
Y42606D01*
X55382Y43169D01*
Y43897D01*
X54819Y41468D02*
X55195Y41092D01*
X54895Y44231D02*
X54940D01*
X54932Y42559D02*
X55495Y43123D01*
X55013Y44158D02*
X55281D01*
X55495Y43123D02*
Y43944D01*
X54912Y44244D02*
X54932Y44224D01*
Y41515D02*
Y42559D01*
Y41515D02*
X55242Y41205D01*
X54895Y44244D02*
X54912D01*
X54940Y44231D02*
X55013Y44158D01*
X55208Y42455D02*
X55228D01*
X55800Y42521D02*
Y44600D01*
X55356Y42328D02*
X55446D01*
X55228Y42455D02*
X55356Y42328D01*
X55446D02*
X55687Y42568D01*
X55237Y42155D02*
X55296Y42215D01*
X55493D01*
X55800Y42521D01*
X55200Y42155D02*
X55237D01*
X54520Y43732D02*
Y44761D01*
X54633Y43685D02*
Y44714D01*
X54100Y43208D02*
X54137D01*
X54187Y43257D01*
X54100Y43508D02*
X54112Y43496D01*
X54205Y43257D02*
X54633Y43685D01*
X54187Y43257D02*
X54205D01*
X54112Y43496D02*
X54285D01*
X54520Y43732D01*
X57076Y36730D02*
X57128D01*
X55687Y37647D02*
X56353Y38313D01*
X55687Y35568D02*
Y37647D01*
X57128Y36730D02*
X57229Y36831D01*
X57337D01*
X57613Y37107D01*
X56353Y38313D02*
X57247D01*
X57613Y37107D02*
Y37947D01*
X57247Y38313D02*
X57613Y37947D01*
X57066Y35795D02*
Y35971D01*
Y35795D02*
X57076Y35785D01*
X57066Y35971D02*
X57138Y36042D01*
X57230D02*
X57913Y36725D01*
X57138Y36042D02*
X57230D01*
X54520Y37761D02*
X55419Y38660D01*
X57913Y36725D02*
Y38083D01*
X55419Y38660D02*
X57337D01*
X57416Y38580D02*
X57913Y38083D01*
X57337Y38660D02*
X57416Y38580D01*
X54407Y34348D02*
X54968Y33787D01*
X54407Y34348D02*
Y35582D01*
X57076Y35470D02*
X57128D01*
X57229Y35369D01*
X55195Y34092D02*
X57313D01*
X57229Y35369D02*
X57337D01*
X54520Y34395D02*
X55015Y33900D01*
X54520Y34395D02*
Y35628D01*
X57076Y37045D02*
X57128D01*
X55800Y37600D02*
X56400Y38200D01*
X57128Y37045D02*
X57229Y36944D01*
X57290D02*
X57500Y37154D01*
X57229Y36944D02*
X57290D01*
X56400Y38200D02*
X57200D01*
X57500Y37154D02*
Y37900D01*
X57200Y38200D02*
X57500Y37900D01*
X56800Y35943D02*
X56853D01*
X56955Y36045D01*
X56980D01*
X57091Y36155D01*
X57183D02*
X57800Y36772D01*
X57091Y36155D02*
X57183D01*
X54633Y37714D02*
X55465Y38547D01*
X57290D01*
X57800Y36772D02*
Y38036D01*
X57290Y38547D02*
X57800Y38036D01*
X57076Y35155D02*
X57128D01*
X57229Y35256D01*
X55242Y34205D02*
X57266D01*
X57229Y35256D02*
X57290D01*
X55015Y33900D02*
X57573D01*
X54968Y33787D02*
X57620D01*
X57487Y34426D02*
Y35059D01*
X57337Y35369D02*
X57600Y35106D01*
X57313Y34092D02*
X57600Y34379D01*
X57290Y35256D02*
X57487Y35059D01*
X57266Y34205D02*
X57487Y34426D01*
X57600Y34379D02*
Y35106D01*
X57573Y33900D02*
X58005Y34332D01*
Y34880D01*
X58213Y34975D02*
Y35000D01*
X57910Y34975D02*
X58005Y34880D01*
X58118Y34880D02*
X58213Y34975D01*
X57910Y34975D02*
Y35000D01*
X58118Y34285D02*
Y34880D01*
X57620Y33787D02*
X58118Y34285D01*
X55234Y37045D02*
X55382Y36897D01*
X55023Y37045D02*
X55234D01*
X54901Y36939D02*
X54917D01*
X55023Y37045D01*
X54254Y35792D02*
X54356D01*
X54139Y35908D02*
X54254Y35792D01*
X54102Y35908D02*
X54139D01*
X54250Y35634D02*
X54276Y35660D01*
X54328D02*
X54407Y35582D01*
X54129Y35634D02*
X54250D01*
X54276Y35660D02*
X54328D01*
X54102Y35608D02*
X54129Y35634D01*
X54356Y35792D02*
X54520Y35628D01*
X55281Y37158D02*
X55495Y36944D01*
X54819Y34468D02*
Y35606D01*
X55382Y36169D01*
Y36897D01*
X54819Y34468D02*
X55195Y34092D01*
X54895Y37231D02*
X54940D01*
X54932Y35559D02*
X55495Y36123D01*
X55013Y37158D02*
X55281D01*
X55495Y36123D02*
Y36944D01*
X54912Y37244D02*
X54932Y37224D01*
Y34515D02*
Y35559D01*
Y34515D02*
X55242Y34205D01*
X54895Y37244D02*
X54912D01*
X54940Y37231D02*
X55013Y37158D01*
X55208Y35455D02*
X55228D01*
X55800Y35521D02*
Y37600D01*
X55356Y35328D02*
X55446D01*
X55228Y35455D02*
X55356Y35328D01*
X55446D02*
X55687Y35568D01*
X55237Y35155D02*
X55296Y35215D01*
X55493D01*
X55800Y35521D01*
X55200Y35155D02*
X55237D01*
X54520Y36732D02*
Y37761D01*
X54633Y36685D02*
Y37714D01*
X54100Y36208D02*
X54137D01*
X54187Y36257D01*
X54100Y36508D02*
X54112Y36496D01*
X54205Y36257D02*
X54633Y36685D01*
X54187Y36257D02*
X54205D01*
X54112Y36496D02*
X54285D01*
X54520Y36732D01*
X57076Y29730D02*
X57128D01*
X55687Y30647D02*
X56353Y31313D01*
X55687Y28568D02*
Y30647D01*
X57128Y29730D02*
X57229Y29831D01*
X57337D01*
X57613Y30107D01*
X56353Y31313D02*
X57247D01*
X57613Y30107D02*
Y30947D01*
X57247Y31313D02*
X57613Y30947D01*
X57066Y28795D02*
Y28971D01*
Y28795D02*
X57076Y28785D01*
X57066Y28971D02*
X57138Y29042D01*
X57230D02*
X57913Y29725D01*
X57138Y29042D02*
X57230D01*
X54520Y30761D02*
X55419Y31660D01*
X57913Y29725D02*
Y31083D01*
X55419Y31660D02*
X57337D01*
X57416Y31580D02*
X57913Y31083D01*
X57337Y31660D02*
X57416Y31580D01*
X54407Y27348D02*
X54968Y26787D01*
X54407Y27348D02*
Y28582D01*
X57076Y28470D02*
X57128D01*
X57229Y28369D01*
X55195Y27092D02*
X57313D01*
X57229Y28369D02*
X57337D01*
X54520Y27395D02*
X55015Y26900D01*
X54520Y27395D02*
Y28628D01*
X57076Y30045D02*
X57128D01*
X55800Y30600D02*
X56400Y31200D01*
X57128Y30045D02*
X57229Y29944D01*
X57290D02*
X57500Y30154D01*
X57229Y29944D02*
X57290D01*
X56400Y31200D02*
X57200D01*
X57500Y30154D02*
Y30900D01*
X57200Y31200D02*
X57500Y30900D01*
X56800Y28943D02*
X56853D01*
X56955Y29045D01*
X56980D01*
X57091Y29155D01*
X57183D02*
X57800Y29772D01*
X57091Y29155D02*
X57183D01*
X54633Y30714D02*
X55465Y31547D01*
X57290D01*
X57800Y29772D02*
Y31037D01*
X57290Y31547D02*
X57800Y31037D01*
X57076Y28155D02*
X57128D01*
X57229Y28256D01*
X55242Y27205D02*
X57266D01*
X57229Y28256D02*
X57290D01*
X55015Y26900D02*
X57573D01*
X54968Y26787D02*
X57620D01*
X57487Y27426D02*
Y28059D01*
X57337Y28369D02*
X57600Y28106D01*
X57313Y27092D02*
X57600Y27379D01*
X57290Y28256D02*
X57487Y28059D01*
X57266Y27205D02*
X57487Y27426D01*
X57600Y27379D02*
Y28106D01*
X57573Y26900D02*
X58005Y27332D01*
Y27880D01*
X58213Y27975D02*
Y28000D01*
X57910Y27975D02*
X58005Y27880D01*
X58118Y27880D02*
X58213Y27975D01*
X57910Y27975D02*
Y28000D01*
X58118Y27285D02*
Y27880D01*
X57620Y26787D02*
X58118Y27285D01*
X55234Y30045D02*
X55382Y29897D01*
X55023Y30045D02*
X55234D01*
X54901Y29939D02*
X54917D01*
X55023Y30045D01*
X54254Y28792D02*
X54356D01*
X54139Y28908D02*
X54254Y28792D01*
X54102Y28908D02*
X54139D01*
X54250Y28634D02*
X54276Y28660D01*
X54328D02*
X54407Y28582D01*
X54129Y28634D02*
X54250D01*
X54276Y28660D02*
X54328D01*
X54102Y28608D02*
X54129Y28634D01*
X54356Y28792D02*
X54520Y28628D01*
X55281Y30158D02*
X55495Y29944D01*
X54819Y27468D02*
Y28606D01*
X55382Y29169D01*
Y29897D01*
X54819Y27468D02*
X55195Y27092D01*
X54895Y30231D02*
X54940D01*
X54932Y28559D02*
X55495Y29123D01*
X55013Y30158D02*
X55281D01*
X55495Y29123D02*
Y29944D01*
X54912Y30244D02*
X54932Y30224D01*
Y27515D02*
Y28559D01*
Y27515D02*
X55242Y27205D01*
X54895Y30244D02*
X54912D01*
X54940Y30231D02*
X55013Y30158D01*
X55208Y28455D02*
X55228D01*
X55800Y28521D02*
Y30600D01*
X55356Y28328D02*
X55446D01*
X55228Y28455D02*
X55356Y28328D01*
X55446D02*
X55687Y28568D01*
X55237Y28155D02*
X55296Y28215D01*
X55493D01*
X55800Y28521D01*
X55200Y28155D02*
X55237D01*
X54520Y29732D02*
Y30761D01*
X54633Y29685D02*
Y30714D01*
X54100Y29208D02*
X54137D01*
X54187Y29257D01*
X54100Y29508D02*
X54112Y29496D01*
X54205Y29257D02*
X54633Y29685D01*
X54187Y29257D02*
X54205D01*
X54112Y29496D02*
X54285D01*
X54520Y29732D01*
X57076Y22730D02*
X57128D01*
X55687Y23647D02*
X56353Y24313D01*
X55687Y21568D02*
Y23647D01*
X57128Y22730D02*
X57229Y22831D01*
X57337D01*
X57613Y23107D01*
X56353Y24313D02*
X57247D01*
X57613Y23107D02*
Y23947D01*
X57247Y24313D02*
X57613Y23947D01*
X57066Y21795D02*
Y21971D01*
Y21795D02*
X57076Y21785D01*
X57066Y21971D02*
X57138Y22042D01*
X57230D02*
X57913Y22725D01*
X57138Y22042D02*
X57230D01*
X54520Y23761D02*
X55419Y24660D01*
X57913Y22725D02*
Y24083D01*
X55419Y24660D02*
X57337D01*
X57416Y24580D02*
X57913Y24083D01*
X57337Y24660D02*
X57416Y24580D01*
X54407Y20348D02*
X54968Y19787D01*
X54407Y20348D02*
Y21581D01*
X57076Y21470D02*
X57128D01*
X57229Y21369D01*
X55195Y20092D02*
X57313D01*
X57229Y21369D02*
X57337D01*
X54520Y20395D02*
X55015Y19900D01*
X54520Y20395D02*
Y21628D01*
X57076Y23045D02*
X57128D01*
X55800Y23600D02*
X56400Y24200D01*
X57128Y23045D02*
X57229Y22944D01*
X57290D02*
X57500Y23154D01*
X57229Y22944D02*
X57290D01*
X56400Y24200D02*
X57200D01*
X57500Y23154D02*
Y23900D01*
X57200Y24200D02*
X57500Y23900D01*
X56800Y21943D02*
X56853D01*
X56955Y22045D01*
X56980D01*
X57091Y22155D01*
X57183D02*
X57800Y22772D01*
X57091Y22155D02*
X57183D01*
X54633Y23714D02*
X55465Y24547D01*
X57290D01*
X57800Y22772D02*
Y24037D01*
X57290Y24547D02*
X57800Y24037D01*
X57076Y21155D02*
X57128D01*
X57229Y21256D01*
X55242Y20205D02*
X57266D01*
X57229Y21256D02*
X57290D01*
X55015Y19900D02*
X57573D01*
X54968Y19787D02*
X57620D01*
X57487Y20426D02*
Y21059D01*
X57337Y21369D02*
X57600Y21106D01*
X57313Y20092D02*
X57600Y20379D01*
X57290Y21256D02*
X57487Y21059D01*
X57266Y20205D02*
X57487Y20426D01*
X57600Y20379D02*
Y21106D01*
X57573Y19900D02*
X58005Y20332D01*
Y20880D01*
X58213Y20975D02*
Y21000D01*
X57910Y20975D02*
X58005Y20880D01*
X58118Y20880D02*
X58213Y20975D01*
X57910Y20975D02*
Y21000D01*
X58118Y20285D02*
Y20880D01*
X57620Y19787D02*
X58118Y20285D01*
X55234Y23045D02*
X55382Y22897D01*
X55023Y23045D02*
X55234D01*
X54901Y22939D02*
X54917D01*
X55023Y23045D01*
X54254Y21792D02*
X54356D01*
X54139Y21908D02*
X54254Y21792D01*
X54102Y21908D02*
X54139D01*
X54250Y21634D02*
X54276Y21660D01*
X54328D02*
X54407Y21581D01*
X54129Y21634D02*
X54250D01*
X54276Y21660D02*
X54328D01*
X54102Y21608D02*
X54129Y21634D01*
X54356Y21792D02*
X54520Y21628D01*
X55281Y23158D02*
X55495Y22944D01*
X54819Y20468D02*
Y21606D01*
X55382Y22169D01*
Y22897D01*
X54819Y20468D02*
X55195Y20092D01*
X54895Y23231D02*
X54940D01*
X54932Y21559D02*
X55495Y22123D01*
X55013Y23158D02*
X55281D01*
X55495Y22123D02*
Y22944D01*
X54912Y23244D02*
X54932Y23224D01*
Y20515D02*
Y21559D01*
Y20515D02*
X55242Y20205D01*
X54895Y23244D02*
X54912D01*
X54940Y23231D02*
X55013Y23158D01*
X55208Y21455D02*
X55228D01*
X55800Y21521D02*
Y23600D01*
X55356Y21328D02*
X55446D01*
X55228Y21455D02*
X55356Y21328D01*
X55446D02*
X55687Y21568D01*
X55237Y21155D02*
X55296Y21215D01*
X55493D01*
X55800Y21521D01*
X55200Y21155D02*
X55237D01*
X54520Y22732D02*
Y23761D01*
X54633Y22685D02*
Y23714D01*
X54100Y22208D02*
X54137D01*
X54187Y22257D01*
X54100Y22508D02*
X54112Y22496D01*
X54205Y22257D02*
X54633Y22685D01*
X54187Y22257D02*
X54205D01*
X54112Y22496D02*
X54285D01*
X54520Y22732D01*
X57076Y15730D02*
X57128D01*
X55687Y16647D02*
X56353Y17313D01*
X55687Y14568D02*
Y16647D01*
X57128Y15730D02*
X57229Y15831D01*
X57337D01*
X57613Y16107D01*
X56353Y17313D02*
X57247D01*
X57613Y16107D02*
Y16947D01*
X57247Y17313D02*
X57613Y16947D01*
X57066Y14795D02*
Y14971D01*
Y14795D02*
X57076Y14785D01*
X57066Y14971D02*
X57138Y15042D01*
X57230D02*
X57913Y15725D01*
X57138Y15042D02*
X57230D01*
X54520Y16761D02*
X55419Y17660D01*
X57913Y15725D02*
Y17083D01*
X55419Y17660D02*
X57337D01*
X57416Y17580D02*
X57913Y17083D01*
X57337Y17660D02*
X57416Y17580D01*
X54407Y13348D02*
X54968Y12787D01*
X54407Y13348D02*
Y14582D01*
X57076Y14470D02*
X57128D01*
X57229Y14369D01*
X55195Y13092D02*
X57313D01*
X57229Y14369D02*
X57337D01*
X54520Y13395D02*
X55015Y12900D01*
X54520Y13395D02*
Y14628D01*
X57076Y16045D02*
X57128D01*
X55800Y16600D02*
X56400Y17200D01*
X57128Y16045D02*
X57229Y15944D01*
X57290D02*
X57500Y16154D01*
X57229Y15944D02*
X57290D01*
X56400Y17200D02*
X57200D01*
X57500Y16154D02*
Y16900D01*
X57200Y17200D02*
X57500Y16900D01*
X56800Y14943D02*
X56853D01*
X56955Y15045D01*
X56980D01*
X57091Y15155D01*
X57183D02*
X57800Y15772D01*
X57091Y15155D02*
X57183D01*
X54633Y16714D02*
X55465Y17547D01*
X57290D01*
X57800Y15772D02*
Y17036D01*
X57290Y17547D02*
X57800Y17036D01*
X57076Y14155D02*
X57128D01*
X57229Y14256D01*
X55242Y13205D02*
X57266D01*
X57229Y14256D02*
X57290D01*
X55015Y12900D02*
X57573D01*
X54968Y12787D02*
X57620D01*
X57487Y13426D02*
Y14059D01*
X57337Y14369D02*
X57600Y14106D01*
X57313Y13092D02*
X57600Y13379D01*
X57290Y14256D02*
X57487Y14059D01*
X57266Y13205D02*
X57487Y13426D01*
X57600Y13379D02*
Y14106D01*
X57573Y12900D02*
X58005Y13332D01*
Y13880D01*
X58213Y13975D02*
Y14000D01*
X57910Y13975D02*
X58005Y13880D01*
X58118Y13880D02*
X58213Y13975D01*
X57910Y13975D02*
Y14000D01*
X58118Y13285D02*
Y13880D01*
X57620Y12787D02*
X58118Y13285D01*
X55234Y16045D02*
X55382Y15897D01*
X55023Y16045D02*
X55234D01*
X54901Y15939D02*
X54917D01*
X55023Y16045D01*
X54254Y14792D02*
X54356D01*
X54139Y14908D02*
X54254Y14792D01*
X54102Y14908D02*
X54139D01*
X54250Y14634D02*
X54276Y14660D01*
X54328D02*
X54407Y14582D01*
X54129Y14634D02*
X54250D01*
X54276Y14660D02*
X54328D01*
X54102Y14608D02*
X54129Y14634D01*
X54356Y14792D02*
X54520Y14628D01*
X55281Y16158D02*
X55495Y15944D01*
X54819Y13468D02*
Y14606D01*
X55382Y15169D01*
Y15897D01*
X54819Y13468D02*
X55195Y13092D01*
X54895Y16231D02*
X54940D01*
X54932Y14559D02*
X55495Y15123D01*
X55013Y16158D02*
X55281D01*
X55495Y15123D02*
Y15944D01*
X54912Y16244D02*
X54932Y16224D01*
Y13515D02*
Y14559D01*
Y13515D02*
X55242Y13205D01*
X54895Y16244D02*
X54912D01*
X54940Y16231D02*
X55013Y16158D01*
X55208Y14455D02*
X55228D01*
X55800Y14521D02*
Y16600D01*
X55356Y14328D02*
X55446D01*
X55228Y14455D02*
X55356Y14328D01*
X55446D02*
X55687Y14568D01*
X55237Y14155D02*
X55296Y14215D01*
X55493D01*
X55800Y14521D01*
X55200Y14155D02*
X55237D01*
X54520Y15732D02*
Y16761D01*
X54633Y15685D02*
Y16714D01*
X54100Y15208D02*
X54137D01*
X54187Y15257D01*
X54100Y15508D02*
X54112Y15496D01*
X54205Y15257D02*
X54633Y15685D01*
X54187Y15257D02*
X54205D01*
X54112Y15496D02*
X54285D01*
X54520Y15732D01*
X54285Y8496D02*
X54520Y8732D01*
X54112Y8496D02*
X54285D01*
X54187Y8257D02*
X54205D01*
X54633Y8685D01*
X54100Y8508D02*
X54112Y8496D01*
X54137Y8208D02*
X54187Y8257D01*
X54100Y8208D02*
X54137D01*
X54633Y8685D02*
Y9714D01*
X54520Y8732D02*
Y9761D01*
X55200Y7155D02*
X55237D01*
X55493Y7215D02*
X55800Y7521D01*
X55296Y7215D02*
X55493D01*
X55237Y7155D02*
X55296Y7215D01*
X55446Y7328D02*
X55687Y7568D01*
X55228Y7455D02*
X55356Y7328D01*
X55446D01*
X55800Y7521D02*
Y9600D01*
X55208Y7455D02*
X55228D01*
X54940Y9231D02*
X55013Y9158D01*
X54895Y9244D02*
X54912D01*
X54932Y6515D02*
X55242Y6205D01*
X54932Y6515D02*
Y7559D01*
X54912Y9244D02*
X54932Y9224D01*
X55495Y8123D02*
Y8944D01*
X55013Y9158D02*
X55281D01*
X54932Y7559D02*
X55495Y8123D01*
X54895Y9231D02*
X54940D01*
X54819Y6468D02*
X55195Y6092D01*
X55382Y8169D02*
Y8897D01*
X54819Y7606D02*
X55382Y8169D01*
X54819Y6468D02*
Y7606D01*
X55281Y9158D02*
X55495Y8944D01*
X54356Y7792D02*
X54520Y7628D01*
X54102Y7608D02*
X54129Y7634D01*
X54276Y7660D02*
X54328D01*
X54129Y7634D02*
X54250D01*
X54328Y7660D02*
X54407Y7581D01*
X54250Y7634D02*
X54276Y7660D01*
X54102Y7908D02*
X54139D01*
X54254Y7792D01*
X54356D01*
X54917Y8939D02*
X55023Y9045D01*
X54901Y8939D02*
X54917D01*
X55023Y9045D02*
X55234D01*
X55382Y8897D01*
X57620Y5787D02*
X58118Y6285D01*
Y6880D01*
X57910Y6975D02*
Y7000D01*
X58118Y6880D02*
X58213Y6975D01*
X57910Y6975D02*
X58005Y6880D01*
X58213Y6975D02*
Y7000D01*
X58005Y6332D02*
Y6880D01*
X57573Y5900D02*
X58005Y6332D01*
X57600Y6379D02*
Y7106D01*
X57266Y6205D02*
X57487Y6426D01*
X57290Y7256D02*
X57487Y7059D01*
X57313Y6092D02*
X57600Y6379D01*
X57337Y7369D02*
X57600Y7106D01*
X57487Y6426D02*
Y7059D01*
X54968Y5787D02*
X57620D01*
X55015Y5900D02*
X57573D01*
X57229Y7256D02*
X57290D01*
X55242Y6205D02*
X57266D01*
X57128Y7155D02*
X57229Y7256D01*
X57076Y7155D02*
X57128D01*
X57290Y10547D02*
X57800Y10036D01*
Y8772D02*
Y10036D01*
X55465Y10547D02*
X57290D01*
X54633Y9714D02*
X55465Y10547D01*
X57091Y8155D02*
X57183D01*
X57800Y8772D01*
X56980Y8045D02*
X57091Y8155D01*
X56955Y8045D02*
X56980D01*
X56853Y7943D02*
X56955Y8045D01*
X56800Y7943D02*
X56853D01*
X57200Y10200D02*
X57500Y9900D01*
Y9154D02*
Y9900D01*
X56400Y10200D02*
X57200D01*
X57229Y8944D02*
X57290D01*
X57500Y9154D01*
X57128Y9045D02*
X57229Y8944D01*
X55800Y9600D02*
X56400Y10200D01*
X57076Y9045D02*
X57128D01*
X54520Y6395D02*
Y7628D01*
Y6395D02*
X55015Y5900D01*
X57229Y7369D02*
X57337D01*
X55195Y6092D02*
X57313D01*
X57128Y7470D02*
X57229Y7369D01*
X57076Y7470D02*
X57128D01*
X54407Y6348D02*
Y7581D01*
Y6348D02*
X54968Y5787D01*
X57337Y10660D02*
X57416Y10580D01*
X57913Y10083D01*
X55419Y10660D02*
X57337D01*
X57913Y8725D02*
Y10083D01*
X54520Y9761D02*
X55419Y10660D01*
X57138Y8042D02*
X57230D01*
X57913Y8725D01*
X57066Y7971D02*
X57138Y8042D01*
X57066Y7795D02*
X57076Y7785D01*
X57066Y7795D02*
Y7971D01*
X57247Y10313D02*
X57613Y9947D01*
Y9107D02*
Y9947D01*
X56353Y10313D02*
X57247D01*
X57337Y8831D02*
X57613Y9107D01*
X57229Y8831D02*
X57337D01*
X57128Y8730D02*
X57229Y8831D01*
X55687Y7568D02*
Y9647D01*
X56353Y10313D01*
X57076Y8730D02*
X57128D01*
D53*
X15750Y14000D02*
D03*
X11750D02*
D03*
X13750D02*
D03*
X19750D02*
D03*
X16750D02*
D03*
X17750D02*
D03*
X8750D02*
D03*
Y15000D02*
D03*
X10750Y14000D02*
D03*
X9750D02*
D03*
X29000D02*
D03*
X26000D02*
D03*
X27000D02*
D03*
X33000D02*
D03*
X31000D02*
D03*
X32000D02*
D03*
X25000D02*
D03*
X20750D02*
D03*
X26000Y15000D02*
D03*
X30000D02*
D03*
X33000D02*
D03*
X28000D02*
D03*
X29000D02*
D03*
X40000Y14000D02*
D03*
X38000D02*
D03*
X39000D02*
D03*
X44000D02*
D03*
X42000D02*
D03*
X43000D02*
D03*
X36000D02*
D03*
X34000D02*
D03*
X37000Y15000D02*
D03*
X43000D02*
D03*
X41000D02*
D03*
X42000D02*
D03*
X39000D02*
D03*
X35000D02*
D03*
X36000D02*
D03*
X8750Y49000D02*
D03*
X2750D02*
D03*
X19750Y50000D02*
D03*
X32000D02*
D03*
X44000Y49000D02*
D03*
X43000D02*
D03*
X7750Y50000D02*
D03*
X8750D02*
D03*
X6750D02*
D03*
X3750Y14000D02*
D03*
X4750D02*
D03*
X2750D02*
D03*
X18750Y49000D02*
D03*
X20750D02*
D03*
X21750D02*
D03*
X17750D02*
D03*
X3750Y50000D02*
D03*
X4750D02*
D03*
X44000Y15000D02*
D03*
X37000Y14000D02*
D03*
X35000D02*
D03*
X27000Y15000D02*
D03*
X21750Y14000D02*
D03*
X13750Y15000D02*
D03*
X7750Y14000D02*
D03*
X41000D02*
D03*
X31000Y15000D02*
D03*
X16750D02*
D03*
X34000D02*
D03*
X30000Y14000D02*
D03*
X20750Y15000D02*
D03*
X18750D02*
D03*
X12750D02*
D03*
X9750D02*
D03*
X19750D02*
D03*
X32000D02*
D03*
X3750D02*
D03*
X28000Y14000D02*
D03*
X6750D02*
D03*
X40000Y15000D02*
D03*
X21750D02*
D03*
X18750Y14000D02*
D03*
X15750Y15000D02*
D03*
X14750Y14000D02*
D03*
X17750Y15000D02*
D03*
X6750D02*
D03*
X5750Y14000D02*
D03*
Y15000D02*
D03*
X4750D02*
D03*
X38000D02*
D03*
X14750D02*
D03*
X12750Y14000D02*
D03*
X11750Y15000D02*
D03*
X10750D02*
D03*
X7750D02*
D03*
X44000Y50000D02*
D03*
X43000D02*
D03*
X42000Y49000D02*
D03*
Y50000D02*
D03*
X41000Y49000D02*
D03*
Y50000D02*
D03*
X40000Y49000D02*
D03*
Y50000D02*
D03*
X39000Y49000D02*
D03*
Y50000D02*
D03*
X38000Y49000D02*
D03*
Y50000D02*
D03*
X37000Y49000D02*
D03*
Y50000D02*
D03*
X36000Y49000D02*
D03*
Y50000D02*
D03*
X35000Y49000D02*
D03*
Y50000D02*
D03*
X34000Y49000D02*
D03*
Y50000D02*
D03*
X33000Y49000D02*
D03*
Y50000D02*
D03*
X32000Y49000D02*
D03*
X31000D02*
D03*
Y50000D02*
D03*
X30000Y49000D02*
D03*
Y50000D02*
D03*
X29000Y49000D02*
D03*
Y50000D02*
D03*
X28000Y49000D02*
D03*
Y50000D02*
D03*
X27000Y49000D02*
D03*
Y50000D02*
D03*
X26000Y49000D02*
D03*
Y50000D02*
D03*
X25000Y49000D02*
D03*
X21750Y50000D02*
D03*
X20750D02*
D03*
X19750Y49000D02*
D03*
X18750Y50000D02*
D03*
X17750D02*
D03*
X16750Y49000D02*
D03*
Y50000D02*
D03*
X15750Y49000D02*
D03*
Y50000D02*
D03*
X14750Y49000D02*
D03*
Y50000D02*
D03*
X13750Y49000D02*
D03*
Y50000D02*
D03*
X12750Y49000D02*
D03*
Y50000D02*
D03*
X11750Y49000D02*
D03*
Y50000D02*
D03*
X10750Y49000D02*
D03*
Y50000D02*
D03*
X9750Y49000D02*
D03*
Y50000D02*
D03*
X7750Y49000D02*
D03*
X6750D02*
D03*
X5750D02*
D03*
Y50000D02*
D03*
X4750Y49000D02*
D03*
X3750D02*
D03*
D54*
X2750Y15000D02*
D03*
Y50000D02*
D03*
X25000Y15000D02*
D03*
Y50000D02*
D03*
D55*
X3197Y55400D02*
D03*
X5559D02*
D03*
D56*
X4378Y53550D02*
D03*
D57*
X18615Y54427D02*
D03*
X19615D02*
D03*
D58*
X17615D02*
D03*
D59*
X14740Y41173D02*
D03*
X28313D02*
D03*
X14740Y25425D02*
D03*
X28313D02*
D03*
D60*
X3217Y23839D02*
D03*
X30383Y41161D02*
D03*
X2500Y2500D02*
D03*
X57300D02*
D03*
X3217Y41161D02*
D03*
X30383Y23839D02*
D03*
X57300Y62500D02*
D03*
X2500D02*
D03*
M02*
