M48
;Layer_Color=9474304
;FILE_FORMAT=2:4
INCH,LZ
;TYPE=PLATED
T01F00S00C0.0080
T02F00S00C0.0120
T03F00S00C0.0157
T04F00S00C0.0160
T07F00S00C0.0402
T08F00S00C0.0409
T09F00S00C0.0984
;TYPE=NON_PLATED
T10F00S00C0.0256
T12F00S00C0.0400
%
T01
X0488Y006395
Y006921
Y007433
Y008457
X0528
Y007433
Y006921
Y00641
X054102Y007608
X054102Y007908
X0541Y008208
X0541Y008508
X054901Y008939
X054895Y009244
X055208Y007455
X0552Y007155
X05791Y007
X058213Y007
Y014
X05791Y014
X0552Y014155
X055208Y014455
X054102Y014608
X054102Y014908
X0541Y015208
X0541Y015508
X054901Y015939
X054895Y016244
X0528Y015457
Y014433
Y013921
Y01341
Y02041
Y020921
Y021433
Y022457
X0541Y022508
X0541Y022208
X054102Y021908
X054102Y021608
X055208Y021455
X0552Y021155
X054901Y022939
X054895Y023244
X05791Y021
X058213Y021
X0488Y020921
Y021433
Y022457
Y020395
Y015457
Y014433
Y013921
Y013395
X041Y0127
X037Y0124
X035Y0121
X03Y0118
X028Y0115
X026723Y024061
X025463
X024833
X023259
X0226
X021369
X020424Y022152
X019164Y022458
X018534
X016959Y0214
X016644Y021616
X01633Y021851
X00775Y0204
X00675Y0199
X00575Y0194
X00475Y0189
X016015Y028
X01633Y0277
X016644Y0274
X016959Y0271
X017904Y0268
X018219Y027098
X018534Y0268
X019164
X019794
X020109Y027098
X020424Y026792
X020739Y027093
X021369Y0271
X0217Y0268
X0223Y0271
X0236Y0274
X0239Y0277
X0245Y028
X0258Y0283
X026408Y0286
X027668Y0289
X0488Y028433
Y027921
Y027395
Y029457
Y034395
Y034921
Y035433
Y036457
Y041395
X0528Y04141
Y036457
Y035433
Y034921
Y03441
X054102Y035608
X054102Y035908
X0541Y036208
X0541Y036508
X054901Y036939
X054895Y037244
X055208Y035455
X0552Y035155
X05791Y035
X058213Y035
Y028
X05791Y028
X0552Y028155
X055208Y028455
X054102Y028608
X054102Y028908
X0541Y029208
X0541Y029508
X054901Y029939
X054895Y030244
X0528Y029457
Y028433
Y027921
Y02741
Y041921
Y042433
Y043457
X0541Y043508
X0541Y043208
X054102Y042908
X054102Y042608
X055208Y042455
X0552Y042155
X054901Y043939
X054895Y044244
X0552Y049155
X055208Y049455
X054102Y049608
X054102Y049908
X0541Y050208
X0541Y050508
X054901Y050939
X054895Y051244
X0528Y050457
Y049433
Y048921
Y04841
X05791Y049
X058213Y049
Y056
X05791Y056
X0552Y056155
X055208Y056455
X054102Y056608
X054102Y056908
X0541Y057208
X0528Y057457
Y056433
Y055921
Y05541
X05791Y042
X058213Y042
X0488Y041921
Y042433
Y043457
Y048395
Y048921
Y049433
Y050457
Y055395
Y055921
Y056433
Y057457
X0265Y056976
X0256Y055976
X0249Y055
X0273Y057976
X0541Y057508
X054901Y057939
X054895Y058244
T02
X0488Y0094
X0513Y0102
X0524Y008706
Y008185
Y007689
X052387Y007177
X052393Y006665
X055232Y0051
X0566Y0044
X057873
Y0114
X0566
X055232Y0121
X052393Y013665
X052387Y014177
X0524Y014689
Y015185
Y015706
X0513Y0172
X0504Y0185
X052393Y020665
X052387Y021177
X0524Y021689
Y022185
Y022706
X0513Y0242
X0504Y0255
X055232Y0261
X0566Y0254
X057873
Y0184
X0566
X055232Y0191
X0504Y0115
X0488Y0116
Y0164
Y0186
Y0234
Y0256
X021684Y0244
Y01683
X018534Y038
X017904
X017274
X016644
X01633Y0384
X016959
X017589
X018219
X0157Y0379
X015385Y0375
X019164Y038
X019794
X020424
X021054
X021684
X022314
X022944
X023574
X024204
X024833
X025463
X026093
X026723
X026408Y0384
X027038
X027668Y038
X025778Y0384
X025148
X024519
X023889
X023259
X022629
X021999
X021369
X020739
X020109
X019479
X018849
X0488Y0374
Y0396
Y0326
Y0304
X0513Y0312
X0504Y0325
X052393Y034665
X052387Y035177
X0524Y035689
Y036185
Y036706
X0513Y0382
X0504Y0395
X052393Y041665
X055232Y0401
X0566Y0394
X057873
Y0324
X0566
X055232Y0331
X0524Y029706
Y029185
Y028689
X052387Y028177
X052393Y027665
X052387Y042177
X0524Y042689
Y043185
Y043706
X0513Y0452
X0504Y0465
X052393Y048665
X052387Y049177
X0524Y049689
Y050185
Y050706
X0513Y0522
X0504Y0535
X052393Y055665
X052387Y056177
X0524Y056689
Y057185
X055199Y0541
X0566Y0534
X057873
Y0464
X0566
X055232Y0471
X0488Y0466
Y044412
Y0514
Y0536
X0333Y054976
Y055976
Y056976
X0312Y05237
X0276Y05238
X020888Y052716
X023889Y0424
X017274Y042531
X016644
X016959Y0429
X016342Y052725
X009667Y0536
Y0551
X009867Y0567
X017415Y060027
X0275Y060682
X0315Y060707
X0333Y057976
X0488Y0584
Y0606
X0504Y0605
X0513Y0592
X0524Y057706
T03
X0568Y006998
X057076Y007155
Y00747
Y007785
X0568Y007628
Y007943
Y008257
Y008572
X057076Y00873
Y008415
Y009045
X0568Y009202
Y013998
X057076Y014155
Y01447
Y014785
X0568Y014628
Y014943
Y015257
Y015572
X057076Y01573
Y015415
Y016045
X0568Y016202
Y020998
X057076Y021155
Y02147
Y021785
X0568Y021628
Y021943
Y022257
Y022572
X057076Y02273
Y022415
Y023045
X0568Y023202
Y027998
X057076Y028155
Y02847
Y028785
X0568Y028628
Y028943
Y029257
Y029572
X057076Y02973
Y029415
Y030045
X0568Y030202
Y034998
X057076Y035155
Y03547
Y035785
X0568Y035628
Y035943
Y036257
Y036572
X057076Y03673
Y036415
Y037045
X0568Y037202
Y041998
X057076Y042155
Y04247
Y042785
X0568Y042628
Y042943
Y043257
Y043572
X057076Y04373
Y043415
Y044045
X0568Y044202
Y048998
X057076Y049155
Y04947
Y049785
X0568Y049628
Y049943
Y050257
Y050572
X057076Y05073
Y050415
Y051045
X0568Y051202
Y055998
X057076Y056155
Y05647
Y056785
X0568Y056628
Y056943
Y057257
X057076Y057415
Y05773
Y058045
X0568Y058202
Y057572
T04
X0045Y009
X009157Y0048
X0205Y009
X026706Y0055
X0365Y009
X0445Y006
X045Y021
X0395Y023
X0363Y0213
X03345Y0238
X027668Y024061
X023889Y02418
X0205Y0243
X01885Y0181
X015335Y02223
X01575Y022657
X01245Y0207
X0149Y0265
X0174Y0266
X0185Y033
X0115
X006Y037
Y028
X01755Y0405
X034Y039
X033Y0305
X0365Y0275
X0435Y027
X0425Y0325
X039Y041
X043Y045
X04Y052
X02325Y0485
X0146Y0448
X01215Y0437
X0107Y0451
X024Y0605
X04Y06
T07
X019615Y054427
X018615
X017615
X018615Y060027
X019615
T08
X035Y014
X036
Y015
X037
Y014
X038
X039
X04
X041
X042
X043
X044
Y015
X043
X042
X041
X04
X039
X038
X035
X034
X033
Y014
X032
X031
Y015
X03
X029
Y014
X03
X028
X027
X026
X025
Y015
X026
X027
X028
X032
X034Y014
X02175
X02075
X01975
Y015
X02075
X02175
X01875
Y014
X01775
X01675
X01575
Y015
X01675
X01775
X01475
X01375
Y014
X01475
X01275
X01175
X01075
X00975
X00875
Y015
X00975
X01075
X01175
X01275
X00775
Y014
X00675
Y015
X00575
Y014
X00475
X00375
Y015
X00475
X00275
Y014
X035Y049
X036
X037
X038
X039
X04
X041
X042
X043
X044
Y05
X043
X042
X041
X04
X039
X038
X037
X036
X035
X034
Y049
X033
Y05
X032
Y049
X031
Y05
X03
Y049
X029
Y05
X028
Y049
X027
Y05
X026
Y049
X025
Y05
X02175
Y049
X02075
Y05
X01975
Y049
X01875
Y05
X01775
Y049
X01675
Y05
X01575
Y049
X01475
Y05
X01375
Y049
X01275
Y05
X01175
Y049
X01075
Y05
X00975
X00875
Y049
X00975
X00775
Y05
X00675
Y049
X00575
Y05
X00475
X00375
Y049
X00475
X00275
Y05
T09
X0025Y0025
X0573
X030383Y023839
X003217
Y041161
X030383Y041161
X0025Y0625
X0573
T10
X056544Y006683
Y013683
Y020683
Y027683
Y034683
Y041683
Y048683
Y055683
T12
X028313Y025425
X01474
Y041173
X028313
M30
