M48
;Layer_Color=9474304
;FILE_FORMAT=2:4
INCH,LZ
;TYPE=PLATED
T01F00S00C0.0060
%
T01
X004722Y01247
Y014439
X00431Y01604
X0045Y01632
X005034Y016253
X00317Y01604
X00669Y01247
X002758
X00079
X002758Y014439
X00298Y01632
X002446Y016253
X002264Y03302
X00187
X002067Y0333
X002461
X002854
X003051Y03302
X002657
X00128
X000886
X000492
X000098
X000295Y0333
X000689
X001083
X001476
X-000492
X-000886
X-00128
X-001673
X-001476Y03302
X-001083
X-000689
X-00187
X-002461
X-002854
X-003248
X-003642
X-003445Y0333
X-003051
X-002657
X-002264
X003248
M30
