G04*
G04 #@! TF.GenerationSoftware,Altium Limited,Altium Designer,25.8.1 (18)*
G04*
G04 Layer_Physical_Order=2*
G04 Layer_Color=16711680*
%FSLAX24Y24*%
%MOIN*%
G70*
G04*
G04 #@! TF.SameCoordinates,49C93ACE-A330-4151-A87E-CC17FFCD6081*
G04*
G04*
G04 #@! TF.FilePolarity,Positive*
G04*
G01*
G75*
%ADD13C,0.0040*%
%ADD14C,0.0180*%
%ADD15C,0.0060*%
%ADD16R,0.0138X0.0984*%
D13*
X1830Y15645D02*
X2442Y16257D01*
X790Y12470D02*
X1830Y13510D01*
Y15645D01*
X2442Y16257D02*
X2446Y16253D01*
X4500Y14660D02*
X4722Y14439D01*
X4500Y14660D02*
Y16320D01*
X4310Y16040D02*
X4320Y16030D01*
Y12872D02*
X4722Y12470D01*
X4320Y12872D02*
Y16030D01*
X3160D02*
X3170Y16040D01*
X3160Y12872D02*
Y16030D01*
X2758Y12470D02*
X3160Y12872D01*
X2980Y14660D02*
Y16320D01*
X2758Y14439D02*
X2980Y14660D01*
X5038Y16257D02*
X5650Y15645D01*
Y13510D02*
Y15645D01*
Y13510D02*
X6690Y12470D01*
X5034Y16253D02*
X5038Y16257D01*
X-3642Y33020D02*
Y36122D01*
X-3445Y33300D02*
Y36122D01*
X-3248Y33020D02*
Y36122D01*
X-3051Y33300D02*
Y36122D01*
X-2264Y33300D02*
Y36122D01*
X-2461Y33020D02*
Y36122D01*
X-2657Y33300D02*
Y36122D01*
X-2854Y33020D02*
Y36122D01*
X-1280Y33300D02*
Y36122D01*
X-1476Y33020D02*
Y36122D01*
X-1673Y33300D02*
Y36122D01*
X-1870Y33020D02*
Y36122D01*
X-492Y33300D02*
Y36122D01*
X-689Y33020D02*
Y36122D01*
X-886Y33300D02*
Y36122D01*
X-1083Y33020D02*
Y36122D01*
X689Y33300D02*
Y36122D01*
X492Y33020D02*
Y36122D01*
X295Y33300D02*
Y36122D01*
X98Y33020D02*
Y36122D01*
X1476Y33300D02*
Y36122D01*
X1280Y33020D02*
Y36122D01*
X1083Y33300D02*
Y36122D01*
X886Y33020D02*
Y36122D01*
X2461Y33300D02*
Y36122D01*
X2264Y33020D02*
Y36122D01*
X2067Y33300D02*
Y36122D01*
X1870Y33020D02*
Y36122D01*
X2854Y33300D02*
Y36122D01*
X2657Y33020D02*
Y36122D01*
X3248Y33300D02*
Y36122D01*
X3051Y33020D02*
Y36122D01*
D14*
X790Y12470D02*
D03*
X2446Y16253D02*
D03*
X4722Y14439D02*
D03*
X4500Y16320D02*
D03*
X4722Y12470D02*
D03*
X4310Y16040D02*
D03*
X2758Y12470D02*
D03*
X3170Y16040D02*
D03*
X2758Y14439D02*
D03*
X2980Y16320D02*
D03*
X6690Y12470D02*
D03*
X5034Y16253D02*
D03*
X-3642Y33020D02*
D03*
X-3445Y33300D02*
D03*
X-3248Y33020D02*
D03*
X-3051Y33300D02*
D03*
X-2264D02*
D03*
X-2461Y33020D02*
D03*
X-2657Y33300D02*
D03*
X-2854Y33020D02*
D03*
X-1280Y33300D02*
D03*
X-1476Y33020D02*
D03*
X-1673Y33300D02*
D03*
X-1870Y33020D02*
D03*
X-492Y33300D02*
D03*
X-689Y33020D02*
D03*
X-886Y33300D02*
D03*
X-1083Y33020D02*
D03*
X689Y33300D02*
D03*
X492Y33020D02*
D03*
X295Y33300D02*
D03*
X98Y33020D02*
D03*
X1476Y33300D02*
D03*
X1280Y33020D02*
D03*
X1083Y33300D02*
D03*
X886Y33020D02*
D03*
X2461Y33300D02*
D03*
X2264Y33020D02*
D03*
X2067Y33300D02*
D03*
X1870Y33020D02*
D03*
X2854Y33300D02*
D03*
X2657Y33020D02*
D03*
X3248Y33300D02*
D03*
X3051Y33020D02*
D03*
D15*
X3251D02*
G03*
X3234Y33100I-200J0D01*
G01*
Y33100D02*
G03*
X3301Y33107I14J200D01*
G01*
X2854Y32985D02*
G03*
X3251Y33020I197J35D01*
G01*
X4700Y16320D02*
G03*
X4317Y16240I-200J0D01*
G01*
X5234Y16253D02*
G03*
X5057Y16054I-200J0D01*
G01*
X4630Y16168D02*
G03*
X4700Y16320I-130J152D01*
G01*
X3290Y15880D02*
G03*
X3370Y16040I-120J160D01*
G01*
X4317Y16240D02*
G03*
X4190Y15880I-7J-200D01*
G01*
X3370Y16040D02*
G03*
X3163Y16240I-200J0D01*
G01*
X2067Y32985D02*
G03*
X2461Y32985I197J35D01*
G01*
X2461D02*
G03*
X2854Y32985I197J35D01*
G01*
X1740Y33172D02*
G03*
X2067Y32985I130J-152D01*
G01*
X1676Y33300D02*
G03*
X1606Y33452I-200J0D01*
G01*
X1480Y33020D02*
G03*
X1463Y33100I-200J0D01*
G01*
D02*
G03*
X1676Y33300I14J200D01*
G01*
X3180Y16320D02*
G03*
X2850Y16168I-200J0D01*
G01*
X3163Y16240D02*
G03*
X3180Y16320I-183J80D01*
G01*
X2423Y16054D02*
G03*
X2646Y16253I23J199D01*
G01*
D02*
G03*
X2246Y16245I-200J0D01*
G01*
X5780Y15645D02*
G03*
X5742Y15737I-130J0D01*
G01*
X5780Y15645D02*
G03*
X5742Y15737I-130J0D01*
G01*
X5520Y13510D02*
G03*
X5558Y13418I130J0D01*
G01*
X5520Y13510D02*
G03*
X5558Y13418I130J0D01*
G01*
X6890Y12470D02*
G03*
X6675Y12669I-200J0D01*
G01*
X6491Y12486D02*
G03*
X6890Y12470I199J-16D01*
G01*
X1738Y15737D02*
G03*
X1700Y15645I92J-92D01*
G01*
X1738Y15737D02*
G03*
X1700Y15645I92J-92D01*
G01*
X4922Y14439D02*
G03*
X4706Y14638I-200J0D01*
G01*
X4522Y14454D02*
G03*
X4922Y14439I199J-16D01*
G01*
Y12470D02*
G03*
X4706Y12669I-200J0D01*
G01*
X4522Y12486D02*
G03*
X4922Y12470I199J-16D01*
G01*
X4190Y12872D02*
G03*
X4228Y12780I130J0D01*
G01*
X4190Y12872D02*
G03*
X4228Y12780I130J0D01*
G01*
X2774Y14638D02*
G03*
X2959Y14439I-16J-199D01*
G01*
X1922Y13418D02*
G03*
X1960Y13510I-92J92D01*
G01*
X1922Y13418D02*
G03*
X1960Y13510I-92J92D01*
G01*
X3252Y12780D02*
G03*
X3290Y12872I-92J92D01*
G01*
X3252Y12780D02*
G03*
X3290Y12872I-92J92D01*
G01*
X2774Y12669D02*
G03*
X2959Y12470I-16J-199D01*
G01*
X295Y32985D02*
G03*
X689Y32985I197J35D01*
G01*
X1083Y32985D02*
G03*
X1480Y33020I197J35D01*
G01*
X-32Y33172D02*
G03*
X295Y32985I130J-152D01*
G01*
X689Y32985D02*
G03*
X1083Y32985I197J35D01*
G01*
X-292Y33300D02*
G03*
X-362Y33452I-200J0D01*
G01*
X-506Y33100D02*
G03*
X-292Y33300I14J200D01*
G01*
X-489Y33020D02*
G03*
X-506Y33100I-200J0D01*
G01*
X-886Y32985D02*
G03*
X-489Y33020I197J35D01*
G01*
X-1280Y32985D02*
G03*
X-886Y32985I197J35D01*
G01*
X-1673D02*
G03*
X-1280Y32985I197J35D01*
G01*
X-2064Y33300D02*
G03*
X-2134Y33452I-200J0D01*
G01*
X-2000Y33172D02*
G03*
X-1673Y32985I130J-152D01*
G01*
X-2278Y33100D02*
G03*
X-2064Y33300I14J200D01*
G01*
X-2261Y33020D02*
G03*
X-2278Y33100I-200J0D01*
G01*
X-2657Y32985D02*
G03*
X-2261Y33020I197J35D01*
G01*
X-3445Y32985D02*
G03*
X-3051Y32985I197J35D01*
G01*
X-3051D02*
G03*
X-2657Y32985I197J35D01*
G01*
X-3695Y32827D02*
G03*
X-3445Y32985I53J193D01*
G01*
X806Y12669D02*
G03*
X990Y12470I-16J-199D01*
G01*
X4954Y25516D02*
X5077Y25465D01*
X5193Y25398D01*
X4693Y25568D02*
X4825Y25550D01*
X4954Y25516D01*
X5299Y25317D02*
X5393Y25222D01*
X5474Y25117D01*
X5193Y25398D02*
X5299Y25317D01*
X3301Y32677D02*
Y33107D01*
Y32677D02*
X3301Y32572D01*
X4626Y25568D02*
X4693D01*
X3277Y32362D02*
X3301Y32572D01*
X4353Y25568D02*
X5644Y24277D01*
X3788Y25568D02*
X5644Y23711D01*
X3505Y25568D02*
X5644Y23428D01*
X5644Y24616D02*
X5644Y24550D01*
X5644Y17815D01*
X4070Y25568D02*
X5644Y23994D01*
X5474Y25117D02*
X5541Y25001D01*
X4983Y25504D02*
X5580Y24907D01*
X4636Y25568D02*
X5644Y24560D01*
X5592Y24878D02*
X5627Y24749D01*
X5644Y24616D01*
X5541Y25001D02*
X5592Y24878D01*
X3224Y32919D02*
X3301Y32842D01*
X2932Y25574D02*
X5644Y22863D01*
X2561Y25663D02*
X5644Y22580D01*
X3051Y25568D02*
X4626Y25568D01*
X3222Y25568D02*
X5644Y23146D01*
X1360Y21441D02*
X5263Y25344D01*
X3228Y32926D02*
X3301Y33000D01*
X2740Y32838D02*
X3265Y32313D01*
X3228Y32157D02*
X3277Y32362D01*
X3156Y31959D02*
X3228Y32157D01*
X3040Y32820D02*
X3300Y32561D01*
X1836Y19655D02*
X5644Y23463D01*
X1836Y19373D02*
X5644Y23180D01*
X1836Y19938D02*
X5644Y23746D01*
X1836Y18807D02*
X5644Y22615D01*
X1836Y18524D02*
X5644Y22332D01*
X1836Y19090D02*
X5644Y22897D01*
X1624Y21140D02*
X5520Y25037D01*
X1721Y20955D02*
X5603Y24836D01*
X1502Y21301D02*
X5406Y25205D01*
X1833Y20501D02*
X5644Y24312D01*
X1836Y20221D02*
X5644Y24029D01*
X1793Y20744D02*
X5644Y24594D01*
X6404Y16807D02*
X6574Y16773D01*
X6598Y16770D02*
X6685Y16766D01*
X6213Y16883D02*
X6373Y16817D01*
X6754Y16766D02*
X6875Y16742D01*
X6989Y16695D01*
X6693Y16766D02*
X6754D01*
X5651Y17696D02*
X5685Y17526D01*
X5695Y17495D02*
X5761Y17335D01*
X5644Y17807D02*
X5648Y17720D01*
X5893Y17138D02*
X6016Y17015D01*
X6040Y16995D02*
X6185Y16898D01*
X5776Y17307D02*
X5873Y17162D01*
X7033Y16665D02*
X7216Y16482D01*
X7178Y16540D02*
X7246Y16437D01*
X6648Y16768D02*
X7317Y16098D01*
X7293Y16324D02*
X7317Y16203D01*
X7317Y16142D01*
X7246Y16437D02*
X7293Y16324D01*
X5234Y16265D02*
X6000Y17031D01*
X5365Y16113D02*
X6164Y16912D01*
X5120Y16434D02*
X5863Y17177D01*
X6989Y16695D02*
X7091Y16627D01*
X7178Y16540D01*
X5507Y15972D02*
X6358Y16823D01*
X2939Y16516D02*
X5644Y19220D01*
X2559Y16418D02*
X5644Y19503D01*
X1611Y17168D02*
X5644Y21200D01*
X4609Y16488D02*
X5679Y17558D01*
X4699Y16295D02*
X5754Y17351D01*
X3143Y16436D02*
X5644Y18938D01*
X1836Y18241D02*
X5644Y22049D01*
X1836Y17958D02*
X5644Y21766D01*
X1822Y17661D02*
X5644Y21483D01*
X1836Y19034D02*
X4386Y16484D01*
X1836Y19316D02*
X4843Y16310D01*
X1836Y19599D02*
X4988Y16447D01*
X3363Y16091D02*
X5644Y18372D01*
X3222Y16233D02*
X5644Y18655D01*
X4630Y15944D02*
X4853Y16167D01*
X1836Y18468D02*
X4148Y16157D01*
X1836Y18185D02*
X4190Y15831D01*
X1836Y18751D02*
X4304Y16283D01*
X1691Y35520D02*
X1740D01*
Y33172D02*
Y35520D01*
X1691D02*
Y36451D01*
X1672Y33340D02*
X1740Y33272D01*
X2059Y32953D02*
X2089Y32924D01*
X1670Y33349D02*
X1740Y33418D01*
X1655Y36451D02*
X1691D01*
X1655Y36162D02*
X1691Y36198D01*
X1655Y35520D02*
Y36451D01*
Y35879D02*
X1691Y35915D01*
X1655Y35902D02*
X1691Y35867D01*
X1655Y36185D02*
X1691Y36149D01*
X2411Y32884D02*
X3204Y32091D01*
X2167Y32845D02*
X3121Y31891D01*
X1906Y32823D02*
X3020Y31709D01*
X3061Y31771D02*
X3156Y31959D01*
X2945Y31595D02*
X3061Y31771D01*
X2809Y31433D02*
X2945Y31595D01*
X2655Y31289D02*
X2809Y31433D01*
X2570Y31226D02*
X2655Y31289D01*
X2476Y31152D02*
X2566Y31223D01*
X1606Y34699D02*
X1740Y34833D01*
X1606Y34820D02*
X1740Y34686D01*
X1606Y35103D02*
X1740Y34969D01*
X1606Y34537D02*
X1740Y34403D01*
X1606Y34133D02*
X1740Y34267D01*
X1606Y34416D02*
X1740Y34550D01*
X1655Y35596D02*
X1691Y35632D01*
X1655Y35620D02*
X1691Y35584D01*
X1606Y35520D02*
X1655D01*
X1606Y35386D02*
X1740Y35252D01*
X1606Y34982D02*
X1740Y35116D01*
X1606Y35265D02*
X1740Y35398D01*
X1606Y33971D02*
X1740Y33838D01*
X1606Y33568D02*
X1740Y33701D01*
X1606Y33850D02*
X1740Y33984D01*
X1606Y33689D02*
X1740Y33555D01*
X1474Y32973D02*
X2902Y31544D01*
X1336Y32828D02*
X2768Y31395D01*
X1606Y34254D02*
X1740Y34121D01*
X1606Y33452D02*
Y35520D01*
X1592Y33137D02*
X1673Y33056D01*
X2298Y30986D02*
X2465Y31143D01*
X2313Y25789D02*
X2447Y25711D01*
X2173Y25895D02*
X2296Y25800D01*
X2629Y25636D02*
X2779Y25596D01*
X2799Y25592D02*
X2953Y25572D01*
X2466Y25702D02*
X2609Y25643D01*
X2137Y30796D02*
X2285Y30972D01*
X1999Y30590D02*
X2126Y30781D01*
X1886Y30368D02*
X1990Y30573D01*
X1940Y26156D02*
X2034Y26034D01*
X2048Y26018D02*
X2157Y25909D01*
X1851Y26308D02*
X1928Y26174D01*
X2969Y25570D02*
X3046Y25568D01*
X1817Y17638D02*
X2940Y16516D01*
X3176Y16280D02*
X3223Y16233D01*
X2646Y16244D02*
X2850Y16040D01*
X1834Y20498D02*
X1836Y20421D01*
X1836Y17815D02*
Y20416D01*
X1832Y17720D02*
X1836Y17807D01*
X2643Y16220D02*
X2784Y16361D01*
X1800Y30135D02*
X1879Y30351D01*
X1741Y29893D02*
X1795Y30117D01*
X1711Y29647D02*
X1738Y29875D01*
X1735Y26639D02*
X1775Y26490D01*
X1782Y26470D02*
X1841Y26327D01*
X1711Y26813D02*
X1731Y26660D01*
X1707Y29518D02*
X1710Y29632D01*
X1707Y26907D02*
X1710Y26829D01*
X1707Y26912D02*
Y29513D01*
X1510Y21294D02*
X1604Y21171D01*
X1615Y21154D02*
X1693Y21020D01*
X1386Y21419D02*
X1495Y21310D01*
X1812Y20668D02*
X1832Y20514D01*
X1795Y17526D02*
X1829Y17696D01*
X1754Y17419D02*
X2790Y16383D01*
X1656Y17234D02*
X2437Y16453D01*
X1529Y17079D02*
X2266Y16341D01*
X1374Y16950D02*
X2163Y16161D01*
X1768Y20838D02*
X1808Y20689D01*
X1719Y17335D02*
X1786Y17495D01*
X1702Y21001D02*
X1761Y20858D01*
X1608Y17162D02*
X1704Y17307D01*
X1465Y17015D02*
X1587Y17138D01*
X1435Y16991D02*
X1611Y17168D01*
X5780Y14266D02*
X7317Y15802D01*
X5780Y13983D02*
X7317Y15520D01*
X5780Y14548D02*
X7317Y16085D01*
X5780Y15656D02*
X7317Y14118D01*
X5780Y13700D02*
X7317Y15237D01*
X5854Y13490D02*
X7317Y14954D01*
X5780Y15373D02*
X7317Y13836D01*
X6276Y16857D02*
X7317Y15816D01*
X5780Y15114D02*
X7189Y16523D01*
X5780Y15397D02*
X7042Y16659D01*
X5780Y13564D02*
Y15645D01*
Y15090D02*
X7317Y13553D01*
X5780Y14831D02*
X7287Y16338D01*
X6137Y13208D02*
X7317Y14388D01*
X7317Y787D02*
X7317Y16142D01*
X5995Y13349D02*
X7317Y14671D01*
X6278Y13066D02*
X7317Y14105D01*
X6419Y12925D02*
X7317Y13823D01*
X5780Y13675D02*
X7317Y12139D01*
X5780Y14524D02*
X7317Y12987D01*
X5780Y14241D02*
X7317Y12704D01*
X5780Y14807D02*
X7317Y13270D01*
X6561Y12783D02*
X7317Y13540D01*
X5780Y13564D02*
X6675Y12669D01*
X5780Y13958D02*
X7317Y12421D01*
X1835Y20449D02*
X7317Y14967D01*
X1836Y20165D02*
X7317Y14684D01*
X1782Y20785D02*
X7317Y15250D01*
X5776Y15676D02*
X6848Y16747D01*
X5648Y15831D02*
X6590Y16772D01*
X5234Y16245D02*
X5742Y15737D01*
X3290Y15452D02*
X5644Y17806D01*
X3290Y15735D02*
X5644Y18089D01*
X4664Y16206D02*
X5520Y15350D01*
X4630Y15674D02*
X5520Y14784D01*
X4628Y14262D02*
X6513Y12377D01*
X4450Y14157D02*
X7317Y11290D01*
X1836Y19882D02*
X7317Y14401D01*
X4450Y13874D02*
X7317Y11007D01*
X4450Y13591D02*
X7317Y10724D01*
X3290Y13337D02*
X7317Y9310D01*
X4869Y14304D02*
X5520Y13653D01*
X4630Y14825D02*
X5520Y13935D01*
X5558Y13418D02*
X6491Y12486D01*
X4749Y12668D02*
X5533Y13453D01*
X6879Y12536D02*
X7317Y12974D01*
X6838Y12335D02*
X7317Y11856D01*
X6727Y12667D02*
X7317Y13257D01*
X7317Y787D02*
X7317Y726D01*
X7293Y605D02*
X7317Y726D01*
X6597Y12293D02*
X7317Y11573D01*
X4908Y12544D02*
X5670Y13307D01*
X7246Y492D02*
X7293Y605D01*
X7178Y389D02*
X7246Y492D01*
X7091Y302D02*
X7178Y389D01*
X5537Y163D02*
X7317Y1943D01*
X5820Y163D02*
X7317Y1660D01*
X5254Y163D02*
X7317Y2226D01*
X6386Y163D02*
X7317Y1095D01*
X6669Y163D02*
X7317Y812D01*
X6103Y163D02*
X7317Y1377D01*
X7090Y302D02*
X7178Y390D01*
X6989Y234D02*
X7091Y302D01*
X4971Y163D02*
X7317Y2509D01*
X6875Y187D02*
X6989Y234D01*
X6754Y163D02*
X6875Y187D01*
X6693Y163D02*
X6754Y163D01*
X4450Y13308D02*
X7317Y10442D01*
X4450Y13026D02*
X7317Y10159D01*
X3290Y13054D02*
X7317Y9027D01*
X4864Y12329D02*
X7317Y9876D01*
X4594Y12316D02*
X7317Y9593D01*
X3266Y12796D02*
X7317Y8744D01*
X1717Y13213D02*
X7317Y7613D01*
X1576Y13072D02*
X7317Y7330D01*
X1434Y12930D02*
X7317Y7047D01*
X3126Y12653D02*
X7317Y8462D01*
X2984Y12512D02*
X7317Y8179D01*
X2892Y12321D02*
X7317Y7896D01*
X2992Y163D02*
X7317Y4489D01*
X3274Y163D02*
X7317Y4206D01*
X2709Y163D02*
X7317Y4772D01*
X3840Y163D02*
X7317Y3640D01*
X4123Y163D02*
X7317Y3357D01*
X3557Y163D02*
X7317Y3923D01*
X1860Y163D02*
X7317Y5620D01*
X2143Y163D02*
X7317Y5337D01*
X1577Y163D02*
X7317Y5903D01*
X4406Y163D02*
X7317Y3075D01*
X4689Y163D02*
X7317Y2792D01*
X2426Y163D02*
X7317Y5054D01*
X5057Y16054D02*
X5520Y15591D01*
X4630Y15378D02*
X5182Y15930D01*
X4630Y15957D02*
X5520Y15067D01*
X4630Y14813D02*
X5464Y15647D01*
X4738Y14638D02*
X5520Y15420D01*
X4630Y15095D02*
X5323Y15788D01*
X4630Y15661D02*
X5022Y16053D01*
X4630Y14714D02*
Y16168D01*
X3363Y16093D02*
X4190Y15265D01*
X3292Y15881D02*
X4190Y14983D01*
X3290Y14604D02*
X4190Y15504D01*
X3290Y15600D02*
X4190Y14700D01*
X4630Y15391D02*
X5520Y14501D01*
Y13510D02*
Y15591D01*
X4190Y12872D02*
Y15880D01*
X4904Y14521D02*
X5520Y15137D01*
X4630Y15108D02*
X5520Y14218D01*
X4450Y13784D02*
X5520Y14854D01*
X3290Y15317D02*
X4190Y14417D01*
X3290Y14321D02*
X4190Y15221D01*
X3290Y12872D02*
Y15880D01*
Y14038D02*
X4190Y14938D01*
X3290Y14752D02*
X4190Y13851D01*
X3290Y15034D02*
X4190Y14134D01*
X1960Y15254D02*
X2850Y16144D01*
X3290Y15169D02*
X4115Y15995D01*
X1836Y17902D02*
X4190Y15548D01*
X2347Y15978D02*
X2850Y15474D01*
X2205Y15836D02*
X2850Y15192D01*
X1960Y14971D02*
X2850Y15861D01*
X2534Y16073D02*
X2850Y15757D01*
X1960Y15536D02*
X2479Y16056D01*
X1738Y15737D02*
X2246Y16245D01*
X1960Y15591D02*
X2423Y16054D01*
X3290Y14887D02*
X4190Y15787D01*
X1960Y14405D02*
X2850Y15295D01*
X1960Y14688D02*
X2850Y15578D01*
X2759Y14639D02*
X2850Y14729D01*
X1960Y14950D02*
X3030Y13880D01*
X1960Y14122D02*
X2850Y15012D01*
X2064Y15695D02*
X2850Y14909D01*
Y14714D02*
Y16168D01*
X1700Y13564D02*
Y15645D01*
X1960Y15516D02*
X2806Y14670D01*
X1960Y15233D02*
X2615Y14578D01*
X1960Y13510D02*
Y15591D01*
X4630Y14714D02*
X4706Y14638D01*
X4450Y13501D02*
X5520Y14571D01*
X4450Y14067D02*
X4640Y14256D01*
X4450Y13218D02*
X5520Y14288D01*
X4450Y14526D02*
X4522Y14454D01*
X4450Y14440D02*
X4545Y14345D01*
X3290Y13755D02*
X4190Y14655D01*
X4450Y14350D02*
X4522Y14422D01*
X3290Y13190D02*
X4190Y14090D01*
X3290Y13472D02*
X4190Y14373D01*
X4450Y12936D02*
X5520Y14006D01*
X4587Y12789D02*
X5520Y13723D01*
X3290Y13620D02*
X4568Y12342D01*
X4450Y12925D02*
X4706Y12669D01*
X4450Y12925D02*
Y14526D01*
X3290Y12907D02*
X4190Y13807D01*
X3290Y13903D02*
X4190Y13003D01*
X4228Y12780D02*
X4522Y12486D01*
X2958Y14454D02*
X3030Y14526D01*
X2990Y14486D02*
X3030Y14446D01*
X1960Y14667D02*
X3030Y13597D01*
X2898Y14295D02*
X3030Y14163D01*
X3290Y14469D02*
X4190Y13568D01*
X1960Y14384D02*
X3030Y13314D01*
X2774Y14638D02*
X2850Y14714D01*
X1960Y13839D02*
X2559Y14438D01*
X1960Y13557D02*
X2665Y14262D01*
X3290Y14186D02*
X4190Y13286D01*
X2774Y12669D02*
X3030Y12925D01*
X2770Y12670D02*
X3030Y12930D01*
X2958Y12486D02*
X3252Y12780D01*
X3030Y12925D02*
Y14526D01*
X1960Y13819D02*
X2942Y12837D01*
X1960Y14102D02*
X3030Y13032D01*
X1960Y13536D02*
X2800Y12696D01*
X1858Y13355D02*
X2610Y12604D01*
X-80Y35520D02*
Y36451D01*
X-313Y35608D02*
X-32Y35327D01*
X-313Y35891D02*
X-80Y35658D01*
X-313Y35608D02*
X-80Y35841D01*
Y35520D02*
X-32D01*
X-362Y34428D02*
X-32Y34758D01*
X-362Y35276D02*
X-80Y35558D01*
X-308Y36451D02*
X-80Y36224D01*
X-313Y36174D02*
X-80Y36406D01*
X-313Y36451D02*
X-80Y36451D01*
X-313Y36174D02*
X-80Y35941D01*
X-313Y35891D02*
X-80Y36123D01*
X-362Y35520D02*
X-313D01*
X1014Y32867D02*
X2619Y31262D01*
X670Y32928D02*
X2460Y31138D01*
X-362Y33677D02*
X-32Y33347D01*
Y33172D02*
Y35520D01*
X-362Y33579D02*
X-32Y33910D01*
X-301Y33358D02*
X-32Y33627D01*
X-294Y33326D02*
X-79Y33112D01*
X-362Y34145D02*
X-32Y34475D01*
X-362Y34243D02*
X-32Y33912D01*
X-362Y34526D02*
X-32Y34195D01*
X-362Y33862D02*
X-32Y34192D01*
X-362Y33960D02*
X-32Y33629D01*
X-2553Y30823D02*
X-32Y33344D01*
X-362Y34993D02*
X-32Y35324D01*
X-362Y35091D02*
X-32Y34761D01*
X-362Y35374D02*
X-32Y35044D01*
X-362Y34710D02*
X-32Y35041D01*
X-362Y34809D02*
X-32Y34478D01*
X-383Y33132D02*
X2063Y30686D01*
X-497Y32964D02*
X1957Y30509D01*
X-1303Y32921D02*
X1739Y29879D01*
X-2101Y28729D02*
X2090Y32920D01*
X-2101Y27881D02*
X2904Y32885D01*
X-3512Y32868D02*
X1707Y27648D01*
X-2101Y29295D02*
X1677Y33073D01*
X-2261Y33030D02*
X1707Y29063D01*
X-2437Y30656D02*
X-100Y32993D01*
X-2247Y30280D02*
X351Y32878D01*
X-2177Y30068D02*
X701Y32945D01*
X-2695Y32899D02*
X1707Y28497D01*
X190Y32842D02*
X2182Y30850D01*
X-642Y32826D02*
X1867Y30317D01*
X-961Y32862D02*
X1793Y30108D01*
X495Y32820D02*
X2314Y31001D01*
X-1485Y32820D02*
X1710Y29625D01*
X-2101Y23638D02*
X1707Y27446D01*
X-1786Y32838D02*
X1707Y29345D01*
X-2101Y24769D02*
X1707Y28577D01*
X-2101Y25052D02*
X1707Y28860D01*
X-2101Y24204D02*
X1707Y28011D01*
X-2101Y23921D02*
X1707Y27729D01*
X-2101Y24487D02*
X1707Y28294D01*
X-1584Y21892D02*
X2313Y25789D01*
X-1387Y21806D02*
X2496Y25690D01*
X-1751Y22008D02*
X2153Y25912D01*
X-867Y21760D02*
X2945Y25573D01*
X-302Y21760D02*
X3506Y25568D01*
X-1150Y21760D02*
X2705Y25616D01*
X-2101Y23072D02*
X1708Y26881D01*
X-2101Y22790D02*
X1738Y26628D01*
X-2101Y23355D02*
X1707Y27163D01*
X-1998Y22327D02*
X1899Y26224D01*
X-1887Y22154D02*
X2016Y26057D01*
X-2072Y22536D02*
X1806Y26413D01*
X-2101Y28164D02*
X2574Y32838D01*
X-2101Y27598D02*
X3145Y32843D01*
X-2101Y29012D02*
X1748Y32861D01*
X-2101Y28446D02*
X2273Y32820D01*
X-2101Y27315D02*
X3301Y32717D01*
X-3695Y32768D02*
X1707Y27365D01*
X-2334Y30476D02*
X24Y32834D01*
X-2102Y29576D02*
X1173Y32851D01*
X-2360Y32847D02*
X1707Y28780D01*
X-2127Y29834D02*
X860Y32822D01*
X-2906Y32827D02*
X1707Y28214D01*
X-3190Y32828D02*
X1707Y27931D01*
X-2101Y27032D02*
X3283Y32416D01*
X-2101Y26749D02*
X3183Y32033D01*
X-2446Y30670D02*
X1802Y26422D01*
X-2101Y26466D02*
X1973Y30540D01*
X-2121Y29779D02*
X5644Y22014D01*
X-2194Y30135D02*
X5644Y22297D01*
X-3605Y32112D02*
X1714Y26793D01*
X-2101Y26184D02*
X1783Y30067D01*
X-3684Y32473D02*
X1707Y27083D01*
X-2101Y25618D02*
X1707Y29426D01*
X-2101Y25335D02*
X1707Y29143D01*
X-2101Y25901D02*
X1720Y29722D01*
X-2049Y35520D02*
Y36451D01*
X-313Y35520D02*
Y36451D01*
X-2085Y35816D02*
X-2049Y35852D01*
X-2085Y35533D02*
X-2049Y35569D01*
Y35520D02*
X-2000D01*
X-2085Y35683D02*
X-2049Y35647D01*
X-2085Y36451D02*
X-2049D01*
X-2085Y36382D02*
X-2049Y36418D01*
X-2085Y35520D02*
Y36451D01*
Y36099D02*
X-2049Y36135D01*
X-2085Y35966D02*
X-2049Y35930D01*
X-2085Y36248D02*
X-2049Y36213D01*
X-362Y33452D02*
Y35520D01*
X-1302Y32922D02*
X-1271Y32953D01*
X-2000Y33172D02*
Y35520D01*
X-2134Y33469D02*
X-2000Y33335D01*
X-2064Y33291D02*
X-2000Y33355D01*
X-2115Y33167D02*
X-2052Y33104D01*
X-2134Y34636D02*
X-2000Y34770D01*
X-2134Y34600D02*
X-2000Y34467D01*
X-2134Y34883D02*
X-2000Y34749D01*
X-2134Y34317D02*
X-2000Y34184D01*
X-2134Y34070D02*
X-2000Y34204D01*
X-2134Y34353D02*
X-2000Y34487D01*
X-2134Y35520D02*
X-2085D01*
X-2134Y35449D02*
X-2000Y35315D01*
X-2134Y35484D02*
X-2098Y35520D01*
X-2134Y35166D02*
X-2000Y35032D01*
X-2134Y34919D02*
X-2000Y35052D01*
X-2134Y35201D02*
X-2000Y35335D01*
X-2134Y33787D02*
X-2000Y33921D01*
X-2134Y33752D02*
X-2000Y33618D01*
X-2134Y34035D02*
X-2000Y33901D01*
X-2134Y33504D02*
X-2000Y33638D01*
X-3394Y31679D02*
X-2069Y33003D01*
X-2134Y33452D02*
Y35520D01*
X-2101Y22711D02*
X-2083Y22579D01*
X-2049Y22450D01*
X-2101Y22778D02*
X-2101Y22711D01*
X-1998Y22327D02*
X-1931Y22211D01*
X-1850Y22105D01*
X-2049Y22450D02*
X-1998Y22327D01*
X-2272Y30351D02*
X-2194Y30135D01*
X-2188Y30117D02*
X-2135Y29893D01*
X-2383Y30573D02*
X-2280Y30368D01*
X-2104Y29632D02*
X-2101Y29518D01*
X-2101Y29513D02*
X-2101Y22778D01*
X-2132Y29875D02*
X-2105Y29647D01*
X-2101Y22971D02*
X-890Y21760D01*
X-2101Y23253D02*
X-607Y21760D01*
X-2101Y23536D02*
X-324Y21760D01*
X-1282Y21778D02*
X-1149Y21760D01*
X-1083D01*
X-2097Y22684D02*
X-1177Y21764D01*
X-1850Y22105D02*
X-1755Y22011D01*
X-1649Y21930D01*
X-1963Y22268D02*
X-1593Y21897D01*
X-1534Y21863D02*
X-1411Y21812D01*
X-1282Y21778D01*
X-1649Y21930D02*
X-1534Y21863D01*
X-3649Y32272D02*
X-3017Y32904D01*
X-3498Y31857D02*
X-2525Y32831D01*
X-3689Y32515D02*
X-3354Y32850D01*
X-3549Y31959D02*
X-3455Y31771D01*
X-3338Y31595D01*
X-3584Y32054D02*
X-2814Y32824D01*
X-3695Y32792D02*
X-3665Y32821D01*
X-3695Y32572D02*
Y32677D01*
Y32827D01*
X-3671Y32362D02*
X-3622Y32157D01*
X-3549Y31959D01*
X-3695Y32572D02*
X-3671Y32362D01*
X-2983Y31241D02*
X-1378Y32846D01*
X-2683Y30975D02*
X-803Y32856D01*
X-3136Y31371D02*
X-1623Y32884D01*
X-2828Y31113D02*
X-1118Y32823D01*
X-2519Y30781D02*
X-2393Y30590D01*
X-3273Y31517D02*
X-1952Y32838D01*
X-3202Y31433D02*
X-3049Y31289D01*
X-2964Y31226D01*
X-3338Y31595D02*
X-3202Y31433D01*
X-2859Y31143D02*
X-2692Y30986D01*
X-2679Y30972D02*
X-2531Y30796D01*
X-2960Y31223D02*
X-2870Y31152D01*
X163Y14871D02*
X5644Y20352D01*
X163Y14588D02*
X5644Y20069D01*
X163Y15154D02*
X5644Y20635D01*
X163Y14305D02*
X5644Y19786D01*
X163Y7234D02*
X5953Y13024D01*
X163Y7517D02*
X5811Y13165D01*
X794Y21724D02*
X4637Y25568D01*
X1007Y21655D02*
X4886Y25534D01*
X545Y21758D02*
X4354Y25568D01*
X1195Y21559D02*
X5092Y25456D01*
X163Y15437D02*
X5644Y20917D01*
X163Y8366D02*
X4403Y12605D01*
X163Y12787D02*
X7317Y5633D01*
X163Y12504D02*
X7317Y5350D01*
X163Y5537D02*
X7317Y12691D01*
X163Y12222D02*
X7317Y5067D01*
X163Y11939D02*
X7317Y4785D01*
X163Y5254D02*
X7317Y12408D01*
X1293Y12789D02*
X7317Y6765D01*
X163Y6669D02*
X6236Y12741D01*
X163Y6951D02*
X6094Y12882D01*
X1151Y12648D02*
X7317Y6482D01*
X1010Y12506D02*
X7317Y6199D01*
X917Y12316D02*
X7317Y5916D01*
X-2101Y27496D02*
X5644Y19751D01*
X-2101Y27213D02*
X5644Y19469D01*
X-2101Y27779D02*
X5644Y20034D01*
X-2101Y26648D02*
X5644Y18903D01*
X-2101Y26365D02*
X5644Y18620D01*
X-2101Y26930D02*
X5644Y19186D01*
X-2101Y29193D02*
X5644Y21449D01*
X-2101Y28910D02*
X5644Y21166D01*
X-2101Y29476D02*
X5644Y21731D01*
X-2101Y28345D02*
X5644Y20600D01*
X-2101Y28062D02*
X5644Y20317D01*
X-2101Y28627D02*
X5644Y20883D01*
X163Y6386D02*
X6377Y12600D01*
X163Y6103D02*
X6494Y12433D01*
X-2101Y24951D02*
X7317Y15533D01*
X163Y5820D02*
X6624Y12281D01*
X163Y4971D02*
X7317Y12126D01*
X163Y5254D02*
X7317Y12408D01*
X-2101Y25799D02*
X5644Y18054D01*
X-2101Y25516D02*
X5646Y17770D01*
X-2101Y26082D02*
X5644Y18337D01*
X163Y8083D02*
X4524Y12443D01*
X163Y7800D02*
X4648Y12284D01*
X-2101Y25233D02*
X5735Y17398D01*
X163Y11373D02*
X7317Y4219D01*
X163Y11090D02*
X7317Y3936D01*
X163Y11656D02*
X7317Y4502D01*
X163Y10524D02*
X7317Y3370D01*
X163Y8545D02*
X7317Y1391D01*
X163Y10807D02*
X7317Y3653D01*
X163Y9959D02*
X7317Y2805D01*
X163Y9676D02*
X7317Y2522D01*
X163Y10242D02*
X7317Y3088D01*
X163Y9110D02*
X7317Y1956D01*
X163Y8827D02*
X7317Y1673D01*
X163Y9393D02*
X7317Y2239D01*
X346Y346D02*
X7317Y7317D01*
X510Y227D02*
X7317Y7034D01*
X227Y510D02*
X7317Y7600D01*
X1012Y163D02*
X7317Y6469D01*
X1295Y163D02*
X7317Y6186D01*
X729Y163D02*
X7317Y6751D01*
X163Y8262D02*
X7317Y1108D01*
X163Y1012D02*
X7317Y8166D01*
X163Y1294D02*
X7317Y8449D01*
X163Y729D02*
X7317Y7883D01*
X787Y163D02*
X6693D01*
X163Y7979D02*
X7317Y825D01*
X163Y2709D02*
X7317Y9863D01*
X163Y2426D02*
X7317Y9580D01*
X163Y2992D02*
X7317Y10146D01*
X163Y1860D02*
X7317Y9014D01*
X163Y1577D02*
X7317Y8731D01*
X163Y2143D02*
X7317Y9297D01*
X163Y4406D02*
X7317Y11560D01*
X163Y4123D02*
X7317Y11277D01*
X163Y4689D02*
X7317Y11843D01*
X163Y3557D02*
X7317Y10711D01*
X163Y3274D02*
X7317Y10428D01*
X163Y3840D02*
X7317Y10994D01*
X163Y7413D02*
X7181Y395D01*
X163Y7130D02*
X7031Y263D01*
X163Y7696D02*
X7282Y578D01*
X163Y6565D02*
X6565Y163D01*
X163Y6282D02*
X6282Y163D01*
X163Y6848D02*
X6832Y179D01*
X163Y5716D02*
X5716Y163D01*
X163Y5433D02*
X5433Y163D01*
X163Y5999D02*
X5999Y163D01*
X163Y4868D02*
X4868Y163D01*
X163Y4585D02*
X4585Y163D01*
X163Y5150D02*
X5150Y163D01*
X934Y21685D02*
X1077Y21626D01*
X1096Y21616D02*
X1230Y21539D01*
X264Y21760D02*
X4072Y25568D01*
X1248Y21527D02*
X1370Y21433D01*
X1296Y16898D02*
X1440Y16995D01*
X1107Y16817D02*
X1267Y16883D01*
X591Y21756D02*
X744Y21736D01*
X765Y21732D02*
X914Y21692D01*
X497Y21760D02*
X575Y21758D01*
X906Y16773D02*
X1076Y16807D01*
X795Y16766D02*
X882Y16770D01*
X726Y16766D02*
X787Y16766D01*
X1190Y16851D02*
X2022Y16020D01*
X972Y16787D02*
X1880Y15879D01*
X713Y16763D02*
X1739Y15737D01*
X496Y16697D02*
X1700Y15493D01*
X336Y16574D02*
X1700Y15210D01*
X221Y16406D02*
X1700Y14927D01*
X605Y16742D02*
X726Y16766D01*
X492Y16695D02*
X605Y16742D01*
X389Y16627D02*
X492Y16695D01*
X302Y16540D02*
X389Y16627D01*
X234Y16437D02*
X302Y16540D01*
X187Y16324D02*
X234Y16437D01*
X-584Y21760D02*
X3223Y25568D01*
X-19Y21760D02*
X3789Y25568D01*
X-2101Y24668D02*
X861Y21706D01*
X183Y16306D02*
X624Y16746D01*
X163Y16002D02*
X941Y16780D01*
X163Y15719D02*
X1435Y16991D01*
X-2101Y23819D02*
X-42Y21760D01*
X-2101Y24102D02*
X241Y21760D01*
X-2101Y24385D02*
X525Y21759D01*
X163Y16203D02*
X187Y16324D01*
X163Y16203D02*
X163Y16142D01*
X-1083Y21760D02*
X492Y21760D01*
X163Y14022D02*
X1700Y15559D01*
X163Y15333D02*
X1700Y13796D01*
X163Y15616D02*
X1700Y14079D01*
X163Y13457D02*
X1700Y14994D01*
X163Y13174D02*
X1700Y14711D01*
X163Y13740D02*
X1700Y15276D01*
X163Y15899D02*
X1700Y14362D01*
X163Y787D02*
X163Y16142D01*
X163Y16181D02*
X1700Y14644D01*
X163Y14767D02*
X1533Y13397D01*
X163Y14484D02*
X1392Y13256D01*
X163Y15050D02*
X1675Y13538D01*
X163Y12608D02*
X1700Y14145D01*
X163Y11194D02*
X3030Y14061D01*
X163Y11477D02*
X3030Y14344D01*
X806Y12669D02*
X1700Y13564D01*
X989Y12486D02*
X1922Y13418D01*
X163Y12325D02*
X1700Y13862D01*
X163Y14201D02*
X1250Y13114D01*
X163Y13919D02*
X1109Y12973D01*
X163Y12891D02*
X1700Y14428D01*
X791Y12670D02*
X1700Y13579D01*
X163Y13636D02*
X968Y12831D01*
X163Y9497D02*
X4190Y13524D01*
X163Y8931D02*
X4190Y12958D01*
X163Y10911D02*
X3030Y13778D01*
X605Y187D02*
X726Y163D01*
X787Y163D01*
X163Y9780D02*
X2673Y12289D01*
X234Y492D02*
X302Y389D01*
X190Y598D02*
X598Y190D01*
X187Y605D02*
X234Y492D01*
X389Y302D02*
X492Y234D01*
X605Y187D01*
X302Y389D02*
X389Y302D01*
X163Y10345D02*
X3030Y13212D01*
X163Y9214D02*
X4190Y13241D01*
X163Y10628D02*
X3030Y13495D01*
X163Y10063D02*
X2559Y12458D01*
X163Y8648D02*
X4261Y12747D01*
X163Y3736D02*
X3736Y163D01*
X163Y13070D02*
X636Y12597D01*
X163Y12043D02*
X590Y12469D01*
X163Y13353D02*
X826Y12690D01*
X163Y11760D02*
X697Y12293D01*
X163Y726D02*
X187Y605D01*
X163Y726D02*
Y787D01*
Y4019D02*
X4019Y163D01*
X163Y3453D02*
X3453Y163D01*
X163Y4302D02*
X4302Y163D01*
X163Y2888D02*
X2888Y163D01*
X163Y2605D02*
X2605Y163D01*
X163Y3171D02*
X3171Y163D01*
X163Y2039D02*
X2039Y163D01*
X163Y1756D02*
X1756Y163D01*
X163Y2322D02*
X2322Y163D01*
X163Y1191D02*
X1191Y163D01*
X163Y908D02*
X908Y163D01*
X163Y1474D02*
X1474Y163D01*
D16*
X3248Y36122D02*
D03*
X2854D02*
D03*
X2657D02*
D03*
X2461D02*
D03*
X3051D02*
D03*
X2264D02*
D03*
X2067D02*
D03*
X1870D02*
D03*
X1673D02*
D03*
X1476D02*
D03*
X1280D02*
D03*
X1083D02*
D03*
X886D02*
D03*
X689D02*
D03*
X492D02*
D03*
X295D02*
D03*
X98D02*
D03*
X-98D02*
D03*
X-295D02*
D03*
X-492D02*
D03*
X-689D02*
D03*
X-886D02*
D03*
X-1083D02*
D03*
X-1280D02*
D03*
X-1476D02*
D03*
X-1673D02*
D03*
X-1870D02*
D03*
X-2067D02*
D03*
X-2264D02*
D03*
X-2461D02*
D03*
X-2657D02*
D03*
X-2854D02*
D03*
X-3051D02*
D03*
X-3248D02*
D03*
X-3445D02*
D03*
X-3642D02*
D03*
M02*
