M48
;Layer_Color=9474304
;FILE_FORMAT=2:4
INCH,LZ
;TYPE=PLATED
T01F00S00C0.0080
T02F00S00C0.0157
T04F00S00C0.0945
;TYPE=NON_PLATED
T05F00S00C0.0256
%
T01
X-004475Y000954
X-003294Y002061
Y004276
X-002074Y004409
X-001704Y004081
X-001431Y004276
X-001191
X-000915Y004081
X-000621Y004276
X-000381
X-000096Y004081
X000237Y004276
X000477
X000695Y004081
X001005Y004276
X001245
X001538Y004081
X00329Y004276
X00271Y005585
X004475Y005383
Y007597
X003575Y007132
X001955Y007332
X002115Y00792
X001076Y008276
X000702
X000674Y007946
X000347Y007883
X000141Y00804
X000141Y008296
X000141Y008552
Y008808
Y009064
X-000155
Y008808
Y008552
Y008296
Y00804
X-000361Y007883
X-000444Y00817
X-000716Y008276
X-000688Y007946
X-000594Y007647
X-000873
X-000263Y007587
X-000007Y007804
X000249Y007588
X00058Y007647
X000859
X00084Y008513
X000899Y008749
X001036Y009005
X00043Y00817
X000212Y00678
X-000028
X000365Y006588
X000605
X000759Y006378
X000999
X001187Y006588
X-0001Y005824
Y005584
X-00166
Y005824
X-000794Y00678
X-000853Y008513
X-000912Y008749
X-00105Y009005
X-00109Y008276
X-003294Y006489
X-004475Y005383
Y007597
Y009812
X-003108Y0126
X-001877Y011828
X-001036Y0126
X-000007Y011828
X001036Y0126
X001863Y011828
X003108Y0126
X004475Y009812
Y000954
X00329Y002061
X-000794Y001612
Y001373
T02
X-001023Y002531
X-000708
X-000393
X-000551Y002807
X-000236
X000079
X000394
X000237Y002531
X000552
X000867
X001024Y002807
X-001181
T04
X-00374Y00311
X00374
T05
X-001496Y003063
M30
