G04*
G04 #@! TF.GenerationSoftware,Altium Limited,Altium Designer,25.8.1 (18)*
G04*
G04 Layer_Physical_Order=3*
G04 Layer_Color=16440176*
%FSLAX24Y24*%
%MOIN*%
G70*
G04*
G04 #@! TF.SameCoordinates,1CE5B59B-E4AF-48B0-B711-AB6755171964*
G04*
G04*
G04 #@! TF.FilePolarity,Positive*
G04*
G01*
G75*
%ADD24C,0.0256*%
G04:AMPARAMS|DCode=25|XSize=35.4mil|YSize=59.1mil|CornerRadius=17.7mil|HoleSize=0mil|Usage=FLASHONLY|Rotation=0.000|XOffset=0mil|YOffset=0mil|HoleType=Round|Shape=RoundedRectangle|*
%AMROUNDEDRECTD25*
21,1,0.0354,0.0236,0,0,0.0*
21,1,0.0000,0.0591,0,0,0.0*
1,1,0.0354,0.0000,-0.0118*
1,1,0.0354,0.0000,-0.0118*
1,1,0.0354,0.0000,0.0118*
1,1,0.0354,0.0000,0.0118*
%
%ADD25ROUNDEDRECTD25*%
%ADD32C,0.0140*%
%ADD39C,0.0040*%
G36*
X5078Y102D02*
X-5078D01*
Y13458D01*
X5078D01*
Y102D01*
D02*
G37*
%LPC*%
G36*
X1897Y11998D02*
X1829D01*
X1767Y11972D01*
X1719Y11924D01*
X1693Y11861D01*
Y11794D01*
X1719Y11731D01*
X1767Y11683D01*
X1829Y11658D01*
X1897D01*
X1959Y11683D01*
X2007Y11731D01*
X2033Y11794D01*
Y11861D01*
X2007Y11924D01*
X1959Y11972D01*
X1897Y11998D01*
D02*
G37*
G36*
X27D02*
X-41D01*
X-103Y11972D01*
X-151Y11924D01*
X-177Y11861D01*
Y11794D01*
X-151Y11731D01*
X-103Y11683D01*
X-41Y11658D01*
X27D01*
X89Y11683D01*
X137Y11731D01*
X163Y11794D01*
Y11861D01*
X137Y11924D01*
X89Y11972D01*
X27Y11998D01*
D02*
G37*
G36*
X-1843D02*
X-1911D01*
X-1973Y11972D01*
X-2021Y11924D01*
X-2047Y11861D01*
Y11794D01*
X-2021Y11731D01*
X-1973Y11683D01*
X-1911Y11658D01*
X-1843D01*
X-1781Y11683D01*
X-1733Y11731D01*
X-1707Y11794D01*
Y11861D01*
X-1733Y11924D01*
X-1781Y11972D01*
X-1843Y11998D01*
D02*
G37*
G36*
X175Y9234D02*
X107D01*
X44Y9208D01*
X-7Y9163D01*
X-58Y9208D01*
X-121Y9234D01*
X-188D01*
X-251Y9208D01*
X-299Y9160D01*
X-325Y9098D01*
Y9030D01*
X-299Y8968D01*
X-267Y8936D01*
X-299Y8904D01*
X-325Y8842D01*
Y8774D01*
X-299Y8712D01*
X-267Y8680D01*
X-299Y8648D01*
X-325Y8586D01*
Y8518D01*
X-299Y8456D01*
X-267Y8424D01*
X-299Y8392D01*
X-337Y8331D01*
X-410Y8340D01*
X-478D01*
X-540Y8314D01*
X-572Y8373D01*
X-619Y8421D01*
X-682Y8446D01*
X-691Y8460D01*
X-683Y8479D01*
Y8547D01*
X-709Y8609D01*
X-757Y8657D01*
X-765Y8660D01*
X-742Y8715D01*
Y8783D01*
X-768Y8845D01*
X-816Y8893D01*
X-880Y8971D01*
Y9039D01*
X-906Y9101D01*
X-954Y9149D01*
X-1016Y9175D01*
X-1084D01*
X-1147Y9149D01*
X-1194Y9101D01*
X-1220Y9039D01*
Y8971D01*
X-1194Y8909D01*
X-1147Y8861D01*
X-1082Y8783D01*
Y8715D01*
X-1057Y8653D01*
X-1009Y8605D01*
X-1001Y8601D01*
X-1023Y8547D01*
Y8539D01*
X-1047Y8470D01*
X-1116Y8446D01*
X-1123D01*
X-1186Y8421D01*
X-1234Y8373D01*
X-1260Y8310D01*
Y8243D01*
X-1234Y8180D01*
X-1186Y8132D01*
X-1123Y8106D01*
X-1056D01*
X-993Y8132D01*
X-982Y8143D01*
X-871Y8140D01*
X-825Y8074D01*
X-832Y8042D01*
X-858Y7980D01*
Y7912D01*
X-907Y7817D01*
X-917Y7812D01*
X-969Y7791D01*
X-1017Y7743D01*
X-1043Y7680D01*
Y7613D01*
X-1017Y7550D01*
X-969Y7502D01*
X-907Y7477D01*
X-839D01*
X-777Y7502D01*
X-734Y7546D01*
X-690Y7502D01*
X-628Y7477D01*
X-560D01*
X-498Y7502D01*
X-450Y7550D01*
X-424Y7613D01*
Y7620D01*
X-403Y7688D01*
X-332Y7713D01*
X-327D01*
X-265Y7739D01*
X-152Y7710D01*
X-151Y7708D01*
X-103Y7660D01*
X-41Y7634D01*
X27D01*
X89Y7660D01*
X137Y7708D01*
X138Y7710D01*
X251Y7739D01*
X314Y7713D01*
X318D01*
X389Y7688D01*
X410Y7620D01*
Y7613D01*
X436Y7550D01*
X484Y7502D01*
X546Y7477D01*
X614D01*
X676Y7502D01*
X720Y7546D01*
X763Y7502D01*
X825Y7477D01*
X893D01*
X956Y7502D01*
X1003Y7550D01*
X1029Y7613D01*
Y7680D01*
X1003Y7743D01*
X956Y7791D01*
X903Y7812D01*
X893Y7817D01*
X844Y7912D01*
Y7980D01*
X818Y8042D01*
X811Y8074D01*
X858Y8140D01*
X968Y8143D01*
X979Y8132D01*
X1042Y8106D01*
X1110D01*
X1172Y8132D01*
X1220Y8180D01*
X1246Y8243D01*
Y8310D01*
X1220Y8373D01*
X1172Y8421D01*
X1110Y8446D01*
X1102D01*
X1034Y8470D01*
X1010Y8539D01*
Y8547D01*
X987Y8601D01*
X995Y8605D01*
X1043Y8653D01*
X1069Y8715D01*
Y8783D01*
X1133Y8861D01*
X1181Y8909D01*
X1206Y8971D01*
Y9039D01*
X1181Y9101D01*
X1133Y9149D01*
X1070Y9175D01*
X1003D01*
X940Y9149D01*
X892Y9101D01*
X866Y9039D01*
Y8971D01*
X802Y8893D01*
X755Y8845D01*
X729Y8783D01*
Y8715D01*
X751Y8660D01*
X743Y8657D01*
X695Y8609D01*
X670Y8547D01*
Y8479D01*
X677Y8460D01*
X668Y8446D01*
X605Y8421D01*
X558Y8373D01*
X526Y8314D01*
X464Y8340D01*
X396D01*
X361Y8336D01*
X285Y8416D01*
Y8456D01*
X285Y8456D01*
X311Y8518D01*
Y8586D01*
X285Y8648D01*
X253Y8680D01*
X285Y8712D01*
X311Y8774D01*
Y8842D01*
X285Y8904D01*
X253Y8936D01*
X285Y8968D01*
X311Y9030D01*
Y9098D01*
X285Y9160D01*
X237Y9208D01*
X175Y9234D01*
D02*
G37*
G36*
X2149Y8090D02*
X2081D01*
X2019Y8064D01*
X1971Y8016D01*
X1945Y7954D01*
Y7886D01*
X1971Y7824D01*
X2019Y7776D01*
X2081Y7750D01*
X2149D01*
X2211Y7776D01*
X2259Y7824D01*
X2285Y7886D01*
Y7954D01*
X2259Y8016D01*
X2211Y8064D01*
X2149Y8090D01*
D02*
G37*
G36*
X245Y6950D02*
X178D01*
X115Y6924D01*
X92Y6900D01*
X68Y6924D01*
X5Y6950D01*
X-62D01*
X-125Y6924D01*
X-173Y6876D01*
X-198Y6814D01*
Y6746D01*
X-173Y6684D01*
X-125Y6636D01*
X-62Y6610D01*
X5D01*
X68Y6636D01*
X92Y6660D01*
X115Y6636D01*
X178Y6610D01*
X195D01*
Y6554D01*
X221Y6492D01*
X269Y6444D01*
X331Y6418D01*
X399D01*
X462Y6444D01*
X485Y6468D01*
X509Y6444D01*
X571Y6418D01*
X573D01*
X589Y6412D01*
Y6344D01*
X615Y6282D01*
X663Y6234D01*
X725Y6208D01*
X793D01*
X855Y6234D01*
X879Y6257D01*
X903Y6234D01*
X965Y6208D01*
X1033D01*
X1095Y6234D01*
X1143Y6282D01*
X1169Y6344D01*
X1221Y6418D01*
X1283Y6444D01*
X1331Y6492D01*
X1357Y6554D01*
Y6622D01*
X1331Y6684D01*
X1283Y6732D01*
X1221Y6758D01*
X1153D01*
X1091Y6732D01*
X1043Y6684D01*
X1017Y6622D01*
X965Y6548D01*
X903Y6522D01*
X879Y6498D01*
X855Y6522D01*
X793Y6548D01*
X791D01*
X775Y6554D01*
Y6622D01*
X749Y6684D01*
X702Y6732D01*
X639Y6758D01*
X571D01*
X509Y6732D01*
X485Y6708D01*
X462Y6732D01*
X399Y6758D01*
X382D01*
Y6814D01*
X356Y6876D01*
X308Y6924D01*
X245Y6950D01*
D02*
G37*
G36*
X-761D02*
X-828D01*
X-891Y6924D01*
X-938Y6876D01*
X-964Y6814D01*
Y6746D01*
X-938Y6684D01*
X-891Y6636D01*
X-828Y6610D01*
X-761D01*
X-698Y6636D01*
X-650Y6684D01*
X-624Y6746D01*
Y6814D01*
X-650Y6876D01*
X-698Y6924D01*
X-761Y6950D01*
D02*
G37*
G36*
X-66Y5994D02*
X-134D01*
X-196Y5968D01*
X-244Y5921D01*
X-270Y5858D01*
Y5790D01*
X-244Y5728D01*
X-220Y5704D01*
X-244Y5681D01*
X-270Y5618D01*
Y5550D01*
X-244Y5488D01*
X-196Y5440D01*
X-134Y5414D01*
X-66D01*
X-4Y5440D01*
X44Y5488D01*
X70Y5550D01*
Y5618D01*
X44Y5681D01*
X20Y5704D01*
X44Y5728D01*
X70Y5790D01*
Y5858D01*
X44Y5921D01*
X-4Y5968D01*
X-66Y5994D01*
D02*
G37*
G36*
X-1626D02*
X-1694D01*
X-1756Y5968D01*
X-1804Y5921D01*
X-1830Y5858D01*
Y5790D01*
X-1804Y5728D01*
X-1780Y5704D01*
X-1804Y5681D01*
X-1830Y5618D01*
Y5550D01*
X-1804Y5488D01*
X-1756Y5440D01*
X-1694Y5414D01*
X-1626D01*
X-1564Y5440D01*
X-1516Y5488D01*
X-1490Y5550D01*
Y5618D01*
X-1516Y5681D01*
X-1540Y5704D01*
X-1516Y5728D01*
X-1490Y5790D01*
Y5858D01*
X-1516Y5921D01*
X-1564Y5968D01*
X-1626Y5994D01*
D02*
G37*
G36*
X1279Y4446D02*
X1211D01*
X1148Y4421D01*
X1125Y4397D01*
X1101Y4421D01*
X1039Y4446D01*
X971D01*
X908Y4421D01*
X861Y4373D01*
X835Y4310D01*
Y4243D01*
X861Y4180D01*
X908Y4132D01*
X971Y4106D01*
X989D01*
Y3469D01*
X994Y3442D01*
X1010Y3419D01*
X1123Y3305D01*
X1116Y3227D01*
X1065Y3152D01*
X1048Y3063D01*
X1065Y2974D01*
X1116Y2899D01*
X1191Y2848D01*
X1280Y2831D01*
X1398D01*
X1487Y2848D01*
X1563Y2899D01*
X1613Y2974D01*
X1631Y3063D01*
X1629Y3069D01*
X1722Y3119D01*
X1795Y3045D01*
Y2321D01*
X1744Y2270D01*
X1069D01*
X1028Y2370D01*
X1060Y2402D01*
X1095Y2486D01*
Y2577D01*
X1060Y2661D01*
X996Y2725D01*
X912Y2759D01*
X821D01*
X738Y2725D01*
X709Y2696D01*
X681Y2725D01*
X618Y2751D01*
X622Y2762D01*
Y2852D01*
X587Y2936D01*
X523Y3000D01*
X440Y3035D01*
X349D01*
X265Y3000D01*
X237Y2972D01*
X208Y3000D01*
X125Y3035D01*
X34D01*
X-50Y3000D01*
X-78Y2972D01*
X-107Y3000D01*
X-190Y3035D01*
X-281D01*
X-365Y3000D01*
X-393Y2972D01*
X-421Y3000D01*
X-505Y3035D01*
X-596D01*
X-680Y3000D01*
X-744Y2936D01*
X-779Y2852D01*
Y2762D01*
X-774Y2751D01*
X-837Y2725D01*
X-866Y2696D01*
X-894Y2725D01*
X-978Y2759D01*
X-1068D01*
X-1152Y2725D01*
X-1216Y2661D01*
X-1251Y2577D01*
Y2486D01*
X-1216Y2402D01*
X-1152Y2338D01*
X-1068Y2304D01*
X-997D01*
Y2242D01*
X-992Y2214D01*
X-976Y2191D01*
X-813Y2028D01*
X-790Y2013D01*
X-762Y2007D01*
X1824D01*
X1851Y2013D01*
X1874Y2028D01*
X2002Y2156D01*
X2002Y2156D01*
X2037Y2191D01*
X2053Y2214D01*
X2058Y2242D01*
Y3124D01*
X2053Y3151D01*
X2037Y3174D01*
X1775Y3437D01*
X1751Y3453D01*
X1724Y3458D01*
X1342D01*
X1251Y3548D01*
Y4106D01*
X1279D01*
X1341Y4132D01*
X1389Y4180D01*
X1415Y4243D01*
Y4310D01*
X1389Y4373D01*
X1341Y4421D01*
X1279Y4446D01*
D02*
G37*
G36*
X511D02*
X443D01*
X381Y4421D01*
X357Y4397D01*
X334Y4421D01*
X271Y4446D01*
X203D01*
X141Y4421D01*
X93Y4373D01*
X67Y4310D01*
Y4243D01*
X93Y4180D01*
X141Y4132D01*
X203Y4106D01*
X271D01*
X334Y4132D01*
X357Y4156D01*
X381Y4132D01*
X443Y4106D01*
X511D01*
X574Y4132D01*
X621Y4180D01*
X647Y4243D01*
Y4310D01*
X621Y4373D01*
X574Y4421D01*
X511Y4446D01*
D02*
G37*
G36*
X-347D02*
X-415D01*
X-477Y4421D01*
X-501Y4397D01*
X-525Y4421D01*
X-587Y4446D01*
X-655D01*
X-717Y4421D01*
X-765Y4373D01*
X-791Y4310D01*
Y4243D01*
X-765Y4180D01*
X-717Y4132D01*
X-655Y4106D01*
X-622D01*
Y3702D01*
X-781Y3543D01*
X-2263D01*
X-2290Y3537D01*
X-2313Y3522D01*
X-2484Y3352D01*
X-2499Y3329D01*
X-2505Y3301D01*
Y1751D01*
X-2499Y1724D01*
X-2484Y1701D01*
X-2165Y1382D01*
X-2142Y1366D01*
X-2114Y1361D01*
X-964D01*
Y1339D01*
X-938Y1276D01*
X-891Y1228D01*
X-828Y1203D01*
X-761D01*
X-698Y1228D01*
X-650Y1276D01*
X-624Y1339D01*
Y1406D01*
X-650Y1469D01*
X-674Y1493D01*
X-650Y1516D01*
X-624Y1579D01*
Y1646D01*
X-650Y1709D01*
X-698Y1757D01*
X-761Y1782D01*
X-828D01*
X-891Y1757D01*
X-938Y1709D01*
X-964Y1646D01*
Y1624D01*
X-2035D01*
X-2242Y1830D01*
Y3222D01*
X-2184Y3280D01*
X-1742D01*
X-1714Y3233D01*
X-1694Y3180D01*
X-1723Y3108D01*
Y3018D01*
X-1689Y2934D01*
X-1625Y2870D01*
X-1541Y2835D01*
X-1450D01*
X-1366Y2870D01*
X-1302Y2934D01*
X-1268Y3018D01*
Y3108D01*
X-1297Y3180D01*
X-1277Y3233D01*
X-1249Y3280D01*
X-701D01*
X-674Y3286D01*
X-651Y3301D01*
X-380Y3572D01*
X-365Y3595D01*
X-359Y3622D01*
Y4106D01*
X-347D01*
X-285Y4132D01*
X-237Y4180D01*
X-211Y4243D01*
Y4310D01*
X-237Y4373D01*
X-285Y4421D01*
X-347Y4446D01*
D02*
G37*
G36*
X-1157D02*
X-1225D01*
X-1287Y4421D01*
X-1311Y4397D01*
X-1334Y4421D01*
X-1397Y4446D01*
X-1465D01*
X-1527Y4421D01*
X-1575Y4373D01*
X-1601Y4310D01*
Y4243D01*
X-1575Y4180D01*
X-1527Y4132D01*
X-1465Y4106D01*
X-1397D01*
X-1334Y4132D01*
X-1311Y4156D01*
X-1287Y4132D01*
X-1225Y4106D01*
X-1157D01*
X-1094Y4132D01*
X-1047Y4180D01*
X-1021Y4243D01*
Y4310D01*
X-1047Y4373D01*
X-1094Y4421D01*
X-1157Y4446D01*
D02*
G37*
G36*
X-2040Y4579D02*
X-2108D01*
X-2170Y4553D01*
X-2218Y4505D01*
X-2244Y4442D01*
Y4375D01*
X-2218Y4312D01*
X-2170Y4264D01*
X-2108Y4239D01*
X-2040D01*
X-1978Y4264D01*
X-1930Y4312D01*
X-1904Y4375D01*
Y4442D01*
X-1930Y4505D01*
X-1978Y4553D01*
X-2040Y4579D01*
D02*
G37*
G36*
X3899Y3919D02*
X3740D01*
X3584Y3888D01*
X3437Y3827D01*
X3304Y3738D01*
X3192Y3626D01*
X3103Y3493D01*
X3042Y3346D01*
X3011Y3190D01*
Y3031D01*
X3042Y2874D01*
X3103Y2727D01*
X3192Y2595D01*
X3304Y2482D01*
X3437Y2394D01*
X3584Y2333D01*
X3740Y2302D01*
X3899D01*
X4056Y2333D01*
X4203Y2394D01*
X4335Y2482D01*
X4448Y2595D01*
X4536Y2727D01*
X4597Y2874D01*
X4628Y3031D01*
Y3190D01*
X4597Y3346D01*
X4536Y3493D01*
X4448Y3626D01*
X4335Y3738D01*
X4203Y3827D01*
X4056Y3888D01*
X3899Y3919D01*
D02*
G37*
G36*
X-4037Y3872D02*
X-4196D01*
X-4353Y3841D01*
X-4500Y3780D01*
X-4632Y3691D01*
X-4745Y3578D01*
X-4833Y3446D01*
X-4894Y3299D01*
X-4926Y3143D01*
Y2983D01*
X-4894Y2827D01*
X-4833Y2680D01*
X-4745Y2548D01*
X-4632Y2435D01*
X-4500Y2346D01*
X-4353Y2285D01*
X-4196Y2254D01*
X-4037D01*
X-3881Y2285D01*
X-3734Y2346D01*
X-3601Y2435D01*
X-3489Y2548D01*
X-3400Y2680D01*
X-3339Y2827D01*
X-3308Y2983D01*
Y3143D01*
X-3339Y3299D01*
X-3400Y3446D01*
X-3489Y3578D01*
X-3601Y3691D01*
X-3734Y3780D01*
X-3881Y3841D01*
X-4037Y3872D01*
D02*
G37*
%LPD*%
D24*
X-1023Y2531D02*
D03*
X-708D02*
D03*
X-1181Y2807D02*
D03*
X1024D02*
D03*
D25*
X1690Y843D02*
D03*
X-1846D02*
D03*
X1548Y2571D02*
D03*
X-1704D02*
D03*
D32*
X-3294Y6489D02*
D03*
X249Y7588D02*
D03*
X-263Y7587D02*
D03*
X-1704Y4081D02*
D03*
X-794Y1612D02*
D03*
Y1373D02*
D03*
X1005Y4276D02*
D03*
X1245D02*
D03*
X-381D02*
D03*
X-621D02*
D03*
X3290Y4276D02*
D03*
X-3294D02*
D03*
X-3108Y12600D02*
D03*
X-1036D02*
D03*
X1036D02*
D03*
X3108D02*
D03*
X4475Y5383D02*
D03*
X3290Y2061D02*
D03*
X4475Y954D02*
D03*
X-4475D02*
D03*
X-3294Y2061D02*
D03*
X-4475Y5383D02*
D03*
X4475Y7597D02*
D03*
Y9812D02*
D03*
X-4475Y7597D02*
D03*
Y9812D02*
D03*
X1955Y7332D02*
D03*
X3575Y7132D02*
D03*
X2710Y5585D02*
D03*
X1538Y4081D02*
D03*
X-96D02*
D03*
X695D02*
D03*
X-915D02*
D03*
D39*
X-2114Y1432D02*
X-854D01*
X-2065Y1552D02*
X-855D01*
X-2313Y1801D02*
X-2065Y1552D01*
X-2433Y1751D02*
X-2114Y1432D01*
X-854D02*
X-794Y1373D01*
X-855Y1552D02*
X-794Y1612D01*
X-621Y4276D02*
X-551Y4206D01*
Y3672D02*
Y4206D01*
X-431Y4227D02*
X-381Y4276D01*
X-431Y3622D02*
Y4227D01*
X-2433Y1751D02*
Y3301D01*
X-2313Y1801D02*
Y3252D01*
X-701Y3352D02*
X-431Y3622D01*
X-2213Y3352D02*
X-701D01*
X-2313Y3252D02*
X-2213Y3352D01*
X-751Y3471D02*
X-551Y3672D01*
X-2263Y3471D02*
X-751D01*
X-2433Y3301D02*
X-2263Y3471D01*
X1005Y4276D02*
X1060Y4221D01*
Y3469D02*
Y4221D01*
Y3469D02*
X1262Y3267D01*
X1180Y4212D02*
X1245Y4276D01*
X1180Y3519D02*
Y4212D01*
Y3519D02*
X1312Y3387D01*
X1262Y3267D02*
X1674D01*
X1867Y3074D01*
Y2291D02*
Y3074D01*
X1774Y2199D02*
X1867Y2291D01*
X-713Y2199D02*
X1774D01*
X-806Y2434D02*
X-708Y2531D01*
X-806Y2291D02*
X-713Y2199D01*
X-806Y2291D02*
Y2434D01*
X1987Y2242D02*
Y3124D01*
X1952Y2207D02*
X1987Y2242D01*
X1724Y3387D02*
X1987Y3124D01*
X1952Y2207D02*
Y2207D01*
X1824Y2079D02*
X1952Y2207D01*
X1312Y3387D02*
X1724D01*
X-762Y2079D02*
X1824D01*
X-1023Y2531D02*
X-926Y2434D01*
Y2242D02*
X-762Y2079D01*
X-926Y2242D02*
Y2434D01*
M02*
