G04*
G04 #@! TF.GenerationSoftware,Altium Limited,Altium Designer,25.5.2 (35)*
G04*
G04 Layer_Color=16711935*
%FSLAX24Y24*%
%MOIN*%
G70*
G04*
G04 #@! TF.SameCoordinates,7914919B-8841-43C1-8237-0FAEFC545874*
G04*
G04*
G04 #@! TF.FilePolarity,Positive*
G04*
G01*
G75*
%ADD17C,0.0079*%
D17*
X2854Y25731D02*
G03*
X1673Y24550I0J-1181D01*
G01*
X787Y16929D02*
G03*
X1673Y17815I0J886D01*
G01*
X4803Y32677D02*
G03*
X5600Y31095I1969J0D01*
G01*
X11329D02*
G03*
X10532Y29513I1171J-1582D01*
G01*
X0Y787D02*
G03*
X787Y0I787J0D01*
G01*
X11329Y31095D02*
G03*
X12126Y32677I-1171J1582D01*
G01*
Y36575D02*
G03*
X12087Y36614I-39J0D01*
G01*
X3760Y0D02*
G03*
X3760Y0I-20J0D01*
G01*
X9350Y21597D02*
G03*
X10532Y22778I0J1181D01*
G01*
X5807Y17815D02*
G03*
X6693Y16929I886J0D01*
G01*
X787D02*
G03*
X0Y16142I0J-787D01*
G01*
X4843Y36614D02*
G03*
X4803Y36575I0J-39D01*
G01*
X5217Y25731D02*
G03*
X6398Y26912I0J1181D01*
G01*
X6988Y21597D02*
G03*
X5807Y20416I0J-1181D01*
G01*
X7480Y16142D02*
G03*
X6693Y16929I-787J0D01*
G01*
X6398Y29513D02*
G03*
X5600Y31095I-1969J0D01*
G01*
X6693Y0D02*
G03*
X7480Y787I0J787D01*
G01*
X4803Y32677D02*
Y36575D01*
X2854Y25731D02*
X5217D01*
X10532Y22778D02*
Y29513D01*
X6398Y26912D02*
Y29513D01*
X4843Y36614D02*
X12087D01*
X6988Y21597D02*
X9350D01*
X0Y787D02*
Y16142D01*
X12126Y32677D02*
Y36575D01*
X5807Y17815D02*
Y20416D01*
X7480Y787D02*
Y16142D01*
X1673Y17815D02*
Y24550D01*
X787Y0D02*
X6693D01*
M02*
