G04*
G04 #@! TF.GenerationSoftware,Altium Limited,Altium Designer,25.5.2 (35)*
G04*
G04 Layer_Physical_Order=2*
G04 Layer_Color=16711680*
%FSLAX24Y24*%
%MOIN*%
G70*
G04*
G04 #@! TF.SameCoordinates,7914919B-8841-43C1-8237-0FAEFC545874*
G04*
G04*
G04 #@! TF.FilePolarity,Positive*
G04*
G01*
G75*
%ADD12C,0.0180*%
%ADD15C,0.0040*%
%ADD16C,0.0060*%
D12*
X8560Y32480D02*
D03*
X10340Y32620D02*
D03*
X8366Y32900D02*
D03*
X6600Y32780D02*
D03*
X3170Y16040D02*
D03*
X4310D02*
D03*
X4500Y16320D02*
D03*
X2446Y16253D02*
D03*
X2980Y16320D02*
D03*
X5034Y16253D02*
D03*
X2758Y14439D02*
D03*
Y12470D02*
D03*
X4722Y14439D02*
D03*
Y12470D02*
D03*
X6690D02*
D03*
X790D02*
D03*
D15*
X4320Y12872D02*
Y16030D01*
Y12872D02*
X4722Y12470D01*
X2758D02*
X3160Y12872D01*
Y16030D01*
X3170Y16040D01*
X2758Y14439D02*
X2980Y14660D01*
Y16320D01*
X4500Y14660D02*
Y16320D01*
X4310Y16040D02*
X4320Y16030D01*
X4500Y14660D02*
X4722Y14439D01*
X1830Y15645D02*
X2442Y16257D01*
X2446Y16253D01*
X5034D02*
X5038Y16257D01*
X5650Y15645D01*
Y13510D02*
X6690Y12470D01*
X5650Y13510D02*
Y15645D01*
X1830Y13510D02*
Y15645D01*
X790Y12470D02*
X1830Y13510D01*
D16*
X806Y12669D02*
G03*
X990Y12470I-16J-199D01*
G01*
X2774Y12669D02*
G03*
X2959Y12470I-16J-199D01*
G01*
X3252Y12780D02*
G03*
X3290Y12872I-92J92D01*
G01*
X3252Y12780D02*
G03*
X3290Y12872I-92J92D01*
G01*
X1922Y13418D02*
G03*
X1960Y13510I-92J92D01*
G01*
X1922Y13418D02*
G03*
X1960Y13510I-92J92D01*
G01*
X1738Y15737D02*
G03*
X1700Y15645I92J-92D01*
G01*
X1738Y15737D02*
G03*
X1700Y15645I92J-92D01*
G01*
X2774Y14638D02*
G03*
X2959Y14439I-16J-199D01*
G01*
X2646Y16253D02*
G03*
X2246Y16245I-200J0D01*
G01*
X2423Y16054D02*
G03*
X2646Y16253I23J199D01*
G01*
X3180Y16320D02*
G03*
X2850Y16168I-200J0D01*
G01*
X3163Y16240D02*
G03*
X3180Y16320I-183J80D01*
G01*
X3370Y16040D02*
G03*
X3163Y16240I-200J0D01*
G01*
X3290Y15880D02*
G03*
X3370Y16040I-120J160D01*
G01*
X4190Y12872D02*
G03*
X4228Y12780I130J0D01*
G01*
X4190Y12872D02*
G03*
X4228Y12780I130J0D01*
G01*
X4522Y12486D02*
G03*
X4922Y12470I199J-16D01*
G01*
X4522Y14454D02*
G03*
X4922Y14439I199J-16D01*
G01*
Y12470D02*
G03*
X4706Y12669I-200J0D01*
G01*
X5520Y13510D02*
G03*
X5558Y13418I130J0D01*
G01*
X5520Y13510D02*
G03*
X5558Y13418I130J0D01*
G01*
X4922Y14439D02*
G03*
X4706Y14638I-200J0D01*
G01*
X5780Y15645D02*
G03*
X5742Y15737I-130J0D01*
G01*
X5780Y15645D02*
G03*
X5742Y15737I-130J0D01*
G01*
X4317Y16240D02*
G03*
X4190Y15880I-7J-200D01*
G01*
X4630Y16168D02*
G03*
X4700Y16320I-130J152D01*
G01*
D02*
G03*
X4317Y16240I-200J0D01*
G01*
X5234Y16253D02*
G03*
X5057Y16054I-200J0D01*
G01*
X6491Y12486D02*
G03*
X6890Y12470I199J-16D01*
G01*
D02*
G03*
X6675Y12669I-200J0D01*
G01*
X163Y1232D02*
X1232Y163D01*
X163Y949D02*
X949Y163D01*
X163Y2646D02*
X2646Y163D01*
X163Y1515D02*
X1515Y163D01*
X163Y1797D02*
X1797Y163D01*
X163Y3212D02*
X3212Y163D01*
X163Y2929D02*
X2929Y163D01*
X163Y4343D02*
X4343Y163D01*
X163Y3494D02*
X3494Y163D01*
X163Y4060D02*
X4060Y163D01*
X163Y726D02*
X163Y787D01*
X163Y726D02*
X187Y605D01*
X163Y2363D02*
X2363Y163D01*
X163Y2080D02*
X2080Y163D01*
X163Y13111D02*
X656Y12618D01*
X163Y8243D02*
X4464Y12544D01*
X163Y3777D02*
X3777Y163D01*
X163Y7960D02*
X4558Y12355D01*
X163Y9092D02*
X4190Y13119D01*
X163Y8526D02*
X4322Y12686D01*
X163Y10223D02*
X3030Y13090D01*
X389Y302D02*
X492Y234D01*
X605Y187D01*
X187Y605D02*
X234Y492D01*
X302Y389D02*
X389Y302D01*
X234Y492D02*
X302Y389D01*
X605Y187D02*
X726Y163D01*
X787Y163D01*
X163Y8809D02*
X4194Y12840D01*
X178Y651D02*
X651Y178D01*
X163Y9658D02*
X2776Y12271D01*
X163Y11920D02*
X615Y12373D01*
X163Y11637D02*
X796Y12270D01*
X163Y12828D02*
X611Y12380D01*
X1738Y13234D02*
X2571Y12400D01*
X163Y9940D02*
X2588Y12365D01*
X2958Y12486D02*
X3252Y12780D01*
X2774Y12669D02*
X3030Y12925D01*
X806Y12669D02*
X1700Y13564D01*
X989Y12486D02*
X1922Y13418D01*
X163Y787D02*
X163Y16142D01*
Y12203D02*
X1700Y13740D01*
X163Y12486D02*
X1700Y14023D01*
X163Y9375D02*
X4190Y13402D01*
X163Y10506D02*
X3030Y13373D01*
X163Y11355D02*
X3030Y14221D01*
X163Y10789D02*
X3030Y13656D01*
X163Y11072D02*
X3030Y13939D01*
X163Y13677D02*
X988Y12852D01*
X163Y13394D02*
X847Y12710D01*
X163Y14525D02*
X1412Y13276D01*
X163Y13960D02*
X1129Y12993D01*
X163Y14242D02*
X1271Y13135D01*
X163Y14808D02*
X1554Y13418D01*
X163Y12769D02*
X1700Y14306D01*
X163Y13052D02*
X1700Y14589D01*
X163Y13617D02*
X1700Y15154D01*
X163Y13334D02*
X1700Y14871D01*
X163Y15091D02*
X1695Y13559D01*
X1879Y13375D02*
X2630Y12624D01*
X1960Y13577D02*
X2821Y12716D01*
X990Y12464D02*
X2764Y14239D01*
X1960Y13860D02*
X2962Y12858D01*
X3030Y12925D02*
Y14526D01*
X2958Y12452D02*
X4190Y13685D01*
X3290Y13661D02*
X4527Y12424D01*
X3290Y12872D02*
Y15880D01*
Y13944D02*
X4190Y13044D01*
X3290Y13067D02*
X4190Y13968D01*
X1700Y13564D02*
Y15645D01*
X1960Y13510D02*
Y15591D01*
Y14708D02*
X3030Y13638D01*
X1960Y14143D02*
X3030Y13073D01*
X3290Y14227D02*
X4190Y13327D01*
X3290Y13350D02*
X4190Y14250D01*
X1960Y14425D02*
X3030Y13355D01*
X3290Y14510D02*
X4190Y13609D01*
X3290Y13633D02*
X4190Y14533D01*
X163Y4909D02*
X4909Y163D01*
X163Y4626D02*
X4626Y163D01*
X163Y5757D02*
X5757Y163D01*
X163Y5192D02*
X5192Y163D01*
X163Y5474D02*
X5474Y163D01*
X163Y6323D02*
X6323Y163D01*
X163Y6040D02*
X6040Y163D01*
X163Y7171D02*
X7056Y279D01*
X163Y6606D02*
X6606Y163D01*
X163Y6889D02*
X6866Y185D01*
X163Y7737D02*
X7293Y607D01*
X163Y7454D02*
X7198Y419D01*
X163Y8303D02*
X7317Y1149D01*
X163Y8020D02*
X7317Y866D01*
X163Y9434D02*
X7317Y2280D01*
X163Y1455D02*
X7317Y8609D01*
X163Y889D02*
X7317Y8043D01*
X163Y1172D02*
X7317Y8326D01*
X163Y2304D02*
X7317Y9458D01*
X163Y1738D02*
X7317Y8892D01*
X163Y2021D02*
X7317Y9175D01*
X1982Y163D02*
X7317Y5498D01*
X2265Y163D02*
X7317Y5215D01*
X1134Y163D02*
X7317Y6346D01*
X1700Y163D02*
X7317Y5781D01*
X1417Y163D02*
X7317Y6064D01*
X3397Y163D02*
X7317Y4084D01*
X3680Y163D02*
X7317Y3801D01*
X2548Y163D02*
X7317Y4932D01*
X3114Y163D02*
X7317Y4366D01*
X2831Y163D02*
X7317Y4649D01*
X163Y8586D02*
X7317Y1432D01*
X787Y163D02*
X6754D01*
X163Y9717D02*
X7317Y2563D01*
X163Y8868D02*
X7317Y1714D01*
X163Y9151D02*
X7317Y1997D01*
X411Y288D02*
X7317Y7195D01*
X851Y163D02*
X7317Y6629D01*
X596Y191D02*
X7317Y6912D01*
X183Y626D02*
X7317Y7761D01*
X273Y434D02*
X7317Y7478D01*
X273Y434D02*
X7317Y7478D01*
X163Y4001D02*
X7317Y11155D01*
X163Y11414D02*
X7317Y4260D01*
X163Y4849D02*
X7317Y12003D01*
X163Y4284D02*
X7317Y11438D01*
X163Y4566D02*
X7317Y11720D01*
X163Y2869D02*
X7317Y10023D01*
X163Y2586D02*
X7317Y9741D01*
X163Y3718D02*
X7317Y10872D01*
X163Y3152D02*
X7317Y10306D01*
X163Y3435D02*
X7317Y10589D01*
X163Y6546D02*
X6297Y12680D01*
X163Y7678D02*
X4759Y12273D01*
X163Y7395D02*
X5872Y13104D01*
X163Y6829D02*
X6155Y12821D01*
X163Y7112D02*
X6014Y12963D01*
X163Y5981D02*
X6531Y12349D01*
X163Y5132D02*
X7317Y12286D01*
X163Y5698D02*
X6742Y12277D01*
X163Y5415D02*
X7317Y12569D01*
X163Y12545D02*
X7317Y5391D01*
X163Y6263D02*
X6438Y12538D01*
X163Y10283D02*
X7317Y3129D01*
X163Y10000D02*
X7317Y2846D01*
X700Y12291D02*
X7317Y5674D01*
X938Y12336D02*
X7317Y5957D01*
X1030Y12527D02*
X7317Y6240D01*
X163Y11131D02*
X7317Y3977D01*
X163Y10566D02*
X7317Y3411D01*
X163Y10848D02*
X7317Y3694D01*
X163Y12263D02*
X7317Y5109D01*
X163Y11697D02*
X7317Y4543D01*
X163Y11980D02*
X7317Y4826D01*
X2689Y12283D02*
X7317Y7654D01*
X2912Y12342D02*
X7317Y7937D01*
X1455Y12951D02*
X7317Y7088D01*
X1596Y13092D02*
X7317Y7371D01*
X3005Y12532D02*
X7317Y8220D01*
X1172Y12668D02*
X7317Y6523D01*
X1313Y12809D02*
X7317Y6806D01*
X3146Y12674D02*
X7317Y8503D01*
X3280Y12822D02*
X7317Y8785D01*
X3290Y13096D02*
X7317Y9068D01*
X3290Y13378D02*
X7317Y9351D01*
X163Y15657D02*
X1700Y14120D01*
X163Y13900D02*
X1700Y15437D01*
X163Y15940D02*
X1700Y14403D01*
X166Y16219D02*
X1700Y14685D01*
X233Y16435D02*
X1700Y14968D01*
X163Y15374D02*
X1700Y13837D01*
X1960Y14566D02*
X2850Y15456D01*
X163Y14183D02*
X2247Y16266D01*
X1960Y15557D02*
X2827Y14690D01*
X1960Y14849D02*
X2850Y15739D01*
X163Y16203D02*
X187Y16324D01*
X163Y16203D02*
X163Y16142D01*
X187Y16324D02*
X234Y16437D01*
X357Y16594D02*
X1700Y15251D01*
X234Y16437D02*
X302Y16540D01*
X1960Y15131D02*
X2850Y16021D01*
X1738Y15737D02*
X2246Y16245D01*
X1960Y15414D02*
X2794Y16248D01*
X1960Y15591D02*
X2423Y16054D01*
X1960Y14000D02*
X2850Y14890D01*
X1960Y13717D02*
X2584Y14341D01*
X1960Y15274D02*
X2637Y14597D01*
X1960Y14283D02*
X2850Y15173D01*
X1960Y14991D02*
X2566Y14386D01*
X2706Y14246D02*
X3030Y13921D01*
X2917Y14317D02*
X3030Y14204D01*
X2958Y14433D02*
X3030Y14504D01*
X2958Y14454D02*
X3030Y14526D01*
X2367Y15998D02*
X2850Y15515D01*
X2560Y16088D02*
X2850Y15798D01*
X2643Y16288D02*
X2850Y16081D01*
X2084Y15715D02*
X2850Y14950D01*
X2774Y14638D02*
X2850Y14714D01*
X2226Y15857D02*
X2850Y15233D01*
Y14714D02*
Y16168D01*
X302Y16540D02*
X389Y16627D01*
X525Y16709D02*
X1700Y15534D01*
X163Y15880D02*
X1098Y16815D01*
X751Y16766D02*
X1759Y15758D01*
X163Y16163D02*
X766Y16766D01*
X1006Y16793D02*
X1901Y15899D01*
X1219Y16863D02*
X2042Y16041D01*
X1399Y16967D02*
X2183Y16182D01*
X1549Y17099D02*
X2282Y16367D01*
X1672Y17259D02*
X2481Y16450D01*
X389Y16627D02*
X492Y16695D01*
X605Y16742D01*
X726Y16766D01*
X787D01*
X795Y16766D02*
X882Y16770D01*
X906Y16773D02*
X1076Y16807D01*
X1107Y16817D02*
X1267Y16883D01*
X1296Y16898D02*
X1440Y16995D01*
X1465Y17015D02*
X1588Y17138D01*
X1608Y17162D02*
X1704Y17307D01*
X1719Y17335D02*
X1786Y17495D01*
X1795Y17526D02*
X1829Y17696D01*
X1832Y17720D02*
X1836Y17807D01*
X1836Y17815D02*
X1836Y24550D01*
Y24616D01*
X1854Y24749D01*
X1766Y17448D02*
X2802Y16412D01*
X1824Y17673D02*
X2977Y16520D01*
X1836Y24342D02*
X3063Y25568D01*
X1838Y24626D02*
X2778Y25567D01*
X1854Y24749D02*
X1888Y24878D01*
X1939Y25001D01*
X2006Y25117D01*
X2087Y25222D01*
X2182Y25317D01*
X2288Y25398D01*
X1952Y25023D02*
X2381Y25452D01*
X2288Y25398D02*
X2403Y25465D01*
X2526Y25516D01*
X2655Y25550D01*
X2788Y25568D01*
X2854D01*
X163Y14466D02*
X5644Y19947D01*
X1836Y17943D02*
X4190Y15589D01*
X163Y15314D02*
X5728Y20879D01*
X163Y14749D02*
X5644Y20230D01*
X163Y15032D02*
X5648Y20517D01*
X1836Y20206D02*
X7317Y14725D01*
X1836Y19923D02*
X7317Y14442D01*
X1836Y21055D02*
X7317Y15574D01*
X1836Y20489D02*
X7317Y15008D01*
X1836Y20772D02*
X7317Y15291D01*
X1836Y18509D02*
X4166Y16179D01*
X1836Y18226D02*
X4190Y15872D01*
X1836Y19357D02*
X4854Y16340D01*
X1836Y18792D02*
X4300Y16328D01*
X1836Y19075D02*
X4412Y16499D01*
X1836Y19640D02*
X5024Y16453D01*
X1836Y21337D02*
X5706Y17468D01*
X1836Y21620D02*
X5645Y17812D01*
X1836Y22469D02*
X5644Y18661D01*
X1836Y21903D02*
X5644Y18095D01*
X1836Y22186D02*
X5644Y18378D01*
X3290Y15641D02*
X4190Y14741D01*
X3290Y14481D02*
X4190Y15382D01*
X3290Y15047D02*
X4156Y15913D01*
X3290Y14764D02*
X4190Y15665D01*
X3313Y15901D02*
X4190Y15024D01*
X3290Y13916D02*
X4190Y14816D01*
X3290Y14793D02*
X4190Y13892D01*
X3290Y15358D02*
X4190Y14458D01*
X3290Y15075D02*
X4190Y14175D01*
X3290Y14199D02*
X4190Y15099D01*
X2432Y16452D02*
X5644Y19664D01*
X3180Y16317D02*
X4190Y15306D01*
X3290Y15330D02*
X4301Y16341D01*
X3290Y15613D02*
X5644Y17967D01*
X3352Y15958D02*
X5644Y18250D01*
X3302Y16190D02*
X5644Y18532D01*
X2618Y16355D02*
X5644Y19381D01*
X3178Y16349D02*
X5644Y18815D01*
X3052Y16506D02*
X5644Y19098D01*
X1836Y23317D02*
X5644Y19510D01*
X1836Y23034D02*
X5644Y19227D01*
X1836Y19250D02*
X10368Y27782D01*
X1836Y18685D02*
X10368Y27217D01*
X1836Y18968D02*
X10368Y27500D01*
X163Y15597D02*
X10368Y25802D01*
X1788Y17505D02*
X10368Y26085D01*
X1836Y18402D02*
X10368Y26934D01*
X1836Y17836D02*
X10368Y26368D01*
X1836Y18119D02*
X10368Y26651D01*
X1836Y22079D02*
X5331Y25574D01*
X1836Y23600D02*
X5644Y19793D01*
X1836Y20947D02*
X10368Y29479D01*
X1836Y20665D02*
X10368Y29197D01*
X1836Y21796D02*
X5701Y25660D01*
X1836Y20099D02*
X10368Y28631D01*
X1836Y19533D02*
X10368Y28065D01*
X1836Y19816D02*
X10368Y28348D01*
X1836Y20382D02*
X10368Y28914D01*
X1836Y21230D02*
X10389Y29783D01*
X1836Y21513D02*
X10463Y30140D01*
X1836Y23883D02*
X5644Y20075D01*
X1836Y22752D02*
X5644Y18944D01*
X1836Y24449D02*
X5662Y20623D01*
X1836Y24166D02*
X5644Y20358D01*
X1850Y24718D02*
X5718Y20850D01*
X1913Y24938D02*
X5803Y21047D01*
X2011Y25123D02*
X5914Y21220D01*
X2141Y25276D02*
X6046Y21371D01*
X2296Y25403D02*
X6198Y21501D01*
X2484Y25498D02*
X6372Y21610D01*
X2708Y25557D02*
X6572Y21693D01*
X1836Y23210D02*
X4194Y25568D01*
X1836Y22927D02*
X4477Y25568D01*
X1836Y24059D02*
X3345Y25568D01*
X1836Y23493D02*
X3911Y25568D01*
X1836Y23776D02*
X3628Y25568D01*
X2980D02*
X6803Y21745D01*
X3546Y25568D02*
X7353Y21760D01*
X3263Y25568D02*
X7070Y21760D01*
X1836Y22644D02*
X4760Y25568D01*
X1836Y22362D02*
X5042Y25568D01*
X2854D02*
X5217D01*
X4228Y12780D02*
X4522Y12486D01*
X4190Y12872D02*
Y15880D01*
X4450Y12925D02*
Y14526D01*
Y12925D02*
X4706Y12669D01*
X4450Y13379D02*
X5520Y14449D01*
X4506Y12869D02*
X5520Y13883D01*
X4450Y13096D02*
X5520Y14166D01*
X4450Y14228D02*
X4553Y14331D01*
X4450Y13945D02*
X4746Y14240D01*
X4450Y14526D02*
X4522Y14454D01*
X4450Y14481D02*
X4524Y14407D01*
X4630Y14714D02*
X4706Y14638D01*
X4450Y13662D02*
X5520Y14732D01*
X4630Y14866D02*
X5520Y13976D01*
X4630Y14973D02*
X5384Y15727D01*
X4630Y15149D02*
X5520Y14259D01*
X4630Y15432D02*
X5520Y14542D01*
X4836Y12634D02*
X5590Y13387D01*
X4648Y12728D02*
X5520Y13600D01*
X4918Y12433D02*
X5731Y13245D01*
X6754Y163D02*
X6875Y187D01*
X4690Y14241D02*
X6493Y12438D01*
X5558Y13418D02*
X6491Y12486D01*
X5780Y13564D02*
X6675Y12669D01*
X4830Y14607D02*
X5520Y15298D01*
X4630Y15256D02*
X5243Y15868D01*
X4642Y14702D02*
X5520Y15580D01*
X4630Y15715D02*
X5520Y14825D01*
X4887Y14326D02*
X5520Y13694D01*
Y13510D02*
Y15591D01*
X4920Y14415D02*
X5520Y15015D01*
X5780Y13564D02*
Y15645D01*
X4630Y15539D02*
X5101Y16010D01*
X5057Y16054D02*
X5520Y15591D01*
X4630Y14714D02*
Y16168D01*
Y15822D02*
X4907Y16098D01*
X4630Y15998D02*
X5520Y15108D01*
X4680Y16231D02*
X5520Y15391D01*
X5234Y16245D02*
X5742Y15737D01*
X5568Y15911D02*
X6454Y16797D01*
X5426Y16052D02*
X6244Y16870D01*
X4630Y16105D02*
X4846Y16320D01*
X5644Y20416D02*
X5644Y17815D01*
X4967Y16441D02*
X5799Y17273D01*
X5285Y16194D02*
X6068Y16976D01*
X5189Y16380D02*
X5919Y17111D01*
X4479Y16519D02*
X5652Y17692D01*
X4669Y16427D02*
X5707Y17464D01*
X5644Y20421D02*
X5647Y20498D01*
X5893Y17138D02*
X6016Y17015D01*
X6040Y16995D02*
X6185Y16898D01*
X5651Y17696D02*
X5685Y17526D01*
X5776Y17307D02*
X5873Y17162D01*
X5695Y17495D02*
X5761Y17335D01*
X5709Y15769D02*
X6706Y16766D01*
X6693D02*
X6754D01*
X6213Y16883D02*
X6373Y16817D01*
X6598Y16770D02*
X6685Y16766D01*
X6404Y16807D02*
X6574Y16773D01*
X5644Y17807D02*
X5648Y17720D01*
X5648Y20514D02*
X5668Y20668D01*
X5672Y20689D02*
X5712Y20838D01*
X5719Y20858D02*
X5778Y21001D01*
X5788Y21020D02*
X5865Y21154D01*
X5877Y21171D02*
X5971Y21294D01*
X5985Y21310D02*
X6094Y21419D01*
X6110Y21433D02*
X6233Y21527D01*
X6250Y21539D02*
X6384Y21616D01*
X6403Y21626D02*
X6546Y21685D01*
X6566Y21692D02*
X6716Y21732D01*
X5094Y163D02*
X7317Y2387D01*
X5377Y163D02*
X7317Y2104D01*
X4245Y163D02*
X7317Y3235D01*
X4811Y163D02*
X7317Y2669D01*
X4528Y163D02*
X7317Y2952D01*
X5659Y163D02*
X7317Y1821D01*
X5942Y163D02*
X7317Y1538D01*
X3962Y163D02*
X7317Y3518D01*
X4676Y12275D02*
X7317Y9634D01*
X4883Y12351D02*
X7317Y9917D01*
X5780Y13999D02*
X7317Y12462D01*
X5780Y13716D02*
X7317Y12180D01*
X5780Y14848D02*
X7317Y13311D01*
X5780Y14282D02*
X7317Y12745D01*
X5780Y14565D02*
X7317Y13028D01*
X4450Y13632D02*
X7317Y10765D01*
X4450Y13067D02*
X7317Y10200D01*
X4450Y13349D02*
X7317Y10483D01*
X4450Y14198D02*
X7317Y11331D01*
X4450Y13915D02*
X7317Y11048D01*
X5915Y13429D02*
X7317Y14832D01*
X6875Y187D02*
X6989Y234D01*
X7091Y302D01*
X7178Y389D01*
X7246Y492D01*
X7293Y605D01*
X6800Y172D02*
X7308Y680D01*
X7293Y605D02*
X7317Y726D01*
X6225Y163D02*
X7317Y1255D01*
X6508Y163D02*
X7317Y972D01*
Y787D02*
X7317Y726D01*
X6622Y12722D02*
X7317Y13417D01*
X6883Y12418D02*
X7317Y12852D01*
X6812Y12629D02*
X7317Y13135D01*
X6481Y12864D02*
X7317Y13700D01*
X6659Y12273D02*
X7317Y11614D01*
X6856Y12358D02*
X7317Y11897D01*
X6056Y13288D02*
X7317Y14549D01*
X6339Y13005D02*
X7317Y13983D01*
X6198Y13146D02*
X7317Y14266D01*
X5755Y15722D02*
X7317Y14159D01*
X5780Y14426D02*
X7317Y15963D01*
X5780Y15275D02*
X7112Y16606D01*
X5780Y14709D02*
X7310Y16239D01*
X5780Y14992D02*
X7238Y16450D01*
X5780Y15131D02*
X7317Y13594D01*
X5780Y13578D02*
X7317Y15115D01*
X5780Y14143D02*
X7317Y15680D01*
X5780Y13860D02*
X7317Y15397D01*
X5780Y15414D02*
X7317Y13877D01*
X5780Y15558D02*
X6938Y16716D01*
X6690Y16767D02*
X7317Y16139D01*
X3829Y25568D02*
X7636Y21760D01*
X6346Y16828D02*
X7317Y15857D01*
X4111Y25568D02*
X7919Y21760D01*
X4677Y25568D02*
X8485Y21760D01*
X6525Y21676D02*
X10368Y25520D01*
X4960Y25568D02*
X8768Y21760D01*
X4394Y25568D02*
X8202Y21760D01*
X5496Y25598D02*
X9333Y21760D01*
X5242Y25568D02*
X9050Y21760D01*
X6989Y16695D02*
X7091Y16627D01*
X7178Y16540D01*
X6736Y21736D02*
X6890Y21756D01*
X6875Y16742D02*
X6989Y16695D01*
X6754Y16766D02*
X6875Y16742D01*
X7293Y16324D02*
X7317Y16203D01*
X7317Y787D02*
X7317Y16142D01*
X7317Y16142D02*
Y16203D01*
X6888Y21756D02*
X10368Y25237D01*
X7246Y16437D02*
X7293Y16324D01*
X7178Y16540D02*
X7246Y16437D01*
X6906Y21758D02*
X6983Y21760D01*
X9350Y21760D02*
X9417Y21760D01*
X6988Y21760D02*
X9350Y21760D01*
X9417Y21760D02*
X9549Y21778D01*
X8872Y21760D02*
X10368Y23257D01*
X8023Y21760D02*
X10368Y24105D01*
X8589Y21760D02*
X10368Y23540D01*
X8306Y21760D02*
X10368Y23823D01*
X7175Y21760D02*
X10368Y24954D01*
X7457Y21760D02*
X10368Y24671D01*
X7740Y21760D02*
X10368Y24388D01*
X5222Y25568D02*
X5299Y25570D01*
X5315Y25572D02*
X5468Y25592D01*
X5711Y25665D02*
X9588Y21788D01*
X5901Y25758D02*
X9798Y21861D01*
X6068Y25874D02*
X9971Y21971D01*
X6213Y26011D02*
X10118Y22107D01*
X6337Y26171D02*
X10234Y22273D01*
X6437Y26353D02*
X10321Y22469D01*
X6512Y26562D02*
X10368Y22706D01*
X6555Y26801D02*
X10368Y22988D01*
X5489Y25596D02*
X5638Y25636D01*
X5659Y25643D02*
X5801Y25702D01*
X5820Y25711D02*
X5954Y25789D01*
X5972Y25800D02*
X6095Y25895D01*
X6111Y25909D02*
X6220Y26018D01*
X6234Y26034D02*
X6328Y26156D01*
X6340Y26174D02*
X6417Y26308D01*
X6427Y26327D02*
X6486Y26470D01*
X6493Y26490D02*
X6533Y26639D01*
X6537Y26660D02*
X6557Y26813D01*
X6558Y26829D02*
X6561Y26907D01*
X9549Y21778D02*
X9678Y21812D01*
X9802Y21863D01*
X9917Y21930D01*
X10023Y22011D01*
X10117Y22105D01*
X9853Y21893D02*
X10236Y22276D01*
X10117Y22105D02*
X10199Y22211D01*
X9154Y21760D02*
X10368Y22974D01*
X9440Y21763D02*
X10365Y22688D01*
X10199Y22211D02*
X10265Y22327D01*
X10316Y22450D01*
X10351Y22579D01*
X6561Y29513D02*
X6561Y26912D01*
X6561Y27927D02*
X10368Y24119D01*
X6561Y28210D02*
X10368Y24402D01*
X6561Y27078D02*
X10368Y23271D01*
X10351Y22579D02*
X10368Y22711D01*
Y22778D01*
X6561Y28492D02*
X10368Y24685D01*
X6561Y27361D02*
X10368Y23553D01*
X6561Y27644D02*
X10368Y23836D01*
X4966Y32572D02*
X4991Y32362D01*
X5040Y32157D01*
X4966Y32677D02*
X4966Y36451D01*
X4966Y32572D02*
Y32677D01*
Y33128D02*
X8289Y36451D01*
X4966Y33198D02*
X10368Y27796D01*
X4966Y32915D02*
X10368Y27513D01*
X4966Y32845D02*
X8572Y36451D01*
X5002Y32315D02*
X9138Y36451D01*
X4967Y32564D02*
X8855Y36451D01*
X4966Y35391D02*
X6026Y36451D01*
X4966Y35108D02*
X6309Y36451D01*
X4966Y36240D02*
X5178Y36451D01*
X4966Y35674D02*
X5743Y36451D01*
X4966Y35957D02*
X5461Y36451D01*
X4966Y33977D02*
X7440Y36451D01*
X4966Y33411D02*
X8006Y36451D01*
X4966Y33694D02*
X7723Y36451D01*
X4966Y34543D02*
X6875Y36451D01*
X4966Y34260D02*
X7158Y36451D01*
X4966Y34825D02*
X6592Y36451D01*
X6278Y30573D02*
X6381Y30368D01*
X6389Y30351D02*
X6468Y30135D01*
X5802Y31143D02*
X5970Y30986D01*
X6142Y30781D02*
X6269Y30590D01*
X5983Y30972D02*
X6131Y30796D01*
X6530Y29875D02*
X6556Y29647D01*
X6558Y29627D02*
X10368Y25816D01*
X6557Y29632D02*
X6561Y29518D01*
X6381Y30369D02*
X10368Y26382D01*
X6511Y29956D02*
X10368Y26099D01*
X6473Y30117D02*
X6526Y29893D01*
X5323Y31595D02*
X5459Y31433D01*
X5613Y31289D01*
X5040Y32157D02*
X5112Y31959D01*
X5207Y31771D02*
X5323Y31595D01*
X5112Y31959D02*
X5207Y31771D01*
X5364Y31546D02*
X10269Y36451D01*
X5701Y31223D02*
X5792Y31152D01*
X5613Y31289D02*
X5697Y31226D01*
X5063Y32093D02*
X9420Y36451D01*
X5246Y31711D02*
X9986Y36451D01*
X5145Y31893D02*
X9703Y36451D01*
X6561Y29341D02*
X10368Y25533D01*
X6561Y29058D02*
X10368Y25250D01*
X4966Y32632D02*
X10368Y27230D01*
X5150Y31883D02*
X10368Y26665D01*
X5002Y32313D02*
X10368Y26948D01*
X6468Y26428D02*
X10720Y30680D01*
X6561Y28775D02*
X10368Y24968D01*
X6555Y26797D02*
X11875Y32118D01*
X6561Y27652D02*
X11963Y33054D01*
X6561Y27935D02*
X11963Y33337D01*
X4966Y34047D02*
X10368Y28645D01*
X4966Y33764D02*
X10368Y28362D01*
X4966Y34330D02*
X10368Y28927D01*
X4966Y34612D02*
X10368Y29210D01*
X4966Y34895D02*
X10368Y29493D01*
X4966Y33481D02*
X10368Y28079D01*
X6561Y28217D02*
X11963Y33619D01*
X6561Y28500D02*
X11963Y33902D01*
X6561Y29349D02*
X11963Y34751D01*
X6561Y28783D02*
X11963Y34185D01*
X6561Y29066D02*
X11963Y34468D01*
X10368Y22778D02*
X10368Y29513D01*
X10368Y29518D02*
X10372Y29632D01*
X10373Y29647D02*
X10400Y29875D01*
X10403Y29893D02*
X10456Y30117D01*
X10461Y30135D02*
X10540Y30351D01*
X10548Y30368D02*
X10651Y30573D01*
X10661Y30590D02*
X10787Y30781D01*
X6561Y27369D02*
X11963Y32771D01*
X6561Y27086D02*
X11952Y32477D01*
X10798Y30796D02*
X10946Y30972D01*
X10959Y30986D02*
X11127Y31143D01*
X11138Y31152D02*
X11228Y31223D01*
X11232Y31226D02*
X11316Y31289D01*
X11470Y31433D01*
X11606Y31595D01*
X11722Y31771D01*
X11817Y31959D01*
X11890Y32157D01*
X11938Y32362D01*
X11963Y32572D01*
X11963Y32677D02*
X11963Y32572D01*
X4966Y35461D02*
X10428Y29999D01*
X4966Y35178D02*
X10386Y29758D01*
X4966Y36309D02*
X10671Y30605D01*
X4966Y35744D02*
X10492Y30218D01*
X4966Y36027D02*
X10574Y30419D01*
X6400Y30320D02*
X11963Y35882D01*
X6475Y30111D02*
X11963Y35599D01*
X5107Y36451D02*
X10783Y30775D01*
X6309Y30511D02*
X11963Y36165D01*
X6203Y30688D02*
X11963Y36448D01*
X5647Y31263D02*
X10835Y36451D01*
X5806Y31140D02*
X11117Y36451D01*
X5390Y36451D02*
X10911Y30930D01*
X5673Y36451D02*
X11052Y31072D01*
X5498Y31397D02*
X10552Y36451D01*
X4966Y36451D02*
X11963Y36451D01*
X6084Y30852D02*
X11683Y36451D01*
X5952Y31003D02*
X11400Y36451D01*
X5956Y36451D02*
X11203Y31204D01*
X6239Y36451D02*
X11360Y31330D01*
X6522Y36451D02*
X11502Y31471D01*
X7653Y36451D02*
X11901Y32204D01*
X7936Y36451D02*
X11947Y32440D01*
X6805Y36451D02*
X11628Y31628D01*
X7087Y36451D02*
X11738Y31801D01*
X7370Y36451D02*
X11829Y31992D01*
X6527Y29881D02*
X11963Y35317D01*
X6557Y29628D02*
X11963Y35034D01*
X11963Y32677D02*
X11963Y36451D01*
X8219Y36451D02*
X11963Y32707D01*
X8502Y36451D02*
X11963Y32990D01*
X8784Y36451D02*
X11963Y33273D01*
X9916Y36451D02*
X11963Y34404D01*
X10199Y36451D02*
X11963Y34687D01*
X9067Y36451D02*
X11963Y33555D01*
X10482Y36451D02*
X11963Y34970D01*
X10764Y36451D02*
X11963Y35253D01*
X11047Y36451D02*
X11963Y35535D01*
X11330Y36451D02*
X11963Y35818D01*
X11613Y36451D02*
X11963Y36101D01*
X9350Y36451D02*
X11963Y33838D01*
X9633Y36451D02*
X11963Y34121D01*
X11896Y36451D02*
X11963Y36384D01*
M02*
