G04*
G04 #@! TF.GenerationSoftware,Altium Limited,Altium Designer,25.5.2 (35)*
G04*
G04 Layer_Physical_Order=1*
G04 Layer_Color=255*
%FSLAX24Y24*%
%MOIN*%
G70*
G04*
G04 #@! TF.SameCoordinates,7914919B-8841-43C1-8237-0FAEFC545874*
G04*
G04*
G04 #@! TF.FilePolarity,Positive*
G04*
G01*
G75*
%ADD10R,0.0138X0.0984*%
%ADD12C,0.0180*%
%ADD14C,0.0079*%
%ADD15C,0.0040*%
G36*
X11946Y35631D02*
X11942Y35630D01*
X11939Y35628D01*
X11937Y35625D01*
X11934Y35621D01*
X11933Y35617D01*
X11931Y35612D01*
X11930Y35606D01*
X11930Y35599D01*
X11929Y35591D01*
X11889D01*
X11889Y35599D01*
X11889Y35606D01*
X11888Y35612D01*
X11886Y35617D01*
X11884Y35621D01*
X11882Y35625D01*
X11880Y35628D01*
X11877Y35630D01*
X11873Y35631D01*
X11869Y35631D01*
X11949D01*
X11946Y35631D01*
D02*
G37*
G36*
X11749D02*
X11745Y35630D01*
X11742Y35628D01*
X11740Y35625D01*
X11738Y35621D01*
X11736Y35617D01*
X11734Y35612D01*
X11733Y35606D01*
X11733Y35599D01*
X11733Y35591D01*
X11693D01*
X11692Y35599D01*
X11692Y35606D01*
X11691Y35612D01*
X11689Y35617D01*
X11688Y35621D01*
X11685Y35625D01*
X11683Y35628D01*
X11680Y35630D01*
X11676Y35631D01*
X11673Y35631D01*
X11753D01*
X11749Y35631D01*
D02*
G37*
G36*
X11552D02*
X11549Y35630D01*
X11546Y35628D01*
X11543Y35625D01*
X11541Y35621D01*
X11539Y35617D01*
X11538Y35612D01*
X11537Y35606D01*
X11536Y35599D01*
X11536Y35591D01*
X11496D01*
X11496Y35599D01*
X11495Y35606D01*
X11494Y35612D01*
X11493Y35617D01*
X11491Y35621D01*
X11489Y35625D01*
X11486Y35628D01*
X11483Y35630D01*
X11480Y35631D01*
X11476Y35631D01*
X11556D01*
X11552Y35631D01*
D02*
G37*
G36*
X11355D02*
X11352Y35630D01*
X11349Y35628D01*
X11346Y35625D01*
X11344Y35621D01*
X11342Y35617D01*
X11341Y35612D01*
X11340Y35606D01*
X11339Y35599D01*
X11339Y35591D01*
X11299D01*
X11299Y35599D01*
X11298Y35606D01*
X11297Y35612D01*
X11296Y35617D01*
X11294Y35621D01*
X11292Y35625D01*
X11289Y35628D01*
X11286Y35630D01*
X11283Y35631D01*
X11279Y35631D01*
X11359D01*
X11355Y35631D01*
D02*
G37*
G36*
X11158D02*
X11155Y35630D01*
X11152Y35628D01*
X11149Y35625D01*
X11147Y35621D01*
X11145Y35617D01*
X11144Y35612D01*
X11143Y35606D01*
X11142Y35599D01*
X11142Y35591D01*
X11102D01*
X11102Y35599D01*
X11101Y35606D01*
X11100Y35612D01*
X11099Y35617D01*
X11097Y35621D01*
X11095Y35625D01*
X11092Y35628D01*
X11089Y35630D01*
X11086Y35631D01*
X11082Y35631D01*
X11162D01*
X11158Y35631D01*
D02*
G37*
G36*
X10961D02*
X10958Y35630D01*
X10955Y35628D01*
X10952Y35625D01*
X10950Y35621D01*
X10948Y35617D01*
X10947Y35612D01*
X10946Y35606D01*
X10945Y35599D01*
X10945Y35591D01*
X10905D01*
X10905Y35599D01*
X10904Y35606D01*
X10903Y35612D01*
X10902Y35617D01*
X10900Y35621D01*
X10898Y35625D01*
X10895Y35628D01*
X10892Y35630D01*
X10889Y35631D01*
X10885Y35631D01*
X10965D01*
X10961Y35631D01*
D02*
G37*
G36*
X10765D02*
X10761Y35630D01*
X10758Y35628D01*
X10756Y35625D01*
X10753Y35621D01*
X10752Y35617D01*
X10750Y35612D01*
X10749Y35606D01*
X10749Y35599D01*
X10748Y35591D01*
X10708D01*
X10708Y35599D01*
X10708Y35606D01*
X10707Y35612D01*
X10705Y35617D01*
X10703Y35621D01*
X10701Y35625D01*
X10699Y35628D01*
X10696Y35630D01*
X10692Y35631D01*
X10688Y35631D01*
X10768D01*
X10765Y35631D01*
D02*
G37*
G36*
X10568D02*
X10564Y35630D01*
X10561Y35628D01*
X10559Y35625D01*
X10556Y35621D01*
X10555Y35617D01*
X10553Y35612D01*
X10552Y35606D01*
X10552Y35599D01*
X10552Y35591D01*
X10511D01*
X10511Y35599D01*
X10511Y35606D01*
X10510Y35612D01*
X10508Y35617D01*
X10507Y35621D01*
X10504Y35625D01*
X10502Y35628D01*
X10499Y35630D01*
X10495Y35631D01*
X10491Y35631D01*
X10572D01*
X10568Y35631D01*
D02*
G37*
G36*
X10376D02*
X10373Y35630D01*
X10370Y35628D01*
X10367Y35625D01*
X10365Y35621D01*
X10363Y35617D01*
X10362Y35612D01*
X10361Y35606D01*
X10360Y35599D01*
X10360Y35591D01*
X10320D01*
X10320Y35599D01*
X10319Y35606D01*
X10318Y35612D01*
X10317Y35617D01*
X10315Y35621D01*
X10313Y35625D01*
X10310Y35628D01*
X10307Y35630D01*
X10304Y35631D01*
X10300Y35631D01*
X10380D01*
X10376Y35631D01*
D02*
G37*
G36*
X10174D02*
X10171Y35630D01*
X10168Y35628D01*
X10165Y35625D01*
X10163Y35621D01*
X10161Y35617D01*
X10160Y35612D01*
X10159Y35606D01*
X10158Y35599D01*
X10158Y35591D01*
X10118D01*
X10118Y35599D01*
X10117Y35606D01*
X10116Y35612D01*
X10115Y35617D01*
X10113Y35621D01*
X10111Y35625D01*
X10108Y35628D01*
X10105Y35630D01*
X10102Y35631D01*
X10098Y35631D01*
X10178D01*
X10174Y35631D01*
D02*
G37*
G36*
X9977D02*
X9974Y35630D01*
X9971Y35628D01*
X9968Y35625D01*
X9966Y35621D01*
X9964Y35617D01*
X9963Y35612D01*
X9962Y35606D01*
X9961Y35599D01*
X9961Y35591D01*
X9921D01*
X9921Y35599D01*
X9920Y35606D01*
X9919Y35612D01*
X9918Y35617D01*
X9916Y35621D01*
X9914Y35625D01*
X9911Y35628D01*
X9908Y35630D01*
X9905Y35631D01*
X9901Y35631D01*
X9981D01*
X9977Y35631D01*
D02*
G37*
G36*
X9780D02*
X9777Y35630D01*
X9774Y35628D01*
X9771Y35625D01*
X9769Y35621D01*
X9767Y35617D01*
X9766Y35612D01*
X9765Y35606D01*
X9764Y35599D01*
X9764Y35591D01*
X9724D01*
X9724Y35599D01*
X9723Y35606D01*
X9722Y35612D01*
X9721Y35617D01*
X9719Y35621D01*
X9717Y35625D01*
X9714Y35628D01*
X9711Y35630D01*
X9708Y35631D01*
X9704Y35631D01*
X9784D01*
X9780Y35631D01*
D02*
G37*
G36*
X9583D02*
X9580Y35630D01*
X9577Y35628D01*
X9574Y35625D01*
X9572Y35621D01*
X9570Y35617D01*
X9569Y35612D01*
X9568Y35606D01*
X9567Y35599D01*
X9567Y35591D01*
X9527D01*
X9527Y35599D01*
X9526Y35606D01*
X9525Y35612D01*
X9524Y35617D01*
X9522Y35621D01*
X9520Y35625D01*
X9517Y35628D01*
X9514Y35630D01*
X9511Y35631D01*
X9507Y35631D01*
X9587D01*
X9583Y35631D01*
D02*
G37*
G36*
X9387D02*
X9383Y35630D01*
X9380Y35628D01*
X9378Y35625D01*
X9375Y35621D01*
X9374Y35617D01*
X9372Y35612D01*
X9371Y35606D01*
X9371Y35599D01*
X9370Y35591D01*
X9330D01*
X9330Y35599D01*
X9330Y35606D01*
X9329Y35612D01*
X9327Y35617D01*
X9325Y35621D01*
X9323Y35625D01*
X9321Y35628D01*
X9318Y35630D01*
X9314Y35631D01*
X9310Y35631D01*
X9390D01*
X9387Y35631D01*
D02*
G37*
G36*
X9190D02*
X9186Y35630D01*
X9183Y35628D01*
X9181Y35625D01*
X9179Y35621D01*
X9177Y35617D01*
X9175Y35612D01*
X9174Y35606D01*
X9174Y35599D01*
X9174Y35591D01*
X9134D01*
X9133Y35599D01*
X9133Y35606D01*
X9132Y35612D01*
X9130Y35617D01*
X9129Y35621D01*
X9126Y35625D01*
X9124Y35628D01*
X9121Y35630D01*
X9117Y35631D01*
X9114Y35631D01*
X9194D01*
X9190Y35631D01*
D02*
G37*
G36*
X8993D02*
X8989Y35630D01*
X8986Y35628D01*
X8984Y35625D01*
X8982Y35621D01*
X8980Y35617D01*
X8978Y35612D01*
X8977Y35606D01*
X8977Y35599D01*
X8977Y35591D01*
X8937D01*
X8936Y35599D01*
X8936Y35606D01*
X8935Y35612D01*
X8933Y35617D01*
X8932Y35621D01*
X8929Y35625D01*
X8927Y35628D01*
X8924Y35630D01*
X8920Y35631D01*
X8917Y35631D01*
X8997D01*
X8993Y35631D01*
D02*
G37*
G36*
X8796D02*
X8793Y35630D01*
X8790Y35628D01*
X8787Y35625D01*
X8785Y35621D01*
X8783Y35617D01*
X8782Y35612D01*
X8781Y35606D01*
X8780Y35599D01*
X8780Y35591D01*
X8740D01*
X8740Y35599D01*
X8739Y35606D01*
X8738Y35612D01*
X8737Y35617D01*
X8735Y35621D01*
X8733Y35625D01*
X8730Y35628D01*
X8727Y35630D01*
X8724Y35631D01*
X8720Y35631D01*
X8800D01*
X8796Y35631D01*
D02*
G37*
G36*
X8596D02*
X8593Y35630D01*
X8590Y35628D01*
X8587Y35625D01*
X8585Y35621D01*
X8583Y35617D01*
X8582Y35612D01*
X8581Y35606D01*
X8580Y35599D01*
X8580Y35591D01*
X8540D01*
X8540Y35599D01*
X8539Y35606D01*
X8538Y35612D01*
X8537Y35617D01*
X8535Y35621D01*
X8533Y35625D01*
X8530Y35628D01*
X8527Y35630D01*
X8524Y35631D01*
X8520Y35631D01*
X8600D01*
X8596Y35631D01*
D02*
G37*
G36*
X8402D02*
X8399Y35630D01*
X8396Y35628D01*
X8393Y35625D01*
X8391Y35621D01*
X8389Y35617D01*
X8388Y35612D01*
X8387Y35606D01*
X8386Y35599D01*
X8386Y35591D01*
X8346D01*
X8346Y35599D01*
X8345Y35606D01*
X8344Y35612D01*
X8343Y35617D01*
X8341Y35621D01*
X8339Y35625D01*
X8336Y35628D01*
X8333Y35630D01*
X8330Y35631D01*
X8326Y35631D01*
X8406D01*
X8402Y35631D01*
D02*
G37*
G36*
X8205D02*
X8202Y35630D01*
X8199Y35628D01*
X8196Y35625D01*
X8194Y35621D01*
X8192Y35617D01*
X8191Y35612D01*
X8190Y35606D01*
X8189Y35599D01*
X8189Y35591D01*
X8149D01*
X8149Y35599D01*
X8148Y35606D01*
X8147Y35612D01*
X8146Y35617D01*
X8144Y35621D01*
X8142Y35625D01*
X8139Y35628D01*
X8136Y35630D01*
X8133Y35631D01*
X8129Y35631D01*
X8209D01*
X8205Y35631D01*
D02*
G37*
G36*
X8009D02*
X8005Y35630D01*
X8002Y35628D01*
X8000Y35625D01*
X7997Y35621D01*
X7996Y35617D01*
X7994Y35612D01*
X7993Y35606D01*
X7993Y35599D01*
X7992Y35591D01*
X7952D01*
X7952Y35599D01*
X7952Y35606D01*
X7951Y35612D01*
X7949Y35617D01*
X7947Y35621D01*
X7945Y35625D01*
X7943Y35628D01*
X7940Y35630D01*
X7936Y35631D01*
X7932Y35631D01*
X8012D01*
X8009Y35631D01*
D02*
G37*
G36*
X7812D02*
X7808Y35630D01*
X7805Y35628D01*
X7803Y35625D01*
X7801Y35621D01*
X7799Y35617D01*
X7797Y35612D01*
X7796Y35606D01*
X7796Y35599D01*
X7796Y35591D01*
X7756D01*
X7755Y35599D01*
X7755Y35606D01*
X7754Y35612D01*
X7752Y35617D01*
X7751Y35621D01*
X7748Y35625D01*
X7746Y35628D01*
X7743Y35630D01*
X7739Y35631D01*
X7736Y35631D01*
X7816D01*
X7812Y35631D01*
D02*
G37*
G36*
X7615D02*
X7612Y35630D01*
X7609Y35628D01*
X7606Y35625D01*
X7604Y35621D01*
X7602Y35617D01*
X7601Y35612D01*
X7600Y35606D01*
X7599Y35599D01*
X7599Y35591D01*
X7559D01*
X7559Y35599D01*
X7558Y35606D01*
X7557Y35612D01*
X7556Y35617D01*
X7554Y35621D01*
X7552Y35625D01*
X7549Y35628D01*
X7546Y35630D01*
X7543Y35631D01*
X7539Y35631D01*
X7619D01*
X7615Y35631D01*
D02*
G37*
G36*
X7418D02*
X7415Y35630D01*
X7412Y35628D01*
X7409Y35625D01*
X7407Y35621D01*
X7405Y35617D01*
X7404Y35612D01*
X7403Y35606D01*
X7402Y35599D01*
X7402Y35591D01*
X7362D01*
X7362Y35599D01*
X7361Y35606D01*
X7360Y35612D01*
X7359Y35617D01*
X7357Y35621D01*
X7355Y35625D01*
X7352Y35628D01*
X7349Y35630D01*
X7346Y35631D01*
X7342Y35631D01*
X7422D01*
X7418Y35631D01*
D02*
G37*
G36*
X7221D02*
X7218Y35630D01*
X7215Y35628D01*
X7212Y35625D01*
X7210Y35621D01*
X7208Y35617D01*
X7207Y35612D01*
X7206Y35606D01*
X7205Y35599D01*
X7205Y35591D01*
X7165D01*
X7165Y35599D01*
X7164Y35606D01*
X7163Y35612D01*
X7162Y35617D01*
X7160Y35621D01*
X7158Y35625D01*
X7155Y35628D01*
X7152Y35630D01*
X7149Y35631D01*
X7145Y35631D01*
X7225D01*
X7221Y35631D01*
D02*
G37*
G36*
X7024D02*
X7021Y35630D01*
X7018Y35628D01*
X7015Y35625D01*
X7013Y35621D01*
X7011Y35617D01*
X7010Y35612D01*
X7009Y35606D01*
X7008Y35599D01*
X7008Y35591D01*
X6968D01*
X6968Y35599D01*
X6967Y35606D01*
X6966Y35612D01*
X6965Y35617D01*
X6963Y35621D01*
X6961Y35625D01*
X6958Y35628D01*
X6955Y35630D01*
X6952Y35631D01*
X6948Y35631D01*
X7028D01*
X7024Y35631D01*
D02*
G37*
G36*
X6828D02*
X6824Y35630D01*
X6821Y35628D01*
X6819Y35625D01*
X6816Y35621D01*
X6815Y35617D01*
X6813Y35612D01*
X6812Y35606D01*
X6812Y35599D01*
X6811Y35591D01*
X6771D01*
X6771Y35599D01*
X6771Y35606D01*
X6770Y35612D01*
X6768Y35617D01*
X6766Y35621D01*
X6764Y35625D01*
X6762Y35628D01*
X6759Y35630D01*
X6755Y35631D01*
X6751Y35631D01*
X6831D01*
X6828Y35631D01*
D02*
G37*
G36*
X6636D02*
X6633Y35630D01*
X6630Y35628D01*
X6627Y35625D01*
X6625Y35621D01*
X6623Y35617D01*
X6622Y35612D01*
X6621Y35606D01*
X6620Y35599D01*
X6620Y35591D01*
X6580D01*
X6580Y35599D01*
X6579Y35606D01*
X6578Y35612D01*
X6577Y35617D01*
X6575Y35621D01*
X6573Y35625D01*
X6570Y35628D01*
X6567Y35630D01*
X6564Y35631D01*
X6560Y35631D01*
X6640D01*
X6636Y35631D01*
D02*
G37*
G36*
X6434D02*
X6430Y35630D01*
X6427Y35628D01*
X6425Y35625D01*
X6423Y35621D01*
X6421Y35617D01*
X6419Y35612D01*
X6418Y35606D01*
X6418Y35599D01*
X6418Y35591D01*
X6378D01*
X6377Y35599D01*
X6377Y35606D01*
X6376Y35612D01*
X6374Y35617D01*
X6373Y35621D01*
X6370Y35625D01*
X6368Y35628D01*
X6365Y35630D01*
X6361Y35631D01*
X6358Y35631D01*
X6438D01*
X6434Y35631D01*
D02*
G37*
G36*
X6237D02*
X6234Y35630D01*
X6231Y35628D01*
X6228Y35625D01*
X6226Y35621D01*
X6224Y35617D01*
X6223Y35612D01*
X6222Y35606D01*
X6221Y35599D01*
X6221Y35591D01*
X6181D01*
X6181Y35599D01*
X6180Y35606D01*
X6179Y35612D01*
X6178Y35617D01*
X6176Y35621D01*
X6174Y35625D01*
X6171Y35628D01*
X6168Y35630D01*
X6165Y35631D01*
X6161Y35631D01*
X6241D01*
X6237Y35631D01*
D02*
G37*
G36*
X6040D02*
X6037Y35630D01*
X6034Y35628D01*
X6031Y35625D01*
X6029Y35621D01*
X6027Y35617D01*
X6026Y35612D01*
X6025Y35606D01*
X6024Y35599D01*
X6024Y35591D01*
X5984D01*
X5984Y35599D01*
X5983Y35606D01*
X5982Y35612D01*
X5981Y35617D01*
X5979Y35621D01*
X5977Y35625D01*
X5974Y35628D01*
X5971Y35630D01*
X5968Y35631D01*
X5964Y35631D01*
X6044D01*
X6040Y35631D01*
D02*
G37*
G36*
X5843D02*
X5840Y35630D01*
X5837Y35628D01*
X5834Y35625D01*
X5832Y35621D01*
X5830Y35617D01*
X5829Y35612D01*
X5828Y35606D01*
X5827Y35599D01*
X5827Y35591D01*
X5787D01*
X5787Y35599D01*
X5786Y35606D01*
X5785Y35612D01*
X5784Y35617D01*
X5782Y35621D01*
X5780Y35625D01*
X5777Y35628D01*
X5774Y35630D01*
X5771Y35631D01*
X5767Y35631D01*
X5847D01*
X5843Y35631D01*
D02*
G37*
G36*
X5646D02*
X5643Y35630D01*
X5640Y35628D01*
X5637Y35625D01*
X5635Y35621D01*
X5633Y35617D01*
X5632Y35612D01*
X5631Y35606D01*
X5630Y35599D01*
X5630Y35591D01*
X5590D01*
X5590Y35599D01*
X5589Y35606D01*
X5588Y35612D01*
X5587Y35617D01*
X5585Y35621D01*
X5583Y35625D01*
X5580Y35628D01*
X5577Y35630D01*
X5574Y35631D01*
X5570Y35631D01*
X5650D01*
X5646Y35631D01*
D02*
G37*
G36*
X5450D02*
X5446Y35630D01*
X5443Y35628D01*
X5441Y35625D01*
X5438Y35621D01*
X5437Y35617D01*
X5435Y35612D01*
X5434Y35606D01*
X5434Y35599D01*
X5433Y35591D01*
X5393D01*
X5393Y35599D01*
X5393Y35606D01*
X5392Y35612D01*
X5390Y35617D01*
X5388Y35621D01*
X5386Y35625D01*
X5384Y35628D01*
X5381Y35630D01*
X5377Y35631D01*
X5373Y35631D01*
X5453D01*
X5450Y35631D01*
D02*
G37*
G36*
X5253D02*
X5249Y35630D01*
X5246Y35628D01*
X5244Y35625D01*
X5242Y35621D01*
X5240Y35617D01*
X5238Y35612D01*
X5237Y35606D01*
X5237Y35599D01*
X5237Y35591D01*
X5197D01*
X5196Y35599D01*
X5196Y35606D01*
X5195Y35612D01*
X5193Y35617D01*
X5192Y35621D01*
X5189Y35625D01*
X5187Y35628D01*
X5184Y35630D01*
X5180Y35631D01*
X5177Y35631D01*
X5257D01*
X5253Y35631D01*
D02*
G37*
G36*
X5056D02*
X5052Y35630D01*
X5049Y35628D01*
X5047Y35625D01*
X5045Y35621D01*
X5043Y35617D01*
X5041Y35612D01*
X5040Y35606D01*
X5040Y35599D01*
X5040Y35591D01*
X5000D01*
X4999Y35599D01*
X4999Y35606D01*
X4998Y35612D01*
X4996Y35617D01*
X4995Y35621D01*
X4992Y35625D01*
X4990Y35628D01*
X4987Y35630D01*
X4983Y35631D01*
X4980Y35631D01*
X5060D01*
X5056Y35631D01*
D02*
G37*
G36*
X8387Y33035D02*
X8388Y33027D01*
X8390Y33020D01*
X8393Y33012D01*
X8397Y33005D01*
X8402Y32997D01*
X8407Y32989D01*
X8414Y32981D01*
X8421Y32973D01*
X8429Y32964D01*
X8303D01*
X8311Y32973D01*
X8325Y32989D01*
X8331Y32997D01*
X8335Y33005D01*
X8339Y33012D01*
X8342Y33020D01*
X8344Y33027D01*
X8346Y33035D01*
X8346Y33042D01*
X8386D01*
X8387Y33035D01*
D02*
G37*
G36*
X6620Y32915D02*
X6622Y32907D01*
X6624Y32900D01*
X6627Y32892D01*
X6631Y32885D01*
X6635Y32877D01*
X6641Y32869D01*
X6648Y32861D01*
X6655Y32853D01*
X6663Y32844D01*
X6537D01*
X6545Y32853D01*
X6559Y32869D01*
X6565Y32877D01*
X6569Y32885D01*
X6573Y32892D01*
X6576Y32900D01*
X6578Y32907D01*
X6580Y32915D01*
X6580Y32922D01*
X6620D01*
X6620Y32915D01*
D02*
G37*
G36*
X10360Y32755D02*
X10362Y32747D01*
X10364Y32740D01*
X10367Y32732D01*
X10371Y32725D01*
X10375Y32717D01*
X10381Y32709D01*
X10388Y32701D01*
X10395Y32693D01*
X10403Y32684D01*
X10277D01*
X10285Y32693D01*
X10299Y32709D01*
X10305Y32717D01*
X10309Y32725D01*
X10313Y32732D01*
X10316Y32740D01*
X10318Y32747D01*
X10320Y32755D01*
X10320Y32762D01*
X10360D01*
X10360Y32755D01*
D02*
G37*
G36*
X8580Y32615D02*
X8582Y32607D01*
X8584Y32600D01*
X8587Y32592D01*
X8591Y32585D01*
X8595Y32577D01*
X8601Y32569D01*
X8608Y32561D01*
X8615Y32553D01*
X8623Y32544D01*
X8497D01*
X8505Y32553D01*
X8519Y32569D01*
X8525Y32577D01*
X8529Y32585D01*
X8533Y32592D01*
X8536Y32600D01*
X8538Y32607D01*
X8540Y32615D01*
X8540Y32622D01*
X8580D01*
X8580Y32615D01*
D02*
G37*
G36*
X3105Y16381D02*
X3101Y16377D01*
X3097Y16371D01*
X3093Y16365D01*
X3089Y16358D01*
X3082Y16341D01*
X3078Y16331D01*
X3067Y16295D01*
X3006Y16406D01*
X3016Y16403D01*
X3026Y16401D01*
X3035Y16401D01*
X3044Y16400D01*
X3052Y16401D01*
X3060Y16403D01*
X3067Y16405D01*
X3074Y16409D01*
X3080Y16413D01*
X3086Y16418D01*
X3105Y16381D01*
D02*
G37*
G36*
X4420Y16430D02*
X4426Y16425D01*
X4432Y16422D01*
X4440Y16418D01*
X4448Y16416D01*
X4457Y16414D01*
X4466Y16412D01*
X4477Y16411D01*
X4488Y16410D01*
X4499Y16410D01*
X4410Y16321D01*
X4410Y16333D01*
X4408Y16354D01*
X4407Y16363D01*
X4405Y16372D01*
X4402Y16380D01*
X4399Y16388D01*
X4395Y16395D01*
X4391Y16401D01*
X4386Y16406D01*
X4414Y16434D01*
X4420Y16430D01*
D02*
G37*
G36*
X4953Y16362D02*
X4960Y16358D01*
X4966Y16355D01*
X4974Y16351D01*
X4982Y16349D01*
X4991Y16346D01*
X5000Y16345D01*
X5011Y16344D01*
X5022Y16343D01*
X5033Y16343D01*
X4944Y16254D01*
X4944Y16265D01*
X4942Y16287D01*
X4941Y16296D01*
X4938Y16305D01*
X4936Y16313D01*
X4933Y16321D01*
X4929Y16328D01*
X4925Y16334D01*
X4920Y16339D01*
X4948Y16367D01*
X4953Y16362D01*
D02*
G37*
G36*
X2560Y16339D02*
X2556Y16334D01*
X2552Y16328D01*
X2548Y16321D01*
X2545Y16313D01*
X2542Y16305D01*
X2540Y16296D01*
X2538Y16287D01*
X2537Y16276D01*
X2536Y16265D01*
X2536Y16254D01*
X2447Y16343D01*
X2459Y16343D01*
X2480Y16345D01*
X2490Y16346D01*
X2498Y16349D01*
X2507Y16351D01*
X2514Y16355D01*
X2521Y16358D01*
X2527Y16362D01*
X2532Y16367D01*
X2560Y16339D01*
D02*
G37*
G36*
X4250Y16160D02*
X4256Y16156D01*
X4262Y16152D01*
X4270Y16148D01*
X4278Y16145D01*
X4297Y16137D01*
X4308Y16134D01*
X4332Y16127D01*
X4223Y16063D01*
X4226Y16073D01*
X4227Y16083D01*
X4228Y16093D01*
X4228Y16101D01*
X4227Y16110D01*
X4225Y16117D01*
X4223Y16125D01*
X4219Y16131D01*
X4215Y16138D01*
X4210Y16143D01*
X4246Y16164D01*
X4250Y16160D01*
D02*
G37*
G36*
X3275Y16139D02*
X3270Y16133D01*
X3266Y16127D01*
X3262Y16120D01*
X3259Y16113D01*
X3257Y16105D01*
X3256Y16096D01*
X3256Y16087D01*
X3256Y16078D01*
X3257Y16067D01*
X3258Y16057D01*
X3155Y16129D01*
X3168Y16131D01*
X3200Y16139D01*
X3209Y16142D01*
X3217Y16146D01*
X3224Y16149D01*
X3231Y16153D01*
X3237Y16157D01*
X3241Y16162D01*
X3275Y16139D01*
D02*
G37*
G36*
X6836Y15926D02*
X6926Y15889D01*
X7007Y15835D01*
X7075Y15766D01*
X7129Y15686D01*
X7166Y15596D01*
X7185Y15501D01*
Y15453D01*
Y15404D01*
X7166Y15309D01*
X7129Y15220D01*
X7075Y15139D01*
X7007Y15071D01*
X6926Y15017D01*
X6836Y14980D01*
X6741Y14961D01*
X6644D01*
X6549Y14980D01*
X6460Y15017D01*
X6379Y15071D01*
X6311Y15139D01*
X6257Y15220D01*
X6220Y15309D01*
X6201Y15404D01*
Y15453D01*
Y15501D01*
X6220Y15596D01*
X6257Y15686D01*
X6311Y15766D01*
X6379Y15835D01*
X6460Y15889D01*
X6549Y15926D01*
X6644Y15945D01*
X6741D01*
X6836Y15926D01*
D02*
G37*
G36*
X4868D02*
X4958Y15889D01*
X5038Y15835D01*
X5107Y15766D01*
X5161Y15686D01*
X5198Y15596D01*
X5217Y15501D01*
Y15453D01*
Y15404D01*
X5198Y15309D01*
X5161Y15220D01*
X5107Y15139D01*
X5038Y15071D01*
X4958Y15017D01*
X4868Y14980D01*
X4773Y14961D01*
X4676D01*
X4581Y14980D01*
X4491Y15017D01*
X4411Y15071D01*
X4342Y15139D01*
X4288Y15220D01*
X4251Y15309D01*
X4232Y15404D01*
Y15453D01*
Y15501D01*
X4251Y15596D01*
X4288Y15686D01*
X4342Y15766D01*
X4411Y15835D01*
X4491Y15889D01*
X4581Y15926D01*
X4676Y15945D01*
X4773D01*
X4868Y15926D01*
D02*
G37*
G36*
X2899D02*
X2989Y15889D01*
X3070Y15835D01*
X3138Y15766D01*
X3192Y15686D01*
X3229Y15596D01*
X3248Y15501D01*
Y15453D01*
Y15404D01*
X3229Y15309D01*
X3192Y15220D01*
X3138Y15139D01*
X3070Y15071D01*
X2989Y15017D01*
X2899Y14980D01*
X2804Y14961D01*
X2707D01*
X2612Y14980D01*
X2523Y15017D01*
X2442Y15071D01*
X2374Y15139D01*
X2320Y15220D01*
X2283Y15309D01*
X2264Y15404D01*
Y15453D01*
Y15501D01*
X2283Y15596D01*
X2320Y15686D01*
X2374Y15766D01*
X2442Y15835D01*
X2523Y15889D01*
X2612Y15926D01*
X2707Y15945D01*
X2804D01*
X2899Y15926D01*
D02*
G37*
G36*
X931D02*
X1021Y15889D01*
X1101Y15835D01*
X1170Y15766D01*
X1224Y15686D01*
X1261Y15596D01*
X1280Y15501D01*
Y15453D01*
Y15404D01*
X1261Y15309D01*
X1224Y15220D01*
X1170Y15139D01*
X1101Y15071D01*
X1021Y15017D01*
X931Y14980D01*
X836Y14961D01*
X739D01*
X644Y14980D01*
X554Y15017D01*
X474Y15071D01*
X405Y15139D01*
X351Y15220D01*
X314Y15309D01*
X295Y15404D01*
Y15453D01*
Y15501D01*
X314Y15596D01*
X351Y15686D01*
X405Y15766D01*
X474Y15835D01*
X554Y15889D01*
X644Y15926D01*
X739Y15945D01*
X836D01*
X931Y15926D01*
D02*
G37*
G36*
X4779Y14367D02*
X4765Y14351D01*
X4760Y14342D01*
X4755Y14334D01*
X4751Y14327D01*
X4748Y14319D01*
X4746Y14312D01*
X4745Y14304D01*
X4744Y14297D01*
X4704Y14296D01*
X4704Y14303D01*
X4703Y14311D01*
X4700Y14318D01*
X4697Y14326D01*
X4693Y14333D01*
X4689Y14341D01*
X4683Y14349D01*
X4676Y14356D01*
X4669Y14364D01*
X4661Y14372D01*
X4787Y14376D01*
X4779Y14367D01*
D02*
G37*
G36*
X2820Y14372D02*
X2811Y14364D01*
X2797Y14349D01*
X2792Y14341D01*
X2787Y14333D01*
X2783Y14326D01*
X2780Y14318D01*
X2778Y14311D01*
X2776Y14303D01*
X2776Y14296D01*
X2736Y14297D01*
X2735Y14304D01*
X2734Y14312D01*
X2732Y14319D01*
X2729Y14327D01*
X2725Y14334D01*
X2721Y14342D01*
X2715Y14351D01*
X2709Y14359D01*
X2694Y14376D01*
X2820Y14372D01*
D02*
G37*
G36*
X6836Y13957D02*
X6926Y13920D01*
X7007Y13867D01*
X7075Y13798D01*
X7129Y13717D01*
X7166Y13628D01*
X7185Y13533D01*
Y13484D01*
Y13436D01*
X7166Y13341D01*
X7129Y13251D01*
X7075Y13171D01*
X7007Y13102D01*
X6926Y13048D01*
X6836Y13011D01*
X6741Y12992D01*
X6644D01*
X6549Y13011D01*
X6460Y13048D01*
X6379Y13102D01*
X6311Y13171D01*
X6257Y13251D01*
X6220Y13341D01*
X6201Y13436D01*
Y13484D01*
Y13533D01*
X6220Y13628D01*
X6257Y13717D01*
X6311Y13798D01*
X6379Y13867D01*
X6460Y13920D01*
X6549Y13957D01*
X6644Y13976D01*
X6741D01*
X6836Y13957D01*
D02*
G37*
G36*
X4868D02*
X4958Y13920D01*
X5038Y13867D01*
X5107Y13798D01*
X5161Y13717D01*
X5198Y13628D01*
X5217Y13533D01*
Y13484D01*
Y13436D01*
X5198Y13341D01*
X5161Y13251D01*
X5107Y13171D01*
X5038Y13102D01*
X4958Y13048D01*
X4868Y13011D01*
X4773Y12992D01*
X4676D01*
X4581Y13011D01*
X4491Y13048D01*
X4411Y13102D01*
X4342Y13171D01*
X4288Y13251D01*
X4251Y13341D01*
X4232Y13436D01*
Y13484D01*
Y13533D01*
X4251Y13628D01*
X4288Y13717D01*
X4342Y13798D01*
X4411Y13867D01*
X4491Y13920D01*
X4581Y13957D01*
X4676Y13976D01*
X4773D01*
X4868Y13957D01*
D02*
G37*
G36*
X2899D02*
X2989Y13920D01*
X3070Y13867D01*
X3138Y13798D01*
X3192Y13717D01*
X3229Y13628D01*
X3248Y13533D01*
Y13484D01*
Y13436D01*
X3229Y13341D01*
X3192Y13251D01*
X3138Y13171D01*
X3070Y13102D01*
X2989Y13048D01*
X2899Y13011D01*
X2804Y12992D01*
X2707D01*
X2612Y13011D01*
X2523Y13048D01*
X2442Y13102D01*
X2374Y13171D01*
X2320Y13251D01*
X2283Y13341D01*
X2264Y13436D01*
Y13484D01*
Y13533D01*
X2283Y13628D01*
X2320Y13717D01*
X2374Y13798D01*
X2442Y13867D01*
X2523Y13920D01*
X2612Y13957D01*
X2707Y13976D01*
X2804D01*
X2899Y13957D01*
D02*
G37*
G36*
X931D02*
X1021Y13920D01*
X1101Y13867D01*
X1170Y13798D01*
X1224Y13717D01*
X1261Y13628D01*
X1280Y13533D01*
Y13484D01*
Y13436D01*
X1261Y13341D01*
X1224Y13251D01*
X1170Y13171D01*
X1101Y13102D01*
X1021Y13048D01*
X931Y13011D01*
X836Y12992D01*
X739D01*
X644Y13011D01*
X554Y13048D01*
X474Y13102D01*
X405Y13171D01*
X351Y13251D01*
X314Y13341D01*
X295Y13436D01*
Y13484D01*
Y13533D01*
X314Y13628D01*
X351Y13717D01*
X405Y13798D01*
X474Y13867D01*
X554Y13920D01*
X644Y13957D01*
X739Y13976D01*
X836D01*
X931Y13957D01*
D02*
G37*
G36*
X6747Y12399D02*
X6734Y12382D01*
X6728Y12374D01*
X6723Y12366D01*
X6720Y12358D01*
X6717Y12351D01*
X6715Y12343D01*
X6713Y12336D01*
X6713Y12329D01*
X6673Y12328D01*
X6672Y12335D01*
X6671Y12342D01*
X6669Y12350D01*
X6666Y12357D01*
X6662Y12365D01*
X6657Y12372D01*
X6651Y12380D01*
X6645Y12388D01*
X6637Y12396D01*
X6629Y12404D01*
X6755Y12408D01*
X6747Y12399D01*
D02*
G37*
G36*
X4779D02*
X4765Y12382D01*
X4760Y12374D01*
X4755Y12366D01*
X4751Y12358D01*
X4748Y12351D01*
X4746Y12343D01*
X4745Y12336D01*
X4744Y12329D01*
X4704Y12328D01*
X4704Y12335D01*
X4703Y12342D01*
X4700Y12350D01*
X4697Y12357D01*
X4693Y12365D01*
X4689Y12372D01*
X4683Y12380D01*
X4676Y12388D01*
X4669Y12396D01*
X4661Y12404D01*
X4787Y12408D01*
X4779Y12399D01*
D02*
G37*
G36*
X2820Y12404D02*
X2811Y12396D01*
X2797Y12380D01*
X2792Y12372D01*
X2787Y12365D01*
X2783Y12357D01*
X2780Y12350D01*
X2778Y12342D01*
X2776Y12335D01*
X2776Y12328D01*
X2736Y12329D01*
X2735Y12336D01*
X2734Y12343D01*
X2732Y12351D01*
X2729Y12358D01*
X2725Y12366D01*
X2721Y12374D01*
X2715Y12382D01*
X2709Y12390D01*
X2694Y12408D01*
X2820Y12404D01*
D02*
G37*
G36*
X851D02*
X843Y12396D01*
X829Y12380D01*
X823Y12372D01*
X818Y12365D01*
X814Y12357D01*
X811Y12350D01*
X809Y12342D01*
X808Y12335D01*
X807Y12328D01*
X767Y12329D01*
X767Y12336D01*
X766Y12343D01*
X764Y12351D01*
X761Y12358D01*
X757Y12366D01*
X752Y12374D01*
X747Y12382D01*
X740Y12390D01*
X725Y12408D01*
X851Y12404D01*
D02*
G37*
G36*
X6836Y11989D02*
X6926Y11952D01*
X7007Y11898D01*
X7075Y11829D01*
X7129Y11749D01*
X7166Y11659D01*
X7185Y11564D01*
Y11516D01*
Y11467D01*
X7166Y11372D01*
X7129Y11283D01*
X7075Y11202D01*
X7007Y11133D01*
X6926Y11080D01*
X6836Y11043D01*
X6741Y11024D01*
X6644D01*
X6549Y11043D01*
X6460Y11080D01*
X6379Y11133D01*
X6311Y11202D01*
X6257Y11283D01*
X6220Y11372D01*
X6201Y11467D01*
Y11516D01*
Y11564D01*
X6220Y11659D01*
X6257Y11749D01*
X6311Y11829D01*
X6379Y11898D01*
X6460Y11952D01*
X6549Y11989D01*
X6644Y12008D01*
X6741D01*
X6836Y11989D01*
D02*
G37*
G36*
X4868D02*
X4958Y11952D01*
X5038Y11898D01*
X5107Y11829D01*
X5161Y11749D01*
X5198Y11659D01*
X5217Y11564D01*
Y11516D01*
Y11467D01*
X5198Y11372D01*
X5161Y11283D01*
X5107Y11202D01*
X5038Y11133D01*
X4958Y11080D01*
X4868Y11043D01*
X4773Y11024D01*
X4676D01*
X4581Y11043D01*
X4491Y11080D01*
X4411Y11133D01*
X4342Y11202D01*
X4288Y11283D01*
X4251Y11372D01*
X4232Y11467D01*
Y11516D01*
Y11564D01*
X4251Y11659D01*
X4288Y11749D01*
X4342Y11829D01*
X4411Y11898D01*
X4491Y11952D01*
X4581Y11989D01*
X4676Y12008D01*
X4773D01*
X4868Y11989D01*
D02*
G37*
G36*
X2899D02*
X2989Y11952D01*
X3070Y11898D01*
X3138Y11829D01*
X3192Y11749D01*
X3229Y11659D01*
X3248Y11564D01*
Y11516D01*
Y11467D01*
X3229Y11372D01*
X3192Y11283D01*
X3138Y11202D01*
X3070Y11133D01*
X2989Y11080D01*
X2899Y11043D01*
X2804Y11024D01*
X2707D01*
X2612Y11043D01*
X2523Y11080D01*
X2442Y11133D01*
X2374Y11202D01*
X2320Y11283D01*
X2283Y11372D01*
X2264Y11467D01*
Y11516D01*
Y11564D01*
X2283Y11659D01*
X2320Y11749D01*
X2374Y11829D01*
X2442Y11898D01*
X2523Y11952D01*
X2612Y11989D01*
X2707Y12008D01*
X2804D01*
X2899Y11989D01*
D02*
G37*
G36*
X931D02*
X1021Y11952D01*
X1101Y11898D01*
X1170Y11829D01*
X1224Y11749D01*
X1261Y11659D01*
X1280Y11564D01*
Y11516D01*
Y11467D01*
X1261Y11372D01*
X1224Y11283D01*
X1170Y11202D01*
X1101Y11133D01*
X1021Y11080D01*
X931Y11043D01*
X836Y11024D01*
X739D01*
X644Y11043D01*
X554Y11080D01*
X474Y11133D01*
X405Y11202D01*
X351Y11283D01*
X314Y11372D01*
X295Y11467D01*
Y11516D01*
Y11564D01*
X314Y11659D01*
X351Y11749D01*
X405Y11829D01*
X474Y11898D01*
X554Y11952D01*
X644Y11989D01*
X739Y12008D01*
X836D01*
X931Y11989D01*
D02*
G37*
G36*
X6836Y10020D02*
X6926Y9983D01*
X7007Y9930D01*
X7075Y9861D01*
X7129Y9780D01*
X7166Y9691D01*
X7185Y9596D01*
Y9547D01*
Y9499D01*
X7166Y9404D01*
X7129Y9314D01*
X7075Y9234D01*
X7007Y9165D01*
X6926Y9111D01*
X6836Y9074D01*
X6741Y9055D01*
X6644D01*
X6549Y9074D01*
X6460Y9111D01*
X6379Y9165D01*
X6311Y9234D01*
X6257Y9314D01*
X6220Y9404D01*
X6201Y9499D01*
Y9547D01*
Y9596D01*
X6220Y9691D01*
X6257Y9780D01*
X6311Y9861D01*
X6379Y9930D01*
X6460Y9983D01*
X6549Y10020D01*
X6644Y10039D01*
X6741D01*
X6836Y10020D01*
D02*
G37*
G36*
X4868D02*
X4958Y9983D01*
X5038Y9930D01*
X5107Y9861D01*
X5161Y9780D01*
X5198Y9691D01*
X5217Y9596D01*
Y9547D01*
Y9499D01*
X5198Y9404D01*
X5161Y9314D01*
X5107Y9234D01*
X5038Y9165D01*
X4958Y9111D01*
X4868Y9074D01*
X4773Y9055D01*
X4676D01*
X4581Y9074D01*
X4491Y9111D01*
X4411Y9165D01*
X4342Y9234D01*
X4288Y9314D01*
X4251Y9404D01*
X4232Y9499D01*
Y9547D01*
Y9596D01*
X4251Y9691D01*
X4288Y9780D01*
X4342Y9861D01*
X4411Y9930D01*
X4491Y9983D01*
X4581Y10020D01*
X4676Y10039D01*
X4773D01*
X4868Y10020D01*
D02*
G37*
G36*
X2899D02*
X2989Y9983D01*
X3070Y9930D01*
X3138Y9861D01*
X3192Y9780D01*
X3229Y9691D01*
X3248Y9596D01*
Y9547D01*
Y9499D01*
X3229Y9404D01*
X3192Y9314D01*
X3138Y9234D01*
X3070Y9165D01*
X2989Y9111D01*
X2899Y9074D01*
X2804Y9055D01*
X2707D01*
X2612Y9074D01*
X2523Y9111D01*
X2442Y9165D01*
X2374Y9234D01*
X2320Y9314D01*
X2283Y9404D01*
X2264Y9499D01*
Y9547D01*
Y9596D01*
X2283Y9691D01*
X2320Y9780D01*
X2374Y9861D01*
X2442Y9930D01*
X2523Y9983D01*
X2612Y10020D01*
X2707Y10039D01*
X2804D01*
X2899Y10020D01*
D02*
G37*
G36*
X931D02*
X1021Y9983D01*
X1101Y9930D01*
X1170Y9861D01*
X1224Y9780D01*
X1261Y9691D01*
X1280Y9596D01*
Y9547D01*
Y9499D01*
X1261Y9404D01*
X1224Y9314D01*
X1170Y9234D01*
X1101Y9165D01*
X1021Y9111D01*
X931Y9074D01*
X836Y9055D01*
X739D01*
X644Y9074D01*
X554Y9111D01*
X474Y9165D01*
X405Y9234D01*
X351Y9314D01*
X314Y9404D01*
X295Y9499D01*
Y9547D01*
Y9596D01*
X314Y9691D01*
X351Y9780D01*
X405Y9861D01*
X474Y9930D01*
X554Y9983D01*
X644Y10020D01*
X739Y10039D01*
X836D01*
X931Y10020D01*
D02*
G37*
G36*
X6836Y8052D02*
X6926Y8015D01*
X7007Y7961D01*
X7075Y7892D01*
X7129Y7812D01*
X7166Y7722D01*
X7185Y7627D01*
Y7579D01*
Y7530D01*
X7166Y7435D01*
X7129Y7346D01*
X7075Y7265D01*
X7007Y7196D01*
X6926Y7143D01*
X6836Y7106D01*
X6741Y7087D01*
X6644D01*
X6549Y7106D01*
X6460Y7143D01*
X6379Y7196D01*
X6311Y7265D01*
X6257Y7346D01*
X6220Y7435D01*
X6201Y7530D01*
Y7579D01*
Y7627D01*
X6220Y7722D01*
X6257Y7812D01*
X6311Y7892D01*
X6379Y7961D01*
X6460Y8015D01*
X6549Y8052D01*
X6644Y8071D01*
X6741D01*
X6836Y8052D01*
D02*
G37*
G36*
X4868D02*
X4958Y8015D01*
X5038Y7961D01*
X5107Y7892D01*
X5161Y7812D01*
X5198Y7722D01*
X5217Y7627D01*
Y7579D01*
Y7530D01*
X5198Y7435D01*
X5161Y7346D01*
X5107Y7265D01*
X5038Y7196D01*
X4958Y7143D01*
X4868Y7106D01*
X4773Y7087D01*
X4676D01*
X4581Y7106D01*
X4491Y7143D01*
X4411Y7196D01*
X4342Y7265D01*
X4288Y7346D01*
X4251Y7435D01*
X4232Y7530D01*
Y7579D01*
Y7627D01*
X4251Y7722D01*
X4288Y7812D01*
X4342Y7892D01*
X4411Y7961D01*
X4491Y8015D01*
X4581Y8052D01*
X4676Y8071D01*
X4773D01*
X4868Y8052D01*
D02*
G37*
G36*
X2899D02*
X2989Y8015D01*
X3070Y7961D01*
X3138Y7892D01*
X3192Y7812D01*
X3229Y7722D01*
X3248Y7627D01*
Y7579D01*
Y7530D01*
X3229Y7435D01*
X3192Y7346D01*
X3138Y7265D01*
X3070Y7196D01*
X2989Y7143D01*
X2899Y7106D01*
X2804Y7087D01*
X2707D01*
X2612Y7106D01*
X2523Y7143D01*
X2442Y7196D01*
X2374Y7265D01*
X2320Y7346D01*
X2283Y7435D01*
X2264Y7530D01*
Y7579D01*
Y7627D01*
X2283Y7722D01*
X2320Y7812D01*
X2374Y7892D01*
X2442Y7961D01*
X2523Y8015D01*
X2612Y8052D01*
X2707Y8071D01*
X2804D01*
X2899Y8052D01*
D02*
G37*
G36*
X931D02*
X1021Y8015D01*
X1101Y7961D01*
X1170Y7892D01*
X1224Y7812D01*
X1261Y7722D01*
X1280Y7627D01*
Y7579D01*
Y7530D01*
X1261Y7435D01*
X1224Y7346D01*
X1170Y7265D01*
X1101Y7196D01*
X1021Y7143D01*
X931Y7106D01*
X836Y7087D01*
X739D01*
X644Y7106D01*
X554Y7143D01*
X474Y7196D01*
X405Y7265D01*
X351Y7346D01*
X314Y7435D01*
X295Y7530D01*
Y7579D01*
Y7627D01*
X314Y7722D01*
X351Y7812D01*
X405Y7892D01*
X474Y7961D01*
X554Y8015D01*
X644Y8052D01*
X739Y8071D01*
X836D01*
X931Y8052D01*
D02*
G37*
G36*
X6836Y6083D02*
X6926Y6046D01*
X7007Y5993D01*
X7075Y5924D01*
X7129Y5843D01*
X7166Y5754D01*
X7185Y5659D01*
Y5610D01*
Y5562D01*
X7166Y5467D01*
X7129Y5377D01*
X7075Y5297D01*
X7007Y5228D01*
X6926Y5174D01*
X6836Y5137D01*
X6741Y5118D01*
X6644D01*
X6549Y5137D01*
X6460Y5174D01*
X6379Y5228D01*
X6311Y5297D01*
X6257Y5377D01*
X6220Y5467D01*
X6201Y5562D01*
Y5610D01*
Y5659D01*
X6220Y5754D01*
X6257Y5843D01*
X6311Y5924D01*
X6379Y5993D01*
X6460Y6046D01*
X6549Y6083D01*
X6644Y6102D01*
X6741D01*
X6836Y6083D01*
D02*
G37*
G36*
X4868D02*
X4958Y6046D01*
X5038Y5993D01*
X5107Y5924D01*
X5161Y5843D01*
X5198Y5754D01*
X5217Y5659D01*
Y5610D01*
Y5562D01*
X5198Y5467D01*
X5161Y5377D01*
X5107Y5297D01*
X5038Y5228D01*
X4958Y5174D01*
X4868Y5137D01*
X4773Y5118D01*
X4676D01*
X4581Y5137D01*
X4491Y5174D01*
X4411Y5228D01*
X4342Y5297D01*
X4288Y5377D01*
X4251Y5467D01*
X4232Y5562D01*
Y5610D01*
Y5659D01*
X4251Y5754D01*
X4288Y5843D01*
X4342Y5924D01*
X4411Y5993D01*
X4491Y6046D01*
X4581Y6083D01*
X4676Y6102D01*
X4773D01*
X4868Y6083D01*
D02*
G37*
G36*
X2899D02*
X2989Y6046D01*
X3070Y5993D01*
X3138Y5924D01*
X3192Y5843D01*
X3229Y5754D01*
X3248Y5659D01*
Y5610D01*
Y5562D01*
X3229Y5467D01*
X3192Y5377D01*
X3138Y5297D01*
X3070Y5228D01*
X2989Y5174D01*
X2899Y5137D01*
X2804Y5118D01*
X2707D01*
X2612Y5137D01*
X2523Y5174D01*
X2442Y5228D01*
X2374Y5297D01*
X2320Y5377D01*
X2283Y5467D01*
X2264Y5562D01*
Y5610D01*
Y5659D01*
X2283Y5754D01*
X2320Y5843D01*
X2374Y5924D01*
X2442Y5993D01*
X2523Y6046D01*
X2612Y6083D01*
X2707Y6102D01*
X2804D01*
X2899Y6083D01*
D02*
G37*
G36*
X931D02*
X1021Y6046D01*
X1101Y5993D01*
X1170Y5924D01*
X1224Y5843D01*
X1261Y5754D01*
X1280Y5659D01*
Y5610D01*
Y5562D01*
X1261Y5467D01*
X1224Y5377D01*
X1170Y5297D01*
X1101Y5228D01*
X1021Y5174D01*
X931Y5137D01*
X836Y5118D01*
X739D01*
X644Y5137D01*
X554Y5174D01*
X474Y5228D01*
X405Y5297D01*
X351Y5377D01*
X314Y5467D01*
X295Y5562D01*
Y5610D01*
Y5659D01*
X314Y5754D01*
X351Y5843D01*
X405Y5924D01*
X474Y5993D01*
X554Y6046D01*
X644Y6083D01*
X739Y6102D01*
X836D01*
X931Y6083D01*
D02*
G37*
G36*
X6836Y4115D02*
X6926Y4078D01*
X7007Y4024D01*
X7075Y3955D01*
X7129Y3875D01*
X7166Y3785D01*
X7185Y3690D01*
Y3642D01*
Y3593D01*
X7166Y3498D01*
X7129Y3409D01*
X7075Y3328D01*
X7007Y3259D01*
X6926Y3206D01*
X6836Y3169D01*
X6741Y3150D01*
X6644D01*
X6549Y3169D01*
X6460Y3206D01*
X6379Y3259D01*
X6311Y3328D01*
X6257Y3409D01*
X6220Y3498D01*
X6201Y3593D01*
Y3642D01*
Y3690D01*
X6220Y3785D01*
X6257Y3875D01*
X6311Y3955D01*
X6379Y4024D01*
X6460Y4078D01*
X6549Y4115D01*
X6644Y4134D01*
X6741D01*
X6836Y4115D01*
D02*
G37*
G36*
X4868D02*
X4958Y4078D01*
X5038Y4024D01*
X5107Y3955D01*
X5161Y3875D01*
X5198Y3785D01*
X5217Y3690D01*
Y3642D01*
Y3593D01*
X5198Y3498D01*
X5161Y3409D01*
X5107Y3328D01*
X5038Y3259D01*
X4958Y3206D01*
X4868Y3169D01*
X4773Y3150D01*
X4676D01*
X4581Y3169D01*
X4491Y3206D01*
X4411Y3259D01*
X4342Y3328D01*
X4288Y3409D01*
X4251Y3498D01*
X4232Y3593D01*
Y3642D01*
Y3690D01*
X4251Y3785D01*
X4288Y3875D01*
X4342Y3955D01*
X4411Y4024D01*
X4491Y4078D01*
X4581Y4115D01*
X4676Y4134D01*
X4773D01*
X4868Y4115D01*
D02*
G37*
G36*
X2899D02*
X2989Y4078D01*
X3070Y4024D01*
X3138Y3955D01*
X3192Y3875D01*
X3229Y3785D01*
X3248Y3690D01*
Y3642D01*
Y3593D01*
X3229Y3498D01*
X3192Y3409D01*
X3138Y3328D01*
X3070Y3259D01*
X2989Y3206D01*
X2899Y3169D01*
X2804Y3150D01*
X2707D01*
X2612Y3169D01*
X2523Y3206D01*
X2442Y3259D01*
X2374Y3328D01*
X2320Y3409D01*
X2283Y3498D01*
X2264Y3593D01*
Y3642D01*
Y3690D01*
X2283Y3785D01*
X2320Y3875D01*
X2374Y3955D01*
X2442Y4024D01*
X2523Y4078D01*
X2612Y4115D01*
X2707Y4134D01*
X2804D01*
X2899Y4115D01*
D02*
G37*
G36*
X931D02*
X1021Y4078D01*
X1101Y4024D01*
X1170Y3955D01*
X1224Y3875D01*
X1261Y3785D01*
X1280Y3690D01*
Y3642D01*
Y3593D01*
X1261Y3498D01*
X1224Y3409D01*
X1170Y3328D01*
X1101Y3259D01*
X1021Y3206D01*
X931Y3169D01*
X836Y3150D01*
X739D01*
X644Y3169D01*
X554Y3206D01*
X474Y3259D01*
X405Y3328D01*
X351Y3409D01*
X314Y3498D01*
X295Y3593D01*
Y3642D01*
Y3690D01*
X314Y3785D01*
X351Y3875D01*
X405Y3955D01*
X474Y4024D01*
X554Y4078D01*
X644Y4115D01*
X739Y4134D01*
X836D01*
X931Y4115D01*
D02*
G37*
G36*
X6836Y2146D02*
X6926Y2109D01*
X7007Y2055D01*
X7075Y1987D01*
X7129Y1906D01*
X7166Y1817D01*
X7185Y1722D01*
Y1673D01*
Y1625D01*
X7166Y1530D01*
X7129Y1440D01*
X7075Y1360D01*
X7007Y1291D01*
X6926Y1237D01*
X6836Y1200D01*
X6741Y1181D01*
X6644D01*
X6549Y1200D01*
X6460Y1237D01*
X6379Y1291D01*
X6311Y1360D01*
X6257Y1440D01*
X6220Y1530D01*
X6201Y1625D01*
Y1673D01*
Y1722D01*
X6220Y1817D01*
X6257Y1906D01*
X6311Y1987D01*
X6379Y2055D01*
X6460Y2109D01*
X6549Y2146D01*
X6644Y2165D01*
X6741D01*
X6836Y2146D01*
D02*
G37*
G36*
X4868D02*
X4958Y2109D01*
X5038Y2055D01*
X5107Y1987D01*
X5161Y1906D01*
X5198Y1817D01*
X5217Y1722D01*
Y1673D01*
Y1625D01*
X5198Y1530D01*
X5161Y1440D01*
X5107Y1360D01*
X5038Y1291D01*
X4958Y1237D01*
X4868Y1200D01*
X4773Y1181D01*
X4676D01*
X4581Y1200D01*
X4491Y1237D01*
X4411Y1291D01*
X4342Y1360D01*
X4288Y1440D01*
X4251Y1530D01*
X4232Y1625D01*
Y1673D01*
Y1722D01*
X4251Y1817D01*
X4288Y1906D01*
X4342Y1987D01*
X4411Y2055D01*
X4491Y2109D01*
X4581Y2146D01*
X4676Y2165D01*
X4773D01*
X4868Y2146D01*
D02*
G37*
G36*
X2899D02*
X2989Y2109D01*
X3070Y2055D01*
X3138Y1987D01*
X3192Y1906D01*
X3229Y1817D01*
X3248Y1722D01*
Y1673D01*
Y1625D01*
X3229Y1530D01*
X3192Y1440D01*
X3138Y1360D01*
X3070Y1291D01*
X2989Y1237D01*
X2899Y1200D01*
X2804Y1181D01*
X2707D01*
X2612Y1200D01*
X2523Y1237D01*
X2442Y1291D01*
X2374Y1360D01*
X2320Y1440D01*
X2283Y1530D01*
X2264Y1625D01*
Y1673D01*
Y1722D01*
X2283Y1817D01*
X2320Y1906D01*
X2374Y1987D01*
X2442Y2055D01*
X2523Y2109D01*
X2612Y2146D01*
X2707Y2165D01*
X2804D01*
X2899Y2146D01*
D02*
G37*
G36*
X931D02*
X1021Y2109D01*
X1101Y2055D01*
X1170Y1987D01*
X1224Y1906D01*
X1261Y1817D01*
X1280Y1722D01*
Y1673D01*
Y1625D01*
X1261Y1530D01*
X1224Y1440D01*
X1170Y1360D01*
X1101Y1291D01*
X1021Y1237D01*
X931Y1200D01*
X836Y1181D01*
X739D01*
X644Y1200D01*
X554Y1237D01*
X474Y1291D01*
X405Y1360D01*
X351Y1440D01*
X314Y1530D01*
X295Y1625D01*
Y1673D01*
Y1722D01*
X314Y1817D01*
X351Y1906D01*
X405Y1987D01*
X474Y2055D01*
X554Y2109D01*
X644Y2146D01*
X739Y2165D01*
X836D01*
X931Y2146D01*
D02*
G37*
D10*
X5020Y36122D02*
D03*
X5217D02*
D03*
X5413D02*
D03*
X5610D02*
D03*
X5807D02*
D03*
X6004D02*
D03*
X6201D02*
D03*
X6398D02*
D03*
X6594D02*
D03*
X6791D02*
D03*
X6988D02*
D03*
X7185D02*
D03*
X7382D02*
D03*
X7579D02*
D03*
X7776D02*
D03*
X7972D02*
D03*
X8169D02*
D03*
X8366D02*
D03*
X8563D02*
D03*
X8760D02*
D03*
X8957D02*
D03*
X9154D02*
D03*
X9350D02*
D03*
X9547D02*
D03*
X9744D02*
D03*
X9941D02*
D03*
X10138D02*
D03*
X10335D02*
D03*
X10532D02*
D03*
X10728D02*
D03*
X10925D02*
D03*
X11713D02*
D03*
X11122D02*
D03*
X11319D02*
D03*
X11516D02*
D03*
X11909D02*
D03*
D12*
X8560Y32480D02*
D03*
X10340Y32620D02*
D03*
X8366Y32900D02*
D03*
X6600Y32780D02*
D03*
X3170Y16040D02*
D03*
X4310D02*
D03*
X4500Y16320D02*
D03*
X2446Y16253D02*
D03*
X2980Y16320D02*
D03*
X5034Y16253D02*
D03*
X2758Y14439D02*
D03*
Y12470D02*
D03*
X4722Y14439D02*
D03*
Y12470D02*
D03*
X6690D02*
D03*
X790D02*
D03*
D14*
X6850Y13484D02*
D03*
X6535Y13327D02*
D03*
X6850D02*
D03*
X6693D02*
D03*
X6535Y13642D02*
D03*
X6850D02*
D03*
X6693D02*
D03*
X6535Y13484D02*
D03*
X6693D02*
D03*
Y13799D02*
D03*
X7008Y13484D02*
D03*
X6693Y13169D02*
D03*
X6378Y13484D02*
D03*
Y13642D02*
D03*
X6535Y13799D02*
D03*
X6850D02*
D03*
X7008Y13642D02*
D03*
Y13327D02*
D03*
X6378D02*
D03*
X6535Y13169D02*
D03*
X6850D02*
D03*
Y15453D02*
D03*
X6535Y15295D02*
D03*
X6850D02*
D03*
X6693D02*
D03*
X6535Y15610D02*
D03*
X6850D02*
D03*
X6693D02*
D03*
X6535Y15453D02*
D03*
X6693D02*
D03*
Y15768D02*
D03*
X7008Y15453D02*
D03*
X6693Y15138D02*
D03*
X6378Y15453D02*
D03*
Y15610D02*
D03*
X6535Y15768D02*
D03*
X6850D02*
D03*
X7008Y15610D02*
D03*
Y15295D02*
D03*
X6378D02*
D03*
X6535Y15138D02*
D03*
X6850D02*
D03*
Y9547D02*
D03*
X6535Y9390D02*
D03*
X6850D02*
D03*
X6693D02*
D03*
X6535Y9705D02*
D03*
X6850D02*
D03*
X6693D02*
D03*
X6535Y9547D02*
D03*
X6693D02*
D03*
Y9862D02*
D03*
X7008Y9547D02*
D03*
X6693Y9232D02*
D03*
X6378Y9547D02*
D03*
Y9705D02*
D03*
X6535Y9862D02*
D03*
X6850D02*
D03*
X7008Y9705D02*
D03*
Y9390D02*
D03*
X6378D02*
D03*
X6535Y9232D02*
D03*
X6850D02*
D03*
Y7579D02*
D03*
X6535Y7421D02*
D03*
X6850D02*
D03*
X6693D02*
D03*
X6535Y7736D02*
D03*
X6850D02*
D03*
X6693D02*
D03*
X6535Y7579D02*
D03*
X6693D02*
D03*
Y7894D02*
D03*
X7008Y7579D02*
D03*
X6693Y7264D02*
D03*
X6378Y7579D02*
D03*
Y7736D02*
D03*
X6535Y7894D02*
D03*
X6850D02*
D03*
X7008Y7736D02*
D03*
Y7421D02*
D03*
X6378D02*
D03*
X6535Y7264D02*
D03*
X6850D02*
D03*
Y5610D02*
D03*
X6535Y5453D02*
D03*
X6850D02*
D03*
X6693D02*
D03*
X6535Y5768D02*
D03*
X6850D02*
D03*
X6693D02*
D03*
X6535Y5610D02*
D03*
X6693D02*
D03*
Y5925D02*
D03*
X7008Y5610D02*
D03*
X6693Y5295D02*
D03*
X6378Y5610D02*
D03*
Y5768D02*
D03*
X6535Y5925D02*
D03*
X6850D02*
D03*
X7008Y5768D02*
D03*
Y5453D02*
D03*
X6378D02*
D03*
X6535Y5295D02*
D03*
X6850D02*
D03*
Y3642D02*
D03*
X6535Y3484D02*
D03*
X6850D02*
D03*
X6693D02*
D03*
X6535Y3799D02*
D03*
X6850D02*
D03*
X6693D02*
D03*
X6535Y3642D02*
D03*
X6693D02*
D03*
Y3957D02*
D03*
X7008Y3642D02*
D03*
X6693Y3327D02*
D03*
X6378Y3642D02*
D03*
Y3799D02*
D03*
X6535Y3957D02*
D03*
X6850D02*
D03*
X7008Y3799D02*
D03*
Y3484D02*
D03*
X6378D02*
D03*
X6535Y3327D02*
D03*
X6850D02*
D03*
Y1673D02*
D03*
X6535Y1516D02*
D03*
X6850D02*
D03*
X6693D02*
D03*
X6535Y1831D02*
D03*
X6850D02*
D03*
X6693D02*
D03*
X6535Y1673D02*
D03*
X6693D02*
D03*
Y1988D02*
D03*
X7008Y1673D02*
D03*
X6693Y1358D02*
D03*
X6378Y1673D02*
D03*
Y1831D02*
D03*
X6535Y1988D02*
D03*
X6850D02*
D03*
X7008Y1831D02*
D03*
Y1516D02*
D03*
X6378D02*
D03*
X6535Y1358D02*
D03*
X6850D02*
D03*
X4882Y1673D02*
D03*
X4567Y1516D02*
D03*
X4882D02*
D03*
X4724D02*
D03*
X4567Y1831D02*
D03*
X4882D02*
D03*
X4724D02*
D03*
X4567Y1673D02*
D03*
X4724D02*
D03*
Y1988D02*
D03*
X5039Y1673D02*
D03*
X4724Y1358D02*
D03*
X4409Y1673D02*
D03*
Y1831D02*
D03*
X4567Y1988D02*
D03*
X4882D02*
D03*
X5039Y1831D02*
D03*
Y1516D02*
D03*
X4409D02*
D03*
X4567Y1358D02*
D03*
X4882D02*
D03*
Y3642D02*
D03*
X4567Y3484D02*
D03*
X4882D02*
D03*
X4724D02*
D03*
X4567Y3799D02*
D03*
X4882D02*
D03*
X4724D02*
D03*
X4567Y3642D02*
D03*
X4724D02*
D03*
Y3957D02*
D03*
X5039Y3642D02*
D03*
X4724Y3327D02*
D03*
X4409Y3642D02*
D03*
Y3799D02*
D03*
X4567Y3957D02*
D03*
X4882D02*
D03*
X5039Y3799D02*
D03*
Y3484D02*
D03*
X4409D02*
D03*
X4567Y3327D02*
D03*
X4882D02*
D03*
X6850Y11516D02*
D03*
X6535Y11358D02*
D03*
X6850D02*
D03*
X6693D02*
D03*
X6535Y11673D02*
D03*
X6850D02*
D03*
X6693D02*
D03*
X6535Y11516D02*
D03*
X6693D02*
D03*
Y11831D02*
D03*
X7008Y11516D02*
D03*
X6693Y11201D02*
D03*
X6378Y11516D02*
D03*
Y11673D02*
D03*
X6535Y11831D02*
D03*
X6850D02*
D03*
X7008Y11673D02*
D03*
Y11358D02*
D03*
X6378D02*
D03*
X6535Y11201D02*
D03*
X6850D02*
D03*
X4882Y15453D02*
D03*
X4567Y15295D02*
D03*
X4882D02*
D03*
X4724D02*
D03*
X4567Y15610D02*
D03*
X4882D02*
D03*
X4724D02*
D03*
X4567Y15453D02*
D03*
X4724D02*
D03*
Y15768D02*
D03*
X5039Y15453D02*
D03*
X4724Y15138D02*
D03*
X4409Y15453D02*
D03*
Y15610D02*
D03*
X4567Y15768D02*
D03*
X4882D02*
D03*
X5039Y15610D02*
D03*
Y15295D02*
D03*
X4409D02*
D03*
X4567Y15138D02*
D03*
X4882D02*
D03*
Y13484D02*
D03*
X4567Y13327D02*
D03*
X4882D02*
D03*
X4724D02*
D03*
X4567Y13642D02*
D03*
X4882D02*
D03*
X4724D02*
D03*
X4567Y13484D02*
D03*
X4724D02*
D03*
Y13799D02*
D03*
X5039Y13484D02*
D03*
X4724Y13169D02*
D03*
X4409Y13484D02*
D03*
Y13642D02*
D03*
X4567Y13799D02*
D03*
X4882D02*
D03*
X5039Y13642D02*
D03*
Y13327D02*
D03*
X4409D02*
D03*
X4567Y13169D02*
D03*
X4882D02*
D03*
Y11516D02*
D03*
X4567Y11358D02*
D03*
X4882D02*
D03*
X4724D02*
D03*
X4567Y11673D02*
D03*
X4882D02*
D03*
X4724D02*
D03*
X4567Y11516D02*
D03*
X4724D02*
D03*
Y11831D02*
D03*
X5039Y11516D02*
D03*
X4724Y11201D02*
D03*
X4409Y11516D02*
D03*
Y11673D02*
D03*
X4567Y11831D02*
D03*
X4882D02*
D03*
X5039Y11673D02*
D03*
Y11358D02*
D03*
X4409D02*
D03*
X4567Y11201D02*
D03*
X4882D02*
D03*
Y9547D02*
D03*
X4567Y9390D02*
D03*
X4882D02*
D03*
X4724D02*
D03*
X4567Y9705D02*
D03*
X4882D02*
D03*
X4724D02*
D03*
X4567Y9547D02*
D03*
X4724D02*
D03*
Y9862D02*
D03*
X5039Y9547D02*
D03*
X4724Y9232D02*
D03*
X4409Y9547D02*
D03*
Y9705D02*
D03*
X4567Y9862D02*
D03*
X4882D02*
D03*
X5039Y9705D02*
D03*
Y9390D02*
D03*
X4409D02*
D03*
X4567Y9232D02*
D03*
X4882D02*
D03*
Y7579D02*
D03*
X4567Y7421D02*
D03*
X4882D02*
D03*
X4724D02*
D03*
X4567Y7736D02*
D03*
X4882D02*
D03*
X4724D02*
D03*
X4567Y7579D02*
D03*
X4724D02*
D03*
Y7894D02*
D03*
X5039Y7579D02*
D03*
X4724Y7264D02*
D03*
X4409Y7579D02*
D03*
Y7736D02*
D03*
X4567Y7894D02*
D03*
X4882D02*
D03*
X5039Y7736D02*
D03*
Y7421D02*
D03*
X4409D02*
D03*
X4567Y7264D02*
D03*
X4882D02*
D03*
Y5610D02*
D03*
X4567Y5453D02*
D03*
X4882D02*
D03*
X4724D02*
D03*
X4567Y5768D02*
D03*
X4882D02*
D03*
X4724D02*
D03*
X4567Y5610D02*
D03*
X4724D02*
D03*
Y5925D02*
D03*
X5039Y5610D02*
D03*
X4724Y5295D02*
D03*
X4409Y5610D02*
D03*
Y5768D02*
D03*
X4567Y5925D02*
D03*
X4882D02*
D03*
X5039Y5768D02*
D03*
Y5453D02*
D03*
X4409D02*
D03*
X4567Y5295D02*
D03*
X4882D02*
D03*
X2913Y5610D02*
D03*
X2598Y5453D02*
D03*
X2913D02*
D03*
X2756D02*
D03*
X2598Y5768D02*
D03*
X2913D02*
D03*
X2756D02*
D03*
X2598Y5610D02*
D03*
X2756D02*
D03*
Y5925D02*
D03*
X3071Y5610D02*
D03*
X2756Y5295D02*
D03*
X2441Y5610D02*
D03*
Y5768D02*
D03*
X2598Y5925D02*
D03*
X2913D02*
D03*
X3071Y5768D02*
D03*
Y5453D02*
D03*
X2441D02*
D03*
X2598Y5295D02*
D03*
X2913D02*
D03*
Y7579D02*
D03*
X2598Y7421D02*
D03*
X2913D02*
D03*
X2756D02*
D03*
X2598Y7736D02*
D03*
X2913D02*
D03*
X2756D02*
D03*
X2598Y7579D02*
D03*
X2756D02*
D03*
Y7894D02*
D03*
X3071Y7579D02*
D03*
X2756Y7264D02*
D03*
X2441Y7579D02*
D03*
Y7736D02*
D03*
X2598Y7894D02*
D03*
X2913D02*
D03*
X3071Y7736D02*
D03*
Y7421D02*
D03*
X2441D02*
D03*
X2598Y7264D02*
D03*
X2913D02*
D03*
Y9547D02*
D03*
X2598Y9390D02*
D03*
X2913D02*
D03*
X2756D02*
D03*
X2598Y9705D02*
D03*
X2913D02*
D03*
X2756D02*
D03*
X2598Y9547D02*
D03*
X2756D02*
D03*
Y9862D02*
D03*
X3071Y9547D02*
D03*
X2756Y9232D02*
D03*
X2441Y9547D02*
D03*
Y9705D02*
D03*
X2598Y9862D02*
D03*
X2913D02*
D03*
X3071Y9705D02*
D03*
Y9390D02*
D03*
X2441D02*
D03*
X2598Y9232D02*
D03*
X2913D02*
D03*
Y11516D02*
D03*
X2598Y11358D02*
D03*
X2913D02*
D03*
X2756D02*
D03*
X2598Y11673D02*
D03*
X2913D02*
D03*
X2756D02*
D03*
X2598Y11516D02*
D03*
X2756D02*
D03*
Y11831D02*
D03*
X3071Y11516D02*
D03*
X2756Y11201D02*
D03*
X2441Y11516D02*
D03*
Y11673D02*
D03*
X2598Y11831D02*
D03*
X2913D02*
D03*
X3071Y11673D02*
D03*
Y11358D02*
D03*
X2441D02*
D03*
X2598Y11201D02*
D03*
X2913D02*
D03*
Y13484D02*
D03*
X2598Y13327D02*
D03*
X2913D02*
D03*
X2756D02*
D03*
X2598Y13642D02*
D03*
X2913D02*
D03*
X2756D02*
D03*
X2598Y13484D02*
D03*
X2756D02*
D03*
Y13799D02*
D03*
X3071Y13484D02*
D03*
X2756Y13169D02*
D03*
X2441Y13484D02*
D03*
Y13642D02*
D03*
X2598Y13799D02*
D03*
X2913D02*
D03*
X3071Y13642D02*
D03*
Y13327D02*
D03*
X2441D02*
D03*
X2598Y13169D02*
D03*
X2913D02*
D03*
Y15453D02*
D03*
X2598Y15295D02*
D03*
X2913D02*
D03*
X2756D02*
D03*
X2598Y15610D02*
D03*
X2913D02*
D03*
X2756D02*
D03*
X2598Y15453D02*
D03*
X2756D02*
D03*
Y15768D02*
D03*
X3071Y15453D02*
D03*
X2756Y15138D02*
D03*
X2441Y15453D02*
D03*
Y15610D02*
D03*
X2598Y15768D02*
D03*
X2913D02*
D03*
X3071Y15610D02*
D03*
Y15295D02*
D03*
X2441D02*
D03*
X2598Y15138D02*
D03*
X2913D02*
D03*
X945Y11516D02*
D03*
X630Y11358D02*
D03*
X945D02*
D03*
X787D02*
D03*
X630Y11673D02*
D03*
X945D02*
D03*
X787D02*
D03*
X630Y11516D02*
D03*
X787D02*
D03*
Y11831D02*
D03*
X1102Y11516D02*
D03*
X787Y11201D02*
D03*
X472Y11516D02*
D03*
Y11673D02*
D03*
X630Y11831D02*
D03*
X945D02*
D03*
X1102Y11673D02*
D03*
Y11358D02*
D03*
X472D02*
D03*
X630Y11201D02*
D03*
X945D02*
D03*
X2913Y3642D02*
D03*
X2598Y3484D02*
D03*
X2913D02*
D03*
X2756D02*
D03*
X2598Y3799D02*
D03*
X2913D02*
D03*
X2756D02*
D03*
X2598Y3642D02*
D03*
X2756D02*
D03*
Y3957D02*
D03*
X3071Y3642D02*
D03*
X2756Y3327D02*
D03*
X2441Y3642D02*
D03*
Y3799D02*
D03*
X2598Y3957D02*
D03*
X2913D02*
D03*
X3071Y3799D02*
D03*
Y3484D02*
D03*
X2441D02*
D03*
X2598Y3327D02*
D03*
X2913D02*
D03*
Y1673D02*
D03*
X2598Y1516D02*
D03*
X2913D02*
D03*
X2756D02*
D03*
X2598Y1831D02*
D03*
X2913D02*
D03*
X2756D02*
D03*
X2598Y1673D02*
D03*
X2756D02*
D03*
Y1988D02*
D03*
X3071Y1673D02*
D03*
X2756Y1358D02*
D03*
X2441Y1673D02*
D03*
Y1831D02*
D03*
X2598Y1988D02*
D03*
X2913D02*
D03*
X3071Y1831D02*
D03*
Y1516D02*
D03*
X2441D02*
D03*
X2598Y1358D02*
D03*
X2913D02*
D03*
X945Y1673D02*
D03*
X630Y1516D02*
D03*
X945D02*
D03*
X787D02*
D03*
X630Y1831D02*
D03*
X945D02*
D03*
X787D02*
D03*
X630Y1673D02*
D03*
X787D02*
D03*
Y1988D02*
D03*
X1102Y1673D02*
D03*
X787Y1358D02*
D03*
X472Y1673D02*
D03*
Y1831D02*
D03*
X630Y1988D02*
D03*
X945D02*
D03*
X1102Y1831D02*
D03*
Y1516D02*
D03*
X472D02*
D03*
X630Y1358D02*
D03*
X945D02*
D03*
Y3642D02*
D03*
X630Y3484D02*
D03*
X945D02*
D03*
X787D02*
D03*
X630Y3799D02*
D03*
X945D02*
D03*
X787D02*
D03*
X630Y3642D02*
D03*
X787D02*
D03*
Y3957D02*
D03*
X1102Y3642D02*
D03*
X787Y3327D02*
D03*
X472Y3642D02*
D03*
Y3799D02*
D03*
X630Y3957D02*
D03*
X945D02*
D03*
X1102Y3799D02*
D03*
Y3484D02*
D03*
X472D02*
D03*
X630Y3327D02*
D03*
X945D02*
D03*
Y5610D02*
D03*
X630Y5453D02*
D03*
X945D02*
D03*
X787D02*
D03*
X630Y5768D02*
D03*
X945D02*
D03*
X787D02*
D03*
X630Y5610D02*
D03*
X787D02*
D03*
Y5925D02*
D03*
X1102Y5610D02*
D03*
X787Y5295D02*
D03*
X472Y5610D02*
D03*
Y5768D02*
D03*
X630Y5925D02*
D03*
X945D02*
D03*
X1102Y5768D02*
D03*
Y5453D02*
D03*
X472D02*
D03*
X630Y5295D02*
D03*
X945D02*
D03*
Y7579D02*
D03*
X630Y7421D02*
D03*
X945D02*
D03*
X787D02*
D03*
X630Y7736D02*
D03*
X945D02*
D03*
X787D02*
D03*
X630Y7579D02*
D03*
X787D02*
D03*
Y7894D02*
D03*
X1102Y7579D02*
D03*
X787Y7264D02*
D03*
X472Y7579D02*
D03*
Y7736D02*
D03*
X630Y7894D02*
D03*
X945D02*
D03*
X1102Y7736D02*
D03*
Y7421D02*
D03*
X472D02*
D03*
X630Y7264D02*
D03*
X945D02*
D03*
Y9547D02*
D03*
X630Y9390D02*
D03*
X945D02*
D03*
X787D02*
D03*
X630Y9705D02*
D03*
X945D02*
D03*
X787D02*
D03*
X630Y9547D02*
D03*
X787D02*
D03*
Y9862D02*
D03*
X1102Y9547D02*
D03*
X787Y9232D02*
D03*
X472Y9547D02*
D03*
Y9705D02*
D03*
X630Y9862D02*
D03*
X945D02*
D03*
X1102Y9705D02*
D03*
Y9390D02*
D03*
X472D02*
D03*
X630Y9232D02*
D03*
X945D02*
D03*
Y15453D02*
D03*
X630Y15295D02*
D03*
X945D02*
D03*
X787D02*
D03*
X630Y15610D02*
D03*
X945D02*
D03*
X787D02*
D03*
X630Y15453D02*
D03*
X787D02*
D03*
Y15768D02*
D03*
X1102Y15453D02*
D03*
X787Y15138D02*
D03*
X472Y15453D02*
D03*
Y15610D02*
D03*
X630Y15768D02*
D03*
X945D02*
D03*
X1102Y15610D02*
D03*
Y15295D02*
D03*
X472D02*
D03*
X630Y15138D02*
D03*
X945D02*
D03*
Y13484D02*
D03*
X630Y13327D02*
D03*
X945D02*
D03*
X787D02*
D03*
X630Y13642D02*
D03*
X945D02*
D03*
X787D02*
D03*
X630Y13484D02*
D03*
X787D02*
D03*
Y13799D02*
D03*
X1102Y13484D02*
D03*
X787Y13169D02*
D03*
X472Y13484D02*
D03*
Y13642D02*
D03*
X630Y13799D02*
D03*
X945D02*
D03*
X1102Y13642D02*
D03*
Y13327D02*
D03*
X472D02*
D03*
X630Y13169D02*
D03*
X945D02*
D03*
D15*
X767Y16200D02*
X1860Y17293D01*
Y22698D02*
X4729Y25567D01*
X1860Y17293D02*
Y22698D01*
X3300Y16192D02*
Y21945D01*
X2700Y16945D02*
Y22193D01*
X2100Y22598D02*
X4829Y25327D01*
X787Y16051D02*
X1980Y17244D01*
X2940Y16747D02*
Y22094D01*
X2820Y22300D02*
X5127Y24607D01*
X2756Y16393D02*
X3060Y16697D01*
X2580Y16995D02*
Y22243D01*
Y22399D02*
X5028Y24847D01*
X1412Y16505D02*
X2100Y17194D01*
X2460Y22292D02*
Y22449D01*
X2756Y7972D02*
X3540Y8757D01*
X3300Y21945D02*
Y22101D01*
X2446Y16253D02*
X2940Y16747D01*
X2460Y22449D02*
X4978Y24967D01*
X2220Y17144D02*
Y22392D01*
X2756Y6004D02*
X3660Y6908D01*
Y21952D02*
X5475Y23767D01*
X1980Y22648D02*
X4779Y25447D01*
X3540Y8757D02*
Y21845D01*
X2220Y22549D02*
X4878Y25207D01*
X3180Y21994D02*
Y22151D01*
X3420Y21895D02*
Y22051D01*
X2012Y16257D02*
X2700Y16945D01*
X3540Y22002D02*
X5425Y23887D01*
X2940Y22250D02*
X5177Y24487D01*
X1652Y16406D02*
X2340Y17094D01*
X1532Y16456D02*
X2220Y17144D01*
X3660Y6908D02*
Y21952D01*
X1980Y17244D02*
Y22491D01*
X2820Y22143D02*
Y22300D01*
X2580Y22243D02*
Y22399D01*
X2340Y22342D02*
Y22499D01*
X3300Y22101D02*
X5326Y24127D01*
X3016Y16320D02*
X3180Y16484D01*
X2700Y22350D02*
X5077Y24727D01*
X1772Y16356D02*
X2460Y17045D01*
X2756Y9941D02*
X3420Y10605D01*
X3060Y22044D02*
Y22201D01*
X2340Y17094D02*
Y22342D01*
X3420Y22051D02*
X5375Y24007D01*
X3060Y16697D02*
Y22044D01*
X2100Y22442D02*
Y22598D01*
X2132Y16207D02*
X2820Y16896D01*
X3180Y22151D02*
X5276Y24247D01*
X2940Y22094D02*
Y22250D01*
X1980Y22491D02*
Y22648D01*
X3060Y22201D02*
X5226Y24367D01*
X2700Y22193D02*
Y22350D01*
X2220Y22392D02*
Y22549D01*
X2100Y17194D02*
Y22442D01*
X2340Y22499D02*
X4928Y25087D01*
X2460Y17045D02*
Y22292D01*
X3540Y21845D02*
Y22002D01*
X2820Y16896D02*
Y22143D01*
X3180Y16484D02*
Y21994D01*
X3170Y16062D02*
X3300Y16192D01*
X1892Y16306D02*
X2580Y16995D01*
X3420Y10605D02*
Y21895D01*
X6693Y15846D02*
Y16051D01*
X11713Y32242D02*
Y36122D01*
X10260Y30790D02*
X11713Y32242D01*
X10260Y23942D02*
Y30790D01*
Y23369D02*
Y23942D01*
X8748Y21857D02*
X10260Y23369D01*
X5540Y17204D02*
X6693Y16051D01*
X5540Y21130D02*
X6267Y21857D01*
X5540Y17204D02*
Y20960D01*
X6437Y21857D02*
X8748D01*
X6267D02*
X6437D01*
X5540Y20960D02*
Y21130D01*
X8560Y32480D02*
Y36119D01*
X8563Y36122D01*
X8366Y32900D02*
Y36122D01*
X6594D02*
X6600Y36117D01*
Y32780D02*
Y36117D01*
X6398Y32079D02*
X7240Y31237D01*
X6398Y32079D02*
Y36122D01*
X8169Y31665D02*
X8338Y31497D01*
X8169Y31665D02*
Y36122D01*
X10340Y32620D02*
Y36117D01*
X10335Y36122D02*
X10340Y36117D01*
X10532Y32079D02*
Y36122D01*
X10138Y31855D02*
Y36122D01*
X6791Y31855D02*
Y36122D01*
Y31855D02*
X7360Y31287D01*
X6457Y24967D02*
X7138Y25648D01*
X5177Y24487D02*
X6656D01*
X5226Y24367D02*
X6705D01*
X6258Y25447D02*
X6658Y25847D01*
X6208Y25567D02*
X6538Y25896D01*
X4928Y25087D02*
X6407D01*
X6705Y24367D02*
X7738Y25399D01*
X4978Y24967D02*
X6457D01*
X6805Y24127D02*
X7978Y25300D01*
X6407Y25087D02*
X7018Y25697D01*
X5326Y24127D02*
X6805D01*
X6656Y24487D02*
X7618Y25449D01*
X5028Y24847D02*
X6506D01*
X7258Y25598D01*
X6755Y24247D02*
X7858Y25349D01*
X5475Y23767D02*
X6954D01*
X4878Y25207D02*
X6357D01*
X5276Y24247D02*
X6755D01*
X6854Y24007D02*
X8098Y25250D01*
X5127Y24607D02*
X6606D01*
X4829Y25327D02*
X6308D01*
X6904Y23887D02*
X8218Y25200D01*
X5077Y24727D02*
X6556D01*
X7378Y25548D01*
X4779Y25447D02*
X6258D01*
X6308Y25327D02*
X6778Y25797D01*
X6606Y24607D02*
X7498Y25499D01*
X6357Y25207D02*
X6898Y25747D01*
X4729Y25567D02*
X6208D01*
X5375Y24007D02*
X6854D01*
X6954Y23767D02*
X8338Y25151D01*
X5425Y23887D02*
X6904D01*
X5621Y23417D02*
X5791D01*
X5671Y23297D02*
X5841D01*
X5770Y23057D02*
X5940D01*
X5919Y22697D02*
X6089D01*
X6068Y22337D02*
X6238D01*
X5420Y21010D02*
Y21179D01*
X4460Y16657D02*
Y21407D01*
X6019Y22457D02*
X6188D01*
X5969Y22577D02*
X6139D01*
X3860Y6868D02*
Y21656D01*
X5300Y21059D02*
Y21229D01*
X5741Y23537D02*
X8021D01*
X4580Y21358D02*
Y21527D01*
X4220Y21507D02*
Y21676D01*
X6118Y22217D02*
X6288D01*
X6238Y22337D02*
X8549D01*
X5060Y21329D02*
X6068Y22337D01*
X6139Y22577D02*
X8450D01*
X5870Y22817D02*
X6039D01*
X5820Y22937D02*
X5990D01*
X4340Y16480D02*
Y21457D01*
Y21627D02*
X5770Y23057D01*
X4940Y21209D02*
Y21378D01*
X4820Y21428D02*
X5969Y22577D01*
X4700Y21308D02*
Y21478D01*
X6288Y22217D02*
X8599D01*
X5180Y21279D02*
X6118Y22217D01*
X5841Y23297D02*
X8137D01*
X4100Y10565D02*
Y21556D01*
X3980Y21606D02*
Y21776D01*
X3860Y21656D02*
Y21826D01*
X4820Y16905D02*
Y21258D01*
X3860Y21826D02*
X5571Y23537D01*
X4460Y21407D02*
Y21577D01*
X6168Y22097D02*
X6338D01*
X5791Y23417D02*
X8087D01*
X6188Y22457D02*
X8499D01*
X4700Y16856D02*
Y21308D01*
X5940Y23057D02*
X8251D01*
X4700Y21478D02*
X5919Y22697D01*
X4940Y21378D02*
X6019Y22457D01*
X5420Y17154D02*
Y21010D01*
X6039Y22817D02*
X8350D01*
X5180Y17055D02*
Y21109D01*
X6089Y22697D02*
X8400D01*
X5300Y17104D02*
Y21059D01*
X4940Y16955D02*
Y21209D01*
X4220Y16162D02*
Y21507D01*
X5890Y23177D02*
X8187D01*
X5420Y21179D02*
X6218Y21977D01*
X5060Y21159D02*
Y21329D01*
X5571Y23537D02*
X5741D01*
X5721Y23177D02*
X5890D01*
X4220Y21676D02*
X5721Y23177D01*
X4820Y21258D02*
Y21428D01*
X4100Y21556D02*
Y21726D01*
X3980Y21776D02*
X5621Y23417D01*
X6218Y21977D02*
X6387D01*
X5060Y17005D02*
Y21159D01*
X4580Y16707D02*
Y21358D01*
Y21527D02*
X5870Y22817D01*
X4460Y21577D02*
X5820Y22937D01*
X3980Y8717D02*
Y21606D01*
X6387Y21977D02*
X8698D01*
X4340Y21457D02*
Y21627D01*
X5180Y21109D02*
Y21279D01*
X5990Y22937D02*
X8301D01*
X5300Y21229D02*
X6168Y22097D01*
X6338D02*
X8648D01*
X4100Y21726D02*
X5671Y23297D01*
X7978Y25300D02*
Y31348D01*
X7738Y25399D02*
Y31249D01*
X7618Y25449D02*
Y31199D01*
X7258Y25598D02*
Y31050D01*
X7018Y25697D02*
Y30950D01*
X6898Y25747D02*
Y30901D01*
X6778Y25797D02*
Y30851D01*
X6658Y25847D02*
Y30801D01*
X7378Y25548D02*
Y31099D01*
X7858Y25349D02*
Y31298D01*
X8218Y25200D02*
Y31447D01*
X7138Y25648D02*
Y31000D01*
X8098Y25250D02*
Y31398D01*
X8338Y25151D02*
Y31497D01*
X7498Y25499D02*
Y31149D01*
X5660Y17253D02*
Y21080D01*
X6317Y21737D02*
X8798D01*
X5660Y21080D02*
X6317Y21737D01*
X8580Y24096D02*
Y31486D01*
X8021Y23537D02*
X8580Y24096D01*
X6840Y30958D02*
X6898Y30901D01*
X5610Y32188D02*
X6760Y31038D01*
X6840Y30958D01*
X6520Y30939D02*
X6600Y30859D01*
X5807Y32161D02*
X6880Y31088D01*
X7000Y31138D02*
X7080Y31058D01*
X6988Y31828D02*
X7480Y31336D01*
X6004Y32134D02*
X7000Y31138D01*
X7800Y31356D02*
X7858Y31298D01*
X7579Y31747D02*
X7920Y31406D01*
X7240Y31237D02*
X7320Y31157D01*
X5217Y32242D02*
X6520Y30939D01*
X6201Y32107D02*
X7120Y31187D01*
X6600Y30859D02*
X6658Y30801D01*
X6960Y31008D02*
X7018Y30950D01*
X7920Y31406D02*
X7978Y31348D01*
X7776Y31720D02*
X8040Y31455D01*
X7480Y31336D02*
X7560Y31256D01*
X7618Y31199D01*
X7972Y31693D02*
X8160Y31505D01*
X8218Y31447D01*
X7440Y31207D02*
X7498Y31149D01*
X8040Y31455D02*
X8098Y31398D01*
X6880Y31088D02*
X6960Y31008D01*
X7360Y31287D02*
X7440Y31207D01*
X7120Y31187D02*
X7200Y31107D01*
X7382Y31774D02*
X7800Y31356D01*
X7185Y31801D02*
X7680Y31306D01*
X7320Y31157D02*
X7378Y31099D01*
X6640Y30989D02*
X6720Y30909D01*
X7200Y31107D02*
X7258Y31050D01*
X7680Y31306D02*
X7738Y31249D01*
X6720Y30909D02*
X6778Y30851D01*
X5413Y32215D02*
X6640Y30989D01*
X7080Y31058D02*
X7138Y31000D01*
X5020Y32269D02*
X6538Y30752D01*
Y25896D02*
Y30752D01*
X3170Y16040D02*
Y16062D01*
X4220Y16162D02*
X4310Y16071D01*
Y16040D02*
Y16071D01*
X4100Y10565D02*
X4724Y9941D01*
X3980Y8717D02*
X4724Y7972D01*
X4340Y16480D02*
X4500Y16320D01*
X3860Y6868D02*
X4724Y6004D01*
X4940Y16955D02*
X5589Y16306D01*
X5420Y17154D02*
X6069Y16505D01*
X5060Y17005D02*
X5709Y16356D01*
X4580Y16707D02*
X5034Y16253D01*
X4820Y16905D02*
X5469Y16257D01*
X4460Y16657D02*
X4724Y16393D01*
X5300Y17104D02*
X5949Y16456D01*
X5180Y17055D02*
X5829Y16406D01*
X4700Y16856D02*
X5349Y16207D01*
X8087Y23417D02*
X8700Y24030D01*
X8599Y22217D02*
X9900Y23518D01*
X8301Y22937D02*
X9180Y23816D01*
X8400Y22697D02*
X9420Y23717D01*
X8350Y22817D02*
X9300Y23767D01*
X8549Y22337D02*
X9780Y23568D01*
X8187Y23177D02*
X8940Y23930D01*
X8450Y22577D02*
X9540Y23667D01*
X8251Y23057D02*
X9060Y23866D01*
X8499Y22457D02*
X9660Y23618D01*
X8648Y22097D02*
X10020Y23469D01*
X8137Y23297D02*
X8820Y23980D01*
X8698Y21977D02*
X10140Y23419D01*
X8820Y23980D02*
Y24656D01*
X8700Y24030D02*
Y24706D01*
X8940Y23930D02*
Y24606D01*
X9300Y23767D02*
Y24457D01*
X9420Y23717D02*
Y24407D01*
X9180Y23816D02*
Y24507D01*
X9060Y23866D02*
Y24726D01*
X9780Y23568D02*
Y24141D01*
X9540Y23667D02*
Y24527D01*
X9660Y23618D02*
Y24190D01*
X10020Y23469D02*
Y24041D01*
X10140Y23419D02*
Y23991D01*
X9900Y23518D02*
Y30939D01*
X9660Y24190D02*
Y24308D01*
X10020Y24041D02*
Y30889D01*
X9780Y24141D02*
Y24258D01*
X10140Y23991D02*
Y30839D01*
X9780Y24258D02*
Y24428D01*
X9420Y24407D02*
Y24577D01*
X9180Y24507D02*
Y24677D01*
X8940Y24606D02*
Y24776D01*
X8820Y24656D02*
Y24826D01*
X8700Y24706D02*
Y24875D01*
X9300Y24457D02*
Y24627D01*
X9660Y24308D02*
Y24478D01*
X9420Y24577D02*
Y24875D01*
X8700D02*
Y25174D01*
X8820Y24826D02*
Y25124D01*
X9780Y24428D02*
Y24726D01*
X8940Y24776D02*
Y25074D01*
X9300Y24627D02*
Y24925D01*
X9660Y24478D02*
Y24776D01*
X9180Y24677D02*
Y24975D01*
X9060Y24726D02*
Y25024D01*
X9540Y24527D02*
Y24826D01*
X8940Y25074D02*
Y31336D01*
X9900Y30939D02*
X11122Y32161D01*
X9060Y25024D02*
Y31287D01*
X9547Y31774D01*
X9180Y24975D02*
Y31237D01*
X9420Y24875D02*
Y31138D01*
X9780Y30989D02*
X10925Y32134D01*
X9540Y31088D02*
X10532Y32079D01*
X9420Y31138D02*
X10138Y31855D01*
X9300Y31187D02*
X9941Y31828D01*
X9300Y24925D02*
Y31187D01*
X8580Y31486D02*
X8760Y31665D01*
X9540Y24826D02*
Y31088D01*
X8820Y25124D02*
Y31386D01*
X10020Y30889D02*
X11319Y32188D01*
X10140Y30839D02*
X11516Y32215D01*
X9180Y31237D02*
X9744Y31801D01*
X8700Y31436D02*
X8957Y31693D01*
X8760Y31665D02*
Y36122D01*
X8820Y31386D02*
X9154Y31720D01*
X8940Y31336D02*
X9350Y31747D01*
X9780Y24726D02*
Y30989D01*
X9660Y31038D02*
X10728Y32107D01*
X9660Y24776D02*
Y31038D01*
X8700Y25174D02*
Y31436D01*
X10380Y23319D02*
Y30740D01*
X8798Y21737D02*
X10380Y23319D01*
X5660Y17253D02*
X6714Y16200D01*
X10380Y30740D02*
X11909Y32269D01*
X5807Y32161D02*
Y36122D01*
X6201Y32107D02*
Y36122D01*
X7382Y31774D02*
Y36122D01*
X7185Y31801D02*
Y36122D01*
X6988Y31828D02*
Y36122D01*
X6004Y32134D02*
Y36122D01*
X7972Y31693D02*
Y36122D01*
X7776Y31720D02*
Y36122D01*
X7579Y31747D02*
Y36122D01*
X5217Y32242D02*
Y36122D01*
X5610Y32188D02*
Y36122D01*
X5020Y32269D02*
Y36122D01*
X5413Y32215D02*
Y36122D01*
X6926Y16200D02*
X7300Y15825D01*
X6693Y13878D02*
X7300Y14485D01*
Y15825D01*
X11909Y32269D02*
Y36122D01*
X6714Y16200D02*
X6926D01*
X5949Y8717D02*
Y16456D01*
Y8717D02*
X6693Y7972D01*
X11319Y32188D02*
Y36122D01*
X6069Y10565D02*
X6693Y9941D01*
X11516Y32215D02*
Y36122D01*
X6069Y10565D02*
Y16505D01*
X9154Y31720D02*
Y36122D01*
X9547Y31774D02*
Y36122D01*
X4724Y15846D02*
Y16393D01*
X9744Y31801D02*
Y36122D01*
X9350Y31747D02*
Y36122D01*
X5829Y6868D02*
X6693Y6004D01*
X11122Y32161D02*
Y36122D01*
X5829Y6868D02*
Y16406D01*
X5589Y3171D02*
X6693Y2067D01*
X5589Y3171D02*
Y16306D01*
X10728Y32107D02*
Y36122D01*
X10925Y32134D02*
Y36122D01*
X5709Y5020D02*
X6693Y4035D01*
X5709Y5020D02*
Y16356D01*
X4724Y4035D02*
X5349Y4660D01*
Y16207D01*
X4724Y2067D02*
X5469Y2811D01*
Y16257D01*
X8957Y31693D02*
Y36122D01*
X9941Y31828D02*
Y36122D01*
X787Y2067D02*
X1892Y3171D01*
Y16306D01*
X180Y15825D02*
X554Y16200D01*
X180Y14485D02*
X787Y13878D01*
X180Y14485D02*
Y15825D01*
X1412Y10565D02*
Y16505D01*
X1532Y8717D02*
Y16456D01*
X2980Y16320D02*
X3016D01*
X1652Y6868D02*
Y16406D01*
X2132Y4660D02*
Y16207D01*
X1772Y5020D02*
Y16356D01*
X2012Y2811D02*
Y16257D01*
X2756Y15846D02*
Y16393D01*
X787Y15846D02*
Y16051D01*
X554Y16200D02*
X767D01*
X2012Y2811D02*
X2756Y2067D01*
Y13878D02*
Y14436D01*
X2758Y14439D01*
X2756Y11909D02*
Y12467D01*
X2758Y12470D01*
X4724Y13878D02*
Y14436D01*
Y11909D02*
Y12467D01*
X6693Y11909D02*
Y12467D01*
X2132Y4660D02*
X2756Y4035D01*
X787Y7972D02*
X1532Y8717D01*
X787Y9941D02*
X1412Y10565D01*
X787Y6004D02*
X1652Y6868D01*
X787Y4035D02*
X1772Y5020D01*
X787Y12467D02*
X790Y12470D01*
X787Y11909D02*
Y12467D01*
M02*
