G04*
G04 #@! TF.GenerationSoftware,Altium Limited,Altium Designer,25.5.2 (35)*
G04*
G04 Layer_Color=128*
%FSLAX24Y24*%
%MOIN*%
G70*
G04*
G04 #@! TF.SameCoordinates,7914919B-8841-43C1-8237-0FAEFC545874*
G04*
G04*
G04 #@! TF.FilePolarity,Positive*
G04*
G01*
G75*
%ADD19C,0.0020*%
D19*
X8530Y32480D02*
X8590D01*
X8560Y32450D02*
Y32510D01*
X10310Y32620D02*
X10370D01*
X10340Y32590D02*
Y32650D01*
X8336Y32900D02*
X8396D01*
X8366Y32870D02*
Y32930D01*
X6570Y32780D02*
X6630D01*
X6600Y32750D02*
Y32810D01*
X3140Y16040D02*
X3200D01*
X3170Y16010D02*
Y16070D01*
X4280Y16040D02*
X4340D01*
X4310Y16010D02*
Y16070D01*
X4470Y16320D02*
X4530D01*
X4500Y16290D02*
Y16350D01*
X2416Y16253D02*
X2476D01*
X2446Y16223D02*
Y16283D01*
X2950Y16320D02*
X3010D01*
X2980Y16290D02*
Y16350D01*
X5004Y16253D02*
X5064D01*
X5034Y16223D02*
Y16283D01*
X2729Y14439D02*
X2788D01*
X2758Y14409D02*
Y14468D01*
X2729Y12470D02*
X2788D01*
X2758Y12440D02*
Y12500D01*
X4692Y14439D02*
X4752D01*
X4722Y14409D02*
Y14468D01*
X4692Y12470D02*
X4752D01*
X4722Y12440D02*
Y12500D01*
X6660Y12470D02*
X6720D01*
X6690Y12440D02*
Y12500D01*
X760Y12470D02*
X820D01*
X790Y12440D02*
Y12500D01*
M02*
