G04*
G04 #@! TF.GenerationSoftware,Altium Limited,Altium Designer,25.8.1 (18)*
G04*
G04 Layer_Color=128*
%FSLAX24Y24*%
%MOIN*%
G70*
G04*
G04 #@! TF.SameCoordinates,BE914EC3-FA8D-4840-B4FE-782DDA987089*
G04*
G04*
G04 #@! TF.FilePolarity,Positive*
G04*
G01*
G75*
%ADD86C,0.0020*%
D86*
X3508Y4000D02*
X4492D01*
X4000Y3508D02*
Y4492D01*
X3508Y77100D02*
X4492D01*
X4000Y76608D02*
Y77592D01*
X90568Y77100D02*
X91552D01*
X91060Y76608D02*
Y77592D01*
X90568Y4000D02*
X91552D01*
X91060Y3508D02*
Y4492D01*
X85248Y9810D02*
X86192D01*
X85720Y9338D02*
Y10282D01*
X73110Y13500D02*
X73510D01*
X73310Y13300D02*
Y13700D01*
X73110Y14500D02*
X73510D01*
X73310Y14300D02*
Y14700D01*
X73110Y15500D02*
X73510D01*
X73310Y15300D02*
Y15700D01*
X73110Y16500D02*
X73510D01*
X73310Y16300D02*
Y16700D01*
X73110Y17500D02*
X73510D01*
X73310Y17300D02*
Y17700D01*
X73110Y18500D02*
X73510D01*
X73310Y18300D02*
Y18700D01*
X73110Y19500D02*
X73510D01*
X73310Y19300D02*
Y19700D01*
X73110Y20500D02*
X73510D01*
X73310Y20300D02*
Y20700D01*
X74110Y20500D02*
X74510D01*
X74310Y20300D02*
Y20700D01*
X74110Y19500D02*
X74510D01*
X74310Y19300D02*
Y19700D01*
X74110Y18500D02*
X74510D01*
X74310Y18300D02*
Y18700D01*
X74110Y17500D02*
X74510D01*
X74310Y17300D02*
Y17700D01*
X74110Y16500D02*
X74510D01*
X74310Y16300D02*
Y16700D01*
X74110Y15500D02*
X74510D01*
X74310Y15300D02*
Y15700D01*
X74110Y14500D02*
X74510D01*
X74310Y14300D02*
Y14700D01*
X74110Y13500D02*
X74510D01*
X74310Y13300D02*
Y13700D01*
X76610Y13500D02*
X77010D01*
X76810Y13300D02*
Y13700D01*
X76610Y14500D02*
X77010D01*
X76810Y14300D02*
Y14700D01*
X76610Y15500D02*
X77010D01*
X76810Y15300D02*
Y15700D01*
X76610Y16500D02*
X77010D01*
X76810Y16300D02*
Y16700D01*
X76610Y17500D02*
X77010D01*
X76810Y17300D02*
Y17700D01*
X76610Y18500D02*
X77010D01*
X76810Y18300D02*
Y18700D01*
X76610Y19500D02*
X77010D01*
X76810Y19300D02*
Y19700D01*
X76610Y20500D02*
X77010D01*
X76810Y20300D02*
Y20700D01*
X77610Y20500D02*
X78010D01*
X77810Y20300D02*
Y20700D01*
X77610Y19500D02*
X78010D01*
X77810Y19300D02*
Y19700D01*
X77610Y18500D02*
X78010D01*
X77810Y18300D02*
Y18700D01*
X77610Y17500D02*
X78010D01*
X77810Y17300D02*
Y17700D01*
X77610Y16500D02*
X78010D01*
X77810Y16300D02*
Y16700D01*
X77610Y15500D02*
X78010D01*
X77810Y15300D02*
Y15700D01*
X77610Y14500D02*
X78010D01*
X77810Y14300D02*
Y14700D01*
X77610Y13500D02*
X78010D01*
X77810Y13300D02*
Y13700D01*
X80110Y13500D02*
X80510D01*
X80310Y13300D02*
Y13700D01*
X80110Y14500D02*
X80510D01*
X80310Y14300D02*
Y14700D01*
X80110Y15500D02*
X80510D01*
X80310Y15300D02*
Y15700D01*
X80110Y16500D02*
X80510D01*
X80310Y16300D02*
Y16700D01*
X80110Y17500D02*
X80510D01*
X80310Y17300D02*
Y17700D01*
X80110Y18500D02*
X80510D01*
X80310Y18300D02*
Y18700D01*
X80110Y19500D02*
X80510D01*
X80310Y19300D02*
Y19700D01*
X80110Y20500D02*
X80510D01*
X80310Y20300D02*
Y20700D01*
X81110Y20500D02*
X81510D01*
X81310Y20300D02*
Y20700D01*
X81110Y19500D02*
X81510D01*
X81310Y19300D02*
Y19700D01*
X81110Y18500D02*
X81510D01*
X81310Y18300D02*
Y18700D01*
X81110Y17500D02*
X81510D01*
X81310Y17300D02*
Y17700D01*
X81110Y16500D02*
X81510D01*
X81310Y16300D02*
Y16700D01*
X81110Y15500D02*
X81510D01*
X81310Y15300D02*
Y15700D01*
X81110Y14500D02*
X81510D01*
X81310Y14300D02*
Y14700D01*
X81110Y13500D02*
X81510D01*
X81310Y13300D02*
Y13700D01*
X83610Y13500D02*
X84010D01*
X83810Y13300D02*
Y13700D01*
X83610Y14500D02*
X84010D01*
X83810Y14300D02*
Y14700D01*
X83610Y15500D02*
X84010D01*
X83810Y15300D02*
Y15700D01*
X83610Y16500D02*
X84010D01*
X83810Y16300D02*
Y16700D01*
X83610Y17500D02*
X84010D01*
X83810Y17300D02*
Y17700D01*
X83610Y18500D02*
X84010D01*
X83810Y18300D02*
Y18700D01*
X83610Y19500D02*
X84010D01*
X83810Y19300D02*
Y19700D01*
X83610Y20500D02*
X84010D01*
X83810Y20300D02*
Y20700D01*
X84610Y20500D02*
X85010D01*
X84810Y20300D02*
Y20700D01*
X84610Y19500D02*
X85010D01*
X84810Y19300D02*
Y19700D01*
X84610Y18500D02*
X85010D01*
X84810Y18300D02*
Y18700D01*
X84610Y17500D02*
X85010D01*
X84810Y17300D02*
Y17700D01*
X84610Y16500D02*
X85010D01*
X84810Y16300D02*
Y16700D01*
X84610Y15500D02*
X85010D01*
X84810Y15300D02*
Y15700D01*
X84610Y14500D02*
X85010D01*
X84810Y14300D02*
Y14700D01*
X84610Y13500D02*
X85010D01*
X84810Y13300D02*
Y13700D01*
X73250Y9250D02*
X73370D01*
X73310Y9190D02*
Y9310D01*
X72000Y11000D02*
X72120D01*
X72060Y10940D02*
Y11060D01*
X72000Y20500D02*
X72120D01*
X72060Y20440D02*
Y20560D01*
X75500Y20500D02*
X75620D01*
X75560Y20440D02*
Y20560D01*
X79000Y20500D02*
X79120D01*
X79060Y20440D02*
Y20560D01*
X82500Y20500D02*
X82620D01*
X82560Y20440D02*
Y20560D01*
X86000Y20500D02*
X86120D01*
X86060Y20440D02*
Y20560D01*
X86000Y11500D02*
X86120D01*
X86060Y11440D02*
Y11560D01*
X85248Y26810D02*
X86192D01*
X85720Y26338D02*
Y27282D01*
X73110Y30500D02*
X73510D01*
X73310Y30300D02*
Y30700D01*
X73110Y31500D02*
X73510D01*
X73310Y31300D02*
Y31700D01*
X73110Y32500D02*
X73510D01*
X73310Y32300D02*
Y32700D01*
X73110Y33500D02*
X73510D01*
X73310Y33300D02*
Y33700D01*
X73110Y34500D02*
X73510D01*
X73310Y34300D02*
Y34700D01*
X73110Y35500D02*
X73510D01*
X73310Y35300D02*
Y35700D01*
X73110Y36500D02*
X73510D01*
X73310Y36300D02*
Y36700D01*
X73110Y37500D02*
X73510D01*
X73310Y37300D02*
Y37700D01*
X74110Y37500D02*
X74510D01*
X74310Y37300D02*
Y37700D01*
X74110Y36500D02*
X74510D01*
X74310Y36300D02*
Y36700D01*
X74110Y35500D02*
X74510D01*
X74310Y35300D02*
Y35700D01*
X74110Y34500D02*
X74510D01*
X74310Y34300D02*
Y34700D01*
X74110Y33500D02*
X74510D01*
X74310Y33300D02*
Y33700D01*
X74110Y32500D02*
X74510D01*
X74310Y32300D02*
Y32700D01*
X74110Y31500D02*
X74510D01*
X74310Y31300D02*
Y31700D01*
X74110Y30500D02*
X74510D01*
X74310Y30300D02*
Y30700D01*
X76610Y30500D02*
X77010D01*
X76810Y30300D02*
Y30700D01*
X76610Y31500D02*
X77010D01*
X76810Y31300D02*
Y31700D01*
X76610Y32500D02*
X77010D01*
X76810Y32300D02*
Y32700D01*
X76610Y33500D02*
X77010D01*
X76810Y33300D02*
Y33700D01*
X76610Y34500D02*
X77010D01*
X76810Y34300D02*
Y34700D01*
X76610Y35500D02*
X77010D01*
X76810Y35300D02*
Y35700D01*
X76610Y36500D02*
X77010D01*
X76810Y36300D02*
Y36700D01*
X76610Y37500D02*
X77010D01*
X76810Y37300D02*
Y37700D01*
X77610Y37500D02*
X78010D01*
X77810Y37300D02*
Y37700D01*
X77610Y36500D02*
X78010D01*
X77810Y36300D02*
Y36700D01*
X77610Y35500D02*
X78010D01*
X77810Y35300D02*
Y35700D01*
X77610Y34500D02*
X78010D01*
X77810Y34300D02*
Y34700D01*
X77610Y33500D02*
X78010D01*
X77810Y33300D02*
Y33700D01*
X77610Y32500D02*
X78010D01*
X77810Y32300D02*
Y32700D01*
X77610Y31500D02*
X78010D01*
X77810Y31300D02*
Y31700D01*
X77610Y30500D02*
X78010D01*
X77810Y30300D02*
Y30700D01*
X80110Y30500D02*
X80510D01*
X80310Y30300D02*
Y30700D01*
X80110Y31500D02*
X80510D01*
X80310Y31300D02*
Y31700D01*
X80110Y32500D02*
X80510D01*
X80310Y32300D02*
Y32700D01*
X80110Y33500D02*
X80510D01*
X80310Y33300D02*
Y33700D01*
X80110Y34500D02*
X80510D01*
X80310Y34300D02*
Y34700D01*
X80110Y35500D02*
X80510D01*
X80310Y35300D02*
Y35700D01*
X80110Y36500D02*
X80510D01*
X80310Y36300D02*
Y36700D01*
X80110Y37500D02*
X80510D01*
X80310Y37300D02*
Y37700D01*
X81110Y37500D02*
X81510D01*
X81310Y37300D02*
Y37700D01*
X81110Y36500D02*
X81510D01*
X81310Y36300D02*
Y36700D01*
X81110Y35500D02*
X81510D01*
X81310Y35300D02*
Y35700D01*
X81110Y34500D02*
X81510D01*
X81310Y34300D02*
Y34700D01*
X81110Y33500D02*
X81510D01*
X81310Y33300D02*
Y33700D01*
X81110Y32500D02*
X81510D01*
X81310Y32300D02*
Y32700D01*
X81110Y31500D02*
X81510D01*
X81310Y31300D02*
Y31700D01*
X81110Y30500D02*
X81510D01*
X81310Y30300D02*
Y30700D01*
X83610Y30500D02*
X84010D01*
X83810Y30300D02*
Y30700D01*
X83610Y31500D02*
X84010D01*
X83810Y31300D02*
Y31700D01*
X83610Y32500D02*
X84010D01*
X83810Y32300D02*
Y32700D01*
X83610Y33500D02*
X84010D01*
X83810Y33300D02*
Y33700D01*
X83610Y34500D02*
X84010D01*
X83810Y34300D02*
Y34700D01*
X83610Y35500D02*
X84010D01*
X83810Y35300D02*
Y35700D01*
X83610Y36500D02*
X84010D01*
X83810Y36300D02*
Y36700D01*
X83610Y37500D02*
X84010D01*
X83810Y37300D02*
Y37700D01*
X84610Y37500D02*
X85010D01*
X84810Y37300D02*
Y37700D01*
X84610Y36500D02*
X85010D01*
X84810Y36300D02*
Y36700D01*
X84610Y35500D02*
X85010D01*
X84810Y35300D02*
Y35700D01*
X84610Y34500D02*
X85010D01*
X84810Y34300D02*
Y34700D01*
X84610Y33500D02*
X85010D01*
X84810Y33300D02*
Y33700D01*
X84610Y32500D02*
X85010D01*
X84810Y32300D02*
Y32700D01*
X84610Y31500D02*
X85010D01*
X84810Y31300D02*
Y31700D01*
X84610Y30500D02*
X85010D01*
X84810Y30300D02*
Y30700D01*
X73250Y26250D02*
X73370D01*
X73310Y26190D02*
Y26310D01*
X72000Y28000D02*
X72120D01*
X72060Y27940D02*
Y28060D01*
X72000Y37500D02*
X72120D01*
X72060Y37440D02*
Y37560D01*
X75500Y37500D02*
X75620D01*
X75560Y37440D02*
Y37560D01*
X79000Y37500D02*
X79120D01*
X79060Y37440D02*
Y37560D01*
X82500Y37500D02*
X82620D01*
X82560Y37440D02*
Y37560D01*
X86000Y37500D02*
X86120D01*
X86060Y37440D02*
Y37560D01*
X86000Y28500D02*
X86120D01*
X86060Y28440D02*
Y28560D01*
X85248Y43910D02*
X86192D01*
X85720Y43438D02*
Y44382D01*
X73110Y47600D02*
X73510D01*
X73310Y47400D02*
Y47800D01*
X73110Y48600D02*
X73510D01*
X73310Y48400D02*
Y48800D01*
X73110Y49600D02*
X73510D01*
X73310Y49400D02*
Y49800D01*
X73110Y50600D02*
X73510D01*
X73310Y50400D02*
Y50800D01*
X73110Y51600D02*
X73510D01*
X73310Y51400D02*
Y51800D01*
X73110Y52600D02*
X73510D01*
X73310Y52400D02*
Y52800D01*
X73110Y53600D02*
X73510D01*
X73310Y53400D02*
Y53800D01*
X73110Y54600D02*
X73510D01*
X73310Y54400D02*
Y54800D01*
X74110Y54600D02*
X74510D01*
X74310Y54400D02*
Y54800D01*
X74110Y53600D02*
X74510D01*
X74310Y53400D02*
Y53800D01*
X74110Y52600D02*
X74510D01*
X74310Y52400D02*
Y52800D01*
X74110Y51600D02*
X74510D01*
X74310Y51400D02*
Y51800D01*
X74110Y50600D02*
X74510D01*
X74310Y50400D02*
Y50800D01*
X74110Y49600D02*
X74510D01*
X74310Y49400D02*
Y49800D01*
X74110Y48600D02*
X74510D01*
X74310Y48400D02*
Y48800D01*
X74110Y47600D02*
X74510D01*
X74310Y47400D02*
Y47800D01*
X76610Y47600D02*
X77010D01*
X76810Y47400D02*
Y47800D01*
X76610Y48600D02*
X77010D01*
X76810Y48400D02*
Y48800D01*
X76610Y49600D02*
X77010D01*
X76810Y49400D02*
Y49800D01*
X76610Y50600D02*
X77010D01*
X76810Y50400D02*
Y50800D01*
X76610Y51600D02*
X77010D01*
X76810Y51400D02*
Y51800D01*
X76610Y52600D02*
X77010D01*
X76810Y52400D02*
Y52800D01*
X76610Y53600D02*
X77010D01*
X76810Y53400D02*
Y53800D01*
X76610Y54600D02*
X77010D01*
X76810Y54400D02*
Y54800D01*
X77610Y54600D02*
X78010D01*
X77810Y54400D02*
Y54800D01*
X77610Y53600D02*
X78010D01*
X77810Y53400D02*
Y53800D01*
X77610Y52600D02*
X78010D01*
X77810Y52400D02*
Y52800D01*
X77610Y51600D02*
X78010D01*
X77810Y51400D02*
Y51800D01*
X77610Y50600D02*
X78010D01*
X77810Y50400D02*
Y50800D01*
X77610Y49600D02*
X78010D01*
X77810Y49400D02*
Y49800D01*
X77610Y48600D02*
X78010D01*
X77810Y48400D02*
Y48800D01*
X77610Y47600D02*
X78010D01*
X77810Y47400D02*
Y47800D01*
X80110Y47600D02*
X80510D01*
X80310Y47400D02*
Y47800D01*
X80110Y48600D02*
X80510D01*
X80310Y48400D02*
Y48800D01*
X80110Y49600D02*
X80510D01*
X80310Y49400D02*
Y49800D01*
X80110Y50600D02*
X80510D01*
X80310Y50400D02*
Y50800D01*
X80110Y51600D02*
X80510D01*
X80310Y51400D02*
Y51800D01*
X80110Y52600D02*
X80510D01*
X80310Y52400D02*
Y52800D01*
X80110Y53600D02*
X80510D01*
X80310Y53400D02*
Y53800D01*
X80110Y54600D02*
X80510D01*
X80310Y54400D02*
Y54800D01*
X81110Y54600D02*
X81510D01*
X81310Y54400D02*
Y54800D01*
X81110Y53600D02*
X81510D01*
X81310Y53400D02*
Y53800D01*
X81110Y52600D02*
X81510D01*
X81310Y52400D02*
Y52800D01*
X81110Y51600D02*
X81510D01*
X81310Y51400D02*
Y51800D01*
X81110Y50600D02*
X81510D01*
X81310Y50400D02*
Y50800D01*
X81110Y49600D02*
X81510D01*
X81310Y49400D02*
Y49800D01*
X81110Y48600D02*
X81510D01*
X81310Y48400D02*
Y48800D01*
X81110Y47600D02*
X81510D01*
X81310Y47400D02*
Y47800D01*
X83610Y47600D02*
X84010D01*
X83810Y47400D02*
Y47800D01*
X83610Y48600D02*
X84010D01*
X83810Y48400D02*
Y48800D01*
X83610Y49600D02*
X84010D01*
X83810Y49400D02*
Y49800D01*
X83610Y50600D02*
X84010D01*
X83810Y50400D02*
Y50800D01*
X83610Y51600D02*
X84010D01*
X83810Y51400D02*
Y51800D01*
X83610Y52600D02*
X84010D01*
X83810Y52400D02*
Y52800D01*
X83610Y53600D02*
X84010D01*
X83810Y53400D02*
Y53800D01*
X83610Y54600D02*
X84010D01*
X83810Y54400D02*
Y54800D01*
X84610Y54600D02*
X85010D01*
X84810Y54400D02*
Y54800D01*
X84610Y53600D02*
X85010D01*
X84810Y53400D02*
Y53800D01*
X84610Y52600D02*
X85010D01*
X84810Y52400D02*
Y52800D01*
X84610Y51600D02*
X85010D01*
X84810Y51400D02*
Y51800D01*
X84610Y50600D02*
X85010D01*
X84810Y50400D02*
Y50800D01*
X84610Y49600D02*
X85010D01*
X84810Y49400D02*
Y49800D01*
X84610Y48600D02*
X85010D01*
X84810Y48400D02*
Y48800D01*
X84610Y47600D02*
X85010D01*
X84810Y47400D02*
Y47800D01*
X73250Y43350D02*
X73370D01*
X73310Y43290D02*
Y43410D01*
X72000Y45100D02*
X72120D01*
X72060Y45040D02*
Y45160D01*
X72000Y54600D02*
X72120D01*
X72060Y54540D02*
Y54660D01*
X75500Y54600D02*
X75620D01*
X75560Y54540D02*
Y54660D01*
X79000Y54600D02*
X79120D01*
X79060Y54540D02*
Y54660D01*
X82500Y54600D02*
X82620D01*
X82560Y54540D02*
Y54660D01*
X86000Y54600D02*
X86120D01*
X86060Y54540D02*
Y54660D01*
X86000Y45600D02*
X86120D01*
X86060Y45540D02*
Y45660D01*
X85248Y60910D02*
X86192D01*
X85720Y60438D02*
Y61382D01*
X73110Y64600D02*
X73510D01*
X73310Y64400D02*
Y64800D01*
X73110Y65600D02*
X73510D01*
X73310Y65400D02*
Y65800D01*
X73110Y66600D02*
X73510D01*
X73310Y66400D02*
Y66800D01*
X73110Y67600D02*
X73510D01*
X73310Y67400D02*
Y67800D01*
X73110Y68600D02*
X73510D01*
X73310Y68400D02*
Y68800D01*
X73110Y69600D02*
X73510D01*
X73310Y69400D02*
Y69800D01*
X73110Y70600D02*
X73510D01*
X73310Y70400D02*
Y70800D01*
X73110Y71600D02*
X73510D01*
X73310Y71400D02*
Y71800D01*
X74110Y71600D02*
X74510D01*
X74310Y71400D02*
Y71800D01*
X74110Y70600D02*
X74510D01*
X74310Y70400D02*
Y70800D01*
X74110Y69600D02*
X74510D01*
X74310Y69400D02*
Y69800D01*
X74110Y68600D02*
X74510D01*
X74310Y68400D02*
Y68800D01*
X74110Y67600D02*
X74510D01*
X74310Y67400D02*
Y67800D01*
X74110Y66600D02*
X74510D01*
X74310Y66400D02*
Y66800D01*
X74110Y65600D02*
X74510D01*
X74310Y65400D02*
Y65800D01*
X74110Y64600D02*
X74510D01*
X74310Y64400D02*
Y64800D01*
X76610Y64600D02*
X77010D01*
X76810Y64400D02*
Y64800D01*
X76610Y65600D02*
X77010D01*
X76810Y65400D02*
Y65800D01*
X76610Y66600D02*
X77010D01*
X76810Y66400D02*
Y66800D01*
X76610Y67600D02*
X77010D01*
X76810Y67400D02*
Y67800D01*
X76610Y68600D02*
X77010D01*
X76810Y68400D02*
Y68800D01*
X76610Y69600D02*
X77010D01*
X76810Y69400D02*
Y69800D01*
X76610Y70600D02*
X77010D01*
X76810Y70400D02*
Y70800D01*
X76610Y71600D02*
X77010D01*
X76810Y71400D02*
Y71800D01*
X77610Y71600D02*
X78010D01*
X77810Y71400D02*
Y71800D01*
X77610Y70600D02*
X78010D01*
X77810Y70400D02*
Y70800D01*
X77610Y69600D02*
X78010D01*
X77810Y69400D02*
Y69800D01*
X77610Y68600D02*
X78010D01*
X77810Y68400D02*
Y68800D01*
X77610Y67600D02*
X78010D01*
X77810Y67400D02*
Y67800D01*
X77610Y66600D02*
X78010D01*
X77810Y66400D02*
Y66800D01*
X77610Y65600D02*
X78010D01*
X77810Y65400D02*
Y65800D01*
X77610Y64600D02*
X78010D01*
X77810Y64400D02*
Y64800D01*
X80110Y64600D02*
X80510D01*
X80310Y64400D02*
Y64800D01*
X80110Y65600D02*
X80510D01*
X80310Y65400D02*
Y65800D01*
X80110Y66600D02*
X80510D01*
X80310Y66400D02*
Y66800D01*
X80110Y67600D02*
X80510D01*
X80310Y67400D02*
Y67800D01*
X80110Y68600D02*
X80510D01*
X80310Y68400D02*
Y68800D01*
X80110Y69600D02*
X80510D01*
X80310Y69400D02*
Y69800D01*
X80110Y70600D02*
X80510D01*
X80310Y70400D02*
Y70800D01*
X80110Y71600D02*
X80510D01*
X80310Y71400D02*
Y71800D01*
X81110Y71600D02*
X81510D01*
X81310Y71400D02*
Y71800D01*
X81110Y70600D02*
X81510D01*
X81310Y70400D02*
Y70800D01*
X81110Y69600D02*
X81510D01*
X81310Y69400D02*
Y69800D01*
X81110Y68600D02*
X81510D01*
X81310Y68400D02*
Y68800D01*
X81110Y67600D02*
X81510D01*
X81310Y67400D02*
Y67800D01*
X81110Y66600D02*
X81510D01*
X81310Y66400D02*
Y66800D01*
X81110Y65600D02*
X81510D01*
X81310Y65400D02*
Y65800D01*
X81110Y64600D02*
X81510D01*
X81310Y64400D02*
Y64800D01*
X83610Y64600D02*
X84010D01*
X83810Y64400D02*
Y64800D01*
X83610Y65600D02*
X84010D01*
X83810Y65400D02*
Y65800D01*
X83610Y66600D02*
X84010D01*
X83810Y66400D02*
Y66800D01*
X83610Y67600D02*
X84010D01*
X83810Y67400D02*
Y67800D01*
X83610Y68600D02*
X84010D01*
X83810Y68400D02*
Y68800D01*
X83610Y69600D02*
X84010D01*
X83810Y69400D02*
Y69800D01*
X83610Y70600D02*
X84010D01*
X83810Y70400D02*
Y70800D01*
X83610Y71600D02*
X84010D01*
X83810Y71400D02*
Y71800D01*
X84610Y71600D02*
X85010D01*
X84810Y71400D02*
Y71800D01*
X84610Y70600D02*
X85010D01*
X84810Y70400D02*
Y70800D01*
X84610Y69600D02*
X85010D01*
X84810Y69400D02*
Y69800D01*
X84610Y68600D02*
X85010D01*
X84810Y68400D02*
Y68800D01*
X84610Y67600D02*
X85010D01*
X84810Y67400D02*
Y67800D01*
X84610Y66600D02*
X85010D01*
X84810Y66400D02*
Y66800D01*
X84610Y65600D02*
X85010D01*
X84810Y65400D02*
Y65800D01*
X84610Y64600D02*
X85010D01*
X84810Y64400D02*
Y64800D01*
X73250Y60350D02*
X73370D01*
X73310Y60290D02*
Y60410D01*
X72000Y62100D02*
X72120D01*
X72060Y62040D02*
Y62160D01*
X72000Y71600D02*
X72120D01*
X72060Y71540D02*
Y71660D01*
X75500Y71600D02*
X75620D01*
X75560Y71540D02*
Y71660D01*
X79000Y71600D02*
X79120D01*
X79060Y71540D02*
Y71660D01*
X82500Y71600D02*
X82620D01*
X82560Y71540D02*
Y71660D01*
X86000Y71600D02*
X86120D01*
X86060Y71540D02*
Y71660D01*
X86000Y62600D02*
X86120D01*
X86060Y62540D02*
Y62660D01*
X64904Y63948D02*
X65061D01*
X64982Y63869D02*
Y64026D01*
X65179Y64105D02*
X65337D01*
X65258Y64026D02*
Y64184D01*
X65179Y64420D02*
X65337D01*
X65258Y64341D02*
Y64499D01*
X64904Y64578D02*
X65061D01*
X64982Y64499D02*
Y64656D01*
X65179Y64735D02*
X65337D01*
X65258Y64656D02*
Y64814D01*
X64904Y64893D02*
X65061D01*
X64982Y64814D02*
Y64971D01*
X64904Y65207D02*
X65061D01*
X64982Y65129D02*
Y65286D01*
X64904Y65522D02*
X65061D01*
X64982Y65444D02*
Y65601D01*
X65179Y65365D02*
X65337D01*
X65258Y65286D02*
Y65444D01*
X65179Y65680D02*
X65337D01*
X65258Y65601D02*
Y65759D01*
X65179Y65995D02*
X65337D01*
X65258Y65916D02*
Y66074D01*
X64904Y66152D02*
X65061D01*
X64982Y66074D02*
Y66231D01*
X66730Y66818D02*
X67163D01*
X66947Y66601D02*
Y67034D01*
X66730Y63282D02*
X67163D01*
X66947Y63066D02*
Y63499D01*
X65002Y66676D02*
X65435D01*
X65219Y66459D02*
Y66893D01*
X65002Y63424D02*
X65435D01*
X65219Y63207D02*
Y63641D01*
X64598Y66467D02*
X64854D01*
X64726Y66339D02*
Y66595D01*
X64598Y63633D02*
X64854D01*
X64726Y63505D02*
Y63761D01*
X64904Y56948D02*
X65061D01*
X64982Y56869D02*
Y57026D01*
X65179Y57105D02*
X65337D01*
X65258Y57026D02*
Y57184D01*
X65179Y57420D02*
X65337D01*
X65258Y57341D02*
Y57499D01*
X64904Y57578D02*
X65061D01*
X64982Y57499D02*
Y57656D01*
X65179Y57735D02*
X65337D01*
X65258Y57656D02*
Y57814D01*
X64904Y57893D02*
X65061D01*
X64982Y57814D02*
Y57971D01*
X64904Y58207D02*
X65061D01*
X64982Y58129D02*
Y58286D01*
X64904Y58522D02*
X65061D01*
X64982Y58444D02*
Y58601D01*
X65179Y58365D02*
X65337D01*
X65258Y58286D02*
Y58444D01*
X65179Y58680D02*
X65337D01*
X65258Y58601D02*
Y58759D01*
X65179Y58995D02*
X65337D01*
X65258Y58916D02*
Y59074D01*
X64904Y59152D02*
X65061D01*
X64982Y59074D02*
Y59231D01*
X66730Y59818D02*
X67163D01*
X66947Y59601D02*
Y60034D01*
X66730Y56282D02*
X67163D01*
X66947Y56066D02*
Y56499D01*
X65002Y59676D02*
X65435D01*
X65219Y59459D02*
Y59893D01*
X65002Y56424D02*
X65435D01*
X65219Y56207D02*
Y56641D01*
X64598Y59467D02*
X64854D01*
X64726Y59339D02*
Y59595D01*
X64598Y56633D02*
X64854D01*
X64726Y56505D02*
Y56761D01*
X64904Y49948D02*
X65061D01*
X64982Y49869D02*
Y50026D01*
X65179Y50105D02*
X65337D01*
X65258Y50026D02*
Y50184D01*
X65179Y50420D02*
X65337D01*
X65258Y50341D02*
Y50499D01*
X64904Y50578D02*
X65061D01*
X64982Y50499D02*
Y50656D01*
X65179Y50735D02*
X65337D01*
X65258Y50656D02*
Y50814D01*
X64904Y50893D02*
X65061D01*
X64982Y50814D02*
Y50971D01*
X64904Y51207D02*
X65061D01*
X64982Y51129D02*
Y51286D01*
X64904Y51522D02*
X65061D01*
X64982Y51444D02*
Y51601D01*
X65179Y51365D02*
X65337D01*
X65258Y51286D02*
Y51444D01*
X65179Y51680D02*
X65337D01*
X65258Y51601D02*
Y51759D01*
X65179Y51995D02*
X65337D01*
X65258Y51916D02*
Y52074D01*
X64904Y52152D02*
X65061D01*
X64982Y52074D02*
Y52231D01*
X66730Y52818D02*
X67163D01*
X66947Y52601D02*
Y53034D01*
X66730Y49282D02*
X67163D01*
X66947Y49066D02*
Y49499D01*
X65002Y52676D02*
X65435D01*
X65219Y52459D02*
Y52893D01*
X65002Y49424D02*
X65435D01*
X65219Y49207D02*
Y49641D01*
X64598Y52467D02*
X64854D01*
X64726Y52339D02*
Y52595D01*
X64598Y49633D02*
X64854D01*
X64726Y49505D02*
Y49761D01*
X64904Y42948D02*
X65061D01*
X64982Y42869D02*
Y43026D01*
X65179Y43105D02*
X65337D01*
X65258Y43026D02*
Y43184D01*
X65179Y43420D02*
X65337D01*
X65258Y43341D02*
Y43499D01*
X64904Y43578D02*
X65061D01*
X64982Y43499D02*
Y43656D01*
X65179Y43735D02*
X65337D01*
X65258Y43656D02*
Y43814D01*
X64904Y43893D02*
X65061D01*
X64982Y43814D02*
Y43971D01*
X64904Y44207D02*
X65061D01*
X64982Y44129D02*
Y44286D01*
X64904Y44522D02*
X65061D01*
X64982Y44444D02*
Y44601D01*
X65179Y44365D02*
X65337D01*
X65258Y44286D02*
Y44444D01*
X65179Y44680D02*
X65337D01*
X65258Y44601D02*
Y44759D01*
X65179Y44995D02*
X65337D01*
X65258Y44916D02*
Y45074D01*
X64904Y45152D02*
X65061D01*
X64982Y45074D02*
Y45231D01*
X66730Y45818D02*
X67163D01*
X66947Y45601D02*
Y46034D01*
X66730Y42282D02*
X67163D01*
X66947Y42066D02*
Y42499D01*
X65002Y45676D02*
X65435D01*
X65219Y45459D02*
Y45893D01*
X65002Y42424D02*
X65435D01*
X65219Y42207D02*
Y42641D01*
X64598Y45467D02*
X64854D01*
X64726Y45339D02*
Y45595D01*
X64598Y42633D02*
X64854D01*
X64726Y42505D02*
Y42761D01*
X64904Y35948D02*
X65061D01*
X64982Y35869D02*
Y36026D01*
X65179Y36105D02*
X65337D01*
X65258Y36026D02*
Y36184D01*
X65179Y36420D02*
X65337D01*
X65258Y36341D02*
Y36499D01*
X64904Y36578D02*
X65061D01*
X64982Y36499D02*
Y36656D01*
X65179Y36735D02*
X65337D01*
X65258Y36656D02*
Y36814D01*
X64904Y36893D02*
X65061D01*
X64982Y36814D02*
Y36971D01*
X64904Y37207D02*
X65061D01*
X64982Y37129D02*
Y37286D01*
X64904Y37522D02*
X65061D01*
X64982Y37444D02*
Y37601D01*
X65179Y37365D02*
X65337D01*
X65258Y37286D02*
Y37444D01*
X65179Y37680D02*
X65337D01*
X65258Y37601D02*
Y37759D01*
X65179Y37995D02*
X65337D01*
X65258Y37916D02*
Y38074D01*
X64904Y38152D02*
X65061D01*
X64982Y38074D02*
Y38231D01*
X66730Y38818D02*
X67163D01*
X66947Y38601D02*
Y39034D01*
X66730Y35282D02*
X67163D01*
X66947Y35066D02*
Y35499D01*
X65002Y38676D02*
X65435D01*
X65219Y38459D02*
Y38893D01*
X65002Y35424D02*
X65435D01*
X65219Y35207D02*
Y35641D01*
X64598Y38467D02*
X64854D01*
X64726Y38339D02*
Y38595D01*
X64598Y35633D02*
X64854D01*
X64726Y35505D02*
Y35761D01*
X64904Y28948D02*
X65061D01*
X64982Y28869D02*
Y29026D01*
X65179Y29105D02*
X65337D01*
X65258Y29026D02*
Y29184D01*
X65179Y29420D02*
X65337D01*
X65258Y29341D02*
Y29499D01*
X64904Y29578D02*
X65061D01*
X64982Y29499D02*
Y29656D01*
X65179Y29735D02*
X65337D01*
X65258Y29656D02*
Y29814D01*
X64904Y29893D02*
X65061D01*
X64982Y29814D02*
Y29971D01*
X64904Y30207D02*
X65061D01*
X64982Y30129D02*
Y30286D01*
X64904Y30522D02*
X65061D01*
X64982Y30444D02*
Y30601D01*
X65179Y30365D02*
X65337D01*
X65258Y30286D02*
Y30444D01*
X65179Y30680D02*
X65337D01*
X65258Y30601D02*
Y30759D01*
X65179Y30995D02*
X65337D01*
X65258Y30916D02*
Y31074D01*
X64904Y31152D02*
X65061D01*
X64982Y31074D02*
Y31231D01*
X66730Y31818D02*
X67163D01*
X66947Y31601D02*
Y32034D01*
X66730Y28282D02*
X67163D01*
X66947Y28066D02*
Y28499D01*
X65002Y31676D02*
X65435D01*
X65219Y31459D02*
Y31893D01*
X65002Y28424D02*
X65435D01*
X65219Y28207D02*
Y28641D01*
X64598Y31467D02*
X64854D01*
X64726Y31339D02*
Y31595D01*
X64598Y28633D02*
X64854D01*
X64726Y28505D02*
Y28761D01*
X64904Y21948D02*
X65061D01*
X64982Y21869D02*
Y22026D01*
X65179Y22105D02*
X65337D01*
X65258Y22026D02*
Y22184D01*
X65179Y22420D02*
X65337D01*
X65258Y22341D02*
Y22499D01*
X64904Y22578D02*
X65061D01*
X64982Y22499D02*
Y22656D01*
X65179Y22735D02*
X65337D01*
X65258Y22656D02*
Y22814D01*
X64904Y22893D02*
X65061D01*
X64982Y22814D02*
Y22971D01*
X64904Y23207D02*
X65061D01*
X64982Y23129D02*
Y23286D01*
X64904Y23522D02*
X65061D01*
X64982Y23444D02*
Y23601D01*
X65179Y23365D02*
X65337D01*
X65258Y23286D02*
Y23444D01*
X65179Y23680D02*
X65337D01*
X65258Y23601D02*
Y23759D01*
X65179Y23995D02*
X65337D01*
X65258Y23916D02*
Y24074D01*
X64904Y24152D02*
X65061D01*
X64982Y24074D02*
Y24231D01*
X66730Y24818D02*
X67163D01*
X66947Y24601D02*
Y25034D01*
X66730Y21282D02*
X67163D01*
X66947Y21066D02*
Y21499D01*
X65002Y24676D02*
X65435D01*
X65219Y24459D02*
Y24893D01*
X65002Y21424D02*
X65435D01*
X65219Y21207D02*
Y21641D01*
X64598Y24467D02*
X64854D01*
X64726Y24339D02*
Y24595D01*
X64598Y21633D02*
X64854D01*
X64726Y21505D02*
Y21761D01*
X64904Y14948D02*
X65061D01*
X64982Y14869D02*
Y15026D01*
X65179Y15105D02*
X65337D01*
X65258Y15026D02*
Y15184D01*
X65179Y15420D02*
X65337D01*
X65258Y15341D02*
Y15499D01*
X64904Y15578D02*
X65061D01*
X64982Y15499D02*
Y15656D01*
X65179Y15735D02*
X65337D01*
X65258Y15656D02*
Y15814D01*
X64904Y15893D02*
X65061D01*
X64982Y15814D02*
Y15971D01*
X64904Y16207D02*
X65061D01*
X64982Y16129D02*
Y16286D01*
X64904Y16522D02*
X65061D01*
X64982Y16444D02*
Y16601D01*
X65179Y16365D02*
X65337D01*
X65258Y16286D02*
Y16444D01*
X65179Y16680D02*
X65337D01*
X65258Y16601D02*
Y16759D01*
X65179Y16995D02*
X65337D01*
X65258Y16916D02*
Y17074D01*
X64904Y17152D02*
X65061D01*
X64982Y17074D02*
Y17231D01*
X66730Y17818D02*
X67163D01*
X66947Y17601D02*
Y18034D01*
X66730Y14282D02*
X67163D01*
X66947Y14066D02*
Y14499D01*
X65002Y17676D02*
X65435D01*
X65219Y17459D02*
Y17893D01*
X65002Y14424D02*
X65435D01*
X65219Y14207D02*
Y14641D01*
X64598Y17467D02*
X64854D01*
X64726Y17339D02*
Y17595D01*
X64598Y14633D02*
X64854D01*
X64726Y14505D02*
Y14761D01*
X12181Y63200D02*
X12575D01*
X12378Y63003D02*
Y63396D01*
X11000Y65050D02*
X11394D01*
X11197Y64853D02*
Y65247D01*
X13362Y65050D02*
X13756D01*
X13559Y64853D02*
Y65247D01*
X36196Y33475D02*
X36596D01*
X36396Y33275D02*
Y33675D01*
X22622Y33475D02*
X23022D01*
X22822Y33275D02*
Y33675D01*
X12795Y11550D02*
X13205D01*
X13000Y11345D02*
Y11755D01*
X12795Y10550D02*
X13205D01*
X13000Y10345D02*
Y10755D01*
X13795Y11550D02*
X14205D01*
X14000Y11345D02*
Y11755D01*
X13795Y10550D02*
X14205D01*
X14000Y10345D02*
Y10755D01*
X14795Y11550D02*
X15205D01*
X15000Y11345D02*
Y11755D01*
X14795Y10550D02*
X15205D01*
X15000Y10345D02*
Y10755D01*
X15795Y11550D02*
X16205D01*
X16000Y11345D02*
Y11755D01*
X15795Y10550D02*
X16205D01*
X16000Y10345D02*
Y10755D01*
X16795Y11550D02*
X17205D01*
X17000Y11345D02*
Y11755D01*
X16795Y10550D02*
X17205D01*
X17000Y10345D02*
Y10755D01*
X17795Y11550D02*
X18205D01*
X18000Y11345D02*
Y11755D01*
X17795Y10550D02*
X18205D01*
X18000Y10345D02*
Y10755D01*
X18795Y11550D02*
X19205D01*
X19000Y11345D02*
Y11755D01*
X18795Y10550D02*
X19205D01*
X19000Y10345D02*
Y10755D01*
X19795Y11550D02*
X20205D01*
X20000Y11345D02*
Y11755D01*
X19795Y10550D02*
X20205D01*
X20000Y10345D02*
Y10755D01*
X20795Y11550D02*
X21205D01*
X21000Y11345D02*
Y11755D01*
X20795Y10550D02*
X21205D01*
X21000Y10345D02*
Y10755D01*
X21795Y11550D02*
X22205D01*
X22000Y11345D02*
Y11755D01*
X21795Y10550D02*
X22205D01*
X22000Y10345D02*
Y10755D01*
X22795Y11550D02*
X23205D01*
X23000Y11345D02*
Y11755D01*
X22795Y10550D02*
X23205D01*
X23000Y10345D02*
Y10755D01*
X23795Y11550D02*
X24205D01*
X24000Y11345D02*
Y11755D01*
X23795Y10550D02*
X24205D01*
X24000Y10345D02*
Y10755D01*
X24795Y11550D02*
X25205D01*
X25000Y11345D02*
Y11755D01*
X24795Y10550D02*
X25205D01*
X25000Y10345D02*
Y10755D01*
X25795Y11550D02*
X26205D01*
X26000Y11345D02*
Y11755D01*
X25795Y10550D02*
X26205D01*
X26000Y10345D02*
Y10755D01*
X26795Y11550D02*
X27205D01*
X27000Y11345D02*
Y11755D01*
X26795Y10550D02*
X27205D01*
X27000Y10345D02*
Y10755D01*
X27795Y11550D02*
X28205D01*
X28000Y11345D02*
Y11755D01*
X27795Y10550D02*
X28205D01*
X28000Y10345D02*
Y10755D01*
X28795Y11550D02*
X29205D01*
X29000Y11345D02*
Y11755D01*
X28795Y10550D02*
X29205D01*
X29000Y10345D02*
Y10755D01*
X29795Y11550D02*
X30205D01*
X30000Y11345D02*
Y11755D01*
X29795Y10550D02*
X30205D01*
X30000Y10345D02*
Y10755D01*
X30795Y11550D02*
X31205D01*
X31000Y11345D02*
Y11755D01*
X30795Y10550D02*
X31205D01*
X31000Y10345D02*
Y10755D01*
X31795Y11550D02*
X32205D01*
X32000Y11345D02*
Y11755D01*
X31795Y10550D02*
X32205D01*
X32000Y10345D02*
Y10755D01*
X12795Y20550D02*
X13205D01*
X13000Y20345D02*
Y20755D01*
X12795Y19550D02*
X13205D01*
X13000Y19345D02*
Y19755D01*
X13795Y20550D02*
X14205D01*
X14000Y20345D02*
Y20755D01*
X13795Y19550D02*
X14205D01*
X14000Y19345D02*
Y19755D01*
X14795Y20550D02*
X15205D01*
X15000Y20345D02*
Y20755D01*
X14795Y19550D02*
X15205D01*
X15000Y19345D02*
Y19755D01*
X15795Y20550D02*
X16205D01*
X16000Y20345D02*
Y20755D01*
X15795Y19550D02*
X16205D01*
X16000Y19345D02*
Y19755D01*
X16795Y20550D02*
X17205D01*
X17000Y20345D02*
Y20755D01*
X16795Y19550D02*
X17205D01*
X17000Y19345D02*
Y19755D01*
X17795Y20550D02*
X18205D01*
X18000Y20345D02*
Y20755D01*
X17795Y19550D02*
X18205D01*
X18000Y19345D02*
Y19755D01*
X18795Y20550D02*
X19205D01*
X19000Y20345D02*
Y20755D01*
X18795Y19550D02*
X19205D01*
X19000Y19345D02*
Y19755D01*
X19795Y20550D02*
X20205D01*
X20000Y20345D02*
Y20755D01*
X19795Y19550D02*
X20205D01*
X20000Y19345D02*
Y19755D01*
X20795Y20550D02*
X21205D01*
X21000Y20345D02*
Y20755D01*
X20795Y19550D02*
X21205D01*
X21000Y19345D02*
Y19755D01*
X21795Y20550D02*
X22205D01*
X22000Y20345D02*
Y20755D01*
X21795Y19550D02*
X22205D01*
X22000Y19345D02*
Y19755D01*
X22795Y20550D02*
X23205D01*
X23000Y20345D02*
Y20755D01*
X22795Y19550D02*
X23205D01*
X23000Y19345D02*
Y19755D01*
X23795Y20550D02*
X24205D01*
X24000Y20345D02*
Y20755D01*
X23795Y19550D02*
X24205D01*
X24000Y19345D02*
Y19755D01*
X24795Y20550D02*
X25205D01*
X25000Y20345D02*
Y20755D01*
X24795Y19550D02*
X25205D01*
X25000Y19345D02*
Y19755D01*
X25795Y20550D02*
X26205D01*
X26000Y20345D02*
Y20755D01*
X25795Y19550D02*
X26205D01*
X26000Y19345D02*
Y19755D01*
X26795Y20550D02*
X27205D01*
X27000Y20345D02*
Y20755D01*
X26795Y19550D02*
X27205D01*
X27000Y19345D02*
Y19755D01*
X27795Y20550D02*
X28205D01*
X28000Y20345D02*
Y20755D01*
X27795Y19550D02*
X28205D01*
X28000Y19345D02*
Y19755D01*
X28795Y20550D02*
X29205D01*
X29000Y20345D02*
Y20755D01*
X28795Y19550D02*
X29205D01*
X29000Y19345D02*
Y19755D01*
X29795Y20550D02*
X30205D01*
X30000Y20345D02*
Y20755D01*
X29795Y19550D02*
X30205D01*
X30000Y19345D02*
Y19755D01*
X30795Y20550D02*
X31205D01*
X31000Y20345D02*
Y20755D01*
X30795Y19550D02*
X31205D01*
X31000Y19345D02*
Y19755D01*
X31795Y20550D02*
X32205D01*
X32000Y20345D02*
Y20755D01*
X31795Y19550D02*
X32205D01*
X32000Y19345D02*
Y19755D01*
X12795Y58550D02*
X13205D01*
X13000Y58345D02*
Y58755D01*
X12795Y57550D02*
X13205D01*
X13000Y57345D02*
Y57755D01*
X13795Y58550D02*
X14205D01*
X14000Y58345D02*
Y58755D01*
X13795Y57550D02*
X14205D01*
X14000Y57345D02*
Y57755D01*
X14795Y58550D02*
X15205D01*
X15000Y58345D02*
Y58755D01*
X14795Y57550D02*
X15205D01*
X15000Y57345D02*
Y57755D01*
X15795Y58550D02*
X16205D01*
X16000Y58345D02*
Y58755D01*
X15795Y57550D02*
X16205D01*
X16000Y57345D02*
Y57755D01*
X16795Y58550D02*
X17205D01*
X17000Y58345D02*
Y58755D01*
X16795Y57550D02*
X17205D01*
X17000Y57345D02*
Y57755D01*
X17795Y58550D02*
X18205D01*
X18000Y58345D02*
Y58755D01*
X17795Y57550D02*
X18205D01*
X18000Y57345D02*
Y57755D01*
X18795Y58550D02*
X19205D01*
X19000Y58345D02*
Y58755D01*
X18795Y57550D02*
X19205D01*
X19000Y57345D02*
Y57755D01*
X19795Y58550D02*
X20205D01*
X20000Y58345D02*
Y58755D01*
X19795Y57550D02*
X20205D01*
X20000Y57345D02*
Y57755D01*
X20795Y58550D02*
X21205D01*
X21000Y58345D02*
Y58755D01*
X20795Y57550D02*
X21205D01*
X21000Y57345D02*
Y57755D01*
X21795Y58550D02*
X22205D01*
X22000Y58345D02*
Y58755D01*
X21795Y57550D02*
X22205D01*
X22000Y57345D02*
Y57755D01*
X22795Y58550D02*
X23205D01*
X23000Y58345D02*
Y58755D01*
X22795Y57550D02*
X23205D01*
X23000Y57345D02*
Y57755D01*
X23795Y58550D02*
X24205D01*
X24000Y58345D02*
Y58755D01*
X23795Y57550D02*
X24205D01*
X24000Y57345D02*
Y57755D01*
X24795Y58550D02*
X25205D01*
X25000Y58345D02*
Y58755D01*
X24795Y57550D02*
X25205D01*
X25000Y57345D02*
Y57755D01*
X25795Y58550D02*
X26205D01*
X26000Y58345D02*
Y58755D01*
X25795Y57550D02*
X26205D01*
X26000Y57345D02*
Y57755D01*
X26795Y58550D02*
X27205D01*
X27000Y58345D02*
Y58755D01*
X26795Y57550D02*
X27205D01*
X27000Y57345D02*
Y57755D01*
X27795Y58550D02*
X28205D01*
X28000Y58345D02*
Y58755D01*
X27795Y57550D02*
X28205D01*
X28000Y57345D02*
Y57755D01*
X28795Y58550D02*
X29205D01*
X29000Y58345D02*
Y58755D01*
X28795Y57550D02*
X29205D01*
X29000Y57345D02*
Y57755D01*
X29795Y58550D02*
X30205D01*
X30000Y58345D02*
Y58755D01*
X29795Y57550D02*
X30205D01*
X30000Y57345D02*
Y57755D01*
X30795Y58550D02*
X31205D01*
X31000Y58345D02*
Y58755D01*
X30795Y57550D02*
X31205D01*
X31000Y57345D02*
Y57755D01*
X31795Y58550D02*
X32205D01*
X32000Y58345D02*
Y58755D01*
X31795Y57550D02*
X32205D01*
X32000Y57345D02*
Y57755D01*
X36196Y49223D02*
X36596D01*
X36396Y49023D02*
Y49423D01*
X22622Y49223D02*
X23022D01*
X22822Y49023D02*
Y49423D01*
X64808Y70600D02*
X65792D01*
X65300Y70108D02*
Y71092D01*
X10008Y70600D02*
X10992D01*
X10500Y70108D02*
Y71092D01*
X10808Y49211D02*
X11792D01*
X11300Y48719D02*
Y49704D01*
X37973Y49211D02*
X38957D01*
X38465Y48719D02*
Y49704D01*
X37973Y31889D02*
X38957D01*
X38465Y31396D02*
Y32381D01*
X10808Y31889D02*
X11792D01*
X11300Y31396D02*
Y32381D01*
X64808Y10600D02*
X65792D01*
X65300Y10108D02*
Y11092D01*
X10008Y10600D02*
X10992D01*
X10500Y10108D02*
Y11092D01*
X51490Y52240D02*
X51610D01*
X51550Y52180D02*
Y52300D01*
X48566Y48078D02*
X48686D01*
X48626Y48018D02*
Y48138D01*
X43690Y43150D02*
X43810D01*
X43750Y43090D02*
Y43210D01*
X38570Y38100D02*
X38690D01*
X38630Y38040D02*
Y38160D01*
X35840Y39650D02*
X35960D01*
X35900Y39590D02*
Y39710D01*
X40840Y44700D02*
X40960D01*
X40900Y44640D02*
Y44760D01*
X46470Y50331D02*
X46590D01*
X46530Y50271D02*
Y50391D01*
X51890Y20334D02*
X52010D01*
X51950Y20274D02*
Y20394D01*
X64446Y60700D02*
X64566D01*
X64506Y60640D02*
Y60760D01*
X64446Y53700D02*
X64566D01*
X64506Y53640D02*
Y53760D01*
X64446Y46700D02*
X64566D01*
X64506Y46640D02*
Y46760D01*
X64446Y39700D02*
X64566D01*
X64506Y39640D02*
Y39760D01*
X64446Y32700D02*
X64566D01*
X64506Y32640D02*
Y32760D01*
X64446Y25700D02*
X64566D01*
X64506Y25640D02*
Y25760D01*
X10440Y16190D02*
X10560D01*
X10500Y16130D02*
Y16250D01*
X10440Y27050D02*
X10560D01*
X10500Y26990D02*
Y27110D01*
X34650Y10050D02*
X34770D01*
X34710Y9990D02*
Y10110D01*
X41410Y10050D02*
X41530D01*
X41470Y9990D02*
Y10110D01*
X50240Y10050D02*
X50360D01*
X50300Y9990D02*
Y10110D01*
X56900Y10050D02*
X57020D01*
X56960Y9990D02*
Y10110D01*
X62470Y10050D02*
X62590D01*
X62530Y9990D02*
Y10110D01*
X49540Y19310D02*
X49660D01*
X49600Y19250D02*
Y19370D01*
X44040Y22350D02*
X44160D01*
X44100Y22290D02*
Y22410D01*
X49640Y26850D02*
X49760D01*
X49700Y26790D02*
Y26910D01*
X45562Y28550D02*
X45682D01*
X45622Y28490D02*
Y28610D01*
X50540Y33126D02*
X50660D01*
X50600Y33066D02*
Y33186D01*
X41790Y35546D02*
X41910D01*
X41850Y35486D02*
Y35606D01*
X45340Y38530D02*
X45460D01*
X45400Y38470D02*
Y38590D01*
X49824Y40800D02*
X49944D01*
X49884Y40740D02*
Y40860D01*
X49540Y56950D02*
X49660D01*
X49600Y56890D02*
Y57010D01*
X48350Y65550D02*
X48470D01*
X48410Y65490D02*
Y65610D01*
X39170Y65550D02*
X39290D01*
X39230Y65490D02*
Y65610D01*
X43640Y60550D02*
X43760D01*
X43700Y60490D02*
Y60610D01*
X38440Y55550D02*
X38560D01*
X38500Y55490D02*
Y55610D01*
X43640Y51550D02*
X43760D01*
X43700Y51490D02*
Y51610D01*
X37770Y46110D02*
X37890D01*
X37830Y46050D02*
Y46170D01*
X34280Y42430D02*
X34400D01*
X34340Y42370D02*
Y42490D01*
X29392Y38450D02*
X29512D01*
X29452Y38390D02*
Y38510D01*
X26120Y36300D02*
X26240D01*
X26180Y36240D02*
Y36360D01*
X10440Y36920D02*
X10560D01*
X10500Y36860D02*
Y36980D01*
X10440Y46150D02*
X10560D01*
X10500Y46090D02*
Y46210D01*
X17290Y46150D02*
X17410D01*
X17350Y46090D02*
Y46210D01*
X19340Y51450D02*
X19460D01*
X19400Y51390D02*
Y51510D01*
X13240Y53150D02*
X13360D01*
X13300Y53090D02*
Y53210D01*
X10440Y58130D02*
X10560D01*
X10500Y58070D02*
Y58190D01*
X29707Y61050D02*
X29827D01*
X29767Y60990D02*
Y61110D01*
X23180Y61050D02*
X23300D01*
X23240Y60990D02*
Y61110D01*
X16400Y61050D02*
X16520D01*
X16460Y60990D02*
Y61110D01*
X14660Y70550D02*
X14780D01*
X14720Y70490D02*
Y70610D01*
X20720Y70550D02*
X20840D01*
X20780Y70490D02*
Y70610D01*
X37700Y70550D02*
X37820D01*
X37760Y70490D02*
Y70610D01*
X44390Y70550D02*
X44510D01*
X44450Y70490D02*
Y70610D01*
X52780Y70550D02*
X52900D01*
X52840Y70490D02*
Y70610D01*
X59403Y70550D02*
X59523D01*
X59463Y70490D02*
Y70610D01*
X35691Y48380D02*
X35811D01*
X35751Y48320D02*
Y48440D01*
X35376Y48010D02*
X35496D01*
X35436Y47950D02*
Y48070D01*
X25297Y32262D02*
X25417D01*
X25357Y32202D02*
Y32322D01*
X23407Y35062D02*
X23527D01*
X23467Y35002D02*
Y35122D01*
X28762Y32632D02*
X28882D01*
X28822Y32572D02*
Y32692D01*
X31911Y32262D02*
X32031D01*
X31971Y32202D02*
Y32322D01*
X25297Y35062D02*
X25417D01*
X25357Y35002D02*
Y35122D01*
X60934Y66535D02*
X61054D01*
X60994Y66475D02*
Y66595D01*
X57840Y62078D02*
X57960D01*
X57900Y62018D02*
Y62138D01*
X57777Y65472D02*
X57897D01*
X57837Y65412D02*
Y65532D01*
X60934Y59535D02*
X61054D01*
X60994Y59475D02*
Y59595D01*
X57840Y55078D02*
X57960D01*
X57900Y55018D02*
Y55138D01*
X57777Y58472D02*
X57897D01*
X57837Y58412D02*
Y58532D01*
X60934Y52535D02*
X61054D01*
X60994Y52475D02*
Y52595D01*
X57840Y48078D02*
X57960D01*
X57900Y48018D02*
Y48138D01*
X57777Y51472D02*
X57897D01*
X57837Y51412D02*
Y51532D01*
X60934Y45535D02*
X61054D01*
X60994Y45475D02*
Y45595D01*
X57840Y41078D02*
X57960D01*
X57900Y41018D02*
Y41138D01*
X57777Y44472D02*
X57897D01*
X57837Y44412D02*
Y44532D01*
X60934Y38535D02*
X61054D01*
X60994Y38475D02*
Y38595D01*
X57840Y34078D02*
X57960D01*
X57900Y34018D02*
Y34138D01*
X57777Y37472D02*
X57897D01*
X57837Y37412D02*
Y37532D01*
X60934Y31535D02*
X61054D01*
X60994Y31475D02*
Y31595D01*
X57840Y27078D02*
X57960D01*
X57900Y27018D02*
Y27138D01*
X57777Y30472D02*
X57897D01*
X57837Y30412D02*
Y30532D01*
X64446Y18700D02*
X64566D01*
X64506Y18640D02*
Y18760D01*
X60934Y24535D02*
X61054D01*
X60994Y24475D02*
Y24595D01*
X57840Y20078D02*
X57960D01*
X57900Y20018D02*
Y20138D01*
X57777Y23472D02*
X57897D01*
X57837Y23412D02*
Y23532D01*
X60934Y17535D02*
X61054D01*
X60994Y17475D02*
Y17595D01*
X57777Y16472D02*
X57897D01*
X57837Y16412D02*
Y16532D01*
X57840Y13078D02*
X57960D01*
X57900Y13018D02*
Y13138D01*
X55390Y60650D02*
X55510D01*
X55450Y60590D02*
Y60710D01*
X55390Y64484D02*
X55510D01*
X55450Y64424D02*
Y64544D01*
X55390Y57484D02*
X55510D01*
X55450Y57424D02*
Y57544D01*
X54240Y64484D02*
X54360D01*
X54300Y64424D02*
Y64544D01*
X54240Y60650D02*
X54360D01*
X54300Y60590D02*
Y60710D01*
X54240Y57484D02*
X54360D01*
X54300Y57424D02*
Y57544D01*
X55390Y50484D02*
X55510D01*
X55450Y50424D02*
Y50544D01*
X55390Y53650D02*
X55510D01*
X55450Y53590D02*
Y53710D01*
X55390Y46650D02*
X55510D01*
X55450Y46590D02*
Y46710D01*
X54240Y50484D02*
X54360D01*
X54300Y50424D02*
Y50544D01*
X54240Y53650D02*
X54360D01*
X54300Y53590D02*
Y53710D01*
X54240Y46650D02*
X54360D01*
X54300Y46590D02*
Y46710D01*
X32590Y70850D02*
X32710D01*
X32650Y70790D02*
Y70910D01*
X31590Y70850D02*
X31710D01*
X31650Y70790D02*
Y70910D01*
X33596Y70850D02*
X33716D01*
X33656Y70790D02*
Y70910D01*
X30584Y70850D02*
X30704D01*
X30644Y70790D02*
Y70910D01*
X18190Y66694D02*
X18310D01*
X18250Y66634D02*
Y66754D01*
X15190Y66545D02*
X15310D01*
X15250Y66485D02*
Y66605D01*
X16690Y66545D02*
X16810D01*
X16750Y66485D02*
Y66605D01*
X54090Y63800D02*
X54210D01*
X54150Y63740D02*
Y63860D01*
X54090Y49800D02*
X54210D01*
X54150Y49740D02*
Y49860D01*
X54090Y56800D02*
X54210D01*
X54150Y56740D02*
Y56860D01*
X31911Y51150D02*
X32031D01*
X31971Y51090D02*
Y51210D01*
X28762Y50810D02*
X28882D01*
X28822Y50750D02*
Y50870D01*
X25297Y48380D02*
X25417D01*
X25357Y48320D02*
Y48440D01*
X23407Y48010D02*
X23527D01*
X23467Y47950D02*
Y48070D01*
X55390Y39650D02*
X55510D01*
X55450Y39590D02*
Y39710D01*
X55390Y36484D02*
X55510D01*
X55450Y36424D02*
Y36544D01*
X55390Y43484D02*
X55510D01*
X55450Y43424D02*
Y43544D01*
X55390Y29484D02*
X55510D01*
X55450Y29424D02*
Y29544D01*
X55390Y32650D02*
X55510D01*
X55450Y32590D02*
Y32710D01*
X55390Y22484D02*
X55510D01*
X55450Y22424D02*
Y22544D01*
X55390Y15484D02*
X55510D01*
X55450Y15424D02*
Y15544D01*
X55390Y11650D02*
X55510D01*
X55450Y11590D02*
Y11710D01*
X55390Y18650D02*
X55510D01*
X55450Y18590D02*
Y18710D01*
X55390Y25650D02*
X55510D01*
X55450Y25590D02*
Y25710D01*
X54240Y39650D02*
X54360D01*
X54300Y39590D02*
Y39710D01*
X54240Y43484D02*
X54360D01*
X54300Y43424D02*
Y43544D01*
X54240Y36484D02*
X54360D01*
X54300Y36424D02*
Y36544D01*
X54090Y42800D02*
X54210D01*
X54150Y42740D02*
Y42860D01*
X54240Y32650D02*
X54360D01*
X54300Y32590D02*
Y32710D01*
X54240Y29484D02*
X54360D01*
X54300Y29424D02*
Y29544D01*
X54090Y35800D02*
X54210D01*
X54150Y35740D02*
Y35860D01*
X54240Y25650D02*
X54360D01*
X54300Y25590D02*
Y25710D01*
X54240Y22484D02*
X54360D01*
X54300Y22424D02*
Y22544D01*
X54240Y15484D02*
X54360D01*
X54300Y15424D02*
Y15544D01*
X54240Y11650D02*
X54360D01*
X54300Y11590D02*
Y11710D01*
X54240Y18650D02*
X54360D01*
X54300Y18590D02*
Y18710D01*
X54090Y21800D02*
X54210D01*
X54150Y21740D02*
Y21860D01*
X54090Y28800D02*
X54210D01*
X54150Y28740D02*
Y28860D01*
X54090Y14800D02*
X54210D01*
X54150Y14740D02*
Y14860D01*
X31940Y62800D02*
X32060D01*
X32000Y62740D02*
Y62860D01*
X32570Y62800D02*
X32690D01*
X32630Y62740D02*
Y62860D01*
X31590Y63550D02*
X31710D01*
X31650Y63490D02*
Y63610D01*
X31590Y65106D02*
X31710D01*
X31650Y65046D02*
Y65166D01*
X42040Y17090D02*
X42160D01*
X42100Y17030D02*
Y17150D01*
X41340Y17700D02*
X41460D01*
X41400Y17640D02*
Y17760D01*
X40400Y18790D02*
X40520D01*
X40460Y18730D02*
Y18850D01*
X39680Y19830D02*
X39800D01*
X39740Y19770D02*
Y19890D01*
X38990Y19830D02*
X39110D01*
X39050Y19770D02*
Y19890D01*
X38297Y19830D02*
X38417D01*
X38357Y19770D02*
Y19890D01*
X37570Y19830D02*
X37690D01*
X37630Y19770D02*
Y19890D01*
X34129Y19827D02*
X34249D01*
X34189Y19767D02*
Y19887D01*
X36860Y19830D02*
X36980D01*
X36920Y19770D02*
Y19890D01*
X36130Y19830D02*
X36250D01*
X36190Y19770D02*
Y19890D01*
X34740Y19830D02*
X34860D01*
X34800Y19770D02*
Y19890D01*
X26557Y32262D02*
X26677D01*
X26617Y32202D02*
Y32322D01*
X35440Y19830D02*
X35560D01*
X35500Y19770D02*
Y19890D01*
X33500Y19830D02*
X33620D01*
X33560Y19770D02*
Y19890D01*
X32930Y19830D02*
X33050D01*
X32990Y19770D02*
Y19890D01*
X24352Y32632D02*
X24472D01*
X24412Y32572D02*
Y32692D01*
X24037Y32262D02*
X24157D01*
X24097Y32202D02*
Y32322D01*
X24982Y32632D02*
X25102D01*
X25042Y32572D02*
Y32692D01*
X24667Y32262D02*
X24787D01*
X24727Y32202D02*
Y32322D01*
X23722Y32632D02*
X23842D01*
X23782Y32572D02*
Y32692D01*
X23407Y32262D02*
X23527D01*
X23467Y32202D02*
Y32322D01*
X28447Y32262D02*
X28567D01*
X28507Y32202D02*
Y32322D01*
X30651Y32262D02*
X30771D01*
X30711Y32202D02*
Y32322D01*
X32856Y32262D02*
X32976D01*
X32916Y32202D02*
Y32322D01*
X34746Y32262D02*
X34866D01*
X34806Y32202D02*
Y32322D01*
X34431Y34692D02*
X34551D01*
X34491Y34632D02*
Y34752D01*
X32541Y34692D02*
X32661D01*
X32601Y34632D02*
Y34752D01*
X31911Y34692D02*
X32031D01*
X31971Y34632D02*
Y34752D01*
X30336Y34692D02*
X30456D01*
X30396Y34632D02*
Y34752D01*
X29392Y34692D02*
X29512D01*
X29452Y34632D02*
Y34752D01*
X28762Y34692D02*
X28882D01*
X28822Y34632D02*
Y34752D01*
X29077Y35062D02*
X29197D01*
X29137Y35002D02*
Y35122D01*
X28132Y34692D02*
X28252D01*
X28192Y34632D02*
Y34752D01*
X28447Y35062D02*
X28567D01*
X28507Y35002D02*
Y35122D01*
X27502Y34692D02*
X27622D01*
X27562Y34632D02*
Y34752D01*
X27817Y35062D02*
X27937D01*
X27877Y35002D02*
Y35122D01*
X26872Y34692D02*
X26992D01*
X26932Y34632D02*
Y34752D01*
X27187Y35062D02*
X27307D01*
X27247Y35002D02*
Y35122D01*
X26242Y34692D02*
X26362D01*
X26302Y34632D02*
Y34752D01*
X26557Y35062D02*
X26677D01*
X26617Y35002D02*
Y35122D01*
X25612Y34692D02*
X25732D01*
X25672Y34632D02*
Y34752D01*
X25927Y35062D02*
X26047D01*
X25987Y35002D02*
Y35122D01*
X24982Y34692D02*
X25102D01*
X25042Y34632D02*
Y34752D01*
X24352Y34692D02*
X24472D01*
X24412Y34632D02*
Y34752D01*
X24667Y35062D02*
X24787D01*
X24727Y35002D02*
Y35122D01*
X23722Y34692D02*
X23842D01*
X23782Y34632D02*
Y34752D01*
X24037Y35062D02*
X24157D01*
X24097Y35002D02*
Y35122D01*
X28132Y48380D02*
X28252D01*
X28192Y48320D02*
Y48440D01*
X29392Y48380D02*
X29512D01*
X29452Y48320D02*
Y48440D01*
X34746Y48010D02*
X34866D01*
X34806Y47950D02*
Y48070D01*
X34116Y48010D02*
X34236D01*
X34176Y47950D02*
Y48070D01*
X33486Y48010D02*
X33606D01*
X33546Y47950D02*
Y48070D01*
X32856Y48010D02*
X32976D01*
X32916Y47950D02*
Y48070D01*
X32226Y48010D02*
X32346D01*
X32286Y47950D02*
Y48070D01*
X31596Y48010D02*
X31716D01*
X31656Y47950D02*
Y48070D01*
X30966Y48010D02*
X31086D01*
X31026Y47950D02*
Y48070D01*
X30336Y48010D02*
X30456D01*
X30396Y47950D02*
Y48070D01*
X29707Y48010D02*
X29827D01*
X29767Y47950D02*
Y48070D01*
X29077Y48010D02*
X29197D01*
X29137Y47950D02*
Y48070D01*
X28447Y48010D02*
X28567D01*
X28507Y47950D02*
Y48070D01*
X27817Y48010D02*
X27937D01*
X27877Y47950D02*
Y48070D01*
X27187Y48010D02*
X27307D01*
X27247Y47950D02*
Y48070D01*
X26557Y48010D02*
X26677D01*
X26617Y47950D02*
Y48070D01*
X25927Y48010D02*
X26047D01*
X25987Y47950D02*
Y48070D01*
X24982Y48010D02*
X25102D01*
X25042Y47950D02*
Y48070D01*
X24352Y48010D02*
X24472D01*
X24412Y47950D02*
Y48070D01*
X32226Y50810D02*
X32346D01*
X32286Y50750D02*
Y50870D01*
X28447Y51150D02*
X28567D01*
X28507Y51090D02*
Y51210D01*
X35376Y50810D02*
X35496D01*
X35436Y50750D02*
Y50870D01*
X34746Y50810D02*
X34866D01*
X34806Y50750D02*
Y50870D01*
X34116Y50810D02*
X34236D01*
X34176Y50750D02*
Y50870D01*
X33486Y50810D02*
X33606D01*
X33546Y50750D02*
Y50870D01*
X32856Y50810D02*
X32976D01*
X32916Y50750D02*
Y50870D01*
X31281Y50810D02*
X31401D01*
X31341Y50750D02*
Y50870D01*
X30651Y50810D02*
X30771D01*
X30711Y50750D02*
Y50870D01*
X30022Y50810D02*
X30141D01*
X30082Y50750D02*
Y50870D01*
X29392Y50810D02*
X29512D01*
X29452Y50750D02*
Y50870D01*
X27817Y50810D02*
X27937D01*
X27877Y50750D02*
Y50870D01*
X27187Y50810D02*
X27307D01*
X27247Y50750D02*
Y50870D01*
X26557Y50810D02*
X26677D01*
X26617Y50750D02*
Y50870D01*
X25927Y50810D02*
X26047D01*
X25987Y50750D02*
Y50870D01*
X24667Y50810D02*
X24787D01*
X24727Y50750D02*
Y50870D01*
X25297Y50810D02*
X25417D01*
X25357Y50750D02*
Y50870D01*
X24982Y51150D02*
X25102D01*
X25042Y51090D02*
Y51210D01*
X51140Y38650D02*
X51260D01*
X51200Y38590D02*
Y38710D01*
X56225Y65216D02*
X56345D01*
X56285Y65156D02*
Y65276D01*
X51490Y63150D02*
X51610D01*
X51550Y63090D02*
Y63210D01*
X51040Y63150D02*
X51160D01*
X51100Y63090D02*
Y63210D01*
X51040Y61566D02*
X51160D01*
X51100Y61506D02*
Y61626D01*
X51490Y61316D02*
X51610D01*
X51550Y61256D02*
Y61376D01*
X51890Y61066D02*
X52010D01*
X51950Y61006D02*
Y61126D01*
X50590Y61900D02*
X50710D01*
X50650Y61840D02*
Y61960D01*
X50590Y62600D02*
X50710D01*
X50650Y62540D02*
Y62660D01*
X56225Y58216D02*
X56345D01*
X56285Y58156D02*
Y58276D01*
X51490Y56150D02*
X51610D01*
X51550Y56090D02*
Y56210D01*
X51040Y56150D02*
X51160D01*
X51100Y56090D02*
Y56210D01*
X51040Y54566D02*
X51160D01*
X51100Y54506D02*
Y54626D01*
X51490Y54316D02*
X51610D01*
X51550Y54256D02*
Y54376D01*
X51890Y54066D02*
X52010D01*
X51950Y54006D02*
Y54126D01*
X50590Y54900D02*
X50710D01*
X50650Y54840D02*
Y54960D01*
X50590Y55600D02*
X50710D01*
X50650Y55540D02*
Y55660D01*
X50590Y48600D02*
X50710D01*
X50650Y48540D02*
Y48660D01*
X50590Y47900D02*
X50710D01*
X50650Y47840D02*
Y47960D01*
X51890Y47066D02*
X52010D01*
X51950Y47006D02*
Y47126D01*
X51490Y47316D02*
X51610D01*
X51550Y47256D02*
Y47376D01*
X51040Y47566D02*
X51160D01*
X51100Y47506D02*
Y47626D01*
X51040Y49150D02*
X51160D01*
X51100Y49090D02*
Y49210D01*
X51490Y49150D02*
X51610D01*
X51550Y49090D02*
Y49210D01*
X56225Y51216D02*
X56345D01*
X56285Y51156D02*
Y51276D01*
X53590Y23627D02*
X53710D01*
X53650Y23567D02*
Y23687D01*
X51140Y24870D02*
X51260D01*
X51200Y24810D02*
Y24930D01*
X51890Y25170D02*
X52010D01*
X51950Y25110D02*
Y25230D01*
X53125Y23181D02*
X53245D01*
X53185Y23121D02*
Y23241D01*
X56225Y44216D02*
X56345D01*
X56285Y44156D02*
Y44276D01*
X53090Y44216D02*
X53210D01*
X53150Y44156D02*
Y44276D01*
X51890Y41334D02*
X52010D01*
X51950Y41274D02*
Y41394D01*
X51140Y41590D02*
X51260D01*
X51200Y41530D02*
Y41650D01*
X51140Y45650D02*
X51260D01*
X51200Y45590D02*
Y45710D01*
X51890Y46050D02*
X52010D01*
X51950Y45990D02*
Y46110D01*
X56225Y37216D02*
X56345D01*
X56285Y37156D02*
Y37276D01*
X53090Y37216D02*
X53210D01*
X53150Y37156D02*
Y37276D01*
X51890Y34334D02*
X52010D01*
X51950Y34274D02*
Y34394D01*
X51140Y34590D02*
X51260D01*
X51200Y34530D02*
Y34650D01*
X51890Y39050D02*
X52010D01*
X51950Y38990D02*
Y39110D01*
X56225Y30216D02*
X56345D01*
X56285Y30156D02*
Y30276D01*
X53090Y30216D02*
X53210D01*
X53150Y30156D02*
Y30276D01*
X51890Y27334D02*
X52010D01*
X51950Y27274D02*
Y27394D01*
X51140Y27590D02*
X51260D01*
X51200Y27530D02*
Y27650D01*
X51140Y31650D02*
X51260D01*
X51200Y31590D02*
Y31710D01*
X51890Y32050D02*
X52010D01*
X51950Y31990D02*
Y32110D01*
X56225Y23216D02*
X56345D01*
X56285Y23156D02*
Y23276D01*
X51140Y20590D02*
X51260D01*
X51200Y20530D02*
Y20650D01*
X51890Y18050D02*
X52010D01*
X51950Y17990D02*
Y18110D01*
X51140Y17650D02*
X51260D01*
X51200Y17590D02*
Y17710D01*
X51140Y13590D02*
X51260D01*
X51200Y13530D02*
Y13650D01*
X51890Y13334D02*
X52010D01*
X51950Y13274D02*
Y13394D01*
X53090Y16216D02*
X53210D01*
X53150Y16156D02*
Y16276D01*
X56225Y16216D02*
X56345D01*
X56285Y16156D02*
Y16276D01*
X53590Y65645D02*
X53710D01*
X53650Y65585D02*
Y65705D01*
X53590Y58645D02*
X53710D01*
X53650Y58585D02*
Y58705D01*
X53590Y51645D02*
X53710D01*
X53650Y51585D02*
Y51705D01*
X53590Y44645D02*
X53710D01*
X53650Y44585D02*
Y44705D01*
X53590Y37645D02*
X53710D01*
X53650Y37585D02*
Y37705D01*
X53590Y30645D02*
X53710D01*
X53650Y30585D02*
Y30705D01*
X53590Y16645D02*
X53710D01*
X53650Y16585D02*
Y16705D01*
X29040Y65106D02*
X29160D01*
X29100Y65046D02*
Y65166D01*
X29040Y63550D02*
X29160D01*
X29100Y63490D02*
Y63610D01*
X35140Y63550D02*
X35260D01*
X35200Y63490D02*
Y63610D01*
X35140Y65106D02*
X35260D01*
X35200Y65046D02*
Y65166D01*
X53590Y61800D02*
X53710D01*
X53650Y61740D02*
Y61860D01*
X60934Y65936D02*
X61054D01*
X60994Y65876D02*
Y65996D01*
X53590Y54800D02*
X53710D01*
X53650Y54740D02*
Y54860D01*
X60934Y58936D02*
X61054D01*
X60994Y58876D02*
Y58996D01*
X53590Y47800D02*
X53710D01*
X53650Y47740D02*
Y47860D01*
X60934Y51936D02*
X61054D01*
X60994Y51876D02*
Y51996D01*
X53590Y40800D02*
X53710D01*
X53650Y40740D02*
Y40860D01*
X60934Y44936D02*
X61054D01*
X60994Y44876D02*
Y44996D01*
X53590Y33800D02*
X53710D01*
X53650Y33740D02*
Y33860D01*
X60934Y37936D02*
X61054D01*
X60994Y37876D02*
Y37996D01*
X53590Y26800D02*
X53710D01*
X53650Y26740D02*
Y26860D01*
X60934Y30936D02*
X61054D01*
X60994Y30876D02*
Y30996D01*
X53590Y12800D02*
X53710D01*
X53650Y12740D02*
Y12860D01*
X60934Y16936D02*
X61054D01*
X60994Y16876D02*
Y16996D01*
X60934Y23936D02*
X61054D01*
X60994Y23876D02*
Y23996D01*
X53590Y19800D02*
X53710D01*
X53650Y19740D02*
Y19860D01*
X63640Y65687D02*
X63760D01*
X63700Y65627D02*
Y65747D01*
X63640Y65987D02*
X63760D01*
X63700Y65927D02*
Y66047D01*
X62090Y64413D02*
X62210D01*
X62150Y64353D02*
Y64473D01*
X62090Y64113D02*
X62210D01*
X62150Y64053D02*
Y64173D01*
X62790Y64650D02*
X62910D01*
X62850Y64590D02*
Y64710D01*
X63090Y64650D02*
X63210D01*
X63150Y64590D02*
Y64710D01*
X63940Y65365D02*
X64060D01*
X64000Y65305D02*
Y65425D01*
X65840Y65150D02*
X65960D01*
X65900Y65090D02*
Y65210D01*
X57840Y62846D02*
X57960D01*
X57900Y62786D02*
Y62906D01*
X56225Y61054D02*
X56345D01*
X56285Y60994D02*
Y61114D01*
X62140Y60700D02*
X62260D01*
X62200Y60640D02*
Y60760D01*
X63640Y58687D02*
X63760D01*
X63700Y58627D02*
Y58747D01*
X63640Y58987D02*
X63760D01*
X63700Y58927D02*
Y59047D01*
X62090Y57413D02*
X62210D01*
X62150Y57353D02*
Y57473D01*
X62090Y57113D02*
X62210D01*
X62150Y57053D02*
Y57173D01*
X62790Y57650D02*
X62910D01*
X62850Y57590D02*
Y57710D01*
X63090Y57650D02*
X63210D01*
X63150Y57590D02*
Y57710D01*
X63940Y58365D02*
X64060D01*
X64000Y58305D02*
Y58425D01*
X65840Y58150D02*
X65960D01*
X65900Y58090D02*
Y58210D01*
X57840Y55846D02*
X57960D01*
X57900Y55786D02*
Y55906D01*
X56225Y54054D02*
X56345D01*
X56285Y53994D02*
Y54114D01*
X62140Y53700D02*
X62260D01*
X62200Y53640D02*
Y53760D01*
X63640Y51687D02*
X63760D01*
X63700Y51627D02*
Y51747D01*
X63640Y51987D02*
X63760D01*
X63700Y51927D02*
Y52047D01*
X62090Y50413D02*
X62210D01*
X62150Y50353D02*
Y50473D01*
X62090Y50113D02*
X62210D01*
X62150Y50053D02*
Y50173D01*
X62790Y50650D02*
X62910D01*
X62850Y50590D02*
Y50710D01*
X63090Y50650D02*
X63210D01*
X63150Y50590D02*
Y50710D01*
X63940Y51365D02*
X64060D01*
X64000Y51305D02*
Y51425D01*
X65840Y51150D02*
X65960D01*
X65900Y51090D02*
Y51210D01*
X57840Y48846D02*
X57960D01*
X57900Y48786D02*
Y48906D01*
X56225Y47054D02*
X56345D01*
X56285Y46994D02*
Y47114D01*
X62140Y46700D02*
X62260D01*
X62200Y46640D02*
Y46760D01*
X63640Y44687D02*
X63760D01*
X63700Y44627D02*
Y44747D01*
X63640Y44987D02*
X63760D01*
X63700Y44927D02*
Y45047D01*
X62090Y43413D02*
X62210D01*
X62150Y43353D02*
Y43473D01*
X62090Y43113D02*
X62210D01*
X62150Y43053D02*
Y43173D01*
X62790Y43650D02*
X62910D01*
X62850Y43590D02*
Y43710D01*
X63090Y43650D02*
X63210D01*
X63150Y43590D02*
Y43710D01*
X63940Y44365D02*
X64060D01*
X64000Y44305D02*
Y44425D01*
X65840Y44150D02*
X65960D01*
X65900Y44090D02*
Y44210D01*
X57840Y41846D02*
X57960D01*
X57900Y41786D02*
Y41906D01*
X56225Y40054D02*
X56345D01*
X56285Y39994D02*
Y40114D01*
X62140Y39700D02*
X62260D01*
X62200Y39640D02*
Y39760D01*
X63640Y37687D02*
X63760D01*
X63700Y37627D02*
Y37747D01*
X63640Y37987D02*
X63760D01*
X63700Y37927D02*
Y38047D01*
X62090Y36413D02*
X62210D01*
X62150Y36353D02*
Y36473D01*
X62090Y36113D02*
X62210D01*
X62150Y36053D02*
Y36173D01*
X62790Y36650D02*
X62910D01*
X62850Y36590D02*
Y36710D01*
X63090Y36650D02*
X63210D01*
X63150Y36590D02*
Y36710D01*
X63940Y37365D02*
X64060D01*
X64000Y37305D02*
Y37425D01*
X65840Y37150D02*
X65960D01*
X65900Y37090D02*
Y37210D01*
X57840Y34846D02*
X57960D01*
X57900Y34786D02*
Y34906D01*
X56225Y33054D02*
X56345D01*
X56285Y32994D02*
Y33114D01*
X62140Y32700D02*
X62260D01*
X62200Y32640D02*
Y32760D01*
X63640Y30687D02*
X63760D01*
X63700Y30627D02*
Y30747D01*
X63640Y30987D02*
X63760D01*
X63700Y30927D02*
Y31047D01*
X62090Y29413D02*
X62210D01*
X62150Y29353D02*
Y29473D01*
X62090Y29113D02*
X62210D01*
X62150Y29053D02*
Y29173D01*
X62790Y29650D02*
X62910D01*
X62850Y29590D02*
Y29710D01*
X63090Y29650D02*
X63210D01*
X63150Y29590D02*
Y29710D01*
X63940Y30365D02*
X64060D01*
X64000Y30305D02*
Y30425D01*
X65840Y30150D02*
X65960D01*
X65900Y30090D02*
Y30210D01*
X57840Y27846D02*
X57960D01*
X57900Y27786D02*
Y27906D01*
X56225Y26054D02*
X56345D01*
X56285Y25994D02*
Y26114D01*
X62140Y25700D02*
X62260D01*
X62200Y25640D02*
Y25760D01*
X63640Y16687D02*
X63760D01*
X63700Y16627D02*
Y16747D01*
X63640Y16987D02*
X63760D01*
X63700Y16927D02*
Y17047D01*
X62090Y15413D02*
X62210D01*
X62150Y15353D02*
Y15473D01*
X62090Y15113D02*
X62210D01*
X62150Y15053D02*
Y15173D01*
X62790Y15650D02*
X62910D01*
X62850Y15590D02*
Y15710D01*
X63090Y15650D02*
X63210D01*
X63150Y15590D02*
Y15710D01*
X63940Y16365D02*
X64060D01*
X64000Y16305D02*
Y16425D01*
X65840Y16150D02*
X65960D01*
X65900Y16090D02*
Y16210D01*
X57840Y13846D02*
X57960D01*
X57900Y13786D02*
Y13906D01*
X56225Y12054D02*
X56345D01*
X56285Y11994D02*
Y12114D01*
X62140Y11700D02*
X62260D01*
X62200Y11640D02*
Y11760D01*
X62140Y18700D02*
X62260D01*
X62200Y18640D02*
Y18760D01*
X56225Y19054D02*
X56345D01*
X56285Y18994D02*
Y19114D01*
X57840Y20846D02*
X57960D01*
X57900Y20786D02*
Y20906D01*
X65840Y23150D02*
X65960D01*
X65900Y23090D02*
Y23210D01*
X63940Y23365D02*
X64060D01*
X64000Y23305D02*
Y23425D01*
X63090Y22650D02*
X63210D01*
X63150Y22590D02*
Y22710D01*
X62790Y22650D02*
X62910D01*
X62850Y22590D02*
Y22710D01*
X62090Y22113D02*
X62210D01*
X62150Y22053D02*
Y22173D01*
X62090Y22413D02*
X62210D01*
X62150Y22353D02*
Y22473D01*
X63640Y23987D02*
X63760D01*
X63700Y23927D02*
Y24047D01*
X63640Y23687D02*
X63760D01*
X63700Y23627D02*
Y23747D01*
M02*
