G04*
G04 #@! TF.GenerationSoftware,Altium Limited,Altium Designer,25.8.1 (18)*
G04*
G04 Layer_Color=16711935*
%FSLAX24Y24*%
%MOIN*%
G70*
G04*
G04 #@! TF.SameCoordinates,BE914EC3-FA8D-4840-B4FE-782DDA987089*
G04*
G04*
G04 #@! TF.FilePolarity,Negative*
G04*
G01*
G75*
%ADD30C,0.0256*%
G04:AMPARAMS|DCode=31|XSize=35.4mil|YSize=59.1mil|CornerRadius=17.7mil|HoleSize=0mil|Usage=FLASHONLY|Rotation=90.000|XOffset=0mil|YOffset=0mil|HoleType=Round|Shape=RoundedRectangle|*
%AMROUNDEDRECTD31*
21,1,0.0354,0.0236,0,0,90.0*
21,1,0.0000,0.0591,0,0,90.0*
1,1,0.0354,0.0118,0.0000*
1,1,0.0354,0.0118,0.0000*
1,1,0.0354,-0.0118,0.0000*
1,1,0.0354,-0.0118,0.0000*
%
%ADD31ROUNDEDRECTD31*%
G04:AMPARAMS|DCode=32|XSize=37.4mil|YSize=25.6mil|CornerRadius=12.8mil|HoleSize=0mil|Usage=FLASHONLY|Rotation=90.000|XOffset=0mil|YOffset=0mil|HoleType=Round|Shape=RoundedRectangle|*
%AMROUNDEDRECTD32*
21,1,0.0374,0.0000,0,0,90.0*
21,1,0.0118,0.0256,0,0,90.0*
1,1,0.0256,0.0000,0.0059*
1,1,0.0256,0.0000,-0.0059*
1,1,0.0256,0.0000,-0.0059*
1,1,0.0256,0.0000,0.0059*
%
%ADD32ROUNDEDRECTD32*%
%ADD63R,0.0138X0.0492*%
%ADD64R,0.0886X0.1319*%
%ADD71C,0.0040*%
%ADD72C,0.1457*%
%ADD73R,0.0640X0.0640*%
%ADD74C,0.0640*%
%ADD75C,0.0280*%
%ADD76O,0.1227X0.0634*%
%ADD77O,0.0634X0.1227*%
%ADD78C,0.0440*%
%ADD79R,0.0587X0.0587*%
%ADD80C,0.0587*%
%ADD81C,0.2009*%
D30*
X64982Y63948D02*
D03*
X65258Y64105D02*
D03*
Y64420D02*
D03*
X64982Y64578D02*
D03*
X65258Y64735D02*
D03*
X64982Y64893D02*
D03*
Y65207D02*
D03*
Y65522D02*
D03*
X65258Y65365D02*
D03*
Y65680D02*
D03*
Y65995D02*
D03*
X64982Y66152D02*
D03*
X64726Y63633D02*
D03*
X64982Y56948D02*
D03*
X65258Y57105D02*
D03*
Y57420D02*
D03*
X64982Y57578D02*
D03*
X65258Y57735D02*
D03*
X64982Y57893D02*
D03*
Y58207D02*
D03*
Y58522D02*
D03*
X65258Y58365D02*
D03*
Y58680D02*
D03*
Y58995D02*
D03*
X64982Y59152D02*
D03*
X64726Y56633D02*
D03*
X64982Y49948D02*
D03*
X65258Y50105D02*
D03*
Y50420D02*
D03*
X64982Y50578D02*
D03*
X65258Y50735D02*
D03*
X64982Y50893D02*
D03*
Y51207D02*
D03*
Y51522D02*
D03*
X65258Y51365D02*
D03*
Y51680D02*
D03*
Y51995D02*
D03*
X64982Y52152D02*
D03*
X64726Y49633D02*
D03*
X64982Y42948D02*
D03*
X65258Y43105D02*
D03*
Y43420D02*
D03*
X64982Y43578D02*
D03*
X65258Y43735D02*
D03*
X64982Y43893D02*
D03*
Y44207D02*
D03*
Y44522D02*
D03*
X65258Y44365D02*
D03*
Y44680D02*
D03*
Y44995D02*
D03*
X64982Y45152D02*
D03*
X64726Y42633D02*
D03*
X64982Y35948D02*
D03*
X65258Y36105D02*
D03*
Y36420D02*
D03*
X64982Y36578D02*
D03*
X65258Y36735D02*
D03*
X64982Y36893D02*
D03*
Y37207D02*
D03*
Y37522D02*
D03*
X65258Y37365D02*
D03*
Y37680D02*
D03*
Y37995D02*
D03*
X64982Y38152D02*
D03*
X64726Y35633D02*
D03*
X64982Y28948D02*
D03*
X65258Y29105D02*
D03*
Y29420D02*
D03*
X64982Y29578D02*
D03*
X65258Y29735D02*
D03*
X64982Y29893D02*
D03*
Y30207D02*
D03*
Y30522D02*
D03*
X65258Y30365D02*
D03*
Y30680D02*
D03*
Y30995D02*
D03*
X64982Y31152D02*
D03*
X64726Y28633D02*
D03*
X64982Y21948D02*
D03*
X65258Y22105D02*
D03*
Y22420D02*
D03*
X64982Y22578D02*
D03*
X65258Y22735D02*
D03*
X64982Y22893D02*
D03*
Y23207D02*
D03*
Y23522D02*
D03*
X65258Y23365D02*
D03*
Y23680D02*
D03*
Y23995D02*
D03*
X64982Y24152D02*
D03*
X64726Y21633D02*
D03*
X64982Y14948D02*
D03*
X65258Y15105D02*
D03*
Y15420D02*
D03*
X64982Y15578D02*
D03*
X65258Y15735D02*
D03*
X64982Y15893D02*
D03*
Y16207D02*
D03*
Y16522D02*
D03*
X65258Y16365D02*
D03*
Y16680D02*
D03*
Y16995D02*
D03*
X64982Y17152D02*
D03*
X64726Y14633D02*
D03*
D31*
X66947Y66818D02*
D03*
Y63282D02*
D03*
X65219Y66676D02*
D03*
Y63424D02*
D03*
X66947Y59818D02*
D03*
Y56282D02*
D03*
X65219Y59676D02*
D03*
Y56424D02*
D03*
X66947Y52818D02*
D03*
Y49282D02*
D03*
X65219Y52676D02*
D03*
Y49424D02*
D03*
X66947Y45818D02*
D03*
Y42282D02*
D03*
X65219Y45676D02*
D03*
Y42424D02*
D03*
X66947Y38818D02*
D03*
Y35282D02*
D03*
X65219Y38676D02*
D03*
Y35424D02*
D03*
X66947Y31818D02*
D03*
Y28282D02*
D03*
X65219Y31676D02*
D03*
Y28424D02*
D03*
X66947Y24818D02*
D03*
Y21282D02*
D03*
X65219Y24676D02*
D03*
Y21424D02*
D03*
X66947Y17818D02*
D03*
Y14282D02*
D03*
X65219Y17676D02*
D03*
Y14424D02*
D03*
D32*
X64726Y66467D02*
D03*
Y59467D02*
D03*
Y52467D02*
D03*
Y45467D02*
D03*
Y38467D02*
D03*
Y31467D02*
D03*
Y24467D02*
D03*
Y17467D02*
D03*
D63*
X75615Y8850D02*
D03*
X75812D02*
D03*
X76009D02*
D03*
X76206D02*
D03*
X76403D02*
D03*
X76599D02*
D03*
X76796D02*
D03*
X76993D02*
D03*
X77190D02*
D03*
X77387D02*
D03*
X77584D02*
D03*
X77780D02*
D03*
X77977D02*
D03*
X78174D02*
D03*
X78371D02*
D03*
X78568D02*
D03*
X78765D02*
D03*
X78962D02*
D03*
X79158D02*
D03*
X79355D02*
D03*
X79552D02*
D03*
X79749D02*
D03*
X79946D02*
D03*
X80143D02*
D03*
X80340D02*
D03*
X80536D02*
D03*
X80733D02*
D03*
X80930D02*
D03*
X81127D02*
D03*
X81324D02*
D03*
X81521D02*
D03*
X81717D02*
D03*
X81914D02*
D03*
X82111D02*
D03*
X82308D02*
D03*
X82505D02*
D03*
X75615Y25850D02*
D03*
X75812D02*
D03*
X76009D02*
D03*
X76206D02*
D03*
X76403D02*
D03*
X76599D02*
D03*
X76796D02*
D03*
X76993D02*
D03*
X77190D02*
D03*
X77387D02*
D03*
X77584D02*
D03*
X77780D02*
D03*
X77977D02*
D03*
X78174D02*
D03*
X78371D02*
D03*
X78568D02*
D03*
X78765D02*
D03*
X78962D02*
D03*
X79158D02*
D03*
X79355D02*
D03*
X79552D02*
D03*
X79749D02*
D03*
X79946D02*
D03*
X80143D02*
D03*
X80340D02*
D03*
X80536D02*
D03*
X80733D02*
D03*
X80930D02*
D03*
X81127D02*
D03*
X81324D02*
D03*
X81521D02*
D03*
X81717D02*
D03*
X81914D02*
D03*
X82111D02*
D03*
X82308D02*
D03*
X82505D02*
D03*
X75615Y42950D02*
D03*
X75812D02*
D03*
X76009D02*
D03*
X76206D02*
D03*
X76403D02*
D03*
X76599D02*
D03*
X76796D02*
D03*
X76993D02*
D03*
X77190D02*
D03*
X77387D02*
D03*
X77584D02*
D03*
X77780D02*
D03*
X77977D02*
D03*
X78174D02*
D03*
X78371D02*
D03*
X78568D02*
D03*
X78765D02*
D03*
X78962D02*
D03*
X79158D02*
D03*
X79355D02*
D03*
X79552D02*
D03*
X79749D02*
D03*
X79946D02*
D03*
X80143D02*
D03*
X80340D02*
D03*
X80536D02*
D03*
X80733D02*
D03*
X80930D02*
D03*
X81127D02*
D03*
X81324D02*
D03*
X81521D02*
D03*
X81717D02*
D03*
X81914D02*
D03*
X82111D02*
D03*
X82308D02*
D03*
X82505D02*
D03*
X75615Y59950D02*
D03*
X75812D02*
D03*
X76009D02*
D03*
X76206D02*
D03*
X76403D02*
D03*
X76599D02*
D03*
X76796D02*
D03*
X76993D02*
D03*
X77190D02*
D03*
X77387D02*
D03*
X77584D02*
D03*
X77780D02*
D03*
X77977D02*
D03*
X78174D02*
D03*
X78371D02*
D03*
X78568D02*
D03*
X78765D02*
D03*
X78962D02*
D03*
X79158D02*
D03*
X79355D02*
D03*
X79552D02*
D03*
X79749D02*
D03*
X79946D02*
D03*
X80143D02*
D03*
X80340D02*
D03*
X80536D02*
D03*
X80733D02*
D03*
X80930D02*
D03*
X81127D02*
D03*
X81324D02*
D03*
X81521D02*
D03*
X81717D02*
D03*
X81914D02*
D03*
X82111D02*
D03*
X82308D02*
D03*
X82505D02*
D03*
D64*
X74985Y9704D02*
D03*
X83135D02*
D03*
X74985Y26704D02*
D03*
X83135D02*
D03*
X74985Y43804D02*
D03*
X83135D02*
D03*
X74985Y60804D02*
D03*
X83135D02*
D03*
D71*
X4000Y4000D02*
D03*
Y77100D02*
D03*
X91060D02*
D03*
Y4000D02*
D03*
D72*
X85720Y9810D02*
D03*
Y26810D02*
D03*
Y43910D02*
D03*
Y60910D02*
D03*
D73*
X73310Y13500D02*
D03*
X76810D02*
D03*
X80310D02*
D03*
X83810D02*
D03*
X73310Y30500D02*
D03*
X76810D02*
D03*
X80310D02*
D03*
X83810D02*
D03*
X73310Y47600D02*
D03*
X76810D02*
D03*
X80310D02*
D03*
X83810D02*
D03*
X73310Y64600D02*
D03*
X76810D02*
D03*
X80310D02*
D03*
X83810D02*
D03*
D74*
X73310Y14500D02*
D03*
Y15500D02*
D03*
Y16500D02*
D03*
Y17500D02*
D03*
Y18500D02*
D03*
Y19500D02*
D03*
Y20500D02*
D03*
X74310D02*
D03*
Y19500D02*
D03*
Y18500D02*
D03*
Y17500D02*
D03*
Y16500D02*
D03*
Y15500D02*
D03*
Y14500D02*
D03*
Y13500D02*
D03*
X76810Y14500D02*
D03*
Y15500D02*
D03*
Y16500D02*
D03*
Y17500D02*
D03*
Y18500D02*
D03*
Y19500D02*
D03*
Y20500D02*
D03*
X77810D02*
D03*
Y19500D02*
D03*
Y18500D02*
D03*
Y17500D02*
D03*
Y16500D02*
D03*
Y15500D02*
D03*
Y14500D02*
D03*
Y13500D02*
D03*
X80310Y14500D02*
D03*
Y15500D02*
D03*
Y16500D02*
D03*
Y17500D02*
D03*
Y18500D02*
D03*
Y19500D02*
D03*
Y20500D02*
D03*
X81310D02*
D03*
Y19500D02*
D03*
Y18500D02*
D03*
Y17500D02*
D03*
Y16500D02*
D03*
Y15500D02*
D03*
Y14500D02*
D03*
Y13500D02*
D03*
X83810Y14500D02*
D03*
Y15500D02*
D03*
Y16500D02*
D03*
Y17500D02*
D03*
Y18500D02*
D03*
Y19500D02*
D03*
Y20500D02*
D03*
X84810D02*
D03*
Y19500D02*
D03*
Y18500D02*
D03*
Y17500D02*
D03*
Y16500D02*
D03*
Y15500D02*
D03*
Y14500D02*
D03*
Y13500D02*
D03*
X73310Y31500D02*
D03*
Y32500D02*
D03*
Y33500D02*
D03*
Y34500D02*
D03*
Y35500D02*
D03*
Y36500D02*
D03*
Y37500D02*
D03*
X74310D02*
D03*
Y36500D02*
D03*
Y35500D02*
D03*
Y34500D02*
D03*
Y33500D02*
D03*
Y32500D02*
D03*
Y31500D02*
D03*
Y30500D02*
D03*
X76810Y31500D02*
D03*
Y32500D02*
D03*
Y33500D02*
D03*
Y34500D02*
D03*
Y35500D02*
D03*
Y36500D02*
D03*
Y37500D02*
D03*
X77810D02*
D03*
Y36500D02*
D03*
Y35500D02*
D03*
Y34500D02*
D03*
Y33500D02*
D03*
Y32500D02*
D03*
Y31500D02*
D03*
Y30500D02*
D03*
X80310Y31500D02*
D03*
Y32500D02*
D03*
Y33500D02*
D03*
Y34500D02*
D03*
Y35500D02*
D03*
Y36500D02*
D03*
Y37500D02*
D03*
X81310D02*
D03*
Y36500D02*
D03*
Y35500D02*
D03*
Y34500D02*
D03*
Y33500D02*
D03*
Y32500D02*
D03*
Y31500D02*
D03*
Y30500D02*
D03*
X83810Y31500D02*
D03*
Y32500D02*
D03*
Y33500D02*
D03*
Y34500D02*
D03*
Y35500D02*
D03*
Y36500D02*
D03*
Y37500D02*
D03*
X84810D02*
D03*
Y36500D02*
D03*
Y35500D02*
D03*
Y34500D02*
D03*
Y33500D02*
D03*
Y32500D02*
D03*
Y31500D02*
D03*
Y30500D02*
D03*
X73310Y48600D02*
D03*
Y49600D02*
D03*
Y50600D02*
D03*
Y51600D02*
D03*
Y52600D02*
D03*
Y53600D02*
D03*
Y54600D02*
D03*
X74310D02*
D03*
Y53600D02*
D03*
Y52600D02*
D03*
Y51600D02*
D03*
Y50600D02*
D03*
Y49600D02*
D03*
Y48600D02*
D03*
Y47600D02*
D03*
X76810Y48600D02*
D03*
Y49600D02*
D03*
Y50600D02*
D03*
Y51600D02*
D03*
Y52600D02*
D03*
Y53600D02*
D03*
Y54600D02*
D03*
X77810D02*
D03*
Y53600D02*
D03*
Y52600D02*
D03*
Y51600D02*
D03*
Y50600D02*
D03*
Y49600D02*
D03*
Y48600D02*
D03*
Y47600D02*
D03*
X80310Y48600D02*
D03*
Y49600D02*
D03*
Y50600D02*
D03*
Y51600D02*
D03*
Y52600D02*
D03*
Y53600D02*
D03*
Y54600D02*
D03*
X81310D02*
D03*
Y53600D02*
D03*
Y52600D02*
D03*
Y51600D02*
D03*
Y50600D02*
D03*
Y49600D02*
D03*
Y48600D02*
D03*
Y47600D02*
D03*
X83810Y48600D02*
D03*
Y49600D02*
D03*
Y50600D02*
D03*
Y51600D02*
D03*
Y52600D02*
D03*
Y53600D02*
D03*
Y54600D02*
D03*
X84810D02*
D03*
Y53600D02*
D03*
Y52600D02*
D03*
Y51600D02*
D03*
Y50600D02*
D03*
Y49600D02*
D03*
Y48600D02*
D03*
Y47600D02*
D03*
X73310Y65600D02*
D03*
Y66600D02*
D03*
Y67600D02*
D03*
Y68600D02*
D03*
Y69600D02*
D03*
Y70600D02*
D03*
Y71600D02*
D03*
X74310D02*
D03*
Y70600D02*
D03*
Y69600D02*
D03*
Y68600D02*
D03*
Y67600D02*
D03*
Y66600D02*
D03*
Y65600D02*
D03*
Y64600D02*
D03*
X76810Y65600D02*
D03*
Y66600D02*
D03*
Y67600D02*
D03*
Y68600D02*
D03*
Y69600D02*
D03*
Y70600D02*
D03*
Y71600D02*
D03*
X77810D02*
D03*
Y70600D02*
D03*
Y69600D02*
D03*
Y68600D02*
D03*
Y67600D02*
D03*
Y66600D02*
D03*
Y65600D02*
D03*
Y64600D02*
D03*
X80310Y65600D02*
D03*
Y66600D02*
D03*
Y67600D02*
D03*
Y68600D02*
D03*
Y69600D02*
D03*
Y70600D02*
D03*
Y71600D02*
D03*
X81310D02*
D03*
Y70600D02*
D03*
Y69600D02*
D03*
Y68600D02*
D03*
Y67600D02*
D03*
Y66600D02*
D03*
Y65600D02*
D03*
Y64600D02*
D03*
X83810Y65600D02*
D03*
Y66600D02*
D03*
Y67600D02*
D03*
Y68600D02*
D03*
Y69600D02*
D03*
Y70600D02*
D03*
Y71600D02*
D03*
X84810D02*
D03*
Y70600D02*
D03*
Y69600D02*
D03*
Y68600D02*
D03*
Y67600D02*
D03*
Y66600D02*
D03*
Y65600D02*
D03*
Y64600D02*
D03*
D75*
X73310Y9250D02*
D03*
X72060Y11000D02*
D03*
Y20500D02*
D03*
X75560D02*
D03*
X79060D02*
D03*
X82560D02*
D03*
X86060D02*
D03*
Y11500D02*
D03*
X73310Y26250D02*
D03*
X72060Y28000D02*
D03*
Y37500D02*
D03*
X75560D02*
D03*
X79060D02*
D03*
X82560D02*
D03*
X86060D02*
D03*
Y28500D02*
D03*
X73310Y43350D02*
D03*
X72060Y45100D02*
D03*
Y54600D02*
D03*
X75560D02*
D03*
X79060D02*
D03*
X82560D02*
D03*
X86060D02*
D03*
Y45600D02*
D03*
X73310Y60350D02*
D03*
X72060Y62100D02*
D03*
Y71600D02*
D03*
X75560D02*
D03*
X79060D02*
D03*
X82560D02*
D03*
X86060D02*
D03*
Y62600D02*
D03*
D76*
X12378Y63200D02*
D03*
D77*
X11197Y65050D02*
D03*
X13559D02*
D03*
D78*
X36396Y33475D02*
D03*
X22822D02*
D03*
X36396Y49223D02*
D03*
X22822D02*
D03*
D79*
X13000Y11550D02*
D03*
Y20550D02*
D03*
Y58550D02*
D03*
D80*
Y10550D02*
D03*
X14000Y11550D02*
D03*
Y10550D02*
D03*
X15000Y11550D02*
D03*
Y10550D02*
D03*
X16000Y11550D02*
D03*
Y10550D02*
D03*
X17000Y11550D02*
D03*
Y10550D02*
D03*
X18000Y11550D02*
D03*
Y10550D02*
D03*
X19000Y11550D02*
D03*
Y10550D02*
D03*
X20000Y11550D02*
D03*
Y10550D02*
D03*
X21000Y11550D02*
D03*
Y10550D02*
D03*
X22000Y11550D02*
D03*
Y10550D02*
D03*
X23000Y11550D02*
D03*
Y10550D02*
D03*
X24000Y11550D02*
D03*
Y10550D02*
D03*
X25000Y11550D02*
D03*
Y10550D02*
D03*
X26000Y11550D02*
D03*
Y10550D02*
D03*
X27000Y11550D02*
D03*
Y10550D02*
D03*
X28000Y11550D02*
D03*
Y10550D02*
D03*
X29000Y11550D02*
D03*
Y10550D02*
D03*
X30000Y11550D02*
D03*
Y10550D02*
D03*
X31000Y11550D02*
D03*
Y10550D02*
D03*
X32000Y11550D02*
D03*
Y10550D02*
D03*
X13000Y19550D02*
D03*
X14000Y20550D02*
D03*
Y19550D02*
D03*
X15000Y20550D02*
D03*
Y19550D02*
D03*
X16000Y20550D02*
D03*
Y19550D02*
D03*
X17000Y20550D02*
D03*
Y19550D02*
D03*
X18000Y20550D02*
D03*
Y19550D02*
D03*
X19000Y20550D02*
D03*
Y19550D02*
D03*
X20000Y20550D02*
D03*
Y19550D02*
D03*
X21000Y20550D02*
D03*
Y19550D02*
D03*
X22000Y20550D02*
D03*
Y19550D02*
D03*
X23000Y20550D02*
D03*
Y19550D02*
D03*
X24000Y20550D02*
D03*
Y19550D02*
D03*
X25000Y20550D02*
D03*
Y19550D02*
D03*
X26000Y20550D02*
D03*
Y19550D02*
D03*
X27000Y20550D02*
D03*
Y19550D02*
D03*
X28000Y20550D02*
D03*
Y19550D02*
D03*
X29000Y20550D02*
D03*
Y19550D02*
D03*
X30000Y20550D02*
D03*
Y19550D02*
D03*
X31000Y20550D02*
D03*
Y19550D02*
D03*
X32000Y20550D02*
D03*
Y19550D02*
D03*
X13000Y57550D02*
D03*
X14000Y58550D02*
D03*
Y57550D02*
D03*
X15000Y58550D02*
D03*
Y57550D02*
D03*
X16000Y58550D02*
D03*
Y57550D02*
D03*
X17000Y58550D02*
D03*
Y57550D02*
D03*
X18000Y58550D02*
D03*
Y57550D02*
D03*
X19000Y58550D02*
D03*
Y57550D02*
D03*
X20000Y58550D02*
D03*
Y57550D02*
D03*
X21000Y58550D02*
D03*
Y57550D02*
D03*
X22000Y58550D02*
D03*
Y57550D02*
D03*
X23000Y58550D02*
D03*
Y57550D02*
D03*
X24000Y58550D02*
D03*
Y57550D02*
D03*
X25000Y58550D02*
D03*
Y57550D02*
D03*
X26000Y58550D02*
D03*
Y57550D02*
D03*
X27000Y58550D02*
D03*
Y57550D02*
D03*
X28000Y58550D02*
D03*
Y57550D02*
D03*
X29000Y58550D02*
D03*
Y57550D02*
D03*
X30000Y58550D02*
D03*
Y57550D02*
D03*
X31000Y58550D02*
D03*
Y57550D02*
D03*
X32000Y58550D02*
D03*
Y57550D02*
D03*
D81*
X65300Y70600D02*
D03*
X10500D02*
D03*
X11300Y49211D02*
D03*
X38465D02*
D03*
Y31889D02*
D03*
X11300D02*
D03*
X65300Y10600D02*
D03*
X10500D02*
D03*
M02*
