G04*
G04 #@! TF.GenerationSoftware,Altium Limited,Altium Designer,25.8.1 (18)*
G04*
G04 Layer_Color=8388736*
%FSLAX24Y24*%
%MOIN*%
G70*
G04*
G04 #@! TF.SameCoordinates,9D8C9C82-6ACF-4F5F-9D46-B5F6B3BB53C1*
G04*
G04*
G04 #@! TF.FilePolarity,Negative*
G04*
G01*
G75*
G04:AMPARAMS|DCode=19|XSize=13.8mil|YSize=13.8mil|CornerRadius=6.9mil|HoleSize=0mil|Usage=FLASHONLY|Rotation=0.000|XOffset=0mil|YOffset=0mil|HoleType=Round|Shape=RoundedRectangle|*
%AMROUNDEDRECTD19*
21,1,0.0138,0.0000,0,0,0.0*
21,1,0.0000,0.0138,0,0,0.0*
1,1,0.0138,0.0000,0.0000*
1,1,0.0138,0.0000,0.0000*
1,1,0.0138,0.0000,0.0000*
1,1,0.0138,0.0000,0.0000*
%
%ADD19ROUNDEDRECTD19*%
%ADD20R,0.0394X0.0316*%
%ADD21R,0.0138X0.0374*%
%ADD22R,0.0138X0.0492*%
%ADD23R,0.0886X0.1319*%
%ADD24C,0.1457*%
%ADD25C,0.0256*%
G04:AMPARAMS|DCode=26|XSize=35.4mil|YSize=59.1mil|CornerRadius=17.7mil|HoleSize=0mil|Usage=FLASHONLY|Rotation=0.000|XOffset=0mil|YOffset=0mil|HoleType=Round|Shape=RoundedRectangle|*
%AMROUNDEDRECTD26*
21,1,0.0354,0.0236,0,0,0.0*
21,1,0.0000,0.0591,0,0,0.0*
1,1,0.0354,0.0000,-0.0118*
1,1,0.0354,0.0000,-0.0118*
1,1,0.0354,0.0000,0.0118*
1,1,0.0354,0.0000,0.0118*
%
%ADD26ROUNDEDRECTD26*%
G04:AMPARAMS|DCode=27|XSize=37.4mil|YSize=25.6mil|CornerRadius=12.8mil|HoleSize=0mil|Usage=FLASHONLY|Rotation=0.000|XOffset=0mil|YOffset=0mil|HoleType=Round|Shape=RoundedRectangle|*
%AMROUNDEDRECTD27*
21,1,0.0374,0.0000,0,0,0.0*
21,1,0.0118,0.0256,0,0,0.0*
1,1,0.0256,0.0059,0.0000*
1,1,0.0256,-0.0059,0.0000*
1,1,0.0256,-0.0059,0.0000*
1,1,0.0256,0.0059,0.0000*
%
%ADD27ROUNDEDRECTD27*%
D19*
X1568Y7135D02*
D03*
X1371D02*
D03*
X1174D02*
D03*
X977D02*
D03*
X780D02*
D03*
X584D02*
D03*
X387D02*
D03*
X190D02*
D03*
X-7D02*
D03*
X-204D02*
D03*
X-401D02*
D03*
X-598D02*
D03*
X-794D02*
D03*
X-991D02*
D03*
X-1188D02*
D03*
X-1385D02*
D03*
X-1582D02*
D03*
X1568Y7332D02*
D03*
X1371D02*
D03*
X1174D02*
D03*
X977D02*
D03*
X780D02*
D03*
X584D02*
D03*
X387D02*
D03*
X190D02*
D03*
X-7D02*
D03*
X-204D02*
D03*
X-401D02*
D03*
X-598D02*
D03*
X-794D02*
D03*
X-991D02*
D03*
X-1188D02*
D03*
X-1385D02*
D03*
X-1582D02*
D03*
X1568Y7528D02*
D03*
Y9103D02*
D03*
Y9300D02*
D03*
Y9497D02*
D03*
X1371Y7528D02*
D03*
X-1385D02*
D03*
X-1582D02*
D03*
X1568Y7725D02*
D03*
X1371D02*
D03*
X-1385D02*
D03*
X-1582D02*
D03*
X1568Y7922D02*
D03*
X1371D02*
D03*
X-1385D02*
D03*
X-1582D02*
D03*
X1568Y8119D02*
D03*
X1371D02*
D03*
X-1385D02*
D03*
X-1582D02*
D03*
X1568Y8316D02*
D03*
X1371D02*
D03*
X-1385D02*
D03*
X-1582D02*
D03*
X1568Y8513D02*
D03*
X1371D02*
D03*
X-1385D02*
D03*
X-1582D02*
D03*
X1568Y8709D02*
D03*
X1371D02*
D03*
X-1385D02*
D03*
X1568Y8906D02*
D03*
X1371D02*
D03*
X-1385D02*
D03*
X-1582Y8709D02*
D03*
Y8906D02*
D03*
X1371Y9103D02*
D03*
X-1385D02*
D03*
X-1582D02*
D03*
X1371Y9300D02*
D03*
X1174D02*
D03*
X977D02*
D03*
X780D02*
D03*
X584D02*
D03*
X387D02*
D03*
X190D02*
D03*
X-7D02*
D03*
X-204D02*
D03*
X-401D02*
D03*
X-598D02*
D03*
X-794D02*
D03*
X-991D02*
D03*
X-1188D02*
D03*
X-1385D02*
D03*
X-1582D02*
D03*
X1371Y9497D02*
D03*
X1174D02*
D03*
X977D02*
D03*
X780D02*
D03*
X584D02*
D03*
X387D02*
D03*
X190D02*
D03*
X-7D02*
D03*
X-204D02*
D03*
X-401D02*
D03*
X-598D02*
D03*
X-794D02*
D03*
X-991D02*
D03*
X-1188D02*
D03*
X-1385D02*
D03*
X-1582D02*
D03*
D20*
X613Y5050D02*
D03*
X101D02*
D03*
X-937D02*
D03*
X-1449D02*
D03*
X1551D02*
D03*
X2063D02*
D03*
X-3708Y5383D02*
D03*
X-3196D02*
D03*
X2419Y7132D02*
D03*
X2931D02*
D03*
X2710Y6180D02*
D03*
X2198D02*
D03*
D21*
X1004Y3283D02*
D03*
X808D02*
D03*
X611D02*
D03*
X414D02*
D03*
X217D02*
D03*
X20D02*
D03*
X-177D02*
D03*
X-373D02*
D03*
X-570D02*
D03*
X-767D02*
D03*
X-964D02*
D03*
X-1161D02*
D03*
D22*
X3438Y10973D02*
D03*
X3241D02*
D03*
X3044D02*
D03*
X2847D02*
D03*
X2651D02*
D03*
X2454D02*
D03*
X2257D02*
D03*
X2060D02*
D03*
X1863D02*
D03*
X1666D02*
D03*
X1469D02*
D03*
X1273D02*
D03*
X1076D02*
D03*
X879D02*
D03*
X682D02*
D03*
X485D02*
D03*
X288D02*
D03*
X92D02*
D03*
X-105D02*
D03*
X-302D02*
D03*
X-499D02*
D03*
X-696D02*
D03*
X-893D02*
D03*
X-1090D02*
D03*
X-1286D02*
D03*
X-1483D02*
D03*
X-1680D02*
D03*
X-1877D02*
D03*
X-2074D02*
D03*
X-2271D02*
D03*
X-2468D02*
D03*
X-2664D02*
D03*
X-2861D02*
D03*
X-3058D02*
D03*
X-3255D02*
D03*
X-3452D02*
D03*
D23*
X4068Y11828D02*
D03*
X-4082D02*
D03*
D24*
X3820Y3110D02*
D03*
X-4117Y3063D02*
D03*
D25*
X237Y2531D02*
D03*
X552D02*
D03*
X867D02*
D03*
X-1023D02*
D03*
X-708D02*
D03*
X-393D02*
D03*
X-551Y2807D02*
D03*
X-236D02*
D03*
X79D02*
D03*
X394D02*
D03*
X-1181D02*
D03*
X1024D02*
D03*
X-1496Y3063D02*
D03*
D26*
X1690Y843D02*
D03*
X-1846D02*
D03*
X1548Y2571D02*
D03*
X-1704D02*
D03*
D27*
X1339Y3063D02*
D03*
M02*
