G04*
G04 #@! TF.GenerationSoftware,Altium Limited,Altium Designer,25.8.1 (18)*
G04*
G04 Layer_Color=8421504*
%FSLAX24Y24*%
%MOIN*%
G70*
G04*
G04 #@! TF.SameCoordinates,B29B752B-8D7F-4BD7-8F6D-89FF9C86896C*
G04*
G04*
G04 #@! TF.FilePolarity,Positive*
G04*
G01*
G75*
%ADD20R,0.0180X0.0567*%
G04:AMPARAMS|DCode=21|XSize=53.4mil|YSize=13.4mil|CornerRadius=6.7mil|HoleSize=0mil|Usage=FLASHONLY|Rotation=180.000|XOffset=0mil|YOffset=0mil|HoleType=Round|Shape=RoundedRectangle|*
%AMROUNDEDRECTD21*
21,1,0.0534,0.0000,0,0,180.0*
21,1,0.0399,0.0134,0,0,180.0*
1,1,0.0134,-0.0200,0.0000*
1,1,0.0134,0.0200,0.0000*
1,1,0.0134,0.0200,0.0000*
1,1,0.0134,-0.0200,0.0000*
%
%ADD21ROUNDEDRECTD21*%
%ADD22R,0.0398X0.0456*%
%ADD23R,0.0359X0.0417*%
%ADD24R,0.0417X0.0359*%
%ADD25R,0.0573X0.0613*%
%ADD26R,0.0356X0.0357*%
%ADD27R,0.0591X0.0433*%
%ADD28R,0.0354X0.0118*%
%ADD29R,0.0534X0.0134*%
%ADD30R,0.0359X0.0338*%
%ADD31R,0.0315X0.0354*%
D20*
X15385Y25840D02*
D03*
X17274D02*
D03*
Y23410D02*
D03*
X27353D02*
D03*
X20739D02*
D03*
X23889D02*
D03*
X27668D02*
D03*
X15385Y39158D02*
D03*
X17274D02*
D03*
X23889Y41588D02*
D03*
X27353Y39158D02*
D03*
X27668D02*
D03*
X20739Y41588D02*
D03*
X17274D02*
D03*
X16959D02*
D03*
X16644D02*
D03*
X16015Y23410D02*
D03*
X15700D02*
D03*
X15385D02*
D03*
X17589D02*
D03*
X18849D02*
D03*
X18219D02*
D03*
X17904D02*
D03*
X20424Y39158D02*
D03*
X21054D02*
D03*
X21369D02*
D03*
X20109D02*
D03*
X16015Y41588D02*
D03*
X15700D02*
D03*
X15385D02*
D03*
X15700Y39158D02*
D03*
X16015D02*
D03*
X16330Y41588D02*
D03*
Y39158D02*
D03*
X16644D02*
D03*
X16959D02*
D03*
X17589Y41588D02*
D03*
Y39158D02*
D03*
X17904Y41588D02*
D03*
Y39158D02*
D03*
X18219Y41588D02*
D03*
Y39158D02*
D03*
X18534Y41588D02*
D03*
Y39158D02*
D03*
X18849Y41588D02*
D03*
Y39158D02*
D03*
X19164Y41588D02*
D03*
Y39158D02*
D03*
X19479Y41588D02*
D03*
Y39158D02*
D03*
X19794Y41588D02*
D03*
Y39158D02*
D03*
X20109Y41588D02*
D03*
X20424D02*
D03*
X20739Y39158D02*
D03*
X21054Y41588D02*
D03*
X21369D02*
D03*
X21684D02*
D03*
Y39158D02*
D03*
X21999Y41588D02*
D03*
Y39158D02*
D03*
X22314Y41588D02*
D03*
Y39158D02*
D03*
X22629Y41588D02*
D03*
Y39158D02*
D03*
X22944Y41588D02*
D03*
Y39158D02*
D03*
X23259Y41588D02*
D03*
Y39158D02*
D03*
X23574Y41588D02*
D03*
Y39158D02*
D03*
X23889D02*
D03*
X24204Y41588D02*
D03*
Y39158D02*
D03*
X24519Y41588D02*
D03*
Y39158D02*
D03*
X24833Y41588D02*
D03*
Y39158D02*
D03*
X25148Y41588D02*
D03*
Y39158D02*
D03*
X25463Y41588D02*
D03*
Y39158D02*
D03*
X25778Y41588D02*
D03*
Y39158D02*
D03*
X26093Y41588D02*
D03*
Y39158D02*
D03*
X26408Y41588D02*
D03*
Y39158D02*
D03*
X26723Y41588D02*
D03*
Y39158D02*
D03*
X27038Y41588D02*
D03*
Y39158D02*
D03*
X27353Y41588D02*
D03*
X27668D02*
D03*
X15700Y25840D02*
D03*
X16015D02*
D03*
X16330D02*
D03*
Y23410D02*
D03*
X16644Y25840D02*
D03*
Y23410D02*
D03*
X16959Y25840D02*
D03*
Y23410D02*
D03*
X17589Y25840D02*
D03*
X17904D02*
D03*
X18219D02*
D03*
X18534D02*
D03*
Y23410D02*
D03*
X18849Y25840D02*
D03*
X19164D02*
D03*
Y23410D02*
D03*
X19479Y25840D02*
D03*
Y23410D02*
D03*
X19794Y25840D02*
D03*
Y23410D02*
D03*
X20109Y25840D02*
D03*
Y23410D02*
D03*
X20424Y25840D02*
D03*
Y23410D02*
D03*
X20739Y25840D02*
D03*
X21054D02*
D03*
Y23410D02*
D03*
X21369Y25840D02*
D03*
Y23410D02*
D03*
X21684Y25840D02*
D03*
Y23410D02*
D03*
X21999Y25840D02*
D03*
Y23410D02*
D03*
X22314Y25840D02*
D03*
Y23410D02*
D03*
X22629Y25840D02*
D03*
Y23410D02*
D03*
X22944Y25840D02*
D03*
Y23410D02*
D03*
X23259Y25840D02*
D03*
Y23410D02*
D03*
X23574Y25840D02*
D03*
Y23410D02*
D03*
X23889Y25840D02*
D03*
X24204D02*
D03*
Y23410D02*
D03*
X24519Y25840D02*
D03*
Y23410D02*
D03*
X24833Y25840D02*
D03*
Y23410D02*
D03*
X25148Y25840D02*
D03*
Y23410D02*
D03*
X25463Y25840D02*
D03*
Y23410D02*
D03*
X25778Y25840D02*
D03*
Y23410D02*
D03*
X26093Y25840D02*
D03*
Y23410D02*
D03*
X26408Y25840D02*
D03*
Y23410D02*
D03*
X26723Y25840D02*
D03*
Y23410D02*
D03*
X27038Y25840D02*
D03*
Y23410D02*
D03*
X27353Y25840D02*
D03*
X27668D02*
D03*
D21*
X51793Y8713D02*
D03*
Y7689D02*
D03*
Y6665D02*
D03*
Y14689D02*
D03*
Y13665D02*
D03*
Y21689D02*
D03*
Y15713D02*
D03*
Y20665D02*
D03*
Y29713D02*
D03*
Y22713D02*
D03*
Y28689D02*
D03*
Y27665D02*
D03*
Y36713D02*
D03*
Y35689D02*
D03*
Y34665D02*
D03*
Y41665D02*
D03*
Y43713D02*
D03*
Y42689D02*
D03*
Y50713D02*
D03*
Y49689D02*
D03*
Y48665D02*
D03*
Y56689D02*
D03*
Y55665D02*
D03*
Y57713D02*
D03*
Y56945D02*
D03*
X49607Y57713D02*
D03*
Y57457D02*
D03*
Y57201D02*
D03*
Y56945D02*
D03*
Y56689D02*
D03*
Y56433D02*
D03*
Y56177D02*
D03*
Y55921D02*
D03*
Y55665D02*
D03*
Y55410D02*
D03*
X51793Y55921D02*
D03*
Y57457D02*
D03*
Y56433D02*
D03*
Y57201D02*
D03*
Y56177D02*
D03*
Y49945D02*
D03*
X49607Y50713D02*
D03*
Y50457D02*
D03*
Y50201D02*
D03*
Y49945D02*
D03*
Y49689D02*
D03*
Y49433D02*
D03*
Y49177D02*
D03*
Y48921D02*
D03*
Y48665D02*
D03*
Y48410D02*
D03*
X51793Y49433D02*
D03*
Y50457D02*
D03*
Y48921D02*
D03*
Y50201D02*
D03*
Y49177D02*
D03*
Y42945D02*
D03*
X49607Y43713D02*
D03*
Y43457D02*
D03*
Y43201D02*
D03*
Y42945D02*
D03*
Y42689D02*
D03*
Y42433D02*
D03*
Y42177D02*
D03*
Y41921D02*
D03*
Y41665D02*
D03*
Y41410D02*
D03*
X51793Y42433D02*
D03*
Y41921D02*
D03*
Y43457D02*
D03*
Y42177D02*
D03*
Y43201D02*
D03*
Y35945D02*
D03*
X49607Y36713D02*
D03*
Y36457D02*
D03*
Y36201D02*
D03*
Y35945D02*
D03*
Y35689D02*
D03*
Y35433D02*
D03*
Y35177D02*
D03*
Y34921D02*
D03*
Y34665D02*
D03*
Y34410D02*
D03*
X51793Y36457D02*
D03*
Y35433D02*
D03*
Y34921D02*
D03*
Y36201D02*
D03*
Y35177D02*
D03*
Y28945D02*
D03*
X49607Y29713D02*
D03*
Y29457D02*
D03*
Y29201D02*
D03*
Y28945D02*
D03*
Y28689D02*
D03*
Y28433D02*
D03*
Y28177D02*
D03*
Y27921D02*
D03*
Y27665D02*
D03*
Y27410D02*
D03*
X51793Y27921D02*
D03*
Y29457D02*
D03*
Y28433D02*
D03*
Y28177D02*
D03*
Y29201D02*
D03*
Y21945D02*
D03*
X49607Y22713D02*
D03*
Y22457D02*
D03*
Y22201D02*
D03*
Y21945D02*
D03*
Y21689D02*
D03*
Y21433D02*
D03*
Y21177D02*
D03*
Y20921D02*
D03*
Y20665D02*
D03*
Y20410D02*
D03*
X51793Y21433D02*
D03*
Y22457D02*
D03*
Y20921D02*
D03*
Y22201D02*
D03*
Y21177D02*
D03*
Y14945D02*
D03*
X49607Y15713D02*
D03*
Y15457D02*
D03*
Y15201D02*
D03*
Y14945D02*
D03*
Y14689D02*
D03*
Y14433D02*
D03*
Y14177D02*
D03*
Y13921D02*
D03*
Y13665D02*
D03*
Y13410D02*
D03*
X51793Y13921D02*
D03*
Y14433D02*
D03*
Y15457D02*
D03*
Y15201D02*
D03*
Y14177D02*
D03*
X49607Y6410D02*
D03*
Y7433D02*
D03*
Y8713D02*
D03*
Y7177D02*
D03*
Y6921D02*
D03*
Y8457D02*
D03*
Y7689D02*
D03*
Y6665D02*
D03*
X51793Y7177D02*
D03*
Y8201D02*
D03*
Y7945D02*
D03*
X49607Y8201D02*
D03*
Y7945D02*
D03*
X51793Y6921D02*
D03*
Y7433D02*
D03*
Y8457D02*
D03*
D22*
X48800Y10826D02*
D03*
Y17826D02*
D03*
Y24826D02*
D03*
Y31826D02*
D03*
Y38826D02*
D03*
Y45826D02*
D03*
Y52826D02*
D03*
Y59826D02*
D03*
Y59174D02*
D03*
Y52174D02*
D03*
Y45174D02*
D03*
Y38174D02*
D03*
Y31174D02*
D03*
Y24174D02*
D03*
Y17174D02*
D03*
Y10174D02*
D03*
D23*
X50400Y10767D02*
D03*
Y17767D02*
D03*
Y24767D02*
D03*
Y31767D02*
D03*
Y38767D02*
D03*
Y45767D02*
D03*
Y52767D02*
D03*
Y59767D02*
D03*
Y59233D02*
D03*
Y52233D02*
D03*
Y45233D02*
D03*
Y38233D02*
D03*
Y31233D02*
D03*
Y24233D02*
D03*
Y17233D02*
D03*
Y10233D02*
D03*
D24*
X8633Y53600D02*
D03*
X17375Y52725D02*
D03*
X8633Y55100D02*
D03*
X56033Y5100D02*
D03*
Y12100D02*
D03*
Y19100D02*
D03*
Y26100D02*
D03*
Y33100D02*
D03*
Y40100D02*
D03*
Y47100D02*
D03*
Y54100D02*
D03*
X56567D02*
D03*
Y47100D02*
D03*
Y40100D02*
D03*
Y33100D02*
D03*
Y26100D02*
D03*
Y19100D02*
D03*
Y12100D02*
D03*
Y5100D02*
D03*
X8100Y55100D02*
D03*
Y53600D02*
D03*
X17908Y52725D02*
D03*
D25*
X8829Y56700D02*
D03*
X8100D02*
D03*
D26*
X19795Y52708D02*
D03*
X58336Y5100D02*
D03*
Y12100D02*
D03*
Y19100D02*
D03*
Y26100D02*
D03*
Y33100D02*
D03*
Y40100D02*
D03*
Y47100D02*
D03*
Y54100D02*
D03*
X57864D02*
D03*
Y47100D02*
D03*
Y40100D02*
D03*
Y33100D02*
D03*
Y26100D02*
D03*
Y19100D02*
D03*
Y12100D02*
D03*
Y5100D02*
D03*
X19322Y52708D02*
D03*
D27*
X32330Y55976D02*
D03*
Y54976D02*
D03*
Y56976D02*
D03*
Y57976D02*
D03*
X28826Y54976D02*
D03*
Y55976D02*
D03*
Y56976D02*
D03*
Y57976D02*
D03*
D28*
X56324Y7017D02*
D03*
Y9183D02*
D03*
Y14017D02*
D03*
Y16183D02*
D03*
Y21017D02*
D03*
Y30183D02*
D03*
Y28017D02*
D03*
Y23183D02*
D03*
Y37183D02*
D03*
Y35017D02*
D03*
Y44183D02*
D03*
Y42017D02*
D03*
Y49017D02*
D03*
Y51183D02*
D03*
Y58183D02*
D03*
Y56017D02*
D03*
Y7411D02*
D03*
Y8395D02*
D03*
Y7805D02*
D03*
Y8789D02*
D03*
Y8002D02*
D03*
Y7214D02*
D03*
Y8198D02*
D03*
Y8986D02*
D03*
Y7608D02*
D03*
Y8592D02*
D03*
Y50592D02*
D03*
Y57592D02*
D03*
Y56608D02*
D03*
Y49608D02*
D03*
Y42608D02*
D03*
Y36592D02*
D03*
Y43592D02*
D03*
Y22592D02*
D03*
Y28608D02*
D03*
Y14608D02*
D03*
Y15592D02*
D03*
Y35608D02*
D03*
Y29592D02*
D03*
Y21608D02*
D03*
Y49214D02*
D03*
Y49411D02*
D03*
Y49805D02*
D03*
Y50002D02*
D03*
Y50198D02*
D03*
Y50395D02*
D03*
Y50789D02*
D03*
Y50986D02*
D03*
Y35214D02*
D03*
Y35411D02*
D03*
Y35805D02*
D03*
Y36002D02*
D03*
Y36198D02*
D03*
Y36395D02*
D03*
Y36789D02*
D03*
Y36986D02*
D03*
Y42214D02*
D03*
Y42411D02*
D03*
Y42805D02*
D03*
Y43002D02*
D03*
Y43198D02*
D03*
Y43395D02*
D03*
Y43789D02*
D03*
Y43986D02*
D03*
Y56214D02*
D03*
Y56411D02*
D03*
Y56805D02*
D03*
Y57002D02*
D03*
Y57198D02*
D03*
Y57395D02*
D03*
Y57789D02*
D03*
Y57986D02*
D03*
Y28214D02*
D03*
Y28411D02*
D03*
Y28805D02*
D03*
Y29002D02*
D03*
Y29198D02*
D03*
Y29395D02*
D03*
Y29789D02*
D03*
Y29986D02*
D03*
Y21214D02*
D03*
Y21411D02*
D03*
Y21805D02*
D03*
Y22002D02*
D03*
Y22198D02*
D03*
Y22395D02*
D03*
Y22789D02*
D03*
Y22986D02*
D03*
Y14214D02*
D03*
Y14411D02*
D03*
Y14805D02*
D03*
Y15002D02*
D03*
Y15198D02*
D03*
Y15395D02*
D03*
Y15789D02*
D03*
Y15986D02*
D03*
D29*
X51793Y55410D02*
D03*
Y48410D02*
D03*
Y41410D02*
D03*
Y34410D02*
D03*
Y27410D02*
D03*
Y20410D02*
D03*
Y13410D02*
D03*
Y6410D02*
D03*
D30*
X30078Y60682D02*
D03*
Y52370D02*
D03*
X28778Y52380D02*
D03*
Y60692D02*
D03*
X30078Y52982D02*
D03*
Y60070D02*
D03*
X28778Y60080D02*
D03*
Y52992D02*
D03*
D31*
X17615Y57311D02*
D03*
Y56642D02*
D03*
M02*
