M48
;Layer_Color=9474304
;FILE_FORMAT=2:4
INCH,LZ
;TYPE=PLATED
T05F00S00C0.0197
;TYPE=NON_PLATED
T11F00S00C0.0256
%
G90
G05
T05
G00X057155Y006474
M15
G01X056919
M16
G00X058883Y006332
M15
G01X058647
M16
G00X058883Y009868
M15
G01X058647
M16
G00X057155Y009726
M15
G01X056919
M16
G00X057155Y013474
M15
G01X056919
M16
G00X058883Y013332
M15
G01X058647
M16
G00X058883Y016868
M15
G01X058647
M16
G00X057155Y016726
M15
G01X056919
M16
G00X057155Y020474
M15
G01X056919
M16
G00X058883Y020332
M15
G01X058647
M16
G00X058883Y023868
M15
G01X058647
M16
G00X057155Y023726
M15
G01X056919
M16
G00X057155Y027474
M15
G01X056919
M16
G00X058883Y027332
M15
G01X058647
M16
G00X058883Y030868
M15
G01X058647
M16
G00X057155Y030726
M15
G01X056919
M16
G00X057155Y034474
M15
G01X056919
M16
G00X058883Y034332
M15
G01X058647
M16
G00X058883Y037868
M15
G01X058647
M16
G00X057155Y037726
M15
G01X056919
M16
G00X057155Y041474
M15
G01X056919
M16
G00X058883Y041332
M15
G01X058647
M16
G00X058883Y044868
M15
G01X058647
M16
G00X057155Y044726
M15
G01X056919
M16
G00X057155Y048474
M15
G01X056919
M16
G00X058883Y048332
M15
G01X058647
M16
G00X058883Y051868
M15
G01X058647
M16
G00X057155Y051726
M15
G01X056919
M16
G00X057155Y055474
M15
G01X056919
M16
G00X058883Y055332
M15
G01X058647
M16
G00X058883Y058868
M15
G01X058647
M16
G00X057155Y058726
M15
G01X056919
M16
T11
G00X056544Y009458
M15
G01Y009576
M16
G00X056544Y016458
M15
G01Y016576
M16
G00X056544Y023458
M15
G01Y023576
M16
G00X056544Y030458
M15
G01Y030576
M16
G00X056544Y037458
M15
G01Y037576
M16
G00X056544Y044458
M15
G01Y044576
M16
G00X056544Y051458
M15
G01Y051576
M16
G00X056544Y058458
M15
G01Y058576
M16
M17
M30
