G04*
G04 #@! TF.GenerationSoftware,Altium Limited,Altium Designer,25.8.1 (18)*
G04*
G04 Layer_Color=128*
%FSLAX24Y24*%
%MOIN*%
G70*
G04*
G04 #@! TF.SameCoordinates,B29B752B-8D7F-4BD7-8F6D-89FF9C86896C*
G04*
G04*
G04 #@! TF.FilePolarity,Positive*
G04*
G01*
G75*
%ADD78C,0.0020*%
D78*
X15545Y14000D02*
X15955D01*
X15750Y13795D02*
Y14205D01*
X11545Y14000D02*
X11955D01*
X11750Y13795D02*
Y14205D01*
X13545Y14000D02*
X13955D01*
X13750Y13795D02*
Y14205D01*
X19545Y14000D02*
X19955D01*
X19750Y13795D02*
Y14205D01*
X16545Y14000D02*
X16955D01*
X16750Y13795D02*
Y14205D01*
X17545Y14000D02*
X17955D01*
X17750Y13795D02*
Y14205D01*
X8545Y14000D02*
X8955D01*
X8750Y13795D02*
Y14205D01*
X2545Y15000D02*
X2955D01*
X2750Y14795D02*
Y15205D01*
X8545Y15000D02*
X8955D01*
X8750Y14795D02*
Y15205D01*
X10545Y14000D02*
X10955D01*
X10750Y13795D02*
Y14205D01*
X9545Y14000D02*
X9955D01*
X9750Y13795D02*
Y14205D01*
X28795Y14000D02*
X29205D01*
X29000Y13795D02*
Y14205D01*
X25795Y14000D02*
X26205D01*
X26000Y13795D02*
Y14205D01*
X26795Y14000D02*
X27205D01*
X27000Y13795D02*
Y14205D01*
X32795Y14000D02*
X33205D01*
X33000Y13795D02*
Y14205D01*
X30795Y14000D02*
X31205D01*
X31000Y13795D02*
Y14205D01*
X31795Y14000D02*
X32205D01*
X32000Y13795D02*
Y14205D01*
X24795Y14000D02*
X25205D01*
X25000Y13795D02*
Y14205D01*
X20545Y14000D02*
X20955D01*
X20750Y13795D02*
Y14205D01*
X25795Y15000D02*
X26205D01*
X26000Y14795D02*
Y15205D01*
X29795Y15000D02*
X30205D01*
X30000Y14795D02*
Y15205D01*
X32795Y15000D02*
X33205D01*
X33000Y14795D02*
Y15205D01*
X27795Y15000D02*
X28205D01*
X28000Y14795D02*
Y15205D01*
X28795Y15000D02*
X29205D01*
X29000Y14795D02*
Y15205D01*
X39795Y14000D02*
X40205D01*
X40000Y13795D02*
Y14205D01*
X37795Y14000D02*
X38205D01*
X38000Y13795D02*
Y14205D01*
X38795Y14000D02*
X39205D01*
X39000Y13795D02*
Y14205D01*
X43795Y14000D02*
X44205D01*
X44000Y13795D02*
Y14205D01*
X41795Y14000D02*
X42205D01*
X42000Y13795D02*
Y14205D01*
X42795Y14000D02*
X43205D01*
X43000Y13795D02*
Y14205D01*
X35795Y14000D02*
X36205D01*
X36000Y13795D02*
Y14205D01*
X33795Y14000D02*
X34205D01*
X34000Y13795D02*
Y14205D01*
X36795Y15000D02*
X37205D01*
X37000Y14795D02*
Y15205D01*
X42795Y15000D02*
X43205D01*
X43000Y14795D02*
Y15205D01*
X40795Y15000D02*
X41205D01*
X41000Y14795D02*
Y15205D01*
X41795Y15000D02*
X42205D01*
X42000Y14795D02*
Y15205D01*
X38795Y15000D02*
X39205D01*
X39000Y14795D02*
Y15205D01*
X34795Y15000D02*
X35205D01*
X35000Y14795D02*
Y15205D01*
X35795Y15000D02*
X36205D01*
X36000Y14795D02*
Y15205D01*
X8545Y49000D02*
X8955D01*
X8750Y48795D02*
Y49205D01*
X2545Y49000D02*
X2955D01*
X2750Y48795D02*
Y49205D01*
X19545Y50000D02*
X19955D01*
X19750Y49795D02*
Y50205D01*
X31795Y50000D02*
X32205D01*
X32000Y49795D02*
Y50205D01*
X3000Y55400D02*
X3394D01*
X3197Y55203D02*
Y55597D01*
X18414Y60027D02*
X18816D01*
X18615Y59826D02*
Y60227D01*
X43795Y49000D02*
X44205D01*
X44000Y48795D02*
Y49205D01*
X42795Y49000D02*
X43205D01*
X43000Y48795D02*
Y49205D01*
X56722Y9202D02*
X56879D01*
X56800Y9124D02*
Y9281D01*
X56820Y6474D02*
X57253D01*
X57037Y6257D02*
Y6691D01*
X56820Y9726D02*
X57253D01*
X57037Y9509D02*
Y9943D01*
X56820Y13474D02*
X57253D01*
X57037Y13257D02*
Y13691D01*
X56722Y13998D02*
X56879D01*
X56800Y13919D02*
Y14076D01*
X58548Y6332D02*
X58981D01*
X58765Y6116D02*
Y6549D01*
X58548Y9868D02*
X58981D01*
X58765Y9651D02*
Y10084D01*
X58548Y13332D02*
X58981D01*
X58765Y13116D02*
Y13549D01*
X56722Y23202D02*
X56879D01*
X56800Y23124D02*
Y23281D01*
X56722Y16202D02*
X56879D01*
X56800Y16124D02*
Y16281D01*
X56722Y20998D02*
X56879D01*
X56800Y20919D02*
Y21076D01*
X56820Y20474D02*
X57253D01*
X57037Y20257D02*
Y20691D01*
X56722Y30202D02*
X56879D01*
X56800Y30124D02*
Y30281D01*
X56820Y23726D02*
X57253D01*
X57037Y23509D02*
Y23943D01*
X56722Y27998D02*
X56879D01*
X56800Y27919D02*
Y28076D01*
X56820Y27474D02*
X57253D01*
X57037Y27257D02*
Y27691D01*
X56820Y16726D02*
X57253D01*
X57037Y16509D02*
Y16943D01*
X58548Y16868D02*
X58981D01*
X58765Y16651D02*
Y17084D01*
X58548Y23868D02*
X58981D01*
X58765Y23651D02*
Y24084D01*
X58548Y20332D02*
X58981D01*
X58765Y20116D02*
Y20549D01*
X58548Y27332D02*
X58981D01*
X58765Y27116D02*
Y27549D01*
X56820Y34474D02*
X57253D01*
X57037Y34257D02*
Y34691D01*
X56722Y37202D02*
X56879D01*
X56800Y37124D02*
Y37281D01*
X56722Y34998D02*
X56879D01*
X56800Y34919D02*
Y35076D01*
X56722Y44202D02*
X56879D01*
X56800Y44124D02*
Y44281D01*
X56820Y37726D02*
X57253D01*
X57037Y37509D02*
Y37943D01*
X56722Y41998D02*
X56879D01*
X56800Y41919D02*
Y42076D01*
X56820Y41474D02*
X57253D01*
X57037Y41257D02*
Y41691D01*
X56820Y30726D02*
X57253D01*
X57037Y30509D02*
Y30943D01*
X58548Y30868D02*
X58981D01*
X58765Y30651D02*
Y31084D01*
X58548Y37868D02*
X58981D01*
X58765Y37651D02*
Y38084D01*
X58548Y34332D02*
X58981D01*
X58765Y34116D02*
Y34549D01*
X58548Y41332D02*
X58981D01*
X58765Y41116D02*
Y41549D01*
X56722Y48998D02*
X56879D01*
X56800Y48919D02*
Y49076D01*
X56722Y51202D02*
X56879D01*
X56800Y51124D02*
Y51281D01*
X56820Y44726D02*
X57253D01*
X57037Y44509D02*
Y44943D01*
X56820Y51726D02*
X57253D01*
X57037Y51509D02*
Y51943D01*
X56820Y48474D02*
X57253D01*
X57037Y48257D02*
Y48691D01*
X56722Y58202D02*
X56879D01*
X56800Y58124D02*
Y58281D01*
X56820Y55474D02*
X57253D01*
X57037Y55257D02*
Y55691D01*
X56722Y55998D02*
X56879D01*
X56800Y55919D02*
Y56076D01*
X56820Y58726D02*
X57253D01*
X57037Y58509D02*
Y58943D01*
X58548Y44868D02*
X58981D01*
X58765Y44651D02*
Y45084D01*
X58548Y48332D02*
X58981D01*
X58765Y48116D02*
Y48549D01*
X58548Y51868D02*
X58981D01*
X58765Y51651D02*
Y52084D01*
X58548Y58868D02*
X58981D01*
X58765Y58651D02*
Y59084D01*
X58548Y55332D02*
X58981D01*
X58765Y55116D02*
Y55549D01*
X56722Y6998D02*
X56879D01*
X56800Y6919D02*
Y7076D01*
X56417Y6683D02*
X56672D01*
X56544Y6555D02*
Y6811D01*
X56417Y9517D02*
X56672D01*
X56544Y9389D02*
Y9645D01*
X56997Y8730D02*
X57155D01*
X57076Y8651D02*
Y8809D01*
X56997Y7785D02*
X57155D01*
X57076Y7706D02*
Y7864D01*
X56997Y8415D02*
X57155D01*
X57076Y8336D02*
Y8494D01*
X56997Y7470D02*
X57155D01*
X57076Y7391D02*
Y7549D01*
X56722Y8257D02*
X56879D01*
X56800Y8179D02*
Y8336D01*
X56997Y9045D02*
X57155D01*
X57076Y8966D02*
Y9124D01*
X56722Y7943D02*
X56879D01*
X56800Y7864D02*
Y8021D01*
X56997Y7155D02*
X57155D01*
X57076Y7076D02*
Y7234D01*
X56722Y7628D02*
X56879D01*
X56800Y7549D02*
Y7706D01*
X56722Y8572D02*
X56879D01*
X56800Y8494D02*
Y8651D01*
X56722Y43572D02*
X56879D01*
X56800Y43494D02*
Y43651D01*
X56722Y57572D02*
X56879D01*
X56800Y57494D02*
Y57651D01*
X56722Y56628D02*
X56879D01*
X56800Y56549D02*
Y56706D01*
X56722Y50572D02*
X56879D01*
X56800Y50494D02*
Y50651D01*
X56722Y49628D02*
X56879D01*
X56800Y49549D02*
Y49706D01*
X56722Y42628D02*
X56879D01*
X56800Y42549D02*
Y42706D01*
X56722Y36572D02*
X56879D01*
X56800Y36494D02*
Y36651D01*
X7545Y50000D02*
X7955D01*
X7750Y49795D02*
Y50205D01*
X8545Y50000D02*
X8955D01*
X8750Y49795D02*
Y50205D01*
X6545Y50000D02*
X6955D01*
X6750Y49795D02*
Y50205D01*
X56722Y29572D02*
X56879D01*
X56800Y29494D02*
Y29651D01*
X56722Y28628D02*
X56879D01*
X56800Y28549D02*
Y28706D01*
X56722Y35628D02*
X56879D01*
X56800Y35549D02*
Y35706D01*
X56722Y22572D02*
X56879D01*
X56800Y22494D02*
Y22651D01*
X56722Y21628D02*
X56879D01*
X56800Y21549D02*
Y21706D01*
X56722Y15572D02*
X56879D01*
X56800Y15494D02*
Y15651D01*
X56722Y14628D02*
X56879D01*
X56800Y14549D02*
Y14706D01*
X3545Y14000D02*
X3955D01*
X3750Y13795D02*
Y14205D01*
X4545Y14000D02*
X4955D01*
X4750Y13795D02*
Y14205D01*
X2545Y14000D02*
X2955D01*
X2750Y13795D02*
Y14205D01*
X18545Y49000D02*
X18955D01*
X18750Y48795D02*
Y49205D01*
X20545Y49000D02*
X20955D01*
X20750Y48795D02*
Y49205D01*
X21545Y49000D02*
X21955D01*
X21750Y48795D02*
Y49205D01*
X17545Y49000D02*
X17955D01*
X17750Y48795D02*
Y49205D01*
X5362Y55400D02*
X5756D01*
X5559Y55203D02*
Y55597D01*
X4181Y53550D02*
X4575D01*
X4378Y53353D02*
Y53746D01*
X2545Y50000D02*
X2955D01*
X2750Y49795D02*
Y50205D01*
X3545Y50000D02*
X3955D01*
X3750Y49795D02*
Y50205D01*
X4545Y50000D02*
X4955D01*
X4750Y49795D02*
Y50205D01*
X18414Y54427D02*
X18816D01*
X18615Y54226D02*
Y54627D01*
X56417Y48683D02*
X56672D01*
X56544Y48555D02*
Y48811D01*
X56417Y51517D02*
X56672D01*
X56544Y51389D02*
Y51645D01*
X56722Y50257D02*
X56879D01*
X56800Y50179D02*
Y50336D01*
X56722Y49943D02*
X56879D01*
X56800Y49864D02*
Y50021D01*
X56997Y49785D02*
X57155D01*
X57076Y49706D02*
Y49864D01*
X56997Y49470D02*
X57155D01*
X57076Y49391D02*
Y49549D01*
X56997Y49155D02*
X57155D01*
X57076Y49076D02*
Y49234D01*
X56997Y51045D02*
X57155D01*
X57076Y50966D02*
Y51124D01*
X56997Y50730D02*
X57155D01*
X57076Y50651D02*
Y50809D01*
X56997Y50415D02*
X57155D01*
X57076Y50336D02*
Y50494D01*
X56417Y34683D02*
X56672D01*
X56544Y34555D02*
Y34811D01*
X56417Y37517D02*
X56672D01*
X56544Y37389D02*
Y37645D01*
X56722Y36257D02*
X56879D01*
X56800Y36179D02*
Y36336D01*
X56722Y35943D02*
X56879D01*
X56800Y35864D02*
Y36021D01*
X56997Y35785D02*
X57155D01*
X57076Y35706D02*
Y35864D01*
X56997Y35470D02*
X57155D01*
X57076Y35391D02*
Y35549D01*
X56997Y35155D02*
X57155D01*
X57076Y35076D02*
Y35234D01*
X56997Y37045D02*
X57155D01*
X57076Y36966D02*
Y37124D01*
X56997Y36730D02*
X57155D01*
X57076Y36651D02*
Y36809D01*
X56997Y36415D02*
X57155D01*
X57076Y36336D02*
Y36494D01*
X56417Y41683D02*
X56672D01*
X56544Y41555D02*
Y41811D01*
X56417Y44517D02*
X56672D01*
X56544Y44389D02*
Y44645D01*
X56722Y43257D02*
X56879D01*
X56800Y43179D02*
Y43336D01*
X56722Y42943D02*
X56879D01*
X56800Y42864D02*
Y43021D01*
X56997Y42785D02*
X57155D01*
X57076Y42706D02*
Y42864D01*
X56997Y42470D02*
X57155D01*
X57076Y42391D02*
Y42549D01*
X56997Y42155D02*
X57155D01*
X57076Y42076D02*
Y42234D01*
X56997Y44045D02*
X57155D01*
X57076Y43966D02*
Y44124D01*
X56997Y43730D02*
X57155D01*
X57076Y43651D02*
Y43809D01*
X56997Y43415D02*
X57155D01*
X57076Y43336D02*
Y43494D01*
X56417Y55683D02*
X56672D01*
X56544Y55555D02*
Y55811D01*
X56417Y58517D02*
X56672D01*
X56544Y58389D02*
Y58645D01*
X56722Y57257D02*
X56879D01*
X56800Y57179D02*
Y57336D01*
X56722Y56943D02*
X56879D01*
X56800Y56864D02*
Y57021D01*
X56997Y56785D02*
X57155D01*
X57076Y56706D02*
Y56864D01*
X56997Y56470D02*
X57155D01*
X57076Y56391D02*
Y56549D01*
X56997Y56155D02*
X57155D01*
X57076Y56076D02*
Y56234D01*
X56997Y58045D02*
X57155D01*
X57076Y57966D02*
Y58124D01*
X56997Y57730D02*
X57155D01*
X57076Y57651D02*
Y57809D01*
X56997Y57415D02*
X57155D01*
X57076Y57336D02*
Y57494D01*
X56417Y27683D02*
X56672D01*
X56544Y27555D02*
Y27811D01*
X56417Y30517D02*
X56672D01*
X56544Y30389D02*
Y30645D01*
X56722Y29257D02*
X56879D01*
X56800Y29179D02*
Y29336D01*
X56722Y28943D02*
X56879D01*
X56800Y28864D02*
Y29021D01*
X56997Y28785D02*
X57155D01*
X57076Y28706D02*
Y28864D01*
X56997Y28470D02*
X57155D01*
X57076Y28391D02*
Y28549D01*
X56997Y28155D02*
X57155D01*
X57076Y28076D02*
Y28234D01*
X56997Y30045D02*
X57155D01*
X57076Y29966D02*
Y30124D01*
X56997Y29730D02*
X57155D01*
X57076Y29651D02*
Y29809D01*
X56997Y29415D02*
X57155D01*
X57076Y29336D02*
Y29494D01*
X56417Y20683D02*
X56672D01*
X56544Y20555D02*
Y20811D01*
X56417Y23517D02*
X56672D01*
X56544Y23389D02*
Y23645D01*
X56722Y22257D02*
X56879D01*
X56800Y22179D02*
Y22336D01*
X56722Y21943D02*
X56879D01*
X56800Y21864D02*
Y22021D01*
X56997Y21785D02*
X57155D01*
X57076Y21706D02*
Y21864D01*
X56997Y21470D02*
X57155D01*
X57076Y21391D02*
Y21549D01*
X56997Y21155D02*
X57155D01*
X57076Y21076D02*
Y21234D01*
X56997Y23045D02*
X57155D01*
X57076Y22966D02*
Y23124D01*
X56997Y22730D02*
X57155D01*
X57076Y22651D02*
Y22809D01*
X56997Y22415D02*
X57155D01*
X57076Y22336D02*
Y22494D01*
X56417Y13683D02*
X56672D01*
X56544Y13555D02*
Y13811D01*
X56417Y16517D02*
X56672D01*
X56544Y16389D02*
Y16645D01*
X56722Y15257D02*
X56879D01*
X56800Y15179D02*
Y15336D01*
X56722Y14943D02*
X56879D01*
X56800Y14864D02*
Y15021D01*
X56997Y14785D02*
X57155D01*
X57076Y14706D02*
Y14864D01*
X56997Y14470D02*
X57155D01*
X57076Y14391D02*
Y14549D01*
X56997Y14155D02*
X57155D01*
X57076Y14076D02*
Y14234D01*
X56997Y16045D02*
X57155D01*
X57076Y15966D02*
Y16124D01*
X56997Y15730D02*
X57155D01*
X57076Y15651D02*
Y15809D01*
X56997Y15415D02*
X57155D01*
X57076Y15336D02*
Y15494D01*
X19414Y60027D02*
X19816D01*
X19615Y59826D02*
Y60227D01*
X19414Y54427D02*
X19816D01*
X19615Y54226D02*
Y54627D01*
X17414Y54427D02*
X17816D01*
X17615Y54226D02*
Y54627D01*
X14540Y41173D02*
X14940D01*
X14740Y40973D02*
Y41373D01*
X28113Y41173D02*
X28513D01*
X28313Y40973D02*
Y41373D01*
X14540Y25425D02*
X14940D01*
X14740Y25225D02*
Y25625D01*
X28113Y25425D02*
X28513D01*
X28313Y25225D02*
Y25625D01*
X43795Y15000D02*
X44205D01*
X44000Y14795D02*
Y15205D01*
X36795Y14000D02*
X37205D01*
X37000Y13795D02*
Y14205D01*
X34795Y14000D02*
X35205D01*
X35000Y13795D02*
Y14205D01*
X26795Y15000D02*
X27205D01*
X27000Y14795D02*
Y15205D01*
X24795Y15000D02*
X25205D01*
X25000Y14795D02*
Y15205D01*
X21545Y14000D02*
X21955D01*
X21750Y13795D02*
Y14205D01*
X13545Y15000D02*
X13955D01*
X13750Y14795D02*
Y15205D01*
X7545Y14000D02*
X7955D01*
X7750Y13795D02*
Y14205D01*
X40795Y14000D02*
X41205D01*
X41000Y13795D02*
Y14205D01*
X30795Y15000D02*
X31205D01*
X31000Y14795D02*
Y15205D01*
X16545Y15000D02*
X16955D01*
X16750Y14795D02*
Y15205D01*
X33795Y15000D02*
X34205D01*
X34000Y14795D02*
Y15205D01*
X29795Y14000D02*
X30205D01*
X30000Y13795D02*
Y14205D01*
X20545Y15000D02*
X20955D01*
X20750Y14795D02*
Y15205D01*
X18545Y15000D02*
X18955D01*
X18750Y14795D02*
Y15205D01*
X12545Y15000D02*
X12955D01*
X12750Y14795D02*
Y15205D01*
X9545Y15000D02*
X9955D01*
X9750Y14795D02*
Y15205D01*
X19545Y15000D02*
X19955D01*
X19750Y14795D02*
Y15205D01*
X31795Y15000D02*
X32205D01*
X32000Y14795D02*
Y15205D01*
X3545Y15000D02*
X3955D01*
X3750Y14795D02*
Y15205D01*
X27795Y14000D02*
X28205D01*
X28000Y13795D02*
Y14205D01*
X6545Y14000D02*
X6955D01*
X6750Y13795D02*
Y14205D01*
X39795Y15000D02*
X40205D01*
X40000Y14795D02*
Y15205D01*
X21545Y15000D02*
X21955D01*
X21750Y14795D02*
Y15205D01*
X18545Y14000D02*
X18955D01*
X18750Y13795D02*
Y14205D01*
X15545Y15000D02*
X15955D01*
X15750Y14795D02*
Y15205D01*
X14545Y14000D02*
X14955D01*
X14750Y13795D02*
Y14205D01*
X17545Y15000D02*
X17955D01*
X17750Y14795D02*
Y15205D01*
X6545Y15000D02*
X6955D01*
X6750Y14795D02*
Y15205D01*
X5545Y14000D02*
X5955D01*
X5750Y13795D02*
Y14205D01*
X5545Y15000D02*
X5955D01*
X5750Y14795D02*
Y15205D01*
X4545Y15000D02*
X4955D01*
X4750Y14795D02*
Y15205D01*
X37795Y15000D02*
X38205D01*
X38000Y14795D02*
Y15205D01*
X14545Y15000D02*
X14955D01*
X14750Y14795D02*
Y15205D01*
X12545Y14000D02*
X12955D01*
X12750Y13795D02*
Y14205D01*
X11545Y15000D02*
X11955D01*
X11750Y14795D02*
Y15205D01*
X10545Y15000D02*
X10955D01*
X10750Y14795D02*
Y15205D01*
X7545Y15000D02*
X7955D01*
X7750Y14795D02*
Y15205D01*
X2725Y23839D02*
X3709D01*
X3217Y23346D02*
Y24331D01*
X29891Y41161D02*
X30875D01*
X30383Y40669D02*
Y41654D01*
X2008Y2500D02*
X2992D01*
X2500Y2008D02*
Y2992D01*
X56808Y2500D02*
X57792D01*
X57300Y2008D02*
Y2992D01*
X2725Y41161D02*
X3709D01*
X3217Y40669D02*
Y41654D01*
X29891Y23839D02*
X30875D01*
X30383Y23346D02*
Y24331D01*
X56808Y62500D02*
X57792D01*
X57300Y62008D02*
Y62992D01*
X2008Y62500D02*
X2992D01*
X2500Y62008D02*
Y62992D01*
X43795Y50000D02*
X44205D01*
X44000Y49795D02*
Y50205D01*
X42795Y50000D02*
X43205D01*
X43000Y49795D02*
Y50205D01*
X41795Y49000D02*
X42205D01*
X42000Y48795D02*
Y49205D01*
X41795Y50000D02*
X42205D01*
X42000Y49795D02*
Y50205D01*
X40795Y49000D02*
X41205D01*
X41000Y48795D02*
Y49205D01*
X40795Y50000D02*
X41205D01*
X41000Y49795D02*
Y50205D01*
X39795Y49000D02*
X40205D01*
X40000Y48795D02*
Y49205D01*
X39795Y50000D02*
X40205D01*
X40000Y49795D02*
Y50205D01*
X38795Y49000D02*
X39205D01*
X39000Y48795D02*
Y49205D01*
X38795Y50000D02*
X39205D01*
X39000Y49795D02*
Y50205D01*
X37795Y49000D02*
X38205D01*
X38000Y48795D02*
Y49205D01*
X37795Y50000D02*
X38205D01*
X38000Y49795D02*
Y50205D01*
X36795Y49000D02*
X37205D01*
X37000Y48795D02*
Y49205D01*
X36795Y50000D02*
X37205D01*
X37000Y49795D02*
Y50205D01*
X35795Y49000D02*
X36205D01*
X36000Y48795D02*
Y49205D01*
X35795Y50000D02*
X36205D01*
X36000Y49795D02*
Y50205D01*
X34795Y49000D02*
X35205D01*
X35000Y48795D02*
Y49205D01*
X34795Y50000D02*
X35205D01*
X35000Y49795D02*
Y50205D01*
X33795Y49000D02*
X34205D01*
X34000Y48795D02*
Y49205D01*
X33795Y50000D02*
X34205D01*
X34000Y49795D02*
Y50205D01*
X32795Y49000D02*
X33205D01*
X33000Y48795D02*
Y49205D01*
X32795Y50000D02*
X33205D01*
X33000Y49795D02*
Y50205D01*
X31795Y49000D02*
X32205D01*
X32000Y48795D02*
Y49205D01*
X30795Y49000D02*
X31205D01*
X31000Y48795D02*
Y49205D01*
X30795Y50000D02*
X31205D01*
X31000Y49795D02*
Y50205D01*
X29795Y49000D02*
X30205D01*
X30000Y48795D02*
Y49205D01*
X29795Y50000D02*
X30205D01*
X30000Y49795D02*
Y50205D01*
X28795Y49000D02*
X29205D01*
X29000Y48795D02*
Y49205D01*
X28795Y50000D02*
X29205D01*
X29000Y49795D02*
Y50205D01*
X27795Y49000D02*
X28205D01*
X28000Y48795D02*
Y49205D01*
X27795Y50000D02*
X28205D01*
X28000Y49795D02*
Y50205D01*
X26795Y49000D02*
X27205D01*
X27000Y48795D02*
Y49205D01*
X26795Y50000D02*
X27205D01*
X27000Y49795D02*
Y50205D01*
X25795Y49000D02*
X26205D01*
X26000Y48795D02*
Y49205D01*
X25795Y50000D02*
X26205D01*
X26000Y49795D02*
Y50205D01*
X24795Y49000D02*
X25205D01*
X25000Y48795D02*
Y49205D01*
X24795Y50000D02*
X25205D01*
X25000Y49795D02*
Y50205D01*
X21545Y50000D02*
X21955D01*
X21750Y49795D02*
Y50205D01*
X20545Y50000D02*
X20955D01*
X20750Y49795D02*
Y50205D01*
X19545Y49000D02*
X19955D01*
X19750Y48795D02*
Y49205D01*
X18545Y50000D02*
X18955D01*
X18750Y49795D02*
Y50205D01*
X17545Y50000D02*
X17955D01*
X17750Y49795D02*
Y50205D01*
X16545Y49000D02*
X16955D01*
X16750Y48795D02*
Y49205D01*
X16545Y50000D02*
X16955D01*
X16750Y49795D02*
Y50205D01*
X15545Y49000D02*
X15955D01*
X15750Y48795D02*
Y49205D01*
X15545Y50000D02*
X15955D01*
X15750Y49795D02*
Y50205D01*
X14545Y49000D02*
X14955D01*
X14750Y48795D02*
Y49205D01*
X14545Y50000D02*
X14955D01*
X14750Y49795D02*
Y50205D01*
X13545Y49000D02*
X13955D01*
X13750Y48795D02*
Y49205D01*
X13545Y50000D02*
X13955D01*
X13750Y49795D02*
Y50205D01*
X12545Y49000D02*
X12955D01*
X12750Y48795D02*
Y49205D01*
X12545Y50000D02*
X12955D01*
X12750Y49795D02*
Y50205D01*
X11545Y49000D02*
X11955D01*
X11750Y48795D02*
Y49205D01*
X11545Y50000D02*
X11955D01*
X11750Y49795D02*
Y50205D01*
X10545Y49000D02*
X10955D01*
X10750Y48795D02*
Y49205D01*
X10545Y50000D02*
X10955D01*
X10750Y49795D02*
Y50205D01*
X9545Y49000D02*
X9955D01*
X9750Y48795D02*
Y49205D01*
X9545Y50000D02*
X9955D01*
X9750Y49795D02*
Y50205D01*
X7545Y49000D02*
X7955D01*
X7750Y48795D02*
Y49205D01*
X6545Y49000D02*
X6955D01*
X6750Y48795D02*
Y49205D01*
X5545Y49000D02*
X5955D01*
X5750Y48795D02*
Y49205D01*
X5545Y50000D02*
X5955D01*
X5750Y49795D02*
Y50205D01*
X4545Y49000D02*
X4955D01*
X4750Y48795D02*
Y49205D01*
X3545Y49000D02*
X3955D01*
X3750Y48795D02*
Y49205D01*
X9077Y4800D02*
X9237D01*
X9157Y4720D02*
Y4880D01*
X26626Y5500D02*
X26786D01*
X26706Y5420D02*
Y5580D01*
X17470Y40500D02*
X17630D01*
X17550Y40420D02*
Y40580D01*
X33370Y23800D02*
X33530D01*
X33450Y23720D02*
Y23880D01*
X36220Y21300D02*
X36380D01*
X36300Y21220D02*
Y21380D01*
X12370Y20700D02*
X12530D01*
X12450Y20620D02*
Y20780D01*
X18770Y18100D02*
X18930D01*
X18850Y18020D02*
Y18180D01*
X23170Y48500D02*
X23330D01*
X23250Y48420D02*
Y48580D01*
X12070Y43700D02*
X12230D01*
X12150Y43620D02*
Y43780D01*
X10620Y45100D02*
X10780D01*
X10700Y45020D02*
Y45180D01*
X14520Y44800D02*
X14680D01*
X14600Y44720D02*
Y44880D01*
X42920Y45000D02*
X43080D01*
X43000Y44920D02*
Y45080D01*
X38920Y41000D02*
X39080D01*
X39000Y40920D02*
Y41080D01*
X33920Y39000D02*
X34080D01*
X34000Y38920D02*
Y39080D01*
X36420Y27500D02*
X36580D01*
X36500Y27420D02*
Y27580D01*
X32920Y30500D02*
X33080D01*
X33000Y30420D02*
Y30580D01*
X43420Y27000D02*
X43580D01*
X43500Y26920D02*
Y27080D01*
X39420Y23000D02*
X39580D01*
X39500Y22920D02*
Y23080D01*
X44920Y21000D02*
X45080D01*
X45000Y20920D02*
Y21080D01*
X11420Y33000D02*
X11580D01*
X11500Y32920D02*
Y33080D01*
X18420Y33000D02*
X18580D01*
X18500Y32920D02*
Y33080D01*
X5920Y28000D02*
X6080D01*
X6000Y27920D02*
Y28080D01*
X5920Y37000D02*
X6080D01*
X6000Y36920D02*
Y37080D01*
X23920Y60500D02*
X24080D01*
X24000Y60420D02*
Y60580D01*
X39920Y52000D02*
X40080D01*
X40000Y51920D02*
Y52080D01*
X39920Y60000D02*
X40080D01*
X40000Y59920D02*
Y60080D01*
X42420Y32500D02*
X42580D01*
X42500Y32420D02*
Y32580D01*
X4420Y9000D02*
X4580D01*
X4500Y8920D02*
Y9080D01*
X20420Y9000D02*
X20580D01*
X20500Y8920D02*
Y9080D01*
X36420Y9000D02*
X36580D01*
X36500Y8920D02*
Y9080D01*
X44420Y6000D02*
X44580D01*
X44500Y5920D02*
Y6080D01*
X23809Y24180D02*
X23969D01*
X23889Y24100D02*
Y24260D01*
X17355Y60027D02*
X17475D01*
X17415Y59967D02*
Y60087D01*
X20420Y24300D02*
X20580D01*
X20500Y24220D02*
Y24380D01*
X14820Y26500D02*
X14980D01*
X14900Y26420D02*
Y26580D01*
X17320Y26600D02*
X17480D01*
X17400Y26520D02*
Y26680D01*
X27588Y24061D02*
X27748D01*
X27668Y23981D02*
Y24141D01*
X48740Y11600D02*
X48860D01*
X48800Y11540D02*
Y11660D01*
X50340Y11500D02*
X50460D01*
X50400Y11440D02*
Y11560D01*
X48740Y18600D02*
X48860D01*
X48800Y18540D02*
Y18660D01*
X48740Y25600D02*
X48860D01*
X48800Y25540D02*
Y25660D01*
X50340Y18500D02*
X50460D01*
X50400Y18440D02*
Y18560D01*
X50340Y25500D02*
X50460D01*
X50400Y25440D02*
Y25560D01*
X15325Y37500D02*
X15445D01*
X15385Y37440D02*
Y37560D01*
X17214Y38000D02*
X17334D01*
X17274Y37940D02*
Y38060D01*
X27608Y38000D02*
X27728D01*
X27668Y37940D02*
Y38060D01*
X23829Y42400D02*
X23949D01*
X23889Y42340D02*
Y42460D01*
X16282Y52725D02*
X16402D01*
X16342Y52665D02*
Y52785D01*
X9607Y53600D02*
X9727D01*
X9667Y53540D02*
Y53660D01*
X9607Y55100D02*
X9727D01*
X9667Y55040D02*
Y55160D01*
X9807Y56700D02*
X9927D01*
X9867Y56640D02*
Y56760D01*
X20828Y52716D02*
X20948D01*
X20888Y52656D02*
Y52776D01*
X48740Y32600D02*
X48860D01*
X48800Y32540D02*
Y32660D01*
X48740Y39600D02*
X48860D01*
X48800Y39540D02*
Y39660D01*
X50340Y46500D02*
X50460D01*
X50400Y46440D02*
Y46560D01*
X50340Y32500D02*
X50460D01*
X50400Y32440D02*
Y32560D01*
X50340Y39500D02*
X50460D01*
X50400Y39440D02*
Y39560D01*
X33240Y54976D02*
X33360D01*
X33300Y54916D02*
Y55036D01*
X48740Y53600D02*
X48860D01*
X48800Y53540D02*
Y53660D01*
X33240Y55976D02*
X33360D01*
X33300Y55916D02*
Y56036D01*
X33240Y57976D02*
X33360D01*
X33300Y57916D02*
Y58036D01*
X33240Y56976D02*
X33360D01*
X33300Y56916D02*
Y57036D01*
X48740Y60600D02*
X48860D01*
X48800Y60540D02*
Y60660D01*
X50340Y53500D02*
X50460D01*
X50400Y53440D02*
Y53560D01*
X50340Y60500D02*
X50460D01*
X50400Y60440D02*
Y60560D01*
X52333Y6665D02*
X52453D01*
X52393Y6605D02*
Y6725D01*
X52340Y8706D02*
X52460D01*
X52400Y8646D02*
Y8766D01*
X52340Y7689D02*
X52460D01*
X52400Y7629D02*
Y7749D01*
X52333Y13665D02*
X52453D01*
X52393Y13605D02*
Y13725D01*
X52340Y14689D02*
X52460D01*
X52400Y14629D02*
Y14749D01*
X55172Y5100D02*
X55292D01*
X55232Y5040D02*
Y5160D01*
X55172Y12100D02*
X55292D01*
X55232Y12040D02*
Y12160D01*
X52333Y20665D02*
X52453D01*
X52393Y20605D02*
Y20725D01*
X52340Y22706D02*
X52460D01*
X52400Y22646D02*
Y22766D01*
X52340Y21689D02*
X52460D01*
X52400Y21629D02*
Y21749D01*
X52333Y27665D02*
X52453D01*
X52393Y27605D02*
Y27725D01*
X52340Y29706D02*
X52460D01*
X52400Y29646D02*
Y29766D01*
X52340Y28689D02*
X52460D01*
X52400Y28629D02*
Y28749D01*
X52340Y15706D02*
X52460D01*
X52400Y15646D02*
Y15766D01*
X55172Y19100D02*
X55292D01*
X55232Y19040D02*
Y19160D01*
X55172Y26100D02*
X55292D01*
X55232Y26040D02*
Y26160D01*
X52333Y34665D02*
X52453D01*
X52393Y34605D02*
Y34725D01*
X52340Y36706D02*
X52460D01*
X52400Y36646D02*
Y36766D01*
X52340Y35689D02*
X52460D01*
X52400Y35629D02*
Y35749D01*
X52333Y41665D02*
X52453D01*
X52393Y41605D02*
Y41725D01*
X52340Y43706D02*
X52460D01*
X52400Y43646D02*
Y43766D01*
X52340Y42689D02*
X52460D01*
X52400Y42629D02*
Y42749D01*
X55172Y33100D02*
X55292D01*
X55232Y33040D02*
Y33160D01*
X55172Y40100D02*
X55292D01*
X55232Y40040D02*
Y40160D01*
X52333Y48665D02*
X52453D01*
X52393Y48605D02*
Y48725D01*
X52333Y55665D02*
X52453D01*
X52393Y55605D02*
Y55725D01*
X52340Y50706D02*
X52460D01*
X52400Y50646D02*
Y50766D01*
X52340Y57706D02*
X52460D01*
X52400Y57646D02*
Y57766D01*
X52340Y56689D02*
X52460D01*
X52400Y56629D02*
Y56749D01*
X55172Y47100D02*
X55292D01*
X55232Y47040D02*
Y47160D01*
X52340Y49689D02*
X52460D01*
X52400Y49629D02*
Y49749D01*
X55139Y54100D02*
X55259D01*
X55199Y54040D02*
Y54160D01*
X48740Y46600D02*
X48860D01*
X48800Y46540D02*
Y46660D01*
X48740Y44412D02*
X48860D01*
X48800Y44352D02*
Y44472D01*
X58173Y56000D02*
X58253D01*
X58213Y55960D02*
Y56040D01*
X57870Y56000D02*
X57950D01*
X57910Y55960D02*
Y56040D01*
X54062Y56908D02*
X54142D01*
X54102Y56868D02*
Y56948D01*
X54855Y58244D02*
X54935D01*
X54895Y58204D02*
Y58284D01*
X54861Y57939D02*
X54941D01*
X54901Y57899D02*
Y57979D01*
X54062Y56608D02*
X54142D01*
X54102Y56568D02*
Y56648D01*
X55168Y56455D02*
X55248D01*
X55208Y56415D02*
Y56495D01*
X55160Y56155D02*
X55240D01*
X55200Y56115D02*
Y56195D01*
X54060Y57508D02*
X54140D01*
X54100Y57468D02*
Y57548D01*
X54060Y57208D02*
X54140D01*
X54100Y57168D02*
Y57248D01*
X58173Y49000D02*
X58253D01*
X58213Y48960D02*
Y49040D01*
X57870Y49000D02*
X57950D01*
X57910Y48960D02*
Y49040D01*
X54062Y49908D02*
X54142D01*
X54102Y49868D02*
Y49948D01*
X54855Y51244D02*
X54935D01*
X54895Y51204D02*
Y51284D01*
X54861Y50939D02*
X54941D01*
X54901Y50899D02*
Y50979D01*
X54062Y49608D02*
X54142D01*
X54102Y49568D02*
Y49648D01*
X55168Y49455D02*
X55248D01*
X55208Y49415D02*
Y49495D01*
X55160Y49155D02*
X55240D01*
X55200Y49115D02*
Y49195D01*
X54060Y50508D02*
X54140D01*
X54100Y50468D02*
Y50548D01*
X54060Y50208D02*
X54140D01*
X54100Y50168D02*
Y50248D01*
X58173Y42000D02*
X58253D01*
X58213Y41960D02*
Y42040D01*
X57870Y42000D02*
X57950D01*
X57910Y41960D02*
Y42040D01*
X54062Y42908D02*
X54142D01*
X54102Y42868D02*
Y42948D01*
X54855Y44244D02*
X54935D01*
X54895Y44204D02*
Y44284D01*
X54861Y43939D02*
X54941D01*
X54901Y43899D02*
Y43979D01*
X54062Y42608D02*
X54142D01*
X54102Y42568D02*
Y42648D01*
X55168Y42455D02*
X55248D01*
X55208Y42415D02*
Y42495D01*
X55160Y42155D02*
X55240D01*
X55200Y42115D02*
Y42195D01*
X54060Y43508D02*
X54140D01*
X54100Y43468D02*
Y43548D01*
X54060Y43208D02*
X54140D01*
X54100Y43168D02*
Y43248D01*
X58173Y35000D02*
X58253D01*
X58213Y34960D02*
Y35040D01*
X57870Y35000D02*
X57950D01*
X57910Y34960D02*
Y35040D01*
X54062Y35908D02*
X54142D01*
X54102Y35868D02*
Y35948D01*
X54855Y37244D02*
X54935D01*
X54895Y37204D02*
Y37284D01*
X54861Y36939D02*
X54941D01*
X54901Y36899D02*
Y36979D01*
X54062Y35608D02*
X54142D01*
X54102Y35568D02*
Y35648D01*
X55168Y35455D02*
X55248D01*
X55208Y35415D02*
Y35495D01*
X55160Y35155D02*
X55240D01*
X55200Y35115D02*
Y35195D01*
X54060Y36508D02*
X54140D01*
X54100Y36468D02*
Y36548D01*
X54060Y36208D02*
X54140D01*
X54100Y36168D02*
Y36248D01*
X58173Y28000D02*
X58253D01*
X58213Y27960D02*
Y28040D01*
X57870Y28000D02*
X57950D01*
X57910Y27960D02*
Y28040D01*
X54062Y28908D02*
X54142D01*
X54102Y28868D02*
Y28948D01*
X54855Y30244D02*
X54935D01*
X54895Y30204D02*
Y30284D01*
X54861Y29939D02*
X54941D01*
X54901Y29899D02*
Y29979D01*
X54062Y28608D02*
X54142D01*
X54102Y28568D02*
Y28648D01*
X55168Y28455D02*
X55248D01*
X55208Y28415D02*
Y28495D01*
X55160Y28155D02*
X55240D01*
X55200Y28115D02*
Y28195D01*
X54060Y29508D02*
X54140D01*
X54100Y29468D02*
Y29548D01*
X54060Y29208D02*
X54140D01*
X54100Y29168D02*
Y29248D01*
X58173Y21000D02*
X58253D01*
X58213Y20960D02*
Y21040D01*
X57870Y21000D02*
X57950D01*
X57910Y20960D02*
Y21040D01*
X54062Y21908D02*
X54142D01*
X54102Y21868D02*
Y21948D01*
X54855Y23244D02*
X54935D01*
X54895Y23204D02*
Y23284D01*
X54861Y22939D02*
X54941D01*
X54901Y22899D02*
Y22979D01*
X54062Y21608D02*
X54142D01*
X54102Y21568D02*
Y21648D01*
X55168Y21455D02*
X55248D01*
X55208Y21415D02*
Y21495D01*
X55160Y21155D02*
X55240D01*
X55200Y21115D02*
Y21195D01*
X54060Y22508D02*
X54140D01*
X54100Y22468D02*
Y22548D01*
X54060Y22208D02*
X54140D01*
X54100Y22168D02*
Y22248D01*
X58173Y14000D02*
X58253D01*
X58213Y13960D02*
Y14040D01*
X57870Y14000D02*
X57950D01*
X57910Y13960D02*
Y14040D01*
X54062Y14908D02*
X54142D01*
X54102Y14868D02*
Y14948D01*
X54855Y16244D02*
X54935D01*
X54895Y16204D02*
Y16284D01*
X54861Y15939D02*
X54941D01*
X54901Y15899D02*
Y15979D01*
X54062Y14608D02*
X54142D01*
X54102Y14568D02*
Y14648D01*
X55168Y14455D02*
X55248D01*
X55208Y14415D02*
Y14495D01*
X55160Y14155D02*
X55240D01*
X55200Y14115D02*
Y14195D01*
X54060Y15508D02*
X54140D01*
X54100Y15468D02*
Y15548D01*
X54060Y15208D02*
X54140D01*
X54100Y15168D02*
Y15248D01*
X54060Y8208D02*
X54140D01*
X54100Y8168D02*
Y8248D01*
X54060Y8508D02*
X54140D01*
X54100Y8468D02*
Y8548D01*
X55160Y7155D02*
X55240D01*
X55200Y7115D02*
Y7195D01*
X55168Y7455D02*
X55248D01*
X55208Y7415D02*
Y7495D01*
X54062Y7608D02*
X54142D01*
X54102Y7568D02*
Y7648D01*
X54861Y8939D02*
X54941D01*
X54901Y8899D02*
Y8979D01*
X54855Y9244D02*
X54935D01*
X54895Y9204D02*
Y9284D01*
X54062Y7908D02*
X54142D01*
X54102Y7868D02*
Y7948D01*
X57870Y7000D02*
X57950D01*
X57910Y6960D02*
Y7040D01*
X58173Y7000D02*
X58253D01*
X58213Y6960D02*
Y7040D01*
X24860Y55000D02*
X24940D01*
X24900Y54960D02*
Y55040D01*
X25560Y55976D02*
X25640D01*
X25600Y55936D02*
Y56016D01*
X26460Y56976D02*
X26540D01*
X26500Y56936D02*
Y57016D01*
X27260Y57976D02*
X27340D01*
X27300Y57936D02*
Y58016D01*
X56540Y25400D02*
X56660D01*
X56600Y25340D02*
Y25460D01*
X27440Y60682D02*
X27560D01*
X27500Y60622D02*
Y60742D01*
X31440Y60707D02*
X31560D01*
X31500Y60647D02*
Y60767D01*
X27540Y52380D02*
X27660D01*
X27600Y52320D02*
Y52440D01*
X31140Y52370D02*
X31260D01*
X31200Y52310D02*
Y52430D01*
X15670Y22657D02*
X15830D01*
X15750Y22577D02*
Y22737D01*
X15255Y22230D02*
X15415D01*
X15335Y22150D02*
Y22310D01*
X16290Y21851D02*
X16370D01*
X16330Y21811D02*
Y21891D01*
X16604Y21616D02*
X16684D01*
X16644Y21576D02*
Y21656D01*
X16919Y21400D02*
X16999D01*
X16959Y21360D02*
Y21440D01*
X21624Y16830D02*
X21744D01*
X21684Y16770D02*
Y16890D01*
X21624Y24400D02*
X21744D01*
X21684Y24340D02*
Y24460D01*
X16290Y27700D02*
X16370D01*
X16330Y27660D02*
Y27740D01*
X16919Y27100D02*
X16999D01*
X16959Y27060D02*
Y27140D01*
X4710Y18900D02*
X4790D01*
X4750Y18860D02*
Y18940D01*
X15975Y28000D02*
X16055D01*
X16015Y27960D02*
Y28040D01*
X5710Y19400D02*
X5790D01*
X5750Y19360D02*
Y19440D01*
X6710Y19900D02*
X6790D01*
X6750Y19860D02*
Y19940D01*
X16604Y27400D02*
X16684D01*
X16644Y27360D02*
Y27440D01*
X7710Y20400D02*
X7790D01*
X7750Y20360D02*
Y20440D01*
X20384Y22152D02*
X20464D01*
X20424Y22112D02*
Y22192D01*
X19124Y22458D02*
X19204D01*
X19164Y22418D02*
Y22498D01*
X18494Y22458D02*
X18574D01*
X18534Y22418D02*
Y22498D01*
X17864Y26800D02*
X17944D01*
X17904Y26760D02*
Y26840D01*
X18179Y27098D02*
X18259D01*
X18219Y27058D02*
Y27138D01*
X18494Y26800D02*
X18574D01*
X18534Y26760D02*
Y26840D01*
X19124Y26800D02*
X19204D01*
X19164Y26760D02*
Y26840D01*
X19754Y26800D02*
X19834D01*
X19794Y26760D02*
Y26840D01*
X20069Y27098D02*
X20149D01*
X20109Y27058D02*
Y27138D01*
X26683Y24061D02*
X26763D01*
X26723Y24021D02*
Y24101D01*
X25423Y24061D02*
X25503D01*
X25463Y24021D02*
Y24101D01*
X24793Y24061D02*
X24873D01*
X24833Y24021D02*
Y24101D01*
X23219Y24061D02*
X23299D01*
X23259Y24021D02*
Y24101D01*
X22560Y24061D02*
X22640D01*
X22600Y24021D02*
Y24101D01*
X21329Y24061D02*
X21409D01*
X21369Y24021D02*
Y24101D01*
X27960Y11500D02*
X28040D01*
X28000Y11460D02*
Y11540D01*
X29960Y11800D02*
X30040D01*
X30000Y11760D02*
Y11840D01*
X34960Y12100D02*
X35040D01*
X35000Y12060D02*
Y12140D01*
X36960Y12400D02*
X37040D01*
X37000Y12360D02*
Y12440D01*
X40960Y12700D02*
X41040D01*
X41000Y12660D02*
Y12740D01*
X20384Y26792D02*
X20464D01*
X20424Y26752D02*
Y26832D01*
X20699Y27093D02*
X20779D01*
X20739Y27053D02*
Y27133D01*
X21329Y27100D02*
X21409D01*
X21369Y27060D02*
Y27140D01*
X27628Y28900D02*
X27708D01*
X27668Y28860D02*
Y28940D01*
X26368Y28600D02*
X26448D01*
X26408Y28560D02*
Y28640D01*
X25760Y28300D02*
X25840D01*
X25800Y28260D02*
Y28340D01*
X24460Y28000D02*
X24540D01*
X24500Y27960D02*
Y28040D01*
X23860Y27700D02*
X23940D01*
X23900Y27660D02*
Y27740D01*
X23560Y27400D02*
X23640D01*
X23600Y27360D02*
Y27440D01*
X22260Y27100D02*
X22340D01*
X22300Y27060D02*
Y27140D01*
X21660Y26800D02*
X21740D01*
X21700Y26760D02*
Y26840D01*
X15640Y37900D02*
X15760D01*
X15700Y37840D02*
Y37960D01*
X56540Y53400D02*
X56660D01*
X56600Y53340D02*
Y53460D01*
X57813Y53400D02*
X57933D01*
X57873Y53340D02*
Y53460D01*
X48740Y58400D02*
X48860D01*
X48800Y58340D02*
Y58460D01*
X51240Y59200D02*
X51360D01*
X51300Y59140D02*
Y59260D01*
X56540Y46400D02*
X56660D01*
X56600Y46340D02*
Y46460D01*
X57813Y46400D02*
X57933D01*
X57873Y46340D02*
Y46460D01*
X48740Y51400D02*
X48860D01*
X48800Y51340D02*
Y51460D01*
X51240Y52200D02*
X51360D01*
X51300Y52140D02*
Y52260D01*
X56540Y39400D02*
X56660D01*
X56600Y39340D02*
Y39460D01*
X57813Y39400D02*
X57933D01*
X57873Y39340D02*
Y39460D01*
X51240Y45200D02*
X51360D01*
X51300Y45140D02*
Y45260D01*
X56540Y32400D02*
X56660D01*
X56600Y32340D02*
Y32460D01*
X57813Y32400D02*
X57933D01*
X57873Y32340D02*
Y32460D01*
X48740Y37400D02*
X48860D01*
X48800Y37340D02*
Y37460D01*
X51240Y38200D02*
X51360D01*
X51300Y38140D02*
Y38260D01*
X57813Y25400D02*
X57933D01*
X57873Y25340D02*
Y25460D01*
X48740Y30400D02*
X48860D01*
X48800Y30340D02*
Y30460D01*
X51240Y31200D02*
X51360D01*
X51300Y31140D02*
Y31260D01*
X56540Y18400D02*
X56660D01*
X56600Y18340D02*
Y18460D01*
X57813Y18400D02*
X57933D01*
X57873Y18340D02*
Y18460D01*
X48740Y23400D02*
X48860D01*
X48800Y23340D02*
Y23460D01*
X51240Y24200D02*
X51360D01*
X51300Y24140D02*
Y24260D01*
X56540Y11400D02*
X56660D01*
X56600Y11340D02*
Y11460D01*
X57813Y11400D02*
X57933D01*
X57873Y11340D02*
Y11460D01*
X48740Y16400D02*
X48860D01*
X48800Y16340D02*
Y16460D01*
X51240Y17200D02*
X51360D01*
X51300Y17140D02*
Y17260D01*
X51240Y10200D02*
X51360D01*
X51300Y10140D02*
Y10260D01*
X48740Y9400D02*
X48860D01*
X48800Y9340D02*
Y9460D01*
X57813Y4400D02*
X57933D01*
X57873Y4340D02*
Y4460D01*
X56540Y4400D02*
X56660D01*
X56600Y4340D02*
Y4460D01*
X52327Y56177D02*
X52447D01*
X52387Y56117D02*
Y56237D01*
X52340Y57185D02*
X52460D01*
X52400Y57125D02*
Y57245D01*
X52327Y49177D02*
X52447D01*
X52387Y49117D02*
Y49237D01*
X52340Y50185D02*
X52460D01*
X52400Y50125D02*
Y50245D01*
X52327Y42177D02*
X52447D01*
X52387Y42117D02*
Y42237D01*
X52340Y43185D02*
X52460D01*
X52400Y43125D02*
Y43245D01*
X52327Y35177D02*
X52447D01*
X52387Y35117D02*
Y35237D01*
X52340Y36185D02*
X52460D01*
X52400Y36125D02*
Y36245D01*
X52327Y28177D02*
X52447D01*
X52387Y28117D02*
Y28237D01*
X52340Y29185D02*
X52460D01*
X52400Y29125D02*
Y29245D01*
X52327Y21177D02*
X52447D01*
X52387Y21117D02*
Y21237D01*
X52340Y22185D02*
X52460D01*
X52400Y22125D02*
Y22245D01*
X52327Y14177D02*
X52447D01*
X52387Y14117D02*
Y14237D01*
X52340Y15185D02*
X52460D01*
X52400Y15125D02*
Y15245D01*
X52340Y8185D02*
X52460D01*
X52400Y8125D02*
Y8245D01*
X16899Y42900D02*
X17019D01*
X16959Y42840D02*
Y42960D01*
X17214Y42531D02*
X17334D01*
X17274Y42471D02*
Y42591D01*
X16584Y42531D02*
X16704D01*
X16644Y42471D02*
Y42591D01*
X52327Y7177D02*
X52447D01*
X52387Y7117D02*
Y7237D01*
X48760Y55395D02*
X48840D01*
X48800Y55355D02*
Y55435D01*
X48760Y55921D02*
X48840D01*
X48800Y55881D02*
Y55961D01*
X48760Y56433D02*
X48840D01*
X48800Y56393D02*
Y56473D01*
X48760Y57457D02*
X48840D01*
X48800Y57417D02*
Y57497D01*
X48760Y48395D02*
X48840D01*
X48800Y48355D02*
Y48435D01*
X48760Y48921D02*
X48840D01*
X48800Y48881D02*
Y48961D01*
X48760Y49433D02*
X48840D01*
X48800Y49393D02*
Y49473D01*
X48760Y50457D02*
X48840D01*
X48800Y50417D02*
Y50497D01*
X48760Y41395D02*
X48840D01*
X48800Y41355D02*
Y41435D01*
X48760Y41921D02*
X48840D01*
X48800Y41881D02*
Y41961D01*
X48760Y42433D02*
X48840D01*
X48800Y42393D02*
Y42473D01*
X48760Y43457D02*
X48840D01*
X48800Y43417D02*
Y43497D01*
X48760Y34395D02*
X48840D01*
X48800Y34355D02*
Y34435D01*
X48760Y34921D02*
X48840D01*
X48800Y34881D02*
Y34961D01*
X48760Y35433D02*
X48840D01*
X48800Y35393D02*
Y35473D01*
X48760Y36457D02*
X48840D01*
X48800Y36417D02*
Y36497D01*
X48760Y27395D02*
X48840D01*
X48800Y27355D02*
Y27435D01*
X48760Y27921D02*
X48840D01*
X48800Y27881D02*
Y27961D01*
X48760Y28433D02*
X48840D01*
X48800Y28393D02*
Y28473D01*
X48760Y29457D02*
X48840D01*
X48800Y29417D02*
Y29497D01*
X48760Y20395D02*
X48840D01*
X48800Y20355D02*
Y20435D01*
X48760Y20921D02*
X48840D01*
X48800Y20881D02*
Y20961D01*
X48760Y21433D02*
X48840D01*
X48800Y21393D02*
Y21473D01*
X48760Y22457D02*
X48840D01*
X48800Y22417D02*
Y22497D01*
X48760Y13395D02*
X48840D01*
X48800Y13355D02*
Y13435D01*
X48760Y13921D02*
X48840D01*
X48800Y13881D02*
Y13961D01*
X48760Y14433D02*
X48840D01*
X48800Y14393D02*
Y14473D01*
X48760Y15457D02*
X48840D01*
X48800Y15417D02*
Y15497D01*
X52760Y57457D02*
X52840D01*
X52800Y57417D02*
Y57497D01*
X52760Y56433D02*
X52840D01*
X52800Y56393D02*
Y56473D01*
X52760Y55921D02*
X52840D01*
X52800Y55881D02*
Y55961D01*
X52760Y55410D02*
X52840D01*
X52800Y55370D02*
Y55450D01*
X52760Y50457D02*
X52840D01*
X52800Y50417D02*
Y50497D01*
X52760Y49433D02*
X52840D01*
X52800Y49393D02*
Y49473D01*
X52760Y48921D02*
X52840D01*
X52800Y48881D02*
Y48961D01*
X52760Y48410D02*
X52840D01*
X52800Y48370D02*
Y48450D01*
X52760Y43457D02*
X52840D01*
X52800Y43417D02*
Y43497D01*
X52760Y42433D02*
X52840D01*
X52800Y42393D02*
Y42473D01*
X52760Y41921D02*
X52840D01*
X52800Y41881D02*
Y41961D01*
X52760Y41410D02*
X52840D01*
X52800Y41370D02*
Y41450D01*
X52760Y36457D02*
X52840D01*
X52800Y36417D02*
Y36497D01*
X52760Y35433D02*
X52840D01*
X52800Y35393D02*
Y35473D01*
X52760Y34921D02*
X52840D01*
X52800Y34881D02*
Y34961D01*
X52760Y34410D02*
X52840D01*
X52800Y34370D02*
Y34450D01*
X52760Y29457D02*
X52840D01*
X52800Y29417D02*
Y29497D01*
X52760Y28433D02*
X52840D01*
X52800Y28393D02*
Y28473D01*
X52760Y27921D02*
X52840D01*
X52800Y27881D02*
Y27961D01*
X52760Y27410D02*
X52840D01*
X52800Y27370D02*
Y27450D01*
X52760Y22457D02*
X52840D01*
X52800Y22417D02*
Y22497D01*
X52760Y21433D02*
X52840D01*
X52800Y21393D02*
Y21473D01*
X52760Y20921D02*
X52840D01*
X52800Y20881D02*
Y20961D01*
X52760Y20410D02*
X52840D01*
X52800Y20370D02*
Y20450D01*
X52760Y15457D02*
X52840D01*
X52800Y15417D02*
Y15497D01*
X52760Y14433D02*
X52840D01*
X52800Y14393D02*
Y14473D01*
X52760Y13921D02*
X52840D01*
X52800Y13881D02*
Y13961D01*
X52760Y13410D02*
X52840D01*
X52800Y13370D02*
Y13450D01*
X48760Y8457D02*
X48840D01*
X48800Y8417D02*
Y8497D01*
X48760Y7433D02*
X48840D01*
X48800Y7393D02*
Y7473D01*
X48760Y6921D02*
X48840D01*
X48800Y6881D02*
Y6961D01*
X48760Y6395D02*
X48840D01*
X48800Y6355D02*
Y6435D01*
X52760Y6410D02*
X52840D01*
X52800Y6370D02*
Y6450D01*
X52760Y6921D02*
X52840D01*
X52800Y6881D02*
Y6961D01*
X52760Y7433D02*
X52840D01*
X52800Y7393D02*
Y7473D01*
X52760Y8457D02*
X52840D01*
X52800Y8417D02*
Y8497D01*
X20364Y38000D02*
X20484D01*
X20424Y37940D02*
Y38060D01*
X20994Y38000D02*
X21114D01*
X21054Y37940D02*
Y38060D01*
X21309Y38400D02*
X21429D01*
X21369Y38340D02*
Y38460D01*
X20049Y38400D02*
X20169D01*
X20109Y38340D02*
Y38460D01*
X17529Y38400D02*
X17649D01*
X17589Y38340D02*
Y38460D01*
X17844Y38000D02*
X17964D01*
X17904Y37940D02*
Y38060D01*
X18789Y38400D02*
X18909D01*
X18849Y38340D02*
Y38460D01*
X18474Y38000D02*
X18594D01*
X18534Y37940D02*
Y38060D01*
X18159Y38400D02*
X18279D01*
X18219Y38340D02*
Y38460D01*
X19104Y38000D02*
X19224D01*
X19164Y37940D02*
Y38060D01*
X16270Y38400D02*
X16390D01*
X16330Y38340D02*
Y38460D01*
X26348Y38400D02*
X26468D01*
X26408Y38340D02*
Y38460D01*
X22254Y38000D02*
X22374D01*
X22314Y37940D02*
Y38060D01*
X26978Y38400D02*
X27098D01*
X27038Y38340D02*
Y38460D01*
X26663Y38000D02*
X26783D01*
X26723Y37940D02*
Y38060D01*
X26033Y38000D02*
X26153D01*
X26093Y37940D02*
Y38060D01*
X25718Y38400D02*
X25838D01*
X25778Y38340D02*
Y38460D01*
X25403Y38000D02*
X25523D01*
X25463Y37940D02*
Y38060D01*
X25088Y38400D02*
X25208D01*
X25148Y38340D02*
Y38460D01*
X24773Y38000D02*
X24893D01*
X24833Y37940D02*
Y38060D01*
X24459Y38400D02*
X24579D01*
X24519Y38340D02*
Y38460D01*
X24144Y38000D02*
X24264D01*
X24204Y37940D02*
Y38060D01*
X23829Y38400D02*
X23949D01*
X23889Y38340D02*
Y38460D01*
X23514Y38000D02*
X23634D01*
X23574Y37940D02*
Y38060D01*
X23199Y38400D02*
X23319D01*
X23259Y38340D02*
Y38460D01*
X22884Y38000D02*
X23004D01*
X22944Y37940D02*
Y38060D01*
X22569Y38400D02*
X22689D01*
X22629Y38340D02*
Y38460D01*
X21939Y38400D02*
X22059D01*
X21999Y38340D02*
Y38460D01*
X21624Y38000D02*
X21744D01*
X21684Y37940D02*
Y38060D01*
X16584Y38000D02*
X16704D01*
X16644Y37940D02*
Y38060D01*
X16899Y38400D02*
X17019D01*
X16959Y38340D02*
Y38460D01*
X19419Y38400D02*
X19539D01*
X19479Y38340D02*
Y38460D01*
X19734Y38000D02*
X19854D01*
X19794Y37940D02*
Y38060D01*
X20679Y38400D02*
X20799D01*
X20739Y38340D02*
Y38460D01*
M02*
