G04*
G04 #@! TF.GenerationSoftware,Altium Limited,Altium Designer,25.8.1 (18)*
G04*
G04 Layer_Color=2752767*
%FSLAX24Y24*%
%MOIN*%
G70*
G04*
G04 #@! TF.SameCoordinates,B29B752B-8D7F-4BD7-8F6D-89FF9C86896C*
G04*
G04*
G04 #@! TF.FilePolarity,Positive*
G04*
G01*
G75*
%ADD78C,0.0020*%
%ADD79C,0.0027*%
%ADD80C,0.0013*%
D78*
X15710Y13960D02*
Y13920D01*
X15790D01*
Y13960D01*
X15830D01*
Y14040D01*
X15790D01*
Y14080D01*
X15710D01*
Y14040D01*
X15670D01*
Y13960D01*
X15710D01*
X11710D02*
Y13920D01*
X11790D01*
Y13960D01*
X11830D01*
Y14040D01*
X11790D01*
Y14080D01*
X11710D01*
Y14040D01*
X11670D01*
Y13960D01*
X11710D01*
X13710D02*
Y13920D01*
X13790D01*
Y13960D01*
X13830D01*
Y14040D01*
X13790D01*
Y14080D01*
X13710D01*
Y14040D01*
X13670D01*
Y13960D01*
X13710D01*
X19710D02*
Y13920D01*
X19790D01*
Y13960D01*
X19830D01*
Y14040D01*
X19790D01*
Y14080D01*
X19710D01*
Y14040D01*
X19670D01*
Y13960D01*
X19710D01*
X16710D02*
Y13920D01*
X16790D01*
Y13960D01*
X16830D01*
Y14040D01*
X16790D01*
Y14080D01*
X16710D01*
Y14040D01*
X16670D01*
Y13960D01*
X16710D01*
X17710D02*
Y13920D01*
X17790D01*
Y13960D01*
X17830D01*
Y14040D01*
X17790D01*
Y14080D01*
X17710D01*
Y14040D01*
X17670D01*
Y13960D01*
X17710D01*
X8710D02*
Y13920D01*
X8790D01*
Y13960D01*
X8830D01*
Y14040D01*
X8790D01*
Y14080D01*
X8710D01*
Y14040D01*
X8670D01*
Y13960D01*
X8710D01*
X2710Y14960D02*
Y14920D01*
X2790D01*
Y14960D01*
X2830D01*
Y15040D01*
X2790D01*
Y15080D01*
X2710D01*
Y15040D01*
X2670D01*
Y14960D01*
X2710D01*
X8710D02*
Y14920D01*
X8790D01*
Y14960D01*
X8830D01*
Y15040D01*
X8790D01*
Y15080D01*
X8710D01*
Y15040D01*
X8670D01*
Y14960D01*
X8710D01*
X10710Y13960D02*
Y13920D01*
X10790D01*
Y13960D01*
X10830D01*
Y14040D01*
X10790D01*
Y14080D01*
X10710D01*
Y14040D01*
X10670D01*
Y13960D01*
X10710D01*
X9710D02*
Y13920D01*
X9790D01*
Y13960D01*
X9830D01*
Y14040D01*
X9790D01*
Y14080D01*
X9710D01*
Y14040D01*
X9670D01*
Y13960D01*
X9710D01*
X28960D02*
Y13920D01*
X29040D01*
Y13960D01*
X29080D01*
Y14040D01*
X29040D01*
Y14080D01*
X28960D01*
Y14040D01*
X28920D01*
Y13960D01*
X28960D01*
X25960D02*
Y13920D01*
X26040D01*
Y13960D01*
X26080D01*
Y14040D01*
X26040D01*
Y14080D01*
X25960D01*
Y14040D01*
X25920D01*
Y13960D01*
X25960D01*
X26960D02*
Y13920D01*
X27040D01*
Y13960D01*
X27080D01*
Y14040D01*
X27040D01*
Y14080D01*
X26960D01*
Y14040D01*
X26920D01*
Y13960D01*
X26960D01*
X32960D02*
Y13920D01*
X33040D01*
Y13960D01*
X33080D01*
Y14040D01*
X33040D01*
Y14080D01*
X32960D01*
Y14040D01*
X32920D01*
Y13960D01*
X32960D01*
X30960D02*
Y13920D01*
X31040D01*
Y13960D01*
X31080D01*
Y14040D01*
X31040D01*
Y14080D01*
X30960D01*
Y14040D01*
X30920D01*
Y13960D01*
X30960D01*
X31960D02*
Y13920D01*
X32040D01*
Y13960D01*
X32080D01*
Y14040D01*
X32040D01*
Y14080D01*
X31960D01*
Y14040D01*
X31920D01*
Y13960D01*
X31960D01*
X24960D02*
Y13920D01*
X25040D01*
Y13960D01*
X25080D01*
Y14040D01*
X25040D01*
Y14080D01*
X24960D01*
Y14040D01*
X24920D01*
Y13960D01*
X24960D01*
X20710D02*
Y13920D01*
X20790D01*
Y13960D01*
X20830D01*
Y14040D01*
X20790D01*
Y14080D01*
X20710D01*
Y14040D01*
X20670D01*
Y13960D01*
X20710D01*
X25960Y14960D02*
Y14920D01*
X26040D01*
Y14960D01*
X26080D01*
Y15040D01*
X26040D01*
Y15080D01*
X25960D01*
Y15040D01*
X25920D01*
Y14960D01*
X25960D01*
X29960D02*
Y14920D01*
X30040D01*
Y14960D01*
X30080D01*
Y15040D01*
X30040D01*
Y15080D01*
X29960D01*
Y15040D01*
X29920D01*
Y14960D01*
X29960D01*
X32960D02*
Y14920D01*
X33040D01*
Y14960D01*
X33080D01*
Y15040D01*
X33040D01*
Y15080D01*
X32960D01*
Y15040D01*
X32920D01*
Y14960D01*
X32960D01*
X27960D02*
Y14920D01*
X28040D01*
Y14960D01*
X28080D01*
Y15040D01*
X28040D01*
Y15080D01*
X27960D01*
Y15040D01*
X27920D01*
Y14960D01*
X27960D01*
X28960D02*
Y14920D01*
X29040D01*
Y14960D01*
X29080D01*
Y15040D01*
X29040D01*
Y15080D01*
X28960D01*
Y15040D01*
X28920D01*
Y14960D01*
X28960D01*
X39960Y13960D02*
Y13920D01*
X40040D01*
Y13960D01*
X40080D01*
Y14040D01*
X40040D01*
Y14080D01*
X39960D01*
Y14040D01*
X39920D01*
Y13960D01*
X39960D01*
X37960D02*
Y13920D01*
X38040D01*
Y13960D01*
X38080D01*
Y14040D01*
X38040D01*
Y14080D01*
X37960D01*
Y14040D01*
X37920D01*
Y13960D01*
X37960D01*
X38960D02*
Y13920D01*
X39040D01*
Y13960D01*
X39080D01*
Y14040D01*
X39040D01*
Y14080D01*
X38960D01*
Y14040D01*
X38920D01*
Y13960D01*
X38960D01*
X43960D02*
Y13920D01*
X44040D01*
Y13960D01*
X44080D01*
Y14040D01*
X44040D01*
Y14080D01*
X43960D01*
Y14040D01*
X43920D01*
Y13960D01*
X43960D01*
X41960D02*
Y13920D01*
X42040D01*
Y13960D01*
X42080D01*
Y14040D01*
X42040D01*
Y14080D01*
X41960D01*
Y14040D01*
X41920D01*
Y13960D01*
X41960D01*
X42960D02*
Y13920D01*
X43040D01*
Y13960D01*
X43080D01*
Y14040D01*
X43040D01*
Y14080D01*
X42960D01*
Y14040D01*
X42920D01*
Y13960D01*
X42960D01*
X35960D02*
Y13920D01*
X36040D01*
Y13960D01*
X36080D01*
Y14040D01*
X36040D01*
Y14080D01*
X35960D01*
Y14040D01*
X35920D01*
Y13960D01*
X35960D01*
X33960D02*
Y13920D01*
X34040D01*
Y13960D01*
X34080D01*
Y14040D01*
X34040D01*
Y14080D01*
X33960D01*
Y14040D01*
X33920D01*
Y13960D01*
X33960D01*
X36960Y14960D02*
Y14920D01*
X37040D01*
Y14960D01*
X37080D01*
Y15040D01*
X37040D01*
Y15080D01*
X36960D01*
Y15040D01*
X36920D01*
Y14960D01*
X36960D01*
X42960D02*
Y14920D01*
X43040D01*
Y14960D01*
X43080D01*
Y15040D01*
X43040D01*
Y15080D01*
X42960D01*
Y15040D01*
X42920D01*
Y14960D01*
X42960D01*
X40960D02*
Y14920D01*
X41040D01*
Y14960D01*
X41080D01*
Y15040D01*
X41040D01*
Y15080D01*
X40960D01*
Y15040D01*
X40920D01*
Y14960D01*
X40960D01*
X41960D02*
Y14920D01*
X42040D01*
Y14960D01*
X42080D01*
Y15040D01*
X42040D01*
Y15080D01*
X41960D01*
Y15040D01*
X41920D01*
Y14960D01*
X41960D01*
X38960D02*
Y14920D01*
X39040D01*
Y14960D01*
X39080D01*
Y15040D01*
X39040D01*
Y15080D01*
X38960D01*
Y15040D01*
X38920D01*
Y14960D01*
X38960D01*
X34960D02*
Y14920D01*
X35040D01*
Y14960D01*
X35080D01*
Y15040D01*
X35040D01*
Y15080D01*
X34960D01*
Y15040D01*
X34920D01*
Y14960D01*
X34960D01*
X35960D02*
Y14920D01*
X36040D01*
Y14960D01*
X36080D01*
Y15040D01*
X36040D01*
Y15080D01*
X35960D01*
Y15040D01*
X35920D01*
Y14960D01*
X35960D01*
X8710Y48960D02*
Y48920D01*
X8790D01*
Y48960D01*
X8830D01*
Y49040D01*
X8790D01*
Y49080D01*
X8710D01*
Y49040D01*
X8670D01*
Y48960D01*
X8710D01*
X2710D02*
Y48920D01*
X2790D01*
Y48960D01*
X2830D01*
Y49040D01*
X2790D01*
Y49080D01*
X2710D01*
Y49040D01*
X2670D01*
Y48960D01*
X2710D01*
X19710Y49960D02*
Y49920D01*
X19790D01*
Y49960D01*
X19830D01*
Y50040D01*
X19790D01*
Y50080D01*
X19710D01*
Y50040D01*
X19670D01*
Y49960D01*
X19710D01*
X31960D02*
Y49920D01*
X32040D01*
Y49960D01*
X32080D01*
Y50040D01*
X32040D01*
Y50080D01*
X31960D01*
Y50040D01*
X31920D01*
Y49960D01*
X31960D01*
X3197Y55320D02*
X3237Y55360D01*
X3277D01*
X3237Y55400D01*
X3277Y55440D01*
X3237D01*
X3197Y55480D01*
X3157Y55440D01*
X3117D01*
X3157Y55400D01*
X3117Y55360D01*
X3157D01*
X3197Y55320D01*
X18615Y59947D02*
X18535Y60107D01*
X18695D01*
X18615Y59947D01*
X43960Y48960D02*
Y48920D01*
X44040D01*
Y48960D01*
X44080D01*
Y49040D01*
X44040D01*
Y49080D01*
X43960D01*
Y49040D01*
X43920D01*
Y48960D01*
X43960D01*
X42960D02*
Y48920D01*
X43040D01*
Y48960D01*
X43080D01*
Y49040D01*
X43040D01*
Y49080D01*
X42960D01*
Y49040D01*
X42920D01*
Y48960D01*
X42960D01*
X56720Y9122D02*
Y9282D01*
X56880D01*
Y9122D01*
X56720D01*
Y13918D02*
Y14078D01*
X56880D01*
Y13918D01*
X56720D01*
Y23122D02*
Y23282D01*
X56880D01*
Y23122D01*
X56720D01*
Y16122D02*
Y16282D01*
X56880D01*
Y16122D01*
X56720D01*
Y20918D02*
Y21078D01*
X56880D01*
Y20918D01*
X56720D01*
Y30122D02*
Y30282D01*
X56880D01*
Y30122D01*
X56720D01*
Y27918D02*
Y28078D01*
X56880D01*
Y27918D01*
X56720D01*
Y37122D02*
Y37282D01*
X56880D01*
Y37122D01*
X56720D01*
Y34918D02*
Y35078D01*
X56880D01*
Y34918D01*
X56720D01*
Y44122D02*
Y44282D01*
X56880D01*
Y44122D01*
X56720D01*
Y41918D02*
Y42078D01*
X56880D01*
Y41918D01*
X56720D01*
Y48918D02*
Y49078D01*
X56880D01*
Y48918D01*
X56720D01*
Y51122D02*
Y51282D01*
X56880D01*
Y51122D01*
X56720D01*
Y58122D02*
Y58282D01*
X56880D01*
Y58122D01*
X56720D01*
Y55918D02*
Y56078D01*
X56880D01*
Y55918D01*
X56720D01*
Y6918D02*
Y7078D01*
X56880D01*
Y6918D01*
X56720D01*
X56464Y6603D02*
Y6763D01*
X56624D01*
Y6603D01*
X56464D01*
X56504Y6643D02*
Y6723D01*
X56584D01*
Y6643D01*
X56504D01*
X56464Y9517D02*
X56544Y9597D01*
X56624Y9517D01*
X56544Y9437D01*
X56464Y9517D01*
X56996Y8650D02*
Y8810D01*
X57156D01*
Y8650D01*
X56996D01*
Y7705D02*
Y7865D01*
X57156D01*
Y7705D01*
X56996D01*
Y8335D02*
Y8495D01*
X57156D01*
Y8335D01*
X56996D01*
Y7390D02*
Y7550D01*
X57156D01*
Y7390D01*
X56996D01*
X56720Y8177D02*
Y8337D01*
X56880D01*
Y8177D01*
X56720D01*
X56996Y8965D02*
Y9125D01*
X57156D01*
Y8965D01*
X56996D01*
X56720Y7863D02*
Y8023D01*
X56880D01*
Y7863D01*
X56720D01*
X56996Y7075D02*
Y7235D01*
X57156D01*
Y7075D01*
X56996D01*
X56720Y7548D02*
Y7708D01*
X56880D01*
Y7548D01*
X56720D01*
Y8492D02*
Y8652D01*
X56880D01*
Y8492D01*
X56720D01*
Y43492D02*
Y43652D01*
X56880D01*
Y43492D01*
X56720D01*
Y57492D02*
Y57652D01*
X56880D01*
Y57492D01*
X56720D01*
Y56548D02*
Y56708D01*
X56880D01*
Y56548D01*
X56720D01*
Y50492D02*
Y50652D01*
X56880D01*
Y50492D01*
X56720D01*
Y49548D02*
Y49708D01*
X56880D01*
Y49548D01*
X56720D01*
Y42548D02*
Y42708D01*
X56880D01*
Y42548D01*
X56720D01*
Y36492D02*
Y36652D01*
X56880D01*
Y36492D01*
X56720D01*
X7710Y49960D02*
Y49920D01*
X7790D01*
Y49960D01*
X7830D01*
Y50040D01*
X7790D01*
Y50080D01*
X7710D01*
Y50040D01*
X7670D01*
Y49960D01*
X7710D01*
X8710D02*
Y49920D01*
X8790D01*
Y49960D01*
X8830D01*
Y50040D01*
X8790D01*
Y50080D01*
X8710D01*
Y50040D01*
X8670D01*
Y49960D01*
X8710D01*
X6710D02*
Y49920D01*
X6790D01*
Y49960D01*
X6830D01*
Y50040D01*
X6790D01*
Y50080D01*
X6710D01*
Y50040D01*
X6670D01*
Y49960D01*
X6710D01*
X56720Y29492D02*
Y29652D01*
X56880D01*
Y29492D01*
X56720D01*
Y28548D02*
Y28708D01*
X56880D01*
Y28548D01*
X56720D01*
Y35548D02*
Y35708D01*
X56880D01*
Y35548D01*
X56720D01*
Y22492D02*
Y22652D01*
X56880D01*
Y22492D01*
X56720D01*
Y21548D02*
Y21708D01*
X56880D01*
Y21548D01*
X56720D01*
Y15492D02*
Y15652D01*
X56880D01*
Y15492D01*
X56720D01*
Y14548D02*
Y14708D01*
X56880D01*
Y14548D01*
X56720D01*
X3710Y13960D02*
Y13920D01*
X3790D01*
Y13960D01*
X3830D01*
Y14040D01*
X3790D01*
Y14080D01*
X3710D01*
Y14040D01*
X3670D01*
Y13960D01*
X3710D01*
X4710D02*
Y13920D01*
X4790D01*
Y13960D01*
X4830D01*
Y14040D01*
X4790D01*
Y14080D01*
X4710D01*
Y14040D01*
X4670D01*
Y13960D01*
X4710D01*
X2710D02*
Y13920D01*
X2790D01*
Y13960D01*
X2830D01*
Y14040D01*
X2790D01*
Y14080D01*
X2710D01*
Y14040D01*
X2670D01*
Y13960D01*
X2710D01*
X18710Y48960D02*
Y48920D01*
X18790D01*
Y48960D01*
X18830D01*
Y49040D01*
X18790D01*
Y49080D01*
X18710D01*
Y49040D01*
X18670D01*
Y48960D01*
X18710D01*
X20710D02*
Y48920D01*
X20790D01*
Y48960D01*
X20830D01*
Y49040D01*
X20790D01*
Y49080D01*
X20710D01*
Y49040D01*
X20670D01*
Y48960D01*
X20710D01*
X21710D02*
Y48920D01*
X21790D01*
Y48960D01*
X21830D01*
Y49040D01*
X21790D01*
Y49080D01*
X21710D01*
Y49040D01*
X21670D01*
Y48960D01*
X21710D01*
X17710D02*
Y48920D01*
X17790D01*
Y48960D01*
X17830D01*
Y49040D01*
X17790D01*
Y49080D01*
X17710D01*
Y49040D01*
X17670D01*
Y48960D01*
X17710D01*
X5559Y55320D02*
X5599Y55360D01*
X5639D01*
X5599Y55400D01*
X5639Y55440D01*
X5599D01*
X5559Y55480D01*
X5519Y55440D01*
X5479D01*
X5519Y55400D01*
X5479Y55360D01*
X5519D01*
X5559Y55320D01*
X4378Y53470D02*
X4418Y53510D01*
X4458D01*
X4418Y53550D01*
X4458Y53590D01*
X4418D01*
X4378Y53630D01*
X4338Y53590D01*
X4298D01*
X4338Y53550D01*
X4298Y53510D01*
X4338D01*
X4378Y53470D01*
X2710Y49960D02*
Y49920D01*
X2790D01*
Y49960D01*
X2830D01*
Y50040D01*
X2790D01*
Y50080D01*
X2710D01*
Y50040D01*
X2670D01*
Y49960D01*
X2710D01*
X3710D02*
Y49920D01*
X3790D01*
Y49960D01*
X3830D01*
Y50040D01*
X3790D01*
Y50080D01*
X3710D01*
Y50040D01*
X3670D01*
Y49960D01*
X3710D01*
X4710D02*
Y49920D01*
X4790D01*
Y49960D01*
X4830D01*
Y50040D01*
X4790D01*
Y50080D01*
X4710D01*
Y50040D01*
X4670D01*
Y49960D01*
X4710D01*
X18615Y54347D02*
X18535Y54507D01*
X18695D01*
X18615Y54347D01*
X56464Y48603D02*
Y48763D01*
X56624D01*
Y48603D01*
X56464D01*
X56504Y48643D02*
Y48723D01*
X56584D01*
Y48643D01*
X56504D01*
X56464Y51517D02*
X56544Y51597D01*
X56624Y51517D01*
X56544Y51437D01*
X56464Y51517D01*
X56720Y50177D02*
Y50337D01*
X56880D01*
Y50177D01*
X56720D01*
Y49863D02*
Y50023D01*
X56880D01*
Y49863D01*
X56720D01*
X56996Y49705D02*
Y49865D01*
X57156D01*
Y49705D01*
X56996D01*
Y49390D02*
Y49550D01*
X57156D01*
Y49390D01*
X56996D01*
Y49075D02*
Y49235D01*
X57156D01*
Y49075D01*
X56996D01*
Y50965D02*
Y51125D01*
X57156D01*
Y50965D01*
X56996D01*
Y50650D02*
Y50810D01*
X57156D01*
Y50650D01*
X56996D01*
Y50335D02*
Y50495D01*
X57156D01*
Y50335D01*
X56996D01*
X56464Y34603D02*
Y34763D01*
X56624D01*
Y34603D01*
X56464D01*
X56504Y34643D02*
Y34723D01*
X56584D01*
Y34643D01*
X56504D01*
X56464Y37517D02*
X56544Y37597D01*
X56624Y37517D01*
X56544Y37437D01*
X56464Y37517D01*
X56720Y36177D02*
Y36337D01*
X56880D01*
Y36177D01*
X56720D01*
Y35863D02*
Y36023D01*
X56880D01*
Y35863D01*
X56720D01*
X56996Y35705D02*
Y35865D01*
X57156D01*
Y35705D01*
X56996D01*
Y35390D02*
Y35550D01*
X57156D01*
Y35390D01*
X56996D01*
Y35075D02*
Y35235D01*
X57156D01*
Y35075D01*
X56996D01*
Y36965D02*
Y37125D01*
X57156D01*
Y36965D01*
X56996D01*
Y36650D02*
Y36810D01*
X57156D01*
Y36650D01*
X56996D01*
Y36335D02*
Y36495D01*
X57156D01*
Y36335D01*
X56996D01*
X56464Y41603D02*
Y41763D01*
X56624D01*
Y41603D01*
X56464D01*
X56504Y41643D02*
Y41723D01*
X56584D01*
Y41643D01*
X56504D01*
X56464Y44517D02*
X56544Y44597D01*
X56624Y44517D01*
X56544Y44437D01*
X56464Y44517D01*
X56720Y43177D02*
Y43337D01*
X56880D01*
Y43177D01*
X56720D01*
Y42863D02*
Y43023D01*
X56880D01*
Y42863D01*
X56720D01*
X56996Y42705D02*
Y42865D01*
X57156D01*
Y42705D01*
X56996D01*
Y42390D02*
Y42550D01*
X57156D01*
Y42390D01*
X56996D01*
Y42075D02*
Y42235D01*
X57156D01*
Y42075D01*
X56996D01*
Y43965D02*
Y44125D01*
X57156D01*
Y43965D01*
X56996D01*
Y43650D02*
Y43810D01*
X57156D01*
Y43650D01*
X56996D01*
Y43335D02*
Y43495D01*
X57156D01*
Y43335D01*
X56996D01*
X56464Y55603D02*
Y55763D01*
X56624D01*
Y55603D01*
X56464D01*
X56504Y55643D02*
Y55723D01*
X56584D01*
Y55643D01*
X56504D01*
X56464Y58517D02*
X56544Y58597D01*
X56624Y58517D01*
X56544Y58437D01*
X56464Y58517D01*
X56720Y57177D02*
Y57337D01*
X56880D01*
Y57177D01*
X56720D01*
Y56863D02*
Y57023D01*
X56880D01*
Y56863D01*
X56720D01*
X56996Y56705D02*
Y56865D01*
X57156D01*
Y56705D01*
X56996D01*
Y56390D02*
Y56550D01*
X57156D01*
Y56390D01*
X56996D01*
Y56075D02*
Y56235D01*
X57156D01*
Y56075D01*
X56996D01*
Y57965D02*
Y58125D01*
X57156D01*
Y57965D01*
X56996D01*
Y57650D02*
Y57810D01*
X57156D01*
Y57650D01*
X56996D01*
Y57335D02*
Y57495D01*
X57156D01*
Y57335D01*
X56996D01*
X56464Y27603D02*
Y27763D01*
X56624D01*
Y27603D01*
X56464D01*
X56504Y27643D02*
Y27723D01*
X56584D01*
Y27643D01*
X56504D01*
X56464Y30517D02*
X56544Y30597D01*
X56624Y30517D01*
X56544Y30437D01*
X56464Y30517D01*
X56720Y29177D02*
Y29337D01*
X56880D01*
Y29177D01*
X56720D01*
Y28863D02*
Y29023D01*
X56880D01*
Y28863D01*
X56720D01*
X56996Y28705D02*
Y28865D01*
X57156D01*
Y28705D01*
X56996D01*
Y28390D02*
Y28550D01*
X57156D01*
Y28390D01*
X56996D01*
Y28075D02*
Y28235D01*
X57156D01*
Y28075D01*
X56996D01*
Y29965D02*
Y30125D01*
X57156D01*
Y29965D01*
X56996D01*
Y29650D02*
Y29810D01*
X57156D01*
Y29650D01*
X56996D01*
Y29335D02*
Y29495D01*
X57156D01*
Y29335D01*
X56996D01*
X56464Y20603D02*
Y20763D01*
X56624D01*
Y20603D01*
X56464D01*
X56504Y20643D02*
Y20723D01*
X56584D01*
Y20643D01*
X56504D01*
X56464Y23517D02*
X56544Y23597D01*
X56624Y23517D01*
X56544Y23437D01*
X56464Y23517D01*
X56720Y22177D02*
Y22337D01*
X56880D01*
Y22177D01*
X56720D01*
Y21863D02*
Y22023D01*
X56880D01*
Y21863D01*
X56720D01*
X56996Y21705D02*
Y21865D01*
X57156D01*
Y21705D01*
X56996D01*
Y21390D02*
Y21550D01*
X57156D01*
Y21390D01*
X56996D01*
Y21075D02*
Y21235D01*
X57156D01*
Y21075D01*
X56996D01*
Y22965D02*
Y23125D01*
X57156D01*
Y22965D01*
X56996D01*
Y22650D02*
Y22810D01*
X57156D01*
Y22650D01*
X56996D01*
Y22335D02*
Y22495D01*
X57156D01*
Y22335D01*
X56996D01*
X56464Y13603D02*
Y13763D01*
X56624D01*
Y13603D01*
X56464D01*
X56504Y13643D02*
Y13723D01*
X56584D01*
Y13643D01*
X56504D01*
X56464Y16517D02*
X56544Y16597D01*
X56624Y16517D01*
X56544Y16437D01*
X56464Y16517D01*
X56720Y15177D02*
Y15337D01*
X56880D01*
Y15177D01*
X56720D01*
Y14863D02*
Y15023D01*
X56880D01*
Y14863D01*
X56720D01*
X56996Y14705D02*
Y14865D01*
X57156D01*
Y14705D01*
X56996D01*
Y14390D02*
Y14550D01*
X57156D01*
Y14390D01*
X56996D01*
Y14075D02*
Y14235D01*
X57156D01*
Y14075D01*
X56996D01*
Y15965D02*
Y16125D01*
X57156D01*
Y15965D01*
X56996D01*
Y15650D02*
Y15810D01*
X57156D01*
Y15650D01*
X56996D01*
Y15335D02*
Y15495D01*
X57156D01*
Y15335D01*
X56996D01*
X19615Y59947D02*
X19535Y60107D01*
X19695D01*
X19615Y59947D01*
Y54347D02*
X19535Y54507D01*
X19695D01*
X19615Y54347D01*
X17615D02*
X17535Y54507D01*
X17695D01*
X17615Y54347D01*
X14660Y41093D02*
X14700Y41173D01*
X14660Y41253D01*
X14740Y41213D01*
X14820Y41253D01*
X14780Y41173D01*
X14820Y41093D01*
X14740Y41133D01*
X14660Y41093D01*
X28233D02*
X28273Y41173D01*
X28233Y41253D01*
X28313Y41213D01*
X28393Y41253D01*
X28353Y41173D01*
X28393Y41093D01*
X28313Y41133D01*
X28233Y41093D01*
X14660Y25345D02*
X14700Y25425D01*
X14660Y25505D01*
X14740Y25465D01*
X14820Y25505D01*
X14780Y25425D01*
X14820Y25345D01*
X14740Y25385D01*
X14660Y25345D01*
X28233D02*
X28273Y25425D01*
X28233Y25505D01*
X28313Y25465D01*
X28393Y25505D01*
X28353Y25425D01*
X28393Y25345D01*
X28313Y25385D01*
X28233Y25345D01*
X43960Y14960D02*
Y14920D01*
X44040D01*
Y14960D01*
X44080D01*
Y15040D01*
X44040D01*
Y15080D01*
X43960D01*
Y15040D01*
X43920D01*
Y14960D01*
X43960D01*
X36960Y13960D02*
Y13920D01*
X37040D01*
Y13960D01*
X37080D01*
Y14040D01*
X37040D01*
Y14080D01*
X36960D01*
Y14040D01*
X36920D01*
Y13960D01*
X36960D01*
X34960D02*
Y13920D01*
X35040D01*
Y13960D01*
X35080D01*
Y14040D01*
X35040D01*
Y14080D01*
X34960D01*
Y14040D01*
X34920D01*
Y13960D01*
X34960D01*
X26960Y14960D02*
Y14920D01*
X27040D01*
Y14960D01*
X27080D01*
Y15040D01*
X27040D01*
Y15080D01*
X26960D01*
Y15040D01*
X26920D01*
Y14960D01*
X26960D01*
X24960D02*
Y14920D01*
X25040D01*
Y14960D01*
X25080D01*
Y15040D01*
X25040D01*
Y15080D01*
X24960D01*
Y15040D01*
X24920D01*
Y14960D01*
X24960D01*
X21710Y13960D02*
Y13920D01*
X21790D01*
Y13960D01*
X21830D01*
Y14040D01*
X21790D01*
Y14080D01*
X21710D01*
Y14040D01*
X21670D01*
Y13960D01*
X21710D01*
X13710Y14960D02*
Y14920D01*
X13790D01*
Y14960D01*
X13830D01*
Y15040D01*
X13790D01*
Y15080D01*
X13710D01*
Y15040D01*
X13670D01*
Y14960D01*
X13710D01*
X7710Y13960D02*
Y13920D01*
X7790D01*
Y13960D01*
X7830D01*
Y14040D01*
X7790D01*
Y14080D01*
X7710D01*
Y14040D01*
X7670D01*
Y13960D01*
X7710D01*
X40960D02*
Y13920D01*
X41040D01*
Y13960D01*
X41080D01*
Y14040D01*
X41040D01*
Y14080D01*
X40960D01*
Y14040D01*
X40920D01*
Y13960D01*
X40960D01*
X30960Y14960D02*
Y14920D01*
X31040D01*
Y14960D01*
X31080D01*
Y15040D01*
X31040D01*
Y15080D01*
X30960D01*
Y15040D01*
X30920D01*
Y14960D01*
X30960D01*
X16710D02*
Y14920D01*
X16790D01*
Y14960D01*
X16830D01*
Y15040D01*
X16790D01*
Y15080D01*
X16710D01*
Y15040D01*
X16670D01*
Y14960D01*
X16710D01*
X33960D02*
Y14920D01*
X34040D01*
Y14960D01*
X34080D01*
Y15040D01*
X34040D01*
Y15080D01*
X33960D01*
Y15040D01*
X33920D01*
Y14960D01*
X33960D01*
X29960Y13960D02*
Y13920D01*
X30040D01*
Y13960D01*
X30080D01*
Y14040D01*
X30040D01*
Y14080D01*
X29960D01*
Y14040D01*
X29920D01*
Y13960D01*
X29960D01*
X20710Y14960D02*
Y14920D01*
X20790D01*
Y14960D01*
X20830D01*
Y15040D01*
X20790D01*
Y15080D01*
X20710D01*
Y15040D01*
X20670D01*
Y14960D01*
X20710D01*
X18710D02*
Y14920D01*
X18790D01*
Y14960D01*
X18830D01*
Y15040D01*
X18790D01*
Y15080D01*
X18710D01*
Y15040D01*
X18670D01*
Y14960D01*
X18710D01*
X12710D02*
Y14920D01*
X12790D01*
Y14960D01*
X12830D01*
Y15040D01*
X12790D01*
Y15080D01*
X12710D01*
Y15040D01*
X12670D01*
Y14960D01*
X12710D01*
X9710D02*
Y14920D01*
X9790D01*
Y14960D01*
X9830D01*
Y15040D01*
X9790D01*
Y15080D01*
X9710D01*
Y15040D01*
X9670D01*
Y14960D01*
X9710D01*
X19710D02*
Y14920D01*
X19790D01*
Y14960D01*
X19830D01*
Y15040D01*
X19790D01*
Y15080D01*
X19710D01*
Y15040D01*
X19670D01*
Y14960D01*
X19710D01*
X31960D02*
Y14920D01*
X32040D01*
Y14960D01*
X32080D01*
Y15040D01*
X32040D01*
Y15080D01*
X31960D01*
Y15040D01*
X31920D01*
Y14960D01*
X31960D01*
X3710D02*
Y14920D01*
X3790D01*
Y14960D01*
X3830D01*
Y15040D01*
X3790D01*
Y15080D01*
X3710D01*
Y15040D01*
X3670D01*
Y14960D01*
X3710D01*
X27960Y13960D02*
Y13920D01*
X28040D01*
Y13960D01*
X28080D01*
Y14040D01*
X28040D01*
Y14080D01*
X27960D01*
Y14040D01*
X27920D01*
Y13960D01*
X27960D01*
X6710D02*
Y13920D01*
X6790D01*
Y13960D01*
X6830D01*
Y14040D01*
X6790D01*
Y14080D01*
X6710D01*
Y14040D01*
X6670D01*
Y13960D01*
X6710D01*
X39960Y14960D02*
Y14920D01*
X40040D01*
Y14960D01*
X40080D01*
Y15040D01*
X40040D01*
Y15080D01*
X39960D01*
Y15040D01*
X39920D01*
Y14960D01*
X39960D01*
X21710D02*
Y14920D01*
X21790D01*
Y14960D01*
X21830D01*
Y15040D01*
X21790D01*
Y15080D01*
X21710D01*
Y15040D01*
X21670D01*
Y14960D01*
X21710D01*
X18710Y13960D02*
Y13920D01*
X18790D01*
Y13960D01*
X18830D01*
Y14040D01*
X18790D01*
Y14080D01*
X18710D01*
Y14040D01*
X18670D01*
Y13960D01*
X18710D01*
X15710Y14960D02*
Y14920D01*
X15790D01*
Y14960D01*
X15830D01*
Y15040D01*
X15790D01*
Y15080D01*
X15710D01*
Y15040D01*
X15670D01*
Y14960D01*
X15710D01*
X14710Y13960D02*
Y13920D01*
X14790D01*
Y13960D01*
X14830D01*
Y14040D01*
X14790D01*
Y14080D01*
X14710D01*
Y14040D01*
X14670D01*
Y13960D01*
X14710D01*
X17710Y14960D02*
Y14920D01*
X17790D01*
Y14960D01*
X17830D01*
Y15040D01*
X17790D01*
Y15080D01*
X17710D01*
Y15040D01*
X17670D01*
Y14960D01*
X17710D01*
X6710D02*
Y14920D01*
X6790D01*
Y14960D01*
X6830D01*
Y15040D01*
X6790D01*
Y15080D01*
X6710D01*
Y15040D01*
X6670D01*
Y14960D01*
X6710D01*
X5710Y13960D02*
Y13920D01*
X5790D01*
Y13960D01*
X5830D01*
Y14040D01*
X5790D01*
Y14080D01*
X5710D01*
Y14040D01*
X5670D01*
Y13960D01*
X5710D01*
Y14960D02*
Y14920D01*
X5790D01*
Y14960D01*
X5830D01*
Y15040D01*
X5790D01*
Y15080D01*
X5710D01*
Y15040D01*
X5670D01*
Y14960D01*
X5710D01*
X4710D02*
Y14920D01*
X4790D01*
Y14960D01*
X4830D01*
Y15040D01*
X4790D01*
Y15080D01*
X4710D01*
Y15040D01*
X4670D01*
Y14960D01*
X4710D01*
X37960D02*
Y14920D01*
X38040D01*
Y14960D01*
X38080D01*
Y15040D01*
X38040D01*
Y15080D01*
X37960D01*
Y15040D01*
X37920D01*
Y14960D01*
X37960D01*
X14710D02*
Y14920D01*
X14790D01*
Y14960D01*
X14830D01*
Y15040D01*
X14790D01*
Y15080D01*
X14710D01*
Y15040D01*
X14670D01*
Y14960D01*
X14710D01*
X12710Y13960D02*
Y13920D01*
X12790D01*
Y13960D01*
X12830D01*
Y14040D01*
X12790D01*
Y14080D01*
X12710D01*
Y14040D01*
X12670D01*
Y13960D01*
X12710D01*
X11710Y14960D02*
Y14920D01*
X11790D01*
Y14960D01*
X11830D01*
Y15040D01*
X11790D01*
Y15080D01*
X11710D01*
Y15040D01*
X11670D01*
Y14960D01*
X11710D01*
X10710D02*
Y14920D01*
X10790D01*
Y14960D01*
X10830D01*
Y15040D01*
X10790D01*
Y15080D01*
X10710D01*
Y15040D01*
X10670D01*
Y14960D01*
X10710D01*
X7710D02*
Y14920D01*
X7790D01*
Y14960D01*
X7830D01*
Y15040D01*
X7790D01*
Y15080D01*
X7710D01*
Y15040D01*
X7670D01*
Y14960D01*
X7710D01*
X3137Y23759D02*
X3177D01*
X3217Y23799D01*
X3257Y23759D01*
X3297D01*
Y23799D01*
X3257Y23839D01*
X3297Y23879D01*
Y23919D01*
X3257D01*
X3217Y23879D01*
X3177Y23919D01*
X3137D01*
Y23879D01*
X3177Y23839D01*
X3137Y23799D01*
Y23759D01*
X30303Y41081D02*
X30343D01*
X30383Y41121D01*
X30423Y41081D01*
X30463D01*
Y41121D01*
X30423Y41161D01*
X30463Y41201D01*
Y41241D01*
X30423D01*
X30383Y41201D01*
X30343Y41241D01*
X30303D01*
Y41201D01*
X30343Y41161D01*
X30303Y41121D01*
Y41081D01*
X2420Y2420D02*
X2460D01*
X2500Y2460D01*
X2540Y2420D01*
X2580D01*
Y2460D01*
X2540Y2500D01*
X2580Y2540D01*
Y2580D01*
X2540D01*
X2500Y2540D01*
X2460Y2580D01*
X2420D01*
Y2540D01*
X2460Y2500D01*
X2420Y2460D01*
Y2420D01*
X57220D02*
X57260D01*
X57300Y2460D01*
X57340Y2420D01*
X57380D01*
Y2460D01*
X57340Y2500D01*
X57380Y2540D01*
Y2580D01*
X57340D01*
X57300Y2540D01*
X57260Y2580D01*
X57220D01*
Y2540D01*
X57260Y2500D01*
X57220Y2460D01*
Y2420D01*
X3137Y41081D02*
X3177D01*
X3217Y41121D01*
X3257Y41081D01*
X3297D01*
Y41121D01*
X3257Y41161D01*
X3297Y41201D01*
Y41241D01*
X3257D01*
X3217Y41201D01*
X3177Y41241D01*
X3137D01*
Y41201D01*
X3177Y41161D01*
X3137Y41121D01*
Y41081D01*
X30303Y23759D02*
X30343D01*
X30383Y23799D01*
X30423Y23759D01*
X30463D01*
Y23799D01*
X30423Y23839D01*
X30463Y23879D01*
Y23919D01*
X30423D01*
X30383Y23879D01*
X30343Y23919D01*
X30303D01*
Y23879D01*
X30343Y23839D01*
X30303Y23799D01*
Y23759D01*
X57220Y62420D02*
X57260D01*
X57300Y62460D01*
X57340Y62420D01*
X57380D01*
Y62460D01*
X57340Y62500D01*
X57380Y62540D01*
Y62580D01*
X57340D01*
X57300Y62540D01*
X57260Y62580D01*
X57220D01*
Y62540D01*
X57260Y62500D01*
X57220Y62460D01*
Y62420D01*
X2420D02*
X2460D01*
X2500Y62460D01*
X2540Y62420D01*
X2580D01*
Y62460D01*
X2540Y62500D01*
X2580Y62540D01*
Y62580D01*
X2540D01*
X2500Y62540D01*
X2460Y62580D01*
X2420D01*
Y62540D01*
X2460Y62500D01*
X2420Y62460D01*
Y62420D01*
X43960Y49960D02*
Y49920D01*
X44040D01*
Y49960D01*
X44080D01*
Y50040D01*
X44040D01*
Y50080D01*
X43960D01*
Y50040D01*
X43920D01*
Y49960D01*
X43960D01*
X42960D02*
Y49920D01*
X43040D01*
Y49960D01*
X43080D01*
Y50040D01*
X43040D01*
Y50080D01*
X42960D01*
Y50040D01*
X42920D01*
Y49960D01*
X42960D01*
X41960Y48960D02*
Y48920D01*
X42040D01*
Y48960D01*
X42080D01*
Y49040D01*
X42040D01*
Y49080D01*
X41960D01*
Y49040D01*
X41920D01*
Y48960D01*
X41960D01*
Y49960D02*
Y49920D01*
X42040D01*
Y49960D01*
X42080D01*
Y50040D01*
X42040D01*
Y50080D01*
X41960D01*
Y50040D01*
X41920D01*
Y49960D01*
X41960D01*
X40960Y48960D02*
Y48920D01*
X41040D01*
Y48960D01*
X41080D01*
Y49040D01*
X41040D01*
Y49080D01*
X40960D01*
Y49040D01*
X40920D01*
Y48960D01*
X40960D01*
Y49960D02*
Y49920D01*
X41040D01*
Y49960D01*
X41080D01*
Y50040D01*
X41040D01*
Y50080D01*
X40960D01*
Y50040D01*
X40920D01*
Y49960D01*
X40960D01*
X39960Y48960D02*
Y48920D01*
X40040D01*
Y48960D01*
X40080D01*
Y49040D01*
X40040D01*
Y49080D01*
X39960D01*
Y49040D01*
X39920D01*
Y48960D01*
X39960D01*
Y49960D02*
Y49920D01*
X40040D01*
Y49960D01*
X40080D01*
Y50040D01*
X40040D01*
Y50080D01*
X39960D01*
Y50040D01*
X39920D01*
Y49960D01*
X39960D01*
X38960Y48960D02*
Y48920D01*
X39040D01*
Y48960D01*
X39080D01*
Y49040D01*
X39040D01*
Y49080D01*
X38960D01*
Y49040D01*
X38920D01*
Y48960D01*
X38960D01*
Y49960D02*
Y49920D01*
X39040D01*
Y49960D01*
X39080D01*
Y50040D01*
X39040D01*
Y50080D01*
X38960D01*
Y50040D01*
X38920D01*
Y49960D01*
X38960D01*
X37960Y48960D02*
Y48920D01*
X38040D01*
Y48960D01*
X38080D01*
Y49040D01*
X38040D01*
Y49080D01*
X37960D01*
Y49040D01*
X37920D01*
Y48960D01*
X37960D01*
Y49960D02*
Y49920D01*
X38040D01*
Y49960D01*
X38080D01*
Y50040D01*
X38040D01*
Y50080D01*
X37960D01*
Y50040D01*
X37920D01*
Y49960D01*
X37960D01*
X36960Y48960D02*
Y48920D01*
X37040D01*
Y48960D01*
X37080D01*
Y49040D01*
X37040D01*
Y49080D01*
X36960D01*
Y49040D01*
X36920D01*
Y48960D01*
X36960D01*
Y49960D02*
Y49920D01*
X37040D01*
Y49960D01*
X37080D01*
Y50040D01*
X37040D01*
Y50080D01*
X36960D01*
Y50040D01*
X36920D01*
Y49960D01*
X36960D01*
X35960Y48960D02*
Y48920D01*
X36040D01*
Y48960D01*
X36080D01*
Y49040D01*
X36040D01*
Y49080D01*
X35960D01*
Y49040D01*
X35920D01*
Y48960D01*
X35960D01*
Y49960D02*
Y49920D01*
X36040D01*
Y49960D01*
X36080D01*
Y50040D01*
X36040D01*
Y50080D01*
X35960D01*
Y50040D01*
X35920D01*
Y49960D01*
X35960D01*
X34960Y48960D02*
Y48920D01*
X35040D01*
Y48960D01*
X35080D01*
Y49040D01*
X35040D01*
Y49080D01*
X34960D01*
Y49040D01*
X34920D01*
Y48960D01*
X34960D01*
Y49960D02*
Y49920D01*
X35040D01*
Y49960D01*
X35080D01*
Y50040D01*
X35040D01*
Y50080D01*
X34960D01*
Y50040D01*
X34920D01*
Y49960D01*
X34960D01*
X33960Y48960D02*
Y48920D01*
X34040D01*
Y48960D01*
X34080D01*
Y49040D01*
X34040D01*
Y49080D01*
X33960D01*
Y49040D01*
X33920D01*
Y48960D01*
X33960D01*
Y49960D02*
Y49920D01*
X34040D01*
Y49960D01*
X34080D01*
Y50040D01*
X34040D01*
Y50080D01*
X33960D01*
Y50040D01*
X33920D01*
Y49960D01*
X33960D01*
X32960Y48960D02*
Y48920D01*
X33040D01*
Y48960D01*
X33080D01*
Y49040D01*
X33040D01*
Y49080D01*
X32960D01*
Y49040D01*
X32920D01*
Y48960D01*
X32960D01*
Y49960D02*
Y49920D01*
X33040D01*
Y49960D01*
X33080D01*
Y50040D01*
X33040D01*
Y50080D01*
X32960D01*
Y50040D01*
X32920D01*
Y49960D01*
X32960D01*
X31960Y48960D02*
Y48920D01*
X32040D01*
Y48960D01*
X32080D01*
Y49040D01*
X32040D01*
Y49080D01*
X31960D01*
Y49040D01*
X31920D01*
Y48960D01*
X31960D01*
X30960D02*
Y48920D01*
X31040D01*
Y48960D01*
X31080D01*
Y49040D01*
X31040D01*
Y49080D01*
X30960D01*
Y49040D01*
X30920D01*
Y48960D01*
X30960D01*
Y49960D02*
Y49920D01*
X31040D01*
Y49960D01*
X31080D01*
Y50040D01*
X31040D01*
Y50080D01*
X30960D01*
Y50040D01*
X30920D01*
Y49960D01*
X30960D01*
X29960Y48960D02*
Y48920D01*
X30040D01*
Y48960D01*
X30080D01*
Y49040D01*
X30040D01*
Y49080D01*
X29960D01*
Y49040D01*
X29920D01*
Y48960D01*
X29960D01*
Y49960D02*
Y49920D01*
X30040D01*
Y49960D01*
X30080D01*
Y50040D01*
X30040D01*
Y50080D01*
X29960D01*
Y50040D01*
X29920D01*
Y49960D01*
X29960D01*
X28960Y48960D02*
Y48920D01*
X29040D01*
Y48960D01*
X29080D01*
Y49040D01*
X29040D01*
Y49080D01*
X28960D01*
Y49040D01*
X28920D01*
Y48960D01*
X28960D01*
Y49960D02*
Y49920D01*
X29040D01*
Y49960D01*
X29080D01*
Y50040D01*
X29040D01*
Y50080D01*
X28960D01*
Y50040D01*
X28920D01*
Y49960D01*
X28960D01*
X27960Y48960D02*
Y48920D01*
X28040D01*
Y48960D01*
X28080D01*
Y49040D01*
X28040D01*
Y49080D01*
X27960D01*
Y49040D01*
X27920D01*
Y48960D01*
X27960D01*
Y49960D02*
Y49920D01*
X28040D01*
Y49960D01*
X28080D01*
Y50040D01*
X28040D01*
Y50080D01*
X27960D01*
Y50040D01*
X27920D01*
Y49960D01*
X27960D01*
X26960Y48960D02*
Y48920D01*
X27040D01*
Y48960D01*
X27080D01*
Y49040D01*
X27040D01*
Y49080D01*
X26960D01*
Y49040D01*
X26920D01*
Y48960D01*
X26960D01*
Y49960D02*
Y49920D01*
X27040D01*
Y49960D01*
X27080D01*
Y50040D01*
X27040D01*
Y50080D01*
X26960D01*
Y50040D01*
X26920D01*
Y49960D01*
X26960D01*
X25960Y48960D02*
Y48920D01*
X26040D01*
Y48960D01*
X26080D01*
Y49040D01*
X26040D01*
Y49080D01*
X25960D01*
Y49040D01*
X25920D01*
Y48960D01*
X25960D01*
Y49960D02*
Y49920D01*
X26040D01*
Y49960D01*
X26080D01*
Y50040D01*
X26040D01*
Y50080D01*
X25960D01*
Y50040D01*
X25920D01*
Y49960D01*
X25960D01*
X24960Y48960D02*
Y48920D01*
X25040D01*
Y48960D01*
X25080D01*
Y49040D01*
X25040D01*
Y49080D01*
X24960D01*
Y49040D01*
X24920D01*
Y48960D01*
X24960D01*
Y49960D02*
Y49920D01*
X25040D01*
Y49960D01*
X25080D01*
Y50040D01*
X25040D01*
Y50080D01*
X24960D01*
Y50040D01*
X24920D01*
Y49960D01*
X24960D01*
X21710D02*
Y49920D01*
X21790D01*
Y49960D01*
X21830D01*
Y50040D01*
X21790D01*
Y50080D01*
X21710D01*
Y50040D01*
X21670D01*
Y49960D01*
X21710D01*
X20710D02*
Y49920D01*
X20790D01*
Y49960D01*
X20830D01*
Y50040D01*
X20790D01*
Y50080D01*
X20710D01*
Y50040D01*
X20670D01*
Y49960D01*
X20710D01*
X19710Y48960D02*
Y48920D01*
X19790D01*
Y48960D01*
X19830D01*
Y49040D01*
X19790D01*
Y49080D01*
X19710D01*
Y49040D01*
X19670D01*
Y48960D01*
X19710D01*
X18710Y49960D02*
Y49920D01*
X18790D01*
Y49960D01*
X18830D01*
Y50040D01*
X18790D01*
Y50080D01*
X18710D01*
Y50040D01*
X18670D01*
Y49960D01*
X18710D01*
X17710D02*
Y49920D01*
X17790D01*
Y49960D01*
X17830D01*
Y50040D01*
X17790D01*
Y50080D01*
X17710D01*
Y50040D01*
X17670D01*
Y49960D01*
X17710D01*
X16710Y48960D02*
Y48920D01*
X16790D01*
Y48960D01*
X16830D01*
Y49040D01*
X16790D01*
Y49080D01*
X16710D01*
Y49040D01*
X16670D01*
Y48960D01*
X16710D01*
Y49960D02*
Y49920D01*
X16790D01*
Y49960D01*
X16830D01*
Y50040D01*
X16790D01*
Y50080D01*
X16710D01*
Y50040D01*
X16670D01*
Y49960D01*
X16710D01*
X15710Y48960D02*
Y48920D01*
X15790D01*
Y48960D01*
X15830D01*
Y49040D01*
X15790D01*
Y49080D01*
X15710D01*
Y49040D01*
X15670D01*
Y48960D01*
X15710D01*
Y49960D02*
Y49920D01*
X15790D01*
Y49960D01*
X15830D01*
Y50040D01*
X15790D01*
Y50080D01*
X15710D01*
Y50040D01*
X15670D01*
Y49960D01*
X15710D01*
X14710Y48960D02*
Y48920D01*
X14790D01*
Y48960D01*
X14830D01*
Y49040D01*
X14790D01*
Y49080D01*
X14710D01*
Y49040D01*
X14670D01*
Y48960D01*
X14710D01*
Y49960D02*
Y49920D01*
X14790D01*
Y49960D01*
X14830D01*
Y50040D01*
X14790D01*
Y50080D01*
X14710D01*
Y50040D01*
X14670D01*
Y49960D01*
X14710D01*
X13710Y48960D02*
Y48920D01*
X13790D01*
Y48960D01*
X13830D01*
Y49040D01*
X13790D01*
Y49080D01*
X13710D01*
Y49040D01*
X13670D01*
Y48960D01*
X13710D01*
Y49960D02*
Y49920D01*
X13790D01*
Y49960D01*
X13830D01*
Y50040D01*
X13790D01*
Y50080D01*
X13710D01*
Y50040D01*
X13670D01*
Y49960D01*
X13710D01*
X12710Y48960D02*
Y48920D01*
X12790D01*
Y48960D01*
X12830D01*
Y49040D01*
X12790D01*
Y49080D01*
X12710D01*
Y49040D01*
X12670D01*
Y48960D01*
X12710D01*
Y49960D02*
Y49920D01*
X12790D01*
Y49960D01*
X12830D01*
Y50040D01*
X12790D01*
Y50080D01*
X12710D01*
Y50040D01*
X12670D01*
Y49960D01*
X12710D01*
X11710Y48960D02*
Y48920D01*
X11790D01*
Y48960D01*
X11830D01*
Y49040D01*
X11790D01*
Y49080D01*
X11710D01*
Y49040D01*
X11670D01*
Y48960D01*
X11710D01*
Y49960D02*
Y49920D01*
X11790D01*
Y49960D01*
X11830D01*
Y50040D01*
X11790D01*
Y50080D01*
X11710D01*
Y50040D01*
X11670D01*
Y49960D01*
X11710D01*
X10710Y48960D02*
Y48920D01*
X10790D01*
Y48960D01*
X10830D01*
Y49040D01*
X10790D01*
Y49080D01*
X10710D01*
Y49040D01*
X10670D01*
Y48960D01*
X10710D01*
Y49960D02*
Y49920D01*
X10790D01*
Y49960D01*
X10830D01*
Y50040D01*
X10790D01*
Y50080D01*
X10710D01*
Y50040D01*
X10670D01*
Y49960D01*
X10710D01*
X9710Y48960D02*
Y48920D01*
X9790D01*
Y48960D01*
X9830D01*
Y49040D01*
X9790D01*
Y49080D01*
X9710D01*
Y49040D01*
X9670D01*
Y48960D01*
X9710D01*
Y49960D02*
Y49920D01*
X9790D01*
Y49960D01*
X9830D01*
Y50040D01*
X9790D01*
Y50080D01*
X9710D01*
Y50040D01*
X9670D01*
Y49960D01*
X9710D01*
X7710Y48960D02*
Y48920D01*
X7790D01*
Y48960D01*
X7830D01*
Y49040D01*
X7790D01*
Y49080D01*
X7710D01*
Y49040D01*
X7670D01*
Y48960D01*
X7710D01*
X6710D02*
Y48920D01*
X6790D01*
Y48960D01*
X6830D01*
Y49040D01*
X6790D01*
Y49080D01*
X6710D01*
Y49040D01*
X6670D01*
Y48960D01*
X6710D01*
X5710D02*
Y48920D01*
X5790D01*
Y48960D01*
X5830D01*
Y49040D01*
X5790D01*
Y49080D01*
X5710D01*
Y49040D01*
X5670D01*
Y48960D01*
X5710D01*
Y49960D02*
Y49920D01*
X5790D01*
Y49960D01*
X5830D01*
Y50040D01*
X5790D01*
Y50080D01*
X5710D01*
Y50040D01*
X5670D01*
Y49960D01*
X5710D01*
X4710Y48960D02*
Y48920D01*
X4790D01*
Y48960D01*
X4830D01*
Y49040D01*
X4790D01*
Y49080D01*
X4710D01*
Y49040D01*
X4670D01*
Y48960D01*
X4710D01*
X3710D02*
Y48920D01*
X3790D01*
Y48960D01*
X3830D01*
Y49040D01*
X3790D01*
Y49080D01*
X3710D01*
Y49040D01*
X3670D01*
Y48960D01*
X3710D01*
X9077Y4720D02*
X9117Y4800D01*
X9077Y4880D01*
X9157Y4840D01*
X9237Y4880D01*
X9197Y4800D01*
X9237Y4720D01*
X9157Y4760D01*
X9077Y4720D01*
X9117Y4760D02*
X9137Y4800D01*
X9117Y4840D01*
X9157Y4820D01*
X9197Y4840D01*
X9177Y4800D01*
X9197Y4760D01*
X9157Y4780D01*
X9117Y4760D01*
X26626Y5420D02*
X26666Y5500D01*
X26626Y5580D01*
X26706Y5540D01*
X26786Y5580D01*
X26746Y5500D01*
X26786Y5420D01*
X26706Y5460D01*
X26626Y5420D01*
X26666Y5460D02*
X26686Y5500D01*
X26666Y5540D01*
X26706Y5520D01*
X26746Y5540D01*
X26726Y5500D01*
X26746Y5460D01*
X26706Y5480D01*
X26666Y5460D01*
X17470Y40420D02*
X17510Y40500D01*
X17470Y40580D01*
X17550Y40540D01*
X17630Y40580D01*
X17590Y40500D01*
X17630Y40420D01*
X17550Y40460D01*
X17470Y40420D01*
X17510Y40460D02*
X17530Y40500D01*
X17510Y40540D01*
X17550Y40520D01*
X17590Y40540D01*
X17570Y40500D01*
X17590Y40460D01*
X17550Y40480D01*
X17510Y40460D01*
X33370Y23720D02*
X33410Y23800D01*
X33370Y23880D01*
X33450Y23840D01*
X33530Y23880D01*
X33490Y23800D01*
X33530Y23720D01*
X33450Y23760D01*
X33370Y23720D01*
X33410Y23760D02*
X33430Y23800D01*
X33410Y23840D01*
X33450Y23820D01*
X33490Y23840D01*
X33470Y23800D01*
X33490Y23760D01*
X33450Y23780D01*
X33410Y23760D01*
X36220Y21220D02*
X36260Y21300D01*
X36220Y21380D01*
X36300Y21340D01*
X36380Y21380D01*
X36340Y21300D01*
X36380Y21220D01*
X36300Y21260D01*
X36220Y21220D01*
X36260Y21260D02*
X36280Y21300D01*
X36260Y21340D01*
X36300Y21320D01*
X36340Y21340D01*
X36320Y21300D01*
X36340Y21260D01*
X36300Y21280D01*
X36260Y21260D01*
X12370Y20620D02*
X12410Y20700D01*
X12370Y20780D01*
X12450Y20740D01*
X12530Y20780D01*
X12490Y20700D01*
X12530Y20620D01*
X12450Y20660D01*
X12370Y20620D01*
X12410Y20660D02*
X12430Y20700D01*
X12410Y20740D01*
X12450Y20720D01*
X12490Y20740D01*
X12470Y20700D01*
X12490Y20660D01*
X12450Y20680D01*
X12410Y20660D01*
X18770Y18020D02*
X18810Y18100D01*
X18770Y18180D01*
X18850Y18140D01*
X18930Y18180D01*
X18890Y18100D01*
X18930Y18020D01*
X18850Y18060D01*
X18770Y18020D01*
X18810Y18060D02*
X18830Y18100D01*
X18810Y18140D01*
X18850Y18120D01*
X18890Y18140D01*
X18870Y18100D01*
X18890Y18060D01*
X18850Y18080D01*
X18810Y18060D01*
X23170Y48420D02*
X23210Y48500D01*
X23170Y48580D01*
X23250Y48540D01*
X23330Y48580D01*
X23290Y48500D01*
X23330Y48420D01*
X23250Y48460D01*
X23170Y48420D01*
X23210Y48460D02*
X23230Y48500D01*
X23210Y48540D01*
X23250Y48520D01*
X23290Y48540D01*
X23270Y48500D01*
X23290Y48460D01*
X23250Y48480D01*
X23210Y48460D01*
X12070Y43620D02*
X12110Y43700D01*
X12070Y43780D01*
X12150Y43740D01*
X12230Y43780D01*
X12190Y43700D01*
X12230Y43620D01*
X12150Y43660D01*
X12070Y43620D01*
X12110Y43660D02*
X12130Y43700D01*
X12110Y43740D01*
X12150Y43720D01*
X12190Y43740D01*
X12170Y43700D01*
X12190Y43660D01*
X12150Y43680D01*
X12110Y43660D01*
X10620Y45020D02*
X10660Y45100D01*
X10620Y45180D01*
X10700Y45140D01*
X10780Y45180D01*
X10740Y45100D01*
X10780Y45020D01*
X10700Y45060D01*
X10620Y45020D01*
X10660Y45060D02*
X10680Y45100D01*
X10660Y45140D01*
X10700Y45120D01*
X10740Y45140D01*
X10720Y45100D01*
X10740Y45060D01*
X10700Y45080D01*
X10660Y45060D01*
X14520Y44720D02*
X14560Y44800D01*
X14520Y44880D01*
X14600Y44840D01*
X14680Y44880D01*
X14640Y44800D01*
X14680Y44720D01*
X14600Y44760D01*
X14520Y44720D01*
X14560Y44760D02*
X14580Y44800D01*
X14560Y44840D01*
X14600Y44820D01*
X14640Y44840D01*
X14620Y44800D01*
X14640Y44760D01*
X14600Y44780D01*
X14560Y44760D01*
X42920Y44920D02*
X42960Y45000D01*
X42920Y45080D01*
X43000Y45040D01*
X43080Y45080D01*
X43040Y45000D01*
X43080Y44920D01*
X43000Y44960D01*
X42920Y44920D01*
X42960Y44960D02*
X42980Y45000D01*
X42960Y45040D01*
X43000Y45020D01*
X43040Y45040D01*
X43020Y45000D01*
X43040Y44960D01*
X43000Y44980D01*
X42960Y44960D01*
X38920Y40920D02*
X38960Y41000D01*
X38920Y41080D01*
X39000Y41040D01*
X39080Y41080D01*
X39040Y41000D01*
X39080Y40920D01*
X39000Y40960D01*
X38920Y40920D01*
X38960Y40960D02*
X38980Y41000D01*
X38960Y41040D01*
X39000Y41020D01*
X39040Y41040D01*
X39020Y41000D01*
X39040Y40960D01*
X39000Y40980D01*
X38960Y40960D01*
X33920Y38920D02*
X33960Y39000D01*
X33920Y39080D01*
X34000Y39040D01*
X34080Y39080D01*
X34040Y39000D01*
X34080Y38920D01*
X34000Y38960D01*
X33920Y38920D01*
X33960Y38960D02*
X33980Y39000D01*
X33960Y39040D01*
X34000Y39020D01*
X34040Y39040D01*
X34020Y39000D01*
X34040Y38960D01*
X34000Y38980D01*
X33960Y38960D01*
X36420Y27420D02*
X36460Y27500D01*
X36420Y27580D01*
X36500Y27540D01*
X36580Y27580D01*
X36540Y27500D01*
X36580Y27420D01*
X36500Y27460D01*
X36420Y27420D01*
X36460Y27460D02*
X36480Y27500D01*
X36460Y27540D01*
X36500Y27520D01*
X36540Y27540D01*
X36520Y27500D01*
X36540Y27460D01*
X36500Y27480D01*
X36460Y27460D01*
X32920Y30420D02*
X32960Y30500D01*
X32920Y30580D01*
X33000Y30540D01*
X33080Y30580D01*
X33040Y30500D01*
X33080Y30420D01*
X33000Y30460D01*
X32920Y30420D01*
X32960Y30460D02*
X32980Y30500D01*
X32960Y30540D01*
X33000Y30520D01*
X33040Y30540D01*
X33020Y30500D01*
X33040Y30460D01*
X33000Y30480D01*
X32960Y30460D01*
X43420Y26920D02*
X43460Y27000D01*
X43420Y27080D01*
X43500Y27040D01*
X43580Y27080D01*
X43540Y27000D01*
X43580Y26920D01*
X43500Y26960D01*
X43420Y26920D01*
X43460Y26960D02*
X43480Y27000D01*
X43460Y27040D01*
X43500Y27020D01*
X43540Y27040D01*
X43520Y27000D01*
X43540Y26960D01*
X43500Y26980D01*
X43460Y26960D01*
X39420Y22920D02*
X39460Y23000D01*
X39420Y23080D01*
X39500Y23040D01*
X39580Y23080D01*
X39540Y23000D01*
X39580Y22920D01*
X39500Y22960D01*
X39420Y22920D01*
X39460Y22960D02*
X39480Y23000D01*
X39460Y23040D01*
X39500Y23020D01*
X39540Y23040D01*
X39520Y23000D01*
X39540Y22960D01*
X39500Y22980D01*
X39460Y22960D01*
X44920Y20920D02*
X44960Y21000D01*
X44920Y21080D01*
X45000Y21040D01*
X45080Y21080D01*
X45040Y21000D01*
X45080Y20920D01*
X45000Y20960D01*
X44920Y20920D01*
X44960Y20960D02*
X44980Y21000D01*
X44960Y21040D01*
X45000Y21020D01*
X45040Y21040D01*
X45020Y21000D01*
X45040Y20960D01*
X45000Y20980D01*
X44960Y20960D01*
X11420Y32920D02*
X11460Y33000D01*
X11420Y33080D01*
X11500Y33040D01*
X11580Y33080D01*
X11540Y33000D01*
X11580Y32920D01*
X11500Y32960D01*
X11420Y32920D01*
X11460Y32960D02*
X11480Y33000D01*
X11460Y33040D01*
X11500Y33020D01*
X11540Y33040D01*
X11520Y33000D01*
X11540Y32960D01*
X11500Y32980D01*
X11460Y32960D01*
X18420Y32920D02*
X18460Y33000D01*
X18420Y33080D01*
X18500Y33040D01*
X18580Y33080D01*
X18540Y33000D01*
X18580Y32920D01*
X18500Y32960D01*
X18420Y32920D01*
X18460Y32960D02*
X18480Y33000D01*
X18460Y33040D01*
X18500Y33020D01*
X18540Y33040D01*
X18520Y33000D01*
X18540Y32960D01*
X18500Y32980D01*
X18460Y32960D01*
X5920Y27920D02*
X5960Y28000D01*
X5920Y28080D01*
X6000Y28040D01*
X6080Y28080D01*
X6040Y28000D01*
X6080Y27920D01*
X6000Y27960D01*
X5920Y27920D01*
X5960Y27960D02*
X5980Y28000D01*
X5960Y28040D01*
X6000Y28020D01*
X6040Y28040D01*
X6020Y28000D01*
X6040Y27960D01*
X6000Y27980D01*
X5960Y27960D01*
X5920Y36920D02*
X5960Y37000D01*
X5920Y37080D01*
X6000Y37040D01*
X6080Y37080D01*
X6040Y37000D01*
X6080Y36920D01*
X6000Y36960D01*
X5920Y36920D01*
X5960Y36960D02*
X5980Y37000D01*
X5960Y37040D01*
X6000Y37020D01*
X6040Y37040D01*
X6020Y37000D01*
X6040Y36960D01*
X6000Y36980D01*
X5960Y36960D01*
X23920Y60420D02*
X23960Y60500D01*
X23920Y60580D01*
X24000Y60540D01*
X24080Y60580D01*
X24040Y60500D01*
X24080Y60420D01*
X24000Y60460D01*
X23920Y60420D01*
X23960Y60460D02*
X23980Y60500D01*
X23960Y60540D01*
X24000Y60520D01*
X24040Y60540D01*
X24020Y60500D01*
X24040Y60460D01*
X24000Y60480D01*
X23960Y60460D01*
X39920Y51920D02*
X39960Y52000D01*
X39920Y52080D01*
X40000Y52040D01*
X40080Y52080D01*
X40040Y52000D01*
X40080Y51920D01*
X40000Y51960D01*
X39920Y51920D01*
X39960Y51960D02*
X39980Y52000D01*
X39960Y52040D01*
X40000Y52020D01*
X40040Y52040D01*
X40020Y52000D01*
X40040Y51960D01*
X40000Y51980D01*
X39960Y51960D01*
X39920Y59920D02*
X39960Y60000D01*
X39920Y60080D01*
X40000Y60040D01*
X40080Y60080D01*
X40040Y60000D01*
X40080Y59920D01*
X40000Y59960D01*
X39920Y59920D01*
X39960Y59960D02*
X39980Y60000D01*
X39960Y60040D01*
X40000Y60020D01*
X40040Y60040D01*
X40020Y60000D01*
X40040Y59960D01*
X40000Y59980D01*
X39960Y59960D01*
X42420Y32420D02*
X42460Y32500D01*
X42420Y32580D01*
X42500Y32540D01*
X42580Y32580D01*
X42540Y32500D01*
X42580Y32420D01*
X42500Y32460D01*
X42420Y32420D01*
X42460Y32460D02*
X42480Y32500D01*
X42460Y32540D01*
X42500Y32520D01*
X42540Y32540D01*
X42520Y32500D01*
X42540Y32460D01*
X42500Y32480D01*
X42460Y32460D01*
X4420Y8920D02*
X4460Y9000D01*
X4420Y9080D01*
X4500Y9040D01*
X4580Y9080D01*
X4540Y9000D01*
X4580Y8920D01*
X4500Y8960D01*
X4420Y8920D01*
X4460Y8960D02*
X4480Y9000D01*
X4460Y9040D01*
X4500Y9020D01*
X4540Y9040D01*
X4520Y9000D01*
X4540Y8960D01*
X4500Y8980D01*
X4460Y8960D01*
X20420Y8920D02*
X20460Y9000D01*
X20420Y9080D01*
X20500Y9040D01*
X20580Y9080D01*
X20540Y9000D01*
X20580Y8920D01*
X20500Y8960D01*
X20420Y8920D01*
X20460Y8960D02*
X20480Y9000D01*
X20460Y9040D01*
X20500Y9020D01*
X20540Y9040D01*
X20520Y9000D01*
X20540Y8960D01*
X20500Y8980D01*
X20460Y8960D01*
X36420Y8920D02*
X36460Y9000D01*
X36420Y9080D01*
X36500Y9040D01*
X36580Y9080D01*
X36540Y9000D01*
X36580Y8920D01*
X36500Y8960D01*
X36420Y8920D01*
X36460Y8960D02*
X36480Y9000D01*
X36460Y9040D01*
X36500Y9020D01*
X36540Y9040D01*
X36520Y9000D01*
X36540Y8960D01*
X36500Y8980D01*
X36460Y8960D01*
X44420Y5920D02*
X44460Y6000D01*
X44420Y6080D01*
X44500Y6040D01*
X44580Y6080D01*
X44540Y6000D01*
X44580Y5920D01*
X44500Y5960D01*
X44420Y5920D01*
X44460Y5960D02*
X44480Y6000D01*
X44460Y6040D01*
X44500Y6020D01*
X44540Y6040D01*
X44520Y6000D01*
X44540Y5960D01*
X44500Y5980D01*
X44460Y5960D01*
X23809Y24100D02*
X23849Y24180D01*
X23809Y24260D01*
X23889Y24220D01*
X23969Y24260D01*
X23929Y24180D01*
X23969Y24100D01*
X23889Y24140D01*
X23809Y24100D01*
X23849Y24140D02*
X23869Y24180D01*
X23849Y24220D01*
X23889Y24200D01*
X23929Y24220D01*
X23909Y24180D01*
X23929Y24140D01*
X23889Y24160D01*
X23849Y24140D01*
X20420Y24220D02*
X20460Y24300D01*
X20420Y24380D01*
X20500Y24340D01*
X20580Y24380D01*
X20540Y24300D01*
X20580Y24220D01*
X20500Y24260D01*
X20420Y24220D01*
X20460Y24260D02*
X20480Y24300D01*
X20460Y24340D01*
X20500Y24320D01*
X20540Y24340D01*
X20520Y24300D01*
X20540Y24260D01*
X20500Y24280D01*
X20460Y24260D01*
X14820Y26420D02*
X14860Y26500D01*
X14820Y26580D01*
X14900Y26540D01*
X14980Y26580D01*
X14940Y26500D01*
X14980Y26420D01*
X14900Y26460D01*
X14820Y26420D01*
X14860Y26460D02*
X14880Y26500D01*
X14860Y26540D01*
X14900Y26520D01*
X14940Y26540D01*
X14920Y26500D01*
X14940Y26460D01*
X14900Y26480D01*
X14860Y26460D01*
X17320Y26520D02*
X17360Y26600D01*
X17320Y26680D01*
X17400Y26640D01*
X17480Y26680D01*
X17440Y26600D01*
X17480Y26520D01*
X17400Y26560D01*
X17320Y26520D01*
X17360Y26560D02*
X17380Y26600D01*
X17360Y26640D01*
X17400Y26620D01*
X17440Y26640D01*
X17420Y26600D01*
X17440Y26560D01*
X17400Y26580D01*
X17360Y26560D01*
X27588Y23981D02*
X27628Y24061D01*
X27588Y24141D01*
X27668Y24101D01*
X27748Y24141D01*
X27708Y24061D01*
X27748Y23981D01*
X27668Y24021D01*
X27588Y23981D01*
X27628Y24021D02*
X27648Y24061D01*
X27628Y24101D01*
X27668Y24081D01*
X27708Y24101D01*
X27688Y24061D01*
X27708Y24021D01*
X27668Y24041D01*
X27628Y24021D01*
X58213Y55920D02*
X58133Y56080D01*
X58293D01*
X58213Y55920D01*
Y55960D02*
X58173Y56040D01*
X58253D01*
X58213Y55960D01*
X57910Y55920D02*
X57830Y56080D01*
X57990D01*
X57910Y55920D01*
Y55960D02*
X57870Y56040D01*
X57950D01*
X57910Y55960D01*
X54102Y56828D02*
X54022Y56988D01*
X54182D01*
X54102Y56828D01*
Y56868D02*
X54062Y56948D01*
X54142D01*
X54102Y56868D01*
X54895Y58164D02*
X54815Y58324D01*
X54975D01*
X54895Y58164D01*
Y58204D02*
X54855Y58284D01*
X54935D01*
X54895Y58204D01*
X54901Y57859D02*
X54821Y58019D01*
X54981D01*
X54901Y57859D01*
Y57899D02*
X54861Y57979D01*
X54941D01*
X54901Y57899D01*
X54102Y56528D02*
X54022Y56688D01*
X54182D01*
X54102Y56528D01*
Y56568D02*
X54062Y56648D01*
X54142D01*
X54102Y56568D01*
X55208Y56375D02*
X55128Y56535D01*
X55288D01*
X55208Y56375D01*
Y56415D02*
X55168Y56495D01*
X55248D01*
X55208Y56415D01*
X55200Y56075D02*
X55120Y56235D01*
X55280D01*
X55200Y56075D01*
Y56115D02*
X55160Y56195D01*
X55240D01*
X55200Y56115D01*
X54100Y57428D02*
X54020Y57588D01*
X54180D01*
X54100Y57428D01*
Y57468D02*
X54060Y57548D01*
X54140D01*
X54100Y57468D01*
X54100Y57128D02*
X54020Y57288D01*
X54180D01*
X54100Y57128D01*
Y57168D02*
X54060Y57248D01*
X54140D01*
X54100Y57168D01*
X58213Y48920D02*
X58133Y49080D01*
X58293D01*
X58213Y48920D01*
Y48960D02*
X58173Y49040D01*
X58253D01*
X58213Y48960D01*
X57910Y48920D02*
X57830Y49080D01*
X57990D01*
X57910Y48920D01*
Y48960D02*
X57870Y49040D01*
X57950D01*
X57910Y48960D01*
X54102Y49828D02*
X54022Y49988D01*
X54182D01*
X54102Y49828D01*
Y49868D02*
X54062Y49948D01*
X54142D01*
X54102Y49868D01*
X54895Y51164D02*
X54815Y51324D01*
X54975D01*
X54895Y51164D01*
Y51204D02*
X54855Y51284D01*
X54935D01*
X54895Y51204D01*
X54901Y50859D02*
X54821Y51019D01*
X54981D01*
X54901Y50859D01*
Y50899D02*
X54861Y50979D01*
X54941D01*
X54901Y50899D01*
X54102Y49528D02*
X54022Y49688D01*
X54182D01*
X54102Y49528D01*
Y49568D02*
X54062Y49648D01*
X54142D01*
X54102Y49568D01*
X55208Y49375D02*
X55128Y49535D01*
X55288D01*
X55208Y49375D01*
Y49415D02*
X55168Y49495D01*
X55248D01*
X55208Y49415D01*
X55200Y49075D02*
X55120Y49235D01*
X55280D01*
X55200Y49075D01*
Y49115D02*
X55160Y49195D01*
X55240D01*
X55200Y49115D01*
X54100Y50428D02*
X54020Y50588D01*
X54180D01*
X54100Y50428D01*
Y50468D02*
X54060Y50548D01*
X54140D01*
X54100Y50468D01*
X54100Y50128D02*
X54020Y50288D01*
X54180D01*
X54100Y50128D01*
Y50168D02*
X54060Y50248D01*
X54140D01*
X54100Y50168D01*
X58213Y41920D02*
X58133Y42080D01*
X58293D01*
X58213Y41920D01*
Y41960D02*
X58173Y42040D01*
X58253D01*
X58213Y41960D01*
X57910Y41920D02*
X57830Y42080D01*
X57990D01*
X57910Y41920D01*
Y41960D02*
X57870Y42040D01*
X57950D01*
X57910Y41960D01*
X54102Y42828D02*
X54022Y42988D01*
X54182D01*
X54102Y42828D01*
Y42868D02*
X54062Y42948D01*
X54142D01*
X54102Y42868D01*
X54895Y44164D02*
X54815Y44324D01*
X54975D01*
X54895Y44164D01*
Y44204D02*
X54855Y44284D01*
X54935D01*
X54895Y44204D01*
X54901Y43859D02*
X54821Y44019D01*
X54981D01*
X54901Y43859D01*
Y43899D02*
X54861Y43979D01*
X54941D01*
X54901Y43899D01*
X54102Y42528D02*
X54022Y42688D01*
X54182D01*
X54102Y42528D01*
Y42568D02*
X54062Y42648D01*
X54142D01*
X54102Y42568D01*
X55208Y42375D02*
X55128Y42535D01*
X55288D01*
X55208Y42375D01*
Y42415D02*
X55168Y42495D01*
X55248D01*
X55208Y42415D01*
X55200Y42075D02*
X55120Y42235D01*
X55280D01*
X55200Y42075D01*
Y42115D02*
X55160Y42195D01*
X55240D01*
X55200Y42115D01*
X54100Y43428D02*
X54020Y43588D01*
X54180D01*
X54100Y43428D01*
Y43468D02*
X54060Y43548D01*
X54140D01*
X54100Y43468D01*
X54100Y43128D02*
X54020Y43288D01*
X54180D01*
X54100Y43128D01*
Y43168D02*
X54060Y43248D01*
X54140D01*
X54100Y43168D01*
X58213Y34920D02*
X58133Y35080D01*
X58293D01*
X58213Y34920D01*
Y34960D02*
X58173Y35040D01*
X58253D01*
X58213Y34960D01*
X57910Y34920D02*
X57830Y35080D01*
X57990D01*
X57910Y34920D01*
Y34960D02*
X57870Y35040D01*
X57950D01*
X57910Y34960D01*
X54102Y35828D02*
X54022Y35988D01*
X54182D01*
X54102Y35828D01*
Y35868D02*
X54062Y35948D01*
X54142D01*
X54102Y35868D01*
X54895Y37164D02*
X54815Y37324D01*
X54975D01*
X54895Y37164D01*
Y37204D02*
X54855Y37284D01*
X54935D01*
X54895Y37204D01*
X54901Y36859D02*
X54821Y37019D01*
X54981D01*
X54901Y36859D01*
Y36899D02*
X54861Y36979D01*
X54941D01*
X54901Y36899D01*
X54102Y35528D02*
X54022Y35688D01*
X54182D01*
X54102Y35528D01*
Y35568D02*
X54062Y35648D01*
X54142D01*
X54102Y35568D01*
X55208Y35375D02*
X55128Y35535D01*
X55288D01*
X55208Y35375D01*
Y35415D02*
X55168Y35495D01*
X55248D01*
X55208Y35415D01*
X55200Y35075D02*
X55120Y35235D01*
X55280D01*
X55200Y35075D01*
Y35115D02*
X55160Y35195D01*
X55240D01*
X55200Y35115D01*
X54100Y36428D02*
X54020Y36588D01*
X54180D01*
X54100Y36428D01*
Y36468D02*
X54060Y36548D01*
X54140D01*
X54100Y36468D01*
X54100Y36128D02*
X54020Y36288D01*
X54180D01*
X54100Y36128D01*
Y36168D02*
X54060Y36248D01*
X54140D01*
X54100Y36168D01*
X58213Y27920D02*
X58133Y28080D01*
X58293D01*
X58213Y27920D01*
Y27960D02*
X58173Y28040D01*
X58253D01*
X58213Y27960D01*
X57910Y27920D02*
X57830Y28080D01*
X57990D01*
X57910Y27920D01*
Y27960D02*
X57870Y28040D01*
X57950D01*
X57910Y27960D01*
X54102Y28828D02*
X54022Y28988D01*
X54182D01*
X54102Y28828D01*
Y28868D02*
X54062Y28948D01*
X54142D01*
X54102Y28868D01*
X54895Y30164D02*
X54815Y30324D01*
X54975D01*
X54895Y30164D01*
Y30204D02*
X54855Y30284D01*
X54935D01*
X54895Y30204D01*
X54901Y29859D02*
X54821Y30019D01*
X54981D01*
X54901Y29859D01*
Y29899D02*
X54861Y29979D01*
X54941D01*
X54901Y29899D01*
X54102Y28528D02*
X54022Y28688D01*
X54182D01*
X54102Y28528D01*
Y28568D02*
X54062Y28648D01*
X54142D01*
X54102Y28568D01*
X55208Y28375D02*
X55128Y28535D01*
X55288D01*
X55208Y28375D01*
Y28415D02*
X55168Y28495D01*
X55248D01*
X55208Y28415D01*
X55200Y28075D02*
X55120Y28235D01*
X55280D01*
X55200Y28075D01*
Y28115D02*
X55160Y28195D01*
X55240D01*
X55200Y28115D01*
X54100Y29428D02*
X54020Y29588D01*
X54180D01*
X54100Y29428D01*
Y29468D02*
X54060Y29548D01*
X54140D01*
X54100Y29468D01*
X54100Y29128D02*
X54020Y29288D01*
X54180D01*
X54100Y29128D01*
Y29168D02*
X54060Y29248D01*
X54140D01*
X54100Y29168D01*
X58213Y20920D02*
X58133Y21080D01*
X58293D01*
X58213Y20920D01*
Y20960D02*
X58173Y21040D01*
X58253D01*
X58213Y20960D01*
X57910Y20920D02*
X57830Y21080D01*
X57990D01*
X57910Y20920D01*
Y20960D02*
X57870Y21040D01*
X57950D01*
X57910Y20960D01*
X54102Y21828D02*
X54022Y21988D01*
X54182D01*
X54102Y21828D01*
Y21868D02*
X54062Y21948D01*
X54142D01*
X54102Y21868D01*
X54895Y23164D02*
X54815Y23324D01*
X54975D01*
X54895Y23164D01*
Y23204D02*
X54855Y23284D01*
X54935D01*
X54895Y23204D01*
X54901Y22859D02*
X54821Y23019D01*
X54981D01*
X54901Y22859D01*
Y22899D02*
X54861Y22979D01*
X54941D01*
X54901Y22899D01*
X54102Y21528D02*
X54022Y21688D01*
X54182D01*
X54102Y21528D01*
Y21568D02*
X54062Y21648D01*
X54142D01*
X54102Y21568D01*
X55208Y21375D02*
X55128Y21535D01*
X55288D01*
X55208Y21375D01*
Y21415D02*
X55168Y21495D01*
X55248D01*
X55208Y21415D01*
X55200Y21075D02*
X55120Y21235D01*
X55280D01*
X55200Y21075D01*
Y21115D02*
X55160Y21195D01*
X55240D01*
X55200Y21115D01*
X54100Y22428D02*
X54020Y22588D01*
X54180D01*
X54100Y22428D01*
Y22468D02*
X54060Y22548D01*
X54140D01*
X54100Y22468D01*
X54100Y22128D02*
X54020Y22288D01*
X54180D01*
X54100Y22128D01*
Y22168D02*
X54060Y22248D01*
X54140D01*
X54100Y22168D01*
X58213Y13920D02*
X58133Y14080D01*
X58293D01*
X58213Y13920D01*
Y13960D02*
X58173Y14040D01*
X58253D01*
X58213Y13960D01*
X57910Y13920D02*
X57830Y14080D01*
X57990D01*
X57910Y13920D01*
Y13960D02*
X57870Y14040D01*
X57950D01*
X57910Y13960D01*
X54102Y14828D02*
X54022Y14988D01*
X54182D01*
X54102Y14828D01*
Y14868D02*
X54062Y14948D01*
X54142D01*
X54102Y14868D01*
X54895Y16164D02*
X54815Y16324D01*
X54975D01*
X54895Y16164D01*
Y16204D02*
X54855Y16284D01*
X54935D01*
X54895Y16204D01*
X54901Y15859D02*
X54821Y16019D01*
X54981D01*
X54901Y15859D01*
Y15899D02*
X54861Y15979D01*
X54941D01*
X54901Y15899D01*
X54102Y14528D02*
X54022Y14688D01*
X54182D01*
X54102Y14528D01*
Y14568D02*
X54062Y14648D01*
X54142D01*
X54102Y14568D01*
X55208Y14375D02*
X55128Y14535D01*
X55288D01*
X55208Y14375D01*
Y14415D02*
X55168Y14495D01*
X55248D01*
X55208Y14415D01*
X55200Y14075D02*
X55120Y14235D01*
X55280D01*
X55200Y14075D01*
Y14115D02*
X55160Y14195D01*
X55240D01*
X55200Y14115D01*
X54100Y15428D02*
X54020Y15588D01*
X54180D01*
X54100Y15428D01*
Y15468D02*
X54060Y15548D01*
X54140D01*
X54100Y15468D01*
X54100Y15128D02*
X54020Y15288D01*
X54180D01*
X54100Y15128D01*
Y15168D02*
X54060Y15248D01*
X54140D01*
X54100Y15168D01*
Y8128D02*
X54020Y8288D01*
X54180D01*
X54100Y8128D01*
Y8168D02*
X54060Y8248D01*
X54140D01*
X54100Y8168D01*
X54100Y8428D02*
X54020Y8588D01*
X54180D01*
X54100Y8428D01*
Y8468D02*
X54060Y8548D01*
X54140D01*
X54100Y8468D01*
X55200Y7075D02*
X55120Y7235D01*
X55280D01*
X55200Y7075D01*
Y7115D02*
X55160Y7195D01*
X55240D01*
X55200Y7115D01*
X55208Y7375D02*
X55128Y7535D01*
X55288D01*
X55208Y7375D01*
Y7415D02*
X55168Y7495D01*
X55248D01*
X55208Y7415D01*
X54102Y7528D02*
X54022Y7688D01*
X54182D01*
X54102Y7528D01*
Y7568D02*
X54062Y7648D01*
X54142D01*
X54102Y7568D01*
X54901Y8859D02*
X54821Y9019D01*
X54981D01*
X54901Y8859D01*
Y8899D02*
X54861Y8979D01*
X54941D01*
X54901Y8899D01*
X54895Y9164D02*
X54815Y9324D01*
X54975D01*
X54895Y9164D01*
Y9204D02*
X54855Y9284D01*
X54935D01*
X54895Y9204D01*
X54102Y7828D02*
X54022Y7988D01*
X54182D01*
X54102Y7828D01*
Y7868D02*
X54062Y7948D01*
X54142D01*
X54102Y7868D01*
X57910Y6920D02*
X57830Y7080D01*
X57990D01*
X57910Y6920D01*
Y6960D02*
X57870Y7040D01*
X57950D01*
X57910Y6960D01*
X58213Y6920D02*
X58133Y7080D01*
X58293D01*
X58213Y6920D01*
Y6960D02*
X58173Y7040D01*
X58253D01*
X58213Y6960D01*
X24900Y54920D02*
X24820Y55080D01*
X24980D01*
X24900Y54920D01*
Y54960D02*
X24860Y55040D01*
X24940D01*
X24900Y54960D01*
X25600Y55896D02*
X25520Y56056D01*
X25680D01*
X25600Y55896D01*
Y55936D02*
X25560Y56016D01*
X25640D01*
X25600Y55936D01*
X26500Y56896D02*
X26420Y57056D01*
X26580D01*
X26500Y56896D01*
Y56936D02*
X26460Y57016D01*
X26540D01*
X26500Y56936D01*
X27300Y57896D02*
X27220Y58056D01*
X27380D01*
X27300Y57896D01*
Y57936D02*
X27260Y58016D01*
X27340D01*
X27300Y57936D01*
X15670Y22577D02*
X15710Y22657D01*
X15670Y22737D01*
X15750Y22697D01*
X15830Y22737D01*
X15790Y22657D01*
X15830Y22577D01*
X15750Y22617D01*
X15670Y22577D01*
X15710Y22617D02*
X15730Y22657D01*
X15710Y22697D01*
X15750Y22677D01*
X15790Y22697D01*
X15770Y22657D01*
X15790Y22617D01*
X15750Y22637D01*
X15710Y22617D01*
X15255Y22150D02*
X15295Y22230D01*
X15255Y22310D01*
X15335Y22270D01*
X15415Y22310D01*
X15375Y22230D01*
X15415Y22150D01*
X15335Y22190D01*
X15255Y22150D01*
X15295Y22190D02*
X15315Y22230D01*
X15295Y22270D01*
X15335Y22250D01*
X15375Y22270D01*
X15355Y22230D01*
X15375Y22190D01*
X15335Y22210D01*
X15295Y22190D01*
X16330Y21771D02*
X16250Y21931D01*
X16410D01*
X16330Y21771D01*
Y21811D02*
X16290Y21891D01*
X16370D01*
X16330Y21811D01*
X16644Y21536D02*
X16564Y21696D01*
X16724D01*
X16644Y21536D01*
Y21576D02*
X16604Y21656D01*
X16684D01*
X16644Y21576D01*
X16959Y21320D02*
X16879Y21480D01*
X17039D01*
X16959Y21320D01*
Y21360D02*
X16919Y21440D01*
X16999D01*
X16959Y21360D01*
X16330Y27620D02*
X16250Y27780D01*
X16410D01*
X16330Y27620D01*
Y27660D02*
X16290Y27740D01*
X16370D01*
X16330Y27660D01*
X16959Y27020D02*
X16879Y27180D01*
X17039D01*
X16959Y27020D01*
Y27060D02*
X16919Y27140D01*
X16999D01*
X16959Y27060D01*
X4750Y18820D02*
X4670Y18980D01*
X4830D01*
X4750Y18820D01*
Y18860D02*
X4710Y18940D01*
X4790D01*
X4750Y18860D01*
X16015Y27920D02*
X15935Y28080D01*
X16095D01*
X16015Y27920D01*
Y27960D02*
X15975Y28040D01*
X16055D01*
X16015Y27960D01*
X5750Y19320D02*
X5670Y19480D01*
X5830D01*
X5750Y19320D01*
Y19360D02*
X5710Y19440D01*
X5790D01*
X5750Y19360D01*
X6750Y19820D02*
X6670Y19980D01*
X6830D01*
X6750Y19820D01*
Y19860D02*
X6710Y19940D01*
X6790D01*
X6750Y19860D01*
X16644Y27320D02*
X16564Y27480D01*
X16724D01*
X16644Y27320D01*
Y27360D02*
X16604Y27440D01*
X16684D01*
X16644Y27360D01*
X7750Y20320D02*
X7670Y20480D01*
X7830D01*
X7750Y20320D01*
Y20360D02*
X7710Y20440D01*
X7790D01*
X7750Y20360D01*
X20424Y22072D02*
X20344Y22232D01*
X20504D01*
X20424Y22072D01*
Y22112D02*
X20384Y22192D01*
X20464D01*
X20424Y22112D01*
X19164Y22378D02*
X19084Y22538D01*
X19244D01*
X19164Y22378D01*
Y22418D02*
X19124Y22498D01*
X19204D01*
X19164Y22418D01*
X18534Y22378D02*
X18454Y22538D01*
X18614D01*
X18534Y22378D01*
Y22418D02*
X18494Y22498D01*
X18574D01*
X18534Y22418D01*
X17904Y26720D02*
X17824Y26880D01*
X17984D01*
X17904Y26720D01*
Y26760D02*
X17864Y26840D01*
X17944D01*
X17904Y26760D01*
X18219Y27018D02*
X18139Y27178D01*
X18299D01*
X18219Y27018D01*
Y27058D02*
X18179Y27138D01*
X18259D01*
X18219Y27058D01*
X18534Y26720D02*
X18454Y26880D01*
X18614D01*
X18534Y26720D01*
Y26760D02*
X18494Y26840D01*
X18574D01*
X18534Y26760D01*
X19164Y26720D02*
X19084Y26880D01*
X19244D01*
X19164Y26720D01*
Y26760D02*
X19124Y26840D01*
X19204D01*
X19164Y26760D01*
X19794Y26720D02*
X19714Y26880D01*
X19874D01*
X19794Y26720D01*
Y26760D02*
X19754Y26840D01*
X19834D01*
X19794Y26760D01*
X20109Y27018D02*
X20029Y27178D01*
X20189D01*
X20109Y27018D01*
Y27058D02*
X20069Y27138D01*
X20149D01*
X20109Y27058D01*
X26723Y23981D02*
X26643Y24141D01*
X26803D01*
X26723Y23981D01*
Y24021D02*
X26683Y24101D01*
X26763D01*
X26723Y24021D01*
X25463Y23981D02*
X25383Y24141D01*
X25543D01*
X25463Y23981D01*
Y24021D02*
X25423Y24101D01*
X25503D01*
X25463Y24021D01*
X24833Y23981D02*
X24753Y24141D01*
X24913D01*
X24833Y23981D01*
Y24021D02*
X24793Y24101D01*
X24873D01*
X24833Y24021D01*
X23259Y23981D02*
X23179Y24141D01*
X23339D01*
X23259Y23981D01*
Y24021D02*
X23219Y24101D01*
X23299D01*
X23259Y24021D01*
X22600Y23981D02*
X22520Y24141D01*
X22680D01*
X22600Y23981D01*
Y24021D02*
X22560Y24101D01*
X22640D01*
X22600Y24021D01*
X21369Y23981D02*
X21289Y24141D01*
X21449D01*
X21369Y23981D01*
Y24021D02*
X21329Y24101D01*
X21409D01*
X21369Y24021D01*
X28000Y11420D02*
X27920Y11580D01*
X28080D01*
X28000Y11420D01*
Y11460D02*
X27960Y11540D01*
X28040D01*
X28000Y11460D01*
X30000Y11720D02*
X29920Y11880D01*
X30080D01*
X30000Y11720D01*
Y11760D02*
X29960Y11840D01*
X30040D01*
X30000Y11760D01*
X35000Y12020D02*
X34920Y12180D01*
X35080D01*
X35000Y12020D01*
Y12060D02*
X34960Y12140D01*
X35040D01*
X35000Y12060D01*
X37000Y12320D02*
X36920Y12480D01*
X37080D01*
X37000Y12320D01*
Y12360D02*
X36960Y12440D01*
X37040D01*
X37000Y12360D01*
X41000Y12620D02*
X40920Y12780D01*
X41080D01*
X41000Y12620D01*
Y12660D02*
X40960Y12740D01*
X41040D01*
X41000Y12660D01*
X20424Y26712D02*
X20344Y26872D01*
X20504D01*
X20424Y26712D01*
Y26752D02*
X20384Y26832D01*
X20464D01*
X20424Y26752D01*
X20739Y27013D02*
X20659Y27173D01*
X20819D01*
X20739Y27013D01*
Y27053D02*
X20699Y27133D01*
X20779D01*
X20739Y27053D01*
X21369Y27020D02*
X21289Y27180D01*
X21449D01*
X21369Y27020D01*
Y27060D02*
X21329Y27140D01*
X21409D01*
X21369Y27060D01*
X27668Y28820D02*
X27588Y28980D01*
X27748D01*
X27668Y28820D01*
Y28860D02*
X27628Y28940D01*
X27708D01*
X27668Y28860D01*
X26408Y28520D02*
X26328Y28680D01*
X26488D01*
X26408Y28520D01*
Y28560D02*
X26368Y28640D01*
X26448D01*
X26408Y28560D01*
X25800Y28220D02*
X25720Y28380D01*
X25880D01*
X25800Y28220D01*
Y28260D02*
X25760Y28340D01*
X25840D01*
X25800Y28260D01*
X24500Y27920D02*
X24420Y28080D01*
X24580D01*
X24500Y27920D01*
Y27960D02*
X24460Y28040D01*
X24540D01*
X24500Y27960D01*
X23900Y27620D02*
X23820Y27780D01*
X23980D01*
X23900Y27620D01*
Y27660D02*
X23860Y27740D01*
X23940D01*
X23900Y27660D01*
X23600Y27320D02*
X23520Y27480D01*
X23680D01*
X23600Y27320D01*
Y27360D02*
X23560Y27440D01*
X23640D01*
X23600Y27360D01*
X22300Y27020D02*
X22220Y27180D01*
X22380D01*
X22300Y27020D01*
Y27060D02*
X22260Y27140D01*
X22340D01*
X22300Y27060D01*
X21700Y26720D02*
X21620Y26880D01*
X21780D01*
X21700Y26720D01*
Y26760D02*
X21660Y26840D01*
X21740D01*
X21700Y26760D01*
X48800Y55315D02*
X48720Y55475D01*
X48880D01*
X48800Y55315D01*
Y55355D02*
X48760Y55435D01*
X48840D01*
X48800Y55355D01*
Y55841D02*
X48720Y56001D01*
X48880D01*
X48800Y55841D01*
Y55881D02*
X48760Y55961D01*
X48840D01*
X48800Y55881D01*
Y56353D02*
X48720Y56513D01*
X48880D01*
X48800Y56353D01*
Y56393D02*
X48760Y56473D01*
X48840D01*
X48800Y56393D01*
Y57377D02*
X48720Y57537D01*
X48880D01*
X48800Y57377D01*
Y57417D02*
X48760Y57497D01*
X48840D01*
X48800Y57417D01*
Y48315D02*
X48720Y48475D01*
X48880D01*
X48800Y48315D01*
Y48355D02*
X48760Y48435D01*
X48840D01*
X48800Y48355D01*
Y48841D02*
X48720Y49001D01*
X48880D01*
X48800Y48841D01*
Y48881D02*
X48760Y48961D01*
X48840D01*
X48800Y48881D01*
Y49353D02*
X48720Y49513D01*
X48880D01*
X48800Y49353D01*
Y49393D02*
X48760Y49473D01*
X48840D01*
X48800Y49393D01*
Y50377D02*
X48720Y50537D01*
X48880D01*
X48800Y50377D01*
Y50417D02*
X48760Y50497D01*
X48840D01*
X48800Y50417D01*
Y41315D02*
X48720Y41475D01*
X48880D01*
X48800Y41315D01*
Y41355D02*
X48760Y41435D01*
X48840D01*
X48800Y41355D01*
Y41841D02*
X48720Y42001D01*
X48880D01*
X48800Y41841D01*
Y41881D02*
X48760Y41961D01*
X48840D01*
X48800Y41881D01*
Y42353D02*
X48720Y42513D01*
X48880D01*
X48800Y42353D01*
Y42393D02*
X48760Y42473D01*
X48840D01*
X48800Y42393D01*
Y43377D02*
X48720Y43537D01*
X48880D01*
X48800Y43377D01*
Y43417D02*
X48760Y43497D01*
X48840D01*
X48800Y43417D01*
Y34315D02*
X48720Y34475D01*
X48880D01*
X48800Y34315D01*
Y34355D02*
X48760Y34435D01*
X48840D01*
X48800Y34355D01*
Y34841D02*
X48720Y35001D01*
X48880D01*
X48800Y34841D01*
Y34881D02*
X48760Y34961D01*
X48840D01*
X48800Y34881D01*
Y35353D02*
X48720Y35513D01*
X48880D01*
X48800Y35353D01*
Y35393D02*
X48760Y35473D01*
X48840D01*
X48800Y35393D01*
Y36377D02*
X48720Y36537D01*
X48880D01*
X48800Y36377D01*
Y36417D02*
X48760Y36497D01*
X48840D01*
X48800Y36417D01*
Y27315D02*
X48720Y27475D01*
X48880D01*
X48800Y27315D01*
Y27355D02*
X48760Y27435D01*
X48840D01*
X48800Y27355D01*
Y27841D02*
X48720Y28001D01*
X48880D01*
X48800Y27841D01*
Y27881D02*
X48760Y27961D01*
X48840D01*
X48800Y27881D01*
Y28353D02*
X48720Y28513D01*
X48880D01*
X48800Y28353D01*
Y28393D02*
X48760Y28473D01*
X48840D01*
X48800Y28393D01*
Y29377D02*
X48720Y29537D01*
X48880D01*
X48800Y29377D01*
Y29417D02*
X48760Y29497D01*
X48840D01*
X48800Y29417D01*
Y20315D02*
X48720Y20475D01*
X48880D01*
X48800Y20315D01*
Y20355D02*
X48760Y20435D01*
X48840D01*
X48800Y20355D01*
Y20841D02*
X48720Y21001D01*
X48880D01*
X48800Y20841D01*
Y20881D02*
X48760Y20961D01*
X48840D01*
X48800Y20881D01*
Y21353D02*
X48720Y21513D01*
X48880D01*
X48800Y21353D01*
Y21393D02*
X48760Y21473D01*
X48840D01*
X48800Y21393D01*
Y22377D02*
X48720Y22537D01*
X48880D01*
X48800Y22377D01*
Y22417D02*
X48760Y22497D01*
X48840D01*
X48800Y22417D01*
Y13315D02*
X48720Y13475D01*
X48880D01*
X48800Y13315D01*
Y13355D02*
X48760Y13435D01*
X48840D01*
X48800Y13355D01*
Y13841D02*
X48720Y14001D01*
X48880D01*
X48800Y13841D01*
Y13881D02*
X48760Y13961D01*
X48840D01*
X48800Y13881D01*
Y14353D02*
X48720Y14513D01*
X48880D01*
X48800Y14353D01*
Y14393D02*
X48760Y14473D01*
X48840D01*
X48800Y14393D01*
Y15377D02*
X48720Y15537D01*
X48880D01*
X48800Y15377D01*
Y15417D02*
X48760Y15497D01*
X48840D01*
X48800Y15417D01*
X52800Y57377D02*
X52720Y57537D01*
X52880D01*
X52800Y57377D01*
Y57417D02*
X52760Y57497D01*
X52840D01*
X52800Y57417D01*
Y56353D02*
X52720Y56513D01*
X52880D01*
X52800Y56353D01*
Y56393D02*
X52760Y56473D01*
X52840D01*
X52800Y56393D01*
Y55841D02*
X52720Y56001D01*
X52880D01*
X52800Y55841D01*
Y55881D02*
X52760Y55961D01*
X52840D01*
X52800Y55881D01*
Y55330D02*
X52720Y55490D01*
X52880D01*
X52800Y55330D01*
Y55370D02*
X52760Y55450D01*
X52840D01*
X52800Y55370D01*
Y50377D02*
X52720Y50537D01*
X52880D01*
X52800Y50377D01*
Y50417D02*
X52760Y50497D01*
X52840D01*
X52800Y50417D01*
Y49353D02*
X52720Y49513D01*
X52880D01*
X52800Y49353D01*
Y49393D02*
X52760Y49473D01*
X52840D01*
X52800Y49393D01*
Y48841D02*
X52720Y49001D01*
X52880D01*
X52800Y48841D01*
Y48881D02*
X52760Y48961D01*
X52840D01*
X52800Y48881D01*
Y48330D02*
X52720Y48490D01*
X52880D01*
X52800Y48330D01*
Y48370D02*
X52760Y48450D01*
X52840D01*
X52800Y48370D01*
Y43377D02*
X52720Y43537D01*
X52880D01*
X52800Y43377D01*
Y43417D02*
X52760Y43497D01*
X52840D01*
X52800Y43417D01*
Y42353D02*
X52720Y42513D01*
X52880D01*
X52800Y42353D01*
Y42393D02*
X52760Y42473D01*
X52840D01*
X52800Y42393D01*
Y41841D02*
X52720Y42001D01*
X52880D01*
X52800Y41841D01*
Y41881D02*
X52760Y41961D01*
X52840D01*
X52800Y41881D01*
Y41330D02*
X52720Y41490D01*
X52880D01*
X52800Y41330D01*
Y41370D02*
X52760Y41450D01*
X52840D01*
X52800Y41370D01*
Y36377D02*
X52720Y36537D01*
X52880D01*
X52800Y36377D01*
Y36417D02*
X52760Y36497D01*
X52840D01*
X52800Y36417D01*
Y35353D02*
X52720Y35513D01*
X52880D01*
X52800Y35353D01*
Y35393D02*
X52760Y35473D01*
X52840D01*
X52800Y35393D01*
Y34841D02*
X52720Y35001D01*
X52880D01*
X52800Y34841D01*
Y34881D02*
X52760Y34961D01*
X52840D01*
X52800Y34881D01*
Y34330D02*
X52720Y34490D01*
X52880D01*
X52800Y34330D01*
Y34370D02*
X52760Y34450D01*
X52840D01*
X52800Y34370D01*
Y29377D02*
X52720Y29537D01*
X52880D01*
X52800Y29377D01*
Y29417D02*
X52760Y29497D01*
X52840D01*
X52800Y29417D01*
Y28353D02*
X52720Y28513D01*
X52880D01*
X52800Y28353D01*
Y28393D02*
X52760Y28473D01*
X52840D01*
X52800Y28393D01*
Y27841D02*
X52720Y28001D01*
X52880D01*
X52800Y27841D01*
Y27881D02*
X52760Y27961D01*
X52840D01*
X52800Y27881D01*
Y27330D02*
X52720Y27490D01*
X52880D01*
X52800Y27330D01*
Y27370D02*
X52760Y27450D01*
X52840D01*
X52800Y27370D01*
Y22377D02*
X52720Y22537D01*
X52880D01*
X52800Y22377D01*
Y22417D02*
X52760Y22497D01*
X52840D01*
X52800Y22417D01*
Y21353D02*
X52720Y21513D01*
X52880D01*
X52800Y21353D01*
Y21393D02*
X52760Y21473D01*
X52840D01*
X52800Y21393D01*
Y20841D02*
X52720Y21001D01*
X52880D01*
X52800Y20841D01*
Y20881D02*
X52760Y20961D01*
X52840D01*
X52800Y20881D01*
Y20330D02*
X52720Y20490D01*
X52880D01*
X52800Y20330D01*
Y20370D02*
X52760Y20450D01*
X52840D01*
X52800Y20370D01*
Y15377D02*
X52720Y15537D01*
X52880D01*
X52800Y15377D01*
Y15417D02*
X52760Y15497D01*
X52840D01*
X52800Y15417D01*
Y14353D02*
X52720Y14513D01*
X52880D01*
X52800Y14353D01*
Y14393D02*
X52760Y14473D01*
X52840D01*
X52800Y14393D01*
Y13841D02*
X52720Y14001D01*
X52880D01*
X52800Y13841D01*
Y13881D02*
X52760Y13961D01*
X52840D01*
X52800Y13881D01*
Y13330D02*
X52720Y13490D01*
X52880D01*
X52800Y13330D01*
Y13370D02*
X52760Y13450D01*
X52840D01*
X52800Y13370D01*
X48800Y8377D02*
X48720Y8537D01*
X48880D01*
X48800Y8377D01*
Y8417D02*
X48760Y8497D01*
X48840D01*
X48800Y8417D01*
Y7353D02*
X48720Y7513D01*
X48880D01*
X48800Y7353D01*
Y7393D02*
X48760Y7473D01*
X48840D01*
X48800Y7393D01*
Y6841D02*
X48720Y7001D01*
X48880D01*
X48800Y6841D01*
Y6881D02*
X48760Y6961D01*
X48840D01*
X48800Y6881D01*
Y6315D02*
X48720Y6475D01*
X48880D01*
X48800Y6315D01*
Y6355D02*
X48760Y6435D01*
X48840D01*
X48800Y6355D01*
X52800Y6330D02*
X52720Y6490D01*
X52880D01*
X52800Y6330D01*
Y6370D02*
X52760Y6450D01*
X52840D01*
X52800Y6370D01*
Y6841D02*
X52720Y7001D01*
X52880D01*
X52800Y6841D01*
Y6881D02*
X52760Y6961D01*
X52840D01*
X52800Y6881D01*
Y7353D02*
X52720Y7513D01*
X52880D01*
X52800Y7353D01*
Y7393D02*
X52760Y7473D01*
X52840D01*
X52800Y7393D01*
Y8377D02*
X52720Y8537D01*
X52880D01*
X52800Y8377D01*
Y8417D02*
X52760Y8497D01*
X52840D01*
X52800Y8417D01*
D79*
X57117Y6474D02*
G03*
X57117Y6474I-80J0D01*
G01*
Y9726D02*
G03*
X57117Y9726I-80J0D01*
G01*
Y13474D02*
G03*
X57117Y13474I-80J0D01*
G01*
X58845Y6332D02*
G03*
X58845Y6332I-80J0D01*
G01*
Y9868D02*
G03*
X58845Y9868I-80J0D01*
G01*
Y13332D02*
G03*
X58845Y13332I-80J0D01*
G01*
X57117Y20474D02*
G03*
X57117Y20474I-80J0D01*
G01*
Y23726D02*
G03*
X57117Y23726I-80J0D01*
G01*
Y27474D02*
G03*
X57117Y27474I-80J0D01*
G01*
Y16726D02*
G03*
X57117Y16726I-80J0D01*
G01*
X58845Y16868D02*
G03*
X58845Y16868I-80J0D01*
G01*
Y23868D02*
G03*
X58845Y23868I-80J0D01*
G01*
Y20332D02*
G03*
X58845Y20332I-80J0D01*
G01*
Y27332D02*
G03*
X58845Y27332I-80J0D01*
G01*
X57117Y34474D02*
G03*
X57117Y34474I-80J0D01*
G01*
Y37726D02*
G03*
X57117Y37726I-80J0D01*
G01*
Y41474D02*
G03*
X57117Y41474I-80J0D01*
G01*
Y30726D02*
G03*
X57117Y30726I-80J0D01*
G01*
X58845Y30868D02*
G03*
X58845Y30868I-80J0D01*
G01*
Y37868D02*
G03*
X58845Y37868I-80J0D01*
G01*
Y34332D02*
G03*
X58845Y34332I-80J0D01*
G01*
Y41332D02*
G03*
X58845Y41332I-80J0D01*
G01*
X57117Y44726D02*
G03*
X57117Y44726I-80J0D01*
G01*
Y51726D02*
G03*
X57117Y51726I-80J0D01*
G01*
Y48474D02*
G03*
X57117Y48474I-80J0D01*
G01*
Y55474D02*
G03*
X57117Y55474I-80J0D01*
G01*
Y58726D02*
G03*
X57117Y58726I-80J0D01*
G01*
X58845Y44868D02*
G03*
X58845Y44868I-80J0D01*
G01*
Y48332D02*
G03*
X58845Y48332I-80J0D01*
G01*
Y51868D02*
G03*
X58845Y51868I-80J0D01*
G01*
Y58868D02*
G03*
X58845Y58868I-80J0D01*
G01*
Y55332D02*
G03*
X58845Y55332I-80J0D01*
G01*
X17495Y60027D02*
G03*
X17495Y60027I-80J0D01*
G01*
X48880Y11600D02*
G03*
X48880Y11600I-80J0D01*
G01*
X50480Y11500D02*
G03*
X50480Y11500I-80J0D01*
G01*
X48880Y18600D02*
G03*
X48880Y18600I-80J0D01*
G01*
Y25600D02*
G03*
X48880Y25600I-80J0D01*
G01*
X50480Y18500D02*
G03*
X50480Y18500I-80J0D01*
G01*
Y25500D02*
G03*
X50480Y25500I-80J0D01*
G01*
X15465Y37500D02*
G03*
X15465Y37500I-80J0D01*
G01*
X17354Y38000D02*
G03*
X17354Y38000I-80J0D01*
G01*
X27748D02*
G03*
X27748Y38000I-80J0D01*
G01*
X23969Y42400D02*
G03*
X23969Y42400I-80J0D01*
G01*
X16422Y52725D02*
G03*
X16422Y52725I-80J0D01*
G01*
X9747Y53600D02*
G03*
X9747Y53600I-80J0D01*
G01*
Y55100D02*
G03*
X9747Y55100I-80J0D01*
G01*
X9947Y56700D02*
G03*
X9947Y56700I-80J0D01*
G01*
X20968Y52716D02*
G03*
X20968Y52716I-80J0D01*
G01*
X48880Y32600D02*
G03*
X48880Y32600I-80J0D01*
G01*
Y39600D02*
G03*
X48880Y39600I-80J0D01*
G01*
X50480Y46500D02*
G03*
X50480Y46500I-80J0D01*
G01*
Y32500D02*
G03*
X50480Y32500I-80J0D01*
G01*
Y39500D02*
G03*
X50480Y39500I-80J0D01*
G01*
X33380Y54976D02*
G03*
X33380Y54976I-80J0D01*
G01*
X48880Y53600D02*
G03*
X48880Y53600I-80J0D01*
G01*
X33380Y55976D02*
G03*
X33380Y55976I-80J0D01*
G01*
Y57976D02*
G03*
X33380Y57976I-80J0D01*
G01*
Y56976D02*
G03*
X33380Y56976I-80J0D01*
G01*
X48880Y60600D02*
G03*
X48880Y60600I-80J0D01*
G01*
X50480Y53500D02*
G03*
X50480Y53500I-80J0D01*
G01*
Y60500D02*
G03*
X50480Y60500I-80J0D01*
G01*
X52473Y6665D02*
G03*
X52473Y6665I-80J0D01*
G01*
X52480Y8706D02*
G03*
X52480Y8706I-80J0D01*
G01*
Y7689D02*
G03*
X52480Y7689I-80J0D01*
G01*
X52473Y13665D02*
G03*
X52473Y13665I-80J0D01*
G01*
X52480Y14689D02*
G03*
X52480Y14689I-80J0D01*
G01*
X55312Y5100D02*
G03*
X55312Y5100I-80J0D01*
G01*
Y12100D02*
G03*
X55312Y12100I-80J0D01*
G01*
X52473Y20665D02*
G03*
X52473Y20665I-80J0D01*
G01*
X52480Y22706D02*
G03*
X52480Y22706I-80J0D01*
G01*
Y21689D02*
G03*
X52480Y21689I-80J0D01*
G01*
X52473Y27665D02*
G03*
X52473Y27665I-80J0D01*
G01*
X52480Y29706D02*
G03*
X52480Y29706I-80J0D01*
G01*
Y28689D02*
G03*
X52480Y28689I-80J0D01*
G01*
Y15706D02*
G03*
X52480Y15706I-80J0D01*
G01*
X55312Y19100D02*
G03*
X55312Y19100I-80J0D01*
G01*
Y26100D02*
G03*
X55312Y26100I-80J0D01*
G01*
X52473Y34665D02*
G03*
X52473Y34665I-80J0D01*
G01*
X52480Y36706D02*
G03*
X52480Y36706I-80J0D01*
G01*
Y35689D02*
G03*
X52480Y35689I-80J0D01*
G01*
X52473Y41665D02*
G03*
X52473Y41665I-80J0D01*
G01*
X52480Y43706D02*
G03*
X52480Y43706I-80J0D01*
G01*
Y42689D02*
G03*
X52480Y42689I-80J0D01*
G01*
X55312Y33100D02*
G03*
X55312Y33100I-80J0D01*
G01*
Y40100D02*
G03*
X55312Y40100I-80J0D01*
G01*
X52473Y48665D02*
G03*
X52473Y48665I-80J0D01*
G01*
Y55665D02*
G03*
X52473Y55665I-80J0D01*
G01*
X52480Y50706D02*
G03*
X52480Y50706I-80J0D01*
G01*
Y57706D02*
G03*
X52480Y57706I-80J0D01*
G01*
Y56689D02*
G03*
X52480Y56689I-80J0D01*
G01*
X55312Y47100D02*
G03*
X55312Y47100I-80J0D01*
G01*
X52480Y49689D02*
G03*
X52480Y49689I-80J0D01*
G01*
X55279Y54100D02*
G03*
X55279Y54100I-80J0D01*
G01*
X48880Y46600D02*
G03*
X48880Y46600I-80J0D01*
G01*
Y44412D02*
G03*
X48880Y44412I-80J0D01*
G01*
X56680Y25400D02*
G03*
X56680Y25400I-80J0D01*
G01*
X27580Y60682D02*
G03*
X27580Y60682I-80J0D01*
G01*
X31580Y60707D02*
G03*
X31580Y60707I-80J0D01*
G01*
X27680Y52380D02*
G03*
X27680Y52380I-80J0D01*
G01*
X31280Y52370D02*
G03*
X31280Y52370I-80J0D01*
G01*
X21764Y16830D02*
G03*
X21764Y16830I-80J0D01*
G01*
Y24400D02*
G03*
X21764Y24400I-80J0D01*
G01*
X15780Y37900D02*
G03*
X15780Y37900I-80J0D01*
G01*
X56680Y53400D02*
G03*
X56680Y53400I-80J0D01*
G01*
X57953D02*
G03*
X57953Y53400I-80J0D01*
G01*
X48880Y58400D02*
G03*
X48880Y58400I-80J0D01*
G01*
X51380Y59200D02*
G03*
X51380Y59200I-80J0D01*
G01*
X56680Y46400D02*
G03*
X56680Y46400I-80J0D01*
G01*
X57953D02*
G03*
X57953Y46400I-80J0D01*
G01*
X48880Y51400D02*
G03*
X48880Y51400I-80J0D01*
G01*
X51380Y52200D02*
G03*
X51380Y52200I-80J0D01*
G01*
X56680Y39400D02*
G03*
X56680Y39400I-80J0D01*
G01*
X57953D02*
G03*
X57953Y39400I-80J0D01*
G01*
X51380Y45200D02*
G03*
X51380Y45200I-80J0D01*
G01*
X56680Y32400D02*
G03*
X56680Y32400I-80J0D01*
G01*
X57953D02*
G03*
X57953Y32400I-80J0D01*
G01*
X48880Y37400D02*
G03*
X48880Y37400I-80J0D01*
G01*
X51380Y38200D02*
G03*
X51380Y38200I-80J0D01*
G01*
X57953Y25400D02*
G03*
X57953Y25400I-80J0D01*
G01*
X48880Y30400D02*
G03*
X48880Y30400I-80J0D01*
G01*
X51380Y31200D02*
G03*
X51380Y31200I-80J0D01*
G01*
X56680Y18400D02*
G03*
X56680Y18400I-80J0D01*
G01*
X57953D02*
G03*
X57953Y18400I-80J0D01*
G01*
X48880Y23400D02*
G03*
X48880Y23400I-80J0D01*
G01*
X51380Y24200D02*
G03*
X51380Y24200I-80J0D01*
G01*
X56680Y11400D02*
G03*
X56680Y11400I-80J0D01*
G01*
X57953D02*
G03*
X57953Y11400I-80J0D01*
G01*
X48880Y16400D02*
G03*
X48880Y16400I-80J0D01*
G01*
X51380Y17200D02*
G03*
X51380Y17200I-80J0D01*
G01*
Y10200D02*
G03*
X51380Y10200I-80J0D01*
G01*
X48880Y9400D02*
G03*
X48880Y9400I-80J0D01*
G01*
X57953Y4400D02*
G03*
X57953Y4400I-80J0D01*
G01*
X56680D02*
G03*
X56680Y4400I-80J0D01*
G01*
X52467Y56177D02*
G03*
X52467Y56177I-80J0D01*
G01*
X52480Y57185D02*
G03*
X52480Y57185I-80J0D01*
G01*
X52467Y49177D02*
G03*
X52467Y49177I-80J0D01*
G01*
X52480Y50185D02*
G03*
X52480Y50185I-80J0D01*
G01*
X52467Y42177D02*
G03*
X52467Y42177I-80J0D01*
G01*
X52480Y43185D02*
G03*
X52480Y43185I-80J0D01*
G01*
X52467Y35177D02*
G03*
X52467Y35177I-80J0D01*
G01*
X52480Y36185D02*
G03*
X52480Y36185I-80J0D01*
G01*
X52467Y28177D02*
G03*
X52467Y28177I-80J0D01*
G01*
X52480Y29185D02*
G03*
X52480Y29185I-80J0D01*
G01*
X52467Y21177D02*
G03*
X52467Y21177I-80J0D01*
G01*
X52480Y22185D02*
G03*
X52480Y22185I-80J0D01*
G01*
X52467Y14177D02*
G03*
X52467Y14177I-80J0D01*
G01*
X52480Y15185D02*
G03*
X52480Y15185I-80J0D01*
G01*
Y8185D02*
G03*
X52480Y8185I-80J0D01*
G01*
X17039Y42900D02*
G03*
X17039Y42900I-80J0D01*
G01*
X17354Y42531D02*
G03*
X17354Y42531I-80J0D01*
G01*
X16724D02*
G03*
X16724Y42531I-80J0D01*
G01*
X52467Y7177D02*
G03*
X52467Y7177I-80J0D01*
G01*
X20504Y38000D02*
G03*
X20504Y38000I-80J0D01*
G01*
X21134D02*
G03*
X21134Y38000I-80J0D01*
G01*
X21449Y38400D02*
G03*
X21449Y38400I-80J0D01*
G01*
X20189D02*
G03*
X20189Y38400I-80J0D01*
G01*
X17669D02*
G03*
X17669Y38400I-80J0D01*
G01*
X17984Y38000D02*
G03*
X17984Y38000I-80J0D01*
G01*
X18929Y38400D02*
G03*
X18929Y38400I-80J0D01*
G01*
X18614Y38000D02*
G03*
X18614Y38000I-80J0D01*
G01*
X18299Y38400D02*
G03*
X18299Y38400I-80J0D01*
G01*
X19244Y38000D02*
G03*
X19244Y38000I-80J0D01*
G01*
X16410Y38400D02*
G03*
X16410Y38400I-80J0D01*
G01*
X26488D02*
G03*
X26488Y38400I-80J0D01*
G01*
X22394Y38000D02*
G03*
X22394Y38000I-80J0D01*
G01*
X27118Y38400D02*
G03*
X27118Y38400I-80J0D01*
G01*
X26803Y38000D02*
G03*
X26803Y38000I-80J0D01*
G01*
X26173D02*
G03*
X26173Y38000I-80J0D01*
G01*
X25858Y38400D02*
G03*
X25858Y38400I-80J0D01*
G01*
X25543Y38000D02*
G03*
X25543Y38000I-80J0D01*
G01*
X25228Y38400D02*
G03*
X25228Y38400I-80J0D01*
G01*
X24913Y38000D02*
G03*
X24913Y38000I-80J0D01*
G01*
X24599Y38400D02*
G03*
X24599Y38400I-80J0D01*
G01*
X24284Y38000D02*
G03*
X24284Y38000I-80J0D01*
G01*
X23969Y38400D02*
G03*
X23969Y38400I-80J0D01*
G01*
X23654Y38000D02*
G03*
X23654Y38000I-80J0D01*
G01*
X23339Y38400D02*
G03*
X23339Y38400I-80J0D01*
G01*
X23024Y38000D02*
G03*
X23024Y38000I-80J0D01*
G01*
X22709Y38400D02*
G03*
X22709Y38400I-80J0D01*
G01*
X22079D02*
G03*
X22079Y38400I-80J0D01*
G01*
X21764Y38000D02*
G03*
X21764Y38000I-80J0D01*
G01*
X16724D02*
G03*
X16724Y38000I-80J0D01*
G01*
X17039Y38400D02*
G03*
X17039Y38400I-80J0D01*
G01*
X19559D02*
G03*
X19559Y38400I-80J0D01*
G01*
X19874Y38000D02*
G03*
X19874Y38000I-80J0D01*
G01*
X20819Y38400D02*
G03*
X20819Y38400I-80J0D01*
G01*
D80*
X17455Y60027D02*
G03*
X17455Y60027I-40J0D01*
G01*
X48840Y11600D02*
G03*
X48840Y11600I-40J0D01*
G01*
X50440Y11500D02*
G03*
X50440Y11500I-40J0D01*
G01*
X48840Y18600D02*
G03*
X48840Y18600I-40J0D01*
G01*
Y25600D02*
G03*
X48840Y25600I-40J0D01*
G01*
X50440Y18500D02*
G03*
X50440Y18500I-40J0D01*
G01*
Y25500D02*
G03*
X50440Y25500I-40J0D01*
G01*
X15425Y37500D02*
G03*
X15425Y37500I-40J0D01*
G01*
X17314Y38000D02*
G03*
X17314Y38000I-40J0D01*
G01*
X27708D02*
G03*
X27708Y38000I-40J0D01*
G01*
X23929Y42400D02*
G03*
X23929Y42400I-40J0D01*
G01*
X16382Y52725D02*
G03*
X16382Y52725I-40J0D01*
G01*
X9707Y53600D02*
G03*
X9707Y53600I-40J0D01*
G01*
Y55100D02*
G03*
X9707Y55100I-40J0D01*
G01*
X9907Y56700D02*
G03*
X9907Y56700I-40J0D01*
G01*
X20928Y52716D02*
G03*
X20928Y52716I-40J0D01*
G01*
X48840Y32600D02*
G03*
X48840Y32600I-40J0D01*
G01*
Y39600D02*
G03*
X48840Y39600I-40J0D01*
G01*
X50440Y46500D02*
G03*
X50440Y46500I-40J0D01*
G01*
Y32500D02*
G03*
X50440Y32500I-40J0D01*
G01*
Y39500D02*
G03*
X50440Y39500I-40J0D01*
G01*
X33340Y54976D02*
G03*
X33340Y54976I-40J0D01*
G01*
X48840Y53600D02*
G03*
X48840Y53600I-40J0D01*
G01*
X33340Y55976D02*
G03*
X33340Y55976I-40J0D01*
G01*
Y57976D02*
G03*
X33340Y57976I-40J0D01*
G01*
Y56976D02*
G03*
X33340Y56976I-40J0D01*
G01*
X48840Y60600D02*
G03*
X48840Y60600I-40J0D01*
G01*
X50440Y53500D02*
G03*
X50440Y53500I-40J0D01*
G01*
Y60500D02*
G03*
X50440Y60500I-40J0D01*
G01*
X52433Y6665D02*
G03*
X52433Y6665I-40J0D01*
G01*
X52440Y8706D02*
G03*
X52440Y8706I-40J0D01*
G01*
Y7689D02*
G03*
X52440Y7689I-40J0D01*
G01*
X52433Y13665D02*
G03*
X52433Y13665I-40J0D01*
G01*
X52440Y14689D02*
G03*
X52440Y14689I-40J0D01*
G01*
X55272Y5100D02*
G03*
X55272Y5100I-40J0D01*
G01*
Y12100D02*
G03*
X55272Y12100I-40J0D01*
G01*
X52433Y20665D02*
G03*
X52433Y20665I-40J0D01*
G01*
X52440Y22706D02*
G03*
X52440Y22706I-40J0D01*
G01*
Y21689D02*
G03*
X52440Y21689I-40J0D01*
G01*
X52433Y27665D02*
G03*
X52433Y27665I-40J0D01*
G01*
X52440Y29706D02*
G03*
X52440Y29706I-40J0D01*
G01*
Y28689D02*
G03*
X52440Y28689I-40J0D01*
G01*
Y15706D02*
G03*
X52440Y15706I-40J0D01*
G01*
X55272Y19100D02*
G03*
X55272Y19100I-40J0D01*
G01*
Y26100D02*
G03*
X55272Y26100I-40J0D01*
G01*
X52433Y34665D02*
G03*
X52433Y34665I-40J0D01*
G01*
X52440Y36706D02*
G03*
X52440Y36706I-40J0D01*
G01*
Y35689D02*
G03*
X52440Y35689I-40J0D01*
G01*
X52433Y41665D02*
G03*
X52433Y41665I-40J0D01*
G01*
X52440Y43706D02*
G03*
X52440Y43706I-40J0D01*
G01*
Y42689D02*
G03*
X52440Y42689I-40J0D01*
G01*
X55272Y33100D02*
G03*
X55272Y33100I-40J0D01*
G01*
Y40100D02*
G03*
X55272Y40100I-40J0D01*
G01*
X52433Y48665D02*
G03*
X52433Y48665I-40J0D01*
G01*
Y55665D02*
G03*
X52433Y55665I-40J0D01*
G01*
X52440Y50706D02*
G03*
X52440Y50706I-40J0D01*
G01*
Y57706D02*
G03*
X52440Y57706I-40J0D01*
G01*
Y56689D02*
G03*
X52440Y56689I-40J0D01*
G01*
X55272Y47100D02*
G03*
X55272Y47100I-40J0D01*
G01*
X52440Y49689D02*
G03*
X52440Y49689I-40J0D01*
G01*
X55239Y54100D02*
G03*
X55239Y54100I-40J0D01*
G01*
X48840Y46600D02*
G03*
X48840Y46600I-40J0D01*
G01*
Y44412D02*
G03*
X48840Y44412I-40J0D01*
G01*
X56640Y25400D02*
G03*
X56640Y25400I-40J0D01*
G01*
X27540Y60682D02*
G03*
X27540Y60682I-40J0D01*
G01*
X31540Y60707D02*
G03*
X31540Y60707I-40J0D01*
G01*
X27640Y52380D02*
G03*
X27640Y52380I-40J0D01*
G01*
X31240Y52370D02*
G03*
X31240Y52370I-40J0D01*
G01*
X21724Y16830D02*
G03*
X21724Y16830I-40J0D01*
G01*
Y24400D02*
G03*
X21724Y24400I-40J0D01*
G01*
X15740Y37900D02*
G03*
X15740Y37900I-40J0D01*
G01*
X56640Y53400D02*
G03*
X56640Y53400I-40J0D01*
G01*
X57913D02*
G03*
X57913Y53400I-40J0D01*
G01*
X48840Y58400D02*
G03*
X48840Y58400I-40J0D01*
G01*
X51340Y59200D02*
G03*
X51340Y59200I-40J0D01*
G01*
X56640Y46400D02*
G03*
X56640Y46400I-40J0D01*
G01*
X57913D02*
G03*
X57913Y46400I-40J0D01*
G01*
X48840Y51400D02*
G03*
X48840Y51400I-40J0D01*
G01*
X51340Y52200D02*
G03*
X51340Y52200I-40J0D01*
G01*
X56640Y39400D02*
G03*
X56640Y39400I-40J0D01*
G01*
X57913D02*
G03*
X57913Y39400I-40J0D01*
G01*
X51340Y45200D02*
G03*
X51340Y45200I-40J0D01*
G01*
X56640Y32400D02*
G03*
X56640Y32400I-40J0D01*
G01*
X57913D02*
G03*
X57913Y32400I-40J0D01*
G01*
X48840Y37400D02*
G03*
X48840Y37400I-40J0D01*
G01*
X51340Y38200D02*
G03*
X51340Y38200I-40J0D01*
G01*
X57913Y25400D02*
G03*
X57913Y25400I-40J0D01*
G01*
X48840Y30400D02*
G03*
X48840Y30400I-40J0D01*
G01*
X51340Y31200D02*
G03*
X51340Y31200I-40J0D01*
G01*
X56640Y18400D02*
G03*
X56640Y18400I-40J0D01*
G01*
X57913D02*
G03*
X57913Y18400I-40J0D01*
G01*
X48840Y23400D02*
G03*
X48840Y23400I-40J0D01*
G01*
X51340Y24200D02*
G03*
X51340Y24200I-40J0D01*
G01*
X56640Y11400D02*
G03*
X56640Y11400I-40J0D01*
G01*
X57913D02*
G03*
X57913Y11400I-40J0D01*
G01*
X48840Y16400D02*
G03*
X48840Y16400I-40J0D01*
G01*
X51340Y17200D02*
G03*
X51340Y17200I-40J0D01*
G01*
Y10200D02*
G03*
X51340Y10200I-40J0D01*
G01*
X48840Y9400D02*
G03*
X48840Y9400I-40J0D01*
G01*
X57913Y4400D02*
G03*
X57913Y4400I-40J0D01*
G01*
X56640D02*
G03*
X56640Y4400I-40J0D01*
G01*
X52427Y56177D02*
G03*
X52427Y56177I-40J0D01*
G01*
X52440Y57185D02*
G03*
X52440Y57185I-40J0D01*
G01*
X52427Y49177D02*
G03*
X52427Y49177I-40J0D01*
G01*
X52440Y50185D02*
G03*
X52440Y50185I-40J0D01*
G01*
X52427Y42177D02*
G03*
X52427Y42177I-40J0D01*
G01*
X52440Y43185D02*
G03*
X52440Y43185I-40J0D01*
G01*
X52427Y35177D02*
G03*
X52427Y35177I-40J0D01*
G01*
X52440Y36185D02*
G03*
X52440Y36185I-40J0D01*
G01*
X52427Y28177D02*
G03*
X52427Y28177I-40J0D01*
G01*
X52440Y29185D02*
G03*
X52440Y29185I-40J0D01*
G01*
X52427Y21177D02*
G03*
X52427Y21177I-40J0D01*
G01*
X52440Y22185D02*
G03*
X52440Y22185I-40J0D01*
G01*
X52427Y14177D02*
G03*
X52427Y14177I-40J0D01*
G01*
X52440Y15185D02*
G03*
X52440Y15185I-40J0D01*
G01*
Y8185D02*
G03*
X52440Y8185I-40J0D01*
G01*
X16999Y42900D02*
G03*
X16999Y42900I-40J0D01*
G01*
X17314Y42531D02*
G03*
X17314Y42531I-40J0D01*
G01*
X16684D02*
G03*
X16684Y42531I-40J0D01*
G01*
X52427Y7177D02*
G03*
X52427Y7177I-40J0D01*
G01*
X20464Y38000D02*
G03*
X20464Y38000I-40J0D01*
G01*
X21094D02*
G03*
X21094Y38000I-40J0D01*
G01*
X21409Y38400D02*
G03*
X21409Y38400I-40J0D01*
G01*
X20149D02*
G03*
X20149Y38400I-40J0D01*
G01*
X17629D02*
G03*
X17629Y38400I-40J0D01*
G01*
X17944Y38000D02*
G03*
X17944Y38000I-40J0D01*
G01*
X18889Y38400D02*
G03*
X18889Y38400I-40J0D01*
G01*
X18574Y38000D02*
G03*
X18574Y38000I-40J0D01*
G01*
X18259Y38400D02*
G03*
X18259Y38400I-40J0D01*
G01*
X19204Y38000D02*
G03*
X19204Y38000I-40J0D01*
G01*
X16370Y38400D02*
G03*
X16370Y38400I-40J0D01*
G01*
X26448D02*
G03*
X26448Y38400I-40J0D01*
G01*
X22354Y38000D02*
G03*
X22354Y38000I-40J0D01*
G01*
X27078Y38400D02*
G03*
X27078Y38400I-40J0D01*
G01*
X26763Y38000D02*
G03*
X26763Y38000I-40J0D01*
G01*
X26133D02*
G03*
X26133Y38000I-40J0D01*
G01*
X25818Y38400D02*
G03*
X25818Y38400I-40J0D01*
G01*
X25503Y38000D02*
G03*
X25503Y38000I-40J0D01*
G01*
X25188Y38400D02*
G03*
X25188Y38400I-40J0D01*
G01*
X24873Y38000D02*
G03*
X24873Y38000I-40J0D01*
G01*
X24559Y38400D02*
G03*
X24559Y38400I-40J0D01*
G01*
X24244Y38000D02*
G03*
X24244Y38000I-40J0D01*
G01*
X23929Y38400D02*
G03*
X23929Y38400I-40J0D01*
G01*
X23614Y38000D02*
G03*
X23614Y38000I-40J0D01*
G01*
X23299Y38400D02*
G03*
X23299Y38400I-40J0D01*
G01*
X22984Y38000D02*
G03*
X22984Y38000I-40J0D01*
G01*
X22669Y38400D02*
G03*
X22669Y38400I-40J0D01*
G01*
X22039D02*
G03*
X22039Y38400I-40J0D01*
G01*
X21724Y38000D02*
G03*
X21724Y38000I-40J0D01*
G01*
X16684D02*
G03*
X16684Y38000I-40J0D01*
G01*
X16999Y38400D02*
G03*
X16999Y38400I-40J0D01*
G01*
X19519D02*
G03*
X19519Y38400I-40J0D01*
G01*
X19834Y38000D02*
G03*
X19834Y38000I-40J0D01*
G01*
X20779Y38400D02*
G03*
X20779Y38400I-40J0D01*
G01*
M02*
