M48
;Layer_Color=9474304
;FILE_FORMAT=2:4
INCH,LZ
;TYPE=PLATED
T01F00S00C0.0080
T02F00S00C0.0120
T05F00S00C0.0402
T06F00S00C0.0409
T07F00S00C0.0984
;TYPE=NON_PLATED
T08F00S00C0.0266
T10F00S00C0.0400
%
T01
X042926Y-027242
X043248Y-02735
X043588Y-027369
X043843Y-027594
X044178Y-027536
X044518Y-027532
X044858
X045198
X045538
X045878
X046008Y-026645
X046348
X046688
X047028
X047368
X047708
X047918Y-027532
X048258
X048598
X049805Y-027472
X049676Y-027156
X049669Y-026816
X05073Y-027165
X050917Y-027948
X050638Y-028143
X050381Y-028736
X050542Y-029035
X051959Y-028333
X051909Y-027997
X052253Y-028163
X052545Y-027989
X052885Y-027987
X053112Y-027734
X053224Y-027539
X05304Y-027253
X052702Y-027213
X052405Y-027048
X051956Y-027076
X052164Y-026808
X052634Y-02881
X052959Y-028713
X053147Y-028997
X046898Y-027532
X045668Y-026645
X045328
X044988
X044648
X044308
X042884Y-026591
X04281Y-026923
X05344Y-027645
X053772Y-027718
X054099Y-02781
X05434Y-02757
X05458Y-027329
X054691Y-027008
Y-026668
X054339Y-026898
X054097Y-027137
X053846Y-027366
X054052Y-028713
X054362Y-028574
X054602Y-028334
X054843Y-028093
X055083Y-027853
X055324Y-027612
X055417Y-027285
Y-026945
Y-026605
X053804Y-028945
X053728Y-026184
X053934Y-025914
X053612Y-025806
X0537Y-025476
Y-025296
X053402Y-024863
X053604Y-024137
X053944
X054279Y-024077
X054613Y-024137
X054913Y-023977
X055767Y-024011
X055667Y-02441
Y-02459
X055714Y-024992
X055782Y-025749
X055452Y-0261
X0547
X054691Y-026328
X0542Y-02459
Y-02441
X055252Y-022954
X055592Y-022957
X055875Y-023146
X0564Y-023721
Y-023901
X057151Y-023903
X057134Y-023563
X057677Y-024303
X057053Y-025022
X057151Y-025348
X05711Y-025685
X0564Y-025476
Y-025296
Y-024795
X054362Y-021574
X054052Y-021713
X053804Y-021945
X053795Y-020744
X054134Y-020775
X054374Y-020535
X054615Y-020295
X054691Y-019963
Y-019623
X0547Y-0191
X055452
X055417Y-019605
Y-019945
Y-020285
X055324Y-020612
X055083Y-020853
X054843Y-021093
X054602Y-021334
X054133Y-020104
X053857Y-020304
X05347Y-020645
X054373Y-019864
X053728Y-019184
X053934Y-018914
X053612Y-018806
X0537Y-018476
Y-018296
X053402Y-017863
X053604Y-017137
X053944
X054279Y-017077
X054613Y-017137
X054913Y-016977
X055767Y-017011
X055667Y-01741
Y-01759
X055714Y-017992
X055782Y-018749
X0564Y-018476
Y-018296
Y-017795
X057053Y-018022
X057151Y-018348
X05711Y-018685
X057151Y-016903
X057134Y-016563
X0564Y-016721
Y-016901
X055875Y-016146
X055592Y-015957
X055252Y-015954
X054362Y-014574
X054052Y-014713
X053804Y-014945
X053795Y-013744
X054134Y-013776
X054374Y-013535
X054615Y-013295
X054691Y-012963
Y-012623
X0547Y-0121
X055452
X055417Y-012605
Y-012945
Y-013285
X055324Y-013612
X055083Y-013853
X054843Y-014093
X054602Y-014334
X054133Y-013104
X053857Y-013304
X05347Y-013645
X054373Y-012864
X053728Y-012184
X053934Y-011914
X053612Y-011806
X0537Y-011476
Y-011296
X053402Y-010863
X055714Y-010992
X055782Y-011749
X0564Y-011476
Y-011296
Y-010795
X057053Y-011022
X057151Y-011348
X05711Y-011685
X057677Y-017303
X0542Y-01741
Y-01759
X053069Y-017794
X053056Y-018023
X052716
X052376
X052036
X051959Y-017396
X051988Y-017057
X052328
X052586Y-017315
X052827Y-017555
X053294Y-016997
X053277Y-018749
X053391Y-019145
X053078Y-019278
X05275Y-019366
X052509Y-019126
X052261Y-018893
X051924Y-018848
X051584
X051244
X050904
X050602Y-019004
X050633Y-018516
X050148Y-018681
X0496Y-019684
X049676Y-020016
X049805Y-020472
X050729Y-020165
X050818Y-02102
X050381Y-021525
X050406Y-021864
X050626Y-022511
X050439Y-022795
X050676Y-023395
X050829Y-023699
X050669Y-024
X049805Y-024078
X049676Y-024378
X049635Y-023797
X049673Y-023459
X048681Y-022984
X048341Y-022995
X048001
X047661
X047321
X046981
X046641
X046301
X045961
X045621
X045281
X044941
X044601
X044266Y-022939
X044328Y-022605
X044269Y-022271
X043971Y-022106
X04364Y-022184
X0433
X04296
X04262
X04228
X04194
X0416
X04126
X04092
X04058
X04024
X0399
X03956
X03922
X03888
X03854
X0382
X03786
X037784Y-023882
X038124
X038464
X038804
X039144
X039484
X039824
X040164
X040504
X040844
X041184
X041524
X041864
X042204
X042544
X042884
X042645Y-024649
X042305
X041965
X041625
X041285
X040945
X040605
X040265
X039925
X039585
X039245
X038905
X038565
X038225
X037885
X042884Y-024891
Y-025231
Y-025571
Y-025911
Y-026251
X043516Y-026328
Y-025988
Y-025648
Y-025308
Y-024968
X043634Y-024649
X04443
X04477
X045101Y-024724
X045433Y-024649
X045773
X046793
X047813
X048149Y-024704
X048487Y-024671
X048583Y-024018
X047919
X045244Y-023882
X044904
X044564
X044266Y-024947
Y-025287
Y-025627
Y-025967
Y-026307
X044312Y-020532
X044652
X044992
X045332
X045194Y-019645
X045534
X045874
X046214
X046554
X046894
X047234
X047574
X048052Y-020532
X048392
X047032
X046692
X044854Y-019645
X044514
X044266Y-019412
Y-019072
Y-018732
Y-018392
Y-018052
Y-017712
Y-017372
X044536Y-017167
X044777Y-017407
X044962Y-017692
X045298Y-017745
X045629Y-017667
X046649
X046989
X048009
X048679Y-017659
X049653Y-017527
X049805Y-017078
X049674Y-016668
X049676Y-016328
X050676Y-016395
X050829Y-016699
X050669Y-017
X050439Y-015795
X050626Y-015511
X050406Y-014864
X050381Y-014525
X050818Y-01402
X050729Y-013165
X049676Y-013274
X049805Y-013472
X049676Y-012934
X050148Y-011681
X050633Y-011516
X050602Y-012004
X050904Y-011848
X051244
X051584
X051924
X052261Y-011893
X052509Y-012126
X05275Y-012366
X053078Y-012278
X053391Y-012145
X053277Y-011749
X053056Y-011023
X053069Y-010794
X052716Y-011023
X052376
X052036
X052175Y-012818
X051956Y-013078
X052415Y-013058
X052718Y-013213
X053044Y-013311
X053137Y-013711
X052938Y-013987
X052598
X052289Y-014128
X051959Y-014212
X052634Y-01481
X052959Y-014713
X053147Y-014997
X052566Y-015806
X052326Y-015565
X05165Y-015586
Y-015766
X048554Y-015995
X048214
X047874
X047534
X047194
X046854
X046514
X046174
X045834
X045494
X045154
X044814
X044474
X044266Y-015726
X044344Y-015395
X044208Y-015083
X04388Y-014994
X043547Y-015064
X043207
X042867
X042527
X042187
X041847
X041507
X041167
X040827
X040487
X040147
X039807
X039467
X039127
X038787
X038462Y-014964
X038703Y-014724
X038943Y-014484
X039184Y-014243
X039424Y-014003
X039664Y-013762
X039905Y-013522
X040145Y-013282
X040386Y-013041
X040626Y-012801
X040867Y-01256
X041107Y-01232
X041347Y-012079
X041588Y-011839
X041828Y-011599
X042069Y-011358
X042309Y-011118
X042549Y-010877
X042884Y-010819
Y-011159
Y-011499
Y-011839
Y-012179
Y-012519
X042822Y-012853
X04288Y-013188
X043178Y-013353
X043509Y-013276
X043725Y-013538
X044061Y-013593
X044395Y-013532
X044735
X045075
X045415
X045755
X045789Y-012645
X046129
X046469
X046809
X047149
X047489
X047829
X048135Y-013532
X048475
X046775
X045449Y-012645
X045109
X044769
X044429
X044266Y-012347
Y-012007
Y-011667
Y-011327
Y-010987
X043516Y-010968
Y-011308
Y-011648
Y-011988
Y-012328
X043634Y-017166
X043516Y-017484
Y-017824
Y-018164
Y-018504
Y-018844
Y-019184
Y-019524
X042884Y-019375
Y-019035
Y-018695
Y-018355
Y-018015
Y-017675
Y-017335
X042589Y-017166
X042249
X041909
X041569
X041229
X040889
X040549
X040209
X039869
X039529
X039189
X038849
X038509
X038169
X037829
X037835Y-012719
X038075Y-012478
X038316Y-012238
X038556Y-011998
X038796Y-011757
X039037Y-011517
X039277Y-011276
X039518Y-011036
X039758Y-010796
X04537Y-016882
X048052Y-017018
X052175Y-019818
X051956Y-020078
X052415Y-020058
X052718Y-020213
X053044Y-020311
X053137Y-020711
X052938Y-020987
X052598
X052289Y-021128
X051959Y-021212
X052634Y-02181
X052959Y-021713
X053147Y-021997
X052566Y-022806
X052326Y-022565
X05165Y-022586
Y-022766
X051988Y-024057
X052328
X052586Y-024315
X052827Y-024555
X053069Y-024794
X053056Y-025023
X052716
X052376
X052036
X051959Y-024396
X051923Y-025848
X051583
X051243
X050903
X050601Y-026005
X050633Y-025516
X050148Y-025681
X05226Y-025893
X052508Y-026125
X052749Y-026365
X053078Y-026279
X05339Y-026145
X053277Y-025749
X053294Y-023997
X043981Y-020608
X043663Y-020486
X043368Y-020317
X043028Y-020315
X042817Y-020048
X042884Y-019715
X03752Y-022184
X03718
X03684
X0365
X036166Y-02212
X035926Y-021879
X035685Y-021639
X035445Y-021398
X035204Y-021158
X034964Y-020918
X034724Y-020677
X032299Y-020845
X031577Y-020124
X033041Y-018994
X033069Y-017166
X033409
X034769
X035109
X035449
X035789
X036129
X036469
X036809
X037149
X037489
X037354Y-0132
X037098Y-013423
X036758
X036418
X036078
X035738
X035398
X03512Y-013226
X035361Y-012985
X035601Y-012745
X035842Y-012505
X036082Y-012264
X036323Y-012024
X036563Y-011783
X036803Y-011543
X037044Y-011303
X037284Y-011062
X037525Y-010822
X037594Y-012959
X034535Y-010868
X034295Y-011109
X034054Y-011349
X033814Y-01159
X033487Y-011684
X033163Y-011584
X033403Y-011343
X033643Y-011103
X033884Y-010862
X030009Y-017166
X029648Y-017284
X028628
X023017Y-017714
X022536Y-017233
X022296Y-016992
X023739Y-018435
X024219Y-018916
X03302Y-021566
X034703Y-023249
X034943Y-02349
X035184Y-02373
X035424Y-02397
X035664Y-024211
X035905Y-024451
X036185Y-024644
X036525Y-024649
X036865
X037205
X037545
X037444Y-023882
X037104
X036764
X036424
X022056Y-016752
X021815Y-016512
X021575Y-016271
X021334Y-016031
X021094Y-01579
X020854Y-01555
X020613Y-015309
X020373Y-015069
X020132Y-014829
X019892Y-014588
X019651Y-014348
X019411Y-014107
X019171Y-013867
X01893Y-013627
X01869Y-013386
X018449Y-013146
X018209Y-012905
X017969Y-012665
X017728Y-012424
X017488Y-012184
X017356Y-01153
Y-01051
Y-01017
Y-00983
X020507Y-009715
X020821Y-010026
X021451Y-005588
Y-005248
Y-004568
Y-004228
Y-003888
Y-003548
Y-003208
X021614Y-002909
X021855Y-002669
X022095Y-002429
X022336Y-002188
X022576Y-001948
X022816Y-001707
X023057Y-001467
X023297Y-001226
X023538Y-000986
X023778Y-000746
X024018Y-000505
X024259Y-000265
X024499Y-000024
X02474Y000216
X025065Y000316
X025403Y000349
X025644Y00059
X025884Y00083
X026124Y001071
X026365Y001311
X026605Y001552
X026846Y001792
X027086Y002032
X027326Y002273
X027567Y002513
X027807Y002754
X028048Y002994
X028288Y003234
X028529Y003475
X028769Y003715
X029009Y003956
X02925Y004196
X02949Y004437
X029731Y004677
X029792Y001496
X030032Y001736
X030273Y001976
X030513Y002217
X030754Y002457
X030994Y002698
X031234Y002938
X031475Y003178
X031715Y003419
X031956Y003659
X032196Y0039
X032437Y00414
X032677Y004381
X032917Y004621
X033158Y004861
X033716Y004462
X033475Y004222
X033235Y003981
X032995Y003741
X032754Y0035
X032514Y00326
X032273Y00302
X032033Y002779
X031792Y002539
X031552Y002298
X031312Y002058
X031071Y001818
X030831Y001577
X03059Y001337
X03035Y001096
X03011Y000856
X029869Y000615
X029629Y000375
X029388Y000135
X029148Y-000106
X028907Y-000346
X028667Y-000587
X028427Y-000827
X028186Y-001067
X027946Y-001308
X027705Y-001548
X027461Y-001784
X027121
X026667Y-00163
X026355Y-001766
X026015Y-001781
X025775Y-002022
X025534Y-002262
X025294Y-002502
X025054Y-002743
X024813Y-002983
X024573Y-003224
X024332Y-003464
X024092Y-003704
X023851Y-003945
X023657Y-004224
X023658Y-007216
X023318
X022638
X023979Y-007104
X024958Y-007216
X025298
X025638Y-007215
X025978Y-007212
X026318Y-007209
X026658Y-007208
X026998Y-007211
X027338Y-007215
X027678Y-007216
X028012Y-007152
X028105Y-006311
X028443Y-006344
X028783
X029123
X029463
X029803
X030143
X030483
X030823
X031163
X031503
X031843
X032183
X032523
X032863
X033203
X033543
X033883
X034223
X034563
X034903
X035243
X035534Y-006169
X035775Y-005929
X036015Y-005688
X036256Y-005448
X036496Y-005208
X036736Y-004967
X036977Y-004727
X037217Y-004486
X037458Y-004246
X037698Y-004005
X037731Y-007016
X03749Y-007256
X03725Y-007497
X037009Y-007737
X036769Y-007977
X036528Y-008218
X036288Y-008458
X036048Y-008699
X035807Y-008939
X035567Y-00918
X035326Y-00942
X035086Y-00966
X034846Y-009901
X034605Y-010141
X034365Y-010382
X034124Y-010622
X034776Y-010628
X035016Y-010388
X035256Y-010147
X035497Y-009907
X035737Y-009666
X035978Y-009426
X036218Y-009186
X036459Y-008945
X036699Y-008705
X036939Y-008464
X03718Y-008224
X03742Y-007983
X037661Y-007743
X037765Y-010581
X034814Y-007389
X034762Y-006975
X034422
X034082
X033742
X033402
X033062
X032722
X032382
X032042
X031702
X031362
X031022
X030682
X030342
X030002
X029662
X029322
X028982
X028815Y-005816
X028475
X028135
X027888Y-006049
X029155Y-005816
X029495
X029835
X030175
X030515
X030844Y-00573
X031086Y-005491
X031326Y-00525
X031567Y-00501
X031807Y-004769
X032047Y-004529
X032288Y-004289
X032528Y-004048
X032769Y-003808
X033009Y-003567
X033249Y-003327
X03349Y-003086
X03373Y-002846
X033971Y-002606
X034211Y-002365
X034452Y-002125
X034692Y-001884
X034932Y-001644
X035173Y-001404
X035413Y-001163
X035654Y-000923
X035894Y-000682
X036134Y-000442
X036375Y-000201
X036615Y000039
X036856Y000279
X037096Y00052
X037337Y00076
X037577Y001001
X037406Y003752
X037165Y003512
X036925Y003271
X036685Y003031
X036444Y002791
X036204Y00255
X035963Y00231
X035723Y002069
X035483Y001829
X035242Y001588
X035002Y001348
X034761Y001108
X034521Y000867
X03428Y000627
X03404Y000386
X0338Y000146
X033559Y-000094
X033319Y-000335
X033078Y-000575
X032838Y-000816
X032598Y-001056
X032357Y-001296
X032117Y-001537
X031876Y-001777
X031636Y-002018
X031395Y-002258
X031155Y-002499
X030915Y-002739
X030674Y-002979
X030434Y-00322
X030193Y-00346
X029953Y-003701
X02964Y-003834
X0293
X02896
X028621Y-003813
X028281Y-003816
X027941
X027601
X027261
X029151Y-003395
X029392Y-003155
X029632Y-002914
X029872Y-002674
X030113Y-002434
X030353Y-002193
X030594Y-001953
X030834Y-001712
X031075Y-001472
X031315Y-001231
X031555Y-000991
X031796Y-000751
X032036Y-00051
X032277Y-00027
X032517Y-000029
X032757Y000211
X032998Y000451
X033238Y000692
X033479Y000932
X033719Y001173
X03396Y001413
X0342Y001654
X03444Y001894
X034681Y002134
X034921Y002375
X035162Y002615
X035402Y002856
X035642Y003096
X035883Y003336
X036123Y003577
X036364Y003817
X036604Y004058
X036844Y004298
X037085Y004539
X037325Y004779
X037646Y003993
X033956Y004703
X029552Y001255
X029311Y001015
X029071Y000774
X02883Y000534
X02859Y000293
X028349Y000053
X028109Y-000187
X027869Y-000428
X027628Y-000668
X027388Y-000909
X027147Y-001149
X026907Y-001389
X02621Y-008534
X02587
X02553
X029282Y-010484
X029622
X029962
X030302
X030642
X030982
X031322
X031662
X031929Y-010274
X03217Y-010034
X03241Y-009794
X03265Y-009553
X032891Y-009313
X033131Y-009072
X033372Y-008832
X033612Y-008592
X033853Y-008351
X034093Y-008111
X034333Y-00787
X034574Y-00763
X035055Y-007149
X038141Y-007262
X037901Y-007503
X037971Y-006775
X038211Y-006535
X038452Y-006295
X038692Y-006054
X038933Y-005814
X039173Y-005573
X039413Y-005333
X039654Y-005092
X039894Y-004852
X040135Y-004612
X040375Y-004371
X040563Y-004088
X040566Y-003748
Y-003408
Y-003068
Y-002728
Y-002388
Y-002048
Y-001708
Y-001368
Y-001028
Y-000688
Y-000348
Y-000008
Y000332
X040682Y000652
X040922Y000892
X041163Y001133
X041403Y001373
X041644Y001613
X041884Y001854
X042125Y002094
X042365Y002335
X042605Y002575
X042884Y002429
Y002769
Y002089
Y001749
Y001409
X04281Y001078
X042926Y000758
X043248Y00065
X043587Y000632
X043842Y000407
X044177Y000464
X044517Y000468
X044857
X045197
X045537
X045877
X046009Y001355
X046349
X046689
X047029
X047369
X047709
X047917Y000468
X048257
X048597
X049805Y000528
X049676Y000843
X049669Y001183
X050729Y000835
X050818Y-00002
X050381Y-000525
X050406Y-000864
X050626Y-001511
X050439Y-001795
X050676Y-002395
X050829Y-002699
X050669Y-003
X049805Y-003078
X049642Y-002785
X049672Y-002446
X049675Y-003431
X048634Y-003018
X047972
X048093Y-003676
X047074Y-003649
X046734
X045714
X045374Y-003656
X045039Y-00371
X044704Y-003649
X04446Y-003886
X044266Y-004165
Y-004505
Y-004845
Y-005185
Y-005525
X044584Y-005645
X044924
X045264
X045604
X045944
X046284
X046624
X046964
X047304
X047644
X047982Y-006532
X048322
X048662
X049805Y-006472
X049671Y-006089
X049646Y-00575
X050729Y-006165
X050818Y-00702
X050381Y-007525
X050406Y-007864
X050626Y-008511
X050439Y-008795
X050676Y-009395
X050829Y-009699
X050669Y-01
X049805Y-010078
X049669Y-009704
X049676Y-009364
X049667Y-01049
X048045Y-010649
X04802Y-010018
X047912Y-008995
X048252
X048592
X047572
X047232
X046892
X046552
X046212
X045872
X045532
X045192
X044852
X044512
X044266Y-008761
X044336Y-008428
X044135Y-008154
X043795Y-008139
X043458Y-008184
X043118
X042778
X042438Y-008193
X042162Y-008391
X041922Y-008632
X041681Y-008872
X041441Y-009113
X041201Y-009353
X04096Y-009593
X04072Y-009834
X040479Y-010074
X040239Y-010315
X039999Y-010555
X038486Y-00986
X038727Y-00962
X038967Y-009379
X039208Y-009139
X039448Y-008898
X039688Y-008658
X039929Y-008418
X040169Y-008177
X04041Y-007937
X04065Y-007696
X04089Y-007456
X041131Y-007215
X041371Y-006975
X041612Y-006735
X041852Y-006494
X042093Y-006254
X042333Y-006013
X042573Y-005773
X042807Y-005967
X042884Y-005636
X042959Y-00627
X043291Y-006342
X04362Y-006429
X04391Y-006606
X044242Y-006532
X044582
X044922
X045262
X046962
X047025Y-010649
X046685
X045665
X045327Y-010685
X044987Y-010693
X04465Y-010649
X04431
X043634
X044314Y-009882
X044654
X044994
X045334
X043516Y-005371
Y-005031
X043634Y-004712
X043516Y-002814
Y-002474
Y-002134
X043634Y-001816
X044266Y-001757
Y-002097
X04459Y-001995
X04493
X04527
X04561
X04595
X04629
X04663
X04697
X04731
X04765
X04799
X04833
X04867Y-001991
X05165Y-001766
Y-001586
X052326Y-001565
X052566Y-001806
X052633Y-00081
X052959Y-000713
X053147Y-000997
X052938Y000013
X052598
X052289Y-000128
X051959Y-000212
X051956Y000922
X052175Y001182
X052415Y000942
X052718Y000787
X053044Y000689
X053137Y000289
X053078Y001722
X05275Y001634
X052509Y001874
X052261Y002107
X051924Y002152
X051584
X051244
X050904
X050602Y001996
X050633Y002484
X050148Y002319
X049676Y003622
X049805Y003922
X049635Y004203
X049673Y004541
X050676Y004605
X050829Y004301
X050669Y004
X051988Y003943
X052328
X052586Y003685
X052827Y003445
X053069Y003206
X053056Y002977
X052716
X052376
X052036
X051959Y003604
X053294Y004003
X053277Y002251
X053391Y001855
X053294Y-002997
X053069Y-003794
X053056Y-004023
X052716
X052376
X052036
X051959Y-003396
X051988Y-003057
X052328
X052586Y-003315
X052827Y-003555
X053277Y-004749
X053391Y-005145
X053078Y-005278
X05275Y-005366
X052509Y-005126
X052261Y-004893
X051924Y-004848
X051584
X051244
X050904
X050602Y-005004
X050633Y-004516
X050148Y-004681
X052175Y-005818
X051956Y-006078
X052415Y-006058
X052718Y-006213
X053044Y-006311
X053137Y-006711
X052938Y-006987
X052598
X052289Y-007128
X051959Y-007212
X052634Y-00781
X052959Y-007713
X053147Y-007997
X052326Y-008565
X052566Y-008806
X05165Y-008766
Y-008586
X051988Y-010057
X052328
X052586Y-010315
X052827Y-010555
X053294Y-009997
X051959Y-010396
X038005Y-010341
X038246Y-0101
X038382Y-007022
X038622Y-006781
X038863Y-006541
X039103Y-006301
X039344Y-00606
X039584Y-00582
X039824Y-005579
X040065Y-005339
X040305Y-005098
X040546Y-004858
X040786Y-004618
X041026Y-004377
X041267Y-004137
X041507Y-003896
X041748Y-003656
X041984Y-003412
Y-003072
Y-002732
Y-002392
X042096Y-002071
X042336Y-00183
X042576Y-00159
X042817Y-001349
X043114Y-001184
X043454
X043791Y-00114
X044131Y-001152
X044335Y-001424
X044919Y-002927
X045256Y-002882
X045329Y001355
X045669
X044989
X044649
X044309
X044266Y001693
Y002033
Y002373
Y002713
Y003053
X044429Y003351
X044769
X045101Y003276
X045433Y003351
X045773
X046793
X047813
X048149Y003296
X048487Y003329
X048583Y003982
X04792
X045244Y004118
X044904
X044564
X043634Y003351
X043516Y003032
Y002692
Y002352
Y002012
Y001672
X046897Y000468
X038534Y000436
Y000776
Y001116
X03863Y001442
X03887Y001683
X03911Y001923
X039351Y002163
X039591Y002404
X039832Y002644
X040072Y002885
X040313Y003125
X040553Y003365
X040793Y003606
X041034Y003846
X041274Y004087
X041515Y004327
X041755Y004568
X041995Y004808
X041424Y004847
X041183Y004607
X040943Y004366
X040702Y004126
X040462Y003886
X040222Y003645
X039981Y003405
X039741Y003164
X0395Y002924
X03926Y002684
X039019Y002443
X038779Y002203
X038539Y001962
X038298Y001722
X038058Y001481
X037817Y001241
X038534Y000096
Y-000244
Y-000584
Y-000924
Y-001264
Y-001604
Y-001944
Y-002284
Y-002624
Y-002964
X038419Y-003284
X038179Y-003525
X037939Y-003765
X037887Y004233
X038127Y004473
X038368Y004714
X053604Y003863
X053944
X054279Y003923
X054613Y003863
X054913Y004023
X055767Y003989
X055667Y00359
Y00341
X055714Y003008
X055782Y002251
X055452Y0019
X055417Y001395
Y001055
Y000715
X055324Y000388
X055083Y000147
X054843Y-000093
X054602Y-000334
X054362Y-000574
X054052Y-000713
X053804Y-000945
X053795Y000256
X054134Y000225
X054374Y000465
X054615Y000705
X054691Y001037
Y001377
X0547Y0019
X053934Y002086
X053612Y002194
X0537Y002524
Y002704
X053402Y003137
X0542Y00341
Y00359
X053728Y001815
X053857Y000696
X054133Y000896
X054373Y001136
X05347Y000355
X053604Y-003137
X053944
X054279Y-003077
X054613Y-003137
X054913Y-002977
X055767Y-003011
X055667Y-00341
Y-00359
X055714Y-003992
X055782Y-004749
X055452Y-0051
X055417Y-005605
Y-005945
Y-006285
X055324Y-006612
X055083Y-006853
X054843Y-007093
X054602Y-007334
X054362Y-007574
X054052Y-007713
X053804Y-007945
X053795Y-006744
X054134Y-006775
X054374Y-006535
X054615Y-006295
X054691Y-005963
Y-005623
X0547Y-0051
X053934Y-004914
X053612Y-004806
X0537Y-004476
Y-004296
X053402Y-003863
X0542Y-00359
Y-00341
X053728Y-005185
X053857Y-006304
X054133Y-006104
X054373Y-005864
X05347Y-006645
X053604Y-010137
X053944
X054279Y-010077
X054613Y-010137
X054913Y-009977
X055767Y-010011
X055667Y-01041
Y-01059
X0564Y-009901
Y-009721
X057134Y-009563
X057151Y-009903
X057677Y-010303
X055875Y-009146
X055592Y-008957
X055252Y-008954
X0542Y-01041
Y-01059
X0564Y-004476
Y-004296
Y-003795
X057053Y-004022
X057151Y-004348
X05711Y-004685
X057151Y-002903
X057134Y-002563
X0564Y-002721
Y-002901
X055875Y-002146
X055592Y-001957
X055252Y-001954
X057677Y-003303
X05711Y002315
X057151Y002652
X057053Y002978
X0564Y003205
Y002704
Y002524
Y004099
Y004279
X057134Y004437
X057151Y004097
X057677Y003697
X055875Y004854
X055592Y005043
X055252Y005046
X054362Y006426
X054052Y006287
X053803Y006054
X053795Y007256
X054134Y007225
X054374Y007465
X054615Y007705
X054691Y008037
Y008377
X0547Y0089
X055452
X055417Y008394
Y008054
Y007714
X055324Y007387
X055083Y007147
X054843Y006907
X054602Y006666
X054133Y007896
X053857Y007696
X05347Y007355
X054373Y008136
X053728Y008816
X053934Y009086
X053612Y009194
X0537Y009524
Y009704
X053402Y010137
X053604Y010863
X053944
X054279Y010923
X054613Y010863
X054913Y011023
X055767Y010989
X055667Y01059
Y01041
X055714Y010008
X055782Y009251
X0564Y009524
Y009704
Y010205
X057054Y009978
X057151Y009652
X05711Y009315
X057151Y011097
X057133Y011437
X0564Y011279
Y011099
X055875Y011854
X055592Y012043
X055252Y012046
X054361Y013425
X054051Y013287
X053803Y013054
X053795Y014256
X054134Y014224
X054374Y014465
X054615Y014705
X054691Y015037
Y015377
X0547Y0159
X055452
X055417Y015394
Y015054
Y014714
X055323Y014387
X055083Y014146
X054842Y013906
X054602Y013666
X054133Y014896
X053857Y014696
X05347Y014355
X054373Y015136
X053728Y015816
X053934Y016086
X053612Y016194
X0537Y016524
Y016704
X053402Y017137
X053604Y017863
X053944
X054279Y017923
X054613Y017863
X054913Y018023
X055767Y017989
X055667Y01759
Y01741
X055714Y017008
X055781Y016251
X0564Y016524
Y016704
Y017205
X057054Y016977
X057151Y016651
X057109Y016314
X057151Y018099
X057133Y018439
X0564Y018279
Y018099
X055873Y018856
X05559Y019043
X05525Y019046
X05435Y020414
X054034Y020287
X053796Y020045
X0542Y01759
Y01741
X057677Y017697
Y010697
X0542Y01059
Y01041
X053069Y010206
X053056Y009977
X052716
X052376
X052036
X051959Y010604
X051988Y010943
X052328
X052586Y010685
X052827Y010445
X053294Y011003
X053277Y009251
X053391Y008855
X053078Y008722
X05275Y008634
X052509Y008874
X052261Y009107
X051924Y009152
X051584
X051244
X050904
X050602Y008996
X050633Y009484
X050148Y009319
X049653Y008232
X049673Y007892
X049805Y007528
X048645Y007468
X048305
X047965
X046945Y007468
X04698Y008355
X04732
X04766
X04664
X0463
X04596
X04562
X04528
X04494
X0446
X044266Y008416
Y008756
X044292Y009095
X044532Y009336
X044773Y009576
X045013Y009817
X045253Y010057
X045494Y010298
X04583Y010351
X04685
X04787
X048203Y010283
X048536Y010351
X048537Y010982
X047871
X047739Y012005
X048079
X048419
X047399
X047059
X046719
X046379
X046039
X045699
X045359
X045025Y011945
X04478Y011709
X044539Y011468
X044299Y011228
X044059Y010988
X043818Y010747
X043578Y010507
X043337Y010266
X043097Y010026
X042858Y009784
X042784Y009452
Y009112
X042747Y008774
X042666Y008444
X042354Y008308
X042085Y008099
X041747Y008065
X041493Y007839
X041253Y007599
X041012Y007358
X040772Y007118
X040531Y006878
X040291Y006637
X04005Y006397
X03981Y006156
X03957Y005916
X039329Y005676
X039089Y005435
X038848Y005195
X038608Y004954
X038047Y0055
X038287Y005741
X038527Y005981
X038768Y006221
X039008Y006462
X039249Y006702
X039489Y006943
X039729Y007183
X03997Y007424
X04021Y007664
X040451Y007904
X040691Y008145
X040932Y008385
X041172Y008626
X041412Y008866
X041653Y009106
X041892Y009348
X041977Y009677
Y010017
Y010357
Y010697
Y011037
X042186Y011306
X042426Y011546
X042667Y011786
X042907Y012027
X043148Y012267
X043388Y012508
X043628Y012748
X043869Y012989
X044151Y013178
X044339Y013462
X044266Y013793
Y014133
X044325Y014468
X044665
X045005
X045345
X04518Y015355
X04552
X04586
X0462
X04654
X04688
X04722
X04756
X048065Y014468
X048405
X047045
X046705
X04484Y015355
X0445
X044266Y015602
Y015942
X044434Y016237
X044674Y016478
X044915Y016718
X045155Y016959
X045395Y017199
X0457Y017351
X04672
X04706
X048079Y017332
X047986Y017982
X048649
X04863Y019005
X04829
X04795
X04761
X04727
X04693
X04659
X04625
X04591
X04557
X04523
X044925Y018854
X044685Y018614
X044444Y018373
X044204Y018133
X043964Y017893
X043723Y017652
X043483Y017412
X043242Y017171
X043002Y016931
X042796Y01666
X042784Y01632
Y01598
X04271Y015648
X042475Y015402
X042267Y015134
X041942Y015033
X041699Y014795
X041459Y014555
X041218Y014315
X040978Y014074
X040737Y013834
X040497Y013593
X040257Y013353
X040018Y013111
X039934Y012781
Y012441
Y012101
Y011761
Y011421
Y011081
Y010741
X039726Y010473
X039486Y010232
X039245Y009992
X039005Y009751
X038765Y009511
X038524Y00927
X038284Y00903
X038043Y00879
X037803Y008549
X037966Y00967
X038207Y00991
X038447Y010151
X038687Y010391
X038928Y010631
X039156Y010884
X039196Y011221
Y011561
Y011901
Y012241
Y012581
Y012921
Y013261
Y013601
Y013941
Y014281
Y014621
Y014961
Y015301
X039429Y015549
X039669Y015789
X03991Y01603
X04015Y01627
X040391Y01651
X040631Y016751
X040871Y016991
X041112Y017232
X041352Y017472
X041593Y017712
X041833Y017953
X042074Y018193
X042314Y018434
X042554Y018674
X042795Y018915
X043035Y019155
X043276Y019395
X043516Y019636
X043756Y019876
X043997Y020117
X04428Y020304
X041068Y020272
X040828Y020031
X040587Y019791
X040347Y019551
X040107Y01931
X039866Y01907
X039626Y018829
X039385Y018589
X039145Y018349
X038904Y018108
X038664Y017868
X038424Y017627
X038183Y017387
X037943Y017146
X037891Y017987
X038131Y018227
X038371Y018468
X038612Y018708
X038852Y018949
X039093Y019189
X039333Y01943
X039574Y01967
X039814Y01991
X040054Y020151
X040295Y020391
X040587Y012791
X040828Y013031
X041068Y013272
X041309Y013512
X041549Y013753
X041789Y013993
X04203Y014234
X042276Y014468
X049805Y014528
X049676Y014998
X049589Y015327
X050148Y016319
X050633Y016484
X050602Y015996
X050904Y016152
X051244
X051584
X051924
X052261Y016107
X052509Y015874
X05275Y015634
X053078Y015722
X053391Y015855
X053277Y016251
X053056Y016977
X053069Y017206
X052827Y017445
X052586Y017685
X052328Y017943
X051988
X051959Y017604
X052036Y016977
X052376
X052716
X053294Y018003
X052565Y019196
X052324Y019437
X05165Y019414
Y019234
X050439Y019205
X050626Y019489
X050406Y020136
X050381Y020475
X050676Y018605
X050829Y018301
X050669Y018
X049805Y017922
X049659Y018257
X049675Y018596
X049673Y017554
X050729Y014835
X050818Y01398
X050381Y013475
X050406Y013136
X050626Y012489
X050439Y012205
X050676Y011605
X050829Y011301
X050669Y011
X049805Y010922
X049676Y010665
X04955Y01035
X049575Y011137
X049676Y011461
X05165Y012234
Y012414
X052326Y012435
X052566Y012195
X052633Y013189
X052958Y013287
X053146Y013004
X052938Y014013
X052598
X052289Y013872
X051959Y013788
X051956Y014922
X052175Y015182
X052415Y014942
X052718Y014787
X053044Y014689
X053137Y014289
X053137Y020011
X052939Y020287
X052618Y020175
X052415Y007942
X052718Y007787
X053044Y007689
X053137Y007289
X052938Y007013
X052598
X052289Y006872
X051959Y006788
X051956Y007922
X052175Y008182
X050729Y007835
X050818Y00698
X050381Y006475
X050406Y006136
X050626Y005489
X050439Y005205
X05165Y005234
Y005414
X052326Y005435
X052566Y005195
X052633Y00619
X052959Y006287
X053147Y006003
X048681Y005016
X048341Y005005
X048001
X047661
X047321
X046981
X046641
X046301
X045961
X045621
X045281
X044941
X044601
X044266Y005061
X044329Y005396
X044268Y00573
X04397Y005894
X043981Y006125
X043642Y006101
X043639Y005816
X043299
X043302Y006101
X042962
X042963Y005763
X042717Y005529
X042476Y005289
X042236Y005048
X041664Y005088
X041904Y005328
X042145Y005569
X042385Y005809
X042626Y006049
X044275Y006296
X044325Y006632
X044266Y006967
Y007307
X044565Y007468
X044905
X045245
X045925Y007468
X037806Y00526
X037566Y005019
X037322Y008068
X037082Y007828
X036841Y007588
X036601Y007347
X03636Y007107
X03612Y006866
X03588Y006626
X035639Y006385
X035399Y006145
X035158Y005905
X034918Y005664
X034677Y005424
X034437Y005183
X034197Y004943
X033398Y005102
X033639Y005342
X033879Y005583
X034119Y005823
X03436Y006063
X0346Y006304
X034841Y006544
X035081Y006785
X035322Y007025
X035562Y007266
X035802Y007506
X036043Y007746
X036283Y007987
X036524Y008227
X036764Y008468
X037004Y008708
X037245Y008948
X037485Y009189
X037726Y009429
X037562Y008309
X036943Y011889
X037164Y012148
Y012488
Y012828
Y013168
Y013508
Y013848
Y014188
Y014528
Y014868
Y015208
Y015548
Y015888
Y016228
Y016568
Y016908
X03719Y017247
X03741Y017506
X03765Y017747
X036703Y011649
X036462Y011409
X036222Y011168
X035981Y010928
X035741Y010687
X035501Y010447
X03526Y010207
X03502Y009966
X034779Y009726
X034539Y009485
X034299Y009245
X034058Y009004
X033818Y008764
X033577Y008524
X033337Y008283
X033096Y008043
X032856Y007802
X032616Y007562
X032375Y007322
X032135Y007081
X031894Y006841
X031654Y0066
X031414Y00636
X031173Y006119
X030933Y005879
X030692Y005639
X030452Y005398
X030211Y005158
X029971Y004917
X040535Y020632
X040776Y020872
X041016Y021112
X041256Y021353
X041497Y021593
X041737Y021834
X04199Y022061
X042292Y022217
X042556Y022431
X042727Y022725
X042784Y02306
Y0234
X042829Y023737
X043059Y023988
X043299Y024228
X043539Y024469
X04378Y024709
X04402Y024949
X044261Y02519
X044501Y02543
X044742Y025671
X044982Y025911
X045309Y026005
X045649
X045989
X046329
X046669
X047009
X047349
X047689
X048029
X048369
X048518Y024983
X04785Y024982
X04789Y024351
X048223Y024279
X048555Y024351
X049567Y024363
X049676Y024685
X049805Y024922
X049545Y025114
X049676Y025428
Y025768
X050676Y025605
X050829Y025301
X050669Y025
X051988Y024943
X052328
X052586Y024685
X052827Y024445
X053069Y024206
X053056Y023977
X052716
X052376
X052036
X051959Y024604
X051924Y023152
X051584
X051244
X050904
X050602Y022996
X050633Y023484
X050148Y023319
X049651Y022236
X049673Y021897
X049805Y021528
X04865Y021468
X04831
X04797
X04695
X046976Y022355
X047316
X047656
X046636
X046296
X045956
X045616
X045276
X044936
X044596
X044266Y022436
Y022776
X04431Y023114
X04455Y023354
X044791Y023594
X045031Y023835
X045272Y024075
X045512Y024316
X04585Y024351
X04687
X04525Y021468
X04491
X04457
X044266Y021317
Y020977
X044323Y020642
X042276Y021468
X04203Y021234
X041789Y020993
X041549Y020753
X041309Y020512
X050818Y02098
X050729Y021835
X051956Y021922
X052175Y022182
X052415Y021942
X052718Y021787
X053044Y021689
X053137Y021289
X052938Y021013
X052598
X052289Y020872
X051959Y020788
X052261Y023107
X052509Y022874
X05275Y022634
X053078Y022722
X053391Y022855
X053277Y023251
X053294Y025003
X052511Y02625
X052271Y02649
X051991Y026683
X051659Y026757
X05165Y026414
Y026234
X051246Y026687
X050906Y026682
X050626Y026489
X050439Y026205
X053604Y024863
X053944
X054279Y024923
X054613Y024863
X054913Y025023
X055767Y024989
X055667Y02459
Y02441
X055714Y024008
X05576Y023251
X055452Y0229
X055417Y022379
Y022039
Y021699
X055311Y021375
X055071Y021135
X054831Y020895
X05459Y020654
X054134Y021225
X053795Y021256
X05347Y021355
X053857Y021696
X054133Y021896
X054373Y022136
X054691Y022037
Y022377
X0547Y0229
X053934Y023086
X053612Y023194
X0537Y023524
Y023704
X053402Y024137
X0542Y02441
Y02459
X053728Y022815
X054374Y021465
X054615Y021705
X0564Y023524
Y023704
Y024205
Y025099
Y025279
X057146Y025185
X057086Y02552
X057081Y024852
X057677Y024697
X057073Y023963
X057148Y023631
X057095Y023295
X055816Y025913
X055503Y026046
T02
X027809Y-028713
X031746
X0351Y-028434
X0343Y-02745
X037055Y-02645
X037645
X0374Y-02999
X0432Y-02696
X04395Y-027216
X04565Y-02775
X0463Y-028923
X04745
X056331Y-028496
X05885Y-028193
Y-021193
X056632Y-02185
Y-01485
X05885Y-014193
X053Y-016015
Y-016606
X048285Y-017334
X04745Y-018083
X0463Y-018089
Y-01875
X04565Y-016923
X045185Y-017369
X04395Y-01538
X0432Y-01568
Y-01296
X04395Y-013216
X04565Y-01375
X0463Y-014923
X04745
Y-011083
X0463Y-011089
Y-01175
X04565Y-02075
X0463Y-021923
X04745
Y-025083
X0463Y-025089
Y-02575
X04565Y-023905
X04515Y-024334
X04395Y-0225
X0432Y-0229
Y-01996
X04395Y-020216
X03962Y-020839
X048285Y-024334
X053Y-023606
Y-023015
X0341Y-02346
X0334Y-02285
X03246Y-02176
X03174Y-02072
X03105
X030357
X02963
X02892
X02819
X0275
X0268
X026189Y-020723
X02556Y-02072
X02499
X002219Y-016902
X004187Y-012965
X002219Y-024776
X004187Y-005091
X002219Y-001154
X004187Y002783
X015467Y-005488
X016097
X016727
X017357
X017987
X018617
X019247
X019877
X020507
X021137
X020822Y-005858
X020192
X019562
X018932
X018302
X017672
X017042
X016412
X015782
Y-007918
X016412
X017042
X016727Y-008288
X017357
X016097
X015467
X018617
X020507
X020822Y-007918
X021452Y-005858
X022396
X023971
X024601
X026491
X026806Y-008288
X027751
X024916
X023971
X022711
X037652Y-001154
X041589
X0432Y-0019
X04395Y-0015
Y000784
X0432Y00104
X04565Y00025
X0463Y-000923
X04745
Y-004083
X0463Y-004089
Y-00475
X04565Y-002905
X04515Y-003334
X048285
X04745Y-007923
X0463
X04565Y-00675
X04395Y-006216
X0432Y-00596
Y-0089
X04395Y-0085
X04515Y-010334
X04565Y-009905
X048285Y-010334
X053Y-009606
Y-009015
Y-002606
Y-002015
Y004394
X048285Y003666
X04745Y002917
X0463Y002911
Y00225
X04565Y004095
X04515Y003666
X056632Y-00085
X05885Y-000193
Y-007193
X056632Y-00785
Y00615
X05885Y006807
Y013807
X056632Y01315
Y02015
X053Y018985
Y018394
X048285Y017666
X04745Y016917
X0463Y016911
Y01625
X04565Y018095
X043557Y018532
X04355Y0156
X0431
X04265Y01505
Y01435
X0431Y014016
X04355Y013766
X04395Y013516
X04565Y01425
X0463Y013077
X04745
Y009917
X0463Y009911
Y00925
X04565Y011095
X048285Y010666
X04745Y006077
X0463
X04565Y00725
X04395Y006516
X04355Y006766
X0431Y007016
X04265Y00735
Y00805
X0431Y0086
X04355
X04395Y0055
X0432Y0051
X053Y004985
Y011394
Y011985
X04745Y020077
X0463
X035683Y018532
X031746
X033715Y014595
X031746Y010657
X027436Y01026
X026806
X026176
X025546
X024916
X024286
X023971Y0106
X023341Y01026
X022711
X023026Y00746
X023656
X024286
X024916
X025546
X026176
X026806
X027751Y005879
X029778Y00672
X022396Y00746
X021767
X021137
X020507
X019877
X019247
X018617
X017987
X017042
X016412
X015467
X017357Y00783
X017357Y01026
X016727
X017042Y0106
X017987Y01026
X018617
X019247
X019877
X020822
X021452
X022081
X020507Y0106
X020192Y00783
X021452
X010093Y00672
X006156
X002219
X00725Y02655
X00875
X01025
X015998Y026406
X019935
X0211Y024556
Y023
X017967Y022469
X01403
Y030343
X017967
X02365Y024556
Y023
X024Y02225
X02463
X0272Y023
Y024556
X029778Y022469
X033715
X037652
X035683Y026406
X031746
X033715Y030343
X037652
X029778
X041589
X045526
X049463
X048285Y024666
X04745Y023917
X0463Y023911
Y02325
X04565Y025095
X043557Y026406
X04355Y0226
X0431
X04265Y02205
Y02135
X0431Y021016
X04355Y020766
X04395Y020516
X04565Y02125
X03962Y026406
X053Y025985
Y025394
X0534Y030343
X05885Y020807
T05
X04035Y-02894
Y-02794
Y-02694
T06
X005Y-03
Y-029
X006
Y-03
X007
Y-029
X008
Y-03
X009
Y-029
X01
Y-03
X011
Y-029
X012
Y-03
X013
Y-029
X014
Y-03
X015
Y-029
X016
Y-03
X017
Y-029
X018
Y-03
X019
X02
X021
X022
Y-029
X021
X02
X019
X023
Y-03
X024
Y-029
Y-021
Y-02
X023
Y-021
X022
X021
X02
X019
X018
X017
X016
X015
X014
X013
X012
X011
X01
X009
X008
X007
Y-02
X008
X009
X01
X011
X012
X013
X014
X015
X016
X017
X018
X019
X02
X021
X022
X006
X005
Y-021
X006
X023Y017
Y018
X024
Y017
X022
X021
X02
X019
X018
X017
X016
X015
X014
X013
X012
X011
X01
X009
X008
Y018
X007
Y017
X009Y018
X01
X011
X012
X013
X014
X015
X016
X017
X018
X019
X02
X021
X022
X006
Y017
X005
Y018
T07
X0025Y-02995
X0573
X0033Y-008661
X030465
Y008661
X0033
X0025Y03005
X0573
T08
X056332Y-025917
Y-018917
Y-011917
Y-004917
Y002083
Y009083
Y016083
Y023083
T10
X014822Y-007075
X028396
Y008673
X014822
M30
