G04*
G04 #@! TF.GenerationSoftware,Altium Limited,Altium Designer,25.8.1 (18)*
G04*
G04 Layer_Color=32896*
%FSLAX24Y24*%
%MOIN*%
G70*
G04*
G04 #@! TF.SameCoordinates,0559D858-52EB-4A24-BF16-3A32F8B75DB2*
G04*
G04*
G04 #@! TF.FilePolarity,Positive*
G04*
G01*
G75*
%ADD11C,0.0157*%
%ADD79R,0.7700X0.4396*%
G36*
X17827Y29100D02*
X17853D01*
Y27850D01*
X17578D01*
Y27854D01*
X17575D01*
Y28321D01*
X17578D01*
Y28358D01*
X17575D01*
Y28355D01*
X17571D01*
Y28347D01*
X17567D01*
Y28340D01*
X17563D01*
Y28332D01*
X17560D01*
Y28325D01*
X17556D01*
Y28314D01*
X17552D01*
Y28303D01*
X17549D01*
Y28295D01*
X17545D01*
Y28292D01*
X17541D01*
Y28281D01*
X17537D01*
Y28273D01*
X17534D01*
Y28262D01*
X17530D01*
Y28255D01*
X17526D01*
Y28247D01*
X17523D01*
Y28240D01*
X17519D01*
Y28232D01*
X17515D01*
Y28225D01*
X17512D01*
Y28217D01*
X17508D01*
Y28210D01*
X17504D01*
Y28203D01*
X17500D01*
Y28195D01*
X17497D01*
Y28188D01*
X17493D01*
Y28180D01*
X17489D01*
Y28173D01*
X17486D01*
Y28166D01*
X17482D01*
Y28154D01*
X17478D01*
Y28147D01*
X17474D01*
Y28140D01*
X17471D01*
Y28132D01*
X17467D01*
Y28125D01*
X17463D01*
Y28117D01*
X17460D01*
Y28110D01*
X17456D01*
Y28103D01*
X17452D01*
Y28095D01*
X17448D01*
Y28088D01*
X17445D01*
Y28084D01*
X17441D01*
Y28073D01*
X17437D01*
Y28069D01*
X17434D01*
Y28062D01*
X17430D01*
Y28054D01*
X17426D01*
Y28047D01*
X17423D01*
Y28040D01*
X17419D01*
Y28032D01*
X17415D01*
Y28025D01*
X17411D01*
Y28017D01*
X17408D01*
Y28010D01*
X17404D01*
Y28002D01*
X17400D01*
Y27995D01*
X17397D01*
Y27988D01*
X17393D01*
Y27980D01*
X17389D01*
Y27973D01*
X17385D01*
Y27965D01*
X17382D01*
Y27958D01*
X17378D01*
Y27951D01*
X17374D01*
Y27943D01*
X17371D01*
Y27936D01*
X17367D01*
Y27928D01*
X17363D01*
Y27921D01*
X17359D01*
Y27913D01*
X17356D01*
Y27906D01*
X17352D01*
Y27899D01*
X17348D01*
Y27891D01*
X17345D01*
Y27884D01*
X17341D01*
Y27876D01*
X17337D01*
Y27869D01*
X17334D01*
Y27858D01*
X17330D01*
Y27850D01*
X17326D01*
Y27843D01*
X17322D01*
Y27839D01*
X17319D01*
Y27832D01*
X17315D01*
Y27821D01*
X17311D01*
Y27813D01*
X17308D01*
Y27810D01*
X17304D01*
Y27802D01*
X17300D01*
Y27795D01*
X17296D01*
Y27787D01*
X17293D01*
Y27780D01*
X17289D01*
Y27773D01*
X17285D01*
Y27765D01*
X17282D01*
Y27758D01*
X17278D01*
Y27750D01*
X17274D01*
Y27743D01*
X17271D01*
Y27735D01*
X17267D01*
Y27728D01*
X17263D01*
Y27721D01*
X17259D01*
Y27713D01*
X17256D01*
Y27706D01*
X17252D01*
Y27698D01*
X17248D01*
Y27691D01*
X17245D01*
Y27684D01*
X17241D01*
Y27676D01*
X17237D01*
Y27669D01*
X17233D01*
Y27661D01*
X17230D01*
Y27654D01*
X17226D01*
Y27646D01*
X17222D01*
Y27639D01*
X17219D01*
Y27632D01*
X17215D01*
Y27624D01*
X17211D01*
Y27617D01*
X17207D01*
Y27609D01*
X17204D01*
Y27602D01*
X17200D01*
Y27595D01*
X17196D01*
Y27587D01*
X17193D01*
Y27580D01*
X17189D01*
Y27569D01*
X17185D01*
Y27561D01*
X17182D01*
Y27546D01*
X17185D01*
Y27539D01*
X17189D01*
Y27535D01*
X17193D01*
Y27532D01*
X17196D01*
Y27524D01*
X17200D01*
Y27520D01*
X17204D01*
Y27517D01*
X17207D01*
Y27509D01*
X17211D01*
Y27502D01*
X17215D01*
Y27498D01*
X17219D01*
Y27491D01*
X17222D01*
Y27487D01*
X17226D01*
Y27480D01*
X17230D01*
Y27476D01*
X17233D01*
Y27468D01*
X17237D01*
Y27461D01*
X17241D01*
Y27454D01*
X17245D01*
Y27446D01*
X17248D01*
Y27439D01*
X17252D01*
Y27431D01*
X17256D01*
Y27424D01*
X17259D01*
Y27417D01*
X17263D01*
Y27409D01*
X17267D01*
Y27398D01*
X17271D01*
Y27391D01*
X17274D01*
Y27379D01*
X17278D01*
Y27372D01*
X17282D01*
Y27361D01*
X17285D01*
Y27350D01*
X17289D01*
Y27339D01*
X17293D01*
Y27328D01*
X17296D01*
Y27316D01*
X17300D01*
Y27302D01*
X17304D01*
Y27287D01*
X17308D01*
Y27268D01*
X17311D01*
Y27250D01*
X17315D01*
Y27227D01*
X17319D01*
Y27209D01*
X17322D01*
Y27179D01*
X17326D01*
Y27124D01*
X17330D01*
Y27009D01*
X17326D01*
Y26957D01*
X17322D01*
Y26923D01*
X17319D01*
Y26909D01*
X17315D01*
Y26886D01*
X17311D01*
Y26864D01*
X17308D01*
Y26846D01*
X17304D01*
Y26834D01*
X17300D01*
Y26820D01*
X17296D01*
Y26805D01*
X17293D01*
Y26794D01*
X17289D01*
Y26783D01*
X17285D01*
Y26771D01*
X17282D01*
Y26764D01*
X17278D01*
Y26753D01*
X17274D01*
Y26742D01*
X17271D01*
Y26734D01*
X17267D01*
Y26723D01*
X17263D01*
Y26716D01*
X17259D01*
Y26708D01*
X17256D01*
Y26697D01*
X17252D01*
Y26690D01*
X17248D01*
Y26682D01*
X17245D01*
Y26675D01*
X17241D01*
Y26668D01*
X17237D01*
Y26660D01*
X17233D01*
Y26653D01*
X17230D01*
Y26649D01*
X17226D01*
Y26642D01*
X17222D01*
Y26634D01*
X17219D01*
Y26630D01*
X17215D01*
Y26623D01*
X17211D01*
Y26616D01*
X17207D01*
Y26612D01*
X17204D01*
Y26605D01*
X17200D01*
Y26601D01*
X17196D01*
Y26593D01*
X17193D01*
Y26590D01*
X17189D01*
Y26586D01*
X17185D01*
Y26579D01*
X17182D01*
Y26575D01*
X17178D01*
Y26571D01*
X17174D01*
Y26564D01*
X17170D01*
Y26560D01*
X17167D01*
Y26556D01*
X17163D01*
Y26553D01*
X17159D01*
Y26549D01*
X17156D01*
Y26545D01*
X17152D01*
Y26538D01*
X17148D01*
Y26534D01*
X17144D01*
Y26530D01*
X17141D01*
Y26527D01*
X17137D01*
Y26523D01*
X17133D01*
Y26519D01*
X17130D01*
Y26516D01*
X17126D01*
Y26512D01*
X17122D01*
Y26508D01*
X17118D01*
Y26504D01*
X17111D01*
Y26501D01*
X17107D01*
Y26497D01*
X17104D01*
Y26493D01*
X17096D01*
Y26490D01*
X17093D01*
Y26486D01*
X17089D01*
Y26482D01*
X17085D01*
Y26478D01*
X17078D01*
Y26475D01*
X17074D01*
Y26471D01*
X17067D01*
Y26467D01*
X17063D01*
Y26464D01*
X17059D01*
Y26460D01*
X17052D01*
Y26456D01*
X17048D01*
Y26452D01*
X17041D01*
Y26449D01*
X17033D01*
Y26445D01*
X17026D01*
Y26441D01*
X17018D01*
Y26438D01*
X17011D01*
Y26434D01*
X17004D01*
Y26430D01*
X16996D01*
Y26427D01*
X16989D01*
Y26423D01*
X16978D01*
Y26419D01*
X16970D01*
Y26415D01*
X16963D01*
Y26412D01*
X16952D01*
Y26408D01*
X16940D01*
Y26404D01*
X16929D01*
Y26401D01*
X16918D01*
Y26397D01*
X16900D01*
Y26393D01*
X16885D01*
Y26389D01*
X16870D01*
Y26386D01*
X16848D01*
Y26382D01*
X16814D01*
Y26378D01*
X16666D01*
Y26382D01*
X16633D01*
Y26386D01*
X16614D01*
Y26389D01*
X16599D01*
Y26393D01*
X16581D01*
Y26397D01*
X16566D01*
Y26401D01*
X16551D01*
Y26404D01*
X16540D01*
Y26408D01*
X16529D01*
Y26412D01*
X16518D01*
Y26415D01*
X16510D01*
Y26419D01*
X16503D01*
Y26423D01*
X16492D01*
Y26427D01*
X16484D01*
Y26430D01*
X16477D01*
Y26434D01*
X16470D01*
Y26438D01*
X16462D01*
Y26441D01*
X16455D01*
Y26445D01*
X16447D01*
Y26449D01*
X16440D01*
Y26452D01*
X16436D01*
Y26456D01*
X16429D01*
Y26460D01*
X16421D01*
Y26464D01*
X16418D01*
Y26467D01*
X16410D01*
Y26471D01*
X16407D01*
Y26475D01*
X16399D01*
Y26478D01*
X16395D01*
Y26482D01*
X16392D01*
Y26486D01*
X16384D01*
Y26490D01*
X16381D01*
Y26493D01*
X16377D01*
Y26497D01*
X16373D01*
Y26501D01*
X16369D01*
Y26504D01*
X16362D01*
Y26508D01*
X16358D01*
Y26512D01*
X16355D01*
Y26516D01*
X16347D01*
Y26519D01*
X16344D01*
Y26523D01*
X16340D01*
Y26527D01*
X16336D01*
Y26530D01*
X16332D01*
Y26534D01*
X16329D01*
Y26538D01*
X16325D01*
Y26541D01*
X16321D01*
Y26545D01*
X16318D01*
Y26549D01*
X16314D01*
Y26553D01*
X16310D01*
Y26560D01*
X16306D01*
Y26564D01*
X16303D01*
Y26567D01*
X16299D01*
Y26575D01*
X16295D01*
Y26579D01*
X16292D01*
Y26582D01*
X16288D01*
Y26590D01*
X16284D01*
Y26593D01*
X16280D01*
Y26597D01*
X16277D01*
Y26605D01*
X16273D01*
Y26608D01*
X16269D01*
Y26616D01*
X16266D01*
Y26619D01*
X16262D01*
Y26627D01*
X16258D01*
Y26630D01*
X16255D01*
Y26638D01*
X16251D01*
Y26642D01*
X16247D01*
Y26649D01*
X16243D01*
Y26656D01*
X16240D01*
Y26664D01*
X16236D01*
Y26671D01*
X16232D01*
Y26679D01*
X16229D01*
Y26686D01*
X16225D01*
Y26694D01*
X16221D01*
Y26701D01*
X16217D01*
Y26708D01*
X16214D01*
Y26716D01*
X16210D01*
Y26727D01*
X16206D01*
Y26734D01*
X16203D01*
Y26745D01*
X16199D01*
Y26753D01*
X16195D01*
Y26764D01*
X16191D01*
Y26775D01*
X16188D01*
Y26786D01*
X16184D01*
Y26794D01*
X16180D01*
Y26808D01*
X16177D01*
Y26820D01*
X16173D01*
Y26834D01*
X16169D01*
Y26849D01*
X16166D01*
Y26864D01*
X16162D01*
Y26886D01*
X16158D01*
Y26909D01*
X16154D01*
Y26923D01*
X16151D01*
Y26949D01*
X16147D01*
Y27016D01*
X16143D01*
Y27116D01*
X16147D01*
Y27176D01*
X16151D01*
Y27205D01*
X16154D01*
Y27224D01*
X16158D01*
Y27242D01*
X16162D01*
Y27265D01*
X16166D01*
Y27279D01*
X16169D01*
Y27294D01*
X16173D01*
Y27309D01*
X16177D01*
Y27324D01*
X16180D01*
Y27335D01*
X16184D01*
Y27346D01*
X16188D01*
Y27357D01*
X16191D01*
Y27365D01*
X16195D01*
Y27376D01*
X16199D01*
Y27383D01*
X16203D01*
Y27394D01*
X16206D01*
Y27402D01*
X16210D01*
Y27413D01*
X16214D01*
Y27420D01*
X16217D01*
Y27428D01*
X16221D01*
Y27435D01*
X16225D01*
Y27443D01*
X16229D01*
Y27450D01*
X16232D01*
Y27457D01*
X16236D01*
Y27465D01*
X16240D01*
Y27468D01*
Y27472D01*
X16243D01*
Y27480D01*
X16247D01*
Y27483D01*
X16251D01*
Y27491D01*
X16255D01*
Y27498D01*
X16258D01*
Y27502D01*
X16262D01*
Y27509D01*
X16266D01*
Y27513D01*
X16269D01*
Y27520D01*
X16273D01*
Y27524D01*
X16277D01*
Y27532D01*
X16280D01*
Y27535D01*
X16284D01*
Y27546D01*
X16280D01*
Y27554D01*
X16277D01*
Y27561D01*
X16273D01*
Y27569D01*
X16269D01*
Y27576D01*
X16266D01*
Y27583D01*
X16262D01*
Y27591D01*
X16258D01*
Y27598D01*
X16255D01*
Y27606D01*
X16251D01*
Y27609D01*
X16247D01*
Y27621D01*
X16243D01*
Y27624D01*
X16240D01*
Y27632D01*
X16236D01*
Y27639D01*
X16232D01*
Y27646D01*
X16229D01*
Y27654D01*
X16225D01*
Y27661D01*
X16221D01*
Y27669D01*
X16217D01*
Y27672D01*
X16214D01*
Y27680D01*
X16210D01*
Y27687D01*
X16206D01*
Y27695D01*
X16203D01*
Y27702D01*
X16199D01*
Y27710D01*
X16195D01*
Y27717D01*
X16191D01*
Y27721D01*
X16188D01*
Y27728D01*
X16184D01*
Y27735D01*
X16180D01*
Y27743D01*
X16177D01*
Y27750D01*
X16173D01*
Y27758D01*
X16169D01*
Y27765D01*
X16166D01*
Y27773D01*
X16162D01*
Y27776D01*
X16158D01*
Y27784D01*
X16154D01*
Y27791D01*
X16151D01*
Y27798D01*
X16147D01*
Y27802D01*
X16143D01*
Y27810D01*
X16140D01*
Y27817D01*
X16136D01*
Y27824D01*
X16132D01*
Y27832D01*
X16128D01*
Y27839D01*
X16125D01*
Y27847D01*
X16121D01*
Y27854D01*
X16117D01*
Y27858D01*
X16114D01*
Y27865D01*
X16110D01*
Y27873D01*
X16106D01*
Y27880D01*
X16102D01*
Y27884D01*
X16099D01*
Y27891D01*
X16095D01*
Y27899D01*
X16091D01*
Y27906D01*
X16088D01*
Y27913D01*
X16084D01*
Y27921D01*
X16080D01*
Y27928D01*
X16077D01*
Y27936D01*
X16073D01*
Y27939D01*
X16069D01*
Y27947D01*
X16065D01*
Y27954D01*
X16062D01*
Y27962D01*
X16058D01*
Y27969D01*
X16054D01*
Y27973D01*
X16051D01*
Y27980D01*
X16047D01*
Y27988D01*
X16043D01*
Y27995D01*
X16039D01*
Y27999D01*
X16036D01*
Y28006D01*
X16032D01*
Y28014D01*
X16028D01*
Y28021D01*
X16025D01*
Y28028D01*
X16021D01*
Y28036D01*
X16017D01*
Y28043D01*
X16013D01*
Y28051D01*
X16010D01*
Y28054D01*
X16006D01*
Y28062D01*
X16002D01*
Y28069D01*
X15999D01*
Y28077D01*
X15995D01*
Y28084D01*
X15991D01*
Y28091D01*
X15988D01*
Y28095D01*
X15984D01*
Y28103D01*
X15980D01*
Y28110D01*
X15976D01*
Y28117D01*
X15973D01*
Y28125D01*
X15969D01*
Y28129D01*
X15965D01*
Y28136D01*
X15962D01*
Y28143D01*
X15958D01*
Y28151D01*
X15954D01*
Y28154D01*
X15950D01*
Y28162D01*
X15947D01*
Y28169D01*
X15943D01*
Y28177D01*
X15939D01*
Y28184D01*
X15936D01*
Y28192D01*
X15932D01*
Y28199D01*
X15928D01*
Y28203D01*
X15925D01*
Y28210D01*
X15921D01*
Y28217D01*
X15917D01*
Y28225D01*
X15913D01*
Y28229D01*
X15910D01*
Y28236D01*
X15906D01*
Y28243D01*
X15902D01*
Y28247D01*
X15899D01*
Y28258D01*
X15895D01*
Y28266D01*
X15891D01*
Y28273D01*
X15887D01*
Y28281D01*
X15884D01*
Y28288D01*
X15880D01*
Y28292D01*
X15876D01*
Y28299D01*
X15873D01*
Y28306D01*
X15869D01*
Y28314D01*
X15865D01*
Y28325D01*
X15861D01*
Y28332D01*
X15858D01*
Y28340D01*
X15854D01*
Y28347D01*
X15850D01*
Y28355D01*
X15847D01*
Y28366D01*
X15843D01*
Y28370D01*
X15839D01*
Y28366D01*
X15836D01*
Y28355D01*
X15839D01*
Y26404D01*
X15836D01*
Y26401D01*
X15828D01*
Y26397D01*
X15572D01*
Y26401D01*
X15565D01*
Y29100D01*
X15572D01*
Y29104D01*
X15795D01*
Y29100D01*
X15806D01*
Y29096D01*
X15810D01*
Y29093D01*
X15813D01*
Y29089D01*
X15817D01*
Y29081D01*
X15821D01*
Y29074D01*
X15824D01*
Y29067D01*
X15828D01*
Y29059D01*
X15832D01*
Y29052D01*
X15836D01*
Y29044D01*
X15839D01*
Y29037D01*
X15843D01*
Y29033D01*
X15847D01*
Y29026D01*
X15850D01*
Y29018D01*
X15854D01*
Y29015D01*
X15858D01*
Y29007D01*
X15861D01*
Y29000D01*
X15865D01*
Y28992D01*
X15869D01*
Y28985D01*
X15873D01*
Y28978D01*
X15876D01*
Y28970D01*
X15880D01*
Y28963D01*
X15884D01*
Y28955D01*
X15887D01*
Y28948D01*
X15891D01*
Y28941D01*
X15895D01*
Y28933D01*
X15899D01*
Y28929D01*
X15902D01*
Y28922D01*
X15906D01*
Y28915D01*
X15910D01*
Y28907D01*
X15913D01*
Y28903D01*
X15917D01*
Y28896D01*
X15921D01*
Y28889D01*
X15925D01*
Y28881D01*
X15928D01*
Y28874D01*
X15932D01*
Y28866D01*
X15936D01*
Y28859D01*
X15939D01*
Y28852D01*
X15943D01*
Y28848D01*
X15947D01*
Y28840D01*
X15950D01*
Y28833D01*
X15954D01*
Y28826D01*
X15958D01*
Y28818D01*
X15962D01*
Y28811D01*
X15965D01*
Y28807D01*
X15969D01*
Y28800D01*
X15973D01*
Y28792D01*
X15976D01*
Y28785D01*
X15980D01*
Y28777D01*
X15984D01*
Y28770D01*
X15988D01*
Y28763D01*
X15991D01*
Y28755D01*
X15995D01*
Y28751D01*
X15999D01*
Y28744D01*
X16002D01*
Y28737D01*
X16006D01*
Y28729D01*
X16010D01*
Y28722D01*
X16013D01*
Y28714D01*
X16017D01*
Y28707D01*
X16021D01*
Y28700D01*
X16025D01*
Y28692D01*
X16028D01*
Y28688D01*
X16032D01*
Y28681D01*
X16036D01*
Y28674D01*
X16039D01*
Y28666D01*
X16043D01*
Y28662D01*
X16047D01*
Y28655D01*
X16051D01*
Y28648D01*
X16054D01*
Y28640D01*
X16058D01*
Y28633D01*
X16062D01*
Y28625D01*
X16065D01*
Y28622D01*
X16069D01*
Y28614D01*
X16073D01*
Y28607D01*
X16077D01*
Y28599D01*
X16080D01*
Y28592D01*
X16084D01*
Y28585D01*
X16088D01*
Y28577D01*
X16091D01*
Y28570D01*
X16095D01*
Y28562D01*
X16099D01*
Y28555D01*
X16102D01*
Y28551D01*
X16106D01*
Y28544D01*
X16110D01*
Y28536D01*
X16114D01*
Y28529D01*
X16117D01*
Y28522D01*
X16121D01*
Y28514D01*
X16125D01*
Y28510D01*
X16128D01*
Y28503D01*
X16132D01*
Y28496D01*
X16136D01*
Y28488D01*
X16140D01*
Y28481D01*
X16143D01*
Y28473D01*
X16147D01*
Y28466D01*
X16151D01*
Y28462D01*
X16154D01*
Y28455D01*
X16158D01*
Y28447D01*
X16162D01*
Y28440D01*
X16166D01*
Y28433D01*
X16169D01*
Y28425D01*
X16173D01*
Y28418D01*
X16177D01*
Y28410D01*
X16180D01*
Y28407D01*
X16184D01*
Y28399D01*
X16188D01*
Y28392D01*
X16191D01*
Y28384D01*
X16195D01*
Y28377D01*
X16199D01*
Y28370D01*
X16203D01*
Y28362D01*
X16206D01*
Y28358D01*
X16210D01*
Y28351D01*
X16214D01*
Y28344D01*
X16217D01*
Y28336D01*
X16221D01*
Y28329D01*
X16225D01*
Y28321D01*
X16229D01*
Y28314D01*
X16232D01*
Y28306D01*
X16236D01*
Y28299D01*
X16240D01*
Y28292D01*
X16243D01*
Y28284D01*
X16247D01*
Y28281D01*
X16251D01*
Y28273D01*
X16255D01*
Y28266D01*
X16258D01*
Y28258D01*
X16262D01*
Y28251D01*
X16266D01*
Y28243D01*
X16269D01*
Y28240D01*
X16273D01*
Y28232D01*
X16277D01*
Y28225D01*
X16280D01*
Y28217D01*
X16284D01*
Y28210D01*
X16288D01*
Y28203D01*
X16292D01*
Y28195D01*
X16295D01*
Y28188D01*
X16299D01*
Y28180D01*
X16303D01*
Y28177D01*
X16306D01*
Y28169D01*
X16310D01*
Y28162D01*
X16314D01*
Y28154D01*
X16318D01*
Y28147D01*
X16321D01*
Y28140D01*
X16325D01*
Y28132D01*
X16329D01*
Y28129D01*
X16332D01*
Y28121D01*
X16336D01*
Y28114D01*
X16340D01*
Y28106D01*
X16344D01*
Y28099D01*
X16347D01*
Y28091D01*
X16351D01*
Y28084D01*
X16355D01*
Y28077D01*
X16358D01*
Y28069D01*
X16362D01*
Y28062D01*
X16366D01*
Y28054D01*
X16369D01*
Y28051D01*
X16373D01*
Y28043D01*
X16377D01*
Y28036D01*
X16381D01*
Y28028D01*
X16384D01*
Y28021D01*
X16388D01*
Y28014D01*
X16392D01*
Y28010D01*
X16395D01*
Y28002D01*
X16399D01*
Y27995D01*
X16403D01*
Y27988D01*
X16407D01*
Y27980D01*
X16410D01*
Y27973D01*
X16414D01*
Y27965D01*
X16418D01*
Y27958D01*
X16421D01*
Y27951D01*
X16425D01*
Y27943D01*
X16429D01*
Y27936D01*
X16432D01*
Y27928D01*
X16436D01*
Y27925D01*
X16440D01*
Y27917D01*
X16444D01*
Y27910D01*
X16447D01*
Y27902D01*
X16451D01*
Y27895D01*
X16455D01*
Y27887D01*
X16458D01*
Y27880D01*
X16462D01*
Y27873D01*
X16466D01*
Y27865D01*
X16470D01*
Y27862D01*
X16473D01*
Y27854D01*
X16477D01*
Y27847D01*
X16481D01*
Y27839D01*
X16484D01*
Y27832D01*
X16488D01*
Y27824D01*
X16492D01*
Y27817D01*
X16496D01*
Y27810D01*
X16499D01*
Y27802D01*
X16503D01*
Y27795D01*
X16507D01*
Y27787D01*
X16510D01*
Y27784D01*
X16514D01*
Y27776D01*
X16518D01*
Y27769D01*
X16521D01*
Y27761D01*
X16525D01*
Y27754D01*
X16529D01*
Y27747D01*
X16533D01*
Y27739D01*
X16536D01*
Y27735D01*
X16540D01*
Y27728D01*
X16555D01*
Y27732D01*
X16570D01*
Y27735D01*
X16585D01*
Y27739D01*
X16603D01*
Y27743D01*
X16618D01*
Y27747D01*
X16636D01*
Y27750D01*
X16659D01*
Y27754D01*
X16699D01*
Y27758D01*
X16774D01*
Y27754D01*
X16800D01*
Y27750D01*
X16833D01*
Y27747D01*
X16855D01*
Y27743D01*
X16870D01*
Y27739D01*
X16889D01*
Y27735D01*
X16903D01*
Y27739D01*
X16907D01*
Y27747D01*
X16911D01*
Y27754D01*
X16915D01*
Y27758D01*
X16918D01*
Y27765D01*
X16922D01*
Y27773D01*
X16926D01*
Y27780D01*
X16929D01*
Y27787D01*
X16933D01*
Y27795D01*
X16937D01*
Y27802D01*
X16940D01*
Y27810D01*
X16944D01*
Y27817D01*
X16948D01*
Y27821D01*
X16952D01*
Y27828D01*
X16955D01*
Y27836D01*
X16959D01*
Y27843D01*
X16963D01*
Y27850D01*
X16966D01*
Y27858D01*
X16970D01*
Y27865D01*
X16974D01*
Y27873D01*
X16978D01*
Y27880D01*
X16981D01*
Y27887D01*
X16985D01*
Y27895D01*
X16989D01*
Y27902D01*
X16992D01*
Y27910D01*
X16996D01*
Y27917D01*
X17000D01*
Y27921D01*
X17004D01*
Y27928D01*
X17007D01*
Y27936D01*
X17011D01*
Y27943D01*
X17015D01*
Y27951D01*
X17018D01*
Y27962D01*
X17022D01*
Y27965D01*
X17026D01*
Y27973D01*
X17029D01*
Y27980D01*
X17033D01*
Y27988D01*
X17037D01*
Y27995D01*
X17041D01*
Y28002D01*
X17044D01*
Y28010D01*
X17048D01*
Y28017D01*
X17052D01*
Y28025D01*
X17055D01*
Y28032D01*
X17059D01*
Y28040D01*
X17063D01*
Y28047D01*
X17067D01*
Y28051D01*
X17070D01*
Y28058D01*
X17074D01*
Y28069D01*
X17078D01*
Y28077D01*
X17081D01*
Y28084D01*
X17085D01*
Y28088D01*
X17089D01*
Y28095D01*
X17093D01*
Y28103D01*
X17096D01*
Y28110D01*
X17100D01*
Y28117D01*
X17104D01*
Y28125D01*
X17107D01*
Y28132D01*
X17111D01*
Y28140D01*
X17115D01*
Y28147D01*
X17118D01*
Y28154D01*
X17122D01*
Y28162D01*
X17126D01*
Y28166D01*
X17130D01*
Y28173D01*
X17133D01*
Y28180D01*
X17137D01*
Y28188D01*
X17141D01*
Y28195D01*
X17144D01*
Y28203D01*
X17148D01*
Y28210D01*
X17152D01*
Y28217D01*
X17156D01*
Y28225D01*
X17159D01*
Y28232D01*
X17163D01*
Y28240D01*
X17167D01*
Y28247D01*
X17170D01*
Y28255D01*
X17174D01*
Y28262D01*
X17178D01*
Y28269D01*
X17182D01*
Y28273D01*
X17185D01*
Y28281D01*
X17189D01*
Y28288D01*
X17193D01*
Y28295D01*
X17196D01*
Y28303D01*
X17200D01*
Y28310D01*
X17204D01*
Y28318D01*
X17207D01*
Y28325D01*
X17211D01*
Y28332D01*
X17215D01*
Y28340D01*
X17219D01*
Y28344D01*
X17222D01*
Y28351D01*
X17226D01*
Y28358D01*
X17230D01*
Y28366D01*
X17233D01*
Y28373D01*
X17237D01*
Y28381D01*
X17241D01*
Y28388D01*
X17245D01*
Y28395D01*
X17248D01*
Y28403D01*
X17252D01*
Y28410D01*
X17256D01*
Y28418D01*
X17259D01*
Y28425D01*
X17263D01*
Y28433D01*
X17267D01*
Y28440D01*
X17271D01*
Y28444D01*
X17274D01*
Y28451D01*
X17278D01*
Y28459D01*
X17282D01*
Y28470D01*
X17285D01*
Y28477D01*
X17289D01*
Y28481D01*
X17293D01*
Y28488D01*
X17296D01*
Y28496D01*
X17300D01*
Y28503D01*
X17304D01*
Y28507D01*
X17308D01*
Y28514D01*
X17311D01*
Y28522D01*
X17315D01*
Y28529D01*
X17319D01*
Y28536D01*
X17322D01*
Y28544D01*
X17326D01*
Y28551D01*
X17330D01*
Y28559D01*
X17334D01*
Y28566D01*
X17337D01*
Y28573D01*
X17341D01*
Y28577D01*
X17345D01*
Y28585D01*
X17348D01*
Y28592D01*
X17352D01*
Y28599D01*
X17356D01*
Y28607D01*
X17359D01*
Y28614D01*
X17363D01*
Y28622D01*
X17367D01*
Y28629D01*
X17371D01*
Y28637D01*
X17374D01*
Y28644D01*
X17378D01*
Y28651D01*
X17382D01*
Y28659D01*
X17385D01*
Y28662D01*
X17389D01*
Y28670D01*
X17393D01*
Y28677D01*
X17397D01*
Y28685D01*
X17400D01*
Y28692D01*
X17404D01*
Y28700D01*
X17408D01*
Y28703D01*
X17411D01*
Y28711D01*
X17415D01*
Y28718D01*
X17419D01*
Y28725D01*
X17423D01*
Y28733D01*
X17426D01*
Y28740D01*
X17430D01*
Y28748D01*
X17434D01*
Y28755D01*
X17437D01*
Y28763D01*
X17441D01*
Y28770D01*
X17445D01*
Y28777D01*
X17448D01*
Y28785D01*
X17452D01*
Y28792D01*
X17456D01*
Y28800D01*
X17460D01*
Y28807D01*
X17463D01*
Y28814D01*
X17467D01*
Y28818D01*
X17471D01*
Y28826D01*
X17474D01*
Y28833D01*
X17478D01*
Y28840D01*
X17482D01*
Y28848D01*
X17486D01*
Y28855D01*
X17489D01*
Y28863D01*
X17493D01*
Y28870D01*
X17497D01*
Y28878D01*
X17500D01*
Y28885D01*
X17504D01*
Y28892D01*
X17508D01*
Y28900D01*
X17512D01*
Y28907D01*
X17515D01*
Y28915D01*
X17519D01*
Y28922D01*
X17523D01*
Y28929D01*
X17526D01*
Y28937D01*
X17530D01*
Y28941D01*
X17534D01*
Y28948D01*
X17537D01*
Y28955D01*
X17541D01*
Y28963D01*
X17545D01*
Y28970D01*
X17549D01*
Y28978D01*
X17552D01*
Y28985D01*
X17556D01*
Y28992D01*
X17560D01*
Y28996D01*
X17563D01*
Y29004D01*
X17567D01*
Y29011D01*
X17571D01*
Y29018D01*
X17575D01*
Y29026D01*
X17578D01*
Y29033D01*
X17582D01*
Y29041D01*
X17586D01*
Y29048D01*
X17589D01*
Y29056D01*
X17593D01*
Y29063D01*
X17597D01*
Y29070D01*
X17601D01*
Y29078D01*
X17604D01*
Y29085D01*
X17608D01*
Y29093D01*
X17612D01*
Y29096D01*
X17615D01*
Y29100D01*
X17623D01*
Y29104D01*
X17827D01*
Y29100D01*
D02*
G37*
G36*
X20890Y29126D02*
X20941D01*
Y29122D01*
X20964D01*
Y29119D01*
X20982D01*
Y29115D01*
X21004D01*
Y29111D01*
X21030D01*
Y29107D01*
X21045D01*
Y29104D01*
X21060D01*
Y29100D01*
X21075D01*
Y29096D01*
X21090D01*
Y29093D01*
X21105D01*
Y29089D01*
X21116D01*
Y29085D01*
X21127D01*
Y29081D01*
X21138D01*
Y29078D01*
X21149D01*
Y29074D01*
X21156D01*
Y29070D01*
X21168D01*
Y29067D01*
X21179D01*
Y29063D01*
X21186D01*
Y29059D01*
X21197D01*
Y29056D01*
X21205D01*
Y29052D01*
X21212D01*
Y29048D01*
X21220D01*
Y29044D01*
X21227D01*
Y29041D01*
X21234D01*
Y29037D01*
X21242D01*
Y29033D01*
X21249D01*
Y29030D01*
X21257D01*
Y29026D01*
X21264D01*
Y29022D01*
X21271D01*
Y29018D01*
X21275D01*
Y29015D01*
X21283D01*
Y29011D01*
X21290D01*
Y29007D01*
X21294D01*
Y29004D01*
X21297D01*
Y29000D01*
X21305D01*
Y28996D01*
X21309D01*
Y28992D01*
X21316D01*
Y28989D01*
X21323D01*
Y28985D01*
X21327D01*
Y28981D01*
X21334D01*
Y28978D01*
X21338D01*
Y28974D01*
X21342D01*
Y28970D01*
X21346D01*
Y28967D01*
X21353D01*
Y28963D01*
X21357D01*
Y28959D01*
X21360D01*
Y28955D01*
X21364D01*
Y28952D01*
X21372D01*
Y28948D01*
X21375D01*
Y28944D01*
X21379D01*
Y28941D01*
X21383D01*
Y28937D01*
X21386D01*
Y28933D01*
X21390D01*
Y28929D01*
X21394D01*
Y28926D01*
X21398D01*
Y28922D01*
X21401D01*
Y28918D01*
X21405D01*
Y28915D01*
X21409D01*
Y28911D01*
X21412D01*
Y28907D01*
X21416D01*
Y28903D01*
X21420D01*
Y28900D01*
X21427D01*
Y28896D01*
X21431D01*
Y28892D01*
X21435D01*
Y28889D01*
X21438D01*
Y28885D01*
X21442D01*
Y28881D01*
X21446D01*
Y28878D01*
X21449D01*
Y28870D01*
X21453D01*
Y28866D01*
X21457D01*
Y28863D01*
X21461D01*
Y28859D01*
X21464D01*
Y28852D01*
X21468D01*
Y28848D01*
X21472D01*
Y28844D01*
X21475D01*
Y28837D01*
X21479D01*
Y28833D01*
X21483D01*
Y28826D01*
X21486D01*
Y28822D01*
X21490D01*
Y28814D01*
X21494D01*
Y28811D01*
X21498D01*
Y28803D01*
X21501D01*
Y28800D01*
X21505D01*
Y28792D01*
X21509D01*
Y28785D01*
X21512D01*
Y28781D01*
X21516D01*
Y28774D01*
X21520D01*
Y28766D01*
X21524D01*
Y28759D01*
X21527D01*
Y28751D01*
X21531D01*
Y28744D01*
X21535D01*
Y28737D01*
X21538D01*
Y28729D01*
X21542D01*
Y28718D01*
X21546D01*
Y28711D01*
X21550D01*
Y28700D01*
X21553D01*
Y28692D01*
X21557D01*
Y28681D01*
X21561D01*
Y28670D01*
X21564D01*
Y28655D01*
X21568D01*
Y28644D01*
X21572D01*
Y28629D01*
X21575D01*
Y28607D01*
X21579D01*
Y28581D01*
X21583D01*
Y28566D01*
X21587D01*
Y28440D01*
X21583D01*
Y28429D01*
X21579D01*
Y28392D01*
X21575D01*
Y28370D01*
X21572D01*
Y28355D01*
X21568D01*
Y28340D01*
X21564D01*
Y28329D01*
X21561D01*
Y28314D01*
X21557D01*
Y28303D01*
X21553D01*
Y28292D01*
X21550D01*
Y28281D01*
X21546D01*
Y28273D01*
X21542D01*
Y28266D01*
X21538D01*
Y28255D01*
X21535D01*
Y28247D01*
X21531D01*
Y28240D01*
X21527D01*
Y28229D01*
X21524D01*
Y28221D01*
X21520D01*
Y28214D01*
X21516D01*
Y28206D01*
X21512D01*
Y28203D01*
X21509D01*
Y28195D01*
X21505D01*
Y28188D01*
X21501D01*
Y28180D01*
X21498D01*
Y28177D01*
X21494D01*
Y28169D01*
X21490D01*
Y28162D01*
X21486D01*
Y28158D01*
X21483D01*
Y28151D01*
X21479D01*
Y28147D01*
X21475D01*
Y28140D01*
X21472D01*
Y28136D01*
X21468D01*
Y28132D01*
X21464D01*
Y28125D01*
X21461D01*
Y28121D01*
X21457D01*
Y28117D01*
X21453D01*
Y28114D01*
X21449D01*
Y28106D01*
X21446D01*
Y28103D01*
X21442D01*
Y28095D01*
X21438D01*
Y28091D01*
X21435D01*
Y28088D01*
X21431D01*
Y28084D01*
X21427D01*
Y28080D01*
X21423D01*
Y28077D01*
X21420D01*
Y28073D01*
X21416D01*
Y28069D01*
X21412D01*
Y28065D01*
X21409D01*
Y28062D01*
X21405D01*
Y28058D01*
X21401D01*
Y28054D01*
X21398D01*
Y28051D01*
X21394D01*
Y28047D01*
X21390D01*
Y28043D01*
X21386D01*
Y28040D01*
X21383D01*
Y28036D01*
X21379D01*
Y28032D01*
X21375D01*
Y28028D01*
X21372D01*
Y28025D01*
X21368D01*
Y28021D01*
X21364D01*
Y28017D01*
X21360D01*
Y28014D01*
X21357D01*
Y28010D01*
X21353D01*
Y28006D01*
X21349D01*
Y28002D01*
X21342D01*
Y27999D01*
X21338D01*
Y27995D01*
X21334D01*
Y27991D01*
X21327D01*
Y27988D01*
X21323D01*
Y27984D01*
X21320D01*
Y27980D01*
X21312D01*
Y27976D01*
X21309D01*
Y27973D01*
X21301D01*
Y27969D01*
X21297D01*
Y27965D01*
X21294D01*
Y27962D01*
X21286D01*
Y27958D01*
X21283D01*
Y27954D01*
X21279D01*
Y27951D01*
X21271D01*
Y27947D01*
X21268D01*
Y27943D01*
X21260D01*
Y27939D01*
X21257D01*
Y27936D01*
X21249D01*
Y27932D01*
X21245D01*
Y27928D01*
X21238D01*
Y27925D01*
X21231D01*
Y27921D01*
X21227D01*
Y27917D01*
X21220D01*
Y27913D01*
X21216D01*
Y27910D01*
X21208D01*
Y27906D01*
X21205D01*
Y27902D01*
X21197D01*
Y27899D01*
X21194D01*
Y27895D01*
X21186D01*
Y27891D01*
X21179D01*
Y27887D01*
X21175D01*
Y27884D01*
X21168D01*
Y27880D01*
X21160D01*
Y27876D01*
X21153D01*
Y27873D01*
X21149D01*
Y27869D01*
X21142D01*
Y27865D01*
X21134D01*
Y27862D01*
X21127D01*
Y27858D01*
X21119D01*
Y27854D01*
X21116D01*
Y27850D01*
X21108D01*
Y27847D01*
X21101D01*
Y27843D01*
X21093D01*
Y27839D01*
X21086D01*
Y27836D01*
X21079D01*
Y27832D01*
X21071D01*
Y27828D01*
X21064D01*
Y27824D01*
X21056D01*
Y27821D01*
X21049D01*
Y27817D01*
X21042D01*
Y27813D01*
X21034D01*
Y27810D01*
X21027D01*
Y27806D01*
X21019D01*
Y27802D01*
X21012D01*
Y27798D01*
X21001D01*
Y27795D01*
X20993D01*
Y27791D01*
X20986D01*
Y27787D01*
X20979D01*
Y27784D01*
X20971D01*
Y27780D01*
X20960D01*
Y27776D01*
X20953D01*
Y27773D01*
X20945D01*
Y27769D01*
X20934D01*
Y27765D01*
X20927D01*
Y27761D01*
X20915D01*
Y27758D01*
X20908D01*
Y27754D01*
X20897D01*
Y27750D01*
X20890D01*
Y27747D01*
X20878D01*
Y27743D01*
X20871D01*
Y27739D01*
X20860D01*
Y27735D01*
X20852D01*
Y27732D01*
X20845D01*
Y27728D01*
X20834D01*
Y27724D01*
X20823D01*
Y27721D01*
X20812D01*
Y27717D01*
X20804D01*
Y27713D01*
X20793D01*
Y27710D01*
X20782D01*
Y27706D01*
X20775D01*
Y27702D01*
X20763D01*
Y27698D01*
X20756D01*
Y27695D01*
X20745D01*
Y27691D01*
X20737D01*
Y27687D01*
X20730D01*
Y27684D01*
X20719D01*
Y27680D01*
X20708D01*
Y27676D01*
X20700D01*
Y27672D01*
X20693D01*
Y27669D01*
X20686D01*
Y27665D01*
X20674D01*
Y27661D01*
X20667D01*
Y27658D01*
X20656D01*
Y27654D01*
X20648D01*
Y27650D01*
X20641D01*
Y27646D01*
X20634D01*
Y27643D01*
X20626D01*
Y27639D01*
X20619D01*
Y27635D01*
X20611D01*
Y27632D01*
X20604D01*
Y27628D01*
X20600D01*
Y27624D01*
X20593D01*
Y27621D01*
X20585D01*
Y27617D01*
X20578D01*
Y27613D01*
X20571D01*
Y27609D01*
X20563D01*
Y27606D01*
X20559D01*
Y27602D01*
X20552D01*
Y27598D01*
X20545D01*
Y27595D01*
X20541D01*
Y27591D01*
X20534D01*
Y27587D01*
X20526D01*
Y27583D01*
X20522D01*
Y27580D01*
X20515D01*
Y27576D01*
X20508D01*
Y27572D01*
X20504D01*
Y27569D01*
X20496D01*
Y27565D01*
X20493D01*
Y27561D01*
X20489D01*
Y27557D01*
X20482D01*
Y27554D01*
X20478D01*
Y27550D01*
X20471D01*
Y27546D01*
X20467D01*
Y27543D01*
X20459D01*
Y27539D01*
X20456D01*
Y27535D01*
X20448D01*
Y27532D01*
X20445D01*
Y27528D01*
X20441D01*
Y27524D01*
X20433D01*
Y27520D01*
X20430D01*
Y27517D01*
X20426D01*
Y27513D01*
X20422D01*
Y27509D01*
X20415D01*
Y27506D01*
X20411D01*
Y27502D01*
X20407D01*
Y27498D01*
X20404D01*
Y27494D01*
X20396D01*
Y27491D01*
X20393D01*
Y27487D01*
X20389D01*
Y27483D01*
X20385D01*
Y27480D01*
X20382D01*
Y27476D01*
X20378D01*
Y27472D01*
X20374D01*
Y27468D01*
X20370D01*
Y27465D01*
X20367D01*
Y27461D01*
X20363D01*
Y27457D01*
X20359D01*
Y27454D01*
X20356D01*
Y27450D01*
X20352D01*
Y27446D01*
X20348D01*
Y27443D01*
X20344D01*
Y27439D01*
X20341D01*
Y27435D01*
X20337D01*
Y27431D01*
X20333D01*
Y27428D01*
X20330D01*
Y27424D01*
X20326D01*
Y27420D01*
X20322D01*
Y27413D01*
X20318D01*
Y27409D01*
X20315D01*
Y27405D01*
X20311D01*
Y27402D01*
X20307D01*
Y27394D01*
X20304D01*
Y27391D01*
X20300D01*
Y27387D01*
X20296D01*
Y27379D01*
X20293D01*
Y27372D01*
X20289D01*
Y27368D01*
X20285D01*
Y27361D01*
X20281D01*
Y27357D01*
X20278D01*
Y27350D01*
X20274D01*
Y27342D01*
X20270D01*
Y27339D01*
X20267D01*
Y27331D01*
X20263D01*
Y27324D01*
X20259D01*
Y27316D01*
X20255D01*
Y27305D01*
X20252D01*
Y27298D01*
X20248D01*
Y27290D01*
X20244D01*
Y27279D01*
X20241D01*
Y27268D01*
X20237D01*
Y27253D01*
X20233D01*
Y27242D01*
X20229D01*
Y27227D01*
X20226D01*
Y27213D01*
X20222D01*
Y27183D01*
X20218D01*
Y27053D01*
X20222D01*
Y27024D01*
X20226D01*
Y27005D01*
X20229D01*
Y26990D01*
X20233D01*
Y26979D01*
X20237D01*
Y26964D01*
X20241D01*
Y26953D01*
X20244D01*
Y26942D01*
X20248D01*
Y26935D01*
X20252D01*
Y26927D01*
X20255D01*
Y26920D01*
X20259D01*
Y26909D01*
X20263D01*
Y26901D01*
X20267D01*
Y26897D01*
X20270D01*
Y26890D01*
X20274D01*
Y26883D01*
X20278D01*
Y26875D01*
X20281D01*
Y26871D01*
X20285D01*
Y26864D01*
X20289D01*
Y26860D01*
X20293D01*
Y26853D01*
X20296D01*
Y26849D01*
X20300D01*
Y26846D01*
X20304D01*
Y26838D01*
X20307D01*
Y26834D01*
X20311D01*
Y26831D01*
X20315D01*
Y26827D01*
X20318D01*
Y26820D01*
X20322D01*
Y26816D01*
X20326D01*
Y26812D01*
X20330D01*
Y26808D01*
X20333D01*
Y26805D01*
X20337D01*
Y26801D01*
X20341D01*
Y26797D01*
X20344D01*
Y26794D01*
X20348D01*
Y26790D01*
X20352D01*
Y26786D01*
X20356D01*
Y26783D01*
X20363D01*
Y26779D01*
X20367D01*
Y26775D01*
X20370D01*
Y26771D01*
X20374D01*
Y26768D01*
X20378D01*
Y26764D01*
X20385D01*
Y26760D01*
X20389D01*
Y26757D01*
X20396D01*
Y26753D01*
X20400D01*
Y26749D01*
X20404D01*
Y26745D01*
X20411D01*
Y26742D01*
X20419D01*
Y26738D01*
X20422D01*
Y26734D01*
X20430D01*
Y26731D01*
X20437D01*
Y26727D01*
X20445D01*
Y26723D01*
X20452D01*
Y26719D01*
X20459D01*
Y26716D01*
X20467D01*
Y26712D01*
X20474D01*
Y26708D01*
X20482D01*
Y26705D01*
X20489D01*
Y26701D01*
X20496D01*
Y26697D01*
X20508D01*
Y26694D01*
X20519D01*
Y26690D01*
X20530D01*
Y26686D01*
X20541D01*
Y26682D01*
X20552D01*
Y26679D01*
X20567D01*
Y26675D01*
X20582D01*
Y26671D01*
X20597D01*
Y26668D01*
X20615D01*
Y26664D01*
X20652D01*
Y26660D01*
X20712D01*
Y26656D01*
X20737D01*
Y26660D01*
X20804D01*
Y26656D01*
X20812D01*
Y26660D01*
X20856D01*
Y26664D01*
X20882D01*
Y26668D01*
X20897D01*
Y26671D01*
X20919D01*
Y26675D01*
X20934D01*
Y26679D01*
X20949D01*
Y26682D01*
X20960D01*
Y26686D01*
X20971D01*
Y26690D01*
X20982D01*
Y26694D01*
X20993D01*
Y26697D01*
X21004D01*
Y26701D01*
X21016D01*
Y26705D01*
X21027D01*
Y26708D01*
X21034D01*
Y26712D01*
X21042D01*
Y26716D01*
X21049D01*
Y26719D01*
X21060D01*
Y26723D01*
X21068D01*
Y26727D01*
X21075D01*
Y26731D01*
X21079D01*
Y26734D01*
X21086D01*
Y26738D01*
X21093D01*
Y26742D01*
X21101D01*
Y26745D01*
X21105D01*
Y26749D01*
X21108D01*
Y26753D01*
X21116D01*
Y26757D01*
X21119D01*
Y26760D01*
X21127D01*
Y26764D01*
X21134D01*
Y26768D01*
X21138D01*
Y26771D01*
X21145D01*
Y26775D01*
X21149D01*
Y26779D01*
X21153D01*
Y26783D01*
X21160D01*
Y26786D01*
X21164D01*
Y26790D01*
X21168D01*
Y26794D01*
X21175D01*
Y26797D01*
X21179D01*
Y26801D01*
X21182D01*
Y26805D01*
X21186D01*
Y26808D01*
X21190D01*
Y26812D01*
X21197D01*
Y26816D01*
X21201D01*
Y26820D01*
X21205D01*
Y26823D01*
X21212D01*
Y26827D01*
X21216D01*
Y26831D01*
X21220D01*
Y26834D01*
X21223D01*
Y26838D01*
X21227D01*
Y26842D01*
X21231D01*
Y26846D01*
X21234D01*
Y26849D01*
X21238D01*
Y26853D01*
X21242D01*
Y26857D01*
X21245D01*
Y26860D01*
X21249D01*
Y26864D01*
X21253D01*
Y26868D01*
X21257D01*
Y26871D01*
X21260D01*
Y26879D01*
X21264D01*
Y26883D01*
X21268D01*
Y26886D01*
X21271D01*
Y26890D01*
X21275D01*
Y26894D01*
X21279D01*
Y26897D01*
X21283D01*
Y26901D01*
X21286D01*
Y26905D01*
X21290D01*
Y26912D01*
X21294D01*
Y26916D01*
X21297D01*
Y26923D01*
X21301D01*
Y26927D01*
X21305D01*
Y26931D01*
X21309D01*
Y26938D01*
X21312D01*
Y26942D01*
X21316D01*
Y26946D01*
X21320D01*
Y26953D01*
X21323D01*
Y26957D01*
X21327D01*
Y26964D01*
X21331D01*
Y26968D01*
X21334D01*
Y26975D01*
X21338D01*
Y26983D01*
X21342D01*
Y26986D01*
X21346D01*
Y26994D01*
X21349D01*
Y27001D01*
X21353D01*
Y27005D01*
X21357D01*
Y27012D01*
X21360D01*
Y27020D01*
X21364D01*
Y27027D01*
X21368D01*
Y27038D01*
X21372D01*
Y27046D01*
X21375D01*
Y27049D01*
X21394D01*
Y27046D01*
X21401D01*
Y27042D01*
X21412D01*
Y27038D01*
X21420D01*
Y27035D01*
X21431D01*
Y27031D01*
X21442D01*
Y27027D01*
X21449D01*
Y27024D01*
X21457D01*
Y27020D01*
X21468D01*
Y27016D01*
X21475D01*
Y27012D01*
X21486D01*
Y27009D01*
X21498D01*
Y27005D01*
X21505D01*
Y27001D01*
X21512D01*
Y26998D01*
X21520D01*
Y26994D01*
X21531D01*
Y26990D01*
X21538D01*
Y26986D01*
X21550D01*
Y26983D01*
X21561D01*
Y26979D01*
X21568D01*
Y26975D01*
X21579D01*
Y26972D01*
X21590D01*
Y26968D01*
X21598D01*
Y26964D01*
X21609D01*
Y26960D01*
X21616D01*
Y26957D01*
X21627D01*
Y26953D01*
X21635D01*
Y26949D01*
X21646D01*
Y26946D01*
X21653D01*
Y26942D01*
X21657D01*
Y26931D01*
X21653D01*
Y26920D01*
X21650D01*
Y26909D01*
X21646D01*
Y26901D01*
X21642D01*
Y26894D01*
X21639D01*
Y26883D01*
X21635D01*
Y26875D01*
X21631D01*
Y26868D01*
X21627D01*
Y26860D01*
X21624D01*
Y26853D01*
X21620D01*
Y26846D01*
X21616D01*
Y26838D01*
X21613D01*
Y26831D01*
X21609D01*
Y26823D01*
X21605D01*
Y26820D01*
X21601D01*
Y26812D01*
X21598D01*
Y26805D01*
X21594D01*
Y26797D01*
X21590D01*
Y26794D01*
X21587D01*
Y26786D01*
X21583D01*
Y26783D01*
X21579D01*
Y26779D01*
X21575D01*
Y26771D01*
X21572D01*
Y26768D01*
X21568D01*
Y26760D01*
X21564D01*
Y26757D01*
X21561D01*
Y26753D01*
X21557D01*
Y26745D01*
X21553D01*
Y26742D01*
X21550D01*
Y26734D01*
X21546D01*
Y26731D01*
X21542D01*
Y26727D01*
X21538D01*
Y26723D01*
X21535D01*
Y26719D01*
X21531D01*
Y26716D01*
X21527D01*
Y26712D01*
X21524D01*
Y26708D01*
X21520D01*
Y26701D01*
X21516D01*
Y26697D01*
X21512D01*
Y26694D01*
X21509D01*
Y26686D01*
X21505D01*
Y26682D01*
X21501D01*
Y26679D01*
X21498D01*
Y26675D01*
X21494D01*
Y26671D01*
X21490D01*
Y26668D01*
X21486D01*
Y26664D01*
X21483D01*
Y26660D01*
X21479D01*
Y26656D01*
X21475D01*
Y26653D01*
X21472D01*
Y26649D01*
X21468D01*
Y26645D01*
X21464D01*
Y26642D01*
X21461D01*
Y26638D01*
X21457D01*
Y26634D01*
X21453D01*
Y26630D01*
X21446D01*
Y26627D01*
X21442D01*
Y26623D01*
X21438D01*
Y26619D01*
X21431D01*
Y26616D01*
X21427D01*
Y26612D01*
X21423D01*
Y26608D01*
X21420D01*
Y26605D01*
X21416D01*
Y26601D01*
X21412D01*
Y26597D01*
X21409D01*
Y26593D01*
X21401D01*
Y26590D01*
X21398D01*
Y26586D01*
X21394D01*
Y26582D01*
X21390D01*
Y26579D01*
X21383D01*
Y26575D01*
X21379D01*
Y26571D01*
X21372D01*
Y26567D01*
X21368D01*
Y26564D01*
X21360D01*
Y26560D01*
X21357D01*
Y26556D01*
X21349D01*
Y26553D01*
X21346D01*
Y26549D01*
X21342D01*
Y26545D01*
X21334D01*
Y26541D01*
X21331D01*
Y26538D01*
X21323D01*
Y26534D01*
X21316D01*
Y26530D01*
X21309D01*
Y26527D01*
X21305D01*
Y26523D01*
X21297D01*
Y26519D01*
X21294D01*
Y26516D01*
X21286D01*
Y26512D01*
X21279D01*
Y26508D01*
X21275D01*
Y26504D01*
X21268D01*
Y26501D01*
X21260D01*
Y26497D01*
X21253D01*
Y26493D01*
X21245D01*
Y26490D01*
X21238D01*
Y26486D01*
X21231D01*
Y26482D01*
X21223D01*
Y26478D01*
X21216D01*
Y26475D01*
X21208D01*
Y26471D01*
X21201D01*
Y26467D01*
X21190D01*
Y26464D01*
X21182D01*
Y26460D01*
X21171D01*
Y26456D01*
X21164D01*
Y26452D01*
X21153D01*
Y26449D01*
X21145D01*
Y26445D01*
X21134D01*
Y26441D01*
X21123D01*
Y26438D01*
X21112D01*
Y26434D01*
X21097D01*
Y26430D01*
X21086D01*
Y26427D01*
X21075D01*
Y26423D01*
X21060D01*
Y26419D01*
X21045D01*
Y26415D01*
X21030D01*
Y26412D01*
X21016D01*
Y26408D01*
X21001D01*
Y26404D01*
X20982D01*
Y26401D01*
X20956D01*
Y26397D01*
X20923D01*
Y26393D01*
X20908D01*
Y26389D01*
X20852D01*
Y26386D01*
X20663D01*
Y26389D01*
X20608D01*
Y26393D01*
X20597D01*
Y26397D01*
X20559D01*
Y26401D01*
X20537D01*
Y26404D01*
X20522D01*
Y26408D01*
X20504D01*
Y26412D01*
X20485D01*
Y26415D01*
X20474D01*
Y26419D01*
X20459D01*
Y26423D01*
X20445D01*
Y26427D01*
X20433D01*
Y26430D01*
X20422D01*
Y26434D01*
X20411D01*
Y26438D01*
X20400D01*
Y26441D01*
X20389D01*
Y26445D01*
X20378D01*
Y26449D01*
X20370D01*
Y26452D01*
X20359D01*
Y26456D01*
X20352D01*
Y26460D01*
X20341D01*
Y26464D01*
X20333D01*
Y26467D01*
X20326D01*
Y26471D01*
X20318D01*
Y26475D01*
X20311D01*
Y26478D01*
X20304D01*
Y26482D01*
X20296D01*
Y26486D01*
X20289D01*
Y26490D01*
X20281D01*
Y26493D01*
X20274D01*
Y26497D01*
X20267D01*
Y26501D01*
X20259D01*
Y26504D01*
X20255D01*
Y26508D01*
X20248D01*
Y26512D01*
X20244D01*
Y26516D01*
X20237D01*
Y26519D01*
X20229D01*
Y26523D01*
X20226D01*
Y26527D01*
X20218D01*
Y26530D01*
X20215D01*
Y26534D01*
X20207D01*
Y26538D01*
X20204D01*
Y26541D01*
X20196D01*
Y26545D01*
X20192D01*
Y26549D01*
X20189D01*
Y26553D01*
X20181D01*
Y26556D01*
X20178D01*
Y26560D01*
X20174D01*
Y26564D01*
X20166D01*
Y26567D01*
X20163D01*
Y26571D01*
X20159D01*
Y26575D01*
X20155D01*
Y26579D01*
X20148D01*
Y26582D01*
X20144D01*
Y26586D01*
X20141D01*
Y26590D01*
X20137D01*
Y26593D01*
X20133D01*
Y26597D01*
X20129D01*
Y26601D01*
X20126D01*
Y26605D01*
X20122D01*
Y26608D01*
X20118D01*
Y26612D01*
X20115D01*
Y26616D01*
X20111D01*
Y26619D01*
X20107D01*
Y26623D01*
X20103D01*
Y26627D01*
X20100D01*
Y26630D01*
X20096D01*
Y26634D01*
X20092D01*
Y26638D01*
X20089D01*
Y26642D01*
X20085D01*
Y26645D01*
X20081D01*
Y26649D01*
X20077D01*
Y26653D01*
X20074D01*
Y26656D01*
X20070D01*
Y26660D01*
X20066D01*
Y26664D01*
X20063D01*
Y26668D01*
X20059D01*
Y26671D01*
X20055D01*
Y26675D01*
X20052D01*
Y26682D01*
X20048D01*
Y26686D01*
X20044D01*
Y26694D01*
X20040D01*
Y26697D01*
X20037D01*
Y26701D01*
X20033D01*
Y26708D01*
X20029D01*
Y26712D01*
X20026D01*
Y26716D01*
X20022D01*
Y26723D01*
X20018D01*
Y26727D01*
X20014D01*
Y26734D01*
X20011D01*
Y26738D01*
X20007D01*
Y26745D01*
X20003D01*
Y26753D01*
X20000D01*
Y26760D01*
X19996D01*
Y26764D01*
X19992D01*
Y26771D01*
X19988D01*
Y26779D01*
X19985D01*
Y26786D01*
X19981D01*
Y26794D01*
X19977D01*
Y26801D01*
X19974D01*
Y26808D01*
X19970D01*
Y26816D01*
X19966D01*
Y26823D01*
X19963D01*
Y26834D01*
X19959D01*
Y26842D01*
X19955D01*
Y26853D01*
X19951D01*
Y26864D01*
X19948D01*
Y26875D01*
X19944D01*
Y26886D01*
X19940D01*
Y26897D01*
X19937D01*
Y26909D01*
X19933D01*
Y26923D01*
X19929D01*
Y26938D01*
X19925D01*
Y26957D01*
X19922D01*
Y26972D01*
X19918D01*
Y27005D01*
X19914D01*
Y27057D01*
X19911D01*
Y27075D01*
X19907D01*
Y27168D01*
X19911D01*
Y27190D01*
X19907D01*
Y27194D01*
X19888D01*
Y27198D01*
X19874D01*
Y27202D01*
X19862D01*
Y27205D01*
X19851D01*
Y27209D01*
X19844D01*
Y27213D01*
X19836D01*
Y27216D01*
X19833D01*
Y27220D01*
X19825D01*
Y27224D01*
X19822D01*
Y27227D01*
X19818D01*
Y27231D01*
X19810D01*
Y27235D01*
X19807D01*
Y27239D01*
X19803D01*
Y27242D01*
X19799D01*
Y27246D01*
X19796D01*
Y27250D01*
X19792D01*
Y27253D01*
X19788D01*
Y27261D01*
X19785D01*
Y27265D01*
X19781D01*
Y27268D01*
X19777D01*
Y27276D01*
X19773D01*
Y27279D01*
X19770D01*
Y27283D01*
X19766D01*
Y27272D01*
X19762D01*
Y27268D01*
X19766D01*
Y27098D01*
X19762D01*
Y27094D01*
X19766D01*
Y27090D01*
X19762D01*
Y27068D01*
X19766D01*
Y26419D01*
X19762D01*
Y26412D01*
X18706D01*
Y26415D01*
X18635D01*
Y26419D01*
X18620D01*
Y26423D01*
X18587D01*
Y26427D01*
X18565D01*
Y26430D01*
X18546D01*
Y26434D01*
X18528D01*
Y26438D01*
X18509D01*
Y26441D01*
X18494D01*
Y26445D01*
X18479D01*
Y26449D01*
X18464D01*
Y26452D01*
X18453D01*
Y26456D01*
X18442D01*
Y26460D01*
X18427D01*
Y26464D01*
X18420D01*
Y26467D01*
X18409D01*
Y26471D01*
X18398D01*
Y26475D01*
X18387D01*
Y26478D01*
X18375D01*
Y26482D01*
X18368D01*
Y26486D01*
X18361D01*
Y26490D01*
X18353D01*
Y26493D01*
X18346D01*
Y26497D01*
X18335D01*
Y26501D01*
X18327D01*
Y26504D01*
X18320D01*
Y26508D01*
X18312D01*
Y26512D01*
X18305D01*
Y26516D01*
X18298D01*
Y26519D01*
X18294D01*
Y26523D01*
X18286D01*
Y26527D01*
X18279D01*
Y26530D01*
X18275D01*
Y26534D01*
X18268D01*
Y26538D01*
X18264D01*
Y26541D01*
X18257D01*
Y26545D01*
X18249D01*
Y26549D01*
X18246D01*
Y26553D01*
X18242D01*
Y26556D01*
X18235D01*
Y26560D01*
X18231D01*
Y26564D01*
X18227D01*
Y26567D01*
X18220D01*
Y26571D01*
X18216D01*
Y26575D01*
X18212D01*
Y26579D01*
X18205D01*
Y26582D01*
X18201D01*
Y26586D01*
X18198D01*
Y26590D01*
X18190D01*
Y26593D01*
X18186D01*
Y26597D01*
X18183D01*
Y26601D01*
X18179D01*
Y26605D01*
X18175D01*
Y26608D01*
X18172D01*
Y26612D01*
X18168D01*
Y26616D01*
X18164D01*
Y26619D01*
X18160D01*
Y26623D01*
X18157D01*
Y26627D01*
X18153D01*
Y26630D01*
X18149D01*
Y26634D01*
X18146D01*
Y26638D01*
X18142D01*
Y26642D01*
X18138D01*
Y26645D01*
X18134D01*
Y26649D01*
X18131D01*
Y26653D01*
X18127D01*
Y26656D01*
X18123D01*
Y26664D01*
X18120D01*
Y26668D01*
X18116D01*
Y26671D01*
X18112D01*
Y26675D01*
X18109D01*
Y26682D01*
X18105D01*
Y26686D01*
X18101D01*
Y26690D01*
X18097D01*
Y26697D01*
X18094D01*
Y26701D01*
X18090D01*
Y26708D01*
X18086D01*
Y26712D01*
X18083D01*
Y26716D01*
X18079D01*
Y26723D01*
X18075D01*
Y26727D01*
X18071D01*
Y26734D01*
X18068D01*
Y26738D01*
X18064D01*
Y26745D01*
X18060D01*
Y26749D01*
X18057D01*
Y26757D01*
X18053D01*
Y26760D01*
X18049D01*
Y26768D01*
X18045D01*
Y26775D01*
X18042D01*
Y26779D01*
X18038D01*
Y26786D01*
X18034D01*
Y26794D01*
X18031D01*
Y26797D01*
X18027D01*
Y26805D01*
X18023D01*
Y26816D01*
X18020D01*
Y26820D01*
X18016D01*
Y26827D01*
X18012D01*
Y26838D01*
X18008D01*
Y26846D01*
X18005D01*
Y26853D01*
X18001D01*
Y26864D01*
X17997D01*
Y26871D01*
X17994D01*
Y26883D01*
X17990D01*
Y26894D01*
X17986D01*
Y26901D01*
X17982D01*
Y26916D01*
X17979D01*
Y26927D01*
X17975D01*
Y26942D01*
X17971D01*
Y26953D01*
X17968D01*
Y26968D01*
X17964D01*
Y26986D01*
X17960D01*
Y27009D01*
X17956D01*
Y27027D01*
X17953D01*
Y27064D01*
X17949D01*
Y27250D01*
X17953D01*
Y27283D01*
X17956D01*
Y27302D01*
X17960D01*
Y27320D01*
X17964D01*
Y27342D01*
X17968D01*
Y27357D01*
X17971D01*
Y27368D01*
X17975D01*
Y27383D01*
X17979D01*
Y27394D01*
X17982D01*
Y27405D01*
X17986D01*
Y27417D01*
X17990D01*
Y27424D01*
X17994D01*
Y27435D01*
X17997D01*
Y27443D01*
X18001D01*
Y27454D01*
X18005D01*
Y27461D01*
X18008D01*
Y27472D01*
X18012D01*
Y27480D01*
X18016D01*
Y27487D01*
X18020D01*
Y27494D01*
X18023D01*
Y27498D01*
Y27502D01*
X18027D01*
Y27509D01*
X18031D01*
Y27517D01*
X18034D01*
Y27524D01*
X18038D01*
Y27528D01*
X18042D01*
Y27535D01*
X18045D01*
Y27546D01*
X18020D01*
Y27550D01*
X18005D01*
Y27554D01*
X17994D01*
Y27557D01*
X17986D01*
Y27561D01*
X17982D01*
Y27565D01*
X17975D01*
Y27569D01*
X17971D01*
Y27572D01*
X17968D01*
Y27576D01*
X17964D01*
Y27580D01*
X17960D01*
Y27583D01*
X17956D01*
Y27587D01*
X17953D01*
Y27595D01*
X17949D01*
Y27598D01*
X17945D01*
Y27606D01*
X17942D01*
Y27613D01*
X17938D01*
Y27628D01*
X17934D01*
Y27643D01*
X17931D01*
Y27661D01*
X17934D01*
Y27684D01*
X17938D01*
Y27695D01*
X17942D01*
Y27702D01*
X17945D01*
Y27710D01*
X17949D01*
Y27717D01*
X17953D01*
Y27721D01*
X17956D01*
Y27724D01*
X17960D01*
Y27732D01*
X17964D01*
Y27735D01*
X17971D01*
Y27739D01*
X17975D01*
Y27743D01*
X17979D01*
Y27747D01*
X17986D01*
Y27750D01*
X17994D01*
Y27754D01*
X18001D01*
Y27758D01*
X18012D01*
Y27761D01*
X18064D01*
Y27758D01*
X18075D01*
Y27754D01*
X18083D01*
Y27750D01*
X18090D01*
Y27747D01*
X18097D01*
Y27743D01*
X18105D01*
Y27739D01*
X18109D01*
Y27735D01*
X18112D01*
Y27732D01*
X18116D01*
Y27728D01*
X18120D01*
Y27721D01*
X18123D01*
Y27717D01*
X18127D01*
Y27713D01*
X18131D01*
Y27706D01*
X18134D01*
Y27698D01*
X18138D01*
Y27687D01*
X18142D01*
Y27676D01*
X18146D01*
Y27665D01*
X18149D01*
Y27669D01*
X18153D01*
Y27672D01*
X18157D01*
Y27676D01*
X18164D01*
Y27680D01*
X18168D01*
Y27684D01*
X18172D01*
Y27687D01*
X18175D01*
Y27691D01*
X18183D01*
Y27695D01*
X18186D01*
Y27698D01*
X18190D01*
Y27702D01*
X18194D01*
Y27706D01*
X18201D01*
Y27710D01*
X18205D01*
Y27713D01*
X18209D01*
Y27717D01*
X18212D01*
Y27721D01*
X18220D01*
Y27724D01*
X18223D01*
Y27728D01*
X18231D01*
Y27732D01*
X18238D01*
Y27735D01*
X18246D01*
Y27739D01*
X18249D01*
Y27743D01*
X18257D01*
Y27747D01*
X18264D01*
Y27750D01*
X18268D01*
Y27754D01*
X18275D01*
Y27758D01*
X18283D01*
Y27761D01*
X18290D01*
Y27765D01*
X18298D01*
Y27769D01*
X18301D01*
Y27773D01*
X18309D01*
Y27776D01*
X18316D01*
Y27780D01*
X18324D01*
Y27784D01*
X18331D01*
Y27787D01*
X18338D01*
Y27791D01*
X18346D01*
Y27795D01*
X18357D01*
Y27798D01*
X18364D01*
Y27802D01*
X18375D01*
Y27806D01*
X18383D01*
Y27810D01*
X18394D01*
Y27813D01*
X18405D01*
Y27817D01*
X18420D01*
Y27821D01*
X18431D01*
Y27824D01*
X18450D01*
Y27828D01*
X18457D01*
Y27836D01*
X18453D01*
Y27839D01*
X18442D01*
Y27843D01*
X18431D01*
Y27847D01*
X18424D01*
Y27850D01*
X18416D01*
Y27854D01*
X18405D01*
Y27858D01*
X18398D01*
Y27862D01*
X18387D01*
Y27865D01*
X18379D01*
Y27869D01*
X18372D01*
Y27873D01*
X18368D01*
Y27876D01*
X18361D01*
Y27880D01*
X18353D01*
Y27884D01*
X18346D01*
Y27887D01*
X18342D01*
Y27891D01*
X18335D01*
Y27895D01*
X18331D01*
Y27899D01*
X18324D01*
Y27902D01*
X18316D01*
Y27906D01*
X18312D01*
Y27910D01*
X18305D01*
Y27913D01*
X18301D01*
Y27917D01*
X18298D01*
Y27921D01*
X18290D01*
Y27925D01*
X18286D01*
Y27928D01*
X18279D01*
Y27932D01*
X18275D01*
Y27936D01*
X18272D01*
Y27939D01*
X18268D01*
Y27943D01*
X18264D01*
Y27947D01*
X18257D01*
Y27951D01*
X18253D01*
Y27954D01*
X18249D01*
Y27958D01*
X18246D01*
Y27962D01*
X18242D01*
Y27965D01*
X18235D01*
Y27969D01*
X18231D01*
Y27973D01*
X18227D01*
Y27976D01*
X18223D01*
Y27980D01*
X18220D01*
Y27984D01*
X18216D01*
Y27988D01*
X18212D01*
Y27991D01*
X18209D01*
Y27995D01*
X18205D01*
Y27999D01*
X18201D01*
Y28002D01*
X18198D01*
Y28006D01*
X18194D01*
Y28010D01*
X18190D01*
Y28014D01*
X18186D01*
Y28021D01*
X18183D01*
Y28025D01*
X18179D01*
Y28028D01*
X18175D01*
Y28032D01*
X18172D01*
Y28036D01*
X18168D01*
Y28040D01*
X18164D01*
Y28047D01*
X18160D01*
Y28051D01*
X18157D01*
Y28054D01*
X18153D01*
Y28058D01*
X18149D01*
Y28065D01*
X18146D01*
Y28069D01*
X18142D01*
Y28077D01*
X18138D01*
Y28080D01*
X18134D01*
Y28088D01*
X18131D01*
Y28091D01*
X18127D01*
Y28099D01*
X18123D01*
Y28103D01*
X18120D01*
Y28110D01*
X18116D01*
Y28117D01*
X18112D01*
Y28125D01*
X18109D01*
Y28129D01*
X18105D01*
Y28136D01*
X18101D01*
Y28143D01*
X18097D01*
Y28151D01*
X18094D01*
Y28158D01*
X18090D01*
Y28169D01*
X18086D01*
Y28177D01*
X18083D01*
Y28188D01*
X18079D01*
Y28195D01*
X18075D01*
Y28206D01*
X18071D01*
Y28217D01*
X18068D01*
Y28232D01*
X18064D01*
Y28243D01*
X18060D01*
Y28262D01*
X18057D01*
Y28277D01*
X18053D01*
Y28299D01*
X18049D01*
Y28314D01*
X18045D01*
Y28358D01*
X18042D01*
Y28395D01*
X18038D01*
Y28407D01*
X18042D01*
Y28451D01*
X18045D01*
Y28499D01*
X18049D01*
Y28525D01*
X18053D01*
Y28540D01*
X18057D01*
Y28559D01*
X18060D01*
Y28581D01*
X18064D01*
Y28596D01*
X18068D01*
Y28611D01*
X18071D01*
Y28622D01*
X18075D01*
Y28637D01*
X18079D01*
Y28648D01*
X18083D01*
Y28659D01*
X18086D01*
Y28666D01*
X18090D01*
Y28677D01*
X18094D01*
Y28685D01*
X18097D01*
Y28696D01*
X18101D01*
Y28703D01*
X18105D01*
Y28714D01*
X18109D01*
Y28722D01*
X18112D01*
Y28729D01*
X18116D01*
Y28737D01*
X18120D01*
Y28744D01*
X18123D01*
Y28751D01*
X18127D01*
Y28755D01*
X18131D01*
Y28763D01*
X18134D01*
Y28770D01*
X18138D01*
Y28774D01*
X18142D01*
Y28781D01*
X18146D01*
Y28789D01*
X18149D01*
Y28792D01*
X18153D01*
Y28800D01*
X18157D01*
Y28807D01*
X18160D01*
Y28811D01*
X18164D01*
Y28818D01*
X18168D01*
Y28822D01*
X18172D01*
Y28829D01*
X18175D01*
Y28833D01*
X18179D01*
Y28837D01*
X18183D01*
Y28844D01*
X18186D01*
Y28848D01*
X18190D01*
Y28852D01*
X18194D01*
Y28855D01*
X18198D01*
Y28863D01*
X18201D01*
Y28866D01*
X18205D01*
Y28870D01*
X18209D01*
Y28874D01*
X18212D01*
Y28878D01*
X18216D01*
Y28885D01*
X18220D01*
Y28889D01*
X18223D01*
Y28892D01*
X18227D01*
Y28896D01*
X18231D01*
Y28900D01*
X18235D01*
Y28903D01*
X18238D01*
Y28907D01*
X18242D01*
Y28911D01*
X18246D01*
Y28915D01*
X18249D01*
Y28918D01*
X18253D01*
Y28922D01*
X18257D01*
Y28926D01*
X18261D01*
Y28929D01*
X18264D01*
Y28933D01*
X18268D01*
Y28937D01*
X18275D01*
Y28941D01*
X18279D01*
Y28944D01*
X18283D01*
Y28948D01*
X18286D01*
Y28952D01*
X18290D01*
Y28955D01*
X18298D01*
Y28959D01*
X18301D01*
Y28963D01*
X18305D01*
Y28967D01*
X18312D01*
Y28970D01*
X18316D01*
Y28974D01*
X18324D01*
Y28978D01*
X18327D01*
Y28981D01*
X18335D01*
Y28985D01*
X18338D01*
Y28989D01*
X18346D01*
Y28992D01*
X18350D01*
Y28996D01*
X18357D01*
Y29000D01*
X18364D01*
Y29004D01*
X18372D01*
Y29007D01*
X18379D01*
Y29011D01*
X18387D01*
Y29015D01*
X18390D01*
Y29018D01*
X18401D01*
Y29022D01*
X18409D01*
Y29026D01*
X18416D01*
Y29030D01*
X18424D01*
Y29033D01*
X18431D01*
Y29037D01*
X18439D01*
Y29041D01*
X18450D01*
Y29044D01*
X18461D01*
Y29048D01*
X18472D01*
Y29052D01*
X18483D01*
Y29056D01*
X18494D01*
Y29059D01*
X18505D01*
Y29063D01*
X18516D01*
Y29067D01*
X18531D01*
Y29070D01*
X18546D01*
Y29074D01*
X18561D01*
Y29078D01*
X18579D01*
Y29081D01*
X18598D01*
Y29085D01*
X18613D01*
Y29089D01*
X18635D01*
Y29093D01*
X18654D01*
Y29096D01*
X18683D01*
Y29100D01*
X18750D01*
Y29104D01*
X18765D01*
Y29107D01*
X19755D01*
Y29104D01*
X19762D01*
Y29100D01*
X19766D01*
Y27517D01*
X19762D01*
Y27502D01*
X19766D01*
Y27461D01*
X19773D01*
Y27465D01*
X19777D01*
Y27472D01*
X19781D01*
Y27476D01*
X19785D01*
Y27483D01*
X19788D01*
Y27487D01*
X19792D01*
Y27491D01*
X19796D01*
Y27494D01*
X19799D01*
Y27498D01*
X19803D01*
Y27502D01*
X19807D01*
Y27506D01*
X19810D01*
Y27509D01*
X19818D01*
Y27513D01*
X19822D01*
Y27517D01*
X19825D01*
Y27520D01*
X19833D01*
Y27524D01*
X19840D01*
Y27528D01*
X19848D01*
Y27532D01*
X19855D01*
Y27535D01*
X19866D01*
Y27539D01*
X19877D01*
Y27543D01*
X19892D01*
Y27546D01*
X19955D01*
Y27543D01*
X19974D01*
Y27539D01*
X19985D01*
Y27535D01*
X19996D01*
Y27532D01*
X20003D01*
Y27528D01*
X20011D01*
Y27532D01*
X20014D01*
Y27539D01*
X20018D01*
Y27543D01*
X20022D01*
Y27550D01*
X20026D01*
Y27554D01*
X20029D01*
Y27557D01*
X20033D01*
Y27565D01*
X20037D01*
Y27569D01*
X20040D01*
Y27576D01*
X20044D01*
Y27580D01*
X20048D01*
Y27583D01*
X20052D01*
Y27587D01*
X20055D01*
Y27595D01*
X20059D01*
Y27598D01*
X20063D01*
Y27602D01*
X20066D01*
Y27609D01*
X20070D01*
Y27613D01*
X20074D01*
Y27617D01*
X20077D01*
Y27621D01*
X20081D01*
Y27624D01*
X20085D01*
Y27628D01*
X20089D01*
Y27635D01*
X20092D01*
Y27639D01*
X20096D01*
Y27643D01*
X20100D01*
Y27646D01*
X20103D01*
Y27650D01*
X20107D01*
Y27654D01*
X20111D01*
Y27658D01*
X20115D01*
Y27661D01*
X20118D01*
Y27665D01*
X20122D01*
Y27669D01*
X20126D01*
Y27672D01*
X20129D01*
Y27676D01*
X20133D01*
Y27680D01*
X20137D01*
Y27684D01*
X20141D01*
Y27687D01*
X20144D01*
Y27691D01*
X20148D01*
Y27695D01*
X20152D01*
Y27698D01*
X20155D01*
Y27702D01*
X20159D01*
Y27706D01*
X20166D01*
Y27710D01*
X20170D01*
Y27713D01*
X20174D01*
Y27717D01*
X20178D01*
Y27721D01*
X20181D01*
Y27724D01*
X20185D01*
Y27728D01*
X20192D01*
Y27732D01*
X20196D01*
Y27735D01*
X20200D01*
Y27739D01*
X20204D01*
Y27743D01*
X20211D01*
Y27747D01*
X20215D01*
Y27750D01*
X20218D01*
Y27754D01*
X20222D01*
Y27758D01*
X20229D01*
Y27761D01*
X20233D01*
Y27765D01*
X20237D01*
Y27769D01*
X20244D01*
Y27773D01*
X20248D01*
Y27776D01*
X20252D01*
Y27780D01*
X20259D01*
Y27784D01*
X20263D01*
Y27787D01*
X20267D01*
Y27791D01*
X20274D01*
Y27795D01*
X20278D01*
Y27798D01*
X20285D01*
Y27802D01*
X20289D01*
Y27806D01*
X20296D01*
Y27810D01*
X20300D01*
Y27813D01*
X20304D01*
Y27817D01*
X20311D01*
Y27821D01*
X20315D01*
Y27824D01*
X20322D01*
Y27828D01*
X20326D01*
Y27832D01*
X20333D01*
Y27836D01*
X20337D01*
Y27839D01*
X20344D01*
Y27843D01*
X20352D01*
Y27847D01*
X20356D01*
Y27850D01*
X20363D01*
Y27854D01*
X20370D01*
Y27858D01*
X20374D01*
Y27862D01*
X20382D01*
Y27865D01*
X20389D01*
Y27869D01*
X20393D01*
Y27873D01*
X20404D01*
Y27876D01*
X20411D01*
Y27880D01*
X20415D01*
Y27884D01*
X20422D01*
Y27887D01*
X20430D01*
Y27891D01*
X20433D01*
Y27895D01*
X20441D01*
Y27899D01*
X20448D01*
Y27902D01*
X20456D01*
Y27906D01*
X20463D01*
Y27910D01*
X20471D01*
Y27913D01*
X20478D01*
Y27917D01*
X20485D01*
Y27921D01*
X20493D01*
Y27925D01*
X20500D01*
Y27928D01*
X20508D01*
Y27932D01*
X20515D01*
Y27936D01*
X20522D01*
Y27939D01*
X20534D01*
Y27943D01*
X20541D01*
Y27947D01*
X20548D01*
Y27951D01*
X20556D01*
Y27954D01*
X20563D01*
Y27958D01*
X20571D01*
Y27962D01*
X20582D01*
Y27965D01*
X20589D01*
Y27969D01*
X20600D01*
Y27973D01*
X20608D01*
Y27976D01*
X20615D01*
Y27980D01*
X20626D01*
Y27984D01*
X20637D01*
Y27988D01*
X20648D01*
Y27991D01*
X20660D01*
Y27995D01*
X20667D01*
Y27999D01*
X20674D01*
Y28002D01*
X20682D01*
Y28006D01*
X20693D01*
Y28010D01*
X20700D01*
Y28014D01*
X20712D01*
Y28017D01*
X20719D01*
Y28021D01*
X20730D01*
Y28025D01*
X20741D01*
Y28028D01*
X20749D01*
Y28032D01*
X20760D01*
Y28036D01*
X20767D01*
Y28040D01*
X20775D01*
Y28043D01*
X20782D01*
Y28047D01*
X20793D01*
Y28051D01*
X20801D01*
Y28054D01*
X20812D01*
Y28058D01*
X20819D01*
Y28062D01*
X20826D01*
Y28065D01*
X20838D01*
Y28069D01*
X20845D01*
Y28073D01*
X20856D01*
Y28077D01*
X20864D01*
Y28080D01*
X20871D01*
Y28084D01*
X20878D01*
Y28088D01*
X20886D01*
Y28091D01*
X20893D01*
Y28095D01*
X20904D01*
Y28099D01*
X20912D01*
Y28103D01*
X20919D01*
Y28106D01*
X20927D01*
Y28110D01*
X20934D01*
Y28114D01*
X20941D01*
Y28117D01*
X20949D01*
Y28121D01*
X20956D01*
Y28125D01*
X20960D01*
Y28129D01*
X20967D01*
Y28132D01*
X20975D01*
Y28136D01*
X20979D01*
Y28140D01*
X20986D01*
Y28143D01*
X20993D01*
Y28147D01*
X21001D01*
Y28151D01*
X21008D01*
Y28154D01*
X21016D01*
Y28158D01*
X21019D01*
Y28162D01*
X21027D01*
Y28166D01*
X21034D01*
Y28169D01*
X21038D01*
Y28173D01*
X21042D01*
Y28177D01*
X21049D01*
Y28180D01*
X21056D01*
Y28184D01*
X21064D01*
Y28188D01*
X21068D01*
Y28192D01*
X21075D01*
Y28195D01*
X21079D01*
Y28199D01*
X21082D01*
Y28203D01*
X21086D01*
Y28206D01*
X21093D01*
Y28210D01*
X21097D01*
Y28214D01*
X21105D01*
Y28217D01*
X21108D01*
Y28221D01*
X21112D01*
Y28225D01*
X21119D01*
Y28229D01*
X21123D01*
Y28232D01*
X21131D01*
Y28236D01*
X21134D01*
Y28240D01*
X21138D01*
Y28243D01*
X21145D01*
Y28247D01*
X21149D01*
Y28251D01*
X21153D01*
Y28255D01*
X21156D01*
Y28258D01*
X21160D01*
Y28262D01*
X21164D01*
Y28266D01*
X21168D01*
Y28269D01*
X21171D01*
Y28273D01*
X21175D01*
Y28277D01*
X21179D01*
Y28281D01*
X21182D01*
Y28284D01*
X21186D01*
Y28288D01*
X21190D01*
Y28292D01*
X21194D01*
Y28295D01*
X21197D01*
Y28303D01*
X21201D01*
Y28306D01*
X21205D01*
Y28310D01*
X21208D01*
Y28318D01*
X21212D01*
Y28321D01*
X21216D01*
Y28329D01*
X21220D01*
Y28332D01*
X21223D01*
Y28340D01*
X21227D01*
Y28344D01*
X21231D01*
Y28351D01*
X21234D01*
Y28358D01*
X21238D01*
Y28362D01*
X21242D01*
Y28370D01*
X21245D01*
Y28381D01*
X21249D01*
Y28388D01*
X21253D01*
Y28399D01*
X21257D01*
Y28410D01*
X21260D01*
Y28425D01*
X21264D01*
Y28436D01*
X21268D01*
Y28459D01*
X21271D01*
Y28570D01*
X21268D01*
Y28585D01*
X21264D01*
Y28599D01*
X21260D01*
Y28614D01*
X21257D01*
Y28625D01*
X21253D01*
Y28633D01*
X21249D01*
Y28640D01*
X21245D01*
Y28651D01*
X21242D01*
Y28659D01*
X21238D01*
Y28662D01*
X21234D01*
Y28670D01*
X21231D01*
Y28677D01*
X21227D01*
Y28681D01*
X21223D01*
Y28688D01*
X21220D01*
Y28692D01*
X21216D01*
Y28700D01*
X21212D01*
Y28703D01*
X21208D01*
Y28707D01*
X21205D01*
Y28714D01*
X21201D01*
Y28718D01*
X21197D01*
Y28722D01*
X21194D01*
Y28725D01*
X21190D01*
Y28729D01*
X21186D01*
Y28733D01*
X21182D01*
Y28737D01*
X21179D01*
Y28740D01*
X21175D01*
Y28744D01*
X21171D01*
Y28748D01*
X21168D01*
Y28751D01*
X21160D01*
Y28755D01*
X21156D01*
Y28759D01*
X21153D01*
Y28763D01*
X21149D01*
Y28766D01*
X21142D01*
Y28770D01*
X21138D01*
Y28774D01*
X21131D01*
Y28777D01*
X21127D01*
Y28781D01*
X21123D01*
Y28785D01*
X21116D01*
Y28789D01*
X21108D01*
Y28792D01*
X21105D01*
Y28796D01*
X21097D01*
Y28800D01*
X21090D01*
Y28803D01*
X21082D01*
Y28807D01*
X21075D01*
Y28811D01*
X21068D01*
Y28814D01*
X21056D01*
Y28818D01*
X21049D01*
Y28822D01*
X21042D01*
Y28826D01*
X21030D01*
Y28829D01*
X21023D01*
Y28833D01*
X21008D01*
Y28837D01*
X20997D01*
Y28840D01*
X20986D01*
Y28844D01*
X20967D01*
Y28848D01*
X20956D01*
Y28852D01*
X20938D01*
Y28855D01*
X20912D01*
Y28859D01*
X20893D01*
Y28863D01*
X20830D01*
Y28866D01*
X20767D01*
Y28863D01*
X20704D01*
Y28859D01*
X20689D01*
Y28855D01*
X20663D01*
Y28852D01*
X20648D01*
Y28848D01*
X20630D01*
Y28844D01*
X20615D01*
Y28840D01*
X20597D01*
Y28837D01*
X20585D01*
Y28833D01*
X20578D01*
Y28829D01*
X20567D01*
Y28826D01*
X20559D01*
Y28822D01*
X20548D01*
Y28818D01*
X20541D01*
Y28814D01*
X20534D01*
Y28811D01*
X20526D01*
Y28807D01*
X20519D01*
Y28803D01*
X20511D01*
Y28800D01*
X20504D01*
Y28796D01*
X20496D01*
Y28792D01*
X20489D01*
Y28789D01*
X20482D01*
Y28785D01*
X20478D01*
Y28781D01*
X20471D01*
Y28777D01*
X20467D01*
Y28774D01*
X20459D01*
Y28770D01*
X20456D01*
Y28766D01*
X20448D01*
Y28763D01*
X20445D01*
Y28759D01*
X20441D01*
Y28755D01*
X20437D01*
Y28751D01*
X20430D01*
Y28748D01*
X20426D01*
Y28744D01*
X20422D01*
Y28740D01*
X20415D01*
Y28737D01*
X20411D01*
Y28733D01*
X20407D01*
Y28729D01*
X20404D01*
Y28725D01*
X20400D01*
Y28722D01*
X20396D01*
Y28718D01*
X20393D01*
Y28714D01*
X20389D01*
Y28711D01*
X20385D01*
Y28707D01*
X20382D01*
Y28703D01*
X20378D01*
Y28700D01*
X20374D01*
Y28696D01*
X20370D01*
Y28692D01*
X20367D01*
Y28685D01*
X20363D01*
Y28681D01*
X20359D01*
Y28677D01*
X20356D01*
Y28670D01*
X20352D01*
Y28666D01*
X20348D01*
Y28659D01*
X20344D01*
Y28655D01*
X20341D01*
Y28648D01*
X20337D01*
Y28640D01*
X20333D01*
Y28633D01*
X20330D01*
Y28625D01*
X20326D01*
Y28622D01*
X20322D01*
Y28614D01*
X20318D01*
Y28603D01*
X20315D01*
Y28599D01*
X20293D01*
Y28603D01*
X20281D01*
Y28607D01*
X20270D01*
Y28611D01*
X20259D01*
Y28614D01*
X20252D01*
Y28618D01*
X20241D01*
Y28622D01*
X20229D01*
Y28625D01*
X20218D01*
Y28629D01*
X20207D01*
Y28633D01*
X20200D01*
Y28637D01*
X20189D01*
Y28640D01*
X20178D01*
Y28644D01*
X20166D01*
Y28648D01*
X20155D01*
Y28651D01*
X20144D01*
Y28655D01*
X20133D01*
Y28659D01*
X20122D01*
Y28662D01*
X20111D01*
Y28666D01*
X20103D01*
Y28670D01*
X20092D01*
Y28674D01*
X20081D01*
Y28677D01*
X20070D01*
Y28681D01*
X20055D01*
Y28685D01*
X20040D01*
Y28688D01*
X20033D01*
Y28703D01*
X20037D01*
Y28711D01*
X20040D01*
Y28722D01*
X20044D01*
Y28733D01*
X20048D01*
Y28744D01*
X20052D01*
Y28755D01*
X20055D01*
Y28763D01*
X20059D01*
Y28770D01*
X20063D01*
Y28777D01*
X20066D01*
Y28785D01*
X20070D01*
Y28792D01*
X20074D01*
Y28800D01*
X20077D01*
Y28807D01*
X20081D01*
Y28811D01*
X20085D01*
Y28818D01*
X20089D01*
Y28822D01*
X20092D01*
Y28829D01*
X20096D01*
Y28833D01*
X20100D01*
Y28840D01*
X20103D01*
Y28844D01*
X20107D01*
Y28848D01*
X20111D01*
Y28852D01*
X20115D01*
Y28859D01*
X20118D01*
Y28863D01*
X20122D01*
Y28870D01*
X20126D01*
Y28874D01*
X20129D01*
Y28878D01*
X20133D01*
Y28885D01*
X20137D01*
Y28889D01*
X20141D01*
Y28892D01*
X20144D01*
Y28896D01*
X20148D01*
Y28900D01*
X20152D01*
Y28903D01*
X20155D01*
Y28907D01*
X20159D01*
Y28911D01*
X20163D01*
Y28915D01*
X20166D01*
Y28918D01*
X20170D01*
Y28922D01*
X20174D01*
Y28926D01*
X20178D01*
Y28929D01*
X20181D01*
Y28933D01*
X20185D01*
Y28937D01*
X20189D01*
Y28941D01*
X20192D01*
Y28944D01*
X20196D01*
Y28948D01*
X20204D01*
Y28952D01*
X20207D01*
Y28955D01*
X20211D01*
Y28959D01*
X20215D01*
Y28963D01*
X20222D01*
Y28967D01*
X20226D01*
Y28970D01*
X20229D01*
Y28974D01*
X20233D01*
Y28978D01*
X20241D01*
Y28981D01*
X20244D01*
Y28985D01*
X20248D01*
Y28989D01*
X20255D01*
Y28992D01*
X20259D01*
Y28996D01*
X20267D01*
Y29000D01*
X20274D01*
Y29004D01*
X20278D01*
Y29007D01*
X20285D01*
Y29011D01*
X20289D01*
Y29015D01*
X20296D01*
Y29018D01*
X20304D01*
Y29022D01*
X20307D01*
Y29026D01*
X20315D01*
Y29030D01*
X20322D01*
Y29033D01*
X20330D01*
Y29037D01*
X20337D01*
Y29041D01*
X20344D01*
Y29044D01*
X20352D01*
Y29048D01*
X20359D01*
Y29052D01*
X20367D01*
Y29056D01*
X20374D01*
Y29059D01*
X20385D01*
Y29063D01*
X20393D01*
Y29067D01*
X20404D01*
Y29070D01*
X20411D01*
Y29074D01*
X20422D01*
Y29078D01*
X20430D01*
Y29081D01*
X20445D01*
Y29085D01*
X20456D01*
Y29089D01*
X20467D01*
Y29093D01*
X20478D01*
Y29096D01*
X20489D01*
Y29100D01*
X20500D01*
Y29104D01*
X20519D01*
Y29107D01*
X20537D01*
Y29111D01*
X20556D01*
Y29115D01*
X20578D01*
Y29119D01*
X20593D01*
Y29122D01*
X20623D01*
Y29126D01*
X20674D01*
Y29130D01*
X20890D01*
Y29126D01*
D02*
G37*
G36*
X17734Y27795D02*
X17749D01*
Y27791D01*
X17764D01*
Y27787D01*
X17771D01*
Y27784D01*
X17779D01*
Y27780D01*
X17786D01*
Y27776D01*
X17793D01*
Y27773D01*
X17797D01*
Y27769D01*
X17804D01*
Y27765D01*
X17808D01*
Y27761D01*
X17812D01*
Y27758D01*
X17816D01*
Y27754D01*
X17819D01*
Y27750D01*
X17823D01*
Y27747D01*
X17827D01*
Y27739D01*
X17830D01*
Y27735D01*
X17834D01*
Y27728D01*
X17838D01*
Y27721D01*
X17842D01*
Y27713D01*
X17845D01*
Y27706D01*
X17849D01*
Y27695D01*
X17853D01*
Y27672D01*
X17856D01*
Y27639D01*
X17853D01*
Y27617D01*
X17849D01*
Y27606D01*
X17845D01*
Y27598D01*
X17842D01*
Y27591D01*
X17838D01*
Y27583D01*
X17834D01*
Y27580D01*
X17830D01*
Y27572D01*
X17827D01*
Y27569D01*
X17823D01*
Y27565D01*
X17819D01*
Y27561D01*
X17816D01*
Y27557D01*
X17812D01*
Y27554D01*
X17808D01*
Y27550D01*
X17804D01*
Y27546D01*
X17801D01*
Y27543D01*
X17797D01*
Y27539D01*
X17790D01*
Y27535D01*
X17782D01*
Y27532D01*
X17775D01*
Y27528D01*
X17767D01*
Y27524D01*
X17756D01*
Y27520D01*
X17738D01*
Y27517D01*
X17697D01*
Y27520D01*
X17678D01*
Y27524D01*
X17667D01*
Y27528D01*
X17660D01*
Y27532D01*
X17652D01*
Y27535D01*
X17645D01*
Y27539D01*
X17641D01*
Y27543D01*
X17634D01*
Y27546D01*
X17630D01*
Y27550D01*
X17623D01*
Y27554D01*
X17619D01*
Y27557D01*
X17615D01*
Y27561D01*
X17612D01*
Y27569D01*
X17608D01*
Y27572D01*
X17604D01*
Y27576D01*
X17601D01*
Y27583D01*
X17597D01*
Y27591D01*
X17593D01*
Y27595D01*
X17589D01*
Y27602D01*
X17586D01*
Y27613D01*
X17582D01*
Y27632D01*
X17578D01*
Y27684D01*
X17582D01*
Y27698D01*
X17586D01*
Y27710D01*
X17589D01*
Y27717D01*
X17593D01*
Y27724D01*
X17597D01*
Y27732D01*
X17601D01*
Y27739D01*
X17604D01*
Y27743D01*
X17608D01*
Y27747D01*
X17612D01*
Y27750D01*
X17615D01*
Y27754D01*
X17619D01*
Y27758D01*
X17623D01*
Y27761D01*
X17626D01*
Y27765D01*
X17630D01*
Y27769D01*
X17634D01*
Y27773D01*
X17641D01*
Y27776D01*
X17645D01*
Y27780D01*
X17652D01*
Y27784D01*
X17660D01*
Y27787D01*
X17671D01*
Y27791D01*
X17682D01*
Y27795D01*
X17697D01*
Y27798D01*
X17734D01*
Y27795D01*
D02*
G37*
G36*
X17849Y27457D02*
X17853D01*
Y27454D01*
X17856D01*
Y26879D01*
Y26875D01*
Y26404D01*
X17853D01*
Y26401D01*
X17849D01*
Y26397D01*
X17808D01*
Y26401D01*
X17782D01*
Y26397D01*
X17734D01*
Y26401D01*
X17708D01*
Y26397D01*
X17578D01*
Y26401D01*
X17575D01*
Y27457D01*
X17578D01*
Y27461D01*
X17849D01*
Y27457D01*
D02*
G37*
%LPC*%
G36*
X16785Y27528D02*
X16688D01*
Y27524D01*
X16666D01*
Y27520D01*
X16655D01*
Y27517D01*
X16651D01*
Y27506D01*
X16655D01*
Y27498D01*
X16659D01*
Y27491D01*
X16662D01*
Y27483D01*
X16666D01*
Y27476D01*
X16670D01*
Y27468D01*
X16674D01*
Y27461D01*
X16677D01*
Y27454D01*
X16681D01*
Y27443D01*
X16685D01*
Y27435D01*
X16688D01*
Y27428D01*
X16692D01*
Y27424D01*
X16696D01*
Y27413D01*
X16699D01*
Y27405D01*
X16703D01*
Y27398D01*
X16707D01*
Y27391D01*
X16711D01*
Y27379D01*
X16714D01*
Y27372D01*
X16718D01*
Y27365D01*
X16729D01*
Y27372D01*
X16733D01*
Y27379D01*
X16737D01*
Y27387D01*
X16740D01*
Y27398D01*
X16744D01*
Y27405D01*
X16748D01*
Y27417D01*
X16751D01*
Y27420D01*
X16755D01*
Y27428D01*
X16759D01*
Y27439D01*
X16763D01*
Y27443D01*
Y27446D01*
X16766D01*
Y27454D01*
X16770D01*
Y27465D01*
X16774D01*
Y27472D01*
X16777D01*
Y27480D01*
X16781D01*
Y27487D01*
X16785D01*
Y27494D01*
X16788D01*
Y27506D01*
X16792D01*
Y27513D01*
X16796D01*
Y27524D01*
X16785D01*
Y27528D01*
D02*
G37*
G36*
X17048Y27276D02*
X17037D01*
Y27268D01*
X17033D01*
Y27261D01*
X17029D01*
Y27253D01*
X17026D01*
Y27246D01*
X17022D01*
Y27239D01*
X17018D01*
Y27231D01*
X17015D01*
Y27224D01*
X17011D01*
Y27216D01*
X17007D01*
Y27209D01*
X17004D01*
Y27202D01*
X17000D01*
Y27194D01*
X16996D01*
Y27187D01*
X16992D01*
Y27179D01*
X16989D01*
Y27172D01*
X16985D01*
Y27168D01*
X16981D01*
Y27161D01*
X16978D01*
Y27153D01*
X16974D01*
Y27146D01*
X16970D01*
Y27138D01*
X16966D01*
Y27131D01*
X16963D01*
Y27124D01*
X16959D01*
Y27116D01*
X16955D01*
Y27109D01*
X16952D01*
Y27101D01*
X16948D01*
Y27090D01*
X16944D01*
Y27087D01*
X16940D01*
Y27079D01*
X16937D01*
Y27072D01*
X16933D01*
Y27061D01*
X16929D01*
Y27053D01*
X16926D01*
Y27046D01*
X16922D01*
Y27038D01*
X16918D01*
Y27031D01*
X16915D01*
Y27024D01*
X16911D01*
Y27016D01*
X16907D01*
Y27009D01*
X16903D01*
Y27001D01*
X16900D01*
Y26994D01*
X16896D01*
Y26986D01*
X16892D01*
Y26979D01*
X16889D01*
Y26972D01*
X16885D01*
Y26964D01*
X16881D01*
Y26957D01*
X16877D01*
Y26946D01*
X16874D01*
Y26938D01*
X16870D01*
Y26931D01*
X16866D01*
Y26927D01*
X16863D01*
Y26920D01*
X16859D01*
Y26912D01*
X16855D01*
Y26905D01*
X16852D01*
Y26897D01*
X16848D01*
Y26890D01*
X16844D01*
Y26883D01*
X16840D01*
Y26875D01*
X16837D01*
Y26868D01*
X16833D01*
Y26860D01*
X16829D01*
Y26849D01*
X16826D01*
Y26842D01*
X16822D01*
Y26834D01*
X16818D01*
Y26827D01*
X16814D01*
Y26820D01*
X16811D01*
Y26812D01*
X16807D01*
Y26805D01*
X16803D01*
Y26797D01*
X16800D01*
Y26790D01*
X16796D01*
Y26783D01*
X16792D01*
Y26775D01*
X16788D01*
Y26768D01*
X16785D01*
Y26760D01*
X16781D01*
Y26753D01*
X16777D01*
Y26745D01*
X16774D01*
Y26738D01*
X16770D01*
Y26731D01*
X16766D01*
Y26723D01*
X16763D01*
Y26716D01*
X16759D01*
Y26712D01*
X16755D01*
Y26708D01*
X16751D01*
Y26705D01*
X16737D01*
Y26708D01*
X16733D01*
Y26716D01*
X16729D01*
Y26723D01*
X16725D01*
Y26731D01*
X16722D01*
Y26738D01*
X16718D01*
Y26745D01*
X16714D01*
Y26753D01*
X16711D01*
Y26757D01*
X16707D01*
Y26764D01*
X16703D01*
Y26771D01*
X16699D01*
Y26779D01*
X16696D01*
Y26786D01*
X16692D01*
Y26794D01*
X16688D01*
Y26801D01*
X16685D01*
Y26808D01*
X16681D01*
Y26812D01*
X16677D01*
Y26820D01*
X16674D01*
Y26827D01*
X16670D01*
Y26834D01*
X16666D01*
Y26842D01*
X16662D01*
Y26849D01*
X16659D01*
Y26857D01*
X16655D01*
Y26864D01*
X16651D01*
Y26868D01*
X16648D01*
Y26875D01*
X16644D01*
Y26883D01*
X16640D01*
Y26890D01*
X16636D01*
Y26897D01*
X16633D01*
Y26905D01*
X16629D01*
Y26912D01*
X16625D01*
Y26920D01*
X16622D01*
Y26927D01*
X16618D01*
Y26931D01*
X16614D01*
Y26938D01*
X16610D01*
Y26946D01*
X16607D01*
Y26953D01*
X16603D01*
Y26960D01*
X16599D01*
Y26968D01*
X16596D01*
Y26975D01*
X16592D01*
Y26983D01*
X16588D01*
Y26986D01*
X16585D01*
Y26994D01*
X16581D01*
Y27001D01*
X16577D01*
Y27009D01*
X16573D01*
Y27016D01*
X16570D01*
Y27020D01*
X16566D01*
Y27027D01*
X16562D01*
Y27035D01*
X16559D01*
Y27042D01*
X16555D01*
Y27049D01*
X16551D01*
Y27057D01*
X16547D01*
Y27064D01*
X16544D01*
Y27068D01*
X16540D01*
Y27075D01*
X16536D01*
Y27083D01*
X16533D01*
Y27090D01*
X16529D01*
Y27098D01*
X16525D01*
Y27105D01*
X16521D01*
Y27113D01*
X16518D01*
Y27116D01*
X16514D01*
Y27124D01*
X16510D01*
Y27131D01*
X16507D01*
Y27135D01*
X16503D01*
Y27142D01*
X16499D01*
Y27150D01*
X16496D01*
Y27157D01*
X16492D01*
Y27164D01*
X16488D01*
Y27172D01*
X16484D01*
Y27179D01*
X16481D01*
Y27183D01*
X16477D01*
Y27190D01*
X16473D01*
Y27198D01*
X16470D01*
Y27202D01*
X16466D01*
Y27209D01*
X16462D01*
Y27216D01*
X16458D01*
Y27224D01*
X16455D01*
Y27231D01*
X16451D01*
Y27239D01*
X16447D01*
Y27246D01*
X16444D01*
Y27253D01*
X16440D01*
Y27261D01*
X16436D01*
Y27268D01*
X16432D01*
Y27272D01*
X16425D01*
Y27265D01*
X16421D01*
Y27253D01*
X16418D01*
Y27250D01*
Y27242D01*
X16414D01*
Y27224D01*
X16410D01*
Y27209D01*
X16407D01*
Y27194D01*
X16403D01*
Y27172D01*
X16399D01*
Y27153D01*
X16395D01*
Y27105D01*
X16392D01*
Y27031D01*
X16395D01*
Y26983D01*
X16399D01*
Y26964D01*
X16403D01*
Y26942D01*
X16407D01*
Y26923D01*
X16410D01*
Y26909D01*
X16414D01*
Y26894D01*
X16418D01*
Y26883D01*
X16421D01*
Y26871D01*
X16425D01*
Y26860D01*
X16429D01*
Y26849D01*
X16432D01*
Y26838D01*
X16436D01*
Y26831D01*
X16440D01*
Y26823D01*
X16444D01*
Y26816D01*
X16447D01*
Y26808D01*
X16451D01*
Y26801D01*
X16455D01*
Y26794D01*
X16458D01*
Y26786D01*
X16462D01*
Y26779D01*
X16466D01*
Y26771D01*
X16470D01*
Y26768D01*
X16473D01*
Y26760D01*
X16477D01*
Y26753D01*
X16481D01*
Y26749D01*
X16484D01*
Y26742D01*
X16488D01*
Y26738D01*
X16492D01*
Y26734D01*
X16496D01*
Y26727D01*
X16499D01*
Y26723D01*
X16503D01*
Y26719D01*
X16507D01*
Y26716D01*
X16510D01*
Y26712D01*
X16514D01*
Y26708D01*
X16518D01*
Y26701D01*
X16521D01*
Y26697D01*
X16525D01*
Y26694D01*
X16529D01*
Y26690D01*
X16536D01*
Y26686D01*
X16540D01*
Y26682D01*
X16544D01*
Y26679D01*
X16547D01*
Y26675D01*
X16555D01*
Y26671D01*
X16559D01*
Y26668D01*
X16562D01*
Y26664D01*
X16570D01*
Y26660D01*
X16573D01*
Y26656D01*
X16581D01*
Y26653D01*
X16585D01*
Y26649D01*
X16592D01*
Y26645D01*
X16599D01*
Y26642D01*
X16607D01*
Y26638D01*
X16614D01*
Y26634D01*
X16622D01*
Y26630D01*
X16633D01*
Y26627D01*
X16640D01*
Y26623D01*
X16651D01*
Y26619D01*
X16666D01*
Y26616D01*
X16685D01*
Y26612D01*
X16714D01*
Y26608D01*
X16725D01*
Y26605D01*
X16755D01*
Y26608D01*
X16774D01*
Y26612D01*
X16800D01*
Y26616D01*
X16818D01*
Y26619D01*
X16833D01*
Y26623D01*
X16844D01*
Y26627D01*
X16855D01*
Y26630D01*
X16863D01*
Y26634D01*
X16870D01*
Y26638D01*
X16877D01*
Y26642D01*
X16885D01*
Y26645D01*
X16892D01*
Y26649D01*
X16896D01*
Y26653D01*
X16903D01*
Y26656D01*
X16907D01*
Y26660D01*
X16915D01*
Y26664D01*
X16918D01*
Y26668D01*
X16922D01*
Y26671D01*
X16926D01*
Y26675D01*
X16929D01*
Y26679D01*
X16937D01*
Y26682D01*
X16940D01*
Y26686D01*
X16944D01*
Y26690D01*
X16948D01*
Y26694D01*
X16952D01*
Y26697D01*
X16955D01*
Y26701D01*
X16959D01*
Y26705D01*
X16963D01*
Y26708D01*
X16966D01*
Y26712D01*
X16970D01*
Y26719D01*
X16974D01*
Y26723D01*
X16978D01*
Y26727D01*
X16981D01*
Y26734D01*
X16985D01*
Y26738D01*
X16989D01*
Y26745D01*
X16992D01*
Y26749D01*
X16996D01*
Y26757D01*
X17000D01*
Y26760D01*
X17004D01*
Y26768D01*
X17007D01*
Y26775D01*
X17011D01*
Y26783D01*
X17015D01*
Y26786D01*
X17018D01*
Y26794D01*
X17022D01*
Y26801D01*
X17026D01*
Y26808D01*
X17029D01*
Y26820D01*
X17033D01*
Y26827D01*
X17037D01*
Y26834D01*
X17041D01*
Y26846D01*
X17044D01*
Y26857D01*
X17048D01*
Y26868D01*
X17052D01*
Y26879D01*
X17055D01*
Y26894D01*
X17059D01*
Y26909D01*
X17063D01*
Y26920D01*
X17067D01*
Y26938D01*
X17070D01*
Y26964D01*
X17074D01*
Y27005D01*
X17078D01*
Y27124D01*
X17074D01*
Y27168D01*
X17070D01*
Y27190D01*
X17067D01*
Y27209D01*
X17063D01*
Y27220D01*
X17059D01*
Y27239D01*
X17055D01*
Y27253D01*
X17052D01*
Y27265D01*
X17048D01*
Y27276D01*
D02*
G37*
G36*
X19243Y28084D02*
X19184D01*
Y28080D01*
X19165D01*
Y28077D01*
X19158D01*
Y28073D01*
X19150D01*
Y28069D01*
X19143D01*
Y28065D01*
X19136D01*
Y28062D01*
X19128D01*
Y28058D01*
X19125D01*
Y28054D01*
X19121D01*
Y28051D01*
X19113D01*
Y28047D01*
X19110D01*
Y28043D01*
X19106D01*
Y28040D01*
X19102D01*
Y28036D01*
X19099D01*
Y28032D01*
X19095D01*
Y28025D01*
X19091D01*
Y28021D01*
X19087D01*
Y28014D01*
X19084D01*
Y28010D01*
X19080D01*
Y28002D01*
X19076D01*
Y27995D01*
X19073D01*
Y27984D01*
X19069D01*
Y27973D01*
X19065D01*
Y27954D01*
X19061D01*
Y27917D01*
X19065D01*
Y27902D01*
X19069D01*
Y27887D01*
X19073D01*
Y27880D01*
X19076D01*
Y27873D01*
X19080D01*
Y27862D01*
X19084D01*
Y27858D01*
X19087D01*
Y27850D01*
X19091D01*
Y27847D01*
X19095D01*
Y27843D01*
X19099D01*
Y27836D01*
X19102D01*
Y27832D01*
X19106D01*
Y27828D01*
X19110D01*
Y27824D01*
X19117D01*
Y27821D01*
X19121D01*
Y27817D01*
X19125D01*
Y27813D01*
X19132D01*
Y27810D01*
X19136D01*
Y27806D01*
X19143D01*
Y27802D01*
X19150D01*
Y27798D01*
X19158D01*
Y27795D01*
X19169D01*
Y27791D01*
X19184D01*
Y27787D01*
X19214D01*
Y27784D01*
X19221D01*
Y27787D01*
X19243D01*
Y27791D01*
X19258D01*
Y27795D01*
X19269D01*
Y27798D01*
X19277D01*
Y27802D01*
X19284D01*
Y27806D01*
X19291D01*
Y27810D01*
X19295D01*
Y27813D01*
X19302D01*
Y27817D01*
X19306D01*
Y27821D01*
X19310D01*
Y27824D01*
X19314D01*
Y27828D01*
X19317D01*
Y27832D01*
X19321D01*
Y27836D01*
X19325D01*
Y27839D01*
X19328D01*
Y27843D01*
X19332D01*
Y27847D01*
X19336D01*
Y27854D01*
X19340D01*
Y27858D01*
X19343D01*
Y27865D01*
X19347D01*
Y27873D01*
X19351D01*
Y27880D01*
X19354D01*
Y27891D01*
X19358D01*
Y27910D01*
X19362D01*
Y27962D01*
X19358D01*
Y27980D01*
X19354D01*
Y27988D01*
X19351D01*
Y27999D01*
X19347D01*
Y28006D01*
X19343D01*
Y28014D01*
X19340D01*
Y28017D01*
X19336D01*
Y28021D01*
X19332D01*
Y28028D01*
X19328D01*
Y28032D01*
X19325D01*
Y28036D01*
X19321D01*
Y28040D01*
X19317D01*
Y28043D01*
X19314D01*
Y28047D01*
X19310D01*
Y28051D01*
X19306D01*
Y28054D01*
X19302D01*
Y28058D01*
X19295D01*
Y28062D01*
X19291D01*
Y28065D01*
X19284D01*
Y28069D01*
X19277D01*
Y28073D01*
X19269D01*
Y28077D01*
X19258D01*
Y28080D01*
X19243D01*
Y28084D01*
D02*
G37*
G36*
X19510Y27769D02*
X19488D01*
Y27765D01*
X19469D01*
Y27761D01*
X19458D01*
Y27758D01*
X19451D01*
Y27754D01*
X19443D01*
Y27750D01*
X19436D01*
Y27747D01*
X19429D01*
Y27743D01*
X19425D01*
Y27739D01*
X19421D01*
Y27735D01*
X19414D01*
Y27732D01*
X19410D01*
Y27724D01*
X19406D01*
Y27721D01*
X19403D01*
Y27717D01*
X19399D01*
Y27713D01*
X19395D01*
Y27706D01*
X19391D01*
Y27702D01*
X19388D01*
Y27695D01*
X19384D01*
Y27691D01*
X19380D01*
Y27687D01*
X19377D01*
Y27680D01*
X19369D01*
Y27676D01*
X19047D01*
Y27680D01*
X19043D01*
Y27684D01*
X19036D01*
Y27691D01*
X19032D01*
Y27695D01*
X19028D01*
Y27702D01*
X19024D01*
Y27706D01*
X19021D01*
Y27710D01*
X19017D01*
Y27713D01*
X19013D01*
Y27717D01*
X19010D01*
Y27721D01*
X19006D01*
Y27724D01*
X19002D01*
Y27728D01*
X18998D01*
Y27732D01*
X18995D01*
Y27735D01*
X18991D01*
Y27739D01*
X18984D01*
Y27743D01*
X18980D01*
Y27747D01*
X18972D01*
Y27750D01*
X18965D01*
Y27754D01*
X18958D01*
Y27758D01*
X18950D01*
Y27761D01*
X18935D01*
Y27765D01*
X18895D01*
Y27761D01*
X18880D01*
Y27758D01*
X18869D01*
Y27754D01*
X18861D01*
Y27750D01*
X18858D01*
Y27747D01*
X18850D01*
Y27743D01*
X18846D01*
Y27739D01*
X18843D01*
Y27735D01*
X18835D01*
Y27732D01*
X18832D01*
Y27724D01*
X18828D01*
Y27721D01*
X18824D01*
Y27717D01*
X18820D01*
Y27710D01*
X18817D01*
Y27706D01*
X18813D01*
Y27695D01*
X18809D01*
Y27684D01*
X18806D01*
Y27669D01*
X18802D01*
Y27643D01*
X18806D01*
Y27624D01*
X18809D01*
Y27613D01*
X18813D01*
Y27606D01*
X18817D01*
Y27598D01*
X18820D01*
Y27595D01*
X18824D01*
Y27587D01*
X18828D01*
Y27583D01*
X18832D01*
Y27580D01*
X18835D01*
Y27576D01*
X18839D01*
Y27572D01*
X18843D01*
Y27569D01*
X18846D01*
Y27565D01*
X18854D01*
Y27561D01*
X18858D01*
Y27557D01*
X18865D01*
Y27554D01*
X18872D01*
Y27550D01*
X18883D01*
Y27546D01*
X18895D01*
Y27543D01*
X18898D01*
Y27465D01*
X18895D01*
Y27461D01*
X18802D01*
Y27465D01*
X18798D01*
Y27468D01*
X18794D01*
Y27472D01*
X18791D01*
Y27476D01*
X18787D01*
Y27483D01*
X18783D01*
Y27487D01*
X18780D01*
Y27491D01*
X18776D01*
Y27498D01*
X18772D01*
Y27502D01*
X18769D01*
Y27506D01*
X18765D01*
Y27509D01*
X18761D01*
Y27517D01*
X18757D01*
Y27520D01*
X18754D01*
Y27524D01*
X18750D01*
Y27532D01*
X18746D01*
Y27535D01*
X18743D01*
Y27539D01*
X18739D01*
Y27546D01*
X18735D01*
Y27550D01*
X18731D01*
Y27554D01*
X18728D01*
Y27557D01*
X18724D01*
Y27565D01*
X18720D01*
Y27569D01*
X18717D01*
Y27576D01*
X18713D01*
Y27580D01*
X18709D01*
Y27583D01*
X18706D01*
Y27587D01*
X18702D01*
Y27595D01*
X18698D01*
Y27598D01*
X18694D01*
Y27602D01*
X18691D01*
Y27606D01*
X18687D01*
Y27621D01*
X18691D01*
Y27624D01*
X18694D01*
Y27628D01*
X18698D01*
Y27639D01*
X18702D01*
Y27650D01*
X18706D01*
Y27665D01*
X18702D01*
Y27676D01*
X18698D01*
Y27684D01*
X18694D01*
Y27687D01*
X18691D01*
Y27691D01*
X18687D01*
Y27695D01*
X18683D01*
Y27698D01*
X18680D01*
Y27702D01*
X18676D01*
Y27706D01*
X18668D01*
Y27710D01*
X18650D01*
Y27713D01*
X18646D01*
Y27710D01*
X18628D01*
Y27706D01*
X18620D01*
Y27702D01*
X18613D01*
Y27698D01*
X18609D01*
Y27695D01*
X18605D01*
Y27691D01*
X18602D01*
Y27684D01*
X18598D01*
Y27680D01*
X18594D01*
Y27669D01*
X18591D01*
Y27646D01*
X18594D01*
Y27635D01*
X18598D01*
Y27628D01*
X18602D01*
Y27621D01*
X18605D01*
Y27617D01*
X18609D01*
Y27613D01*
X18613D01*
Y27609D01*
X18620D01*
Y27606D01*
X18628D01*
Y27602D01*
X18657D01*
Y27598D01*
X18661D01*
Y27595D01*
X18665D01*
Y27591D01*
X18668D01*
Y27583D01*
X18672D01*
Y27580D01*
X18676D01*
Y27576D01*
X18680D01*
Y27569D01*
X18683D01*
Y27565D01*
X18687D01*
Y27561D01*
X18691D01*
Y27557D01*
X18694D01*
Y27550D01*
X18698D01*
Y27546D01*
X18702D01*
Y27543D01*
X18706D01*
Y27539D01*
X18709D01*
Y27532D01*
X18713D01*
Y27528D01*
X18717D01*
Y27524D01*
X18720D01*
Y27520D01*
X18724D01*
Y27513D01*
X18728D01*
Y27509D01*
X18731D01*
Y27502D01*
X18735D01*
Y27498D01*
X18739D01*
Y27494D01*
X18743D01*
Y27491D01*
X18746D01*
Y27483D01*
X18750D01*
Y27480D01*
X18754D01*
Y27472D01*
X18757D01*
Y27468D01*
X18761D01*
Y27465D01*
X18765D01*
Y27461D01*
X18769D01*
Y27454D01*
X18772D01*
Y27450D01*
X18776D01*
Y27446D01*
X18780D01*
Y27439D01*
X18783D01*
Y27435D01*
X18891D01*
Y27431D01*
X18898D01*
Y27402D01*
X18895D01*
Y27398D01*
X18576D01*
Y27402D01*
X18568D01*
Y27409D01*
X18565D01*
Y27413D01*
X18561D01*
Y27420D01*
X18557D01*
Y27424D01*
X18553D01*
Y27428D01*
X18550D01*
Y27435D01*
X18546D01*
Y27439D01*
X18542D01*
Y27443D01*
X18539D01*
Y27450D01*
X18535D01*
Y27454D01*
X18531D01*
Y27461D01*
X18528D01*
Y27465D01*
X18524D01*
Y27468D01*
X18520D01*
Y27476D01*
X18516D01*
Y27480D01*
X18513D01*
Y27483D01*
X18509D01*
Y27491D01*
X18505D01*
Y27494D01*
X18502D01*
Y27502D01*
X18498D01*
Y27506D01*
X18494D01*
Y27513D01*
X18490D01*
Y27517D01*
X18487D01*
Y27520D01*
X18483D01*
Y27524D01*
X18479D01*
Y27532D01*
X18476D01*
Y27535D01*
X18472D01*
Y27543D01*
X18468D01*
Y27546D01*
X18464D01*
Y27550D01*
X18461D01*
Y27557D01*
X18457D01*
Y27561D01*
X18453D01*
Y27565D01*
X18450D01*
Y27572D01*
X18446D01*
Y27576D01*
X18442D01*
Y27580D01*
X18439D01*
Y27583D01*
X18435D01*
Y27591D01*
X18431D01*
Y27598D01*
X18435D01*
Y27602D01*
X18439D01*
Y27609D01*
X18442D01*
Y27613D01*
X18446D01*
Y27621D01*
X18450D01*
Y27628D01*
X18453D01*
Y27639D01*
Y27643D01*
Y27646D01*
X18457D01*
Y27665D01*
X18453D01*
Y27680D01*
X18450D01*
Y27687D01*
X18446D01*
Y27695D01*
X18442D01*
Y27698D01*
X18439D01*
Y27706D01*
X18435D01*
Y27710D01*
X18431D01*
Y27713D01*
X18424D01*
Y27717D01*
X18420D01*
Y27721D01*
X18413D01*
Y27724D01*
X18409D01*
Y27728D01*
X18394D01*
Y27732D01*
X18353D01*
Y27728D01*
X18342D01*
Y27724D01*
X18338D01*
Y27721D01*
X18331D01*
Y27717D01*
X18327D01*
Y27713D01*
X18324D01*
Y27710D01*
X18320D01*
Y27706D01*
X18316D01*
Y27702D01*
X18312D01*
Y27698D01*
X18309D01*
Y27691D01*
X18305D01*
Y27684D01*
X18301D01*
Y27669D01*
X18298D01*
Y27639D01*
X18301D01*
Y27624D01*
X18305D01*
Y27617D01*
X18309D01*
Y27609D01*
X18312D01*
Y27606D01*
X18316D01*
Y27602D01*
X18320D01*
Y27598D01*
X18324D01*
Y27595D01*
X18327D01*
Y27591D01*
X18331D01*
Y27587D01*
X18338D01*
Y27583D01*
X18342D01*
Y27580D01*
X18353D01*
Y27576D01*
X18409D01*
Y27569D01*
X18413D01*
Y27565D01*
X18416D01*
Y27561D01*
X18420D01*
Y27554D01*
X18424D01*
Y27550D01*
X18427D01*
Y27546D01*
X18431D01*
Y27539D01*
X18435D01*
Y27535D01*
X18439D01*
Y27532D01*
X18442D01*
Y27528D01*
X18446D01*
Y27520D01*
X18450D01*
Y27517D01*
X18453D01*
Y27513D01*
X18457D01*
Y27506D01*
X18461D01*
Y27502D01*
X18464D01*
Y27494D01*
X18468D01*
Y27491D01*
X18472D01*
Y27487D01*
X18476D01*
Y27480D01*
X18479D01*
Y27476D01*
X18483D01*
Y27472D01*
X18487D01*
Y27465D01*
X18490D01*
Y27461D01*
X18494D01*
Y27454D01*
X18498D01*
Y27450D01*
X18502D01*
Y27446D01*
X18505D01*
Y27439D01*
X18509D01*
Y27435D01*
X18513D01*
Y27431D01*
X18516D01*
Y27424D01*
X18520D01*
Y27420D01*
X18524D01*
Y27413D01*
X18528D01*
Y27409D01*
X18531D01*
Y27402D01*
X18535D01*
Y27398D01*
X18539D01*
Y27394D01*
X18542D01*
Y27387D01*
X18546D01*
Y27383D01*
X18550D01*
Y27376D01*
X18553D01*
Y27372D01*
X18843D01*
Y27368D01*
X18887D01*
Y27372D01*
X18891D01*
Y27368D01*
X18898D01*
Y27331D01*
X18895D01*
Y27328D01*
X18264D01*
Y27331D01*
X18261D01*
Y27335D01*
X18257D01*
Y27339D01*
X18253D01*
Y27346D01*
X18249D01*
Y27350D01*
X18246D01*
Y27357D01*
X18242D01*
Y27361D01*
X18238D01*
Y27368D01*
X18235D01*
Y27376D01*
X18231D01*
Y27379D01*
X18227D01*
Y27387D01*
X18223D01*
Y27391D01*
X18220D01*
Y27398D01*
X18216D01*
Y27402D01*
X18212D01*
Y27409D01*
X18209D01*
Y27417D01*
X18205D01*
Y27420D01*
X18201D01*
Y27428D01*
X18198D01*
Y27431D01*
X18194D01*
Y27439D01*
X18190D01*
Y27443D01*
X18186D01*
Y27450D01*
X18183D01*
Y27454D01*
X18179D01*
Y27461D01*
X18175D01*
Y27465D01*
X18172D01*
Y27472D01*
X18168D01*
Y27476D01*
X18164D01*
Y27483D01*
X18160D01*
Y27491D01*
X18157D01*
Y27494D01*
X18153D01*
Y27502D01*
X18149D01*
Y27506D01*
X18146D01*
Y27513D01*
X18142D01*
Y27517D01*
X18138D01*
Y27524D01*
X18134D01*
Y27528D01*
X18131D01*
Y27535D01*
X18127D01*
Y27539D01*
X18123D01*
Y27546D01*
X18120D01*
Y27550D01*
X18116D01*
Y27557D01*
X18112D01*
Y27561D01*
X18109D01*
Y27569D01*
X18105D01*
Y27565D01*
X18097D01*
Y27561D01*
X18094D01*
Y27557D01*
X18086D01*
Y27554D01*
X18083D01*
Y27546D01*
X18086D01*
Y27543D01*
X18090D01*
Y27535D01*
X18094D01*
Y27532D01*
X18097D01*
Y27524D01*
X18101D01*
Y27520D01*
X18105D01*
Y27513D01*
X18109D01*
Y27509D01*
X18112D01*
Y27502D01*
X18116D01*
Y27494D01*
X18120D01*
Y27491D01*
X18123D01*
Y27483D01*
X18127D01*
Y27480D01*
X18131D01*
Y27472D01*
X18134D01*
Y27468D01*
X18138D01*
Y27461D01*
X18142D01*
Y27457D01*
X18146D01*
Y27450D01*
X18149D01*
Y27443D01*
X18153D01*
Y27439D01*
X18157D01*
Y27431D01*
X18160D01*
Y27428D01*
X18164D01*
Y27420D01*
X18168D01*
Y27413D01*
X18172D01*
Y27409D01*
X18175D01*
Y27402D01*
X18179D01*
Y27398D01*
X18183D01*
Y27391D01*
X18186D01*
Y27387D01*
X18190D01*
Y27379D01*
X18194D01*
Y27376D01*
X18198D01*
Y27368D01*
X18201D01*
Y27365D01*
X18205D01*
Y27357D01*
X18209D01*
Y27354D01*
X18212D01*
Y27346D01*
X18216D01*
Y27339D01*
X18220D01*
Y27335D01*
X18223D01*
Y27328D01*
X18227D01*
Y27324D01*
X18231D01*
Y27316D01*
X18235D01*
Y27313D01*
X18238D01*
Y27305D01*
X18242D01*
Y27302D01*
X18246D01*
Y27298D01*
X18898D01*
Y27187D01*
X18895D01*
Y27183D01*
X18887D01*
Y27179D01*
X18876D01*
Y27176D01*
X18869D01*
Y27172D01*
X18861D01*
Y27168D01*
X18854D01*
Y27164D01*
X18850D01*
Y27161D01*
X18843D01*
Y27157D01*
X18839D01*
Y27153D01*
X18835D01*
Y27150D01*
X18832D01*
Y27146D01*
X18828D01*
Y27138D01*
X18824D01*
Y27135D01*
X18820D01*
Y27127D01*
X18817D01*
Y27124D01*
X18813D01*
Y27113D01*
X18809D01*
Y27101D01*
X18806D01*
Y27087D01*
X18802D01*
Y27057D01*
X18806D01*
Y27042D01*
X18809D01*
Y27031D01*
X18813D01*
Y27024D01*
X18817D01*
Y27016D01*
X18820D01*
Y27012D01*
X18824D01*
Y27005D01*
X18828D01*
Y27001D01*
X18832D01*
Y26998D01*
X18835D01*
Y26994D01*
X18839D01*
Y26990D01*
X18843D01*
Y26986D01*
X18846D01*
Y26983D01*
X18850D01*
Y26979D01*
X18854D01*
Y26975D01*
X18861D01*
Y26972D01*
X18869D01*
Y26968D01*
X18880D01*
Y26964D01*
X18891D01*
Y26960D01*
X18939D01*
Y26964D01*
X18954D01*
Y26968D01*
X18961D01*
Y26972D01*
X18969D01*
Y26975D01*
X18976D01*
Y26979D01*
X18980D01*
Y26983D01*
X18987D01*
Y26986D01*
X18991D01*
Y26990D01*
X18995D01*
Y26994D01*
X18998D01*
Y26998D01*
X19002D01*
Y27001D01*
X19006D01*
Y27009D01*
X19010D01*
Y27012D01*
X19013D01*
Y27016D01*
X19017D01*
Y27020D01*
X19021D01*
Y27024D01*
X19024D01*
Y27027D01*
X19028D01*
Y27035D01*
X19032D01*
Y27038D01*
X19036D01*
Y27042D01*
X19043D01*
Y27046D01*
X19050D01*
Y27049D01*
X19362D01*
Y27046D01*
X19373D01*
Y27042D01*
X19377D01*
Y27038D01*
X19380D01*
Y27035D01*
X19384D01*
Y27027D01*
X19388D01*
Y27020D01*
X19391D01*
Y27016D01*
X19395D01*
Y27012D01*
X19399D01*
Y27009D01*
X19403D01*
Y27005D01*
X19406D01*
Y27001D01*
X19410D01*
Y26998D01*
X19414D01*
Y26994D01*
X19417D01*
Y26990D01*
X19421D01*
Y26986D01*
X19425D01*
Y26983D01*
X19432D01*
Y26979D01*
X19440D01*
Y26975D01*
X19443D01*
Y26972D01*
X19451D01*
Y26968D01*
X19458D01*
Y26964D01*
X19477D01*
Y26960D01*
X19499D01*
Y26957D01*
X19503D01*
Y26960D01*
X19525D01*
Y26964D01*
X19536D01*
Y26968D01*
X19547D01*
Y26972D01*
X19551D01*
Y26975D01*
X19558D01*
Y26979D01*
X19566D01*
Y26983D01*
X19569D01*
Y26986D01*
X19573D01*
Y26990D01*
X19577D01*
Y26994D01*
X19581D01*
Y26998D01*
X19584D01*
Y27001D01*
X19588D01*
Y27005D01*
X19592D01*
Y27012D01*
X19595D01*
Y27016D01*
X19599D01*
Y27024D01*
X19603D01*
Y27035D01*
X19607D01*
Y27046D01*
X19610D01*
Y27098D01*
X19607D01*
Y27113D01*
X19603D01*
Y27120D01*
X19599D01*
Y27127D01*
X19595D01*
Y27135D01*
X19592D01*
Y27138D01*
X19588D01*
Y27142D01*
X19584D01*
Y27146D01*
X19581D01*
Y27150D01*
X19577D01*
Y27153D01*
X19573D01*
Y27157D01*
X19569D01*
Y27161D01*
X19566D01*
Y27164D01*
X19558D01*
Y27168D01*
X19555D01*
Y27172D01*
X19547D01*
Y27176D01*
X19540D01*
Y27179D01*
X19525D01*
Y27183D01*
X19518D01*
Y27187D01*
X19514D01*
Y27339D01*
X19518D01*
Y27342D01*
X19703D01*
Y27339D01*
X19714D01*
Y27335D01*
X19721D01*
Y27331D01*
X19729D01*
Y27328D01*
X19733D01*
Y27324D01*
X19736D01*
Y27320D01*
X19740D01*
Y27316D01*
X19747D01*
Y27309D01*
X19759D01*
Y27313D01*
X19755D01*
Y27331D01*
X19751D01*
Y27350D01*
X19747D01*
Y27391D01*
X19751D01*
Y27409D01*
X19755D01*
Y27424D01*
X19759D01*
Y27439D01*
X19755D01*
Y27435D01*
X19751D01*
Y27431D01*
X19747D01*
Y27428D01*
X19744D01*
Y27424D01*
X19740D01*
Y27420D01*
X19733D01*
Y27417D01*
X19729D01*
Y27413D01*
X19721D01*
Y27409D01*
X19714D01*
Y27405D01*
X19696D01*
Y27402D01*
X19518D01*
Y27405D01*
X19514D01*
Y27539D01*
X19518D01*
Y27543D01*
X19521D01*
Y27546D01*
X19532D01*
Y27550D01*
X19544D01*
Y27554D01*
X19551D01*
Y27557D01*
X19558D01*
Y27561D01*
X19562D01*
Y27565D01*
X19569D01*
Y27569D01*
X19573D01*
Y27572D01*
X19577D01*
Y27576D01*
X19581D01*
Y27580D01*
X19584D01*
Y27583D01*
X19588D01*
Y27591D01*
X19592D01*
Y27595D01*
X19595D01*
Y27602D01*
X19599D01*
Y27609D01*
X19603D01*
Y27617D01*
X19607D01*
Y27632D01*
X19610D01*
Y27650D01*
X19614D01*
Y27661D01*
X19610D01*
Y27680D01*
X19607D01*
Y27691D01*
X19603D01*
Y27702D01*
X19599D01*
Y27710D01*
X19595D01*
Y27713D01*
X19592D01*
Y27721D01*
X19588D01*
Y27724D01*
X19584D01*
Y27728D01*
X19581D01*
Y27732D01*
X19577D01*
Y27735D01*
X19573D01*
Y27739D01*
X19569D01*
Y27743D01*
X19566D01*
Y27747D01*
X19558D01*
Y27750D01*
X19555D01*
Y27754D01*
X19547D01*
Y27758D01*
X19536D01*
Y27761D01*
X19525D01*
Y27765D01*
X19510D01*
Y27769D01*
D02*
G37*
G36*
X18149Y27654D02*
X18146D01*
Y27632D01*
X18149D01*
Y27654D01*
D02*
G37*
G36*
X18146Y27624D02*
X18142D01*
Y27613D01*
X18146D01*
Y27621D01*
Y27624D01*
D02*
G37*
G36*
X18142Y27613D02*
X18138D01*
Y27609D01*
X18142D01*
Y27613D01*
D02*
G37*
G36*
X19243Y26960D02*
X19184D01*
Y26957D01*
X19169D01*
Y26953D01*
X19158D01*
Y26949D01*
X19147D01*
Y26946D01*
X19139D01*
Y26942D01*
X19136D01*
Y26938D01*
X19128D01*
Y26935D01*
X19125D01*
Y26931D01*
X19121D01*
Y26927D01*
X19113D01*
Y26923D01*
X19110D01*
Y26920D01*
X19106D01*
Y26916D01*
X19102D01*
Y26912D01*
X19099D01*
Y26909D01*
X19095D01*
Y26905D01*
X19091D01*
Y26897D01*
X19087D01*
Y26894D01*
X19084D01*
Y26886D01*
X19080D01*
Y26879D01*
X19076D01*
Y26871D01*
X19073D01*
Y26860D01*
X19069D01*
Y26849D01*
X19065D01*
Y26831D01*
X19061D01*
Y26794D01*
X19065D01*
Y26775D01*
X19069D01*
Y26764D01*
X19073D01*
Y26753D01*
X19076D01*
Y26745D01*
X19080D01*
Y26738D01*
X19084D01*
Y26731D01*
X19087D01*
Y26727D01*
X19091D01*
Y26719D01*
X19095D01*
Y26716D01*
X19099D01*
Y26712D01*
X19102D01*
Y26708D01*
X19106D01*
Y26705D01*
X19110D01*
Y26701D01*
X19113D01*
Y26697D01*
X19117D01*
Y26694D01*
X19121D01*
Y26690D01*
X19125D01*
Y26686D01*
X19132D01*
Y26682D01*
X19139D01*
Y26679D01*
X19147D01*
Y26675D01*
X19150D01*
Y26671D01*
X19162D01*
Y26668D01*
X19173D01*
Y26664D01*
X19188D01*
Y26660D01*
X19236D01*
Y26664D01*
X19254D01*
Y26668D01*
X19262D01*
Y26671D01*
X19273D01*
Y26675D01*
X19280D01*
Y26679D01*
X19288D01*
Y26682D01*
X19295D01*
Y26686D01*
X19299D01*
Y26690D01*
X19306D01*
Y26694D01*
X19310D01*
Y26697D01*
X19314D01*
Y26701D01*
X19317D01*
Y26705D01*
X19321D01*
Y26708D01*
X19325D01*
Y26712D01*
X19328D01*
Y26716D01*
X19332D01*
Y26723D01*
X19336D01*
Y26727D01*
X19340D01*
Y26734D01*
X19343D01*
Y26742D01*
X19347D01*
Y26745D01*
X19351D01*
Y26757D01*
X19354D01*
Y26768D01*
X19358D01*
Y26786D01*
X19362D01*
Y26838D01*
X19358D01*
Y26857D01*
X19354D01*
Y26864D01*
X19351D01*
Y26871D01*
X19347D01*
Y26883D01*
X19343D01*
Y26886D01*
X19340D01*
Y26894D01*
X19336D01*
Y26897D01*
X19332D01*
Y26905D01*
X19328D01*
Y26909D01*
X19325D01*
Y26912D01*
X19321D01*
Y26916D01*
X19317D01*
Y26920D01*
X19314D01*
Y26923D01*
X19310D01*
Y26927D01*
X19306D01*
Y26931D01*
X19299D01*
Y26935D01*
X19295D01*
Y26938D01*
X19288D01*
Y26942D01*
X19284D01*
Y26946D01*
X19277D01*
Y26949D01*
X19269D01*
Y26953D01*
X19258D01*
Y26957D01*
X19243D01*
Y26960D01*
D02*
G37*
%LPD*%
G36*
X19369Y27628D02*
X19377D01*
Y27624D01*
X19380D01*
Y27617D01*
X19384D01*
Y27609D01*
X19388D01*
Y27606D01*
X19391D01*
Y27602D01*
X19395D01*
Y27598D01*
X19399D01*
Y27595D01*
X19403D01*
Y27591D01*
X19406D01*
Y27587D01*
X19410D01*
Y27583D01*
X19414D01*
Y27580D01*
X19417D01*
Y27576D01*
X19421D01*
Y27572D01*
X19425D01*
Y27569D01*
X19429D01*
Y27565D01*
X19432D01*
Y27561D01*
X19440D01*
Y27557D01*
X19447D01*
Y27554D01*
X19455D01*
Y27550D01*
X19466D01*
Y27546D01*
X19480D01*
Y27543D01*
X19484D01*
Y27457D01*
Y27454D01*
Y27405D01*
X19480D01*
Y27402D01*
X19366D01*
Y27405D01*
X19362D01*
Y27528D01*
X19358D01*
Y27532D01*
X19058D01*
Y27468D01*
X19054D01*
Y27465D01*
X19050D01*
Y27461D01*
X18935D01*
Y27465D01*
X18932D01*
Y27543D01*
X18935D01*
Y27546D01*
X18950D01*
Y27550D01*
X18958D01*
Y27554D01*
X18969D01*
Y27557D01*
X18972D01*
Y27561D01*
X18980D01*
Y27565D01*
X18984D01*
Y27569D01*
X18987D01*
Y27572D01*
X18991D01*
Y27576D01*
X18995D01*
Y27580D01*
X18998D01*
Y27583D01*
X19002D01*
Y27587D01*
X19006D01*
Y27591D01*
X19010D01*
Y27595D01*
X19013D01*
Y27598D01*
X19017D01*
Y27602D01*
X19021D01*
Y27606D01*
X19024D01*
Y27609D01*
X19028D01*
Y27617D01*
X19032D01*
Y27621D01*
X19036D01*
Y27628D01*
X19043D01*
Y27632D01*
X19369D01*
Y27628D01*
D02*
G37*
G36*
X19054Y27428D02*
X19058D01*
Y27402D01*
X19054D01*
Y27398D01*
X18958D01*
Y27402D01*
X18947D01*
Y27398D01*
X18935D01*
Y27402D01*
X18932D01*
Y27431D01*
X19054D01*
Y27428D01*
D02*
G37*
G36*
X19032Y27368D02*
X19054D01*
Y27365D01*
X19058D01*
Y27331D01*
X19054D01*
Y27328D01*
X18935D01*
Y27331D01*
X18932D01*
Y27368D01*
X18935D01*
Y27372D01*
X19032D01*
Y27368D01*
D02*
G37*
G36*
X19336Y27335D02*
Y27331D01*
Y27250D01*
X19332D01*
Y27246D01*
X19084D01*
Y27250D01*
X19080D01*
Y27506D01*
X19336D01*
Y27335D01*
D02*
G37*
G36*
X19480Y27339D02*
X19484D01*
Y27187D01*
X19480D01*
Y27183D01*
X19469D01*
Y27179D01*
X19458D01*
Y27176D01*
X19451D01*
Y27172D01*
X19443D01*
Y27168D01*
X19440D01*
Y27164D01*
X19432D01*
Y27161D01*
X19429D01*
Y27157D01*
X19421D01*
Y27153D01*
X19417D01*
Y27150D01*
X19414D01*
Y27146D01*
X19410D01*
Y27142D01*
X19406D01*
Y27138D01*
X19403D01*
Y27131D01*
X19399D01*
Y27127D01*
X19395D01*
Y27124D01*
X19391D01*
Y27120D01*
X19388D01*
Y27116D01*
X19384D01*
Y27109D01*
X19380D01*
Y27105D01*
X19377D01*
Y27101D01*
X19373D01*
Y27098D01*
X19362D01*
Y27094D01*
X19173D01*
Y27098D01*
X19143D01*
Y27094D01*
X19106D01*
Y27098D01*
X19043D01*
Y27101D01*
X19039D01*
Y27105D01*
X19036D01*
Y27109D01*
X19032D01*
Y27113D01*
X19028D01*
Y27116D01*
X19024D01*
Y27120D01*
X19021D01*
Y27124D01*
X19017D01*
Y27127D01*
X19013D01*
Y27131D01*
X19010D01*
Y27138D01*
X19006D01*
Y27142D01*
X19002D01*
Y27146D01*
X18998D01*
Y27150D01*
X18995D01*
Y27153D01*
X18991D01*
Y27157D01*
X18987D01*
Y27161D01*
X18984D01*
Y27164D01*
X18976D01*
Y27168D01*
X18969D01*
Y27172D01*
X18965D01*
Y27176D01*
X18954D01*
Y27179D01*
X18943D01*
Y27183D01*
X18932D01*
Y27298D01*
X19054D01*
Y27290D01*
X19058D01*
Y27224D01*
X19358D01*
Y27227D01*
X19362D01*
Y27342D01*
X19480D01*
Y27339D01*
D02*
G37*
D11*
X34918Y29525D02*
X35049Y29656D01*
X35311D01*
X35443Y29525D01*
Y29394D01*
X35311Y29262D01*
X35049D01*
X34918Y29131D01*
Y29000D01*
X35049Y28869D01*
X35311D01*
X35443Y29000D01*
X34262Y28869D02*
X34524D01*
X34655Y29000D01*
Y29262D01*
X34524Y29394D01*
X34262D01*
X34131Y29262D01*
Y29131D01*
X34655D01*
X33868Y29394D02*
Y28869D01*
Y29131D01*
X33737Y29262D01*
X33606Y29394D01*
X33475D01*
X33081Y28869D02*
X32819D01*
X32950D01*
Y29394D01*
X33081D01*
X32294D02*
X32032D01*
X31900Y29262D01*
Y28869D01*
X32294D01*
X32425Y29000D01*
X32294Y29131D01*
X31900D01*
X31638Y28869D02*
X31376D01*
X31507D01*
Y29656D01*
X31638D01*
X30064Y28869D02*
Y29656D01*
X29801D02*
Y28869D01*
X30195Y29394D02*
X29801D01*
X29670D01*
X30195Y29131D02*
X29670D01*
X53306Y29675D02*
X53831D01*
Y29281D01*
X53569D01*
X53831D01*
Y28888D01*
X53044D02*
Y29675D01*
X52650D01*
X52519Y29544D01*
Y29281D01*
X52650Y29150D01*
X53044D01*
X51732Y29544D02*
X51863Y29675D01*
X52126D01*
X52257Y29544D01*
Y29019D01*
X52126Y28888D01*
X51863D01*
X51732Y29019D01*
Y29281D01*
X51994D01*
X51470Y28888D02*
Y29412D01*
X51207Y29675D01*
X50945Y29412D01*
Y28888D01*
Y29281D01*
X51470D01*
X49895Y29675D02*
Y28888D01*
X49502D01*
X49371Y29019D01*
Y29544D01*
X49502Y29675D01*
X49895D01*
X48977Y29412D02*
X48715D01*
X48583Y29281D01*
Y28888D01*
X48977D01*
X49108Y29019D01*
X48977Y29150D01*
X48583D01*
X48321Y29412D02*
Y29019D01*
X48190Y28888D01*
X47796D01*
Y29412D01*
X47272Y28625D02*
X47140D01*
X47009Y28756D01*
Y29412D01*
X47403D01*
X47534Y29281D01*
Y29019D01*
X47403Y28888D01*
X47009D01*
X46747Y29675D02*
Y28888D01*
Y29281D01*
X46616Y29412D01*
X46353D01*
X46222Y29281D01*
Y28888D01*
X45828Y29544D02*
Y29412D01*
X45960D01*
X45697D01*
X45828D01*
Y29019D01*
X45697Y28888D01*
X44910D02*
X45172D01*
X45304Y29019D01*
Y29281D01*
X45172Y29412D01*
X44910D01*
X44779Y29281D01*
Y29150D01*
X45304D01*
X44517Y29412D02*
Y28888D01*
Y29150D01*
X44385Y29281D01*
X44254Y29412D01*
X44123D01*
X42942Y29675D02*
Y28888D01*
X42549D01*
X42417Y29019D01*
Y29150D01*
X42549Y29281D01*
X42942D01*
X42549D01*
X42417Y29412D01*
Y29544D01*
X42549Y29675D01*
X42942D01*
X42024Y28888D02*
X41762D01*
X41630Y29019D01*
Y29281D01*
X41762Y29412D01*
X42024D01*
X42155Y29281D01*
Y29019D01*
X42024Y28888D01*
X41237Y29412D02*
X40974D01*
X40843Y29281D01*
Y28888D01*
X41237D01*
X41368Y29019D01*
X41237Y29150D01*
X40843D01*
X40581Y29412D02*
Y28888D01*
Y29150D01*
X40450Y29281D01*
X40318Y29412D01*
X40187D01*
X39269Y29675D02*
Y28888D01*
X39662D01*
X39794Y29019D01*
Y29281D01*
X39662Y29412D01*
X39269D01*
X53449Y26857D02*
X53711D01*
X53843Y26726D01*
Y26201D01*
X53711Y26070D01*
X53449D01*
X53318Y26201D01*
Y26726D01*
X53449Y26857D01*
X53055Y26070D02*
X52793D01*
X52924D01*
Y26857D01*
X53055D01*
X52399Y26070D02*
X52137D01*
X52268D01*
Y26595D01*
X52399D01*
X51743D02*
X51481Y26070D01*
X51219Y26595D01*
X50956Y26070D02*
X50694D01*
X50825D01*
Y26595D01*
X50956D01*
X49907Y26070D02*
X50169D01*
X50300Y26201D01*
Y26463D01*
X50169Y26595D01*
X49907D01*
X49776Y26463D01*
Y26332D01*
X50300D01*
X49513Y26595D02*
Y26070D01*
Y26332D01*
X49382Y26463D01*
X49251Y26595D01*
X49120D01*
X47939Y26857D02*
Y26070D01*
X47545D01*
X47414Y26201D01*
Y26332D01*
X47545Y26463D01*
X47939D01*
X47545D01*
X47414Y26595D01*
Y26726D01*
X47545Y26857D01*
X47939D01*
X46758Y26070D02*
X47021D01*
X47152Y26201D01*
Y26463D01*
X47021Y26595D01*
X46758D01*
X46627Y26463D01*
Y26332D01*
X47152D01*
X46365Y26595D02*
Y26070D01*
Y26332D01*
X46233Y26463D01*
X46102Y26595D01*
X45971D01*
X45315Y25807D02*
X45184D01*
X45053Y25939D01*
Y26595D01*
X45446D01*
X45577Y26463D01*
Y26201D01*
X45446Y26070D01*
X45053D01*
X44397D02*
X44659D01*
X44790Y26201D01*
Y26463D01*
X44659Y26595D01*
X44397D01*
X44266Y26463D01*
Y26332D01*
X44790D01*
X44003Y26595D02*
Y26070D01*
Y26332D01*
X43872Y26463D01*
X43741Y26595D01*
X43610D01*
X43085Y26070D02*
X42822D01*
X42691Y26201D01*
Y26463D01*
X42822Y26595D01*
X43085D01*
X43216Y26463D01*
Y26201D01*
X43085Y26070D01*
X42429D02*
Y26595D01*
X42035D01*
X41904Y26463D01*
Y26070D01*
X53843Y28245D02*
Y27589D01*
X53711Y27457D01*
X53449D01*
X53318Y27589D01*
Y28245D01*
X53055D02*
Y27457D01*
Y27851D01*
X52531D01*
Y28245D01*
Y27457D01*
X52268Y28245D02*
Y27457D01*
X51875D01*
X51743Y27589D01*
Y28113D01*
X51875Y28245D01*
X52268D01*
X50956D02*
X51481D01*
Y27457D01*
X50956D01*
X51481Y27851D02*
X51219D01*
X50694Y27457D02*
Y28245D01*
X50432Y27982D01*
X50169Y28245D01*
Y27457D01*
X49382Y28113D02*
X49513Y28245D01*
X49776D01*
X49907Y28113D01*
Y27589D01*
X49776Y27457D01*
X49513D01*
X49382Y27589D01*
Y27851D01*
X49644D01*
D79*
X31850Y26152D02*
D03*
M02*
