G04*
G04 #@! TF.GenerationSoftware,Altium Limited,Altium Designer,25.8.1 (18)*
G04*
G04 Layer_Color=128*
%FSLAX24Y24*%
%MOIN*%
G70*
G04*
G04 #@! TF.SameCoordinates,0559D858-52EB-4A24-BF16-3A32F8B75DB2*
G04*
G04*
G04 #@! TF.FilePolarity,Positive*
G04*
G01*
G75*
%ADD80C,0.0020*%
D80*
X6795Y18000D02*
X7205D01*
X7000Y17795D02*
Y18205D01*
X7795Y18000D02*
X8205D01*
X8000Y17795D02*
Y18205D01*
X7795Y17000D02*
X8205D01*
X8000Y16795D02*
Y17205D01*
X19795Y-30000D02*
X20205D01*
X20000Y-30205D02*
Y-29795D01*
X22795Y-30000D02*
X23205D01*
X23000Y-30205D02*
Y-29795D01*
X23795Y-30000D02*
X24205D01*
X24000Y-30205D02*
Y-29795D01*
X20795Y-30000D02*
X21205D01*
X21000Y-30205D02*
Y-29795D01*
X21795Y-30000D02*
X22205D01*
X22000Y-30205D02*
Y-29795D01*
X59058Y22732D02*
X59274D01*
X59166Y22624D02*
Y22841D01*
X59058Y26268D02*
X59274D01*
X59166Y26159D02*
Y26376D01*
X59058Y19268D02*
X59274D01*
X59166Y19159D02*
Y19376D01*
X59058Y15732D02*
X59274D01*
X59166Y15624D02*
Y15841D01*
X59058Y12268D02*
X59274D01*
X59166Y12159D02*
Y12376D01*
X56715Y22874D02*
X56932D01*
X56824Y22766D02*
Y22982D01*
X56715Y26126D02*
X56932D01*
X56824Y26018D02*
Y26234D01*
X56715Y19126D02*
X56932D01*
X56824Y19018D02*
Y19234D01*
X56715Y15874D02*
X56932D01*
X56824Y15766D02*
Y15982D01*
X56715Y12126D02*
X56932D01*
X56824Y12018D02*
Y12234D01*
X59058Y8732D02*
X59274D01*
X59166Y8624D02*
Y8841D01*
X59058Y5268D02*
X59274D01*
X59166Y5159D02*
Y5376D01*
X59058Y1732D02*
X59274D01*
X59166Y1624D02*
Y1841D01*
X59058Y-1732D02*
X59274D01*
X59166Y-1841D02*
Y-1624D01*
X56715Y8874D02*
X56932D01*
X56824Y8766D02*
Y8982D01*
X56715Y1874D02*
X56932D01*
X56824Y1766D02*
Y1982D01*
X56715Y-1874D02*
X56932D01*
X56824Y-1982D02*
Y-1766D01*
X56715Y5126D02*
X56932D01*
X56824Y5018D02*
Y5234D01*
X59058Y-5268D02*
X59274D01*
X59166Y-5376D02*
Y-5159D01*
X59058Y-8732D02*
X59274D01*
X59166Y-8841D02*
Y-8624D01*
X59058Y-12268D02*
X59274D01*
X59166Y-12376D02*
Y-12159D01*
X59058Y-15732D02*
X59274D01*
X59166Y-15841D02*
Y-15624D01*
X56715Y-5126D02*
X56932D01*
X56824Y-5234D02*
Y-5018D01*
X56715Y-12126D02*
X56932D01*
X56824Y-12234D02*
Y-12018D01*
X56715Y-15874D02*
X56932D01*
X56824Y-15982D02*
Y-15766D01*
X56715Y-8874D02*
X56932D01*
X56824Y-8982D02*
Y-8766D01*
X59058Y-19268D02*
X59274D01*
X59166Y-19376D02*
Y-19159D01*
X59058Y-22732D02*
X59274D01*
X59166Y-22841D02*
Y-22624D01*
X59058Y-26268D02*
X59274D01*
X59166Y-26376D02*
Y-26159D01*
X56715Y-19126D02*
X56932D01*
X56824Y-19234D02*
Y-19018D01*
X56715Y-22874D02*
X56932D01*
X56824Y-22982D02*
Y-22766D01*
X56715Y-26126D02*
X56932D01*
X56824Y-26234D02*
Y-26018D01*
X23795Y18000D02*
X24205D01*
X24000Y17795D02*
Y18205D01*
X3000Y24500D02*
X3394D01*
X3197Y24303D02*
Y24697D01*
X5795Y17000D02*
X6205D01*
X6000Y16795D02*
Y17205D01*
X40149Y-26940D02*
X40551D01*
X40350Y-27141D02*
Y-26739D01*
X23795Y-20000D02*
X24205D01*
X24000Y-20205D02*
Y-19795D01*
X22795Y-21000D02*
X23205D01*
X23000Y-21205D02*
Y-20795D01*
X23795Y-21000D02*
X24205D01*
X24000Y-21205D02*
Y-20795D01*
X22795Y-20000D02*
X23205D01*
X23000Y-20205D02*
Y-19795D01*
X19795Y-29000D02*
X20205D01*
X20000Y-29205D02*
Y-28795D01*
X22795Y-29000D02*
X23205D01*
X23000Y-29205D02*
Y-28795D01*
X23795Y-29000D02*
X24205D01*
X24000Y-29205D02*
Y-28795D01*
X20795Y-29000D02*
X21205D01*
X21000Y-29205D02*
Y-28795D01*
X21795Y-29000D02*
X22205D01*
X22000Y-29205D02*
Y-28795D01*
X56199Y23083D02*
X56464D01*
X56332Y22950D02*
Y23216D01*
X56159Y25917D02*
X56503D01*
X56331Y25745D02*
Y26090D01*
X56199Y16083D02*
X56464D01*
X56332Y15950D02*
Y16216D01*
X56159Y18917D02*
X56503D01*
X56331Y18745D02*
Y19090D01*
X56199Y9083D02*
X56464D01*
X56332Y8950D02*
Y9216D01*
X56159Y11917D02*
X56503D01*
X56331Y11745D02*
Y12090D01*
X56199Y2083D02*
X56464D01*
X56332Y1950D02*
Y2216D01*
X56159Y4917D02*
X56503D01*
X56331Y4745D02*
Y5090D01*
X56199Y-4917D02*
X56464D01*
X56332Y-5050D02*
Y-4784D01*
X56159Y-2083D02*
X56503D01*
X56331Y-2255D02*
Y-1910D01*
X56199Y-11917D02*
X56464D01*
X56332Y-12050D02*
Y-11784D01*
X56159Y-9083D02*
X56503D01*
X56331Y-9255D02*
Y-8910D01*
X56199Y-18917D02*
X56464D01*
X56332Y-19050D02*
Y-18784D01*
X56159Y-16083D02*
X56503D01*
X56331Y-16255D02*
Y-15910D01*
X56199Y-25917D02*
X56464D01*
X56332Y-26050D02*
Y-25784D01*
X56159Y-23083D02*
X56503D01*
X56331Y-23255D02*
Y-22910D01*
X4181Y22650D02*
X4575D01*
X4378Y22453D02*
Y22846D01*
X5362Y24500D02*
X5756D01*
X5559Y24303D02*
Y24697D01*
X14622Y-7075D02*
X15022D01*
X14822Y-7275D02*
Y-6875D01*
X28196Y-7075D02*
X28596D01*
X28396Y-7275D02*
Y-6875D01*
X40149Y-28940D02*
X40551D01*
X40350Y-29141D02*
Y-28739D01*
X40149Y-27940D02*
X40551D01*
X40350Y-28141D02*
Y-27739D01*
X4795Y-29000D02*
X5205D01*
X5000Y-29205D02*
Y-28795D01*
X4795Y-30000D02*
X5205D01*
X5000Y-30205D02*
Y-29795D01*
X5795Y-29000D02*
X6205D01*
X6000Y-29205D02*
Y-28795D01*
X5795Y-30000D02*
X6205D01*
X6000Y-30205D02*
Y-29795D01*
X6795Y-29000D02*
X7205D01*
X7000Y-29205D02*
Y-28795D01*
X6795Y-30000D02*
X7205D01*
X7000Y-30205D02*
Y-29795D01*
X7795Y-29000D02*
X8205D01*
X8000Y-29205D02*
Y-28795D01*
X7795Y-30000D02*
X8205D01*
X8000Y-30205D02*
Y-29795D01*
X8795Y-29000D02*
X9205D01*
X9000Y-29205D02*
Y-28795D01*
X8795Y-30000D02*
X9205D01*
X9000Y-30205D02*
Y-29795D01*
X9795Y-29000D02*
X10205D01*
X10000Y-29205D02*
Y-28795D01*
X9795Y-30000D02*
X10205D01*
X10000Y-30205D02*
Y-29795D01*
X10795Y-29000D02*
X11205D01*
X11000Y-29205D02*
Y-28795D01*
X10795Y-30000D02*
X11205D01*
X11000Y-30205D02*
Y-29795D01*
X11795Y-29000D02*
X12205D01*
X12000Y-29205D02*
Y-28795D01*
X11795Y-30000D02*
X12205D01*
X12000Y-30205D02*
Y-29795D01*
X12795Y-29000D02*
X13205D01*
X13000Y-29205D02*
Y-28795D01*
X12795Y-30000D02*
X13205D01*
X13000Y-30205D02*
Y-29795D01*
X13795Y-29000D02*
X14205D01*
X14000Y-29205D02*
Y-28795D01*
X13795Y-30000D02*
X14205D01*
X14000Y-30205D02*
Y-29795D01*
X14795Y-29000D02*
X15205D01*
X15000Y-29205D02*
Y-28795D01*
X14795Y-30000D02*
X15205D01*
X15000Y-30205D02*
Y-29795D01*
X15795Y-29000D02*
X16205D01*
X16000Y-29205D02*
Y-28795D01*
X15795Y-30000D02*
X16205D01*
X16000Y-30205D02*
Y-29795D01*
X16795Y-29000D02*
X17205D01*
X17000Y-29205D02*
Y-28795D01*
X16795Y-30000D02*
X17205D01*
X17000Y-30205D02*
Y-29795D01*
X17795Y-29000D02*
X18205D01*
X18000Y-29205D02*
Y-28795D01*
X17795Y-30000D02*
X18205D01*
X18000Y-30205D02*
Y-29795D01*
X18795Y-29000D02*
X19205D01*
X19000Y-29205D02*
Y-28795D01*
X18795Y-30000D02*
X19205D01*
X19000Y-30205D02*
Y-29795D01*
X4795Y-20000D02*
X5205D01*
X5000Y-20205D02*
Y-19795D01*
X4795Y-21000D02*
X5205D01*
X5000Y-21205D02*
Y-20795D01*
X5795Y-20000D02*
X6205D01*
X6000Y-20205D02*
Y-19795D01*
X5795Y-21000D02*
X6205D01*
X6000Y-21205D02*
Y-20795D01*
X6795Y-20000D02*
X7205D01*
X7000Y-20205D02*
Y-19795D01*
X6795Y-21000D02*
X7205D01*
X7000Y-21205D02*
Y-20795D01*
X7795Y-20000D02*
X8205D01*
X8000Y-20205D02*
Y-19795D01*
X7795Y-21000D02*
X8205D01*
X8000Y-21205D02*
Y-20795D01*
X8795Y-20000D02*
X9205D01*
X9000Y-20205D02*
Y-19795D01*
X8795Y-21000D02*
X9205D01*
X9000Y-21205D02*
Y-20795D01*
X9795Y-20000D02*
X10205D01*
X10000Y-20205D02*
Y-19795D01*
X9795Y-21000D02*
X10205D01*
X10000Y-21205D02*
Y-20795D01*
X10795Y-20000D02*
X11205D01*
X11000Y-20205D02*
Y-19795D01*
X10795Y-21000D02*
X11205D01*
X11000Y-21205D02*
Y-20795D01*
X11795Y-20000D02*
X12205D01*
X12000Y-20205D02*
Y-19795D01*
X11795Y-21000D02*
X12205D01*
X12000Y-21205D02*
Y-20795D01*
X12795Y-20000D02*
X13205D01*
X13000Y-20205D02*
Y-19795D01*
X12795Y-21000D02*
X13205D01*
X13000Y-21205D02*
Y-20795D01*
X13795Y-20000D02*
X14205D01*
X14000Y-20205D02*
Y-19795D01*
X13795Y-21000D02*
X14205D01*
X14000Y-21205D02*
Y-20795D01*
X14795Y-20000D02*
X15205D01*
X15000Y-20205D02*
Y-19795D01*
X14795Y-21000D02*
X15205D01*
X15000Y-21205D02*
Y-20795D01*
X15795Y-20000D02*
X16205D01*
X16000Y-20205D02*
Y-19795D01*
X15795Y-21000D02*
X16205D01*
X16000Y-21205D02*
Y-20795D01*
X16795Y-20000D02*
X17205D01*
X17000Y-20205D02*
Y-19795D01*
X16795Y-21000D02*
X17205D01*
X17000Y-21205D02*
Y-20795D01*
X17795Y-20000D02*
X18205D01*
X18000Y-20205D02*
Y-19795D01*
X17795Y-21000D02*
X18205D01*
X18000Y-21205D02*
Y-20795D01*
X18795Y-20000D02*
X19205D01*
X19000Y-20205D02*
Y-19795D01*
X18795Y-21000D02*
X19205D01*
X19000Y-21205D02*
Y-20795D01*
X19795Y-20000D02*
X20205D01*
X20000Y-20205D02*
Y-19795D01*
X19795Y-21000D02*
X20205D01*
X20000Y-21205D02*
Y-20795D01*
X20795Y-20000D02*
X21205D01*
X21000Y-20205D02*
Y-19795D01*
X20795Y-21000D02*
X21205D01*
X21000Y-21205D02*
Y-20795D01*
X21795Y-20000D02*
X22205D01*
X22000Y-20205D02*
Y-19795D01*
X21795Y-21000D02*
X22205D01*
X22000Y-21205D02*
Y-20795D01*
X4795Y18000D02*
X5205D01*
X5000Y17795D02*
Y18205D01*
X4795Y17000D02*
X5205D01*
X5000Y16795D02*
Y17205D01*
X5795Y18000D02*
X6205D01*
X6000Y17795D02*
Y18205D01*
X6795Y17000D02*
X7205D01*
X7000Y16795D02*
Y17205D01*
X8795Y18000D02*
X9205D01*
X9000Y17795D02*
Y18205D01*
X8795Y17000D02*
X9205D01*
X9000Y16795D02*
Y17205D01*
X9795Y18000D02*
X10205D01*
X10000Y17795D02*
Y18205D01*
X9795Y17000D02*
X10205D01*
X10000Y16795D02*
Y17205D01*
X10795Y18000D02*
X11205D01*
X11000Y17795D02*
Y18205D01*
X10795Y17000D02*
X11205D01*
X11000Y16795D02*
Y17205D01*
X11795Y18000D02*
X12205D01*
X12000Y17795D02*
Y18205D01*
X11795Y17000D02*
X12205D01*
X12000Y16795D02*
Y17205D01*
X12795Y18000D02*
X13205D01*
X13000Y17795D02*
Y18205D01*
X12795Y17000D02*
X13205D01*
X13000Y16795D02*
Y17205D01*
X13795Y18000D02*
X14205D01*
X14000Y17795D02*
Y18205D01*
X13795Y17000D02*
X14205D01*
X14000Y16795D02*
Y17205D01*
X14795Y18000D02*
X15205D01*
X15000Y17795D02*
Y18205D01*
X14795Y17000D02*
X15205D01*
X15000Y16795D02*
Y17205D01*
X15795Y18000D02*
X16205D01*
X16000Y17795D02*
Y18205D01*
X15795Y17000D02*
X16205D01*
X16000Y16795D02*
Y17205D01*
X16795Y18000D02*
X17205D01*
X17000Y17795D02*
Y18205D01*
X16795Y17000D02*
X17205D01*
X17000Y16795D02*
Y17205D01*
X17795Y18000D02*
X18205D01*
X18000Y17795D02*
Y18205D01*
X17795Y17000D02*
X18205D01*
X18000Y16795D02*
Y17205D01*
X18795Y18000D02*
X19205D01*
X19000Y17795D02*
Y18205D01*
X18795Y17000D02*
X19205D01*
X19000Y16795D02*
Y17205D01*
X19795Y18000D02*
X20205D01*
X20000Y17795D02*
Y18205D01*
X19795Y17000D02*
X20205D01*
X20000Y16795D02*
Y17205D01*
X20795Y18000D02*
X21205D01*
X21000Y17795D02*
Y18205D01*
X20795Y17000D02*
X21205D01*
X21000Y16795D02*
Y17205D01*
X21795Y18000D02*
X22205D01*
X22000Y17795D02*
Y18205D01*
X21795Y17000D02*
X22205D01*
X22000Y16795D02*
Y17205D01*
X22795Y18000D02*
X23205D01*
X23000Y17795D02*
Y18205D01*
X22795Y17000D02*
X23205D01*
X23000Y16795D02*
Y17205D01*
X23795Y17000D02*
X24205D01*
X24000Y16795D02*
Y17205D01*
X14622Y8673D02*
X15022D01*
X14822Y8473D02*
Y8873D01*
X28196Y8673D02*
X28596D01*
X28396Y8473D02*
Y8873D01*
X56808Y30050D02*
X57792D01*
X57300Y29558D02*
Y30542D01*
X2008Y30050D02*
X2992D01*
X2500Y29558D02*
Y30542D01*
X2808Y8661D02*
X3792D01*
X3300Y8169D02*
Y9154D01*
X29973Y8661D02*
X30957D01*
X30465Y8169D02*
Y9154D01*
X29973Y-8661D02*
X30957D01*
X30465Y-9154D02*
Y-8169D01*
X2808Y-8661D02*
X3792D01*
X3300Y-9154D02*
Y-8169D01*
X56808Y-29950D02*
X57792D01*
X57300Y-30442D02*
Y-29458D01*
X2008Y-29950D02*
X2992D01*
X2500Y-30442D02*
Y-29458D01*
X7190Y26550D02*
X7310D01*
X7250Y26490D02*
Y26610D01*
X8690Y26550D02*
X8810D01*
X8750Y26490D02*
Y26610D01*
X10190Y26550D02*
X10310D01*
X10250Y26490D02*
Y26610D01*
X15407Y-5488D02*
X15527D01*
X15467Y-5548D02*
Y-5428D01*
X17297Y-5488D02*
X17417D01*
X17357Y-5548D02*
Y-5428D01*
X27691Y-8288D02*
X27811D01*
X27751Y-8348D02*
Y-8228D01*
X23911Y-8288D02*
X24031D01*
X23971Y-8348D02*
Y-8228D01*
X20762Y-7918D02*
X20882D01*
X20822Y-7978D02*
Y-7858D01*
X17297Y-8288D02*
X17417D01*
X17357Y-8348D02*
Y-8228D01*
X23911Y10600D02*
X24031D01*
X23971Y10540D02*
Y10660D01*
X15407Y7460D02*
X15527D01*
X15467Y7400D02*
Y7520D01*
X20762Y10260D02*
X20882D01*
X20822Y10200D02*
Y10320D01*
X27691Y5879D02*
X27811D01*
X27751Y5819D02*
Y5939D01*
X17297Y7830D02*
X17417D01*
X17357Y7770D02*
Y7890D01*
X53340Y30343D02*
X53460D01*
X53400Y30283D02*
Y30403D01*
X49403Y30343D02*
X49523D01*
X49463Y30283D02*
Y30403D01*
X45466Y30343D02*
X45586D01*
X45526Y30283D02*
Y30403D01*
X43497Y26406D02*
X43617D01*
X43557Y26346D02*
Y26466D01*
X43497Y18532D02*
X43617D01*
X43557Y18471D02*
Y18592D01*
X41529Y30343D02*
X41649D01*
X41589Y30283D02*
Y30403D01*
X39560Y26406D02*
X39680D01*
X39620Y26346D02*
Y26466D01*
X41529Y-1154D02*
X41649D01*
X41589Y-1214D02*
Y-1094D01*
X39560Y-20839D02*
X39680D01*
X39620Y-20899D02*
Y-20779D01*
X37592Y30343D02*
X37712D01*
X37652Y30283D02*
Y30403D01*
X35623Y26406D02*
X35743D01*
X35683Y26346D02*
Y26466D01*
X37592Y22469D02*
X37712D01*
X37652Y22409D02*
Y22529D01*
X35623Y18532D02*
X35743D01*
X35683Y18471D02*
Y18592D01*
X37592Y-1154D02*
X37712D01*
X37652Y-1214D02*
Y-1094D01*
X33655Y30343D02*
X33775D01*
X33715Y30283D02*
Y30403D01*
X31686Y26406D02*
X31806D01*
X31746Y26346D02*
Y26466D01*
X33655Y22469D02*
X33775D01*
X33715Y22409D02*
Y22529D01*
X31686Y18532D02*
X31806D01*
X31746Y18471D02*
Y18592D01*
X33655Y14595D02*
X33775D01*
X33715Y14534D02*
Y14655D01*
X31686Y10657D02*
X31806D01*
X31746Y10597D02*
Y10717D01*
X31686Y-28713D02*
X31806D01*
X31746Y-28773D02*
Y-28653D01*
X29718Y30343D02*
X29838D01*
X29778Y30283D02*
Y30403D01*
X29718Y22469D02*
X29838D01*
X29778Y22409D02*
Y22529D01*
X29718Y6720D02*
X29838D01*
X29778Y6660D02*
Y6780D01*
X27749Y-28713D02*
X27869D01*
X27809Y-28773D02*
Y-28653D01*
X19875Y26406D02*
X19995D01*
X19935Y26346D02*
Y26466D01*
X17907Y30343D02*
X18027D01*
X17967Y30283D02*
Y30403D01*
X15938Y26406D02*
X16058D01*
X15998Y26346D02*
Y26466D01*
X17907Y22469D02*
X18027D01*
X17967Y22409D02*
Y22529D01*
X13970Y30343D02*
X14090D01*
X14030Y30283D02*
Y30403D01*
X13970Y22469D02*
X14090D01*
X14030Y22409D02*
Y22529D01*
X10033Y6720D02*
X10153D01*
X10093Y6660D02*
Y6780D01*
X6096Y6720D02*
X6216D01*
X6156Y6660D02*
Y6780D01*
X4127Y2783D02*
X4247D01*
X4187Y2723D02*
Y2843D01*
X4127Y-5091D02*
X4247D01*
X4187Y-5151D02*
Y-5031D01*
X4127Y-12965D02*
X4247D01*
X4187Y-13025D02*
Y-12905D01*
X2159Y6720D02*
X2279D01*
X2219Y6660D02*
Y6780D01*
X2159Y-1154D02*
X2279D01*
X2219Y-1214D02*
Y-1094D01*
X2159Y-16902D02*
X2279D01*
X2219Y-16962D02*
Y-16842D01*
X2159Y-24776D02*
X2279D01*
X2219Y-24836D02*
Y-24716D01*
X43476Y-26328D02*
X43556D01*
X43516Y-26368D02*
Y-26288D01*
X43476Y-25988D02*
X43556D01*
X43516Y-26028D02*
Y-25948D01*
X43476Y-25648D02*
X43556D01*
X43516Y-25688D02*
Y-25608D01*
X43476Y-25308D02*
X43556D01*
X43516Y-25348D02*
Y-25268D01*
X43476Y-24968D02*
X43556D01*
X43516Y-25008D02*
Y-24928D01*
X43594Y-24649D02*
X43674D01*
X43634Y-24689D02*
Y-24609D01*
X52546Y-24315D02*
X52626D01*
X52586Y-24355D02*
Y-24275D01*
X52787Y-24555D02*
X52867D01*
X52827Y-24595D02*
Y-24515D01*
X53029Y-24794D02*
X53109D01*
X53069Y-24834D02*
Y-24754D01*
X53362Y-24863D02*
X53442D01*
X53402Y-24903D02*
Y-24823D01*
X53016Y-25023D02*
X53096D01*
X53056Y-25063D02*
Y-24983D01*
X52676Y-25023D02*
X52756D01*
X52716Y-25063D02*
Y-24983D01*
X52336Y-25023D02*
X52416D01*
X52376Y-25063D02*
Y-24983D01*
X51996Y-25023D02*
X52076D01*
X52036Y-25063D02*
Y-24983D01*
X51919Y-24396D02*
X51999D01*
X51959Y-24436D02*
Y-24356D01*
X51948Y-24057D02*
X52028D01*
X51988Y-24097D02*
Y-24017D01*
X52288Y-24057D02*
X52368D01*
X52328Y-24097D02*
Y-24017D01*
X54873Y-23977D02*
X54953D01*
X54913Y-24017D02*
Y-23937D01*
X54573Y-24137D02*
X54653D01*
X54613Y-24177D02*
Y-24097D01*
X54239Y-24077D02*
X54319D01*
X54279Y-24117D02*
Y-24037D01*
X53904Y-24137D02*
X53984D01*
X53944Y-24177D02*
Y-24097D01*
X53564Y-24137D02*
X53644D01*
X53604Y-24177D02*
Y-24097D01*
X53254Y-23997D02*
X53334D01*
X53294Y-24037D02*
Y-23957D01*
X36384Y-23882D02*
X36464D01*
X36424Y-23922D02*
Y-23842D01*
X36724Y-23882D02*
X36804D01*
X36764Y-23922D02*
Y-23842D01*
X37064Y-23882D02*
X37144D01*
X37104Y-23922D02*
Y-23842D01*
X37404Y-23882D02*
X37484D01*
X37444Y-23922D02*
Y-23842D01*
X37744Y-23882D02*
X37824D01*
X37784Y-23922D02*
Y-23842D01*
X38084Y-23882D02*
X38164D01*
X38124Y-23922D02*
Y-23842D01*
X38424Y-23882D02*
X38504D01*
X38464Y-23922D02*
Y-23842D01*
X38764Y-23882D02*
X38844D01*
X38804Y-23922D02*
Y-23842D01*
X39104Y-23882D02*
X39184D01*
X39144Y-23922D02*
Y-23842D01*
X39444Y-23882D02*
X39524D01*
X39484Y-23922D02*
Y-23842D01*
X39784Y-23882D02*
X39864D01*
X39824Y-23922D02*
Y-23842D01*
X40124Y-23882D02*
X40204D01*
X40164Y-23922D02*
Y-23842D01*
X40464Y-23882D02*
X40544D01*
X40504Y-23922D02*
Y-23842D01*
X40804Y-23882D02*
X40884D01*
X40844Y-23922D02*
Y-23842D01*
X41144Y-23882D02*
X41224D01*
X41184Y-23922D02*
Y-23842D01*
X41484Y-23882D02*
X41564D01*
X41524Y-23922D02*
Y-23842D01*
X41824Y-23882D02*
X41904D01*
X41864Y-23922D02*
Y-23842D01*
X42164Y-23882D02*
X42244D01*
X42204Y-23922D02*
Y-23842D01*
X42504Y-23882D02*
X42584D01*
X42544Y-23922D02*
Y-23842D01*
X42844Y-23882D02*
X42924D01*
X42884Y-23922D02*
Y-23842D01*
X43476Y-19524D02*
X43556D01*
X43516Y-19564D02*
Y-19484D01*
X43476Y-19184D02*
X43556D01*
X43516Y-19224D02*
Y-19144D01*
X43476Y-18844D02*
X43556D01*
X43516Y-18884D02*
Y-18804D01*
X43476Y-18504D02*
X43556D01*
X43516Y-18544D02*
Y-18464D01*
X43476Y-18164D02*
X43556D01*
X43516Y-18204D02*
Y-18124D01*
X43476Y-17824D02*
X43556D01*
X43516Y-17864D02*
Y-17784D01*
X43476Y-17484D02*
X43556D01*
X43516Y-17524D02*
Y-17444D01*
X43594Y-17166D02*
X43674D01*
X43634Y-17206D02*
Y-17126D01*
X52546Y-17315D02*
X52626D01*
X52586Y-17355D02*
Y-17275D01*
X52787Y-17555D02*
X52867D01*
X52827Y-17595D02*
Y-17515D01*
X53029Y-17794D02*
X53109D01*
X53069Y-17834D02*
Y-17754D01*
X53362Y-17863D02*
X53442D01*
X53402Y-17903D02*
Y-17823D01*
X53016Y-18023D02*
X53096D01*
X53056Y-18063D02*
Y-17983D01*
X52676Y-18023D02*
X52756D01*
X52716Y-18063D02*
Y-17983D01*
X52336Y-18023D02*
X52416D01*
X52376Y-18063D02*
Y-17983D01*
X51996Y-18023D02*
X52076D01*
X52036Y-18063D02*
Y-17983D01*
X51919Y-17396D02*
X51999D01*
X51959Y-17436D02*
Y-17356D01*
X51948Y-17057D02*
X52028D01*
X51988Y-17097D02*
Y-17017D01*
X52288Y-17057D02*
X52368D01*
X52328Y-17097D02*
Y-17017D01*
X54873Y-16977D02*
X54953D01*
X54913Y-17017D02*
Y-16937D01*
X54573Y-17137D02*
X54653D01*
X54613Y-17177D02*
Y-17097D01*
X54239Y-17077D02*
X54319D01*
X54279Y-17117D02*
Y-17037D01*
X53904Y-17137D02*
X53984D01*
X53944Y-17177D02*
Y-17097D01*
X53564Y-17137D02*
X53644D01*
X53604Y-17177D02*
Y-17097D01*
X53254Y-16997D02*
X53334D01*
X53294Y-17037D02*
Y-16957D01*
X43476Y-12328D02*
X43556D01*
X43516Y-12368D02*
Y-12288D01*
X43476Y-11988D02*
X43556D01*
X43516Y-12028D02*
Y-11948D01*
X43476Y-11648D02*
X43556D01*
X43516Y-11688D02*
Y-11608D01*
X43476Y-11308D02*
X43556D01*
X43516Y-11348D02*
Y-11268D01*
X43476Y-10968D02*
X43556D01*
X43516Y-11008D02*
Y-10928D01*
X43594Y-10649D02*
X43674D01*
X43634Y-10689D02*
Y-10609D01*
X52546Y-10315D02*
X52626D01*
X52586Y-10355D02*
Y-10275D01*
X52787Y-10555D02*
X52867D01*
X52827Y-10595D02*
Y-10515D01*
X53029Y-10794D02*
X53109D01*
X53069Y-10834D02*
Y-10754D01*
X53362Y-10863D02*
X53442D01*
X53402Y-10903D02*
Y-10823D01*
X53016Y-11023D02*
X53096D01*
X53056Y-11063D02*
Y-10983D01*
X52676Y-11023D02*
X52756D01*
X52716Y-11063D02*
Y-10983D01*
X52336Y-11023D02*
X52416D01*
X52376Y-11063D02*
Y-10983D01*
X51996Y-11023D02*
X52076D01*
X52036Y-11063D02*
Y-10983D01*
X51919Y-10396D02*
X51999D01*
X51959Y-10436D02*
Y-10356D01*
X51948Y-10057D02*
X52028D01*
X51988Y-10097D02*
Y-10017D01*
X52288Y-10057D02*
X52368D01*
X52328Y-10097D02*
Y-10017D01*
X54873Y-9977D02*
X54953D01*
X54913Y-10017D02*
Y-9937D01*
X54573Y-10137D02*
X54653D01*
X54613Y-10177D02*
Y-10097D01*
X54239Y-10077D02*
X54319D01*
X54279Y-10117D02*
Y-10037D01*
X53904Y-10137D02*
X53984D01*
X53944Y-10177D02*
Y-10097D01*
X53564Y-10137D02*
X53644D01*
X53604Y-10177D02*
Y-10097D01*
X53254Y-9997D02*
X53334D01*
X53294Y-10037D02*
Y-9957D01*
X43476Y-5371D02*
X43556D01*
X43516Y-5411D02*
Y-5331D01*
X43476Y-5031D02*
X43556D01*
X43516Y-5071D02*
Y-4991D01*
X43594Y-4712D02*
X43674D01*
X43634Y-4752D02*
Y-4672D01*
X52546Y-3315D02*
X52626D01*
X52586Y-3355D02*
Y-3275D01*
X52787Y-3555D02*
X52867D01*
X52827Y-3595D02*
Y-3515D01*
X53029Y-3794D02*
X53109D01*
X53069Y-3834D02*
Y-3754D01*
X53362Y-3863D02*
X53442D01*
X53402Y-3903D02*
Y-3823D01*
X53016Y-4023D02*
X53096D01*
X53056Y-4063D02*
Y-3983D01*
X52676Y-4023D02*
X52756D01*
X52716Y-4063D02*
Y-3983D01*
X52336Y-4023D02*
X52416D01*
X52376Y-4063D02*
Y-3983D01*
X51996Y-4023D02*
X52076D01*
X52036Y-4063D02*
Y-3983D01*
X51919Y-3396D02*
X51999D01*
X51959Y-3436D02*
Y-3356D01*
X51948Y-3057D02*
X52028D01*
X51988Y-3097D02*
Y-3017D01*
X52288Y-3057D02*
X52368D01*
X52328Y-3097D02*
Y-3017D01*
X54873Y-2977D02*
X54953D01*
X54913Y-3017D02*
Y-2937D01*
X54573Y-3137D02*
X54653D01*
X54613Y-3177D02*
Y-3097D01*
X54239Y-3077D02*
X54319D01*
X54279Y-3117D02*
Y-3037D01*
X53904Y-3137D02*
X53984D01*
X53944Y-3177D02*
Y-3097D01*
X53564Y-3137D02*
X53644D01*
X53604Y-3177D02*
Y-3097D01*
X53254Y-2997D02*
X53334D01*
X53294Y-3037D02*
Y-2957D01*
X43476Y-2814D02*
X43556D01*
X43516Y-2854D02*
Y-2774D01*
X43476Y-2474D02*
X43556D01*
X43516Y-2514D02*
Y-2434D01*
X43476Y-2134D02*
X43556D01*
X43516Y-2174D02*
Y-2094D01*
X43594Y-1816D02*
X43674D01*
X43634Y-1856D02*
Y-1776D01*
X43476Y1672D02*
X43556D01*
X43516Y1632D02*
Y1712D01*
X43476Y2012D02*
X43556D01*
X43516Y1972D02*
Y2052D01*
X43476Y2352D02*
X43556D01*
X43516Y2312D02*
Y2392D01*
X43476Y2692D02*
X43556D01*
X43516Y2652D02*
Y2732D01*
X43476Y3032D02*
X43556D01*
X43516Y2992D02*
Y3072D01*
X43594Y3351D02*
X43674D01*
X43634Y3311D02*
Y3391D01*
X52546Y3685D02*
X52626D01*
X52586Y3645D02*
Y3725D01*
X52787Y3445D02*
X52867D01*
X52827Y3405D02*
Y3485D01*
X53029Y3206D02*
X53109D01*
X53069Y3166D02*
Y3246D01*
X53362Y3137D02*
X53442D01*
X53402Y3097D02*
Y3177D01*
X53016Y2977D02*
X53096D01*
X53056Y2937D02*
Y3017D01*
X52676Y2977D02*
X52756D01*
X52716Y2937D02*
Y3017D01*
X52336Y2977D02*
X52416D01*
X52376Y2937D02*
Y3017D01*
X51996Y2977D02*
X52076D01*
X52036Y2937D02*
Y3017D01*
X51919Y3604D02*
X51999D01*
X51959Y3564D02*
Y3644D01*
X51948Y3943D02*
X52028D01*
X51988Y3903D02*
Y3983D01*
X52288Y3943D02*
X52368D01*
X52328Y3903D02*
Y3983D01*
X54873Y4023D02*
X54953D01*
X54913Y3983D02*
Y4063D01*
X54573Y3863D02*
X54653D01*
X54613Y3823D02*
Y3903D01*
X54239Y3923D02*
X54319D01*
X54279Y3883D02*
Y3963D01*
X53904Y3863D02*
X53984D01*
X53944Y3823D02*
Y3903D01*
X53564Y3863D02*
X53644D01*
X53604Y3823D02*
Y3903D01*
X53254Y4003D02*
X53334D01*
X53294Y3963D02*
Y4043D01*
X52546Y10685D02*
X52626D01*
X52586Y10645D02*
Y10725D01*
X52787Y10445D02*
X52867D01*
X52827Y10405D02*
Y10485D01*
X53029Y10206D02*
X53109D01*
X53069Y10166D02*
Y10246D01*
X53362Y10137D02*
X53442D01*
X53402Y10097D02*
Y10177D01*
X53016Y9977D02*
X53096D01*
X53056Y9937D02*
Y10017D01*
X52676Y9977D02*
X52756D01*
X52716Y9937D02*
Y10017D01*
X52336Y9977D02*
X52416D01*
X52376Y9937D02*
Y10017D01*
X51996Y9977D02*
X52076D01*
X52036Y9937D02*
Y10017D01*
X51919Y10604D02*
X51999D01*
X51959Y10564D02*
Y10644D01*
X51948Y10943D02*
X52028D01*
X51988Y10903D02*
Y10983D01*
X52288Y10943D02*
X52368D01*
X52328Y10903D02*
Y10983D01*
X54873Y11023D02*
X54953D01*
X54913Y10983D02*
Y11063D01*
X54573Y10863D02*
X54653D01*
X54613Y10823D02*
Y10903D01*
X54239Y10923D02*
X54319D01*
X54279Y10883D02*
Y10963D01*
X53904Y10863D02*
X53984D01*
X53944Y10823D02*
Y10903D01*
X53564Y10863D02*
X53644D01*
X53604Y10823D02*
Y10903D01*
X53254Y11003D02*
X53334D01*
X53294Y10963D02*
Y11043D01*
X40547Y12791D02*
X40627D01*
X40587Y12751D02*
Y12831D01*
X40788Y13031D02*
X40868D01*
X40828Y12991D02*
Y13071D01*
X41028Y13272D02*
X41108D01*
X41068Y13232D02*
Y13312D01*
X41269Y13512D02*
X41349D01*
X41309Y13472D02*
Y13552D01*
X41509Y13753D02*
X41589D01*
X41549Y13713D02*
Y13793D01*
X41749Y13993D02*
X41829D01*
X41789Y13953D02*
Y14033D01*
X41990Y14234D02*
X42070D01*
X42030Y14194D02*
Y14274D01*
X42236Y14468D02*
X42316D01*
X42276Y14428D02*
Y14508D01*
X37903Y17146D02*
X37983D01*
X37943Y17106D02*
Y17186D01*
X38143Y17387D02*
X38223D01*
X38183Y17347D02*
Y17427D01*
X38384Y17627D02*
X38464D01*
X38424Y17587D02*
Y17667D01*
X38624Y17868D02*
X38704D01*
X38664Y17828D02*
Y17908D01*
X38864Y18108D02*
X38944D01*
X38904Y18068D02*
Y18148D01*
X39105Y18349D02*
X39185D01*
X39145Y18309D02*
Y18389D01*
X39345Y18589D02*
X39425D01*
X39385Y18549D02*
Y18629D01*
X39586Y18829D02*
X39666D01*
X39626Y18789D02*
Y18869D01*
X39826Y19070D02*
X39906D01*
X39866Y19030D02*
Y19110D01*
X40067Y19310D02*
X40147D01*
X40107Y19270D02*
Y19350D01*
X40307Y19551D02*
X40387D01*
X40347Y19511D02*
Y19591D01*
X40547Y19791D02*
X40627D01*
X40587Y19751D02*
Y19831D01*
X40788Y20031D02*
X40868D01*
X40828Y19991D02*
Y20071D01*
X41028Y20272D02*
X41108D01*
X41068Y20232D02*
Y20312D01*
X41269Y20512D02*
X41349D01*
X41309Y20472D02*
Y20552D01*
X41509Y20753D02*
X41589D01*
X41549Y20713D02*
Y20793D01*
X41749Y20993D02*
X41829D01*
X41789Y20953D02*
Y21033D01*
X41990Y21234D02*
X42070D01*
X42030Y21194D02*
Y21274D01*
X42236Y21468D02*
X42316D01*
X42276Y21428D02*
Y21508D01*
X52546Y17685D02*
X52626D01*
X52586Y17645D02*
Y17725D01*
X52787Y17445D02*
X52867D01*
X52827Y17405D02*
Y17485D01*
X53029Y17206D02*
X53109D01*
X53069Y17166D02*
Y17246D01*
X53362Y17137D02*
X53442D01*
X53402Y17097D02*
Y17177D01*
X53016Y16977D02*
X53096D01*
X53056Y16937D02*
Y17017D01*
X52676Y16977D02*
X52756D01*
X52716Y16937D02*
Y17017D01*
X52336Y16977D02*
X52416D01*
X52376Y16937D02*
Y17017D01*
X51996Y16977D02*
X52076D01*
X52036Y16937D02*
Y17017D01*
X51919Y17604D02*
X51999D01*
X51959Y17564D02*
Y17644D01*
X51948Y17943D02*
X52028D01*
X51988Y17903D02*
Y17983D01*
X52288Y17943D02*
X52368D01*
X52328Y17903D02*
Y17983D01*
X54873Y18023D02*
X54953D01*
X54913Y17983D02*
Y18063D01*
X54573Y17863D02*
X54653D01*
X54613Y17823D02*
Y17903D01*
X54239Y17923D02*
X54319D01*
X54279Y17883D02*
Y17963D01*
X53904Y17863D02*
X53984D01*
X53944Y17823D02*
Y17903D01*
X53564Y17863D02*
X53644D01*
X53604Y17823D02*
Y17903D01*
X53254Y18003D02*
X53334D01*
X53294Y17963D02*
Y18043D01*
X52546Y24685D02*
X52626D01*
X52586Y24645D02*
Y24725D01*
X52787Y24445D02*
X52867D01*
X52827Y24405D02*
Y24485D01*
X53029Y24206D02*
X53109D01*
X53069Y24166D02*
Y24246D01*
X53362Y24137D02*
X53442D01*
X53402Y24097D02*
Y24177D01*
X53016Y23977D02*
X53096D01*
X53056Y23937D02*
Y24017D01*
X52676Y23977D02*
X52756D01*
X52716Y23937D02*
Y24017D01*
X52336Y23977D02*
X52416D01*
X52376Y23937D02*
Y24017D01*
X51996Y23977D02*
X52076D01*
X52036Y23937D02*
Y24017D01*
X51919Y24604D02*
X51999D01*
X51959Y24564D02*
Y24644D01*
X51948Y24943D02*
X52028D01*
X51988Y24903D02*
Y24983D01*
X52288Y24943D02*
X52368D01*
X52328Y24903D02*
Y24983D01*
X54873Y25023D02*
X54953D01*
X54913Y24983D02*
Y25063D01*
X54573Y24863D02*
X54653D01*
X54613Y24823D02*
Y24903D01*
X54239Y24923D02*
X54319D01*
X54279Y24883D02*
Y24963D01*
X53904Y24863D02*
X53984D01*
X53944Y24823D02*
Y24903D01*
X53564Y24863D02*
X53644D01*
X53604Y24823D02*
Y24903D01*
X53254Y25003D02*
X53334D01*
X53294Y24963D02*
Y25043D01*
X48329Y26005D02*
X48409D01*
X48369Y25965D02*
Y26045D01*
X47989Y26005D02*
X48069D01*
X48029Y25965D02*
Y26045D01*
X47649Y26005D02*
X47729D01*
X47689Y25965D02*
Y26045D01*
X47309Y26005D02*
X47389D01*
X47349Y25965D02*
Y26045D01*
X46969Y26005D02*
X47049D01*
X47009Y25965D02*
Y26045D01*
X46629Y26005D02*
X46709D01*
X46669Y25965D02*
Y26045D01*
X46289Y26005D02*
X46369D01*
X46329Y25965D02*
Y26045D01*
X45949Y26005D02*
X46029D01*
X45989Y25965D02*
Y26045D01*
X45609Y26005D02*
X45689D01*
X45649Y25965D02*
Y26045D01*
X45269Y26005D02*
X45349D01*
X45309Y25965D02*
Y26045D01*
X44942Y25911D02*
X45022D01*
X44982Y25871D02*
Y25951D01*
X44702Y25671D02*
X44782D01*
X44742Y25631D02*
Y25711D01*
X44461Y25430D02*
X44541D01*
X44501Y25390D02*
Y25470D01*
X44221Y25190D02*
X44301D01*
X44261Y25150D02*
Y25230D01*
X43980Y24949D02*
X44060D01*
X44020Y24909D02*
Y24989D01*
X43740Y24709D02*
X43820D01*
X43780Y24669D02*
Y24749D01*
X43499Y24469D02*
X43579D01*
X43539Y24429D02*
Y24509D01*
X43259Y24228D02*
X43339D01*
X43299Y24188D02*
Y24268D01*
X43019Y23988D02*
X43099D01*
X43059Y23948D02*
Y24028D01*
X42789Y23737D02*
X42869D01*
X42829Y23697D02*
Y23777D01*
X42744Y23400D02*
X42824D01*
X42784Y23360D02*
Y23440D01*
X42744Y23060D02*
X42824D01*
X42784Y23020D02*
Y23100D01*
X42687Y22725D02*
X42767D01*
X42727Y22685D02*
Y22765D01*
X42516Y22431D02*
X42596D01*
X42556Y22391D02*
Y22471D01*
X42252Y22217D02*
X42332D01*
X42292Y22177D02*
Y22257D01*
X41950Y22061D02*
X42030D01*
X41990Y22021D02*
Y22101D01*
X41697Y21834D02*
X41777D01*
X41737Y21794D02*
Y21874D01*
X41457Y21593D02*
X41537D01*
X41497Y21553D02*
Y21633D01*
X41216Y21353D02*
X41296D01*
X41256Y21313D02*
Y21393D01*
X40976Y21112D02*
X41056D01*
X41016Y21072D02*
Y21152D01*
X40736Y20872D02*
X40816D01*
X40776Y20832D02*
Y20912D01*
X40495Y20632D02*
X40575D01*
X40535Y20592D02*
Y20672D01*
X40255Y20391D02*
X40335D01*
X40295Y20351D02*
Y20431D01*
X40014Y20151D02*
X40094D01*
X40054Y20111D02*
Y20191D01*
X39774Y19910D02*
X39854D01*
X39814Y19870D02*
Y19950D01*
X39534Y19670D02*
X39614D01*
X39574Y19630D02*
Y19710D01*
X39293Y19430D02*
X39373D01*
X39333Y19390D02*
Y19470D01*
X39053Y19189D02*
X39133D01*
X39093Y19149D02*
Y19229D01*
X38812Y18949D02*
X38892D01*
X38852Y18909D02*
Y18989D01*
X38572Y18708D02*
X38652D01*
X38612Y18668D02*
Y18748D01*
X38331Y18468D02*
X38411D01*
X38371Y18428D02*
Y18508D01*
X38091Y18227D02*
X38171D01*
X38131Y18187D02*
Y18267D01*
X37851Y17987D02*
X37931D01*
X37891Y17947D02*
Y18027D01*
X37610Y17747D02*
X37690D01*
X37650Y17707D02*
Y17787D01*
X37370Y17506D02*
X37450D01*
X37410Y17466D02*
Y17546D01*
X37150Y17247D02*
X37230D01*
X37190Y17207D02*
Y17287D01*
X37124Y16908D02*
X37204D01*
X37164Y16868D02*
Y16948D01*
X37124Y16568D02*
X37204D01*
X37164Y16528D02*
Y16608D01*
X37124Y16228D02*
X37204D01*
X37164Y16188D02*
Y16268D01*
X37124Y15888D02*
X37204D01*
X37164Y15848D02*
Y15928D01*
X37124Y15548D02*
X37204D01*
X37164Y15508D02*
Y15588D01*
X37124Y15208D02*
X37204D01*
X37164Y15168D02*
Y15248D01*
X37124Y14868D02*
X37204D01*
X37164Y14828D02*
Y14908D01*
X37124Y14528D02*
X37204D01*
X37164Y14488D02*
Y14568D01*
X37124Y14188D02*
X37204D01*
X37164Y14148D02*
Y14228D01*
X37124Y13848D02*
X37204D01*
X37164Y13808D02*
Y13888D01*
X37124Y13508D02*
X37204D01*
X37164Y13468D02*
Y13548D01*
X37124Y13168D02*
X37204D01*
X37164Y13128D02*
Y13208D01*
X37124Y12828D02*
X37204D01*
X37164Y12788D02*
Y12868D01*
X37124Y12488D02*
X37204D01*
X37164Y12448D02*
Y12528D01*
X37124Y12148D02*
X37204D01*
X37164Y12108D02*
Y12188D01*
X36903Y11889D02*
X36983D01*
X36943Y11849D02*
Y11929D01*
X36663Y11649D02*
X36743D01*
X36703Y11609D02*
Y11689D01*
X36422Y11409D02*
X36502D01*
X36462Y11369D02*
Y11449D01*
X36182Y11168D02*
X36262D01*
X36222Y11128D02*
Y11208D01*
X35941Y10928D02*
X36021D01*
X35981Y10888D02*
Y10968D01*
X35701Y10687D02*
X35781D01*
X35741Y10647D02*
Y10727D01*
X35461Y10447D02*
X35541D01*
X35501Y10407D02*
Y10487D01*
X35220Y10207D02*
X35300D01*
X35260Y10167D02*
Y10247D01*
X34980Y9966D02*
X35060D01*
X35020Y9926D02*
Y10006D01*
X34739Y9726D02*
X34819D01*
X34779Y9686D02*
Y9766D01*
X34499Y9485D02*
X34579D01*
X34539Y9445D02*
Y9525D01*
X34259Y9245D02*
X34339D01*
X34299Y9205D02*
Y9285D01*
X34018Y9004D02*
X34098D01*
X34058Y8964D02*
Y9044D01*
X33778Y8764D02*
X33858D01*
X33818Y8724D02*
Y8804D01*
X33537Y8524D02*
X33617D01*
X33577Y8484D02*
Y8564D01*
X33297Y8283D02*
X33377D01*
X33337Y8243D02*
Y8323D01*
X33056Y8043D02*
X33136D01*
X33096Y8003D02*
Y8083D01*
X32816Y7802D02*
X32896D01*
X32856Y7762D02*
Y7842D01*
X32576Y7562D02*
X32656D01*
X32616Y7522D02*
Y7602D01*
X32335Y7322D02*
X32415D01*
X32375Y7282D02*
Y7362D01*
X32095Y7081D02*
X32175D01*
X32135Y7041D02*
Y7121D01*
X31854Y6841D02*
X31934D01*
X31894Y6801D02*
Y6881D01*
X31614Y6600D02*
X31694D01*
X31654Y6560D02*
Y6640D01*
X31374Y6360D02*
X31454D01*
X31414Y6320D02*
Y6400D01*
X31133Y6119D02*
X31213D01*
X31173Y6079D02*
Y6159D01*
X30893Y5879D02*
X30973D01*
X30933Y5839D02*
Y5919D01*
X30652Y5639D02*
X30732D01*
X30692Y5599D02*
Y5679D01*
X30412Y5398D02*
X30492D01*
X30452Y5358D02*
Y5438D01*
X30171Y5158D02*
X30251D01*
X30211Y5118D02*
Y5198D01*
X29931Y4917D02*
X30011D01*
X29971Y4877D02*
Y4957D01*
X29691Y4677D02*
X29771D01*
X29731Y4637D02*
Y4717D01*
X29450Y4437D02*
X29530D01*
X29490Y4397D02*
Y4477D01*
X29210Y4196D02*
X29290D01*
X29250Y4156D02*
Y4236D01*
X28969Y3956D02*
X29049D01*
X29009Y3916D02*
Y3996D01*
X28729Y3715D02*
X28809D01*
X28769Y3675D02*
Y3755D01*
X28489Y3475D02*
X28569D01*
X28529Y3435D02*
Y3515D01*
X28248Y3234D02*
X28328D01*
X28288Y3194D02*
Y3274D01*
X28008Y2994D02*
X28088D01*
X28048Y2954D02*
Y3034D01*
X27767Y2754D02*
X27847D01*
X27807Y2714D02*
Y2794D01*
X27527Y2513D02*
X27607D01*
X27567Y2473D02*
Y2553D01*
X27286Y2273D02*
X27366D01*
X27326Y2233D02*
Y2313D01*
X27046Y2032D02*
X27126D01*
X27086Y1992D02*
Y2072D01*
X26806Y1792D02*
X26886D01*
X26846Y1752D02*
Y1832D01*
X26565Y1552D02*
X26645D01*
X26605Y1512D02*
Y1592D01*
X26325Y1311D02*
X26405D01*
X26365Y1271D02*
Y1351D01*
X26084Y1071D02*
X26164D01*
X26124Y1031D02*
Y1111D01*
X25844Y830D02*
X25924D01*
X25884Y790D02*
Y870D01*
X25604Y590D02*
X25684D01*
X25644Y550D02*
Y630D01*
X25363Y349D02*
X25443D01*
X25403Y309D02*
Y389D01*
X25025Y316D02*
X25105D01*
X25065Y276D02*
Y356D01*
X24700Y216D02*
X24780D01*
X24740Y176D02*
Y256D01*
X24459Y-24D02*
X24539D01*
X24499Y-64D02*
Y16D01*
X24219Y-265D02*
X24299D01*
X24259Y-305D02*
Y-225D01*
X23978Y-505D02*
X24058D01*
X24018Y-545D02*
Y-465D01*
X23738Y-746D02*
X23818D01*
X23778Y-786D02*
Y-706D01*
X23498Y-986D02*
X23578D01*
X23538Y-1026D02*
Y-946D01*
X23257Y-1226D02*
X23337D01*
X23297Y-1266D02*
Y-1186D01*
X23017Y-1467D02*
X23097D01*
X23057Y-1507D02*
Y-1427D01*
X22776Y-1707D02*
X22856D01*
X22816Y-1747D02*
Y-1667D01*
X22536Y-1948D02*
X22616D01*
X22576Y-1988D02*
Y-1908D01*
X22296Y-2188D02*
X22376D01*
X22336Y-2228D02*
Y-2148D01*
X22055Y-2429D02*
X22135D01*
X22095Y-2469D02*
Y-2389D01*
X21815Y-2669D02*
X21895D01*
X21855Y-2709D02*
Y-2629D01*
X21574Y-2909D02*
X21654D01*
X21614Y-2949D02*
Y-2869D01*
X21411Y-3208D02*
X21491D01*
X21451Y-3248D02*
Y-3168D01*
X21411Y-3548D02*
X21491D01*
X21451Y-3588D02*
Y-3508D01*
X21411Y-3888D02*
X21491D01*
X21451Y-3928D02*
Y-3848D01*
X21411Y-4228D02*
X21491D01*
X21451Y-4268D02*
Y-4188D01*
X21411Y-4568D02*
X21491D01*
X21451Y-4608D02*
Y-4528D01*
X21411Y-5248D02*
X21491D01*
X21451Y-5288D02*
Y-5208D01*
X21411Y-5588D02*
X21491D01*
X21451Y-5628D02*
Y-5548D01*
X22598Y-7216D02*
X22678D01*
X22638Y-7256D02*
Y-7176D01*
X23278Y-7216D02*
X23358D01*
X23318Y-7256D02*
Y-7176D01*
X23618Y-7216D02*
X23698D01*
X23658Y-7256D02*
Y-7176D01*
X23939Y-7104D02*
X24019D01*
X23979Y-7144D02*
Y-7064D01*
X24918Y-7216D02*
X24998D01*
X24958Y-7256D02*
Y-7176D01*
X25258Y-7216D02*
X25338D01*
X25298Y-7256D02*
Y-7176D01*
X25598Y-7215D02*
X25678D01*
X25638Y-7255D02*
Y-7175D01*
X25938Y-7212D02*
X26018D01*
X25978Y-7252D02*
Y-7172D01*
X26278Y-7209D02*
X26358D01*
X26318Y-7249D02*
Y-7169D01*
X26618Y-7208D02*
X26698D01*
X26658Y-7248D02*
Y-7168D01*
X26958Y-7211D02*
X27038D01*
X26998Y-7251D02*
Y-7171D01*
X27298Y-7215D02*
X27378D01*
X27338Y-7255D02*
Y-7175D01*
X27638Y-7216D02*
X27718D01*
X27678Y-7256D02*
Y-7176D01*
X27972Y-7152D02*
X28052D01*
X28012Y-7192D02*
Y-7112D01*
X28942Y-6975D02*
X29022D01*
X28982Y-7015D02*
Y-6935D01*
X29282Y-6975D02*
X29362D01*
X29322Y-7015D02*
Y-6935D01*
X29622Y-6975D02*
X29702D01*
X29662Y-7015D02*
Y-6935D01*
X29962Y-6975D02*
X30042D01*
X30002Y-7015D02*
Y-6935D01*
X30302Y-6975D02*
X30382D01*
X30342Y-7015D02*
Y-6935D01*
X30642Y-6975D02*
X30722D01*
X30682Y-7015D02*
Y-6935D01*
X30982Y-6975D02*
X31062D01*
X31022Y-7015D02*
Y-6935D01*
X31322Y-6975D02*
X31402D01*
X31362Y-7015D02*
Y-6935D01*
X31662Y-6975D02*
X31742D01*
X31702Y-7015D02*
Y-6935D01*
X32002Y-6975D02*
X32082D01*
X32042Y-7015D02*
Y-6935D01*
X32342Y-6975D02*
X32422D01*
X32382Y-7015D02*
Y-6935D01*
X32682Y-6975D02*
X32762D01*
X32722Y-7015D02*
Y-6935D01*
X33022Y-6975D02*
X33102D01*
X33062Y-7015D02*
Y-6935D01*
X33362Y-6975D02*
X33442D01*
X33402Y-7015D02*
Y-6935D01*
X33702Y-6975D02*
X33782D01*
X33742Y-7015D02*
Y-6935D01*
X34042Y-6975D02*
X34122D01*
X34082Y-7015D02*
Y-6935D01*
X34382Y-6975D02*
X34462D01*
X34422Y-7015D02*
Y-6935D01*
X34722Y-6975D02*
X34802D01*
X34762Y-7015D02*
Y-6935D01*
X35015Y-7149D02*
X35095D01*
X35055Y-7189D02*
Y-7109D01*
X34774Y-7389D02*
X34854D01*
X34814Y-7429D02*
Y-7349D01*
X34534Y-7630D02*
X34614D01*
X34574Y-7670D02*
Y-7590D01*
X34293Y-7870D02*
X34373D01*
X34333Y-7910D02*
Y-7830D01*
X34053Y-8111D02*
X34133D01*
X34093Y-8151D02*
Y-8071D01*
X33813Y-8351D02*
X33893D01*
X33853Y-8391D02*
Y-8311D01*
X33572Y-8592D02*
X33652D01*
X33612Y-8632D02*
Y-8552D01*
X33332Y-8832D02*
X33412D01*
X33372Y-8872D02*
Y-8792D01*
X33091Y-9072D02*
X33171D01*
X33131Y-9112D02*
Y-9032D01*
X32851Y-9313D02*
X32931D01*
X32891Y-9353D02*
Y-9273D01*
X32610Y-9553D02*
X32690D01*
X32650Y-9593D02*
Y-9513D01*
X32370Y-9794D02*
X32450D01*
X32410Y-9834D02*
Y-9754D01*
X32130Y-10034D02*
X32210D01*
X32170Y-10074D02*
Y-9994D01*
X31889Y-10274D02*
X31969D01*
X31929Y-10314D02*
Y-10234D01*
X31622Y-10484D02*
X31702D01*
X31662Y-10524D02*
Y-10444D01*
X31282Y-10484D02*
X31362D01*
X31322Y-10524D02*
Y-10444D01*
X30942Y-10484D02*
X31022D01*
X30982Y-10524D02*
Y-10444D01*
X30602Y-10484D02*
X30682D01*
X30642Y-10524D02*
Y-10444D01*
X30262Y-10484D02*
X30342D01*
X30302Y-10524D02*
Y-10444D01*
X29922Y-10484D02*
X30002D01*
X29962Y-10524D02*
Y-10444D01*
X29582Y-10484D02*
X29662D01*
X29622Y-10524D02*
Y-10444D01*
X29242Y-10484D02*
X29322D01*
X29282Y-10524D02*
Y-10444D01*
X26170Y-8534D02*
X26250D01*
X26210Y-8574D02*
Y-8494D01*
X25830Y-8534D02*
X25910D01*
X25870Y-8574D02*
Y-8494D01*
X25490Y-8534D02*
X25570D01*
X25530Y-8574D02*
Y-8494D01*
X20781Y-10026D02*
X20861D01*
X20821Y-10066D02*
Y-9986D01*
X20467Y-9715D02*
X20547D01*
X20507Y-9755D02*
Y-9675D01*
X17316Y-9830D02*
X17396D01*
X17356Y-9870D02*
Y-9790D01*
X17316Y-10170D02*
X17396D01*
X17356Y-10210D02*
Y-10130D01*
X17316Y-10510D02*
X17396D01*
X17356Y-10550D02*
Y-10470D01*
X17316Y-11530D02*
X17396D01*
X17356Y-11570D02*
Y-11490D01*
X17448Y-12184D02*
X17528D01*
X17488Y-12224D02*
Y-12144D01*
X17688Y-12424D02*
X17768D01*
X17728Y-12464D02*
Y-12384D01*
X17929Y-12665D02*
X18009D01*
X17969Y-12705D02*
Y-12625D01*
X18169Y-12905D02*
X18249D01*
X18209Y-12945D02*
Y-12865D01*
X18409Y-13146D02*
X18489D01*
X18449Y-13186D02*
Y-13106D01*
X18650Y-13386D02*
X18730D01*
X18690Y-13426D02*
Y-13346D01*
X18890Y-13627D02*
X18970D01*
X18930Y-13667D02*
Y-13587D01*
X19131Y-13867D02*
X19211D01*
X19171Y-13907D02*
Y-13827D01*
X19371Y-14107D02*
X19451D01*
X19411Y-14147D02*
Y-14067D01*
X19611Y-14348D02*
X19691D01*
X19651Y-14388D02*
Y-14308D01*
X19852Y-14588D02*
X19932D01*
X19892Y-14628D02*
Y-14548D01*
X20092Y-14829D02*
X20172D01*
X20132Y-14869D02*
Y-14789D01*
X20333Y-15069D02*
X20413D01*
X20373Y-15109D02*
Y-15029D01*
X20573Y-15309D02*
X20653D01*
X20613Y-15349D02*
Y-15269D01*
X20814Y-15550D02*
X20894D01*
X20854Y-15590D02*
Y-15510D01*
X21054Y-15790D02*
X21134D01*
X21094Y-15830D02*
Y-15750D01*
X21294Y-16031D02*
X21374D01*
X21334Y-16071D02*
Y-15991D01*
X21535Y-16271D02*
X21615D01*
X21575Y-16311D02*
Y-16231D01*
X21775Y-16512D02*
X21855D01*
X21815Y-16552D02*
Y-16472D01*
X22016Y-16752D02*
X22096D01*
X22056Y-16792D02*
Y-16712D01*
X22256Y-16992D02*
X22336D01*
X22296Y-17032D02*
Y-16952D01*
X22496Y-17233D02*
X22576D01*
X22536Y-17273D02*
Y-17193D01*
X22977Y-17714D02*
X23057D01*
X23017Y-17754D02*
Y-17674D01*
X23699Y-18435D02*
X23779D01*
X23739Y-18475D02*
Y-18395D01*
X24179Y-18916D02*
X24259D01*
X24219Y-18956D02*
Y-18876D01*
X31537Y-20124D02*
X31617D01*
X31577Y-20164D02*
Y-20084D01*
X32259Y-20845D02*
X32339D01*
X32299Y-20885D02*
Y-20805D01*
X32980Y-21566D02*
X33060D01*
X33020Y-21606D02*
Y-21526D01*
X34663Y-23249D02*
X34743D01*
X34703Y-23289D02*
Y-23209D01*
X34903Y-23490D02*
X34983D01*
X34943Y-23530D02*
Y-23450D01*
X35144Y-23730D02*
X35224D01*
X35184Y-23770D02*
Y-23690D01*
X35384Y-23970D02*
X35464D01*
X35424Y-24010D02*
Y-23930D01*
X35624Y-24211D02*
X35704D01*
X35664Y-24251D02*
Y-24171D01*
X35865Y-24451D02*
X35945D01*
X35905Y-24491D02*
Y-24411D01*
X36145Y-24644D02*
X36225D01*
X36185Y-24684D02*
Y-24604D01*
X36485Y-24649D02*
X36565D01*
X36525Y-24689D02*
Y-24609D01*
X36825Y-24649D02*
X36905D01*
X36865Y-24689D02*
Y-24609D01*
X37165Y-24649D02*
X37245D01*
X37205Y-24689D02*
Y-24609D01*
X37505Y-24649D02*
X37585D01*
X37545Y-24689D02*
Y-24609D01*
X37845Y-24649D02*
X37925D01*
X37885Y-24689D02*
Y-24609D01*
X38185Y-24649D02*
X38265D01*
X38225Y-24689D02*
Y-24609D01*
X38525Y-24649D02*
X38605D01*
X38565Y-24689D02*
Y-24609D01*
X38865Y-24649D02*
X38945D01*
X38905Y-24689D02*
Y-24609D01*
X39205Y-24649D02*
X39285D01*
X39245Y-24689D02*
Y-24609D01*
X39545Y-24649D02*
X39625D01*
X39585Y-24689D02*
Y-24609D01*
X39885Y-24649D02*
X39965D01*
X39925Y-24689D02*
Y-24609D01*
X40225Y-24649D02*
X40305D01*
X40265Y-24689D02*
Y-24609D01*
X40565Y-24649D02*
X40645D01*
X40605Y-24689D02*
Y-24609D01*
X40905Y-24649D02*
X40985D01*
X40945Y-24689D02*
Y-24609D01*
X41245Y-24649D02*
X41325D01*
X41285Y-24689D02*
Y-24609D01*
X41585Y-24649D02*
X41665D01*
X41625Y-24689D02*
Y-24609D01*
X41925Y-24649D02*
X42005D01*
X41965Y-24689D02*
Y-24609D01*
X42265Y-24649D02*
X42345D01*
X42305Y-24689D02*
Y-24609D01*
X42605Y-24649D02*
X42685D01*
X42645Y-24689D02*
Y-24609D01*
X42844Y-24891D02*
X42924D01*
X42884Y-24931D02*
Y-24851D01*
X42844Y-25231D02*
X42924D01*
X42884Y-25271D02*
Y-25191D01*
X42844Y-25571D02*
X42924D01*
X42884Y-25611D02*
Y-25531D01*
X42844Y-25911D02*
X42924D01*
X42884Y-25951D02*
Y-25871D01*
X42844Y-26251D02*
X42924D01*
X42884Y-26291D02*
Y-26211D01*
X42844Y-26591D02*
X42924D01*
X42884Y-26631D02*
Y-26551D01*
X42770Y-26923D02*
X42850D01*
X42810Y-26963D02*
Y-26883D01*
X42886Y-27242D02*
X42966D01*
X42926Y-27282D02*
Y-27202D01*
X43208Y-27350D02*
X43288D01*
X43248Y-27390D02*
Y-27310D01*
X43548Y-27369D02*
X43628D01*
X43588Y-27409D02*
Y-27329D01*
X43803Y-27594D02*
X43883D01*
X43843Y-27634D02*
Y-27554D01*
X44138Y-27536D02*
X44218D01*
X44178Y-27576D02*
Y-27496D01*
X44478Y-27532D02*
X44558D01*
X44518Y-27572D02*
Y-27492D01*
X44818Y-27532D02*
X44898D01*
X44858Y-27572D02*
Y-27492D01*
X45158Y-27532D02*
X45238D01*
X45198Y-27572D02*
Y-27492D01*
X45498Y-27532D02*
X45578D01*
X45538Y-27572D02*
Y-27492D01*
X45838Y-27532D02*
X45918D01*
X45878Y-27572D02*
Y-27492D01*
X46858Y-27532D02*
X46938D01*
X46898Y-27572D02*
Y-27492D01*
X47878Y-27532D02*
X47958D01*
X47918Y-27572D02*
Y-27492D01*
X48218Y-27532D02*
X48298D01*
X48258Y-27572D02*
Y-27492D01*
X48558Y-27532D02*
X48638D01*
X48598Y-27572D02*
Y-27492D01*
X49636Y-27156D02*
X49716D01*
X49676Y-27196D02*
Y-27116D01*
X49629Y-26816D02*
X49709D01*
X49669Y-26856D02*
Y-26776D01*
X47668Y-26645D02*
X47748D01*
X47708Y-26685D02*
Y-26605D01*
X47328Y-26645D02*
X47408D01*
X47368Y-26685D02*
Y-26605D01*
X46988Y-26645D02*
X47068D01*
X47028Y-26685D02*
Y-26605D01*
X46648Y-26645D02*
X46728D01*
X46688Y-26685D02*
Y-26605D01*
X46308Y-26645D02*
X46388D01*
X46348Y-26685D02*
Y-26605D01*
X45968Y-26645D02*
X46048D01*
X46008Y-26685D02*
Y-26605D01*
X45628Y-26645D02*
X45708D01*
X45668Y-26685D02*
Y-26605D01*
X45288Y-26645D02*
X45368D01*
X45328Y-26685D02*
Y-26605D01*
X44948Y-26645D02*
X45028D01*
X44988Y-26685D02*
Y-26605D01*
X44608Y-26645D02*
X44688D01*
X44648Y-26685D02*
Y-26605D01*
X44268Y-26645D02*
X44348D01*
X44308Y-26685D02*
Y-26605D01*
X44226Y-26307D02*
X44306D01*
X44266Y-26347D02*
Y-26267D01*
X44226Y-25967D02*
X44306D01*
X44266Y-26007D02*
Y-25927D01*
X44226Y-25627D02*
X44306D01*
X44266Y-25667D02*
Y-25587D01*
X44226Y-25287D02*
X44306D01*
X44266Y-25327D02*
Y-25247D01*
X44226Y-24947D02*
X44306D01*
X44266Y-24987D02*
Y-24907D01*
X44390Y-24649D02*
X44470D01*
X44430Y-24689D02*
Y-24609D01*
X44730Y-24649D02*
X44810D01*
X44770Y-24689D02*
Y-24609D01*
X45061Y-24724D02*
X45141D01*
X45101Y-24764D02*
Y-24684D01*
X45393Y-24649D02*
X45473D01*
X45433Y-24689D02*
Y-24609D01*
X45733Y-24649D02*
X45813D01*
X45773Y-24689D02*
Y-24609D01*
X46753Y-24649D02*
X46833D01*
X46793Y-24689D02*
Y-24609D01*
X47773Y-24649D02*
X47853D01*
X47813Y-24689D02*
Y-24609D01*
X48109Y-24704D02*
X48189D01*
X48149Y-24744D02*
Y-24664D01*
X48447Y-24671D02*
X48527D01*
X48487Y-24711D02*
Y-24631D01*
X49636Y-24378D02*
X49716D01*
X49676Y-24418D02*
Y-24338D01*
X48543Y-24018D02*
X48623D01*
X48583Y-24058D02*
Y-23978D01*
X47879Y-24018D02*
X47959D01*
X47919Y-24058D02*
Y-23978D01*
X44524Y-23882D02*
X44604D01*
X44564Y-23922D02*
Y-23842D01*
X44864Y-23882D02*
X44944D01*
X44904Y-23922D02*
Y-23842D01*
X45204Y-23882D02*
X45284D01*
X45244Y-23922D02*
Y-23842D01*
X49595Y-23797D02*
X49675D01*
X49635Y-23837D02*
Y-23757D01*
X49633Y-23459D02*
X49713D01*
X49673Y-23499D02*
Y-23419D01*
X48641Y-22984D02*
X48721D01*
X48681Y-23024D02*
Y-22944D01*
X48301Y-22995D02*
X48381D01*
X48341Y-23035D02*
Y-22955D01*
X47961Y-22995D02*
X48041D01*
X48001Y-23035D02*
Y-22955D01*
X47621Y-22995D02*
X47701D01*
X47661Y-23035D02*
Y-22955D01*
X47281Y-22995D02*
X47361D01*
X47321Y-23035D02*
Y-22955D01*
X46941Y-22995D02*
X47021D01*
X46981Y-23035D02*
Y-22955D01*
X46601Y-22995D02*
X46681D01*
X46641Y-23035D02*
Y-22955D01*
X46261Y-22995D02*
X46341D01*
X46301Y-23035D02*
Y-22955D01*
X45921Y-22995D02*
X46001D01*
X45961Y-23035D02*
Y-22955D01*
X45581Y-22995D02*
X45661D01*
X45621Y-23035D02*
Y-22955D01*
X45241Y-22995D02*
X45321D01*
X45281Y-23035D02*
Y-22955D01*
X44901Y-22995D02*
X44981D01*
X44941Y-23035D02*
Y-22955D01*
X44561Y-22995D02*
X44641D01*
X44601Y-23035D02*
Y-22955D01*
X44226Y-22939D02*
X44306D01*
X44266Y-22979D02*
Y-22899D01*
X44288Y-22605D02*
X44368D01*
X44328Y-22645D02*
Y-22565D01*
X44229Y-22271D02*
X44309D01*
X44269Y-22311D02*
Y-22231D01*
X43931Y-22106D02*
X44011D01*
X43971Y-22146D02*
Y-22066D01*
X43600Y-22184D02*
X43680D01*
X43640Y-22224D02*
Y-22144D01*
X43260Y-22184D02*
X43340D01*
X43300Y-22224D02*
Y-22144D01*
X42920Y-22184D02*
X43000D01*
X42960Y-22224D02*
Y-22144D01*
X42580Y-22184D02*
X42660D01*
X42620Y-22224D02*
Y-22144D01*
X42240Y-22184D02*
X42320D01*
X42280Y-22224D02*
Y-22144D01*
X41900Y-22184D02*
X41980D01*
X41940Y-22224D02*
Y-22144D01*
X41560Y-22184D02*
X41640D01*
X41600Y-22224D02*
Y-22144D01*
X41220Y-22184D02*
X41300D01*
X41260Y-22224D02*
Y-22144D01*
X40880Y-22184D02*
X40960D01*
X40920Y-22224D02*
Y-22144D01*
X40540Y-22184D02*
X40620D01*
X40580Y-22224D02*
Y-22144D01*
X40200Y-22184D02*
X40280D01*
X40240Y-22224D02*
Y-22144D01*
X39860Y-22184D02*
X39940D01*
X39900Y-22224D02*
Y-22144D01*
X39520Y-22184D02*
X39600D01*
X39560Y-22224D02*
Y-22144D01*
X39180Y-22184D02*
X39260D01*
X39220Y-22224D02*
Y-22144D01*
X38840Y-22184D02*
X38920D01*
X38880Y-22224D02*
Y-22144D01*
X38500Y-22184D02*
X38580D01*
X38540Y-22224D02*
Y-22144D01*
X38160Y-22184D02*
X38240D01*
X38200Y-22224D02*
Y-22144D01*
X37820Y-22184D02*
X37900D01*
X37860Y-22224D02*
Y-22144D01*
X37480Y-22184D02*
X37560D01*
X37520Y-22224D02*
Y-22144D01*
X37140Y-22184D02*
X37220D01*
X37180Y-22224D02*
Y-22144D01*
X36800Y-22184D02*
X36880D01*
X36840Y-22224D02*
Y-22144D01*
X36460Y-22184D02*
X36540D01*
X36500Y-22224D02*
Y-22144D01*
X36126Y-22120D02*
X36206D01*
X36166Y-22160D02*
Y-22080D01*
X35886Y-21879D02*
X35966D01*
X35926Y-21919D02*
Y-21839D01*
X35645Y-21639D02*
X35725D01*
X35685Y-21679D02*
Y-21599D01*
X35405Y-21398D02*
X35485D01*
X35445Y-21438D02*
Y-21358D01*
X35164Y-21158D02*
X35244D01*
X35204Y-21198D02*
Y-21118D01*
X34924Y-20918D02*
X35004D01*
X34964Y-20958D02*
Y-20878D01*
X34684Y-20677D02*
X34764D01*
X34724Y-20717D02*
Y-20637D01*
X33001Y-18994D02*
X33081D01*
X33041Y-19034D02*
Y-18954D01*
X29608Y-17284D02*
X29688D01*
X29648Y-17324D02*
Y-17244D01*
X28588Y-17284D02*
X28668D01*
X28628Y-17324D02*
Y-17244D01*
X29969Y-17166D02*
X30049D01*
X30009Y-17206D02*
Y-17126D01*
X33029Y-17166D02*
X33109D01*
X33069Y-17206D02*
Y-17126D01*
X33369Y-17166D02*
X33449D01*
X33409Y-17206D02*
Y-17126D01*
X34729Y-17166D02*
X34809D01*
X34769Y-17206D02*
Y-17126D01*
X35069Y-17166D02*
X35149D01*
X35109Y-17206D02*
Y-17126D01*
X35409Y-17166D02*
X35489D01*
X35449Y-17206D02*
Y-17126D01*
X35749Y-17166D02*
X35829D01*
X35789Y-17206D02*
Y-17126D01*
X36089Y-17166D02*
X36169D01*
X36129Y-17206D02*
Y-17126D01*
X36429Y-17166D02*
X36509D01*
X36469Y-17206D02*
Y-17126D01*
X36769Y-17166D02*
X36849D01*
X36809Y-17206D02*
Y-17126D01*
X37109Y-17166D02*
X37189D01*
X37149Y-17206D02*
Y-17126D01*
X37449Y-17166D02*
X37529D01*
X37489Y-17206D02*
Y-17126D01*
X37789Y-17166D02*
X37869D01*
X37829Y-17206D02*
Y-17126D01*
X38129Y-17166D02*
X38209D01*
X38169Y-17206D02*
Y-17126D01*
X38469Y-17166D02*
X38549D01*
X38509Y-17206D02*
Y-17126D01*
X38809Y-17166D02*
X38889D01*
X38849Y-17206D02*
Y-17126D01*
X39149Y-17166D02*
X39229D01*
X39189Y-17206D02*
Y-17126D01*
X39489Y-17166D02*
X39569D01*
X39529Y-17206D02*
Y-17126D01*
X39829Y-17166D02*
X39909D01*
X39869Y-17206D02*
Y-17126D01*
X40169Y-17166D02*
X40249D01*
X40209Y-17206D02*
Y-17126D01*
X40509Y-17166D02*
X40589D01*
X40549Y-17206D02*
Y-17126D01*
X40849Y-17166D02*
X40929D01*
X40889Y-17206D02*
Y-17126D01*
X41189Y-17166D02*
X41269D01*
X41229Y-17206D02*
Y-17126D01*
X41529Y-17166D02*
X41609D01*
X41569Y-17206D02*
Y-17126D01*
X41869Y-17166D02*
X41949D01*
X41909Y-17206D02*
Y-17126D01*
X42209Y-17166D02*
X42289D01*
X42249Y-17206D02*
Y-17126D01*
X42549Y-17166D02*
X42629D01*
X42589Y-17206D02*
Y-17126D01*
X42844Y-17335D02*
X42924D01*
X42884Y-17375D02*
Y-17295D01*
X42844Y-17675D02*
X42924D01*
X42884Y-17715D02*
Y-17635D01*
X42844Y-18015D02*
X42924D01*
X42884Y-18055D02*
Y-17975D01*
X42844Y-18355D02*
X42924D01*
X42884Y-18395D02*
Y-18315D01*
X42844Y-18695D02*
X42924D01*
X42884Y-18735D02*
Y-18655D01*
X42844Y-19035D02*
X42924D01*
X42884Y-19075D02*
Y-18995D01*
X42844Y-19375D02*
X42924D01*
X42884Y-19415D02*
Y-19335D01*
X42844Y-19715D02*
X42924D01*
X42884Y-19755D02*
Y-19675D01*
X42777Y-20048D02*
X42857D01*
X42817Y-20088D02*
Y-20008D01*
X42988Y-20315D02*
X43068D01*
X43028Y-20355D02*
Y-20275D01*
X43328Y-20317D02*
X43408D01*
X43368Y-20357D02*
Y-20277D01*
X43623Y-20486D02*
X43703D01*
X43663Y-20526D02*
Y-20446D01*
X43941Y-20608D02*
X44021D01*
X43981Y-20648D02*
Y-20568D01*
X44272Y-20532D02*
X44352D01*
X44312Y-20572D02*
Y-20492D01*
X44612Y-20532D02*
X44692D01*
X44652Y-20572D02*
Y-20492D01*
X44952Y-20532D02*
X45032D01*
X44992Y-20572D02*
Y-20492D01*
X45292Y-20532D02*
X45372D01*
X45332Y-20572D02*
Y-20492D01*
X46652Y-20532D02*
X46732D01*
X46692Y-20572D02*
Y-20492D01*
X46992Y-20532D02*
X47072D01*
X47032Y-20572D02*
Y-20492D01*
X48012Y-20532D02*
X48092D01*
X48052Y-20572D02*
Y-20492D01*
X48352Y-20532D02*
X48432D01*
X48392Y-20572D02*
Y-20492D01*
X49636Y-20016D02*
X49716D01*
X49676Y-20056D02*
Y-19976D01*
X49560Y-19684D02*
X49640D01*
X49600Y-19724D02*
Y-19644D01*
X47534Y-19645D02*
X47614D01*
X47574Y-19685D02*
Y-19605D01*
X47194Y-19645D02*
X47274D01*
X47234Y-19685D02*
Y-19605D01*
X46854Y-19645D02*
X46934D01*
X46894Y-19685D02*
Y-19605D01*
X46514Y-19645D02*
X46594D01*
X46554Y-19685D02*
Y-19605D01*
X46174Y-19645D02*
X46254D01*
X46214Y-19685D02*
Y-19605D01*
X45834Y-19645D02*
X45914D01*
X45874Y-19685D02*
Y-19605D01*
X45494Y-19645D02*
X45574D01*
X45534Y-19685D02*
Y-19605D01*
X45154Y-19645D02*
X45234D01*
X45194Y-19685D02*
Y-19605D01*
X44814Y-19645D02*
X44894D01*
X44854Y-19685D02*
Y-19605D01*
X44474Y-19645D02*
X44554D01*
X44514Y-19685D02*
Y-19605D01*
X44226Y-19412D02*
X44306D01*
X44266Y-19452D02*
Y-19372D01*
X44226Y-19072D02*
X44306D01*
X44266Y-19112D02*
Y-19032D01*
X44226Y-18732D02*
X44306D01*
X44266Y-18772D02*
Y-18692D01*
X44226Y-18392D02*
X44306D01*
X44266Y-18432D02*
Y-18352D01*
X44226Y-18052D02*
X44306D01*
X44266Y-18092D02*
Y-18012D01*
X44226Y-17712D02*
X44306D01*
X44266Y-17752D02*
Y-17672D01*
X44226Y-17372D02*
X44306D01*
X44266Y-17412D02*
Y-17332D01*
X44496Y-17167D02*
X44576D01*
X44536Y-17207D02*
Y-17127D01*
X44737Y-17407D02*
X44817D01*
X44777Y-17447D02*
Y-17367D01*
X44922Y-17692D02*
X45002D01*
X44962Y-17732D02*
Y-17652D01*
X45258Y-17745D02*
X45338D01*
X45298Y-17785D02*
Y-17705D01*
X45589Y-17667D02*
X45669D01*
X45629Y-17707D02*
Y-17627D01*
X46609Y-17667D02*
X46689D01*
X46649Y-17707D02*
Y-17627D01*
X46949Y-17667D02*
X47029D01*
X46989Y-17707D02*
Y-17627D01*
X47969Y-17667D02*
X48049D01*
X48009Y-17707D02*
Y-17627D01*
X48639Y-17659D02*
X48719D01*
X48679Y-17699D02*
Y-17619D01*
X49613Y-17527D02*
X49693D01*
X49653Y-17567D02*
Y-17487D01*
X48012Y-17018D02*
X48092D01*
X48052Y-17058D02*
Y-16978D01*
X45330Y-16882D02*
X45410D01*
X45370Y-16922D02*
Y-16842D01*
X49634Y-16668D02*
X49714D01*
X49674Y-16708D02*
Y-16628D01*
X49636Y-16328D02*
X49716D01*
X49676Y-16368D02*
Y-16288D01*
X48514Y-15995D02*
X48594D01*
X48554Y-16035D02*
Y-15955D01*
X48174Y-15995D02*
X48254D01*
X48214Y-16035D02*
Y-15955D01*
X47834Y-15995D02*
X47914D01*
X47874Y-16035D02*
Y-15955D01*
X47494Y-15995D02*
X47574D01*
X47534Y-16035D02*
Y-15955D01*
X47154Y-15995D02*
X47234D01*
X47194Y-16035D02*
Y-15955D01*
X46814Y-15995D02*
X46894D01*
X46854Y-16035D02*
Y-15955D01*
X46474Y-15995D02*
X46554D01*
X46514Y-16035D02*
Y-15955D01*
X46134Y-15995D02*
X46214D01*
X46174Y-16035D02*
Y-15955D01*
X45794Y-15995D02*
X45874D01*
X45834Y-16035D02*
Y-15955D01*
X45454Y-15995D02*
X45534D01*
X45494Y-16035D02*
Y-15955D01*
X45114Y-15995D02*
X45194D01*
X45154Y-16035D02*
Y-15955D01*
X44774Y-15995D02*
X44854D01*
X44814Y-16035D02*
Y-15955D01*
X44434Y-15995D02*
X44514D01*
X44474Y-16035D02*
Y-15955D01*
X44226Y-15726D02*
X44306D01*
X44266Y-15766D02*
Y-15686D01*
X44304Y-15395D02*
X44384D01*
X44344Y-15435D02*
Y-15355D01*
X44168Y-15083D02*
X44248D01*
X44208Y-15123D02*
Y-15043D01*
X43840Y-14994D02*
X43920D01*
X43880Y-15034D02*
Y-14954D01*
X43507Y-15064D02*
X43587D01*
X43547Y-15104D02*
Y-15024D01*
X43167Y-15064D02*
X43247D01*
X43207Y-15104D02*
Y-15024D01*
X42827Y-15064D02*
X42907D01*
X42867Y-15104D02*
Y-15024D01*
X42487Y-15064D02*
X42567D01*
X42527Y-15104D02*
Y-15024D01*
X42147Y-15064D02*
X42227D01*
X42187Y-15104D02*
Y-15024D01*
X41807Y-15064D02*
X41887D01*
X41847Y-15104D02*
Y-15024D01*
X41467Y-15064D02*
X41547D01*
X41507Y-15104D02*
Y-15024D01*
X41127Y-15064D02*
X41207D01*
X41167Y-15104D02*
Y-15024D01*
X40787Y-15064D02*
X40867D01*
X40827Y-15104D02*
Y-15024D01*
X40447Y-15064D02*
X40527D01*
X40487Y-15104D02*
Y-15024D01*
X40107Y-15064D02*
X40187D01*
X40147Y-15104D02*
Y-15024D01*
X39767Y-15064D02*
X39847D01*
X39807Y-15104D02*
Y-15024D01*
X39427Y-15064D02*
X39507D01*
X39467Y-15104D02*
Y-15024D01*
X39087Y-15064D02*
X39167D01*
X39127Y-15104D02*
Y-15024D01*
X38747Y-15064D02*
X38827D01*
X38787Y-15104D02*
Y-15024D01*
X38422Y-14964D02*
X38502D01*
X38462Y-15004D02*
Y-14924D01*
X38663Y-14724D02*
X38743D01*
X38703Y-14764D02*
Y-14684D01*
X38903Y-14484D02*
X38983D01*
X38943Y-14524D02*
Y-14444D01*
X39144Y-14243D02*
X39224D01*
X39184Y-14283D02*
Y-14203D01*
X39384Y-14003D02*
X39464D01*
X39424Y-14043D02*
Y-13963D01*
X39624Y-13762D02*
X39704D01*
X39664Y-13802D02*
Y-13722D01*
X39865Y-13522D02*
X39945D01*
X39905Y-13562D02*
Y-13482D01*
X40105Y-13282D02*
X40185D01*
X40145Y-13322D02*
Y-13242D01*
X40346Y-13041D02*
X40426D01*
X40386Y-13081D02*
Y-13001D01*
X40586Y-12801D02*
X40666D01*
X40626Y-12841D02*
Y-12761D01*
X40827Y-12560D02*
X40907D01*
X40867Y-12600D02*
Y-12520D01*
X41067Y-12320D02*
X41147D01*
X41107Y-12360D02*
Y-12280D01*
X41307Y-12079D02*
X41387D01*
X41347Y-12119D02*
Y-12039D01*
X41548Y-11839D02*
X41628D01*
X41588Y-11879D02*
Y-11799D01*
X41788Y-11599D02*
X41868D01*
X41828Y-11639D02*
Y-11559D01*
X42029Y-11358D02*
X42109D01*
X42069Y-11398D02*
Y-11318D01*
X42269Y-11118D02*
X42349D01*
X42309Y-11158D02*
Y-11078D01*
X42509Y-10877D02*
X42589D01*
X42549Y-10917D02*
Y-10837D01*
X42844Y-10819D02*
X42924D01*
X42884Y-10859D02*
Y-10779D01*
X42844Y-11159D02*
X42924D01*
X42884Y-11199D02*
Y-11119D01*
X42844Y-11499D02*
X42924D01*
X42884Y-11539D02*
Y-11459D01*
X42844Y-11839D02*
X42924D01*
X42884Y-11879D02*
Y-11799D01*
X42844Y-12179D02*
X42924D01*
X42884Y-12219D02*
Y-12139D01*
X42844Y-12519D02*
X42924D01*
X42884Y-12559D02*
Y-12479D01*
X42782Y-12853D02*
X42862D01*
X42822Y-12893D02*
Y-12813D01*
X42840Y-13188D02*
X42920D01*
X42880Y-13228D02*
Y-13148D01*
X43138Y-13353D02*
X43218D01*
X43178Y-13393D02*
Y-13313D01*
X43469Y-13276D02*
X43549D01*
X43509Y-13316D02*
Y-13236D01*
X43685Y-13538D02*
X43765D01*
X43725Y-13578D02*
Y-13498D01*
X44021Y-13593D02*
X44101D01*
X44061Y-13633D02*
Y-13553D01*
X44355Y-13532D02*
X44435D01*
X44395Y-13572D02*
Y-13492D01*
X44695Y-13532D02*
X44775D01*
X44735Y-13572D02*
Y-13492D01*
X45035Y-13532D02*
X45115D01*
X45075Y-13572D02*
Y-13492D01*
X45375Y-13532D02*
X45455D01*
X45415Y-13572D02*
Y-13492D01*
X45715Y-13532D02*
X45795D01*
X45755Y-13572D02*
Y-13492D01*
X46735Y-13532D02*
X46815D01*
X46775Y-13572D02*
Y-13492D01*
X48095Y-13532D02*
X48175D01*
X48135Y-13572D02*
Y-13492D01*
X48435Y-13532D02*
X48515D01*
X48475Y-13572D02*
Y-13492D01*
X49636Y-13274D02*
X49716D01*
X49676Y-13314D02*
Y-13234D01*
X49636Y-12934D02*
X49716D01*
X49676Y-12974D02*
Y-12894D01*
X47789Y-12645D02*
X47869D01*
X47829Y-12685D02*
Y-12605D01*
X47449Y-12645D02*
X47529D01*
X47489Y-12685D02*
Y-12605D01*
X47109Y-12645D02*
X47189D01*
X47149Y-12685D02*
Y-12605D01*
X46769Y-12645D02*
X46849D01*
X46809Y-12685D02*
Y-12605D01*
X46429Y-12645D02*
X46509D01*
X46469Y-12685D02*
Y-12605D01*
X46089Y-12645D02*
X46169D01*
X46129Y-12685D02*
Y-12605D01*
X45749Y-12645D02*
X45829D01*
X45789Y-12685D02*
Y-12605D01*
X45409Y-12645D02*
X45489D01*
X45449Y-12685D02*
Y-12605D01*
X45069Y-12645D02*
X45149D01*
X45109Y-12685D02*
Y-12605D01*
X44729Y-12645D02*
X44809D01*
X44769Y-12685D02*
Y-12605D01*
X44389Y-12645D02*
X44469D01*
X44429Y-12685D02*
Y-12605D01*
X44226Y-12347D02*
X44306D01*
X44266Y-12387D02*
Y-12307D01*
X44226Y-12007D02*
X44306D01*
X44266Y-12047D02*
Y-11967D01*
X44226Y-11667D02*
X44306D01*
X44266Y-11707D02*
Y-11627D01*
X44226Y-11327D02*
X44306D01*
X44266Y-11367D02*
Y-11287D01*
X44226Y-10987D02*
X44306D01*
X44266Y-11027D02*
Y-10947D01*
X44270Y-10649D02*
X44350D01*
X44310Y-10689D02*
Y-10609D01*
X44610Y-10649D02*
X44690D01*
X44650Y-10689D02*
Y-10609D01*
X44947Y-10693D02*
X45027D01*
X44987Y-10733D02*
Y-10653D01*
X45287Y-10685D02*
X45367D01*
X45327Y-10725D02*
Y-10645D01*
X45625Y-10649D02*
X45705D01*
X45665Y-10689D02*
Y-10609D01*
X46645Y-10649D02*
X46725D01*
X46685Y-10689D02*
Y-10609D01*
X46985Y-10649D02*
X47065D01*
X47025Y-10689D02*
Y-10609D01*
X48005Y-10649D02*
X48085D01*
X48045Y-10689D02*
Y-10609D01*
X49627Y-10490D02*
X49707D01*
X49667Y-10530D02*
Y-10450D01*
X47980Y-10018D02*
X48060D01*
X48020Y-10058D02*
Y-9978D01*
X44274Y-9882D02*
X44354D01*
X44314Y-9922D02*
Y-9842D01*
X44614Y-9882D02*
X44694D01*
X44654Y-9922D02*
Y-9842D01*
X44954Y-9882D02*
X45034D01*
X44994Y-9922D02*
Y-9842D01*
X45294Y-9882D02*
X45374D01*
X45334Y-9922D02*
Y-9842D01*
X49629Y-9704D02*
X49709D01*
X49669Y-9744D02*
Y-9664D01*
X49636Y-9364D02*
X49716D01*
X49676Y-9404D02*
Y-9324D01*
X48552Y-8995D02*
X48632D01*
X48592Y-9035D02*
Y-8955D01*
X48212Y-8995D02*
X48292D01*
X48252Y-9035D02*
Y-8955D01*
X47872Y-8995D02*
X47952D01*
X47912Y-9035D02*
Y-8955D01*
X47532Y-8995D02*
X47612D01*
X47572Y-9035D02*
Y-8955D01*
X47192Y-8995D02*
X47272D01*
X47232Y-9035D02*
Y-8955D01*
X46852Y-8995D02*
X46932D01*
X46892Y-9035D02*
Y-8955D01*
X46512Y-8995D02*
X46592D01*
X46552Y-9035D02*
Y-8955D01*
X46172Y-8995D02*
X46252D01*
X46212Y-9035D02*
Y-8955D01*
X45832Y-8995D02*
X45912D01*
X45872Y-9035D02*
Y-8955D01*
X45492Y-8995D02*
X45572D01*
X45532Y-9035D02*
Y-8955D01*
X45152Y-8995D02*
X45232D01*
X45192Y-9035D02*
Y-8955D01*
X44812Y-8995D02*
X44892D01*
X44852Y-9035D02*
Y-8955D01*
X44472Y-8995D02*
X44552D01*
X44512Y-9035D02*
Y-8955D01*
X44226Y-8761D02*
X44306D01*
X44266Y-8801D02*
Y-8721D01*
X44296Y-8428D02*
X44376D01*
X44336Y-8468D02*
Y-8388D01*
X44095Y-8154D02*
X44175D01*
X44135Y-8194D02*
Y-8114D01*
X43755Y-8139D02*
X43835D01*
X43795Y-8179D02*
Y-8099D01*
X43418Y-8184D02*
X43498D01*
X43458Y-8224D02*
Y-8144D01*
X43078Y-8184D02*
X43158D01*
X43118Y-8224D02*
Y-8144D01*
X42738Y-8184D02*
X42818D01*
X42778Y-8224D02*
Y-8144D01*
X42398Y-8193D02*
X42478D01*
X42438Y-8233D02*
Y-8153D01*
X42122Y-8391D02*
X42202D01*
X42162Y-8431D02*
Y-8351D01*
X41882Y-8632D02*
X41962D01*
X41922Y-8672D02*
Y-8592D01*
X41641Y-8872D02*
X41721D01*
X41681Y-8912D02*
Y-8832D01*
X41401Y-9113D02*
X41481D01*
X41441Y-9153D02*
Y-9073D01*
X41161Y-9353D02*
X41241D01*
X41201Y-9393D02*
Y-9313D01*
X40920Y-9593D02*
X41000D01*
X40960Y-9633D02*
Y-9553D01*
X40680Y-9834D02*
X40760D01*
X40720Y-9874D02*
Y-9794D01*
X40439Y-10074D02*
X40519D01*
X40479Y-10114D02*
Y-10034D01*
X40199Y-10315D02*
X40279D01*
X40239Y-10355D02*
Y-10275D01*
X39959Y-10555D02*
X40039D01*
X39999Y-10595D02*
Y-10515D01*
X39718Y-10796D02*
X39798D01*
X39758Y-10836D02*
Y-10756D01*
X39478Y-11036D02*
X39558D01*
X39518Y-11076D02*
Y-10996D01*
X39237Y-11276D02*
X39317D01*
X39277Y-11316D02*
Y-11236D01*
X38997Y-11517D02*
X39077D01*
X39037Y-11557D02*
Y-11477D01*
X38756Y-11757D02*
X38836D01*
X38796Y-11797D02*
Y-11717D01*
X38516Y-11998D02*
X38596D01*
X38556Y-12038D02*
Y-11958D01*
X38276Y-12238D02*
X38356D01*
X38316Y-12278D02*
Y-12198D01*
X38035Y-12478D02*
X38115D01*
X38075Y-12518D02*
Y-12438D01*
X37795Y-12719D02*
X37875D01*
X37835Y-12759D02*
Y-12679D01*
X37554Y-12959D02*
X37634D01*
X37594Y-12999D02*
Y-12919D01*
X37314Y-13200D02*
X37394D01*
X37354Y-13240D02*
Y-13160D01*
X37058Y-13423D02*
X37138D01*
X37098Y-13463D02*
Y-13383D01*
X36718Y-13423D02*
X36798D01*
X36758Y-13463D02*
Y-13383D01*
X36378Y-13423D02*
X36458D01*
X36418Y-13463D02*
Y-13383D01*
X36038Y-13423D02*
X36118D01*
X36078Y-13463D02*
Y-13383D01*
X35698Y-13423D02*
X35778D01*
X35738Y-13463D02*
Y-13383D01*
X35358Y-13423D02*
X35438D01*
X35398Y-13463D02*
Y-13383D01*
X35080Y-13226D02*
X35160D01*
X35120Y-13266D02*
Y-13186D01*
X35321Y-12985D02*
X35401D01*
X35361Y-13025D02*
Y-12945D01*
X35561Y-12745D02*
X35641D01*
X35601Y-12785D02*
Y-12705D01*
X35802Y-12505D02*
X35882D01*
X35842Y-12545D02*
Y-12465D01*
X36042Y-12264D02*
X36122D01*
X36082Y-12304D02*
Y-12224D01*
X36283Y-12024D02*
X36363D01*
X36323Y-12064D02*
Y-11984D01*
X36523Y-11783D02*
X36603D01*
X36563Y-11823D02*
Y-11743D01*
X36763Y-11543D02*
X36843D01*
X36803Y-11583D02*
Y-11503D01*
X37004Y-11303D02*
X37084D01*
X37044Y-11343D02*
Y-11263D01*
X37244Y-11062D02*
X37324D01*
X37284Y-11102D02*
Y-11022D01*
X37485Y-10822D02*
X37565D01*
X37525Y-10862D02*
Y-10782D01*
X37725Y-10581D02*
X37805D01*
X37765Y-10621D02*
Y-10541D01*
X37965Y-10341D02*
X38045D01*
X38005Y-10381D02*
Y-10301D01*
X38206Y-10100D02*
X38286D01*
X38246Y-10140D02*
Y-10060D01*
X38446Y-9860D02*
X38526D01*
X38486Y-9900D02*
Y-9820D01*
X38687Y-9620D02*
X38767D01*
X38727Y-9660D02*
Y-9580D01*
X38927Y-9379D02*
X39007D01*
X38967Y-9419D02*
Y-9339D01*
X39168Y-9139D02*
X39248D01*
X39208Y-9179D02*
Y-9099D01*
X39408Y-8898D02*
X39488D01*
X39448Y-8938D02*
Y-8858D01*
X39648Y-8658D02*
X39728D01*
X39688Y-8698D02*
Y-8618D01*
X39889Y-8418D02*
X39969D01*
X39929Y-8458D02*
Y-8378D01*
X40129Y-8177D02*
X40209D01*
X40169Y-8217D02*
Y-8137D01*
X40370Y-7937D02*
X40450D01*
X40410Y-7977D02*
Y-7897D01*
X40610Y-7696D02*
X40690D01*
X40650Y-7736D02*
Y-7656D01*
X40850Y-7456D02*
X40930D01*
X40890Y-7496D02*
Y-7416D01*
X41091Y-7215D02*
X41171D01*
X41131Y-7255D02*
Y-7175D01*
X41331Y-6975D02*
X41411D01*
X41371Y-7015D02*
Y-6935D01*
X41572Y-6735D02*
X41652D01*
X41612Y-6775D02*
Y-6695D01*
X41812Y-6494D02*
X41892D01*
X41852Y-6534D02*
Y-6454D01*
X42053Y-6254D02*
X42133D01*
X42093Y-6294D02*
Y-6214D01*
X42293Y-6013D02*
X42373D01*
X42333Y-6053D02*
Y-5973D01*
X42533Y-5773D02*
X42613D01*
X42573Y-5813D02*
Y-5733D01*
X42844Y-5636D02*
X42924D01*
X42884Y-5676D02*
Y-5596D01*
X42767Y-5967D02*
X42847D01*
X42807Y-6007D02*
Y-5927D01*
X42919Y-6270D02*
X42999D01*
X42959Y-6310D02*
Y-6230D01*
X43251Y-6342D02*
X43331D01*
X43291Y-6382D02*
Y-6302D01*
X43580Y-6429D02*
X43660D01*
X43620Y-6469D02*
Y-6389D01*
X43870Y-6606D02*
X43950D01*
X43910Y-6646D02*
Y-6566D01*
X44202Y-6532D02*
X44282D01*
X44242Y-6572D02*
Y-6492D01*
X44542Y-6532D02*
X44622D01*
X44582Y-6572D02*
Y-6492D01*
X44882Y-6532D02*
X44962D01*
X44922Y-6572D02*
Y-6492D01*
X45222Y-6532D02*
X45302D01*
X45262Y-6572D02*
Y-6492D01*
X46922Y-6532D02*
X47002D01*
X46962Y-6572D02*
Y-6492D01*
X47942Y-6532D02*
X48022D01*
X47982Y-6572D02*
Y-6492D01*
X48282Y-6532D02*
X48362D01*
X48322Y-6572D02*
Y-6492D01*
X48622Y-6532D02*
X48702D01*
X48662Y-6572D02*
Y-6492D01*
X49631Y-6089D02*
X49711D01*
X49671Y-6129D02*
Y-6049D01*
X49606Y-5750D02*
X49686D01*
X49646Y-5790D02*
Y-5710D01*
X47604Y-5645D02*
X47684D01*
X47644Y-5685D02*
Y-5605D01*
X47264Y-5645D02*
X47344D01*
X47304Y-5685D02*
Y-5605D01*
X46924Y-5645D02*
X47004D01*
X46964Y-5685D02*
Y-5605D01*
X46584Y-5645D02*
X46664D01*
X46624Y-5685D02*
Y-5605D01*
X46244Y-5645D02*
X46324D01*
X46284Y-5685D02*
Y-5605D01*
X45904Y-5645D02*
X45984D01*
X45944Y-5685D02*
Y-5605D01*
X45564Y-5645D02*
X45644D01*
X45604Y-5685D02*
Y-5605D01*
X45224Y-5645D02*
X45304D01*
X45264Y-5685D02*
Y-5605D01*
X44884Y-5645D02*
X44964D01*
X44924Y-5685D02*
Y-5605D01*
X44544Y-5645D02*
X44624D01*
X44584Y-5685D02*
Y-5605D01*
X44226Y-5525D02*
X44306D01*
X44266Y-5565D02*
Y-5485D01*
X44226Y-5185D02*
X44306D01*
X44266Y-5225D02*
Y-5145D01*
X44226Y-4845D02*
X44306D01*
X44266Y-4885D02*
Y-4805D01*
X44226Y-4505D02*
X44306D01*
X44266Y-4545D02*
Y-4465D01*
X44226Y-4165D02*
X44306D01*
X44266Y-4205D02*
Y-4125D01*
X44420Y-3886D02*
X44500D01*
X44460Y-3926D02*
Y-3846D01*
X44664Y-3649D02*
X44744D01*
X44704Y-3689D02*
Y-3609D01*
X44999Y-3710D02*
X45079D01*
X45039Y-3750D02*
Y-3670D01*
X45334Y-3656D02*
X45414D01*
X45374Y-3696D02*
Y-3616D01*
X45674Y-3649D02*
X45754D01*
X45714Y-3689D02*
Y-3609D01*
X46694Y-3649D02*
X46774D01*
X46734Y-3689D02*
Y-3609D01*
X47034Y-3649D02*
X47114D01*
X47074Y-3689D02*
Y-3609D01*
X48053Y-3676D02*
X48133D01*
X48093Y-3716D02*
Y-3636D01*
X49635Y-3431D02*
X49715D01*
X49675Y-3471D02*
Y-3391D01*
X48594Y-3018D02*
X48674D01*
X48634Y-3058D02*
Y-2978D01*
X47932Y-3018D02*
X48012D01*
X47972Y-3058D02*
Y-2978D01*
X44879Y-2927D02*
X44959D01*
X44919Y-2967D02*
Y-2887D01*
X45216Y-2882D02*
X45296D01*
X45256Y-2922D02*
Y-2842D01*
X49602Y-2785D02*
X49682D01*
X49642Y-2825D02*
Y-2745D01*
X49632Y-2446D02*
X49712D01*
X49672Y-2486D02*
Y-2406D01*
X48630Y-1991D02*
X48710D01*
X48670Y-2031D02*
Y-1951D01*
X48290Y-1995D02*
X48370D01*
X48330Y-2035D02*
Y-1955D01*
X47950Y-1995D02*
X48030D01*
X47990Y-2035D02*
Y-1955D01*
X47610Y-1995D02*
X47690D01*
X47650Y-2035D02*
Y-1955D01*
X47270Y-1995D02*
X47350D01*
X47310Y-2035D02*
Y-1955D01*
X46930Y-1995D02*
X47010D01*
X46970Y-2035D02*
Y-1955D01*
X46590Y-1995D02*
X46670D01*
X46630Y-2035D02*
Y-1955D01*
X46250Y-1995D02*
X46330D01*
X46290Y-2035D02*
Y-1955D01*
X45910Y-1995D02*
X45990D01*
X45950Y-2035D02*
Y-1955D01*
X45570Y-1995D02*
X45650D01*
X45610Y-2035D02*
Y-1955D01*
X45230Y-1995D02*
X45310D01*
X45270Y-2035D02*
Y-1955D01*
X44890Y-1995D02*
X44970D01*
X44930Y-2035D02*
Y-1955D01*
X44550Y-1995D02*
X44630D01*
X44590Y-2035D02*
Y-1955D01*
X44226Y-2097D02*
X44306D01*
X44266Y-2137D02*
Y-2057D01*
X44226Y-1757D02*
X44306D01*
X44266Y-1797D02*
Y-1717D01*
X44295Y-1424D02*
X44375D01*
X44335Y-1464D02*
Y-1384D01*
X44091Y-1152D02*
X44171D01*
X44131Y-1192D02*
Y-1112D01*
X43751Y-1140D02*
X43831D01*
X43791Y-1180D02*
Y-1100D01*
X43414Y-1184D02*
X43494D01*
X43454Y-1224D02*
Y-1144D01*
X43074Y-1184D02*
X43154D01*
X43114Y-1224D02*
Y-1144D01*
X42777Y-1349D02*
X42857D01*
X42817Y-1389D02*
Y-1309D01*
X42536Y-1590D02*
X42616D01*
X42576Y-1630D02*
Y-1550D01*
X42296Y-1830D02*
X42376D01*
X42336Y-1870D02*
Y-1790D01*
X42056Y-2071D02*
X42136D01*
X42096Y-2111D02*
Y-2031D01*
X41944Y-2392D02*
X42024D01*
X41984Y-2432D02*
Y-2352D01*
X41944Y-2732D02*
X42024D01*
X41984Y-2772D02*
Y-2692D01*
X41944Y-3072D02*
X42024D01*
X41984Y-3112D02*
Y-3032D01*
X41944Y-3412D02*
X42024D01*
X41984Y-3452D02*
Y-3372D01*
X41708Y-3656D02*
X41788D01*
X41748Y-3696D02*
Y-3616D01*
X41467Y-3896D02*
X41547D01*
X41507Y-3936D02*
Y-3856D01*
X41227Y-4137D02*
X41307D01*
X41267Y-4177D02*
Y-4097D01*
X40986Y-4377D02*
X41066D01*
X41026Y-4417D02*
Y-4337D01*
X40746Y-4618D02*
X40826D01*
X40786Y-4658D02*
Y-4578D01*
X40506Y-4858D02*
X40586D01*
X40546Y-4898D02*
Y-4818D01*
X40265Y-5098D02*
X40345D01*
X40305Y-5138D02*
Y-5058D01*
X40025Y-5339D02*
X40105D01*
X40065Y-5379D02*
Y-5299D01*
X39784Y-5579D02*
X39864D01*
X39824Y-5619D02*
Y-5539D01*
X39544Y-5820D02*
X39624D01*
X39584Y-5860D02*
Y-5780D01*
X39304Y-6060D02*
X39384D01*
X39344Y-6100D02*
Y-6020D01*
X39063Y-6301D02*
X39143D01*
X39103Y-6341D02*
Y-6261D01*
X38823Y-6541D02*
X38903D01*
X38863Y-6581D02*
Y-6501D01*
X38582Y-6781D02*
X38662D01*
X38622Y-6821D02*
Y-6741D01*
X38342Y-7022D02*
X38422D01*
X38382Y-7062D02*
Y-6982D01*
X38101Y-7262D02*
X38181D01*
X38141Y-7302D02*
Y-7222D01*
X37861Y-7503D02*
X37941D01*
X37901Y-7543D02*
Y-7463D01*
X37621Y-7743D02*
X37701D01*
X37661Y-7783D02*
Y-7703D01*
X37380Y-7983D02*
X37460D01*
X37420Y-8023D02*
Y-7943D01*
X37140Y-8224D02*
X37220D01*
X37180Y-8264D02*
Y-8184D01*
X36899Y-8464D02*
X36979D01*
X36939Y-8504D02*
Y-8424D01*
X36659Y-8705D02*
X36739D01*
X36699Y-8745D02*
Y-8665D01*
X36419Y-8945D02*
X36499D01*
X36459Y-8985D02*
Y-8905D01*
X36178Y-9186D02*
X36258D01*
X36218Y-9226D02*
Y-9146D01*
X35938Y-9426D02*
X36018D01*
X35978Y-9466D02*
Y-9386D01*
X35697Y-9666D02*
X35777D01*
X35737Y-9706D02*
Y-9626D01*
X35457Y-9907D02*
X35537D01*
X35497Y-9947D02*
Y-9867D01*
X35216Y-10147D02*
X35296D01*
X35256Y-10187D02*
Y-10107D01*
X34976Y-10388D02*
X35056D01*
X35016Y-10428D02*
Y-10348D01*
X34736Y-10628D02*
X34816D01*
X34776Y-10668D02*
Y-10588D01*
X34495Y-10868D02*
X34575D01*
X34535Y-10908D02*
Y-10828D01*
X34255Y-11109D02*
X34335D01*
X34295Y-11149D02*
Y-11069D01*
X34014Y-11349D02*
X34094D01*
X34054Y-11389D02*
Y-11309D01*
X33774Y-11590D02*
X33854D01*
X33814Y-11630D02*
Y-11550D01*
X33447Y-11684D02*
X33527D01*
X33487Y-11724D02*
Y-11644D01*
X33123Y-11584D02*
X33203D01*
X33163Y-11624D02*
Y-11544D01*
X33363Y-11343D02*
X33443D01*
X33403Y-11383D02*
Y-11303D01*
X33603Y-11103D02*
X33683D01*
X33643Y-11143D02*
Y-11063D01*
X33844Y-10862D02*
X33924D01*
X33884Y-10902D02*
Y-10822D01*
X34084Y-10622D02*
X34164D01*
X34124Y-10662D02*
Y-10582D01*
X34325Y-10382D02*
X34405D01*
X34365Y-10422D02*
Y-10342D01*
X34565Y-10141D02*
X34645D01*
X34605Y-10181D02*
Y-10101D01*
X34806Y-9901D02*
X34886D01*
X34846Y-9941D02*
Y-9861D01*
X35046Y-9660D02*
X35126D01*
X35086Y-9700D02*
Y-9620D01*
X35286Y-9420D02*
X35366D01*
X35326Y-9460D02*
Y-9380D01*
X35527Y-9180D02*
X35607D01*
X35567Y-9220D02*
Y-9140D01*
X35767Y-8939D02*
X35847D01*
X35807Y-8979D02*
Y-8899D01*
X36008Y-8699D02*
X36088D01*
X36048Y-8739D02*
Y-8659D01*
X36248Y-8458D02*
X36328D01*
X36288Y-8498D02*
Y-8418D01*
X36488Y-8218D02*
X36568D01*
X36528Y-8258D02*
Y-8178D01*
X36729Y-7977D02*
X36809D01*
X36769Y-8017D02*
Y-7937D01*
X36969Y-7737D02*
X37049D01*
X37009Y-7777D02*
Y-7697D01*
X37210Y-7497D02*
X37290D01*
X37250Y-7537D02*
Y-7457D01*
X37450Y-7256D02*
X37530D01*
X37490Y-7296D02*
Y-7216D01*
X37691Y-7016D02*
X37771D01*
X37731Y-7056D02*
Y-6976D01*
X37931Y-6775D02*
X38011D01*
X37971Y-6815D02*
Y-6735D01*
X38171Y-6535D02*
X38251D01*
X38211Y-6575D02*
Y-6495D01*
X38412Y-6295D02*
X38492D01*
X38452Y-6335D02*
Y-6255D01*
X38652Y-6054D02*
X38732D01*
X38692Y-6094D02*
Y-6014D01*
X38893Y-5814D02*
X38973D01*
X38933Y-5854D02*
Y-5774D01*
X39133Y-5573D02*
X39213D01*
X39173Y-5613D02*
Y-5533D01*
X39373Y-5333D02*
X39453D01*
X39413Y-5373D02*
Y-5293D01*
X39614Y-5092D02*
X39694D01*
X39654Y-5132D02*
Y-5052D01*
X39854Y-4852D02*
X39934D01*
X39894Y-4892D02*
Y-4812D01*
X40095Y-4612D02*
X40175D01*
X40135Y-4652D02*
Y-4572D01*
X40335Y-4371D02*
X40415D01*
X40375Y-4411D02*
Y-4331D01*
X40523Y-4088D02*
X40603D01*
X40563Y-4128D02*
Y-4048D01*
X40526Y-3748D02*
X40606D01*
X40566Y-3788D02*
Y-3708D01*
X40526Y-3408D02*
X40606D01*
X40566Y-3448D02*
Y-3368D01*
X40526Y-3068D02*
X40606D01*
X40566Y-3108D02*
Y-3028D01*
X40526Y-2728D02*
X40606D01*
X40566Y-2768D02*
Y-2688D01*
X40526Y-2388D02*
X40606D01*
X40566Y-2428D02*
Y-2348D01*
X40526Y-2048D02*
X40606D01*
X40566Y-2088D02*
Y-2008D01*
X40526Y-1708D02*
X40606D01*
X40566Y-1748D02*
Y-1668D01*
X40526Y-1368D02*
X40606D01*
X40566Y-1408D02*
Y-1328D01*
X40526Y-1028D02*
X40606D01*
X40566Y-1068D02*
Y-988D01*
X40526Y-688D02*
X40606D01*
X40566Y-728D02*
Y-648D01*
X40526Y-348D02*
X40606D01*
X40566Y-388D02*
Y-308D01*
X40526Y-8D02*
X40606D01*
X40566Y-48D02*
Y32D01*
X40526Y332D02*
X40606D01*
X40566Y292D02*
Y372D01*
X40642Y652D02*
X40722D01*
X40682Y612D02*
Y692D01*
X40882Y892D02*
X40962D01*
X40922Y852D02*
Y932D01*
X41123Y1133D02*
X41203D01*
X41163Y1093D02*
Y1173D01*
X41363Y1373D02*
X41443D01*
X41403Y1333D02*
Y1413D01*
X41604Y1613D02*
X41684D01*
X41644Y1573D02*
Y1653D01*
X41844Y1854D02*
X41924D01*
X41884Y1814D02*
Y1894D01*
X42084Y2094D02*
X42165D01*
X42125Y2054D02*
Y2134D01*
X42325Y2335D02*
X42405D01*
X42365Y2295D02*
Y2375D01*
X42565Y2575D02*
X42645D01*
X42605Y2535D02*
Y2615D01*
X42844Y2769D02*
X42924D01*
X42884Y2729D02*
Y2809D01*
X42844Y2429D02*
X42924D01*
X42884Y2389D02*
Y2469D01*
X42844Y2089D02*
X42924D01*
X42884Y2049D02*
Y2129D01*
X42844Y1749D02*
X42924D01*
X42884Y1709D02*
Y1789D01*
X42844Y1409D02*
X42924D01*
X42884Y1369D02*
Y1449D01*
X42770Y1078D02*
X42850D01*
X42810Y1038D02*
Y1118D01*
X42886Y758D02*
X42966D01*
X42926Y718D02*
Y798D01*
X43208Y650D02*
X43288D01*
X43248Y610D02*
Y690D01*
X43547Y632D02*
X43627D01*
X43587Y592D02*
Y672D01*
X43802Y407D02*
X43882D01*
X43842Y367D02*
Y447D01*
X44137Y464D02*
X44217D01*
X44177Y424D02*
Y504D01*
X44477Y468D02*
X44557D01*
X44517Y428D02*
Y508D01*
X44817Y468D02*
X44897D01*
X44857Y428D02*
Y508D01*
X45157Y468D02*
X45237D01*
X45197Y428D02*
Y508D01*
X45497Y468D02*
X45577D01*
X45537Y428D02*
Y508D01*
X45837Y468D02*
X45917D01*
X45877Y428D02*
Y508D01*
X46857Y468D02*
X46937D01*
X46897Y428D02*
Y508D01*
X47877Y468D02*
X47957D01*
X47917Y428D02*
Y508D01*
X48217Y468D02*
X48297D01*
X48257Y428D02*
Y508D01*
X48557Y468D02*
X48637D01*
X48597Y428D02*
Y508D01*
X49636Y843D02*
X49716D01*
X49676Y803D02*
Y883D01*
X49629Y1183D02*
X49709D01*
X49669Y1143D02*
Y1223D01*
X47669Y1355D02*
X47749D01*
X47709Y1315D02*
Y1395D01*
X47329Y1355D02*
X47409D01*
X47369Y1315D02*
Y1395D01*
X46989Y1355D02*
X47069D01*
X47029Y1315D02*
Y1395D01*
X46649Y1355D02*
X46729D01*
X46689Y1315D02*
Y1395D01*
X46309Y1355D02*
X46389D01*
X46349Y1315D02*
Y1395D01*
X45969Y1355D02*
X46049D01*
X46009Y1315D02*
Y1395D01*
X45629Y1355D02*
X45709D01*
X45669Y1315D02*
Y1395D01*
X45289Y1355D02*
X45369D01*
X45329Y1315D02*
Y1395D01*
X44949Y1355D02*
X45029D01*
X44989Y1315D02*
Y1395D01*
X44609Y1355D02*
X44689D01*
X44649Y1315D02*
Y1395D01*
X44269Y1355D02*
X44349D01*
X44309Y1315D02*
Y1395D01*
X44226Y1693D02*
X44306D01*
X44266Y1653D02*
Y1733D01*
X44226Y2033D02*
X44306D01*
X44266Y1993D02*
Y2073D01*
X44226Y2373D02*
X44306D01*
X44266Y2333D02*
Y2413D01*
X44226Y2713D02*
X44306D01*
X44266Y2673D02*
Y2753D01*
X44226Y3053D02*
X44306D01*
X44266Y3013D02*
Y3093D01*
X44389Y3351D02*
X44469D01*
X44429Y3311D02*
Y3391D01*
X44729Y3351D02*
X44809D01*
X44769Y3311D02*
Y3391D01*
X45061Y3276D02*
X45141D01*
X45101Y3236D02*
Y3316D01*
X45393Y3351D02*
X45473D01*
X45433Y3311D02*
Y3391D01*
X45733Y3351D02*
X45813D01*
X45773Y3311D02*
Y3391D01*
X46753Y3351D02*
X46833D01*
X46793Y3311D02*
Y3391D01*
X47773Y3351D02*
X47853D01*
X47813Y3311D02*
Y3391D01*
X48109Y3296D02*
X48189D01*
X48149Y3256D02*
Y3336D01*
X48447Y3329D02*
X48527D01*
X48487Y3289D02*
Y3369D01*
X49636Y3622D02*
X49716D01*
X49676Y3582D02*
Y3662D01*
X48543Y3982D02*
X48623D01*
X48583Y3942D02*
Y4022D01*
X47880Y3982D02*
X47960D01*
X47920Y3942D02*
Y4022D01*
X44524Y4118D02*
X44604D01*
X44564Y4078D02*
Y4158D01*
X44864Y4118D02*
X44944D01*
X44904Y4078D02*
Y4158D01*
X45204Y4118D02*
X45284D01*
X45244Y4078D02*
Y4158D01*
X49595Y4203D02*
X49675D01*
X49635Y4163D02*
Y4243D01*
X49633Y4541D02*
X49713D01*
X49673Y4501D02*
Y4581D01*
X48641Y5016D02*
X48721D01*
X48681Y4976D02*
Y5056D01*
X48301Y5005D02*
X48381D01*
X48341Y4965D02*
Y5045D01*
X47961Y5005D02*
X48041D01*
X48001Y4965D02*
Y5045D01*
X47621Y5005D02*
X47701D01*
X47661Y4965D02*
Y5045D01*
X47281Y5005D02*
X47361D01*
X47321Y4965D02*
Y5045D01*
X46941Y5005D02*
X47021D01*
X46981Y4965D02*
Y5045D01*
X46601Y5005D02*
X46681D01*
X46641Y4965D02*
Y5045D01*
X46261Y5005D02*
X46341D01*
X46301Y4965D02*
Y5045D01*
X45921Y5005D02*
X46001D01*
X45961Y4965D02*
Y5045D01*
X45581Y5005D02*
X45661D01*
X45621Y4965D02*
Y5045D01*
X45241Y5005D02*
X45321D01*
X45281Y4965D02*
Y5045D01*
X44901Y5005D02*
X44981D01*
X44941Y4965D02*
Y5045D01*
X44561Y5005D02*
X44641D01*
X44601Y4965D02*
Y5045D01*
X44226Y5061D02*
X44306D01*
X44266Y5021D02*
Y5101D01*
X44289Y5396D02*
X44369D01*
X44329Y5356D02*
Y5436D01*
X44228Y5730D02*
X44308D01*
X44268Y5690D02*
Y5770D01*
X43930Y5894D02*
X44010D01*
X43970Y5854D02*
Y5934D01*
X43599Y5816D02*
X43679D01*
X43639Y5776D02*
Y5856D01*
X43259Y5816D02*
X43339D01*
X43299Y5776D02*
Y5856D01*
X42923Y5763D02*
X43003D01*
X42963Y5723D02*
Y5803D01*
X42677Y5529D02*
X42757D01*
X42717Y5489D02*
Y5569D01*
X42436Y5289D02*
X42516D01*
X42476Y5249D02*
Y5329D01*
X42196Y5048D02*
X42276D01*
X42236Y5008D02*
Y5088D01*
X41955Y4808D02*
X42035D01*
X41995Y4768D02*
Y4848D01*
X41715Y4568D02*
X41795D01*
X41755Y4528D02*
Y4608D01*
X41475Y4327D02*
X41555D01*
X41515Y4287D02*
Y4367D01*
X41234Y4087D02*
X41314D01*
X41274Y4047D02*
Y4127D01*
X40994Y3846D02*
X41074D01*
X41034Y3806D02*
Y3886D01*
X40753Y3606D02*
X40833D01*
X40793Y3566D02*
Y3646D01*
X40513Y3365D02*
X40593D01*
X40553Y3325D02*
Y3405D01*
X40273Y3125D02*
X40353D01*
X40313Y3085D02*
Y3165D01*
X40032Y2885D02*
X40112D01*
X40072Y2845D02*
Y2925D01*
X39792Y2644D02*
X39872D01*
X39832Y2604D02*
Y2684D01*
X39551Y2404D02*
X39631D01*
X39591Y2364D02*
Y2444D01*
X39311Y2163D02*
X39391D01*
X39351Y2123D02*
Y2203D01*
X39070Y1923D02*
X39150D01*
X39110Y1883D02*
Y1963D01*
X38830Y1683D02*
X38910D01*
X38870Y1643D02*
Y1723D01*
X38590Y1442D02*
X38670D01*
X38630Y1402D02*
Y1482D01*
X38494Y1116D02*
X38574D01*
X38534Y1076D02*
Y1156D01*
X38494Y776D02*
X38574D01*
X38534Y736D02*
Y816D01*
X38494Y436D02*
X38574D01*
X38534Y396D02*
Y476D01*
X38494Y96D02*
X38574D01*
X38534Y56D02*
Y136D01*
X38494Y-244D02*
X38574D01*
X38534Y-284D02*
Y-204D01*
X38494Y-584D02*
X38574D01*
X38534Y-624D02*
Y-544D01*
X38494Y-924D02*
X38574D01*
X38534Y-964D02*
Y-884D01*
X38494Y-1264D02*
X38574D01*
X38534Y-1304D02*
Y-1224D01*
X38494Y-1604D02*
X38574D01*
X38534Y-1644D02*
Y-1564D01*
X38494Y-1944D02*
X38574D01*
X38534Y-1984D02*
Y-1904D01*
X38494Y-2284D02*
X38574D01*
X38534Y-2324D02*
Y-2244D01*
X38494Y-2624D02*
X38574D01*
X38534Y-2664D02*
Y-2584D01*
X38494Y-2964D02*
X38574D01*
X38534Y-3004D02*
Y-2924D01*
X38379Y-3284D02*
X38459D01*
X38419Y-3324D02*
Y-3244D01*
X38139Y-3525D02*
X38219D01*
X38179Y-3565D02*
Y-3485D01*
X37899Y-3765D02*
X37979D01*
X37939Y-3805D02*
Y-3725D01*
X37658Y-4005D02*
X37738D01*
X37698Y-4045D02*
Y-3965D01*
X37418Y-4246D02*
X37498D01*
X37458Y-4286D02*
Y-4206D01*
X37177Y-4486D02*
X37257D01*
X37217Y-4526D02*
Y-4446D01*
X36937Y-4727D02*
X37017D01*
X36977Y-4767D02*
Y-4687D01*
X36696Y-4967D02*
X36776D01*
X36736Y-5007D02*
Y-4927D01*
X36456Y-5208D02*
X36536D01*
X36496Y-5248D02*
Y-5168D01*
X36216Y-5448D02*
X36296D01*
X36256Y-5488D02*
Y-5408D01*
X35975Y-5688D02*
X36055D01*
X36015Y-5728D02*
Y-5648D01*
X35735Y-5929D02*
X35815D01*
X35775Y-5969D02*
Y-5889D01*
X35494Y-6169D02*
X35574D01*
X35534Y-6209D02*
Y-6129D01*
X35203Y-6344D02*
X35283D01*
X35243Y-6384D02*
Y-6304D01*
X34863Y-6344D02*
X34943D01*
X34903Y-6384D02*
Y-6304D01*
X34523Y-6344D02*
X34603D01*
X34563Y-6384D02*
Y-6304D01*
X34183Y-6344D02*
X34263D01*
X34223Y-6384D02*
Y-6304D01*
X33843Y-6344D02*
X33923D01*
X33883Y-6384D02*
Y-6304D01*
X33503Y-6344D02*
X33583D01*
X33543Y-6384D02*
Y-6304D01*
X33163Y-6344D02*
X33243D01*
X33203Y-6384D02*
Y-6304D01*
X32823Y-6344D02*
X32903D01*
X32863Y-6384D02*
Y-6304D01*
X32483Y-6344D02*
X32563D01*
X32523Y-6384D02*
Y-6304D01*
X32143Y-6344D02*
X32223D01*
X32183Y-6384D02*
Y-6304D01*
X31803Y-6344D02*
X31883D01*
X31843Y-6384D02*
Y-6304D01*
X31463Y-6344D02*
X31543D01*
X31503Y-6384D02*
Y-6304D01*
X31123Y-6344D02*
X31203D01*
X31163Y-6384D02*
Y-6304D01*
X30783Y-6344D02*
X30863D01*
X30823Y-6384D02*
Y-6304D01*
X30443Y-6344D02*
X30523D01*
X30483Y-6384D02*
Y-6304D01*
X30103Y-6344D02*
X30183D01*
X30143Y-6384D02*
Y-6304D01*
X29763Y-6344D02*
X29843D01*
X29803Y-6384D02*
Y-6304D01*
X29423Y-6344D02*
X29503D01*
X29463Y-6384D02*
Y-6304D01*
X29083Y-6344D02*
X29163D01*
X29123Y-6384D02*
Y-6304D01*
X28743Y-6344D02*
X28823D01*
X28783Y-6384D02*
Y-6304D01*
X28403Y-6344D02*
X28483D01*
X28443Y-6384D02*
Y-6304D01*
X28064Y-6311D02*
X28145D01*
X28105Y-6351D02*
Y-6271D01*
X27848Y-6049D02*
X27928D01*
X27888Y-6089D02*
Y-6009D01*
X28095Y-5816D02*
X28175D01*
X28135Y-5856D02*
Y-5776D01*
X28435Y-5816D02*
X28515D01*
X28475Y-5856D02*
Y-5776D01*
X28775Y-5816D02*
X28855D01*
X28815Y-5856D02*
Y-5776D01*
X29115Y-5816D02*
X29195D01*
X29155Y-5856D02*
Y-5776D01*
X29455Y-5816D02*
X29535D01*
X29495Y-5856D02*
Y-5776D01*
X29795Y-5816D02*
X29875D01*
X29835Y-5856D02*
Y-5776D01*
X30135Y-5816D02*
X30215D01*
X30175Y-5856D02*
Y-5776D01*
X30475Y-5816D02*
X30555D01*
X30515Y-5856D02*
Y-5776D01*
X30804Y-5730D02*
X30884D01*
X30844Y-5770D02*
Y-5690D01*
X31046Y-5491D02*
X31126D01*
X31086Y-5531D02*
Y-5451D01*
X31286Y-5250D02*
X31366D01*
X31326Y-5290D02*
Y-5210D01*
X31527Y-5010D02*
X31607D01*
X31567Y-5050D02*
Y-4970D01*
X31767Y-4769D02*
X31847D01*
X31807Y-4809D02*
Y-4729D01*
X32007Y-4529D02*
X32087D01*
X32047Y-4569D02*
Y-4489D01*
X32248Y-4289D02*
X32328D01*
X32288Y-4329D02*
Y-4249D01*
X32488Y-4048D02*
X32568D01*
X32528Y-4088D02*
Y-4008D01*
X32729Y-3808D02*
X32809D01*
X32769Y-3848D02*
Y-3768D01*
X32969Y-3567D02*
X33049D01*
X33009Y-3607D02*
Y-3527D01*
X33210Y-3327D02*
X33289D01*
X33249Y-3367D02*
Y-3287D01*
X33450Y-3086D02*
X33530D01*
X33490Y-3126D02*
Y-3046D01*
X33690Y-2846D02*
X33770D01*
X33730Y-2886D02*
Y-2806D01*
X33931Y-2606D02*
X34011D01*
X33971Y-2646D02*
Y-2566D01*
X34171Y-2365D02*
X34251D01*
X34211Y-2405D02*
Y-2325D01*
X34412Y-2125D02*
X34492D01*
X34452Y-2165D02*
Y-2085D01*
X34652Y-1884D02*
X34732D01*
X34692Y-1924D02*
Y-1844D01*
X34892Y-1644D02*
X34972D01*
X34932Y-1684D02*
Y-1604D01*
X35133Y-1404D02*
X35213D01*
X35173Y-1444D02*
Y-1364D01*
X35373Y-1163D02*
X35453D01*
X35413Y-1203D02*
Y-1123D01*
X35614Y-923D02*
X35694D01*
X35654Y-963D02*
Y-883D01*
X35854Y-682D02*
X35934D01*
X35894Y-722D02*
Y-642D01*
X36094Y-442D02*
X36174D01*
X36134Y-482D02*
Y-402D01*
X36335Y-201D02*
X36415D01*
X36375Y-241D02*
Y-161D01*
X36575Y39D02*
X36655D01*
X36615Y-1D02*
Y79D01*
X36816Y279D02*
X36896D01*
X36856Y239D02*
Y319D01*
X37056Y520D02*
X37136D01*
X37096Y480D02*
Y560D01*
X37297Y760D02*
X37377D01*
X37337Y720D02*
Y800D01*
X37537Y1001D02*
X37617D01*
X37577Y961D02*
Y1041D01*
X37777Y1241D02*
X37857D01*
X37817Y1201D02*
Y1281D01*
X38018Y1481D02*
X38098D01*
X38058Y1441D02*
Y1521D01*
X38258Y1722D02*
X38338D01*
X38298Y1682D02*
Y1762D01*
X38499Y1962D02*
X38579D01*
X38539Y1922D02*
Y2002D01*
X38739Y2203D02*
X38819D01*
X38779Y2163D02*
Y2243D01*
X38979Y2443D02*
X39059D01*
X39019Y2403D02*
Y2483D01*
X39220Y2684D02*
X39300D01*
X39260Y2644D02*
Y2724D01*
X39460Y2924D02*
X39540D01*
X39500Y2884D02*
Y2964D01*
X39701Y3164D02*
X39781D01*
X39741Y3124D02*
Y3204D01*
X39941Y3405D02*
X40021D01*
X39981Y3365D02*
Y3445D01*
X40182Y3645D02*
X40262D01*
X40222Y3605D02*
Y3685D01*
X40422Y3886D02*
X40502D01*
X40462Y3846D02*
Y3926D01*
X40662Y4126D02*
X40742D01*
X40702Y4086D02*
Y4166D01*
X40903Y4366D02*
X40983D01*
X40943Y4326D02*
Y4406D01*
X41143Y4607D02*
X41223D01*
X41183Y4567D02*
Y4647D01*
X41384Y4847D02*
X41464D01*
X41424Y4807D02*
Y4887D01*
X41624Y5088D02*
X41704D01*
X41664Y5048D02*
Y5128D01*
X41864Y5328D02*
X41944D01*
X41904Y5288D02*
Y5368D01*
X42105Y5569D02*
X42185D01*
X42145Y5529D02*
Y5609D01*
X42345Y5809D02*
X42425D01*
X42385Y5769D02*
Y5849D01*
X42586Y6049D02*
X42666D01*
X42626Y6009D02*
Y6089D01*
X42922Y6101D02*
X43002D01*
X42962Y6061D02*
Y6141D01*
X43262Y6101D02*
X43342D01*
X43302Y6061D02*
Y6141D01*
X43602Y6101D02*
X43682D01*
X43642Y6061D02*
Y6141D01*
X43941Y6125D02*
X44021D01*
X43981Y6085D02*
Y6165D01*
X44235Y6296D02*
X44315D01*
X44275Y6256D02*
Y6336D01*
X44285Y6632D02*
X44365D01*
X44325Y6592D02*
Y6672D01*
X44226Y6967D02*
X44306D01*
X44266Y6927D02*
Y7007D01*
X44226Y7307D02*
X44306D01*
X44266Y7267D02*
Y7347D01*
X44525Y7468D02*
X44605D01*
X44565Y7428D02*
Y7508D01*
X44865Y7468D02*
X44945D01*
X44905Y7428D02*
Y7508D01*
X45205Y7468D02*
X45285D01*
X45245Y7428D02*
Y7508D01*
X45885Y7468D02*
X45965D01*
X45925Y7428D02*
Y7508D01*
X46905Y7468D02*
X46985D01*
X46945Y7428D02*
Y7508D01*
X47925Y7468D02*
X48005D01*
X47965Y7428D02*
Y7508D01*
X48265Y7468D02*
X48345D01*
X48305Y7428D02*
Y7508D01*
X48605Y7468D02*
X48685D01*
X48645Y7428D02*
Y7508D01*
X49633Y7892D02*
X49713D01*
X49673Y7852D02*
Y7932D01*
X49613Y8232D02*
X49693D01*
X49653Y8192D02*
Y8272D01*
X47620Y8355D02*
X47700D01*
X47660Y8315D02*
Y8395D01*
X47280Y8355D02*
X47360D01*
X47320Y8315D02*
Y8395D01*
X46940Y8355D02*
X47020D01*
X46980Y8315D02*
Y8395D01*
X46600Y8355D02*
X46680D01*
X46640Y8315D02*
Y8395D01*
X46260Y8355D02*
X46340D01*
X46300Y8315D02*
Y8395D01*
X45920Y8355D02*
X46000D01*
X45960Y8315D02*
Y8395D01*
X45580Y8355D02*
X45660D01*
X45620Y8315D02*
Y8395D01*
X45240Y8355D02*
X45320D01*
X45280Y8315D02*
Y8395D01*
X44900Y8355D02*
X44980D01*
X44940Y8315D02*
Y8395D01*
X44560Y8355D02*
X44640D01*
X44600Y8315D02*
Y8395D01*
X44226Y8416D02*
X44306D01*
X44266Y8376D02*
Y8456D01*
X44226Y8756D02*
X44306D01*
X44266Y8716D02*
Y8796D01*
X44252Y9095D02*
X44332D01*
X44292Y9055D02*
Y9135D01*
X44492Y9336D02*
X44572D01*
X44532Y9296D02*
Y9376D01*
X44733Y9576D02*
X44813D01*
X44773Y9536D02*
Y9616D01*
X44973Y9817D02*
X45053D01*
X45013Y9777D02*
Y9857D01*
X45213Y10057D02*
X45293D01*
X45253Y10017D02*
Y10097D01*
X45454Y10298D02*
X45534D01*
X45494Y10258D02*
Y10338D01*
X45790Y10351D02*
X45870D01*
X45830Y10311D02*
Y10391D01*
X46810Y10351D02*
X46890D01*
X46850Y10311D02*
Y10391D01*
X47830Y10351D02*
X47910D01*
X47870Y10311D02*
Y10391D01*
X48163Y10283D02*
X48243D01*
X48203Y10243D02*
Y10323D01*
X48496Y10351D02*
X48576D01*
X48536Y10311D02*
Y10391D01*
X49510Y10350D02*
X49590D01*
X49550Y10310D02*
Y10390D01*
X49636Y10665D02*
X49716D01*
X49676Y10625D02*
Y10705D01*
X48497Y10982D02*
X48577D01*
X48537Y10942D02*
Y11022D01*
X47831Y10982D02*
X47911D01*
X47871Y10942D02*
Y11022D01*
X49535Y11137D02*
X49615D01*
X49575Y11097D02*
Y11177D01*
X49636Y11461D02*
X49716D01*
X49676Y11421D02*
Y11501D01*
X48379Y12005D02*
X48459D01*
X48419Y11965D02*
Y12045D01*
X48039Y12005D02*
X48119D01*
X48079Y11965D02*
Y12045D01*
X47699Y12005D02*
X47779D01*
X47739Y11965D02*
Y12045D01*
X47359Y12005D02*
X47439D01*
X47399Y11965D02*
Y12045D01*
X47019Y12005D02*
X47099D01*
X47059Y11965D02*
Y12045D01*
X46679Y12005D02*
X46759D01*
X46719Y11965D02*
Y12045D01*
X46339Y12005D02*
X46419D01*
X46379Y11965D02*
Y12045D01*
X45999Y12005D02*
X46079D01*
X46039Y11965D02*
Y12045D01*
X45659Y12005D02*
X45739D01*
X45699Y11965D02*
Y12045D01*
X45319Y12005D02*
X45399D01*
X45359Y11965D02*
Y12045D01*
X44985Y11945D02*
X45065D01*
X45025Y11905D02*
Y11985D01*
X44740Y11709D02*
X44820D01*
X44780Y11669D02*
Y11749D01*
X44499Y11468D02*
X44579D01*
X44539Y11428D02*
Y11508D01*
X44259Y11228D02*
X44339D01*
X44299Y11188D02*
Y11268D01*
X44019Y10988D02*
X44099D01*
X44059Y10948D02*
Y11028D01*
X43778Y10747D02*
X43858D01*
X43818Y10707D02*
Y10787D01*
X43538Y10507D02*
X43618D01*
X43578Y10467D02*
Y10547D01*
X43297Y10266D02*
X43377D01*
X43337Y10226D02*
Y10306D01*
X43057Y10026D02*
X43137D01*
X43097Y9986D02*
Y10066D01*
X42818Y9784D02*
X42898D01*
X42858Y9744D02*
Y9824D01*
X42744Y9452D02*
X42824D01*
X42784Y9412D02*
Y9492D01*
X42744Y9112D02*
X42824D01*
X42784Y9072D02*
Y9152D01*
X42707Y8774D02*
X42787D01*
X42747Y8734D02*
Y8814D01*
X42626Y8444D02*
X42706D01*
X42666Y8404D02*
Y8484D01*
X42314Y8308D02*
X42394D01*
X42354Y8268D02*
Y8348D01*
X42045Y8099D02*
X42125D01*
X42085Y8059D02*
Y8139D01*
X41707Y8065D02*
X41787D01*
X41747Y8025D02*
Y8105D01*
X41453Y7839D02*
X41533D01*
X41493Y7799D02*
Y7879D01*
X41213Y7599D02*
X41293D01*
X41253Y7559D02*
Y7639D01*
X40972Y7358D02*
X41052D01*
X41012Y7318D02*
Y7398D01*
X40732Y7118D02*
X40812D01*
X40772Y7078D02*
Y7158D01*
X40491Y6878D02*
X40571D01*
X40531Y6838D02*
Y6918D01*
X40251Y6637D02*
X40331D01*
X40291Y6597D02*
Y6677D01*
X40010Y6397D02*
X40090D01*
X40050Y6357D02*
Y6437D01*
X39770Y6156D02*
X39850D01*
X39810Y6116D02*
Y6196D01*
X39530Y5916D02*
X39610D01*
X39570Y5876D02*
Y5956D01*
X39289Y5676D02*
X39369D01*
X39329Y5636D02*
Y5716D01*
X39049Y5435D02*
X39129D01*
X39089Y5395D02*
Y5475D01*
X38808Y5195D02*
X38888D01*
X38848Y5155D02*
Y5235D01*
X38568Y4954D02*
X38648D01*
X38608Y4914D02*
Y4994D01*
X38328Y4714D02*
X38408D01*
X38368Y4674D02*
Y4754D01*
X38087Y4473D02*
X38167D01*
X38127Y4433D02*
Y4514D01*
X37847Y4233D02*
X37927D01*
X37887Y4193D02*
Y4273D01*
X37606Y3993D02*
X37686D01*
X37646Y3953D02*
Y4033D01*
X37366Y3752D02*
X37446D01*
X37406Y3712D02*
Y3792D01*
X37125Y3512D02*
X37205D01*
X37165Y3472D02*
Y3552D01*
X36885Y3271D02*
X36965D01*
X36925Y3231D02*
Y3311D01*
X36645Y3031D02*
X36725D01*
X36685Y2991D02*
Y3071D01*
X36404Y2791D02*
X36484D01*
X36444Y2751D02*
Y2831D01*
X36164Y2550D02*
X36244D01*
X36204Y2510D02*
Y2590D01*
X35923Y2310D02*
X36003D01*
X35963Y2270D02*
Y2350D01*
X35683Y2069D02*
X35763D01*
X35723Y2029D02*
Y2109D01*
X35443Y1829D02*
X35523D01*
X35483Y1789D02*
Y1869D01*
X35202Y1588D02*
X35282D01*
X35242Y1549D02*
Y1629D01*
X34962Y1348D02*
X35042D01*
X35002Y1308D02*
Y1388D01*
X34721Y1108D02*
X34801D01*
X34761Y1068D02*
Y1148D01*
X34481Y867D02*
X34561D01*
X34521Y827D02*
Y907D01*
X34240Y627D02*
X34320D01*
X34280Y587D02*
Y667D01*
X34000Y386D02*
X34080D01*
X34040Y346D02*
Y426D01*
X33760Y146D02*
X33840D01*
X33800Y106D02*
Y186D01*
X33519Y-94D02*
X33599D01*
X33559Y-134D02*
Y-54D01*
X33279Y-335D02*
X33359D01*
X33319Y-375D02*
Y-295D01*
X33038Y-575D02*
X33118D01*
X33078Y-615D02*
Y-535D01*
X32798Y-816D02*
X32878D01*
X32838Y-856D02*
Y-776D01*
X32558Y-1056D02*
X32638D01*
X32598Y-1096D02*
Y-1016D01*
X32317Y-1296D02*
X32397D01*
X32357Y-1336D02*
Y-1256D01*
X32077Y-1537D02*
X32157D01*
X32117Y-1577D02*
Y-1497D01*
X31836Y-1777D02*
X31916D01*
X31876Y-1817D02*
Y-1737D01*
X31596Y-2018D02*
X31676D01*
X31636Y-2058D02*
Y-1978D01*
X31355Y-2258D02*
X31435D01*
X31395Y-2298D02*
Y-2218D01*
X31115Y-2499D02*
X31195D01*
X31155Y-2539D02*
Y-2459D01*
X30875Y-2739D02*
X30955D01*
X30915Y-2779D02*
Y-2699D01*
X30634Y-2979D02*
X30714D01*
X30674Y-3019D02*
Y-2939D01*
X30394Y-3220D02*
X30474D01*
X30434Y-3260D02*
Y-3180D01*
X30153Y-3460D02*
X30233D01*
X30193Y-3500D02*
Y-3420D01*
X29913Y-3701D02*
X29993D01*
X29953Y-3741D02*
Y-3661D01*
X29600Y-3834D02*
X29680D01*
X29640Y-3874D02*
Y-3794D01*
X29260Y-3834D02*
X29340D01*
X29300Y-3874D02*
Y-3794D01*
X28920Y-3834D02*
X29000D01*
X28960Y-3874D02*
Y-3794D01*
X27221Y-3816D02*
X27301D01*
X27261Y-3856D02*
Y-3776D01*
X27561Y-3816D02*
X27641D01*
X27601Y-3856D02*
Y-3776D01*
X27901Y-3816D02*
X27981D01*
X27941Y-3856D02*
Y-3776D01*
X28241Y-3816D02*
X28321D01*
X28281Y-3856D02*
Y-3776D01*
X28581Y-3813D02*
X28661D01*
X28621Y-3853D02*
Y-3773D01*
X29111Y-3395D02*
X29191D01*
X29151Y-3435D02*
Y-3355D01*
X29352Y-3155D02*
X29432D01*
X29392Y-3195D02*
Y-3115D01*
X29592Y-2914D02*
X29672D01*
X29632Y-2954D02*
Y-2874D01*
X29832Y-2674D02*
X29912D01*
X29872Y-2714D02*
Y-2634D01*
X30073Y-2434D02*
X30153D01*
X30113Y-2474D02*
Y-2394D01*
X30313Y-2193D02*
X30393D01*
X30353Y-2233D02*
Y-2153D01*
X30554Y-1953D02*
X30634D01*
X30594Y-1993D02*
Y-1913D01*
X30794Y-1712D02*
X30874D01*
X30834Y-1752D02*
Y-1672D01*
X31035Y-1472D02*
X31114D01*
X31075Y-1512D02*
Y-1432D01*
X31275Y-1231D02*
X31355D01*
X31315Y-1271D02*
Y-1191D01*
X31515Y-991D02*
X31595D01*
X31555Y-1031D02*
Y-951D01*
X31756Y-751D02*
X31836D01*
X31796Y-791D02*
Y-711D01*
X31996Y-510D02*
X32076D01*
X32036Y-550D02*
Y-470D01*
X32237Y-270D02*
X32317D01*
X32277Y-310D02*
Y-230D01*
X32477Y-29D02*
X32557D01*
X32517Y-69D02*
Y11D01*
X32717Y211D02*
X32797D01*
X32757Y171D02*
Y251D01*
X32958Y451D02*
X33038D01*
X32998Y411D02*
Y491D01*
X33198Y692D02*
X33278D01*
X33238Y652D02*
Y732D01*
X33439Y932D02*
X33519D01*
X33479Y892D02*
Y972D01*
X33679Y1173D02*
X33759D01*
X33719Y1133D02*
Y1213D01*
X33919Y1413D02*
X34000D01*
X33960Y1373D02*
Y1453D01*
X34160Y1654D02*
X34240D01*
X34200Y1614D02*
Y1694D01*
X34400Y1894D02*
X34480D01*
X34440Y1854D02*
Y1934D01*
X34641Y2134D02*
X34721D01*
X34681Y2094D02*
Y2174D01*
X34881Y2375D02*
X34961D01*
X34921Y2335D02*
Y2415D01*
X35122Y2615D02*
X35202D01*
X35162Y2575D02*
Y2655D01*
X35362Y2856D02*
X35442D01*
X35402Y2816D02*
Y2896D01*
X35602Y3096D02*
X35682D01*
X35642Y3056D02*
Y3136D01*
X35843Y3336D02*
X35923D01*
X35883Y3296D02*
Y3376D01*
X36083Y3577D02*
X36163D01*
X36123Y3537D02*
Y3617D01*
X36324Y3817D02*
X36404D01*
X36364Y3777D02*
Y3857D01*
X36564Y4058D02*
X36644D01*
X36604Y4018D02*
Y4098D01*
X36804Y4298D02*
X36885D01*
X36844Y4258D02*
Y4338D01*
X37045Y4539D02*
X37125D01*
X37085Y4499D02*
Y4579D01*
X37285Y4779D02*
X37365D01*
X37325Y4739D02*
Y4819D01*
X37526Y5019D02*
X37606D01*
X37566Y4979D02*
Y5059D01*
X37766Y5260D02*
X37846D01*
X37806Y5220D02*
Y5300D01*
X38007Y5500D02*
X38087D01*
X38047Y5460D02*
Y5540D01*
X38247Y5741D02*
X38327D01*
X38287Y5701D02*
Y5781D01*
X38487Y5981D02*
X38567D01*
X38527Y5941D02*
Y6021D01*
X38728Y6221D02*
X38808D01*
X38768Y6181D02*
Y6261D01*
X38968Y6462D02*
X39048D01*
X39008Y6422D02*
Y6502D01*
X39209Y6702D02*
X39289D01*
X39249Y6662D02*
Y6742D01*
X39449Y6943D02*
X39529D01*
X39489Y6903D02*
Y6983D01*
X39689Y7183D02*
X39769D01*
X39729Y7143D02*
Y7223D01*
X39930Y7424D02*
X40010D01*
X39970Y7384D02*
Y7464D01*
X40170Y7664D02*
X40250D01*
X40210Y7624D02*
Y7704D01*
X40411Y7904D02*
X40491D01*
X40451Y7864D02*
Y7944D01*
X40651Y8145D02*
X40731D01*
X40691Y8105D02*
Y8185D01*
X40892Y8385D02*
X40972D01*
X40932Y8345D02*
Y8425D01*
X41132Y8626D02*
X41212D01*
X41172Y8586D02*
Y8666D01*
X41372Y8866D02*
X41452D01*
X41412Y8826D02*
Y8906D01*
X41613Y9106D02*
X41693D01*
X41653Y9066D02*
Y9146D01*
X41852Y9348D02*
X41932D01*
X41892Y9308D02*
Y9388D01*
X41937Y9677D02*
X42017D01*
X41977Y9637D02*
Y9717D01*
X41937Y10017D02*
X42017D01*
X41977Y9977D02*
Y10057D01*
X41937Y10357D02*
X42017D01*
X41977Y10317D02*
Y10397D01*
X41937Y10697D02*
X42017D01*
X41977Y10657D02*
Y10737D01*
X41937Y11037D02*
X42017D01*
X41977Y10997D02*
Y11077D01*
X42146Y11306D02*
X42226D01*
X42186Y11266D02*
Y11346D01*
X42386Y11546D02*
X42466D01*
X42426Y11506D02*
Y11586D01*
X42627Y11786D02*
X42707D01*
X42667Y11746D02*
Y11826D01*
X42867Y12027D02*
X42947D01*
X42907Y11987D02*
Y12067D01*
X43108Y12267D02*
X43188D01*
X43148Y12227D02*
Y12307D01*
X43348Y12508D02*
X43428D01*
X43388Y12468D02*
Y12548D01*
X43588Y12748D02*
X43668D01*
X43628Y12708D02*
Y12788D01*
X43829Y12989D02*
X43909D01*
X43869Y12949D02*
Y13029D01*
X44111Y13178D02*
X44191D01*
X44151Y13138D02*
Y13218D01*
X44299Y13462D02*
X44379D01*
X44339Y13422D02*
Y13502D01*
X44226Y13793D02*
X44306D01*
X44266Y13753D02*
Y13833D01*
X44226Y14133D02*
X44306D01*
X44266Y14093D02*
Y14173D01*
X44285Y14468D02*
X44365D01*
X44325Y14428D02*
Y14508D01*
X44625Y14468D02*
X44705D01*
X44665Y14428D02*
Y14508D01*
X44965Y14468D02*
X45045D01*
X45005Y14428D02*
Y14508D01*
X45305Y14468D02*
X45385D01*
X45345Y14428D02*
Y14508D01*
X46665Y14468D02*
X46745D01*
X46705Y14428D02*
Y14508D01*
X47005Y14468D02*
X47085D01*
X47045Y14428D02*
Y14508D01*
X48025Y14468D02*
X48105D01*
X48065Y14428D02*
Y14508D01*
X48365Y14468D02*
X48445D01*
X48405Y14428D02*
Y14508D01*
X49636Y14998D02*
X49716D01*
X49676Y14958D02*
Y15038D01*
X49549Y15327D02*
X49629D01*
X49589Y15287D02*
Y15367D01*
X47520Y15355D02*
X47600D01*
X47560Y15315D02*
Y15395D01*
X47180Y15355D02*
X47260D01*
X47220Y15315D02*
Y15395D01*
X46840Y15355D02*
X46920D01*
X46880Y15315D02*
Y15395D01*
X46500Y15355D02*
X46580D01*
X46540Y15315D02*
Y15395D01*
X46160Y15355D02*
X46240D01*
X46200Y15315D02*
Y15395D01*
X45820Y15355D02*
X45900D01*
X45860Y15315D02*
Y15395D01*
X45480Y15355D02*
X45560D01*
X45520Y15315D02*
Y15395D01*
X45140Y15355D02*
X45220D01*
X45180Y15315D02*
Y15395D01*
X44800Y15355D02*
X44880D01*
X44840Y15315D02*
Y15395D01*
X44460Y15355D02*
X44540D01*
X44500Y15315D02*
Y15395D01*
X44226Y15602D02*
X44306D01*
X44266Y15562D02*
Y15642D01*
X44226Y15942D02*
X44306D01*
X44266Y15902D02*
Y15982D01*
X44394Y16237D02*
X44474D01*
X44434Y16197D02*
Y16277D01*
X44634Y16478D02*
X44714D01*
X44674Y16438D02*
Y16518D01*
X44875Y16718D02*
X44955D01*
X44915Y16678D02*
Y16758D01*
X45115Y16959D02*
X45195D01*
X45155Y16919D02*
Y16999D01*
X45355Y17199D02*
X45435D01*
X45395Y17159D02*
Y17239D01*
X45660Y17351D02*
X45740D01*
X45700Y17311D02*
Y17391D01*
X46680Y17351D02*
X46760D01*
X46720Y17311D02*
Y17391D01*
X47020Y17351D02*
X47100D01*
X47060Y17311D02*
Y17391D01*
X48039Y17332D02*
X48119D01*
X48079Y17292D02*
Y17372D01*
X49633Y17554D02*
X49713D01*
X49673Y17514D02*
Y17594D01*
X48609Y17982D02*
X48689D01*
X48649Y17942D02*
Y18022D01*
X47946Y17982D02*
X48026D01*
X47986Y17942D02*
Y18022D01*
X49619Y18257D02*
X49699D01*
X49659Y18217D02*
Y18297D01*
X49635Y18596D02*
X49715D01*
X49675Y18556D02*
Y18636D01*
X48590Y19005D02*
X48670D01*
X48630Y18965D02*
Y19045D01*
X48250Y19005D02*
X48330D01*
X48290Y18965D02*
Y19045D01*
X47910Y19005D02*
X47990D01*
X47950Y18965D02*
Y19045D01*
X47570Y19005D02*
X47650D01*
X47610Y18965D02*
Y19045D01*
X47230Y19005D02*
X47310D01*
X47270Y18965D02*
Y19045D01*
X46890Y19005D02*
X46970D01*
X46930Y18965D02*
Y19045D01*
X46550Y19005D02*
X46630D01*
X46590Y18965D02*
Y19045D01*
X46210Y19005D02*
X46290D01*
X46250Y18965D02*
Y19045D01*
X45870Y19005D02*
X45950D01*
X45910Y18965D02*
Y19045D01*
X45530Y19005D02*
X45610D01*
X45570Y18965D02*
Y19045D01*
X45190Y19005D02*
X45270D01*
X45230Y18965D02*
Y19045D01*
X44885Y18854D02*
X44965D01*
X44925Y18814D02*
Y18894D01*
X44645Y18614D02*
X44725D01*
X44685Y18574D02*
Y18654D01*
X44404Y18373D02*
X44484D01*
X44444Y18333D02*
Y18413D01*
X44164Y18133D02*
X44244D01*
X44204Y18093D02*
Y18173D01*
X43924Y17893D02*
X44004D01*
X43964Y17853D02*
Y17933D01*
X43683Y17652D02*
X43763D01*
X43723Y17612D02*
Y17692D01*
X43443Y17412D02*
X43523D01*
X43483Y17372D02*
Y17452D01*
X43202Y17171D02*
X43282D01*
X43242Y17131D02*
Y17211D01*
X42962Y16931D02*
X43042D01*
X43002Y16891D02*
Y16971D01*
X42756Y16660D02*
X42836D01*
X42796Y16620D02*
Y16700D01*
X42744Y16320D02*
X42824D01*
X42784Y16280D02*
Y16360D01*
X42744Y15980D02*
X42824D01*
X42784Y15940D02*
Y16020D01*
X42670Y15648D02*
X42750D01*
X42710Y15608D02*
Y15688D01*
X42435Y15402D02*
X42515D01*
X42475Y15362D02*
Y15442D01*
X42227Y15134D02*
X42307D01*
X42267Y15094D02*
Y15174D01*
X41902Y15033D02*
X41982D01*
X41942Y14993D02*
Y15073D01*
X41659Y14795D02*
X41739D01*
X41699Y14755D02*
Y14835D01*
X41419Y14555D02*
X41499D01*
X41459Y14515D02*
Y14595D01*
X41178Y14315D02*
X41258D01*
X41218Y14275D02*
Y14355D01*
X40938Y14074D02*
X41018D01*
X40978Y14034D02*
Y14114D01*
X40697Y13834D02*
X40777D01*
X40737Y13794D02*
Y13874D01*
X40457Y13593D02*
X40537D01*
X40497Y13553D02*
Y13633D01*
X40217Y13353D02*
X40297D01*
X40257Y13313D02*
Y13393D01*
X39978Y13111D02*
X40058D01*
X40018Y13071D02*
Y13151D01*
X39894Y12781D02*
X39974D01*
X39934Y12741D02*
Y12821D01*
X39894Y12441D02*
X39974D01*
X39934Y12401D02*
Y12481D01*
X39894Y12101D02*
X39974D01*
X39934Y12061D02*
Y12141D01*
X39894Y11761D02*
X39974D01*
X39934Y11721D02*
Y11801D01*
X39894Y11421D02*
X39974D01*
X39934Y11381D02*
Y11461D01*
X39894Y11081D02*
X39974D01*
X39934Y11041D02*
Y11121D01*
X39894Y10741D02*
X39974D01*
X39934Y10701D02*
Y10781D01*
X39686Y10473D02*
X39766D01*
X39726Y10433D02*
Y10513D01*
X39446Y10232D02*
X39526D01*
X39486Y10192D02*
Y10272D01*
X39205Y9992D02*
X39285D01*
X39245Y9952D02*
Y10032D01*
X38965Y9751D02*
X39045D01*
X39005Y9711D02*
Y9791D01*
X38725Y9511D02*
X38805D01*
X38765Y9471D02*
Y9551D01*
X38484Y9270D02*
X38564D01*
X38524Y9230D02*
Y9310D01*
X38244Y9030D02*
X38324D01*
X38284Y8990D02*
Y9070D01*
X38003Y8790D02*
X38083D01*
X38043Y8750D02*
Y8830D01*
X37763Y8549D02*
X37843D01*
X37803Y8509D02*
Y8589D01*
X37522Y8309D02*
X37602D01*
X37562Y8269D02*
Y8349D01*
X37282Y8068D02*
X37362D01*
X37322Y8028D02*
Y8108D01*
X37042Y7828D02*
X37122D01*
X37082Y7788D02*
Y7868D01*
X36801Y7588D02*
X36881D01*
X36841Y7548D02*
Y7628D01*
X36561Y7347D02*
X36641D01*
X36601Y7307D02*
Y7387D01*
X36320Y7107D02*
X36400D01*
X36360Y7067D02*
Y7147D01*
X36080Y6866D02*
X36160D01*
X36120Y6826D02*
Y6906D01*
X35840Y6626D02*
X35920D01*
X35880Y6586D02*
Y6666D01*
X35599Y6385D02*
X35679D01*
X35639Y6345D02*
Y6425D01*
X35359Y6145D02*
X35439D01*
X35399Y6105D02*
Y6185D01*
X35118Y5905D02*
X35198D01*
X35158Y5865D02*
Y5945D01*
X34878Y5664D02*
X34958D01*
X34918Y5624D02*
Y5704D01*
X34637Y5424D02*
X34717D01*
X34677Y5384D02*
Y5464D01*
X34397Y5183D02*
X34477D01*
X34437Y5143D02*
Y5223D01*
X34157Y4943D02*
X34237D01*
X34197Y4903D02*
Y4983D01*
X33916Y4703D02*
X33996D01*
X33956Y4663D02*
Y4743D01*
X33676Y4462D02*
X33756D01*
X33716Y4422D02*
Y4502D01*
X33435Y4222D02*
X33515D01*
X33475Y4182D02*
Y4262D01*
X33195Y3981D02*
X33275D01*
X33235Y3941D02*
Y4021D01*
X32955Y3741D02*
X33035D01*
X32995Y3701D02*
Y3781D01*
X32714Y3500D02*
X32794D01*
X32754Y3460D02*
Y3540D01*
X32474Y3260D02*
X32554D01*
X32514Y3220D02*
Y3300D01*
X32233Y3020D02*
X32313D01*
X32273Y2980D02*
Y3060D01*
X31993Y2779D02*
X32073D01*
X32033Y2739D02*
Y2819D01*
X31752Y2539D02*
X31832D01*
X31792Y2499D02*
Y2579D01*
X31512Y2298D02*
X31592D01*
X31552Y2258D02*
Y2338D01*
X31272Y2058D02*
X31352D01*
X31312Y2018D02*
Y2098D01*
X31031Y1818D02*
X31111D01*
X31071Y1778D02*
Y1858D01*
X30791Y1577D02*
X30871D01*
X30831Y1537D02*
Y1617D01*
X30550Y1337D02*
X30630D01*
X30590Y1297D02*
Y1377D01*
X30310Y1096D02*
X30390D01*
X30350Y1056D02*
Y1136D01*
X30070Y856D02*
X30150D01*
X30110Y816D02*
Y896D01*
X29829Y615D02*
X29909D01*
X29869Y575D02*
Y655D01*
X29589Y375D02*
X29669D01*
X29629Y335D02*
Y415D01*
X29348Y135D02*
X29428D01*
X29388Y95D02*
Y175D01*
X29108Y-106D02*
X29188D01*
X29148Y-146D02*
Y-66D01*
X28867Y-346D02*
X28947D01*
X28907Y-386D02*
Y-306D01*
X28627Y-587D02*
X28707D01*
X28667Y-627D02*
Y-547D01*
X28387Y-827D02*
X28467D01*
X28427Y-867D02*
Y-787D01*
X28146Y-1067D02*
X28226D01*
X28186Y-1107D02*
Y-1027D01*
X27906Y-1308D02*
X27986D01*
X27946Y-1348D02*
Y-1268D01*
X27665Y-1548D02*
X27745D01*
X27705Y-1588D02*
Y-1508D01*
X27421Y-1784D02*
X27501D01*
X27461Y-1824D02*
Y-1744D01*
X27081Y-1784D02*
X27161D01*
X27121Y-1824D02*
Y-1744D01*
X23617Y-4224D02*
X23697D01*
X23657Y-4264D02*
Y-4184D01*
X23811Y-3945D02*
X23891D01*
X23851Y-3985D02*
Y-3905D01*
X24052Y-3704D02*
X24132D01*
X24092Y-3744D02*
Y-3664D01*
X24292Y-3464D02*
X24372D01*
X24332Y-3504D02*
Y-3424D01*
X24533Y-3224D02*
X24613D01*
X24573Y-3264D02*
Y-3184D01*
X24773Y-2983D02*
X24853D01*
X24813Y-3023D02*
Y-2943D01*
X25013Y-2743D02*
X25094D01*
X25054Y-2783D02*
Y-2703D01*
X25254Y-2502D02*
X25334D01*
X25294Y-2542D02*
Y-2462D01*
X25494Y-2262D02*
X25574D01*
X25534Y-2302D02*
Y-2222D01*
X25735Y-2022D02*
X25815D01*
X25775Y-2062D02*
Y-1982D01*
X25975Y-1781D02*
X26055D01*
X26015Y-1821D02*
Y-1741D01*
X26315Y-1766D02*
X26395D01*
X26355Y-1806D02*
Y-1726D01*
X26627Y-1630D02*
X26707D01*
X26667Y-1670D02*
Y-1590D01*
X26867Y-1389D02*
X26947D01*
X26907Y-1429D02*
Y-1349D01*
X27107Y-1149D02*
X27187D01*
X27147Y-1189D02*
Y-1109D01*
X27348Y-909D02*
X27428D01*
X27388Y-949D02*
Y-869D01*
X27588Y-668D02*
X27668D01*
X27628Y-708D02*
Y-628D01*
X27829Y-428D02*
X27909D01*
X27869Y-468D02*
Y-388D01*
X28069Y-187D02*
X28149D01*
X28109Y-227D02*
Y-147D01*
X28309Y53D02*
X28389D01*
X28349Y13D02*
Y93D01*
X28550Y293D02*
X28630D01*
X28590Y253D02*
Y333D01*
X28790Y534D02*
X28870D01*
X28830Y494D02*
Y574D01*
X29031Y774D02*
X29111D01*
X29071Y734D02*
Y814D01*
X29271Y1015D02*
X29351D01*
X29311Y975D02*
Y1055D01*
X29512Y1255D02*
X29592D01*
X29552Y1215D02*
Y1295D01*
X29752Y1496D02*
X29832D01*
X29792Y1456D02*
Y1536D01*
X29992Y1736D02*
X30072D01*
X30032Y1696D02*
Y1776D01*
X30233Y1976D02*
X30313D01*
X30273Y1936D02*
Y2016D01*
X30473Y2217D02*
X30553D01*
X30513Y2177D02*
Y2257D01*
X30714Y2457D02*
X30794D01*
X30754Y2417D02*
Y2497D01*
X30954Y2698D02*
X31034D01*
X30994Y2658D02*
Y2738D01*
X31194Y2938D02*
X31274D01*
X31234Y2898D02*
Y2978D01*
X31435Y3178D02*
X31515D01*
X31475Y3138D02*
Y3218D01*
X31675Y3419D02*
X31755D01*
X31715Y3379D02*
Y3459D01*
X31916Y3659D02*
X31996D01*
X31956Y3619D02*
Y3699D01*
X32156Y3900D02*
X32236D01*
X32196Y3860D02*
Y3940D01*
X32397Y4140D02*
X32477D01*
X32437Y4100D02*
Y4180D01*
X32637Y4381D02*
X32717D01*
X32677Y4341D02*
Y4421D01*
X32877Y4621D02*
X32957D01*
X32917Y4581D02*
Y4661D01*
X33118Y4861D02*
X33198D01*
X33158Y4821D02*
Y4901D01*
X33358Y5102D02*
X33438D01*
X33398Y5062D02*
Y5142D01*
X33599Y5342D02*
X33679D01*
X33639Y5302D02*
Y5382D01*
X33839Y5583D02*
X33919D01*
X33879Y5543D02*
Y5623D01*
X34079Y5823D02*
X34159D01*
X34119Y5783D02*
Y5863D01*
X34320Y6063D02*
X34400D01*
X34360Y6023D02*
Y6103D01*
X34560Y6304D02*
X34640D01*
X34600Y6264D02*
Y6344D01*
X34801Y6544D02*
X34881D01*
X34841Y6504D02*
Y6584D01*
X35041Y6785D02*
X35121D01*
X35081Y6745D02*
Y6825D01*
X35282Y7025D02*
X35362D01*
X35322Y6985D02*
Y7065D01*
X35522Y7266D02*
X35602D01*
X35562Y7226D02*
Y7306D01*
X35762Y7506D02*
X35842D01*
X35802Y7466D02*
Y7546D01*
X36003Y7746D02*
X36083D01*
X36043Y7706D02*
Y7786D01*
X36243Y7987D02*
X36323D01*
X36283Y7947D02*
Y8027D01*
X36484Y8227D02*
X36564D01*
X36524Y8187D02*
Y8267D01*
X36724Y8468D02*
X36804D01*
X36764Y8428D02*
Y8508D01*
X36964Y8708D02*
X37044D01*
X37004Y8668D02*
Y8748D01*
X37205Y8948D02*
X37285D01*
X37245Y8908D02*
Y8988D01*
X37445Y9189D02*
X37525D01*
X37485Y9149D02*
Y9229D01*
X37686Y9429D02*
X37766D01*
X37726Y9389D02*
Y9469D01*
X37926Y9670D02*
X38006D01*
X37966Y9630D02*
Y9710D01*
X38167Y9910D02*
X38247D01*
X38207Y9870D02*
Y9950D01*
X38407Y10151D02*
X38487D01*
X38447Y10111D02*
Y10191D01*
X38647Y10391D02*
X38727D01*
X38687Y10351D02*
Y10431D01*
X38888Y10631D02*
X38968D01*
X38928Y10591D02*
Y10671D01*
X39116Y10884D02*
X39196D01*
X39156Y10844D02*
Y10924D01*
X39156Y11221D02*
X39236D01*
X39196Y11181D02*
Y11261D01*
X39156Y11561D02*
X39236D01*
X39196Y11521D02*
Y11601D01*
X39156Y11901D02*
X39236D01*
X39196Y11861D02*
Y11941D01*
X39156Y12241D02*
X39236D01*
X39196Y12201D02*
Y12281D01*
X39156Y12581D02*
X39236D01*
X39196Y12541D02*
Y12621D01*
X39156Y12921D02*
X39236D01*
X39196Y12881D02*
Y12961D01*
X39156Y13261D02*
X39236D01*
X39196Y13221D02*
Y13301D01*
X39156Y13601D02*
X39236D01*
X39196Y13561D02*
Y13641D01*
X39156Y13941D02*
X39236D01*
X39196Y13901D02*
Y13981D01*
X39156Y14281D02*
X39236D01*
X39196Y14241D02*
Y14321D01*
X39156Y14621D02*
X39236D01*
X39196Y14581D02*
Y14661D01*
X39156Y14961D02*
X39236D01*
X39196Y14921D02*
Y15001D01*
X39156Y15301D02*
X39236D01*
X39196Y15261D02*
Y15341D01*
X39389Y15549D02*
X39469D01*
X39429Y15509D02*
Y15589D01*
X39629Y15789D02*
X39709D01*
X39669Y15749D02*
Y15829D01*
X39870Y16030D02*
X39950D01*
X39910Y15990D02*
Y16070D01*
X40110Y16270D02*
X40190D01*
X40150Y16230D02*
Y16310D01*
X40351Y16510D02*
X40431D01*
X40391Y16470D02*
Y16550D01*
X40591Y16751D02*
X40671D01*
X40631Y16711D02*
Y16791D01*
X40831Y16991D02*
X40911D01*
X40871Y16951D02*
Y17031D01*
X41072Y17232D02*
X41152D01*
X41112Y17192D02*
Y17272D01*
X41312Y17472D02*
X41392D01*
X41352Y17432D02*
Y17512D01*
X41553Y17712D02*
X41633D01*
X41593Y17672D02*
Y17752D01*
X41793Y17953D02*
X41873D01*
X41833Y17913D02*
Y17993D01*
X42034Y18193D02*
X42114D01*
X42074Y18153D02*
Y18233D01*
X42274Y18434D02*
X42354D01*
X42314Y18394D02*
Y18474D01*
X42514Y18674D02*
X42594D01*
X42554Y18634D02*
Y18714D01*
X42755Y18915D02*
X42835D01*
X42795Y18875D02*
Y18955D01*
X42995Y19155D02*
X43075D01*
X43035Y19115D02*
Y19195D01*
X43236Y19395D02*
X43316D01*
X43276Y19355D02*
Y19435D01*
X43476Y19636D02*
X43556D01*
X43516Y19596D02*
Y19676D01*
X43716Y19876D02*
X43796D01*
X43756Y19836D02*
Y19916D01*
X43957Y20117D02*
X44037D01*
X43997Y20077D02*
Y20157D01*
X44240Y20304D02*
X44320D01*
X44280Y20264D02*
Y20344D01*
X44283Y20642D02*
X44363D01*
X44323Y20602D02*
Y20682D01*
X44226Y20977D02*
X44306D01*
X44266Y20937D02*
Y21017D01*
X44226Y21317D02*
X44306D01*
X44266Y21277D02*
Y21357D01*
X44530Y21468D02*
X44610D01*
X44570Y21428D02*
Y21508D01*
X44870Y21468D02*
X44950D01*
X44910Y21428D02*
Y21508D01*
X45210Y21468D02*
X45290D01*
X45250Y21428D02*
Y21508D01*
X46910Y21468D02*
X46990D01*
X46950Y21428D02*
Y21508D01*
X47930Y21468D02*
X48010D01*
X47970Y21428D02*
Y21508D01*
X48270Y21468D02*
X48350D01*
X48310Y21428D02*
Y21508D01*
X48610Y21468D02*
X48690D01*
X48650Y21428D02*
Y21508D01*
X49633Y21897D02*
X49713D01*
X49673Y21857D02*
Y21937D01*
X49611Y22236D02*
X49691D01*
X49651Y22196D02*
Y22276D01*
X47616Y22355D02*
X47696D01*
X47656Y22315D02*
Y22395D01*
X47276Y22355D02*
X47356D01*
X47316Y22315D02*
Y22395D01*
X46936Y22355D02*
X47016D01*
X46976Y22315D02*
Y22395D01*
X46596Y22355D02*
X46676D01*
X46636Y22315D02*
Y22395D01*
X46256Y22355D02*
X46336D01*
X46296Y22315D02*
Y22395D01*
X45916Y22355D02*
X45996D01*
X45956Y22315D02*
Y22395D01*
X45576Y22355D02*
X45656D01*
X45616Y22315D02*
Y22395D01*
X45236Y22355D02*
X45316D01*
X45276Y22315D02*
Y22395D01*
X44896Y22355D02*
X44976D01*
X44936Y22315D02*
Y22395D01*
X44556Y22355D02*
X44636D01*
X44596Y22315D02*
Y22395D01*
X44226Y22436D02*
X44306D01*
X44266Y22396D02*
Y22476D01*
X44226Y22776D02*
X44306D01*
X44266Y22736D02*
Y22816D01*
X44270Y23114D02*
X44350D01*
X44310Y23074D02*
Y23154D01*
X44510Y23354D02*
X44590D01*
X44550Y23314D02*
Y23394D01*
X44751Y23594D02*
X44831D01*
X44791Y23554D02*
Y23634D01*
X44991Y23835D02*
X45071D01*
X45031Y23795D02*
Y23875D01*
X45232Y24075D02*
X45312D01*
X45272Y24035D02*
Y24115D01*
X45472Y24316D02*
X45552D01*
X45512Y24276D02*
Y24356D01*
X45810Y24351D02*
X45890D01*
X45850Y24311D02*
Y24391D01*
X46830Y24351D02*
X46910D01*
X46870Y24311D02*
Y24391D01*
X47850Y24351D02*
X47930D01*
X47890Y24311D02*
Y24391D01*
X48183Y24279D02*
X48263D01*
X48223Y24239D02*
Y24319D01*
X48515Y24351D02*
X48595D01*
X48555Y24311D02*
Y24391D01*
X49527Y24363D02*
X49607D01*
X49567Y24323D02*
Y24403D01*
X49636Y24685D02*
X49716D01*
X49676Y24645D02*
Y24725D01*
X48478Y24983D02*
X48558D01*
X48518Y24943D02*
Y25023D01*
X47810Y24982D02*
X47890D01*
X47850Y24942D02*
Y25022D01*
X49505Y25114D02*
X49585D01*
X49545Y25074D02*
Y25154D01*
X49636Y25428D02*
X49716D01*
X49676Y25388D02*
Y25468D01*
X49636Y25768D02*
X49716D01*
X49676Y25728D02*
Y25808D01*
X51206Y26687D02*
X51286D01*
X51246Y26647D02*
Y26727D01*
X50866Y26682D02*
X50946D01*
X50906Y26642D02*
Y26722D01*
X50586Y26489D02*
X50666D01*
X50626Y26449D02*
Y26529D01*
X50399Y26205D02*
X50479D01*
X50439Y26165D02*
Y26245D01*
X50636Y25605D02*
X50716D01*
X50676Y25565D02*
Y25645D01*
X50789Y25301D02*
X50869D01*
X50829Y25261D02*
Y25341D01*
X50629Y25000D02*
X50709D01*
X50669Y24960D02*
Y25040D01*
X50593Y23484D02*
X50673D01*
X50633Y23444D02*
Y23524D01*
X53237Y23251D02*
X53317D01*
X53277Y23211D02*
Y23291D01*
X53572Y23194D02*
X53652D01*
X53612Y23154D02*
Y23234D01*
X53894Y23086D02*
X53974D01*
X53934Y23046D02*
Y23126D01*
X53688Y22815D02*
X53768D01*
X53728Y22775D02*
Y22856D01*
X53351Y22855D02*
X53431D01*
X53391Y22815D02*
Y22895D01*
X53038Y22722D02*
X53118D01*
X53078Y22682D02*
Y22762D01*
X52710Y22634D02*
X52790D01*
X52750Y22594D02*
Y22674D01*
X52469Y22874D02*
X52549D01*
X52509Y22834D02*
Y22914D01*
X52221Y23107D02*
X52301D01*
X52261Y23067D02*
Y23147D01*
X51884Y23152D02*
X51964D01*
X51924Y23112D02*
Y23192D01*
X51544Y23152D02*
X51624D01*
X51584Y23112D02*
Y23192D01*
X51204Y23152D02*
X51284D01*
X51244Y23112D02*
Y23192D01*
X50864Y23152D02*
X50944D01*
X50904Y23112D02*
Y23192D01*
X50562Y22996D02*
X50642D01*
X50602Y22956D02*
Y23036D01*
X50689Y21835D02*
X50769D01*
X50729Y21795D02*
Y21875D01*
X51916Y21922D02*
X51996D01*
X51956Y21882D02*
Y21962D01*
X52135Y22182D02*
X52215D01*
X52175Y22142D02*
Y22222D01*
X52375Y21942D02*
X52455D01*
X52415Y21902D02*
Y21982D01*
X52678Y21787D02*
X52758D01*
X52718Y21747D02*
Y21827D01*
X53004Y21689D02*
X53084D01*
X53044Y21649D02*
Y21729D01*
X53817Y21696D02*
X53897D01*
X53857Y21656D02*
Y21736D01*
X54093Y21896D02*
X54173D01*
X54133Y21856D02*
Y21936D01*
X54333Y22136D02*
X54413D01*
X54373Y22096D02*
Y22176D01*
X54651Y22377D02*
X54731D01*
X54691Y22337D02*
Y22417D01*
X54651Y22037D02*
X54731D01*
X54691Y21997D02*
Y22077D01*
X54575Y21705D02*
X54655D01*
X54615Y21665D02*
Y21745D01*
X54334Y21465D02*
X54414D01*
X54374Y21425D02*
Y21505D01*
X54094Y21225D02*
X54174D01*
X54134Y21184D02*
Y21265D01*
X53755Y21256D02*
X53835D01*
X53795Y21216D02*
Y21296D01*
X53430Y21355D02*
X53510D01*
X53470Y21315D02*
Y21395D01*
X53097Y21289D02*
X53177D01*
X53137Y21249D02*
Y21329D01*
X52898Y21013D02*
X52978D01*
X52938Y20973D02*
Y21053D01*
X52558Y21013D02*
X52638D01*
X52598Y20973D02*
Y21053D01*
X52249Y20872D02*
X52329D01*
X52289Y20832D02*
Y20912D01*
X51919Y20788D02*
X51999D01*
X51959Y20748D02*
Y20828D01*
X50778Y20980D02*
X50858D01*
X50818Y20940D02*
Y21020D01*
X50341Y20475D02*
X50421D01*
X50381Y20435D02*
Y20515D01*
X50366Y20136D02*
X50446D01*
X50406Y20096D02*
Y20176D01*
X50586Y19489D02*
X50666D01*
X50626Y19449D02*
Y19529D01*
X50399Y19205D02*
X50479D01*
X50439Y19165D02*
Y19245D01*
X50636Y18605D02*
X50716D01*
X50676Y18565D02*
Y18645D01*
X50789Y18301D02*
X50869D01*
X50829Y18261D02*
Y18341D01*
X50629Y18000D02*
X50709D01*
X50669Y17960D02*
Y18040D01*
X50593Y16484D02*
X50673D01*
X50633Y16444D02*
Y16524D01*
X53237Y16251D02*
X53317D01*
X53277Y16211D02*
Y16291D01*
X53572Y16194D02*
X53652D01*
X53612Y16154D02*
Y16234D01*
X53894Y16086D02*
X53974D01*
X53934Y16046D02*
Y16126D01*
X53688Y15816D02*
X53768D01*
X53728Y15776D02*
Y15855D01*
X53351Y15855D02*
X53431D01*
X53391Y15815D02*
Y15895D01*
X53038Y15722D02*
X53118D01*
X53078Y15682D02*
Y15762D01*
X52710Y15634D02*
X52790D01*
X52750Y15594D02*
Y15674D01*
X52469Y15874D02*
X52549D01*
X52509Y15834D02*
Y15914D01*
X52221Y16107D02*
X52301D01*
X52261Y16067D02*
Y16147D01*
X51884Y16152D02*
X51964D01*
X51924Y16112D02*
Y16192D01*
X51544Y16152D02*
X51624D01*
X51584Y16112D02*
Y16192D01*
X51204Y16152D02*
X51284D01*
X51244Y16112D02*
Y16192D01*
X50864Y16152D02*
X50944D01*
X50904Y16112D02*
Y16192D01*
X50562Y15996D02*
X50642D01*
X50602Y15956D02*
Y16036D01*
X50689Y14835D02*
X50769D01*
X50729Y14795D02*
Y14875D01*
X51916Y14922D02*
X51996D01*
X51956Y14882D02*
Y14962D01*
X52135Y15182D02*
X52215D01*
X52175Y15142D02*
Y15222D01*
X52375Y14942D02*
X52455D01*
X52415Y14902D02*
Y14982D01*
X52678Y14787D02*
X52758D01*
X52718Y14747D02*
Y14827D01*
X53004Y14689D02*
X53084D01*
X53044Y14649D02*
Y14729D01*
X53817Y14696D02*
X53897D01*
X53857Y14656D02*
Y14736D01*
X54093Y14896D02*
X54173D01*
X54133Y14856D02*
Y14936D01*
X54333Y15136D02*
X54413D01*
X54373Y15096D02*
Y15176D01*
X54651Y15377D02*
X54731D01*
X54691Y15337D02*
Y15417D01*
X54651Y15037D02*
X54731D01*
X54691Y14997D02*
Y15077D01*
X54575Y14705D02*
X54655D01*
X54615Y14665D02*
Y14745D01*
X54334Y14465D02*
X54414D01*
X54374Y14425D02*
Y14505D01*
X54094Y14224D02*
X54174D01*
X54134Y14184D02*
Y14265D01*
X53755Y14256D02*
X53835D01*
X53795Y14216D02*
Y14296D01*
X53430Y14355D02*
X53510D01*
X53470Y14315D02*
Y14395D01*
X53097Y14289D02*
X53177D01*
X53137Y14249D02*
Y14329D01*
X52898Y14013D02*
X52978D01*
X52938Y13973D02*
Y14053D01*
X52558Y14013D02*
X52638D01*
X52598Y13973D02*
Y14053D01*
X52249Y13872D02*
X52329D01*
X52289Y13832D02*
Y13912D01*
X51919Y13788D02*
X51999D01*
X51959Y13748D02*
Y13828D01*
X50778Y13980D02*
X50858D01*
X50818Y13940D02*
Y14020D01*
X50341Y13475D02*
X50421D01*
X50381Y13435D02*
Y13515D01*
X50366Y13136D02*
X50446D01*
X50406Y13096D02*
Y13176D01*
X50586Y12489D02*
X50666D01*
X50626Y12449D02*
Y12529D01*
X50399Y12205D02*
X50479D01*
X50439Y12165D02*
Y12245D01*
X50636Y11605D02*
X50716D01*
X50676Y11565D02*
Y11645D01*
X50789Y11301D02*
X50869D01*
X50829Y11261D02*
Y11341D01*
X50629Y11000D02*
X50709D01*
X50669Y10960D02*
Y11040D01*
X50593Y9484D02*
X50673D01*
X50633Y9444D02*
Y9524D01*
X53237Y9251D02*
X53317D01*
X53277Y9211D02*
Y9291D01*
X53572Y9194D02*
X53652D01*
X53612Y9154D02*
Y9234D01*
X53894Y9086D02*
X53974D01*
X53934Y9046D02*
Y9126D01*
X53688Y8816D02*
X53768D01*
X53728Y8776D02*
Y8856D01*
X53351Y8855D02*
X53431D01*
X53391Y8815D02*
Y8895D01*
X53038Y8722D02*
X53118D01*
X53078Y8682D02*
Y8762D01*
X52710Y8634D02*
X52790D01*
X52750Y8594D02*
Y8674D01*
X52469Y8874D02*
X52549D01*
X52509Y8834D02*
Y8914D01*
X52221Y9107D02*
X52301D01*
X52261Y9067D02*
Y9147D01*
X51884Y9152D02*
X51964D01*
X51924Y9112D02*
Y9192D01*
X51544Y9152D02*
X51624D01*
X51584Y9112D02*
Y9192D01*
X51204Y9152D02*
X51284D01*
X51244Y9112D02*
Y9192D01*
X50864Y9152D02*
X50944D01*
X50904Y9112D02*
Y9192D01*
X50562Y8996D02*
X50642D01*
X50602Y8956D02*
Y9036D01*
X50689Y7835D02*
X50769D01*
X50729Y7795D02*
Y7875D01*
X51916Y7922D02*
X51996D01*
X51956Y7882D02*
Y7962D01*
X52135Y8182D02*
X52215D01*
X52175Y8142D02*
Y8222D01*
X52375Y7942D02*
X52455D01*
X52415Y7902D02*
Y7982D01*
X52678Y7787D02*
X52758D01*
X52718Y7747D02*
Y7827D01*
X53004Y7689D02*
X53084D01*
X53044Y7649D02*
Y7729D01*
X53817Y7696D02*
X53897D01*
X53857Y7656D02*
Y7736D01*
X54093Y7896D02*
X54173D01*
X54133Y7856D02*
Y7936D01*
X54333Y8136D02*
X54413D01*
X54373Y8096D02*
Y8176D01*
X54651Y8377D02*
X54731D01*
X54691Y8337D02*
Y8417D01*
X54651Y8037D02*
X54731D01*
X54691Y7997D02*
Y8077D01*
X54575Y7705D02*
X54655D01*
X54615Y7665D02*
Y7745D01*
X54334Y7465D02*
X54414D01*
X54374Y7425D02*
Y7505D01*
X54094Y7225D02*
X54174D01*
X54134Y7185D02*
Y7265D01*
X53755Y7256D02*
X53835D01*
X53795Y7216D02*
Y7296D01*
X53430Y7355D02*
X53510D01*
X53470Y7315D02*
Y7395D01*
X53097Y7289D02*
X53177D01*
X53137Y7249D02*
Y7329D01*
X52898Y7013D02*
X52978D01*
X52938Y6973D02*
Y7053D01*
X52558Y7013D02*
X52638D01*
X52598Y6973D02*
Y7053D01*
X52249Y6872D02*
X52329D01*
X52289Y6832D02*
Y6912D01*
X51919Y6788D02*
X51999D01*
X51959Y6748D02*
Y6828D01*
X50778Y6980D02*
X50858D01*
X50818Y6940D02*
Y7020D01*
X50341Y6475D02*
X50421D01*
X50381Y6435D02*
Y6515D01*
X50366Y6136D02*
X50446D01*
X50406Y6096D02*
Y6176D01*
X50586Y5489D02*
X50666D01*
X50626Y5449D02*
Y5529D01*
X50399Y5205D02*
X50479D01*
X50439Y5165D02*
Y5245D01*
X50636Y4605D02*
X50716D01*
X50676Y4565D02*
Y4645D01*
X50789Y4301D02*
X50869D01*
X50829Y4261D02*
Y4341D01*
X50629Y4000D02*
X50709D01*
X50669Y3960D02*
Y4040D01*
X50593Y2484D02*
X50673D01*
X50633Y2444D02*
Y2524D01*
X53237Y2251D02*
X53317D01*
X53277Y2211D02*
Y2291D01*
X53572Y2194D02*
X53652D01*
X53612Y2154D02*
Y2234D01*
X53894Y2086D02*
X53974D01*
X53934Y2046D02*
Y2126D01*
X53688Y1815D02*
X53768D01*
X53728Y1776D02*
Y1856D01*
X53351Y1855D02*
X53431D01*
X53391Y1815D02*
Y1895D01*
X53038Y1722D02*
X53118D01*
X53078Y1682D02*
Y1762D01*
X52710Y1634D02*
X52790D01*
X52750Y1594D02*
Y1674D01*
X52469Y1874D02*
X52549D01*
X52509Y1834D02*
Y1914D01*
X52221Y2107D02*
X52301D01*
X52261Y2067D02*
Y2147D01*
X51884Y2152D02*
X51964D01*
X51924Y2112D02*
Y2192D01*
X51544Y2152D02*
X51624D01*
X51584Y2112D02*
Y2192D01*
X51204Y2152D02*
X51284D01*
X51244Y2112D02*
Y2192D01*
X50864Y2152D02*
X50944D01*
X50904Y2112D02*
Y2192D01*
X50562Y1996D02*
X50642D01*
X50602Y1956D02*
Y2036D01*
X50689Y835D02*
X50769D01*
X50729Y795D02*
Y875D01*
X51916Y922D02*
X51996D01*
X51956Y882D02*
Y962D01*
X52135Y1182D02*
X52215D01*
X52175Y1142D02*
Y1222D01*
X52375Y942D02*
X52455D01*
X52415Y902D02*
Y982D01*
X52678Y787D02*
X52758D01*
X52718Y747D02*
Y827D01*
X53004Y689D02*
X53084D01*
X53044Y649D02*
Y729D01*
X53817Y696D02*
X53897D01*
X53857Y656D02*
Y736D01*
X54093Y896D02*
X54173D01*
X54133Y856D02*
Y936D01*
X54333Y1136D02*
X54413D01*
X54373Y1096D02*
Y1176D01*
X54651Y1377D02*
X54731D01*
X54691Y1337D02*
Y1417D01*
X54651Y1037D02*
X54731D01*
X54691Y997D02*
Y1077D01*
X54575Y705D02*
X54655D01*
X54615Y665D02*
Y745D01*
X54334Y465D02*
X54414D01*
X54374Y425D02*
Y505D01*
X54094Y225D02*
X54174D01*
X54134Y185D02*
Y265D01*
X53755Y256D02*
X53835D01*
X53795Y216D02*
Y296D01*
X53430Y355D02*
X53510D01*
X53470Y315D02*
Y395D01*
X53097Y289D02*
X53177D01*
X53137Y249D02*
Y329D01*
X52898Y13D02*
X52978D01*
X52938Y-27D02*
Y53D01*
X52558Y13D02*
X52638D01*
X52598Y-27D02*
Y53D01*
X52249Y-128D02*
X52329D01*
X52289Y-168D02*
Y-88D01*
X51919Y-212D02*
X51999D01*
X51959Y-252D02*
Y-172D01*
X50778Y-20D02*
X50858D01*
X50818Y-60D02*
Y20D01*
X50341Y-525D02*
X50421D01*
X50381Y-565D02*
Y-485D01*
X50366Y-864D02*
X50446D01*
X50406Y-904D02*
Y-824D01*
X50586Y-1511D02*
X50666D01*
X50626Y-1551D02*
Y-1471D01*
X50399Y-1795D02*
X50479D01*
X50439Y-1835D02*
Y-1755D01*
X50636Y-2395D02*
X50716D01*
X50676Y-2435D02*
Y-2355D01*
X50789Y-2699D02*
X50869D01*
X50829Y-2739D02*
Y-2659D01*
X50629Y-3000D02*
X50709D01*
X50669Y-3040D02*
Y-2960D01*
X50593Y-4516D02*
X50673D01*
X50633Y-4556D02*
Y-4476D01*
X53237Y-4749D02*
X53317D01*
X53277Y-4789D02*
Y-4709D01*
X53572Y-4806D02*
X53652D01*
X53612Y-4846D02*
Y-4766D01*
X53894Y-4914D02*
X53974D01*
X53934Y-4954D02*
Y-4874D01*
X53688Y-5185D02*
X53768D01*
X53728Y-5224D02*
Y-5145D01*
X53351Y-5145D02*
X53431D01*
X53391Y-5185D02*
Y-5105D01*
X53038Y-5278D02*
X53118D01*
X53078Y-5318D02*
Y-5238D01*
X52710Y-5366D02*
X52790D01*
X52750Y-5406D02*
Y-5326D01*
X52469Y-5126D02*
X52549D01*
X52509Y-5166D02*
Y-5086D01*
X52221Y-4893D02*
X52301D01*
X52261Y-4933D02*
Y-4853D01*
X51884Y-4848D02*
X51964D01*
X51924Y-4888D02*
Y-4808D01*
X51544Y-4848D02*
X51624D01*
X51584Y-4888D02*
Y-4808D01*
X51204Y-4848D02*
X51284D01*
X51244Y-4888D02*
Y-4808D01*
X50864Y-4848D02*
X50944D01*
X50904Y-4888D02*
Y-4808D01*
X50562Y-5004D02*
X50642D01*
X50602Y-5044D02*
Y-4964D01*
X50689Y-6165D02*
X50769D01*
X50729Y-6205D02*
Y-6125D01*
X51916Y-6078D02*
X51996D01*
X51956Y-6118D02*
Y-6038D01*
X52135Y-5818D02*
X52215D01*
X52175Y-5858D02*
Y-5778D01*
X52375Y-6058D02*
X52455D01*
X52415Y-6098D02*
Y-6018D01*
X52678Y-6213D02*
X52758D01*
X52718Y-6253D02*
Y-6173D01*
X53004Y-6311D02*
X53084D01*
X53044Y-6351D02*
Y-6271D01*
X53817Y-6304D02*
X53897D01*
X53857Y-6344D02*
Y-6264D01*
X54093Y-6104D02*
X54173D01*
X54133Y-6144D02*
Y-6064D01*
X54333Y-5864D02*
X54413D01*
X54373Y-5904D02*
Y-5824D01*
X54651Y-5623D02*
X54731D01*
X54691Y-5663D02*
Y-5583D01*
X54651Y-5963D02*
X54731D01*
X54691Y-6003D02*
Y-5923D01*
X54575Y-6295D02*
X54655D01*
X54615Y-6335D02*
Y-6255D01*
X54334Y-6535D02*
X54414D01*
X54374Y-6575D02*
Y-6495D01*
X54094Y-6775D02*
X54174D01*
X54134Y-6815D02*
Y-6735D01*
X53755Y-6744D02*
X53835D01*
X53795Y-6784D02*
Y-6704D01*
X53430Y-6645D02*
X53510D01*
X53470Y-6685D02*
Y-6605D01*
X53097Y-6711D02*
X53177D01*
X53137Y-6751D02*
Y-6671D01*
X52898Y-6987D02*
X52978D01*
X52938Y-7027D02*
Y-6947D01*
X52558Y-6987D02*
X52638D01*
X52598Y-7027D02*
Y-6947D01*
X52249Y-7128D02*
X52329D01*
X52289Y-7168D02*
Y-7088D01*
X51919Y-7212D02*
X51999D01*
X51959Y-7252D02*
Y-7172D01*
X50778Y-7020D02*
X50858D01*
X50818Y-7060D02*
Y-6980D01*
X50341Y-7525D02*
X50421D01*
X50381Y-7565D02*
Y-7485D01*
X50366Y-7864D02*
X50446D01*
X50406Y-7904D02*
Y-7824D01*
X50586Y-8511D02*
X50666D01*
X50626Y-8551D02*
Y-8471D01*
X50399Y-8795D02*
X50479D01*
X50439Y-8835D02*
Y-8755D01*
X50636Y-9395D02*
X50716D01*
X50676Y-9435D02*
Y-9355D01*
X50789Y-9699D02*
X50869D01*
X50829Y-9739D02*
Y-9659D01*
X50629Y-10000D02*
X50709D01*
X50669Y-10040D02*
Y-9960D01*
X50593Y-11516D02*
X50673D01*
X50633Y-11556D02*
Y-11476D01*
X53237Y-11749D02*
X53317D01*
X53277Y-11789D02*
Y-11709D01*
X53572Y-11806D02*
X53652D01*
X53612Y-11846D02*
Y-11766D01*
X53894Y-11914D02*
X53974D01*
X53934Y-11954D02*
Y-11874D01*
X53688Y-12184D02*
X53768D01*
X53728Y-12225D02*
Y-12145D01*
X53351Y-12145D02*
X53431D01*
X53391Y-12185D02*
Y-12105D01*
X53038Y-12278D02*
X53118D01*
X53078Y-12318D02*
Y-12238D01*
X52710Y-12366D02*
X52790D01*
X52750Y-12406D02*
Y-12326D01*
X52469Y-12126D02*
X52549D01*
X52509Y-12166D02*
Y-12086D01*
X52221Y-11893D02*
X52301D01*
X52261Y-11933D02*
Y-11853D01*
X51884Y-11848D02*
X51964D01*
X51924Y-11888D02*
Y-11808D01*
X51544Y-11848D02*
X51624D01*
X51584Y-11888D02*
Y-11808D01*
X51204Y-11848D02*
X51284D01*
X51244Y-11888D02*
Y-11808D01*
X50864Y-11848D02*
X50944D01*
X50904Y-11888D02*
Y-11808D01*
X50562Y-12004D02*
X50642D01*
X50602Y-12044D02*
Y-11964D01*
X50689Y-13165D02*
X50769D01*
X50729Y-13205D02*
Y-13125D01*
X51916Y-13078D02*
X51996D01*
X51956Y-13118D02*
Y-13038D01*
X52135Y-12818D02*
X52215D01*
X52175Y-12858D02*
Y-12778D01*
X52375Y-13058D02*
X52455D01*
X52415Y-13098D02*
Y-13018D01*
X52678Y-13213D02*
X52758D01*
X52718Y-13253D02*
Y-13173D01*
X53004Y-13311D02*
X53084D01*
X53044Y-13351D02*
Y-13271D01*
X53817Y-13304D02*
X53897D01*
X53857Y-13344D02*
Y-13264D01*
X54093Y-13104D02*
X54173D01*
X54133Y-13144D02*
Y-13064D01*
X54333Y-12864D02*
X54413D01*
X54373Y-12904D02*
Y-12824D01*
X54651Y-12623D02*
X54731D01*
X54691Y-12663D02*
Y-12583D01*
X54651Y-12963D02*
X54731D01*
X54691Y-13003D02*
Y-12923D01*
X54575Y-13295D02*
X54655D01*
X54615Y-13335D02*
Y-13255D01*
X54334Y-13535D02*
X54414D01*
X54374Y-13575D02*
Y-13495D01*
X54094Y-13776D02*
X54174D01*
X54134Y-13815D02*
Y-13736D01*
X53755Y-13744D02*
X53835D01*
X53795Y-13784D02*
Y-13704D01*
X53430Y-13645D02*
X53510D01*
X53470Y-13685D02*
Y-13605D01*
X53097Y-13711D02*
X53177D01*
X53137Y-13751D02*
Y-13671D01*
X52898Y-13987D02*
X52978D01*
X52938Y-14027D02*
Y-13947D01*
X52558Y-13987D02*
X52638D01*
X52598Y-14027D02*
Y-13947D01*
X52249Y-14128D02*
X52329D01*
X52289Y-14168D02*
Y-14088D01*
X51919Y-14212D02*
X51999D01*
X51959Y-14252D02*
Y-14172D01*
X50778Y-14020D02*
X50858D01*
X50818Y-14060D02*
Y-13980D01*
X50341Y-14525D02*
X50421D01*
X50381Y-14565D02*
Y-14485D01*
X50366Y-14864D02*
X50446D01*
X50406Y-14904D02*
Y-14824D01*
X50586Y-15511D02*
X50666D01*
X50626Y-15551D02*
Y-15471D01*
X50399Y-15795D02*
X50479D01*
X50439Y-15835D02*
Y-15755D01*
X50636Y-16395D02*
X50716D01*
X50676Y-16435D02*
Y-16355D01*
X50789Y-16699D02*
X50869D01*
X50829Y-16739D02*
Y-16659D01*
X50629Y-17000D02*
X50709D01*
X50669Y-17040D02*
Y-16960D01*
X50593Y-18516D02*
X50673D01*
X50633Y-18556D02*
Y-18476D01*
X53237Y-18749D02*
X53317D01*
X53277Y-18789D02*
Y-18709D01*
X53572Y-18806D02*
X53652D01*
X53612Y-18846D02*
Y-18766D01*
X53894Y-18914D02*
X53974D01*
X53934Y-18954D02*
Y-18874D01*
X53688Y-19184D02*
X53768D01*
X53728Y-19224D02*
Y-19145D01*
X53351Y-19145D02*
X53431D01*
X53391Y-19185D02*
Y-19105D01*
X53038Y-19278D02*
X53118D01*
X53078Y-19318D02*
Y-19238D01*
X52710Y-19366D02*
X52790D01*
X52750Y-19406D02*
Y-19326D01*
X52469Y-19126D02*
X52549D01*
X52509Y-19166D02*
Y-19086D01*
X52221Y-18893D02*
X52301D01*
X52261Y-18933D02*
Y-18853D01*
X51884Y-18848D02*
X51964D01*
X51924Y-18888D02*
Y-18808D01*
X51544Y-18848D02*
X51624D01*
X51584Y-18888D02*
Y-18808D01*
X51204Y-18848D02*
X51284D01*
X51244Y-18888D02*
Y-18808D01*
X50864Y-18848D02*
X50944D01*
X50904Y-18888D02*
Y-18808D01*
X50562Y-19004D02*
X50642D01*
X50602Y-19044D02*
Y-18964D01*
X50689Y-20165D02*
X50769D01*
X50729Y-20205D02*
Y-20125D01*
X51916Y-20078D02*
X51996D01*
X51956Y-20118D02*
Y-20038D01*
X52135Y-19818D02*
X52215D01*
X52175Y-19858D02*
Y-19778D01*
X52375Y-20058D02*
X52455D01*
X52415Y-20098D02*
Y-20018D01*
X52678Y-20213D02*
X52758D01*
X52718Y-20253D02*
Y-20173D01*
X53004Y-20311D02*
X53084D01*
X53044Y-20351D02*
Y-20271D01*
X53817Y-20304D02*
X53897D01*
X53857Y-20344D02*
Y-20264D01*
X54093Y-20104D02*
X54173D01*
X54133Y-20144D02*
Y-20064D01*
X54333Y-19864D02*
X54413D01*
X54373Y-19904D02*
Y-19824D01*
X54651Y-19623D02*
X54731D01*
X54691Y-19663D02*
Y-19583D01*
X54651Y-19963D02*
X54731D01*
X54691Y-20003D02*
Y-19923D01*
X54575Y-20295D02*
X54655D01*
X54615Y-20335D02*
Y-20255D01*
X54334Y-20535D02*
X54414D01*
X54374Y-20575D02*
Y-20495D01*
X54094Y-20775D02*
X54174D01*
X54134Y-20815D02*
Y-20735D01*
X53755Y-20744D02*
X53835D01*
X53795Y-20784D02*
Y-20704D01*
X53430Y-20645D02*
X53510D01*
X53470Y-20685D02*
Y-20605D01*
X53097Y-20711D02*
X53177D01*
X53137Y-20751D02*
Y-20671D01*
X52898Y-20987D02*
X52978D01*
X52938Y-21027D02*
Y-20947D01*
X52558Y-20987D02*
X52638D01*
X52598Y-21027D02*
Y-20947D01*
X52249Y-21128D02*
X52329D01*
X52289Y-21168D02*
Y-21088D01*
X51919Y-21212D02*
X51999D01*
X51959Y-21252D02*
Y-21172D01*
X50778Y-21020D02*
X50858D01*
X50818Y-21060D02*
Y-20980D01*
X50341Y-21525D02*
X50421D01*
X50381Y-21565D02*
Y-21485D01*
X50366Y-21864D02*
X50446D01*
X50406Y-21904D02*
Y-21824D01*
X50586Y-22511D02*
X50666D01*
X50626Y-22551D02*
Y-22471D01*
X50399Y-22795D02*
X50479D01*
X50439Y-22835D02*
Y-22755D01*
X50636Y-23395D02*
X50716D01*
X50676Y-23435D02*
Y-23355D01*
X50789Y-23699D02*
X50869D01*
X50829Y-23739D02*
Y-23659D01*
X50629Y-24000D02*
X50709D01*
X50669Y-24040D02*
Y-23960D01*
X50593Y-25516D02*
X50673D01*
X50633Y-25556D02*
Y-25476D01*
X53237Y-25749D02*
X53317D01*
X53277Y-25789D02*
Y-25709D01*
X53572Y-25806D02*
X53652D01*
X53612Y-25846D02*
Y-25766D01*
X53894Y-25914D02*
X53974D01*
X53934Y-25954D02*
Y-25874D01*
X53688Y-26184D02*
X53768D01*
X53728Y-26224D02*
Y-26144D01*
X53350Y-26145D02*
X53430D01*
X53390Y-26185D02*
Y-26105D01*
X53038Y-26279D02*
X53118D01*
X53078Y-26319D02*
Y-26239D01*
X52709Y-26365D02*
X52789D01*
X52749Y-26405D02*
Y-26325D01*
X52468Y-26125D02*
X52548D01*
X52508Y-26165D02*
Y-26085D01*
X52220Y-25893D02*
X52300D01*
X52260Y-25933D02*
Y-25853D01*
X51883Y-25848D02*
X51963D01*
X51923Y-25888D02*
Y-25808D01*
X51543Y-25848D02*
X51623D01*
X51583Y-25888D02*
Y-25808D01*
X51203Y-25848D02*
X51283D01*
X51243Y-25888D02*
Y-25808D01*
X50863Y-25848D02*
X50943D01*
X50903Y-25888D02*
Y-25808D01*
X50561Y-26005D02*
X50641D01*
X50601Y-26045D02*
Y-25965D01*
X50690Y-27165D02*
X50770D01*
X50730Y-27205D02*
Y-27125D01*
X51916Y-27076D02*
X51996D01*
X51956Y-27116D02*
Y-27036D01*
X52124Y-26808D02*
X52204D01*
X52164Y-26848D02*
Y-26768D01*
X52365Y-27048D02*
X52445D01*
X52405Y-27088D02*
Y-27008D01*
X52662Y-27213D02*
X52742D01*
X52702Y-27253D02*
Y-27173D01*
X53000Y-27253D02*
X53080D01*
X53040Y-27293D02*
Y-27213D01*
X53184Y-27539D02*
X53264D01*
X53224Y-27579D02*
Y-27499D01*
X53806Y-27366D02*
X53886D01*
X53846Y-27406D02*
Y-27326D01*
X54057Y-27137D02*
X54137D01*
X54097Y-27177D02*
Y-27097D01*
X54299Y-26898D02*
X54379D01*
X54339Y-26938D02*
Y-26858D01*
X54651Y-26328D02*
X54731D01*
X54691Y-26368D02*
Y-26288D01*
X54651Y-26668D02*
X54731D01*
X54691Y-26708D02*
Y-26628D01*
X54651Y-27008D02*
X54731D01*
X54691Y-27048D02*
Y-26968D01*
X54540Y-27329D02*
X54620D01*
X54580Y-27369D02*
Y-27289D01*
X54300Y-27570D02*
X54380D01*
X54340Y-27610D02*
Y-27530D01*
X54059Y-27810D02*
X54139D01*
X54099Y-27850D02*
Y-27770D01*
X53732Y-27718D02*
X53812D01*
X53772Y-27758D02*
Y-27678D01*
X53400Y-27645D02*
X53480D01*
X53440Y-27685D02*
Y-27605D01*
X53072Y-27734D02*
X53152D01*
X53112Y-27774D02*
Y-27694D01*
X52845Y-27987D02*
X52925D01*
X52885Y-28027D02*
Y-27947D01*
X52505Y-27989D02*
X52585D01*
X52545Y-28029D02*
Y-27949D01*
X52213Y-28163D02*
X52293D01*
X52253Y-28203D02*
Y-28123D01*
X51919Y-28333D02*
X51999D01*
X51959Y-28373D02*
Y-28293D01*
X51869Y-27997D02*
X51949D01*
X51909Y-28037D02*
Y-27957D01*
X50877Y-27948D02*
X50957D01*
X50917Y-27988D02*
Y-27908D01*
X50598Y-28143D02*
X50678D01*
X50638Y-28183D02*
Y-28103D01*
X50341Y-28736D02*
X50421D01*
X50381Y-28776D02*
Y-28696D01*
X50502Y-29035D02*
X50582D01*
X50542Y-29075D02*
Y-28995D01*
X52593Y-28810D02*
X52674D01*
X52634Y-28850D02*
Y-28770D01*
X52919Y-28713D02*
X52999D01*
X52959Y-28753D02*
Y-28673D01*
X53107Y-28997D02*
X53187D01*
X53147Y-29037D02*
Y-28957D01*
X53764Y-28945D02*
X53844D01*
X53804Y-28985D02*
Y-28905D01*
X54012Y-28713D02*
X54092D01*
X54052Y-28753D02*
Y-28673D01*
X54322Y-28574D02*
X54402D01*
X54362Y-28614D02*
Y-28534D01*
X54562Y-28334D02*
X54642D01*
X54602Y-28374D02*
Y-28294D01*
X54803Y-28093D02*
X54883D01*
X54843Y-28133D02*
Y-28053D01*
X55043Y-27853D02*
X55123D01*
X55083Y-27893D02*
Y-27813D01*
X55284Y-27612D02*
X55364D01*
X55324Y-27652D02*
Y-27572D01*
X55377Y-27285D02*
X55457D01*
X55417Y-27325D02*
Y-27245D01*
X55377Y-26945D02*
X55457D01*
X55417Y-26985D02*
Y-26905D01*
X55377Y-26605D02*
X55457D01*
X55417Y-26645D02*
Y-26565D01*
X55742Y-25749D02*
X55822D01*
X55782Y-25789D02*
Y-25709D01*
X57070Y-25685D02*
X57150D01*
X57110Y-25725D02*
Y-25645D01*
X57111Y-25348D02*
X57191D01*
X57151Y-25388D02*
Y-25308D01*
X57013Y-25022D02*
X57093D01*
X57053Y-25062D02*
Y-24982D01*
X57111Y-23903D02*
X57191D01*
X57151Y-23943D02*
Y-23863D01*
X57094Y-23563D02*
X57174D01*
X57134Y-23603D02*
Y-23523D01*
X55835Y-23146D02*
X55915D01*
X55875Y-23186D02*
Y-23106D01*
X55552Y-22957D02*
X55632D01*
X55592Y-22997D02*
Y-22917D01*
X55212Y-22954D02*
X55292D01*
X55252Y-22994D02*
Y-22914D01*
X52526Y-22806D02*
X52606D01*
X52566Y-22846D02*
Y-22766D01*
X52286Y-22565D02*
X52366D01*
X52326Y-22605D02*
Y-22525D01*
X52593Y-21810D02*
X52674D01*
X52634Y-21850D02*
Y-21770D01*
X52919Y-21713D02*
X52999D01*
X52959Y-21753D02*
Y-21673D01*
X53107Y-21997D02*
X53187D01*
X53147Y-22037D02*
Y-21957D01*
X53764Y-21945D02*
X53844D01*
X53804Y-21985D02*
Y-21905D01*
X54012Y-21713D02*
X54092D01*
X54052Y-21753D02*
Y-21673D01*
X54322Y-21574D02*
X54402D01*
X54362Y-21614D02*
Y-21534D01*
X54562Y-21334D02*
X54642D01*
X54602Y-21374D02*
Y-21294D01*
X54803Y-21093D02*
X54883D01*
X54843Y-21133D02*
Y-21053D01*
X55043Y-20853D02*
X55123D01*
X55083Y-20893D02*
Y-20813D01*
X55284Y-20612D02*
X55364D01*
X55324Y-20652D02*
Y-20572D01*
X55377Y-20285D02*
X55457D01*
X55417Y-20325D02*
Y-20245D01*
X55377Y-19945D02*
X55457D01*
X55417Y-19985D02*
Y-19905D01*
X55377Y-19605D02*
X55457D01*
X55417Y-19645D02*
Y-19565D01*
X55742Y-18749D02*
X55822D01*
X55782Y-18789D02*
Y-18709D01*
X57070Y-18685D02*
X57150D01*
X57110Y-18725D02*
Y-18645D01*
X57111Y-18348D02*
X57191D01*
X57151Y-18388D02*
Y-18308D01*
X57013Y-18022D02*
X57093D01*
X57053Y-18062D02*
Y-17982D01*
X57111Y-16903D02*
X57191D01*
X57151Y-16943D02*
Y-16863D01*
X57094Y-16563D02*
X57174D01*
X57134Y-16603D02*
Y-16523D01*
X55835Y-16146D02*
X55915D01*
X55875Y-16186D02*
Y-16106D01*
X55552Y-15957D02*
X55632D01*
X55592Y-15997D02*
Y-15917D01*
X55212Y-15954D02*
X55292D01*
X55252Y-15994D02*
Y-15914D01*
X52526Y-15806D02*
X52606D01*
X52566Y-15846D02*
Y-15766D01*
X52286Y-15565D02*
X52366D01*
X52326Y-15605D02*
Y-15525D01*
X52593Y-14810D02*
X52674D01*
X52634Y-14850D02*
Y-14770D01*
X52919Y-14713D02*
X52999D01*
X52959Y-14753D02*
Y-14673D01*
X53107Y-14997D02*
X53187D01*
X53147Y-15037D02*
Y-14957D01*
X53764Y-14945D02*
X53844D01*
X53804Y-14985D02*
Y-14905D01*
X54012Y-14713D02*
X54092D01*
X54052Y-14753D02*
Y-14673D01*
X54322Y-14574D02*
X54402D01*
X54362Y-14614D02*
Y-14534D01*
X54562Y-14334D02*
X54642D01*
X54602Y-14374D02*
Y-14294D01*
X54803Y-14093D02*
X54883D01*
X54843Y-14133D02*
Y-14053D01*
X55043Y-13853D02*
X55123D01*
X55083Y-13893D02*
Y-13813D01*
X55284Y-13612D02*
X55364D01*
X55324Y-13652D02*
Y-13572D01*
X55377Y-13285D02*
X55457D01*
X55417Y-13325D02*
Y-13245D01*
X55377Y-12945D02*
X55457D01*
X55417Y-12985D02*
Y-12905D01*
X55377Y-12605D02*
X55457D01*
X55417Y-12645D02*
Y-12565D01*
X55742Y-11749D02*
X55822D01*
X55782Y-11789D02*
Y-11709D01*
X57070Y-11685D02*
X57150D01*
X57110Y-11725D02*
Y-11645D01*
X57111Y-11348D02*
X57191D01*
X57151Y-11388D02*
Y-11308D01*
X57013Y-11022D02*
X57093D01*
X57053Y-11062D02*
Y-10982D01*
X57111Y-9903D02*
X57191D01*
X57151Y-9943D02*
Y-9863D01*
X57094Y-9563D02*
X57174D01*
X57134Y-9603D02*
Y-9523D01*
X55835Y-9146D02*
X55915D01*
X55875Y-9186D02*
Y-9106D01*
X55552Y-8957D02*
X55632D01*
X55592Y-8997D02*
Y-8917D01*
X55212Y-8954D02*
X55292D01*
X55252Y-8994D02*
Y-8914D01*
X52526Y-8806D02*
X52606D01*
X52566Y-8846D02*
Y-8766D01*
X52286Y-8565D02*
X52366D01*
X52326Y-8605D02*
Y-8525D01*
X52593Y-7810D02*
X52674D01*
X52634Y-7850D02*
Y-7770D01*
X52919Y-7713D02*
X52999D01*
X52959Y-7753D02*
Y-7673D01*
X53107Y-7997D02*
X53187D01*
X53147Y-8037D02*
Y-7957D01*
X53764Y-7945D02*
X53844D01*
X53804Y-7985D02*
Y-7905D01*
X54012Y-7713D02*
X54092D01*
X54052Y-7753D02*
Y-7673D01*
X54322Y-7574D02*
X54402D01*
X54362Y-7614D02*
Y-7534D01*
X54562Y-7334D02*
X54642D01*
X54602Y-7374D02*
Y-7294D01*
X54803Y-7093D02*
X54883D01*
X54843Y-7133D02*
Y-7053D01*
X55043Y-6853D02*
X55123D01*
X55083Y-6893D02*
Y-6813D01*
X55284Y-6612D02*
X55364D01*
X55324Y-6652D02*
Y-6572D01*
X55377Y-6285D02*
X55457D01*
X55417Y-6325D02*
Y-6245D01*
X55377Y-5945D02*
X55457D01*
X55417Y-5985D02*
Y-5905D01*
X55377Y-5605D02*
X55457D01*
X55417Y-5645D02*
Y-5565D01*
X55742Y-4749D02*
X55822D01*
X55782Y-4789D02*
Y-4709D01*
X57070Y-4685D02*
X57150D01*
X57110Y-4725D02*
Y-4645D01*
X57111Y-4348D02*
X57191D01*
X57151Y-4388D02*
Y-4308D01*
X57013Y-4022D02*
X57093D01*
X57053Y-4062D02*
Y-3982D01*
X57111Y-2903D02*
X57191D01*
X57151Y-2943D02*
Y-2863D01*
X57094Y-2563D02*
X57174D01*
X57134Y-2603D02*
Y-2523D01*
X55835Y-2146D02*
X55915D01*
X55875Y-2186D02*
Y-2106D01*
X55552Y-1957D02*
X55632D01*
X55592Y-1997D02*
Y-1917D01*
X55212Y-1954D02*
X55292D01*
X55252Y-1994D02*
Y-1914D01*
X52526Y-1806D02*
X52606D01*
X52566Y-1846D02*
Y-1766D01*
X52286Y-1565D02*
X52366D01*
X52326Y-1605D02*
Y-1525D01*
X52593Y-810D02*
X52673D01*
X52633Y-850D02*
Y-770D01*
X52919Y-713D02*
X52999D01*
X52959Y-753D02*
Y-673D01*
X53107Y-997D02*
X53187D01*
X53147Y-1037D02*
Y-957D01*
X53764Y-945D02*
X53844D01*
X53804Y-985D02*
Y-905D01*
X54012Y-713D02*
X54092D01*
X54052Y-753D02*
Y-673D01*
X54322Y-574D02*
X54402D01*
X54362Y-614D02*
Y-534D01*
X54562Y-334D02*
X54642D01*
X54602Y-374D02*
Y-294D01*
X54803Y-93D02*
X54883D01*
X54843Y-133D02*
Y-53D01*
X55043Y147D02*
X55123D01*
X55083Y107D02*
Y187D01*
X55284Y388D02*
X55364D01*
X55324Y348D02*
Y428D01*
X55377Y715D02*
X55457D01*
X55417Y675D02*
Y755D01*
X55377Y1055D02*
X55457D01*
X55417Y1015D02*
Y1095D01*
X55377Y1395D02*
X55457D01*
X55417Y1355D02*
Y1435D01*
X55742Y2251D02*
X55822D01*
X55782Y2211D02*
Y2291D01*
X57070Y2315D02*
X57150D01*
X57110Y2275D02*
Y2355D01*
X57111Y2652D02*
X57191D01*
X57151Y2612D02*
Y2692D01*
X57013Y2978D02*
X57093D01*
X57053Y2938D02*
Y3018D01*
X57111Y4097D02*
X57191D01*
X57151Y4057D02*
Y4137D01*
X57094Y4437D02*
X57174D01*
X57134Y4397D02*
Y4477D01*
X55835Y4854D02*
X55915D01*
X55875Y4814D02*
Y4894D01*
X55552Y5043D02*
X55632D01*
X55592Y5003D02*
Y5083D01*
X55212Y5046D02*
X55292D01*
X55252Y5006D02*
Y5086D01*
X52526Y5195D02*
X52606D01*
X52566Y5155D02*
Y5235D01*
X52286Y5435D02*
X52366D01*
X52326Y5395D02*
Y5475D01*
X52593Y6190D02*
X52673D01*
X52633Y6150D02*
Y6230D01*
X52919Y6287D02*
X52999D01*
X52959Y6247D02*
Y6327D01*
X53107Y6003D02*
X53187D01*
X53147Y5963D02*
Y6043D01*
X53763Y6054D02*
X53843D01*
X53803Y6014D02*
Y6094D01*
X54012Y6287D02*
X54092D01*
X54052Y6247D02*
Y6327D01*
X54322Y6426D02*
X54402D01*
X54362Y6386D02*
Y6466D01*
X54562Y6666D02*
X54642D01*
X54602Y6626D02*
Y6706D01*
X54803Y6907D02*
X54883D01*
X54843Y6867D02*
Y6947D01*
X55043Y7147D02*
X55123D01*
X55083Y7107D02*
Y7187D01*
X55284Y7387D02*
X55364D01*
X55324Y7347D02*
Y7427D01*
X55377Y7714D02*
X55457D01*
X55417Y7674D02*
Y7754D01*
X55377Y8054D02*
X55457D01*
X55417Y8014D02*
Y8094D01*
X55377Y8394D02*
X55457D01*
X55417Y8354D02*
Y8434D01*
X55742Y9251D02*
X55822D01*
X55782Y9211D02*
Y9291D01*
X57070Y9315D02*
X57150D01*
X57110Y9275D02*
Y9355D01*
X57111Y9652D02*
X57191D01*
X57151Y9612D02*
Y9692D01*
X57014Y9978D02*
X57094D01*
X57054Y9938D02*
Y10018D01*
X57111Y11097D02*
X57191D01*
X57151Y11057D02*
Y11137D01*
X57093Y11437D02*
X57173D01*
X57133Y11397D02*
Y11477D01*
X55835Y11854D02*
X55915D01*
X55875Y11814D02*
Y11894D01*
X55552Y12043D02*
X55632D01*
X55592Y12003D02*
Y12083D01*
X55212Y12046D02*
X55292D01*
X55252Y12006D02*
Y12086D01*
X52526Y12195D02*
X52606D01*
X52566Y12155D02*
Y12235D01*
X52286Y12435D02*
X52366D01*
X52326Y12395D02*
Y12475D01*
X52593Y13189D02*
X52673D01*
X52633Y13149D02*
Y13229D01*
X52918Y13287D02*
X52998D01*
X52958Y13247D02*
Y13327D01*
X53106Y13004D02*
X53186D01*
X53146Y12964D02*
Y13044D01*
X53763Y13054D02*
X53843D01*
X53803Y13014D02*
Y13094D01*
X54011Y13287D02*
X54091D01*
X54051Y13247D02*
Y13327D01*
X54321Y13425D02*
X54401D01*
X54361Y13385D02*
Y13465D01*
X54562Y13666D02*
X54642D01*
X54602Y13626D02*
Y13706D01*
X54802Y13906D02*
X54882D01*
X54842Y13866D02*
Y13946D01*
X55043Y14146D02*
X55123D01*
X55083Y14106D02*
Y14186D01*
X55283Y14387D02*
X55363D01*
X55323Y14347D02*
Y14427D01*
X55377Y14714D02*
X55457D01*
X55417Y14674D02*
Y14754D01*
X55377Y15054D02*
X55457D01*
X55417Y15014D02*
Y15094D01*
X55377Y15394D02*
X55457D01*
X55417Y15354D02*
Y15434D01*
X55741Y16251D02*
X55821D01*
X55781Y16211D02*
Y16291D01*
X57069Y16314D02*
X57149D01*
X57109Y16274D02*
Y16354D01*
X57111Y16651D02*
X57191D01*
X57151Y16611D02*
Y16691D01*
X57014Y16977D02*
X57094D01*
X57054Y16937D02*
Y17017D01*
X57111Y18099D02*
X57191D01*
X57151Y18059D02*
Y18139D01*
X57093Y18439D02*
X57173D01*
X57133Y18399D02*
Y18479D01*
X55833Y18856D02*
X55913D01*
X55873Y18816D02*
Y18896D01*
X55550Y19043D02*
X55630D01*
X55590Y19003D02*
Y19083D01*
X55210Y19046D02*
X55290D01*
X55250Y19006D02*
Y19086D01*
X52525Y19196D02*
X52605D01*
X52565Y19156D02*
Y19236D01*
X52284Y19437D02*
X52364D01*
X52324Y19397D02*
Y19477D01*
X52578Y20175D02*
X52658D01*
X52618Y20135D02*
Y20215D01*
X52899Y20287D02*
X52979D01*
X52939Y20247D02*
Y20327D01*
X53097Y20011D02*
X53177D01*
X53137Y19971D02*
Y20051D01*
X53756Y20045D02*
X53836D01*
X53796Y20005D02*
Y20085D01*
X53994Y20287D02*
X54074D01*
X54034Y20247D02*
Y20327D01*
X54310Y20414D02*
X54390D01*
X54350Y20374D02*
Y20454D01*
X54550Y20654D02*
X54630D01*
X54590Y20614D02*
Y20694D01*
X54791Y20895D02*
X54871D01*
X54831Y20855D02*
Y20935D01*
X55031Y21135D02*
X55111D01*
X55071Y21095D02*
Y21175D01*
X55271Y21375D02*
X55351D01*
X55311Y21335D02*
Y21415D01*
X55377Y21699D02*
X55457D01*
X55417Y21659D02*
Y21739D01*
X55377Y22039D02*
X55457D01*
X55417Y21999D02*
Y22079D01*
X55377Y22379D02*
X55457D01*
X55417Y22339D02*
Y22419D01*
X55720Y23251D02*
X55800D01*
X55760Y23211D02*
Y23291D01*
X57055Y23295D02*
X57135D01*
X57095Y23255D02*
Y23335D01*
X57108Y23631D02*
X57188D01*
X57148Y23591D02*
Y23671D01*
X57033Y23963D02*
X57113D01*
X57073Y23923D02*
Y24003D01*
X57041Y24852D02*
X57121D01*
X57081Y24812D02*
Y24892D01*
X57106Y25185D02*
X57186D01*
X57146Y25145D02*
Y25225D01*
X57046Y25520D02*
X57126D01*
X57086Y25480D02*
Y25560D01*
X55776Y25913D02*
X55856D01*
X55816Y25873D02*
Y25953D01*
X55463Y26046D02*
X55543D01*
X55503Y26006D02*
Y26086D01*
X52471Y26250D02*
X52551D01*
X52511Y26210D02*
Y26290D01*
X52231Y26490D02*
X52311D01*
X52271Y26450D02*
Y26530D01*
X51951Y26683D02*
X52031D01*
X51991Y26643D02*
Y26723D01*
X51619Y26757D02*
X51699D01*
X51659Y26717D02*
Y26797D01*
X37585Y-26450D02*
X37705D01*
X37645Y-26510D02*
Y-26390D01*
X37340Y-29990D02*
X37460D01*
X37400Y-30050D02*
Y-29930D01*
X56271Y-28496D02*
X56391D01*
X56331Y-28556D02*
Y-28436D01*
X46240Y-25089D02*
X46360D01*
X46300Y-25149D02*
Y-25029D01*
X47390Y-25083D02*
X47510D01*
X47450Y-25143D02*
Y-25023D01*
X46240Y-25750D02*
X46360D01*
X46300Y-25810D02*
Y-25690D01*
X46240Y-28923D02*
X46360D01*
X46300Y-28983D02*
Y-28863D01*
X47390Y-28923D02*
X47510D01*
X47450Y-28983D02*
Y-28863D01*
X58790Y-28193D02*
X58910D01*
X58850Y-28253D02*
Y-28133D01*
X46240Y-18089D02*
X46360D01*
X46300Y-18149D02*
Y-18029D01*
X47390Y-18083D02*
X47510D01*
X47450Y-18143D02*
Y-18023D01*
X46240Y-18750D02*
X46360D01*
X46300Y-18810D02*
Y-18690D01*
X46240Y-21923D02*
X46360D01*
X46300Y-21983D02*
Y-21863D01*
X47390Y-21923D02*
X47510D01*
X47450Y-21983D02*
Y-21863D01*
X56572Y-21850D02*
X56692D01*
X56632Y-21910D02*
Y-21790D01*
X58790Y-21193D02*
X58910D01*
X58850Y-21253D02*
Y-21133D01*
X46240Y-11089D02*
X46360D01*
X46300Y-11149D02*
Y-11029D01*
X47390Y-11083D02*
X47510D01*
X47450Y-11143D02*
Y-11023D01*
X46240Y-11750D02*
X46360D01*
X46300Y-11810D02*
Y-11690D01*
X46240Y-14923D02*
X46360D01*
X46300Y-14983D02*
Y-14863D01*
X47390Y-14923D02*
X47510D01*
X47450Y-14983D02*
Y-14863D01*
X56572Y-14850D02*
X56692D01*
X56632Y-14910D02*
Y-14790D01*
X58790Y-14193D02*
X58910D01*
X58850Y-14253D02*
Y-14133D01*
X46240Y-4089D02*
X46360D01*
X46300Y-4149D02*
Y-4029D01*
X47390Y-4083D02*
X47510D01*
X47450Y-4143D02*
Y-4023D01*
X46240Y-4750D02*
X46360D01*
X46300Y-4810D02*
Y-4690D01*
X46240Y-7923D02*
X46360D01*
X46300Y-7983D02*
Y-7863D01*
X47390Y-7923D02*
X47510D01*
X47450Y-7983D02*
Y-7863D01*
X56572Y-7850D02*
X56692D01*
X56632Y-7910D02*
Y-7790D01*
X58790Y-7193D02*
X58910D01*
X58850Y-7253D02*
Y-7133D01*
X46240Y2911D02*
X46360D01*
X46300Y2851D02*
Y2971D01*
X47390Y2917D02*
X47510D01*
X47450Y2857D02*
Y2977D01*
X46240Y2250D02*
X46360D01*
X46300Y2190D02*
Y2310D01*
X46240Y-923D02*
X46360D01*
X46300Y-983D02*
Y-863D01*
X47390Y-923D02*
X47510D01*
X47450Y-983D02*
Y-863D01*
X56572Y-850D02*
X56692D01*
X56632Y-910D02*
Y-790D01*
X58790Y-193D02*
X58910D01*
X58850Y-253D02*
Y-133D01*
X46240Y9911D02*
X46360D01*
X46300Y9851D02*
Y9971D01*
X47390Y9917D02*
X47510D01*
X47450Y9857D02*
Y9977D01*
X46240Y9250D02*
X46360D01*
X46300Y9190D02*
Y9310D01*
X46240Y6077D02*
X46360D01*
X46300Y6017D02*
Y6137D01*
X47390Y6077D02*
X47510D01*
X47450Y6017D02*
Y6137D01*
X56572Y6150D02*
X56692D01*
X56632Y6090D02*
Y6210D01*
X58790Y6807D02*
X58910D01*
X58850Y6747D02*
Y6867D01*
X46240Y16911D02*
X46360D01*
X46300Y16851D02*
Y16971D01*
X47390Y16917D02*
X47510D01*
X47450Y16857D02*
Y16977D01*
X46240Y16250D02*
X46360D01*
X46300Y16190D02*
Y16310D01*
X46240Y13077D02*
X46360D01*
X46300Y13017D02*
Y13137D01*
X47390Y13077D02*
X47510D01*
X47450Y13017D02*
Y13137D01*
X56572Y13150D02*
X56692D01*
X56632Y13090D02*
Y13210D01*
X58790Y13807D02*
X58910D01*
X58850Y13747D02*
Y13867D01*
X58790Y20807D02*
X58910D01*
X58850Y20747D02*
Y20867D01*
X56572Y20150D02*
X56692D01*
X56632Y20090D02*
Y20210D01*
X47390Y20077D02*
X47510D01*
X47450Y20017D02*
Y20137D01*
X46240Y20077D02*
X46360D01*
X46300Y20017D02*
Y20137D01*
X46240Y23250D02*
X46360D01*
X46300Y23190D02*
Y23310D01*
X47390Y23917D02*
X47510D01*
X47450Y23857D02*
Y23977D01*
X46240Y23911D02*
X46360D01*
X46300Y23851D02*
Y23971D01*
X57637Y-24303D02*
X57717D01*
X57677Y-24343D02*
Y-24263D01*
X57637Y-17303D02*
X57717D01*
X57677Y-17343D02*
Y-17263D01*
X57637Y-10303D02*
X57717D01*
X57677Y-10343D02*
Y-10263D01*
X57637Y-3303D02*
X57717D01*
X57677Y-3343D02*
Y-3263D01*
X57637Y3697D02*
X57717D01*
X57677Y3657D02*
Y3737D01*
X57637Y10697D02*
X57717D01*
X57677Y10657D02*
Y10737D01*
X57637Y17697D02*
X57717D01*
X57677Y17657D02*
Y17737D01*
X57637Y24697D02*
X57717D01*
X57677Y24657D02*
Y24737D01*
X52940Y25985D02*
X53060D01*
X53000Y25925D02*
Y26045D01*
X52940Y25394D02*
X53060D01*
X53000Y25334D02*
Y25454D01*
X52940Y18985D02*
X53060D01*
X53000Y18925D02*
Y19045D01*
X52940Y18394D02*
X53060D01*
X53000Y18334D02*
Y18454D01*
X52940Y11985D02*
X53060D01*
X53000Y11925D02*
Y12045D01*
X52940Y11394D02*
X53060D01*
X53000Y11334D02*
Y11454D01*
X52940Y4985D02*
X53060D01*
X53000Y4925D02*
Y5045D01*
X52940Y4394D02*
X53060D01*
X53000Y4334D02*
Y4454D01*
X52940Y-2015D02*
X53060D01*
X53000Y-2075D02*
Y-1955D01*
X52940Y-2606D02*
X53060D01*
X53000Y-2666D02*
Y-2546D01*
X52940Y-9015D02*
X53060D01*
X53000Y-9075D02*
Y-8955D01*
X52940Y-9606D02*
X53060D01*
X53000Y-9666D02*
Y-9546D01*
X52940Y-23015D02*
X53060D01*
X53000Y-23075D02*
Y-22955D01*
X52940Y-23606D02*
X53060D01*
X53000Y-23666D02*
Y-23546D01*
X49765Y24922D02*
X49845D01*
X49805Y24882D02*
Y24962D01*
X49765Y21528D02*
X49845D01*
X49805Y21488D02*
Y21568D01*
X49765Y17922D02*
X49845D01*
X49805Y17882D02*
Y17962D01*
X49765Y14528D02*
X49845D01*
X49805Y14488D02*
Y14568D01*
X49765Y10922D02*
X49845D01*
X49805Y10882D02*
Y10962D01*
X49765Y7528D02*
X49845D01*
X49805Y7488D02*
Y7568D01*
X49765Y3922D02*
X49845D01*
X49805Y3882D02*
Y3962D01*
X49765Y528D02*
X49845D01*
X49805Y488D02*
Y568D01*
X49765Y-3078D02*
X49845D01*
X49805Y-3118D02*
Y-3038D01*
X49765Y-6472D02*
X49845D01*
X49805Y-6512D02*
Y-6432D01*
X49765Y-10078D02*
X49845D01*
X49805Y-10118D02*
Y-10038D01*
X49765Y-13472D02*
X49845D01*
X49805Y-13512D02*
Y-13432D01*
X49765Y-24078D02*
X49845D01*
X49805Y-24118D02*
Y-24038D01*
X49765Y-27472D02*
X49845D01*
X49805Y-27512D02*
Y-27432D01*
X56360Y-25296D02*
X56440D01*
X56400Y-25336D02*
Y-25256D01*
X56360Y-25476D02*
X56440D01*
X56400Y-25516D02*
Y-25436D01*
X56360Y-23721D02*
X56440D01*
X56400Y-23761D02*
Y-23681D01*
X55627Y-24410D02*
X55707D01*
X55667Y-24450D02*
Y-24370D01*
X55627Y-24590D02*
X55707D01*
X55667Y-24630D02*
Y-24550D01*
X51610Y-22766D02*
X51690D01*
X51650Y-22806D02*
Y-22726D01*
X51610Y-22586D02*
X51690D01*
X51650Y-22626D02*
Y-22546D01*
X54160Y-24590D02*
X54240D01*
X54200Y-24630D02*
Y-24550D01*
X54160Y-24410D02*
X54240D01*
X54200Y-24450D02*
Y-24370D01*
X53660Y-25476D02*
X53740D01*
X53700Y-25516D02*
Y-25436D01*
X53660Y-25296D02*
X53740D01*
X53700Y-25336D02*
Y-25256D01*
X56360Y-23901D02*
X56440D01*
X56400Y-23941D02*
Y-23861D01*
X54660Y-26100D02*
X54740D01*
X54700Y-26140D02*
Y-26060D01*
X55412Y-26100D02*
X55492D01*
X55452Y-26140D02*
Y-26060D01*
X55674Y-24992D02*
X55754D01*
X55714Y-25032D02*
Y-24952D01*
X55727Y-24011D02*
X55807D01*
X55767Y-24051D02*
Y-23971D01*
X50108Y-25681D02*
X50188D01*
X50148Y-25721D02*
Y-25641D01*
X56360Y-24795D02*
X56440D01*
X56400Y-24835D02*
Y-24755D01*
X50108Y-4681D02*
X50188D01*
X50148Y-4721D02*
Y-4641D01*
X56360Y23704D02*
X56440D01*
X56400Y23664D02*
Y23744D01*
X56360Y23524D02*
X56440D01*
X56400Y23484D02*
Y23564D01*
X56360Y25279D02*
X56440D01*
X56400Y25239D02*
Y25319D01*
X55627Y24590D02*
X55707D01*
X55667Y24550D02*
Y24630D01*
X55627Y24410D02*
X55707D01*
X55667Y24370D02*
Y24450D01*
X51610Y26234D02*
X51690D01*
X51650Y26194D02*
Y26274D01*
X51610Y26414D02*
X51690D01*
X51650Y26374D02*
Y26454D01*
X54160Y24410D02*
X54240D01*
X54200Y24370D02*
Y24450D01*
X54160Y24590D02*
X54240D01*
X54200Y24550D02*
Y24630D01*
X53660Y23524D02*
X53740D01*
X53700Y23484D02*
Y23564D01*
X53660Y23704D02*
X53740D01*
X53700Y23664D02*
Y23744D01*
X56360Y25099D02*
X56440D01*
X56400Y25059D02*
Y25139D01*
X54660Y22900D02*
X54740D01*
X54700Y22860D02*
Y22940D01*
X55412Y22900D02*
X55492D01*
X55452Y22860D02*
Y22940D01*
X55674Y24008D02*
X55754D01*
X55714Y23968D02*
Y24048D01*
X55727Y24989D02*
X55807D01*
X55767Y24949D02*
Y25029D01*
X50108Y23319D02*
X50188D01*
X50148Y23279D02*
Y23359D01*
X56360Y24205D02*
X56440D01*
X56400Y24165D02*
Y24245D01*
X56360Y16704D02*
X56440D01*
X56400Y16664D02*
Y16744D01*
X56360Y16524D02*
X56440D01*
X56400Y16484D02*
Y16564D01*
X56360Y18279D02*
X56440D01*
X56400Y18239D02*
Y18319D01*
X55627Y17590D02*
X55707D01*
X55667Y17550D02*
Y17630D01*
X55627Y17410D02*
X55707D01*
X55667Y17370D02*
Y17450D01*
X51610Y19234D02*
X51690D01*
X51650Y19194D02*
Y19274D01*
X51610Y19414D02*
X51690D01*
X51650Y19374D02*
Y19454D01*
X54160Y17410D02*
X54240D01*
X54200Y17370D02*
Y17450D01*
X54160Y17590D02*
X54240D01*
X54200Y17550D02*
Y17630D01*
X53660Y16524D02*
X53740D01*
X53700Y16484D02*
Y16564D01*
X53660Y16704D02*
X53740D01*
X53700Y16664D02*
Y16744D01*
X56360Y18099D02*
X56440D01*
X56400Y18059D02*
Y18139D01*
X54660Y15900D02*
X54740D01*
X54700Y15860D02*
Y15940D01*
X55412Y15900D02*
X55492D01*
X55452Y15860D02*
Y15940D01*
X55674Y17008D02*
X55754D01*
X55714Y16968D02*
Y17048D01*
X55727Y17989D02*
X55807D01*
X55767Y17949D02*
Y18029D01*
X50108Y16319D02*
X50188D01*
X50148Y16279D02*
Y16359D01*
X56360Y17205D02*
X56440D01*
X56400Y17165D02*
Y17245D01*
X56360Y9704D02*
X56440D01*
X56400Y9664D02*
Y9744D01*
X56360Y9524D02*
X56440D01*
X56400Y9484D02*
Y9564D01*
X56360Y11279D02*
X56440D01*
X56400Y11239D02*
Y11319D01*
X55627Y10590D02*
X55707D01*
X55667Y10550D02*
Y10630D01*
X55627Y10410D02*
X55707D01*
X55667Y10370D02*
Y10450D01*
X51610Y12234D02*
X51690D01*
X51650Y12194D02*
Y12274D01*
X51610Y12414D02*
X51690D01*
X51650Y12374D02*
Y12454D01*
X54160Y10410D02*
X54240D01*
X54200Y10370D02*
Y10450D01*
X54160Y10590D02*
X54240D01*
X54200Y10550D02*
Y10630D01*
X53660Y9524D02*
X53740D01*
X53700Y9484D02*
Y9564D01*
X53660Y9704D02*
X53740D01*
X53700Y9664D02*
Y9744D01*
X56360Y11099D02*
X56440D01*
X56400Y11059D02*
Y11139D01*
X54660Y8900D02*
X54740D01*
X54700Y8860D02*
Y8940D01*
X55412Y8900D02*
X55492D01*
X55452Y8860D02*
Y8940D01*
X55674Y10008D02*
X55754D01*
X55714Y9968D02*
Y10048D01*
X55727Y10989D02*
X55807D01*
X55767Y10949D02*
Y11029D01*
X50108Y9319D02*
X50188D01*
X50148Y9279D02*
Y9359D01*
X56360Y10205D02*
X56440D01*
X56400Y10165D02*
Y10245D01*
X56360Y2704D02*
X56440D01*
X56400Y2664D02*
Y2744D01*
X56360Y2524D02*
X56440D01*
X56400Y2484D02*
Y2564D01*
X56360Y4279D02*
X56440D01*
X56400Y4239D02*
Y4319D01*
X55627Y3590D02*
X55707D01*
X55667Y3550D02*
Y3630D01*
X55627Y3410D02*
X55707D01*
X55667Y3370D02*
Y3450D01*
X51610Y5234D02*
X51690D01*
X51650Y5194D02*
Y5274D01*
X51610Y5414D02*
X51690D01*
X51650Y5374D02*
Y5454D01*
X54160Y3410D02*
X54240D01*
X54200Y3370D02*
Y3450D01*
X54160Y3590D02*
X54240D01*
X54200Y3550D02*
Y3630D01*
X53660Y2524D02*
X53740D01*
X53700Y2484D02*
Y2564D01*
X53660Y2704D02*
X53740D01*
X53700Y2664D02*
Y2744D01*
X56360Y4099D02*
X56440D01*
X56400Y4059D02*
Y4139D01*
X54660Y1900D02*
X54740D01*
X54700Y1860D02*
Y1940D01*
X55412Y1900D02*
X55492D01*
X55452Y1860D02*
Y1940D01*
X55674Y3008D02*
X55754D01*
X55714Y2968D02*
Y3048D01*
X55727Y3989D02*
X55807D01*
X55767Y3949D02*
Y4029D01*
X50108Y2319D02*
X50188D01*
X50148Y2279D02*
Y2359D01*
X56360Y3205D02*
X56440D01*
X56400Y3165D02*
Y3245D01*
X56360Y-4296D02*
X56440D01*
X56400Y-4336D02*
Y-4256D01*
X56360Y-4476D02*
X56440D01*
X56400Y-4516D02*
Y-4436D01*
X56360Y-2721D02*
X56440D01*
X56400Y-2761D02*
Y-2681D01*
X55627Y-3410D02*
X55707D01*
X55667Y-3450D02*
Y-3370D01*
X55627Y-3590D02*
X55707D01*
X55667Y-3630D02*
Y-3550D01*
X51610Y-1766D02*
X51690D01*
X51650Y-1806D02*
Y-1726D01*
X51610Y-1586D02*
X51690D01*
X51650Y-1626D02*
Y-1546D01*
X54160Y-3590D02*
X54240D01*
X54200Y-3630D02*
Y-3550D01*
X54160Y-3410D02*
X54240D01*
X54200Y-3450D02*
Y-3370D01*
X53660Y-4476D02*
X53740D01*
X53700Y-4516D02*
Y-4436D01*
X53660Y-4296D02*
X53740D01*
X53700Y-4336D02*
Y-4256D01*
X56360Y-2901D02*
X56440D01*
X56400Y-2941D02*
Y-2861D01*
X54660Y-5100D02*
X54740D01*
X54700Y-5140D02*
Y-5060D01*
X55412Y-5100D02*
X55492D01*
X55452Y-5140D02*
Y-5060D01*
X55674Y-3992D02*
X55754D01*
X55714Y-4032D02*
Y-3952D01*
X55727Y-3011D02*
X55807D01*
X55767Y-3051D02*
Y-2971D01*
X56360Y-3795D02*
X56440D01*
X56400Y-3835D02*
Y-3755D01*
X56360Y-11296D02*
X56440D01*
X56400Y-11336D02*
Y-11256D01*
X56360Y-11476D02*
X56440D01*
X56400Y-11516D02*
Y-11436D01*
X56360Y-9721D02*
X56440D01*
X56400Y-9761D02*
Y-9681D01*
X55627Y-10410D02*
X55707D01*
X55667Y-10450D02*
Y-10370D01*
X55627Y-10590D02*
X55707D01*
X55667Y-10630D02*
Y-10550D01*
X51610Y-8766D02*
X51690D01*
X51650Y-8806D02*
Y-8726D01*
X51610Y-8586D02*
X51690D01*
X51650Y-8626D02*
Y-8546D01*
X54160Y-10590D02*
X54240D01*
X54200Y-10630D02*
Y-10550D01*
X54160Y-10410D02*
X54240D01*
X54200Y-10450D02*
Y-10370D01*
X53660Y-11476D02*
X53740D01*
X53700Y-11516D02*
Y-11436D01*
X53660Y-11296D02*
X53740D01*
X53700Y-11336D02*
Y-11256D01*
X56360Y-9901D02*
X56440D01*
X56400Y-9941D02*
Y-9861D01*
X54660Y-12100D02*
X54740D01*
X54700Y-12140D02*
Y-12060D01*
X55412Y-12100D02*
X55492D01*
X55452Y-12140D02*
Y-12060D01*
X55674Y-10992D02*
X55754D01*
X55714Y-11032D02*
Y-10952D01*
X55727Y-10011D02*
X55807D01*
X55767Y-10051D02*
Y-9971D01*
X50108Y-11681D02*
X50188D01*
X50148Y-11721D02*
Y-11641D01*
X56360Y-10795D02*
X56440D01*
X56400Y-10835D02*
Y-10755D01*
X35040Y-28434D02*
X35160D01*
X35100Y-28494D02*
Y-28374D01*
X49765Y-20472D02*
X49845D01*
X49805Y-20512D02*
Y-20432D01*
X56360Y-17795D02*
X56440D01*
X56400Y-17835D02*
Y-17755D01*
X50108Y-18681D02*
X50188D01*
X50148Y-18721D02*
Y-18641D01*
X52940Y-16606D02*
X53060D01*
X53000Y-16666D02*
Y-16546D01*
X55727Y-17011D02*
X55807D01*
X55767Y-17051D02*
Y-16971D01*
X55674Y-17992D02*
X55754D01*
X55714Y-18032D02*
Y-17952D01*
X45590Y21250D02*
X45710D01*
X45650Y21190D02*
Y21310D01*
X45590Y18095D02*
X45710D01*
X45650Y18035D02*
Y18155D01*
X45590Y14250D02*
X45710D01*
X45650Y14190D02*
Y14310D01*
X45590Y11095D02*
X45710D01*
X45650Y11035D02*
Y11155D01*
X45590Y4095D02*
X45710D01*
X45650Y4035D02*
Y4155D01*
X45590Y25095D02*
X45710D01*
X45650Y25035D02*
Y25155D01*
X27140Y24556D02*
X27260D01*
X27200Y24496D02*
Y24616D01*
X27140Y23000D02*
X27260D01*
X27200Y22940D02*
Y23060D01*
X21040Y24556D02*
X21160D01*
X21100Y24496D02*
Y24616D01*
X21040Y23000D02*
X21160D01*
X21100Y22940D02*
Y23060D01*
X45590Y7250D02*
X45710D01*
X45650Y7190D02*
Y7310D01*
X45590Y250D02*
X45710D01*
X45650Y190D02*
Y310D01*
X16982Y10600D02*
X17102D01*
X17042Y10540D02*
Y10660D01*
X16667Y10260D02*
X16787D01*
X16727Y10200D02*
Y10320D01*
X17297Y10260D02*
X17417D01*
X17357Y10200D02*
Y10320D01*
X45590Y-16923D02*
X45710D01*
X45650Y-16983D02*
Y-16863D01*
X45590Y-20750D02*
X45710D01*
X45650Y-20810D02*
Y-20690D01*
X45590Y-6750D02*
X45710D01*
X45650Y-6810D02*
Y-6690D01*
X45590Y-2905D02*
X45710D01*
X45650Y-2965D02*
Y-2845D01*
X45590Y-13750D02*
X45710D01*
X45650Y-13810D02*
Y-13690D01*
X45590Y-9905D02*
X45710D01*
X45650Y-9965D02*
Y-9845D01*
X45590Y-23905D02*
X45710D01*
X45650Y-23965D02*
Y-23845D01*
X16037Y-8288D02*
X16157D01*
X16097Y-8348D02*
Y-8228D01*
X15722Y-7918D02*
X15842D01*
X15782Y-7978D02*
Y-7858D01*
X15407Y-8288D02*
X15527D01*
X15467Y-8348D02*
Y-8228D01*
X36995Y-26450D02*
X37115D01*
X37055Y-26510D02*
Y-26390D01*
X45590Y-27750D02*
X45710D01*
X45650Y-27810D02*
Y-27690D01*
X34240Y-27450D02*
X34360D01*
X34300Y-27510D02*
Y-27390D01*
X52940Y-16015D02*
X53060D01*
X53000Y-16075D02*
Y-15955D01*
X49765Y-17078D02*
X49845D01*
X49805Y-17118D02*
Y-17038D01*
X55412Y-19100D02*
X55492D01*
X55452Y-19140D02*
Y-19060D01*
X54660Y-19100D02*
X54740D01*
X54700Y-19140D02*
Y-19060D01*
X56360Y-16901D02*
X56440D01*
X56400Y-16941D02*
Y-16861D01*
X53660Y-18296D02*
X53740D01*
X53700Y-18336D02*
Y-18256D01*
X53660Y-18476D02*
X53740D01*
X53700Y-18516D02*
Y-18436D01*
X54160Y-17410D02*
X54240D01*
X54200Y-17450D02*
Y-17370D01*
X54160Y-17590D02*
X54240D01*
X54200Y-17630D02*
Y-17550D01*
X51610Y-15586D02*
X51690D01*
X51650Y-15626D02*
Y-15546D01*
X51610Y-15766D02*
X51690D01*
X51650Y-15806D02*
Y-15726D01*
X55627Y-17590D02*
X55707D01*
X55667Y-17630D02*
Y-17550D01*
X55627Y-17410D02*
X55707D01*
X55667Y-17450D02*
Y-17370D01*
X56360Y-16721D02*
X56440D01*
X56400Y-16761D02*
Y-16681D01*
X56360Y-18476D02*
X56440D01*
X56400Y-18516D02*
Y-18436D01*
X56360Y-18296D02*
X56440D01*
X56400Y-18336D02*
Y-18256D01*
X43890Y-20216D02*
X44010D01*
X43950Y-20276D02*
Y-20156D01*
X23940Y22250D02*
X24060D01*
X24000Y22190D02*
Y22310D01*
X24570Y22250D02*
X24690D01*
X24630Y22190D02*
Y22310D01*
X23590Y23000D02*
X23710D01*
X23650Y22940D02*
Y23060D01*
X23590Y24556D02*
X23710D01*
X23650Y24496D02*
Y24616D01*
X34040Y-23460D02*
X34160D01*
X34100Y-23520D02*
Y-23400D01*
X33340Y-22850D02*
X33460D01*
X33400Y-22910D02*
Y-22790D01*
X32400Y-21760D02*
X32520D01*
X32460Y-21820D02*
Y-21700D01*
X31680Y-20720D02*
X31800D01*
X31740Y-20780D02*
Y-20660D01*
X30990Y-20720D02*
X31110D01*
X31050Y-20780D02*
Y-20660D01*
X30297Y-20720D02*
X30417D01*
X30357Y-20780D02*
Y-20660D01*
X29570Y-20720D02*
X29690D01*
X29630Y-20780D02*
Y-20660D01*
X26129Y-20723D02*
X26249D01*
X26189Y-20783D02*
Y-20663D01*
X28860Y-20720D02*
X28980D01*
X28920Y-20780D02*
Y-20660D01*
X28130Y-20720D02*
X28250D01*
X28190Y-20780D02*
Y-20660D01*
X26740Y-20720D02*
X26860D01*
X26800Y-20780D02*
Y-20660D01*
X18557Y-8288D02*
X18677D01*
X18617Y-8348D02*
Y-8228D01*
X27440Y-20720D02*
X27560D01*
X27500Y-20780D02*
Y-20660D01*
X25500Y-20720D02*
X25620D01*
X25560Y-20780D02*
Y-20660D01*
X24930Y-20720D02*
X25050D01*
X24990Y-20780D02*
Y-20660D01*
X16352Y-7918D02*
X16472D01*
X16412Y-7978D02*
Y-7858D01*
X16982Y-7918D02*
X17102D01*
X17042Y-7978D02*
Y-7858D01*
X16667Y-8288D02*
X16787D01*
X16727Y-8348D02*
Y-8228D01*
X20447Y-8288D02*
X20567D01*
X20507Y-8348D02*
Y-8228D01*
X22651Y-8288D02*
X22771D01*
X22711Y-8348D02*
Y-8228D01*
X24856Y-8288D02*
X24976D01*
X24916Y-8348D02*
Y-8228D01*
X26746Y-8288D02*
X26866D01*
X26806Y-8348D02*
Y-8228D01*
X26431Y-5858D02*
X26551D01*
X26491Y-5918D02*
Y-5798D01*
X24541Y-5858D02*
X24661D01*
X24601Y-5918D02*
Y-5798D01*
X23911Y-5858D02*
X24031D01*
X23971Y-5918D02*
Y-5798D01*
X22336Y-5858D02*
X22456D01*
X22396Y-5918D02*
Y-5798D01*
X21392Y-5858D02*
X21512D01*
X21452Y-5918D02*
Y-5798D01*
X20762Y-5858D02*
X20882D01*
X20822Y-5918D02*
Y-5798D01*
X21077Y-5488D02*
X21197D01*
X21137Y-5548D02*
Y-5428D01*
X20132Y-5858D02*
X20252D01*
X20192Y-5918D02*
Y-5798D01*
X20447Y-5488D02*
X20567D01*
X20507Y-5548D02*
Y-5428D01*
X19502Y-5858D02*
X19622D01*
X19562Y-5918D02*
Y-5798D01*
X19817Y-5488D02*
X19937D01*
X19877Y-5548D02*
Y-5428D01*
X18872Y-5858D02*
X18992D01*
X18932Y-5918D02*
Y-5798D01*
X19187Y-5488D02*
X19307D01*
X19247Y-5548D02*
Y-5428D01*
X18242Y-5858D02*
X18362D01*
X18302Y-5918D02*
Y-5798D01*
X18557Y-5488D02*
X18677D01*
X18617Y-5548D02*
Y-5428D01*
X17612Y-5858D02*
X17732D01*
X17672Y-5918D02*
Y-5798D01*
X17927Y-5488D02*
X18047D01*
X17987Y-5548D02*
Y-5428D01*
X16982Y-5858D02*
X17102D01*
X17042Y-5918D02*
Y-5798D01*
X16352Y-5858D02*
X16472D01*
X16412Y-5918D02*
Y-5798D01*
X16667Y-5488D02*
X16787D01*
X16727Y-5548D02*
Y-5428D01*
X15722Y-5858D02*
X15842D01*
X15782Y-5918D02*
Y-5798D01*
X16037Y-5488D02*
X16157D01*
X16097Y-5548D02*
Y-5428D01*
X20132Y7830D02*
X20252D01*
X20192Y7770D02*
Y7890D01*
X21392Y7830D02*
X21512D01*
X21452Y7770D02*
Y7890D01*
X26746Y7460D02*
X26866D01*
X26806Y7400D02*
Y7520D01*
X26116Y7460D02*
X26236D01*
X26176Y7400D02*
Y7520D01*
X25486Y7460D02*
X25606D01*
X25546Y7400D02*
Y7520D01*
X24856Y7460D02*
X24976D01*
X24916Y7400D02*
Y7520D01*
X24226Y7460D02*
X24346D01*
X24286Y7400D02*
Y7520D01*
X23596Y7460D02*
X23716D01*
X23656Y7400D02*
Y7520D01*
X22966Y7460D02*
X23086D01*
X23026Y7400D02*
Y7520D01*
X22336Y7460D02*
X22456D01*
X22396Y7400D02*
Y7520D01*
X21707Y7460D02*
X21827D01*
X21767Y7400D02*
Y7520D01*
X21077Y7460D02*
X21197D01*
X21137Y7400D02*
Y7520D01*
X20447Y7460D02*
X20567D01*
X20507Y7400D02*
Y7520D01*
X19817Y7460D02*
X19937D01*
X19877Y7400D02*
Y7520D01*
X19187Y7460D02*
X19307D01*
X19247Y7400D02*
Y7520D01*
X18557Y7460D02*
X18677D01*
X18617Y7400D02*
Y7520D01*
X17927Y7460D02*
X18047D01*
X17987Y7400D02*
Y7520D01*
X16982Y7460D02*
X17102D01*
X17042Y7400D02*
Y7520D01*
X16352Y7460D02*
X16472D01*
X16412Y7400D02*
Y7520D01*
X24226Y10260D02*
X24346D01*
X24286Y10200D02*
Y10320D01*
X20447Y10600D02*
X20567D01*
X20507Y10540D02*
Y10660D01*
X27376Y10260D02*
X27496D01*
X27436Y10200D02*
Y10320D01*
X26746Y10260D02*
X26866D01*
X26806Y10200D02*
Y10320D01*
X26116Y10260D02*
X26236D01*
X26176Y10200D02*
Y10320D01*
X25486Y10260D02*
X25606D01*
X25546Y10200D02*
Y10320D01*
X24856Y10260D02*
X24976D01*
X24916Y10200D02*
Y10320D01*
X23281Y10260D02*
X23401D01*
X23341Y10200D02*
Y10320D01*
X22651Y10260D02*
X22771D01*
X22711Y10200D02*
Y10320D01*
X22022Y10260D02*
X22141D01*
X22081Y10200D02*
Y10320D01*
X21392Y10260D02*
X21512D01*
X21452Y10200D02*
Y10320D01*
X19817Y10260D02*
X19937D01*
X19877Y10200D02*
Y10320D01*
X19187Y10260D02*
X19307D01*
X19247Y10200D02*
Y10320D01*
X18557Y10260D02*
X18677D01*
X18617Y10200D02*
Y10320D01*
X17927Y10260D02*
X18047D01*
X17987Y10200D02*
Y10320D01*
X43140Y-1900D02*
X43260D01*
X43200Y-1960D02*
Y-1840D01*
X48225Y24666D02*
X48345D01*
X48285Y24606D02*
Y24726D01*
X43490Y22600D02*
X43610D01*
X43550Y22540D02*
Y22660D01*
X43040Y22600D02*
X43160D01*
X43100Y22540D02*
Y22660D01*
X43040Y21016D02*
X43160D01*
X43100Y20956D02*
Y21076D01*
X43490Y20766D02*
X43610D01*
X43550Y20706D02*
Y20826D01*
X43890Y20516D02*
X44010D01*
X43950Y20456D02*
Y20576D01*
X42590Y21350D02*
X42710D01*
X42650Y21290D02*
Y21410D01*
X42590Y22050D02*
X42710D01*
X42650Y21990D02*
Y22110D01*
X48225Y17666D02*
X48345D01*
X48285Y17606D02*
Y17726D01*
X43490Y15600D02*
X43610D01*
X43550Y15540D02*
Y15660D01*
X43040Y15600D02*
X43160D01*
X43100Y15540D02*
Y15660D01*
X43040Y14016D02*
X43160D01*
X43100Y13956D02*
Y14076D01*
X43490Y13766D02*
X43610D01*
X43550Y13706D02*
Y13826D01*
X43890Y13516D02*
X44010D01*
X43950Y13456D02*
Y13576D01*
X42590Y14350D02*
X42710D01*
X42650Y14290D02*
Y14410D01*
X42590Y15050D02*
X42710D01*
X42650Y14990D02*
Y15110D01*
X42590Y8050D02*
X42710D01*
X42650Y7990D02*
Y8110D01*
X42590Y7350D02*
X42710D01*
X42650Y7290D02*
Y7410D01*
X43890Y6516D02*
X44010D01*
X43950Y6456D02*
Y6576D01*
X43490Y6766D02*
X43610D01*
X43550Y6706D02*
Y6826D01*
X43040Y7016D02*
X43160D01*
X43100Y6956D02*
Y7076D01*
X43040Y8600D02*
X43160D01*
X43100Y8540D02*
Y8660D01*
X43490Y8600D02*
X43610D01*
X43550Y8540D02*
Y8660D01*
X48225Y10666D02*
X48345D01*
X48285Y10606D02*
Y10726D01*
X43140Y-15680D02*
X43260D01*
X43200Y-15740D02*
Y-15620D01*
X43890Y-15380D02*
X44010D01*
X43950Y-15440D02*
Y-15320D01*
X45125Y-17369D02*
X45245D01*
X45185Y-17429D02*
Y-17309D01*
X48225Y3666D02*
X48345D01*
X48285Y3606D02*
Y3726D01*
X45090Y3666D02*
X45210D01*
X45150Y3606D02*
Y3726D01*
X43890Y784D02*
X44010D01*
X43950Y724D02*
Y844D01*
X43140Y1040D02*
X43260D01*
X43200Y980D02*
Y1100D01*
X43140Y5100D02*
X43260D01*
X43200Y5040D02*
Y5160D01*
X43890Y5500D02*
X44010D01*
X43950Y5440D02*
Y5560D01*
X48225Y-3334D02*
X48345D01*
X48285Y-3394D02*
Y-3274D01*
X45090Y-3334D02*
X45210D01*
X45150Y-3394D02*
Y-3274D01*
X43890Y-6216D02*
X44010D01*
X43950Y-6276D02*
Y-6156D01*
X43140Y-5960D02*
X43260D01*
X43200Y-6020D02*
Y-5900D01*
X43890Y-1500D02*
X44010D01*
X43950Y-1560D02*
Y-1440D01*
X48225Y-10334D02*
X48345D01*
X48285Y-10394D02*
Y-10274D01*
X45090Y-10334D02*
X45210D01*
X45150Y-10394D02*
Y-10274D01*
X43890Y-13216D02*
X44010D01*
X43950Y-13276D02*
Y-13156D01*
X43140Y-12960D02*
X43260D01*
X43200Y-13020D02*
Y-12900D01*
X43140Y-8900D02*
X43260D01*
X43200Y-8960D02*
Y-8840D01*
X43890Y-8500D02*
X44010D01*
X43950Y-8560D02*
Y-8440D01*
X48225Y-17334D02*
X48345D01*
X48285Y-17394D02*
Y-17274D01*
X43140Y-19960D02*
X43260D01*
X43200Y-20020D02*
Y-19900D01*
X43890Y-22500D02*
X44010D01*
X43950Y-22560D02*
Y-22440D01*
X43140Y-22900D02*
X43260D01*
X43200Y-22960D02*
Y-22840D01*
X43140Y-26960D02*
X43260D01*
X43200Y-27020D02*
Y-26900D01*
X43890Y-27216D02*
X44010D01*
X43950Y-27276D02*
Y-27156D01*
X45090Y-24334D02*
X45210D01*
X45150Y-24394D02*
Y-24274D01*
X48225Y-24334D02*
X48345D01*
X48285Y-24394D02*
Y-24274D01*
M02*
