G04*
G04 #@! TF.GenerationSoftware,Altium Limited,Altium Designer,25.8.1 (18)*
G04*
G04 Layer_Physical_Order=3*
G04 Layer_Color=128*
%FSLAX24Y24*%
%MOIN*%
G70*
G04*
G04 #@! TF.SameCoordinates,0559D858-52EB-4A24-BF16-3A32F8B75DB2*
G04*
G04*
G04 #@! TF.FilePolarity,Negative*
G04*
G01*
G75*
%ADD63C,0.0400*%
%ADD64C,0.0489*%
G04:AMPARAMS|DCode=66|XSize=72.567mil|YSize=72.567mil|CornerRadius=0mil|HoleSize=0mil|Usage=FLASHONLY|Rotation=0.000|XOffset=0mil|YOffset=0mil|HoleType=Round|Shape=Relief|Width=4mil|Gap=4mil|Entries=4|*
%AMTHD66*
7,0,0,0.0726,0.0646,0.0040,45*
%
%ADD66THD66*%
%ADD69C,0.0346*%
%ADD70O,0.0424X0.0552*%
%ADD71R,0.0710X0.0474*%
%ADD72R,0.0474X0.0710*%
%ADD73C,0.0480*%
%ADD74C,0.0482*%
%ADD75C,0.1064*%
%ADD76C,0.0160*%
%ADD77C,0.0200*%
%ADD78O,0.0533X0.0297*%
D63*
X0Y-32550D02*
X59800D01*
Y32550D01*
X0D02*
X59800D01*
X0Y-32550D02*
Y32550D01*
D64*
X24000Y18000D02*
D03*
X6000Y17000D02*
D03*
X24000Y-20000D02*
D03*
X23000Y-21000D02*
D03*
X24000D02*
D03*
X23000Y-20000D02*
D03*
X20000Y-29000D02*
D03*
X23000D02*
D03*
X24000D02*
D03*
X21000D02*
D03*
X22000D02*
D03*
X5000D02*
D03*
Y-30000D02*
D03*
X6000Y-29000D02*
D03*
Y-30000D02*
D03*
X7000Y-29000D02*
D03*
Y-30000D02*
D03*
X8000Y-29000D02*
D03*
Y-30000D02*
D03*
X9000Y-29000D02*
D03*
Y-30000D02*
D03*
X10000Y-29000D02*
D03*
Y-30000D02*
D03*
X11000Y-29000D02*
D03*
Y-30000D02*
D03*
X12000Y-29000D02*
D03*
Y-30000D02*
D03*
X13000Y-29000D02*
D03*
Y-30000D02*
D03*
X14000Y-29000D02*
D03*
Y-30000D02*
D03*
X15000Y-29000D02*
D03*
Y-30000D02*
D03*
X16000Y-29000D02*
D03*
Y-30000D02*
D03*
X17000Y-29000D02*
D03*
Y-30000D02*
D03*
X18000Y-29000D02*
D03*
Y-30000D02*
D03*
X19000Y-29000D02*
D03*
Y-30000D02*
D03*
X5000Y-20000D02*
D03*
Y-21000D02*
D03*
X6000Y-20000D02*
D03*
Y-21000D02*
D03*
X7000Y-20000D02*
D03*
Y-21000D02*
D03*
X8000Y-20000D02*
D03*
Y-21000D02*
D03*
X9000Y-20000D02*
D03*
Y-21000D02*
D03*
X10000Y-20000D02*
D03*
Y-21000D02*
D03*
X11000Y-20000D02*
D03*
Y-21000D02*
D03*
X12000Y-20000D02*
D03*
Y-21000D02*
D03*
X13000Y-20000D02*
D03*
Y-21000D02*
D03*
X14000Y-20000D02*
D03*
Y-21000D02*
D03*
X15000Y-20000D02*
D03*
Y-21000D02*
D03*
X16000Y-20000D02*
D03*
Y-21000D02*
D03*
X17000Y-20000D02*
D03*
Y-21000D02*
D03*
X18000Y-20000D02*
D03*
Y-21000D02*
D03*
X19000Y-20000D02*
D03*
Y-21000D02*
D03*
X20000Y-20000D02*
D03*
Y-21000D02*
D03*
X21000Y-20000D02*
D03*
Y-21000D02*
D03*
X22000Y-20000D02*
D03*
Y-21000D02*
D03*
X5000Y18000D02*
D03*
Y17000D02*
D03*
X6000Y18000D02*
D03*
X7000Y17000D02*
D03*
X9000Y18000D02*
D03*
Y17000D02*
D03*
X10000Y18000D02*
D03*
Y17000D02*
D03*
X11000Y18000D02*
D03*
Y17000D02*
D03*
X12000Y18000D02*
D03*
Y17000D02*
D03*
X13000Y18000D02*
D03*
Y17000D02*
D03*
X14000Y18000D02*
D03*
Y17000D02*
D03*
X15000Y18000D02*
D03*
Y17000D02*
D03*
X16000Y18000D02*
D03*
Y17000D02*
D03*
X17000Y18000D02*
D03*
Y17000D02*
D03*
X18000Y18000D02*
D03*
Y17000D02*
D03*
X19000Y18000D02*
D03*
Y17000D02*
D03*
X20000Y18000D02*
D03*
Y17000D02*
D03*
X21000Y18000D02*
D03*
Y17000D02*
D03*
X22000Y18000D02*
D03*
Y17000D02*
D03*
X23000Y18000D02*
D03*
Y17000D02*
D03*
X24000D02*
D03*
D66*
X7000Y18000D02*
D03*
X8000D02*
D03*
Y17000D02*
D03*
X20000Y-30000D02*
D03*
X23000D02*
D03*
X24000D02*
D03*
X21000D02*
D03*
X22000D02*
D03*
D69*
X56332Y23083D02*
D03*
Y16083D02*
D03*
Y9083D02*
D03*
Y2083D02*
D03*
Y-4917D02*
D03*
Y-11917D02*
D03*
Y-18917D02*
D03*
Y-25917D02*
D03*
D70*
X56331Y25917D02*
D03*
Y18917D02*
D03*
Y11917D02*
D03*
Y4917D02*
D03*
Y-2083D02*
D03*
Y-9083D02*
D03*
Y-16083D02*
D03*
Y-23083D02*
D03*
D71*
X4378Y22650D02*
D03*
D72*
X3197Y24500D02*
D03*
X5559D02*
D03*
D73*
X14822Y-7075D02*
D03*
X28396D02*
D03*
X14822Y8673D02*
D03*
X28396D02*
D03*
D74*
X40350Y-26940D02*
D03*
Y-28940D02*
D03*
Y-27940D02*
D03*
D75*
X57300Y30050D02*
D03*
X2500D02*
D03*
X3300Y8661D02*
D03*
X30465D02*
D03*
Y-8661D02*
D03*
X3300D02*
D03*
X57300Y-29950D02*
D03*
X2500D02*
D03*
D76*
X43516Y-26328D02*
D03*
Y-25988D02*
D03*
Y-25648D02*
D03*
Y-25308D02*
D03*
Y-24968D02*
D03*
X43634Y-24649D02*
D03*
X52586Y-24315D02*
D03*
X52827Y-24555D02*
D03*
X53069Y-24794D02*
D03*
X53402Y-24863D02*
D03*
X53056Y-25023D02*
D03*
X52716D02*
D03*
X52376D02*
D03*
X52036D02*
D03*
X51959Y-24396D02*
D03*
X51988Y-24057D02*
D03*
X52328D02*
D03*
X54913Y-23977D02*
D03*
X54613Y-24137D02*
D03*
X54279Y-24077D02*
D03*
X53944Y-24137D02*
D03*
X53604D02*
D03*
X53294Y-23997D02*
D03*
X36424Y-23882D02*
D03*
X36764D02*
D03*
X37104D02*
D03*
X37444D02*
D03*
X37784D02*
D03*
X38124D02*
D03*
X38464D02*
D03*
X38804D02*
D03*
X39144D02*
D03*
X39484D02*
D03*
X39824D02*
D03*
X40164D02*
D03*
X40504D02*
D03*
X40844D02*
D03*
X41184D02*
D03*
X41524D02*
D03*
X41864D02*
D03*
X42204D02*
D03*
X42544D02*
D03*
X42884D02*
D03*
X43516Y-19524D02*
D03*
Y-19184D02*
D03*
Y-18844D02*
D03*
Y-18504D02*
D03*
Y-18164D02*
D03*
Y-17824D02*
D03*
Y-17484D02*
D03*
X43634Y-17166D02*
D03*
X52586Y-17315D02*
D03*
X52827Y-17555D02*
D03*
X53069Y-17794D02*
D03*
X53402Y-17863D02*
D03*
X53056Y-18023D02*
D03*
X52716D02*
D03*
X52376D02*
D03*
X52036D02*
D03*
X51959Y-17396D02*
D03*
X51988Y-17057D02*
D03*
X52328D02*
D03*
X54913Y-16977D02*
D03*
X54613Y-17137D02*
D03*
X54279Y-17077D02*
D03*
X53944Y-17137D02*
D03*
X53604D02*
D03*
X53294Y-16997D02*
D03*
X43516Y-12328D02*
D03*
Y-11988D02*
D03*
Y-11648D02*
D03*
Y-11308D02*
D03*
Y-10968D02*
D03*
X43634Y-10649D02*
D03*
X52586Y-10315D02*
D03*
X52827Y-10555D02*
D03*
X53069Y-10794D02*
D03*
X53402Y-10863D02*
D03*
X53056Y-11023D02*
D03*
X52716D02*
D03*
X52376D02*
D03*
X52036D02*
D03*
X51959Y-10396D02*
D03*
X51988Y-10057D02*
D03*
X52328D02*
D03*
X54913Y-9977D02*
D03*
X54613Y-10137D02*
D03*
X54279Y-10077D02*
D03*
X53944Y-10137D02*
D03*
X53604D02*
D03*
X53294Y-9997D02*
D03*
X43516Y-5371D02*
D03*
Y-5031D02*
D03*
X43634Y-4712D02*
D03*
X52586Y-3315D02*
D03*
X52827Y-3555D02*
D03*
X53069Y-3794D02*
D03*
X53402Y-3863D02*
D03*
X53056Y-4023D02*
D03*
X52716D02*
D03*
X52376D02*
D03*
X52036D02*
D03*
X51959Y-3396D02*
D03*
X51988Y-3057D02*
D03*
X52328D02*
D03*
X54913Y-2977D02*
D03*
X54613Y-3137D02*
D03*
X54279Y-3077D02*
D03*
X53944Y-3137D02*
D03*
X53604D02*
D03*
X53294Y-2997D02*
D03*
X43516Y-2814D02*
D03*
Y-2474D02*
D03*
Y-2134D02*
D03*
X43634Y-1816D02*
D03*
X43516Y1672D02*
D03*
Y2012D02*
D03*
Y2352D02*
D03*
Y2692D02*
D03*
Y3032D02*
D03*
X43634Y3351D02*
D03*
X52586Y3685D02*
D03*
X52827Y3445D02*
D03*
X53069Y3206D02*
D03*
X53402Y3137D02*
D03*
X53056Y2977D02*
D03*
X52716D02*
D03*
X52376D02*
D03*
X52036D02*
D03*
X51959Y3604D02*
D03*
X51988Y3943D02*
D03*
X52328D02*
D03*
X54913Y4023D02*
D03*
X54613Y3863D02*
D03*
X54279Y3923D02*
D03*
X53944Y3863D02*
D03*
X53604D02*
D03*
X53294Y4003D02*
D03*
X52586Y10685D02*
D03*
X52827Y10445D02*
D03*
X53069Y10206D02*
D03*
X53402Y10137D02*
D03*
X53056Y9977D02*
D03*
X52716D02*
D03*
X52376D02*
D03*
X52036D02*
D03*
X51959Y10604D02*
D03*
X51988Y10943D02*
D03*
X52328D02*
D03*
X54913Y11023D02*
D03*
X54613Y10863D02*
D03*
X54279Y10923D02*
D03*
X53944Y10863D02*
D03*
X53604D02*
D03*
X53294Y11003D02*
D03*
X40587Y12791D02*
D03*
X40828Y13031D02*
D03*
X41068Y13272D02*
D03*
X41309Y13512D02*
D03*
X41549Y13753D02*
D03*
X41789Y13993D02*
D03*
X42030Y14234D02*
D03*
X42276Y14468D02*
D03*
X37943Y17146D02*
D03*
X38183Y17387D02*
D03*
X38424Y17627D02*
D03*
X38664Y17868D02*
D03*
X38904Y18108D02*
D03*
X39145Y18349D02*
D03*
X39385Y18589D02*
D03*
X39626Y18829D02*
D03*
X39866Y19070D02*
D03*
X40107Y19310D02*
D03*
X40347Y19551D02*
D03*
X40587Y19791D02*
D03*
X40828Y20031D02*
D03*
X41068Y20272D02*
D03*
X41309Y20512D02*
D03*
X41549Y20753D02*
D03*
X41789Y20993D02*
D03*
X42030Y21234D02*
D03*
X42276Y21468D02*
D03*
X52586Y17685D02*
D03*
X52827Y17445D02*
D03*
X53069Y17206D02*
D03*
X53402Y17137D02*
D03*
X53056Y16977D02*
D03*
X52716D02*
D03*
X52376D02*
D03*
X52036D02*
D03*
X51959Y17604D02*
D03*
X51988Y17943D02*
D03*
X52328D02*
D03*
X54913Y18023D02*
D03*
X54613Y17863D02*
D03*
X54279Y17923D02*
D03*
X53944Y17863D02*
D03*
X53604D02*
D03*
X53294Y18003D02*
D03*
X52586Y24685D02*
D03*
X52827Y24445D02*
D03*
X53069Y24206D02*
D03*
X53402Y24137D02*
D03*
X53056Y23977D02*
D03*
X52716D02*
D03*
X52376D02*
D03*
X52036D02*
D03*
X51959Y24604D02*
D03*
X51988Y24943D02*
D03*
X52328D02*
D03*
X54913Y25023D02*
D03*
X54613Y24863D02*
D03*
X54279Y24923D02*
D03*
X53944Y24863D02*
D03*
X53604D02*
D03*
X53294Y25003D02*
D03*
X48369Y26005D02*
D03*
X48029D02*
D03*
X47689D02*
D03*
X47349D02*
D03*
X47009D02*
D03*
X46669D02*
D03*
X46329D02*
D03*
X45989D02*
D03*
X45649D02*
D03*
X45309D02*
D03*
X44982Y25911D02*
D03*
X44742Y25671D02*
D03*
X44501Y25430D02*
D03*
X44261Y25190D02*
D03*
X44020Y24949D02*
D03*
X43780Y24709D02*
D03*
X43539Y24469D02*
D03*
X43299Y24228D02*
D03*
X43059Y23988D02*
D03*
X42829Y23737D02*
D03*
X42784Y23400D02*
D03*
Y23060D02*
D03*
X42727Y22725D02*
D03*
X42556Y22431D02*
D03*
X42292Y22217D02*
D03*
X41990Y22061D02*
D03*
X41737Y21834D02*
D03*
X41497Y21593D02*
D03*
X41256Y21353D02*
D03*
X41016Y21112D02*
D03*
X40776Y20872D02*
D03*
X40535Y20632D02*
D03*
X40295Y20391D02*
D03*
X40054Y20151D02*
D03*
X39814Y19910D02*
D03*
X39574Y19670D02*
D03*
X39333Y19430D02*
D03*
X39093Y19189D02*
D03*
X38852Y18949D02*
D03*
X38612Y18708D02*
D03*
X38371Y18468D02*
D03*
X38131Y18227D02*
D03*
X37891Y17987D02*
D03*
X37650Y17747D02*
D03*
X37410Y17506D02*
D03*
X37190Y17247D02*
D03*
X37164Y16908D02*
D03*
Y16568D02*
D03*
Y16228D02*
D03*
Y15888D02*
D03*
Y15548D02*
D03*
Y15208D02*
D03*
Y14868D02*
D03*
Y14528D02*
D03*
Y14188D02*
D03*
Y13848D02*
D03*
Y13508D02*
D03*
Y13168D02*
D03*
Y12828D02*
D03*
Y12488D02*
D03*
Y12148D02*
D03*
X36943Y11889D02*
D03*
X36703Y11649D02*
D03*
X36462Y11409D02*
D03*
X36222Y11168D02*
D03*
X35981Y10928D02*
D03*
X35741Y10687D02*
D03*
X35501Y10447D02*
D03*
X35260Y10207D02*
D03*
X35020Y9966D02*
D03*
X34779Y9726D02*
D03*
X34539Y9485D02*
D03*
X34299Y9245D02*
D03*
X34058Y9004D02*
D03*
X33818Y8764D02*
D03*
X33577Y8524D02*
D03*
X33337Y8283D02*
D03*
X33096Y8043D02*
D03*
X32856Y7802D02*
D03*
X32616Y7562D02*
D03*
X32375Y7322D02*
D03*
X32135Y7081D02*
D03*
X31894Y6841D02*
D03*
X31654Y6600D02*
D03*
X31414Y6360D02*
D03*
X31173Y6119D02*
D03*
X30933Y5879D02*
D03*
X30692Y5639D02*
D03*
X30452Y5398D02*
D03*
X30211Y5158D02*
D03*
X29971Y4917D02*
D03*
X29731Y4677D02*
D03*
X29490Y4437D02*
D03*
X29250Y4196D02*
D03*
X29009Y3956D02*
D03*
X28769Y3715D02*
D03*
X28529Y3475D02*
D03*
X28288Y3234D02*
D03*
X28048Y2994D02*
D03*
X27807Y2754D02*
D03*
X27567Y2513D02*
D03*
X27326Y2273D02*
D03*
X27086Y2032D02*
D03*
X26846Y1792D02*
D03*
X26605Y1552D02*
D03*
X26365Y1311D02*
D03*
X26124Y1071D02*
D03*
X25884Y830D02*
D03*
X25644Y590D02*
D03*
X25403Y349D02*
D03*
X25065Y316D02*
D03*
X24740Y216D02*
D03*
X24499Y-24D02*
D03*
X24259Y-265D02*
D03*
X24018Y-505D02*
D03*
X23778Y-746D02*
D03*
X23538Y-986D02*
D03*
X23297Y-1226D02*
D03*
X23057Y-1467D02*
D03*
X22816Y-1707D02*
D03*
X22576Y-1948D02*
D03*
X22336Y-2188D02*
D03*
X22095Y-2429D02*
D03*
X21855Y-2669D02*
D03*
X21614Y-2909D02*
D03*
X21451Y-3208D02*
D03*
Y-3548D02*
D03*
Y-3888D02*
D03*
Y-4228D02*
D03*
Y-4568D02*
D03*
Y-5248D02*
D03*
Y-5588D02*
D03*
X22638Y-7216D02*
D03*
X23318D02*
D03*
X23658D02*
D03*
X23979Y-7104D02*
D03*
X24958Y-7216D02*
D03*
X25298D02*
D03*
X25638Y-7215D02*
D03*
X25978Y-7212D02*
D03*
X26318Y-7209D02*
D03*
X26658Y-7208D02*
D03*
X26998Y-7211D02*
D03*
X27338Y-7215D02*
D03*
X27678Y-7216D02*
D03*
X28012Y-7152D02*
D03*
X28982Y-6975D02*
D03*
X29322D02*
D03*
X29662D02*
D03*
X30002D02*
D03*
X30342D02*
D03*
X30682D02*
D03*
X31022D02*
D03*
X31362D02*
D03*
X31702D02*
D03*
X32042D02*
D03*
X32382D02*
D03*
X32722D02*
D03*
X33062D02*
D03*
X33402D02*
D03*
X33742D02*
D03*
X34082D02*
D03*
X34422D02*
D03*
X34762D02*
D03*
X35055Y-7149D02*
D03*
X34814Y-7389D02*
D03*
X34574Y-7630D02*
D03*
X34333Y-7870D02*
D03*
X34093Y-8111D02*
D03*
X33853Y-8351D02*
D03*
X33612Y-8592D02*
D03*
X33372Y-8832D02*
D03*
X33131Y-9072D02*
D03*
X32891Y-9313D02*
D03*
X32650Y-9553D02*
D03*
X32410Y-9794D02*
D03*
X32170Y-10034D02*
D03*
X31929Y-10274D02*
D03*
X31662Y-10484D02*
D03*
X31322D02*
D03*
X30982D02*
D03*
X30642D02*
D03*
X30302D02*
D03*
X29962D02*
D03*
X29622D02*
D03*
X29282D02*
D03*
X26210Y-8534D02*
D03*
X25870D02*
D03*
X25530D02*
D03*
X20821Y-10026D02*
D03*
X20507Y-9715D02*
D03*
X17356Y-9830D02*
D03*
Y-10170D02*
D03*
Y-10510D02*
D03*
Y-11530D02*
D03*
X17488Y-12184D02*
D03*
X17728Y-12424D02*
D03*
X17969Y-12665D02*
D03*
X18209Y-12905D02*
D03*
X18449Y-13146D02*
D03*
X18690Y-13386D02*
D03*
X18930Y-13627D02*
D03*
X19171Y-13867D02*
D03*
X19411Y-14107D02*
D03*
X19651Y-14348D02*
D03*
X19892Y-14588D02*
D03*
X20132Y-14829D02*
D03*
X20373Y-15069D02*
D03*
X20613Y-15309D02*
D03*
X20854Y-15550D02*
D03*
X21094Y-15790D02*
D03*
X21334Y-16031D02*
D03*
X21575Y-16271D02*
D03*
X21815Y-16512D02*
D03*
X22056Y-16752D02*
D03*
X22296Y-16992D02*
D03*
X22536Y-17233D02*
D03*
X23017Y-17714D02*
D03*
X23739Y-18435D02*
D03*
X24219Y-18916D02*
D03*
X31577Y-20124D02*
D03*
X32299Y-20845D02*
D03*
X33020Y-21566D02*
D03*
X34703Y-23249D02*
D03*
X34943Y-23490D02*
D03*
X35184Y-23730D02*
D03*
X35424Y-23970D02*
D03*
X35664Y-24211D02*
D03*
X35905Y-24451D02*
D03*
X36185Y-24644D02*
D03*
X36525Y-24649D02*
D03*
X36865D02*
D03*
X37205D02*
D03*
X37545D02*
D03*
X37885D02*
D03*
X38225D02*
D03*
X38565D02*
D03*
X38905D02*
D03*
X39245D02*
D03*
X39585D02*
D03*
X39925D02*
D03*
X40265D02*
D03*
X40605D02*
D03*
X40945D02*
D03*
X41285D02*
D03*
X41625D02*
D03*
X41965D02*
D03*
X42305D02*
D03*
X42645D02*
D03*
X42884Y-24891D02*
D03*
Y-25231D02*
D03*
Y-25571D02*
D03*
Y-25911D02*
D03*
Y-26251D02*
D03*
Y-26591D02*
D03*
X42810Y-26923D02*
D03*
X42926Y-27242D02*
D03*
X43248Y-27350D02*
D03*
X43588Y-27369D02*
D03*
X43843Y-27594D02*
D03*
X44178Y-27536D02*
D03*
X44518Y-27532D02*
D03*
X44858D02*
D03*
X45198D02*
D03*
X45538D02*
D03*
X45878D02*
D03*
X46898D02*
D03*
X47918D02*
D03*
X48258D02*
D03*
X48598D02*
D03*
X49676Y-27156D02*
D03*
X49669Y-26816D02*
D03*
X47708Y-26645D02*
D03*
X47368D02*
D03*
X47028D02*
D03*
X46688D02*
D03*
X46348D02*
D03*
X46008D02*
D03*
X45668D02*
D03*
X45328D02*
D03*
X44988D02*
D03*
X44648D02*
D03*
X44308D02*
D03*
X44266Y-26307D02*
D03*
Y-25967D02*
D03*
Y-25627D02*
D03*
Y-25287D02*
D03*
Y-24947D02*
D03*
X44430Y-24649D02*
D03*
X44770D02*
D03*
X45101Y-24724D02*
D03*
X45433Y-24649D02*
D03*
X45773D02*
D03*
X46793D02*
D03*
X47813D02*
D03*
X48149Y-24704D02*
D03*
X48487Y-24671D02*
D03*
X49676Y-24378D02*
D03*
X48583Y-24018D02*
D03*
X47919D02*
D03*
X44564Y-23882D02*
D03*
X44904D02*
D03*
X45244D02*
D03*
X49635Y-23797D02*
D03*
X49673Y-23459D02*
D03*
X48681Y-22984D02*
D03*
X48341Y-22995D02*
D03*
X48001D02*
D03*
X47661D02*
D03*
X47321D02*
D03*
X46981D02*
D03*
X46641D02*
D03*
X46301D02*
D03*
X45961D02*
D03*
X45621D02*
D03*
X45281D02*
D03*
X44941D02*
D03*
X44601D02*
D03*
X44266Y-22939D02*
D03*
X44328Y-22605D02*
D03*
X44269Y-22271D02*
D03*
X43971Y-22106D02*
D03*
X43640Y-22184D02*
D03*
X43300D02*
D03*
X42960D02*
D03*
X42620D02*
D03*
X42280D02*
D03*
X41940D02*
D03*
X41600D02*
D03*
X41260D02*
D03*
X40920D02*
D03*
X40580D02*
D03*
X40240D02*
D03*
X39900D02*
D03*
X39560D02*
D03*
X39220D02*
D03*
X38880D02*
D03*
X38540D02*
D03*
X38200D02*
D03*
X37860D02*
D03*
X37520D02*
D03*
X37180D02*
D03*
X36840D02*
D03*
X36500D02*
D03*
X36166Y-22120D02*
D03*
X35926Y-21879D02*
D03*
X35685Y-21639D02*
D03*
X35445Y-21398D02*
D03*
X35204Y-21158D02*
D03*
X34964Y-20918D02*
D03*
X34724Y-20677D02*
D03*
X33041Y-18994D02*
D03*
X29648Y-17284D02*
D03*
X28628D02*
D03*
X30009Y-17166D02*
D03*
X33069D02*
D03*
X33409D02*
D03*
X34769D02*
D03*
X35109D02*
D03*
X35449D02*
D03*
X35789D02*
D03*
X36129D02*
D03*
X36469D02*
D03*
X36809D02*
D03*
X37149D02*
D03*
X37489D02*
D03*
X37829D02*
D03*
X38169D02*
D03*
X38509D02*
D03*
X38849D02*
D03*
X39189D02*
D03*
X39529D02*
D03*
X39869D02*
D03*
X40209D02*
D03*
X40549D02*
D03*
X40889D02*
D03*
X41229D02*
D03*
X41569D02*
D03*
X41909D02*
D03*
X42249D02*
D03*
X42589D02*
D03*
X42884Y-17335D02*
D03*
Y-17675D02*
D03*
Y-18015D02*
D03*
Y-18355D02*
D03*
Y-18695D02*
D03*
Y-19035D02*
D03*
Y-19375D02*
D03*
Y-19715D02*
D03*
X42817Y-20048D02*
D03*
X43028Y-20315D02*
D03*
X43368Y-20317D02*
D03*
X43663Y-20486D02*
D03*
X43981Y-20608D02*
D03*
X44312Y-20532D02*
D03*
X44652D02*
D03*
X44992D02*
D03*
X45332D02*
D03*
X46692D02*
D03*
X47032D02*
D03*
X48052D02*
D03*
X48392D02*
D03*
X49676Y-20016D02*
D03*
X49600Y-19684D02*
D03*
X47574Y-19645D02*
D03*
X47234D02*
D03*
X46894D02*
D03*
X46554D02*
D03*
X46214D02*
D03*
X45874D02*
D03*
X45534D02*
D03*
X45194D02*
D03*
X44854D02*
D03*
X44514D02*
D03*
X44266Y-19412D02*
D03*
Y-19072D02*
D03*
Y-18732D02*
D03*
Y-18392D02*
D03*
Y-18052D02*
D03*
Y-17712D02*
D03*
Y-17372D02*
D03*
X44536Y-17167D02*
D03*
X44777Y-17407D02*
D03*
X44962Y-17692D02*
D03*
X45298Y-17745D02*
D03*
X45629Y-17667D02*
D03*
X46649D02*
D03*
X46989D02*
D03*
X48009D02*
D03*
X48679Y-17659D02*
D03*
X49653Y-17527D02*
D03*
X48052Y-17018D02*
D03*
X45370Y-16882D02*
D03*
X49674Y-16668D02*
D03*
X49676Y-16328D02*
D03*
X48554Y-15995D02*
D03*
X48214D02*
D03*
X47874D02*
D03*
X47534D02*
D03*
X47194D02*
D03*
X46854D02*
D03*
X46514D02*
D03*
X46174D02*
D03*
X45834D02*
D03*
X45494D02*
D03*
X45154D02*
D03*
X44814D02*
D03*
X44474D02*
D03*
X44266Y-15726D02*
D03*
X44344Y-15395D02*
D03*
X44208Y-15083D02*
D03*
X43880Y-14994D02*
D03*
X43547Y-15064D02*
D03*
X43207D02*
D03*
X42867D02*
D03*
X42527D02*
D03*
X42187D02*
D03*
X41847D02*
D03*
X41507D02*
D03*
X41167D02*
D03*
X40827D02*
D03*
X40487D02*
D03*
X40147D02*
D03*
X39807D02*
D03*
X39467D02*
D03*
X39127D02*
D03*
X38787D02*
D03*
X38462Y-14964D02*
D03*
X38703Y-14724D02*
D03*
X38943Y-14484D02*
D03*
X39184Y-14243D02*
D03*
X39424Y-14003D02*
D03*
X39664Y-13762D02*
D03*
X39905Y-13522D02*
D03*
X40145Y-13282D02*
D03*
X40386Y-13041D02*
D03*
X40626Y-12801D02*
D03*
X40867Y-12560D02*
D03*
X41107Y-12320D02*
D03*
X41347Y-12079D02*
D03*
X41588Y-11839D02*
D03*
X41828Y-11599D02*
D03*
X42069Y-11358D02*
D03*
X42309Y-11118D02*
D03*
X42549Y-10877D02*
D03*
X42884Y-10819D02*
D03*
Y-11159D02*
D03*
Y-11499D02*
D03*
Y-11839D02*
D03*
Y-12179D02*
D03*
Y-12519D02*
D03*
X42822Y-12853D02*
D03*
X42880Y-13188D02*
D03*
X43178Y-13353D02*
D03*
X43509Y-13276D02*
D03*
X43725Y-13538D02*
D03*
X44061Y-13593D02*
D03*
X44395Y-13532D02*
D03*
X44735D02*
D03*
X45075D02*
D03*
X45415D02*
D03*
X45755D02*
D03*
X46775D02*
D03*
X48135D02*
D03*
X48475D02*
D03*
X49676Y-13274D02*
D03*
Y-12934D02*
D03*
X47829Y-12645D02*
D03*
X47489D02*
D03*
X47149D02*
D03*
X46809D02*
D03*
X46469D02*
D03*
X46129D02*
D03*
X45789D02*
D03*
X45449D02*
D03*
X45109D02*
D03*
X44769D02*
D03*
X44429D02*
D03*
X44266Y-12347D02*
D03*
Y-12007D02*
D03*
Y-11667D02*
D03*
Y-11327D02*
D03*
Y-10987D02*
D03*
X44310Y-10649D02*
D03*
X44650D02*
D03*
X44987Y-10693D02*
D03*
X45327Y-10685D02*
D03*
X45665Y-10649D02*
D03*
X46685D02*
D03*
X47025D02*
D03*
X48045D02*
D03*
X49667Y-10490D02*
D03*
X48020Y-10018D02*
D03*
X44314Y-9882D02*
D03*
X44654D02*
D03*
X44994D02*
D03*
X45334D02*
D03*
X49669Y-9704D02*
D03*
X49676Y-9364D02*
D03*
X48592Y-8995D02*
D03*
X48252D02*
D03*
X47912D02*
D03*
X47572D02*
D03*
X47232D02*
D03*
X46892D02*
D03*
X46552D02*
D03*
X46212D02*
D03*
X45872D02*
D03*
X45532D02*
D03*
X45192D02*
D03*
X44852D02*
D03*
X44512D02*
D03*
X44266Y-8761D02*
D03*
X44336Y-8428D02*
D03*
X44135Y-8154D02*
D03*
X43795Y-8139D02*
D03*
X43458Y-8184D02*
D03*
X43118D02*
D03*
X42778D02*
D03*
X42438Y-8193D02*
D03*
X42162Y-8391D02*
D03*
X41922Y-8632D02*
D03*
X41681Y-8872D02*
D03*
X41441Y-9113D02*
D03*
X41201Y-9353D02*
D03*
X40960Y-9593D02*
D03*
X40720Y-9834D02*
D03*
X40479Y-10074D02*
D03*
X40239Y-10315D02*
D03*
X39999Y-10555D02*
D03*
X39758Y-10796D02*
D03*
X39518Y-11036D02*
D03*
X39277Y-11276D02*
D03*
X39037Y-11517D02*
D03*
X38796Y-11757D02*
D03*
X38556Y-11998D02*
D03*
X38316Y-12238D02*
D03*
X38075Y-12478D02*
D03*
X37835Y-12719D02*
D03*
X37594Y-12959D02*
D03*
X37354Y-13200D02*
D03*
X37098Y-13423D02*
D03*
X36758D02*
D03*
X36418D02*
D03*
X36078D02*
D03*
X35738D02*
D03*
X35398D02*
D03*
X35120Y-13226D02*
D03*
X35361Y-12985D02*
D03*
X35601Y-12745D02*
D03*
X35842Y-12505D02*
D03*
X36082Y-12264D02*
D03*
X36323Y-12024D02*
D03*
X36563Y-11783D02*
D03*
X36803Y-11543D02*
D03*
X37044Y-11303D02*
D03*
X37284Y-11062D02*
D03*
X37525Y-10822D02*
D03*
X37765Y-10581D02*
D03*
X38005Y-10341D02*
D03*
X38246Y-10100D02*
D03*
X38486Y-9860D02*
D03*
X38727Y-9620D02*
D03*
X38967Y-9379D02*
D03*
X39208Y-9139D02*
D03*
X39448Y-8898D02*
D03*
X39688Y-8658D02*
D03*
X39929Y-8418D02*
D03*
X40169Y-8177D02*
D03*
X40410Y-7937D02*
D03*
X40650Y-7696D02*
D03*
X40890Y-7456D02*
D03*
X41131Y-7215D02*
D03*
X41371Y-6975D02*
D03*
X41612Y-6735D02*
D03*
X41852Y-6494D02*
D03*
X42093Y-6254D02*
D03*
X42333Y-6013D02*
D03*
X42573Y-5773D02*
D03*
X42884Y-5636D02*
D03*
X42807Y-5967D02*
D03*
X42959Y-6270D02*
D03*
X43291Y-6342D02*
D03*
X43620Y-6429D02*
D03*
X43910Y-6606D02*
D03*
X44242Y-6532D02*
D03*
X44582D02*
D03*
X44922D02*
D03*
X45262D02*
D03*
X46962D02*
D03*
X47982D02*
D03*
X48322D02*
D03*
X48662D02*
D03*
X49671Y-6089D02*
D03*
X49646Y-5750D02*
D03*
X47644Y-5645D02*
D03*
X47304D02*
D03*
X46964D02*
D03*
X46624D02*
D03*
X46284D02*
D03*
X45944D02*
D03*
X45604D02*
D03*
X45264D02*
D03*
X44924D02*
D03*
X44584D02*
D03*
X44266Y-5525D02*
D03*
Y-5185D02*
D03*
Y-4845D02*
D03*
Y-4505D02*
D03*
Y-4165D02*
D03*
X44460Y-3886D02*
D03*
X44704Y-3649D02*
D03*
X45039Y-3710D02*
D03*
X45374Y-3656D02*
D03*
X45714Y-3649D02*
D03*
X46734D02*
D03*
X47074D02*
D03*
X48093Y-3676D02*
D03*
X49675Y-3431D02*
D03*
X48634Y-3018D02*
D03*
X47972D02*
D03*
X44919Y-2927D02*
D03*
X45256Y-2882D02*
D03*
X49642Y-2785D02*
D03*
X49672Y-2446D02*
D03*
X48670Y-1991D02*
D03*
X48330Y-1995D02*
D03*
X47990D02*
D03*
X47650D02*
D03*
X47310D02*
D03*
X46970D02*
D03*
X46630D02*
D03*
X46290D02*
D03*
X45950D02*
D03*
X45610D02*
D03*
X45270D02*
D03*
X44930D02*
D03*
X44590D02*
D03*
X44266Y-2097D02*
D03*
Y-1757D02*
D03*
X44335Y-1424D02*
D03*
X44131Y-1152D02*
D03*
X43791Y-1140D02*
D03*
X43454Y-1184D02*
D03*
X43114D02*
D03*
X42817Y-1349D02*
D03*
X42576Y-1590D02*
D03*
X42336Y-1830D02*
D03*
X42096Y-2071D02*
D03*
X41984Y-2392D02*
D03*
Y-2732D02*
D03*
Y-3072D02*
D03*
Y-3412D02*
D03*
X41748Y-3656D02*
D03*
X41507Y-3896D02*
D03*
X41267Y-4137D02*
D03*
X41026Y-4377D02*
D03*
X40786Y-4618D02*
D03*
X40546Y-4858D02*
D03*
X40305Y-5098D02*
D03*
X40065Y-5339D02*
D03*
X39824Y-5579D02*
D03*
X39584Y-5820D02*
D03*
X39344Y-6060D02*
D03*
X39103Y-6301D02*
D03*
X38863Y-6541D02*
D03*
X38622Y-6781D02*
D03*
X38382Y-7022D02*
D03*
X38141Y-7262D02*
D03*
X37901Y-7503D02*
D03*
X37661Y-7743D02*
D03*
X37420Y-7983D02*
D03*
X37180Y-8224D02*
D03*
X36939Y-8464D02*
D03*
X36699Y-8705D02*
D03*
X36459Y-8945D02*
D03*
X36218Y-9186D02*
D03*
X35978Y-9426D02*
D03*
X35737Y-9666D02*
D03*
X35497Y-9907D02*
D03*
X35256Y-10147D02*
D03*
X35016Y-10388D02*
D03*
X34776Y-10628D02*
D03*
X34535Y-10868D02*
D03*
X34295Y-11109D02*
D03*
X34054Y-11349D02*
D03*
X33814Y-11590D02*
D03*
X33487Y-11684D02*
D03*
X33163Y-11584D02*
D03*
X33403Y-11343D02*
D03*
X33643Y-11103D02*
D03*
X33884Y-10862D02*
D03*
X34124Y-10622D02*
D03*
X34365Y-10382D02*
D03*
X34605Y-10141D02*
D03*
X34846Y-9901D02*
D03*
X35086Y-9660D02*
D03*
X35326Y-9420D02*
D03*
X35567Y-9180D02*
D03*
X35807Y-8939D02*
D03*
X36048Y-8699D02*
D03*
X36288Y-8458D02*
D03*
X36528Y-8218D02*
D03*
X36769Y-7977D02*
D03*
X37009Y-7737D02*
D03*
X37250Y-7497D02*
D03*
X37490Y-7256D02*
D03*
X37731Y-7016D02*
D03*
X37971Y-6775D02*
D03*
X38211Y-6535D02*
D03*
X38452Y-6295D02*
D03*
X38692Y-6054D02*
D03*
X38933Y-5814D02*
D03*
X39173Y-5573D02*
D03*
X39413Y-5333D02*
D03*
X39654Y-5092D02*
D03*
X39894Y-4852D02*
D03*
X40135Y-4612D02*
D03*
X40375Y-4371D02*
D03*
X40563Y-4088D02*
D03*
X40566Y-3748D02*
D03*
Y-3408D02*
D03*
Y-3068D02*
D03*
Y-2728D02*
D03*
Y-2388D02*
D03*
Y-2048D02*
D03*
Y-1708D02*
D03*
Y-1368D02*
D03*
Y-1028D02*
D03*
Y-688D02*
D03*
Y-348D02*
D03*
Y-8D02*
D03*
Y332D02*
D03*
X40682Y652D02*
D03*
X40922Y892D02*
D03*
X41163Y1133D02*
D03*
X41403Y1373D02*
D03*
X41644Y1613D02*
D03*
X41884Y1854D02*
D03*
X42125Y2094D02*
D03*
X42365Y2335D02*
D03*
X42605Y2575D02*
D03*
X42884Y2769D02*
D03*
Y2429D02*
D03*
Y2089D02*
D03*
Y1749D02*
D03*
Y1409D02*
D03*
X42810Y1078D02*
D03*
X42926Y758D02*
D03*
X43248Y650D02*
D03*
X43587Y632D02*
D03*
X43842Y407D02*
D03*
X44177Y464D02*
D03*
X44517Y468D02*
D03*
X44857D02*
D03*
X45197D02*
D03*
X45537D02*
D03*
X45877D02*
D03*
X46897D02*
D03*
X47917D02*
D03*
X48257D02*
D03*
X48597D02*
D03*
X49676Y843D02*
D03*
X49669Y1183D02*
D03*
X47709Y1355D02*
D03*
X47369D02*
D03*
X47029D02*
D03*
X46689D02*
D03*
X46349D02*
D03*
X46009D02*
D03*
X45669D02*
D03*
X45329D02*
D03*
X44989D02*
D03*
X44649D02*
D03*
X44309D02*
D03*
X44266Y1693D02*
D03*
Y2033D02*
D03*
Y2373D02*
D03*
Y2713D02*
D03*
Y3053D02*
D03*
X44429Y3351D02*
D03*
X44769D02*
D03*
X45101Y3276D02*
D03*
X45433Y3351D02*
D03*
X45773D02*
D03*
X46793D02*
D03*
X47813D02*
D03*
X48149Y3296D02*
D03*
X48487Y3329D02*
D03*
X49676Y3622D02*
D03*
X48583Y3982D02*
D03*
X47920D02*
D03*
X44564Y4118D02*
D03*
X44904D02*
D03*
X45244D02*
D03*
X49635Y4203D02*
D03*
X49673Y4541D02*
D03*
X48681Y5016D02*
D03*
X48341Y5005D02*
D03*
X48001D02*
D03*
X47661D02*
D03*
X47321D02*
D03*
X46981D02*
D03*
X46641D02*
D03*
X46301D02*
D03*
X45961D02*
D03*
X45621D02*
D03*
X45281D02*
D03*
X44941D02*
D03*
X44601D02*
D03*
X44266Y5061D02*
D03*
X44329Y5396D02*
D03*
X44268Y5730D02*
D03*
X43970Y5894D02*
D03*
X43639Y5816D02*
D03*
X43299D02*
D03*
X42963Y5763D02*
D03*
X42717Y5529D02*
D03*
X42476Y5289D02*
D03*
X42236Y5048D02*
D03*
X41995Y4808D02*
D03*
X41755Y4568D02*
D03*
X41515Y4327D02*
D03*
X41274Y4087D02*
D03*
X41034Y3846D02*
D03*
X40793Y3606D02*
D03*
X40553Y3365D02*
D03*
X40313Y3125D02*
D03*
X40072Y2885D02*
D03*
X39832Y2644D02*
D03*
X39591Y2404D02*
D03*
X39351Y2163D02*
D03*
X39110Y1923D02*
D03*
X38870Y1683D02*
D03*
X38630Y1442D02*
D03*
X38534Y1116D02*
D03*
Y776D02*
D03*
Y436D02*
D03*
Y96D02*
D03*
Y-244D02*
D03*
Y-584D02*
D03*
Y-924D02*
D03*
Y-1264D02*
D03*
Y-1604D02*
D03*
Y-1944D02*
D03*
Y-2284D02*
D03*
Y-2624D02*
D03*
Y-2964D02*
D03*
X38419Y-3284D02*
D03*
X38179Y-3525D02*
D03*
X37939Y-3765D02*
D03*
X37698Y-4005D02*
D03*
X37458Y-4246D02*
D03*
X37217Y-4486D02*
D03*
X36977Y-4727D02*
D03*
X36736Y-4967D02*
D03*
X36496Y-5208D02*
D03*
X36256Y-5448D02*
D03*
X36015Y-5688D02*
D03*
X35775Y-5929D02*
D03*
X35534Y-6169D02*
D03*
X35243Y-6344D02*
D03*
X34903D02*
D03*
X34563D02*
D03*
X34223D02*
D03*
X33883D02*
D03*
X33543D02*
D03*
X33203D02*
D03*
X32863D02*
D03*
X32523D02*
D03*
X32183D02*
D03*
X31843D02*
D03*
X31503D02*
D03*
X31163D02*
D03*
X30823D02*
D03*
X30483D02*
D03*
X30143D02*
D03*
X29803D02*
D03*
X29463D02*
D03*
X29123D02*
D03*
X28783D02*
D03*
X28443D02*
D03*
X28105Y-6311D02*
D03*
X27888Y-6049D02*
D03*
X28135Y-5816D02*
D03*
X28475D02*
D03*
X28815D02*
D03*
X29155D02*
D03*
X29495D02*
D03*
X29835D02*
D03*
X30175D02*
D03*
X30515D02*
D03*
X30844Y-5730D02*
D03*
X31086Y-5491D02*
D03*
X31326Y-5250D02*
D03*
X31567Y-5010D02*
D03*
X31807Y-4769D02*
D03*
X32047Y-4529D02*
D03*
X32288Y-4289D02*
D03*
X32528Y-4048D02*
D03*
X32769Y-3808D02*
D03*
X33009Y-3567D02*
D03*
X33249Y-3327D02*
D03*
X33490Y-3086D02*
D03*
X33730Y-2846D02*
D03*
X33971Y-2606D02*
D03*
X34211Y-2365D02*
D03*
X34452Y-2125D02*
D03*
X34692Y-1884D02*
D03*
X34932Y-1644D02*
D03*
X35173Y-1404D02*
D03*
X35413Y-1163D02*
D03*
X35654Y-923D02*
D03*
X35894Y-682D02*
D03*
X36134Y-442D02*
D03*
X36375Y-201D02*
D03*
X36615Y39D02*
D03*
X36856Y279D02*
D03*
X37096Y520D02*
D03*
X37337Y760D02*
D03*
X37577Y1001D02*
D03*
X37817Y1241D02*
D03*
X38058Y1481D02*
D03*
X38298Y1722D02*
D03*
X38539Y1962D02*
D03*
X38779Y2203D02*
D03*
X39019Y2443D02*
D03*
X39260Y2684D02*
D03*
X39500Y2924D02*
D03*
X39741Y3164D02*
D03*
X39981Y3405D02*
D03*
X40222Y3645D02*
D03*
X40462Y3886D02*
D03*
X40702Y4126D02*
D03*
X40943Y4366D02*
D03*
X41183Y4607D02*
D03*
X41424Y4847D02*
D03*
X41664Y5088D02*
D03*
X41904Y5328D02*
D03*
X42145Y5569D02*
D03*
X42385Y5809D02*
D03*
X42626Y6049D02*
D03*
X42962Y6101D02*
D03*
X43302D02*
D03*
X43642D02*
D03*
X43981Y6125D02*
D03*
X44275Y6296D02*
D03*
X44325Y6632D02*
D03*
X44266Y6967D02*
D03*
Y7307D02*
D03*
X44565Y7468D02*
D03*
X44905D02*
D03*
X45245D02*
D03*
X45925Y7468D02*
D03*
X46945D02*
D03*
X47965Y7468D02*
D03*
X48305D02*
D03*
X48645D02*
D03*
X49673Y7892D02*
D03*
X49653Y8232D02*
D03*
X47660Y8355D02*
D03*
X47320D02*
D03*
X46980D02*
D03*
X46640D02*
D03*
X46300D02*
D03*
X45960D02*
D03*
X45620D02*
D03*
X45280D02*
D03*
X44940D02*
D03*
X44600D02*
D03*
X44266Y8416D02*
D03*
Y8756D02*
D03*
X44292Y9095D02*
D03*
X44532Y9336D02*
D03*
X44773Y9576D02*
D03*
X45013Y9817D02*
D03*
X45253Y10057D02*
D03*
X45494Y10298D02*
D03*
X45830Y10351D02*
D03*
X46850D02*
D03*
X47870D02*
D03*
X48203Y10283D02*
D03*
X48536Y10351D02*
D03*
X49550Y10350D02*
D03*
X49676Y10665D02*
D03*
X48537Y10982D02*
D03*
X47871D02*
D03*
X49575Y11137D02*
D03*
X49676Y11461D02*
D03*
X48419Y12005D02*
D03*
X48079D02*
D03*
X47739D02*
D03*
X47399D02*
D03*
X47059D02*
D03*
X46719D02*
D03*
X46379D02*
D03*
X46039D02*
D03*
X45699D02*
D03*
X45359D02*
D03*
X45025Y11945D02*
D03*
X44780Y11709D02*
D03*
X44539Y11468D02*
D03*
X44299Y11228D02*
D03*
X44059Y10988D02*
D03*
X43818Y10747D02*
D03*
X43578Y10507D02*
D03*
X43337Y10266D02*
D03*
X43097Y10026D02*
D03*
X42858Y9784D02*
D03*
X42784Y9452D02*
D03*
Y9112D02*
D03*
X42747Y8774D02*
D03*
X42666Y8444D02*
D03*
X42354Y8308D02*
D03*
X42085Y8099D02*
D03*
X41747Y8065D02*
D03*
X41493Y7839D02*
D03*
X41253Y7599D02*
D03*
X41012Y7358D02*
D03*
X40772Y7118D02*
D03*
X40531Y6878D02*
D03*
X40291Y6637D02*
D03*
X40050Y6397D02*
D03*
X39810Y6156D02*
D03*
X39570Y5916D02*
D03*
X39329Y5676D02*
D03*
X39089Y5435D02*
D03*
X38848Y5195D02*
D03*
X38608Y4954D02*
D03*
X38368Y4714D02*
D03*
X38127Y4473D02*
D03*
X37887Y4233D02*
D03*
X37646Y3993D02*
D03*
X37406Y3752D02*
D03*
X37165Y3512D02*
D03*
X36925Y3271D02*
D03*
X36685Y3031D02*
D03*
X36444Y2791D02*
D03*
X36204Y2550D02*
D03*
X35963Y2310D02*
D03*
X35723Y2069D02*
D03*
X35483Y1829D02*
D03*
X35242Y1588D02*
D03*
X35002Y1348D02*
D03*
X34761Y1108D02*
D03*
X34521Y867D02*
D03*
X34280Y627D02*
D03*
X34040Y386D02*
D03*
X33800Y146D02*
D03*
X33559Y-94D02*
D03*
X33319Y-335D02*
D03*
X33078Y-575D02*
D03*
X32838Y-816D02*
D03*
X32598Y-1056D02*
D03*
X32357Y-1296D02*
D03*
X32117Y-1537D02*
D03*
X31876Y-1777D02*
D03*
X31636Y-2018D02*
D03*
X31395Y-2258D02*
D03*
X31155Y-2499D02*
D03*
X30915Y-2739D02*
D03*
X30674Y-2979D02*
D03*
X30434Y-3220D02*
D03*
X30193Y-3460D02*
D03*
X29953Y-3701D02*
D03*
X29640Y-3834D02*
D03*
X29300D02*
D03*
X28960D02*
D03*
X27261Y-3816D02*
D03*
X27601D02*
D03*
X27941D02*
D03*
X28281D02*
D03*
X28621Y-3813D02*
D03*
X29151Y-3395D02*
D03*
X29392Y-3155D02*
D03*
X29632Y-2914D02*
D03*
X29872Y-2674D02*
D03*
X30113Y-2434D02*
D03*
X30353Y-2193D02*
D03*
X30594Y-1953D02*
D03*
X30834Y-1712D02*
D03*
X31075Y-1472D02*
D03*
X31315Y-1231D02*
D03*
X31555Y-991D02*
D03*
X31796Y-751D02*
D03*
X32036Y-510D02*
D03*
X32277Y-270D02*
D03*
X32517Y-29D02*
D03*
X32757Y211D02*
D03*
X32998Y451D02*
D03*
X33238Y692D02*
D03*
X33479Y932D02*
D03*
X33719Y1173D02*
D03*
X33960Y1413D02*
D03*
X34200Y1654D02*
D03*
X34440Y1894D02*
D03*
X34681Y2134D02*
D03*
X34921Y2375D02*
D03*
X35162Y2615D02*
D03*
X35402Y2856D02*
D03*
X35642Y3096D02*
D03*
X35883Y3336D02*
D03*
X36123Y3577D02*
D03*
X36364Y3817D02*
D03*
X36604Y4058D02*
D03*
X36844Y4298D02*
D03*
X37085Y4539D02*
D03*
X37325Y4779D02*
D03*
X37566Y5019D02*
D03*
X37806Y5260D02*
D03*
X38047Y5500D02*
D03*
X38287Y5741D02*
D03*
X38527Y5981D02*
D03*
X38768Y6221D02*
D03*
X39008Y6462D02*
D03*
X39249Y6702D02*
D03*
X39489Y6943D02*
D03*
X39729Y7183D02*
D03*
X39970Y7424D02*
D03*
X40210Y7664D02*
D03*
X40451Y7904D02*
D03*
X40691Y8145D02*
D03*
X40932Y8385D02*
D03*
X41172Y8626D02*
D03*
X41412Y8866D02*
D03*
X41653Y9106D02*
D03*
X41892Y9348D02*
D03*
X41977Y9677D02*
D03*
Y10017D02*
D03*
Y10357D02*
D03*
Y10697D02*
D03*
Y11037D02*
D03*
X42186Y11306D02*
D03*
X42426Y11546D02*
D03*
X42667Y11786D02*
D03*
X42907Y12027D02*
D03*
X43148Y12267D02*
D03*
X43388Y12508D02*
D03*
X43628Y12748D02*
D03*
X43869Y12989D02*
D03*
X44151Y13178D02*
D03*
X44339Y13462D02*
D03*
X44266Y13793D02*
D03*
Y14133D02*
D03*
X44325Y14468D02*
D03*
X44665D02*
D03*
X45005D02*
D03*
X45345D02*
D03*
X46705Y14468D02*
D03*
X47045D02*
D03*
X48065D02*
D03*
X48405D02*
D03*
X49676Y14998D02*
D03*
X49589Y15327D02*
D03*
X47560Y15355D02*
D03*
X47220D02*
D03*
X46880D02*
D03*
X46540D02*
D03*
X46200D02*
D03*
X45860D02*
D03*
X45520D02*
D03*
X45180D02*
D03*
X44840D02*
D03*
X44500D02*
D03*
X44266Y15602D02*
D03*
Y15942D02*
D03*
X44434Y16237D02*
D03*
X44674Y16478D02*
D03*
X44915Y16718D02*
D03*
X45155Y16959D02*
D03*
X45395Y17199D02*
D03*
X45700Y17351D02*
D03*
X46720D02*
D03*
X47060D02*
D03*
X48079Y17332D02*
D03*
X49673Y17554D02*
D03*
X48649Y17982D02*
D03*
X47986D02*
D03*
X49659Y18257D02*
D03*
X49675Y18596D02*
D03*
X48630Y19005D02*
D03*
X48290D02*
D03*
X47950D02*
D03*
X47610D02*
D03*
X47270D02*
D03*
X46930D02*
D03*
X46590D02*
D03*
X46250D02*
D03*
X45910D02*
D03*
X45570D02*
D03*
X45230D02*
D03*
X44925Y18854D02*
D03*
X44685Y18614D02*
D03*
X44444Y18373D02*
D03*
X44204Y18133D02*
D03*
X43964Y17893D02*
D03*
X43723Y17652D02*
D03*
X43483Y17412D02*
D03*
X43242Y17171D02*
D03*
X43002Y16931D02*
D03*
X42796Y16660D02*
D03*
X42784Y16320D02*
D03*
Y15980D02*
D03*
X42710Y15648D02*
D03*
X42475Y15402D02*
D03*
X42267Y15134D02*
D03*
X41942Y15033D02*
D03*
X41699Y14795D02*
D03*
X41459Y14555D02*
D03*
X41218Y14315D02*
D03*
X40978Y14074D02*
D03*
X40737Y13834D02*
D03*
X40497Y13593D02*
D03*
X40257Y13353D02*
D03*
X40018Y13111D02*
D03*
X39934Y12781D02*
D03*
Y12441D02*
D03*
Y12101D02*
D03*
Y11761D02*
D03*
Y11421D02*
D03*
Y11081D02*
D03*
Y10741D02*
D03*
X39726Y10473D02*
D03*
X39486Y10232D02*
D03*
X39245Y9992D02*
D03*
X39005Y9751D02*
D03*
X38765Y9511D02*
D03*
X38524Y9270D02*
D03*
X38284Y9030D02*
D03*
X38043Y8790D02*
D03*
X37803Y8549D02*
D03*
X37562Y8309D02*
D03*
X37322Y8068D02*
D03*
X37082Y7828D02*
D03*
X36841Y7588D02*
D03*
X36601Y7347D02*
D03*
X36360Y7107D02*
D03*
X36120Y6866D02*
D03*
X35880Y6626D02*
D03*
X35639Y6385D02*
D03*
X35399Y6145D02*
D03*
X35158Y5905D02*
D03*
X34918Y5664D02*
D03*
X34677Y5424D02*
D03*
X34437Y5183D02*
D03*
X34197Y4943D02*
D03*
X33956Y4703D02*
D03*
X33716Y4462D02*
D03*
X33475Y4222D02*
D03*
X33235Y3981D02*
D03*
X32995Y3741D02*
D03*
X32754Y3500D02*
D03*
X32514Y3260D02*
D03*
X32273Y3020D02*
D03*
X32033Y2779D02*
D03*
X31792Y2539D02*
D03*
X31552Y2298D02*
D03*
X31312Y2058D02*
D03*
X31071Y1818D02*
D03*
X30831Y1577D02*
D03*
X30590Y1337D02*
D03*
X30350Y1096D02*
D03*
X30110Y856D02*
D03*
X29869Y615D02*
D03*
X29629Y375D02*
D03*
X29388Y135D02*
D03*
X29148Y-106D02*
D03*
X28907Y-346D02*
D03*
X28667Y-587D02*
D03*
X28427Y-827D02*
D03*
X28186Y-1067D02*
D03*
X27946Y-1308D02*
D03*
X27705Y-1548D02*
D03*
X27461Y-1784D02*
D03*
X27121D02*
D03*
X23657Y-4224D02*
D03*
X23851Y-3945D02*
D03*
X24092Y-3704D02*
D03*
X24332Y-3464D02*
D03*
X24573Y-3224D02*
D03*
X24813Y-2983D02*
D03*
X25054Y-2743D02*
D03*
X25294Y-2502D02*
D03*
X25534Y-2262D02*
D03*
X25775Y-2022D02*
D03*
X26015Y-1781D02*
D03*
X26355Y-1766D02*
D03*
X26667Y-1630D02*
D03*
X26907Y-1389D02*
D03*
X27147Y-1149D02*
D03*
X27388Y-909D02*
D03*
X27628Y-668D02*
D03*
X27869Y-428D02*
D03*
X28109Y-187D02*
D03*
X28349Y53D02*
D03*
X28590Y293D02*
D03*
X28830Y534D02*
D03*
X29071Y774D02*
D03*
X29311Y1015D02*
D03*
X29552Y1255D02*
D03*
X29792Y1496D02*
D03*
X30032Y1736D02*
D03*
X30273Y1976D02*
D03*
X30513Y2217D02*
D03*
X30754Y2457D02*
D03*
X30994Y2698D02*
D03*
X31234Y2938D02*
D03*
X31475Y3178D02*
D03*
X31715Y3419D02*
D03*
X31956Y3659D02*
D03*
X32196Y3900D02*
D03*
X32437Y4140D02*
D03*
X32677Y4381D02*
D03*
X32917Y4621D02*
D03*
X33158Y4861D02*
D03*
X33398Y5102D02*
D03*
X33639Y5342D02*
D03*
X33879Y5583D02*
D03*
X34119Y5823D02*
D03*
X34360Y6063D02*
D03*
X34600Y6304D02*
D03*
X34841Y6544D02*
D03*
X35081Y6785D02*
D03*
X35322Y7025D02*
D03*
X35562Y7266D02*
D03*
X35802Y7506D02*
D03*
X36043Y7746D02*
D03*
X36283Y7987D02*
D03*
X36524Y8227D02*
D03*
X36764Y8468D02*
D03*
X37004Y8708D02*
D03*
X37245Y8948D02*
D03*
X37485Y9189D02*
D03*
X37726Y9429D02*
D03*
X37966Y9670D02*
D03*
X38207Y9910D02*
D03*
X38447Y10151D02*
D03*
X38687Y10391D02*
D03*
X38928Y10631D02*
D03*
X39156Y10884D02*
D03*
X39196Y11221D02*
D03*
Y11561D02*
D03*
Y11901D02*
D03*
Y12241D02*
D03*
Y12581D02*
D03*
Y12921D02*
D03*
Y13261D02*
D03*
Y13601D02*
D03*
Y13941D02*
D03*
Y14281D02*
D03*
Y14621D02*
D03*
Y14961D02*
D03*
Y15301D02*
D03*
X39429Y15549D02*
D03*
X39669Y15789D02*
D03*
X39910Y16030D02*
D03*
X40150Y16270D02*
D03*
X40391Y16510D02*
D03*
X40631Y16751D02*
D03*
X40871Y16991D02*
D03*
X41112Y17232D02*
D03*
X41352Y17472D02*
D03*
X41593Y17712D02*
D03*
X41833Y17953D02*
D03*
X42074Y18193D02*
D03*
X42314Y18434D02*
D03*
X42554Y18674D02*
D03*
X42795Y18915D02*
D03*
X43035Y19155D02*
D03*
X43276Y19395D02*
D03*
X43516Y19636D02*
D03*
X43756Y19876D02*
D03*
X43997Y20117D02*
D03*
X44280Y20304D02*
D03*
X44323Y20642D02*
D03*
X44266Y20977D02*
D03*
Y21317D02*
D03*
X44570Y21468D02*
D03*
X44910D02*
D03*
X45250D02*
D03*
X46950Y21468D02*
D03*
X47970D02*
D03*
X48310D02*
D03*
X48650D02*
D03*
X49673Y21897D02*
D03*
X49651Y22236D02*
D03*
X47656Y22355D02*
D03*
X47316D02*
D03*
X46976D02*
D03*
X46636D02*
D03*
X46296D02*
D03*
X45956D02*
D03*
X45616D02*
D03*
X45276D02*
D03*
X44936D02*
D03*
X44596D02*
D03*
X44266Y22436D02*
D03*
Y22776D02*
D03*
X44310Y23114D02*
D03*
X44550Y23354D02*
D03*
X44791Y23594D02*
D03*
X45031Y23835D02*
D03*
X45272Y24075D02*
D03*
X45512Y24316D02*
D03*
X45850Y24351D02*
D03*
X46870D02*
D03*
X47890D02*
D03*
X48223Y24279D02*
D03*
X48555Y24351D02*
D03*
X49567Y24363D02*
D03*
X49676Y24685D02*
D03*
X48518Y24983D02*
D03*
X47850Y24982D02*
D03*
X49545Y25114D02*
D03*
X49676Y25428D02*
D03*
Y25768D02*
D03*
X51246Y26687D02*
D03*
X50906Y26682D02*
D03*
X50626Y26489D02*
D03*
X50439Y26205D02*
D03*
X50676Y25605D02*
D03*
X50829Y25301D02*
D03*
X50669Y25000D02*
D03*
X50633Y23484D02*
D03*
X53277Y23251D02*
D03*
X53612Y23194D02*
D03*
X53934Y23086D02*
D03*
X53728Y22815D02*
D03*
X53391Y22855D02*
D03*
X53078Y22722D02*
D03*
X52750Y22634D02*
D03*
X52509Y22874D02*
D03*
X52261Y23107D02*
D03*
X51924Y23152D02*
D03*
X51584D02*
D03*
X51244D02*
D03*
X50904D02*
D03*
X50602Y22996D02*
D03*
X50729Y21835D02*
D03*
X51956Y21922D02*
D03*
X52175Y22182D02*
D03*
X52415Y21942D02*
D03*
X52718Y21787D02*
D03*
X53044Y21689D02*
D03*
X53857Y21696D02*
D03*
X54133Y21896D02*
D03*
X54373Y22136D02*
D03*
X54691Y22377D02*
D03*
Y22037D02*
D03*
X54615Y21705D02*
D03*
X54374Y21465D02*
D03*
X54134Y21225D02*
D03*
X53795Y21256D02*
D03*
X53470Y21355D02*
D03*
X53137Y21289D02*
D03*
X52938Y21013D02*
D03*
X52598D02*
D03*
X52289Y20872D02*
D03*
X51959Y20788D02*
D03*
X50818Y20980D02*
D03*
X50381Y20475D02*
D03*
X50406Y20136D02*
D03*
X50626Y19489D02*
D03*
X50439Y19205D02*
D03*
X50676Y18605D02*
D03*
X50829Y18301D02*
D03*
X50669Y18000D02*
D03*
X50633Y16484D02*
D03*
X53277Y16251D02*
D03*
X53612Y16194D02*
D03*
X53934Y16086D02*
D03*
X53728Y15816D02*
D03*
X53391Y15855D02*
D03*
X53078Y15722D02*
D03*
X52750Y15634D02*
D03*
X52509Y15874D02*
D03*
X52261Y16107D02*
D03*
X51924Y16152D02*
D03*
X51584D02*
D03*
X51244D02*
D03*
X50904D02*
D03*
X50602Y15996D02*
D03*
X50729Y14835D02*
D03*
X51956Y14922D02*
D03*
X52175Y15182D02*
D03*
X52415Y14942D02*
D03*
X52718Y14787D02*
D03*
X53044Y14689D02*
D03*
X53857Y14696D02*
D03*
X54133Y14896D02*
D03*
X54373Y15136D02*
D03*
X54691Y15377D02*
D03*
Y15037D02*
D03*
X54615Y14705D02*
D03*
X54374Y14465D02*
D03*
X54134Y14224D02*
D03*
X53795Y14256D02*
D03*
X53470Y14355D02*
D03*
X53137Y14289D02*
D03*
X52938Y14013D02*
D03*
X52598D02*
D03*
X52289Y13872D02*
D03*
X51959Y13788D02*
D03*
X50818Y13980D02*
D03*
X50381Y13475D02*
D03*
X50406Y13136D02*
D03*
X50626Y12489D02*
D03*
X50439Y12205D02*
D03*
X50676Y11605D02*
D03*
X50829Y11301D02*
D03*
X50669Y11000D02*
D03*
X50633Y9484D02*
D03*
X53277Y9251D02*
D03*
X53612Y9194D02*
D03*
X53934Y9086D02*
D03*
X53728Y8816D02*
D03*
X53391Y8855D02*
D03*
X53078Y8722D02*
D03*
X52750Y8634D02*
D03*
X52509Y8874D02*
D03*
X52261Y9107D02*
D03*
X51924Y9152D02*
D03*
X51584D02*
D03*
X51244D02*
D03*
X50904D02*
D03*
X50602Y8996D02*
D03*
X50729Y7835D02*
D03*
X51956Y7922D02*
D03*
X52175Y8182D02*
D03*
X52415Y7942D02*
D03*
X52718Y7787D02*
D03*
X53044Y7689D02*
D03*
X53857Y7696D02*
D03*
X54133Y7896D02*
D03*
X54373Y8136D02*
D03*
X54691Y8377D02*
D03*
Y8037D02*
D03*
X54615Y7705D02*
D03*
X54374Y7465D02*
D03*
X54134Y7225D02*
D03*
X53795Y7256D02*
D03*
X53470Y7355D02*
D03*
X53137Y7289D02*
D03*
X52938Y7013D02*
D03*
X52598D02*
D03*
X52289Y6872D02*
D03*
X51959Y6788D02*
D03*
X50818Y6980D02*
D03*
X50381Y6475D02*
D03*
X50406Y6136D02*
D03*
X50626Y5489D02*
D03*
X50439Y5205D02*
D03*
X50676Y4605D02*
D03*
X50829Y4301D02*
D03*
X50669Y4000D02*
D03*
X50633Y2484D02*
D03*
X53277Y2251D02*
D03*
X53612Y2194D02*
D03*
X53934Y2086D02*
D03*
X53728Y1815D02*
D03*
X53391Y1855D02*
D03*
X53078Y1722D02*
D03*
X52750Y1634D02*
D03*
X52509Y1874D02*
D03*
X52261Y2107D02*
D03*
X51924Y2152D02*
D03*
X51584D02*
D03*
X51244D02*
D03*
X50904D02*
D03*
X50602Y1996D02*
D03*
X50729Y835D02*
D03*
X51956Y922D02*
D03*
X52175Y1182D02*
D03*
X52415Y942D02*
D03*
X52718Y787D02*
D03*
X53044Y689D02*
D03*
X53857Y696D02*
D03*
X54133Y896D02*
D03*
X54373Y1136D02*
D03*
X54691Y1377D02*
D03*
Y1037D02*
D03*
X54615Y705D02*
D03*
X54374Y465D02*
D03*
X54134Y225D02*
D03*
X53795Y256D02*
D03*
X53470Y355D02*
D03*
X53137Y289D02*
D03*
X52938Y13D02*
D03*
X52598D02*
D03*
X52289Y-128D02*
D03*
X51959Y-212D02*
D03*
X50818Y-20D02*
D03*
X50381Y-525D02*
D03*
X50406Y-864D02*
D03*
X50626Y-1511D02*
D03*
X50439Y-1795D02*
D03*
X50676Y-2395D02*
D03*
X50829Y-2699D02*
D03*
X50669Y-3000D02*
D03*
X50633Y-4516D02*
D03*
X53277Y-4749D02*
D03*
X53612Y-4806D02*
D03*
X53934Y-4914D02*
D03*
X53728Y-5185D02*
D03*
X53391Y-5145D02*
D03*
X53078Y-5278D02*
D03*
X52750Y-5366D02*
D03*
X52509Y-5126D02*
D03*
X52261Y-4893D02*
D03*
X51924Y-4848D02*
D03*
X51584D02*
D03*
X51244D02*
D03*
X50904D02*
D03*
X50602Y-5004D02*
D03*
X50729Y-6165D02*
D03*
X51956Y-6078D02*
D03*
X52175Y-5818D02*
D03*
X52415Y-6058D02*
D03*
X52718Y-6213D02*
D03*
X53044Y-6311D02*
D03*
X53857Y-6304D02*
D03*
X54133Y-6104D02*
D03*
X54373Y-5864D02*
D03*
X54691Y-5623D02*
D03*
Y-5963D02*
D03*
X54615Y-6295D02*
D03*
X54374Y-6535D02*
D03*
X54134Y-6775D02*
D03*
X53795Y-6744D02*
D03*
X53470Y-6645D02*
D03*
X53137Y-6711D02*
D03*
X52938Y-6987D02*
D03*
X52598D02*
D03*
X52289Y-7128D02*
D03*
X51959Y-7212D02*
D03*
X50818Y-7020D02*
D03*
X50381Y-7525D02*
D03*
X50406Y-7864D02*
D03*
X50626Y-8511D02*
D03*
X50439Y-8795D02*
D03*
X50676Y-9395D02*
D03*
X50829Y-9699D02*
D03*
X50669Y-10000D02*
D03*
X50633Y-11516D02*
D03*
X53277Y-11749D02*
D03*
X53612Y-11806D02*
D03*
X53934Y-11914D02*
D03*
X53728Y-12184D02*
D03*
X53391Y-12145D02*
D03*
X53078Y-12278D02*
D03*
X52750Y-12366D02*
D03*
X52509Y-12126D02*
D03*
X52261Y-11893D02*
D03*
X51924Y-11848D02*
D03*
X51584D02*
D03*
X51244D02*
D03*
X50904D02*
D03*
X50602Y-12004D02*
D03*
X50729Y-13165D02*
D03*
X51956Y-13078D02*
D03*
X52175Y-12818D02*
D03*
X52415Y-13058D02*
D03*
X52718Y-13213D02*
D03*
X53044Y-13311D02*
D03*
X53857Y-13304D02*
D03*
X54133Y-13104D02*
D03*
X54373Y-12864D02*
D03*
X54691Y-12623D02*
D03*
Y-12963D02*
D03*
X54615Y-13295D02*
D03*
X54374Y-13535D02*
D03*
X54134Y-13776D02*
D03*
X53795Y-13744D02*
D03*
X53470Y-13645D02*
D03*
X53137Y-13711D02*
D03*
X52938Y-13987D02*
D03*
X52598D02*
D03*
X52289Y-14128D02*
D03*
X51959Y-14212D02*
D03*
X50818Y-14020D02*
D03*
X50381Y-14525D02*
D03*
X50406Y-14864D02*
D03*
X50626Y-15511D02*
D03*
X50439Y-15795D02*
D03*
X50676Y-16395D02*
D03*
X50829Y-16699D02*
D03*
X50669Y-17000D02*
D03*
X50633Y-18516D02*
D03*
X53277Y-18749D02*
D03*
X53612Y-18806D02*
D03*
X53934Y-18914D02*
D03*
X53728Y-19184D02*
D03*
X53391Y-19145D02*
D03*
X53078Y-19278D02*
D03*
X52750Y-19366D02*
D03*
X52509Y-19126D02*
D03*
X52261Y-18893D02*
D03*
X51924Y-18848D02*
D03*
X51584D02*
D03*
X51244D02*
D03*
X50904D02*
D03*
X50602Y-19004D02*
D03*
X50729Y-20165D02*
D03*
X51956Y-20078D02*
D03*
X52175Y-19818D02*
D03*
X52415Y-20058D02*
D03*
X52718Y-20213D02*
D03*
X53044Y-20311D02*
D03*
X53857Y-20304D02*
D03*
X54133Y-20104D02*
D03*
X54373Y-19864D02*
D03*
X54691Y-19623D02*
D03*
Y-19963D02*
D03*
X54615Y-20295D02*
D03*
X54374Y-20535D02*
D03*
X54134Y-20775D02*
D03*
X53795Y-20744D02*
D03*
X53470Y-20645D02*
D03*
X53137Y-20711D02*
D03*
X52938Y-20987D02*
D03*
X52598D02*
D03*
X52289Y-21128D02*
D03*
X51959Y-21212D02*
D03*
X50818Y-21020D02*
D03*
X50381Y-21525D02*
D03*
X50406Y-21864D02*
D03*
X50626Y-22511D02*
D03*
X50439Y-22795D02*
D03*
X50676Y-23395D02*
D03*
X50829Y-23699D02*
D03*
X50669Y-24000D02*
D03*
X50633Y-25516D02*
D03*
X53277Y-25749D02*
D03*
X53612Y-25806D02*
D03*
X53934Y-25914D02*
D03*
X53728Y-26184D02*
D03*
X53390Y-26145D02*
D03*
X53078Y-26279D02*
D03*
X52749Y-26365D02*
D03*
X52508Y-26125D02*
D03*
X52260Y-25893D02*
D03*
X51923Y-25848D02*
D03*
X51583D02*
D03*
X51243D02*
D03*
X50903D02*
D03*
X50601Y-26005D02*
D03*
X50730Y-27165D02*
D03*
X51956Y-27076D02*
D03*
X52164Y-26808D02*
D03*
X52405Y-27048D02*
D03*
X52702Y-27213D02*
D03*
X53040Y-27253D02*
D03*
X53224Y-27539D02*
D03*
X53846Y-27366D02*
D03*
X54097Y-27137D02*
D03*
X54339Y-26898D02*
D03*
X54691Y-26328D02*
D03*
Y-26668D02*
D03*
Y-27008D02*
D03*
X54580Y-27329D02*
D03*
X54340Y-27570D02*
D03*
X54099Y-27810D02*
D03*
X53772Y-27718D02*
D03*
X53440Y-27645D02*
D03*
X53112Y-27734D02*
D03*
X52885Y-27987D02*
D03*
X52545Y-27989D02*
D03*
X52253Y-28163D02*
D03*
X51959Y-28333D02*
D03*
X51909Y-27997D02*
D03*
X50917Y-27948D02*
D03*
X50638Y-28143D02*
D03*
X50381Y-28736D02*
D03*
X50542Y-29035D02*
D03*
X52634Y-28810D02*
D03*
X52959Y-28713D02*
D03*
X53147Y-28997D02*
D03*
X53804Y-28945D02*
D03*
X54052Y-28713D02*
D03*
X54362Y-28574D02*
D03*
X54602Y-28334D02*
D03*
X54843Y-28093D02*
D03*
X55083Y-27853D02*
D03*
X55324Y-27612D02*
D03*
X55417Y-27285D02*
D03*
Y-26945D02*
D03*
Y-26605D02*
D03*
X55782Y-25749D02*
D03*
X57110Y-25685D02*
D03*
X57151Y-25348D02*
D03*
X57053Y-25022D02*
D03*
X57151Y-23903D02*
D03*
X57134Y-23563D02*
D03*
X55875Y-23146D02*
D03*
X55592Y-22957D02*
D03*
X55252Y-22954D02*
D03*
X52566Y-22806D02*
D03*
X52326Y-22565D02*
D03*
X52634Y-21810D02*
D03*
X52959Y-21713D02*
D03*
X53147Y-21997D02*
D03*
X53804Y-21945D02*
D03*
X54052Y-21713D02*
D03*
X54362Y-21574D02*
D03*
X54602Y-21334D02*
D03*
X54843Y-21093D02*
D03*
X55083Y-20853D02*
D03*
X55324Y-20612D02*
D03*
X55417Y-20285D02*
D03*
Y-19945D02*
D03*
Y-19605D02*
D03*
X55782Y-18749D02*
D03*
X57110Y-18685D02*
D03*
X57151Y-18348D02*
D03*
X57053Y-18022D02*
D03*
X57151Y-16903D02*
D03*
X57134Y-16563D02*
D03*
X55875Y-16146D02*
D03*
X55592Y-15957D02*
D03*
X55252Y-15954D02*
D03*
X52566Y-15806D02*
D03*
X52326Y-15565D02*
D03*
X52634Y-14810D02*
D03*
X52959Y-14713D02*
D03*
X53147Y-14997D02*
D03*
X53804Y-14945D02*
D03*
X54052Y-14713D02*
D03*
X54362Y-14574D02*
D03*
X54602Y-14334D02*
D03*
X54843Y-14093D02*
D03*
X55083Y-13853D02*
D03*
X55324Y-13612D02*
D03*
X55417Y-13285D02*
D03*
Y-12945D02*
D03*
Y-12605D02*
D03*
X55782Y-11749D02*
D03*
X57110Y-11685D02*
D03*
X57151Y-11348D02*
D03*
X57053Y-11022D02*
D03*
X57151Y-9903D02*
D03*
X57134Y-9563D02*
D03*
X55875Y-9146D02*
D03*
X55592Y-8957D02*
D03*
X55252Y-8954D02*
D03*
X52566Y-8806D02*
D03*
X52326Y-8565D02*
D03*
X52634Y-7810D02*
D03*
X52959Y-7713D02*
D03*
X53147Y-7997D02*
D03*
X53804Y-7945D02*
D03*
X54052Y-7713D02*
D03*
X54362Y-7574D02*
D03*
X54602Y-7334D02*
D03*
X54843Y-7093D02*
D03*
X55083Y-6853D02*
D03*
X55324Y-6612D02*
D03*
X55417Y-6285D02*
D03*
Y-5945D02*
D03*
Y-5605D02*
D03*
X55782Y-4749D02*
D03*
X57110Y-4685D02*
D03*
X57151Y-4348D02*
D03*
X57053Y-4022D02*
D03*
X57151Y-2903D02*
D03*
X57134Y-2563D02*
D03*
X55875Y-2146D02*
D03*
X55592Y-1957D02*
D03*
X55252Y-1954D02*
D03*
X52566Y-1806D02*
D03*
X52326Y-1565D02*
D03*
X52633Y-810D02*
D03*
X52959Y-713D02*
D03*
X53147Y-997D02*
D03*
X53804Y-945D02*
D03*
X54052Y-713D02*
D03*
X54362Y-574D02*
D03*
X54602Y-334D02*
D03*
X54843Y-93D02*
D03*
X55083Y147D02*
D03*
X55324Y388D02*
D03*
X55417Y715D02*
D03*
Y1055D02*
D03*
Y1395D02*
D03*
X55782Y2251D02*
D03*
X57110Y2315D02*
D03*
X57151Y2652D02*
D03*
X57053Y2978D02*
D03*
X57151Y4097D02*
D03*
X57134Y4437D02*
D03*
X55875Y4854D02*
D03*
X55592Y5043D02*
D03*
X55252Y5046D02*
D03*
X52566Y5195D02*
D03*
X52326Y5435D02*
D03*
X52633Y6190D02*
D03*
X52959Y6287D02*
D03*
X53147Y6003D02*
D03*
X53803Y6054D02*
D03*
X54052Y6287D02*
D03*
X54362Y6426D02*
D03*
X54602Y6666D02*
D03*
X54843Y6907D02*
D03*
X55083Y7147D02*
D03*
X55324Y7387D02*
D03*
X55417Y7714D02*
D03*
Y8054D02*
D03*
Y8394D02*
D03*
X55782Y9251D02*
D03*
X57110Y9315D02*
D03*
X57151Y9652D02*
D03*
X57054Y9978D02*
D03*
X57151Y11097D02*
D03*
X57133Y11437D02*
D03*
X55875Y11854D02*
D03*
X55592Y12043D02*
D03*
X55252Y12046D02*
D03*
X52566Y12195D02*
D03*
X52326Y12435D02*
D03*
X52633Y13189D02*
D03*
X52958Y13287D02*
D03*
X53146Y13004D02*
D03*
X53803Y13054D02*
D03*
X54051Y13287D02*
D03*
X54361Y13425D02*
D03*
X54602Y13666D02*
D03*
X54842Y13906D02*
D03*
X55083Y14146D02*
D03*
X55323Y14387D02*
D03*
X55417Y14714D02*
D03*
Y15054D02*
D03*
Y15394D02*
D03*
X55781Y16251D02*
D03*
X57109Y16314D02*
D03*
X57151Y16651D02*
D03*
X57054Y16977D02*
D03*
X57151Y18099D02*
D03*
X57133Y18439D02*
D03*
X55873Y18856D02*
D03*
X55590Y19043D02*
D03*
X55250Y19046D02*
D03*
X52565Y19196D02*
D03*
X52324Y19437D02*
D03*
X52618Y20175D02*
D03*
X52939Y20287D02*
D03*
X53137Y20011D02*
D03*
X53796Y20045D02*
D03*
X54034Y20287D02*
D03*
X54350Y20414D02*
D03*
X54590Y20654D02*
D03*
X54831Y20895D02*
D03*
X55071Y21135D02*
D03*
X55311Y21375D02*
D03*
X55417Y21699D02*
D03*
Y22039D02*
D03*
Y22379D02*
D03*
X55760Y23251D02*
D03*
X57095Y23295D02*
D03*
X57148Y23631D02*
D03*
X57073Y23963D02*
D03*
X57081Y24852D02*
D03*
X57146Y25185D02*
D03*
X57086Y25520D02*
D03*
X55816Y25913D02*
D03*
X55503Y26046D02*
D03*
X52511Y26250D02*
D03*
X52271Y26490D02*
D03*
X51991Y26683D02*
D03*
X51659Y26757D02*
D03*
X57677Y-24303D02*
D03*
Y-17303D02*
D03*
Y-10303D02*
D03*
Y-3303D02*
D03*
Y3697D02*
D03*
Y10697D02*
D03*
Y17697D02*
D03*
Y24697D02*
D03*
X49805Y24922D02*
D03*
Y21528D02*
D03*
Y17922D02*
D03*
Y14528D02*
D03*
Y10922D02*
D03*
Y7528D02*
D03*
Y3922D02*
D03*
Y528D02*
D03*
Y-3078D02*
D03*
Y-6472D02*
D03*
Y-10078D02*
D03*
Y-13472D02*
D03*
Y-24078D02*
D03*
Y-27472D02*
D03*
X56400Y-25296D02*
D03*
Y-25476D02*
D03*
Y-23721D02*
D03*
X55667Y-24410D02*
D03*
Y-24590D02*
D03*
X51650Y-22766D02*
D03*
Y-22586D02*
D03*
X54200Y-24590D02*
D03*
Y-24410D02*
D03*
X53700Y-25476D02*
D03*
Y-25296D02*
D03*
X56400Y-23901D02*
D03*
X54700Y-26100D02*
D03*
X55452D02*
D03*
X50148Y-25681D02*
D03*
X56400Y-24795D02*
D03*
X50148Y-4681D02*
D03*
X56400Y23704D02*
D03*
Y23524D02*
D03*
Y25279D02*
D03*
X55667Y24590D02*
D03*
Y24410D02*
D03*
X51650Y26234D02*
D03*
Y26414D02*
D03*
X54200Y24410D02*
D03*
Y24590D02*
D03*
X53700Y23524D02*
D03*
Y23704D02*
D03*
X56400Y25099D02*
D03*
X54700Y22900D02*
D03*
X55452D02*
D03*
X50148Y23319D02*
D03*
X56400Y24205D02*
D03*
Y16704D02*
D03*
Y16524D02*
D03*
Y18279D02*
D03*
X55667Y17590D02*
D03*
Y17410D02*
D03*
X51650Y19234D02*
D03*
Y19414D02*
D03*
X54200Y17410D02*
D03*
Y17590D02*
D03*
X53700Y16524D02*
D03*
Y16704D02*
D03*
X56400Y18099D02*
D03*
X54700Y15900D02*
D03*
X55452D02*
D03*
X50148Y16319D02*
D03*
X56400Y17205D02*
D03*
Y9704D02*
D03*
Y9524D02*
D03*
Y11279D02*
D03*
X55667Y10590D02*
D03*
Y10410D02*
D03*
X51650Y12234D02*
D03*
Y12414D02*
D03*
X54200Y10410D02*
D03*
Y10590D02*
D03*
X53700Y9524D02*
D03*
Y9704D02*
D03*
X56400Y11099D02*
D03*
X54700Y8900D02*
D03*
X55452D02*
D03*
X50148Y9319D02*
D03*
X56400Y10205D02*
D03*
Y2704D02*
D03*
Y2524D02*
D03*
Y4279D02*
D03*
X55667Y3590D02*
D03*
Y3410D02*
D03*
X51650Y5234D02*
D03*
Y5414D02*
D03*
X54200Y3410D02*
D03*
Y3590D02*
D03*
X53700Y2524D02*
D03*
Y2704D02*
D03*
X56400Y4099D02*
D03*
X54700Y1900D02*
D03*
X55452D02*
D03*
X50148Y2319D02*
D03*
X56400Y3205D02*
D03*
Y-4296D02*
D03*
Y-4476D02*
D03*
Y-2721D02*
D03*
X55667Y-3410D02*
D03*
Y-3590D02*
D03*
X51650Y-1766D02*
D03*
Y-1586D02*
D03*
X54200Y-3590D02*
D03*
Y-3410D02*
D03*
X53700Y-4476D02*
D03*
Y-4296D02*
D03*
X56400Y-2901D02*
D03*
X54700Y-5100D02*
D03*
X55452D02*
D03*
X56400Y-3795D02*
D03*
Y-11296D02*
D03*
Y-11476D02*
D03*
Y-9721D02*
D03*
X55667Y-10410D02*
D03*
Y-10590D02*
D03*
X51650Y-8766D02*
D03*
Y-8586D02*
D03*
X54200Y-10590D02*
D03*
Y-10410D02*
D03*
X53700Y-11476D02*
D03*
Y-11296D02*
D03*
X56400Y-9901D02*
D03*
X54700Y-12100D02*
D03*
X55452D02*
D03*
X50148Y-11681D02*
D03*
X56400Y-10795D02*
D03*
X49805Y-20472D02*
D03*
X56400Y-17795D02*
D03*
X50148Y-18681D02*
D03*
X49805Y-17078D02*
D03*
X55452Y-19100D02*
D03*
X54700D02*
D03*
X56400Y-16901D02*
D03*
X53700Y-18296D02*
D03*
Y-18476D02*
D03*
X54200Y-17410D02*
D03*
Y-17590D02*
D03*
X51650Y-15586D02*
D03*
Y-15766D02*
D03*
X55667Y-17590D02*
D03*
Y-17410D02*
D03*
X56400Y-16721D02*
D03*
Y-18476D02*
D03*
Y-18296D02*
D03*
D77*
X7250Y26550D02*
D03*
X8750D02*
D03*
X10250D02*
D03*
X15467Y-5488D02*
D03*
X17357D02*
D03*
X27751Y-8288D02*
D03*
X23971D02*
D03*
X20822Y-7918D02*
D03*
X17357Y-8288D02*
D03*
X23971Y10600D02*
D03*
X15467Y7460D02*
D03*
X20822Y10260D02*
D03*
X27751Y5879D02*
D03*
X17357Y7830D02*
D03*
X53400Y30343D02*
D03*
X49463D02*
D03*
X45526D02*
D03*
X43557Y26406D02*
D03*
Y18532D02*
D03*
X41589Y30343D02*
D03*
X39620Y26406D02*
D03*
X41589Y-1154D02*
D03*
X39620Y-20839D02*
D03*
X37652Y30343D02*
D03*
X35683Y26406D02*
D03*
X37652Y22469D02*
D03*
X35683Y18532D02*
D03*
X37652Y-1154D02*
D03*
X33715Y30343D02*
D03*
X31746Y26406D02*
D03*
X33715Y22469D02*
D03*
X31746Y18532D02*
D03*
X33715Y14595D02*
D03*
X31746Y10657D02*
D03*
Y-28713D02*
D03*
X29778Y30343D02*
D03*
Y22469D02*
D03*
Y6720D02*
D03*
X27809Y-28713D02*
D03*
X19935Y26406D02*
D03*
X17967Y30343D02*
D03*
X15998Y26406D02*
D03*
X17967Y22469D02*
D03*
X14030Y30343D02*
D03*
Y22469D02*
D03*
X10093Y6720D02*
D03*
X6156D02*
D03*
X4187Y2783D02*
D03*
Y-5091D02*
D03*
Y-12965D02*
D03*
X2219Y6720D02*
D03*
Y-1154D02*
D03*
Y-16902D02*
D03*
Y-24776D02*
D03*
X37645Y-26450D02*
D03*
X37400Y-29990D02*
D03*
X56331Y-28496D02*
D03*
X46300Y-25089D02*
D03*
X47450Y-25083D02*
D03*
X46300Y-25750D02*
D03*
Y-28923D02*
D03*
X47450D02*
D03*
X58850Y-28193D02*
D03*
X46300Y-18089D02*
D03*
X47450Y-18083D02*
D03*
X46300Y-18750D02*
D03*
Y-21923D02*
D03*
X47450D02*
D03*
X56632Y-21850D02*
D03*
X58850Y-21193D02*
D03*
X46300Y-11089D02*
D03*
X47450Y-11083D02*
D03*
X46300Y-11750D02*
D03*
Y-14923D02*
D03*
X47450D02*
D03*
X56632Y-14850D02*
D03*
X58850Y-14193D02*
D03*
X46300Y-4089D02*
D03*
X47450Y-4083D02*
D03*
X46300Y-4750D02*
D03*
Y-7923D02*
D03*
X47450D02*
D03*
X56632Y-7850D02*
D03*
X58850Y-7193D02*
D03*
X46300Y2911D02*
D03*
X47450Y2917D02*
D03*
X46300Y2250D02*
D03*
Y-923D02*
D03*
X47450D02*
D03*
X56632Y-850D02*
D03*
X58850Y-193D02*
D03*
X46300Y9911D02*
D03*
X47450Y9917D02*
D03*
X46300Y9250D02*
D03*
Y6077D02*
D03*
X47450D02*
D03*
X56632Y6150D02*
D03*
X58850Y6807D02*
D03*
X46300Y16911D02*
D03*
X47450Y16917D02*
D03*
X46300Y16250D02*
D03*
Y13077D02*
D03*
X47450D02*
D03*
X56632Y13150D02*
D03*
X58850Y13807D02*
D03*
Y20807D02*
D03*
X56632Y20150D02*
D03*
X47450Y20077D02*
D03*
X46300D02*
D03*
Y23250D02*
D03*
X47450Y23917D02*
D03*
X46300Y23911D02*
D03*
X53000Y25985D02*
D03*
Y18985D02*
D03*
Y11985D02*
D03*
Y4985D02*
D03*
Y-2015D02*
D03*
Y-9015D02*
D03*
Y-23015D02*
D03*
X35100Y-28434D02*
D03*
X53000Y-16015D02*
D03*
X43950Y-20216D02*
D03*
X24000Y22250D02*
D03*
X24630D02*
D03*
X23650Y23000D02*
D03*
Y24556D02*
D03*
X34100Y-23460D02*
D03*
X33400Y-22850D02*
D03*
X32460Y-21760D02*
D03*
X31740Y-20720D02*
D03*
X31050D02*
D03*
X30357D02*
D03*
X29630D02*
D03*
X26189Y-20723D02*
D03*
X28920Y-20720D02*
D03*
X28190D02*
D03*
X26800D02*
D03*
X18617Y-8288D02*
D03*
X27500Y-20720D02*
D03*
X25560D02*
D03*
X24990D02*
D03*
X16412Y-7918D02*
D03*
X17042D02*
D03*
X16727Y-8288D02*
D03*
X20507D02*
D03*
X22711D02*
D03*
X24916D02*
D03*
X26806D02*
D03*
X26491Y-5858D02*
D03*
X24601D02*
D03*
X23971D02*
D03*
X22396D02*
D03*
X21452D02*
D03*
X20822D02*
D03*
X21137Y-5488D02*
D03*
X20192Y-5858D02*
D03*
X20507Y-5488D02*
D03*
X19562Y-5858D02*
D03*
X19877Y-5488D02*
D03*
X18932Y-5858D02*
D03*
X19247Y-5488D02*
D03*
X18302Y-5858D02*
D03*
X18617Y-5488D02*
D03*
X17672Y-5858D02*
D03*
X17987Y-5488D02*
D03*
X17042Y-5858D02*
D03*
X16412D02*
D03*
X16727Y-5488D02*
D03*
X15782Y-5858D02*
D03*
X16097Y-5488D02*
D03*
X20192Y7830D02*
D03*
X21452D02*
D03*
X26806Y7460D02*
D03*
X26176D02*
D03*
X25546D02*
D03*
X24916D02*
D03*
X24286D02*
D03*
X23656D02*
D03*
X23026D02*
D03*
X22396D02*
D03*
X21767D02*
D03*
X21137D02*
D03*
X20507D02*
D03*
X19877D02*
D03*
X19247D02*
D03*
X18617D02*
D03*
X17987D02*
D03*
X17042D02*
D03*
X16412D02*
D03*
X24286Y10260D02*
D03*
X20507Y10600D02*
D03*
X27436Y10260D02*
D03*
X26806D02*
D03*
X26176D02*
D03*
X25546D02*
D03*
X24916D02*
D03*
X23341D02*
D03*
X22711D02*
D03*
X22081D02*
D03*
X21452D02*
D03*
X19877D02*
D03*
X19247D02*
D03*
X18617D02*
D03*
X17987D02*
D03*
X43200Y-1900D02*
D03*
X48285Y24666D02*
D03*
X43550Y22600D02*
D03*
X43100D02*
D03*
Y21016D02*
D03*
X43550Y20766D02*
D03*
X43950Y20516D02*
D03*
X42650Y21350D02*
D03*
Y22050D02*
D03*
X48285Y17666D02*
D03*
X43550Y15600D02*
D03*
X43100D02*
D03*
Y14016D02*
D03*
X43550Y13766D02*
D03*
X43950Y13516D02*
D03*
X42650Y14350D02*
D03*
Y15050D02*
D03*
Y8050D02*
D03*
Y7350D02*
D03*
X43950Y6516D02*
D03*
X43550Y6766D02*
D03*
X43100Y7016D02*
D03*
Y8600D02*
D03*
X43550D02*
D03*
X48285Y10666D02*
D03*
X43200Y-15680D02*
D03*
X43950Y-15380D02*
D03*
X45185Y-17369D02*
D03*
X48285Y3666D02*
D03*
X45150D02*
D03*
X43950Y784D02*
D03*
X43200Y1040D02*
D03*
Y5100D02*
D03*
X43950Y5500D02*
D03*
X48285Y-3334D02*
D03*
X45150D02*
D03*
X43950Y-6216D02*
D03*
X43200Y-5960D02*
D03*
X43950Y-1500D02*
D03*
X48285Y-10334D02*
D03*
X45150D02*
D03*
X43950Y-13216D02*
D03*
X43200Y-12960D02*
D03*
Y-8900D02*
D03*
X43950Y-8500D02*
D03*
X48285Y-17334D02*
D03*
X43200Y-19960D02*
D03*
X43950Y-22500D02*
D03*
X43200Y-22900D02*
D03*
Y-26960D02*
D03*
X43950Y-27216D02*
D03*
X45150Y-24334D02*
D03*
X48285D02*
D03*
D78*
X59166Y22732D02*
D03*
Y26268D02*
D03*
Y19268D02*
D03*
Y15732D02*
D03*
Y12268D02*
D03*
X56824Y22874D02*
D03*
Y26126D02*
D03*
Y19126D02*
D03*
Y15874D02*
D03*
Y12126D02*
D03*
X59166Y8732D02*
D03*
Y5268D02*
D03*
Y1732D02*
D03*
Y-1732D02*
D03*
X56824Y8874D02*
D03*
Y1874D02*
D03*
Y-1874D02*
D03*
Y5126D02*
D03*
X59166Y-5268D02*
D03*
Y-8732D02*
D03*
Y-12268D02*
D03*
Y-15732D02*
D03*
X56824Y-5126D02*
D03*
Y-12126D02*
D03*
Y-15874D02*
D03*
Y-8874D02*
D03*
X59166Y-19268D02*
D03*
Y-22732D02*
D03*
Y-26268D02*
D03*
X56824Y-19126D02*
D03*
Y-22874D02*
D03*
Y-26126D02*
D03*
M02*
