G04*
G04 #@! TF.GenerationSoftware,Altium Limited,Altium Designer,25.8.1 (18)*
G04*
G04 Layer_Color=2752767*
%FSLAX24Y24*%
%MOIN*%
G70*
G04*
G04 #@! TF.SameCoordinates,0559D858-52EB-4A24-BF16-3A32F8B75DB2*
G04*
G04*
G04 #@! TF.FilePolarity,Positive*
G04*
G01*
G75*
%ADD80C,0.0020*%
%ADD81C,0.0027*%
%ADD82C,0.0013*%
D80*
X6920Y18000D02*
X7000Y18080D01*
X7080Y18000D01*
X7000Y17920D01*
X6920Y18000D01*
X7920D02*
X8000Y18080D01*
X8080Y18000D01*
X8000Y17920D01*
X7920Y18000D01*
Y17000D02*
X8000Y17080D01*
X8080Y17000D01*
X8000Y16920D01*
X7920Y17000D01*
X19920Y-30000D02*
X20000Y-29920D01*
X20080Y-30000D01*
X20000Y-30080D01*
X19920Y-30000D01*
X22920D02*
X23000Y-29920D01*
X23080Y-30000D01*
X23000Y-30080D01*
X22920Y-30000D01*
X23920D02*
X24000Y-29920D01*
X24080Y-30000D01*
X24000Y-30080D01*
X23920Y-30000D01*
X20920D02*
X21000Y-29920D01*
X21080Y-30000D01*
X21000Y-30080D01*
X20920Y-30000D01*
X21920D02*
X22000Y-29920D01*
X22080Y-30000D01*
X22000Y-30080D01*
X21920Y-30000D01*
X59166Y22652D02*
X59086Y22812D01*
X59246D01*
X59166Y22652D01*
Y22692D02*
X59126Y22772D01*
X59206D01*
X59166Y22692D01*
Y26188D02*
X59086Y26348D01*
X59246D01*
X59166Y26188D01*
Y26228D02*
X59126Y26308D01*
X59206D01*
X59166Y26228D01*
Y19188D02*
X59086Y19348D01*
X59246D01*
X59166Y19188D01*
Y19228D02*
X59126Y19308D01*
X59206D01*
X59166Y19228D01*
Y15652D02*
X59086Y15812D01*
X59246D01*
X59166Y15652D01*
Y15692D02*
X59126Y15772D01*
X59206D01*
X59166Y15692D01*
Y12188D02*
X59086Y12348D01*
X59246D01*
X59166Y12188D01*
Y12228D02*
X59126Y12308D01*
X59206D01*
X59166Y12228D01*
X56824Y22794D02*
X56744Y22954D01*
X56904D01*
X56824Y22794D01*
Y22834D02*
X56784Y22914D01*
X56864D01*
X56824Y22834D01*
Y26046D02*
X56744Y26206D01*
X56904D01*
X56824Y26046D01*
Y26086D02*
X56784Y26166D01*
X56864D01*
X56824Y26086D01*
Y19046D02*
X56744Y19206D01*
X56904D01*
X56824Y19046D01*
Y19086D02*
X56784Y19166D01*
X56864D01*
X56824Y19086D01*
Y15794D02*
X56744Y15954D01*
X56904D01*
X56824Y15794D01*
Y15834D02*
X56784Y15914D01*
X56864D01*
X56824Y15834D01*
Y12046D02*
X56744Y12206D01*
X56904D01*
X56824Y12046D01*
Y12086D02*
X56784Y12166D01*
X56864D01*
X56824Y12086D01*
X59166Y8652D02*
X59086Y8812D01*
X59246D01*
X59166Y8652D01*
Y8692D02*
X59126Y8772D01*
X59206D01*
X59166Y8692D01*
Y5188D02*
X59086Y5348D01*
X59246D01*
X59166Y5188D01*
Y5228D02*
X59126Y5308D01*
X59206D01*
X59166Y5228D01*
Y1652D02*
X59086Y1812D01*
X59246D01*
X59166Y1652D01*
Y1692D02*
X59126Y1772D01*
X59206D01*
X59166Y1692D01*
Y-1812D02*
X59086Y-1652D01*
X59246D01*
X59166Y-1812D01*
Y-1772D02*
X59126Y-1692D01*
X59206D01*
X59166Y-1772D01*
X56824Y8794D02*
X56744Y8954D01*
X56904D01*
X56824Y8794D01*
Y8834D02*
X56784Y8914D01*
X56864D01*
X56824Y8834D01*
Y1794D02*
X56744Y1954D01*
X56904D01*
X56824Y1794D01*
Y1834D02*
X56784Y1914D01*
X56864D01*
X56824Y1834D01*
Y-1954D02*
X56744Y-1794D01*
X56904D01*
X56824Y-1954D01*
Y-1914D02*
X56784Y-1834D01*
X56864D01*
X56824Y-1914D01*
Y5046D02*
X56744Y5206D01*
X56904D01*
X56824Y5046D01*
Y5086D02*
X56784Y5166D01*
X56864D01*
X56824Y5086D01*
X59166Y-5348D02*
X59086Y-5188D01*
X59246D01*
X59166Y-5348D01*
Y-5308D02*
X59126Y-5228D01*
X59206D01*
X59166Y-5308D01*
Y-8812D02*
X59086Y-8652D01*
X59246D01*
X59166Y-8812D01*
Y-8772D02*
X59126Y-8692D01*
X59206D01*
X59166Y-8772D01*
Y-12348D02*
X59086Y-12188D01*
X59246D01*
X59166Y-12348D01*
Y-12308D02*
X59126Y-12228D01*
X59206D01*
X59166Y-12308D01*
Y-15812D02*
X59086Y-15652D01*
X59246D01*
X59166Y-15812D01*
Y-15772D02*
X59126Y-15692D01*
X59206D01*
X59166Y-15772D01*
X56824Y-5206D02*
X56744Y-5046D01*
X56904D01*
X56824Y-5206D01*
Y-5166D02*
X56784Y-5086D01*
X56864D01*
X56824Y-5166D01*
Y-12206D02*
X56744Y-12046D01*
X56904D01*
X56824Y-12206D01*
Y-12166D02*
X56784Y-12086D01*
X56864D01*
X56824Y-12166D01*
Y-15954D02*
X56744Y-15794D01*
X56904D01*
X56824Y-15954D01*
Y-15914D02*
X56784Y-15834D01*
X56864D01*
X56824Y-15914D01*
Y-8954D02*
X56744Y-8794D01*
X56904D01*
X56824Y-8954D01*
Y-8914D02*
X56784Y-8834D01*
X56864D01*
X56824Y-8914D01*
X59166Y-19348D02*
X59086Y-19188D01*
X59246D01*
X59166Y-19348D01*
Y-19308D02*
X59126Y-19228D01*
X59206D01*
X59166Y-19308D01*
Y-22812D02*
X59086Y-22652D01*
X59246D01*
X59166Y-22812D01*
Y-22772D02*
X59126Y-22692D01*
X59206D01*
X59166Y-22772D01*
Y-26348D02*
X59086Y-26188D01*
X59246D01*
X59166Y-26348D01*
Y-26308D02*
X59126Y-26228D01*
X59206D01*
X59166Y-26308D01*
X56824Y-19206D02*
X56744Y-19046D01*
X56904D01*
X56824Y-19206D01*
Y-19166D02*
X56784Y-19086D01*
X56864D01*
X56824Y-19166D01*
Y-22954D02*
X56744Y-22794D01*
X56904D01*
X56824Y-22954D01*
Y-22914D02*
X56784Y-22834D01*
X56864D01*
X56824Y-22914D01*
Y-26206D02*
X56744Y-26046D01*
X56904D01*
X56824Y-26206D01*
Y-26166D02*
X56784Y-26086D01*
X56864D01*
X56824Y-26166D01*
X23920Y18000D02*
X24000Y18080D01*
X24080Y18000D01*
X24000Y17920D01*
X23920Y18000D01*
X3157Y24460D02*
Y24420D01*
X3237D01*
Y24460D01*
X3277D01*
Y24540D01*
X3237D01*
Y24580D01*
X3157D01*
Y24540D01*
X3117D01*
Y24460D01*
X3157D01*
X5920Y17000D02*
X6000Y17080D01*
X6080Y17000D01*
X6000Y16920D01*
X5920Y17000D01*
X40270Y-27020D02*
X40310D01*
X40350Y-26980D01*
X40390Y-27020D01*
X40430D01*
Y-26980D01*
X40390Y-26940D01*
X40430Y-26900D01*
Y-26860D01*
X40390D01*
X40350Y-26900D01*
X40310Y-26860D01*
X40270D01*
Y-26900D01*
X40310Y-26940D01*
X40270Y-26980D01*
Y-27020D01*
X23920Y-20000D02*
X24000Y-19920D01*
X24080Y-20000D01*
X24000Y-20080D01*
X23920Y-20000D01*
X22920Y-21000D02*
X23000Y-20920D01*
X23080Y-21000D01*
X23000Y-21080D01*
X22920Y-21000D01*
X23920D02*
X24000Y-20920D01*
X24080Y-21000D01*
X24000Y-21080D01*
X23920Y-21000D01*
X22920Y-20000D02*
X23000Y-19920D01*
X23080Y-20000D01*
X23000Y-20080D01*
X22920Y-20000D01*
X19920Y-29000D02*
X20000Y-28920D01*
X20080Y-29000D01*
X20000Y-29080D01*
X19920Y-29000D01*
X22920D02*
X23000Y-28920D01*
X23080Y-29000D01*
X23000Y-29080D01*
X22920Y-29000D01*
X23920D02*
X24000Y-28920D01*
X24080Y-29000D01*
X24000Y-29080D01*
X23920Y-29000D01*
X20920D02*
X21000Y-28920D01*
X21080Y-29000D01*
X21000Y-29080D01*
X20920Y-29000D01*
X21920D02*
X22000Y-28920D01*
X22080Y-29000D01*
X22000Y-29080D01*
X21920Y-29000D01*
X56332Y23003D02*
X56371Y23043D01*
X56411D01*
X56371Y23083D01*
X56411Y23123D01*
X56371D01*
X56332Y23163D01*
X56291Y23123D01*
X56252D01*
X56291Y23083D01*
X56252Y23043D01*
X56291D01*
X56332Y23003D01*
Y23043D02*
X56351Y23063D01*
X56371D01*
X56351Y23083D01*
X56371Y23103D01*
X56351D01*
X56332Y23123D01*
X56311Y23103D01*
X56291D01*
X56311Y23083D01*
X56291Y23063D01*
X56311D01*
X56332Y23043D01*
X56251Y25837D02*
X56291Y25917D01*
X56251Y25997D01*
X56331Y25957D01*
X56411Y25997D01*
X56371Y25917D01*
X56411Y25837D01*
X56331Y25877D01*
X56251Y25837D01*
X56291Y25877D02*
X56311Y25917D01*
X56291Y25957D01*
X56331Y25937D01*
X56371Y25957D01*
X56351Y25917D01*
X56371Y25877D01*
X56331Y25897D01*
X56291Y25877D01*
X56332Y16003D02*
X56371Y16043D01*
X56411D01*
X56371Y16083D01*
X56411Y16123D01*
X56371D01*
X56332Y16163D01*
X56291Y16123D01*
X56252D01*
X56291Y16083D01*
X56252Y16043D01*
X56291D01*
X56332Y16003D01*
Y16043D02*
X56351Y16063D01*
X56371D01*
X56351Y16083D01*
X56371Y16103D01*
X56351D01*
X56332Y16123D01*
X56311Y16103D01*
X56291D01*
X56311Y16083D01*
X56291Y16063D01*
X56311D01*
X56332Y16043D01*
X56251Y18837D02*
X56291Y18917D01*
X56251Y18997D01*
X56331Y18957D01*
X56411Y18997D01*
X56371Y18917D01*
X56411Y18837D01*
X56331Y18877D01*
X56251Y18837D01*
X56291Y18877D02*
X56311Y18917D01*
X56291Y18957D01*
X56331Y18937D01*
X56371Y18957D01*
X56351Y18917D01*
X56371Y18877D01*
X56331Y18897D01*
X56291Y18877D01*
X56332Y9003D02*
X56371Y9043D01*
X56411D01*
X56371Y9083D01*
X56411Y9123D01*
X56371D01*
X56332Y9163D01*
X56291Y9123D01*
X56252D01*
X56291Y9083D01*
X56252Y9043D01*
X56291D01*
X56332Y9003D01*
Y9043D02*
X56351Y9063D01*
X56371D01*
X56351Y9083D01*
X56371Y9103D01*
X56351D01*
X56332Y9123D01*
X56311Y9103D01*
X56291D01*
X56311Y9083D01*
X56291Y9063D01*
X56311D01*
X56332Y9043D01*
X56251Y11837D02*
X56291Y11917D01*
X56251Y11997D01*
X56331Y11957D01*
X56411Y11997D01*
X56371Y11917D01*
X56411Y11837D01*
X56331Y11877D01*
X56251Y11837D01*
X56291Y11877D02*
X56311Y11917D01*
X56291Y11957D01*
X56331Y11937D01*
X56371Y11957D01*
X56351Y11917D01*
X56371Y11877D01*
X56331Y11897D01*
X56291Y11877D01*
X56332Y2003D02*
X56371Y2043D01*
X56411D01*
X56371Y2083D01*
X56411Y2123D01*
X56371D01*
X56332Y2163D01*
X56291Y2123D01*
X56252D01*
X56291Y2083D01*
X56252Y2043D01*
X56291D01*
X56332Y2003D01*
Y2043D02*
X56351Y2063D01*
X56371D01*
X56351Y2083D01*
X56371Y2103D01*
X56351D01*
X56332Y2123D01*
X56311Y2103D01*
X56291D01*
X56311Y2083D01*
X56291Y2063D01*
X56311D01*
X56332Y2043D01*
X56251Y4837D02*
X56291Y4917D01*
X56251Y4997D01*
X56331Y4957D01*
X56411Y4997D01*
X56371Y4917D01*
X56411Y4837D01*
X56331Y4877D01*
X56251Y4837D01*
X56291Y4877D02*
X56311Y4917D01*
X56291Y4957D01*
X56331Y4937D01*
X56371Y4957D01*
X56351Y4917D01*
X56371Y4877D01*
X56331Y4897D01*
X56291Y4877D01*
X56332Y-4997D02*
X56371Y-4957D01*
X56411D01*
X56371Y-4917D01*
X56411Y-4877D01*
X56371D01*
X56332Y-4837D01*
X56291Y-4877D01*
X56252D01*
X56291Y-4917D01*
X56252Y-4957D01*
X56291D01*
X56332Y-4997D01*
Y-4957D02*
X56351Y-4937D01*
X56371D01*
X56351Y-4917D01*
X56371Y-4897D01*
X56351D01*
X56332Y-4877D01*
X56311Y-4897D01*
X56291D01*
X56311Y-4917D01*
X56291Y-4937D01*
X56311D01*
X56332Y-4957D01*
X56251Y-2163D02*
X56291Y-2083D01*
X56251Y-2003D01*
X56331Y-2043D01*
X56411Y-2003D01*
X56371Y-2083D01*
X56411Y-2163D01*
X56331Y-2123D01*
X56251Y-2163D01*
X56291Y-2123D02*
X56311Y-2083D01*
X56291Y-2043D01*
X56331Y-2063D01*
X56371Y-2043D01*
X56351Y-2083D01*
X56371Y-2123D01*
X56331Y-2103D01*
X56291Y-2123D01*
X56332Y-11997D02*
X56371Y-11957D01*
X56411D01*
X56371Y-11917D01*
X56411Y-11877D01*
X56371D01*
X56332Y-11837D01*
X56291Y-11877D01*
X56252D01*
X56291Y-11917D01*
X56252Y-11957D01*
X56291D01*
X56332Y-11997D01*
Y-11957D02*
X56351Y-11937D01*
X56371D01*
X56351Y-11917D01*
X56371Y-11897D01*
X56351D01*
X56332Y-11877D01*
X56311Y-11897D01*
X56291D01*
X56311Y-11917D01*
X56291Y-11937D01*
X56311D01*
X56332Y-11957D01*
X56251Y-9163D02*
X56291Y-9083D01*
X56251Y-9003D01*
X56331Y-9043D01*
X56411Y-9003D01*
X56371Y-9083D01*
X56411Y-9163D01*
X56331Y-9123D01*
X56251Y-9163D01*
X56291Y-9123D02*
X56311Y-9083D01*
X56291Y-9043D01*
X56331Y-9063D01*
X56371Y-9043D01*
X56351Y-9083D01*
X56371Y-9123D01*
X56331Y-9103D01*
X56291Y-9123D01*
X56332Y-18997D02*
X56371Y-18957D01*
X56411D01*
X56371Y-18917D01*
X56411Y-18877D01*
X56371D01*
X56332Y-18837D01*
X56291Y-18877D01*
X56252D01*
X56291Y-18917D01*
X56252Y-18957D01*
X56291D01*
X56332Y-18997D01*
Y-18957D02*
X56351Y-18937D01*
X56371D01*
X56351Y-18917D01*
X56371Y-18897D01*
X56351D01*
X56332Y-18877D01*
X56311Y-18897D01*
X56291D01*
X56311Y-18917D01*
X56291Y-18937D01*
X56311D01*
X56332Y-18957D01*
X56251Y-16163D02*
X56291Y-16083D01*
X56251Y-16003D01*
X56331Y-16043D01*
X56411Y-16003D01*
X56371Y-16083D01*
X56411Y-16163D01*
X56331Y-16123D01*
X56251Y-16163D01*
X56291Y-16123D02*
X56311Y-16083D01*
X56291Y-16043D01*
X56331Y-16063D01*
X56371Y-16043D01*
X56351Y-16083D01*
X56371Y-16123D01*
X56331Y-16103D01*
X56291Y-16123D01*
X56332Y-25997D02*
X56371Y-25957D01*
X56411D01*
X56371Y-25917D01*
X56411Y-25877D01*
X56371D01*
X56332Y-25837D01*
X56291Y-25877D01*
X56252D01*
X56291Y-25917D01*
X56252Y-25957D01*
X56291D01*
X56332Y-25997D01*
Y-25957D02*
X56351Y-25937D01*
X56371D01*
X56351Y-25917D01*
X56371Y-25897D01*
X56351D01*
X56332Y-25877D01*
X56311Y-25897D01*
X56291D01*
X56311Y-25917D01*
X56291Y-25937D01*
X56311D01*
X56332Y-25957D01*
X56251Y-23163D02*
X56291Y-23083D01*
X56251Y-23003D01*
X56331Y-23043D01*
X56411Y-23003D01*
X56371Y-23083D01*
X56411Y-23163D01*
X56331Y-23123D01*
X56251Y-23163D01*
X56291Y-23123D02*
X56311Y-23083D01*
X56291Y-23043D01*
X56331Y-23063D01*
X56371Y-23043D01*
X56351Y-23083D01*
X56371Y-23123D01*
X56331Y-23103D01*
X56291Y-23123D01*
X4338Y22610D02*
Y22570D01*
X4418D01*
Y22610D01*
X4458D01*
Y22690D01*
X4418D01*
Y22730D01*
X4338D01*
Y22690D01*
X4298D01*
Y22610D01*
X4338D01*
X5519Y24460D02*
Y24420D01*
X5599D01*
Y24460D01*
X5639D01*
Y24540D01*
X5599D01*
Y24580D01*
X5519D01*
Y24540D01*
X5479D01*
Y24460D01*
X5519D01*
X14742Y-7155D02*
Y-6995D01*
X14902D01*
Y-7155D01*
X14742D01*
X28316D02*
Y-6995D01*
X28476D01*
Y-7155D01*
X28316D01*
X40270Y-29020D02*
X40310D01*
X40350Y-28980D01*
X40390Y-29020D01*
X40430D01*
Y-28980D01*
X40390Y-28940D01*
X40430Y-28900D01*
Y-28860D01*
X40390D01*
X40350Y-28900D01*
X40310Y-28860D01*
X40270D01*
Y-28900D01*
X40310Y-28940D01*
X40270Y-28980D01*
Y-29020D01*
Y-28020D02*
X40310D01*
X40350Y-27980D01*
X40390Y-28020D01*
X40430D01*
Y-27980D01*
X40390Y-27940D01*
X40430Y-27900D01*
Y-27860D01*
X40390D01*
X40350Y-27900D01*
X40310Y-27860D01*
X40270D01*
Y-27900D01*
X40310Y-27940D01*
X40270Y-27980D01*
Y-28020D01*
X4920Y-29000D02*
X5000Y-28920D01*
X5080Y-29000D01*
X5000Y-29080D01*
X4920Y-29000D01*
Y-30000D02*
X5000Y-29920D01*
X5080Y-30000D01*
X5000Y-30080D01*
X4920Y-30000D01*
X5920Y-29000D02*
X6000Y-28920D01*
X6080Y-29000D01*
X6000Y-29080D01*
X5920Y-29000D01*
Y-30000D02*
X6000Y-29920D01*
X6080Y-30000D01*
X6000Y-30080D01*
X5920Y-30000D01*
X6920Y-29000D02*
X7000Y-28920D01*
X7080Y-29000D01*
X7000Y-29080D01*
X6920Y-29000D01*
Y-30000D02*
X7000Y-29920D01*
X7080Y-30000D01*
X7000Y-30080D01*
X6920Y-30000D01*
X7920Y-29000D02*
X8000Y-28920D01*
X8080Y-29000D01*
X8000Y-29080D01*
X7920Y-29000D01*
Y-30000D02*
X8000Y-29920D01*
X8080Y-30000D01*
X8000Y-30080D01*
X7920Y-30000D01*
X8920Y-29000D02*
X9000Y-28920D01*
X9080Y-29000D01*
X9000Y-29080D01*
X8920Y-29000D01*
Y-30000D02*
X9000Y-29920D01*
X9080Y-30000D01*
X9000Y-30080D01*
X8920Y-30000D01*
X9920Y-29000D02*
X10000Y-28920D01*
X10080Y-29000D01*
X10000Y-29080D01*
X9920Y-29000D01*
Y-30000D02*
X10000Y-29920D01*
X10080Y-30000D01*
X10000Y-30080D01*
X9920Y-30000D01*
X10920Y-29000D02*
X11000Y-28920D01*
X11080Y-29000D01*
X11000Y-29080D01*
X10920Y-29000D01*
Y-30000D02*
X11000Y-29920D01*
X11080Y-30000D01*
X11000Y-30080D01*
X10920Y-30000D01*
X11920Y-29000D02*
X12000Y-28920D01*
X12080Y-29000D01*
X12000Y-29080D01*
X11920Y-29000D01*
Y-30000D02*
X12000Y-29920D01*
X12080Y-30000D01*
X12000Y-30080D01*
X11920Y-30000D01*
X12920Y-29000D02*
X13000Y-28920D01*
X13080Y-29000D01*
X13000Y-29080D01*
X12920Y-29000D01*
Y-30000D02*
X13000Y-29920D01*
X13080Y-30000D01*
X13000Y-30080D01*
X12920Y-30000D01*
X13920Y-29000D02*
X14000Y-28920D01*
X14080Y-29000D01*
X14000Y-29080D01*
X13920Y-29000D01*
Y-30000D02*
X14000Y-29920D01*
X14080Y-30000D01*
X14000Y-30080D01*
X13920Y-30000D01*
X14920Y-29000D02*
X15000Y-28920D01*
X15080Y-29000D01*
X15000Y-29080D01*
X14920Y-29000D01*
Y-30000D02*
X15000Y-29920D01*
X15080Y-30000D01*
X15000Y-30080D01*
X14920Y-30000D01*
X15920Y-29000D02*
X16000Y-28920D01*
X16080Y-29000D01*
X16000Y-29080D01*
X15920Y-29000D01*
Y-30000D02*
X16000Y-29920D01*
X16080Y-30000D01*
X16000Y-30080D01*
X15920Y-30000D01*
X16920Y-29000D02*
X17000Y-28920D01*
X17080Y-29000D01*
X17000Y-29080D01*
X16920Y-29000D01*
Y-30000D02*
X17000Y-29920D01*
X17080Y-30000D01*
X17000Y-30080D01*
X16920Y-30000D01*
X17920Y-29000D02*
X18000Y-28920D01*
X18080Y-29000D01*
X18000Y-29080D01*
X17920Y-29000D01*
Y-30000D02*
X18000Y-29920D01*
X18080Y-30000D01*
X18000Y-30080D01*
X17920Y-30000D01*
X18920Y-29000D02*
X19000Y-28920D01*
X19080Y-29000D01*
X19000Y-29080D01*
X18920Y-29000D01*
Y-30000D02*
X19000Y-29920D01*
X19080Y-30000D01*
X19000Y-30080D01*
X18920Y-30000D01*
X4920Y-20000D02*
X5000Y-19920D01*
X5080Y-20000D01*
X5000Y-20080D01*
X4920Y-20000D01*
Y-21000D02*
X5000Y-20920D01*
X5080Y-21000D01*
X5000Y-21080D01*
X4920Y-21000D01*
X5920Y-20000D02*
X6000Y-19920D01*
X6080Y-20000D01*
X6000Y-20080D01*
X5920Y-20000D01*
Y-21000D02*
X6000Y-20920D01*
X6080Y-21000D01*
X6000Y-21080D01*
X5920Y-21000D01*
X6920Y-20000D02*
X7000Y-19920D01*
X7080Y-20000D01*
X7000Y-20080D01*
X6920Y-20000D01*
Y-21000D02*
X7000Y-20920D01*
X7080Y-21000D01*
X7000Y-21080D01*
X6920Y-21000D01*
X7920Y-20000D02*
X8000Y-19920D01*
X8080Y-20000D01*
X8000Y-20080D01*
X7920Y-20000D01*
Y-21000D02*
X8000Y-20920D01*
X8080Y-21000D01*
X8000Y-21080D01*
X7920Y-21000D01*
X8920Y-20000D02*
X9000Y-19920D01*
X9080Y-20000D01*
X9000Y-20080D01*
X8920Y-20000D01*
Y-21000D02*
X9000Y-20920D01*
X9080Y-21000D01*
X9000Y-21080D01*
X8920Y-21000D01*
X9920Y-20000D02*
X10000Y-19920D01*
X10080Y-20000D01*
X10000Y-20080D01*
X9920Y-20000D01*
Y-21000D02*
X10000Y-20920D01*
X10080Y-21000D01*
X10000Y-21080D01*
X9920Y-21000D01*
X10920Y-20000D02*
X11000Y-19920D01*
X11080Y-20000D01*
X11000Y-20080D01*
X10920Y-20000D01*
Y-21000D02*
X11000Y-20920D01*
X11080Y-21000D01*
X11000Y-21080D01*
X10920Y-21000D01*
X11920Y-20000D02*
X12000Y-19920D01*
X12080Y-20000D01*
X12000Y-20080D01*
X11920Y-20000D01*
Y-21000D02*
X12000Y-20920D01*
X12080Y-21000D01*
X12000Y-21080D01*
X11920Y-21000D01*
X12920Y-20000D02*
X13000Y-19920D01*
X13080Y-20000D01*
X13000Y-20080D01*
X12920Y-20000D01*
Y-21000D02*
X13000Y-20920D01*
X13080Y-21000D01*
X13000Y-21080D01*
X12920Y-21000D01*
X13920Y-20000D02*
X14000Y-19920D01*
X14080Y-20000D01*
X14000Y-20080D01*
X13920Y-20000D01*
Y-21000D02*
X14000Y-20920D01*
X14080Y-21000D01*
X14000Y-21080D01*
X13920Y-21000D01*
X14920Y-20000D02*
X15000Y-19920D01*
X15080Y-20000D01*
X15000Y-20080D01*
X14920Y-20000D01*
Y-21000D02*
X15000Y-20920D01*
X15080Y-21000D01*
X15000Y-21080D01*
X14920Y-21000D01*
X15920Y-20000D02*
X16000Y-19920D01*
X16080Y-20000D01*
X16000Y-20080D01*
X15920Y-20000D01*
Y-21000D02*
X16000Y-20920D01*
X16080Y-21000D01*
X16000Y-21080D01*
X15920Y-21000D01*
X16920Y-20000D02*
X17000Y-19920D01*
X17080Y-20000D01*
X17000Y-20080D01*
X16920Y-20000D01*
Y-21000D02*
X17000Y-20920D01*
X17080Y-21000D01*
X17000Y-21080D01*
X16920Y-21000D01*
X17920Y-20000D02*
X18000Y-19920D01*
X18080Y-20000D01*
X18000Y-20080D01*
X17920Y-20000D01*
Y-21000D02*
X18000Y-20920D01*
X18080Y-21000D01*
X18000Y-21080D01*
X17920Y-21000D01*
X18920Y-20000D02*
X19000Y-19920D01*
X19080Y-20000D01*
X19000Y-20080D01*
X18920Y-20000D01*
Y-21000D02*
X19000Y-20920D01*
X19080Y-21000D01*
X19000Y-21080D01*
X18920Y-21000D01*
X19920Y-20000D02*
X20000Y-19920D01*
X20080Y-20000D01*
X20000Y-20080D01*
X19920Y-20000D01*
Y-21000D02*
X20000Y-20920D01*
X20080Y-21000D01*
X20000Y-21080D01*
X19920Y-21000D01*
X20920Y-20000D02*
X21000Y-19920D01*
X21080Y-20000D01*
X21000Y-20080D01*
X20920Y-20000D01*
Y-21000D02*
X21000Y-20920D01*
X21080Y-21000D01*
X21000Y-21080D01*
X20920Y-21000D01*
X21920Y-20000D02*
X22000Y-19920D01*
X22080Y-20000D01*
X22000Y-20080D01*
X21920Y-20000D01*
Y-21000D02*
X22000Y-20920D01*
X22080Y-21000D01*
X22000Y-21080D01*
X21920Y-21000D01*
X4920Y18000D02*
X5000Y18080D01*
X5080Y18000D01*
X5000Y17920D01*
X4920Y18000D01*
Y17000D02*
X5000Y17080D01*
X5080Y17000D01*
X5000Y16920D01*
X4920Y17000D01*
X5920Y18000D02*
X6000Y18080D01*
X6080Y18000D01*
X6000Y17920D01*
X5920Y18000D01*
X6920Y17000D02*
X7000Y17080D01*
X7080Y17000D01*
X7000Y16920D01*
X6920Y17000D01*
X8920Y18000D02*
X9000Y18080D01*
X9080Y18000D01*
X9000Y17920D01*
X8920Y18000D01*
Y17000D02*
X9000Y17080D01*
X9080Y17000D01*
X9000Y16920D01*
X8920Y17000D01*
X9920Y18000D02*
X10000Y18080D01*
X10080Y18000D01*
X10000Y17920D01*
X9920Y18000D01*
Y17000D02*
X10000Y17080D01*
X10080Y17000D01*
X10000Y16920D01*
X9920Y17000D01*
X10920Y18000D02*
X11000Y18080D01*
X11080Y18000D01*
X11000Y17920D01*
X10920Y18000D01*
Y17000D02*
X11000Y17080D01*
X11080Y17000D01*
X11000Y16920D01*
X10920Y17000D01*
X11920Y18000D02*
X12000Y18080D01*
X12080Y18000D01*
X12000Y17920D01*
X11920Y18000D01*
Y17000D02*
X12000Y17080D01*
X12080Y17000D01*
X12000Y16920D01*
X11920Y17000D01*
X12920Y18000D02*
X13000Y18080D01*
X13080Y18000D01*
X13000Y17920D01*
X12920Y18000D01*
Y17000D02*
X13000Y17080D01*
X13080Y17000D01*
X13000Y16920D01*
X12920Y17000D01*
X13920Y18000D02*
X14000Y18080D01*
X14080Y18000D01*
X14000Y17920D01*
X13920Y18000D01*
Y17000D02*
X14000Y17080D01*
X14080Y17000D01*
X14000Y16920D01*
X13920Y17000D01*
X14920Y18000D02*
X15000Y18080D01*
X15080Y18000D01*
X15000Y17920D01*
X14920Y18000D01*
Y17000D02*
X15000Y17080D01*
X15080Y17000D01*
X15000Y16920D01*
X14920Y17000D01*
X15920Y18000D02*
X16000Y18080D01*
X16080Y18000D01*
X16000Y17920D01*
X15920Y18000D01*
Y17000D02*
X16000Y17080D01*
X16080Y17000D01*
X16000Y16920D01*
X15920Y17000D01*
X16920Y18000D02*
X17000Y18080D01*
X17080Y18000D01*
X17000Y17920D01*
X16920Y18000D01*
Y17000D02*
X17000Y17080D01*
X17080Y17000D01*
X17000Y16920D01*
X16920Y17000D01*
X17920Y18000D02*
X18000Y18080D01*
X18080Y18000D01*
X18000Y17920D01*
X17920Y18000D01*
Y17000D02*
X18000Y17080D01*
X18080Y17000D01*
X18000Y16920D01*
X17920Y17000D01*
X18920Y18000D02*
X19000Y18080D01*
X19080Y18000D01*
X19000Y17920D01*
X18920Y18000D01*
Y17000D02*
X19000Y17080D01*
X19080Y17000D01*
X19000Y16920D01*
X18920Y17000D01*
X19920Y18000D02*
X20000Y18080D01*
X20080Y18000D01*
X20000Y17920D01*
X19920Y18000D01*
Y17000D02*
X20000Y17080D01*
X20080Y17000D01*
X20000Y16920D01*
X19920Y17000D01*
X20920Y18000D02*
X21000Y18080D01*
X21080Y18000D01*
X21000Y17920D01*
X20920Y18000D01*
Y17000D02*
X21000Y17080D01*
X21080Y17000D01*
X21000Y16920D01*
X20920Y17000D01*
X21920Y18000D02*
X22000Y18080D01*
X22080Y18000D01*
X22000Y17920D01*
X21920Y18000D01*
Y17000D02*
X22000Y17080D01*
X22080Y17000D01*
X22000Y16920D01*
X21920Y17000D01*
X22920Y18000D02*
X23000Y18080D01*
X23080Y18000D01*
X23000Y17920D01*
X22920Y18000D01*
Y17000D02*
X23000Y17080D01*
X23080Y17000D01*
X23000Y16920D01*
X22920Y17000D01*
X23920D02*
X24000Y17080D01*
X24080Y17000D01*
X24000Y16920D01*
X23920Y17000D01*
X14742Y8593D02*
Y8753D01*
X14902D01*
Y8593D01*
X14742D01*
X28316D02*
Y8753D01*
X28476D01*
Y8593D01*
X28316D01*
X57220Y29970D02*
Y30130D01*
X57380D01*
Y29970D01*
X57220D01*
X57260Y30010D02*
Y30090D01*
X57340D01*
Y30010D01*
X57260D01*
X2420Y29970D02*
Y30130D01*
X2580D01*
Y29970D01*
X2420D01*
X2460Y30010D02*
Y30090D01*
X2540D01*
Y30010D01*
X2460D01*
X3220Y8581D02*
Y8741D01*
X3380D01*
Y8581D01*
X3220D01*
X3260Y8621D02*
Y8701D01*
X3340D01*
Y8621D01*
X3260D01*
X30385Y8581D02*
Y8741D01*
X30545D01*
Y8581D01*
X30385D01*
X30425Y8621D02*
Y8701D01*
X30505D01*
Y8621D01*
X30425D01*
X30385Y-8741D02*
Y-8581D01*
X30545D01*
Y-8741D01*
X30385D01*
X30425Y-8701D02*
Y-8621D01*
X30505D01*
Y-8701D01*
X30425D01*
X3220Y-8741D02*
Y-8581D01*
X3380D01*
Y-8741D01*
X3220D01*
X3260Y-8701D02*
Y-8621D01*
X3340D01*
Y-8701D01*
X3260D01*
X57220Y-30030D02*
Y-29870D01*
X57380D01*
Y-30030D01*
X57220D01*
X57260Y-29990D02*
Y-29910D01*
X57340D01*
Y-29990D01*
X57260D01*
X2420Y-30030D02*
Y-29870D01*
X2580D01*
Y-30030D01*
X2420D01*
X2460Y-29990D02*
Y-29910D01*
X2540D01*
Y-29990D01*
X2460D01*
D81*
X7330Y26550D02*
G03*
X7330Y26550I-80J0D01*
G01*
X8830D02*
G03*
X8830Y26550I-80J0D01*
G01*
X10330D02*
G03*
X10330Y26550I-80J0D01*
G01*
X15547Y-5488D02*
G03*
X15547Y-5488I-80J0D01*
G01*
X17437D02*
G03*
X17437Y-5488I-80J0D01*
G01*
X27831Y-8288D02*
G03*
X27831Y-8288I-80J0D01*
G01*
X24051D02*
G03*
X24051Y-8288I-80J0D01*
G01*
X20902Y-7918D02*
G03*
X20902Y-7918I-80J0D01*
G01*
X17437Y-8288D02*
G03*
X17437Y-8288I-80J0D01*
G01*
X24051Y10600D02*
G03*
X24051Y10600I-80J0D01*
G01*
X15547Y7460D02*
G03*
X15547Y7460I-80J0D01*
G01*
X20902Y10260D02*
G03*
X20902Y10260I-80J0D01*
G01*
X27831Y5879D02*
G03*
X27831Y5879I-80J0D01*
G01*
X17437Y7830D02*
G03*
X17437Y7830I-80J0D01*
G01*
X53480Y30343D02*
G03*
X53480Y30343I-80J0D01*
G01*
X49543D02*
G03*
X49543Y30343I-80J0D01*
G01*
X45606D02*
G03*
X45606Y30343I-80J0D01*
G01*
X43637Y26406D02*
G03*
X43637Y26406I-80J0D01*
G01*
Y18532D02*
G03*
X43637Y18532I-80J0D01*
G01*
X41669Y30343D02*
G03*
X41669Y30343I-80J0D01*
G01*
X39700Y26406D02*
G03*
X39700Y26406I-80J0D01*
G01*
X41669Y-1154D02*
G03*
X41669Y-1154I-80J0D01*
G01*
X39700Y-20839D02*
G03*
X39700Y-20839I-80J0D01*
G01*
X37732Y30343D02*
G03*
X37732Y30343I-80J0D01*
G01*
X35763Y26406D02*
G03*
X35763Y26406I-80J0D01*
G01*
X37732Y22469D02*
G03*
X37732Y22469I-80J0D01*
G01*
X35763Y18532D02*
G03*
X35763Y18532I-80J0D01*
G01*
X37732Y-1154D02*
G03*
X37732Y-1154I-80J0D01*
G01*
X33795Y30343D02*
G03*
X33795Y30343I-80J0D01*
G01*
X31826Y26406D02*
G03*
X31826Y26406I-80J0D01*
G01*
X33795Y22469D02*
G03*
X33795Y22469I-80J0D01*
G01*
X31826Y18532D02*
G03*
X31826Y18532I-80J0D01*
G01*
X33795Y14595D02*
G03*
X33795Y14595I-80J0D01*
G01*
X31826Y10657D02*
G03*
X31826Y10657I-80J0D01*
G01*
Y-28713D02*
G03*
X31826Y-28713I-80J0D01*
G01*
X29858Y30343D02*
G03*
X29858Y30343I-80J0D01*
G01*
Y22469D02*
G03*
X29858Y22469I-80J0D01*
G01*
Y6720D02*
G03*
X29858Y6720I-80J0D01*
G01*
X27889Y-28713D02*
G03*
X27889Y-28713I-80J0D01*
G01*
X20015Y26406D02*
G03*
X20015Y26406I-80J0D01*
G01*
X18047Y30343D02*
G03*
X18047Y30343I-80J0D01*
G01*
X16078Y26406D02*
G03*
X16078Y26406I-80J0D01*
G01*
X18047Y22469D02*
G03*
X18047Y22469I-80J0D01*
G01*
X14110Y30343D02*
G03*
X14110Y30343I-80J0D01*
G01*
Y22469D02*
G03*
X14110Y22469I-80J0D01*
G01*
X10173Y6720D02*
G03*
X10173Y6720I-80J0D01*
G01*
X6236D02*
G03*
X6236Y6720I-80J0D01*
G01*
X4267Y2783D02*
G03*
X4267Y2783I-80J0D01*
G01*
Y-5091D02*
G03*
X4267Y-5091I-80J0D01*
G01*
Y-12965D02*
G03*
X4267Y-12965I-80J0D01*
G01*
X2299Y6720D02*
G03*
X2299Y6720I-80J0D01*
G01*
Y-1154D02*
G03*
X2299Y-1154I-80J0D01*
G01*
Y-16902D02*
G03*
X2299Y-16902I-80J0D01*
G01*
Y-24776D02*
G03*
X2299Y-24776I-80J0D01*
G01*
X43596Y-26328D02*
G03*
X43596Y-26328I-80J0D01*
G01*
Y-25988D02*
G03*
X43596Y-25988I-80J0D01*
G01*
Y-25648D02*
G03*
X43596Y-25648I-80J0D01*
G01*
Y-25308D02*
G03*
X43596Y-25308I-80J0D01*
G01*
Y-24968D02*
G03*
X43596Y-24968I-80J0D01*
G01*
X43714Y-24649D02*
G03*
X43714Y-24649I-80J0D01*
G01*
X52666Y-24315D02*
G03*
X52666Y-24315I-80J0D01*
G01*
X52907Y-24555D02*
G03*
X52907Y-24555I-80J0D01*
G01*
X53149Y-24794D02*
G03*
X53149Y-24794I-80J0D01*
G01*
X53482Y-24863D02*
G03*
X53482Y-24863I-80J0D01*
G01*
X53136Y-25023D02*
G03*
X53136Y-25023I-80J0D01*
G01*
X52796D02*
G03*
X52796Y-25023I-80J0D01*
G01*
X52456D02*
G03*
X52456Y-25023I-80J0D01*
G01*
X52116D02*
G03*
X52116Y-25023I-80J0D01*
G01*
X52039Y-24396D02*
G03*
X52039Y-24396I-80J0D01*
G01*
X52068Y-24057D02*
G03*
X52068Y-24057I-80J0D01*
G01*
X52408D02*
G03*
X52408Y-24057I-80J0D01*
G01*
X54993Y-23977D02*
G03*
X54993Y-23977I-80J0D01*
G01*
X54693Y-24137D02*
G03*
X54693Y-24137I-80J0D01*
G01*
X54359Y-24077D02*
G03*
X54359Y-24077I-80J0D01*
G01*
X54024Y-24137D02*
G03*
X54024Y-24137I-80J0D01*
G01*
X53684D02*
G03*
X53684Y-24137I-80J0D01*
G01*
X53374Y-23997D02*
G03*
X53374Y-23997I-80J0D01*
G01*
X36504Y-23882D02*
G03*
X36504Y-23882I-80J0D01*
G01*
X36844D02*
G03*
X36844Y-23882I-80J0D01*
G01*
X37184D02*
G03*
X37184Y-23882I-80J0D01*
G01*
X37524D02*
G03*
X37524Y-23882I-80J0D01*
G01*
X37864D02*
G03*
X37864Y-23882I-80J0D01*
G01*
X38204D02*
G03*
X38204Y-23882I-80J0D01*
G01*
X38544D02*
G03*
X38544Y-23882I-80J0D01*
G01*
X38884D02*
G03*
X38884Y-23882I-80J0D01*
G01*
X39224D02*
G03*
X39224Y-23882I-80J0D01*
G01*
X39564D02*
G03*
X39564Y-23882I-80J0D01*
G01*
X39904D02*
G03*
X39904Y-23882I-80J0D01*
G01*
X40244D02*
G03*
X40244Y-23882I-80J0D01*
G01*
X40584D02*
G03*
X40584Y-23882I-80J0D01*
G01*
X40924D02*
G03*
X40924Y-23882I-80J0D01*
G01*
X41264D02*
G03*
X41264Y-23882I-80J0D01*
G01*
X41604D02*
G03*
X41604Y-23882I-80J0D01*
G01*
X41944D02*
G03*
X41944Y-23882I-80J0D01*
G01*
X42284D02*
G03*
X42284Y-23882I-80J0D01*
G01*
X42624D02*
G03*
X42624Y-23882I-80J0D01*
G01*
X42964D02*
G03*
X42964Y-23882I-80J0D01*
G01*
X43596Y-19524D02*
G03*
X43596Y-19524I-80J0D01*
G01*
Y-19184D02*
G03*
X43596Y-19184I-80J0D01*
G01*
Y-18844D02*
G03*
X43596Y-18844I-80J0D01*
G01*
Y-18504D02*
G03*
X43596Y-18504I-80J0D01*
G01*
Y-18164D02*
G03*
X43596Y-18164I-80J0D01*
G01*
Y-17824D02*
G03*
X43596Y-17824I-80J0D01*
G01*
Y-17484D02*
G03*
X43596Y-17484I-80J0D01*
G01*
X43714Y-17166D02*
G03*
X43714Y-17166I-80J0D01*
G01*
X52666Y-17315D02*
G03*
X52666Y-17315I-80J0D01*
G01*
X52907Y-17555D02*
G03*
X52907Y-17555I-80J0D01*
G01*
X53149Y-17794D02*
G03*
X53149Y-17794I-80J0D01*
G01*
X53482Y-17863D02*
G03*
X53482Y-17863I-80J0D01*
G01*
X53136Y-18023D02*
G03*
X53136Y-18023I-80J0D01*
G01*
X52796D02*
G03*
X52796Y-18023I-80J0D01*
G01*
X52456D02*
G03*
X52456Y-18023I-80J0D01*
G01*
X52116D02*
G03*
X52116Y-18023I-80J0D01*
G01*
X52039Y-17396D02*
G03*
X52039Y-17396I-80J0D01*
G01*
X52068Y-17057D02*
G03*
X52068Y-17057I-80J0D01*
G01*
X52408D02*
G03*
X52408Y-17057I-80J0D01*
G01*
X54993Y-16977D02*
G03*
X54993Y-16977I-80J0D01*
G01*
X54693Y-17137D02*
G03*
X54693Y-17137I-80J0D01*
G01*
X54359Y-17077D02*
G03*
X54359Y-17077I-80J0D01*
G01*
X54024Y-17137D02*
G03*
X54024Y-17137I-80J0D01*
G01*
X53684D02*
G03*
X53684Y-17137I-80J0D01*
G01*
X53374Y-16997D02*
G03*
X53374Y-16997I-80J0D01*
G01*
X43596Y-12328D02*
G03*
X43596Y-12328I-80J0D01*
G01*
Y-11988D02*
G03*
X43596Y-11988I-80J0D01*
G01*
Y-11648D02*
G03*
X43596Y-11648I-80J0D01*
G01*
Y-11308D02*
G03*
X43596Y-11308I-80J0D01*
G01*
Y-10968D02*
G03*
X43596Y-10968I-80J0D01*
G01*
X43714Y-10649D02*
G03*
X43714Y-10649I-80J0D01*
G01*
X52666Y-10315D02*
G03*
X52666Y-10315I-80J0D01*
G01*
X52907Y-10555D02*
G03*
X52907Y-10555I-80J0D01*
G01*
X53149Y-10794D02*
G03*
X53149Y-10794I-80J0D01*
G01*
X53482Y-10863D02*
G03*
X53482Y-10863I-80J0D01*
G01*
X53136Y-11023D02*
G03*
X53136Y-11023I-80J0D01*
G01*
X52796D02*
G03*
X52796Y-11023I-80J0D01*
G01*
X52456D02*
G03*
X52456Y-11023I-80J0D01*
G01*
X52116D02*
G03*
X52116Y-11023I-80J0D01*
G01*
X52039Y-10396D02*
G03*
X52039Y-10396I-80J0D01*
G01*
X52068Y-10057D02*
G03*
X52068Y-10057I-80J0D01*
G01*
X52408D02*
G03*
X52408Y-10057I-80J0D01*
G01*
X54993Y-9977D02*
G03*
X54993Y-9977I-80J0D01*
G01*
X54693Y-10137D02*
G03*
X54693Y-10137I-80J0D01*
G01*
X54359Y-10077D02*
G03*
X54359Y-10077I-80J0D01*
G01*
X54024Y-10137D02*
G03*
X54024Y-10137I-80J0D01*
G01*
X53684D02*
G03*
X53684Y-10137I-80J0D01*
G01*
X53374Y-9997D02*
G03*
X53374Y-9997I-80J0D01*
G01*
X43596Y-5371D02*
G03*
X43596Y-5371I-80J0D01*
G01*
Y-5031D02*
G03*
X43596Y-5031I-80J0D01*
G01*
X43714Y-4712D02*
G03*
X43714Y-4712I-80J0D01*
G01*
X52666Y-3315D02*
G03*
X52666Y-3315I-80J0D01*
G01*
X52907Y-3555D02*
G03*
X52907Y-3555I-80J0D01*
G01*
X53149Y-3794D02*
G03*
X53149Y-3794I-80J0D01*
G01*
X53482Y-3863D02*
G03*
X53482Y-3863I-80J0D01*
G01*
X53136Y-4023D02*
G03*
X53136Y-4023I-80J0D01*
G01*
X52796D02*
G03*
X52796Y-4023I-80J0D01*
G01*
X52456D02*
G03*
X52456Y-4023I-80J0D01*
G01*
X52116D02*
G03*
X52116Y-4023I-80J0D01*
G01*
X52039Y-3396D02*
G03*
X52039Y-3396I-80J0D01*
G01*
X52068Y-3057D02*
G03*
X52068Y-3057I-80J0D01*
G01*
X52408D02*
G03*
X52408Y-3057I-80J0D01*
G01*
X54993Y-2977D02*
G03*
X54993Y-2977I-80J0D01*
G01*
X54693Y-3137D02*
G03*
X54693Y-3137I-80J0D01*
G01*
X54359Y-3077D02*
G03*
X54359Y-3077I-80J0D01*
G01*
X54024Y-3137D02*
G03*
X54024Y-3137I-80J0D01*
G01*
X53684D02*
G03*
X53684Y-3137I-80J0D01*
G01*
X53374Y-2997D02*
G03*
X53374Y-2997I-80J0D01*
G01*
X43596Y-2814D02*
G03*
X43596Y-2814I-80J0D01*
G01*
Y-2474D02*
G03*
X43596Y-2474I-80J0D01*
G01*
Y-2134D02*
G03*
X43596Y-2134I-80J0D01*
G01*
X43714Y-1816D02*
G03*
X43714Y-1816I-80J0D01*
G01*
X43596Y1672D02*
G03*
X43596Y1672I-80J0D01*
G01*
Y2012D02*
G03*
X43596Y2012I-80J0D01*
G01*
Y2352D02*
G03*
X43596Y2352I-80J0D01*
G01*
Y2692D02*
G03*
X43596Y2692I-80J0D01*
G01*
Y3032D02*
G03*
X43596Y3032I-80J0D01*
G01*
X43714Y3351D02*
G03*
X43714Y3351I-80J0D01*
G01*
X52666Y3685D02*
G03*
X52666Y3685I-80J0D01*
G01*
X52907Y3445D02*
G03*
X52907Y3445I-80J0D01*
G01*
X53149Y3206D02*
G03*
X53149Y3206I-80J0D01*
G01*
X53482Y3137D02*
G03*
X53482Y3137I-80J0D01*
G01*
X53136Y2977D02*
G03*
X53136Y2977I-80J0D01*
G01*
X52796D02*
G03*
X52796Y2977I-80J0D01*
G01*
X52456D02*
G03*
X52456Y2977I-80J0D01*
G01*
X52116D02*
G03*
X52116Y2977I-80J0D01*
G01*
X52039Y3604D02*
G03*
X52039Y3604I-80J0D01*
G01*
X52068Y3943D02*
G03*
X52068Y3943I-80J0D01*
G01*
X52408D02*
G03*
X52408Y3943I-80J0D01*
G01*
X54993Y4023D02*
G03*
X54993Y4023I-80J0D01*
G01*
X54693Y3863D02*
G03*
X54693Y3863I-80J0D01*
G01*
X54359Y3923D02*
G03*
X54359Y3923I-80J0D01*
G01*
X54024Y3863D02*
G03*
X54024Y3863I-80J0D01*
G01*
X53684D02*
G03*
X53684Y3863I-80J0D01*
G01*
X53374Y4003D02*
G03*
X53374Y4003I-80J0D01*
G01*
X52666Y10685D02*
G03*
X52666Y10685I-80J0D01*
G01*
X52907Y10445D02*
G03*
X52907Y10445I-80J0D01*
G01*
X53149Y10206D02*
G03*
X53149Y10206I-80J0D01*
G01*
X53482Y10137D02*
G03*
X53482Y10137I-80J0D01*
G01*
X53136Y9977D02*
G03*
X53136Y9977I-80J0D01*
G01*
X52796D02*
G03*
X52796Y9977I-80J0D01*
G01*
X52456D02*
G03*
X52456Y9977I-80J0D01*
G01*
X52116D02*
G03*
X52116Y9977I-80J0D01*
G01*
X52039Y10604D02*
G03*
X52039Y10604I-80J0D01*
G01*
X52068Y10943D02*
G03*
X52068Y10943I-80J0D01*
G01*
X52408D02*
G03*
X52408Y10943I-80J0D01*
G01*
X54993Y11023D02*
G03*
X54993Y11023I-80J0D01*
G01*
X54693Y10863D02*
G03*
X54693Y10863I-80J0D01*
G01*
X54359Y10923D02*
G03*
X54359Y10923I-80J0D01*
G01*
X54024Y10863D02*
G03*
X54024Y10863I-80J0D01*
G01*
X53684D02*
G03*
X53684Y10863I-80J0D01*
G01*
X53374Y11003D02*
G03*
X53374Y11003I-80J0D01*
G01*
X40667Y12791D02*
G03*
X40667Y12791I-80J0D01*
G01*
X40908Y13031D02*
G03*
X40908Y13031I-80J0D01*
G01*
X41148Y13272D02*
G03*
X41148Y13272I-80J0D01*
G01*
X41389Y13512D02*
G03*
X41389Y13512I-80J0D01*
G01*
X41629Y13753D02*
G03*
X41629Y13753I-80J0D01*
G01*
X41869Y13993D02*
G03*
X41869Y13993I-80J0D01*
G01*
X42110Y14234D02*
G03*
X42110Y14234I-80J0D01*
G01*
X42356Y14468D02*
G03*
X42356Y14468I-80J0D01*
G01*
X38023Y17146D02*
G03*
X38023Y17146I-80J0D01*
G01*
X38263Y17387D02*
G03*
X38263Y17387I-80J0D01*
G01*
X38504Y17627D02*
G03*
X38504Y17627I-80J0D01*
G01*
X38744Y17868D02*
G03*
X38744Y17868I-80J0D01*
G01*
X38984Y18108D02*
G03*
X38984Y18108I-80J0D01*
G01*
X39225Y18349D02*
G03*
X39225Y18349I-80J0D01*
G01*
X39465Y18589D02*
G03*
X39465Y18589I-80J0D01*
G01*
X39706Y18829D02*
G03*
X39706Y18829I-80J0D01*
G01*
X39946Y19070D02*
G03*
X39946Y19070I-80J0D01*
G01*
X40187Y19310D02*
G03*
X40187Y19310I-80J0D01*
G01*
X40427Y19551D02*
G03*
X40427Y19551I-80J0D01*
G01*
X40667Y19791D02*
G03*
X40667Y19791I-80J0D01*
G01*
X40908Y20031D02*
G03*
X40908Y20031I-80J0D01*
G01*
X41148Y20272D02*
G03*
X41148Y20272I-80J0D01*
G01*
X41389Y20512D02*
G03*
X41389Y20512I-80J0D01*
G01*
X41629Y20753D02*
G03*
X41629Y20753I-80J0D01*
G01*
X41869Y20993D02*
G03*
X41869Y20993I-80J0D01*
G01*
X42110Y21234D02*
G03*
X42110Y21234I-80J0D01*
G01*
X42356Y21468D02*
G03*
X42356Y21468I-80J0D01*
G01*
X52666Y17685D02*
G03*
X52666Y17685I-80J0D01*
G01*
X52907Y17445D02*
G03*
X52907Y17445I-80J0D01*
G01*
X53149Y17206D02*
G03*
X53149Y17206I-80J0D01*
G01*
X53482Y17137D02*
G03*
X53482Y17137I-80J0D01*
G01*
X53136Y16977D02*
G03*
X53136Y16977I-80J0D01*
G01*
X52796D02*
G03*
X52796Y16977I-80J0D01*
G01*
X52456D02*
G03*
X52456Y16977I-80J0D01*
G01*
X52116D02*
G03*
X52116Y16977I-80J0D01*
G01*
X52039Y17604D02*
G03*
X52039Y17604I-80J0D01*
G01*
X52068Y17943D02*
G03*
X52068Y17943I-80J0D01*
G01*
X52408D02*
G03*
X52408Y17943I-80J0D01*
G01*
X54993Y18023D02*
G03*
X54993Y18023I-80J0D01*
G01*
X54693Y17863D02*
G03*
X54693Y17863I-80J0D01*
G01*
X54359Y17923D02*
G03*
X54359Y17923I-80J0D01*
G01*
X54024Y17863D02*
G03*
X54024Y17863I-80J0D01*
G01*
X53684D02*
G03*
X53684Y17863I-80J0D01*
G01*
X53374Y18003D02*
G03*
X53374Y18003I-80J0D01*
G01*
X52666Y24685D02*
G03*
X52666Y24685I-80J0D01*
G01*
X52907Y24445D02*
G03*
X52907Y24445I-80J0D01*
G01*
X53149Y24206D02*
G03*
X53149Y24206I-80J0D01*
G01*
X53482Y24137D02*
G03*
X53482Y24137I-80J0D01*
G01*
X53136Y23977D02*
G03*
X53136Y23977I-80J0D01*
G01*
X52796D02*
G03*
X52796Y23977I-80J0D01*
G01*
X52456D02*
G03*
X52456Y23977I-80J0D01*
G01*
X52116D02*
G03*
X52116Y23977I-80J0D01*
G01*
X52039Y24604D02*
G03*
X52039Y24604I-80J0D01*
G01*
X52068Y24943D02*
G03*
X52068Y24943I-80J0D01*
G01*
X52408D02*
G03*
X52408Y24943I-80J0D01*
G01*
X54993Y25023D02*
G03*
X54993Y25023I-80J0D01*
G01*
X54693Y24863D02*
G03*
X54693Y24863I-80J0D01*
G01*
X54359Y24923D02*
G03*
X54359Y24923I-80J0D01*
G01*
X54024Y24863D02*
G03*
X54024Y24863I-80J0D01*
G01*
X53684D02*
G03*
X53684Y24863I-80J0D01*
G01*
X53374Y25003D02*
G03*
X53374Y25003I-80J0D01*
G01*
X48449Y26005D02*
G03*
X48449Y26005I-80J0D01*
G01*
X48109D02*
G03*
X48109Y26005I-80J0D01*
G01*
X47769D02*
G03*
X47769Y26005I-80J0D01*
G01*
X47429D02*
G03*
X47429Y26005I-80J0D01*
G01*
X47089D02*
G03*
X47089Y26005I-80J0D01*
G01*
X46749D02*
G03*
X46749Y26005I-80J0D01*
G01*
X46409D02*
G03*
X46409Y26005I-80J0D01*
G01*
X46069D02*
G03*
X46069Y26005I-80J0D01*
G01*
X45729D02*
G03*
X45729Y26005I-80J0D01*
G01*
X45389D02*
G03*
X45389Y26005I-80J0D01*
G01*
X45062Y25911D02*
G03*
X45062Y25911I-80J0D01*
G01*
X44822Y25671D02*
G03*
X44822Y25671I-80J0D01*
G01*
X44581Y25430D02*
G03*
X44581Y25430I-80J0D01*
G01*
X44341Y25190D02*
G03*
X44341Y25190I-80J0D01*
G01*
X44100Y24949D02*
G03*
X44100Y24949I-80J0D01*
G01*
X43860Y24709D02*
G03*
X43860Y24709I-80J0D01*
G01*
X43619Y24469D02*
G03*
X43619Y24469I-80J0D01*
G01*
X43379Y24228D02*
G03*
X43379Y24228I-80J0D01*
G01*
X43139Y23988D02*
G03*
X43139Y23988I-80J0D01*
G01*
X42909Y23737D02*
G03*
X42909Y23737I-80J0D01*
G01*
X42864Y23400D02*
G03*
X42864Y23400I-80J0D01*
G01*
Y23060D02*
G03*
X42864Y23060I-80J0D01*
G01*
X42807Y22725D02*
G03*
X42807Y22725I-80J0D01*
G01*
X42636Y22431D02*
G03*
X42636Y22431I-80J0D01*
G01*
X42372Y22217D02*
G03*
X42372Y22217I-80J0D01*
G01*
X42070Y22061D02*
G03*
X42070Y22061I-80J0D01*
G01*
X41817Y21834D02*
G03*
X41817Y21834I-80J0D01*
G01*
X41577Y21593D02*
G03*
X41577Y21593I-80J0D01*
G01*
X41336Y21353D02*
G03*
X41336Y21353I-80J0D01*
G01*
X41096Y21112D02*
G03*
X41096Y21112I-80J0D01*
G01*
X40856Y20872D02*
G03*
X40856Y20872I-80J0D01*
G01*
X40615Y20632D02*
G03*
X40615Y20632I-80J0D01*
G01*
X40375Y20391D02*
G03*
X40375Y20391I-80J0D01*
G01*
X40134Y20151D02*
G03*
X40134Y20151I-80J0D01*
G01*
X39894Y19910D02*
G03*
X39894Y19910I-80J0D01*
G01*
X39654Y19670D02*
G03*
X39654Y19670I-80J0D01*
G01*
X39413Y19430D02*
G03*
X39413Y19430I-80J0D01*
G01*
X39173Y19189D02*
G03*
X39173Y19189I-80J0D01*
G01*
X38932Y18949D02*
G03*
X38932Y18949I-80J0D01*
G01*
X38692Y18708D02*
G03*
X38692Y18708I-80J0D01*
G01*
X38451Y18468D02*
G03*
X38451Y18468I-80J0D01*
G01*
X38211Y18227D02*
G03*
X38211Y18227I-80J0D01*
G01*
X37971Y17987D02*
G03*
X37971Y17987I-80J0D01*
G01*
X37730Y17747D02*
G03*
X37730Y17747I-80J0D01*
G01*
X37490Y17506D02*
G03*
X37490Y17506I-80J0D01*
G01*
X37270Y17247D02*
G03*
X37270Y17247I-80J0D01*
G01*
X37244Y16908D02*
G03*
X37244Y16908I-80J0D01*
G01*
Y16568D02*
G03*
X37244Y16568I-80J0D01*
G01*
Y16228D02*
G03*
X37244Y16228I-80J0D01*
G01*
Y15888D02*
G03*
X37244Y15888I-80J0D01*
G01*
Y15548D02*
G03*
X37244Y15548I-80J0D01*
G01*
Y15208D02*
G03*
X37244Y15208I-80J0D01*
G01*
Y14868D02*
G03*
X37244Y14868I-80J0D01*
G01*
Y14528D02*
G03*
X37244Y14528I-80J0D01*
G01*
Y14188D02*
G03*
X37244Y14188I-80J0D01*
G01*
Y13848D02*
G03*
X37244Y13848I-80J0D01*
G01*
Y13508D02*
G03*
X37244Y13508I-80J0D01*
G01*
Y13168D02*
G03*
X37244Y13168I-80J0D01*
G01*
Y12828D02*
G03*
X37244Y12828I-80J0D01*
G01*
Y12488D02*
G03*
X37244Y12488I-80J0D01*
G01*
Y12148D02*
G03*
X37244Y12148I-80J0D01*
G01*
X37023Y11889D02*
G03*
X37023Y11889I-80J0D01*
G01*
X36783Y11649D02*
G03*
X36783Y11649I-80J0D01*
G01*
X36542Y11409D02*
G03*
X36542Y11409I-80J0D01*
G01*
X36302Y11168D02*
G03*
X36302Y11168I-80J0D01*
G01*
X36061Y10928D02*
G03*
X36061Y10928I-80J0D01*
G01*
X35821Y10687D02*
G03*
X35821Y10687I-80J0D01*
G01*
X35581Y10447D02*
G03*
X35581Y10447I-80J0D01*
G01*
X35340Y10207D02*
G03*
X35340Y10207I-80J0D01*
G01*
X35100Y9966D02*
G03*
X35100Y9966I-80J0D01*
G01*
X34859Y9726D02*
G03*
X34859Y9726I-80J0D01*
G01*
X34619Y9485D02*
G03*
X34619Y9485I-80J0D01*
G01*
X34379Y9245D02*
G03*
X34379Y9245I-80J0D01*
G01*
X34138Y9004D02*
G03*
X34138Y9004I-80J0D01*
G01*
X33898Y8764D02*
G03*
X33898Y8764I-80J0D01*
G01*
X33657Y8524D02*
G03*
X33657Y8524I-80J0D01*
G01*
X33417Y8283D02*
G03*
X33417Y8283I-80J0D01*
G01*
X33176Y8043D02*
G03*
X33176Y8043I-80J0D01*
G01*
X32936Y7802D02*
G03*
X32936Y7802I-80J0D01*
G01*
X32696Y7562D02*
G03*
X32696Y7562I-80J0D01*
G01*
X32455Y7322D02*
G03*
X32455Y7322I-80J0D01*
G01*
X32215Y7081D02*
G03*
X32215Y7081I-80J0D01*
G01*
X31974Y6841D02*
G03*
X31974Y6841I-80J0D01*
G01*
X31734Y6600D02*
G03*
X31734Y6600I-80J0D01*
G01*
X31494Y6360D02*
G03*
X31494Y6360I-80J0D01*
G01*
X31253Y6119D02*
G03*
X31253Y6119I-80J0D01*
G01*
X31013Y5879D02*
G03*
X31013Y5879I-80J0D01*
G01*
X30772Y5639D02*
G03*
X30772Y5639I-80J0D01*
G01*
X30532Y5398D02*
G03*
X30532Y5398I-80J0D01*
G01*
X30291Y5158D02*
G03*
X30291Y5158I-80J0D01*
G01*
X30051Y4917D02*
G03*
X30051Y4917I-80J0D01*
G01*
X29811Y4677D02*
G03*
X29811Y4677I-80J0D01*
G01*
X29570Y4437D02*
G03*
X29570Y4437I-80J0D01*
G01*
X29330Y4196D02*
G03*
X29330Y4196I-80J0D01*
G01*
X29089Y3956D02*
G03*
X29089Y3956I-80J0D01*
G01*
X28849Y3715D02*
G03*
X28849Y3715I-80J0D01*
G01*
X28609Y3475D02*
G03*
X28609Y3475I-80J0D01*
G01*
X28368Y3234D02*
G03*
X28368Y3234I-80J0D01*
G01*
X28128Y2994D02*
G03*
X28128Y2994I-80J0D01*
G01*
X27887Y2754D02*
G03*
X27887Y2754I-80J0D01*
G01*
X27647Y2513D02*
G03*
X27647Y2513I-80J0D01*
G01*
X27406Y2273D02*
G03*
X27406Y2273I-80J0D01*
G01*
X27166Y2032D02*
G03*
X27166Y2032I-80J0D01*
G01*
X26926Y1792D02*
G03*
X26926Y1792I-80J0D01*
G01*
X26685Y1552D02*
G03*
X26685Y1552I-80J0D01*
G01*
X26445Y1311D02*
G03*
X26445Y1311I-80J0D01*
G01*
X26204Y1071D02*
G03*
X26204Y1071I-80J0D01*
G01*
X25964Y830D02*
G03*
X25964Y830I-80J0D01*
G01*
X25724Y590D02*
G03*
X25724Y590I-80J0D01*
G01*
X25483Y349D02*
G03*
X25483Y349I-80J0D01*
G01*
X25145Y316D02*
G03*
X25145Y316I-80J0D01*
G01*
X24820Y216D02*
G03*
X24820Y216I-80J0D01*
G01*
X24579Y-24D02*
G03*
X24579Y-24I-80J0D01*
G01*
X24339Y-265D02*
G03*
X24339Y-265I-80J0D01*
G01*
X24098Y-505D02*
G03*
X24098Y-505I-80J0D01*
G01*
X23858Y-746D02*
G03*
X23858Y-746I-80J0D01*
G01*
X23618Y-986D02*
G03*
X23618Y-986I-80J0D01*
G01*
X23377Y-1226D02*
G03*
X23377Y-1226I-80J0D01*
G01*
X23137Y-1467D02*
G03*
X23137Y-1467I-80J0D01*
G01*
X22896Y-1707D02*
G03*
X22896Y-1707I-80J0D01*
G01*
X22656Y-1948D02*
G03*
X22656Y-1948I-80J0D01*
G01*
X22416Y-2188D02*
G03*
X22416Y-2188I-80J0D01*
G01*
X22175Y-2429D02*
G03*
X22175Y-2429I-80J0D01*
G01*
X21935Y-2669D02*
G03*
X21935Y-2669I-80J0D01*
G01*
X21694Y-2909D02*
G03*
X21694Y-2909I-80J0D01*
G01*
X21531Y-3208D02*
G03*
X21531Y-3208I-80J0D01*
G01*
Y-3548D02*
G03*
X21531Y-3548I-80J0D01*
G01*
Y-3888D02*
G03*
X21531Y-3888I-80J0D01*
G01*
Y-4228D02*
G03*
X21531Y-4228I-80J0D01*
G01*
Y-4568D02*
G03*
X21531Y-4568I-80J0D01*
G01*
Y-5248D02*
G03*
X21531Y-5248I-80J0D01*
G01*
Y-5588D02*
G03*
X21531Y-5588I-80J0D01*
G01*
X22718Y-7216D02*
G03*
X22718Y-7216I-80J0D01*
G01*
X23398D02*
G03*
X23398Y-7216I-80J0D01*
G01*
X23738D02*
G03*
X23738Y-7216I-80J0D01*
G01*
X24059Y-7104D02*
G03*
X24059Y-7104I-80J0D01*
G01*
X25038Y-7216D02*
G03*
X25038Y-7216I-80J0D01*
G01*
X25378D02*
G03*
X25378Y-7216I-80J0D01*
G01*
X25718Y-7215D02*
G03*
X25718Y-7215I-80J0D01*
G01*
X26058Y-7212D02*
G03*
X26058Y-7212I-80J0D01*
G01*
X26398Y-7209D02*
G03*
X26398Y-7209I-80J0D01*
G01*
X26738Y-7208D02*
G03*
X26738Y-7208I-80J0D01*
G01*
X27078Y-7211D02*
G03*
X27078Y-7211I-80J0D01*
G01*
X27418Y-7215D02*
G03*
X27418Y-7215I-80J0D01*
G01*
X27758Y-7216D02*
G03*
X27758Y-7216I-80J0D01*
G01*
X28092Y-7152D02*
G03*
X28092Y-7152I-80J0D01*
G01*
X29062Y-6975D02*
G03*
X29062Y-6975I-80J0D01*
G01*
X29402D02*
G03*
X29402Y-6975I-80J0D01*
G01*
X29742D02*
G03*
X29742Y-6975I-80J0D01*
G01*
X30082D02*
G03*
X30082Y-6975I-80J0D01*
G01*
X30422D02*
G03*
X30422Y-6975I-80J0D01*
G01*
X30762D02*
G03*
X30762Y-6975I-80J0D01*
G01*
X31102D02*
G03*
X31102Y-6975I-80J0D01*
G01*
X31442D02*
G03*
X31442Y-6975I-80J0D01*
G01*
X31782D02*
G03*
X31782Y-6975I-80J0D01*
G01*
X32122D02*
G03*
X32122Y-6975I-80J0D01*
G01*
X32462D02*
G03*
X32462Y-6975I-80J0D01*
G01*
X32802D02*
G03*
X32802Y-6975I-80J0D01*
G01*
X33142D02*
G03*
X33142Y-6975I-80J0D01*
G01*
X33482D02*
G03*
X33482Y-6975I-80J0D01*
G01*
X33822D02*
G03*
X33822Y-6975I-80J0D01*
G01*
X34162D02*
G03*
X34162Y-6975I-80J0D01*
G01*
X34502D02*
G03*
X34502Y-6975I-80J0D01*
G01*
X34842D02*
G03*
X34842Y-6975I-80J0D01*
G01*
X35135Y-7149D02*
G03*
X35135Y-7149I-80J0D01*
G01*
X34894Y-7389D02*
G03*
X34894Y-7389I-80J0D01*
G01*
X34654Y-7630D02*
G03*
X34654Y-7630I-80J0D01*
G01*
X34413Y-7870D02*
G03*
X34413Y-7870I-80J0D01*
G01*
X34173Y-8111D02*
G03*
X34173Y-8111I-80J0D01*
G01*
X33933Y-8351D02*
G03*
X33933Y-8351I-80J0D01*
G01*
X33692Y-8592D02*
G03*
X33692Y-8592I-80J0D01*
G01*
X33452Y-8832D02*
G03*
X33452Y-8832I-80J0D01*
G01*
X33211Y-9072D02*
G03*
X33211Y-9072I-80J0D01*
G01*
X32971Y-9313D02*
G03*
X32971Y-9313I-80J0D01*
G01*
X32730Y-9553D02*
G03*
X32730Y-9553I-80J0D01*
G01*
X32490Y-9794D02*
G03*
X32490Y-9794I-80J0D01*
G01*
X32250Y-10034D02*
G03*
X32250Y-10034I-80J0D01*
G01*
X32009Y-10274D02*
G03*
X32009Y-10274I-80J0D01*
G01*
X31742Y-10484D02*
G03*
X31742Y-10484I-80J0D01*
G01*
X31402D02*
G03*
X31402Y-10484I-80J0D01*
G01*
X31062D02*
G03*
X31062Y-10484I-80J0D01*
G01*
X30722D02*
G03*
X30722Y-10484I-80J0D01*
G01*
X30382D02*
G03*
X30382Y-10484I-80J0D01*
G01*
X30042D02*
G03*
X30042Y-10484I-80J0D01*
G01*
X29702D02*
G03*
X29702Y-10484I-80J0D01*
G01*
X29362D02*
G03*
X29362Y-10484I-80J0D01*
G01*
X26290Y-8534D02*
G03*
X26290Y-8534I-80J0D01*
G01*
X25950D02*
G03*
X25950Y-8534I-80J0D01*
G01*
X25610D02*
G03*
X25610Y-8534I-80J0D01*
G01*
X20901Y-10026D02*
G03*
X20901Y-10026I-80J0D01*
G01*
X20587Y-9715D02*
G03*
X20587Y-9715I-80J0D01*
G01*
X17436Y-9830D02*
G03*
X17436Y-9830I-80J0D01*
G01*
Y-10170D02*
G03*
X17436Y-10170I-80J0D01*
G01*
Y-10510D02*
G03*
X17436Y-10510I-80J0D01*
G01*
Y-11530D02*
G03*
X17436Y-11530I-80J0D01*
G01*
X17568Y-12184D02*
G03*
X17568Y-12184I-80J0D01*
G01*
X17808Y-12424D02*
G03*
X17808Y-12424I-80J0D01*
G01*
X18049Y-12665D02*
G03*
X18049Y-12665I-80J0D01*
G01*
X18289Y-12905D02*
G03*
X18289Y-12905I-80J0D01*
G01*
X18529Y-13146D02*
G03*
X18529Y-13146I-80J0D01*
G01*
X18770Y-13386D02*
G03*
X18770Y-13386I-80J0D01*
G01*
X19010Y-13627D02*
G03*
X19010Y-13627I-80J0D01*
G01*
X19251Y-13867D02*
G03*
X19251Y-13867I-80J0D01*
G01*
X19491Y-14107D02*
G03*
X19491Y-14107I-80J0D01*
G01*
X19731Y-14348D02*
G03*
X19731Y-14348I-80J0D01*
G01*
X19972Y-14588D02*
G03*
X19972Y-14588I-80J0D01*
G01*
X20212Y-14829D02*
G03*
X20212Y-14829I-80J0D01*
G01*
X20453Y-15069D02*
G03*
X20453Y-15069I-80J0D01*
G01*
X20693Y-15309D02*
G03*
X20693Y-15309I-80J0D01*
G01*
X20934Y-15550D02*
G03*
X20934Y-15550I-80J0D01*
G01*
X21174Y-15790D02*
G03*
X21174Y-15790I-80J0D01*
G01*
X21414Y-16031D02*
G03*
X21414Y-16031I-80J0D01*
G01*
X21655Y-16271D02*
G03*
X21655Y-16271I-80J0D01*
G01*
X21895Y-16512D02*
G03*
X21895Y-16512I-80J0D01*
G01*
X22136Y-16752D02*
G03*
X22136Y-16752I-80J0D01*
G01*
X22376Y-16992D02*
G03*
X22376Y-16992I-80J0D01*
G01*
X22616Y-17233D02*
G03*
X22616Y-17233I-80J0D01*
G01*
X23097Y-17714D02*
G03*
X23097Y-17714I-80J0D01*
G01*
X23819Y-18435D02*
G03*
X23819Y-18435I-80J0D01*
G01*
X24299Y-18916D02*
G03*
X24299Y-18916I-80J0D01*
G01*
X31657Y-20124D02*
G03*
X31657Y-20124I-80J0D01*
G01*
X32379Y-20845D02*
G03*
X32379Y-20845I-80J0D01*
G01*
X33100Y-21566D02*
G03*
X33100Y-21566I-80J0D01*
G01*
X34783Y-23249D02*
G03*
X34783Y-23249I-80J0D01*
G01*
X35023Y-23490D02*
G03*
X35023Y-23490I-80J0D01*
G01*
X35264Y-23730D02*
G03*
X35264Y-23730I-80J0D01*
G01*
X35504Y-23970D02*
G03*
X35504Y-23970I-80J0D01*
G01*
X35744Y-24211D02*
G03*
X35744Y-24211I-80J0D01*
G01*
X35985Y-24451D02*
G03*
X35985Y-24451I-80J0D01*
G01*
X36265Y-24644D02*
G03*
X36265Y-24644I-80J0D01*
G01*
X36605Y-24649D02*
G03*
X36605Y-24649I-80J0D01*
G01*
X36945D02*
G03*
X36945Y-24649I-80J0D01*
G01*
X37285D02*
G03*
X37285Y-24649I-80J0D01*
G01*
X37625D02*
G03*
X37625Y-24649I-80J0D01*
G01*
X37965D02*
G03*
X37965Y-24649I-80J0D01*
G01*
X38305D02*
G03*
X38305Y-24649I-80J0D01*
G01*
X38645D02*
G03*
X38645Y-24649I-80J0D01*
G01*
X38985D02*
G03*
X38985Y-24649I-80J0D01*
G01*
X39325D02*
G03*
X39325Y-24649I-80J0D01*
G01*
X39665D02*
G03*
X39665Y-24649I-80J0D01*
G01*
X40005D02*
G03*
X40005Y-24649I-80J0D01*
G01*
X40345D02*
G03*
X40345Y-24649I-80J0D01*
G01*
X40685D02*
G03*
X40685Y-24649I-80J0D01*
G01*
X41025D02*
G03*
X41025Y-24649I-80J0D01*
G01*
X41365D02*
G03*
X41365Y-24649I-80J0D01*
G01*
X41705D02*
G03*
X41705Y-24649I-80J0D01*
G01*
X42045D02*
G03*
X42045Y-24649I-80J0D01*
G01*
X42385D02*
G03*
X42385Y-24649I-80J0D01*
G01*
X42725D02*
G03*
X42725Y-24649I-80J0D01*
G01*
X42964Y-24891D02*
G03*
X42964Y-24891I-80J0D01*
G01*
Y-25231D02*
G03*
X42964Y-25231I-80J0D01*
G01*
Y-25571D02*
G03*
X42964Y-25571I-80J0D01*
G01*
Y-25911D02*
G03*
X42964Y-25911I-80J0D01*
G01*
Y-26251D02*
G03*
X42964Y-26251I-80J0D01*
G01*
Y-26591D02*
G03*
X42964Y-26591I-80J0D01*
G01*
X42890Y-26923D02*
G03*
X42890Y-26923I-80J0D01*
G01*
X43006Y-27242D02*
G03*
X43006Y-27242I-80J0D01*
G01*
X43328Y-27350D02*
G03*
X43328Y-27350I-80J0D01*
G01*
X43668Y-27369D02*
G03*
X43668Y-27369I-80J0D01*
G01*
X43923Y-27594D02*
G03*
X43923Y-27594I-80J0D01*
G01*
X44258Y-27536D02*
G03*
X44258Y-27536I-80J0D01*
G01*
X44598Y-27532D02*
G03*
X44598Y-27532I-80J0D01*
G01*
X44938D02*
G03*
X44938Y-27532I-80J0D01*
G01*
X45278D02*
G03*
X45278Y-27532I-80J0D01*
G01*
X45618D02*
G03*
X45618Y-27532I-80J0D01*
G01*
X45958D02*
G03*
X45958Y-27532I-80J0D01*
G01*
X46978D02*
G03*
X46978Y-27532I-80J0D01*
G01*
X47998D02*
G03*
X47998Y-27532I-80J0D01*
G01*
X48338D02*
G03*
X48338Y-27532I-80J0D01*
G01*
X48678D02*
G03*
X48678Y-27532I-80J0D01*
G01*
X49756Y-27156D02*
G03*
X49756Y-27156I-80J0D01*
G01*
X49749Y-26816D02*
G03*
X49749Y-26816I-80J0D01*
G01*
X47788Y-26645D02*
G03*
X47788Y-26645I-80J0D01*
G01*
X47448D02*
G03*
X47448Y-26645I-80J0D01*
G01*
X47108D02*
G03*
X47108Y-26645I-80J0D01*
G01*
X46768D02*
G03*
X46768Y-26645I-80J0D01*
G01*
X46428D02*
G03*
X46428Y-26645I-80J0D01*
G01*
X46088D02*
G03*
X46088Y-26645I-80J0D01*
G01*
X45748D02*
G03*
X45748Y-26645I-80J0D01*
G01*
X45408D02*
G03*
X45408Y-26645I-80J0D01*
G01*
X45068D02*
G03*
X45068Y-26645I-80J0D01*
G01*
X44728D02*
G03*
X44728Y-26645I-80J0D01*
G01*
X44388D02*
G03*
X44388Y-26645I-80J0D01*
G01*
X44346Y-26307D02*
G03*
X44346Y-26307I-80J0D01*
G01*
Y-25967D02*
G03*
X44346Y-25967I-80J0D01*
G01*
Y-25627D02*
G03*
X44346Y-25627I-80J0D01*
G01*
Y-25287D02*
G03*
X44346Y-25287I-80J0D01*
G01*
Y-24947D02*
G03*
X44346Y-24947I-80J0D01*
G01*
X44510Y-24649D02*
G03*
X44510Y-24649I-80J0D01*
G01*
X44850D02*
G03*
X44850Y-24649I-80J0D01*
G01*
X45181Y-24724D02*
G03*
X45181Y-24724I-80J0D01*
G01*
X45513Y-24649D02*
G03*
X45513Y-24649I-80J0D01*
G01*
X45853D02*
G03*
X45853Y-24649I-80J0D01*
G01*
X46873D02*
G03*
X46873Y-24649I-80J0D01*
G01*
X47893D02*
G03*
X47893Y-24649I-80J0D01*
G01*
X48229Y-24704D02*
G03*
X48229Y-24704I-80J0D01*
G01*
X48567Y-24671D02*
G03*
X48567Y-24671I-80J0D01*
G01*
X49756Y-24378D02*
G03*
X49756Y-24378I-80J0D01*
G01*
X48663Y-24018D02*
G03*
X48663Y-24018I-80J0D01*
G01*
X47999D02*
G03*
X47999Y-24018I-80J0D01*
G01*
X44644Y-23882D02*
G03*
X44644Y-23882I-80J0D01*
G01*
X44984D02*
G03*
X44984Y-23882I-80J0D01*
G01*
X45324D02*
G03*
X45324Y-23882I-80J0D01*
G01*
X49715Y-23797D02*
G03*
X49715Y-23797I-80J0D01*
G01*
X49753Y-23459D02*
G03*
X49753Y-23459I-80J0D01*
G01*
X48761Y-22984D02*
G03*
X48761Y-22984I-80J0D01*
G01*
X48421Y-22995D02*
G03*
X48421Y-22995I-80J0D01*
G01*
X48081D02*
G03*
X48081Y-22995I-80J0D01*
G01*
X47741D02*
G03*
X47741Y-22995I-80J0D01*
G01*
X47401D02*
G03*
X47401Y-22995I-80J0D01*
G01*
X47061D02*
G03*
X47061Y-22995I-80J0D01*
G01*
X46721D02*
G03*
X46721Y-22995I-80J0D01*
G01*
X46381D02*
G03*
X46381Y-22995I-80J0D01*
G01*
X46041D02*
G03*
X46041Y-22995I-80J0D01*
G01*
X45701D02*
G03*
X45701Y-22995I-80J0D01*
G01*
X45361D02*
G03*
X45361Y-22995I-80J0D01*
G01*
X45021D02*
G03*
X45021Y-22995I-80J0D01*
G01*
X44681D02*
G03*
X44681Y-22995I-80J0D01*
G01*
X44346Y-22939D02*
G03*
X44346Y-22939I-80J0D01*
G01*
X44408Y-22605D02*
G03*
X44408Y-22605I-80J0D01*
G01*
X44349Y-22271D02*
G03*
X44349Y-22271I-80J0D01*
G01*
X44051Y-22106D02*
G03*
X44051Y-22106I-80J0D01*
G01*
X43720Y-22184D02*
G03*
X43720Y-22184I-80J0D01*
G01*
X43380D02*
G03*
X43380Y-22184I-80J0D01*
G01*
X43040D02*
G03*
X43040Y-22184I-80J0D01*
G01*
X42700D02*
G03*
X42700Y-22184I-80J0D01*
G01*
X42360D02*
G03*
X42360Y-22184I-80J0D01*
G01*
X42020D02*
G03*
X42020Y-22184I-80J0D01*
G01*
X41680D02*
G03*
X41680Y-22184I-80J0D01*
G01*
X41340D02*
G03*
X41340Y-22184I-80J0D01*
G01*
X41000D02*
G03*
X41000Y-22184I-80J0D01*
G01*
X40660D02*
G03*
X40660Y-22184I-80J0D01*
G01*
X40320D02*
G03*
X40320Y-22184I-80J0D01*
G01*
X39980D02*
G03*
X39980Y-22184I-80J0D01*
G01*
X39640D02*
G03*
X39640Y-22184I-80J0D01*
G01*
X39300D02*
G03*
X39300Y-22184I-80J0D01*
G01*
X38960D02*
G03*
X38960Y-22184I-80J0D01*
G01*
X38620D02*
G03*
X38620Y-22184I-80J0D01*
G01*
X38280D02*
G03*
X38280Y-22184I-80J0D01*
G01*
X37940D02*
G03*
X37940Y-22184I-80J0D01*
G01*
X37600D02*
G03*
X37600Y-22184I-80J0D01*
G01*
X37260D02*
G03*
X37260Y-22184I-80J0D01*
G01*
X36920D02*
G03*
X36920Y-22184I-80J0D01*
G01*
X36580D02*
G03*
X36580Y-22184I-80J0D01*
G01*
X36246Y-22120D02*
G03*
X36246Y-22120I-80J0D01*
G01*
X36006Y-21879D02*
G03*
X36006Y-21879I-80J0D01*
G01*
X35765Y-21639D02*
G03*
X35765Y-21639I-80J0D01*
G01*
X35525Y-21398D02*
G03*
X35525Y-21398I-80J0D01*
G01*
X35284Y-21158D02*
G03*
X35284Y-21158I-80J0D01*
G01*
X35044Y-20918D02*
G03*
X35044Y-20918I-80J0D01*
G01*
X34804Y-20677D02*
G03*
X34804Y-20677I-80J0D01*
G01*
X33121Y-18994D02*
G03*
X33121Y-18994I-80J0D01*
G01*
X29728Y-17284D02*
G03*
X29728Y-17284I-80J0D01*
G01*
X28708D02*
G03*
X28708Y-17284I-80J0D01*
G01*
X30089Y-17166D02*
G03*
X30089Y-17166I-80J0D01*
G01*
X33149D02*
G03*
X33149Y-17166I-80J0D01*
G01*
X33489D02*
G03*
X33489Y-17166I-80J0D01*
G01*
X34849D02*
G03*
X34849Y-17166I-80J0D01*
G01*
X35189D02*
G03*
X35189Y-17166I-80J0D01*
G01*
X35529D02*
G03*
X35529Y-17166I-80J0D01*
G01*
X35869D02*
G03*
X35869Y-17166I-80J0D01*
G01*
X36209D02*
G03*
X36209Y-17166I-80J0D01*
G01*
X36549D02*
G03*
X36549Y-17166I-80J0D01*
G01*
X36889D02*
G03*
X36889Y-17166I-80J0D01*
G01*
X37229D02*
G03*
X37229Y-17166I-80J0D01*
G01*
X37569D02*
G03*
X37569Y-17166I-80J0D01*
G01*
X37909D02*
G03*
X37909Y-17166I-80J0D01*
G01*
X38249D02*
G03*
X38249Y-17166I-80J0D01*
G01*
X38589D02*
G03*
X38589Y-17166I-80J0D01*
G01*
X38929D02*
G03*
X38929Y-17166I-80J0D01*
G01*
X39269D02*
G03*
X39269Y-17166I-80J0D01*
G01*
X39609D02*
G03*
X39609Y-17166I-80J0D01*
G01*
X39949D02*
G03*
X39949Y-17166I-80J0D01*
G01*
X40289D02*
G03*
X40289Y-17166I-80J0D01*
G01*
X40629D02*
G03*
X40629Y-17166I-80J0D01*
G01*
X40969D02*
G03*
X40969Y-17166I-80J0D01*
G01*
X41309D02*
G03*
X41309Y-17166I-80J0D01*
G01*
X41649D02*
G03*
X41649Y-17166I-80J0D01*
G01*
X41989D02*
G03*
X41989Y-17166I-80J0D01*
G01*
X42329D02*
G03*
X42329Y-17166I-80J0D01*
G01*
X42669D02*
G03*
X42669Y-17166I-80J0D01*
G01*
X42964Y-17335D02*
G03*
X42964Y-17335I-80J0D01*
G01*
Y-17675D02*
G03*
X42964Y-17675I-80J0D01*
G01*
Y-18015D02*
G03*
X42964Y-18015I-80J0D01*
G01*
Y-18355D02*
G03*
X42964Y-18355I-80J0D01*
G01*
Y-18695D02*
G03*
X42964Y-18695I-80J0D01*
G01*
Y-19035D02*
G03*
X42964Y-19035I-80J0D01*
G01*
Y-19375D02*
G03*
X42964Y-19375I-80J0D01*
G01*
Y-19715D02*
G03*
X42964Y-19715I-80J0D01*
G01*
X42897Y-20048D02*
G03*
X42897Y-20048I-80J0D01*
G01*
X43108Y-20315D02*
G03*
X43108Y-20315I-80J0D01*
G01*
X43448Y-20317D02*
G03*
X43448Y-20317I-80J0D01*
G01*
X43743Y-20486D02*
G03*
X43743Y-20486I-80J0D01*
G01*
X44061Y-20608D02*
G03*
X44061Y-20608I-80J0D01*
G01*
X44392Y-20532D02*
G03*
X44392Y-20532I-80J0D01*
G01*
X44732D02*
G03*
X44732Y-20532I-80J0D01*
G01*
X45072D02*
G03*
X45072Y-20532I-80J0D01*
G01*
X45412D02*
G03*
X45412Y-20532I-80J0D01*
G01*
X46772D02*
G03*
X46772Y-20532I-80J0D01*
G01*
X47112D02*
G03*
X47112Y-20532I-80J0D01*
G01*
X48132D02*
G03*
X48132Y-20532I-80J0D01*
G01*
X48472D02*
G03*
X48472Y-20532I-80J0D01*
G01*
X49756Y-20016D02*
G03*
X49756Y-20016I-80J0D01*
G01*
X49680Y-19684D02*
G03*
X49680Y-19684I-80J0D01*
G01*
X47654Y-19645D02*
G03*
X47654Y-19645I-80J0D01*
G01*
X47314D02*
G03*
X47314Y-19645I-80J0D01*
G01*
X46974D02*
G03*
X46974Y-19645I-80J0D01*
G01*
X46634D02*
G03*
X46634Y-19645I-80J0D01*
G01*
X46294D02*
G03*
X46294Y-19645I-80J0D01*
G01*
X45954D02*
G03*
X45954Y-19645I-80J0D01*
G01*
X45614D02*
G03*
X45614Y-19645I-80J0D01*
G01*
X45274D02*
G03*
X45274Y-19645I-80J0D01*
G01*
X44934D02*
G03*
X44934Y-19645I-80J0D01*
G01*
X44594D02*
G03*
X44594Y-19645I-80J0D01*
G01*
X44346Y-19412D02*
G03*
X44346Y-19412I-80J0D01*
G01*
Y-19072D02*
G03*
X44346Y-19072I-80J0D01*
G01*
Y-18732D02*
G03*
X44346Y-18732I-80J0D01*
G01*
Y-18392D02*
G03*
X44346Y-18392I-80J0D01*
G01*
Y-18052D02*
G03*
X44346Y-18052I-80J0D01*
G01*
Y-17712D02*
G03*
X44346Y-17712I-80J0D01*
G01*
Y-17372D02*
G03*
X44346Y-17372I-80J0D01*
G01*
X44616Y-17167D02*
G03*
X44616Y-17167I-80J0D01*
G01*
X44857Y-17407D02*
G03*
X44857Y-17407I-80J0D01*
G01*
X45042Y-17692D02*
G03*
X45042Y-17692I-80J0D01*
G01*
X45378Y-17745D02*
G03*
X45378Y-17745I-80J0D01*
G01*
X45709Y-17667D02*
G03*
X45709Y-17667I-80J0D01*
G01*
X46729D02*
G03*
X46729Y-17667I-80J0D01*
G01*
X47069D02*
G03*
X47069Y-17667I-80J0D01*
G01*
X48089D02*
G03*
X48089Y-17667I-80J0D01*
G01*
X48759Y-17659D02*
G03*
X48759Y-17659I-80J0D01*
G01*
X49733Y-17527D02*
G03*
X49733Y-17527I-80J0D01*
G01*
X48132Y-17018D02*
G03*
X48132Y-17018I-80J0D01*
G01*
X45450Y-16882D02*
G03*
X45450Y-16882I-80J0D01*
G01*
X49754Y-16668D02*
G03*
X49754Y-16668I-80J0D01*
G01*
X49756Y-16328D02*
G03*
X49756Y-16328I-80J0D01*
G01*
X48634Y-15995D02*
G03*
X48634Y-15995I-80J0D01*
G01*
X48294D02*
G03*
X48294Y-15995I-80J0D01*
G01*
X47954D02*
G03*
X47954Y-15995I-80J0D01*
G01*
X47614D02*
G03*
X47614Y-15995I-80J0D01*
G01*
X47274D02*
G03*
X47274Y-15995I-80J0D01*
G01*
X46934D02*
G03*
X46934Y-15995I-80J0D01*
G01*
X46594D02*
G03*
X46594Y-15995I-80J0D01*
G01*
X46254D02*
G03*
X46254Y-15995I-80J0D01*
G01*
X45914D02*
G03*
X45914Y-15995I-80J0D01*
G01*
X45574D02*
G03*
X45574Y-15995I-80J0D01*
G01*
X45234D02*
G03*
X45234Y-15995I-80J0D01*
G01*
X44894D02*
G03*
X44894Y-15995I-80J0D01*
G01*
X44554D02*
G03*
X44554Y-15995I-80J0D01*
G01*
X44346Y-15726D02*
G03*
X44346Y-15726I-80J0D01*
G01*
X44424Y-15395D02*
G03*
X44424Y-15395I-80J0D01*
G01*
X44288Y-15083D02*
G03*
X44288Y-15083I-80J0D01*
G01*
X43960Y-14994D02*
G03*
X43960Y-14994I-80J0D01*
G01*
X43627Y-15064D02*
G03*
X43627Y-15064I-80J0D01*
G01*
X43287D02*
G03*
X43287Y-15064I-80J0D01*
G01*
X42947D02*
G03*
X42947Y-15064I-80J0D01*
G01*
X42607D02*
G03*
X42607Y-15064I-80J0D01*
G01*
X42267D02*
G03*
X42267Y-15064I-80J0D01*
G01*
X41927D02*
G03*
X41927Y-15064I-80J0D01*
G01*
X41587D02*
G03*
X41587Y-15064I-80J0D01*
G01*
X41247D02*
G03*
X41247Y-15064I-80J0D01*
G01*
X40907D02*
G03*
X40907Y-15064I-80J0D01*
G01*
X40567D02*
G03*
X40567Y-15064I-80J0D01*
G01*
X40227D02*
G03*
X40227Y-15064I-80J0D01*
G01*
X39887D02*
G03*
X39887Y-15064I-80J0D01*
G01*
X39547D02*
G03*
X39547Y-15064I-80J0D01*
G01*
X39207D02*
G03*
X39207Y-15064I-80J0D01*
G01*
X38867D02*
G03*
X38867Y-15064I-80J0D01*
G01*
X38542Y-14964D02*
G03*
X38542Y-14964I-80J0D01*
G01*
X38783Y-14724D02*
G03*
X38783Y-14724I-80J0D01*
G01*
X39023Y-14484D02*
G03*
X39023Y-14484I-80J0D01*
G01*
X39264Y-14243D02*
G03*
X39264Y-14243I-80J0D01*
G01*
X39504Y-14003D02*
G03*
X39504Y-14003I-80J0D01*
G01*
X39744Y-13762D02*
G03*
X39744Y-13762I-80J0D01*
G01*
X39985Y-13522D02*
G03*
X39985Y-13522I-80J0D01*
G01*
X40225Y-13282D02*
G03*
X40225Y-13282I-80J0D01*
G01*
X40466Y-13041D02*
G03*
X40466Y-13041I-80J0D01*
G01*
X40706Y-12801D02*
G03*
X40706Y-12801I-80J0D01*
G01*
X40947Y-12560D02*
G03*
X40947Y-12560I-80J0D01*
G01*
X41187Y-12320D02*
G03*
X41187Y-12320I-80J0D01*
G01*
X41427Y-12079D02*
G03*
X41427Y-12079I-80J0D01*
G01*
X41668Y-11839D02*
G03*
X41668Y-11839I-80J0D01*
G01*
X41908Y-11599D02*
G03*
X41908Y-11599I-80J0D01*
G01*
X42149Y-11358D02*
G03*
X42149Y-11358I-80J0D01*
G01*
X42389Y-11118D02*
G03*
X42389Y-11118I-80J0D01*
G01*
X42629Y-10877D02*
G03*
X42629Y-10877I-80J0D01*
G01*
X42964Y-10819D02*
G03*
X42964Y-10819I-80J0D01*
G01*
Y-11159D02*
G03*
X42964Y-11159I-80J0D01*
G01*
Y-11499D02*
G03*
X42964Y-11499I-80J0D01*
G01*
Y-11839D02*
G03*
X42964Y-11839I-80J0D01*
G01*
Y-12179D02*
G03*
X42964Y-12179I-80J0D01*
G01*
Y-12519D02*
G03*
X42964Y-12519I-80J0D01*
G01*
X42902Y-12853D02*
G03*
X42902Y-12853I-80J0D01*
G01*
X42960Y-13188D02*
G03*
X42960Y-13188I-80J0D01*
G01*
X43258Y-13353D02*
G03*
X43258Y-13353I-80J0D01*
G01*
X43589Y-13276D02*
G03*
X43589Y-13276I-80J0D01*
G01*
X43805Y-13538D02*
G03*
X43805Y-13538I-80J0D01*
G01*
X44141Y-13593D02*
G03*
X44141Y-13593I-80J0D01*
G01*
X44475Y-13532D02*
G03*
X44475Y-13532I-80J0D01*
G01*
X44815D02*
G03*
X44815Y-13532I-80J0D01*
G01*
X45155D02*
G03*
X45155Y-13532I-80J0D01*
G01*
X45495D02*
G03*
X45495Y-13532I-80J0D01*
G01*
X45835D02*
G03*
X45835Y-13532I-80J0D01*
G01*
X46855D02*
G03*
X46855Y-13532I-80J0D01*
G01*
X48215D02*
G03*
X48215Y-13532I-80J0D01*
G01*
X48555D02*
G03*
X48555Y-13532I-80J0D01*
G01*
X49756Y-13274D02*
G03*
X49756Y-13274I-80J0D01*
G01*
Y-12934D02*
G03*
X49756Y-12934I-80J0D01*
G01*
X47909Y-12645D02*
G03*
X47909Y-12645I-80J0D01*
G01*
X47569D02*
G03*
X47569Y-12645I-80J0D01*
G01*
X47229D02*
G03*
X47229Y-12645I-80J0D01*
G01*
X46889D02*
G03*
X46889Y-12645I-80J0D01*
G01*
X46549D02*
G03*
X46549Y-12645I-80J0D01*
G01*
X46209D02*
G03*
X46209Y-12645I-80J0D01*
G01*
X45869D02*
G03*
X45869Y-12645I-80J0D01*
G01*
X45529D02*
G03*
X45529Y-12645I-80J0D01*
G01*
X45189D02*
G03*
X45189Y-12645I-80J0D01*
G01*
X44849D02*
G03*
X44849Y-12645I-80J0D01*
G01*
X44509D02*
G03*
X44509Y-12645I-80J0D01*
G01*
X44346Y-12347D02*
G03*
X44346Y-12347I-80J0D01*
G01*
Y-12007D02*
G03*
X44346Y-12007I-80J0D01*
G01*
Y-11667D02*
G03*
X44346Y-11667I-80J0D01*
G01*
Y-11327D02*
G03*
X44346Y-11327I-80J0D01*
G01*
Y-10987D02*
G03*
X44346Y-10987I-80J0D01*
G01*
X44390Y-10649D02*
G03*
X44390Y-10649I-80J0D01*
G01*
X44730D02*
G03*
X44730Y-10649I-80J0D01*
G01*
X45067Y-10693D02*
G03*
X45067Y-10693I-80J0D01*
G01*
X45407Y-10685D02*
G03*
X45407Y-10685I-80J0D01*
G01*
X45745Y-10649D02*
G03*
X45745Y-10649I-80J0D01*
G01*
X46765D02*
G03*
X46765Y-10649I-80J0D01*
G01*
X47105D02*
G03*
X47105Y-10649I-80J0D01*
G01*
X48125D02*
G03*
X48125Y-10649I-80J0D01*
G01*
X49747Y-10490D02*
G03*
X49747Y-10490I-80J0D01*
G01*
X48100Y-10018D02*
G03*
X48100Y-10018I-80J0D01*
G01*
X44394Y-9882D02*
G03*
X44394Y-9882I-80J0D01*
G01*
X44734D02*
G03*
X44734Y-9882I-80J0D01*
G01*
X45074D02*
G03*
X45074Y-9882I-80J0D01*
G01*
X45414D02*
G03*
X45414Y-9882I-80J0D01*
G01*
X49749Y-9704D02*
G03*
X49749Y-9704I-80J0D01*
G01*
X49756Y-9364D02*
G03*
X49756Y-9364I-80J0D01*
G01*
X48672Y-8995D02*
G03*
X48672Y-8995I-80J0D01*
G01*
X48332D02*
G03*
X48332Y-8995I-80J0D01*
G01*
X47992D02*
G03*
X47992Y-8995I-80J0D01*
G01*
X47652D02*
G03*
X47652Y-8995I-80J0D01*
G01*
X47312D02*
G03*
X47312Y-8995I-80J0D01*
G01*
X46972D02*
G03*
X46972Y-8995I-80J0D01*
G01*
X46632D02*
G03*
X46632Y-8995I-80J0D01*
G01*
X46292D02*
G03*
X46292Y-8995I-80J0D01*
G01*
X45952D02*
G03*
X45952Y-8995I-80J0D01*
G01*
X45612D02*
G03*
X45612Y-8995I-80J0D01*
G01*
X45272D02*
G03*
X45272Y-8995I-80J0D01*
G01*
X44932D02*
G03*
X44932Y-8995I-80J0D01*
G01*
X44592D02*
G03*
X44592Y-8995I-80J0D01*
G01*
X44346Y-8761D02*
G03*
X44346Y-8761I-80J0D01*
G01*
X44416Y-8428D02*
G03*
X44416Y-8428I-80J0D01*
G01*
X44215Y-8154D02*
G03*
X44215Y-8154I-80J0D01*
G01*
X43875Y-8139D02*
G03*
X43875Y-8139I-80J0D01*
G01*
X43538Y-8184D02*
G03*
X43538Y-8184I-80J0D01*
G01*
X43198D02*
G03*
X43198Y-8184I-80J0D01*
G01*
X42858D02*
G03*
X42858Y-8184I-80J0D01*
G01*
X42518Y-8193D02*
G03*
X42518Y-8193I-80J0D01*
G01*
X42242Y-8391D02*
G03*
X42242Y-8391I-80J0D01*
G01*
X42002Y-8632D02*
G03*
X42002Y-8632I-80J0D01*
G01*
X41761Y-8872D02*
G03*
X41761Y-8872I-80J0D01*
G01*
X41521Y-9113D02*
G03*
X41521Y-9113I-80J0D01*
G01*
X41281Y-9353D02*
G03*
X41281Y-9353I-80J0D01*
G01*
X41040Y-9593D02*
G03*
X41040Y-9593I-80J0D01*
G01*
X40800Y-9834D02*
G03*
X40800Y-9834I-80J0D01*
G01*
X40559Y-10074D02*
G03*
X40559Y-10074I-80J0D01*
G01*
X40319Y-10315D02*
G03*
X40319Y-10315I-80J0D01*
G01*
X40079Y-10555D02*
G03*
X40079Y-10555I-80J0D01*
G01*
X39838Y-10796D02*
G03*
X39838Y-10796I-80J0D01*
G01*
X39598Y-11036D02*
G03*
X39598Y-11036I-80J0D01*
G01*
X39357Y-11276D02*
G03*
X39357Y-11276I-80J0D01*
G01*
X39117Y-11517D02*
G03*
X39117Y-11517I-80J0D01*
G01*
X38876Y-11757D02*
G03*
X38876Y-11757I-80J0D01*
G01*
X38636Y-11998D02*
G03*
X38636Y-11998I-80J0D01*
G01*
X38396Y-12238D02*
G03*
X38396Y-12238I-80J0D01*
G01*
X38155Y-12478D02*
G03*
X38155Y-12478I-80J0D01*
G01*
X37915Y-12719D02*
G03*
X37915Y-12719I-80J0D01*
G01*
X37674Y-12959D02*
G03*
X37674Y-12959I-80J0D01*
G01*
X37434Y-13200D02*
G03*
X37434Y-13200I-80J0D01*
G01*
X37178Y-13423D02*
G03*
X37178Y-13423I-80J0D01*
G01*
X36838D02*
G03*
X36838Y-13423I-80J0D01*
G01*
X36498D02*
G03*
X36498Y-13423I-80J0D01*
G01*
X36158D02*
G03*
X36158Y-13423I-80J0D01*
G01*
X35818D02*
G03*
X35818Y-13423I-80J0D01*
G01*
X35478D02*
G03*
X35478Y-13423I-80J0D01*
G01*
X35200Y-13226D02*
G03*
X35200Y-13226I-80J0D01*
G01*
X35441Y-12985D02*
G03*
X35441Y-12985I-80J0D01*
G01*
X35681Y-12745D02*
G03*
X35681Y-12745I-80J0D01*
G01*
X35922Y-12505D02*
G03*
X35922Y-12505I-80J0D01*
G01*
X36162Y-12264D02*
G03*
X36162Y-12264I-80J0D01*
G01*
X36403Y-12024D02*
G03*
X36403Y-12024I-80J0D01*
G01*
X36643Y-11783D02*
G03*
X36643Y-11783I-80J0D01*
G01*
X36883Y-11543D02*
G03*
X36883Y-11543I-80J0D01*
G01*
X37124Y-11303D02*
G03*
X37124Y-11303I-80J0D01*
G01*
X37364Y-11062D02*
G03*
X37364Y-11062I-80J0D01*
G01*
X37605Y-10822D02*
G03*
X37605Y-10822I-80J0D01*
G01*
X37845Y-10581D02*
G03*
X37845Y-10581I-80J0D01*
G01*
X38085Y-10341D02*
G03*
X38085Y-10341I-80J0D01*
G01*
X38326Y-10100D02*
G03*
X38326Y-10100I-80J0D01*
G01*
X38566Y-9860D02*
G03*
X38566Y-9860I-80J0D01*
G01*
X38807Y-9620D02*
G03*
X38807Y-9620I-80J0D01*
G01*
X39047Y-9379D02*
G03*
X39047Y-9379I-80J0D01*
G01*
X39288Y-9139D02*
G03*
X39288Y-9139I-80J0D01*
G01*
X39528Y-8898D02*
G03*
X39528Y-8898I-80J0D01*
G01*
X39768Y-8658D02*
G03*
X39768Y-8658I-80J0D01*
G01*
X40009Y-8418D02*
G03*
X40009Y-8418I-80J0D01*
G01*
X40249Y-8177D02*
G03*
X40249Y-8177I-80J0D01*
G01*
X40490Y-7937D02*
G03*
X40490Y-7937I-80J0D01*
G01*
X40730Y-7696D02*
G03*
X40730Y-7696I-80J0D01*
G01*
X40970Y-7456D02*
G03*
X40970Y-7456I-80J0D01*
G01*
X41211Y-7215D02*
G03*
X41211Y-7215I-80J0D01*
G01*
X41451Y-6975D02*
G03*
X41451Y-6975I-80J0D01*
G01*
X41692Y-6735D02*
G03*
X41692Y-6735I-80J0D01*
G01*
X41932Y-6494D02*
G03*
X41932Y-6494I-80J0D01*
G01*
X42173Y-6254D02*
G03*
X42173Y-6254I-80J0D01*
G01*
X42413Y-6013D02*
G03*
X42413Y-6013I-80J0D01*
G01*
X42653Y-5773D02*
G03*
X42653Y-5773I-80J0D01*
G01*
X42964Y-5636D02*
G03*
X42964Y-5636I-80J0D01*
G01*
X42887Y-5967D02*
G03*
X42887Y-5967I-80J0D01*
G01*
X43039Y-6270D02*
G03*
X43039Y-6270I-80J0D01*
G01*
X43371Y-6342D02*
G03*
X43371Y-6342I-80J0D01*
G01*
X43700Y-6429D02*
G03*
X43700Y-6429I-80J0D01*
G01*
X43990Y-6606D02*
G03*
X43990Y-6606I-80J0D01*
G01*
X44322Y-6532D02*
G03*
X44322Y-6532I-80J0D01*
G01*
X44662D02*
G03*
X44662Y-6532I-80J0D01*
G01*
X45002D02*
G03*
X45002Y-6532I-80J0D01*
G01*
X45342D02*
G03*
X45342Y-6532I-80J0D01*
G01*
X47042D02*
G03*
X47042Y-6532I-80J0D01*
G01*
X48062D02*
G03*
X48062Y-6532I-80J0D01*
G01*
X48402D02*
G03*
X48402Y-6532I-80J0D01*
G01*
X48742D02*
G03*
X48742Y-6532I-80J0D01*
G01*
X49751Y-6089D02*
G03*
X49751Y-6089I-80J0D01*
G01*
X49726Y-5750D02*
G03*
X49726Y-5750I-80J0D01*
G01*
X47724Y-5645D02*
G03*
X47724Y-5645I-80J0D01*
G01*
X47384D02*
G03*
X47384Y-5645I-80J0D01*
G01*
X47044D02*
G03*
X47044Y-5645I-80J0D01*
G01*
X46704D02*
G03*
X46704Y-5645I-80J0D01*
G01*
X46364D02*
G03*
X46364Y-5645I-80J0D01*
G01*
X46024D02*
G03*
X46024Y-5645I-80J0D01*
G01*
X45684D02*
G03*
X45684Y-5645I-80J0D01*
G01*
X45344D02*
G03*
X45344Y-5645I-80J0D01*
G01*
X45004D02*
G03*
X45004Y-5645I-80J0D01*
G01*
X44664D02*
G03*
X44664Y-5645I-80J0D01*
G01*
X44346Y-5525D02*
G03*
X44346Y-5525I-80J0D01*
G01*
Y-5185D02*
G03*
X44346Y-5185I-80J0D01*
G01*
Y-4845D02*
G03*
X44346Y-4845I-80J0D01*
G01*
Y-4505D02*
G03*
X44346Y-4505I-80J0D01*
G01*
Y-4165D02*
G03*
X44346Y-4165I-80J0D01*
G01*
X44540Y-3886D02*
G03*
X44540Y-3886I-80J0D01*
G01*
X44784Y-3649D02*
G03*
X44784Y-3649I-80J0D01*
G01*
X45119Y-3710D02*
G03*
X45119Y-3710I-80J0D01*
G01*
X45454Y-3656D02*
G03*
X45454Y-3656I-80J0D01*
G01*
X45794Y-3649D02*
G03*
X45794Y-3649I-80J0D01*
G01*
X46814D02*
G03*
X46814Y-3649I-80J0D01*
G01*
X47154D02*
G03*
X47154Y-3649I-80J0D01*
G01*
X48173Y-3676D02*
G03*
X48173Y-3676I-80J0D01*
G01*
X49755Y-3431D02*
G03*
X49755Y-3431I-80J0D01*
G01*
X48714Y-3018D02*
G03*
X48714Y-3018I-80J0D01*
G01*
X48052D02*
G03*
X48052Y-3018I-80J0D01*
G01*
X44999Y-2927D02*
G03*
X44999Y-2927I-80J0D01*
G01*
X45336Y-2882D02*
G03*
X45336Y-2882I-80J0D01*
G01*
X49722Y-2785D02*
G03*
X49722Y-2785I-80J0D01*
G01*
X49752Y-2446D02*
G03*
X49752Y-2446I-80J0D01*
G01*
X48750Y-1991D02*
G03*
X48750Y-1991I-80J0D01*
G01*
X48410Y-1995D02*
G03*
X48410Y-1995I-80J0D01*
G01*
X48070D02*
G03*
X48070Y-1995I-80J0D01*
G01*
X47730D02*
G03*
X47730Y-1995I-80J0D01*
G01*
X47390D02*
G03*
X47390Y-1995I-80J0D01*
G01*
X47050D02*
G03*
X47050Y-1995I-80J0D01*
G01*
X46710D02*
G03*
X46710Y-1995I-80J0D01*
G01*
X46370D02*
G03*
X46370Y-1995I-80J0D01*
G01*
X46030D02*
G03*
X46030Y-1995I-80J0D01*
G01*
X45690D02*
G03*
X45690Y-1995I-80J0D01*
G01*
X45350D02*
G03*
X45350Y-1995I-80J0D01*
G01*
X45010D02*
G03*
X45010Y-1995I-80J0D01*
G01*
X44670D02*
G03*
X44670Y-1995I-80J0D01*
G01*
X44346Y-2097D02*
G03*
X44346Y-2097I-80J0D01*
G01*
Y-1757D02*
G03*
X44346Y-1757I-80J0D01*
G01*
X44415Y-1424D02*
G03*
X44415Y-1424I-80J0D01*
G01*
X44211Y-1152D02*
G03*
X44211Y-1152I-80J0D01*
G01*
X43871Y-1140D02*
G03*
X43871Y-1140I-80J0D01*
G01*
X43534Y-1184D02*
G03*
X43534Y-1184I-80J0D01*
G01*
X43194D02*
G03*
X43194Y-1184I-80J0D01*
G01*
X42897Y-1349D02*
G03*
X42897Y-1349I-80J0D01*
G01*
X42656Y-1590D02*
G03*
X42656Y-1590I-80J0D01*
G01*
X42416Y-1830D02*
G03*
X42416Y-1830I-80J0D01*
G01*
X42176Y-2071D02*
G03*
X42176Y-2071I-80J0D01*
G01*
X42064Y-2392D02*
G03*
X42064Y-2392I-80J0D01*
G01*
Y-2732D02*
G03*
X42064Y-2732I-80J0D01*
G01*
Y-3072D02*
G03*
X42064Y-3072I-80J0D01*
G01*
Y-3412D02*
G03*
X42064Y-3412I-80J0D01*
G01*
X41828Y-3656D02*
G03*
X41828Y-3656I-80J0D01*
G01*
X41587Y-3896D02*
G03*
X41587Y-3896I-80J0D01*
G01*
X41347Y-4137D02*
G03*
X41347Y-4137I-80J0D01*
G01*
X41106Y-4377D02*
G03*
X41106Y-4377I-80J0D01*
G01*
X40866Y-4618D02*
G03*
X40866Y-4618I-80J0D01*
G01*
X40626Y-4858D02*
G03*
X40626Y-4858I-80J0D01*
G01*
X40385Y-5098D02*
G03*
X40385Y-5098I-80J0D01*
G01*
X40145Y-5339D02*
G03*
X40145Y-5339I-80J0D01*
G01*
X39904Y-5579D02*
G03*
X39904Y-5579I-80J0D01*
G01*
X39664Y-5820D02*
G03*
X39664Y-5820I-80J0D01*
G01*
X39424Y-6060D02*
G03*
X39424Y-6060I-80J0D01*
G01*
X39183Y-6301D02*
G03*
X39183Y-6301I-80J0D01*
G01*
X38943Y-6541D02*
G03*
X38943Y-6541I-80J0D01*
G01*
X38702Y-6781D02*
G03*
X38702Y-6781I-80J0D01*
G01*
X38462Y-7022D02*
G03*
X38462Y-7022I-80J0D01*
G01*
X38221Y-7262D02*
G03*
X38221Y-7262I-80J0D01*
G01*
X37981Y-7503D02*
G03*
X37981Y-7503I-80J0D01*
G01*
X37741Y-7743D02*
G03*
X37741Y-7743I-80J0D01*
G01*
X37500Y-7983D02*
G03*
X37500Y-7983I-80J0D01*
G01*
X37260Y-8224D02*
G03*
X37260Y-8224I-80J0D01*
G01*
X37019Y-8464D02*
G03*
X37019Y-8464I-80J0D01*
G01*
X36779Y-8705D02*
G03*
X36779Y-8705I-80J0D01*
G01*
X36539Y-8945D02*
G03*
X36539Y-8945I-80J0D01*
G01*
X36298Y-9186D02*
G03*
X36298Y-9186I-80J0D01*
G01*
X36058Y-9426D02*
G03*
X36058Y-9426I-80J0D01*
G01*
X35817Y-9666D02*
G03*
X35817Y-9666I-80J0D01*
G01*
X35577Y-9907D02*
G03*
X35577Y-9907I-80J0D01*
G01*
X35336Y-10147D02*
G03*
X35336Y-10147I-80J0D01*
G01*
X35096Y-10388D02*
G03*
X35096Y-10388I-80J0D01*
G01*
X34856Y-10628D02*
G03*
X34856Y-10628I-80J0D01*
G01*
X34615Y-10868D02*
G03*
X34615Y-10868I-80J0D01*
G01*
X34375Y-11109D02*
G03*
X34375Y-11109I-80J0D01*
G01*
X34134Y-11349D02*
G03*
X34134Y-11349I-80J0D01*
G01*
X33894Y-11590D02*
G03*
X33894Y-11590I-80J0D01*
G01*
X33567Y-11684D02*
G03*
X33567Y-11684I-80J0D01*
G01*
X33243Y-11584D02*
G03*
X33243Y-11584I-80J0D01*
G01*
X33483Y-11343D02*
G03*
X33483Y-11343I-80J0D01*
G01*
X33723Y-11103D02*
G03*
X33723Y-11103I-80J0D01*
G01*
X33964Y-10862D02*
G03*
X33964Y-10862I-80J0D01*
G01*
X34204Y-10622D02*
G03*
X34204Y-10622I-80J0D01*
G01*
X34445Y-10382D02*
G03*
X34445Y-10382I-80J0D01*
G01*
X34685Y-10141D02*
G03*
X34685Y-10141I-80J0D01*
G01*
X34926Y-9901D02*
G03*
X34926Y-9901I-80J0D01*
G01*
X35166Y-9660D02*
G03*
X35166Y-9660I-80J0D01*
G01*
X35406Y-9420D02*
G03*
X35406Y-9420I-80J0D01*
G01*
X35647Y-9180D02*
G03*
X35647Y-9180I-80J0D01*
G01*
X35887Y-8939D02*
G03*
X35887Y-8939I-80J0D01*
G01*
X36128Y-8699D02*
G03*
X36128Y-8699I-80J0D01*
G01*
X36368Y-8458D02*
G03*
X36368Y-8458I-80J0D01*
G01*
X36608Y-8218D02*
G03*
X36608Y-8218I-80J0D01*
G01*
X36849Y-7977D02*
G03*
X36849Y-7977I-80J0D01*
G01*
X37089Y-7737D02*
G03*
X37089Y-7737I-80J0D01*
G01*
X37330Y-7497D02*
G03*
X37330Y-7497I-80J0D01*
G01*
X37570Y-7256D02*
G03*
X37570Y-7256I-80J0D01*
G01*
X37811Y-7016D02*
G03*
X37811Y-7016I-80J0D01*
G01*
X38051Y-6775D02*
G03*
X38051Y-6775I-80J0D01*
G01*
X38291Y-6535D02*
G03*
X38291Y-6535I-80J0D01*
G01*
X38532Y-6295D02*
G03*
X38532Y-6295I-80J0D01*
G01*
X38772Y-6054D02*
G03*
X38772Y-6054I-80J0D01*
G01*
X39013Y-5814D02*
G03*
X39013Y-5814I-80J0D01*
G01*
X39253Y-5573D02*
G03*
X39253Y-5573I-80J0D01*
G01*
X39493Y-5333D02*
G03*
X39493Y-5333I-80J0D01*
G01*
X39734Y-5092D02*
G03*
X39734Y-5092I-80J0D01*
G01*
X39974Y-4852D02*
G03*
X39974Y-4852I-80J0D01*
G01*
X40215Y-4612D02*
G03*
X40215Y-4612I-80J0D01*
G01*
X40455Y-4371D02*
G03*
X40455Y-4371I-80J0D01*
G01*
X40643Y-4088D02*
G03*
X40643Y-4088I-80J0D01*
G01*
X40646Y-3748D02*
G03*
X40646Y-3748I-80J0D01*
G01*
Y-3408D02*
G03*
X40646Y-3408I-80J0D01*
G01*
Y-3068D02*
G03*
X40646Y-3068I-80J0D01*
G01*
Y-2728D02*
G03*
X40646Y-2728I-80J0D01*
G01*
Y-2388D02*
G03*
X40646Y-2388I-80J0D01*
G01*
Y-2048D02*
G03*
X40646Y-2048I-80J0D01*
G01*
Y-1708D02*
G03*
X40646Y-1708I-80J0D01*
G01*
Y-1368D02*
G03*
X40646Y-1368I-80J0D01*
G01*
Y-1028D02*
G03*
X40646Y-1028I-80J0D01*
G01*
Y-688D02*
G03*
X40646Y-688I-80J0D01*
G01*
Y-348D02*
G03*
X40646Y-348I-80J0D01*
G01*
Y-8D02*
G03*
X40646Y-8I-80J0D01*
G01*
Y332D02*
G03*
X40646Y332I-80J0D01*
G01*
X40762Y652D02*
G03*
X40762Y652I-80J0D01*
G01*
X41002Y892D02*
G03*
X41002Y892I-80J0D01*
G01*
X41243Y1133D02*
G03*
X41243Y1133I-80J0D01*
G01*
X41483Y1373D02*
G03*
X41483Y1373I-80J0D01*
G01*
X41724Y1613D02*
G03*
X41724Y1613I-80J0D01*
G01*
X41964Y1854D02*
G03*
X41964Y1854I-80J0D01*
G01*
X42204Y2094D02*
G03*
X42204Y2094I-80J0D01*
G01*
X42445Y2335D02*
G03*
X42445Y2335I-80J0D01*
G01*
X42685Y2575D02*
G03*
X42685Y2575I-80J0D01*
G01*
X42964Y2769D02*
G03*
X42964Y2769I-80J0D01*
G01*
Y2429D02*
G03*
X42964Y2429I-80J0D01*
G01*
Y2089D02*
G03*
X42964Y2089I-80J0D01*
G01*
Y1749D02*
G03*
X42964Y1749I-80J0D01*
G01*
Y1409D02*
G03*
X42964Y1409I-80J0D01*
G01*
X42890Y1078D02*
G03*
X42890Y1078I-80J0D01*
G01*
X43006Y758D02*
G03*
X43006Y758I-80J0D01*
G01*
X43328Y650D02*
G03*
X43328Y650I-80J0D01*
G01*
X43667Y632D02*
G03*
X43667Y632I-80J0D01*
G01*
X43922Y407D02*
G03*
X43922Y407I-80J0D01*
G01*
X44257Y464D02*
G03*
X44257Y464I-80J0D01*
G01*
X44597Y468D02*
G03*
X44597Y468I-80J0D01*
G01*
X44937D02*
G03*
X44937Y468I-80J0D01*
G01*
X45277D02*
G03*
X45277Y468I-80J0D01*
G01*
X45617D02*
G03*
X45617Y468I-80J0D01*
G01*
X45957D02*
G03*
X45957Y468I-80J0D01*
G01*
X46977D02*
G03*
X46977Y468I-80J0D01*
G01*
X47997D02*
G03*
X47997Y468I-80J0D01*
G01*
X48337D02*
G03*
X48337Y468I-80J0D01*
G01*
X48677D02*
G03*
X48677Y468I-80J0D01*
G01*
X49756Y843D02*
G03*
X49756Y843I-80J0D01*
G01*
X49749Y1183D02*
G03*
X49749Y1183I-80J0D01*
G01*
X47789Y1355D02*
G03*
X47789Y1355I-80J0D01*
G01*
X47449D02*
G03*
X47449Y1355I-80J0D01*
G01*
X47109D02*
G03*
X47109Y1355I-80J0D01*
G01*
X46769D02*
G03*
X46769Y1355I-80J0D01*
G01*
X46429D02*
G03*
X46429Y1355I-80J0D01*
G01*
X46089D02*
G03*
X46089Y1355I-80J0D01*
G01*
X45749D02*
G03*
X45749Y1355I-80J0D01*
G01*
X45409D02*
G03*
X45409Y1355I-80J0D01*
G01*
X45069D02*
G03*
X45069Y1355I-80J0D01*
G01*
X44729D02*
G03*
X44729Y1355I-80J0D01*
G01*
X44389D02*
G03*
X44389Y1355I-80J0D01*
G01*
X44346Y1693D02*
G03*
X44346Y1693I-80J0D01*
G01*
Y2033D02*
G03*
X44346Y2033I-80J0D01*
G01*
Y2373D02*
G03*
X44346Y2373I-80J0D01*
G01*
Y2713D02*
G03*
X44346Y2713I-80J0D01*
G01*
Y3053D02*
G03*
X44346Y3053I-80J0D01*
G01*
X44509Y3351D02*
G03*
X44509Y3351I-80J0D01*
G01*
X44849D02*
G03*
X44849Y3351I-80J0D01*
G01*
X45181Y3276D02*
G03*
X45181Y3276I-80J0D01*
G01*
X45513Y3351D02*
G03*
X45513Y3351I-80J0D01*
G01*
X45853D02*
G03*
X45853Y3351I-80J0D01*
G01*
X46873D02*
G03*
X46873Y3351I-80J0D01*
G01*
X47893D02*
G03*
X47893Y3351I-80J0D01*
G01*
X48229Y3296D02*
G03*
X48229Y3296I-80J0D01*
G01*
X48567Y3329D02*
G03*
X48567Y3329I-80J0D01*
G01*
X49756Y3622D02*
G03*
X49756Y3622I-80J0D01*
G01*
X48663Y3982D02*
G03*
X48663Y3982I-80J0D01*
G01*
X48000D02*
G03*
X48000Y3982I-80J0D01*
G01*
X44644Y4118D02*
G03*
X44644Y4118I-80J0D01*
G01*
X44984D02*
G03*
X44984Y4118I-80J0D01*
G01*
X45324D02*
G03*
X45324Y4118I-80J0D01*
G01*
X49715Y4203D02*
G03*
X49715Y4203I-80J0D01*
G01*
X49753Y4541D02*
G03*
X49753Y4541I-80J0D01*
G01*
X48761Y5016D02*
G03*
X48761Y5016I-80J0D01*
G01*
X48421Y5005D02*
G03*
X48421Y5005I-80J0D01*
G01*
X48081D02*
G03*
X48081Y5005I-80J0D01*
G01*
X47741D02*
G03*
X47741Y5005I-80J0D01*
G01*
X47401D02*
G03*
X47401Y5005I-80J0D01*
G01*
X47061D02*
G03*
X47061Y5005I-80J0D01*
G01*
X46721D02*
G03*
X46721Y5005I-80J0D01*
G01*
X46381D02*
G03*
X46381Y5005I-80J0D01*
G01*
X46041D02*
G03*
X46041Y5005I-80J0D01*
G01*
X45701D02*
G03*
X45701Y5005I-80J0D01*
G01*
X45361D02*
G03*
X45361Y5005I-80J0D01*
G01*
X45021D02*
G03*
X45021Y5005I-80J0D01*
G01*
X44681D02*
G03*
X44681Y5005I-80J0D01*
G01*
X44346Y5061D02*
G03*
X44346Y5061I-80J0D01*
G01*
X44409Y5396D02*
G03*
X44409Y5396I-80J0D01*
G01*
X44348Y5730D02*
G03*
X44348Y5730I-80J0D01*
G01*
X44050Y5894D02*
G03*
X44050Y5894I-80J0D01*
G01*
X43719Y5816D02*
G03*
X43719Y5816I-80J0D01*
G01*
X43379D02*
G03*
X43379Y5816I-80J0D01*
G01*
X43043Y5763D02*
G03*
X43043Y5763I-80J0D01*
G01*
X42797Y5529D02*
G03*
X42797Y5529I-80J0D01*
G01*
X42556Y5289D02*
G03*
X42556Y5289I-80J0D01*
G01*
X42316Y5048D02*
G03*
X42316Y5048I-80J0D01*
G01*
X42075Y4808D02*
G03*
X42075Y4808I-80J0D01*
G01*
X41835Y4568D02*
G03*
X41835Y4568I-80J0D01*
G01*
X41595Y4327D02*
G03*
X41595Y4327I-80J0D01*
G01*
X41354Y4087D02*
G03*
X41354Y4087I-80J0D01*
G01*
X41114Y3846D02*
G03*
X41114Y3846I-80J0D01*
G01*
X40873Y3606D02*
G03*
X40873Y3606I-80J0D01*
G01*
X40633Y3365D02*
G03*
X40633Y3365I-80J0D01*
G01*
X40393Y3125D02*
G03*
X40393Y3125I-80J0D01*
G01*
X40152Y2885D02*
G03*
X40152Y2885I-80J0D01*
G01*
X39912Y2644D02*
G03*
X39912Y2644I-80J0D01*
G01*
X39671Y2404D02*
G03*
X39671Y2404I-80J0D01*
G01*
X39431Y2163D02*
G03*
X39431Y2163I-80J0D01*
G01*
X39190Y1923D02*
G03*
X39190Y1923I-80J0D01*
G01*
X38950Y1683D02*
G03*
X38950Y1683I-80J0D01*
G01*
X38710Y1442D02*
G03*
X38710Y1442I-80J0D01*
G01*
X38614Y1116D02*
G03*
X38614Y1116I-80J0D01*
G01*
Y776D02*
G03*
X38614Y776I-80J0D01*
G01*
Y436D02*
G03*
X38614Y436I-80J0D01*
G01*
Y96D02*
G03*
X38614Y96I-80J0D01*
G01*
Y-244D02*
G03*
X38614Y-244I-80J0D01*
G01*
Y-584D02*
G03*
X38614Y-584I-80J0D01*
G01*
Y-924D02*
G03*
X38614Y-924I-80J0D01*
G01*
Y-1264D02*
G03*
X38614Y-1264I-80J0D01*
G01*
Y-1604D02*
G03*
X38614Y-1604I-80J0D01*
G01*
Y-1944D02*
G03*
X38614Y-1944I-80J0D01*
G01*
Y-2284D02*
G03*
X38614Y-2284I-80J0D01*
G01*
Y-2624D02*
G03*
X38614Y-2624I-80J0D01*
G01*
Y-2964D02*
G03*
X38614Y-2964I-80J0D01*
G01*
X38499Y-3284D02*
G03*
X38499Y-3284I-80J0D01*
G01*
X38259Y-3525D02*
G03*
X38259Y-3525I-80J0D01*
G01*
X38019Y-3765D02*
G03*
X38019Y-3765I-80J0D01*
G01*
X37778Y-4005D02*
G03*
X37778Y-4005I-80J0D01*
G01*
X37538Y-4246D02*
G03*
X37538Y-4246I-80J0D01*
G01*
X37297Y-4486D02*
G03*
X37297Y-4486I-80J0D01*
G01*
X37057Y-4727D02*
G03*
X37057Y-4727I-80J0D01*
G01*
X36816Y-4967D02*
G03*
X36816Y-4967I-80J0D01*
G01*
X36576Y-5208D02*
G03*
X36576Y-5208I-80J0D01*
G01*
X36336Y-5448D02*
G03*
X36336Y-5448I-80J0D01*
G01*
X36095Y-5688D02*
G03*
X36095Y-5688I-80J0D01*
G01*
X35855Y-5929D02*
G03*
X35855Y-5929I-80J0D01*
G01*
X35614Y-6169D02*
G03*
X35614Y-6169I-80J0D01*
G01*
X35323Y-6344D02*
G03*
X35323Y-6344I-80J0D01*
G01*
X34983D02*
G03*
X34983Y-6344I-80J0D01*
G01*
X34643D02*
G03*
X34643Y-6344I-80J0D01*
G01*
X34303D02*
G03*
X34303Y-6344I-80J0D01*
G01*
X33963D02*
G03*
X33963Y-6344I-80J0D01*
G01*
X33623D02*
G03*
X33623Y-6344I-80J0D01*
G01*
X33283D02*
G03*
X33283Y-6344I-80J0D01*
G01*
X32943D02*
G03*
X32943Y-6344I-80J0D01*
G01*
X32603D02*
G03*
X32603Y-6344I-80J0D01*
G01*
X32263D02*
G03*
X32263Y-6344I-80J0D01*
G01*
X31923D02*
G03*
X31923Y-6344I-80J0D01*
G01*
X31583D02*
G03*
X31583Y-6344I-80J0D01*
G01*
X31243D02*
G03*
X31243Y-6344I-80J0D01*
G01*
X30903D02*
G03*
X30903Y-6344I-80J0D01*
G01*
X30563D02*
G03*
X30563Y-6344I-80J0D01*
G01*
X30223D02*
G03*
X30223Y-6344I-80J0D01*
G01*
X29883D02*
G03*
X29883Y-6344I-80J0D01*
G01*
X29543D02*
G03*
X29543Y-6344I-80J0D01*
G01*
X29203D02*
G03*
X29203Y-6344I-80J0D01*
G01*
X28863D02*
G03*
X28863Y-6344I-80J0D01*
G01*
X28523D02*
G03*
X28523Y-6344I-80J0D01*
G01*
X28184Y-6311D02*
G03*
X28184Y-6311I-80J0D01*
G01*
X27968Y-6049D02*
G03*
X27968Y-6049I-80J0D01*
G01*
X28215Y-5816D02*
G03*
X28215Y-5816I-80J0D01*
G01*
X28555D02*
G03*
X28555Y-5816I-80J0D01*
G01*
X28895D02*
G03*
X28895Y-5816I-80J0D01*
G01*
X29235D02*
G03*
X29235Y-5816I-80J0D01*
G01*
X29575D02*
G03*
X29575Y-5816I-80J0D01*
G01*
X29915D02*
G03*
X29915Y-5816I-80J0D01*
G01*
X30255D02*
G03*
X30255Y-5816I-80J0D01*
G01*
X30595D02*
G03*
X30595Y-5816I-80J0D01*
G01*
X30924Y-5730D02*
G03*
X30924Y-5730I-80J0D01*
G01*
X31166Y-5491D02*
G03*
X31166Y-5491I-80J0D01*
G01*
X31406Y-5250D02*
G03*
X31406Y-5250I-80J0D01*
G01*
X31647Y-5010D02*
G03*
X31647Y-5010I-80J0D01*
G01*
X31887Y-4769D02*
G03*
X31887Y-4769I-80J0D01*
G01*
X32127Y-4529D02*
G03*
X32127Y-4529I-80J0D01*
G01*
X32368Y-4289D02*
G03*
X32368Y-4289I-80J0D01*
G01*
X32608Y-4048D02*
G03*
X32608Y-4048I-80J0D01*
G01*
X32849Y-3808D02*
G03*
X32849Y-3808I-80J0D01*
G01*
X33089Y-3567D02*
G03*
X33089Y-3567I-80J0D01*
G01*
X33330Y-3327D02*
G03*
X33330Y-3327I-80J0D01*
G01*
X33570Y-3086D02*
G03*
X33570Y-3086I-80J0D01*
G01*
X33810Y-2846D02*
G03*
X33810Y-2846I-80J0D01*
G01*
X34051Y-2606D02*
G03*
X34051Y-2606I-80J0D01*
G01*
X34291Y-2365D02*
G03*
X34291Y-2365I-80J0D01*
G01*
X34532Y-2125D02*
G03*
X34532Y-2125I-80J0D01*
G01*
X34772Y-1884D02*
G03*
X34772Y-1884I-80J0D01*
G01*
X35012Y-1644D02*
G03*
X35012Y-1644I-80J0D01*
G01*
X35253Y-1404D02*
G03*
X35253Y-1404I-80J0D01*
G01*
X35493Y-1163D02*
G03*
X35493Y-1163I-80J0D01*
G01*
X35734Y-923D02*
G03*
X35734Y-923I-80J0D01*
G01*
X35974Y-682D02*
G03*
X35974Y-682I-80J0D01*
G01*
X36214Y-442D02*
G03*
X36214Y-442I-80J0D01*
G01*
X36455Y-201D02*
G03*
X36455Y-201I-80J0D01*
G01*
X36695Y39D02*
G03*
X36695Y39I-80J0D01*
G01*
X36936Y279D02*
G03*
X36936Y279I-80J0D01*
G01*
X37176Y520D02*
G03*
X37176Y520I-80J0D01*
G01*
X37417Y760D02*
G03*
X37417Y760I-80J0D01*
G01*
X37657Y1001D02*
G03*
X37657Y1001I-80J0D01*
G01*
X37897Y1241D02*
G03*
X37897Y1241I-80J0D01*
G01*
X38138Y1481D02*
G03*
X38138Y1481I-80J0D01*
G01*
X38378Y1722D02*
G03*
X38378Y1722I-80J0D01*
G01*
X38619Y1962D02*
G03*
X38619Y1962I-80J0D01*
G01*
X38859Y2203D02*
G03*
X38859Y2203I-80J0D01*
G01*
X39099Y2443D02*
G03*
X39099Y2443I-80J0D01*
G01*
X39340Y2684D02*
G03*
X39340Y2684I-80J0D01*
G01*
X39580Y2924D02*
G03*
X39580Y2924I-80J0D01*
G01*
X39821Y3164D02*
G03*
X39821Y3164I-80J0D01*
G01*
X40061Y3405D02*
G03*
X40061Y3405I-80J0D01*
G01*
X40302Y3645D02*
G03*
X40302Y3645I-80J0D01*
G01*
X40542Y3886D02*
G03*
X40542Y3886I-80J0D01*
G01*
X40782Y4126D02*
G03*
X40782Y4126I-80J0D01*
G01*
X41023Y4366D02*
G03*
X41023Y4366I-80J0D01*
G01*
X41263Y4607D02*
G03*
X41263Y4607I-80J0D01*
G01*
X41504Y4847D02*
G03*
X41504Y4847I-80J0D01*
G01*
X41744Y5088D02*
G03*
X41744Y5088I-80J0D01*
G01*
X41984Y5328D02*
G03*
X41984Y5328I-80J0D01*
G01*
X42225Y5569D02*
G03*
X42225Y5569I-80J0D01*
G01*
X42465Y5809D02*
G03*
X42465Y5809I-80J0D01*
G01*
X42706Y6049D02*
G03*
X42706Y6049I-80J0D01*
G01*
X43042Y6101D02*
G03*
X43042Y6101I-80J0D01*
G01*
X43382D02*
G03*
X43382Y6101I-80J0D01*
G01*
X43722D02*
G03*
X43722Y6101I-80J0D01*
G01*
X44061Y6125D02*
G03*
X44061Y6125I-80J0D01*
G01*
X44355Y6296D02*
G03*
X44355Y6296I-80J0D01*
G01*
X44405Y6632D02*
G03*
X44405Y6632I-80J0D01*
G01*
X44346Y6967D02*
G03*
X44346Y6967I-80J0D01*
G01*
Y7307D02*
G03*
X44346Y7307I-80J0D01*
G01*
X44645Y7468D02*
G03*
X44645Y7468I-80J0D01*
G01*
X44985D02*
G03*
X44985Y7468I-80J0D01*
G01*
X45325D02*
G03*
X45325Y7468I-80J0D01*
G01*
X46005Y7468D02*
G03*
X46005Y7468I-80J0D01*
G01*
X47025D02*
G03*
X47025Y7468I-80J0D01*
G01*
X48045Y7468D02*
G03*
X48045Y7468I-80J0D01*
G01*
X48385D02*
G03*
X48385Y7468I-80J0D01*
G01*
X48725D02*
G03*
X48725Y7468I-80J0D01*
G01*
X49753Y7892D02*
G03*
X49753Y7892I-80J0D01*
G01*
X49733Y8232D02*
G03*
X49733Y8232I-80J0D01*
G01*
X47740Y8355D02*
G03*
X47740Y8355I-80J0D01*
G01*
X47400D02*
G03*
X47400Y8355I-80J0D01*
G01*
X47060D02*
G03*
X47060Y8355I-80J0D01*
G01*
X46720D02*
G03*
X46720Y8355I-80J0D01*
G01*
X46380D02*
G03*
X46380Y8355I-80J0D01*
G01*
X46040D02*
G03*
X46040Y8355I-80J0D01*
G01*
X45700D02*
G03*
X45700Y8355I-80J0D01*
G01*
X45360D02*
G03*
X45360Y8355I-80J0D01*
G01*
X45020D02*
G03*
X45020Y8355I-80J0D01*
G01*
X44680D02*
G03*
X44680Y8355I-80J0D01*
G01*
X44346Y8416D02*
G03*
X44346Y8416I-80J0D01*
G01*
Y8756D02*
G03*
X44346Y8756I-80J0D01*
G01*
X44372Y9095D02*
G03*
X44372Y9095I-80J0D01*
G01*
X44612Y9336D02*
G03*
X44612Y9336I-80J0D01*
G01*
X44853Y9576D02*
G03*
X44853Y9576I-80J0D01*
G01*
X45093Y9817D02*
G03*
X45093Y9817I-80J0D01*
G01*
X45333Y10057D02*
G03*
X45333Y10057I-80J0D01*
G01*
X45574Y10298D02*
G03*
X45574Y10298I-80J0D01*
G01*
X45910Y10351D02*
G03*
X45910Y10351I-80J0D01*
G01*
X46930D02*
G03*
X46930Y10351I-80J0D01*
G01*
X47950D02*
G03*
X47950Y10351I-80J0D01*
G01*
X48283Y10283D02*
G03*
X48283Y10283I-80J0D01*
G01*
X48616Y10351D02*
G03*
X48616Y10351I-80J0D01*
G01*
X49630Y10350D02*
G03*
X49630Y10350I-80J0D01*
G01*
X49756Y10665D02*
G03*
X49756Y10665I-80J0D01*
G01*
X48617Y10982D02*
G03*
X48617Y10982I-80J0D01*
G01*
X47951D02*
G03*
X47951Y10982I-80J0D01*
G01*
X49655Y11137D02*
G03*
X49655Y11137I-80J0D01*
G01*
X49756Y11461D02*
G03*
X49756Y11461I-80J0D01*
G01*
X48499Y12005D02*
G03*
X48499Y12005I-80J0D01*
G01*
X48159D02*
G03*
X48159Y12005I-80J0D01*
G01*
X47819D02*
G03*
X47819Y12005I-80J0D01*
G01*
X47479D02*
G03*
X47479Y12005I-80J0D01*
G01*
X47139D02*
G03*
X47139Y12005I-80J0D01*
G01*
X46799D02*
G03*
X46799Y12005I-80J0D01*
G01*
X46459D02*
G03*
X46459Y12005I-80J0D01*
G01*
X46119D02*
G03*
X46119Y12005I-80J0D01*
G01*
X45779D02*
G03*
X45779Y12005I-80J0D01*
G01*
X45439D02*
G03*
X45439Y12005I-80J0D01*
G01*
X45105Y11945D02*
G03*
X45105Y11945I-80J0D01*
G01*
X44860Y11709D02*
G03*
X44860Y11709I-80J0D01*
G01*
X44619Y11468D02*
G03*
X44619Y11468I-80J0D01*
G01*
X44379Y11228D02*
G03*
X44379Y11228I-80J0D01*
G01*
X44139Y10988D02*
G03*
X44139Y10988I-80J0D01*
G01*
X43898Y10747D02*
G03*
X43898Y10747I-80J0D01*
G01*
X43658Y10507D02*
G03*
X43658Y10507I-80J0D01*
G01*
X43417Y10266D02*
G03*
X43417Y10266I-80J0D01*
G01*
X43177Y10026D02*
G03*
X43177Y10026I-80J0D01*
G01*
X42938Y9784D02*
G03*
X42938Y9784I-80J0D01*
G01*
X42864Y9452D02*
G03*
X42864Y9452I-80J0D01*
G01*
Y9112D02*
G03*
X42864Y9112I-80J0D01*
G01*
X42827Y8774D02*
G03*
X42827Y8774I-80J0D01*
G01*
X42746Y8444D02*
G03*
X42746Y8444I-80J0D01*
G01*
X42434Y8308D02*
G03*
X42434Y8308I-80J0D01*
G01*
X42165Y8099D02*
G03*
X42165Y8099I-80J0D01*
G01*
X41827Y8065D02*
G03*
X41827Y8065I-80J0D01*
G01*
X41573Y7839D02*
G03*
X41573Y7839I-80J0D01*
G01*
X41333Y7599D02*
G03*
X41333Y7599I-80J0D01*
G01*
X41092Y7358D02*
G03*
X41092Y7358I-80J0D01*
G01*
X40852Y7118D02*
G03*
X40852Y7118I-80J0D01*
G01*
X40611Y6878D02*
G03*
X40611Y6878I-80J0D01*
G01*
X40371Y6637D02*
G03*
X40371Y6637I-80J0D01*
G01*
X40130Y6397D02*
G03*
X40130Y6397I-80J0D01*
G01*
X39890Y6156D02*
G03*
X39890Y6156I-80J0D01*
G01*
X39650Y5916D02*
G03*
X39650Y5916I-80J0D01*
G01*
X39409Y5676D02*
G03*
X39409Y5676I-80J0D01*
G01*
X39169Y5435D02*
G03*
X39169Y5435I-80J0D01*
G01*
X38928Y5195D02*
G03*
X38928Y5195I-80J0D01*
G01*
X38688Y4954D02*
G03*
X38688Y4954I-80J0D01*
G01*
X38448Y4714D02*
G03*
X38448Y4714I-80J0D01*
G01*
X38207Y4473D02*
G03*
X38207Y4473I-80J0D01*
G01*
X37967Y4233D02*
G03*
X37967Y4233I-80J0D01*
G01*
X37726Y3993D02*
G03*
X37726Y3993I-80J0D01*
G01*
X37486Y3752D02*
G03*
X37486Y3752I-80J0D01*
G01*
X37245Y3512D02*
G03*
X37245Y3512I-80J0D01*
G01*
X37005Y3271D02*
G03*
X37005Y3271I-80J0D01*
G01*
X36765Y3031D02*
G03*
X36765Y3031I-80J0D01*
G01*
X36524Y2791D02*
G03*
X36524Y2791I-80J0D01*
G01*
X36284Y2550D02*
G03*
X36284Y2550I-80J0D01*
G01*
X36043Y2310D02*
G03*
X36043Y2310I-80J0D01*
G01*
X35803Y2069D02*
G03*
X35803Y2069I-80J0D01*
G01*
X35563Y1829D02*
G03*
X35563Y1829I-80J0D01*
G01*
X35322Y1588D02*
G03*
X35322Y1588I-80J0D01*
G01*
X35082Y1348D02*
G03*
X35082Y1348I-80J0D01*
G01*
X34841Y1108D02*
G03*
X34841Y1108I-80J0D01*
G01*
X34601Y867D02*
G03*
X34601Y867I-80J0D01*
G01*
X34360Y627D02*
G03*
X34360Y627I-80J0D01*
G01*
X34120Y386D02*
G03*
X34120Y386I-80J0D01*
G01*
X33880Y146D02*
G03*
X33880Y146I-80J0D01*
G01*
X33639Y-94D02*
G03*
X33639Y-94I-80J0D01*
G01*
X33399Y-335D02*
G03*
X33399Y-335I-80J0D01*
G01*
X33158Y-575D02*
G03*
X33158Y-575I-80J0D01*
G01*
X32918Y-816D02*
G03*
X32918Y-816I-80J0D01*
G01*
X32678Y-1056D02*
G03*
X32678Y-1056I-80J0D01*
G01*
X32437Y-1296D02*
G03*
X32437Y-1296I-80J0D01*
G01*
X32197Y-1537D02*
G03*
X32197Y-1537I-80J0D01*
G01*
X31956Y-1777D02*
G03*
X31956Y-1777I-80J0D01*
G01*
X31716Y-2018D02*
G03*
X31716Y-2018I-80J0D01*
G01*
X31475Y-2258D02*
G03*
X31475Y-2258I-80J0D01*
G01*
X31235Y-2499D02*
G03*
X31235Y-2499I-80J0D01*
G01*
X30995Y-2739D02*
G03*
X30995Y-2739I-80J0D01*
G01*
X30754Y-2979D02*
G03*
X30754Y-2979I-80J0D01*
G01*
X30514Y-3220D02*
G03*
X30514Y-3220I-80J0D01*
G01*
X30273Y-3460D02*
G03*
X30273Y-3460I-80J0D01*
G01*
X30033Y-3701D02*
G03*
X30033Y-3701I-80J0D01*
G01*
X29720Y-3834D02*
G03*
X29720Y-3834I-80J0D01*
G01*
X29380D02*
G03*
X29380Y-3834I-80J0D01*
G01*
X29040D02*
G03*
X29040Y-3834I-80J0D01*
G01*
X27341Y-3816D02*
G03*
X27341Y-3816I-80J0D01*
G01*
X27681D02*
G03*
X27681Y-3816I-80J0D01*
G01*
X28021D02*
G03*
X28021Y-3816I-80J0D01*
G01*
X28361D02*
G03*
X28361Y-3816I-80J0D01*
G01*
X28701Y-3813D02*
G03*
X28701Y-3813I-80J0D01*
G01*
X29231Y-3395D02*
G03*
X29231Y-3395I-80J0D01*
G01*
X29472Y-3155D02*
G03*
X29472Y-3155I-80J0D01*
G01*
X29712Y-2914D02*
G03*
X29712Y-2914I-80J0D01*
G01*
X29952Y-2674D02*
G03*
X29952Y-2674I-80J0D01*
G01*
X30193Y-2434D02*
G03*
X30193Y-2434I-80J0D01*
G01*
X30433Y-2193D02*
G03*
X30433Y-2193I-80J0D01*
G01*
X30674Y-1953D02*
G03*
X30674Y-1953I-80J0D01*
G01*
X30914Y-1712D02*
G03*
X30914Y-1712I-80J0D01*
G01*
X31154Y-1472D02*
G03*
X31154Y-1472I-80J0D01*
G01*
X31395Y-1231D02*
G03*
X31395Y-1231I-80J0D01*
G01*
X31635Y-991D02*
G03*
X31635Y-991I-80J0D01*
G01*
X31876Y-751D02*
G03*
X31876Y-751I-80J0D01*
G01*
X32116Y-510D02*
G03*
X32116Y-510I-80J0D01*
G01*
X32357Y-270D02*
G03*
X32357Y-270I-80J0D01*
G01*
X32597Y-29D02*
G03*
X32597Y-29I-80J0D01*
G01*
X32837Y211D02*
G03*
X32837Y211I-80J0D01*
G01*
X33078Y451D02*
G03*
X33078Y451I-80J0D01*
G01*
X33318Y692D02*
G03*
X33318Y692I-80J0D01*
G01*
X33559Y932D02*
G03*
X33559Y932I-80J0D01*
G01*
X33799Y1173D02*
G03*
X33799Y1173I-80J0D01*
G01*
X34039Y1413D02*
G03*
X34039Y1413I-80J0D01*
G01*
X34280Y1654D02*
G03*
X34280Y1654I-80J0D01*
G01*
X34520Y1894D02*
G03*
X34520Y1894I-80J0D01*
G01*
X34761Y2134D02*
G03*
X34761Y2134I-80J0D01*
G01*
X35001Y2375D02*
G03*
X35001Y2375I-80J0D01*
G01*
X35242Y2615D02*
G03*
X35242Y2615I-80J0D01*
G01*
X35482Y2856D02*
G03*
X35482Y2856I-80J0D01*
G01*
X35722Y3096D02*
G03*
X35722Y3096I-80J0D01*
G01*
X35963Y3336D02*
G03*
X35963Y3336I-80J0D01*
G01*
X36203Y3577D02*
G03*
X36203Y3577I-80J0D01*
G01*
X36444Y3817D02*
G03*
X36444Y3817I-80J0D01*
G01*
X36684Y4058D02*
G03*
X36684Y4058I-80J0D01*
G01*
X36925Y4298D02*
G03*
X36925Y4298I-80J0D01*
G01*
X37165Y4539D02*
G03*
X37165Y4539I-80J0D01*
G01*
X37405Y4779D02*
G03*
X37405Y4779I-80J0D01*
G01*
X37646Y5019D02*
G03*
X37646Y5019I-80J0D01*
G01*
X37886Y5260D02*
G03*
X37886Y5260I-80J0D01*
G01*
X38127Y5500D02*
G03*
X38127Y5500I-80J0D01*
G01*
X38367Y5741D02*
G03*
X38367Y5741I-80J0D01*
G01*
X38607Y5981D02*
G03*
X38607Y5981I-80J0D01*
G01*
X38848Y6221D02*
G03*
X38848Y6221I-80J0D01*
G01*
X39088Y6462D02*
G03*
X39088Y6462I-80J0D01*
G01*
X39329Y6702D02*
G03*
X39329Y6702I-80J0D01*
G01*
X39569Y6943D02*
G03*
X39569Y6943I-80J0D01*
G01*
X39809Y7183D02*
G03*
X39809Y7183I-80J0D01*
G01*
X40050Y7424D02*
G03*
X40050Y7424I-80J0D01*
G01*
X40290Y7664D02*
G03*
X40290Y7664I-80J0D01*
G01*
X40531Y7904D02*
G03*
X40531Y7904I-80J0D01*
G01*
X40771Y8145D02*
G03*
X40771Y8145I-80J0D01*
G01*
X41012Y8385D02*
G03*
X41012Y8385I-80J0D01*
G01*
X41252Y8626D02*
G03*
X41252Y8626I-80J0D01*
G01*
X41492Y8866D02*
G03*
X41492Y8866I-80J0D01*
G01*
X41733Y9106D02*
G03*
X41733Y9106I-80J0D01*
G01*
X41972Y9348D02*
G03*
X41972Y9348I-80J0D01*
G01*
X42057Y9677D02*
G03*
X42057Y9677I-80J0D01*
G01*
Y10017D02*
G03*
X42057Y10017I-80J0D01*
G01*
Y10357D02*
G03*
X42057Y10357I-80J0D01*
G01*
Y10697D02*
G03*
X42057Y10697I-80J0D01*
G01*
Y11037D02*
G03*
X42057Y11037I-80J0D01*
G01*
X42266Y11306D02*
G03*
X42266Y11306I-80J0D01*
G01*
X42506Y11546D02*
G03*
X42506Y11546I-80J0D01*
G01*
X42747Y11786D02*
G03*
X42747Y11786I-80J0D01*
G01*
X42987Y12027D02*
G03*
X42987Y12027I-80J0D01*
G01*
X43228Y12267D02*
G03*
X43228Y12267I-80J0D01*
G01*
X43468Y12508D02*
G03*
X43468Y12508I-80J0D01*
G01*
X43708Y12748D02*
G03*
X43708Y12748I-80J0D01*
G01*
X43949Y12989D02*
G03*
X43949Y12989I-80J0D01*
G01*
X44231Y13178D02*
G03*
X44231Y13178I-80J0D01*
G01*
X44419Y13462D02*
G03*
X44419Y13462I-80J0D01*
G01*
X44346Y13793D02*
G03*
X44346Y13793I-80J0D01*
G01*
Y14133D02*
G03*
X44346Y14133I-80J0D01*
G01*
X44405Y14468D02*
G03*
X44405Y14468I-80J0D01*
G01*
X44745D02*
G03*
X44745Y14468I-80J0D01*
G01*
X45085D02*
G03*
X45085Y14468I-80J0D01*
G01*
X45425D02*
G03*
X45425Y14468I-80J0D01*
G01*
X46785Y14468D02*
G03*
X46785Y14468I-80J0D01*
G01*
X47125D02*
G03*
X47125Y14468I-80J0D01*
G01*
X48145D02*
G03*
X48145Y14468I-80J0D01*
G01*
X48485D02*
G03*
X48485Y14468I-80J0D01*
G01*
X49756Y14998D02*
G03*
X49756Y14998I-80J0D01*
G01*
X49669Y15327D02*
G03*
X49669Y15327I-80J0D01*
G01*
X47640Y15355D02*
G03*
X47640Y15355I-80J0D01*
G01*
X47300D02*
G03*
X47300Y15355I-80J0D01*
G01*
X46960D02*
G03*
X46960Y15355I-80J0D01*
G01*
X46620D02*
G03*
X46620Y15355I-80J0D01*
G01*
X46280D02*
G03*
X46280Y15355I-80J0D01*
G01*
X45940D02*
G03*
X45940Y15355I-80J0D01*
G01*
X45600D02*
G03*
X45600Y15355I-80J0D01*
G01*
X45260D02*
G03*
X45260Y15355I-80J0D01*
G01*
X44920D02*
G03*
X44920Y15355I-80J0D01*
G01*
X44580D02*
G03*
X44580Y15355I-80J0D01*
G01*
X44346Y15602D02*
G03*
X44346Y15602I-80J0D01*
G01*
Y15942D02*
G03*
X44346Y15942I-80J0D01*
G01*
X44514Y16237D02*
G03*
X44514Y16237I-80J0D01*
G01*
X44754Y16478D02*
G03*
X44754Y16478I-80J0D01*
G01*
X44995Y16718D02*
G03*
X44995Y16718I-80J0D01*
G01*
X45235Y16959D02*
G03*
X45235Y16959I-80J0D01*
G01*
X45475Y17199D02*
G03*
X45475Y17199I-80J0D01*
G01*
X45780Y17351D02*
G03*
X45780Y17351I-80J0D01*
G01*
X46800D02*
G03*
X46800Y17351I-80J0D01*
G01*
X47140D02*
G03*
X47140Y17351I-80J0D01*
G01*
X48159Y17332D02*
G03*
X48159Y17332I-80J0D01*
G01*
X49753Y17554D02*
G03*
X49753Y17554I-80J0D01*
G01*
X48729Y17982D02*
G03*
X48729Y17982I-80J0D01*
G01*
X48066D02*
G03*
X48066Y17982I-80J0D01*
G01*
X49739Y18257D02*
G03*
X49739Y18257I-80J0D01*
G01*
X49755Y18596D02*
G03*
X49755Y18596I-80J0D01*
G01*
X48710Y19005D02*
G03*
X48710Y19005I-80J0D01*
G01*
X48370D02*
G03*
X48370Y19005I-80J0D01*
G01*
X48030D02*
G03*
X48030Y19005I-80J0D01*
G01*
X47690D02*
G03*
X47690Y19005I-80J0D01*
G01*
X47350D02*
G03*
X47350Y19005I-80J0D01*
G01*
X47010D02*
G03*
X47010Y19005I-80J0D01*
G01*
X46670D02*
G03*
X46670Y19005I-80J0D01*
G01*
X46330D02*
G03*
X46330Y19005I-80J0D01*
G01*
X45990D02*
G03*
X45990Y19005I-80J0D01*
G01*
X45650D02*
G03*
X45650Y19005I-80J0D01*
G01*
X45310D02*
G03*
X45310Y19005I-80J0D01*
G01*
X45005Y18854D02*
G03*
X45005Y18854I-80J0D01*
G01*
X44765Y18614D02*
G03*
X44765Y18614I-80J0D01*
G01*
X44524Y18373D02*
G03*
X44524Y18373I-80J0D01*
G01*
X44284Y18133D02*
G03*
X44284Y18133I-80J0D01*
G01*
X44044Y17893D02*
G03*
X44044Y17893I-80J0D01*
G01*
X43803Y17652D02*
G03*
X43803Y17652I-80J0D01*
G01*
X43563Y17412D02*
G03*
X43563Y17412I-80J0D01*
G01*
X43322Y17171D02*
G03*
X43322Y17171I-80J0D01*
G01*
X43082Y16931D02*
G03*
X43082Y16931I-80J0D01*
G01*
X42876Y16660D02*
G03*
X42876Y16660I-80J0D01*
G01*
X42864Y16320D02*
G03*
X42864Y16320I-80J0D01*
G01*
Y15980D02*
G03*
X42864Y15980I-80J0D01*
G01*
X42790Y15648D02*
G03*
X42790Y15648I-80J0D01*
G01*
X42555Y15402D02*
G03*
X42555Y15402I-80J0D01*
G01*
X42347Y15134D02*
G03*
X42347Y15134I-80J0D01*
G01*
X42022Y15033D02*
G03*
X42022Y15033I-80J0D01*
G01*
X41779Y14795D02*
G03*
X41779Y14795I-80J0D01*
G01*
X41539Y14555D02*
G03*
X41539Y14555I-80J0D01*
G01*
X41298Y14315D02*
G03*
X41298Y14315I-80J0D01*
G01*
X41058Y14074D02*
G03*
X41058Y14074I-80J0D01*
G01*
X40817Y13834D02*
G03*
X40817Y13834I-80J0D01*
G01*
X40577Y13593D02*
G03*
X40577Y13593I-80J0D01*
G01*
X40337Y13353D02*
G03*
X40337Y13353I-80J0D01*
G01*
X40098Y13111D02*
G03*
X40098Y13111I-80J0D01*
G01*
X40014Y12781D02*
G03*
X40014Y12781I-80J0D01*
G01*
Y12441D02*
G03*
X40014Y12441I-80J0D01*
G01*
Y12101D02*
G03*
X40014Y12101I-80J0D01*
G01*
Y11761D02*
G03*
X40014Y11761I-80J0D01*
G01*
Y11421D02*
G03*
X40014Y11421I-80J0D01*
G01*
Y11081D02*
G03*
X40014Y11081I-80J0D01*
G01*
Y10741D02*
G03*
X40014Y10741I-80J0D01*
G01*
X39806Y10473D02*
G03*
X39806Y10473I-80J0D01*
G01*
X39566Y10232D02*
G03*
X39566Y10232I-80J0D01*
G01*
X39325Y9992D02*
G03*
X39325Y9992I-80J0D01*
G01*
X39085Y9751D02*
G03*
X39085Y9751I-80J0D01*
G01*
X38845Y9511D02*
G03*
X38845Y9511I-80J0D01*
G01*
X38604Y9270D02*
G03*
X38604Y9270I-80J0D01*
G01*
X38364Y9030D02*
G03*
X38364Y9030I-80J0D01*
G01*
X38123Y8790D02*
G03*
X38123Y8790I-80J0D01*
G01*
X37883Y8549D02*
G03*
X37883Y8549I-80J0D01*
G01*
X37642Y8309D02*
G03*
X37642Y8309I-80J0D01*
G01*
X37402Y8068D02*
G03*
X37402Y8068I-80J0D01*
G01*
X37162Y7828D02*
G03*
X37162Y7828I-80J0D01*
G01*
X36921Y7588D02*
G03*
X36921Y7588I-80J0D01*
G01*
X36681Y7347D02*
G03*
X36681Y7347I-80J0D01*
G01*
X36440Y7107D02*
G03*
X36440Y7107I-80J0D01*
G01*
X36200Y6866D02*
G03*
X36200Y6866I-80J0D01*
G01*
X35960Y6626D02*
G03*
X35960Y6626I-80J0D01*
G01*
X35719Y6385D02*
G03*
X35719Y6385I-80J0D01*
G01*
X35479Y6145D02*
G03*
X35479Y6145I-80J0D01*
G01*
X35238Y5905D02*
G03*
X35238Y5905I-80J0D01*
G01*
X34998Y5664D02*
G03*
X34998Y5664I-80J0D01*
G01*
X34757Y5424D02*
G03*
X34757Y5424I-80J0D01*
G01*
X34517Y5183D02*
G03*
X34517Y5183I-80J0D01*
G01*
X34277Y4943D02*
G03*
X34277Y4943I-80J0D01*
G01*
X34036Y4703D02*
G03*
X34036Y4703I-80J0D01*
G01*
X33796Y4462D02*
G03*
X33796Y4462I-80J0D01*
G01*
X33555Y4222D02*
G03*
X33555Y4222I-80J0D01*
G01*
X33315Y3981D02*
G03*
X33315Y3981I-80J0D01*
G01*
X33075Y3741D02*
G03*
X33075Y3741I-80J0D01*
G01*
X32834Y3500D02*
G03*
X32834Y3500I-80J0D01*
G01*
X32594Y3260D02*
G03*
X32594Y3260I-80J0D01*
G01*
X32353Y3020D02*
G03*
X32353Y3020I-80J0D01*
G01*
X32113Y2779D02*
G03*
X32113Y2779I-80J0D01*
G01*
X31872Y2539D02*
G03*
X31872Y2539I-80J0D01*
G01*
X31632Y2298D02*
G03*
X31632Y2298I-80J0D01*
G01*
X31392Y2058D02*
G03*
X31392Y2058I-80J0D01*
G01*
X31151Y1818D02*
G03*
X31151Y1818I-80J0D01*
G01*
X30911Y1577D02*
G03*
X30911Y1577I-80J0D01*
G01*
X30670Y1337D02*
G03*
X30670Y1337I-80J0D01*
G01*
X30430Y1096D02*
G03*
X30430Y1096I-80J0D01*
G01*
X30190Y856D02*
G03*
X30190Y856I-80J0D01*
G01*
X29949Y615D02*
G03*
X29949Y615I-80J0D01*
G01*
X29709Y375D02*
G03*
X29709Y375I-80J0D01*
G01*
X29468Y135D02*
G03*
X29468Y135I-80J0D01*
G01*
X29228Y-106D02*
G03*
X29228Y-106I-80J0D01*
G01*
X28987Y-346D02*
G03*
X28987Y-346I-80J0D01*
G01*
X28747Y-587D02*
G03*
X28747Y-587I-80J0D01*
G01*
X28507Y-827D02*
G03*
X28507Y-827I-80J0D01*
G01*
X28266Y-1067D02*
G03*
X28266Y-1067I-80J0D01*
G01*
X28026Y-1308D02*
G03*
X28026Y-1308I-80J0D01*
G01*
X27785Y-1548D02*
G03*
X27785Y-1548I-80J0D01*
G01*
X27541Y-1784D02*
G03*
X27541Y-1784I-80J0D01*
G01*
X27201D02*
G03*
X27201Y-1784I-80J0D01*
G01*
X23737Y-4224D02*
G03*
X23737Y-4224I-80J0D01*
G01*
X23931Y-3945D02*
G03*
X23931Y-3945I-80J0D01*
G01*
X24172Y-3704D02*
G03*
X24172Y-3704I-80J0D01*
G01*
X24412Y-3464D02*
G03*
X24412Y-3464I-80J0D01*
G01*
X24653Y-3224D02*
G03*
X24653Y-3224I-80J0D01*
G01*
X24893Y-2983D02*
G03*
X24893Y-2983I-80J0D01*
G01*
X25134Y-2743D02*
G03*
X25134Y-2743I-80J0D01*
G01*
X25374Y-2502D02*
G03*
X25374Y-2502I-80J0D01*
G01*
X25614Y-2262D02*
G03*
X25614Y-2262I-80J0D01*
G01*
X25855Y-2022D02*
G03*
X25855Y-2022I-80J0D01*
G01*
X26095Y-1781D02*
G03*
X26095Y-1781I-80J0D01*
G01*
X26435Y-1766D02*
G03*
X26435Y-1766I-80J0D01*
G01*
X26747Y-1630D02*
G03*
X26747Y-1630I-80J0D01*
G01*
X26987Y-1389D02*
G03*
X26987Y-1389I-80J0D01*
G01*
X27227Y-1149D02*
G03*
X27227Y-1149I-80J0D01*
G01*
X27468Y-909D02*
G03*
X27468Y-909I-80J0D01*
G01*
X27708Y-668D02*
G03*
X27708Y-668I-80J0D01*
G01*
X27949Y-428D02*
G03*
X27949Y-428I-80J0D01*
G01*
X28189Y-187D02*
G03*
X28189Y-187I-80J0D01*
G01*
X28429Y53D02*
G03*
X28429Y53I-80J0D01*
G01*
X28670Y293D02*
G03*
X28670Y293I-80J0D01*
G01*
X28910Y534D02*
G03*
X28910Y534I-80J0D01*
G01*
X29151Y774D02*
G03*
X29151Y774I-80J0D01*
G01*
X29391Y1015D02*
G03*
X29391Y1015I-80J0D01*
G01*
X29632Y1255D02*
G03*
X29632Y1255I-80J0D01*
G01*
X29872Y1496D02*
G03*
X29872Y1496I-80J0D01*
G01*
X30112Y1736D02*
G03*
X30112Y1736I-80J0D01*
G01*
X30353Y1976D02*
G03*
X30353Y1976I-80J0D01*
G01*
X30593Y2217D02*
G03*
X30593Y2217I-80J0D01*
G01*
X30834Y2457D02*
G03*
X30834Y2457I-80J0D01*
G01*
X31074Y2698D02*
G03*
X31074Y2698I-80J0D01*
G01*
X31314Y2938D02*
G03*
X31314Y2938I-80J0D01*
G01*
X31555Y3178D02*
G03*
X31555Y3178I-80J0D01*
G01*
X31795Y3419D02*
G03*
X31795Y3419I-80J0D01*
G01*
X32036Y3659D02*
G03*
X32036Y3659I-80J0D01*
G01*
X32276Y3900D02*
G03*
X32276Y3900I-80J0D01*
G01*
X32517Y4140D02*
G03*
X32517Y4140I-80J0D01*
G01*
X32757Y4381D02*
G03*
X32757Y4381I-80J0D01*
G01*
X32997Y4621D02*
G03*
X32997Y4621I-80J0D01*
G01*
X33238Y4861D02*
G03*
X33238Y4861I-80J0D01*
G01*
X33478Y5102D02*
G03*
X33478Y5102I-80J0D01*
G01*
X33719Y5342D02*
G03*
X33719Y5342I-80J0D01*
G01*
X33959Y5583D02*
G03*
X33959Y5583I-80J0D01*
G01*
X34199Y5823D02*
G03*
X34199Y5823I-80J0D01*
G01*
X34440Y6063D02*
G03*
X34440Y6063I-80J0D01*
G01*
X34680Y6304D02*
G03*
X34680Y6304I-80J0D01*
G01*
X34921Y6544D02*
G03*
X34921Y6544I-80J0D01*
G01*
X35161Y6785D02*
G03*
X35161Y6785I-80J0D01*
G01*
X35402Y7025D02*
G03*
X35402Y7025I-80J0D01*
G01*
X35642Y7266D02*
G03*
X35642Y7266I-80J0D01*
G01*
X35882Y7506D02*
G03*
X35882Y7506I-80J0D01*
G01*
X36123Y7746D02*
G03*
X36123Y7746I-80J0D01*
G01*
X36363Y7987D02*
G03*
X36363Y7987I-80J0D01*
G01*
X36604Y8227D02*
G03*
X36604Y8227I-80J0D01*
G01*
X36844Y8468D02*
G03*
X36844Y8468I-80J0D01*
G01*
X37084Y8708D02*
G03*
X37084Y8708I-80J0D01*
G01*
X37325Y8948D02*
G03*
X37325Y8948I-80J0D01*
G01*
X37565Y9189D02*
G03*
X37565Y9189I-80J0D01*
G01*
X37806Y9429D02*
G03*
X37806Y9429I-80J0D01*
G01*
X38046Y9670D02*
G03*
X38046Y9670I-80J0D01*
G01*
X38287Y9910D02*
G03*
X38287Y9910I-80J0D01*
G01*
X38527Y10151D02*
G03*
X38527Y10151I-80J0D01*
G01*
X38767Y10391D02*
G03*
X38767Y10391I-80J0D01*
G01*
X39008Y10631D02*
G03*
X39008Y10631I-80J0D01*
G01*
X39236Y10884D02*
G03*
X39236Y10884I-80J0D01*
G01*
X39276Y11221D02*
G03*
X39276Y11221I-80J0D01*
G01*
Y11561D02*
G03*
X39276Y11561I-80J0D01*
G01*
Y11901D02*
G03*
X39276Y11901I-80J0D01*
G01*
Y12241D02*
G03*
X39276Y12241I-80J0D01*
G01*
Y12581D02*
G03*
X39276Y12581I-80J0D01*
G01*
Y12921D02*
G03*
X39276Y12921I-80J0D01*
G01*
Y13261D02*
G03*
X39276Y13261I-80J0D01*
G01*
Y13601D02*
G03*
X39276Y13601I-80J0D01*
G01*
Y13941D02*
G03*
X39276Y13941I-80J0D01*
G01*
Y14281D02*
G03*
X39276Y14281I-80J0D01*
G01*
Y14621D02*
G03*
X39276Y14621I-80J0D01*
G01*
Y14961D02*
G03*
X39276Y14961I-80J0D01*
G01*
Y15301D02*
G03*
X39276Y15301I-80J0D01*
G01*
X39509Y15549D02*
G03*
X39509Y15549I-80J0D01*
G01*
X39749Y15789D02*
G03*
X39749Y15789I-80J0D01*
G01*
X39990Y16030D02*
G03*
X39990Y16030I-80J0D01*
G01*
X40230Y16270D02*
G03*
X40230Y16270I-80J0D01*
G01*
X40471Y16510D02*
G03*
X40471Y16510I-80J0D01*
G01*
X40711Y16751D02*
G03*
X40711Y16751I-80J0D01*
G01*
X40951Y16991D02*
G03*
X40951Y16991I-80J0D01*
G01*
X41192Y17232D02*
G03*
X41192Y17232I-80J0D01*
G01*
X41432Y17472D02*
G03*
X41432Y17472I-80J0D01*
G01*
X41673Y17712D02*
G03*
X41673Y17712I-80J0D01*
G01*
X41913Y17953D02*
G03*
X41913Y17953I-80J0D01*
G01*
X42154Y18193D02*
G03*
X42154Y18193I-80J0D01*
G01*
X42394Y18434D02*
G03*
X42394Y18434I-80J0D01*
G01*
X42634Y18674D02*
G03*
X42634Y18674I-80J0D01*
G01*
X42875Y18915D02*
G03*
X42875Y18915I-80J0D01*
G01*
X43115Y19155D02*
G03*
X43115Y19155I-80J0D01*
G01*
X43356Y19395D02*
G03*
X43356Y19395I-80J0D01*
G01*
X43596Y19636D02*
G03*
X43596Y19636I-80J0D01*
G01*
X43836Y19876D02*
G03*
X43836Y19876I-80J0D01*
G01*
X44077Y20117D02*
G03*
X44077Y20117I-80J0D01*
G01*
X44360Y20304D02*
G03*
X44360Y20304I-80J0D01*
G01*
X44403Y20642D02*
G03*
X44403Y20642I-80J0D01*
G01*
X44346Y20977D02*
G03*
X44346Y20977I-80J0D01*
G01*
Y21317D02*
G03*
X44346Y21317I-80J0D01*
G01*
X44650Y21468D02*
G03*
X44650Y21468I-80J0D01*
G01*
X44990D02*
G03*
X44990Y21468I-80J0D01*
G01*
X45330D02*
G03*
X45330Y21468I-80J0D01*
G01*
X47030Y21468D02*
G03*
X47030Y21468I-80J0D01*
G01*
X48050D02*
G03*
X48050Y21468I-80J0D01*
G01*
X48390D02*
G03*
X48390Y21468I-80J0D01*
G01*
X48730D02*
G03*
X48730Y21468I-80J0D01*
G01*
X49753Y21897D02*
G03*
X49753Y21897I-80J0D01*
G01*
X49731Y22236D02*
G03*
X49731Y22236I-80J0D01*
G01*
X47736Y22355D02*
G03*
X47736Y22355I-80J0D01*
G01*
X47396D02*
G03*
X47396Y22355I-80J0D01*
G01*
X47056D02*
G03*
X47056Y22355I-80J0D01*
G01*
X46716D02*
G03*
X46716Y22355I-80J0D01*
G01*
X46376D02*
G03*
X46376Y22355I-80J0D01*
G01*
X46036D02*
G03*
X46036Y22355I-80J0D01*
G01*
X45696D02*
G03*
X45696Y22355I-80J0D01*
G01*
X45356D02*
G03*
X45356Y22355I-80J0D01*
G01*
X45016D02*
G03*
X45016Y22355I-80J0D01*
G01*
X44676D02*
G03*
X44676Y22355I-80J0D01*
G01*
X44346Y22436D02*
G03*
X44346Y22436I-80J0D01*
G01*
Y22776D02*
G03*
X44346Y22776I-80J0D01*
G01*
X44390Y23114D02*
G03*
X44390Y23114I-80J0D01*
G01*
X44630Y23354D02*
G03*
X44630Y23354I-80J0D01*
G01*
X44871Y23594D02*
G03*
X44871Y23594I-80J0D01*
G01*
X45111Y23835D02*
G03*
X45111Y23835I-80J0D01*
G01*
X45352Y24075D02*
G03*
X45352Y24075I-80J0D01*
G01*
X45592Y24316D02*
G03*
X45592Y24316I-80J0D01*
G01*
X45930Y24351D02*
G03*
X45930Y24351I-80J0D01*
G01*
X46950D02*
G03*
X46950Y24351I-80J0D01*
G01*
X47970D02*
G03*
X47970Y24351I-80J0D01*
G01*
X48303Y24279D02*
G03*
X48303Y24279I-80J0D01*
G01*
X48635Y24351D02*
G03*
X48635Y24351I-80J0D01*
G01*
X49647Y24363D02*
G03*
X49647Y24363I-80J0D01*
G01*
X49756Y24685D02*
G03*
X49756Y24685I-80J0D01*
G01*
X48598Y24983D02*
G03*
X48598Y24983I-80J0D01*
G01*
X47930Y24982D02*
G03*
X47930Y24982I-80J0D01*
G01*
X49625Y25114D02*
G03*
X49625Y25114I-80J0D01*
G01*
X49756Y25428D02*
G03*
X49756Y25428I-80J0D01*
G01*
Y25768D02*
G03*
X49756Y25768I-80J0D01*
G01*
X51326Y26687D02*
G03*
X51326Y26687I-80J0D01*
G01*
X50986Y26682D02*
G03*
X50986Y26682I-80J0D01*
G01*
X50706Y26489D02*
G03*
X50706Y26489I-80J0D01*
G01*
X50519Y26205D02*
G03*
X50519Y26205I-80J0D01*
G01*
X50756Y25605D02*
G03*
X50756Y25605I-80J0D01*
G01*
X50909Y25301D02*
G03*
X50909Y25301I-80J0D01*
G01*
X50749Y25000D02*
G03*
X50749Y25000I-80J0D01*
G01*
X50713Y23484D02*
G03*
X50713Y23484I-80J0D01*
G01*
X53357Y23251D02*
G03*
X53357Y23251I-80J0D01*
G01*
X53692Y23194D02*
G03*
X53692Y23194I-80J0D01*
G01*
X54014Y23086D02*
G03*
X54014Y23086I-80J0D01*
G01*
X53808Y22815D02*
G03*
X53808Y22815I-80J0D01*
G01*
X53471Y22855D02*
G03*
X53471Y22855I-80J0D01*
G01*
X53158Y22722D02*
G03*
X53158Y22722I-80J0D01*
G01*
X52830Y22634D02*
G03*
X52830Y22634I-80J0D01*
G01*
X52589Y22874D02*
G03*
X52589Y22874I-80J0D01*
G01*
X52341Y23107D02*
G03*
X52341Y23107I-80J0D01*
G01*
X52004Y23152D02*
G03*
X52004Y23152I-80J0D01*
G01*
X51664D02*
G03*
X51664Y23152I-80J0D01*
G01*
X51324D02*
G03*
X51324Y23152I-80J0D01*
G01*
X50984D02*
G03*
X50984Y23152I-80J0D01*
G01*
X50682Y22996D02*
G03*
X50682Y22996I-80J0D01*
G01*
X50809Y21835D02*
G03*
X50809Y21835I-80J0D01*
G01*
X52036Y21922D02*
G03*
X52036Y21922I-80J0D01*
G01*
X52255Y22182D02*
G03*
X52255Y22182I-80J0D01*
G01*
X52495Y21942D02*
G03*
X52495Y21942I-80J0D01*
G01*
X52798Y21787D02*
G03*
X52798Y21787I-80J0D01*
G01*
X53124Y21689D02*
G03*
X53124Y21689I-80J0D01*
G01*
X53937Y21696D02*
G03*
X53937Y21696I-80J0D01*
G01*
X54213Y21896D02*
G03*
X54213Y21896I-80J0D01*
G01*
X54453Y22136D02*
G03*
X54453Y22136I-80J0D01*
G01*
X54771Y22377D02*
G03*
X54771Y22377I-80J0D01*
G01*
Y22037D02*
G03*
X54771Y22037I-80J0D01*
G01*
X54695Y21705D02*
G03*
X54695Y21705I-80J0D01*
G01*
X54454Y21465D02*
G03*
X54454Y21465I-80J0D01*
G01*
X54214Y21225D02*
G03*
X54214Y21225I-80J0D01*
G01*
X53875Y21256D02*
G03*
X53875Y21256I-80J0D01*
G01*
X53550Y21355D02*
G03*
X53550Y21355I-80J0D01*
G01*
X53217Y21289D02*
G03*
X53217Y21289I-80J0D01*
G01*
X53018Y21013D02*
G03*
X53018Y21013I-80J0D01*
G01*
X52678D02*
G03*
X52678Y21013I-80J0D01*
G01*
X52369Y20872D02*
G03*
X52369Y20872I-80J0D01*
G01*
X52039Y20788D02*
G03*
X52039Y20788I-80J0D01*
G01*
X50898Y20980D02*
G03*
X50898Y20980I-80J0D01*
G01*
X50461Y20475D02*
G03*
X50461Y20475I-80J0D01*
G01*
X50486Y20136D02*
G03*
X50486Y20136I-80J0D01*
G01*
X50706Y19489D02*
G03*
X50706Y19489I-80J0D01*
G01*
X50519Y19205D02*
G03*
X50519Y19205I-80J0D01*
G01*
X50756Y18605D02*
G03*
X50756Y18605I-80J0D01*
G01*
X50909Y18301D02*
G03*
X50909Y18301I-80J0D01*
G01*
X50749Y18000D02*
G03*
X50749Y18000I-80J0D01*
G01*
X50713Y16484D02*
G03*
X50713Y16484I-80J0D01*
G01*
X53357Y16251D02*
G03*
X53357Y16251I-80J0D01*
G01*
X53692Y16194D02*
G03*
X53692Y16194I-80J0D01*
G01*
X54014Y16086D02*
G03*
X54014Y16086I-80J0D01*
G01*
X53808Y15816D02*
G03*
X53808Y15816I-80J0D01*
G01*
X53471Y15855D02*
G03*
X53471Y15855I-80J0D01*
G01*
X53158Y15722D02*
G03*
X53158Y15722I-80J0D01*
G01*
X52830Y15634D02*
G03*
X52830Y15634I-80J0D01*
G01*
X52589Y15874D02*
G03*
X52589Y15874I-80J0D01*
G01*
X52341Y16107D02*
G03*
X52341Y16107I-80J0D01*
G01*
X52004Y16152D02*
G03*
X52004Y16152I-80J0D01*
G01*
X51664D02*
G03*
X51664Y16152I-80J0D01*
G01*
X51324D02*
G03*
X51324Y16152I-80J0D01*
G01*
X50984D02*
G03*
X50984Y16152I-80J0D01*
G01*
X50682Y15996D02*
G03*
X50682Y15996I-80J0D01*
G01*
X50809Y14835D02*
G03*
X50809Y14835I-80J0D01*
G01*
X52036Y14922D02*
G03*
X52036Y14922I-80J0D01*
G01*
X52255Y15182D02*
G03*
X52255Y15182I-80J0D01*
G01*
X52495Y14942D02*
G03*
X52495Y14942I-80J0D01*
G01*
X52798Y14787D02*
G03*
X52798Y14787I-80J0D01*
G01*
X53124Y14689D02*
G03*
X53124Y14689I-80J0D01*
G01*
X53937Y14696D02*
G03*
X53937Y14696I-80J0D01*
G01*
X54213Y14896D02*
G03*
X54213Y14896I-80J0D01*
G01*
X54453Y15136D02*
G03*
X54453Y15136I-80J0D01*
G01*
X54771Y15377D02*
G03*
X54771Y15377I-80J0D01*
G01*
Y15037D02*
G03*
X54771Y15037I-80J0D01*
G01*
X54695Y14705D02*
G03*
X54695Y14705I-80J0D01*
G01*
X54454Y14465D02*
G03*
X54454Y14465I-80J0D01*
G01*
X54214Y14224D02*
G03*
X54214Y14224I-80J0D01*
G01*
X53875Y14256D02*
G03*
X53875Y14256I-80J0D01*
G01*
X53550Y14355D02*
G03*
X53550Y14355I-80J0D01*
G01*
X53217Y14289D02*
G03*
X53217Y14289I-80J0D01*
G01*
X53018Y14013D02*
G03*
X53018Y14013I-80J0D01*
G01*
X52678D02*
G03*
X52678Y14013I-80J0D01*
G01*
X52369Y13872D02*
G03*
X52369Y13872I-80J0D01*
G01*
X52039Y13788D02*
G03*
X52039Y13788I-80J0D01*
G01*
X50898Y13980D02*
G03*
X50898Y13980I-80J0D01*
G01*
X50461Y13475D02*
G03*
X50461Y13475I-80J0D01*
G01*
X50486Y13136D02*
G03*
X50486Y13136I-80J0D01*
G01*
X50706Y12489D02*
G03*
X50706Y12489I-80J0D01*
G01*
X50519Y12205D02*
G03*
X50519Y12205I-80J0D01*
G01*
X50756Y11605D02*
G03*
X50756Y11605I-80J0D01*
G01*
X50909Y11301D02*
G03*
X50909Y11301I-80J0D01*
G01*
X50749Y11000D02*
G03*
X50749Y11000I-80J0D01*
G01*
X50713Y9484D02*
G03*
X50713Y9484I-80J0D01*
G01*
X53357Y9251D02*
G03*
X53357Y9251I-80J0D01*
G01*
X53692Y9194D02*
G03*
X53692Y9194I-80J0D01*
G01*
X54014Y9086D02*
G03*
X54014Y9086I-80J0D01*
G01*
X53808Y8816D02*
G03*
X53808Y8816I-80J0D01*
G01*
X53471Y8855D02*
G03*
X53471Y8855I-80J0D01*
G01*
X53158Y8722D02*
G03*
X53158Y8722I-80J0D01*
G01*
X52830Y8634D02*
G03*
X52830Y8634I-80J0D01*
G01*
X52589Y8874D02*
G03*
X52589Y8874I-80J0D01*
G01*
X52341Y9107D02*
G03*
X52341Y9107I-80J0D01*
G01*
X52004Y9152D02*
G03*
X52004Y9152I-80J0D01*
G01*
X51664D02*
G03*
X51664Y9152I-80J0D01*
G01*
X51324D02*
G03*
X51324Y9152I-80J0D01*
G01*
X50984D02*
G03*
X50984Y9152I-80J0D01*
G01*
X50682Y8996D02*
G03*
X50682Y8996I-80J0D01*
G01*
X50809Y7835D02*
G03*
X50809Y7835I-80J0D01*
G01*
X52036Y7922D02*
G03*
X52036Y7922I-80J0D01*
G01*
X52255Y8182D02*
G03*
X52255Y8182I-80J0D01*
G01*
X52495Y7942D02*
G03*
X52495Y7942I-80J0D01*
G01*
X52798Y7787D02*
G03*
X52798Y7787I-80J0D01*
G01*
X53124Y7689D02*
G03*
X53124Y7689I-80J0D01*
G01*
X53937Y7696D02*
G03*
X53937Y7696I-80J0D01*
G01*
X54213Y7896D02*
G03*
X54213Y7896I-80J0D01*
G01*
X54453Y8136D02*
G03*
X54453Y8136I-80J0D01*
G01*
X54771Y8377D02*
G03*
X54771Y8377I-80J0D01*
G01*
Y8037D02*
G03*
X54771Y8037I-80J0D01*
G01*
X54695Y7705D02*
G03*
X54695Y7705I-80J0D01*
G01*
X54454Y7465D02*
G03*
X54454Y7465I-80J0D01*
G01*
X54214Y7225D02*
G03*
X54214Y7225I-80J0D01*
G01*
X53875Y7256D02*
G03*
X53875Y7256I-80J0D01*
G01*
X53550Y7355D02*
G03*
X53550Y7355I-80J0D01*
G01*
X53217Y7289D02*
G03*
X53217Y7289I-80J0D01*
G01*
X53018Y7013D02*
G03*
X53018Y7013I-80J0D01*
G01*
X52678D02*
G03*
X52678Y7013I-80J0D01*
G01*
X52369Y6872D02*
G03*
X52369Y6872I-80J0D01*
G01*
X52039Y6788D02*
G03*
X52039Y6788I-80J0D01*
G01*
X50898Y6980D02*
G03*
X50898Y6980I-80J0D01*
G01*
X50461Y6475D02*
G03*
X50461Y6475I-80J0D01*
G01*
X50486Y6136D02*
G03*
X50486Y6136I-80J0D01*
G01*
X50706Y5489D02*
G03*
X50706Y5489I-80J0D01*
G01*
X50519Y5205D02*
G03*
X50519Y5205I-80J0D01*
G01*
X50756Y4605D02*
G03*
X50756Y4605I-80J0D01*
G01*
X50909Y4301D02*
G03*
X50909Y4301I-80J0D01*
G01*
X50749Y4000D02*
G03*
X50749Y4000I-80J0D01*
G01*
X50713Y2484D02*
G03*
X50713Y2484I-80J0D01*
G01*
X53357Y2251D02*
G03*
X53357Y2251I-80J0D01*
G01*
X53692Y2194D02*
G03*
X53692Y2194I-80J0D01*
G01*
X54014Y2086D02*
G03*
X54014Y2086I-80J0D01*
G01*
X53808Y1815D02*
G03*
X53808Y1815I-80J0D01*
G01*
X53471Y1855D02*
G03*
X53471Y1855I-80J0D01*
G01*
X53158Y1722D02*
G03*
X53158Y1722I-80J0D01*
G01*
X52830Y1634D02*
G03*
X52830Y1634I-80J0D01*
G01*
X52589Y1874D02*
G03*
X52589Y1874I-80J0D01*
G01*
X52341Y2107D02*
G03*
X52341Y2107I-80J0D01*
G01*
X52004Y2152D02*
G03*
X52004Y2152I-80J0D01*
G01*
X51664D02*
G03*
X51664Y2152I-80J0D01*
G01*
X51324D02*
G03*
X51324Y2152I-80J0D01*
G01*
X50984D02*
G03*
X50984Y2152I-80J0D01*
G01*
X50682Y1996D02*
G03*
X50682Y1996I-80J0D01*
G01*
X50809Y835D02*
G03*
X50809Y835I-80J0D01*
G01*
X52036Y922D02*
G03*
X52036Y922I-80J0D01*
G01*
X52255Y1182D02*
G03*
X52255Y1182I-80J0D01*
G01*
X52495Y942D02*
G03*
X52495Y942I-80J0D01*
G01*
X52798Y787D02*
G03*
X52798Y787I-80J0D01*
G01*
X53124Y689D02*
G03*
X53124Y689I-80J0D01*
G01*
X53937Y696D02*
G03*
X53937Y696I-80J0D01*
G01*
X54213Y896D02*
G03*
X54213Y896I-80J0D01*
G01*
X54453Y1136D02*
G03*
X54453Y1136I-80J0D01*
G01*
X54771Y1377D02*
G03*
X54771Y1377I-80J0D01*
G01*
Y1037D02*
G03*
X54771Y1037I-80J0D01*
G01*
X54695Y705D02*
G03*
X54695Y705I-80J0D01*
G01*
X54454Y465D02*
G03*
X54454Y465I-80J0D01*
G01*
X54214Y225D02*
G03*
X54214Y225I-80J0D01*
G01*
X53875Y256D02*
G03*
X53875Y256I-80J0D01*
G01*
X53550Y355D02*
G03*
X53550Y355I-80J0D01*
G01*
X53217Y289D02*
G03*
X53217Y289I-80J0D01*
G01*
X53018Y13D02*
G03*
X53018Y13I-80J0D01*
G01*
X52678D02*
G03*
X52678Y13I-80J0D01*
G01*
X52369Y-128D02*
G03*
X52369Y-128I-80J0D01*
G01*
X52039Y-212D02*
G03*
X52039Y-212I-80J0D01*
G01*
X50898Y-20D02*
G03*
X50898Y-20I-80J0D01*
G01*
X50461Y-525D02*
G03*
X50461Y-525I-80J0D01*
G01*
X50486Y-864D02*
G03*
X50486Y-864I-80J0D01*
G01*
X50706Y-1511D02*
G03*
X50706Y-1511I-80J0D01*
G01*
X50519Y-1795D02*
G03*
X50519Y-1795I-80J0D01*
G01*
X50756Y-2395D02*
G03*
X50756Y-2395I-80J0D01*
G01*
X50909Y-2699D02*
G03*
X50909Y-2699I-80J0D01*
G01*
X50749Y-3000D02*
G03*
X50749Y-3000I-80J0D01*
G01*
X50713Y-4516D02*
G03*
X50713Y-4516I-80J0D01*
G01*
X53357Y-4749D02*
G03*
X53357Y-4749I-80J0D01*
G01*
X53692Y-4806D02*
G03*
X53692Y-4806I-80J0D01*
G01*
X54014Y-4914D02*
G03*
X54014Y-4914I-80J0D01*
G01*
X53808Y-5185D02*
G03*
X53808Y-5185I-80J0D01*
G01*
X53471Y-5145D02*
G03*
X53471Y-5145I-80J0D01*
G01*
X53158Y-5278D02*
G03*
X53158Y-5278I-80J0D01*
G01*
X52830Y-5366D02*
G03*
X52830Y-5366I-80J0D01*
G01*
X52589Y-5126D02*
G03*
X52589Y-5126I-80J0D01*
G01*
X52341Y-4893D02*
G03*
X52341Y-4893I-80J0D01*
G01*
X52004Y-4848D02*
G03*
X52004Y-4848I-80J0D01*
G01*
X51664D02*
G03*
X51664Y-4848I-80J0D01*
G01*
X51324D02*
G03*
X51324Y-4848I-80J0D01*
G01*
X50984D02*
G03*
X50984Y-4848I-80J0D01*
G01*
X50682Y-5004D02*
G03*
X50682Y-5004I-80J0D01*
G01*
X50809Y-6165D02*
G03*
X50809Y-6165I-80J0D01*
G01*
X52036Y-6078D02*
G03*
X52036Y-6078I-80J0D01*
G01*
X52255Y-5818D02*
G03*
X52255Y-5818I-80J0D01*
G01*
X52495Y-6058D02*
G03*
X52495Y-6058I-80J0D01*
G01*
X52798Y-6213D02*
G03*
X52798Y-6213I-80J0D01*
G01*
X53124Y-6311D02*
G03*
X53124Y-6311I-80J0D01*
G01*
X53937Y-6304D02*
G03*
X53937Y-6304I-80J0D01*
G01*
X54213Y-6104D02*
G03*
X54213Y-6104I-80J0D01*
G01*
X54453Y-5864D02*
G03*
X54453Y-5864I-80J0D01*
G01*
X54771Y-5623D02*
G03*
X54771Y-5623I-80J0D01*
G01*
Y-5963D02*
G03*
X54771Y-5963I-80J0D01*
G01*
X54695Y-6295D02*
G03*
X54695Y-6295I-80J0D01*
G01*
X54454Y-6535D02*
G03*
X54454Y-6535I-80J0D01*
G01*
X54214Y-6775D02*
G03*
X54214Y-6775I-80J0D01*
G01*
X53875Y-6744D02*
G03*
X53875Y-6744I-80J0D01*
G01*
X53550Y-6645D02*
G03*
X53550Y-6645I-80J0D01*
G01*
X53217Y-6711D02*
G03*
X53217Y-6711I-80J0D01*
G01*
X53018Y-6987D02*
G03*
X53018Y-6987I-80J0D01*
G01*
X52678D02*
G03*
X52678Y-6987I-80J0D01*
G01*
X52369Y-7128D02*
G03*
X52369Y-7128I-80J0D01*
G01*
X52039Y-7212D02*
G03*
X52039Y-7212I-80J0D01*
G01*
X50898Y-7020D02*
G03*
X50898Y-7020I-80J0D01*
G01*
X50461Y-7525D02*
G03*
X50461Y-7525I-80J0D01*
G01*
X50486Y-7864D02*
G03*
X50486Y-7864I-80J0D01*
G01*
X50706Y-8511D02*
G03*
X50706Y-8511I-80J0D01*
G01*
X50519Y-8795D02*
G03*
X50519Y-8795I-80J0D01*
G01*
X50756Y-9395D02*
G03*
X50756Y-9395I-80J0D01*
G01*
X50909Y-9699D02*
G03*
X50909Y-9699I-80J0D01*
G01*
X50749Y-10000D02*
G03*
X50749Y-10000I-80J0D01*
G01*
X50713Y-11516D02*
G03*
X50713Y-11516I-80J0D01*
G01*
X53357Y-11749D02*
G03*
X53357Y-11749I-80J0D01*
G01*
X53692Y-11806D02*
G03*
X53692Y-11806I-80J0D01*
G01*
X54014Y-11914D02*
G03*
X54014Y-11914I-80J0D01*
G01*
X53808Y-12184D02*
G03*
X53808Y-12184I-80J0D01*
G01*
X53471Y-12145D02*
G03*
X53471Y-12145I-80J0D01*
G01*
X53158Y-12278D02*
G03*
X53158Y-12278I-80J0D01*
G01*
X52830Y-12366D02*
G03*
X52830Y-12366I-80J0D01*
G01*
X52589Y-12126D02*
G03*
X52589Y-12126I-80J0D01*
G01*
X52341Y-11893D02*
G03*
X52341Y-11893I-80J0D01*
G01*
X52004Y-11848D02*
G03*
X52004Y-11848I-80J0D01*
G01*
X51664D02*
G03*
X51664Y-11848I-80J0D01*
G01*
X51324D02*
G03*
X51324Y-11848I-80J0D01*
G01*
X50984D02*
G03*
X50984Y-11848I-80J0D01*
G01*
X50682Y-12004D02*
G03*
X50682Y-12004I-80J0D01*
G01*
X50809Y-13165D02*
G03*
X50809Y-13165I-80J0D01*
G01*
X52036Y-13078D02*
G03*
X52036Y-13078I-80J0D01*
G01*
X52255Y-12818D02*
G03*
X52255Y-12818I-80J0D01*
G01*
X52495Y-13058D02*
G03*
X52495Y-13058I-80J0D01*
G01*
X52798Y-13213D02*
G03*
X52798Y-13213I-80J0D01*
G01*
X53124Y-13311D02*
G03*
X53124Y-13311I-80J0D01*
G01*
X53937Y-13304D02*
G03*
X53937Y-13304I-80J0D01*
G01*
X54213Y-13104D02*
G03*
X54213Y-13104I-80J0D01*
G01*
X54453Y-12864D02*
G03*
X54453Y-12864I-80J0D01*
G01*
X54771Y-12623D02*
G03*
X54771Y-12623I-80J0D01*
G01*
Y-12963D02*
G03*
X54771Y-12963I-80J0D01*
G01*
X54695Y-13295D02*
G03*
X54695Y-13295I-80J0D01*
G01*
X54454Y-13535D02*
G03*
X54454Y-13535I-80J0D01*
G01*
X54214Y-13776D02*
G03*
X54214Y-13776I-80J0D01*
G01*
X53875Y-13744D02*
G03*
X53875Y-13744I-80J0D01*
G01*
X53550Y-13645D02*
G03*
X53550Y-13645I-80J0D01*
G01*
X53217Y-13711D02*
G03*
X53217Y-13711I-80J0D01*
G01*
X53018Y-13987D02*
G03*
X53018Y-13987I-80J0D01*
G01*
X52678D02*
G03*
X52678Y-13987I-80J0D01*
G01*
X52369Y-14128D02*
G03*
X52369Y-14128I-80J0D01*
G01*
X52039Y-14212D02*
G03*
X52039Y-14212I-80J0D01*
G01*
X50898Y-14020D02*
G03*
X50898Y-14020I-80J0D01*
G01*
X50461Y-14525D02*
G03*
X50461Y-14525I-80J0D01*
G01*
X50486Y-14864D02*
G03*
X50486Y-14864I-80J0D01*
G01*
X50706Y-15511D02*
G03*
X50706Y-15511I-80J0D01*
G01*
X50519Y-15795D02*
G03*
X50519Y-15795I-80J0D01*
G01*
X50756Y-16395D02*
G03*
X50756Y-16395I-80J0D01*
G01*
X50909Y-16699D02*
G03*
X50909Y-16699I-80J0D01*
G01*
X50749Y-17000D02*
G03*
X50749Y-17000I-80J0D01*
G01*
X50713Y-18516D02*
G03*
X50713Y-18516I-80J0D01*
G01*
X53357Y-18749D02*
G03*
X53357Y-18749I-80J0D01*
G01*
X53692Y-18806D02*
G03*
X53692Y-18806I-80J0D01*
G01*
X54014Y-18914D02*
G03*
X54014Y-18914I-80J0D01*
G01*
X53808Y-19184D02*
G03*
X53808Y-19184I-80J0D01*
G01*
X53471Y-19145D02*
G03*
X53471Y-19145I-80J0D01*
G01*
X53158Y-19278D02*
G03*
X53158Y-19278I-80J0D01*
G01*
X52830Y-19366D02*
G03*
X52830Y-19366I-80J0D01*
G01*
X52589Y-19126D02*
G03*
X52589Y-19126I-80J0D01*
G01*
X52341Y-18893D02*
G03*
X52341Y-18893I-80J0D01*
G01*
X52004Y-18848D02*
G03*
X52004Y-18848I-80J0D01*
G01*
X51664D02*
G03*
X51664Y-18848I-80J0D01*
G01*
X51324D02*
G03*
X51324Y-18848I-80J0D01*
G01*
X50984D02*
G03*
X50984Y-18848I-80J0D01*
G01*
X50682Y-19004D02*
G03*
X50682Y-19004I-80J0D01*
G01*
X50809Y-20165D02*
G03*
X50809Y-20165I-80J0D01*
G01*
X52036Y-20078D02*
G03*
X52036Y-20078I-80J0D01*
G01*
X52255Y-19818D02*
G03*
X52255Y-19818I-80J0D01*
G01*
X52495Y-20058D02*
G03*
X52495Y-20058I-80J0D01*
G01*
X52798Y-20213D02*
G03*
X52798Y-20213I-80J0D01*
G01*
X53124Y-20311D02*
G03*
X53124Y-20311I-80J0D01*
G01*
X53937Y-20304D02*
G03*
X53937Y-20304I-80J0D01*
G01*
X54213Y-20104D02*
G03*
X54213Y-20104I-80J0D01*
G01*
X54453Y-19864D02*
G03*
X54453Y-19864I-80J0D01*
G01*
X54771Y-19623D02*
G03*
X54771Y-19623I-80J0D01*
G01*
Y-19963D02*
G03*
X54771Y-19963I-80J0D01*
G01*
X54695Y-20295D02*
G03*
X54695Y-20295I-80J0D01*
G01*
X54454Y-20535D02*
G03*
X54454Y-20535I-80J0D01*
G01*
X54214Y-20775D02*
G03*
X54214Y-20775I-80J0D01*
G01*
X53875Y-20744D02*
G03*
X53875Y-20744I-80J0D01*
G01*
X53550Y-20645D02*
G03*
X53550Y-20645I-80J0D01*
G01*
X53217Y-20711D02*
G03*
X53217Y-20711I-80J0D01*
G01*
X53018Y-20987D02*
G03*
X53018Y-20987I-80J0D01*
G01*
X52678D02*
G03*
X52678Y-20987I-80J0D01*
G01*
X52369Y-21128D02*
G03*
X52369Y-21128I-80J0D01*
G01*
X52039Y-21212D02*
G03*
X52039Y-21212I-80J0D01*
G01*
X50898Y-21020D02*
G03*
X50898Y-21020I-80J0D01*
G01*
X50461Y-21525D02*
G03*
X50461Y-21525I-80J0D01*
G01*
X50486Y-21864D02*
G03*
X50486Y-21864I-80J0D01*
G01*
X50706Y-22511D02*
G03*
X50706Y-22511I-80J0D01*
G01*
X50519Y-22795D02*
G03*
X50519Y-22795I-80J0D01*
G01*
X50756Y-23395D02*
G03*
X50756Y-23395I-80J0D01*
G01*
X50909Y-23699D02*
G03*
X50909Y-23699I-80J0D01*
G01*
X50749Y-24000D02*
G03*
X50749Y-24000I-80J0D01*
G01*
X50713Y-25516D02*
G03*
X50713Y-25516I-80J0D01*
G01*
X53357Y-25749D02*
G03*
X53357Y-25749I-80J0D01*
G01*
X53692Y-25806D02*
G03*
X53692Y-25806I-80J0D01*
G01*
X54014Y-25914D02*
G03*
X54014Y-25914I-80J0D01*
G01*
X53808Y-26184D02*
G03*
X53808Y-26184I-80J0D01*
G01*
X53470Y-26145D02*
G03*
X53470Y-26145I-80J0D01*
G01*
X53158Y-26279D02*
G03*
X53158Y-26279I-80J0D01*
G01*
X52829Y-26365D02*
G03*
X52829Y-26365I-80J0D01*
G01*
X52588Y-26125D02*
G03*
X52588Y-26125I-80J0D01*
G01*
X52340Y-25893D02*
G03*
X52340Y-25893I-80J0D01*
G01*
X52003Y-25848D02*
G03*
X52003Y-25848I-80J0D01*
G01*
X51663D02*
G03*
X51663Y-25848I-80J0D01*
G01*
X51323D02*
G03*
X51323Y-25848I-80J0D01*
G01*
X50983D02*
G03*
X50983Y-25848I-80J0D01*
G01*
X50681Y-26005D02*
G03*
X50681Y-26005I-80J0D01*
G01*
X50810Y-27165D02*
G03*
X50810Y-27165I-80J0D01*
G01*
X52036Y-27076D02*
G03*
X52036Y-27076I-80J0D01*
G01*
X52244Y-26808D02*
G03*
X52244Y-26808I-80J0D01*
G01*
X52485Y-27048D02*
G03*
X52485Y-27048I-80J0D01*
G01*
X52782Y-27213D02*
G03*
X52782Y-27213I-80J0D01*
G01*
X53120Y-27253D02*
G03*
X53120Y-27253I-80J0D01*
G01*
X53304Y-27539D02*
G03*
X53304Y-27539I-80J0D01*
G01*
X53926Y-27366D02*
G03*
X53926Y-27366I-80J0D01*
G01*
X54177Y-27137D02*
G03*
X54177Y-27137I-80J0D01*
G01*
X54419Y-26898D02*
G03*
X54419Y-26898I-80J0D01*
G01*
X54771Y-26328D02*
G03*
X54771Y-26328I-80J0D01*
G01*
Y-26668D02*
G03*
X54771Y-26668I-80J0D01*
G01*
Y-27008D02*
G03*
X54771Y-27008I-80J0D01*
G01*
X54660Y-27329D02*
G03*
X54660Y-27329I-80J0D01*
G01*
X54420Y-27570D02*
G03*
X54420Y-27570I-80J0D01*
G01*
X54179Y-27810D02*
G03*
X54179Y-27810I-80J0D01*
G01*
X53852Y-27718D02*
G03*
X53852Y-27718I-80J0D01*
G01*
X53520Y-27645D02*
G03*
X53520Y-27645I-80J0D01*
G01*
X53192Y-27734D02*
G03*
X53192Y-27734I-80J0D01*
G01*
X52965Y-27987D02*
G03*
X52965Y-27987I-80J0D01*
G01*
X52625Y-27989D02*
G03*
X52625Y-27989I-80J0D01*
G01*
X52333Y-28163D02*
G03*
X52333Y-28163I-80J0D01*
G01*
X52039Y-28333D02*
G03*
X52039Y-28333I-80J0D01*
G01*
X51989Y-27997D02*
G03*
X51989Y-27997I-80J0D01*
G01*
X50997Y-27948D02*
G03*
X50997Y-27948I-80J0D01*
G01*
X50718Y-28143D02*
G03*
X50718Y-28143I-80J0D01*
G01*
X50461Y-28736D02*
G03*
X50461Y-28736I-80J0D01*
G01*
X50622Y-29035D02*
G03*
X50622Y-29035I-80J0D01*
G01*
X52713Y-28810D02*
G03*
X52713Y-28810I-80J0D01*
G01*
X53039Y-28713D02*
G03*
X53039Y-28713I-80J0D01*
G01*
X53227Y-28997D02*
G03*
X53227Y-28997I-80J0D01*
G01*
X53884Y-28945D02*
G03*
X53884Y-28945I-80J0D01*
G01*
X54132Y-28713D02*
G03*
X54132Y-28713I-80J0D01*
G01*
X54442Y-28574D02*
G03*
X54442Y-28574I-80J0D01*
G01*
X54682Y-28334D02*
G03*
X54682Y-28334I-80J0D01*
G01*
X54923Y-28093D02*
G03*
X54923Y-28093I-80J0D01*
G01*
X55163Y-27853D02*
G03*
X55163Y-27853I-80J0D01*
G01*
X55404Y-27612D02*
G03*
X55404Y-27612I-80J0D01*
G01*
X55497Y-27285D02*
G03*
X55497Y-27285I-80J0D01*
G01*
Y-26945D02*
G03*
X55497Y-26945I-80J0D01*
G01*
Y-26605D02*
G03*
X55497Y-26605I-80J0D01*
G01*
X55862Y-25749D02*
G03*
X55862Y-25749I-80J0D01*
G01*
X57190Y-25685D02*
G03*
X57190Y-25685I-80J0D01*
G01*
X57231Y-25348D02*
G03*
X57231Y-25348I-80J0D01*
G01*
X57133Y-25022D02*
G03*
X57133Y-25022I-80J0D01*
G01*
X57231Y-23903D02*
G03*
X57231Y-23903I-80J0D01*
G01*
X57214Y-23563D02*
G03*
X57214Y-23563I-80J0D01*
G01*
X55955Y-23146D02*
G03*
X55955Y-23146I-80J0D01*
G01*
X55672Y-22957D02*
G03*
X55672Y-22957I-80J0D01*
G01*
X55332Y-22954D02*
G03*
X55332Y-22954I-80J0D01*
G01*
X52646Y-22806D02*
G03*
X52646Y-22806I-80J0D01*
G01*
X52406Y-22565D02*
G03*
X52406Y-22565I-80J0D01*
G01*
X52713Y-21810D02*
G03*
X52713Y-21810I-80J0D01*
G01*
X53039Y-21713D02*
G03*
X53039Y-21713I-80J0D01*
G01*
X53227Y-21997D02*
G03*
X53227Y-21997I-80J0D01*
G01*
X53884Y-21945D02*
G03*
X53884Y-21945I-80J0D01*
G01*
X54132Y-21713D02*
G03*
X54132Y-21713I-80J0D01*
G01*
X54442Y-21574D02*
G03*
X54442Y-21574I-80J0D01*
G01*
X54682Y-21334D02*
G03*
X54682Y-21334I-80J0D01*
G01*
X54923Y-21093D02*
G03*
X54923Y-21093I-80J0D01*
G01*
X55163Y-20853D02*
G03*
X55163Y-20853I-80J0D01*
G01*
X55404Y-20612D02*
G03*
X55404Y-20612I-80J0D01*
G01*
X55497Y-20285D02*
G03*
X55497Y-20285I-80J0D01*
G01*
Y-19945D02*
G03*
X55497Y-19945I-80J0D01*
G01*
Y-19605D02*
G03*
X55497Y-19605I-80J0D01*
G01*
X55862Y-18749D02*
G03*
X55862Y-18749I-80J0D01*
G01*
X57190Y-18685D02*
G03*
X57190Y-18685I-80J0D01*
G01*
X57231Y-18348D02*
G03*
X57231Y-18348I-80J0D01*
G01*
X57133Y-18022D02*
G03*
X57133Y-18022I-80J0D01*
G01*
X57231Y-16903D02*
G03*
X57231Y-16903I-80J0D01*
G01*
X57214Y-16563D02*
G03*
X57214Y-16563I-80J0D01*
G01*
X55955Y-16146D02*
G03*
X55955Y-16146I-80J0D01*
G01*
X55672Y-15957D02*
G03*
X55672Y-15957I-80J0D01*
G01*
X55332Y-15954D02*
G03*
X55332Y-15954I-80J0D01*
G01*
X52646Y-15806D02*
G03*
X52646Y-15806I-80J0D01*
G01*
X52406Y-15565D02*
G03*
X52406Y-15565I-80J0D01*
G01*
X52713Y-14810D02*
G03*
X52713Y-14810I-80J0D01*
G01*
X53039Y-14713D02*
G03*
X53039Y-14713I-80J0D01*
G01*
X53227Y-14997D02*
G03*
X53227Y-14997I-80J0D01*
G01*
X53884Y-14945D02*
G03*
X53884Y-14945I-80J0D01*
G01*
X54132Y-14713D02*
G03*
X54132Y-14713I-80J0D01*
G01*
X54442Y-14574D02*
G03*
X54442Y-14574I-80J0D01*
G01*
X54682Y-14334D02*
G03*
X54682Y-14334I-80J0D01*
G01*
X54923Y-14093D02*
G03*
X54923Y-14093I-80J0D01*
G01*
X55163Y-13853D02*
G03*
X55163Y-13853I-80J0D01*
G01*
X55404Y-13612D02*
G03*
X55404Y-13612I-80J0D01*
G01*
X55497Y-13285D02*
G03*
X55497Y-13285I-80J0D01*
G01*
Y-12945D02*
G03*
X55497Y-12945I-80J0D01*
G01*
Y-12605D02*
G03*
X55497Y-12605I-80J0D01*
G01*
X55862Y-11749D02*
G03*
X55862Y-11749I-80J0D01*
G01*
X57190Y-11685D02*
G03*
X57190Y-11685I-80J0D01*
G01*
X57231Y-11348D02*
G03*
X57231Y-11348I-80J0D01*
G01*
X57133Y-11022D02*
G03*
X57133Y-11022I-80J0D01*
G01*
X57231Y-9903D02*
G03*
X57231Y-9903I-80J0D01*
G01*
X57214Y-9563D02*
G03*
X57214Y-9563I-80J0D01*
G01*
X55955Y-9146D02*
G03*
X55955Y-9146I-80J0D01*
G01*
X55672Y-8957D02*
G03*
X55672Y-8957I-80J0D01*
G01*
X55332Y-8954D02*
G03*
X55332Y-8954I-80J0D01*
G01*
X52646Y-8806D02*
G03*
X52646Y-8806I-80J0D01*
G01*
X52406Y-8565D02*
G03*
X52406Y-8565I-80J0D01*
G01*
X52713Y-7810D02*
G03*
X52713Y-7810I-80J0D01*
G01*
X53039Y-7713D02*
G03*
X53039Y-7713I-80J0D01*
G01*
X53227Y-7997D02*
G03*
X53227Y-7997I-80J0D01*
G01*
X53884Y-7945D02*
G03*
X53884Y-7945I-80J0D01*
G01*
X54132Y-7713D02*
G03*
X54132Y-7713I-80J0D01*
G01*
X54442Y-7574D02*
G03*
X54442Y-7574I-80J0D01*
G01*
X54682Y-7334D02*
G03*
X54682Y-7334I-80J0D01*
G01*
X54923Y-7093D02*
G03*
X54923Y-7093I-80J0D01*
G01*
X55163Y-6853D02*
G03*
X55163Y-6853I-80J0D01*
G01*
X55404Y-6612D02*
G03*
X55404Y-6612I-80J0D01*
G01*
X55497Y-6285D02*
G03*
X55497Y-6285I-80J0D01*
G01*
Y-5945D02*
G03*
X55497Y-5945I-80J0D01*
G01*
Y-5605D02*
G03*
X55497Y-5605I-80J0D01*
G01*
X55862Y-4749D02*
G03*
X55862Y-4749I-80J0D01*
G01*
X57190Y-4685D02*
G03*
X57190Y-4685I-80J0D01*
G01*
X57231Y-4348D02*
G03*
X57231Y-4348I-80J0D01*
G01*
X57133Y-4022D02*
G03*
X57133Y-4022I-80J0D01*
G01*
X57231Y-2903D02*
G03*
X57231Y-2903I-80J0D01*
G01*
X57214Y-2563D02*
G03*
X57214Y-2563I-80J0D01*
G01*
X55955Y-2146D02*
G03*
X55955Y-2146I-80J0D01*
G01*
X55672Y-1957D02*
G03*
X55672Y-1957I-80J0D01*
G01*
X55332Y-1954D02*
G03*
X55332Y-1954I-80J0D01*
G01*
X52646Y-1806D02*
G03*
X52646Y-1806I-80J0D01*
G01*
X52406Y-1565D02*
G03*
X52406Y-1565I-80J0D01*
G01*
X52713Y-810D02*
G03*
X52713Y-810I-80J0D01*
G01*
X53039Y-713D02*
G03*
X53039Y-713I-80J0D01*
G01*
X53227Y-997D02*
G03*
X53227Y-997I-80J0D01*
G01*
X53884Y-945D02*
G03*
X53884Y-945I-80J0D01*
G01*
X54132Y-713D02*
G03*
X54132Y-713I-80J0D01*
G01*
X54442Y-574D02*
G03*
X54442Y-574I-80J0D01*
G01*
X54682Y-334D02*
G03*
X54682Y-334I-80J0D01*
G01*
X54923Y-93D02*
G03*
X54923Y-93I-80J0D01*
G01*
X55163Y147D02*
G03*
X55163Y147I-80J0D01*
G01*
X55404Y388D02*
G03*
X55404Y388I-80J0D01*
G01*
X55497Y715D02*
G03*
X55497Y715I-80J0D01*
G01*
Y1055D02*
G03*
X55497Y1055I-80J0D01*
G01*
Y1395D02*
G03*
X55497Y1395I-80J0D01*
G01*
X55862Y2251D02*
G03*
X55862Y2251I-80J0D01*
G01*
X57190Y2315D02*
G03*
X57190Y2315I-80J0D01*
G01*
X57231Y2652D02*
G03*
X57231Y2652I-80J0D01*
G01*
X57133Y2978D02*
G03*
X57133Y2978I-80J0D01*
G01*
X57231Y4097D02*
G03*
X57231Y4097I-80J0D01*
G01*
X57214Y4437D02*
G03*
X57214Y4437I-80J0D01*
G01*
X55955Y4854D02*
G03*
X55955Y4854I-80J0D01*
G01*
X55672Y5043D02*
G03*
X55672Y5043I-80J0D01*
G01*
X55332Y5046D02*
G03*
X55332Y5046I-80J0D01*
G01*
X52646Y5195D02*
G03*
X52646Y5195I-80J0D01*
G01*
X52406Y5435D02*
G03*
X52406Y5435I-80J0D01*
G01*
X52713Y6190D02*
G03*
X52713Y6190I-80J0D01*
G01*
X53039Y6287D02*
G03*
X53039Y6287I-80J0D01*
G01*
X53227Y6003D02*
G03*
X53227Y6003I-80J0D01*
G01*
X53883Y6054D02*
G03*
X53883Y6054I-80J0D01*
G01*
X54132Y6287D02*
G03*
X54132Y6287I-80J0D01*
G01*
X54442Y6426D02*
G03*
X54442Y6426I-80J0D01*
G01*
X54682Y6666D02*
G03*
X54682Y6666I-80J0D01*
G01*
X54923Y6907D02*
G03*
X54923Y6907I-80J0D01*
G01*
X55163Y7147D02*
G03*
X55163Y7147I-80J0D01*
G01*
X55404Y7387D02*
G03*
X55404Y7387I-80J0D01*
G01*
X55497Y7714D02*
G03*
X55497Y7714I-80J0D01*
G01*
Y8054D02*
G03*
X55497Y8054I-80J0D01*
G01*
Y8394D02*
G03*
X55497Y8394I-80J0D01*
G01*
X55862Y9251D02*
G03*
X55862Y9251I-80J0D01*
G01*
X57190Y9315D02*
G03*
X57190Y9315I-80J0D01*
G01*
X57231Y9652D02*
G03*
X57231Y9652I-80J0D01*
G01*
X57134Y9978D02*
G03*
X57134Y9978I-80J0D01*
G01*
X57231Y11097D02*
G03*
X57231Y11097I-80J0D01*
G01*
X57213Y11437D02*
G03*
X57213Y11437I-80J0D01*
G01*
X55955Y11854D02*
G03*
X55955Y11854I-80J0D01*
G01*
X55672Y12043D02*
G03*
X55672Y12043I-80J0D01*
G01*
X55332Y12046D02*
G03*
X55332Y12046I-80J0D01*
G01*
X52646Y12195D02*
G03*
X52646Y12195I-80J0D01*
G01*
X52406Y12435D02*
G03*
X52406Y12435I-80J0D01*
G01*
X52713Y13189D02*
G03*
X52713Y13189I-80J0D01*
G01*
X53038Y13287D02*
G03*
X53038Y13287I-80J0D01*
G01*
X53226Y13004D02*
G03*
X53226Y13004I-80J0D01*
G01*
X53883Y13054D02*
G03*
X53883Y13054I-80J0D01*
G01*
X54131Y13287D02*
G03*
X54131Y13287I-80J0D01*
G01*
X54441Y13425D02*
G03*
X54441Y13425I-80J0D01*
G01*
X54682Y13666D02*
G03*
X54682Y13666I-80J0D01*
G01*
X54922Y13906D02*
G03*
X54922Y13906I-80J0D01*
G01*
X55163Y14146D02*
G03*
X55163Y14146I-80J0D01*
G01*
X55403Y14387D02*
G03*
X55403Y14387I-80J0D01*
G01*
X55497Y14714D02*
G03*
X55497Y14714I-80J0D01*
G01*
Y15054D02*
G03*
X55497Y15054I-80J0D01*
G01*
Y15394D02*
G03*
X55497Y15394I-80J0D01*
G01*
X55861Y16251D02*
G03*
X55861Y16251I-80J0D01*
G01*
X57189Y16314D02*
G03*
X57189Y16314I-80J0D01*
G01*
X57231Y16651D02*
G03*
X57231Y16651I-80J0D01*
G01*
X57134Y16977D02*
G03*
X57134Y16977I-80J0D01*
G01*
X57231Y18099D02*
G03*
X57231Y18099I-80J0D01*
G01*
X57213Y18439D02*
G03*
X57213Y18439I-80J0D01*
G01*
X55953Y18856D02*
G03*
X55953Y18856I-80J0D01*
G01*
X55670Y19043D02*
G03*
X55670Y19043I-80J0D01*
G01*
X55330Y19046D02*
G03*
X55330Y19046I-80J0D01*
G01*
X52645Y19196D02*
G03*
X52645Y19196I-80J0D01*
G01*
X52404Y19437D02*
G03*
X52404Y19437I-80J0D01*
G01*
X52698Y20175D02*
G03*
X52698Y20175I-80J0D01*
G01*
X53019Y20287D02*
G03*
X53019Y20287I-80J0D01*
G01*
X53217Y20011D02*
G03*
X53217Y20011I-80J0D01*
G01*
X53876Y20045D02*
G03*
X53876Y20045I-80J0D01*
G01*
X54114Y20287D02*
G03*
X54114Y20287I-80J0D01*
G01*
X54430Y20414D02*
G03*
X54430Y20414I-80J0D01*
G01*
X54670Y20654D02*
G03*
X54670Y20654I-80J0D01*
G01*
X54911Y20895D02*
G03*
X54911Y20895I-80J0D01*
G01*
X55151Y21135D02*
G03*
X55151Y21135I-80J0D01*
G01*
X55391Y21375D02*
G03*
X55391Y21375I-80J0D01*
G01*
X55497Y21699D02*
G03*
X55497Y21699I-80J0D01*
G01*
Y22039D02*
G03*
X55497Y22039I-80J0D01*
G01*
Y22379D02*
G03*
X55497Y22379I-80J0D01*
G01*
X55840Y23251D02*
G03*
X55840Y23251I-80J0D01*
G01*
X57175Y23295D02*
G03*
X57175Y23295I-80J0D01*
G01*
X57228Y23631D02*
G03*
X57228Y23631I-80J0D01*
G01*
X57153Y23963D02*
G03*
X57153Y23963I-80J0D01*
G01*
X57161Y24852D02*
G03*
X57161Y24852I-80J0D01*
G01*
X57226Y25185D02*
G03*
X57226Y25185I-80J0D01*
G01*
X57166Y25520D02*
G03*
X57166Y25520I-80J0D01*
G01*
X55896Y25913D02*
G03*
X55896Y25913I-80J0D01*
G01*
X55583Y26046D02*
G03*
X55583Y26046I-80J0D01*
G01*
X52591Y26250D02*
G03*
X52591Y26250I-80J0D01*
G01*
X52351Y26490D02*
G03*
X52351Y26490I-80J0D01*
G01*
X52071Y26683D02*
G03*
X52071Y26683I-80J0D01*
G01*
X51739Y26757D02*
G03*
X51739Y26757I-80J0D01*
G01*
X37725Y-26450D02*
G03*
X37725Y-26450I-80J0D01*
G01*
X37480Y-29990D02*
G03*
X37480Y-29990I-80J0D01*
G01*
X56411Y-28496D02*
G03*
X56411Y-28496I-80J0D01*
G01*
X46380Y-25089D02*
G03*
X46380Y-25089I-80J0D01*
G01*
X47530Y-25083D02*
G03*
X47530Y-25083I-80J0D01*
G01*
X46380Y-25750D02*
G03*
X46380Y-25750I-80J0D01*
G01*
Y-28923D02*
G03*
X46380Y-28923I-80J0D01*
G01*
X47530D02*
G03*
X47530Y-28923I-80J0D01*
G01*
X58930Y-28193D02*
G03*
X58930Y-28193I-80J0D01*
G01*
X46380Y-18089D02*
G03*
X46380Y-18089I-80J0D01*
G01*
X47530Y-18083D02*
G03*
X47530Y-18083I-80J0D01*
G01*
X46380Y-18750D02*
G03*
X46380Y-18750I-80J0D01*
G01*
Y-21923D02*
G03*
X46380Y-21923I-80J0D01*
G01*
X47530D02*
G03*
X47530Y-21923I-80J0D01*
G01*
X56712Y-21850D02*
G03*
X56712Y-21850I-80J0D01*
G01*
X58930Y-21193D02*
G03*
X58930Y-21193I-80J0D01*
G01*
X46380Y-11089D02*
G03*
X46380Y-11089I-80J0D01*
G01*
X47530Y-11083D02*
G03*
X47530Y-11083I-80J0D01*
G01*
X46380Y-11750D02*
G03*
X46380Y-11750I-80J0D01*
G01*
Y-14923D02*
G03*
X46380Y-14923I-80J0D01*
G01*
X47530D02*
G03*
X47530Y-14923I-80J0D01*
G01*
X56712Y-14850D02*
G03*
X56712Y-14850I-80J0D01*
G01*
X58930Y-14193D02*
G03*
X58930Y-14193I-80J0D01*
G01*
X46380Y-4089D02*
G03*
X46380Y-4089I-80J0D01*
G01*
X47530Y-4083D02*
G03*
X47530Y-4083I-80J0D01*
G01*
X46380Y-4750D02*
G03*
X46380Y-4750I-80J0D01*
G01*
Y-7923D02*
G03*
X46380Y-7923I-80J0D01*
G01*
X47530D02*
G03*
X47530Y-7923I-80J0D01*
G01*
X56712Y-7850D02*
G03*
X56712Y-7850I-80J0D01*
G01*
X58930Y-7193D02*
G03*
X58930Y-7193I-80J0D01*
G01*
X46380Y2911D02*
G03*
X46380Y2911I-80J0D01*
G01*
X47530Y2917D02*
G03*
X47530Y2917I-80J0D01*
G01*
X46380Y2250D02*
G03*
X46380Y2250I-80J0D01*
G01*
Y-923D02*
G03*
X46380Y-923I-80J0D01*
G01*
X47530D02*
G03*
X47530Y-923I-80J0D01*
G01*
X56712Y-850D02*
G03*
X56712Y-850I-80J0D01*
G01*
X58930Y-193D02*
G03*
X58930Y-193I-80J0D01*
G01*
X46380Y9911D02*
G03*
X46380Y9911I-80J0D01*
G01*
X47530Y9917D02*
G03*
X47530Y9917I-80J0D01*
G01*
X46380Y9250D02*
G03*
X46380Y9250I-80J0D01*
G01*
Y6077D02*
G03*
X46380Y6077I-80J0D01*
G01*
X47530D02*
G03*
X47530Y6077I-80J0D01*
G01*
X56712Y6150D02*
G03*
X56712Y6150I-80J0D01*
G01*
X58930Y6807D02*
G03*
X58930Y6807I-80J0D01*
G01*
X46380Y16911D02*
G03*
X46380Y16911I-80J0D01*
G01*
X47530Y16917D02*
G03*
X47530Y16917I-80J0D01*
G01*
X46380Y16250D02*
G03*
X46380Y16250I-80J0D01*
G01*
Y13077D02*
G03*
X46380Y13077I-80J0D01*
G01*
X47530D02*
G03*
X47530Y13077I-80J0D01*
G01*
X56712Y13150D02*
G03*
X56712Y13150I-80J0D01*
G01*
X58930Y13807D02*
G03*
X58930Y13807I-80J0D01*
G01*
Y20807D02*
G03*
X58930Y20807I-80J0D01*
G01*
X56712Y20150D02*
G03*
X56712Y20150I-80J0D01*
G01*
X47530Y20077D02*
G03*
X47530Y20077I-80J0D01*
G01*
X46380D02*
G03*
X46380Y20077I-80J0D01*
G01*
Y23250D02*
G03*
X46380Y23250I-80J0D01*
G01*
X47530Y23917D02*
G03*
X47530Y23917I-80J0D01*
G01*
X46380Y23911D02*
G03*
X46380Y23911I-80J0D01*
G01*
X57757Y-24303D02*
G03*
X57757Y-24303I-80J0D01*
G01*
Y-17303D02*
G03*
X57757Y-17303I-80J0D01*
G01*
Y-10303D02*
G03*
X57757Y-10303I-80J0D01*
G01*
Y-3303D02*
G03*
X57757Y-3303I-80J0D01*
G01*
Y3697D02*
G03*
X57757Y3697I-80J0D01*
G01*
Y10697D02*
G03*
X57757Y10697I-80J0D01*
G01*
Y17697D02*
G03*
X57757Y17697I-80J0D01*
G01*
Y24697D02*
G03*
X57757Y24697I-80J0D01*
G01*
X53080Y25985D02*
G03*
X53080Y25985I-80J0D01*
G01*
Y25394D02*
G03*
X53080Y25394I-80J0D01*
G01*
Y18985D02*
G03*
X53080Y18985I-80J0D01*
G01*
Y18394D02*
G03*
X53080Y18394I-80J0D01*
G01*
Y11985D02*
G03*
X53080Y11985I-80J0D01*
G01*
Y11394D02*
G03*
X53080Y11394I-80J0D01*
G01*
Y4985D02*
G03*
X53080Y4985I-80J0D01*
G01*
Y4394D02*
G03*
X53080Y4394I-80J0D01*
G01*
Y-2015D02*
G03*
X53080Y-2015I-80J0D01*
G01*
Y-2606D02*
G03*
X53080Y-2606I-80J0D01*
G01*
Y-9015D02*
G03*
X53080Y-9015I-80J0D01*
G01*
Y-9606D02*
G03*
X53080Y-9606I-80J0D01*
G01*
Y-23015D02*
G03*
X53080Y-23015I-80J0D01*
G01*
Y-23606D02*
G03*
X53080Y-23606I-80J0D01*
G01*
X49885Y24922D02*
G03*
X49885Y24922I-80J0D01*
G01*
Y21528D02*
G03*
X49885Y21528I-80J0D01*
G01*
Y17922D02*
G03*
X49885Y17922I-80J0D01*
G01*
Y14528D02*
G03*
X49885Y14528I-80J0D01*
G01*
Y10922D02*
G03*
X49885Y10922I-80J0D01*
G01*
Y7528D02*
G03*
X49885Y7528I-80J0D01*
G01*
Y3922D02*
G03*
X49885Y3922I-80J0D01*
G01*
Y528D02*
G03*
X49885Y528I-80J0D01*
G01*
Y-3078D02*
G03*
X49885Y-3078I-80J0D01*
G01*
Y-6472D02*
G03*
X49885Y-6472I-80J0D01*
G01*
Y-10078D02*
G03*
X49885Y-10078I-80J0D01*
G01*
Y-13472D02*
G03*
X49885Y-13472I-80J0D01*
G01*
Y-24078D02*
G03*
X49885Y-24078I-80J0D01*
G01*
Y-27472D02*
G03*
X49885Y-27472I-80J0D01*
G01*
X56480Y-25296D02*
G03*
X56480Y-25296I-80J0D01*
G01*
Y-25476D02*
G03*
X56480Y-25476I-80J0D01*
G01*
Y-23721D02*
G03*
X56480Y-23721I-80J0D01*
G01*
X55747Y-24410D02*
G03*
X55747Y-24410I-80J0D01*
G01*
Y-24590D02*
G03*
X55747Y-24590I-80J0D01*
G01*
X51730Y-22766D02*
G03*
X51730Y-22766I-80J0D01*
G01*
Y-22586D02*
G03*
X51730Y-22586I-80J0D01*
G01*
X54280Y-24590D02*
G03*
X54280Y-24590I-80J0D01*
G01*
Y-24410D02*
G03*
X54280Y-24410I-80J0D01*
G01*
X53780Y-25476D02*
G03*
X53780Y-25476I-80J0D01*
G01*
Y-25296D02*
G03*
X53780Y-25296I-80J0D01*
G01*
X56480Y-23901D02*
G03*
X56480Y-23901I-80J0D01*
G01*
X54780Y-26100D02*
G03*
X54780Y-26100I-80J0D01*
G01*
X55532D02*
G03*
X55532Y-26100I-80J0D01*
G01*
X55794Y-24992D02*
G03*
X55794Y-24992I-80J0D01*
G01*
X55847Y-24011D02*
G03*
X55847Y-24011I-80J0D01*
G01*
X50228Y-25681D02*
G03*
X50228Y-25681I-80J0D01*
G01*
X56480Y-24795D02*
G03*
X56480Y-24795I-80J0D01*
G01*
X50228Y-4681D02*
G03*
X50228Y-4681I-80J0D01*
G01*
X56480Y23704D02*
G03*
X56480Y23704I-80J0D01*
G01*
Y23524D02*
G03*
X56480Y23524I-80J0D01*
G01*
Y25279D02*
G03*
X56480Y25279I-80J0D01*
G01*
X55747Y24590D02*
G03*
X55747Y24590I-80J0D01*
G01*
Y24410D02*
G03*
X55747Y24410I-80J0D01*
G01*
X51730Y26234D02*
G03*
X51730Y26234I-80J0D01*
G01*
Y26414D02*
G03*
X51730Y26414I-80J0D01*
G01*
X54280Y24410D02*
G03*
X54280Y24410I-80J0D01*
G01*
Y24590D02*
G03*
X54280Y24590I-80J0D01*
G01*
X53780Y23524D02*
G03*
X53780Y23524I-80J0D01*
G01*
Y23704D02*
G03*
X53780Y23704I-80J0D01*
G01*
X56480Y25099D02*
G03*
X56480Y25099I-80J0D01*
G01*
X54780Y22900D02*
G03*
X54780Y22900I-80J0D01*
G01*
X55532D02*
G03*
X55532Y22900I-80J0D01*
G01*
X55794Y24008D02*
G03*
X55794Y24008I-80J0D01*
G01*
X55847Y24989D02*
G03*
X55847Y24989I-80J0D01*
G01*
X50228Y23319D02*
G03*
X50228Y23319I-80J0D01*
G01*
X56480Y24205D02*
G03*
X56480Y24205I-80J0D01*
G01*
Y16704D02*
G03*
X56480Y16704I-80J0D01*
G01*
Y16524D02*
G03*
X56480Y16524I-80J0D01*
G01*
Y18279D02*
G03*
X56480Y18279I-80J0D01*
G01*
X55747Y17590D02*
G03*
X55747Y17590I-80J0D01*
G01*
Y17410D02*
G03*
X55747Y17410I-80J0D01*
G01*
X51730Y19234D02*
G03*
X51730Y19234I-80J0D01*
G01*
Y19414D02*
G03*
X51730Y19414I-80J0D01*
G01*
X54280Y17410D02*
G03*
X54280Y17410I-80J0D01*
G01*
Y17590D02*
G03*
X54280Y17590I-80J0D01*
G01*
X53780Y16524D02*
G03*
X53780Y16524I-80J0D01*
G01*
Y16704D02*
G03*
X53780Y16704I-80J0D01*
G01*
X56480Y18099D02*
G03*
X56480Y18099I-80J0D01*
G01*
X54780Y15900D02*
G03*
X54780Y15900I-80J0D01*
G01*
X55532D02*
G03*
X55532Y15900I-80J0D01*
G01*
X55794Y17008D02*
G03*
X55794Y17008I-80J0D01*
G01*
X55847Y17989D02*
G03*
X55847Y17989I-80J0D01*
G01*
X50228Y16319D02*
G03*
X50228Y16319I-80J0D01*
G01*
X56480Y17205D02*
G03*
X56480Y17205I-80J0D01*
G01*
Y9704D02*
G03*
X56480Y9704I-80J0D01*
G01*
Y9524D02*
G03*
X56480Y9524I-80J0D01*
G01*
Y11279D02*
G03*
X56480Y11279I-80J0D01*
G01*
X55747Y10590D02*
G03*
X55747Y10590I-80J0D01*
G01*
Y10410D02*
G03*
X55747Y10410I-80J0D01*
G01*
X51730Y12234D02*
G03*
X51730Y12234I-80J0D01*
G01*
Y12414D02*
G03*
X51730Y12414I-80J0D01*
G01*
X54280Y10410D02*
G03*
X54280Y10410I-80J0D01*
G01*
Y10590D02*
G03*
X54280Y10590I-80J0D01*
G01*
X53780Y9524D02*
G03*
X53780Y9524I-80J0D01*
G01*
Y9704D02*
G03*
X53780Y9704I-80J0D01*
G01*
X56480Y11099D02*
G03*
X56480Y11099I-80J0D01*
G01*
X54780Y8900D02*
G03*
X54780Y8900I-80J0D01*
G01*
X55532D02*
G03*
X55532Y8900I-80J0D01*
G01*
X55794Y10008D02*
G03*
X55794Y10008I-80J0D01*
G01*
X55847Y10989D02*
G03*
X55847Y10989I-80J0D01*
G01*
X50228Y9319D02*
G03*
X50228Y9319I-80J0D01*
G01*
X56480Y10205D02*
G03*
X56480Y10205I-80J0D01*
G01*
Y2704D02*
G03*
X56480Y2704I-80J0D01*
G01*
Y2524D02*
G03*
X56480Y2524I-80J0D01*
G01*
Y4279D02*
G03*
X56480Y4279I-80J0D01*
G01*
X55747Y3590D02*
G03*
X55747Y3590I-80J0D01*
G01*
Y3410D02*
G03*
X55747Y3410I-80J0D01*
G01*
X51730Y5234D02*
G03*
X51730Y5234I-80J0D01*
G01*
Y5414D02*
G03*
X51730Y5414I-80J0D01*
G01*
X54280Y3410D02*
G03*
X54280Y3410I-80J0D01*
G01*
Y3590D02*
G03*
X54280Y3590I-80J0D01*
G01*
X53780Y2524D02*
G03*
X53780Y2524I-80J0D01*
G01*
Y2704D02*
G03*
X53780Y2704I-80J0D01*
G01*
X56480Y4099D02*
G03*
X56480Y4099I-80J0D01*
G01*
X54780Y1900D02*
G03*
X54780Y1900I-80J0D01*
G01*
X55532D02*
G03*
X55532Y1900I-80J0D01*
G01*
X55794Y3008D02*
G03*
X55794Y3008I-80J0D01*
G01*
X55847Y3989D02*
G03*
X55847Y3989I-80J0D01*
G01*
X50228Y2319D02*
G03*
X50228Y2319I-80J0D01*
G01*
X56480Y3205D02*
G03*
X56480Y3205I-80J0D01*
G01*
Y-4296D02*
G03*
X56480Y-4296I-80J0D01*
G01*
Y-4476D02*
G03*
X56480Y-4476I-80J0D01*
G01*
Y-2721D02*
G03*
X56480Y-2721I-80J0D01*
G01*
X55747Y-3410D02*
G03*
X55747Y-3410I-80J0D01*
G01*
Y-3590D02*
G03*
X55747Y-3590I-80J0D01*
G01*
X51730Y-1766D02*
G03*
X51730Y-1766I-80J0D01*
G01*
Y-1586D02*
G03*
X51730Y-1586I-80J0D01*
G01*
X54280Y-3590D02*
G03*
X54280Y-3590I-80J0D01*
G01*
Y-3410D02*
G03*
X54280Y-3410I-80J0D01*
G01*
X53780Y-4476D02*
G03*
X53780Y-4476I-80J0D01*
G01*
Y-4296D02*
G03*
X53780Y-4296I-80J0D01*
G01*
X56480Y-2901D02*
G03*
X56480Y-2901I-80J0D01*
G01*
X54780Y-5100D02*
G03*
X54780Y-5100I-80J0D01*
G01*
X55532D02*
G03*
X55532Y-5100I-80J0D01*
G01*
X55794Y-3992D02*
G03*
X55794Y-3992I-80J0D01*
G01*
X55847Y-3011D02*
G03*
X55847Y-3011I-80J0D01*
G01*
X56480Y-3795D02*
G03*
X56480Y-3795I-80J0D01*
G01*
Y-11296D02*
G03*
X56480Y-11296I-80J0D01*
G01*
Y-11476D02*
G03*
X56480Y-11476I-80J0D01*
G01*
Y-9721D02*
G03*
X56480Y-9721I-80J0D01*
G01*
X55747Y-10410D02*
G03*
X55747Y-10410I-80J0D01*
G01*
Y-10590D02*
G03*
X55747Y-10590I-80J0D01*
G01*
X51730Y-8766D02*
G03*
X51730Y-8766I-80J0D01*
G01*
Y-8586D02*
G03*
X51730Y-8586I-80J0D01*
G01*
X54280Y-10590D02*
G03*
X54280Y-10590I-80J0D01*
G01*
Y-10410D02*
G03*
X54280Y-10410I-80J0D01*
G01*
X53780Y-11476D02*
G03*
X53780Y-11476I-80J0D01*
G01*
Y-11296D02*
G03*
X53780Y-11296I-80J0D01*
G01*
X56480Y-9901D02*
G03*
X56480Y-9901I-80J0D01*
G01*
X54780Y-12100D02*
G03*
X54780Y-12100I-80J0D01*
G01*
X55532D02*
G03*
X55532Y-12100I-80J0D01*
G01*
X55794Y-10992D02*
G03*
X55794Y-10992I-80J0D01*
G01*
X55847Y-10011D02*
G03*
X55847Y-10011I-80J0D01*
G01*
X50228Y-11681D02*
G03*
X50228Y-11681I-80J0D01*
G01*
X56480Y-10795D02*
G03*
X56480Y-10795I-80J0D01*
G01*
X35180Y-28434D02*
G03*
X35180Y-28434I-80J0D01*
G01*
X49885Y-20472D02*
G03*
X49885Y-20472I-80J0D01*
G01*
X56480Y-17795D02*
G03*
X56480Y-17795I-80J0D01*
G01*
X50228Y-18681D02*
G03*
X50228Y-18681I-80J0D01*
G01*
X53080Y-16606D02*
G03*
X53080Y-16606I-80J0D01*
G01*
X55847Y-17011D02*
G03*
X55847Y-17011I-80J0D01*
G01*
X55794Y-17992D02*
G03*
X55794Y-17992I-80J0D01*
G01*
X45730Y21250D02*
G03*
X45730Y21250I-80J0D01*
G01*
Y18095D02*
G03*
X45730Y18095I-80J0D01*
G01*
Y14250D02*
G03*
X45730Y14250I-80J0D01*
G01*
Y11095D02*
G03*
X45730Y11095I-80J0D01*
G01*
Y4095D02*
G03*
X45730Y4095I-80J0D01*
G01*
Y25095D02*
G03*
X45730Y25095I-80J0D01*
G01*
X27280Y24556D02*
G03*
X27280Y24556I-80J0D01*
G01*
Y23000D02*
G03*
X27280Y23000I-80J0D01*
G01*
X21180Y24556D02*
G03*
X21180Y24556I-80J0D01*
G01*
Y23000D02*
G03*
X21180Y23000I-80J0D01*
G01*
X45730Y7250D02*
G03*
X45730Y7250I-80J0D01*
G01*
Y250D02*
G03*
X45730Y250I-80J0D01*
G01*
X17122Y10600D02*
G03*
X17122Y10600I-80J0D01*
G01*
X16807Y10260D02*
G03*
X16807Y10260I-80J0D01*
G01*
X17437D02*
G03*
X17437Y10260I-80J0D01*
G01*
X45730Y-16923D02*
G03*
X45730Y-16923I-80J0D01*
G01*
Y-20750D02*
G03*
X45730Y-20750I-80J0D01*
G01*
Y-6750D02*
G03*
X45730Y-6750I-80J0D01*
G01*
Y-2905D02*
G03*
X45730Y-2905I-80J0D01*
G01*
Y-13750D02*
G03*
X45730Y-13750I-80J0D01*
G01*
Y-9905D02*
G03*
X45730Y-9905I-80J0D01*
G01*
Y-23905D02*
G03*
X45730Y-23905I-80J0D01*
G01*
X16177Y-8288D02*
G03*
X16177Y-8288I-80J0D01*
G01*
X15862Y-7918D02*
G03*
X15862Y-7918I-80J0D01*
G01*
X15547Y-8288D02*
G03*
X15547Y-8288I-80J0D01*
G01*
X37135Y-26450D02*
G03*
X37135Y-26450I-80J0D01*
G01*
X45730Y-27750D02*
G03*
X45730Y-27750I-80J0D01*
G01*
X34380Y-27450D02*
G03*
X34380Y-27450I-80J0D01*
G01*
X53080Y-16015D02*
G03*
X53080Y-16015I-80J0D01*
G01*
X49885Y-17078D02*
G03*
X49885Y-17078I-80J0D01*
G01*
X55532Y-19100D02*
G03*
X55532Y-19100I-80J0D01*
G01*
X54780D02*
G03*
X54780Y-19100I-80J0D01*
G01*
X56480Y-16901D02*
G03*
X56480Y-16901I-80J0D01*
G01*
X53780Y-18296D02*
G03*
X53780Y-18296I-80J0D01*
G01*
Y-18476D02*
G03*
X53780Y-18476I-80J0D01*
G01*
X54280Y-17410D02*
G03*
X54280Y-17410I-80J0D01*
G01*
Y-17590D02*
G03*
X54280Y-17590I-80J0D01*
G01*
X51730Y-15586D02*
G03*
X51730Y-15586I-80J0D01*
G01*
Y-15766D02*
G03*
X51730Y-15766I-80J0D01*
G01*
X55747Y-17590D02*
G03*
X55747Y-17590I-80J0D01*
G01*
Y-17410D02*
G03*
X55747Y-17410I-80J0D01*
G01*
X56480Y-16721D02*
G03*
X56480Y-16721I-80J0D01*
G01*
Y-18476D02*
G03*
X56480Y-18476I-80J0D01*
G01*
Y-18296D02*
G03*
X56480Y-18296I-80J0D01*
G01*
X44030Y-20216D02*
G03*
X44030Y-20216I-80J0D01*
G01*
X24080Y22250D02*
G03*
X24080Y22250I-80J0D01*
G01*
X24710D02*
G03*
X24710Y22250I-80J0D01*
G01*
X23730Y23000D02*
G03*
X23730Y23000I-80J0D01*
G01*
Y24556D02*
G03*
X23730Y24556I-80J0D01*
G01*
X34180Y-23460D02*
G03*
X34180Y-23460I-80J0D01*
G01*
X33480Y-22850D02*
G03*
X33480Y-22850I-80J0D01*
G01*
X32540Y-21760D02*
G03*
X32540Y-21760I-80J0D01*
G01*
X31820Y-20720D02*
G03*
X31820Y-20720I-80J0D01*
G01*
X31130D02*
G03*
X31130Y-20720I-80J0D01*
G01*
X30437D02*
G03*
X30437Y-20720I-80J0D01*
G01*
X29710D02*
G03*
X29710Y-20720I-80J0D01*
G01*
X26269Y-20723D02*
G03*
X26269Y-20723I-80J0D01*
G01*
X29000Y-20720D02*
G03*
X29000Y-20720I-80J0D01*
G01*
X28270D02*
G03*
X28270Y-20720I-80J0D01*
G01*
X26880D02*
G03*
X26880Y-20720I-80J0D01*
G01*
X18697Y-8288D02*
G03*
X18697Y-8288I-80J0D01*
G01*
X27580Y-20720D02*
G03*
X27580Y-20720I-80J0D01*
G01*
X25640D02*
G03*
X25640Y-20720I-80J0D01*
G01*
X25070D02*
G03*
X25070Y-20720I-80J0D01*
G01*
X16492Y-7918D02*
G03*
X16492Y-7918I-80J0D01*
G01*
X17122D02*
G03*
X17122Y-7918I-80J0D01*
G01*
X16807Y-8288D02*
G03*
X16807Y-8288I-80J0D01*
G01*
X20587D02*
G03*
X20587Y-8288I-80J0D01*
G01*
X22791D02*
G03*
X22791Y-8288I-80J0D01*
G01*
X24996D02*
G03*
X24996Y-8288I-80J0D01*
G01*
X26886D02*
G03*
X26886Y-8288I-80J0D01*
G01*
X26571Y-5858D02*
G03*
X26571Y-5858I-80J0D01*
G01*
X24681D02*
G03*
X24681Y-5858I-80J0D01*
G01*
X24051D02*
G03*
X24051Y-5858I-80J0D01*
G01*
X22476D02*
G03*
X22476Y-5858I-80J0D01*
G01*
X21532D02*
G03*
X21532Y-5858I-80J0D01*
G01*
X20902D02*
G03*
X20902Y-5858I-80J0D01*
G01*
X21217Y-5488D02*
G03*
X21217Y-5488I-80J0D01*
G01*
X20272Y-5858D02*
G03*
X20272Y-5858I-80J0D01*
G01*
X20587Y-5488D02*
G03*
X20587Y-5488I-80J0D01*
G01*
X19642Y-5858D02*
G03*
X19642Y-5858I-80J0D01*
G01*
X19957Y-5488D02*
G03*
X19957Y-5488I-80J0D01*
G01*
X19012Y-5858D02*
G03*
X19012Y-5858I-80J0D01*
G01*
X19327Y-5488D02*
G03*
X19327Y-5488I-80J0D01*
G01*
X18382Y-5858D02*
G03*
X18382Y-5858I-80J0D01*
G01*
X18697Y-5488D02*
G03*
X18697Y-5488I-80J0D01*
G01*
X17752Y-5858D02*
G03*
X17752Y-5858I-80J0D01*
G01*
X18067Y-5488D02*
G03*
X18067Y-5488I-80J0D01*
G01*
X17122Y-5858D02*
G03*
X17122Y-5858I-80J0D01*
G01*
X16492D02*
G03*
X16492Y-5858I-80J0D01*
G01*
X16807Y-5488D02*
G03*
X16807Y-5488I-80J0D01*
G01*
X15862Y-5858D02*
G03*
X15862Y-5858I-80J0D01*
G01*
X16177Y-5488D02*
G03*
X16177Y-5488I-80J0D01*
G01*
X20272Y7830D02*
G03*
X20272Y7830I-80J0D01*
G01*
X21532D02*
G03*
X21532Y7830I-80J0D01*
G01*
X26886Y7460D02*
G03*
X26886Y7460I-80J0D01*
G01*
X26256D02*
G03*
X26256Y7460I-80J0D01*
G01*
X25626D02*
G03*
X25626Y7460I-80J0D01*
G01*
X24996D02*
G03*
X24996Y7460I-80J0D01*
G01*
X24366D02*
G03*
X24366Y7460I-80J0D01*
G01*
X23736D02*
G03*
X23736Y7460I-80J0D01*
G01*
X23106D02*
G03*
X23106Y7460I-80J0D01*
G01*
X22476D02*
G03*
X22476Y7460I-80J0D01*
G01*
X21847D02*
G03*
X21847Y7460I-80J0D01*
G01*
X21217D02*
G03*
X21217Y7460I-80J0D01*
G01*
X20587D02*
G03*
X20587Y7460I-80J0D01*
G01*
X19957D02*
G03*
X19957Y7460I-80J0D01*
G01*
X19327D02*
G03*
X19327Y7460I-80J0D01*
G01*
X18697D02*
G03*
X18697Y7460I-80J0D01*
G01*
X18067D02*
G03*
X18067Y7460I-80J0D01*
G01*
X17122D02*
G03*
X17122Y7460I-80J0D01*
G01*
X16492D02*
G03*
X16492Y7460I-80J0D01*
G01*
X24366Y10260D02*
G03*
X24366Y10260I-80J0D01*
G01*
X20587Y10600D02*
G03*
X20587Y10600I-80J0D01*
G01*
X27516Y10260D02*
G03*
X27516Y10260I-80J0D01*
G01*
X26886D02*
G03*
X26886Y10260I-80J0D01*
G01*
X26256D02*
G03*
X26256Y10260I-80J0D01*
G01*
X25626D02*
G03*
X25626Y10260I-80J0D01*
G01*
X24996D02*
G03*
X24996Y10260I-80J0D01*
G01*
X23421D02*
G03*
X23421Y10260I-80J0D01*
G01*
X22791D02*
G03*
X22791Y10260I-80J0D01*
G01*
X22162D02*
G03*
X22162Y10260I-80J0D01*
G01*
X21532D02*
G03*
X21532Y10260I-80J0D01*
G01*
X19957D02*
G03*
X19957Y10260I-80J0D01*
G01*
X19327D02*
G03*
X19327Y10260I-80J0D01*
G01*
X18697D02*
G03*
X18697Y10260I-80J0D01*
G01*
X18067D02*
G03*
X18067Y10260I-80J0D01*
G01*
X43280Y-1900D02*
G03*
X43280Y-1900I-80J0D01*
G01*
X48365Y24666D02*
G03*
X48365Y24666I-80J0D01*
G01*
X43630Y22600D02*
G03*
X43630Y22600I-80J0D01*
G01*
X43180D02*
G03*
X43180Y22600I-80J0D01*
G01*
Y21016D02*
G03*
X43180Y21016I-80J0D01*
G01*
X43630Y20766D02*
G03*
X43630Y20766I-80J0D01*
G01*
X44030Y20516D02*
G03*
X44030Y20516I-80J0D01*
G01*
X42730Y21350D02*
G03*
X42730Y21350I-80J0D01*
G01*
Y22050D02*
G03*
X42730Y22050I-80J0D01*
G01*
X48365Y17666D02*
G03*
X48365Y17666I-80J0D01*
G01*
X43630Y15600D02*
G03*
X43630Y15600I-80J0D01*
G01*
X43180D02*
G03*
X43180Y15600I-80J0D01*
G01*
Y14016D02*
G03*
X43180Y14016I-80J0D01*
G01*
X43630Y13766D02*
G03*
X43630Y13766I-80J0D01*
G01*
X44030Y13516D02*
G03*
X44030Y13516I-80J0D01*
G01*
X42730Y14350D02*
G03*
X42730Y14350I-80J0D01*
G01*
Y15050D02*
G03*
X42730Y15050I-80J0D01*
G01*
Y8050D02*
G03*
X42730Y8050I-80J0D01*
G01*
Y7350D02*
G03*
X42730Y7350I-80J0D01*
G01*
X44030Y6516D02*
G03*
X44030Y6516I-80J0D01*
G01*
X43630Y6766D02*
G03*
X43630Y6766I-80J0D01*
G01*
X43180Y7016D02*
G03*
X43180Y7016I-80J0D01*
G01*
Y8600D02*
G03*
X43180Y8600I-80J0D01*
G01*
X43630D02*
G03*
X43630Y8600I-80J0D01*
G01*
X48365Y10666D02*
G03*
X48365Y10666I-80J0D01*
G01*
X43280Y-15680D02*
G03*
X43280Y-15680I-80J0D01*
G01*
X44030Y-15380D02*
G03*
X44030Y-15380I-80J0D01*
G01*
X45265Y-17369D02*
G03*
X45265Y-17369I-80J0D01*
G01*
X48365Y3666D02*
G03*
X48365Y3666I-80J0D01*
G01*
X45230D02*
G03*
X45230Y3666I-80J0D01*
G01*
X44030Y784D02*
G03*
X44030Y784I-80J0D01*
G01*
X43280Y1040D02*
G03*
X43280Y1040I-80J0D01*
G01*
Y5100D02*
G03*
X43280Y5100I-80J0D01*
G01*
X44030Y5500D02*
G03*
X44030Y5500I-80J0D01*
G01*
X48365Y-3334D02*
G03*
X48365Y-3334I-80J0D01*
G01*
X45230D02*
G03*
X45230Y-3334I-80J0D01*
G01*
X44030Y-6216D02*
G03*
X44030Y-6216I-80J0D01*
G01*
X43280Y-5960D02*
G03*
X43280Y-5960I-80J0D01*
G01*
X44030Y-1500D02*
G03*
X44030Y-1500I-80J0D01*
G01*
X48365Y-10334D02*
G03*
X48365Y-10334I-80J0D01*
G01*
X45230D02*
G03*
X45230Y-10334I-80J0D01*
G01*
X44030Y-13216D02*
G03*
X44030Y-13216I-80J0D01*
G01*
X43280Y-12960D02*
G03*
X43280Y-12960I-80J0D01*
G01*
Y-8900D02*
G03*
X43280Y-8900I-80J0D01*
G01*
X44030Y-8500D02*
G03*
X44030Y-8500I-80J0D01*
G01*
X48365Y-17334D02*
G03*
X48365Y-17334I-80J0D01*
G01*
X43280Y-19960D02*
G03*
X43280Y-19960I-80J0D01*
G01*
X44030Y-22500D02*
G03*
X44030Y-22500I-80J0D01*
G01*
X43280Y-22900D02*
G03*
X43280Y-22900I-80J0D01*
G01*
Y-26960D02*
G03*
X43280Y-26960I-80J0D01*
G01*
X44030Y-27216D02*
G03*
X44030Y-27216I-80J0D01*
G01*
X45230Y-24334D02*
G03*
X45230Y-24334I-80J0D01*
G01*
X48365D02*
G03*
X48365Y-24334I-80J0D01*
G01*
D82*
X7290Y26550D02*
G03*
X7290Y26550I-40J0D01*
G01*
X8790D02*
G03*
X8790Y26550I-40J0D01*
G01*
X10290D02*
G03*
X10290Y26550I-40J0D01*
G01*
X15507Y-5488D02*
G03*
X15507Y-5488I-40J0D01*
G01*
X17397D02*
G03*
X17397Y-5488I-40J0D01*
G01*
X27791Y-8288D02*
G03*
X27791Y-8288I-40J0D01*
G01*
X24011D02*
G03*
X24011Y-8288I-40J0D01*
G01*
X20862Y-7918D02*
G03*
X20862Y-7918I-40J0D01*
G01*
X17397Y-8288D02*
G03*
X17397Y-8288I-40J0D01*
G01*
X24011Y10600D02*
G03*
X24011Y10600I-40J0D01*
G01*
X15507Y7460D02*
G03*
X15507Y7460I-40J0D01*
G01*
X20862Y10260D02*
G03*
X20862Y10260I-40J0D01*
G01*
X27791Y5879D02*
G03*
X27791Y5879I-40J0D01*
G01*
X17397Y7830D02*
G03*
X17397Y7830I-40J0D01*
G01*
X53440Y30343D02*
G03*
X53440Y30343I-40J0D01*
G01*
X49503D02*
G03*
X49503Y30343I-40J0D01*
G01*
X45566D02*
G03*
X45566Y30343I-40J0D01*
G01*
X43597Y26406D02*
G03*
X43597Y26406I-40J0D01*
G01*
Y18532D02*
G03*
X43597Y18532I-40J0D01*
G01*
X41629Y30343D02*
G03*
X41629Y30343I-40J0D01*
G01*
X39660Y26406D02*
G03*
X39660Y26406I-40J0D01*
G01*
X41629Y-1154D02*
G03*
X41629Y-1154I-40J0D01*
G01*
X39660Y-20839D02*
G03*
X39660Y-20839I-40J0D01*
G01*
X37692Y30343D02*
G03*
X37692Y30343I-40J0D01*
G01*
X35723Y26406D02*
G03*
X35723Y26406I-40J0D01*
G01*
X37692Y22469D02*
G03*
X37692Y22469I-40J0D01*
G01*
X35723Y18532D02*
G03*
X35723Y18532I-40J0D01*
G01*
X37692Y-1154D02*
G03*
X37692Y-1154I-40J0D01*
G01*
X33755Y30343D02*
G03*
X33755Y30343I-40J0D01*
G01*
X31786Y26406D02*
G03*
X31786Y26406I-40J0D01*
G01*
X33755Y22469D02*
G03*
X33755Y22469I-40J0D01*
G01*
X31786Y18532D02*
G03*
X31786Y18532I-40J0D01*
G01*
X33755Y14595D02*
G03*
X33755Y14595I-40J0D01*
G01*
X31786Y10657D02*
G03*
X31786Y10657I-40J0D01*
G01*
Y-28713D02*
G03*
X31786Y-28713I-40J0D01*
G01*
X29818Y30343D02*
G03*
X29818Y30343I-40J0D01*
G01*
Y22469D02*
G03*
X29818Y22469I-40J0D01*
G01*
Y6720D02*
G03*
X29818Y6720I-40J0D01*
G01*
X27849Y-28713D02*
G03*
X27849Y-28713I-40J0D01*
G01*
X19975Y26406D02*
G03*
X19975Y26406I-40J0D01*
G01*
X18007Y30343D02*
G03*
X18007Y30343I-40J0D01*
G01*
X16038Y26406D02*
G03*
X16038Y26406I-40J0D01*
G01*
X18007Y22469D02*
G03*
X18007Y22469I-40J0D01*
G01*
X14070Y30343D02*
G03*
X14070Y30343I-40J0D01*
G01*
Y22469D02*
G03*
X14070Y22469I-40J0D01*
G01*
X10133Y6720D02*
G03*
X10133Y6720I-40J0D01*
G01*
X6196D02*
G03*
X6196Y6720I-40J0D01*
G01*
X4227Y2783D02*
G03*
X4227Y2783I-40J0D01*
G01*
Y-5091D02*
G03*
X4227Y-5091I-40J0D01*
G01*
Y-12965D02*
G03*
X4227Y-12965I-40J0D01*
G01*
X2259Y6720D02*
G03*
X2259Y6720I-40J0D01*
G01*
Y-1154D02*
G03*
X2259Y-1154I-40J0D01*
G01*
Y-16902D02*
G03*
X2259Y-16902I-40J0D01*
G01*
Y-24776D02*
G03*
X2259Y-24776I-40J0D01*
G01*
X37685Y-26450D02*
G03*
X37685Y-26450I-40J0D01*
G01*
X37440Y-29990D02*
G03*
X37440Y-29990I-40J0D01*
G01*
X56371Y-28496D02*
G03*
X56371Y-28496I-40J0D01*
G01*
X46340Y-25089D02*
G03*
X46340Y-25089I-40J0D01*
G01*
X47490Y-25083D02*
G03*
X47490Y-25083I-40J0D01*
G01*
X46340Y-25750D02*
G03*
X46340Y-25750I-40J0D01*
G01*
Y-28923D02*
G03*
X46340Y-28923I-40J0D01*
G01*
X47490D02*
G03*
X47490Y-28923I-40J0D01*
G01*
X58890Y-28193D02*
G03*
X58890Y-28193I-40J0D01*
G01*
X46340Y-18089D02*
G03*
X46340Y-18089I-40J0D01*
G01*
X47490Y-18083D02*
G03*
X47490Y-18083I-40J0D01*
G01*
X46340Y-18750D02*
G03*
X46340Y-18750I-40J0D01*
G01*
Y-21923D02*
G03*
X46340Y-21923I-40J0D01*
G01*
X47490D02*
G03*
X47490Y-21923I-40J0D01*
G01*
X56672Y-21850D02*
G03*
X56672Y-21850I-40J0D01*
G01*
X58890Y-21193D02*
G03*
X58890Y-21193I-40J0D01*
G01*
X46340Y-11089D02*
G03*
X46340Y-11089I-40J0D01*
G01*
X47490Y-11083D02*
G03*
X47490Y-11083I-40J0D01*
G01*
X46340Y-11750D02*
G03*
X46340Y-11750I-40J0D01*
G01*
Y-14923D02*
G03*
X46340Y-14923I-40J0D01*
G01*
X47490D02*
G03*
X47490Y-14923I-40J0D01*
G01*
X56672Y-14850D02*
G03*
X56672Y-14850I-40J0D01*
G01*
X58890Y-14193D02*
G03*
X58890Y-14193I-40J0D01*
G01*
X46340Y-4089D02*
G03*
X46340Y-4089I-40J0D01*
G01*
X47490Y-4083D02*
G03*
X47490Y-4083I-40J0D01*
G01*
X46340Y-4750D02*
G03*
X46340Y-4750I-40J0D01*
G01*
Y-7923D02*
G03*
X46340Y-7923I-40J0D01*
G01*
X47490D02*
G03*
X47490Y-7923I-40J0D01*
G01*
X56672Y-7850D02*
G03*
X56672Y-7850I-40J0D01*
G01*
X58890Y-7193D02*
G03*
X58890Y-7193I-40J0D01*
G01*
X46340Y2911D02*
G03*
X46340Y2911I-40J0D01*
G01*
X47490Y2917D02*
G03*
X47490Y2917I-40J0D01*
G01*
X46340Y2250D02*
G03*
X46340Y2250I-40J0D01*
G01*
Y-923D02*
G03*
X46340Y-923I-40J0D01*
G01*
X47490D02*
G03*
X47490Y-923I-40J0D01*
G01*
X56672Y-850D02*
G03*
X56672Y-850I-40J0D01*
G01*
X58890Y-193D02*
G03*
X58890Y-193I-40J0D01*
G01*
X46340Y9911D02*
G03*
X46340Y9911I-40J0D01*
G01*
X47490Y9917D02*
G03*
X47490Y9917I-40J0D01*
G01*
X46340Y9250D02*
G03*
X46340Y9250I-40J0D01*
G01*
Y6077D02*
G03*
X46340Y6077I-40J0D01*
G01*
X47490D02*
G03*
X47490Y6077I-40J0D01*
G01*
X56672Y6150D02*
G03*
X56672Y6150I-40J0D01*
G01*
X58890Y6807D02*
G03*
X58890Y6807I-40J0D01*
G01*
X46340Y16911D02*
G03*
X46340Y16911I-40J0D01*
G01*
X47490Y16917D02*
G03*
X47490Y16917I-40J0D01*
G01*
X46340Y16250D02*
G03*
X46340Y16250I-40J0D01*
G01*
Y13077D02*
G03*
X46340Y13077I-40J0D01*
G01*
X47490D02*
G03*
X47490Y13077I-40J0D01*
G01*
X56672Y13150D02*
G03*
X56672Y13150I-40J0D01*
G01*
X58890Y13807D02*
G03*
X58890Y13807I-40J0D01*
G01*
Y20807D02*
G03*
X58890Y20807I-40J0D01*
G01*
X56672Y20150D02*
G03*
X56672Y20150I-40J0D01*
G01*
X47490Y20077D02*
G03*
X47490Y20077I-40J0D01*
G01*
X46340D02*
G03*
X46340Y20077I-40J0D01*
G01*
Y23250D02*
G03*
X46340Y23250I-40J0D01*
G01*
X47490Y23917D02*
G03*
X47490Y23917I-40J0D01*
G01*
X46340Y23911D02*
G03*
X46340Y23911I-40J0D01*
G01*
X53040Y25985D02*
G03*
X53040Y25985I-40J0D01*
G01*
Y25394D02*
G03*
X53040Y25394I-40J0D01*
G01*
Y18985D02*
G03*
X53040Y18985I-40J0D01*
G01*
Y18394D02*
G03*
X53040Y18394I-40J0D01*
G01*
Y11985D02*
G03*
X53040Y11985I-40J0D01*
G01*
Y11394D02*
G03*
X53040Y11394I-40J0D01*
G01*
Y4985D02*
G03*
X53040Y4985I-40J0D01*
G01*
Y4394D02*
G03*
X53040Y4394I-40J0D01*
G01*
Y-2015D02*
G03*
X53040Y-2015I-40J0D01*
G01*
Y-2606D02*
G03*
X53040Y-2606I-40J0D01*
G01*
Y-9015D02*
G03*
X53040Y-9015I-40J0D01*
G01*
Y-9606D02*
G03*
X53040Y-9606I-40J0D01*
G01*
Y-23015D02*
G03*
X53040Y-23015I-40J0D01*
G01*
Y-23606D02*
G03*
X53040Y-23606I-40J0D01*
G01*
X35140Y-28434D02*
G03*
X35140Y-28434I-40J0D01*
G01*
X53040Y-16606D02*
G03*
X53040Y-16606I-40J0D01*
G01*
X45690Y21250D02*
G03*
X45690Y21250I-40J0D01*
G01*
Y18095D02*
G03*
X45690Y18095I-40J0D01*
G01*
Y14250D02*
G03*
X45690Y14250I-40J0D01*
G01*
Y11095D02*
G03*
X45690Y11095I-40J0D01*
G01*
Y4095D02*
G03*
X45690Y4095I-40J0D01*
G01*
Y25095D02*
G03*
X45690Y25095I-40J0D01*
G01*
X27240Y24556D02*
G03*
X27240Y24556I-40J0D01*
G01*
Y23000D02*
G03*
X27240Y23000I-40J0D01*
G01*
X21140Y24556D02*
G03*
X21140Y24556I-40J0D01*
G01*
Y23000D02*
G03*
X21140Y23000I-40J0D01*
G01*
X45690Y7250D02*
G03*
X45690Y7250I-40J0D01*
G01*
Y250D02*
G03*
X45690Y250I-40J0D01*
G01*
X17082Y10600D02*
G03*
X17082Y10600I-40J0D01*
G01*
X16767Y10260D02*
G03*
X16767Y10260I-40J0D01*
G01*
X17397D02*
G03*
X17397Y10260I-40J0D01*
G01*
X45690Y-16923D02*
G03*
X45690Y-16923I-40J0D01*
G01*
Y-20750D02*
G03*
X45690Y-20750I-40J0D01*
G01*
Y-6750D02*
G03*
X45690Y-6750I-40J0D01*
G01*
Y-2905D02*
G03*
X45690Y-2905I-40J0D01*
G01*
Y-13750D02*
G03*
X45690Y-13750I-40J0D01*
G01*
Y-9905D02*
G03*
X45690Y-9905I-40J0D01*
G01*
Y-23905D02*
G03*
X45690Y-23905I-40J0D01*
G01*
X16137Y-8288D02*
G03*
X16137Y-8288I-40J0D01*
G01*
X15822Y-7918D02*
G03*
X15822Y-7918I-40J0D01*
G01*
X15507Y-8288D02*
G03*
X15507Y-8288I-40J0D01*
G01*
X37095Y-26450D02*
G03*
X37095Y-26450I-40J0D01*
G01*
X45690Y-27750D02*
G03*
X45690Y-27750I-40J0D01*
G01*
X34340Y-27450D02*
G03*
X34340Y-27450I-40J0D01*
G01*
X53040Y-16015D02*
G03*
X53040Y-16015I-40J0D01*
G01*
X43990Y-20216D02*
G03*
X43990Y-20216I-40J0D01*
G01*
X24040Y22250D02*
G03*
X24040Y22250I-40J0D01*
G01*
X24670D02*
G03*
X24670Y22250I-40J0D01*
G01*
X23690Y23000D02*
G03*
X23690Y23000I-40J0D01*
G01*
Y24556D02*
G03*
X23690Y24556I-40J0D01*
G01*
X34140Y-23460D02*
G03*
X34140Y-23460I-40J0D01*
G01*
X33440Y-22850D02*
G03*
X33440Y-22850I-40J0D01*
G01*
X32500Y-21760D02*
G03*
X32500Y-21760I-40J0D01*
G01*
X31780Y-20720D02*
G03*
X31780Y-20720I-40J0D01*
G01*
X31090D02*
G03*
X31090Y-20720I-40J0D01*
G01*
X30397D02*
G03*
X30397Y-20720I-40J0D01*
G01*
X29670D02*
G03*
X29670Y-20720I-40J0D01*
G01*
X26229Y-20723D02*
G03*
X26229Y-20723I-40J0D01*
G01*
X28960Y-20720D02*
G03*
X28960Y-20720I-40J0D01*
G01*
X28230D02*
G03*
X28230Y-20720I-40J0D01*
G01*
X26840D02*
G03*
X26840Y-20720I-40J0D01*
G01*
X18657Y-8288D02*
G03*
X18657Y-8288I-40J0D01*
G01*
X27540Y-20720D02*
G03*
X27540Y-20720I-40J0D01*
G01*
X25600D02*
G03*
X25600Y-20720I-40J0D01*
G01*
X25030D02*
G03*
X25030Y-20720I-40J0D01*
G01*
X16452Y-7918D02*
G03*
X16452Y-7918I-40J0D01*
G01*
X17082D02*
G03*
X17082Y-7918I-40J0D01*
G01*
X16767Y-8288D02*
G03*
X16767Y-8288I-40J0D01*
G01*
X20547D02*
G03*
X20547Y-8288I-40J0D01*
G01*
X22751D02*
G03*
X22751Y-8288I-40J0D01*
G01*
X24956D02*
G03*
X24956Y-8288I-40J0D01*
G01*
X26846D02*
G03*
X26846Y-8288I-40J0D01*
G01*
X26531Y-5858D02*
G03*
X26531Y-5858I-40J0D01*
G01*
X24641D02*
G03*
X24641Y-5858I-40J0D01*
G01*
X24011D02*
G03*
X24011Y-5858I-40J0D01*
G01*
X22436D02*
G03*
X22436Y-5858I-40J0D01*
G01*
X21492D02*
G03*
X21492Y-5858I-40J0D01*
G01*
X20862D02*
G03*
X20862Y-5858I-40J0D01*
G01*
X21177Y-5488D02*
G03*
X21177Y-5488I-40J0D01*
G01*
X20232Y-5858D02*
G03*
X20232Y-5858I-40J0D01*
G01*
X20547Y-5488D02*
G03*
X20547Y-5488I-40J0D01*
G01*
X19602Y-5858D02*
G03*
X19602Y-5858I-40J0D01*
G01*
X19917Y-5488D02*
G03*
X19917Y-5488I-40J0D01*
G01*
X18972Y-5858D02*
G03*
X18972Y-5858I-40J0D01*
G01*
X19287Y-5488D02*
G03*
X19287Y-5488I-40J0D01*
G01*
X18342Y-5858D02*
G03*
X18342Y-5858I-40J0D01*
G01*
X18657Y-5488D02*
G03*
X18657Y-5488I-40J0D01*
G01*
X17712Y-5858D02*
G03*
X17712Y-5858I-40J0D01*
G01*
X18027Y-5488D02*
G03*
X18027Y-5488I-40J0D01*
G01*
X17082Y-5858D02*
G03*
X17082Y-5858I-40J0D01*
G01*
X16452D02*
G03*
X16452Y-5858I-40J0D01*
G01*
X16767Y-5488D02*
G03*
X16767Y-5488I-40J0D01*
G01*
X15822Y-5858D02*
G03*
X15822Y-5858I-40J0D01*
G01*
X16137Y-5488D02*
G03*
X16137Y-5488I-40J0D01*
G01*
X20232Y7830D02*
G03*
X20232Y7830I-40J0D01*
G01*
X21492D02*
G03*
X21492Y7830I-40J0D01*
G01*
X26846Y7460D02*
G03*
X26846Y7460I-40J0D01*
G01*
X26216D02*
G03*
X26216Y7460I-40J0D01*
G01*
X25586D02*
G03*
X25586Y7460I-40J0D01*
G01*
X24956D02*
G03*
X24956Y7460I-40J0D01*
G01*
X24326D02*
G03*
X24326Y7460I-40J0D01*
G01*
X23696D02*
G03*
X23696Y7460I-40J0D01*
G01*
X23066D02*
G03*
X23066Y7460I-40J0D01*
G01*
X22436D02*
G03*
X22436Y7460I-40J0D01*
G01*
X21807D02*
G03*
X21807Y7460I-40J0D01*
G01*
X21177D02*
G03*
X21177Y7460I-40J0D01*
G01*
X20547D02*
G03*
X20547Y7460I-40J0D01*
G01*
X19917D02*
G03*
X19917Y7460I-40J0D01*
G01*
X19287D02*
G03*
X19287Y7460I-40J0D01*
G01*
X18657D02*
G03*
X18657Y7460I-40J0D01*
G01*
X18027D02*
G03*
X18027Y7460I-40J0D01*
G01*
X17082D02*
G03*
X17082Y7460I-40J0D01*
G01*
X16452D02*
G03*
X16452Y7460I-40J0D01*
G01*
X24326Y10260D02*
G03*
X24326Y10260I-40J0D01*
G01*
X20547Y10600D02*
G03*
X20547Y10600I-40J0D01*
G01*
X27476Y10260D02*
G03*
X27476Y10260I-40J0D01*
G01*
X26846D02*
G03*
X26846Y10260I-40J0D01*
G01*
X26216D02*
G03*
X26216Y10260I-40J0D01*
G01*
X25586D02*
G03*
X25586Y10260I-40J0D01*
G01*
X24956D02*
G03*
X24956Y10260I-40J0D01*
G01*
X23381D02*
G03*
X23381Y10260I-40J0D01*
G01*
X22751D02*
G03*
X22751Y10260I-40J0D01*
G01*
X22122D02*
G03*
X22122Y10260I-40J0D01*
G01*
X21492D02*
G03*
X21492Y10260I-40J0D01*
G01*
X19917D02*
G03*
X19917Y10260I-40J0D01*
G01*
X19287D02*
G03*
X19287Y10260I-40J0D01*
G01*
X18657D02*
G03*
X18657Y10260I-40J0D01*
G01*
X18027D02*
G03*
X18027Y10260I-40J0D01*
G01*
X43240Y-1900D02*
G03*
X43240Y-1900I-40J0D01*
G01*
X48325Y24666D02*
G03*
X48325Y24666I-40J0D01*
G01*
X43590Y22600D02*
G03*
X43590Y22600I-40J0D01*
G01*
X43140D02*
G03*
X43140Y22600I-40J0D01*
G01*
Y21016D02*
G03*
X43140Y21016I-40J0D01*
G01*
X43590Y20766D02*
G03*
X43590Y20766I-40J0D01*
G01*
X43990Y20516D02*
G03*
X43990Y20516I-40J0D01*
G01*
X42690Y21350D02*
G03*
X42690Y21350I-40J0D01*
G01*
Y22050D02*
G03*
X42690Y22050I-40J0D01*
G01*
X48325Y17666D02*
G03*
X48325Y17666I-40J0D01*
G01*
X43590Y15600D02*
G03*
X43590Y15600I-40J0D01*
G01*
X43140D02*
G03*
X43140Y15600I-40J0D01*
G01*
Y14016D02*
G03*
X43140Y14016I-40J0D01*
G01*
X43590Y13766D02*
G03*
X43590Y13766I-40J0D01*
G01*
X43990Y13516D02*
G03*
X43990Y13516I-40J0D01*
G01*
X42690Y14350D02*
G03*
X42690Y14350I-40J0D01*
G01*
Y15050D02*
G03*
X42690Y15050I-40J0D01*
G01*
Y8050D02*
G03*
X42690Y8050I-40J0D01*
G01*
Y7350D02*
G03*
X42690Y7350I-40J0D01*
G01*
X43990Y6516D02*
G03*
X43990Y6516I-40J0D01*
G01*
X43590Y6766D02*
G03*
X43590Y6766I-40J0D01*
G01*
X43140Y7016D02*
G03*
X43140Y7016I-40J0D01*
G01*
Y8600D02*
G03*
X43140Y8600I-40J0D01*
G01*
X43590D02*
G03*
X43590Y8600I-40J0D01*
G01*
X48325Y10666D02*
G03*
X48325Y10666I-40J0D01*
G01*
X43240Y-15680D02*
G03*
X43240Y-15680I-40J0D01*
G01*
X43990Y-15380D02*
G03*
X43990Y-15380I-40J0D01*
G01*
X45225Y-17369D02*
G03*
X45225Y-17369I-40J0D01*
G01*
X48325Y3666D02*
G03*
X48325Y3666I-40J0D01*
G01*
X45190D02*
G03*
X45190Y3666I-40J0D01*
G01*
X43990Y784D02*
G03*
X43990Y784I-40J0D01*
G01*
X43240Y1040D02*
G03*
X43240Y1040I-40J0D01*
G01*
Y5100D02*
G03*
X43240Y5100I-40J0D01*
G01*
X43990Y5500D02*
G03*
X43990Y5500I-40J0D01*
G01*
X48325Y-3334D02*
G03*
X48325Y-3334I-40J0D01*
G01*
X45190D02*
G03*
X45190Y-3334I-40J0D01*
G01*
X43990Y-6216D02*
G03*
X43990Y-6216I-40J0D01*
G01*
X43240Y-5960D02*
G03*
X43240Y-5960I-40J0D01*
G01*
X43990Y-1500D02*
G03*
X43990Y-1500I-40J0D01*
G01*
X48325Y-10334D02*
G03*
X48325Y-10334I-40J0D01*
G01*
X45190D02*
G03*
X45190Y-10334I-40J0D01*
G01*
X43990Y-13216D02*
G03*
X43990Y-13216I-40J0D01*
G01*
X43240Y-12960D02*
G03*
X43240Y-12960I-40J0D01*
G01*
Y-8900D02*
G03*
X43240Y-8900I-40J0D01*
G01*
X43990Y-8500D02*
G03*
X43990Y-8500I-40J0D01*
G01*
X48325Y-17334D02*
G03*
X48325Y-17334I-40J0D01*
G01*
X43240Y-19960D02*
G03*
X43240Y-19960I-40J0D01*
G01*
X43990Y-22500D02*
G03*
X43990Y-22500I-40J0D01*
G01*
X43240Y-22900D02*
G03*
X43240Y-22900I-40J0D01*
G01*
Y-26960D02*
G03*
X43240Y-26960I-40J0D01*
G01*
X43990Y-27216D02*
G03*
X43990Y-27216I-40J0D01*
G01*
X45190Y-24334D02*
G03*
X45190Y-24334I-40J0D01*
G01*
X48325D02*
G03*
X48325Y-24334I-40J0D01*
G01*
M02*
