G04*
G04 #@! TF.GenerationSoftware,Altium Limited,Altium Designer,25.8.1 (18)*
G04*
G04 Layer_Color=8388736*
%FSLAX24Y24*%
%MOIN*%
G70*
G04*
G04 #@! TF.SameCoordinates,0559D858-52EB-4A24-BF16-3A32F8B75DB2*
G04*
G04*
G04 #@! TF.FilePolarity,Negative*
G04*
G01*
G75*
%ADD16R,0.0591X0.0177*%
%ADD23R,0.0315X0.0315*%
%ADD27R,0.0315X0.0157*%
%ADD28R,0.0453X0.0453*%
%ADD29R,0.0434X0.0453*%
%ADD30R,0.0220X0.0607*%
%ADD31R,0.0453X0.0434*%
%ADD32R,0.0453X0.0453*%
%ADD33R,0.0413X0.0197*%
%ADD34R,0.0473X0.0631*%
%ADD35R,0.0650X0.0631*%
%ADD36R,0.0316X0.0394*%
%ADD37C,0.0587*%
%ADD38O,0.0610X0.0374*%
%ADD39O,0.0634X0.1227*%
%ADD40C,0.0650*%
%ADD41C,0.0266*%
%ADD42O,0.0344X0.0472*%
%ADD43O,0.1227X0.0634*%
%ADD44C,0.0440*%
%ADD45R,0.0650X0.0650*%
%ADD46R,0.0587X0.0587*%
%ADD47C,0.2049*%
D16*
X49108Y-21496D02*
D03*
Y-21240D02*
D03*
Y-20984D02*
D03*
Y-20728D02*
D03*
Y-20472D02*
D03*
Y-20216D02*
D03*
Y-19960D02*
D03*
Y-19704D02*
D03*
X51392D02*
D03*
Y-19960D02*
D03*
Y-20216D02*
D03*
Y-20472D02*
D03*
Y-20728D02*
D03*
Y-20984D02*
D03*
Y-21240D02*
D03*
Y-21496D02*
D03*
X49108Y-17846D02*
D03*
Y18178D02*
D03*
Y14272D02*
D03*
Y25178D02*
D03*
Y21272D02*
D03*
Y4178D02*
D03*
Y272D02*
D03*
Y-2822D02*
D03*
Y7272D02*
D03*
Y11178D02*
D03*
Y-13728D02*
D03*
Y-6728D02*
D03*
Y-9822D02*
D03*
Y-23822D02*
D03*
Y-27728D02*
D03*
Y-16822D02*
D03*
Y24922D02*
D03*
Y21528D02*
D03*
Y17922D02*
D03*
Y14528D02*
D03*
Y3922D02*
D03*
Y10922D02*
D03*
Y7528D02*
D03*
Y528D02*
D03*
Y-3078D02*
D03*
Y-10078D02*
D03*
Y-13472D02*
D03*
Y-6472D02*
D03*
Y-24078D02*
D03*
Y-27472D02*
D03*
Y-17078D02*
D03*
Y-16054D02*
D03*
Y20504D02*
D03*
Y20760D02*
D03*
Y21016D02*
D03*
Y21784D02*
D03*
Y22040D02*
D03*
Y22296D02*
D03*
X51392D02*
D03*
Y22040D02*
D03*
Y21784D02*
D03*
Y21528D02*
D03*
Y21272D02*
D03*
Y21016D02*
D03*
Y20760D02*
D03*
Y20504D02*
D03*
X49108Y13504D02*
D03*
Y13760D02*
D03*
Y14016D02*
D03*
Y14784D02*
D03*
Y15040D02*
D03*
Y15296D02*
D03*
X51392D02*
D03*
Y15040D02*
D03*
Y14784D02*
D03*
Y14528D02*
D03*
Y14272D02*
D03*
Y14016D02*
D03*
Y13760D02*
D03*
Y13504D02*
D03*
X49108Y6504D02*
D03*
Y6760D02*
D03*
Y7016D02*
D03*
Y7784D02*
D03*
Y8040D02*
D03*
Y8296D02*
D03*
X51392D02*
D03*
Y8040D02*
D03*
Y7784D02*
D03*
Y7528D02*
D03*
Y7272D02*
D03*
Y7016D02*
D03*
Y6760D02*
D03*
Y6504D02*
D03*
X49108Y-496D02*
D03*
Y-240D02*
D03*
Y16D02*
D03*
Y784D02*
D03*
Y1040D02*
D03*
Y1296D02*
D03*
X51392D02*
D03*
Y1040D02*
D03*
Y784D02*
D03*
Y528D02*
D03*
Y272D02*
D03*
Y16D02*
D03*
Y-240D02*
D03*
Y-496D02*
D03*
X49108Y-7496D02*
D03*
Y-7240D02*
D03*
Y-6984D02*
D03*
Y-6216D02*
D03*
Y-5960D02*
D03*
Y-5704D02*
D03*
X51392D02*
D03*
Y-5960D02*
D03*
Y-6216D02*
D03*
Y-6472D02*
D03*
Y-6728D02*
D03*
Y-6984D02*
D03*
Y-7240D02*
D03*
Y-7496D02*
D03*
X49108Y-14496D02*
D03*
Y-14240D02*
D03*
Y-13984D02*
D03*
Y-13216D02*
D03*
Y-12960D02*
D03*
Y-12704D02*
D03*
X51392D02*
D03*
Y-12960D02*
D03*
Y-13216D02*
D03*
Y-13472D02*
D03*
Y-13728D02*
D03*
Y-13984D02*
D03*
Y-14240D02*
D03*
Y-14496D02*
D03*
X49108Y-28496D02*
D03*
Y-28240D02*
D03*
Y-27984D02*
D03*
Y-27216D02*
D03*
Y-26960D02*
D03*
Y-26704D02*
D03*
X51392D02*
D03*
Y-26960D02*
D03*
Y-27216D02*
D03*
Y-27472D02*
D03*
Y-27728D02*
D03*
Y-27984D02*
D03*
Y-28240D02*
D03*
Y-28496D02*
D03*
Y25946D02*
D03*
Y25690D02*
D03*
Y25434D02*
D03*
Y25178D02*
D03*
Y24922D02*
D03*
Y24666D02*
D03*
Y24410D02*
D03*
Y24154D02*
D03*
X49108D02*
D03*
Y24410D02*
D03*
Y24666D02*
D03*
Y25434D02*
D03*
Y25690D02*
D03*
Y25946D02*
D03*
X51392Y18946D02*
D03*
Y18690D02*
D03*
Y18434D02*
D03*
Y18178D02*
D03*
Y17922D02*
D03*
Y17666D02*
D03*
Y17410D02*
D03*
Y17154D02*
D03*
X49108D02*
D03*
Y17410D02*
D03*
Y17666D02*
D03*
Y18434D02*
D03*
Y18690D02*
D03*
Y18946D02*
D03*
X51392Y11946D02*
D03*
Y11690D02*
D03*
Y11434D02*
D03*
Y11178D02*
D03*
Y10922D02*
D03*
Y10666D02*
D03*
Y10410D02*
D03*
Y10154D02*
D03*
X49108D02*
D03*
Y10410D02*
D03*
Y10666D02*
D03*
Y11434D02*
D03*
Y11690D02*
D03*
Y11946D02*
D03*
X51392Y4946D02*
D03*
Y4690D02*
D03*
Y4434D02*
D03*
Y4178D02*
D03*
Y3922D02*
D03*
Y3666D02*
D03*
Y3410D02*
D03*
Y3154D02*
D03*
X49108D02*
D03*
Y3410D02*
D03*
Y3666D02*
D03*
Y4434D02*
D03*
Y4690D02*
D03*
Y4946D02*
D03*
X51392Y-2054D02*
D03*
Y-2310D02*
D03*
Y-2566D02*
D03*
Y-2822D02*
D03*
Y-3078D02*
D03*
Y-3334D02*
D03*
Y-3590D02*
D03*
Y-3846D02*
D03*
X49108D02*
D03*
Y-3590D02*
D03*
Y-3334D02*
D03*
Y-2566D02*
D03*
Y-2310D02*
D03*
Y-2054D02*
D03*
X51392Y-9054D02*
D03*
Y-9310D02*
D03*
Y-9566D02*
D03*
Y-9822D02*
D03*
Y-10078D02*
D03*
Y-10334D02*
D03*
Y-10590D02*
D03*
Y-10846D02*
D03*
X49108D02*
D03*
Y-10590D02*
D03*
Y-10334D02*
D03*
Y-9566D02*
D03*
Y-9310D02*
D03*
Y-9054D02*
D03*
X51392Y-16054D02*
D03*
Y-16310D02*
D03*
Y-16566D02*
D03*
Y-16822D02*
D03*
Y-17078D02*
D03*
Y-17334D02*
D03*
Y-17590D02*
D03*
Y-17846D02*
D03*
X49108Y-17590D02*
D03*
Y-17334D02*
D03*
Y-16566D02*
D03*
Y-16310D02*
D03*
X51392Y-23054D02*
D03*
Y-23310D02*
D03*
Y-23566D02*
D03*
Y-23822D02*
D03*
Y-24078D02*
D03*
Y-24334D02*
D03*
Y-24590D02*
D03*
Y-24846D02*
D03*
X49108D02*
D03*
Y-24590D02*
D03*
Y-24334D02*
D03*
Y-23566D02*
D03*
Y-23310D02*
D03*
Y-23054D02*
D03*
D23*
X58850Y21450D02*
D03*
Y14450D02*
D03*
Y7450D02*
D03*
Y450D02*
D03*
Y-6550D02*
D03*
Y-13550D02*
D03*
Y-20550D02*
D03*
X58850Y-27550D02*
D03*
X58200Y21450D02*
D03*
Y14450D02*
D03*
Y7450D02*
D03*
Y450D02*
D03*
Y-6550D02*
D03*
Y-13550D02*
D03*
Y-20550D02*
D03*
X58200Y-27550D02*
D03*
D27*
X56741Y-17894D02*
D03*
Y24894D02*
D03*
Y23909D02*
D03*
Y17894D02*
D03*
Y16909D02*
D03*
X56072Y24992D02*
D03*
Y24008D02*
D03*
Y17992D02*
D03*
Y17008D02*
D03*
X56741Y10894D02*
D03*
Y9909D02*
D03*
Y3894D02*
D03*
Y2909D02*
D03*
X56072Y10992D02*
D03*
Y10008D02*
D03*
Y3992D02*
D03*
Y3008D02*
D03*
X56741Y-3106D02*
D03*
Y-4091D02*
D03*
Y-10106D02*
D03*
Y-11091D02*
D03*
X56072Y-3992D02*
D03*
Y-3008D02*
D03*
Y-10008D02*
D03*
Y-17008D02*
D03*
Y-10992D02*
D03*
X56741Y-17106D02*
D03*
Y-24106D02*
D03*
Y-25091D02*
D03*
Y-18091D02*
D03*
X56072Y-17992D02*
D03*
Y-24008D02*
D03*
Y-24992D02*
D03*
X56741Y17303D02*
D03*
Y16319D02*
D03*
Y24500D02*
D03*
Y24303D02*
D03*
Y18484D02*
D03*
Y17500D02*
D03*
Y3500D02*
D03*
Y3303D02*
D03*
Y2319D02*
D03*
Y9319D02*
D03*
Y10303D02*
D03*
Y11484D02*
D03*
Y10500D02*
D03*
Y4484D02*
D03*
Y23319D02*
D03*
Y25484D02*
D03*
X56072Y23417D02*
D03*
Y25583D02*
D03*
Y16417D02*
D03*
Y18583D02*
D03*
Y9417D02*
D03*
Y11583D02*
D03*
Y2417D02*
D03*
Y-2417D02*
D03*
Y4583D02*
D03*
X56741Y-10500D02*
D03*
Y-10697D02*
D03*
Y-11681D02*
D03*
Y-4681D02*
D03*
Y-3697D02*
D03*
Y-2516D02*
D03*
Y-3500D02*
D03*
Y-9516D02*
D03*
Y-24697D02*
D03*
Y-25681D02*
D03*
Y-18681D02*
D03*
Y-17697D02*
D03*
Y-16516D02*
D03*
Y-17500D02*
D03*
Y-23516D02*
D03*
Y-24500D02*
D03*
X56072Y-9417D02*
D03*
Y-11583D02*
D03*
Y-4583D02*
D03*
Y-16417D02*
D03*
Y-18583D02*
D03*
Y-25583D02*
D03*
Y-23417D02*
D03*
Y-17205D02*
D03*
X56741Y23516D02*
D03*
Y23713D02*
D03*
Y24106D02*
D03*
Y24697D02*
D03*
Y25091D02*
D03*
Y25287D02*
D03*
X56072Y25386D02*
D03*
Y25189D02*
D03*
Y24795D02*
D03*
Y24598D02*
D03*
Y24402D02*
D03*
Y24205D02*
D03*
Y23811D02*
D03*
Y23614D02*
D03*
X56741Y16516D02*
D03*
Y16713D02*
D03*
Y17106D02*
D03*
Y17697D02*
D03*
Y18091D02*
D03*
Y18287D02*
D03*
X56072Y18386D02*
D03*
Y18189D02*
D03*
Y17795D02*
D03*
Y17598D02*
D03*
Y17402D02*
D03*
Y17205D02*
D03*
Y16811D02*
D03*
Y16614D02*
D03*
X56741Y9516D02*
D03*
Y9713D02*
D03*
Y10106D02*
D03*
Y10697D02*
D03*
Y11091D02*
D03*
Y11287D02*
D03*
X56072Y11386D02*
D03*
Y11189D02*
D03*
Y10795D02*
D03*
Y10598D02*
D03*
Y10402D02*
D03*
Y10205D02*
D03*
Y9811D02*
D03*
Y9614D02*
D03*
X56741Y2516D02*
D03*
Y2713D02*
D03*
Y3106D02*
D03*
Y3697D02*
D03*
Y4091D02*
D03*
Y4287D02*
D03*
X56072Y4386D02*
D03*
Y4189D02*
D03*
Y3795D02*
D03*
Y3598D02*
D03*
Y3402D02*
D03*
Y3205D02*
D03*
Y2811D02*
D03*
Y2614D02*
D03*
X56741Y-4484D02*
D03*
Y-4287D02*
D03*
Y-3894D02*
D03*
Y-3303D02*
D03*
Y-2909D02*
D03*
Y-2713D02*
D03*
X56072Y-2614D02*
D03*
Y-2811D02*
D03*
Y-3205D02*
D03*
Y-3402D02*
D03*
Y-3598D02*
D03*
Y-3795D02*
D03*
Y-4189D02*
D03*
Y-4386D02*
D03*
X56741Y-11484D02*
D03*
Y-11287D02*
D03*
Y-10894D02*
D03*
Y-10303D02*
D03*
Y-9909D02*
D03*
Y-9713D02*
D03*
X56072Y-9614D02*
D03*
Y-9811D02*
D03*
Y-10205D02*
D03*
Y-10402D02*
D03*
Y-10598D02*
D03*
Y-10795D02*
D03*
Y-11189D02*
D03*
Y-11386D02*
D03*
X56741Y-18484D02*
D03*
Y-18287D02*
D03*
Y-17303D02*
D03*
Y-16909D02*
D03*
Y-16713D02*
D03*
X56072Y-16614D02*
D03*
Y-16811D02*
D03*
Y-17402D02*
D03*
Y-17598D02*
D03*
Y-17795D02*
D03*
Y-18189D02*
D03*
Y-18386D02*
D03*
X56741Y-25484D02*
D03*
Y-25287D02*
D03*
Y-24894D02*
D03*
Y-24303D02*
D03*
Y-23909D02*
D03*
Y-23713D02*
D03*
X56072Y-23614D02*
D03*
Y-23811D02*
D03*
Y-24205D02*
D03*
Y-24402D02*
D03*
Y-24598D02*
D03*
Y-24795D02*
D03*
Y-25189D02*
D03*
Y-25386D02*
D03*
D28*
X47694Y-18750D02*
D03*
X26344Y24550D02*
D03*
Y23000D02*
D03*
X21956Y24550D02*
D03*
Y23000D02*
D03*
X55594Y20150D02*
D03*
Y13150D02*
D03*
Y6150D02*
D03*
Y-850D02*
D03*
Y-7850D02*
D03*
Y-14850D02*
D03*
Y-21850D02*
D03*
Y-28850D02*
D03*
X47006Y23250D02*
D03*
Y9250D02*
D03*
Y16250D02*
D03*
Y2250D02*
D03*
Y-4750D02*
D03*
Y-11750D02*
D03*
Y-18750D02*
D03*
Y-25750D02*
D03*
X36444Y-29990D02*
D03*
X56331Y-20550D02*
D03*
X54906Y-21850D02*
D03*
X35756Y-29990D02*
D03*
X38589Y-28946D02*
D03*
X37900D02*
D03*
X54906Y20150D02*
D03*
Y13150D02*
D03*
Y6150D02*
D03*
Y-850D02*
D03*
Y-7850D02*
D03*
Y-14850D02*
D03*
Y-28850D02*
D03*
X47694Y23250D02*
D03*
Y16250D02*
D03*
Y9250D02*
D03*
Y2250D02*
D03*
Y-4750D02*
D03*
Y-11750D02*
D03*
Y-25750D02*
D03*
X56331Y21450D02*
D03*
X57020D02*
D03*
X56331Y14450D02*
D03*
X57020D02*
D03*
X56331Y7450D02*
D03*
X57020D02*
D03*
X56331Y450D02*
D03*
X57020D02*
D03*
X56331Y-6550D02*
D03*
X57020D02*
D03*
X56331Y-13550D02*
D03*
X57020D02*
D03*
Y-20550D02*
D03*
X56331Y-27550D02*
D03*
X57020D02*
D03*
X22644Y24550D02*
D03*
Y23000D02*
D03*
X25656D02*
D03*
Y24550D02*
D03*
D29*
X54900Y25394D02*
D03*
Y18394D02*
D03*
Y11394D02*
D03*
Y4394D02*
D03*
Y-2606D02*
D03*
X53750Y25394D02*
D03*
Y18394D02*
D03*
Y11394D02*
D03*
Y4394D02*
D03*
Y-2606D02*
D03*
X54900Y-9606D02*
D03*
X53750D02*
D03*
X54900Y-16606D02*
D03*
X53750D02*
D03*
Y-23606D02*
D03*
X54900D02*
D03*
X47450Y21261D02*
D03*
Y25095D02*
D03*
Y14261D02*
D03*
Y18095D02*
D03*
X46300D02*
D03*
Y14261D02*
D03*
Y21261D02*
D03*
Y25095D02*
D03*
X47450Y11095D02*
D03*
Y4095D02*
D03*
Y7261D02*
D03*
X46300D02*
D03*
Y11095D02*
D03*
Y4095D02*
D03*
X47450Y-2905D02*
D03*
Y261D02*
D03*
Y-6739D02*
D03*
Y-13739D02*
D03*
Y-9905D02*
D03*
X46300Y-16905D02*
D03*
Y-2905D02*
D03*
Y261D02*
D03*
Y-6739D02*
D03*
Y-9905D02*
D03*
Y-13739D02*
D03*
X47450Y-16905D02*
D03*
Y-23905D02*
D03*
Y-27739D02*
D03*
Y-20739D02*
D03*
X46300D02*
D03*
Y-27739D02*
D03*
Y-23905D02*
D03*
X54900Y18985D02*
D03*
Y25985D02*
D03*
X53750D02*
D03*
Y18985D02*
D03*
Y11985D02*
D03*
X54900D02*
D03*
X47450Y24505D02*
D03*
Y20671D02*
D03*
Y13671D02*
D03*
Y17505D02*
D03*
X54900Y4985D02*
D03*
X53750D02*
D03*
Y-2015D02*
D03*
X54900D02*
D03*
X47450Y6671D02*
D03*
Y10505D02*
D03*
Y3505D02*
D03*
Y-329D02*
D03*
X46300Y24505D02*
D03*
Y20671D02*
D03*
Y17505D02*
D03*
X7250Y25145D02*
D03*
X8750D02*
D03*
X46300Y6671D02*
D03*
Y-329D02*
D03*
Y3505D02*
D03*
Y10505D02*
D03*
Y13671D02*
D03*
X54900Y-9015D02*
D03*
X53750D02*
D03*
X54900Y-16015D02*
D03*
X53750D02*
D03*
X47450Y-3495D02*
D03*
Y-7329D02*
D03*
Y-10495D02*
D03*
Y-14329D02*
D03*
X53750Y-23015D02*
D03*
X54900D02*
D03*
X47450Y-17495D02*
D03*
Y-21329D02*
D03*
Y-24495D02*
D03*
Y-28329D02*
D03*
X46300Y-10495D02*
D03*
Y-7329D02*
D03*
Y-17495D02*
D03*
Y-14329D02*
D03*
Y-3495D02*
D03*
Y-24495D02*
D03*
Y-21329D02*
D03*
Y-28329D02*
D03*
X7250Y24555D02*
D03*
X8750D02*
D03*
D30*
X17042Y9088D02*
D03*
X17357D02*
D03*
X16727D02*
D03*
X15782Y-9090D02*
D03*
X16097D02*
D03*
X15467D02*
D03*
X23971Y9088D02*
D03*
X20822D02*
D03*
X27436Y6658D02*
D03*
X27751D02*
D03*
X15467D02*
D03*
X17357D02*
D03*
Y-9090D02*
D03*
X15467Y-6660D02*
D03*
X17357D02*
D03*
X27436Y-9090D02*
D03*
X27751D02*
D03*
X20822D02*
D03*
X23971D02*
D03*
X15782Y-6660D02*
D03*
X16097D02*
D03*
X16412D02*
D03*
Y-9090D02*
D03*
X16727Y-6660D02*
D03*
Y-9090D02*
D03*
X17042Y-6660D02*
D03*
Y-9090D02*
D03*
X17672Y-6660D02*
D03*
Y-9090D02*
D03*
X17987Y-6660D02*
D03*
Y-9090D02*
D03*
X18302Y-6660D02*
D03*
Y-9090D02*
D03*
X18617Y-6660D02*
D03*
Y-9090D02*
D03*
X18932Y-6660D02*
D03*
Y-9090D02*
D03*
X19247Y-6660D02*
D03*
Y-9090D02*
D03*
X19562Y-6660D02*
D03*
Y-9090D02*
D03*
X19877Y-6660D02*
D03*
Y-9090D02*
D03*
X20192Y-6660D02*
D03*
Y-9090D02*
D03*
X20507Y-6660D02*
D03*
Y-9090D02*
D03*
X20822Y-6660D02*
D03*
X21137D02*
D03*
Y-9090D02*
D03*
X21452Y-6660D02*
D03*
Y-9090D02*
D03*
X21767Y-6660D02*
D03*
Y-9090D02*
D03*
X22081Y-6660D02*
D03*
Y-9090D02*
D03*
X22396Y-6660D02*
D03*
Y-9090D02*
D03*
X22711Y-6660D02*
D03*
Y-9090D02*
D03*
X23026Y-6660D02*
D03*
Y-9090D02*
D03*
X23341Y-6660D02*
D03*
Y-9090D02*
D03*
X23656Y-6660D02*
D03*
Y-9090D02*
D03*
X23971Y-6660D02*
D03*
X24286D02*
D03*
Y-9090D02*
D03*
X24601Y-6660D02*
D03*
Y-9090D02*
D03*
X24916Y-6660D02*
D03*
Y-9090D02*
D03*
X25231Y-6660D02*
D03*
Y-9090D02*
D03*
X25546Y-6660D02*
D03*
Y-9090D02*
D03*
X25861Y-6660D02*
D03*
Y-9090D02*
D03*
X26176Y-6660D02*
D03*
Y-9090D02*
D03*
X26491Y-6660D02*
D03*
Y-9090D02*
D03*
X26806Y-6660D02*
D03*
Y-9090D02*
D03*
X27121Y-6660D02*
D03*
Y-9090D02*
D03*
X27436Y-6660D02*
D03*
X27751D02*
D03*
X15467Y9088D02*
D03*
X15782D02*
D03*
Y6658D02*
D03*
X16097Y9088D02*
D03*
Y6658D02*
D03*
X16412Y9088D02*
D03*
Y6658D02*
D03*
X16727D02*
D03*
X17042D02*
D03*
X17672Y9088D02*
D03*
Y6658D02*
D03*
X17987Y9088D02*
D03*
Y6658D02*
D03*
X18302Y9088D02*
D03*
Y6658D02*
D03*
X18617Y9088D02*
D03*
Y6658D02*
D03*
X18932Y9088D02*
D03*
Y6658D02*
D03*
X19247Y9088D02*
D03*
Y6658D02*
D03*
X19562Y9088D02*
D03*
Y6658D02*
D03*
X19877Y9088D02*
D03*
Y6658D02*
D03*
X20192Y9088D02*
D03*
Y6658D02*
D03*
X20507Y9088D02*
D03*
Y6658D02*
D03*
X20822D02*
D03*
X21137Y9088D02*
D03*
Y6658D02*
D03*
X21452Y9088D02*
D03*
Y6658D02*
D03*
X21767Y9088D02*
D03*
Y6658D02*
D03*
X22081Y9088D02*
D03*
Y6658D02*
D03*
X22396Y9088D02*
D03*
Y6658D02*
D03*
X22711Y9088D02*
D03*
Y6658D02*
D03*
X23026Y9088D02*
D03*
Y6658D02*
D03*
X23341Y9088D02*
D03*
Y6658D02*
D03*
X23656Y9088D02*
D03*
Y6658D02*
D03*
X23971D02*
D03*
X24286Y9088D02*
D03*
Y6658D02*
D03*
X24601Y9088D02*
D03*
Y6658D02*
D03*
X24916Y9088D02*
D03*
Y6658D02*
D03*
X25231Y9088D02*
D03*
Y6658D02*
D03*
X25546Y9088D02*
D03*
Y6658D02*
D03*
X25861Y9088D02*
D03*
Y6658D02*
D03*
X26176Y9088D02*
D03*
Y6658D02*
D03*
X26491Y9088D02*
D03*
Y6658D02*
D03*
X26806Y9088D02*
D03*
Y6658D02*
D03*
X27121Y9088D02*
D03*
Y6658D02*
D03*
X27436Y9088D02*
D03*
X27751D02*
D03*
D31*
X37055Y-27340D02*
D03*
X37645D02*
D03*
D32*
X34300Y-28251D02*
D03*
Y-28940D02*
D03*
D33*
X36583Y-28434D02*
D03*
X35717Y-28690D02*
D03*
Y-28434D02*
D03*
Y-28946D02*
D03*
X36583D02*
D03*
D34*
X24650Y29602D02*
D03*
X25650D02*
D03*
X23650D02*
D03*
X22650D02*
D03*
X25650Y26098D02*
D03*
X24650D02*
D03*
X23650D02*
D03*
X22650D02*
D03*
D35*
X10250Y25254D02*
D03*
Y24546D02*
D03*
D36*
X53450Y22406D02*
D03*
Y21894D02*
D03*
Y15406D02*
D03*
Y14894D02*
D03*
Y8406D02*
D03*
Y7894D02*
D03*
Y1406D02*
D03*
Y894D02*
D03*
Y-5594D02*
D03*
Y-6106D02*
D03*
Y-12594D02*
D03*
Y-13106D02*
D03*
Y-19594D02*
D03*
Y-20106D02*
D03*
Y-26594D02*
D03*
Y-27106D02*
D03*
Y20394D02*
D03*
Y20906D02*
D03*
Y13394D02*
D03*
Y13906D02*
D03*
Y6394D02*
D03*
Y6906D02*
D03*
Y-606D02*
D03*
Y-94D02*
D03*
Y-7606D02*
D03*
Y-7094D02*
D03*
Y-14606D02*
D03*
Y-14094D02*
D03*
Y-21606D02*
D03*
Y-21094D02*
D03*
Y-28606D02*
D03*
Y-28094D02*
D03*
D37*
X7000Y18000D02*
D03*
X8000D02*
D03*
Y17000D02*
D03*
X20000Y-30000D02*
D03*
X23000D02*
D03*
X24000D02*
D03*
X21000D02*
D03*
X22000D02*
D03*
X24000Y18000D02*
D03*
X6000Y17000D02*
D03*
X24000Y-20000D02*
D03*
X23000Y-21000D02*
D03*
X24000D02*
D03*
X23000Y-20000D02*
D03*
X20000Y-29000D02*
D03*
X23000D02*
D03*
X24000D02*
D03*
X21000D02*
D03*
X22000D02*
D03*
X5000Y-30000D02*
D03*
X6000Y-29000D02*
D03*
Y-30000D02*
D03*
X7000Y-29000D02*
D03*
Y-30000D02*
D03*
X8000Y-29000D02*
D03*
Y-30000D02*
D03*
X9000Y-29000D02*
D03*
Y-30000D02*
D03*
X10000Y-29000D02*
D03*
Y-30000D02*
D03*
X11000Y-29000D02*
D03*
Y-30000D02*
D03*
X12000Y-29000D02*
D03*
Y-30000D02*
D03*
X13000Y-29000D02*
D03*
Y-30000D02*
D03*
X14000Y-29000D02*
D03*
Y-30000D02*
D03*
X15000Y-29000D02*
D03*
Y-30000D02*
D03*
X16000Y-29000D02*
D03*
Y-30000D02*
D03*
X17000Y-29000D02*
D03*
Y-30000D02*
D03*
X18000Y-29000D02*
D03*
Y-30000D02*
D03*
X19000Y-29000D02*
D03*
Y-30000D02*
D03*
X5000Y-21000D02*
D03*
X6000Y-20000D02*
D03*
Y-21000D02*
D03*
X7000Y-20000D02*
D03*
Y-21000D02*
D03*
X8000Y-20000D02*
D03*
Y-21000D02*
D03*
X9000Y-20000D02*
D03*
Y-21000D02*
D03*
X10000Y-20000D02*
D03*
Y-21000D02*
D03*
X11000Y-20000D02*
D03*
Y-21000D02*
D03*
X12000Y-20000D02*
D03*
Y-21000D02*
D03*
X13000Y-20000D02*
D03*
Y-21000D02*
D03*
X14000Y-20000D02*
D03*
Y-21000D02*
D03*
X15000Y-20000D02*
D03*
Y-21000D02*
D03*
X16000Y-20000D02*
D03*
Y-21000D02*
D03*
X17000Y-20000D02*
D03*
Y-21000D02*
D03*
X18000Y-20000D02*
D03*
Y-21000D02*
D03*
X19000Y-20000D02*
D03*
Y-21000D02*
D03*
X20000Y-20000D02*
D03*
Y-21000D02*
D03*
X21000Y-20000D02*
D03*
Y-21000D02*
D03*
X22000Y-20000D02*
D03*
Y-21000D02*
D03*
X5000Y17000D02*
D03*
X6000Y18000D02*
D03*
X7000Y17000D02*
D03*
X9000Y18000D02*
D03*
Y17000D02*
D03*
X10000Y18000D02*
D03*
Y17000D02*
D03*
X11000Y18000D02*
D03*
Y17000D02*
D03*
X12000Y18000D02*
D03*
Y17000D02*
D03*
X13000Y18000D02*
D03*
Y17000D02*
D03*
X14000Y18000D02*
D03*
Y17000D02*
D03*
X15000Y18000D02*
D03*
Y17000D02*
D03*
X16000Y18000D02*
D03*
Y17000D02*
D03*
X17000Y18000D02*
D03*
Y17000D02*
D03*
X18000Y18000D02*
D03*
Y17000D02*
D03*
X19000Y18000D02*
D03*
Y17000D02*
D03*
X20000Y18000D02*
D03*
Y17000D02*
D03*
X21000Y18000D02*
D03*
Y17000D02*
D03*
X22000Y18000D02*
D03*
Y17000D02*
D03*
X23000Y18000D02*
D03*
Y17000D02*
D03*
X24000D02*
D03*
D38*
X59166Y22732D02*
D03*
Y26268D02*
D03*
Y19268D02*
D03*
Y15732D02*
D03*
Y12268D02*
D03*
X56824Y22874D02*
D03*
Y26126D02*
D03*
Y19126D02*
D03*
Y15874D02*
D03*
Y12126D02*
D03*
X59166Y8732D02*
D03*
Y5268D02*
D03*
Y1732D02*
D03*
Y-1732D02*
D03*
X56824Y8874D02*
D03*
Y1874D02*
D03*
Y-1874D02*
D03*
Y5126D02*
D03*
X59166Y-5268D02*
D03*
Y-8732D02*
D03*
Y-12268D02*
D03*
Y-15732D02*
D03*
X56824Y-5126D02*
D03*
Y-12126D02*
D03*
Y-15874D02*
D03*
Y-8874D02*
D03*
X59166Y-19268D02*
D03*
Y-22732D02*
D03*
Y-26268D02*
D03*
X56824Y-19126D02*
D03*
Y-22874D02*
D03*
Y-26126D02*
D03*
D39*
X3197Y24500D02*
D03*
X5559D02*
D03*
D40*
X40350Y-26940D02*
D03*
Y-27940D02*
D03*
D41*
X56332Y23083D02*
D03*
Y16083D02*
D03*
Y9083D02*
D03*
Y2083D02*
D03*
Y-4917D02*
D03*
Y-11917D02*
D03*
Y-18917D02*
D03*
Y-25917D02*
D03*
D42*
X56331Y25917D02*
D03*
Y18917D02*
D03*
Y11917D02*
D03*
Y4917D02*
D03*
Y-2083D02*
D03*
Y-9083D02*
D03*
Y-16083D02*
D03*
Y-23083D02*
D03*
D43*
X4378Y22650D02*
D03*
D44*
X14822Y-7075D02*
D03*
X28396D02*
D03*
X14822Y8673D02*
D03*
X28396D02*
D03*
D45*
X40350Y-28940D02*
D03*
D46*
X5000Y-29000D02*
D03*
Y-20000D02*
D03*
Y18000D02*
D03*
D47*
X57300Y30050D02*
D03*
X2500D02*
D03*
X3300Y8661D02*
D03*
X30465D02*
D03*
Y-8661D02*
D03*
X3300D02*
D03*
X57300Y-29950D02*
D03*
X2500D02*
D03*
M02*
