M48
;Layer_Color=9474304
;FILE_FORMAT=2:4
INCH,LZ
;TYPE=PLATED
T03F00S00C0.0217
;TYPE=NON_PLATED
T09F00S00C0.0344
%
G90
G05
T03
G00X056942Y-026126
M15
G01X056706
M16
G00X059284Y-026268
M15
G01X059048
M16
G00X059284Y-022732
M15
G01X059048
M16
G00X056942Y-022874
M15
G01X056706
M16
G00X056942Y-019126
M15
G01X056706
M16
G00X059284Y-019268
M15
G01X059048
M16
G00X059284Y-015732
M15
G01X059048
M16
G00X056942Y-015874
M15
G01X056706
M16
G00X056942Y-012126
M15
G01X056706
M16
G00X059284Y-012268
M15
G01X059048
M16
G00X059284Y-008732
M15
G01X059048
M16
G00X056942Y-008874
M15
G01X056706
M16
G00X056942Y-005126
M15
G01X056706
M16
G00X059284Y-005268
M15
G01X059048
M16
G00X059284Y-001732
M15
G01X059048
M16
G00X056942Y-001874
M15
G01X056706
M16
G00X056942Y001874
M15
G01X056706
M16
G00X059284Y001732
M15
G01X059048
M16
G00X059284Y005268
M15
G01X059048
M16
G00X056942Y005126
M15
G01X056706
M16
G00X056942Y008874
M15
G01X056706
M16
G00X059284Y008732
M15
G01X059048
M16
G00X059284Y012268
M15
G01X059048
M16
G00X056942Y012126
M15
G01X056706
M16
G00X056942Y015874
M15
G01X056706
M16
G00X059284Y015732
M15
G01X059048
M16
G00X059284Y019268
M15
G01X059048
M16
G00X056942Y019126
M15
G01X056706
M16
G00X056942Y022874
M15
G01X056706
M16
G00X059284Y022732
M15
G01X059048
M16
G00X059284Y026268
M15
G01X059048
M16
G00X056942Y026126
M15
G01X056706
M16
T09
G00X056331Y-023147
M15
G01Y-023019
M16
G00X056331Y-016147
M15
G01Y-016019
M16
G00X056331Y-009147
M15
G01Y-009019
M16
G00X056331Y-002147
M15
G01Y-002019
M16
G00X056331Y004853
M15
G01Y004981
M16
G00X056331Y011853
M15
G01Y011981
M16
G00X056331Y018853
M15
G01Y018981
M16
G00X056331Y025853
M15
G01Y025981
M16
M17
M30
