G04*
G04 #@! TF.GenerationSoftware,Altium Limited,Altium Designer,25.8.1 (18)*
G04*
G04 Layer_Physical_Order=6*
G04 Layer_Color=16711680*
%FSLAX24Y24*%
%MOIN*%
G70*
G04*
G04 #@! TF.SameCoordinates,0B069E76-09E9-47D6-99B5-871596FF3947*
G04*
G04*
G04 #@! TF.FilePolarity,Positive*
G04*
G01*
G75*
%ADD10C,0.0050*%
%ADD13C,0.0080*%
%ADD17R,0.0118X0.0472*%
%ADD18R,0.0866X0.1299*%
%ADD22C,0.0256*%
G04:AMPARAMS|DCode=23|XSize=35.4mil|YSize=59.1mil|CornerRadius=17.7mil|HoleSize=0mil|Usage=FLASHONLY|Rotation=0.000|XOffset=0mil|YOffset=0mil|HoleType=Round|Shape=RoundedRectangle|*
%AMROUNDEDRECTD23*
21,1,0.0354,0.0236,0,0,0.0*
21,1,0.0000,0.0591,0,0,0.0*
1,1,0.0354,0.0000,-0.0118*
1,1,0.0354,0.0000,-0.0118*
1,1,0.0354,0.0000,0.0118*
1,1,0.0354,0.0000,0.0118*
%
%ADD23ROUNDEDRECTD23*%
G04:AMPARAMS|DCode=24|XSize=37.4mil|YSize=25.6mil|CornerRadius=12.8mil|HoleSize=0mil|Usage=FLASHONLY|Rotation=0.000|XOffset=0mil|YOffset=0mil|HoleType=Round|Shape=RoundedRectangle|*
%AMROUNDEDRECTD24*
21,1,0.0374,0.0000,0,0,0.0*
21,1,0.0118,0.0256,0,0,0.0*
1,1,0.0256,0.0059,0.0000*
1,1,0.0256,-0.0059,0.0000*
1,1,0.0256,-0.0059,0.0000*
1,1,0.0256,0.0059,0.0000*
%
%ADD24ROUNDEDRECTD24*%
%ADD27C,0.0049*%
%ADD28C,0.0100*%
%ADD29C,0.1417*%
%ADD30C,0.0140*%
G36*
X5078Y102D02*
X-5078D01*
Y13458D01*
X5078D01*
Y102D01*
D02*
G37*
%LPC*%
G36*
X4601Y12577D02*
X3535D01*
Y11309D01*
X1965D01*
Y11689D01*
X2007Y11731D01*
X2033Y11794D01*
Y11861D01*
X2007Y11924D01*
X1959Y11972D01*
X1897Y11998D01*
X1829D01*
X1767Y11972D01*
X1719Y11924D01*
X1693Y11861D01*
Y11794D01*
X1719Y11731D01*
X1761Y11689D01*
Y11309D01*
X193D01*
Y11729D01*
X186Y11768D01*
X164Y11801D01*
X163Y11802D01*
Y11861D01*
X137Y11924D01*
X89Y11972D01*
X27Y11998D01*
X-41D01*
X-103Y11972D01*
X-151Y11924D01*
X-177Y11861D01*
Y11802D01*
X-177Y11801D01*
X-200Y11768D01*
X-207Y11729D01*
Y11309D01*
X-1775D01*
Y11689D01*
X-1733Y11731D01*
X-1707Y11794D01*
Y11861D01*
X-1733Y11924D01*
X-1781Y11972D01*
X-1843Y11998D01*
X-1911D01*
X-1973Y11972D01*
X-2021Y11924D01*
X-2047Y11861D01*
Y11794D01*
X-2021Y11731D01*
X-1979Y11689D01*
Y11309D01*
X-3549D01*
Y12577D01*
X-4615D01*
Y11078D01*
X-3611D01*
Y10637D01*
X-3528D01*
Y9458D01*
X-3522Y9429D01*
X-3506Y9404D01*
X-1695Y7592D01*
X-1670Y7576D01*
X-1640Y7570D01*
X-1025D01*
X-1017Y7550D01*
X-969Y7502D01*
X-907Y7477D01*
X-839D01*
X-777Y7502D01*
X-775Y7504D01*
X-696Y7473D01*
X-680Y7372D01*
X-859Y7193D01*
X-879Y7163D01*
X-886Y7128D01*
Y6926D01*
X-891Y6924D01*
X-938Y6876D01*
X-964Y6814D01*
Y6746D01*
X-938Y6684D01*
X-891Y6636D01*
X-828Y6610D01*
X-761D01*
X-698Y6636D01*
X-650Y6684D01*
X-624Y6746D01*
Y6814D01*
X-650Y6876D01*
X-698Y6924D01*
X-703Y6926D01*
Y7090D01*
X-553Y7240D01*
X949D01*
X1095Y7093D01*
Y6734D01*
X1091Y6732D01*
X1043Y6684D01*
X1017Y6622D01*
X965Y6548D01*
X903Y6522D01*
X879Y6498D01*
X855Y6522D01*
X793Y6548D01*
X791D01*
X775Y6554D01*
Y6622D01*
X749Y6684D01*
X702Y6732D01*
X639Y6758D01*
X571D01*
X509Y6732D01*
X485Y6708D01*
X462Y6732D01*
X399Y6758D01*
X382D01*
Y6814D01*
X356Y6876D01*
X308Y6924D01*
X245Y6950D01*
X178D01*
X115Y6924D01*
X92Y6900D01*
X68Y6924D01*
X5Y6950D01*
X-62D01*
X-125Y6924D01*
X-173Y6876D01*
X-198Y6814D01*
Y6746D01*
X-173Y6684D01*
X-125Y6636D01*
X-62Y6610D01*
X-42D01*
X-37Y6510D01*
X-718Y5830D01*
X-1490D01*
Y5858D01*
X-1516Y5921D01*
X-1564Y5968D01*
X-1626Y5994D01*
X-1694D01*
X-1756Y5968D01*
X-1804Y5921D01*
X-1830Y5858D01*
Y5790D01*
X-1804Y5728D01*
X-1780Y5704D01*
X-1804Y5681D01*
X-1830Y5618D01*
Y5550D01*
X-1804Y5488D01*
X-1756Y5440D01*
X-1694Y5414D01*
X-1626D01*
X-1564Y5440D01*
X-1516Y5488D01*
X-1490Y5550D01*
Y5579D01*
X-645D01*
X-616Y5585D01*
X-592Y5601D01*
X-528Y5664D01*
X-528Y5664D01*
X-370Y5823D01*
X-270Y5790D01*
X-244Y5728D01*
X-220Y5704D01*
X-244Y5681D01*
X-270Y5618D01*
Y5550D01*
X-300Y5505D01*
X-476D01*
X-505Y5499D01*
X-530Y5483D01*
X-1414Y4598D01*
X-1430Y4574D01*
X-1436Y4545D01*
Y4446D01*
X-1465D01*
X-1527Y4421D01*
X-1575Y4373D01*
X-1601Y4310D01*
Y4243D01*
X-1575Y4180D01*
X-1527Y4132D01*
X-1526Y4056D01*
X-1606Y3976D01*
X-1918D01*
X-1947Y3970D01*
X-1972Y3954D01*
X-2187Y3739D01*
X-2203Y3714D01*
X-2209Y3685D01*
Y2311D01*
X-2203Y2282D01*
X-2187Y2258D01*
X-1696Y1766D01*
X-1671Y1750D01*
X-1642Y1744D01*
X-1032D01*
X-964Y1646D01*
Y1579D01*
X-938Y1516D01*
X-915Y1493D01*
X-938Y1469D01*
X-964Y1406D01*
Y1339D01*
X-938Y1276D01*
X-891Y1228D01*
X-828Y1203D01*
X-761D01*
X-698Y1228D01*
X-650Y1276D01*
X-624Y1339D01*
Y1406D01*
X-650Y1469D01*
X-674Y1493D01*
X-650Y1516D01*
X-624Y1579D01*
Y1646D01*
X-557Y1744D01*
X590D01*
X619Y1750D01*
X644Y1766D01*
X814Y1937D01*
X831Y1962D01*
X837Y1991D01*
Y2304D01*
X912D01*
X996Y2338D01*
X1060Y2402D01*
X1095Y2486D01*
Y2577D01*
X1060Y2661D01*
X996Y2725D01*
X912Y2759D01*
X821D01*
X738Y2725D01*
X709Y2696D01*
X681Y2725D01*
X618Y2751D01*
X622Y2762D01*
Y2852D01*
X587Y2936D01*
X523Y3000D01*
X440Y3035D01*
X349D01*
X265Y3000D01*
X237Y2972D01*
X208Y3000D01*
X125Y3035D01*
X34D01*
X-50Y3000D01*
X-78Y2972D01*
X-107Y3000D01*
X-190Y3035D01*
X-281D01*
X-365Y3000D01*
X-393Y2972D01*
X-421Y3000D01*
X-505Y3035D01*
X-596D01*
X-680Y3000D01*
X-744Y2936D01*
X-779Y2852D01*
Y2762D01*
X-774Y2751D01*
X-837Y2725D01*
X-866Y2696D01*
X-894Y2725D01*
X-978Y2759D01*
X-1068D01*
X-1152Y2725D01*
X-1216Y2661D01*
X-1251Y2577D01*
Y2486D01*
X-1216Y2402D01*
X-1152Y2338D01*
X-1068Y2304D01*
X-978D01*
X-894Y2338D01*
X-866Y2367D01*
X-837Y2338D01*
X-753Y2304D01*
X-663D01*
X-579Y2338D01*
X-551Y2367D01*
X-522Y2338D01*
X-438Y2304D01*
X-348D01*
X-264Y2338D01*
X-200Y2402D01*
X-165Y2486D01*
Y2577D01*
X-170Y2588D01*
X-107Y2614D01*
X-78Y2642D01*
X-50Y2614D01*
X13Y2588D01*
X9Y2577D01*
Y2486D01*
X44Y2402D01*
X108Y2338D01*
X191Y2304D01*
X282D01*
X366Y2338D01*
X394Y2367D01*
X423Y2338D01*
X506Y2304D01*
X586D01*
Y2063D01*
X518Y1995D01*
X-1569D01*
X-1958Y2384D01*
Y3612D01*
X-1846Y3725D01*
X-1501D01*
X-1472Y3731D01*
X-1447Y3747D01*
X-1208Y3987D01*
X-1191Y4011D01*
X-1185Y4040D01*
X-1157Y4106D01*
X-1094Y4132D01*
X-1047Y4180D01*
X-1021Y4243D01*
Y4310D01*
X-1047Y4373D01*
X-1094Y4421D01*
X-1095Y4421D01*
X-1119Y4539D01*
X-403Y5254D01*
X568D01*
X597Y5260D01*
X622Y5276D01*
X982Y5637D01*
X999Y5662D01*
X1004Y5691D01*
Y6208D01*
X1033D01*
X1095Y6234D01*
X1143Y6282D01*
X1169Y6344D01*
X1221Y6418D01*
X1283Y6444D01*
X1331Y6492D01*
X1357Y6554D01*
Y6622D01*
X1331Y6684D01*
X1283Y6732D01*
X1279Y6734D01*
Y7132D01*
X1272Y7167D01*
X1252Y7196D01*
X1052Y7396D01*
X1036Y7407D01*
X1010Y7501D01*
X1008Y7515D01*
X1056Y7570D01*
X1490D01*
X1519Y7576D01*
X1544Y7592D01*
X1845Y7893D01*
X1879Y7891D01*
X1955Y7862D01*
X1971Y7824D01*
X2019Y7776D01*
X2081Y7750D01*
X2149D01*
X2211Y7776D01*
X2259Y7824D01*
X2285Y7886D01*
Y7954D01*
X2277Y7974D01*
X3492Y9189D01*
X3509Y9214D01*
X3514Y9243D01*
X3514Y9243D01*
Y10637D01*
X3597D01*
Y11078D01*
X4601D01*
Y12577D01*
D02*
G37*
G36*
X1279Y4446D02*
X1211D01*
X1148Y4421D01*
X1125Y4397D01*
X1101Y4421D01*
X1039Y4446D01*
X971D01*
X908Y4421D01*
X861Y4373D01*
X835Y4310D01*
Y4243D01*
X861Y4180D01*
X908Y4132D01*
X971Y4106D01*
X1039D01*
X1101Y4132D01*
X1125Y4156D01*
X1148Y4132D01*
X1211Y4106D01*
X1279D01*
X1341Y4132D01*
X1389Y4180D01*
X1415Y4243D01*
Y4310D01*
X1389Y4373D01*
X1341Y4421D01*
X1279Y4446D01*
D02*
G37*
G36*
X511D02*
X443D01*
X381Y4421D01*
X357Y4397D01*
X334Y4421D01*
X271Y4446D01*
X203D01*
X141Y4421D01*
X93Y4373D01*
X67Y4310D01*
Y4243D01*
X93Y4180D01*
X141Y4132D01*
X203Y4106D01*
X271D01*
X334Y4132D01*
X357Y4156D01*
X381Y4132D01*
X443Y4106D01*
X511D01*
X574Y4132D01*
X621Y4180D01*
X647Y4243D01*
Y4310D01*
X621Y4373D01*
X574Y4421D01*
X511Y4446D01*
D02*
G37*
G36*
X-347D02*
X-415D01*
X-477Y4421D01*
X-501Y4397D01*
X-525Y4421D01*
X-587Y4446D01*
X-655D01*
X-717Y4421D01*
X-765Y4373D01*
X-791Y4310D01*
Y4243D01*
X-765Y4180D01*
X-717Y4132D01*
X-655Y4106D01*
X-587D01*
X-525Y4132D01*
X-501Y4156D01*
X-477Y4132D01*
X-415Y4106D01*
X-347D01*
X-285Y4132D01*
X-237Y4180D01*
X-211Y4243D01*
Y4310D01*
X-237Y4373D01*
X-285Y4421D01*
X-347Y4446D01*
D02*
G37*
G36*
X-2040Y4579D02*
X-2108D01*
X-2170Y4553D01*
X-2218Y4505D01*
X-2244Y4442D01*
Y4375D01*
X-2218Y4312D01*
X-2170Y4264D01*
X-2108Y4239D01*
X-2040D01*
X-1978Y4264D01*
X-1930Y4312D01*
X-1904Y4375D01*
Y4442D01*
X-1930Y4505D01*
X-1978Y4553D01*
X-2040Y4579D01*
D02*
G37*
G36*
X-1450Y3291D02*
X-1541D01*
X-1625Y3256D01*
X-1689Y3192D01*
X-1723Y3108D01*
Y3018D01*
X-1689Y2934D01*
X-1625Y2870D01*
X-1541Y2835D01*
X-1450D01*
X-1366Y2870D01*
X-1302Y2934D01*
X-1268Y3018D01*
Y3108D01*
X-1302Y3192D01*
X-1366Y3256D01*
X-1450Y3291D01*
D02*
G37*
G36*
X1398Y3295D02*
X1280D01*
X1191Y3278D01*
X1116Y3227D01*
X1065Y3152D01*
X1048Y3063D01*
X1065Y2974D01*
X1116Y2899D01*
X1191Y2848D01*
X1280Y2831D01*
X1398D01*
X1487Y2848D01*
X1563Y2899D01*
X1613Y2974D01*
X1631Y3063D01*
X1613Y3152D01*
X1563Y3227D01*
X1487Y3278D01*
X1398Y3295D01*
D02*
G37*
G36*
X3820Y3919D02*
X3661D01*
X3504Y3888D01*
X3357Y3827D01*
X3225Y3738D01*
X3112Y3626D01*
X3024Y3493D01*
X2963Y3346D01*
X2932Y3190D01*
Y3031D01*
X2963Y2874D01*
X3024Y2727D01*
X3112Y2595D01*
X3225Y2482D01*
X3357Y2394D01*
X3504Y2333D01*
X3661Y2302D01*
X3820D01*
X3976Y2333D01*
X4123Y2394D01*
X4256Y2482D01*
X4368Y2595D01*
X4457Y2727D01*
X4518Y2874D01*
X4549Y3031D01*
Y3190D01*
X4518Y3346D01*
X4457Y3493D01*
X4368Y3626D01*
X4256Y3738D01*
X4123Y3827D01*
X3976Y3888D01*
X3820Y3919D01*
D02*
G37*
G36*
X-3661D02*
X-3820D01*
X-3976Y3888D01*
X-4123Y3827D01*
X-4256Y3738D01*
X-4368Y3626D01*
X-4457Y3493D01*
X-4518Y3346D01*
X-4549Y3190D01*
Y3031D01*
X-4518Y2874D01*
X-4457Y2727D01*
X-4368Y2595D01*
X-4256Y2482D01*
X-4123Y2394D01*
X-3976Y2333D01*
X-3820Y2302D01*
X-3661D01*
X-3504Y2333D01*
X-3357Y2394D01*
X-3225Y2482D01*
X-3112Y2595D01*
X-3024Y2727D01*
X-2963Y2874D01*
X-2932Y3031D01*
Y3190D01*
X-2963Y3346D01*
X-3024Y3493D01*
X-3112Y3626D01*
X-3225Y3738D01*
X-3357Y3827D01*
X-3504Y3888D01*
X-3661Y3919D01*
D02*
G37*
%LPD*%
D10*
X983Y8421D02*
X1094D01*
X702Y8276D02*
X838D01*
X983Y8421D01*
X501Y8340D02*
X693Y8531D01*
X430Y8196D02*
X501Y8267D01*
Y8340D01*
X693Y8531D02*
Y8952D01*
X430Y8170D02*
Y8196D01*
X593Y8605D02*
Y9095D01*
X493Y8505D02*
Y8505D01*
X286Y8297D02*
X493Y8505D01*
X286Y8185D02*
Y8297D01*
X493Y8505D02*
X593Y8605D01*
X492Y8648D02*
Y9232D01*
X141Y8296D02*
X492Y8648D01*
X141Y8296D02*
X141D01*
X141Y8040D02*
X286Y8185D01*
X555Y8091D02*
X734D01*
X347Y7883D02*
X555Y8091D01*
X-302Y9832D02*
X-7Y9536D01*
Y7804D02*
Y9536D01*
X-707Y8531D02*
X-444Y8268D01*
Y8195D02*
Y8268D01*
Y8170D02*
Y8195D01*
X-707Y8531D02*
Y8905D01*
X-299Y8185D02*
Y8235D01*
Y8185D02*
X-155Y8041D01*
X-606Y8606D02*
Y8607D01*
X-607Y8607D02*
Y9016D01*
X-300Y8236D02*
Y8300D01*
X-606Y8606D02*
X-300Y8300D01*
Y8236D02*
X-299Y8235D01*
X-607Y8607D02*
X-606Y8607D01*
X-569Y8091D02*
X-361Y7883D01*
X-748Y8091D02*
X-569D01*
X-893Y9763D02*
X-404Y9275D01*
Y8802D02*
X-155Y8552D01*
X-404Y8802D02*
Y9275D01*
X-696Y9803D02*
X-301Y9408D01*
Y8954D02*
X-155Y8808D01*
X-301Y8954D02*
Y9408D01*
X-506Y8648D02*
Y9149D01*
X-1090Y9732D02*
X-506Y9149D01*
Y8648D02*
X-155Y8296D01*
X3438Y9243D02*
Y10973D01*
X2115Y7920D02*
X3438Y9243D01*
X-1286Y9696D02*
Y10973D01*
Y9696D02*
X-607Y9016D01*
X-1090Y9732D02*
Y10973D01*
X-893Y9763D02*
Y10973D01*
X2257Y9585D02*
Y10973D01*
X1094Y8421D02*
X2257Y9585D01*
X980Y8526D02*
X2060Y9606D01*
X853Y8526D02*
X980D01*
X2060Y9606D02*
Y10973D01*
X899Y8749D02*
X1018D01*
X1666Y9397D02*
Y10973D01*
X1018Y8749D02*
X1666Y9397D01*
X292Y9707D02*
Y10969D01*
X141Y9064D02*
Y9555D01*
X292Y9707D01*
X485Y9677D02*
Y10973D01*
X292Y8960D02*
Y9484D01*
X485Y9677D01*
X392Y9347D02*
X682Y9637D01*
Y10973D01*
X392Y8804D02*
Y9347D01*
X492Y9232D02*
X879Y9619D01*
Y10973D01*
X1076Y9578D02*
Y10973D01*
X593Y9095D02*
X1076Y9578D01*
X693Y8952D02*
X1273Y9532D01*
Y10973D01*
X1036Y9005D02*
X1469Y9438D01*
Y10973D01*
X-1200Y8421D02*
X-1004D01*
X-859Y8276D02*
X-716D01*
X-1004Y8421D02*
X-859Y8276D01*
X-2271Y9705D02*
X-1103Y8537D01*
X-878D01*
X-853Y8513D01*
X-2271Y9705D02*
Y10973D01*
X-2468Y9689D02*
Y10973D01*
Y9689D02*
X-1200Y8421D01*
X-1292Y8276D02*
X-1090D01*
X-2664Y9649D02*
Y10973D01*
Y9649D02*
X-1292Y8276D01*
X859Y7647D02*
X1490D01*
X3241Y9398D02*
Y10973D01*
X1490Y7647D02*
X3241Y9398D01*
X1418Y7804D02*
X3044Y9430D01*
X737Y7804D02*
X1418D01*
X3044Y9430D02*
Y10973D01*
X674Y7946D02*
X1335D01*
X2847Y9459D01*
Y10973D01*
X734Y8091D02*
X1228D01*
X2651Y9513D02*
Y10973D01*
X1228Y8091D02*
X2651Y9513D01*
X-1328Y8091D02*
X-748D01*
X-2861Y9624D02*
X-1328Y8091D01*
X734D02*
X734Y8091D01*
X2454Y9554D02*
Y10973D01*
X1176Y8276D02*
X2454Y9554D01*
X288Y10973D02*
X292Y10969D01*
X1076Y8276D02*
X1176D01*
X580Y7647D02*
X737Y7804D01*
X141Y8808D02*
X292Y8960D01*
X141Y8552D02*
X392Y8804D01*
X-302Y9832D02*
Y10973D01*
X-1483Y9682D02*
X-707Y8905D01*
X-696Y9803D02*
Y10973D01*
X-499Y9802D02*
Y10973D01*
Y9802D02*
X-155Y9458D01*
Y9064D02*
Y9458D01*
X-1483Y9682D02*
Y10973D01*
X-1680Y9635D02*
X-1050Y9005D01*
X-3452Y9458D02*
X-1640Y7647D01*
X-873D01*
X-3452Y9458D02*
Y10973D01*
X-3255Y9507D02*
Y10973D01*
Y9507D02*
X-1552Y7804D01*
X-751D01*
X-3058Y9562D02*
Y10973D01*
Y9562D02*
X-1442Y7946D01*
X-688D01*
X-1680Y9635D02*
Y10973D01*
X-2074Y9756D02*
Y10973D01*
Y9756D02*
X-1067Y8749D01*
X-912D01*
X-2861Y9624D02*
Y10973D01*
X-751Y7804D02*
X-594Y7647D01*
D13*
X-794Y6780D02*
Y7128D01*
X1187Y6588D02*
Y7132D01*
X987Y7332D02*
X1187Y7132D01*
X-591Y7332D02*
X987D01*
X-794Y7128D02*
X-591Y7332D01*
D17*
X-3452Y10973D02*
D03*
X-3255D02*
D03*
X-3058D02*
D03*
X-2861D02*
D03*
X-2664D02*
D03*
X-2468D02*
D03*
X-2271D02*
D03*
X-2074D02*
D03*
X-1877D02*
D03*
X-1680D02*
D03*
X-1483D02*
D03*
X-1286D02*
D03*
X-1090D02*
D03*
X-893D02*
D03*
X-696D02*
D03*
X-499D02*
D03*
X-302D02*
D03*
X-105D02*
D03*
X92D02*
D03*
X288D02*
D03*
X485D02*
D03*
X682D02*
D03*
X879D02*
D03*
X1076D02*
D03*
X1273D02*
D03*
X1469D02*
D03*
X1666D02*
D03*
X1863D02*
D03*
X2060D02*
D03*
X2257D02*
D03*
X2454D02*
D03*
X2651D02*
D03*
X2847D02*
D03*
X3044D02*
D03*
X3241D02*
D03*
X3438D02*
D03*
D18*
X-4082Y11828D02*
D03*
X4068D02*
D03*
D22*
X237Y2531D02*
D03*
X552D02*
D03*
X867D02*
D03*
X-1023D02*
D03*
X-708D02*
D03*
X-393D02*
D03*
X-551Y2807D02*
D03*
X-236D02*
D03*
X79D02*
D03*
X394D02*
D03*
X-1181D02*
D03*
X1024D02*
D03*
X-1496Y3063D02*
D03*
D23*
X1690Y843D02*
D03*
X-1846D02*
D03*
X1548Y2571D02*
D03*
X-1704D02*
D03*
D24*
X1339Y3063D02*
D03*
D27*
X-476Y5429D02*
X527D01*
X-435Y5330D02*
X568D01*
X-1360Y4545D02*
X-476Y5429D01*
X-1360Y4347D02*
Y4545D01*
X-1261Y4347D02*
Y4504D01*
X-435Y5330D01*
X568D02*
X928Y5691D01*
Y6307D01*
X999Y6378D01*
X527Y5429D02*
X829Y5732D01*
Y6307D01*
X759Y6378D02*
X829Y6307D01*
X-1431Y4276D02*
X-1360Y4347D01*
X-1261D02*
X-1191Y4276D01*
X-100Y5584D02*
X-30Y5655D01*
X200D01*
X535Y5989D01*
Y6518D01*
X605Y6588D01*
X-100Y5824D02*
X-30Y5754D01*
X159D01*
X436Y6030D01*
Y6518D01*
X365Y6588D02*
X436Y6518D01*
X-666Y5774D02*
X42Y6482D01*
Y6709D01*
X-28Y6780D02*
X42Y6709D01*
X-582Y5718D02*
X141Y6441D01*
Y6709D01*
X212Y6780D01*
X-582Y5718D02*
X-582D01*
X-645Y5655D02*
X-582Y5718D01*
X-1590Y5655D02*
X-645D01*
X-1590Y5754D02*
X-686D01*
X-1660Y5584D02*
X-1590Y5655D01*
X-1660Y5824D02*
X-1590Y5754D01*
X-2133Y2311D02*
Y3685D01*
X-1918Y3900D01*
X-1542D01*
X-1360Y4081D01*
Y4206D01*
X-1431Y4276D02*
X-1360Y4206D01*
X-2034Y2352D02*
Y3644D01*
X-1877Y3801D01*
X-1501D01*
X-1261Y4040D01*
Y4206D01*
X-1191Y4276D01*
X662Y2032D02*
Y2422D01*
X549Y1919D02*
X662Y2032D01*
X552Y2531D02*
X662Y2422D01*
X-1601Y1919D02*
X549D01*
X-2034Y2352D02*
X-1601Y1919D01*
X761Y2425D02*
X867Y2531D01*
X590Y1820D02*
X761Y1991D01*
Y2425D01*
X-1642Y1820D02*
X590D01*
X-2133Y2311D02*
X-1642Y1820D01*
D28*
X-7Y11828D02*
X92Y11729D01*
X-105D02*
X-7Y11828D01*
X-105Y10973D02*
Y11729D01*
X1863Y10973D02*
Y11828D01*
X92Y10973D02*
Y11729D01*
X-1877Y10973D02*
Y11828D01*
D29*
X3740Y3110D02*
D03*
X-3740D02*
D03*
D30*
X580Y7647D02*
D03*
X859D02*
D03*
X702Y8276D02*
D03*
X-3294Y6489D02*
D03*
X249Y7588D02*
D03*
X-263Y7587D02*
D03*
X141Y8296D02*
D03*
X430Y8170D02*
D03*
X-155Y8296D02*
D03*
X-444Y8170D02*
D03*
X2115Y7920D02*
D03*
X-853Y8513D02*
D03*
X-716Y8276D02*
D03*
X141Y9064D02*
D03*
Y8552D02*
D03*
Y8808D02*
D03*
X347Y7883D02*
D03*
X141Y8040D02*
D03*
X1036Y9005D02*
D03*
X674Y7946D02*
D03*
X840Y8513D02*
D03*
X899Y8749D02*
D03*
X1076Y8276D02*
D03*
X-594Y7647D02*
D03*
X-1090Y8276D02*
D03*
X-912Y8749D02*
D03*
X-688Y7946D02*
D03*
X-1050Y9005D02*
D03*
X-7Y7804D02*
D03*
X-155Y8040D02*
D03*
X-873Y7647D02*
D03*
X-361Y7883D02*
D03*
X-155Y8808D02*
D03*
Y8552D02*
D03*
Y9064D02*
D03*
X-794Y6780D02*
D03*
X999Y6378D02*
D03*
X759D02*
D03*
X605Y6588D02*
D03*
X365D02*
D03*
X212Y6780D02*
D03*
X-28D02*
D03*
X-100Y5584D02*
D03*
Y5824D02*
D03*
X-1431Y4276D02*
D03*
X-1191D02*
D03*
X-1704Y4081D02*
D03*
X477Y4276D02*
D03*
X237D02*
D03*
X-794Y1612D02*
D03*
Y1373D02*
D03*
X1005Y4276D02*
D03*
X1245D02*
D03*
X-1660Y5584D02*
D03*
Y5824D02*
D03*
X-381Y4276D02*
D03*
X-621D02*
D03*
X1863Y11828D02*
D03*
X-7D02*
D03*
X-1877D02*
D03*
X3290Y4276D02*
D03*
X-3294D02*
D03*
X-3108Y12600D02*
D03*
X-1036D02*
D03*
X1036D02*
D03*
X3108D02*
D03*
X4475Y5383D02*
D03*
X3290Y2061D02*
D03*
X4475Y954D02*
D03*
X-4475D02*
D03*
X-3294Y2061D02*
D03*
X-4475Y5383D02*
D03*
X4475Y7597D02*
D03*
Y9812D02*
D03*
X-4475Y7597D02*
D03*
Y9812D02*
D03*
X-2074Y4409D02*
D03*
X1955Y7332D02*
D03*
X3575Y7132D02*
D03*
X2710Y5585D02*
D03*
X1187Y6588D02*
D03*
X1538Y4081D02*
D03*
X-96D02*
D03*
X695D02*
D03*
X-915D02*
D03*
M02*
