G04*
G04 #@! TF.GenerationSoftware,Altium Limited,Altium Designer,25.8.1 (18)*
G04*
G04 Layer_Color=2752767*
%FSLAX24Y24*%
%MOIN*%
G70*
G04*
G04 #@! TF.SameCoordinates,04ACC03A-76E5-46F2-98FA-C5824AA884AC*
G04*
G04*
G04 #@! TF.FilePolarity,Positive*
G04*
G01*
G75*
%ADD44C,0.0020*%
%ADD45C,0.0027*%
D44*
X3670Y1420D02*
X3710Y1500D01*
X3670Y1580D01*
X3750Y1540D01*
X3830Y1580D01*
X3790Y1500D01*
X3830Y1420D01*
X3750Y1460D01*
X3670Y1420D01*
X-3830D02*
X-3790Y1500D01*
X-3830Y1580D01*
X-3750Y1540D01*
X-3670Y1580D01*
X-3710Y1500D01*
X-3670Y1420D01*
X-3750Y1460D01*
X-3830Y1420D01*
X-1417Y2994D02*
X-1377Y3034D01*
X-1337D01*
X-1377Y3074D01*
X-1337Y3114D01*
X-1377D01*
X-1417Y3154D01*
X-1457Y3114D01*
X-1497D01*
X-1457Y3074D01*
X-1497Y3034D01*
X-1457D01*
X-1417Y2994D01*
X1417D02*
X1337Y3154D01*
X1497D01*
X1417Y2994D01*
X1022Y2738D02*
Y2898D01*
X1182D01*
Y2738D01*
X1022D01*
X865Y2462D02*
Y2622D01*
X1025D01*
Y2462D01*
X865D01*
X550D02*
Y2622D01*
X710D01*
Y2462D01*
X550D01*
X235D02*
Y2622D01*
X395D01*
Y2462D01*
X235D01*
X392Y2738D02*
Y2898D01*
X552D01*
Y2738D01*
X392D01*
X77D02*
Y2898D01*
X237D01*
Y2738D01*
X77D01*
X-237D02*
Y2898D01*
X-77D01*
Y2738D01*
X-237D01*
X-395Y2462D02*
Y2622D01*
X-235D01*
Y2462D01*
X-395D01*
X-552Y2738D02*
Y2898D01*
X-392D01*
Y2738D01*
X-552D01*
X-710Y2462D02*
Y2622D01*
X-550D01*
Y2462D01*
X-710D01*
X-1025D02*
Y2622D01*
X-865D01*
Y2462D01*
X-1025D01*
X-1182Y2738D02*
Y2898D01*
X-1022D01*
Y2738D01*
X-1182D01*
X-1910Y11485D02*
Y11445D01*
X-1830D01*
Y11485D01*
X-1790D01*
Y11565D01*
X-1830D01*
Y11605D01*
X-1910D01*
Y11565D01*
X-1950D01*
Y11485D01*
X-1910D01*
X1830D02*
Y11445D01*
X1910D01*
Y11485D01*
X1950D01*
Y11565D01*
X1910D01*
Y11605D01*
X1830D01*
Y11565D01*
X1790D01*
Y11485D01*
X1830D01*
X2814Y7468D02*
Y7428D01*
X2894D01*
Y7468D01*
X2934D01*
Y7548D01*
X2894D01*
Y7588D01*
X2814D01*
Y7548D01*
X2774D01*
Y7468D01*
X2814D01*
X-40Y11485D02*
Y11445D01*
X40D01*
Y11485D01*
X80D01*
Y11565D01*
X40D01*
Y11605D01*
X-40D01*
Y11565D01*
X-80D01*
Y11485D01*
X-40D01*
X-2796Y7468D02*
Y7428D01*
X-2716D01*
Y7468D01*
X-2676D01*
Y7548D01*
X-2716D01*
Y7588D01*
X-2796D01*
Y7548D01*
X-2836D01*
Y7468D01*
X-2796D01*
X-2491Y6147D02*
Y6107D01*
X-2411D01*
Y6147D01*
X-2371D01*
Y6227D01*
X-2411D01*
Y6267D01*
X-2491D01*
Y6227D01*
X-2531D01*
Y6147D01*
X-2491D01*
X905Y4710D02*
Y4670D01*
X985D01*
Y4710D01*
X1025D01*
Y4791D01*
X985D01*
Y4830D01*
X905D01*
Y4791D01*
X865D01*
Y4710D01*
X905D01*
X-4270Y5213D02*
Y5173D01*
X-4190D01*
Y5213D01*
X-4150D01*
Y5293D01*
X-4190D01*
Y5333D01*
X-4270D01*
Y5293D01*
X-4310D01*
Y5213D01*
X-4270D01*
X4500Y9751D02*
Y9711D01*
X4580D01*
Y9751D01*
X4620D01*
Y9831D01*
X4580D01*
Y9871D01*
X4500D01*
Y9831D01*
X4460D01*
Y9751D01*
X4500D01*
Y7862D02*
Y7822D01*
X4580D01*
Y7862D01*
X4620D01*
Y7942D01*
X4580D01*
Y7982D01*
X4500D01*
Y7942D01*
X4460D01*
Y7862D01*
X4500D01*
Y5254D02*
Y5214D01*
X4580D01*
Y5254D01*
X4620D01*
Y5334D01*
X4580D01*
Y5374D01*
X4500D01*
Y5334D01*
X4460D01*
Y5254D01*
X4500D01*
Y3500D02*
Y3460D01*
X4580D01*
Y3500D01*
X4620D01*
Y3580D01*
X4580D01*
Y3620D01*
X4500D01*
Y3580D01*
X4460D01*
Y3500D01*
X4500D01*
X2415Y2502D02*
Y2462D01*
X2495D01*
Y2502D01*
X2535D01*
Y2582D01*
X2495D01*
Y2622D01*
X2415D01*
Y2582D01*
X2375D01*
Y2502D01*
X2415D01*
Y4191D02*
Y4150D01*
X2495D01*
Y4191D01*
X2535D01*
Y4270D01*
X2495D01*
Y4311D01*
X2415D01*
Y4270D01*
X2375D01*
Y4191D01*
X2415D01*
X-1320Y5160D02*
Y5120D01*
X-1240D01*
Y5160D01*
X-1200D01*
Y5240D01*
X-1240D01*
Y5280D01*
X-1320D01*
Y5240D01*
X-1360D01*
Y5160D01*
X-1320D01*
X-3012Y3980D02*
Y3940D01*
X-2932D01*
Y3980D01*
X-2892D01*
Y4060D01*
X-2932D01*
Y4100D01*
X-3012D01*
Y4060D01*
X-3052D01*
Y3980D01*
X-3012D01*
X-4510Y3034D02*
Y2994D01*
X-4430D01*
Y3034D01*
X-4390D01*
Y3114D01*
X-4430D01*
Y3154D01*
X-4510D01*
Y3114D01*
X-4550D01*
Y3034D01*
X-4510D01*
X-2796Y2778D02*
Y2738D01*
X-2716D01*
Y2778D01*
X-2676D01*
Y2858D01*
X-2716D01*
Y2898D01*
X-2796D01*
Y2858D01*
X-2836D01*
Y2778D01*
X-2796D01*
X-4200Y8350D02*
Y8310D01*
X-4120D01*
Y8350D01*
X-4080D01*
Y8430D01*
X-4120D01*
Y8470D01*
X-4200D01*
Y8430D01*
X-4240D01*
Y8350D01*
X-4200D01*
Y9933D02*
Y9893D01*
X-4120D01*
Y9933D01*
X-4080D01*
Y10013D01*
X-4120D01*
Y10053D01*
X-4200D01*
Y10013D01*
X-4240D01*
Y9933D01*
X-4200D01*
Y6877D02*
Y6837D01*
X-4120D01*
Y6877D01*
X-4080D01*
Y6957D01*
X-4120D01*
Y6997D01*
X-4200D01*
Y6957D01*
X-4240D01*
Y6877D01*
X-4200D01*
X-2501Y7271D02*
Y7231D01*
X-2421D01*
Y7271D01*
X-2381D01*
Y7351D01*
X-2421D01*
Y7391D01*
X-2501D01*
Y7351D01*
X-2541D01*
Y7271D01*
X-2501D01*
Y6680D02*
Y6640D01*
X-2421D01*
Y6680D01*
X-2381D01*
Y6760D01*
X-2421D01*
Y6800D01*
X-2501D01*
Y6760D01*
X-2541D01*
Y6680D01*
X-2501D01*
X3710Y4504D02*
Y4464D01*
X3790D01*
Y4504D01*
X3830D01*
Y4584D01*
X3790D01*
Y4624D01*
X3710D01*
Y4584D01*
X3670D01*
Y4504D01*
X3710D01*
X2224Y6680D02*
Y6640D01*
X2304D01*
Y6680D01*
X2344D01*
Y6760D01*
X2304D01*
Y6800D01*
X2224D01*
Y6760D01*
X2184D01*
Y6680D01*
X2224D01*
X2421Y6883D02*
Y6843D01*
X2501D01*
Y6883D01*
X2541D01*
Y6963D01*
X2501D01*
Y7003D01*
X2421D01*
Y6963D01*
X2381D01*
Y6883D01*
X2421D01*
X-2220D02*
Y6843D01*
X-2140D01*
Y6883D01*
X-2100D01*
Y6963D01*
X-2140D01*
Y7003D01*
X-2220D01*
Y6963D01*
X-2260D01*
Y6883D01*
X-2220D01*
X2421Y7271D02*
Y7231D01*
X2501D01*
Y7271D01*
X2541D01*
Y7351D01*
X2501D01*
Y7391D01*
X2421D01*
Y7351D01*
X2381D01*
Y7271D01*
X2421D01*
X3360D02*
Y7231D01*
X3440D01*
Y7271D01*
X3480D01*
Y7351D01*
X3440D01*
Y7391D01*
X3360D01*
Y7351D01*
X3320D01*
Y7271D01*
X3360D01*
X2860Y5160D02*
Y5120D01*
X2940D01*
Y5160D01*
X2980D01*
Y5240D01*
X2940D01*
Y5280D01*
X2860D01*
Y5240D01*
X2820D01*
Y5160D01*
X2860D01*
X1754Y4504D02*
Y4464D01*
X1834D01*
Y4504D01*
X1874D01*
Y4584D01*
X1834D01*
Y4624D01*
X1754D01*
Y4584D01*
X1714D01*
Y4504D01*
X1754D01*
X-4270Y4880D02*
Y4840D01*
X-4190D01*
Y4880D01*
X-4150D01*
Y4960D01*
X-4190D01*
Y5000D01*
X-4270D01*
Y4960D01*
X-4310D01*
Y4880D01*
X-4270D01*
Y4640D02*
Y4600D01*
X-4190D01*
Y4640D01*
X-4150D01*
Y4720D01*
X-4190D01*
Y4760D01*
X-4270D01*
Y4720D01*
X-4310D01*
Y4640D01*
X-4270D01*
X-2420Y4880D02*
Y4840D01*
X-2340D01*
Y4880D01*
X-2300D01*
Y4960D01*
X-2340D01*
Y5000D01*
X-2420D01*
Y4960D01*
X-2460D01*
Y4880D01*
X-2420D01*
Y4640D02*
Y4600D01*
X-2340D01*
Y4640D01*
X-2300D01*
Y4720D01*
X-2340D01*
Y4760D01*
X-2420D01*
Y4720D01*
X-2460D01*
Y4640D01*
X-2420D01*
X-532Y4880D02*
Y4840D01*
X-452D01*
Y4880D01*
X-412D01*
Y4960D01*
X-452D01*
Y5000D01*
X-532D01*
Y4960D01*
X-572D01*
Y4880D01*
X-532D01*
Y4640D02*
Y4600D01*
X-452D01*
Y4640D01*
X-412D01*
Y4720D01*
X-452D01*
Y4760D01*
X-532D01*
Y4720D01*
X-572D01*
Y4640D01*
X-532D01*
X1320Y4120D02*
Y4080D01*
X1400D01*
Y4120D01*
X1440D01*
Y4200D01*
X1400D01*
Y4240D01*
X1320D01*
Y4200D01*
X1279D01*
Y4120D01*
X1320D01*
X1080D02*
Y4080D01*
X1160D01*
Y4120D01*
X1199D01*
Y4200D01*
X1160D01*
Y4240D01*
X1080D01*
Y4200D01*
X1040D01*
Y4120D01*
X1080D01*
D45*
X-1546Y2582D02*
G03*
X-1546Y2582I-80J0D01*
G01*
X1706D02*
G03*
X1706Y2582I-80J0D01*
G01*
X-1688Y853D02*
G03*
X-1688Y853I-80J0D01*
G01*
X1848D02*
G03*
X1848Y853I-80J0D01*
G01*
M02*
