M48
;Layer_Color=9474304
;FILE_FORMAT=2:4
INCH,LZ
;TYPE=PLATED
T01F00S00C0.0080
T02F00S00C0.0157
T04F00S00C0.0945
;TYPE=NON_PLATED
T05F00S00C0.0256
%
T01
X-00447Y003074
X-002756Y002818
X002455Y002542
Y00423
X001794Y004544
X001359Y00416
X00112
X000945Y004751
X-000492Y00468
Y00492
X-00128Y0052
X0029
X00375Y004544
X00454Y005294
Y00354
Y007902
X0034Y007311
X002854Y007508
X002461Y007311
Y006923
X002264Y00672
X00187Y011525
X0
X-00187
X00454Y009791
X-00416Y009973
Y00839
Y006917
X-00423Y005253
Y00492
Y00468
X-00238
Y00492
X-002451Y006187
X-002461Y00672
X-00218Y006923
X-002461Y007311
X-002756Y007508
X-002972Y00402
T02
X-000945Y002542
X-00063
X-000315
X-000472Y002818
X-000157
X000157
X000472
X00063Y002542
X000315
X000945
X001102Y002818
X-001102
T04
X-00375Y0015
X00375
T05
X-001417Y003074
M30
