M48
;Layer_Color=9474304
;FILE_FORMAT=2:4
INCH,LZ
;TYPE=PLATED
T05F00S00C0.0197
;TYPE=NON_PLATED
T13F00S00C0.0256
%
G90
G05
T05
G00X-029905Y014574
M15
G01X-030141
M16
G00X-028177Y014432
M15
G01X-028413
M16
G00X-028177Y017968
M15
G01X-028413
M16
G00X-029905Y017826
M15
G01X-030141
M16
G00X-029905Y021574
M15
G01X-030141
M16
G00X-028177Y021432
M15
G01X-028413
M16
G00X-028177Y024968
M15
G01X-028413
M16
G00X-029905Y024826
M15
G01X-030141
M16
G00X-029905Y028574
M15
G01X-030141
M16
G00X-028177Y028432
M15
G01X-028413
M16
G00X-028177Y031968
M15
G01X-028413
M16
G00X-029905Y031826
M15
G01X-030141
M16
G00X-029905Y035574
M15
G01X-030141
M16
G00X-028177Y035432
M15
G01X-028413
M16
G00X-028177Y038968
M15
G01X-028413
M16
G00X-029905Y038826
M15
G01X-030141
M16
G00X-029905Y042574
M15
G01X-030141
M16
G00X-028177Y042432
M15
G01X-028413
M16
G00X-028177Y045968
M15
G01X-028413
M16
G00X-029905Y045826
M15
G01X-030141
M16
G00X-029905Y049574
M15
G01X-030141
M16
G00X-028177Y049432
M15
G01X-028413
M16
G00X-028177Y052968
M15
G01X-028413
M16
G00X-029905Y052826
M15
G01X-030141
M16
G00X-029905Y056574
M15
G01X-030141
M16
G00X-028177Y056432
M15
G01X-028413
M16
G00X-028177Y059968
M15
G01X-028413
M16
G00X-029905Y059826
M15
G01X-030141
M16
G00X-029905Y063574
M15
G01X-030141
M16
G00X-028177Y063432
M15
G01X-028413
M16
G00X-028177Y066968
M15
G01X-028413
M16
G00X-029905Y066826
M15
G01X-030141
M16
T13
G00X-030516Y017558
M15
G01Y017676
M16
G00X-030516Y024558
M15
G01Y024676
M16
G00X-030516Y031558
M15
G01Y031676
M16
G00X-030516Y038558
M15
G01Y038676
M16
G00X-030516Y045558
M15
G01Y045676
M16
G00X-030516Y052558
M15
G01Y052676
M16
G00X-030516Y059558
M15
G01Y059676
M16
G00X-030516Y066558
M15
G01Y066676
M16
M17
M30
