G04*
G04 #@! TF.GenerationSoftware,Altium Limited,Altium Designer,25.8.1 (18)*
G04*
G04 Layer_Color=128*
%FSLAX24Y24*%
%MOIN*%
G70*
G04*
G04 #@! TF.SameCoordinates,E1EB2F7F-13AF-4CD7-81AC-88ABE11EA0C5*
G04*
G04*
G04 #@! TF.FilePolarity,Positive*
G04*
G01*
G75*
%ADD106C,0.0020*%
D106*
X-9812Y9810D02*
X-8868D01*
X-9340Y9338D02*
Y10282D01*
X-21950Y13500D02*
X-21550D01*
X-21750Y13300D02*
Y13700D01*
X-21950Y14500D02*
X-21550D01*
X-21750Y14300D02*
Y14700D01*
X-21950Y15500D02*
X-21550D01*
X-21750Y15300D02*
Y15700D01*
X-21950Y16500D02*
X-21550D01*
X-21750Y16300D02*
Y16700D01*
X-21950Y17500D02*
X-21550D01*
X-21750Y17300D02*
Y17700D01*
X-21950Y18500D02*
X-21550D01*
X-21750Y18300D02*
Y18700D01*
X-21950Y19500D02*
X-21550D01*
X-21750Y19300D02*
Y19700D01*
X-21950Y20500D02*
X-21550D01*
X-21750Y20300D02*
Y20700D01*
X-20950Y20500D02*
X-20550D01*
X-20750Y20300D02*
Y20700D01*
X-20950Y19500D02*
X-20550D01*
X-20750Y19300D02*
Y19700D01*
X-20950Y18500D02*
X-20550D01*
X-20750Y18300D02*
Y18700D01*
X-20950Y17500D02*
X-20550D01*
X-20750Y17300D02*
Y17700D01*
X-20950Y16500D02*
X-20550D01*
X-20750Y16300D02*
Y16700D01*
X-20950Y15500D02*
X-20550D01*
X-20750Y15300D02*
Y15700D01*
X-20950Y14500D02*
X-20550D01*
X-20750Y14300D02*
Y14700D01*
X-20950Y13500D02*
X-20550D01*
X-20750Y13300D02*
Y13700D01*
X-18450Y13500D02*
X-18050D01*
X-18250Y13300D02*
Y13700D01*
X-18450Y14500D02*
X-18050D01*
X-18250Y14300D02*
Y14700D01*
X-18450Y15500D02*
X-18050D01*
X-18250Y15300D02*
Y15700D01*
X-18450Y16500D02*
X-18050D01*
X-18250Y16300D02*
Y16700D01*
X-18450Y17500D02*
X-18050D01*
X-18250Y17300D02*
Y17700D01*
X-18450Y18500D02*
X-18050D01*
X-18250Y18300D02*
Y18700D01*
X-18450Y19500D02*
X-18050D01*
X-18250Y19300D02*
Y19700D01*
X-18450Y20500D02*
X-18050D01*
X-18250Y20300D02*
Y20700D01*
X-17450Y20500D02*
X-17050D01*
X-17250Y20300D02*
Y20700D01*
X-17450Y19500D02*
X-17050D01*
X-17250Y19300D02*
Y19700D01*
X-17450Y18500D02*
X-17050D01*
X-17250Y18300D02*
Y18700D01*
X-17450Y17500D02*
X-17050D01*
X-17250Y17300D02*
Y17700D01*
X-17450Y16500D02*
X-17050D01*
X-17250Y16300D02*
Y16700D01*
X-17450Y15500D02*
X-17050D01*
X-17250Y15300D02*
Y15700D01*
X-17450Y14500D02*
X-17050D01*
X-17250Y14300D02*
Y14700D01*
X-17450Y13500D02*
X-17050D01*
X-17250Y13300D02*
Y13700D01*
X-14950Y13500D02*
X-14550D01*
X-14750Y13300D02*
Y13700D01*
X-14950Y14500D02*
X-14550D01*
X-14750Y14300D02*
Y14700D01*
X-14950Y15500D02*
X-14550D01*
X-14750Y15300D02*
Y15700D01*
X-14950Y16500D02*
X-14550D01*
X-14750Y16300D02*
Y16700D01*
X-14950Y17500D02*
X-14550D01*
X-14750Y17300D02*
Y17700D01*
X-14950Y18500D02*
X-14550D01*
X-14750Y18300D02*
Y18700D01*
X-14950Y19500D02*
X-14550D01*
X-14750Y19300D02*
Y19700D01*
X-14950Y20500D02*
X-14550D01*
X-14750Y20300D02*
Y20700D01*
X-13950Y20500D02*
X-13550D01*
X-13750Y20300D02*
Y20700D01*
X-13950Y19500D02*
X-13550D01*
X-13750Y19300D02*
Y19700D01*
X-13950Y18500D02*
X-13550D01*
X-13750Y18300D02*
Y18700D01*
X-13950Y17500D02*
X-13550D01*
X-13750Y17300D02*
Y17700D01*
X-13950Y16500D02*
X-13550D01*
X-13750Y16300D02*
Y16700D01*
X-13950Y15500D02*
X-13550D01*
X-13750Y15300D02*
Y15700D01*
X-13950Y14500D02*
X-13550D01*
X-13750Y14300D02*
Y14700D01*
X-13950Y13500D02*
X-13550D01*
X-13750Y13300D02*
Y13700D01*
X-11450Y13500D02*
X-11050D01*
X-11250Y13300D02*
Y13700D01*
X-11450Y14500D02*
X-11050D01*
X-11250Y14300D02*
Y14700D01*
X-11450Y15500D02*
X-11050D01*
X-11250Y15300D02*
Y15700D01*
X-11450Y16500D02*
X-11050D01*
X-11250Y16300D02*
Y16700D01*
X-11450Y17500D02*
X-11050D01*
X-11250Y17300D02*
Y17700D01*
X-11450Y18500D02*
X-11050D01*
X-11250Y18300D02*
Y18700D01*
X-11450Y19500D02*
X-11050D01*
X-11250Y19300D02*
Y19700D01*
X-11450Y20500D02*
X-11050D01*
X-11250Y20300D02*
Y20700D01*
X-10450Y20500D02*
X-10050D01*
X-10250Y20300D02*
Y20700D01*
X-10450Y19500D02*
X-10050D01*
X-10250Y19300D02*
Y19700D01*
X-10450Y18500D02*
X-10050D01*
X-10250Y18300D02*
Y18700D01*
X-10450Y17500D02*
X-10050D01*
X-10250Y17300D02*
Y17700D01*
X-10450Y16500D02*
X-10050D01*
X-10250Y16300D02*
Y16700D01*
X-10450Y15500D02*
X-10050D01*
X-10250Y15300D02*
Y15700D01*
X-10450Y14500D02*
X-10050D01*
X-10250Y14300D02*
Y14700D01*
X-10450Y13500D02*
X-10050D01*
X-10250Y13300D02*
Y13700D01*
X-21810Y9250D02*
X-21690D01*
X-21750Y9190D02*
Y9310D01*
X-23060Y11000D02*
X-22940D01*
X-23000Y10940D02*
Y11060D01*
X-23060Y20500D02*
X-22940D01*
X-23000Y20440D02*
Y20560D01*
X-19560Y20500D02*
X-19440D01*
X-19500Y20440D02*
Y20560D01*
X-16060Y20500D02*
X-15940D01*
X-16000Y20440D02*
Y20560D01*
X-12560Y20500D02*
X-12440D01*
X-12500Y20440D02*
Y20560D01*
X-9060Y20500D02*
X-8940D01*
X-9000Y20440D02*
Y20560D01*
X-9060Y11500D02*
X-8940D01*
X-9000Y11440D02*
Y11560D01*
X-9812Y26810D02*
X-8868D01*
X-9340Y26338D02*
Y27282D01*
X-21950Y30500D02*
X-21550D01*
X-21750Y30300D02*
Y30700D01*
X-21950Y31500D02*
X-21550D01*
X-21750Y31300D02*
Y31700D01*
X-21950Y32500D02*
X-21550D01*
X-21750Y32300D02*
Y32700D01*
X-21950Y33500D02*
X-21550D01*
X-21750Y33300D02*
Y33700D01*
X-21950Y34500D02*
X-21550D01*
X-21750Y34300D02*
Y34700D01*
X-21950Y35500D02*
X-21550D01*
X-21750Y35300D02*
Y35700D01*
X-21950Y36500D02*
X-21550D01*
X-21750Y36300D02*
Y36700D01*
X-21950Y37500D02*
X-21550D01*
X-21750Y37300D02*
Y37700D01*
X-20950Y37500D02*
X-20550D01*
X-20750Y37300D02*
Y37700D01*
X-20950Y36500D02*
X-20550D01*
X-20750Y36300D02*
Y36700D01*
X-20950Y35500D02*
X-20550D01*
X-20750Y35300D02*
Y35700D01*
X-20950Y34500D02*
X-20550D01*
X-20750Y34300D02*
Y34700D01*
X-20950Y33500D02*
X-20550D01*
X-20750Y33300D02*
Y33700D01*
X-20950Y32500D02*
X-20550D01*
X-20750Y32300D02*
Y32700D01*
X-20950Y31500D02*
X-20550D01*
X-20750Y31300D02*
Y31700D01*
X-20950Y30500D02*
X-20550D01*
X-20750Y30300D02*
Y30700D01*
X-18450Y30500D02*
X-18050D01*
X-18250Y30300D02*
Y30700D01*
X-18450Y31500D02*
X-18050D01*
X-18250Y31300D02*
Y31700D01*
X-18450Y32500D02*
X-18050D01*
X-18250Y32300D02*
Y32700D01*
X-18450Y33500D02*
X-18050D01*
X-18250Y33300D02*
Y33700D01*
X-18450Y34500D02*
X-18050D01*
X-18250Y34300D02*
Y34700D01*
X-18450Y35500D02*
X-18050D01*
X-18250Y35300D02*
Y35700D01*
X-18450Y36500D02*
X-18050D01*
X-18250Y36300D02*
Y36700D01*
X-18450Y37500D02*
X-18050D01*
X-18250Y37300D02*
Y37700D01*
X-17450Y37500D02*
X-17050D01*
X-17250Y37300D02*
Y37700D01*
X-17450Y36500D02*
X-17050D01*
X-17250Y36300D02*
Y36700D01*
X-17450Y35500D02*
X-17050D01*
X-17250Y35300D02*
Y35700D01*
X-17450Y34500D02*
X-17050D01*
X-17250Y34300D02*
Y34700D01*
X-17450Y33500D02*
X-17050D01*
X-17250Y33300D02*
Y33700D01*
X-17450Y32500D02*
X-17050D01*
X-17250Y32300D02*
Y32700D01*
X-17450Y31500D02*
X-17050D01*
X-17250Y31300D02*
Y31700D01*
X-17450Y30500D02*
X-17050D01*
X-17250Y30300D02*
Y30700D01*
X-14950Y30500D02*
X-14550D01*
X-14750Y30300D02*
Y30700D01*
X-14950Y31500D02*
X-14550D01*
X-14750Y31300D02*
Y31700D01*
X-14950Y32500D02*
X-14550D01*
X-14750Y32300D02*
Y32700D01*
X-14950Y33500D02*
X-14550D01*
X-14750Y33300D02*
Y33700D01*
X-14950Y34500D02*
X-14550D01*
X-14750Y34300D02*
Y34700D01*
X-14950Y35500D02*
X-14550D01*
X-14750Y35300D02*
Y35700D01*
X-14950Y36500D02*
X-14550D01*
X-14750Y36300D02*
Y36700D01*
X-14950Y37500D02*
X-14550D01*
X-14750Y37300D02*
Y37700D01*
X-13950Y37500D02*
X-13550D01*
X-13750Y37300D02*
Y37700D01*
X-13950Y36500D02*
X-13550D01*
X-13750Y36300D02*
Y36700D01*
X-13950Y35500D02*
X-13550D01*
X-13750Y35300D02*
Y35700D01*
X-13950Y34500D02*
X-13550D01*
X-13750Y34300D02*
Y34700D01*
X-13950Y33500D02*
X-13550D01*
X-13750Y33300D02*
Y33700D01*
X-13950Y32500D02*
X-13550D01*
X-13750Y32300D02*
Y32700D01*
X-13950Y31500D02*
X-13550D01*
X-13750Y31300D02*
Y31700D01*
X-13950Y30500D02*
X-13550D01*
X-13750Y30300D02*
Y30700D01*
X-11450Y30500D02*
X-11050D01*
X-11250Y30300D02*
Y30700D01*
X-11450Y31500D02*
X-11050D01*
X-11250Y31300D02*
Y31700D01*
X-11450Y32500D02*
X-11050D01*
X-11250Y32300D02*
Y32700D01*
X-11450Y33500D02*
X-11050D01*
X-11250Y33300D02*
Y33700D01*
X-11450Y34500D02*
X-11050D01*
X-11250Y34300D02*
Y34700D01*
X-11450Y35500D02*
X-11050D01*
X-11250Y35300D02*
Y35700D01*
X-11450Y36500D02*
X-11050D01*
X-11250Y36300D02*
Y36700D01*
X-11450Y37500D02*
X-11050D01*
X-11250Y37300D02*
Y37700D01*
X-10450Y37500D02*
X-10050D01*
X-10250Y37300D02*
Y37700D01*
X-10450Y36500D02*
X-10050D01*
X-10250Y36300D02*
Y36700D01*
X-10450Y35500D02*
X-10050D01*
X-10250Y35300D02*
Y35700D01*
X-10450Y34500D02*
X-10050D01*
X-10250Y34300D02*
Y34700D01*
X-10450Y33500D02*
X-10050D01*
X-10250Y33300D02*
Y33700D01*
X-10450Y32500D02*
X-10050D01*
X-10250Y32300D02*
Y32700D01*
X-10450Y31500D02*
X-10050D01*
X-10250Y31300D02*
Y31700D01*
X-10450Y30500D02*
X-10050D01*
X-10250Y30300D02*
Y30700D01*
X-21810Y26250D02*
X-21690D01*
X-21750Y26190D02*
Y26310D01*
X-23060Y28000D02*
X-22940D01*
X-23000Y27940D02*
Y28060D01*
X-23060Y37500D02*
X-22940D01*
X-23000Y37440D02*
Y37560D01*
X-19560Y37500D02*
X-19440D01*
X-19500Y37440D02*
Y37560D01*
X-16060Y37500D02*
X-15940D01*
X-16000Y37440D02*
Y37560D01*
X-12560Y37500D02*
X-12440D01*
X-12500Y37440D02*
Y37560D01*
X-9060Y37500D02*
X-8940D01*
X-9000Y37440D02*
Y37560D01*
X-9060Y28500D02*
X-8940D01*
X-9000Y28440D02*
Y28560D01*
X-9812Y43910D02*
X-8868D01*
X-9340Y43438D02*
Y44382D01*
X-21950Y47600D02*
X-21550D01*
X-21750Y47400D02*
Y47800D01*
X-21950Y48600D02*
X-21550D01*
X-21750Y48400D02*
Y48800D01*
X-21950Y49600D02*
X-21550D01*
X-21750Y49400D02*
Y49800D01*
X-21950Y50600D02*
X-21550D01*
X-21750Y50400D02*
Y50800D01*
X-21950Y51600D02*
X-21550D01*
X-21750Y51400D02*
Y51800D01*
X-21950Y52600D02*
X-21550D01*
X-21750Y52400D02*
Y52800D01*
X-21950Y53600D02*
X-21550D01*
X-21750Y53400D02*
Y53800D01*
X-21950Y54600D02*
X-21550D01*
X-21750Y54400D02*
Y54800D01*
X-20950Y54600D02*
X-20550D01*
X-20750Y54400D02*
Y54800D01*
X-20950Y53600D02*
X-20550D01*
X-20750Y53400D02*
Y53800D01*
X-20950Y52600D02*
X-20550D01*
X-20750Y52400D02*
Y52800D01*
X-20950Y51600D02*
X-20550D01*
X-20750Y51400D02*
Y51800D01*
X-20950Y50600D02*
X-20550D01*
X-20750Y50400D02*
Y50800D01*
X-20950Y49600D02*
X-20550D01*
X-20750Y49400D02*
Y49800D01*
X-20950Y48600D02*
X-20550D01*
X-20750Y48400D02*
Y48800D01*
X-20950Y47600D02*
X-20550D01*
X-20750Y47400D02*
Y47800D01*
X-18450Y47600D02*
X-18050D01*
X-18250Y47400D02*
Y47800D01*
X-18450Y48600D02*
X-18050D01*
X-18250Y48400D02*
Y48800D01*
X-18450Y49600D02*
X-18050D01*
X-18250Y49400D02*
Y49800D01*
X-18450Y50600D02*
X-18050D01*
X-18250Y50400D02*
Y50800D01*
X-18450Y51600D02*
X-18050D01*
X-18250Y51400D02*
Y51800D01*
X-18450Y52600D02*
X-18050D01*
X-18250Y52400D02*
Y52800D01*
X-18450Y53600D02*
X-18050D01*
X-18250Y53400D02*
Y53800D01*
X-18450Y54600D02*
X-18050D01*
X-18250Y54400D02*
Y54800D01*
X-17450Y54600D02*
X-17050D01*
X-17250Y54400D02*
Y54800D01*
X-17450Y53600D02*
X-17050D01*
X-17250Y53400D02*
Y53800D01*
X-17450Y52600D02*
X-17050D01*
X-17250Y52400D02*
Y52800D01*
X-17450Y51600D02*
X-17050D01*
X-17250Y51400D02*
Y51800D01*
X-17450Y50600D02*
X-17050D01*
X-17250Y50400D02*
Y50800D01*
X-17450Y49600D02*
X-17050D01*
X-17250Y49400D02*
Y49800D01*
X-17450Y48600D02*
X-17050D01*
X-17250Y48400D02*
Y48800D01*
X-17450Y47600D02*
X-17050D01*
X-17250Y47400D02*
Y47800D01*
X-14950Y47600D02*
X-14550D01*
X-14750Y47400D02*
Y47800D01*
X-14950Y48600D02*
X-14550D01*
X-14750Y48400D02*
Y48800D01*
X-14950Y49600D02*
X-14550D01*
X-14750Y49400D02*
Y49800D01*
X-14950Y50600D02*
X-14550D01*
X-14750Y50400D02*
Y50800D01*
X-14950Y51600D02*
X-14550D01*
X-14750Y51400D02*
Y51800D01*
X-14950Y52600D02*
X-14550D01*
X-14750Y52400D02*
Y52800D01*
X-14950Y53600D02*
X-14550D01*
X-14750Y53400D02*
Y53800D01*
X-14950Y54600D02*
X-14550D01*
X-14750Y54400D02*
Y54800D01*
X-13950Y54600D02*
X-13550D01*
X-13750Y54400D02*
Y54800D01*
X-13950Y53600D02*
X-13550D01*
X-13750Y53400D02*
Y53800D01*
X-13950Y52600D02*
X-13550D01*
X-13750Y52400D02*
Y52800D01*
X-13950Y51600D02*
X-13550D01*
X-13750Y51400D02*
Y51800D01*
X-13950Y50600D02*
X-13550D01*
X-13750Y50400D02*
Y50800D01*
X-13950Y49600D02*
X-13550D01*
X-13750Y49400D02*
Y49800D01*
X-13950Y48600D02*
X-13550D01*
X-13750Y48400D02*
Y48800D01*
X-13950Y47600D02*
X-13550D01*
X-13750Y47400D02*
Y47800D01*
X-11450Y47600D02*
X-11050D01*
X-11250Y47400D02*
Y47800D01*
X-11450Y48600D02*
X-11050D01*
X-11250Y48400D02*
Y48800D01*
X-11450Y49600D02*
X-11050D01*
X-11250Y49400D02*
Y49800D01*
X-11450Y50600D02*
X-11050D01*
X-11250Y50400D02*
Y50800D01*
X-11450Y51600D02*
X-11050D01*
X-11250Y51400D02*
Y51800D01*
X-11450Y52600D02*
X-11050D01*
X-11250Y52400D02*
Y52800D01*
X-11450Y53600D02*
X-11050D01*
X-11250Y53400D02*
Y53800D01*
X-11450Y54600D02*
X-11050D01*
X-11250Y54400D02*
Y54800D01*
X-10450Y54600D02*
X-10050D01*
X-10250Y54400D02*
Y54800D01*
X-10450Y53600D02*
X-10050D01*
X-10250Y53400D02*
Y53800D01*
X-10450Y52600D02*
X-10050D01*
X-10250Y52400D02*
Y52800D01*
X-10450Y51600D02*
X-10050D01*
X-10250Y51400D02*
Y51800D01*
X-10450Y50600D02*
X-10050D01*
X-10250Y50400D02*
Y50800D01*
X-10450Y49600D02*
X-10050D01*
X-10250Y49400D02*
Y49800D01*
X-10450Y48600D02*
X-10050D01*
X-10250Y48400D02*
Y48800D01*
X-10450Y47600D02*
X-10050D01*
X-10250Y47400D02*
Y47800D01*
X-21810Y43350D02*
X-21690D01*
X-21750Y43290D02*
Y43410D01*
X-23060Y45100D02*
X-22940D01*
X-23000Y45040D02*
Y45160D01*
X-23060Y54600D02*
X-22940D01*
X-23000Y54540D02*
Y54660D01*
X-19560Y54600D02*
X-19440D01*
X-19500Y54540D02*
Y54660D01*
X-16060Y54600D02*
X-15940D01*
X-16000Y54540D02*
Y54660D01*
X-12560Y54600D02*
X-12440D01*
X-12500Y54540D02*
Y54660D01*
X-9060Y54600D02*
X-8940D01*
X-9000Y54540D02*
Y54660D01*
X-9060Y45600D02*
X-8940D01*
X-9000Y45540D02*
Y45660D01*
X-71515Y22100D02*
X-71105D01*
X-71310Y21895D02*
Y22305D01*
X-75515Y22100D02*
X-75105D01*
X-75310Y21895D02*
Y22305D01*
X-73515Y22100D02*
X-73105D01*
X-73310Y21895D02*
Y22305D01*
X-67515Y22100D02*
X-67105D01*
X-67310Y21895D02*
Y22305D01*
X-70515Y22100D02*
X-70105D01*
X-70310Y21895D02*
Y22305D01*
X-69515Y22100D02*
X-69105D01*
X-69310Y21895D02*
Y22305D01*
X-78515Y22100D02*
X-78105D01*
X-78310Y21895D02*
Y22305D01*
X-84515Y23100D02*
X-84105D01*
X-84310Y22895D02*
Y23305D01*
X-78515Y23100D02*
X-78105D01*
X-78310Y22895D02*
Y23305D01*
X-76515Y22100D02*
X-76105D01*
X-76310Y21895D02*
Y22305D01*
X-77515Y22100D02*
X-77105D01*
X-77310Y21895D02*
Y22305D01*
X-58265Y22100D02*
X-57855D01*
X-58060Y21895D02*
Y22305D01*
X-61265Y22100D02*
X-60855D01*
X-61060Y21895D02*
Y22305D01*
X-60265Y22100D02*
X-59855D01*
X-60060Y21895D02*
Y22305D01*
X-54265Y22100D02*
X-53855D01*
X-54060Y21895D02*
Y22305D01*
X-56265Y22100D02*
X-55855D01*
X-56060Y21895D02*
Y22305D01*
X-55265Y22100D02*
X-54855D01*
X-55060Y21895D02*
Y22305D01*
X-62265Y22100D02*
X-61855D01*
X-62060Y21895D02*
Y22305D01*
X-66515Y22100D02*
X-66105D01*
X-66310Y21895D02*
Y22305D01*
X-61265Y23100D02*
X-60855D01*
X-61060Y22895D02*
Y23305D01*
X-57265Y23100D02*
X-56855D01*
X-57060Y22895D02*
Y23305D01*
X-54265Y23100D02*
X-53855D01*
X-54060Y22895D02*
Y23305D01*
X-59265Y23100D02*
X-58855D01*
X-59060Y22895D02*
Y23305D01*
X-58265Y23100D02*
X-57855D01*
X-58060Y22895D02*
Y23305D01*
X-47265Y22100D02*
X-46855D01*
X-47060Y21895D02*
Y22305D01*
X-49265Y22100D02*
X-48855D01*
X-49060Y21895D02*
Y22305D01*
X-48265Y22100D02*
X-47855D01*
X-48060Y21895D02*
Y22305D01*
X-43265Y22100D02*
X-42855D01*
X-43060Y21895D02*
Y22305D01*
X-45265Y22100D02*
X-44855D01*
X-45060Y21895D02*
Y22305D01*
X-44265Y22100D02*
X-43855D01*
X-44060Y21895D02*
Y22305D01*
X-51265Y22100D02*
X-50855D01*
X-51060Y21895D02*
Y22305D01*
X-53265Y22100D02*
X-52855D01*
X-53060Y21895D02*
Y22305D01*
X-50265Y23100D02*
X-49855D01*
X-50060Y22895D02*
Y23305D01*
X-44265Y23100D02*
X-43855D01*
X-44060Y22895D02*
Y23305D01*
X-46265Y23100D02*
X-45855D01*
X-46060Y22895D02*
Y23305D01*
X-45265Y23100D02*
X-44855D01*
X-45060Y22895D02*
Y23305D01*
X-48265Y23100D02*
X-47855D01*
X-48060Y22895D02*
Y23305D01*
X-52265Y23100D02*
X-51855D01*
X-52060Y22895D02*
Y23305D01*
X-51265Y23100D02*
X-50855D01*
X-51060Y22895D02*
Y23305D01*
X-78515Y57100D02*
X-78105D01*
X-78310Y56895D02*
Y57305D01*
X-84515Y57100D02*
X-84105D01*
X-84310Y56895D02*
Y57305D01*
X-67515Y58100D02*
X-67105D01*
X-67310Y57895D02*
Y58305D01*
X-55265Y58100D02*
X-54855D01*
X-55060Y57895D02*
Y58305D01*
X-84060Y63500D02*
X-83666D01*
X-83863Y63303D02*
Y63697D01*
X-68646Y68127D02*
X-68244D01*
X-68445Y67926D02*
Y68327D01*
X-43265Y57100D02*
X-42855D01*
X-43060Y56895D02*
Y57305D01*
X-44265Y57100D02*
X-43855D01*
X-44060Y56895D02*
Y57305D01*
X-30338Y17302D02*
X-30181D01*
X-30260Y17224D02*
Y17381D01*
X-30240Y14574D02*
X-29807D01*
X-30023Y14357D02*
Y14791D01*
X-30240Y17826D02*
X-29807D01*
X-30023Y17609D02*
Y18043D01*
X-30240Y21574D02*
X-29807D01*
X-30023Y21357D02*
Y21791D01*
X-30338Y22098D02*
X-30181D01*
X-30260Y22019D02*
Y22176D01*
X-28512Y14432D02*
X-28079D01*
X-28295Y14216D02*
Y14649D01*
X-28512Y17968D02*
X-28079D01*
X-28295Y17751D02*
Y18184D01*
X-28512Y21432D02*
X-28079D01*
X-28295Y21216D02*
Y21649D01*
X-30338Y31302D02*
X-30181D01*
X-30260Y31224D02*
Y31381D01*
X-30338Y24302D02*
X-30181D01*
X-30260Y24224D02*
Y24381D01*
X-30338Y29098D02*
X-30181D01*
X-30260Y29019D02*
Y29176D01*
X-30240Y28574D02*
X-29807D01*
X-30023Y28357D02*
Y28791D01*
X-30338Y38302D02*
X-30181D01*
X-30260Y38224D02*
Y38381D01*
X-30240Y31826D02*
X-29807D01*
X-30023Y31609D02*
Y32043D01*
X-30338Y36098D02*
X-30181D01*
X-30260Y36019D02*
Y36176D01*
X-30240Y35574D02*
X-29807D01*
X-30023Y35357D02*
Y35791D01*
X-30240Y24826D02*
X-29807D01*
X-30023Y24609D02*
Y25043D01*
X-28512Y24968D02*
X-28079D01*
X-28295Y24751D02*
Y25184D01*
X-28512Y31968D02*
X-28079D01*
X-28295Y31751D02*
Y32184D01*
X-28512Y28432D02*
X-28079D01*
X-28295Y28216D02*
Y28649D01*
X-28512Y35432D02*
X-28079D01*
X-28295Y35216D02*
Y35649D01*
X-30240Y42574D02*
X-29807D01*
X-30023Y42357D02*
Y42791D01*
X-30338Y45302D02*
X-30181D01*
X-30260Y45224D02*
Y45381D01*
X-30338Y43098D02*
X-30181D01*
X-30260Y43019D02*
Y43176D01*
X-30338Y52302D02*
X-30181D01*
X-30260Y52224D02*
Y52381D01*
X-30240Y45826D02*
X-29807D01*
X-30023Y45609D02*
Y46043D01*
X-30338Y50098D02*
X-30181D01*
X-30260Y50019D02*
Y50176D01*
X-30240Y49574D02*
X-29807D01*
X-30023Y49357D02*
Y49791D01*
X-30240Y38826D02*
X-29807D01*
X-30023Y38609D02*
Y39043D01*
X-28512Y38968D02*
X-28079D01*
X-28295Y38751D02*
Y39184D01*
X-28512Y45968D02*
X-28079D01*
X-28295Y45751D02*
Y46184D01*
X-28512Y42432D02*
X-28079D01*
X-28295Y42216D02*
Y42649D01*
X-28512Y49432D02*
X-28079D01*
X-28295Y49216D02*
Y49649D01*
X-30338Y57098D02*
X-30181D01*
X-30260Y57019D02*
Y57176D01*
X-30338Y59302D02*
X-30181D01*
X-30260Y59224D02*
Y59381D01*
X-30240Y52826D02*
X-29807D01*
X-30023Y52609D02*
Y53043D01*
X-30240Y59826D02*
X-29807D01*
X-30023Y59609D02*
Y60043D01*
X-30240Y56574D02*
X-29807D01*
X-30023Y56357D02*
Y56791D01*
X-30338Y66302D02*
X-30181D01*
X-30260Y66224D02*
Y66381D01*
X-30240Y63574D02*
X-29807D01*
X-30023Y63357D02*
Y63791D01*
X-30338Y64098D02*
X-30181D01*
X-30260Y64019D02*
Y64176D01*
X-30240Y66826D02*
X-29807D01*
X-30023Y66609D02*
Y67043D01*
X-28512Y52968D02*
X-28079D01*
X-28295Y52751D02*
Y53184D01*
X-28512Y56432D02*
X-28079D01*
X-28295Y56216D02*
Y56649D01*
X-28512Y59968D02*
X-28079D01*
X-28295Y59751D02*
Y60184D01*
X-28512Y66968D02*
X-28079D01*
X-28295Y66751D02*
Y67184D01*
X-28512Y63432D02*
X-28079D01*
X-28295Y63216D02*
Y63649D01*
X-30338Y15098D02*
X-30181D01*
X-30260Y15019D02*
Y15176D01*
X-30643Y14783D02*
X-30388D01*
X-30516Y14655D02*
Y14911D01*
X-30643Y17617D02*
X-30388D01*
X-30516Y17489D02*
Y17745D01*
X-30063Y16830D02*
X-29905D01*
X-29984Y16751D02*
Y16909D01*
X-30063Y15885D02*
X-29905D01*
X-29984Y15806D02*
Y15964D01*
X-30063Y16515D02*
X-29905D01*
X-29984Y16436D02*
Y16594D01*
X-30063Y15570D02*
X-29905D01*
X-29984Y15491D02*
Y15649D01*
X-30338Y16357D02*
X-30181D01*
X-30260Y16279D02*
Y16436D01*
X-30063Y17145D02*
X-29905D01*
X-29984Y17066D02*
Y17224D01*
X-30338Y16043D02*
X-30181D01*
X-30260Y15964D02*
Y16121D01*
X-30063Y15255D02*
X-29905D01*
X-29984Y15176D02*
Y15334D01*
X-30338Y15728D02*
X-30181D01*
X-30260Y15649D02*
Y15806D01*
X-30338Y16672D02*
X-30181D01*
X-30260Y16594D02*
Y16751D01*
X-30338Y51672D02*
X-30181D01*
X-30260Y51594D02*
Y51751D01*
X-30338Y65672D02*
X-30181D01*
X-30260Y65594D02*
Y65751D01*
X-30338Y64728D02*
X-30181D01*
X-30260Y64649D02*
Y64806D01*
X-30338Y58672D02*
X-30181D01*
X-30260Y58594D02*
Y58751D01*
X-30338Y57728D02*
X-30181D01*
X-30260Y57649D02*
Y57806D01*
X-30338Y50728D02*
X-30181D01*
X-30260Y50649D02*
Y50806D01*
X-30338Y44672D02*
X-30181D01*
X-30260Y44594D02*
Y44751D01*
X-79515Y58100D02*
X-79105D01*
X-79310Y57895D02*
Y58305D01*
X-78515Y58100D02*
X-78105D01*
X-78310Y57895D02*
Y58305D01*
X-80515Y58100D02*
X-80105D01*
X-80310Y57895D02*
Y58305D01*
X-30338Y37672D02*
X-30181D01*
X-30260Y37594D02*
Y37751D01*
X-30338Y36728D02*
X-30181D01*
X-30260Y36649D02*
Y36806D01*
X-30338Y43728D02*
X-30181D01*
X-30260Y43649D02*
Y43806D01*
X-30338Y30672D02*
X-30181D01*
X-30260Y30594D02*
Y30751D01*
X-30338Y29728D02*
X-30181D01*
X-30260Y29649D02*
Y29806D01*
X-30338Y23672D02*
X-30181D01*
X-30260Y23594D02*
Y23751D01*
X-30338Y22728D02*
X-30181D01*
X-30260Y22649D02*
Y22806D01*
X-83515Y22100D02*
X-83105D01*
X-83310Y21895D02*
Y22305D01*
X-82515Y22100D02*
X-82105D01*
X-82310Y21895D02*
Y22305D01*
X-84515Y22100D02*
X-84105D01*
X-84310Y21895D02*
Y22305D01*
X-68515Y57100D02*
X-68105D01*
X-68310Y56895D02*
Y57305D01*
X-66515Y57100D02*
X-66105D01*
X-66310Y56895D02*
Y57305D01*
X-65515Y57100D02*
X-65105D01*
X-65310Y56895D02*
Y57305D01*
X-69515Y57100D02*
X-69105D01*
X-69310Y56895D02*
Y57305D01*
X-81698Y63500D02*
X-81304D01*
X-81501Y63303D02*
Y63697D01*
X-82879Y61650D02*
X-82485D01*
X-82682Y61453D02*
Y61846D01*
X-84515Y58100D02*
X-84105D01*
X-84310Y57895D02*
Y58305D01*
X-83515Y58100D02*
X-83105D01*
X-83310Y57895D02*
Y58305D01*
X-82515Y58100D02*
X-82105D01*
X-82310Y57895D02*
Y58305D01*
X-68646Y62527D02*
X-68244D01*
X-68445Y62326D02*
Y62727D01*
X-30643Y56783D02*
X-30388D01*
X-30516Y56655D02*
Y56911D01*
X-30643Y59617D02*
X-30388D01*
X-30516Y59489D02*
Y59745D01*
X-30338Y58357D02*
X-30181D01*
X-30260Y58279D02*
Y58436D01*
X-30338Y58043D02*
X-30181D01*
X-30260Y57964D02*
Y58121D01*
X-30063Y57885D02*
X-29905D01*
X-29984Y57806D02*
Y57964D01*
X-30063Y57570D02*
X-29905D01*
X-29984Y57491D02*
Y57649D01*
X-30063Y57255D02*
X-29905D01*
X-29984Y57176D02*
Y57334D01*
X-30063Y59145D02*
X-29905D01*
X-29984Y59066D02*
Y59224D01*
X-30063Y58830D02*
X-29905D01*
X-29984Y58751D02*
Y58909D01*
X-30063Y58515D02*
X-29905D01*
X-29984Y58436D02*
Y58594D01*
X-30643Y42783D02*
X-30388D01*
X-30516Y42655D02*
Y42911D01*
X-30643Y45617D02*
X-30388D01*
X-30516Y45489D02*
Y45745D01*
X-30338Y44357D02*
X-30181D01*
X-30260Y44279D02*
Y44436D01*
X-30338Y44043D02*
X-30181D01*
X-30260Y43964D02*
Y44121D01*
X-30063Y43885D02*
X-29905D01*
X-29984Y43806D02*
Y43964D01*
X-30063Y43570D02*
X-29905D01*
X-29984Y43491D02*
Y43649D01*
X-30063Y43255D02*
X-29905D01*
X-29984Y43176D02*
Y43334D01*
X-30063Y45145D02*
X-29905D01*
X-29984Y45066D02*
Y45224D01*
X-30063Y44830D02*
X-29905D01*
X-29984Y44751D02*
Y44909D01*
X-30063Y44515D02*
X-29905D01*
X-29984Y44436D02*
Y44594D01*
X-30643Y49783D02*
X-30388D01*
X-30516Y49655D02*
Y49911D01*
X-30643Y52617D02*
X-30388D01*
X-30516Y52489D02*
Y52745D01*
X-30338Y51357D02*
X-30181D01*
X-30260Y51279D02*
Y51436D01*
X-30338Y51043D02*
X-30181D01*
X-30260Y50964D02*
Y51121D01*
X-30063Y50885D02*
X-29905D01*
X-29984Y50806D02*
Y50964D01*
X-30063Y50570D02*
X-29905D01*
X-29984Y50491D02*
Y50649D01*
X-30063Y50255D02*
X-29905D01*
X-29984Y50176D02*
Y50334D01*
X-30063Y52145D02*
X-29905D01*
X-29984Y52066D02*
Y52224D01*
X-30063Y51830D02*
X-29905D01*
X-29984Y51751D02*
Y51909D01*
X-30063Y51515D02*
X-29905D01*
X-29984Y51436D02*
Y51594D01*
X-30643Y63783D02*
X-30388D01*
X-30516Y63655D02*
Y63911D01*
X-30643Y66617D02*
X-30388D01*
X-30516Y66489D02*
Y66745D01*
X-30338Y65357D02*
X-30181D01*
X-30260Y65279D02*
Y65436D01*
X-30338Y65043D02*
X-30181D01*
X-30260Y64964D02*
Y65121D01*
X-30063Y64885D02*
X-29905D01*
X-29984Y64806D02*
Y64964D01*
X-30063Y64570D02*
X-29905D01*
X-29984Y64491D02*
Y64649D01*
X-30063Y64255D02*
X-29905D01*
X-29984Y64176D02*
Y64334D01*
X-30063Y66145D02*
X-29905D01*
X-29984Y66066D02*
Y66224D01*
X-30063Y65830D02*
X-29905D01*
X-29984Y65751D02*
Y65909D01*
X-30063Y65515D02*
X-29905D01*
X-29984Y65436D02*
Y65594D01*
X-30643Y35783D02*
X-30388D01*
X-30516Y35655D02*
Y35911D01*
X-30643Y38617D02*
X-30388D01*
X-30516Y38489D02*
Y38745D01*
X-30338Y37357D02*
X-30181D01*
X-30260Y37279D02*
Y37436D01*
X-30338Y37043D02*
X-30181D01*
X-30260Y36964D02*
Y37121D01*
X-30063Y36885D02*
X-29905D01*
X-29984Y36806D02*
Y36964D01*
X-30063Y36570D02*
X-29905D01*
X-29984Y36491D02*
Y36649D01*
X-30063Y36255D02*
X-29905D01*
X-29984Y36176D02*
Y36334D01*
X-30063Y38145D02*
X-29905D01*
X-29984Y38066D02*
Y38224D01*
X-30063Y37830D02*
X-29905D01*
X-29984Y37751D02*
Y37909D01*
X-30063Y37515D02*
X-29905D01*
X-29984Y37436D02*
Y37594D01*
X-30643Y28783D02*
X-30388D01*
X-30516Y28655D02*
Y28911D01*
X-30643Y31617D02*
X-30388D01*
X-30516Y31489D02*
Y31745D01*
X-30338Y30357D02*
X-30181D01*
X-30260Y30279D02*
Y30436D01*
X-30338Y30043D02*
X-30181D01*
X-30260Y29964D02*
Y30121D01*
X-30063Y29885D02*
X-29905D01*
X-29984Y29806D02*
Y29964D01*
X-30063Y29570D02*
X-29905D01*
X-29984Y29491D02*
Y29649D01*
X-30063Y29255D02*
X-29905D01*
X-29984Y29176D02*
Y29334D01*
X-30063Y31145D02*
X-29905D01*
X-29984Y31066D02*
Y31224D01*
X-30063Y30830D02*
X-29905D01*
X-29984Y30751D02*
Y30909D01*
X-30063Y30515D02*
X-29905D01*
X-29984Y30436D02*
Y30594D01*
X-30643Y21783D02*
X-30388D01*
X-30516Y21655D02*
Y21911D01*
X-30643Y24617D02*
X-30388D01*
X-30516Y24489D02*
Y24745D01*
X-30338Y23357D02*
X-30181D01*
X-30260Y23279D02*
Y23436D01*
X-30338Y23043D02*
X-30181D01*
X-30260Y22964D02*
Y23121D01*
X-30063Y22885D02*
X-29905D01*
X-29984Y22806D02*
Y22964D01*
X-30063Y22570D02*
X-29905D01*
X-29984Y22491D02*
Y22649D01*
X-30063Y22255D02*
X-29905D01*
X-29984Y22176D02*
Y22334D01*
X-30063Y24145D02*
X-29905D01*
X-29984Y24066D02*
Y24224D01*
X-30063Y23830D02*
X-29905D01*
X-29984Y23751D02*
Y23909D01*
X-30063Y23515D02*
X-29905D01*
X-29984Y23436D02*
Y23594D01*
X-67646Y68127D02*
X-67244D01*
X-67445Y67926D02*
Y68327D01*
X-67646Y62527D02*
X-67244D01*
X-67445Y62326D02*
Y62727D01*
X-69646Y62527D02*
X-69244D01*
X-69445Y62326D02*
Y62727D01*
X-72520Y49273D02*
X-72120D01*
X-72320Y49073D02*
Y49473D01*
X-58947Y49273D02*
X-58547D01*
X-58747Y49073D02*
Y49473D01*
X-72520Y33525D02*
X-72120D01*
X-72320Y33325D02*
Y33725D01*
X-58947Y33525D02*
X-58547D01*
X-58747Y33325D02*
Y33725D01*
X-43265Y23100D02*
X-42855D01*
X-43060Y22895D02*
Y23305D01*
X-50265Y22100D02*
X-49855D01*
X-50060Y21895D02*
Y22305D01*
X-52265Y22100D02*
X-51855D01*
X-52060Y21895D02*
Y22305D01*
X-60265Y23100D02*
X-59855D01*
X-60060Y22895D02*
Y23305D01*
X-62265Y23100D02*
X-61855D01*
X-62060Y22895D02*
Y23305D01*
X-65515Y22100D02*
X-65105D01*
X-65310Y21895D02*
Y22305D01*
X-73515Y23100D02*
X-73105D01*
X-73310Y22895D02*
Y23305D01*
X-79515Y22100D02*
X-79105D01*
X-79310Y21895D02*
Y22305D01*
X-46265Y22100D02*
X-45855D01*
X-46060Y21895D02*
Y22305D01*
X-56265Y23100D02*
X-55855D01*
X-56060Y22895D02*
Y23305D01*
X-70515Y23100D02*
X-70105D01*
X-70310Y22895D02*
Y23305D01*
X-53265Y23100D02*
X-52855D01*
X-53060Y22895D02*
Y23305D01*
X-57265Y22100D02*
X-56855D01*
X-57060Y21895D02*
Y22305D01*
X-66515Y23100D02*
X-66105D01*
X-66310Y22895D02*
Y23305D01*
X-68515Y23100D02*
X-68105D01*
X-68310Y22895D02*
Y23305D01*
X-74515Y23100D02*
X-74105D01*
X-74310Y22895D02*
Y23305D01*
X-77515Y23100D02*
X-77105D01*
X-77310Y22895D02*
Y23305D01*
X-67515Y23100D02*
X-67105D01*
X-67310Y22895D02*
Y23305D01*
X-55265Y23100D02*
X-54855D01*
X-55060Y22895D02*
Y23305D01*
X-83515Y23100D02*
X-83105D01*
X-83310Y22895D02*
Y23305D01*
X-59265Y22100D02*
X-58855D01*
X-59060Y21895D02*
Y22305D01*
X-80515Y22100D02*
X-80105D01*
X-80310Y21895D02*
Y22305D01*
X-47265Y23100D02*
X-46855D01*
X-47060Y22895D02*
Y23305D01*
X-65515Y23100D02*
X-65105D01*
X-65310Y22895D02*
Y23305D01*
X-68515Y22100D02*
X-68105D01*
X-68310Y21895D02*
Y22305D01*
X-71515Y23100D02*
X-71105D01*
X-71310Y22895D02*
Y23305D01*
X-72515Y22100D02*
X-72105D01*
X-72310Y21895D02*
Y22305D01*
X-69515Y23100D02*
X-69105D01*
X-69310Y22895D02*
Y23305D01*
X-80515Y23100D02*
X-80105D01*
X-80310Y22895D02*
Y23305D01*
X-81515Y22100D02*
X-81105D01*
X-81310Y21895D02*
Y22305D01*
X-81515Y23100D02*
X-81105D01*
X-81310Y22895D02*
Y23305D01*
X-82515Y23100D02*
X-82105D01*
X-82310Y22895D02*
Y23305D01*
X-49265Y23100D02*
X-48855D01*
X-49060Y22895D02*
Y23305D01*
X-72515Y23100D02*
X-72105D01*
X-72310Y22895D02*
Y23305D01*
X-74515Y22100D02*
X-74105D01*
X-74310Y21895D02*
Y22305D01*
X-75515Y23100D02*
X-75105D01*
X-75310Y22895D02*
Y23305D01*
X-76515Y23100D02*
X-76105D01*
X-76310Y22895D02*
Y23305D01*
X-79515Y23100D02*
X-79105D01*
X-79310Y22895D02*
Y23305D01*
X-84335Y31939D02*
X-83351D01*
X-83843Y31446D02*
Y32431D01*
X-57169Y49261D02*
X-56185D01*
X-56677Y48769D02*
Y49754D01*
X-85052Y10600D02*
X-84068D01*
X-84560Y10108D02*
Y11092D01*
X-30252Y10600D02*
X-29268D01*
X-29760Y10108D02*
Y11092D01*
X-84335Y49261D02*
X-83351D01*
X-83843Y48769D02*
Y49754D01*
X-57169Y31939D02*
X-56185D01*
X-56677Y31446D02*
Y32431D01*
X-30252Y70600D02*
X-29268D01*
X-29760Y70108D02*
Y71092D01*
X-85052Y70600D02*
X-84068D01*
X-84560Y70108D02*
Y71092D01*
X-43265Y58100D02*
X-42855D01*
X-43060Y57895D02*
Y58305D01*
X-44265Y58100D02*
X-43855D01*
X-44060Y57895D02*
Y58305D01*
X-45265Y57100D02*
X-44855D01*
X-45060Y56895D02*
Y57305D01*
X-45265Y58100D02*
X-44855D01*
X-45060Y57895D02*
Y58305D01*
X-46265Y57100D02*
X-45855D01*
X-46060Y56895D02*
Y57305D01*
X-46265Y58100D02*
X-45855D01*
X-46060Y57895D02*
Y58305D01*
X-47265Y57100D02*
X-46855D01*
X-47060Y56895D02*
Y57305D01*
X-47265Y58100D02*
X-46855D01*
X-47060Y57895D02*
Y58305D01*
X-48265Y57100D02*
X-47855D01*
X-48060Y56895D02*
Y57305D01*
X-48265Y58100D02*
X-47855D01*
X-48060Y57895D02*
Y58305D01*
X-49265Y57100D02*
X-48855D01*
X-49060Y56895D02*
Y57305D01*
X-49265Y58100D02*
X-48855D01*
X-49060Y57895D02*
Y58305D01*
X-50265Y57100D02*
X-49855D01*
X-50060Y56895D02*
Y57305D01*
X-50265Y58100D02*
X-49855D01*
X-50060Y57895D02*
Y58305D01*
X-51265Y57100D02*
X-50855D01*
X-51060Y56895D02*
Y57305D01*
X-51265Y58100D02*
X-50855D01*
X-51060Y57895D02*
Y58305D01*
X-52265Y57100D02*
X-51855D01*
X-52060Y56895D02*
Y57305D01*
X-52265Y58100D02*
X-51855D01*
X-52060Y57895D02*
Y58305D01*
X-53265Y57100D02*
X-52855D01*
X-53060Y56895D02*
Y57305D01*
X-53265Y58100D02*
X-52855D01*
X-53060Y57895D02*
Y58305D01*
X-54265Y57100D02*
X-53855D01*
X-54060Y56895D02*
Y57305D01*
X-54265Y58100D02*
X-53855D01*
X-54060Y57895D02*
Y58305D01*
X-55265Y57100D02*
X-54855D01*
X-55060Y56895D02*
Y57305D01*
X-56265Y57100D02*
X-55855D01*
X-56060Y56895D02*
Y57305D01*
X-56265Y58100D02*
X-55855D01*
X-56060Y57895D02*
Y58305D01*
X-57265Y57100D02*
X-56855D01*
X-57060Y56895D02*
Y57305D01*
X-57265Y58100D02*
X-56855D01*
X-57060Y57895D02*
Y58305D01*
X-58265Y57100D02*
X-57855D01*
X-58060Y56895D02*
Y57305D01*
X-58265Y58100D02*
X-57855D01*
X-58060Y57895D02*
Y58305D01*
X-59265Y57100D02*
X-58855D01*
X-59060Y56895D02*
Y57305D01*
X-59265Y58100D02*
X-58855D01*
X-59060Y57895D02*
Y58305D01*
X-60265Y57100D02*
X-59855D01*
X-60060Y56895D02*
Y57305D01*
X-60265Y58100D02*
X-59855D01*
X-60060Y57895D02*
Y58305D01*
X-61265Y57100D02*
X-60855D01*
X-61060Y56895D02*
Y57305D01*
X-61265Y58100D02*
X-60855D01*
X-61060Y57895D02*
Y58305D01*
X-62265Y57100D02*
X-61855D01*
X-62060Y56895D02*
Y57305D01*
X-62265Y58100D02*
X-61855D01*
X-62060Y57895D02*
Y58305D01*
X-65515Y58100D02*
X-65105D01*
X-65310Y57895D02*
Y58305D01*
X-66515Y58100D02*
X-66105D01*
X-66310Y57895D02*
Y58305D01*
X-67515Y57100D02*
X-67105D01*
X-67310Y56895D02*
Y57305D01*
X-68515Y58100D02*
X-68105D01*
X-68310Y57895D02*
Y58305D01*
X-69515Y58100D02*
X-69105D01*
X-69310Y57895D02*
Y58305D01*
X-70515Y57100D02*
X-70105D01*
X-70310Y56895D02*
Y57305D01*
X-70515Y58100D02*
X-70105D01*
X-70310Y57895D02*
Y58305D01*
X-71515Y57100D02*
X-71105D01*
X-71310Y56895D02*
Y57305D01*
X-71515Y58100D02*
X-71105D01*
X-71310Y57895D02*
Y58305D01*
X-72515Y57100D02*
X-72105D01*
X-72310Y56895D02*
Y57305D01*
X-72515Y58100D02*
X-72105D01*
X-72310Y57895D02*
Y58305D01*
X-73515Y57100D02*
X-73105D01*
X-73310Y56895D02*
Y57305D01*
X-73515Y58100D02*
X-73105D01*
X-73310Y57895D02*
Y58305D01*
X-74515Y57100D02*
X-74105D01*
X-74310Y56895D02*
Y57305D01*
X-74515Y58100D02*
X-74105D01*
X-74310Y57895D02*
Y58305D01*
X-75515Y57100D02*
X-75105D01*
X-75310Y56895D02*
Y57305D01*
X-75515Y58100D02*
X-75105D01*
X-75310Y57895D02*
Y58305D01*
X-76515Y57100D02*
X-76105D01*
X-76310Y56895D02*
Y57305D01*
X-76515Y58100D02*
X-76105D01*
X-76310Y57895D02*
Y58305D01*
X-77515Y57100D02*
X-77105D01*
X-77310Y56895D02*
Y57305D01*
X-77515Y58100D02*
X-77105D01*
X-77310Y57895D02*
Y58305D01*
X-79515Y57100D02*
X-79105D01*
X-79310Y56895D02*
Y57305D01*
X-80515Y57100D02*
X-80105D01*
X-80310Y56895D02*
Y57305D01*
X-81515Y57100D02*
X-81105D01*
X-81310Y56895D02*
Y57305D01*
X-81515Y58100D02*
X-81105D01*
X-81310Y57895D02*
Y58305D01*
X-82515Y57100D02*
X-82105D01*
X-82310Y56895D02*
Y57305D01*
X-83515Y57100D02*
X-83105D01*
X-83310Y56895D02*
Y57305D01*
X-77983Y12900D02*
X-77823D01*
X-77903Y12820D02*
Y12980D01*
X-60434Y13600D02*
X-60274D01*
X-60354Y13520D02*
Y13680D01*
X-69590Y48600D02*
X-69430D01*
X-69510Y48520D02*
Y48680D01*
X-53690Y31900D02*
X-53530D01*
X-53610Y31820D02*
Y31980D01*
X-50840Y29400D02*
X-50680D01*
X-50760Y29320D02*
Y29480D01*
X-74690Y28800D02*
X-74530D01*
X-74610Y28720D02*
Y28880D01*
X-68290Y26200D02*
X-68130D01*
X-68210Y26120D02*
Y26280D01*
X-63890Y56600D02*
X-63730D01*
X-63810Y56520D02*
Y56680D01*
X-74990Y51800D02*
X-74830D01*
X-74910Y51720D02*
Y51880D01*
X-76440Y53200D02*
X-76280D01*
X-76360Y53120D02*
Y53280D01*
X-72540Y52900D02*
X-72380D01*
X-72460Y52820D02*
Y52980D01*
X-44140Y53100D02*
X-43980D01*
X-44060Y53020D02*
Y53180D01*
X-48140Y49100D02*
X-47980D01*
X-48060Y49020D02*
Y49180D01*
X-53140Y47100D02*
X-52980D01*
X-53060Y47020D02*
Y47180D01*
X-50640Y35600D02*
X-50480D01*
X-50560Y35520D02*
Y35680D01*
X-54140Y38600D02*
X-53980D01*
X-54060Y38520D02*
Y38680D01*
X-43640Y35100D02*
X-43480D01*
X-43560Y35020D02*
Y35180D01*
X-47640Y31100D02*
X-47480D01*
X-47560Y31020D02*
Y31180D01*
X-42140Y29100D02*
X-41980D01*
X-42060Y29020D02*
Y29180D01*
X-75640Y41100D02*
X-75480D01*
X-75560Y41020D02*
Y41180D01*
X-68640Y41100D02*
X-68480D01*
X-68560Y41020D02*
Y41180D01*
X-81140Y36100D02*
X-80980D01*
X-81060Y36020D02*
Y36180D01*
X-81140Y45100D02*
X-80980D01*
X-81060Y45020D02*
Y45180D01*
X-63140Y68600D02*
X-62980D01*
X-63060Y68520D02*
Y68680D01*
X-47140Y60100D02*
X-46980D01*
X-47060Y60020D02*
Y60180D01*
X-47140Y68100D02*
X-46980D01*
X-47060Y68020D02*
Y68180D01*
X-44640Y40600D02*
X-44480D01*
X-44560Y40520D02*
Y40680D01*
X-82640Y17100D02*
X-82480D01*
X-82560Y17020D02*
Y17180D01*
X-66640Y17100D02*
X-66480D01*
X-66560Y17020D02*
Y17180D01*
X-50640Y17100D02*
X-50480D01*
X-50560Y17020D02*
Y17180D01*
X-42640Y14100D02*
X-42480D01*
X-42560Y14020D02*
Y14180D01*
X-63251Y32280D02*
X-63091D01*
X-63171Y32200D02*
Y32360D01*
X-69705Y68127D02*
X-69585D01*
X-69645Y68067D02*
Y68187D01*
X-66640Y32400D02*
X-66480D01*
X-66560Y32320D02*
Y32480D01*
X-72240Y34600D02*
X-72080D01*
X-72160Y34520D02*
Y34680D01*
X-69740Y34700D02*
X-69580D01*
X-69660Y34620D02*
Y34780D01*
X-59472Y32161D02*
X-59312D01*
X-59392Y32081D02*
Y32241D01*
X-38320Y19700D02*
X-38200D01*
X-38260Y19640D02*
Y19760D01*
X-36720Y19600D02*
X-36600D01*
X-36660Y19540D02*
Y19660D01*
X-38320Y26700D02*
X-38200D01*
X-38260Y26640D02*
Y26760D01*
X-38320Y33700D02*
X-38200D01*
X-38260Y33640D02*
Y33760D01*
X-36720Y26600D02*
X-36600D01*
X-36660Y26540D02*
Y26660D01*
X-36720Y33600D02*
X-36600D01*
X-36660Y33540D02*
Y33660D01*
X-71735Y45600D02*
X-71615D01*
X-71675Y45540D02*
Y45660D01*
X-69846Y46100D02*
X-69726D01*
X-69786Y46040D02*
Y46160D01*
X-59452Y46100D02*
X-59332D01*
X-59392Y46040D02*
Y46160D01*
X-63231Y50500D02*
X-63111D01*
X-63171Y50440D02*
Y50560D01*
X-70778Y60825D02*
X-70658D01*
X-70718Y60765D02*
Y60885D01*
X-77453Y61700D02*
X-77333D01*
X-77393Y61640D02*
Y61760D01*
X-77453Y63200D02*
X-77333D01*
X-77393Y63140D02*
Y63260D01*
X-77253Y64800D02*
X-77133D01*
X-77193Y64740D02*
Y64860D01*
X-66232Y60816D02*
X-66112D01*
X-66172Y60756D02*
Y60876D01*
X-38320Y40700D02*
X-38200D01*
X-38260Y40640D02*
Y40760D01*
X-38320Y47700D02*
X-38200D01*
X-38260Y47640D02*
Y47760D01*
X-36720Y54600D02*
X-36600D01*
X-36660Y54540D02*
Y54660D01*
X-36720Y40600D02*
X-36600D01*
X-36660Y40540D02*
Y40660D01*
X-36720Y47600D02*
X-36600D01*
X-36660Y47540D02*
Y47660D01*
X-53820Y63076D02*
X-53700D01*
X-53760Y63016D02*
Y63136D01*
X-38320Y61700D02*
X-38200D01*
X-38260Y61640D02*
Y61760D01*
X-53820Y64076D02*
X-53700D01*
X-53760Y64016D02*
Y64136D01*
X-53820Y66076D02*
X-53700D01*
X-53760Y66016D02*
Y66136D01*
X-53820Y65076D02*
X-53700D01*
X-53760Y65016D02*
Y65136D01*
X-38320Y68700D02*
X-38200D01*
X-38260Y68640D02*
Y68760D01*
X-36720Y61600D02*
X-36600D01*
X-36660Y61540D02*
Y61660D01*
X-36720Y68600D02*
X-36600D01*
X-36660Y68540D02*
Y68660D01*
X-34727Y14765D02*
X-34607D01*
X-34667Y14705D02*
Y14825D01*
X-34720Y16806D02*
X-34600D01*
X-34660Y16746D02*
Y16866D01*
X-34720Y15789D02*
X-34600D01*
X-34660Y15729D02*
Y15849D01*
X-34727Y21765D02*
X-34607D01*
X-34667Y21705D02*
Y21825D01*
X-34720Y22789D02*
X-34600D01*
X-34660Y22729D02*
Y22849D01*
X-31888Y13200D02*
X-31768D01*
X-31828Y13140D02*
Y13260D01*
X-31888Y20200D02*
X-31768D01*
X-31828Y20140D02*
Y20260D01*
X-34727Y28765D02*
X-34607D01*
X-34667Y28705D02*
Y28825D01*
X-34720Y30806D02*
X-34600D01*
X-34660Y30746D02*
Y30866D01*
X-34720Y29789D02*
X-34600D01*
X-34660Y29729D02*
Y29849D01*
X-34727Y35765D02*
X-34607D01*
X-34667Y35705D02*
Y35825D01*
X-34720Y37806D02*
X-34600D01*
X-34660Y37746D02*
Y37866D01*
X-34720Y36789D02*
X-34600D01*
X-34660Y36729D02*
Y36849D01*
X-34720Y23806D02*
X-34600D01*
X-34660Y23746D02*
Y23866D01*
X-31888Y27200D02*
X-31768D01*
X-31828Y27140D02*
Y27260D01*
X-31888Y34200D02*
X-31768D01*
X-31828Y34140D02*
Y34260D01*
X-34727Y42765D02*
X-34607D01*
X-34667Y42705D02*
Y42825D01*
X-34720Y44806D02*
X-34600D01*
X-34660Y44746D02*
Y44866D01*
X-34720Y43789D02*
X-34600D01*
X-34660Y43729D02*
Y43849D01*
X-34727Y49765D02*
X-34607D01*
X-34667Y49705D02*
Y49825D01*
X-34720Y51806D02*
X-34600D01*
X-34660Y51746D02*
Y51866D01*
X-34720Y50789D02*
X-34600D01*
X-34660Y50729D02*
Y50849D01*
X-31888Y41200D02*
X-31768D01*
X-31828Y41140D02*
Y41260D01*
X-31888Y48200D02*
X-31768D01*
X-31828Y48140D02*
Y48260D01*
X-34727Y56765D02*
X-34607D01*
X-34667Y56705D02*
Y56825D01*
X-34727Y63765D02*
X-34607D01*
X-34667Y63705D02*
Y63825D01*
X-34720Y58806D02*
X-34600D01*
X-34660Y58746D02*
Y58866D01*
X-34720Y65806D02*
X-34600D01*
X-34660Y65746D02*
Y65866D01*
X-34720Y64789D02*
X-34600D01*
X-34660Y64729D02*
Y64849D01*
X-31888Y55200D02*
X-31768D01*
X-31828Y55140D02*
Y55260D01*
X-34720Y57789D02*
X-34600D01*
X-34660Y57729D02*
Y57849D01*
X-31921Y62200D02*
X-31801D01*
X-31861Y62140D02*
Y62260D01*
X-38320Y54700D02*
X-38200D01*
X-38260Y54640D02*
Y54760D01*
X-38320Y52512D02*
X-38200D01*
X-38260Y52452D02*
Y52572D01*
X-28887Y64100D02*
X-28807D01*
X-28847Y64060D02*
Y64140D01*
X-29190Y64100D02*
X-29110D01*
X-29150Y64060D02*
Y64140D01*
X-32998Y65008D02*
X-32918D01*
X-32958Y64968D02*
Y65048D01*
X-32205Y66344D02*
X-32125D01*
X-32165Y66304D02*
Y66384D01*
X-32199Y66039D02*
X-32119D01*
X-32159Y65999D02*
Y66079D01*
X-32998Y64708D02*
X-32918D01*
X-32958Y64668D02*
Y64748D01*
X-31892Y64555D02*
X-31812D01*
X-31852Y64515D02*
Y64595D01*
X-31900Y64255D02*
X-31820D01*
X-31860Y64215D02*
Y64295D01*
X-33000Y65608D02*
X-32920D01*
X-32960Y65568D02*
Y65648D01*
X-33000Y65308D02*
X-32920D01*
X-32960Y65268D02*
Y65348D01*
X-28887Y57100D02*
X-28807D01*
X-28847Y57060D02*
Y57140D01*
X-29190Y57100D02*
X-29110D01*
X-29150Y57060D02*
Y57140D01*
X-32998Y58008D02*
X-32918D01*
X-32958Y57968D02*
Y58048D01*
X-32205Y59344D02*
X-32125D01*
X-32165Y59304D02*
Y59384D01*
X-32199Y59039D02*
X-32119D01*
X-32159Y58999D02*
Y59079D01*
X-32998Y57708D02*
X-32918D01*
X-32958Y57668D02*
Y57748D01*
X-31892Y57555D02*
X-31812D01*
X-31852Y57515D02*
Y57595D01*
X-31900Y57255D02*
X-31820D01*
X-31860Y57215D02*
Y57295D01*
X-33000Y58608D02*
X-32920D01*
X-32960Y58568D02*
Y58648D01*
X-33000Y58308D02*
X-32920D01*
X-32960Y58268D02*
Y58348D01*
X-28887Y50100D02*
X-28807D01*
X-28847Y50060D02*
Y50140D01*
X-29190Y50100D02*
X-29110D01*
X-29150Y50060D02*
Y50140D01*
X-32998Y51008D02*
X-32918D01*
X-32958Y50968D02*
Y51048D01*
X-32205Y52344D02*
X-32125D01*
X-32165Y52304D02*
Y52384D01*
X-32199Y52039D02*
X-32119D01*
X-32159Y51999D02*
Y52079D01*
X-32998Y50708D02*
X-32918D01*
X-32958Y50668D02*
Y50748D01*
X-31892Y50555D02*
X-31812D01*
X-31852Y50515D02*
Y50595D01*
X-31900Y50255D02*
X-31820D01*
X-31860Y50215D02*
Y50295D01*
X-33000Y51608D02*
X-32920D01*
X-32960Y51568D02*
Y51648D01*
X-33000Y51308D02*
X-32920D01*
X-32960Y51268D02*
Y51348D01*
X-28887Y43100D02*
X-28807D01*
X-28847Y43060D02*
Y43140D01*
X-29190Y43100D02*
X-29110D01*
X-29150Y43060D02*
Y43140D01*
X-32998Y44008D02*
X-32918D01*
X-32958Y43968D02*
Y44048D01*
X-32205Y45344D02*
X-32125D01*
X-32165Y45304D02*
Y45384D01*
X-32199Y45039D02*
X-32119D01*
X-32159Y44999D02*
Y45079D01*
X-32998Y43708D02*
X-32918D01*
X-32958Y43668D02*
Y43748D01*
X-31892Y43555D02*
X-31812D01*
X-31852Y43515D02*
Y43595D01*
X-31900Y43255D02*
X-31820D01*
X-31860Y43215D02*
Y43295D01*
X-33000Y44608D02*
X-32920D01*
X-32960Y44568D02*
Y44648D01*
X-33000Y44308D02*
X-32920D01*
X-32960Y44268D02*
Y44348D01*
X-28887Y36100D02*
X-28807D01*
X-28847Y36060D02*
Y36140D01*
X-29190Y36100D02*
X-29110D01*
X-29150Y36060D02*
Y36140D01*
X-32998Y37008D02*
X-32918D01*
X-32958Y36968D02*
Y37048D01*
X-32205Y38344D02*
X-32125D01*
X-32165Y38304D02*
Y38384D01*
X-32199Y38039D02*
X-32119D01*
X-32159Y37999D02*
Y38079D01*
X-32998Y36708D02*
X-32918D01*
X-32958Y36668D02*
Y36748D01*
X-31892Y36555D02*
X-31812D01*
X-31852Y36515D02*
Y36595D01*
X-31900Y36255D02*
X-31820D01*
X-31860Y36215D02*
Y36295D01*
X-33000Y37608D02*
X-32920D01*
X-32960Y37568D02*
Y37648D01*
X-33000Y37308D02*
X-32920D01*
X-32960Y37268D02*
Y37348D01*
X-28887Y29100D02*
X-28807D01*
X-28847Y29060D02*
Y29140D01*
X-29190Y29100D02*
X-29110D01*
X-29150Y29060D02*
Y29140D01*
X-32998Y30008D02*
X-32918D01*
X-32958Y29968D02*
Y30048D01*
X-32205Y31344D02*
X-32125D01*
X-32165Y31304D02*
Y31384D01*
X-32199Y31039D02*
X-32119D01*
X-32159Y30999D02*
Y31079D01*
X-32998Y29708D02*
X-32918D01*
X-32958Y29668D02*
Y29748D01*
X-31892Y29555D02*
X-31812D01*
X-31852Y29515D02*
Y29595D01*
X-31900Y29255D02*
X-31820D01*
X-31860Y29215D02*
Y29295D01*
X-33000Y30608D02*
X-32920D01*
X-32960Y30568D02*
Y30648D01*
X-33000Y30308D02*
X-32920D01*
X-32960Y30268D02*
Y30348D01*
X-28887Y22100D02*
X-28807D01*
X-28847Y22060D02*
Y22140D01*
X-29190Y22100D02*
X-29110D01*
X-29150Y22060D02*
Y22140D01*
X-32998Y23008D02*
X-32918D01*
X-32958Y22968D02*
Y23048D01*
X-32205Y24344D02*
X-32125D01*
X-32165Y24304D02*
Y24384D01*
X-32199Y24039D02*
X-32119D01*
X-32159Y23999D02*
Y24079D01*
X-32998Y22708D02*
X-32918D01*
X-32958Y22668D02*
Y22748D01*
X-31892Y22555D02*
X-31812D01*
X-31852Y22515D02*
Y22595D01*
X-31900Y22255D02*
X-31820D01*
X-31860Y22215D02*
Y22295D01*
X-33000Y23608D02*
X-32920D01*
X-32960Y23568D02*
Y23648D01*
X-33000Y23308D02*
X-32920D01*
X-32960Y23268D02*
Y23348D01*
X-33000Y16308D02*
X-32920D01*
X-32960Y16268D02*
Y16348D01*
X-33000Y16608D02*
X-32920D01*
X-32960Y16568D02*
Y16648D01*
X-31900Y15255D02*
X-31820D01*
X-31860Y15215D02*
Y15295D01*
X-31892Y15555D02*
X-31812D01*
X-31852Y15515D02*
Y15595D01*
X-32998Y15708D02*
X-32918D01*
X-32958Y15668D02*
Y15748D01*
X-32199Y17039D02*
X-32119D01*
X-32159Y16999D02*
Y17079D01*
X-32205Y17344D02*
X-32125D01*
X-32165Y17304D02*
Y17384D01*
X-32998Y16008D02*
X-32918D01*
X-32958Y15968D02*
Y16048D01*
X-29190Y15100D02*
X-29110D01*
X-29150Y15060D02*
Y15140D01*
X-28887Y15100D02*
X-28807D01*
X-28847Y15060D02*
Y15140D01*
X-62200Y63100D02*
X-62120D01*
X-62160Y63060D02*
Y63140D01*
X-61500Y64076D02*
X-61420D01*
X-61460Y64036D02*
Y64116D01*
X-60600Y65076D02*
X-60520D01*
X-60560Y65036D02*
Y65116D01*
X-59800Y66076D02*
X-59720D01*
X-59760Y66036D02*
Y66116D01*
X-30520Y33500D02*
X-30400D01*
X-30460Y33440D02*
Y33560D01*
X-59620Y68782D02*
X-59500D01*
X-59560Y68722D02*
Y68842D01*
X-55620Y68807D02*
X-55500D01*
X-55560Y68747D02*
Y68867D01*
X-59520Y60480D02*
X-59400D01*
X-59460Y60420D02*
Y60540D01*
X-55920Y60470D02*
X-55800D01*
X-55860Y60410D02*
Y60530D01*
X-71390Y30757D02*
X-71230D01*
X-71310Y30677D02*
Y30837D01*
X-71805Y30330D02*
X-71645D01*
X-71725Y30250D02*
Y30410D01*
X-70770Y29951D02*
X-70690D01*
X-70730Y29911D02*
Y29991D01*
X-70456Y29716D02*
X-70376D01*
X-70416Y29676D02*
Y29756D01*
X-70141Y29500D02*
X-70061D01*
X-70101Y29460D02*
Y29540D01*
X-65436Y24930D02*
X-65316D01*
X-65376Y24870D02*
Y24990D01*
X-65436Y32500D02*
X-65316D01*
X-65376Y32440D02*
Y32560D01*
X-70770Y35800D02*
X-70690D01*
X-70730Y35760D02*
Y35840D01*
X-70141Y35200D02*
X-70061D01*
X-70101Y35160D02*
Y35240D01*
X-82350Y27000D02*
X-82270D01*
X-82310Y26960D02*
Y27040D01*
X-71085Y36100D02*
X-71005D01*
X-71045Y36060D02*
Y36140D01*
X-81350Y27500D02*
X-81270D01*
X-81310Y27460D02*
Y27540D01*
X-80350Y28000D02*
X-80270D01*
X-80310Y27960D02*
Y28040D01*
X-70456Y35500D02*
X-70376D01*
X-70416Y35460D02*
Y35540D01*
X-79350Y28500D02*
X-79270D01*
X-79310Y28460D02*
Y28540D01*
X-66676Y30252D02*
X-66596D01*
X-66636Y30212D02*
Y30292D01*
X-67936Y30558D02*
X-67856D01*
X-67896Y30518D02*
Y30598D01*
X-68566Y30558D02*
X-68486D01*
X-68526Y30518D02*
Y30598D01*
X-69196Y34900D02*
X-69116D01*
X-69156Y34860D02*
Y34940D01*
X-68881Y35198D02*
X-68801D01*
X-68841Y35158D02*
Y35238D01*
X-68566Y34900D02*
X-68486D01*
X-68526Y34860D02*
Y34940D01*
X-67936Y34900D02*
X-67856D01*
X-67896Y34860D02*
Y34940D01*
X-67306Y34900D02*
X-67226D01*
X-67266Y34860D02*
Y34940D01*
X-66991Y35198D02*
X-66911D01*
X-66951Y35158D02*
Y35238D01*
X-60377Y32161D02*
X-60297D01*
X-60337Y32121D02*
Y32201D01*
X-61637Y32161D02*
X-61557D01*
X-61597Y32121D02*
Y32201D01*
X-62267Y32161D02*
X-62187D01*
X-62227Y32121D02*
Y32201D01*
X-63841Y32161D02*
X-63761D01*
X-63801Y32121D02*
Y32201D01*
X-64500Y32161D02*
X-64420D01*
X-64460Y32121D02*
Y32201D01*
X-65731Y32161D02*
X-65651D01*
X-65691Y32121D02*
Y32201D01*
X-59100Y19600D02*
X-59020D01*
X-59060Y19560D02*
Y19640D01*
X-57100Y19900D02*
X-57020D01*
X-57060Y19860D02*
Y19940D01*
X-52100Y20200D02*
X-52020D01*
X-52060Y20160D02*
Y20240D01*
X-50100Y20500D02*
X-50020D01*
X-50060Y20460D02*
Y20540D01*
X-46100Y20800D02*
X-46020D01*
X-46060Y20760D02*
Y20840D01*
X-66676Y34892D02*
X-66596D01*
X-66636Y34852D02*
Y34932D01*
X-66361Y35193D02*
X-66281D01*
X-66321Y35153D02*
Y35233D01*
X-65731Y35200D02*
X-65651D01*
X-65691Y35160D02*
Y35240D01*
X-59432Y37000D02*
X-59352D01*
X-59392Y36960D02*
Y37040D01*
X-60692Y36700D02*
X-60612D01*
X-60652Y36660D02*
Y36740D01*
X-61300Y36400D02*
X-61220D01*
X-61260Y36360D02*
Y36440D01*
X-62600Y36100D02*
X-62520D01*
X-62560Y36060D02*
Y36140D01*
X-63200Y35800D02*
X-63120D01*
X-63160Y35760D02*
Y35840D01*
X-63500Y35500D02*
X-63420D01*
X-63460Y35460D02*
Y35540D01*
X-64800Y35200D02*
X-64720D01*
X-64760Y35160D02*
Y35240D01*
X-65400Y34900D02*
X-65320D01*
X-65360Y34860D02*
Y34940D01*
X-71420Y46000D02*
X-71300D01*
X-71360Y45940D02*
Y46060D01*
X-30520Y61500D02*
X-30400D01*
X-30460Y61440D02*
Y61560D01*
X-29247Y61500D02*
X-29127D01*
X-29187Y61440D02*
Y61560D01*
X-38320Y66500D02*
X-38200D01*
X-38260Y66440D02*
Y66560D01*
X-35820Y67300D02*
X-35700D01*
X-35760Y67240D02*
Y67360D01*
X-30520Y54500D02*
X-30400D01*
X-30460Y54440D02*
Y54560D01*
X-29247Y54500D02*
X-29127D01*
X-29187Y54440D02*
Y54560D01*
X-38320Y59500D02*
X-38200D01*
X-38260Y59440D02*
Y59560D01*
X-35820Y60300D02*
X-35700D01*
X-35760Y60240D02*
Y60360D01*
X-30520Y47500D02*
X-30400D01*
X-30460Y47440D02*
Y47560D01*
X-29247Y47500D02*
X-29127D01*
X-29187Y47440D02*
Y47560D01*
X-35820Y53300D02*
X-35700D01*
X-35760Y53240D02*
Y53360D01*
X-30520Y40500D02*
X-30400D01*
X-30460Y40440D02*
Y40560D01*
X-29247Y40500D02*
X-29127D01*
X-29187Y40440D02*
Y40560D01*
X-38320Y45500D02*
X-38200D01*
X-38260Y45440D02*
Y45560D01*
X-35820Y46300D02*
X-35700D01*
X-35760Y46240D02*
Y46360D01*
X-29247Y33500D02*
X-29127D01*
X-29187Y33440D02*
Y33560D01*
X-38320Y38500D02*
X-38200D01*
X-38260Y38440D02*
Y38560D01*
X-35820Y39300D02*
X-35700D01*
X-35760Y39240D02*
Y39360D01*
X-30520Y26500D02*
X-30400D01*
X-30460Y26440D02*
Y26560D01*
X-29247Y26500D02*
X-29127D01*
X-29187Y26440D02*
Y26560D01*
X-38320Y31500D02*
X-38200D01*
X-38260Y31440D02*
Y31560D01*
X-35820Y32300D02*
X-35700D01*
X-35760Y32240D02*
Y32360D01*
X-30520Y19500D02*
X-30400D01*
X-30460Y19440D02*
Y19560D01*
X-29247Y19500D02*
X-29127D01*
X-29187Y19440D02*
Y19560D01*
X-38320Y24500D02*
X-38200D01*
X-38260Y24440D02*
Y24560D01*
X-35820Y25300D02*
X-35700D01*
X-35760Y25240D02*
Y25360D01*
X-35820Y18300D02*
X-35700D01*
X-35760Y18240D02*
Y18360D01*
X-38320Y17500D02*
X-38200D01*
X-38260Y17440D02*
Y17560D01*
X-29247Y12500D02*
X-29127D01*
X-29187Y12440D02*
Y12560D01*
X-30520Y12500D02*
X-30400D01*
X-30460Y12440D02*
Y12560D01*
X-34733Y64277D02*
X-34613D01*
X-34673Y64217D02*
Y64337D01*
X-34720Y65285D02*
X-34600D01*
X-34660Y65225D02*
Y65345D01*
X-34733Y57277D02*
X-34613D01*
X-34673Y57217D02*
Y57337D01*
X-34720Y58285D02*
X-34600D01*
X-34660Y58225D02*
Y58345D01*
X-34733Y50277D02*
X-34613D01*
X-34673Y50217D02*
Y50337D01*
X-34720Y51285D02*
X-34600D01*
X-34660Y51225D02*
Y51345D01*
X-34733Y43277D02*
X-34613D01*
X-34673Y43217D02*
Y43337D01*
X-34720Y44285D02*
X-34600D01*
X-34660Y44225D02*
Y44345D01*
X-34733Y36277D02*
X-34613D01*
X-34673Y36217D02*
Y36337D01*
X-34720Y37285D02*
X-34600D01*
X-34660Y37225D02*
Y37345D01*
X-34733Y29277D02*
X-34613D01*
X-34673Y29217D02*
Y29337D01*
X-34720Y30285D02*
X-34600D01*
X-34660Y30225D02*
Y30345D01*
X-34733Y22277D02*
X-34613D01*
X-34673Y22217D02*
Y22337D01*
X-34720Y23285D02*
X-34600D01*
X-34660Y23225D02*
Y23345D01*
X-34720Y16285D02*
X-34600D01*
X-34660Y16225D02*
Y16345D01*
X-70161Y51000D02*
X-70041D01*
X-70101Y50940D02*
Y51060D01*
X-69846Y50631D02*
X-69726D01*
X-69786Y50571D02*
Y50691D01*
X-70476Y50631D02*
X-70356D01*
X-70416Y50571D02*
Y50691D01*
X-34733Y15277D02*
X-34613D01*
X-34673Y15217D02*
Y15337D01*
X-38300Y63495D02*
X-38220D01*
X-38260Y63455D02*
Y63535D01*
X-38300Y64021D02*
X-38220D01*
X-38260Y63981D02*
Y64061D01*
X-38300Y64533D02*
X-38220D01*
X-38260Y64493D02*
Y64573D01*
X-38300Y65557D02*
X-38220D01*
X-38260Y65517D02*
Y65597D01*
X-38300Y56495D02*
X-38220D01*
X-38260Y56455D02*
Y56535D01*
X-38300Y57021D02*
X-38220D01*
X-38260Y56981D02*
Y57061D01*
X-38300Y57533D02*
X-38220D01*
X-38260Y57493D02*
Y57573D01*
X-38300Y58557D02*
X-38220D01*
X-38260Y58517D02*
Y58597D01*
X-38300Y49495D02*
X-38220D01*
X-38260Y49455D02*
Y49535D01*
X-38300Y50021D02*
X-38220D01*
X-38260Y49981D02*
Y50061D01*
X-38300Y50533D02*
X-38220D01*
X-38260Y50493D02*
Y50573D01*
X-38300Y51557D02*
X-38220D01*
X-38260Y51517D02*
Y51597D01*
X-38300Y42495D02*
X-38220D01*
X-38260Y42455D02*
Y42535D01*
X-38300Y43021D02*
X-38220D01*
X-38260Y42981D02*
Y43061D01*
X-38300Y43533D02*
X-38220D01*
X-38260Y43493D02*
Y43573D01*
X-38300Y44557D02*
X-38220D01*
X-38260Y44517D02*
Y44597D01*
X-38300Y35495D02*
X-38220D01*
X-38260Y35455D02*
Y35535D01*
X-38300Y36021D02*
X-38220D01*
X-38260Y35981D02*
Y36061D01*
X-38300Y36533D02*
X-38220D01*
X-38260Y36493D02*
Y36573D01*
X-38300Y37557D02*
X-38220D01*
X-38260Y37517D02*
Y37597D01*
X-38300Y28495D02*
X-38220D01*
X-38260Y28455D02*
Y28535D01*
X-38300Y29021D02*
X-38220D01*
X-38260Y28981D02*
Y29061D01*
X-38300Y29533D02*
X-38220D01*
X-38260Y29493D02*
Y29573D01*
X-38300Y30557D02*
X-38220D01*
X-38260Y30517D02*
Y30597D01*
X-38300Y21495D02*
X-38220D01*
X-38260Y21455D02*
Y21535D01*
X-38300Y22021D02*
X-38220D01*
X-38260Y21981D02*
Y22061D01*
X-38300Y22533D02*
X-38220D01*
X-38260Y22493D02*
Y22573D01*
X-38300Y23557D02*
X-38220D01*
X-38260Y23517D02*
Y23597D01*
X-34300Y65557D02*
X-34220D01*
X-34260Y65517D02*
Y65597D01*
X-34300Y64533D02*
X-34220D01*
X-34260Y64493D02*
Y64573D01*
X-34300Y64021D02*
X-34220D01*
X-34260Y63981D02*
Y64061D01*
X-34300Y63510D02*
X-34220D01*
X-34260Y63470D02*
Y63550D01*
X-34300Y58557D02*
X-34220D01*
X-34260Y58517D02*
Y58597D01*
X-34300Y57533D02*
X-34220D01*
X-34260Y57493D02*
Y57573D01*
X-34300Y57021D02*
X-34220D01*
X-34260Y56981D02*
Y57061D01*
X-34300Y56510D02*
X-34220D01*
X-34260Y56470D02*
Y56550D01*
X-34300Y51557D02*
X-34220D01*
X-34260Y51517D02*
Y51597D01*
X-34300Y50533D02*
X-34220D01*
X-34260Y50493D02*
Y50573D01*
X-34300Y50021D02*
X-34220D01*
X-34260Y49981D02*
Y50061D01*
X-34300Y49510D02*
X-34220D01*
X-34260Y49470D02*
Y49550D01*
X-34300Y44557D02*
X-34220D01*
X-34260Y44517D02*
Y44597D01*
X-34300Y43533D02*
X-34220D01*
X-34260Y43493D02*
Y43573D01*
X-34300Y43021D02*
X-34220D01*
X-34260Y42981D02*
Y43061D01*
X-34300Y42510D02*
X-34220D01*
X-34260Y42470D02*
Y42550D01*
X-34300Y37557D02*
X-34220D01*
X-34260Y37517D02*
Y37597D01*
X-34300Y36533D02*
X-34220D01*
X-34260Y36493D02*
Y36573D01*
X-34300Y36021D02*
X-34220D01*
X-34260Y35981D02*
Y36061D01*
X-34300Y35510D02*
X-34220D01*
X-34260Y35470D02*
Y35550D01*
X-34300Y30557D02*
X-34220D01*
X-34260Y30517D02*
Y30597D01*
X-34300Y29533D02*
X-34220D01*
X-34260Y29493D02*
Y29573D01*
X-34300Y29021D02*
X-34220D01*
X-34260Y28981D02*
Y29061D01*
X-34300Y28510D02*
X-34220D01*
X-34260Y28470D02*
Y28550D01*
X-34300Y23557D02*
X-34220D01*
X-34260Y23517D02*
Y23597D01*
X-34300Y22533D02*
X-34220D01*
X-34260Y22493D02*
Y22573D01*
X-34300Y22021D02*
X-34220D01*
X-34260Y21981D02*
Y22061D01*
X-34300Y21510D02*
X-34220D01*
X-34260Y21470D02*
Y21550D01*
X-38300Y16557D02*
X-38220D01*
X-38260Y16517D02*
Y16597D01*
X-38300Y15533D02*
X-38220D01*
X-38260Y15493D02*
Y15573D01*
X-38300Y15021D02*
X-38220D01*
X-38260Y14981D02*
Y15061D01*
X-38300Y14495D02*
X-38220D01*
X-38260Y14455D02*
Y14535D01*
X-34300Y14510D02*
X-34220D01*
X-34260Y14470D02*
Y14550D01*
X-34300Y15021D02*
X-34220D01*
X-34260Y14981D02*
Y15061D01*
X-34300Y15533D02*
X-34220D01*
X-34260Y15493D02*
Y15573D01*
X-34300Y16557D02*
X-34220D01*
X-34260Y16517D02*
Y16597D01*
X-66696Y46100D02*
X-66576D01*
X-66636Y46040D02*
Y46160D01*
X-66066Y46100D02*
X-65946D01*
X-66006Y46040D02*
Y46160D01*
X-65751Y46500D02*
X-65631D01*
X-65691Y46440D02*
Y46560D01*
X-67011Y46500D02*
X-66891D01*
X-66951Y46440D02*
Y46560D01*
X-69531Y46500D02*
X-69411D01*
X-69471Y46440D02*
Y46560D01*
X-69216Y46100D02*
X-69096D01*
X-69156Y46040D02*
Y46160D01*
X-68271Y46500D02*
X-68151D01*
X-68211Y46440D02*
Y46560D01*
X-68586Y46100D02*
X-68466D01*
X-68526Y46040D02*
Y46160D01*
X-68901Y46500D02*
X-68781D01*
X-68841Y46440D02*
Y46560D01*
X-67956Y46100D02*
X-67836D01*
X-67896Y46040D02*
Y46160D01*
X-70790Y46500D02*
X-70670D01*
X-70730Y46440D02*
Y46560D01*
X-60712Y46500D02*
X-60592D01*
X-60652Y46440D02*
Y46560D01*
X-64806Y46100D02*
X-64686D01*
X-64746Y46040D02*
Y46160D01*
X-60082Y46500D02*
X-59962D01*
X-60022Y46440D02*
Y46560D01*
X-60397Y46100D02*
X-60277D01*
X-60337Y46040D02*
Y46160D01*
X-61027Y46100D02*
X-60907D01*
X-60967Y46040D02*
Y46160D01*
X-61342Y46500D02*
X-61222D01*
X-61282Y46440D02*
Y46560D01*
X-61657Y46100D02*
X-61537D01*
X-61597Y46040D02*
Y46160D01*
X-61972Y46500D02*
X-61852D01*
X-61912Y46440D02*
Y46560D01*
X-62287Y46100D02*
X-62167D01*
X-62227Y46040D02*
Y46160D01*
X-62601Y46500D02*
X-62481D01*
X-62541Y46440D02*
Y46560D01*
X-62916Y46100D02*
X-62796D01*
X-62856Y46040D02*
Y46160D01*
X-63231Y46500D02*
X-63111D01*
X-63171Y46440D02*
Y46560D01*
X-63546Y46100D02*
X-63426D01*
X-63486Y46040D02*
Y46160D01*
X-63861Y46500D02*
X-63741D01*
X-63801Y46440D02*
Y46560D01*
X-64176Y46100D02*
X-64056D01*
X-64116Y46040D02*
Y46160D01*
X-64491Y46500D02*
X-64371D01*
X-64431Y46440D02*
Y46560D01*
X-65121Y46500D02*
X-65001D01*
X-65061Y46440D02*
Y46560D01*
X-65436Y46100D02*
X-65316D01*
X-65376Y46040D02*
Y46160D01*
X-70476Y46100D02*
X-70356D01*
X-70416Y46040D02*
Y46160D01*
X-70161Y46500D02*
X-70041D01*
X-70101Y46440D02*
Y46560D01*
X-67641Y46500D02*
X-67521D01*
X-67581Y46440D02*
Y46560D01*
X-67326Y46100D02*
X-67206D01*
X-67266Y46040D02*
Y46160D01*
X-66381Y46500D02*
X-66261D01*
X-66321Y46440D02*
Y46560D01*
X-9812Y60910D02*
X-8868D01*
X-9340Y60438D02*
Y61382D01*
X-21950Y64600D02*
X-21550D01*
X-21750Y64400D02*
Y64800D01*
X-21950Y65600D02*
X-21550D01*
X-21750Y65400D02*
Y65800D01*
X-21950Y66600D02*
X-21550D01*
X-21750Y66400D02*
Y66800D01*
X-21950Y67600D02*
X-21550D01*
X-21750Y67400D02*
Y67800D01*
X-21950Y68600D02*
X-21550D01*
X-21750Y68400D02*
Y68800D01*
X-21950Y69600D02*
X-21550D01*
X-21750Y69400D02*
Y69800D01*
X-21950Y70600D02*
X-21550D01*
X-21750Y70400D02*
Y70800D01*
X-21950Y71600D02*
X-21550D01*
X-21750Y71400D02*
Y71800D01*
X-20950Y71600D02*
X-20550D01*
X-20750Y71400D02*
Y71800D01*
X-20950Y70600D02*
X-20550D01*
X-20750Y70400D02*
Y70800D01*
X-20950Y69600D02*
X-20550D01*
X-20750Y69400D02*
Y69800D01*
X-20950Y68600D02*
X-20550D01*
X-20750Y68400D02*
Y68800D01*
X-20950Y67600D02*
X-20550D01*
X-20750Y67400D02*
Y67800D01*
X-20950Y66600D02*
X-20550D01*
X-20750Y66400D02*
Y66800D01*
X-20950Y65600D02*
X-20550D01*
X-20750Y65400D02*
Y65800D01*
X-20950Y64600D02*
X-20550D01*
X-20750Y64400D02*
Y64800D01*
X-18450Y64600D02*
X-18050D01*
X-18250Y64400D02*
Y64800D01*
X-18450Y65600D02*
X-18050D01*
X-18250Y65400D02*
Y65800D01*
X-18450Y66600D02*
X-18050D01*
X-18250Y66400D02*
Y66800D01*
X-18450Y67600D02*
X-18050D01*
X-18250Y67400D02*
Y67800D01*
X-18450Y68600D02*
X-18050D01*
X-18250Y68400D02*
Y68800D01*
X-18450Y69600D02*
X-18050D01*
X-18250Y69400D02*
Y69800D01*
X-18450Y70600D02*
X-18050D01*
X-18250Y70400D02*
Y70800D01*
X-18450Y71600D02*
X-18050D01*
X-18250Y71400D02*
Y71800D01*
X-17450Y71600D02*
X-17050D01*
X-17250Y71400D02*
Y71800D01*
X-17450Y70600D02*
X-17050D01*
X-17250Y70400D02*
Y70800D01*
X-17450Y69600D02*
X-17050D01*
X-17250Y69400D02*
Y69800D01*
X-17450Y68600D02*
X-17050D01*
X-17250Y68400D02*
Y68800D01*
X-17450Y67600D02*
X-17050D01*
X-17250Y67400D02*
Y67800D01*
X-17450Y66600D02*
X-17050D01*
X-17250Y66400D02*
Y66800D01*
X-17450Y65600D02*
X-17050D01*
X-17250Y65400D02*
Y65800D01*
X-17450Y64600D02*
X-17050D01*
X-17250Y64400D02*
Y64800D01*
X-14950Y64600D02*
X-14550D01*
X-14750Y64400D02*
Y64800D01*
X-14950Y65600D02*
X-14550D01*
X-14750Y65400D02*
Y65800D01*
X-14950Y66600D02*
X-14550D01*
X-14750Y66400D02*
Y66800D01*
X-14950Y67600D02*
X-14550D01*
X-14750Y67400D02*
Y67800D01*
X-14950Y68600D02*
X-14550D01*
X-14750Y68400D02*
Y68800D01*
X-14950Y69600D02*
X-14550D01*
X-14750Y69400D02*
Y69800D01*
X-14950Y70600D02*
X-14550D01*
X-14750Y70400D02*
Y70800D01*
X-14950Y71600D02*
X-14550D01*
X-14750Y71400D02*
Y71800D01*
X-13950Y71600D02*
X-13550D01*
X-13750Y71400D02*
Y71800D01*
X-13950Y70600D02*
X-13550D01*
X-13750Y70400D02*
Y70800D01*
X-13950Y69600D02*
X-13550D01*
X-13750Y69400D02*
Y69800D01*
X-13950Y68600D02*
X-13550D01*
X-13750Y68400D02*
Y68800D01*
X-13950Y67600D02*
X-13550D01*
X-13750Y67400D02*
Y67800D01*
X-13950Y66600D02*
X-13550D01*
X-13750Y66400D02*
Y66800D01*
X-13950Y65600D02*
X-13550D01*
X-13750Y65400D02*
Y65800D01*
X-13950Y64600D02*
X-13550D01*
X-13750Y64400D02*
Y64800D01*
X-11450Y64600D02*
X-11050D01*
X-11250Y64400D02*
Y64800D01*
X-11450Y65600D02*
X-11050D01*
X-11250Y65400D02*
Y65800D01*
X-11450Y66600D02*
X-11050D01*
X-11250Y66400D02*
Y66800D01*
X-11450Y67600D02*
X-11050D01*
X-11250Y67400D02*
Y67800D01*
X-11450Y68600D02*
X-11050D01*
X-11250Y68400D02*
Y68800D01*
X-11450Y69600D02*
X-11050D01*
X-11250Y69400D02*
Y69800D01*
X-11450Y70600D02*
X-11050D01*
X-11250Y70400D02*
Y70800D01*
X-11450Y71600D02*
X-11050D01*
X-11250Y71400D02*
Y71800D01*
X-10450Y71600D02*
X-10050D01*
X-10250Y71400D02*
Y71800D01*
X-10450Y70600D02*
X-10050D01*
X-10250Y70400D02*
Y70800D01*
X-10450Y69600D02*
X-10050D01*
X-10250Y69400D02*
Y69800D01*
X-10450Y68600D02*
X-10050D01*
X-10250Y68400D02*
Y68800D01*
X-10450Y67600D02*
X-10050D01*
X-10250Y67400D02*
Y67800D01*
X-10450Y66600D02*
X-10050D01*
X-10250Y66400D02*
Y66800D01*
X-10450Y65600D02*
X-10050D01*
X-10250Y65400D02*
Y65800D01*
X-10450Y64600D02*
X-10050D01*
X-10250Y64400D02*
Y64800D01*
X-21810Y60350D02*
X-21690D01*
X-21750Y60290D02*
Y60410D01*
X-23060Y62100D02*
X-22940D01*
X-23000Y62040D02*
Y62160D01*
X-23060Y71600D02*
X-22940D01*
X-23000Y71540D02*
Y71660D01*
X-19560Y71600D02*
X-19440D01*
X-19500Y71540D02*
Y71660D01*
X-16060Y71600D02*
X-15940D01*
X-16000Y71540D02*
Y71660D01*
X-12560Y71600D02*
X-12440D01*
X-12500Y71540D02*
Y71660D01*
X-9060Y71600D02*
X-8940D01*
X-9000Y71540D02*
Y71660D01*
X-9060Y62600D02*
X-8940D01*
X-9000Y62540D02*
Y62660D01*
M02*
