M48
;Layer_Color=9474304
;FILE_FORMAT=2:4
INCH,LZ
;TYPE=PLATED
T03F00S00C0.0197
;TYPE=NON_PLATED
T10F00S00C0.0256
%
G90
G05
T03
G00X067065Y014282
M15
G01X066829
M16
G00X067065Y017818
M15
G01X066829
M16
G00X065337Y017676
M15
G01X0651
M16
G00X065337Y014424
M15
G01X0651
M16
G00X065337Y021424
M15
G01X0651
M16
G00X065337Y024676
M15
G01X0651
M16
G00X065337Y028424
M15
G01X0651
M16
G00X065337Y031676
M15
G01X0651
M16
G00X067065Y031818
M15
G01X066829
M16
G00X067065Y028282
M15
G01X066829
M16
G00X067065Y024818
M15
G01X066829
M16
G00X067065Y021282
M15
G01X066829
M16
G00X067065Y035282
M15
G01X066829
M16
G00X067065Y038818
M15
G01X066829
M16
G00X067065Y042282
M15
G01X066829
M16
G00X067065Y045818
M15
G01X066829
M16
G00X067065Y049282
M15
G01X066829
M16
G00X065337Y049424
M15
G01X0651
M16
G00X065337Y045676
M15
G01X0651
M16
G00X065337Y042424
M15
G01X0651
M16
G00X065337Y038676
M15
G01X0651
M16
G00X065337Y035424
M15
G01X0651
M16
G00X065337Y052676
M15
G01X0651
M16
G00X065337Y056424
M15
G01X0651
M16
G00X065337Y059676
M15
G01X0651
M16
G00X065337Y063424
M15
G01X0651
M16
G00X067065Y063282
M15
G01X066829
M16
G00X067065Y059818
M15
G01X066829
M16
G00X067065Y056282
M15
G01X066829
M16
G00X067065Y052818
M15
G01X066829
M16
G00X067065Y066818
M15
G01X066829
M16
G00X065337Y066676
M15
G01X0651
M16
T10
G00X064726Y017408
M15
G01Y017526
M16
G00X064726Y024408
M15
G01Y024526
M16
G00X064726Y031408
M15
G01Y031526
M16
G00X064726Y038408
M15
G01Y038526
M16
G00X064726Y045408
M15
G01Y045526
M16
G00X064726Y052408
M15
G01Y052526
M16
G00X064726Y059408
M15
G01Y059526
M16
G00X064726Y066408
M15
G01Y066526
M16
M17
M30
