G04*
G04 #@! TF.GenerationSoftware,Altium Limited,Altium Designer,25.8.1 (18)*
G04*
G04 Layer_Physical_Order=3*
G04 Layer_Color=128*
%FSLAX24Y24*%
%MOIN*%
G70*
G04*
G04 #@! TF.SameCoordinates,CD40245A-48BA-4A84-B8B0-26606E374D52*
G04*
G04*
G04 #@! TF.FilePolarity,Negative*
G04*
G01*
G75*
%ADD39C,0.0400*%
%ADD40C,0.1104*%
G04:AMPARAMS|DCode=41|XSize=154.488mil|YSize=154.488mil|CornerRadius=0mil|HoleSize=0mil|Usage=FLASHONLY|Rotation=0.000|XOffset=0mil|YOffset=0mil|HoleType=Round|Shape=Relief|Width=10mil|Gap=10mil|Entries=4|*
%AMTHD41*
7,0,0,0.1545,0.1345,0.0100,45*
%
%ADD41THD41*%
%ADD42C,0.0520*%
G04:AMPARAMS|DCode=43|XSize=47.37mil|YSize=47.37mil|CornerRadius=0mil|HoleSize=0mil|Usage=FLASHONLY|Rotation=0.000|XOffset=0mil|YOffset=0mil|HoleType=Round|Shape=Relief|Width=4mil|Gap=4mil|Entries=4|*
%AMTHD43*
7,0,0,0.0474,0.0394,0.0040,45*
%
%ADD43THD43*%
%ADD44C,0.0237*%
%ADD46O,0.0336X0.0454*%
%ADD47C,0.0336*%
%ADD48R,0.0710X0.0474*%
%ADD50R,0.0474X0.0710*%
%ADD51C,0.0480*%
%ADD52C,0.0489*%
G04:AMPARAMS|DCode=53|XSize=72.567mil|YSize=72.567mil|CornerRadius=0mil|HoleSize=0mil|Usage=FLASHONLY|Rotation=0.000|XOffset=0mil|YOffset=0mil|HoleType=Round|Shape=Relief|Width=4mil|Gap=4mil|Entries=4|*
%AMTHD53*
7,0,0,0.0726,0.0646,0.0040,45*
%
%ADD53THD53*%
%ADD54C,0.1064*%
%ADD55C,0.0200*%
%ADD56O,0.0513X0.0277*%
D39*
X0Y0D02*
Y81100D01*
X95060D01*
Y0D02*
Y81100D01*
X0Y0D02*
X95060D01*
X71060Y8000D02*
X87060D01*
Y22000D01*
X71060D02*
X87060D01*
X71060Y8000D02*
Y22000D01*
Y25000D02*
X87060D01*
Y39000D01*
X71060D02*
X87060D01*
X71060Y25000D02*
Y39000D01*
Y42100D02*
X87060D01*
Y56100D01*
X71060D02*
X87060D01*
X71060Y42100D02*
Y56100D01*
Y59100D02*
X87060D01*
Y73100D01*
X71060D02*
X87060D01*
X71060Y59100D02*
Y73100D01*
X8000Y8000D02*
X67800D01*
Y73100D01*
X8000D02*
X67800D01*
X8000Y8000D02*
Y73100D01*
D40*
X4000Y4000D02*
D03*
Y77100D02*
D03*
X91060D02*
D03*
Y4000D02*
D03*
D41*
X85720Y9810D02*
D03*
Y26810D02*
D03*
Y43910D02*
D03*
Y60910D02*
D03*
D42*
X73310Y13500D02*
D03*
Y14500D02*
D03*
Y15500D02*
D03*
Y16500D02*
D03*
Y17500D02*
D03*
Y18500D02*
D03*
Y19500D02*
D03*
Y20500D02*
D03*
X74310D02*
D03*
Y19500D02*
D03*
Y18500D02*
D03*
Y17500D02*
D03*
Y16500D02*
D03*
Y15500D02*
D03*
Y14500D02*
D03*
Y13500D02*
D03*
X76810D02*
D03*
Y14500D02*
D03*
Y15500D02*
D03*
Y16500D02*
D03*
Y17500D02*
D03*
Y18500D02*
D03*
Y19500D02*
D03*
Y20500D02*
D03*
X77810D02*
D03*
Y19500D02*
D03*
Y18500D02*
D03*
Y17500D02*
D03*
Y16500D02*
D03*
Y15500D02*
D03*
Y14500D02*
D03*
Y13500D02*
D03*
X80310D02*
D03*
Y14500D02*
D03*
Y15500D02*
D03*
Y16500D02*
D03*
Y17500D02*
D03*
Y18500D02*
D03*
Y19500D02*
D03*
Y20500D02*
D03*
X81310D02*
D03*
Y19500D02*
D03*
Y18500D02*
D03*
Y17500D02*
D03*
Y16500D02*
D03*
Y15500D02*
D03*
Y14500D02*
D03*
Y13500D02*
D03*
X83810D02*
D03*
Y14500D02*
D03*
Y15500D02*
D03*
Y16500D02*
D03*
Y17500D02*
D03*
Y18500D02*
D03*
Y19500D02*
D03*
Y20500D02*
D03*
X84810D02*
D03*
Y19500D02*
D03*
Y18500D02*
D03*
Y17500D02*
D03*
Y16500D02*
D03*
Y15500D02*
D03*
Y14500D02*
D03*
Y13500D02*
D03*
X73310Y30500D02*
D03*
Y31500D02*
D03*
Y32500D02*
D03*
Y33500D02*
D03*
Y34500D02*
D03*
Y35500D02*
D03*
Y36500D02*
D03*
Y37500D02*
D03*
X74310D02*
D03*
Y36500D02*
D03*
Y35500D02*
D03*
Y34500D02*
D03*
Y33500D02*
D03*
Y32500D02*
D03*
Y31500D02*
D03*
Y30500D02*
D03*
X76810D02*
D03*
Y31500D02*
D03*
Y32500D02*
D03*
Y33500D02*
D03*
Y34500D02*
D03*
Y35500D02*
D03*
Y36500D02*
D03*
Y37500D02*
D03*
X77810D02*
D03*
Y36500D02*
D03*
Y35500D02*
D03*
Y34500D02*
D03*
Y33500D02*
D03*
Y32500D02*
D03*
Y31500D02*
D03*
Y30500D02*
D03*
X80310D02*
D03*
Y31500D02*
D03*
Y32500D02*
D03*
Y33500D02*
D03*
Y34500D02*
D03*
Y35500D02*
D03*
Y36500D02*
D03*
Y37500D02*
D03*
X81310D02*
D03*
Y36500D02*
D03*
Y35500D02*
D03*
Y34500D02*
D03*
Y33500D02*
D03*
Y32500D02*
D03*
Y31500D02*
D03*
Y30500D02*
D03*
X83810D02*
D03*
Y31500D02*
D03*
Y32500D02*
D03*
Y33500D02*
D03*
Y34500D02*
D03*
Y35500D02*
D03*
Y36500D02*
D03*
Y37500D02*
D03*
X84810D02*
D03*
Y36500D02*
D03*
Y35500D02*
D03*
Y34500D02*
D03*
Y33500D02*
D03*
Y32500D02*
D03*
Y31500D02*
D03*
Y30500D02*
D03*
X73310Y47600D02*
D03*
Y48600D02*
D03*
Y49600D02*
D03*
Y50600D02*
D03*
Y51600D02*
D03*
Y52600D02*
D03*
Y53600D02*
D03*
Y54600D02*
D03*
X74310D02*
D03*
Y53600D02*
D03*
Y52600D02*
D03*
Y51600D02*
D03*
Y50600D02*
D03*
Y49600D02*
D03*
Y48600D02*
D03*
Y47600D02*
D03*
X76810D02*
D03*
Y48600D02*
D03*
Y49600D02*
D03*
Y50600D02*
D03*
Y51600D02*
D03*
Y52600D02*
D03*
Y53600D02*
D03*
Y54600D02*
D03*
X77810D02*
D03*
Y53600D02*
D03*
Y52600D02*
D03*
Y51600D02*
D03*
Y50600D02*
D03*
Y49600D02*
D03*
Y48600D02*
D03*
Y47600D02*
D03*
X80310D02*
D03*
Y48600D02*
D03*
Y49600D02*
D03*
Y50600D02*
D03*
Y51600D02*
D03*
Y52600D02*
D03*
Y53600D02*
D03*
Y54600D02*
D03*
X81310D02*
D03*
Y53600D02*
D03*
Y52600D02*
D03*
Y51600D02*
D03*
Y50600D02*
D03*
Y49600D02*
D03*
Y48600D02*
D03*
Y47600D02*
D03*
X83810D02*
D03*
Y48600D02*
D03*
Y49600D02*
D03*
Y50600D02*
D03*
Y51600D02*
D03*
Y52600D02*
D03*
Y53600D02*
D03*
Y54600D02*
D03*
X84810D02*
D03*
Y53600D02*
D03*
Y52600D02*
D03*
Y51600D02*
D03*
Y50600D02*
D03*
Y49600D02*
D03*
Y48600D02*
D03*
Y47600D02*
D03*
X73310Y64600D02*
D03*
Y65600D02*
D03*
Y66600D02*
D03*
Y67600D02*
D03*
Y68600D02*
D03*
Y69600D02*
D03*
Y70600D02*
D03*
Y71600D02*
D03*
X74310D02*
D03*
Y70600D02*
D03*
Y69600D02*
D03*
Y68600D02*
D03*
Y67600D02*
D03*
Y66600D02*
D03*
Y65600D02*
D03*
Y64600D02*
D03*
X76810D02*
D03*
Y65600D02*
D03*
Y66600D02*
D03*
Y67600D02*
D03*
Y68600D02*
D03*
Y69600D02*
D03*
Y70600D02*
D03*
Y71600D02*
D03*
X77810D02*
D03*
Y70600D02*
D03*
Y69600D02*
D03*
Y68600D02*
D03*
Y67600D02*
D03*
Y66600D02*
D03*
Y65600D02*
D03*
Y64600D02*
D03*
X80310D02*
D03*
Y65600D02*
D03*
Y66600D02*
D03*
Y67600D02*
D03*
Y68600D02*
D03*
Y69600D02*
D03*
Y70600D02*
D03*
Y71600D02*
D03*
X81310D02*
D03*
Y70600D02*
D03*
Y69600D02*
D03*
Y68600D02*
D03*
Y67600D02*
D03*
Y66600D02*
D03*
Y65600D02*
D03*
Y64600D02*
D03*
X83810D02*
D03*
Y65600D02*
D03*
Y66600D02*
D03*
Y67600D02*
D03*
Y68600D02*
D03*
Y69600D02*
D03*
Y70600D02*
D03*
Y71600D02*
D03*
X84810D02*
D03*
Y70600D02*
D03*
Y69600D02*
D03*
Y68600D02*
D03*
Y67600D02*
D03*
Y66600D02*
D03*
Y65600D02*
D03*
Y64600D02*
D03*
D43*
X64982Y64578D02*
D03*
Y65522D02*
D03*
Y57578D02*
D03*
Y58522D02*
D03*
Y50578D02*
D03*
Y51522D02*
D03*
Y43578D02*
D03*
Y44522D02*
D03*
Y36578D02*
D03*
Y37522D02*
D03*
Y29578D02*
D03*
Y30522D02*
D03*
Y22578D02*
D03*
Y23522D02*
D03*
Y15578D02*
D03*
Y16522D02*
D03*
D44*
Y63948D02*
D03*
X65258Y64105D02*
D03*
Y64420D02*
D03*
Y64735D02*
D03*
X64982Y64893D02*
D03*
Y65207D02*
D03*
X65258Y65365D02*
D03*
Y65680D02*
D03*
Y65995D02*
D03*
X64982Y66152D02*
D03*
Y56948D02*
D03*
X65258Y57105D02*
D03*
Y57420D02*
D03*
Y57735D02*
D03*
X64982Y57893D02*
D03*
Y58207D02*
D03*
X65258Y58365D02*
D03*
Y58680D02*
D03*
Y58995D02*
D03*
X64982Y59152D02*
D03*
Y49948D02*
D03*
X65258Y50105D02*
D03*
Y50420D02*
D03*
Y50735D02*
D03*
X64982Y50893D02*
D03*
Y51207D02*
D03*
X65258Y51365D02*
D03*
Y51680D02*
D03*
Y51995D02*
D03*
X64982Y52152D02*
D03*
Y42948D02*
D03*
X65258Y43105D02*
D03*
Y43420D02*
D03*
Y43735D02*
D03*
X64982Y43893D02*
D03*
Y44207D02*
D03*
X65258Y44365D02*
D03*
Y44680D02*
D03*
Y44995D02*
D03*
X64982Y45152D02*
D03*
Y35948D02*
D03*
X65258Y36105D02*
D03*
Y36420D02*
D03*
Y36735D02*
D03*
X64982Y36893D02*
D03*
Y37207D02*
D03*
X65258Y37365D02*
D03*
Y37680D02*
D03*
Y37995D02*
D03*
X64982Y38152D02*
D03*
Y28948D02*
D03*
X65258Y29105D02*
D03*
Y29420D02*
D03*
Y29735D02*
D03*
X64982Y29893D02*
D03*
Y30207D02*
D03*
X65258Y30365D02*
D03*
Y30680D02*
D03*
Y30995D02*
D03*
X64982Y31152D02*
D03*
Y21948D02*
D03*
X65258Y22105D02*
D03*
Y22420D02*
D03*
Y22735D02*
D03*
X64982Y22893D02*
D03*
Y23207D02*
D03*
X65258Y23365D02*
D03*
Y23680D02*
D03*
Y23995D02*
D03*
X64982Y24152D02*
D03*
Y14948D02*
D03*
X65258Y15105D02*
D03*
Y15420D02*
D03*
Y15735D02*
D03*
X64982Y15893D02*
D03*
Y16207D02*
D03*
X65258Y16365D02*
D03*
Y16680D02*
D03*
Y16995D02*
D03*
X64982Y17152D02*
D03*
D46*
X64726Y66467D02*
D03*
Y59467D02*
D03*
Y52467D02*
D03*
Y45467D02*
D03*
Y38467D02*
D03*
Y31467D02*
D03*
Y24467D02*
D03*
Y17467D02*
D03*
D47*
Y63633D02*
D03*
Y56633D02*
D03*
Y49633D02*
D03*
Y42633D02*
D03*
Y35633D02*
D03*
Y28633D02*
D03*
Y21633D02*
D03*
Y14633D02*
D03*
D48*
X12378Y63200D02*
D03*
D50*
X11197Y65050D02*
D03*
X13559D02*
D03*
D51*
X36396Y33475D02*
D03*
X22822D02*
D03*
X36396Y49223D02*
D03*
X22822D02*
D03*
D52*
X13000Y11550D02*
D03*
Y10550D02*
D03*
X14000Y11550D02*
D03*
Y10550D02*
D03*
X15000Y11550D02*
D03*
Y10550D02*
D03*
X16000Y11550D02*
D03*
Y10550D02*
D03*
X17000Y11550D02*
D03*
Y10550D02*
D03*
X18000Y11550D02*
D03*
Y10550D02*
D03*
X19000Y11550D02*
D03*
Y10550D02*
D03*
X20000Y11550D02*
D03*
Y10550D02*
D03*
X21000Y11550D02*
D03*
Y10550D02*
D03*
X22000Y11550D02*
D03*
Y10550D02*
D03*
X23000Y11550D02*
D03*
Y10550D02*
D03*
X24000Y11550D02*
D03*
Y10550D02*
D03*
X25000Y11550D02*
D03*
Y10550D02*
D03*
X26000Y11550D02*
D03*
Y10550D02*
D03*
X27000Y11550D02*
D03*
Y10550D02*
D03*
X28000Y11550D02*
D03*
X29000D02*
D03*
X30000D02*
D03*
X31000D02*
D03*
X32000D02*
D03*
X13000Y20550D02*
D03*
Y19550D02*
D03*
X14000Y20550D02*
D03*
Y19550D02*
D03*
X15000Y20550D02*
D03*
Y19550D02*
D03*
X16000Y20550D02*
D03*
Y19550D02*
D03*
X17000Y20550D02*
D03*
Y19550D02*
D03*
X18000Y20550D02*
D03*
Y19550D02*
D03*
X19000Y20550D02*
D03*
Y19550D02*
D03*
X20000Y20550D02*
D03*
Y19550D02*
D03*
X21000Y20550D02*
D03*
Y19550D02*
D03*
X22000Y20550D02*
D03*
Y19550D02*
D03*
X23000Y20550D02*
D03*
Y19550D02*
D03*
X24000Y20550D02*
D03*
Y19550D02*
D03*
X25000Y20550D02*
D03*
Y19550D02*
D03*
X26000Y20550D02*
D03*
Y19550D02*
D03*
X27000Y20550D02*
D03*
Y19550D02*
D03*
X28000Y20550D02*
D03*
Y19550D02*
D03*
X29000Y20550D02*
D03*
Y19550D02*
D03*
X30000Y20550D02*
D03*
Y19550D02*
D03*
X31000Y20550D02*
D03*
Y19550D02*
D03*
X32000Y20550D02*
D03*
Y19550D02*
D03*
X13000Y58550D02*
D03*
Y57550D02*
D03*
X14000Y58550D02*
D03*
Y57550D02*
D03*
X15000D02*
D03*
X17000Y58550D02*
D03*
Y57550D02*
D03*
X18000Y58550D02*
D03*
Y57550D02*
D03*
X19000Y58550D02*
D03*
Y57550D02*
D03*
X20000Y58550D02*
D03*
Y57550D02*
D03*
X21000Y58550D02*
D03*
Y57550D02*
D03*
X22000Y58550D02*
D03*
Y57550D02*
D03*
X23000Y58550D02*
D03*
Y57550D02*
D03*
X24000Y58550D02*
D03*
Y57550D02*
D03*
X25000Y58550D02*
D03*
Y57550D02*
D03*
X26000Y58550D02*
D03*
Y57550D02*
D03*
X27000Y58550D02*
D03*
Y57550D02*
D03*
X28000Y58550D02*
D03*
Y57550D02*
D03*
X29000Y58550D02*
D03*
Y57550D02*
D03*
X30000Y58550D02*
D03*
Y57550D02*
D03*
X31000Y58550D02*
D03*
Y57550D02*
D03*
X32000Y58550D02*
D03*
Y57550D02*
D03*
D53*
X28000Y10550D02*
D03*
X29000D02*
D03*
X30000D02*
D03*
X31000D02*
D03*
X32000D02*
D03*
X15000Y58550D02*
D03*
X16000D02*
D03*
Y57550D02*
D03*
D54*
X65300Y70600D02*
D03*
X10500D02*
D03*
X11300Y49211D02*
D03*
X38465D02*
D03*
Y31889D02*
D03*
X11300D02*
D03*
X65300Y10600D02*
D03*
X10500D02*
D03*
D55*
X51550Y52240D02*
D03*
X48626Y48078D02*
D03*
X43750Y43150D02*
D03*
X38630Y38100D02*
D03*
X35900Y39650D02*
D03*
X40900Y44700D02*
D03*
X46530Y50331D02*
D03*
X51950Y20334D02*
D03*
X64506Y60700D02*
D03*
Y53700D02*
D03*
Y46700D02*
D03*
Y39700D02*
D03*
Y32700D02*
D03*
Y25700D02*
D03*
X10500Y16190D02*
D03*
Y27050D02*
D03*
X34710Y10050D02*
D03*
X41470D02*
D03*
X50300D02*
D03*
X56960D02*
D03*
X62530D02*
D03*
X49600Y19310D02*
D03*
X44100Y22350D02*
D03*
X49700Y26850D02*
D03*
X45622Y28550D02*
D03*
X50600Y33126D02*
D03*
X41850Y35546D02*
D03*
X45400Y38530D02*
D03*
X49884Y40800D02*
D03*
X49600Y56950D02*
D03*
X48410Y65550D02*
D03*
X39230D02*
D03*
X43700Y60550D02*
D03*
X38500Y55550D02*
D03*
X43700Y51550D02*
D03*
X37830Y46110D02*
D03*
X34340Y42430D02*
D03*
X29452Y38450D02*
D03*
X26180Y36300D02*
D03*
X10500Y36920D02*
D03*
Y46150D02*
D03*
X17350D02*
D03*
X19400Y51450D02*
D03*
X13300Y53150D02*
D03*
X10500Y58130D02*
D03*
X29767Y61050D02*
D03*
X23240D02*
D03*
X16460D02*
D03*
X14720Y70550D02*
D03*
X20780D02*
D03*
X37760D02*
D03*
X44450D02*
D03*
X52840D02*
D03*
X59463D02*
D03*
X35751Y48380D02*
D03*
X35436Y48010D02*
D03*
X25357Y32262D02*
D03*
X23467Y35062D02*
D03*
X28822Y32632D02*
D03*
X31971Y32262D02*
D03*
X25357Y35062D02*
D03*
X60994Y66535D02*
D03*
X57900Y62078D02*
D03*
X57837Y65472D02*
D03*
X60994Y59535D02*
D03*
X57900Y55078D02*
D03*
X57837Y58472D02*
D03*
X60994Y52535D02*
D03*
X57900Y48078D02*
D03*
X57837Y51472D02*
D03*
X60994Y45535D02*
D03*
X57900Y41078D02*
D03*
X57837Y44472D02*
D03*
X60994Y38535D02*
D03*
X57900Y34078D02*
D03*
X57837Y37472D02*
D03*
X60994Y31535D02*
D03*
X57900Y27078D02*
D03*
X57837Y30472D02*
D03*
X64506Y18700D02*
D03*
X60994Y24535D02*
D03*
X57900Y20078D02*
D03*
X57837Y23472D02*
D03*
X60994Y17535D02*
D03*
X57837Y16472D02*
D03*
X57900Y13078D02*
D03*
X55450Y60650D02*
D03*
Y64484D02*
D03*
Y57484D02*
D03*
X54300Y64484D02*
D03*
Y60650D02*
D03*
Y57484D02*
D03*
X55450Y50484D02*
D03*
Y53650D02*
D03*
Y46650D02*
D03*
X54300Y50484D02*
D03*
Y53650D02*
D03*
Y46650D02*
D03*
X32650Y70850D02*
D03*
X31650D02*
D03*
X33656D02*
D03*
X30644D02*
D03*
X18250Y66694D02*
D03*
X15250Y66545D02*
D03*
X16750D02*
D03*
X54150Y63800D02*
D03*
Y49800D02*
D03*
Y56800D02*
D03*
X31971Y51150D02*
D03*
X28822Y50810D02*
D03*
X25357Y48380D02*
D03*
X23467Y48010D02*
D03*
X55450Y39650D02*
D03*
Y36484D02*
D03*
Y43484D02*
D03*
Y29484D02*
D03*
Y32650D02*
D03*
Y22484D02*
D03*
Y15484D02*
D03*
Y11650D02*
D03*
Y18650D02*
D03*
Y25650D02*
D03*
X54300Y39650D02*
D03*
Y43484D02*
D03*
Y36484D02*
D03*
X54150Y42800D02*
D03*
X54300Y32650D02*
D03*
Y29484D02*
D03*
X54150Y35800D02*
D03*
X54300Y25650D02*
D03*
Y22484D02*
D03*
Y15484D02*
D03*
Y11650D02*
D03*
Y18650D02*
D03*
X54150Y21800D02*
D03*
Y28800D02*
D03*
Y14800D02*
D03*
X32000Y62800D02*
D03*
X32630D02*
D03*
X31650Y63550D02*
D03*
Y65106D02*
D03*
X42100Y17090D02*
D03*
X41400Y17700D02*
D03*
X40460Y18790D02*
D03*
X39740Y19830D02*
D03*
X39050D02*
D03*
X38357D02*
D03*
X37630D02*
D03*
X34189Y19827D02*
D03*
X36920Y19830D02*
D03*
X36190D02*
D03*
X34800D02*
D03*
X26617Y32262D02*
D03*
X35500Y19830D02*
D03*
X33560D02*
D03*
X32990D02*
D03*
X24412Y32632D02*
D03*
X25042D02*
D03*
X24727Y32262D02*
D03*
X28507D02*
D03*
X30711D02*
D03*
X32916D02*
D03*
X34806D02*
D03*
X34491Y34692D02*
D03*
X32601D02*
D03*
X31971D02*
D03*
X30396D02*
D03*
X29452D02*
D03*
X28822D02*
D03*
X29137Y35062D02*
D03*
X28192Y34692D02*
D03*
X28507Y35062D02*
D03*
X27562Y34692D02*
D03*
X27877Y35062D02*
D03*
X26932Y34692D02*
D03*
X27247Y35062D02*
D03*
X26302Y34692D02*
D03*
X26617Y35062D02*
D03*
X25672Y34692D02*
D03*
X25987Y35062D02*
D03*
X25042Y34692D02*
D03*
X24412D02*
D03*
X24727Y35062D02*
D03*
X23782Y34692D02*
D03*
X24097Y35062D02*
D03*
X28192Y48380D02*
D03*
X29452D02*
D03*
X34806Y48010D02*
D03*
X34176D02*
D03*
X33546D02*
D03*
X32916D02*
D03*
X32286D02*
D03*
X31656D02*
D03*
X31026D02*
D03*
X30396D02*
D03*
X29767D02*
D03*
X29137D02*
D03*
X28507D02*
D03*
X27877D02*
D03*
X27247D02*
D03*
X26617D02*
D03*
X25987D02*
D03*
X25042D02*
D03*
X24412D02*
D03*
X32286Y50810D02*
D03*
X28507Y51150D02*
D03*
X35436Y50810D02*
D03*
X34806D02*
D03*
X34176D02*
D03*
X33546D02*
D03*
X32916D02*
D03*
X31341D02*
D03*
X30711D02*
D03*
X30082D02*
D03*
X29452D02*
D03*
X27877D02*
D03*
X27247D02*
D03*
X26617D02*
D03*
X25987D02*
D03*
X51200Y38650D02*
D03*
X56285Y65216D02*
D03*
X51550Y63150D02*
D03*
X51100D02*
D03*
Y61566D02*
D03*
X51550Y61316D02*
D03*
X51950Y61066D02*
D03*
X50650Y61900D02*
D03*
Y62600D02*
D03*
X56285Y58216D02*
D03*
X51550Y56150D02*
D03*
X51100D02*
D03*
Y54566D02*
D03*
X51550Y54316D02*
D03*
X51950Y54066D02*
D03*
X50650Y54900D02*
D03*
Y55600D02*
D03*
Y48600D02*
D03*
Y47900D02*
D03*
X51950Y47066D02*
D03*
X51550Y47316D02*
D03*
X51100Y47566D02*
D03*
Y49150D02*
D03*
X51550D02*
D03*
X56285Y51216D02*
D03*
X51200Y24870D02*
D03*
X51950Y25170D02*
D03*
X53185Y23181D02*
D03*
X56285Y44216D02*
D03*
X53150D02*
D03*
X51950Y41334D02*
D03*
X51200Y41590D02*
D03*
Y45650D02*
D03*
X51950Y46050D02*
D03*
X56285Y37216D02*
D03*
X53150D02*
D03*
X51950Y34334D02*
D03*
X51200Y34590D02*
D03*
X51950Y39050D02*
D03*
X56285Y30216D02*
D03*
X53150D02*
D03*
X51950Y27334D02*
D03*
X51200Y27590D02*
D03*
Y31650D02*
D03*
X51950Y32050D02*
D03*
X56285Y23216D02*
D03*
X51200Y20590D02*
D03*
X51950Y18050D02*
D03*
X51200Y17650D02*
D03*
Y13590D02*
D03*
X51950Y13334D02*
D03*
X53150Y16216D02*
D03*
X56285D02*
D03*
X63700Y65687D02*
D03*
Y65987D02*
D03*
X62150Y64413D02*
D03*
Y64113D02*
D03*
X62850Y64650D02*
D03*
X63150D02*
D03*
X64000Y65365D02*
D03*
X65900Y65150D02*
D03*
X57900Y62846D02*
D03*
X56285Y61054D02*
D03*
X62200Y60700D02*
D03*
X63700Y58687D02*
D03*
Y58987D02*
D03*
X62150Y57413D02*
D03*
Y57113D02*
D03*
X62850Y57650D02*
D03*
X63150D02*
D03*
X64000Y58365D02*
D03*
X65900Y58150D02*
D03*
X57900Y55846D02*
D03*
X56285Y54054D02*
D03*
X62200Y53700D02*
D03*
X63700Y51687D02*
D03*
Y51987D02*
D03*
X62150Y50413D02*
D03*
Y50113D02*
D03*
X62850Y50650D02*
D03*
X63150D02*
D03*
X64000Y51365D02*
D03*
X65900Y51150D02*
D03*
X57900Y48846D02*
D03*
X56285Y47054D02*
D03*
X62200Y46700D02*
D03*
X63700Y44687D02*
D03*
Y44987D02*
D03*
X62150Y43413D02*
D03*
Y43113D02*
D03*
X62850Y43650D02*
D03*
X63150D02*
D03*
X64000Y44365D02*
D03*
X65900Y44150D02*
D03*
X57900Y41846D02*
D03*
X56285Y40054D02*
D03*
X62200Y39700D02*
D03*
X63700Y37687D02*
D03*
Y37987D02*
D03*
X62150Y36413D02*
D03*
Y36113D02*
D03*
X62850Y36650D02*
D03*
X63150D02*
D03*
X64000Y37365D02*
D03*
X65900Y37150D02*
D03*
X57900Y34846D02*
D03*
X56285Y33054D02*
D03*
X62200Y32700D02*
D03*
X63700Y30687D02*
D03*
Y30987D02*
D03*
X62150Y29413D02*
D03*
Y29113D02*
D03*
X62850Y29650D02*
D03*
X63150D02*
D03*
X64000Y30365D02*
D03*
X65900Y30150D02*
D03*
X57900Y27846D02*
D03*
X56285Y26054D02*
D03*
X62200Y25700D02*
D03*
X63700Y16687D02*
D03*
Y16987D02*
D03*
X62150Y15413D02*
D03*
Y15113D02*
D03*
X62850Y15650D02*
D03*
X63150D02*
D03*
X64000Y16365D02*
D03*
X65900Y16150D02*
D03*
X57900Y13846D02*
D03*
X56285Y12054D02*
D03*
X62200Y11700D02*
D03*
Y18700D02*
D03*
X56285Y19054D02*
D03*
X57900Y20846D02*
D03*
X65900Y23150D02*
D03*
X64000Y23365D02*
D03*
X63150Y22650D02*
D03*
X62850D02*
D03*
X62150Y22113D02*
D03*
Y22413D02*
D03*
X63700Y23987D02*
D03*
Y23687D02*
D03*
D56*
X66947Y66818D02*
D03*
Y63282D02*
D03*
X65219Y66676D02*
D03*
Y63424D02*
D03*
X66947Y59818D02*
D03*
Y56282D02*
D03*
X65219Y59676D02*
D03*
Y56424D02*
D03*
X66947Y52818D02*
D03*
Y49282D02*
D03*
X65219Y52676D02*
D03*
Y49424D02*
D03*
X66947Y45818D02*
D03*
Y42282D02*
D03*
X65219Y45676D02*
D03*
Y42424D02*
D03*
X66947Y38818D02*
D03*
Y35282D02*
D03*
X65219Y38676D02*
D03*
Y35424D02*
D03*
X66947Y31818D02*
D03*
Y28282D02*
D03*
X65219Y31676D02*
D03*
Y28424D02*
D03*
X66947Y24818D02*
D03*
Y21282D02*
D03*
X65219Y24676D02*
D03*
Y21424D02*
D03*
X66947Y17818D02*
D03*
Y14282D02*
D03*
X65219Y17676D02*
D03*
Y14424D02*
D03*
M02*
