G04*
G04 #@! TF.GenerationSoftware,Altium Limited,Altium Designer,25.8.1 (18)*
G04*
G04 Layer_Color=32768*
%FSLAX24Y24*%
%MOIN*%
G70*
G04*
G04 #@! TF.SameCoordinates,CD40245A-48BA-4A84-B8B0-26606E374D52*
G04*
G04*
G04 #@! TF.FilePolarity,Positive*
G04*
G01*
G75*
%ADD58C,0.0098*%
%ADD85C,0.0630*%
D58*
X7791Y39891D02*
G03*
X7791Y39891I-49J0D01*
G01*
Y41229D02*
G03*
X7791Y41229I-49J0D01*
G01*
Y40225D02*
G03*
X7791Y40225I-49J0D01*
G01*
Y40895D02*
G03*
X7791Y40895I-49J0D01*
G01*
Y40560D02*
G03*
X7791Y40560I-49J0D01*
G01*
Y52171D02*
G03*
X7791Y52171I-49J0D01*
G01*
Y53509D02*
G03*
X7791Y53509I-49J0D01*
G01*
Y52505D02*
G03*
X7791Y52505I-49J0D01*
G01*
Y53175D02*
G03*
X7791Y53175I-49J0D01*
G01*
Y52840D02*
G03*
X7791Y52840I-49J0D01*
G01*
X68088Y24939D02*
G03*
X68088Y24939I-49J0D01*
G01*
Y23601D02*
G03*
X68088Y23601I-49J0D01*
G01*
Y24605D02*
G03*
X68088Y24605I-49J0D01*
G01*
Y23935D02*
G03*
X68088Y23935I-49J0D01*
G01*
Y24270D02*
G03*
X68088Y24270I-49J0D01*
G01*
Y41219D02*
G03*
X68088Y41219I-49J0D01*
G01*
Y39881D02*
G03*
X68088Y39881I-49J0D01*
G01*
Y40885D02*
G03*
X68088Y40885I-49J0D01*
G01*
Y40215D02*
G03*
X68088Y40215I-49J0D01*
G01*
Y40550D02*
G03*
X68088Y40550I-49J0D01*
G01*
Y53499D02*
G03*
X68088Y53499I-49J0D01*
G01*
Y52161D02*
G03*
X68088Y52161I-49J0D01*
G01*
Y53165D02*
G03*
X68088Y53165I-49J0D01*
G01*
Y52495D02*
G03*
X68088Y52495I-49J0D01*
G01*
Y52830D02*
G03*
X68088Y52830I-49J0D01*
G01*
X53543Y7797D02*
G03*
X53543Y7797I-49J0D01*
G01*
X52204D02*
G03*
X52204Y7797I-49J0D01*
G01*
X53208D02*
G03*
X53208Y7797I-49J0D01*
G01*
X52539D02*
G03*
X52539Y7797I-49J0D01*
G01*
X52873D02*
G03*
X52873Y7797I-49J0D01*
G01*
X7791Y23611D02*
G03*
X7791Y23611I-49J0D01*
G01*
Y24949D02*
G03*
X7791Y24949I-49J0D01*
G01*
Y23945D02*
G03*
X7791Y23945I-49J0D01*
G01*
Y24615D02*
G03*
X7791Y24615I-49J0D01*
G01*
Y24280D02*
G03*
X7791Y24280I-49J0D01*
G01*
X38593Y7797D02*
G03*
X38593Y7797I-49J0D01*
G01*
X37254D02*
G03*
X37254Y7797I-49J0D01*
G01*
X38258D02*
G03*
X38258Y7797I-49J0D01*
G01*
X37589D02*
G03*
X37589Y7797I-49J0D01*
G01*
X37923D02*
G03*
X37923Y7797I-49J0D01*
G01*
X22280Y73338D02*
G03*
X22280Y73338I-49J0D01*
G01*
X23619D02*
G03*
X23619Y73338I-49J0D01*
G01*
X22615D02*
G03*
X22615Y73338I-49J0D01*
G01*
X23284D02*
G03*
X23284Y73338I-49J0D01*
G01*
X22949D02*
G03*
X22949Y73338I-49J0D01*
G01*
X23643Y7797D02*
G03*
X23643Y7797I-49J0D01*
G01*
X22304D02*
G03*
X22304Y7797I-49J0D01*
G01*
X23308D02*
G03*
X23308Y7797I-49J0D01*
G01*
X22639D02*
G03*
X22639Y7797I-49J0D01*
G01*
X22973D02*
G03*
X22973Y7797I-49J0D01*
G01*
X37230Y73338D02*
G03*
X37230Y73338I-49J0D01*
G01*
X38568D02*
G03*
X38568Y73338I-49J0D01*
G01*
X37565D02*
G03*
X37565Y73338I-49J0D01*
G01*
X38234D02*
G03*
X38234Y73338I-49J0D01*
G01*
X37899D02*
G03*
X37899Y73338I-49J0D01*
G01*
X7791Y76441D02*
G03*
X7791Y76441I-49J0D01*
G01*
Y77779D02*
G03*
X7791Y77779I-49J0D01*
G01*
Y76775D02*
G03*
X7791Y76775I-49J0D01*
G01*
Y77445D02*
G03*
X7791Y77445I-49J0D01*
G01*
Y77110D02*
G03*
X7791Y77110I-49J0D01*
G01*
X52180Y73338D02*
G03*
X52180Y73338I-49J0D01*
G01*
X53519D02*
G03*
X53519Y73338I-49J0D01*
G01*
X52515D02*
G03*
X52515Y73338I-49J0D01*
G01*
X53184D02*
G03*
X53184Y73338I-49J0D01*
G01*
X52849D02*
G03*
X52849Y73338I-49J0D01*
G01*
X87353Y4665D02*
G03*
X87353Y4665I-49J0D01*
G01*
Y3326D02*
G03*
X87353Y3326I-49J0D01*
G01*
Y4330D02*
G03*
X87353Y4330I-49J0D01*
G01*
Y3661D02*
G03*
X87353Y3661I-49J0D01*
G01*
Y3996D02*
G03*
X87353Y3996I-49J0D01*
G01*
X7791Y3341D02*
G03*
X7791Y3341I-49J0D01*
G01*
Y4679D02*
G03*
X7791Y4679I-49J0D01*
G01*
Y3675D02*
G03*
X7791Y3675I-49J0D01*
G01*
Y4345D02*
G03*
X7791Y4345I-49J0D01*
G01*
Y4010D02*
G03*
X7791Y4010I-49J0D01*
G01*
X87353Y77765D02*
G03*
X87353Y77765I-49J0D01*
G01*
Y76426D02*
G03*
X87353Y76426I-49J0D01*
G01*
Y77430D02*
G03*
X87353Y77430I-49J0D01*
G01*
Y76761D02*
G03*
X87353Y76761I-49J0D01*
G01*
Y77096D02*
G03*
X87353Y77096I-49J0D01*
G01*
X78440Y22238D02*
G03*
X78440Y22238I-49J0D01*
G01*
X79778D02*
G03*
X79778Y22238I-49J0D01*
G01*
X78775D02*
G03*
X78775Y22238I-49J0D01*
G01*
X79444D02*
G03*
X79444Y22238I-49J0D01*
G01*
X79109D02*
G03*
X79109Y22238I-49J0D01*
G01*
X79759Y7782D02*
G03*
X79759Y7782I-49J0D01*
G01*
X78420D02*
G03*
X78420Y7782I-49J0D01*
G01*
X79424D02*
G03*
X79424Y7782I-49J0D01*
G01*
X78755D02*
G03*
X78755Y7782I-49J0D01*
G01*
X79089D02*
G03*
X79089Y7782I-49J0D01*
G01*
X70871Y14331D02*
G03*
X70871Y14331I-49J0D01*
G01*
Y15669D02*
G03*
X70871Y15669I-49J0D01*
G01*
Y14665D02*
G03*
X70871Y14665I-49J0D01*
G01*
Y15335D02*
G03*
X70871Y15335I-49J0D01*
G01*
Y15000D02*
G03*
X70871Y15000I-49J0D01*
G01*
X87353Y15665D02*
G03*
X87353Y15665I-49J0D01*
G01*
Y14326D02*
G03*
X87353Y14326I-49J0D01*
G01*
Y15330D02*
G03*
X87353Y15330I-49J0D01*
G01*
Y14661D02*
G03*
X87353Y14661I-49J0D01*
G01*
Y14996D02*
G03*
X87353Y14996I-49J0D01*
G01*
X78440Y39238D02*
G03*
X78440Y39238I-49J0D01*
G01*
X79778D02*
G03*
X79778Y39238I-49J0D01*
G01*
X78775D02*
G03*
X78775Y39238I-49J0D01*
G01*
X79444D02*
G03*
X79444Y39238I-49J0D01*
G01*
X79109D02*
G03*
X79109Y39238I-49J0D01*
G01*
X79783Y24757D02*
G03*
X79783Y24757I-49J0D01*
G01*
X78444D02*
G03*
X78444Y24757I-49J0D01*
G01*
X79448D02*
G03*
X79448Y24757I-49J0D01*
G01*
X78779D02*
G03*
X78779Y24757I-49J0D01*
G01*
X79113D02*
G03*
X79113Y24757I-49J0D01*
G01*
X87353Y32665D02*
G03*
X87353Y32665I-49J0D01*
G01*
Y31326D02*
G03*
X87353Y31326I-49J0D01*
G01*
Y32330D02*
G03*
X87353Y32330I-49J0D01*
G01*
Y31661D02*
G03*
X87353Y31661I-49J0D01*
G01*
Y31996D02*
G03*
X87353Y31996I-49J0D01*
G01*
X70871Y31331D02*
G03*
X70871Y31331I-49J0D01*
G01*
Y32669D02*
G03*
X70871Y32669I-49J0D01*
G01*
Y31665D02*
G03*
X70871Y31665I-49J0D01*
G01*
Y32335D02*
G03*
X70871Y32335I-49J0D01*
G01*
Y32000D02*
G03*
X70871Y32000I-49J0D01*
G01*
X87353Y49765D02*
G03*
X87353Y49765I-49J0D01*
G01*
Y48426D02*
G03*
X87353Y48426I-49J0D01*
G01*
Y49430D02*
G03*
X87353Y49430I-49J0D01*
G01*
Y48761D02*
G03*
X87353Y48761I-49J0D01*
G01*
Y49096D02*
G03*
X87353Y49096I-49J0D01*
G01*
X78440Y56338D02*
G03*
X78440Y56338I-49J0D01*
G01*
X79778D02*
G03*
X79778Y56338I-49J0D01*
G01*
X78775D02*
G03*
X78775Y56338I-49J0D01*
G01*
X79444D02*
G03*
X79444Y56338I-49J0D01*
G01*
X79109D02*
G03*
X79109Y56338I-49J0D01*
G01*
X70871Y48431D02*
G03*
X70871Y48431I-49J0D01*
G01*
Y49769D02*
G03*
X70871Y49769I-49J0D01*
G01*
Y48765D02*
G03*
X70871Y48765I-49J0D01*
G01*
Y49435D02*
G03*
X70871Y49435I-49J0D01*
G01*
Y49100D02*
G03*
X70871Y49100I-49J0D01*
G01*
X79783Y41857D02*
G03*
X79783Y41857I-49J0D01*
G01*
X78444D02*
G03*
X78444Y41857I-49J0D01*
G01*
X79448D02*
G03*
X79448Y41857I-49J0D01*
G01*
X78779D02*
G03*
X78779Y41857I-49J0D01*
G01*
X79113D02*
G03*
X79113Y41857I-49J0D01*
G01*
X78390Y73338D02*
G03*
X78390Y73338I-49J0D01*
G01*
X79728D02*
G03*
X79728Y73338I-49J0D01*
G01*
X78725D02*
G03*
X78725Y73338I-49J0D01*
G01*
X79394D02*
G03*
X79394Y73338I-49J0D01*
G01*
X79059D02*
G03*
X79059Y73338I-49J0D01*
G01*
X79783Y58857D02*
G03*
X79783Y58857I-49J0D01*
G01*
X78444D02*
G03*
X78444Y58857I-49J0D01*
G01*
X79448D02*
G03*
X79448Y58857I-49J0D01*
G01*
X78779D02*
G03*
X78779Y58857I-49J0D01*
G01*
X79113D02*
G03*
X79113Y58857I-49J0D01*
G01*
X70871Y65431D02*
G03*
X70871Y65431I-49J0D01*
G01*
Y66769D02*
G03*
X70871Y66769I-49J0D01*
G01*
Y65765D02*
G03*
X70871Y65765I-49J0D01*
G01*
Y66435D02*
G03*
X70871Y66435I-49J0D01*
G01*
Y66100D02*
G03*
X70871Y66100I-49J0D01*
G01*
X87353Y66765D02*
G03*
X87353Y66765I-49J0D01*
G01*
Y65426D02*
G03*
X87353Y65426I-49J0D01*
G01*
Y66430D02*
G03*
X87353Y66430I-49J0D01*
G01*
Y65761D02*
G03*
X87353Y65761I-49J0D01*
G01*
Y66096D02*
G03*
X87353Y66096I-49J0D01*
G01*
D85*
X70605Y50320D02*
Y56555D01*
X77840D01*
X70605Y56603D02*
Y62307D01*
Y56555D02*
X77840D01*
X70605Y67320D02*
Y73555D01*
Y58640D02*
Y64880D01*
X68255Y73430D02*
X68255Y54050D01*
X80230Y73555D02*
X87470D01*
X70609Y58640D02*
X77844D01*
X80285D02*
X87524D01*
X80280Y56555D02*
X87520D01*
X70609Y41640D02*
X77844D01*
X80285D02*
X87524D01*
X70605Y39455D02*
X77840D01*
X80280D02*
X87520D01*
X80280Y22455D02*
X87520D01*
X70605D02*
X77840D01*
X80260Y7565D02*
X87520D01*
X70605Y7567D02*
Y13780D01*
X68255Y7567D02*
Y23050D01*
X7525Y7580D02*
X21704D01*
X7525Y73555D02*
X21680D01*
X24150Y7567D02*
X36660D01*
X39100D02*
X51610D01*
X54050D02*
X77820D01*
X70605Y16220D02*
Y30780D01*
X68255Y25490D02*
Y39330D01*
Y41770D02*
Y51019D01*
X70605Y39503D02*
Y45207D01*
X70609Y33224D02*
Y47783D01*
Y24489D02*
Y30192D01*
X24120Y73555D02*
X36630D01*
X39070D02*
X51580D01*
X54020D02*
X77790D01*
X7525Y54060D02*
Y75890D01*
Y41780D02*
Y51620D01*
Y25500D02*
Y39340D01*
Y5230D02*
Y23060D01*
Y134D02*
Y2199D01*
Y78921D02*
Y80986D01*
X87520Y78907D02*
Y80971D01*
Y120D02*
Y2185D01*
Y5216D02*
Y13185D01*
Y16216D02*
Y30185D01*
Y33216D02*
Y47285D01*
Y50316D02*
Y64285D01*
Y67316D02*
Y75285D01*
X7525Y38749D02*
Y39340D01*
Y41780D02*
Y42371D01*
Y51029D02*
Y51620D01*
Y54060D02*
Y54651D01*
X68255Y25490D02*
Y26081D01*
Y22459D02*
Y23050D01*
Y41770D02*
Y42361D01*
Y38739D02*
Y39330D01*
Y54050D02*
Y54641D01*
Y51019D02*
Y51610D01*
X54045Y7580D02*
X54635D01*
X51013D02*
X51604D01*
X7525Y22469D02*
Y23060D01*
Y25500D02*
Y26091D01*
X39095Y7580D02*
X39685D01*
X36063D02*
X36654D01*
X21089Y73555D02*
X21680D01*
X24120D02*
X24711D01*
X24145Y7580D02*
X24735D01*
X21113D02*
X21704D01*
X36039Y73555D02*
X36630D01*
X39070D02*
X39661D01*
X7525Y75299D02*
Y75890D01*
Y78330D02*
Y78921D01*
X50989Y73555D02*
X51580D01*
X54020D02*
X54611D01*
X87520Y5216D02*
Y5807D01*
Y2185D02*
Y2775D01*
X7525Y2199D02*
Y2790D01*
Y5230D02*
Y5821D01*
X87520Y78316D02*
Y78907D01*
Y75285D02*
Y75875D01*
X77249Y22455D02*
X77840D01*
X80280D02*
X80871D01*
X80260Y7565D02*
X80851D01*
X77229D02*
X77820D01*
X70605Y13189D02*
Y13780D01*
Y16220D02*
Y16811D01*
X87520Y16216D02*
Y16807D01*
Y13185D02*
Y13775D01*
X77249Y39455D02*
X77840D01*
X80280D02*
X80871D01*
X80285Y24540D02*
X80875D01*
X77253D02*
X77844D01*
X87520Y33216D02*
Y33807D01*
Y30185D02*
Y30775D01*
X70605Y30189D02*
Y30780D01*
Y33220D02*
Y33811D01*
X87520Y50316D02*
Y50907D01*
Y47285D02*
Y47875D01*
X77249Y56555D02*
X77840D01*
X80280D02*
X80871D01*
X70605Y47289D02*
Y47880D01*
Y50320D02*
Y50911D01*
X80285Y41640D02*
X80875D01*
X77253D02*
X77844D01*
X77199Y73555D02*
X77790D01*
X80230D02*
X80821D01*
X80285Y58640D02*
X80875D01*
X77253D02*
X77844D01*
X70605Y64289D02*
Y64880D01*
Y67320D02*
Y67911D01*
X87520Y67316D02*
Y67907D01*
Y64285D02*
Y64875D01*
M02*
