M48
;Layer_Color=9474304
;FILE_FORMAT=2:4
INCH,LZ
;TYPE=PLATED
T01F00S00C0.0120
T02F00S00C0.0157
T05F00S00C0.0400
T06F00S00C0.0409
T07F00S00C0.0945
T08F00S00C0.0984
;TYPE=NON_PLATED
T09F00S00C0.0256
T11F00S00C0.0400
T12F00S00C0.0984
%
T01
X08606Y0115
X07206Y011
X07331Y00925
X0659Y01615
X064Y016365
X0637Y016687
Y016987
X06315Y01565
X06285
X06215Y015413
Y015113
X060994Y016936
Y017535
X0622Y0187
X064506
X057837Y016472
X056285Y016216
X05545Y015484
X0543
X05415Y0148
X05365Y016645
X05315Y016216
X05195Y01805
X0512Y01765
Y01359
X05195Y013334
X05365Y0128
X0543Y01165
X05545
X056285Y012054
X0579Y013078
Y013846
X05696Y01005
X06253
X0622Y0117
X0503Y01005
X0543Y01865
X05545
X0421Y01709
X0414Y0177
X04147Y01005
X03471
X0105Y01619
Y02705
X023467Y032262
X024097
X024727
X025357
X025042Y032632
X024412
X023782
X026617Y032262
X028507
X028822Y032632
X030711Y032262
X031971
X032916
X03299Y01983
X03356
X034189Y019827
X0348Y01983
X0355
X03619
X03692
X03763
X038357
X03905
X03974
X04046Y01879
X0441Y02235
X045622Y02855
X0497Y02685
X0496Y01931
X034806Y032262
X0506Y033126
X0512Y03165
X05195Y03205
Y034334
X05365Y0338
X0543Y03265
X05545
X056285Y033054
X0579Y034078
X057837Y030472
X056285Y030216
X05545Y029484
X0543
X05415Y0288
X05365Y030645
X05315Y030216
X05365Y0268
X0543Y02565
X05545
X056285Y026054
X0579Y027078
Y027846
X057837Y023472
X056285Y023216
X05545Y022484
X0543
X05415Y0218
X05365Y023627
X053185Y023181
X05195Y02517
X0512Y02487
Y02759
X05195Y027334
Y020334
X0512Y02059
X05365Y0198
X056285Y019054
X0579Y020078
Y020846
X06215Y022113
Y022413
X06285Y02265
X06315
X064Y023365
X0637Y023687
Y023987
X064506Y0257
X0622
X060994Y024535
Y023936
X06215Y029113
Y029413
X06285Y02965
X06315
X064Y030365
X0637Y030687
Y030987
X064506Y0327
X0622
X060994Y031535
Y030936
X0659Y03015
Y02315
X07206Y0205
X07556
X07906
X07331Y02625
X07206Y028
X08606Y0285
Y0205
X08256
Y0375
X08606
Y0456
X07206Y0451
X07331Y04335
X07206Y0375
X07556
X07906
X0659Y03715
Y04415
X064Y044365
X0637Y044687
Y044987
X06315Y04365
X06285
X06215Y043413
Y043113
X060994Y044936
Y045535
X0622Y0467
X064506
Y0397
X0622
X060994Y038535
Y037936
X06215Y036413
Y036113
X06285Y03665
X06315
X064Y037365
X0637Y037687
Y037987
X057837Y037472
X056285Y037216
X05545Y036484
X0543
X05415Y0358
X05365Y037645
X05315Y037216
X05195Y03905
X0512Y03865
Y04159
X05195Y041334
X05365Y0408
X0543Y03965
X05545
X056285Y040054
X0579Y041078
Y041846
X057837Y044472
X056285Y044216
X05545Y043484
X0543
X05415Y0428
X05365Y044645
X05315Y044216
X05195Y04605
Y047066
X05155Y047316
X0511Y047566
X05065Y0479
Y0486
X0511Y04915
X05155
X05415Y0498
X05365Y0478
X0543Y04665
X05545
X056285Y047054
X0579Y048078
Y048846
X0512Y04565
Y03459
X0579Y034846
X049884Y0408
X0454Y03853
X04375Y04315
X0409Y0447
X03783Y04611
X035436Y04801
X034806
X035751Y04838
X0359Y03965
X03863Y0381
X04185Y035546
X034491Y034692
X048626Y048078
X034176Y04801
X033546
X032916
X032286
X031656
X031026
X030396
X029767
X029137
X028507
X027877
X027247
X026617
X025987
X025042
X024412
X023467
X025357Y04838
X028192
X029452
Y03845
X029137Y035062
X028507
X027877
X027247
X026617
X025987
X025357
X024727
X024097
X023467
X023782Y034692
X024412
X025042
X025672
X026302
X026932
X027562
X028192
X028822
X029452
X030396
X031971
X032601
X02618Y0363
X03434Y04243
X01735Y04615
X0105
Y03692
X0133Y05315
X0105Y05813
X01646Y06105
X02324
X029767
X0291Y06355
Y065106
X03165
Y06355
X032Y0628
X03263
X032916Y05081
X033546
X034176
X032286
X031971Y05115
X031341Y05081
X030711
X030082
X029452
X028822
X028507Y05115
X027877Y05081
X027247
X026617
X025987
X025357
X024727
X025042Y05115
X0194Y05145
X034806Y05081
X035436
X0385Y05555
X0437Y05155
X04653Y050331
X0496Y05695
X0437Y06055
X03923Y06555
X0352Y065106
Y06355
X04841Y06555
X0511Y06315
X05155
X05065Y0626
Y0619
X0511Y061566
X05155Y061316
X05195Y061066
X05365Y0618
X0543Y06065
X05545
X056285Y061054
X0579Y062078
Y062846
X057837Y065472
X056285Y065216
X05545Y064484
X0543
X05415Y0638
X05365Y058645
X0543Y057484
X05415Y0568
X05545Y057484
X056285Y058216
X057837Y058472
X0579Y055846
Y055078
X056285Y054054
X05545Y05365
X0543
X05365Y0548
X05195Y054066
X05155Y054316
X0511Y054566
X05065Y0549
Y0556
X0511Y05615
X05155
Y05224
X05365Y051645
X0543Y050484
X05545
X056285Y051216
X057837Y051472
X060994Y051936
Y052535
X0622Y0537
X064506
X0637Y051987
Y051687
X064Y051365
X06315Y05065
X06285
X06215Y050413
Y050113
Y057113
Y057413
X06285Y05765
X06315
X064Y058365
X0637Y058687
Y058987
X064506Y0607
X0622
X060994Y059535
Y058936
X06215Y064113
Y064413
X06285Y06465
X06315
X064Y065365
X0659Y06515
Y05815
Y05115
X07206Y0546
X07556
X07906
X07331Y06035
X07206Y0621
X08606Y0626
Y0546
X08256
Y0716
X08606
X07906
X07556
X07206
X059463Y07055
X060994Y066535
Y065936
X0637Y065987
Y065687
X05365Y065645
X05284Y07055
X04445
X03776
X033656Y07085
X03265
X03165
X030644
X02078Y07055
X01472
X01525Y066545
X01675
X01825Y066694
T02
X064982Y014948
X065258Y015105
Y01542
Y015735
X064982Y015578
Y015893
Y016207
Y016522
X065258Y016365
Y01668
Y016995
X064982Y017152
Y021948
X065258Y022105
Y02242
Y022735
X064982Y022578
Y022893
Y023207
Y023522
X065258Y023365
Y02368
Y023995
X064982Y024152
Y028948
X065258Y029105
Y02942
Y029735
X064982Y029578
Y029893
Y030207
Y030522
X065258Y030365
Y03068
Y030995
X064982Y031152
Y035948
X065258Y036105
Y03642
Y036735
X064982Y036578
Y036893
Y037207
Y037522
X065258Y037365
Y03768
Y037995
X064982Y038152
Y042948
X065258Y043105
Y04342
Y043735
X064982Y043578
Y043893
Y044207
Y044522
X065258Y044365
Y04468
Y044995
X064982Y045152
Y049948
X065258Y050105
Y05042
Y050735
X064982Y050578
Y050893
Y051207
Y051522
X065258Y051365
Y05168
Y051995
X064982Y052152
Y056948
X065258Y057105
Y05742
Y057735
X064982Y057578
Y057893
Y058207
Y058522
X065258Y058365
Y05868
Y058995
X064982Y059152
Y063948
X065258Y064105
Y06442
Y064735
X064982Y064578
Y064893
Y065207
Y065522
X065258Y065365
Y06568
Y065995
X064982Y066152
T05
X08131Y0135
Y0145
Y0155
Y0165
Y0175
Y0185
X08381
Y0175
Y0165
Y0155
Y0145
Y0135
X08481
Y0145
Y0155
Y0165
Y0175
Y0185
X08031
Y0175
Y0165
Y0155
Y0145
Y0135
X07781
X07681
Y0145
Y0155
Y0165
Y0175
Y0185
X07781
Y0175
Y0165
Y0155
Y0145
X07431
X07331
Y0135
X07431
Y0155
X07331
Y0165
Y0175
Y0185
X07431
Y0175
Y0165
Y0195
X07331
Y0205
X07431
X07681
Y0195
X07781
Y0205
X08031
Y0195
Y0305
Y0315
Y0325
Y0335
X07781
X07681
Y0325
Y0315
Y0305
X07781
Y0315
Y0325
X07431
X07331
Y0315
Y0305
X07431
Y0315
Y0335
X07331
X08131
Y0325
Y0315
Y0305
X08381
Y0315
Y0325
Y0335
X08481
Y0325
Y0315
Y0305
Y0205
X08381
Y0195
X08481
X08131
Y0205
Y0345
Y0355
Y0365
Y0375
X08381
Y0365
Y0355
Y0345
X08481
Y0355
Y0365
Y0375
Y0476
X08381
Y0486
Y0496
X08481
Y0486
X08131
Y0496
Y0476
X08031
Y0486
Y0496
X07781
X07681
Y0486
Y0476
X07781
Y0486
X07431
X07331
Y0476
X07431
Y0496
X07331
Y0375
Y0365
Y0355
Y0345
X07431
Y0355
Y0365
Y0375
X07681
Y0365
Y0355
Y0345
X07781
Y0355
Y0365
Y0375
X08031
Y0365
Y0355
Y0345
Y0506
Y0516
Y0526
Y0536
Y0546
X07781
X07681
Y0536
Y0526
Y0516
Y0506
X07781
Y0516
Y0526
Y0536
X07431
X07331
Y0526
Y0516
Y0506
X07431
Y0516
Y0526
Y0546
X07331
Y0646
Y0656
X07431
Y0646
X07681
Y0656
X07781
Y0646
X08031
Y0656
X08131
Y0646
X08381
Y0656
X08481
Y0646
Y0546
X08381
Y0536
Y0526
Y0516
Y0506
X08481
Y0516
Y0526
Y0536
X08131
Y0546
Y0526
Y0516
Y0506
Y0666
Y0676
Y0686
Y0696
Y0706
Y0716
X08381
Y0706
Y0696
Y0686
Y0676
Y0666
X08481
Y0676
Y0686
Y0696
Y0706
Y0716
X08031
Y0706
Y0696
Y0686
Y0676
Y0666
X07781
X07681
Y0676
Y0686
Y0696
Y0706
Y0716
X07781
Y0706
Y0696
Y0686
Y0676
X07431
X07331
Y0666
X07431
Y0686
X07331
Y0696
Y0706
Y0716
X07431
Y0706
Y0696
T06
X019Y01055
Y01155
X02
Y01055
X021
Y01155
X022
Y01055
X023
Y01155
X024
Y01055
X025
Y01155
X026
Y01055
X027
Y01155
X028
Y01055
X029
Y01155
X03
Y01055
X031
Y01155
X032
Y01055
X018
X017
X016
X015
X014
X013
Y01155
X014
X015
X016
X017
X018
Y01955
X017
X016
X015
X014
X013
Y02055
X014
X015
X016
X017
X018
X019
Y01955
X02
Y02055
X021
Y01955
X022
Y02055
X023
Y01955
X024
Y02055
X025
Y01955
X026
Y02055
X027
Y01955
X028
Y02055
X029
Y01955
X03
Y02055
X031
Y01955
X032
Y02055
X018Y05755
X017
X016
X015
X014
X013
Y05855
X014
X015
X016
X017
X018
X019
Y05755
X02
Y05855
X021
Y05755
X022
Y05855
X023
Y05755
X024
Y05855
X025
Y05755
X026
Y05855
X027
Y05755
X028
Y05855
X029
Y05755
X03
Y05855
X031
Y05755
X032
Y05855
T07
X08572Y00981
Y02681
Y04391
Y06091
T08
X0653Y0106
X0105
X0113Y031889
X038465
Y049211
X0113
X0653Y0706
X0105
T09
X064726Y014633
Y021633
Y028633
Y035633
Y042633
Y049633
Y056633
Y063633
T11
X022822Y033475
X036396
Y049223
X022822
T12
X09106Y004
X004
X09106Y0771
X004
M30
