G04*
G04 #@! TF.GenerationSoftware,Altium Limited,Altium Designer,25.8.1 (18)*
G04*
G04 Layer_Physical_Order=3*
G04 Layer_Color=36540*
%FSLAX24Y24*%
%MOIN*%
G70*
G04*
G04 #@! TF.SameCoordinates,04ACC03A-76E5-46F2-98FA-C5824AA884AC*
G04*
G04*
G04 #@! TF.FilePolarity,Positive*
G04*
G01*
G75*
%ADD29C,0.0256*%
G04:AMPARAMS|DCode=31|XSize=35.4mil|YSize=59.1mil|CornerRadius=17.7mil|HoleSize=0mil|Usage=FLASHONLY|Rotation=0.000|XOffset=0mil|YOffset=0mil|HoleType=Round|Shape=RoundedRectangle|*
%AMROUNDEDRECTD31*
21,1,0.0354,0.0236,0,0,0.0*
21,1,0.0000,0.0591,0,0,0.0*
1,1,0.0354,0.0000,-0.0118*
1,1,0.0354,0.0000,-0.0118*
1,1,0.0354,0.0000,0.0118*
1,1,0.0354,0.0000,0.0118*
%
%ADD31ROUNDEDRECTD31*%
%ADD35C,0.0140*%
G36*
X5148Y102D02*
X-5148D01*
Y13398D01*
X5148D01*
Y102D01*
D02*
G37*
%LPC*%
G36*
X1904Y11695D02*
X1836D01*
X1774Y11669D01*
X1726Y11621D01*
X1700Y11559D01*
Y11491D01*
X1726Y11429D01*
X1774Y11381D01*
X1836Y11355D01*
X1904D01*
X1966Y11381D01*
X2014Y11429D01*
X2040Y11491D01*
Y11559D01*
X2014Y11621D01*
X1966Y11669D01*
X1904Y11695D01*
D02*
G37*
G36*
X34D02*
X-34D01*
X-96Y11669D01*
X-144Y11621D01*
X-170Y11559D01*
Y11491D01*
X-144Y11429D01*
X-96Y11381D01*
X-34Y11355D01*
X34D01*
X96Y11381D01*
X144Y11429D01*
X170Y11491D01*
Y11559D01*
X144Y11621D01*
X96Y11669D01*
X34Y11695D01*
D02*
G37*
G36*
X-1836D02*
X-1904D01*
X-1966Y11669D01*
X-2014Y11621D01*
X-2040Y11559D01*
Y11491D01*
X-2014Y11429D01*
X-1966Y11381D01*
X-1904Y11355D01*
X-1836D01*
X-1774Y11381D01*
X-1726Y11429D01*
X-1700Y11491D01*
Y11559D01*
X-1726Y11621D01*
X-1774Y11669D01*
X-1836Y11695D01*
D02*
G37*
G36*
X2888Y7678D02*
X2821D01*
X2758Y7652D01*
X2710Y7604D01*
X2684Y7542D01*
Y7474D01*
X2710Y7412D01*
X2758Y7364D01*
X2821Y7338D01*
X2888D01*
X2951Y7364D01*
X2998Y7412D01*
X3024Y7474D01*
Y7542D01*
X2998Y7604D01*
X2951Y7652D01*
X2888Y7678D01*
D02*
G37*
G36*
X-2723D02*
X-2790D01*
X-2853Y7652D01*
X-2901Y7604D01*
X-2926Y7542D01*
Y7474D01*
X-2901Y7412D01*
X-2853Y7364D01*
X-2790Y7338D01*
X-2723D01*
X-2660Y7364D01*
X-2612Y7412D01*
X-2586Y7474D01*
Y7542D01*
X-2612Y7604D01*
X-2660Y7652D01*
X-2723Y7678D01*
D02*
G37*
G36*
X2494Y7093D02*
X2427D01*
X2364Y7067D01*
X2317Y7019D01*
X2291Y6957D01*
Y6889D01*
X2317Y6827D01*
X2364Y6779D01*
X2427Y6753D01*
X2494D01*
X2557Y6779D01*
X2605Y6827D01*
X2631Y6889D01*
Y6957D01*
X2605Y7019D01*
X2557Y7067D01*
X2494Y7093D01*
D02*
G37*
G36*
X-2146D02*
X-2214D01*
X-2276Y7067D01*
X-2324Y7019D01*
X-2350Y6957D01*
Y6889D01*
X-2324Y6827D01*
X-2276Y6779D01*
X-2214Y6753D01*
X-2146D01*
X-2084Y6779D01*
X-2036Y6827D01*
X-2010Y6889D01*
Y6957D01*
X-2036Y7019D01*
X-2084Y7067D01*
X-2146Y7093D01*
D02*
G37*
G36*
X-2418Y6357D02*
X-2485D01*
X-2548Y6331D01*
X-2595Y6283D01*
X-2621Y6220D01*
Y6153D01*
X-2595Y6090D01*
X-2548Y6042D01*
X-2485Y6017D01*
X-2418D01*
X-2355Y6042D01*
X-2307Y6090D01*
X-2281Y6153D01*
Y6220D01*
X-2307Y6283D01*
X-2355Y6331D01*
X-2418Y6357D01*
D02*
G37*
G36*
X-458Y5090D02*
X-526D01*
X-588Y5064D01*
X-636Y5016D01*
X-662Y4954D01*
Y4886D01*
X-636Y4824D01*
X-613Y4800D01*
X-636Y4776D01*
X-662Y4714D01*
Y4646D01*
X-636Y4584D01*
X-588Y4536D01*
X-526Y4510D01*
X-458D01*
X-396Y4536D01*
X-348Y4584D01*
X-322Y4646D01*
Y4714D01*
X-348Y4776D01*
X-372Y4800D01*
X-348Y4824D01*
X-322Y4886D01*
Y4954D01*
X-348Y5016D01*
X-396Y5064D01*
X-458Y5090D01*
D02*
G37*
G36*
X-2346D02*
X-2414D01*
X-2476Y5064D01*
X-2524Y5016D01*
X-2550Y4954D01*
Y4886D01*
X-2524Y4824D01*
X-2500Y4800D01*
X-2524Y4776D01*
X-2550Y4714D01*
Y4646D01*
X-2524Y4584D01*
X-2476Y4536D01*
X-2414Y4510D01*
X-2346D01*
X-2284Y4536D01*
X-2236Y4584D01*
X-2210Y4646D01*
Y4714D01*
X-2236Y4776D01*
X-2260Y4800D01*
X-2236Y4824D01*
X-2210Y4886D01*
Y4954D01*
X-2236Y5016D01*
X-2284Y5064D01*
X-2346Y5090D01*
D02*
G37*
G36*
X-4196D02*
X-4264D01*
X-4326Y5064D01*
X-4374Y5016D01*
X-4400Y4954D01*
Y4886D01*
X-4374Y4824D01*
X-4350Y4800D01*
X-4374Y4776D01*
X-4400Y4714D01*
Y4646D01*
X-4374Y4584D01*
X-4326Y4536D01*
X-4264Y4510D01*
X-4196D01*
X-4134Y4536D01*
X-4086Y4584D01*
X-4060Y4646D01*
Y4714D01*
X-4086Y4776D01*
X-4110Y4800D01*
X-4086Y4824D01*
X-4060Y4886D01*
Y4954D01*
X-4086Y5016D01*
X-4134Y5064D01*
X-4196Y5090D01*
D02*
G37*
G36*
X1828Y4714D02*
X1760D01*
X1698Y4688D01*
X1650Y4640D01*
X1624Y4578D01*
Y4510D01*
X1650Y4448D01*
X1698Y4400D01*
X1760Y4374D01*
X1828D01*
X1890Y4400D01*
X1938Y4448D01*
X1964Y4510D01*
Y4578D01*
X1938Y4640D01*
X1890Y4688D01*
X1828Y4714D01*
D02*
G37*
G36*
X1393Y4330D02*
X1326D01*
X1263Y4304D01*
X1239Y4280D01*
X1216Y4304D01*
X1153Y4330D01*
X1086D01*
X1023Y4304D01*
X975Y4256D01*
X949Y4194D01*
Y4126D01*
X975Y4064D01*
X1023Y4016D01*
X1086Y3990D01*
X1153D01*
X1216Y4016D01*
X1239Y4040D01*
X1263Y4016D01*
X1326Y3990D01*
X1393D01*
X1456Y4016D01*
X1504Y4064D01*
X1530Y4126D01*
Y4194D01*
X1504Y4256D01*
X1456Y4304D01*
X1393Y4330D01*
D02*
G37*
G36*
X518Y3046D02*
X427D01*
X343Y3011D01*
X315Y2983D01*
X287Y3011D01*
X203Y3046D01*
X112D01*
X28Y3011D01*
X0Y2983D01*
X-28Y3011D01*
X-112Y3046D01*
X-203D01*
X-287Y3011D01*
X-315Y2983D01*
X-343Y3011D01*
X-427Y3046D01*
X-518D01*
X-602Y3011D01*
X-666Y2947D01*
X-700Y2863D01*
Y2772D01*
X-696Y2762D01*
X-759Y2735D01*
X-787Y2707D01*
X-816Y2735D01*
X-900Y2770D01*
X-990D01*
X-1074Y2735D01*
X-1138Y2671D01*
X-1173Y2587D01*
Y2497D01*
X-1138Y2413D01*
X-1074Y2349D01*
X-990Y2314D01*
X-900D01*
X-816Y2349D01*
X-787Y2377D01*
X-759Y2349D01*
X-675Y2314D01*
X-585D01*
X-501Y2349D01*
X-437Y2413D01*
X-402Y2497D01*
Y2587D01*
X-406Y2598D01*
X-343Y2624D01*
X-315Y2653D01*
X-287Y2624D01*
X-203Y2590D01*
X-112D01*
X-28Y2624D01*
X0Y2653D01*
X28Y2624D01*
X92Y2598D01*
X87Y2587D01*
Y2497D01*
X122Y2413D01*
X186Y2349D01*
X270Y2314D01*
X360D01*
X444Y2349D01*
X472Y2377D01*
X501Y2349D01*
X585Y2314D01*
X675D01*
X759Y2349D01*
X787Y2377D01*
X816Y2349D01*
X900Y2314D01*
X990D01*
X1074Y2349D01*
X1138Y2413D01*
X1173Y2497D01*
Y2587D01*
X1138Y2671D01*
X1074Y2735D01*
X990Y2770D01*
X900D01*
X816Y2735D01*
X787Y2707D01*
X759Y2735D01*
X696Y2762D01*
X700Y2772D01*
Y2863D01*
X666Y2947D01*
X602Y3011D01*
X518Y3046D01*
D02*
G37*
G36*
X-1372Y3302D02*
X-1463D01*
X-1546Y3267D01*
X-1611Y3203D01*
X-1645Y3119D01*
Y3028D01*
X-1611Y2945D01*
X-1546Y2880D01*
X-1463Y2846D01*
X-1372D01*
X-1288Y2880D01*
X-1224Y2945D01*
X-1189Y3028D01*
Y3119D01*
X-1224Y3203D01*
X-1288Y3267D01*
X-1372Y3302D01*
D02*
G37*
G36*
X1476Y3306D02*
X1358D01*
X1269Y3288D01*
X1194Y3238D01*
X1144Y3163D01*
X1126Y3074D01*
X1144Y2985D01*
X1194Y2909D01*
X1269Y2859D01*
X1358Y2841D01*
X1476D01*
X1565Y2859D01*
X1641Y2909D01*
X1691Y2985D01*
X1709Y3074D01*
X1691Y3163D01*
X1641Y3238D01*
X1565Y3288D01*
X1476Y3306D01*
D02*
G37*
G36*
X3830Y2309D02*
X3670D01*
X3514Y2278D01*
X3367Y2217D01*
X3235Y2128D01*
X3122Y2015D01*
X3033Y1883D01*
X2972Y1736D01*
X2941Y1580D01*
Y1420D01*
X2972Y1264D01*
X3033Y1117D01*
X3122Y985D01*
X3235Y872D01*
X3367Y783D01*
X3514Y722D01*
X3670Y691D01*
X3830D01*
X3986Y722D01*
X4133Y783D01*
X4265Y872D01*
X4378Y985D01*
X4467Y1117D01*
X4528Y1264D01*
X4559Y1420D01*
Y1580D01*
X4528Y1736D01*
X4467Y1883D01*
X4378Y2015D01*
X4265Y2128D01*
X4133Y2217D01*
X3986Y2278D01*
X3830Y2309D01*
D02*
G37*
G36*
X-3670D02*
X-3830D01*
X-3986Y2278D01*
X-4133Y2217D01*
X-4265Y2128D01*
X-4378Y2015D01*
X-4467Y1883D01*
X-4528Y1736D01*
X-4559Y1580D01*
Y1420D01*
X-4528Y1264D01*
X-4467Y1117D01*
X-4378Y985D01*
X-4265Y872D01*
X-4133Y783D01*
X-3986Y722D01*
X-3830Y691D01*
X-3670D01*
X-3514Y722D01*
X-3367Y783D01*
X-3235Y872D01*
X-3122Y985D01*
X-3033Y1117D01*
X-2972Y1264D01*
X-2941Y1420D01*
Y1580D01*
X-2972Y1736D01*
X-3033Y1883D01*
X-3122Y2015D01*
X-3235Y2128D01*
X-3367Y2217D01*
X-3514Y2278D01*
X-3670Y2309D01*
D02*
G37*
%LPD*%
D29*
X1102Y2818D02*
D03*
X-315Y2542D02*
D03*
X-1102Y2818D02*
D03*
D31*
X-1626Y2582D02*
D03*
X1626D02*
D03*
X-1768Y853D02*
D03*
X1768D02*
D03*
D35*
X945Y4751D02*
D03*
X-4230Y5253D02*
D03*
X4540Y9791D02*
D03*
Y7902D02*
D03*
Y5294D02*
D03*
Y3540D02*
D03*
X2455Y2542D02*
D03*
Y4230D02*
D03*
X-1280Y5200D02*
D03*
X-2972Y4020D02*
D03*
X-4470Y3074D02*
D03*
X-2756Y2818D02*
D03*
X-4160Y8390D02*
D03*
Y9973D02*
D03*
Y6917D02*
D03*
X-2461Y7311D02*
D03*
Y6720D02*
D03*
X3750Y4544D02*
D03*
X2264Y6720D02*
D03*
X2461Y7311D02*
D03*
X3400D02*
D03*
X2900Y5200D02*
D03*
M02*
