G04*
G04 #@! TF.GenerationSoftware,Altium Limited,Altium Designer,25.8.1 (18)*
G04*
G04 Layer_Physical_Order=6*
G04 Layer_Color=16711680*
%FSLAX24Y24*%
%MOIN*%
G70*
G04*
G04 #@! TF.SameCoordinates,04ACC03A-76E5-46F2-98FA-C5824AA884AC*
G04*
G04*
G04 #@! TF.FilePolarity,Positive*
G04*
G01*
G75*
%ADD12C,0.0080*%
%ADD13R,0.0118X0.0472*%
%ADD14R,0.0276X0.0354*%
%ADD15R,0.0354X0.0098*%
%ADD16R,0.0866X0.1299*%
%ADD17R,0.0098X0.0354*%
%ADD18R,0.2402X0.2402*%
%ADD20R,0.0354X0.0276*%
%ADD29C,0.0256*%
G04:AMPARAMS|DCode=30|XSize=37.4mil|YSize=25.6mil|CornerRadius=12.8mil|HoleSize=0mil|Usage=FLASHONLY|Rotation=0.000|XOffset=0mil|YOffset=0mil|HoleType=Round|Shape=RoundedRectangle|*
%AMROUNDEDRECTD30*
21,1,0.0374,0.0000,0,0,0.0*
21,1,0.0118,0.0256,0,0,0.0*
1,1,0.0256,0.0059,0.0000*
1,1,0.0256,-0.0059,0.0000*
1,1,0.0256,-0.0059,0.0000*
1,1,0.0256,0.0059,0.0000*
%
%ADD30ROUNDEDRECTD30*%
G04:AMPARAMS|DCode=31|XSize=35.4mil|YSize=59.1mil|CornerRadius=17.7mil|HoleSize=0mil|Usage=FLASHONLY|Rotation=0.000|XOffset=0mil|YOffset=0mil|HoleType=Round|Shape=RoundedRectangle|*
%AMROUNDEDRECTD31*
21,1,0.0354,0.0236,0,0,0.0*
21,1,0.0000,0.0591,0,0,0.0*
1,1,0.0354,0.0000,-0.0118*
1,1,0.0354,0.0000,-0.0118*
1,1,0.0354,0.0000,0.0118*
1,1,0.0354,0.0000,0.0118*
%
%ADD31ROUNDEDRECTD31*%
%ADD32C,0.0050*%
%ADD33C,0.0049*%
%ADD34C,0.1417*%
%ADD35C,0.0140*%
G36*
X5148Y102D02*
X-5148D01*
Y13398D01*
X5148D01*
Y102D01*
D02*
G37*
%LPC*%
G36*
X4608Y12373D02*
X3542D01*
Y11106D01*
X1962D01*
Y11379D01*
X1966Y11381D01*
X2014Y11429D01*
X2040Y11491D01*
Y11559D01*
X2014Y11621D01*
X1966Y11669D01*
X1904Y11695D01*
X1836D01*
X1774Y11669D01*
X1726Y11621D01*
X1700Y11559D01*
Y11491D01*
X1726Y11429D01*
X1774Y11381D01*
X1778Y11379D01*
Y11106D01*
X190D01*
Y11427D01*
X183Y11462D01*
X168Y11485D01*
X170Y11491D01*
Y11559D01*
X144Y11621D01*
X96Y11669D01*
X34Y11695D01*
X-34D01*
X-96Y11669D01*
X-144Y11621D01*
X-170Y11559D01*
Y11491D01*
X-168Y11485D01*
X-183Y11462D01*
X-190Y11427D01*
Y11106D01*
X-1778D01*
Y11379D01*
X-1774Y11381D01*
X-1726Y11429D01*
X-1700Y11491D01*
Y11559D01*
X-1726Y11621D01*
X-1774Y11669D01*
X-1836Y11695D01*
X-1904D01*
X-1966Y11669D01*
X-2014Y11621D01*
X-2040Y11559D01*
Y11491D01*
X-2014Y11429D01*
X-1966Y11381D01*
X-1962Y11379D01*
Y11106D01*
X-3542D01*
Y12373D01*
X-4608D01*
Y10874D01*
X-3604D01*
Y10433D01*
X-3521D01*
Y8098D01*
X-3516Y8069D01*
X-3499Y8044D01*
X-3105Y7651D01*
X-3080Y7634D01*
X-3051Y7628D01*
X-2942D01*
X-2911Y7578D01*
X-2926Y7542D01*
Y7474D01*
X-2901Y7412D01*
X-2853Y7364D01*
X-2790Y7338D01*
X-2723D01*
X-2660Y7364D01*
X-2612Y7412D01*
X-2586Y7474D01*
Y7542D01*
X-2602Y7578D01*
X-2571Y7628D01*
X-1872D01*
Y7359D01*
X-1317D01*
Y7752D01*
Y8146D01*
Y8540D01*
Y8933D01*
Y9317D01*
X1317D01*
Y8933D01*
Y8540D01*
Y8146D01*
Y7752D01*
Y7359D01*
X1872D01*
Y7416D01*
X2708D01*
X2710Y7412D01*
X2758Y7364D01*
X2821Y7338D01*
X2888D01*
X2951Y7364D01*
X2998Y7412D01*
X3024Y7474D01*
Y7542D01*
X3009Y7578D01*
X3040Y7628D01*
X3051D01*
X3080Y7634D01*
X3105Y7651D01*
X3499Y8044D01*
X3516Y8069D01*
X3521Y8098D01*
Y10433D01*
X3604D01*
Y10874D01*
X4608D01*
Y12373D01*
D02*
G37*
G36*
X2494Y7093D02*
X2427D01*
X2364Y7067D01*
X2317Y7019D01*
X2312Y7009D01*
X1872D01*
Y7067D01*
X1317D01*
Y6683D01*
X933D01*
Y6128D01*
X1188D01*
Y5438D01*
X967D01*
Y4962D01*
X1246D01*
X1626Y4582D01*
X1624Y4578D01*
Y4510D01*
X1650Y4448D01*
X1698Y4400D01*
X1760Y4374D01*
X1828D01*
X1890Y4400D01*
X1938Y4448D01*
X1964Y4510D01*
Y4578D01*
X1938Y4640D01*
X1890Y4688D01*
X1828Y4714D01*
X1760D01*
X1756Y4712D01*
X1545Y4923D01*
X1521Y4962D01*
X1521D01*
X1521Y4962D01*
Y5438D01*
X1371D01*
Y6128D01*
X1429D01*
Y6571D01*
X1872D01*
Y6826D01*
X2318D01*
X2364Y6779D01*
X2427Y6753D01*
X2494D01*
X2557Y6779D01*
X2605Y6827D01*
X2631Y6889D01*
Y6957D01*
X2605Y7019D01*
X2557Y7067D01*
X2494Y7093D01*
D02*
G37*
G36*
X-1317Y7263D02*
X-1872D01*
Y7009D01*
X-2032D01*
X-2036Y7019D01*
X-2084Y7067D01*
X-2146Y7093D01*
X-2214D01*
X-2276Y7067D01*
X-2324Y7019D01*
X-2350Y6957D01*
Y6889D01*
X-2324Y6827D01*
X-2276Y6779D01*
X-2214Y6753D01*
X-2146D01*
X-2084Y6779D01*
X-2037Y6826D01*
X-1872D01*
Y6768D01*
X-1317D01*
Y6965D01*
Y7263D01*
D02*
G37*
G36*
X838Y6683D02*
X-1429D01*
Y6497D01*
X-3162D01*
Y6671D01*
X-3638D01*
Y6117D01*
X-3162D01*
Y6314D01*
X-2630D01*
X-2603Y6264D01*
X-2621Y6220D01*
Y6153D01*
X-2595Y6090D01*
X-2548Y6042D01*
X-2485Y6017D01*
X-2418D01*
X-2413Y6018D01*
X-2359Y5964D01*
X-2329Y5944D01*
X-2294Y5937D01*
X-951D01*
X-940Y5923D01*
X-928Y5890D01*
X-1083Y5735D01*
X-4333D01*
X-4362Y5729D01*
X-4386Y5713D01*
X-4743Y5356D01*
X-4759Y5332D01*
X-4765Y5303D01*
Y4084D01*
X-4759Y4055D01*
X-4743Y4031D01*
X-4248Y3536D01*
X-4224Y3520D01*
X-4195Y3514D01*
X-4195Y3514D01*
X-1211D01*
X-913Y3215D01*
Y2770D01*
X-990D01*
X-1074Y2735D01*
X-1138Y2671D01*
X-1173Y2587D01*
Y2497D01*
X-1138Y2413D01*
X-1074Y2349D01*
X-990Y2314D01*
X-900D01*
X-816Y2349D01*
X-787Y2377D01*
X-759Y2349D01*
X-675Y2314D01*
X-585D01*
X-501Y2349D01*
X-437Y2413D01*
X-402Y2497D01*
Y2587D01*
X-406Y2598D01*
X-343Y2624D01*
X-315Y2653D01*
X-287Y2624D01*
X-203Y2590D01*
X-112D01*
X-28Y2624D01*
X0Y2653D01*
X28Y2624D01*
X92Y2598D01*
X87Y2587D01*
Y2497D01*
X122Y2413D01*
X186Y2349D01*
X270Y2314D01*
X360D01*
X444Y2349D01*
X472Y2377D01*
X501Y2349D01*
X585Y2314D01*
X675D01*
X759Y2349D01*
X787Y2377D01*
X816Y2349D01*
X900Y2314D01*
X990D01*
X1074Y2349D01*
X1138Y2413D01*
X1173Y2497D01*
Y2587D01*
X1138Y2671D01*
X1074Y2735D01*
X990Y2770D01*
X913D01*
Y3133D01*
X1343Y3563D01*
X1359Y3587D01*
X1365Y3616D01*
Y3990D01*
X1393D01*
X1456Y4016D01*
X1504Y4064D01*
X1530Y4126D01*
Y4194D01*
X1504Y4256D01*
X1456Y4304D01*
X1393Y4330D01*
X1326D01*
X1263Y4304D01*
X1239Y4280D01*
X1216Y4304D01*
X1153Y4330D01*
X1086D01*
X1023Y4304D01*
X975Y4256D01*
X949Y4194D01*
Y4126D01*
X975Y4064D01*
X1023Y4016D01*
X1086Y3990D01*
X1114D01*
Y3689D01*
X684Y3259D01*
X668Y3234D01*
X662Y3205D01*
Y3016D01*
X616Y2997D01*
X602Y3011D01*
X518Y3046D01*
X427D01*
X343Y3011D01*
X315Y2983D01*
X287Y3011D01*
X203Y3046D01*
X112D01*
X28Y3011D01*
X0Y2983D01*
X-28Y3011D01*
X-112Y3046D01*
X-203D01*
X-287Y3011D01*
X-315Y2983D01*
X-343Y3011D01*
X-427Y3046D01*
X-518D01*
X-602Y3011D01*
X-616Y2997D01*
X-662Y3016D01*
Y3288D01*
X-668Y3317D01*
X-684Y3342D01*
X-1085Y3743D01*
X-1110Y3759D01*
X-1139Y3765D01*
X-4122D01*
X-4514Y4157D01*
Y5230D01*
X-4260Y5484D01*
X-1010D01*
X-981Y5490D01*
X-956Y5506D01*
X-487Y5975D01*
X-471Y6000D01*
X-465Y6029D01*
Y6128D01*
X-322D01*
Y5061D01*
X-372Y5041D01*
X-396Y5064D01*
X-458Y5090D01*
X-526D01*
X-588Y5064D01*
X-636Y5016D01*
X-662Y4954D01*
Y4886D01*
X-636Y4824D01*
X-613Y4800D01*
X-636Y4776D01*
X-662Y4714D01*
Y4646D01*
X-642Y4598D01*
X-660Y4556D01*
X-669Y4546D01*
X-695Y4542D01*
X-1057Y4903D01*
X-1081Y4920D01*
X-1110Y4925D01*
X-2210D01*
Y4954D01*
X-2236Y5016D01*
X-2284Y5064D01*
X-2346Y5090D01*
X-2414D01*
X-2476Y5064D01*
X-2524Y5016D01*
X-2550Y4954D01*
Y4886D01*
X-2524Y4824D01*
X-2500Y4800D01*
X-2524Y4776D01*
X-2550Y4714D01*
Y4646D01*
X-2524Y4584D01*
X-2476Y4536D01*
X-2414Y4510D01*
X-2346D01*
X-2284Y4536D01*
X-2236Y4584D01*
X-2210Y4646D01*
Y4675D01*
X-1183D01*
X-806Y4297D01*
X-781Y4281D01*
X-752Y4275D01*
X41D01*
X70Y4281D01*
X95Y4297D01*
X300Y4503D01*
X317Y4527D01*
X322Y4556D01*
Y6128D01*
X465D01*
Y4530D01*
X100Y4165D01*
X-2317D01*
X-3055Y4903D01*
X-3080Y4920D01*
X-3109Y4925D01*
X-4060D01*
Y4954D01*
X-4086Y5016D01*
X-4134Y5064D01*
X-4196Y5090D01*
X-4264D01*
X-4326Y5064D01*
X-4374Y5016D01*
X-4400Y4954D01*
Y4886D01*
X-4374Y4824D01*
X-4350Y4800D01*
X-4374Y4776D01*
X-4400Y4714D01*
Y4646D01*
X-4374Y4584D01*
X-4326Y4536D01*
X-4264Y4510D01*
X-4196D01*
X-4134Y4536D01*
X-4086Y4584D01*
X-4060Y4646D01*
Y4675D01*
X-3181D01*
X-2443Y3936D01*
X-2419Y3920D01*
X-2389Y3914D01*
X172D01*
X201Y3920D01*
X226Y3936D01*
X694Y4404D01*
X710Y4429D01*
X716Y4458D01*
X716Y4458D01*
Y6128D01*
X838D01*
Y6683D01*
D02*
G37*
G36*
X-1372Y3302D02*
X-1463D01*
X-1546Y3267D01*
X-1611Y3203D01*
X-1645Y3119D01*
Y3028D01*
X-1611Y2945D01*
X-1546Y2880D01*
X-1463Y2846D01*
X-1372D01*
X-1288Y2880D01*
X-1224Y2945D01*
X-1189Y3028D01*
Y3119D01*
X-1224Y3203D01*
X-1288Y3267D01*
X-1372Y3302D01*
D02*
G37*
G36*
X1476Y3306D02*
X1358D01*
X1269Y3288D01*
X1194Y3238D01*
X1144Y3163D01*
X1126Y3074D01*
X1144Y2985D01*
X1194Y2909D01*
X1269Y2859D01*
X1358Y2841D01*
X1476D01*
X1565Y2859D01*
X1641Y2909D01*
X1691Y2985D01*
X1709Y3074D01*
X1691Y3163D01*
X1641Y3238D01*
X1565Y3288D01*
X1476Y3306D01*
D02*
G37*
G36*
X3830Y2309D02*
X3670D01*
X3514Y2278D01*
X3367Y2217D01*
X3235Y2128D01*
X3122Y2015D01*
X3033Y1883D01*
X2972Y1736D01*
X2941Y1580D01*
Y1420D01*
X2972Y1264D01*
X3033Y1117D01*
X3122Y985D01*
X3235Y872D01*
X3367Y783D01*
X3514Y722D01*
X3670Y691D01*
X3830D01*
X3986Y722D01*
X4133Y783D01*
X4265Y872D01*
X4378Y985D01*
X4467Y1117D01*
X4528Y1264D01*
X4559Y1420D01*
Y1580D01*
X4528Y1736D01*
X4467Y1883D01*
X4378Y2015D01*
X4265Y2128D01*
X4133Y2217D01*
X3986Y2278D01*
X3830Y2309D01*
D02*
G37*
G36*
X-3670D02*
X-3830D01*
X-3986Y2278D01*
X-4133Y2217D01*
X-4265Y2128D01*
X-4378Y2015D01*
X-4467Y1883D01*
X-4528Y1736D01*
X-4559Y1580D01*
Y1420D01*
X-4528Y1264D01*
X-4467Y1117D01*
X-4378Y985D01*
X-4265Y872D01*
X-4133Y783D01*
X-3986Y722D01*
X-3830Y691D01*
X-3670D01*
X-3514Y722D01*
X-3367Y783D01*
X-3235Y872D01*
X-3122Y985D01*
X-3033Y1117D01*
X-2972Y1264D01*
X-2941Y1420D01*
Y1580D01*
X-2972Y1736D01*
X-3033Y1883D01*
X-3122Y2015D01*
X-3235Y2128D01*
X-3367Y2217D01*
X-3514Y2278D01*
X-3670Y2309D01*
D02*
G37*
%LPD*%
D12*
X-1870Y10769D02*
Y11525D01*
X-98Y11427D02*
X0Y11525D01*
X-98Y10769D02*
Y11427D01*
X0Y11525D02*
X98Y11427D01*
Y10769D02*
Y11427D01*
X1870Y10769D02*
Y11525D01*
X1594Y7508D02*
X2854D01*
X-1594Y6917D02*
Y7114D01*
X-3400Y6394D02*
X-3389Y6406D01*
X-1280D01*
X-2451Y6187D02*
X-2294Y6029D01*
X-945D01*
X-886Y6088D01*
Y6406D01*
X-4160Y6917D02*
X-3411D01*
X-3400Y6906D01*
X2264Y7114D02*
X2461Y7311D01*
X1594Y7114D02*
X2264D01*
X1244Y5200D02*
X1280Y5235D01*
Y6406D01*
X1083D02*
X1280D01*
X1756Y5200D02*
X2900D01*
X1244Y5094D02*
X1794Y4544D01*
X1244Y5094D02*
Y5200D01*
X886Y7114D02*
X1594D01*
X886Y6406D02*
Y7114D01*
X-1280Y6720D02*
X-689Y7311D01*
X-1594Y6720D02*
X-1280D01*
X-1594Y7311D02*
X-689D01*
X-2461D02*
X-1594D01*
X-2461Y6720D02*
X-1594D01*
X-2180Y6923D02*
X-2174Y6917D01*
X-1594D01*
X1594Y7311D02*
X2461D01*
X2455Y6917D02*
X2461Y6923D01*
X1594Y6917D02*
X2455D01*
X1594Y6720D02*
Y6917D01*
D13*
X3445Y10769D02*
D03*
X3248D02*
D03*
X3051D02*
D03*
X2854D02*
D03*
X2657D02*
D03*
X2461D02*
D03*
X2264D02*
D03*
X2067D02*
D03*
X1870D02*
D03*
X1673D02*
D03*
X1476D02*
D03*
X1280D02*
D03*
X1083D02*
D03*
X886D02*
D03*
X689D02*
D03*
X492D02*
D03*
X295D02*
D03*
X98D02*
D03*
X-98D02*
D03*
X-295D02*
D03*
X-492D02*
D03*
X-689D02*
D03*
X-886D02*
D03*
X-1083D02*
D03*
X-1280D02*
D03*
X-1476D02*
D03*
X-1673D02*
D03*
X-1870D02*
D03*
X-2067D02*
D03*
X-2264D02*
D03*
X-2461D02*
D03*
X-2657D02*
D03*
X-2854D02*
D03*
X-3051D02*
D03*
X-3248D02*
D03*
X-3445D02*
D03*
D14*
X-3400Y6394D02*
D03*
Y6906D02*
D03*
D15*
X-1594Y7705D02*
D03*
Y8886D02*
D03*
Y9083D02*
D03*
X1594Y9280D02*
D03*
X-1594Y8492D02*
D03*
X1594Y7902D02*
D03*
X-1594Y8098D02*
D03*
X1594Y8492D02*
D03*
Y9083D02*
D03*
Y8689D02*
D03*
Y7705D02*
D03*
X-1594Y8295D02*
D03*
X1594Y7508D02*
D03*
Y8886D02*
D03*
X-1594Y7902D02*
D03*
Y8689D02*
D03*
X1594Y8295D02*
D03*
Y8098D02*
D03*
Y7311D02*
D03*
Y7114D02*
D03*
Y6917D02*
D03*
Y6720D02*
D03*
X-1594D02*
D03*
Y6917D02*
D03*
Y7114D02*
D03*
Y7311D02*
D03*
Y7508D02*
D03*
Y9280D02*
D03*
D16*
X4075Y11624D02*
D03*
X-4075D02*
D03*
D17*
X295Y9594D02*
D03*
X1083D02*
D03*
X689D02*
D03*
X1280D02*
D03*
X98D02*
D03*
X492D02*
D03*
X886D02*
D03*
X1280Y6406D02*
D03*
X1083D02*
D03*
X886D02*
D03*
X689D02*
D03*
X492D02*
D03*
X295D02*
D03*
X98D02*
D03*
X-98D02*
D03*
X-295D02*
D03*
X-492D02*
D03*
X-689D02*
D03*
X-886D02*
D03*
X-1083D02*
D03*
X-1280D02*
D03*
Y9594D02*
D03*
X-1083D02*
D03*
X-886D02*
D03*
X-689D02*
D03*
X-492D02*
D03*
X-295D02*
D03*
X-98D02*
D03*
D18*
X0Y8000D02*
D03*
D20*
X1244Y5200D02*
D03*
X1756D02*
D03*
D29*
X-1417Y3074D02*
D03*
X1102Y2818D02*
D03*
X945Y2542D02*
D03*
X630D02*
D03*
X315D02*
D03*
X472Y2818D02*
D03*
X157D02*
D03*
X-157D02*
D03*
X-315Y2542D02*
D03*
X-472Y2818D02*
D03*
X-630Y2542D02*
D03*
X-945D02*
D03*
X-1102Y2818D02*
D03*
D30*
X1417Y3074D02*
D03*
D31*
X-1626Y2582D02*
D03*
X1626D02*
D03*
X-1768Y853D02*
D03*
X1768D02*
D03*
D32*
X-3445Y8098D02*
Y10769D01*
Y8098D02*
X-3051Y7705D01*
X-1594D01*
X295Y9594D02*
Y9999D01*
X492Y10196D01*
Y10769D01*
X-2264Y9064D02*
Y10769D01*
Y9064D02*
X-2086Y8886D01*
X-1594D01*
X-2070Y9190D02*
Y10766D01*
Y9190D02*
X-1963Y9083D01*
X-1594D01*
X1594Y9280D02*
X1673D01*
Y10769D01*
X-2657Y8689D02*
Y10769D01*
X-2461Y8492D02*
X-1594D01*
X-2657Y8689D02*
X-2461Y8492D01*
X1083Y9594D02*
Y9865D01*
X1280Y10062D01*
Y10769D01*
X3248Y8178D02*
Y10769D01*
X1594Y7902D02*
X2972D01*
X3248Y8178D01*
X-3051Y8295D02*
Y10769D01*
X-2854Y8098D02*
X-1594D01*
X-3051Y8295D02*
X-2854Y8098D01*
X689Y9911D02*
X886Y10108D01*
X689Y9594D02*
Y9911D01*
X886Y10108D02*
Y10769D01*
X1280Y9714D02*
X1476Y9911D01*
X1280Y9603D02*
Y9714D01*
Y9594D02*
Y9603D01*
X1476Y9911D02*
Y10769D01*
X2657Y8689D02*
Y10769D01*
X1594Y8492D02*
X2461D01*
X2657Y8689D01*
X2067Y10769D02*
X2070Y10766D01*
Y9190D02*
Y10766D01*
X1594Y9083D02*
X1963D01*
X2070Y9190D01*
X2461Y8886D02*
Y10769D01*
X1594Y8689D02*
X2264D01*
X2461Y8886D01*
X3445Y8098D02*
Y10769D01*
X1594Y7705D02*
X3051D01*
X3445Y8098D01*
X-2854Y8504D02*
Y10769D01*
X-2645Y8295D02*
X-1594D01*
X-2854Y8504D02*
X-2645Y8295D01*
X98Y9594D02*
Y10034D01*
X295Y10231D01*
Y10769D01*
X492Y9973D02*
X689Y10170D01*
X492Y9594D02*
Y9973D01*
X689Y10170D02*
Y10769D01*
X2264Y9064D02*
Y10769D01*
X1594Y8886D02*
X2086D01*
X2264Y9064D01*
X-3248Y8178D02*
Y10769D01*
X-2972Y7902D02*
X-1594D01*
X-3248Y8178D02*
X-2972Y7902D01*
X-2461Y8886D02*
Y10769D01*
Y8886D02*
X-2264Y8689D01*
X-1594D01*
X886Y9594D02*
Y9865D01*
X1083Y10062D01*
Y10769D01*
X2854Y8504D02*
Y10769D01*
X2645Y8295D02*
X2854Y8504D01*
X1594Y8295D02*
X2645D01*
X3051D02*
Y10769D01*
X1594Y8098D02*
X2854D01*
X3051Y8295D01*
X-1673Y9280D02*
Y10769D01*
Y9280D02*
X-1594D01*
X-1476Y9911D02*
Y10769D01*
X-1280Y9594D02*
Y9603D01*
Y9714D01*
X-1476Y9911D02*
X-1280Y9714D01*
Y10062D02*
Y10769D01*
Y10062D02*
X-1083Y9865D01*
Y9594D02*
Y9865D01*
Y10062D02*
Y10769D01*
Y10062D02*
X-886Y9865D01*
Y9594D02*
Y9865D01*
Y10108D02*
Y10769D01*
X-689Y10170D02*
Y10769D01*
Y9594D02*
Y9911D01*
X-886Y10108D02*
X-689Y9911D01*
X-492Y9594D02*
Y9973D01*
X-689Y10170D02*
X-492Y9973D01*
Y10196D02*
Y10769D01*
Y10196D02*
X-295Y9999D01*
Y9594D02*
Y9999D01*
Y10231D02*
Y10769D01*
Y10231D02*
X-98Y10034D01*
Y9594D02*
Y10034D01*
X-1673Y9280D02*
X-1594D01*
D33*
X-752Y4351D02*
X41D01*
X-2309Y4751D02*
X-1151D01*
X-2309Y4850D02*
X-1110D01*
X-711Y4450D01*
X-1151Y4751D02*
X-752Y4351D01*
X-711Y4450D02*
X0D01*
X-4160Y4751D02*
X-3150D01*
X-2348Y4089D02*
X131D01*
X-3109Y4850D02*
X-2348Y4089D01*
X-4160Y4850D02*
X-3109D01*
X-3150Y4751D02*
X-2389Y3990D01*
X172D01*
X0Y4450D02*
X147Y4597D01*
X41Y4351D02*
X246Y4556D01*
X172Y3990D02*
X640Y4458D01*
X131Y4089D02*
X541Y4499D01*
X-837Y2650D02*
Y3247D01*
X-4154Y3689D02*
X-1139D01*
X-738Y2650D02*
Y3288D01*
X-1139Y3689D02*
X-738Y3288D01*
X-4195Y3590D02*
X-1180D01*
X-837Y3247D01*
X-4590Y4125D02*
X-4154Y3689D01*
X-4689Y4084D02*
X-4195Y3590D01*
X541Y4499D02*
Y6357D01*
X640Y4458D02*
Y6357D01*
X246Y4556D02*
Y6357D01*
X147Y4597D02*
Y6357D01*
X-4292Y5560D02*
X-1010D01*
X-4689Y5303D02*
X-4333Y5659D01*
X-1051D01*
X-4590Y5262D02*
X-4292Y5560D01*
X-4590Y4125D02*
Y5262D01*
X-4689Y4084D02*
Y5303D01*
X-1010Y5560D02*
X-541Y6029D01*
Y6357D01*
X-492Y6406D01*
X-1051Y5659D02*
X-640Y6070D01*
Y6357D01*
X-689Y6406D02*
X-640Y6357D01*
X-738Y2650D02*
X-630Y2542D01*
X-945D02*
X-837Y2650D01*
X640Y6357D02*
X689Y6406D01*
X492D02*
X541Y6357D01*
X-4230Y4680D02*
X-4160Y4751D01*
X-4230Y4920D02*
X-4160Y4850D01*
X246Y6357D02*
X295Y6406D01*
X98D02*
X147Y6357D01*
X-2380Y4680D02*
X-2309Y4751D01*
X-2380Y4920D02*
X-2309Y4850D01*
X-315D02*
X-246Y4918D01*
Y6070D01*
X-274Y4751D02*
X-147Y4877D01*
Y6111D01*
Y6357D01*
X-98Y6406D01*
X-246Y6070D02*
Y6357D01*
X-295Y6406D02*
X-246Y6357D01*
X-422Y4751D02*
X-274D01*
X-492Y4680D02*
X-422Y4751D01*
Y4850D02*
X-315D01*
X-492Y4920D02*
X-422Y4850D01*
X1289Y3616D02*
Y4090D01*
X1190Y3657D02*
Y4090D01*
X738Y2650D02*
Y3205D01*
X837Y2650D02*
Y3164D01*
X1289Y3616D01*
X738Y3205D02*
X1190Y3657D01*
X837Y2650D02*
X945Y2542D01*
X630D02*
X738Y2650D01*
X1289Y4090D02*
X1359Y4160D01*
X1120D02*
X1190Y4090D01*
D34*
X3750Y1500D02*
D03*
X-3750D02*
D03*
D35*
X-1870Y11525D02*
D03*
X1870D02*
D03*
X2854Y7508D02*
D03*
X0Y11525D02*
D03*
X-2756Y7508D02*
D03*
X-2451Y6187D02*
D03*
X945Y4751D02*
D03*
X-4230Y5253D02*
D03*
X4540Y9791D02*
D03*
Y7902D02*
D03*
Y5294D02*
D03*
Y3540D02*
D03*
X2455Y2542D02*
D03*
Y4230D02*
D03*
X-1280Y5200D02*
D03*
X-2972Y4020D02*
D03*
X-4470Y3074D02*
D03*
X-2756Y2818D02*
D03*
X-4160Y8390D02*
D03*
Y9973D02*
D03*
Y6917D02*
D03*
X-2461Y7311D02*
D03*
Y6720D02*
D03*
X3750Y4544D02*
D03*
X2264Y6720D02*
D03*
X2461Y6923D02*
D03*
X-2180D02*
D03*
X2461Y7311D02*
D03*
X3400D02*
D03*
X2900Y5200D02*
D03*
X1794Y4544D02*
D03*
X-4230Y4920D02*
D03*
Y4680D02*
D03*
X-2380Y4920D02*
D03*
Y4680D02*
D03*
X-492Y4920D02*
D03*
Y4680D02*
D03*
X1359Y4160D02*
D03*
X1120D02*
D03*
M02*
