G04*
G04 #@! TF.GenerationSoftware,Altium Limited,Altium Designer,25.8.1 (18)*
G04*
G04 Layer_Color=128*
%FSLAX24Y24*%
%MOIN*%
G70*
G04*
G04 #@! TF.SameCoordinates,FB535185-60C9-4DA5-A862-71F2FEF65C4D*
G04*
G04*
G04 #@! TF.FilePolarity,Positive*
G04*
G01*
G75*
%ADD10R,0.0866X0.1299*%
%ADD11R,0.0118X0.0472*%
D10*
X83135Y9826D02*
D03*
X74985D02*
D03*
X83135Y26826D02*
D03*
X74985D02*
D03*
X83135Y43926D02*
D03*
X74985D02*
D03*
X83135Y60926D02*
D03*
X74985D02*
D03*
D11*
X82505Y10681D02*
D03*
X82308D02*
D03*
X82111D02*
D03*
X81914D02*
D03*
X81717D02*
D03*
X81521D02*
D03*
X81324D02*
D03*
X81127D02*
D03*
X80930D02*
D03*
X80733D02*
D03*
X80536D02*
D03*
X80340D02*
D03*
X80143D02*
D03*
X79946D02*
D03*
X79749D02*
D03*
X79552D02*
D03*
X79355D02*
D03*
X79158D02*
D03*
X78962D02*
D03*
X78765D02*
D03*
X78568D02*
D03*
X78371D02*
D03*
X78174D02*
D03*
X77977D02*
D03*
X77780D02*
D03*
X77584D02*
D03*
X77387D02*
D03*
X77190D02*
D03*
X76993D02*
D03*
X76796D02*
D03*
X76599D02*
D03*
X76403D02*
D03*
X76206D02*
D03*
X76009D02*
D03*
X75812D02*
D03*
X75615D02*
D03*
X82505Y27681D02*
D03*
X82308D02*
D03*
X82111D02*
D03*
X81914D02*
D03*
X81717D02*
D03*
X81521D02*
D03*
X81324D02*
D03*
X81127D02*
D03*
X80930D02*
D03*
X80733D02*
D03*
X80536D02*
D03*
X80340D02*
D03*
X80143D02*
D03*
X79946D02*
D03*
X79749D02*
D03*
X79552D02*
D03*
X79355D02*
D03*
X79158D02*
D03*
X78962D02*
D03*
X78765D02*
D03*
X78568D02*
D03*
X78371D02*
D03*
X78174D02*
D03*
X77977D02*
D03*
X77780D02*
D03*
X77584D02*
D03*
X77387D02*
D03*
X77190D02*
D03*
X76993D02*
D03*
X76796D02*
D03*
X76599D02*
D03*
X76403D02*
D03*
X76206D02*
D03*
X76009D02*
D03*
X75812D02*
D03*
X75615D02*
D03*
X82505Y44781D02*
D03*
X82308D02*
D03*
X82111D02*
D03*
X81914D02*
D03*
X81717D02*
D03*
X81521D02*
D03*
X81324D02*
D03*
X81127D02*
D03*
X80930D02*
D03*
X80733D02*
D03*
X80536D02*
D03*
X80340D02*
D03*
X80143D02*
D03*
X79946D02*
D03*
X79749D02*
D03*
X79552D02*
D03*
X79355D02*
D03*
X79158D02*
D03*
X78962D02*
D03*
X78765D02*
D03*
X78568D02*
D03*
X78371D02*
D03*
X78174D02*
D03*
X77977D02*
D03*
X77780D02*
D03*
X77584D02*
D03*
X77387D02*
D03*
X77190D02*
D03*
X76993D02*
D03*
X76796D02*
D03*
X76599D02*
D03*
X76403D02*
D03*
X76206D02*
D03*
X76009D02*
D03*
X75812D02*
D03*
X75615D02*
D03*
X82505Y61781D02*
D03*
X82308D02*
D03*
X82111D02*
D03*
X81914D02*
D03*
X81717D02*
D03*
X81521D02*
D03*
X81324D02*
D03*
X81127D02*
D03*
X80930D02*
D03*
X80733D02*
D03*
X80536D02*
D03*
X80340D02*
D03*
X80143D02*
D03*
X79946D02*
D03*
X79749D02*
D03*
X79552D02*
D03*
X79355D02*
D03*
X79158D02*
D03*
X78962D02*
D03*
X78765D02*
D03*
X78568D02*
D03*
X78371D02*
D03*
X78174D02*
D03*
X77977D02*
D03*
X77780D02*
D03*
X77584D02*
D03*
X77387D02*
D03*
X77190D02*
D03*
X76993D02*
D03*
X76796D02*
D03*
X76599D02*
D03*
X76403D02*
D03*
X76206D02*
D03*
X76009D02*
D03*
X75812D02*
D03*
X75615D02*
D03*
M02*
