G04*
G04 #@! TF.GenerationSoftware,Altium Limited,Altium Designer,25.8.1 (18)*
G04*
G04 Layer_Color=2752767*
%FSLAX24Y24*%
%MOIN*%
G70*
G04*
G04 #@! TF.SameCoordinates,9AE8A2C5-6196-4BC8-9162-DC58875C59FE*
G04*
G04*
G04 #@! TF.FilePolarity,Positive*
G04*
G01*
G75*
%ADD20C,0.0020*%
D20*
X4644Y14356D02*
Y14516D01*
X4804D01*
Y14356D01*
X4644D01*
X6613Y12387D02*
Y12547D01*
X6773D01*
Y12387D01*
X6613D01*
X4644D02*
Y12547D01*
X4804D01*
Y12387D01*
X4644D01*
X2676D02*
Y12547D01*
X2836D01*
Y12387D01*
X2676D01*
X707D02*
Y12547D01*
X867D01*
Y12387D01*
X707D01*
X2676Y14356D02*
Y14516D01*
X2836D01*
Y14356D01*
X2676D01*
X2366Y16173D02*
Y16333D01*
X2526D01*
Y16173D01*
X2366D01*
X2900Y16240D02*
Y16400D01*
X3060D01*
Y16240D01*
X2900D01*
X3090Y15960D02*
Y16120D01*
X3250D01*
Y15960D01*
X3090D01*
X4954Y16173D02*
Y16333D01*
X5114D01*
Y16173D01*
X4954D01*
X4420Y16240D02*
Y16400D01*
X4580D01*
Y16240D01*
X4420D01*
X4230Y15960D02*
Y16120D01*
X4390D01*
Y15960D01*
X4230D01*
X9473Y32540D02*
Y32700D01*
X9633D01*
Y32540D01*
X9473D01*
X5733Y32700D02*
Y32860D01*
X5893D01*
Y32700D01*
X5733D01*
X7499Y32820D02*
Y32980D01*
X7659D01*
Y32820D01*
X7499D01*
X7693Y32400D02*
Y32560D01*
X7853D01*
Y32400D01*
X7693D01*
M02*
