G04*
G04 #@! TF.GenerationSoftware,Altium Limited,Altium Designer,25.8.1 (18)*
G04*
G04 Layer_Physical_Order=2*
G04 Layer_Color=16711680*
%FSLAX24Y24*%
%MOIN*%
G70*
G04*
G04 #@! TF.SameCoordinates,9AE8A2C5-6196-4BC8-9162-DC58875C59FE*
G04*
G04*
G04 #@! TF.FilePolarity,Positive*
G04*
G01*
G75*
%ADD14C,0.0040*%
%ADD15C,0.0180*%
%ADD16C,0.0060*%
D14*
X790Y12470D02*
X1830Y13510D01*
Y15645D01*
X5650Y13510D02*
Y15645D01*
Y13510D02*
X6690Y12470D01*
X5038Y16257D02*
X5650Y15645D01*
X5034Y16253D02*
X5038Y16257D01*
X2442D02*
X2446Y16253D01*
X1830Y15645D02*
X2442Y16257D01*
X4500Y14660D02*
X4722Y14439D01*
X4310Y16040D02*
X4320Y16030D01*
X4500Y14660D02*
Y16320D01*
X2980Y14660D02*
Y16320D01*
X2758Y14439D02*
X2980Y14660D01*
X3160Y16030D02*
X3170Y16040D01*
X3160Y12872D02*
Y16030D01*
X2758Y12470D02*
X3160Y12872D01*
X4320D02*
X4722Y12470D01*
X4320Y12872D02*
Y16030D01*
D15*
X4724Y14436D02*
D03*
X6693Y12467D02*
D03*
X4724D02*
D03*
X2756D02*
D03*
X787D02*
D03*
X2756Y14436D02*
D03*
X2446Y16253D02*
D03*
X2980Y16320D02*
D03*
X3170Y16040D02*
D03*
X5034Y16253D02*
D03*
X4500Y16320D02*
D03*
X4310Y16040D02*
D03*
X9553Y32620D02*
D03*
X5813Y32780D02*
D03*
X7579Y32900D02*
D03*
X7773Y32480D02*
D03*
D16*
X6893Y12467D02*
G03*
X6677Y12667I-200J0D01*
G01*
X6494Y12483D02*
G03*
X6893Y12467I199J-16D01*
G01*
X4630Y16168D02*
G03*
X4700Y16320I-130J152D01*
G01*
D02*
G03*
X4317Y16240I-200J0D01*
G01*
X5234Y16253D02*
G03*
X5057Y16054I-200J0D01*
G01*
X4317Y16240D02*
G03*
X4190Y15880I-7J-200D01*
G01*
X5780Y15645D02*
G03*
X5742Y15737I-130J0D01*
G01*
X5780Y15645D02*
G03*
X5742Y15737I-130J0D01*
G01*
X4924Y14436D02*
G03*
X4709Y14635I-200J0D01*
G01*
X5520Y13510D02*
G03*
X5558Y13418I130J0D01*
G01*
X5520Y13510D02*
G03*
X5558Y13418I130J0D01*
G01*
X4924Y12467D02*
G03*
X4709Y12667I-200J0D01*
G01*
X4525Y14451D02*
G03*
X4924Y14436I199J-16D01*
G01*
X4525Y12483D02*
G03*
X4924Y12467I199J-16D01*
G01*
X4190Y12872D02*
G03*
X4228Y12780I130J0D01*
G01*
X4190Y12872D02*
G03*
X4228Y12780I130J0D01*
G01*
X3370Y16040D02*
G03*
X3163Y16240I-200J0D01*
G01*
X3163Y16240D02*
G03*
X3180Y16320I-183J80D01*
G01*
X3290Y15880D02*
G03*
X3370Y16040I-120J160D01*
G01*
X3180Y16320D02*
G03*
X2850Y16168I-200J0D01*
G01*
X2423Y16054D02*
G03*
X2646Y16253I23J199D01*
G01*
D02*
G03*
X2246Y16245I-200J0D01*
G01*
X2771Y14635D02*
G03*
X2956Y14436I-16J-199D01*
G01*
X1738Y15737D02*
G03*
X1700Y15645I92J-92D01*
G01*
X1738Y15737D02*
G03*
X1700Y15645I92J-92D01*
G01*
X1922Y13418D02*
G03*
X1960Y13510I-92J92D01*
G01*
X1922Y13418D02*
G03*
X1960Y13510I-92J92D01*
G01*
X3252Y12780D02*
G03*
X3290Y12872I-92J92D01*
G01*
X3252Y12780D02*
G03*
X3290Y12872I-92J92D01*
G01*
X2771Y12667D02*
G03*
X2956Y12467I-16J-199D01*
G01*
X803Y12667D02*
G03*
X987Y12467I-16J-199D01*
G01*
X9026Y36451D02*
X11175Y34302D01*
X8743Y36451D02*
X11175Y34019D01*
X8461Y36451D02*
X11175Y33736D01*
X11006Y36451D02*
X11175Y36282D01*
X10723Y36451D02*
X11175Y35999D01*
X10440Y36451D02*
X11175Y35716D01*
X10158Y36451D02*
X11175Y35433D01*
X9875Y36451D02*
X11175Y35150D01*
X8178Y36451D02*
X11175Y33453D01*
X9592Y36451D02*
X11175Y34868D01*
X9309Y36451D02*
X11175Y34585D01*
X7895Y36451D02*
X11175Y33170D01*
X7612Y36451D02*
X11175Y32888D01*
X7329Y36451D02*
X11175Y32605D01*
X11175Y32677D02*
X11175Y36451D01*
X5773Y29532D02*
X11175Y34934D01*
X5752Y29793D02*
X11175Y35217D01*
X6481Y36451D02*
X11011Y31921D01*
X6198Y36451D02*
X10912Y31737D01*
X5915Y36451D02*
X10797Y31569D01*
X7046Y36451D02*
X11148Y32350D01*
X6764Y36451D02*
X11090Y32124D01*
X5632Y36451D02*
X10666Y31417D01*
X5349Y36451D02*
X10519Y31281D01*
X4179Y36451D02*
X11175Y36451D01*
X5213Y30951D02*
X10712Y36451D01*
X5342Y30798D02*
X10995Y36451D01*
X5070Y31091D02*
X10429Y36451D01*
X5066Y36451D02*
X10359Y31159D01*
X4784Y36451D02*
X10212Y31023D01*
X4501Y36451D02*
X10077Y30875D01*
X4917Y31221D02*
X10147Y36451D01*
X4762Y31349D02*
X9864Y36451D01*
X5455Y30628D02*
X11175Y36348D01*
X5555Y30445D02*
X11175Y36066D01*
X4218Y36451D02*
X9955Y30714D01*
X5706Y30031D02*
X11175Y35500D01*
X5639Y30247D02*
X11175Y35783D01*
X4179Y35924D02*
X9753Y30351D01*
X4179Y35642D02*
X9677Y30143D01*
X4179Y36207D02*
X9847Y30539D01*
X4179Y35076D02*
X9588Y29667D01*
X4179Y35359D02*
X9621Y29917D01*
X11175Y32677D02*
X11175Y32572D01*
X11151Y32362D02*
X11175Y32572D01*
X11102Y32157D02*
X11151Y32362D01*
X11030Y31959D02*
X11102Y32157D01*
X10935Y31771D02*
X11030Y31959D01*
X10819Y31595D02*
X10935Y31771D01*
X10683Y31433D02*
X10819Y31595D01*
X10529Y31289D02*
X10683Y31433D01*
X10444Y31226D02*
X10529Y31289D01*
X10350Y31152D02*
X10440Y31223D01*
X10172Y30986D02*
X10339Y31143D01*
X10011Y30796D02*
X10159Y30972D01*
X5773Y26987D02*
X11151Y32364D01*
X5773Y27269D02*
X11175Y32672D01*
X9873Y30590D02*
X10000Y30781D01*
X9760Y30368D02*
X9864Y30573D01*
X9674Y30135D02*
X9753Y30351D01*
X9615Y29893D02*
X9669Y30117D01*
X9585Y29647D02*
X9612Y29875D01*
X9581Y29518D02*
X9584Y29632D01*
X9581Y22778D02*
X9581Y29513D01*
X5773Y28966D02*
X11175Y34369D01*
X5773Y28684D02*
X11175Y34086D01*
X5773Y29249D02*
X11175Y34651D01*
X5773Y28401D02*
X11175Y33803D01*
X5773Y28118D02*
X11175Y33520D01*
X4179Y33379D02*
X9581Y27977D01*
X4179Y34793D02*
X9581Y29391D01*
X4179Y34227D02*
X9581Y28825D01*
X4179Y34510D02*
X9581Y29108D01*
X4179Y33662D02*
X9581Y28260D01*
X4179Y33945D02*
X9581Y28542D01*
X5773Y27835D02*
X11175Y33237D01*
X5773Y27552D02*
X11175Y32954D01*
X5752Y26683D02*
X11030Y31961D01*
X5773Y28390D02*
X9581Y24583D01*
X5588Y26235D02*
X9801Y30448D01*
X5323Y30820D02*
X9581Y26563D01*
X5654Y30206D02*
X9581Y26280D01*
X4247Y32179D02*
X9581Y26845D01*
X5773Y28673D02*
X9581Y24865D01*
X5747Y29830D02*
X9581Y25997D01*
X4302Y32021D02*
X8732Y36451D01*
X4391Y31827D02*
X9015Y36451D01*
X4234Y32235D02*
X8450Y36451D01*
X4622Y31492D02*
X9581Y36451D01*
X4672Y31433D02*
X4825Y31289D01*
X4498Y31651D02*
X9298Y36451D01*
X4252Y32157D02*
X4325Y31959D01*
X4419Y31771D01*
X4203Y32362D02*
X4252Y32157D01*
X4536Y31595D02*
X4672Y31433D01*
X4419Y31771D02*
X4536Y31595D01*
X5491Y30573D02*
X5594Y30368D01*
X5602Y30351D02*
X5680Y30135D01*
X5355Y30781D02*
X5481Y30590D01*
X5742Y29875D02*
X5769Y29647D01*
X5770Y29632D02*
X5773Y29518D01*
X5686Y30117D02*
X5739Y29893D01*
X4825Y31289D02*
X4910Y31226D01*
X4914Y31223D02*
X5004Y31152D01*
X4510Y31634D02*
X4944Y31200D01*
X5195Y30972D02*
X5343Y30796D01*
X5015Y31143D02*
X5182Y30986D01*
X4179Y35009D02*
X5621Y36451D01*
X4179Y34726D02*
X5904Y36451D01*
X4179Y34443D02*
X6187Y36451D01*
X4179Y33877D02*
X6753Y36451D01*
X4179Y33595D02*
X7035Y36451D01*
X4179Y34160D02*
X6470Y36451D01*
X4179Y36140D02*
X4490Y36451D01*
X4179Y35857D02*
X4773Y36451D01*
X4179Y36423D02*
X4207Y36451D01*
X4179Y35292D02*
X5338Y36451D01*
X4179Y35574D02*
X5055Y36451D01*
X4190Y32475D02*
X8167Y36451D01*
X4179Y33096D02*
X9581Y27694D01*
X4179Y32746D02*
X7884Y36451D01*
X4184Y32525D02*
X9581Y27128D01*
X4179Y32813D02*
X9581Y27411D01*
X4179Y33312D02*
X7318Y36451D01*
X4179Y33029D02*
X7601Y36451D01*
X4179Y32677D02*
X4179Y36451D01*
X4179Y32572D02*
X4203Y32362D01*
X4179Y32572D02*
Y32677D01*
X5773Y29239D02*
X9581Y25431D01*
X5773Y28956D02*
X9581Y25148D01*
X5773Y29522D02*
X9581Y25714D01*
X9581Y22711D02*
Y22778D01*
X9564Y22579D02*
X9581Y22711D01*
X5773Y26976D02*
X9581Y23168D01*
X5773Y28107D02*
X9581Y24300D01*
X5773Y27825D02*
X9581Y24017D01*
X5773Y29513D02*
X5773Y26912D01*
Y27259D02*
X9581Y23451D01*
X5773Y27542D02*
X9581Y23734D01*
X9529Y22450D02*
X9564Y22579D01*
X9478Y22327D02*
X9529Y22450D01*
X8769Y21779D02*
X9562Y22573D01*
X9411Y22211D02*
X9478Y22327D01*
X9330Y22105D02*
X9411Y22211D01*
X9236Y22011D02*
X9330Y22105D01*
X9130Y21930D02*
X9236Y22011D01*
X9014Y21863D02*
X9130Y21930D01*
X8891Y21812D02*
X9014Y21863D01*
X8762Y21778D02*
X8891Y21812D01*
X5771Y26829D02*
X5773Y26907D01*
X5749Y26660D02*
X5769Y26813D01*
X5705Y26490D02*
X5745Y26639D01*
X5639Y26327D02*
X5698Y26470D01*
X5552Y26174D02*
X5630Y26308D01*
X5447Y26034D02*
X5541Y26156D01*
X5323Y25909D02*
X5432Y26018D01*
X5185Y25800D02*
X5307Y25895D01*
X5033Y25711D02*
X5167Y25789D01*
X4871Y25643D02*
X5014Y25702D01*
X4702Y25596D02*
X4851Y25636D01*
X5756Y26711D02*
X9581Y22886D01*
X5701Y26482D02*
X9568Y22615D01*
X5616Y26285D02*
X9506Y22395D01*
X5506Y26112D02*
X9409Y22209D01*
X5375Y25960D02*
X9280Y22055D01*
X5223Y25830D02*
X9125Y21927D01*
X5049Y25721D02*
X8938Y21832D01*
X4851Y25636D02*
X8715Y21771D01*
X4528Y25572D02*
X4681Y25592D01*
X4434Y25568D02*
X4512Y25570D01*
X7052Y21760D02*
X9581Y24289D01*
X7335Y21760D02*
X9581Y24006D01*
X6747Y21737D02*
X9581Y24572D01*
X8467Y21760D02*
X9581Y22875D01*
X7901Y21760D02*
X9581Y23440D01*
X7618Y21760D02*
X9581Y23723D01*
X8184Y21760D02*
X9581Y23157D01*
X8630Y21760D02*
X8762Y21778D01*
X6988Y21760D02*
X8563Y21760D01*
X8563D02*
X8630Y21760D01*
X6906Y21758D02*
X6983Y21760D01*
X7178Y16540D02*
X7246Y16437D01*
X7293Y16324D01*
X7033Y16665D02*
X7216Y16482D01*
X7317Y16203D02*
X7317Y16142D01*
X7317Y787D02*
X7317Y16142D01*
X7293Y16324D02*
X7317Y16203D01*
X6754Y16766D02*
X6875Y16742D01*
X6989Y16695D01*
X6736Y21736D02*
X6890Y21756D01*
X7091Y16627D02*
X7178Y16540D01*
X6989Y16695D02*
X7091Y16627D01*
X4620Y25584D02*
X8444Y21760D01*
X4070Y25568D02*
X7878Y21760D01*
X3788Y25568D02*
X7595Y21760D01*
X6287Y21560D02*
X9581Y24854D01*
X6276Y16857D02*
X7317Y15816D01*
X4353Y25568D02*
X8161Y21760D01*
X6648Y16768D02*
X7317Y16098D01*
X5780Y15397D02*
X7042Y16659D01*
X3505Y25568D02*
X7312Y21760D01*
X5780Y14831D02*
X7287Y16338D01*
X5780Y15114D02*
X7189Y16523D01*
X5780Y15372D02*
X7317Y13836D01*
X5780Y13700D02*
X7317Y15237D01*
X5780Y13983D02*
X7317Y15520D01*
X5995Y13349D02*
X7317Y14671D01*
X5854Y13490D02*
X7317Y14954D01*
X5780Y14548D02*
X7317Y16085D01*
X5780Y14266D02*
X7317Y15802D01*
X5780Y15656D02*
X7317Y14118D01*
X5780Y14807D02*
X7317Y13270D01*
X5780Y15090D02*
X7317Y13553D01*
X6278Y13066D02*
X7317Y14105D01*
X6419Y12925D02*
X7317Y13823D01*
X6137Y13208D02*
X7317Y14388D01*
X6880Y12537D02*
X7317Y12974D01*
X6840Y12332D02*
X7317Y11856D01*
X6600Y12291D02*
X7317Y11573D01*
X6725Y12665D02*
X7317Y13257D01*
X6561Y12783D02*
X7317Y13540D01*
X7317Y787D02*
X7317Y726D01*
X7293Y605D02*
X7317Y726D01*
X6669Y163D02*
X7317Y812D01*
X6386Y163D02*
X7317Y1095D01*
X7246Y492D02*
X7293Y605D01*
X7178Y389D02*
X7246Y492D01*
X7091Y302D02*
X7178Y389D01*
X7090Y302D02*
X7178Y390D01*
X6989Y234D02*
X7091Y302D01*
X6875Y187D02*
X6989Y234D01*
X6754Y163D02*
X6875Y187D01*
X4450Y13591D02*
X7317Y10724D01*
X4450Y13308D02*
X7317Y10442D01*
X4450Y13874D02*
X7317Y11007D01*
X4866Y12327D02*
X7317Y9876D01*
X4597Y12314D02*
X7317Y9593D01*
X4450Y13026D02*
X7317Y10159D01*
X5780Y14524D02*
X7317Y12987D01*
X5780Y14241D02*
X7317Y12704D01*
X4450Y14157D02*
X7317Y11290D01*
X5780Y13675D02*
X7317Y12139D01*
X5780Y13958D02*
X7317Y12421D01*
X3840Y163D02*
X7317Y3640D01*
X4123Y163D02*
X7317Y3357D01*
X3557Y163D02*
X7317Y3923D01*
X6103Y163D02*
X7317Y1377D01*
X5820Y163D02*
X7317Y1660D01*
X4689Y163D02*
X7317Y2792D01*
X4971Y163D02*
X7317Y2509D01*
X4406Y163D02*
X7317Y3075D01*
X5537Y163D02*
X7317Y1943D01*
X5254Y163D02*
X7317Y2226D01*
X6566Y21692D02*
X6716Y21732D01*
X6403Y21626D02*
X6546Y21685D01*
X6250Y21539D02*
X6384Y21616D01*
X6110Y21433D02*
X6233Y21527D01*
X5985Y21310D02*
X6094Y21419D01*
X5877Y21171D02*
X5971Y21294D01*
X5788Y21020D02*
X5865Y21154D01*
X5719Y20858D02*
X5778Y21001D01*
X5672Y20689D02*
X5712Y20838D01*
X5651Y17696D02*
X5685Y17526D01*
X5648Y20514D02*
X5668Y20668D01*
X6404Y16807D02*
X6574Y16773D01*
X6598Y16770D02*
X6685Y16766D01*
X5648Y15831D02*
X6590Y16772D01*
X6693Y16766D02*
X6754D01*
X5776Y15676D02*
X6848Y16747D01*
X5776Y17307D02*
X5873Y17162D01*
X5893Y17138D02*
X6016Y17015D01*
X5695Y17495D02*
X5761Y17335D01*
X6213Y16883D02*
X6373Y16817D01*
X6040Y16995D02*
X6185Y16898D01*
X5644Y17807D02*
X5648Y17720D01*
X4699Y16295D02*
X5754Y17351D01*
X4609Y16488D02*
X5679Y17558D01*
X5234Y16265D02*
X6000Y17031D01*
X5365Y16113D02*
X6164Y16912D01*
X5120Y16434D02*
X5863Y17177D01*
X5644Y20421D02*
X5647Y20498D01*
X5644Y20416D02*
X5644Y17815D01*
X3363Y16091D02*
X5644Y18372D01*
X5507Y15972D02*
X6358Y16823D01*
X5234Y16245D02*
X5742Y15737D01*
X4664Y16206D02*
X5520Y15350D01*
X5057Y16054D02*
X5520Y15591D01*
X4630Y15957D02*
X5520Y15067D01*
X4630Y14714D02*
Y16168D01*
Y15661D02*
X5022Y16053D01*
X4630Y15944D02*
X4853Y16167D01*
X5780Y13564D02*
Y15645D01*
X4905Y14522D02*
X5520Y15137D01*
X4872Y14301D02*
X5520Y13653D01*
X4736Y14636D02*
X5520Y15420D01*
X4630Y15096D02*
X5323Y15788D01*
X4630Y15674D02*
X5520Y14784D01*
X4630Y15378D02*
X5182Y15930D01*
X4630Y14813D02*
X5464Y15647D01*
X5780Y13564D02*
X6677Y12667D01*
X5558Y13418D02*
X6494Y12483D01*
X4631Y14259D02*
X6516Y12374D01*
X6693Y163D02*
X6754D01*
X4909Y12545D02*
X5670Y13307D01*
X5520Y13510D02*
Y15591D01*
X4747Y12666D02*
X5533Y13453D01*
X4630Y15391D02*
X5520Y14501D01*
X4630Y15108D02*
X5520Y14218D01*
X4450Y13784D02*
X5520Y14854D01*
X4630Y14825D02*
X5520Y13935D01*
X4450Y13501D02*
X5520Y14571D01*
X4630Y14714D02*
X4709Y14635D01*
X4450Y14440D02*
X4548Y14343D01*
X4450Y14526D02*
X4525Y14451D01*
X4450Y14067D02*
X4639Y14255D01*
X4450Y14350D02*
X4525Y14424D01*
X4450Y12936D02*
X5520Y14006D01*
X4587Y12789D02*
X5520Y13723D01*
X4450Y13218D02*
X5520Y14288D01*
X4450Y12925D02*
X4709Y12667D01*
X4450Y12925D02*
Y14526D01*
X4190Y12872D02*
Y15880D01*
X4228Y12780D02*
X4525Y12483D01*
X2939Y25568D02*
X6767Y21740D01*
X1836Y21635D02*
X9581Y29380D01*
X1836Y21918D02*
X9588Y29670D01*
X3222Y25568D02*
X7029Y21760D01*
X2671Y25552D02*
X6541Y21683D01*
X2455Y25486D02*
X6346Y21595D01*
X2854Y25568D02*
X4429D01*
X1836Y23050D02*
X4354Y25568D01*
X1836Y24181D02*
X3223Y25568D01*
X2272Y25386D02*
X6175Y21483D01*
X2120Y25255D02*
X6025Y21350D01*
X1995Y25097D02*
X5896Y21197D01*
X1901Y24909D02*
X5788Y21021D01*
X1845Y24682D02*
X5707Y20820D01*
X1836Y22711D02*
X5644Y18903D01*
X1836Y22428D02*
X5644Y18620D01*
X1836Y24408D02*
X5657Y20587D01*
X1836Y23842D02*
X5644Y20034D01*
X1836Y23559D02*
X5644Y19751D01*
X1836Y24125D02*
X5644Y20317D01*
X1836Y22993D02*
X5644Y19186D01*
X1836Y23276D02*
X5644Y19469D01*
X1836Y22201D02*
X9643Y30007D01*
X1836Y21353D02*
X9581Y29097D01*
X1836Y21070D02*
X9581Y28814D01*
X1836Y20504D02*
X9581Y28249D01*
X1836Y20221D02*
X9581Y27966D01*
X1836Y20787D02*
X9581Y28531D01*
X1836Y23898D02*
X3506Y25568D01*
X1836Y22767D02*
X4658Y25589D01*
X1836Y22484D02*
X5106Y25753D01*
X1836Y23332D02*
X4072Y25568D01*
X1836Y23615D02*
X3789Y25568D01*
X1836Y18241D02*
X9581Y25986D01*
X1836Y17958D02*
X9581Y25703D01*
X1836Y18524D02*
X9581Y26269D01*
X1822Y17661D02*
X9581Y25420D01*
X1611Y17168D02*
X9581Y25137D01*
X1836Y19655D02*
X9581Y27400D01*
X1836Y19373D02*
X9581Y27117D01*
X1836Y19938D02*
X9581Y27683D01*
X1836Y18807D02*
X9581Y26552D01*
X1836Y19090D02*
X9581Y26834D01*
X2939Y16516D02*
X5644Y19220D01*
X3143Y16436D02*
X5644Y18938D01*
X2559Y16418D02*
X5644Y19503D01*
X3290Y15735D02*
X5644Y18089D01*
X3290Y15452D02*
X5644Y17806D01*
X3222Y16233D02*
X5644Y18655D01*
X3176Y16280D02*
X3223Y16233D01*
X3363Y16093D02*
X4190Y15265D01*
X3290Y14321D02*
X4190Y15221D01*
X3290Y15034D02*
X4190Y14134D01*
X3290Y15317D02*
X4190Y14417D01*
X3290Y14752D02*
X4190Y13851D01*
X3290Y14038D02*
X4190Y14938D01*
X3292Y15881D02*
X4190Y14983D01*
X3290Y14887D02*
X4190Y15787D01*
X3290Y15169D02*
X4115Y15995D01*
X3290Y14604D02*
X4190Y15504D01*
X3290Y15600D02*
X4190Y14700D01*
X1836Y21862D02*
X5644Y18054D01*
X1836Y21579D02*
X5646Y17770D01*
X1836Y22145D02*
X5644Y18337D01*
X1836Y21296D02*
X5735Y17398D01*
X1836Y19316D02*
X4843Y16310D01*
X1836Y19599D02*
X4988Y16447D01*
X1836Y18751D02*
X4304Y16283D01*
X1836Y18468D02*
X4148Y16157D01*
X1836Y19034D02*
X4386Y16484D01*
X1836Y17902D02*
X4190Y15548D01*
X1836Y18185D02*
X4190Y15831D01*
X1836Y20731D02*
X7317Y15250D01*
X1836Y20448D02*
X7317Y14967D01*
X1836Y21014D02*
X7317Y15533D01*
X1836Y19882D02*
X7317Y14401D01*
X1836Y20165D02*
X7317Y14684D01*
X163Y15154D02*
X5667Y20657D01*
X163Y14871D02*
X5644Y20352D01*
X163Y15437D02*
X5844Y21118D01*
X163Y14305D02*
X5644Y19786D01*
X163Y14588D02*
X5644Y20069D01*
X2788Y25568D02*
X2854Y25568D01*
X2655Y25550D02*
X2788Y25568D01*
X2526Y25516D02*
X2655Y25550D01*
X2403Y25465D02*
X2526Y25516D01*
X2288Y25398D02*
X2403Y25465D01*
X1859Y24770D02*
X2634Y25545D01*
X2182Y25317D02*
X2288Y25398D01*
X2087Y25222D02*
X2182Y25317D01*
X2006Y25117D02*
X2087Y25222D01*
X1939Y25001D02*
X2006Y25117D01*
X1888Y24878D02*
X1939Y25001D01*
X1854Y24749D02*
X1888Y24878D01*
X1836Y24616D02*
X1854Y24749D01*
X1836Y24464D02*
X2940Y25568D01*
X1817Y17638D02*
X2940Y16516D01*
X1754Y17419D02*
X2790Y16383D01*
X1836Y24550D02*
Y24616D01*
X1836Y17815D02*
X1836Y24550D01*
X1832Y17720D02*
X1836Y17807D01*
X1795Y17526D02*
X1829Y17696D01*
X1719Y17335D02*
X1786Y17495D01*
X1608Y17162D02*
X1704Y17307D01*
X1465Y17015D02*
X1587Y17138D01*
X1435Y16991D02*
X1611Y17168D01*
X1296Y16898D02*
X1440Y16995D01*
X1107Y16817D02*
X1267Y16883D01*
X906Y16773D02*
X1076Y16807D01*
X795Y16766D02*
X882Y16770D01*
X726Y16766D02*
X787Y16766D01*
X605Y16742D02*
X726Y16766D01*
X492Y16695D02*
X605Y16742D01*
X389Y16627D02*
X492Y16695D01*
X1656Y17234D02*
X2437Y16453D01*
X1529Y17079D02*
X2266Y16341D01*
X1374Y16950D02*
X2163Y16161D01*
X1190Y16851D02*
X2022Y16020D01*
X972Y16787D02*
X1880Y15879D01*
X163Y16002D02*
X941Y16780D01*
X713Y16763D02*
X1739Y15737D01*
X163Y15719D02*
X1435Y16991D01*
X496Y16697D02*
X1700Y15493D01*
X183Y16306D02*
X624Y16746D01*
X2850Y14714D02*
Y16168D01*
X2347Y15978D02*
X2850Y15474D01*
X2205Y15836D02*
X2850Y15192D01*
X2064Y15695D02*
X2850Y14909D01*
X1960Y14971D02*
X2850Y15861D01*
X2643Y16220D02*
X2784Y16361D01*
X2646Y16244D02*
X2850Y16040D01*
X2534Y16073D02*
X2850Y15757D01*
X2955Y14451D02*
X3030Y14526D01*
X2990Y14486D02*
X3030Y14446D01*
X2898Y14295D02*
X3030Y14163D01*
X2628Y14282D02*
X3030Y13880D01*
X1960Y15516D02*
X2806Y14670D01*
X1960Y14405D02*
X2850Y15295D01*
X1960Y14688D02*
X2850Y15578D01*
X2771Y14635D02*
X2850Y14714D01*
X2756Y14636D02*
X2850Y14729D01*
X1960Y15536D02*
X2479Y16056D01*
X1960Y15254D02*
X2850Y16144D01*
X1738Y15737D02*
X2246Y16245D01*
X1960Y15591D02*
X2423Y16054D01*
X302Y16540D02*
X389Y16627D01*
X234Y16437D02*
X302Y16540D01*
X187Y16324D02*
X234Y16437D01*
X163Y16203D02*
X163Y16142D01*
X163Y16203D02*
X187Y16324D01*
X1960Y15233D02*
X2615Y14578D01*
X1960Y14122D02*
X2850Y15012D01*
X163Y14022D02*
X1700Y15559D01*
X1960Y13839D02*
X2556Y14435D01*
X1960Y14950D02*
X2602Y14308D01*
X336Y16574D02*
X1700Y15210D01*
X221Y16406D02*
X1700Y14927D01*
X163Y16181D02*
X1700Y14644D01*
X163Y15616D02*
X1700Y14079D01*
X163Y15898D02*
X1700Y14362D01*
X3290Y13337D02*
X7317Y9310D01*
X3290Y13054D02*
X7317Y9027D01*
X1576Y13072D02*
X7317Y7330D01*
X3266Y12796D02*
X7317Y8744D01*
X1434Y12930D02*
X7317Y7047D01*
X1293Y12789D02*
X7317Y6765D01*
X3290Y13620D02*
X4571Y12340D01*
X3126Y12653D02*
X7317Y8462D01*
X1717Y13213D02*
X7317Y7613D01*
X2984Y12512D02*
X7317Y8179D01*
X2892Y12321D02*
X7317Y7896D01*
X163Y11656D02*
X7317Y4502D01*
X163Y11373D02*
X7317Y4219D01*
X163Y11939D02*
X7317Y4785D01*
X163Y10807D02*
X7317Y3653D01*
X163Y10524D02*
X7317Y3370D01*
X163Y11090D02*
X7317Y3936D01*
X1151Y12648D02*
X7317Y6482D01*
X1010Y12506D02*
X7317Y6199D01*
X918Y12316D02*
X7317Y5916D01*
X163Y10242D02*
X7317Y3088D01*
X163Y12222D02*
X7317Y5067D01*
X163Y6386D02*
X6377Y12600D01*
X163Y12787D02*
X7317Y5633D01*
X163Y5537D02*
X7317Y12691D01*
X163Y5820D02*
X6623Y12280D01*
X163Y12504D02*
X7317Y5350D01*
X163Y6103D02*
X6496Y12435D01*
X163Y7234D02*
X5953Y13024D01*
X163Y6951D02*
X6094Y12882D01*
X163Y7517D02*
X5811Y13165D01*
X163Y7800D02*
X4646Y12283D01*
X163Y6669D02*
X6236Y12741D01*
X163Y3840D02*
X7317Y10994D01*
X163Y3557D02*
X7317Y10711D01*
X163Y4123D02*
X7317Y11277D01*
X163Y2992D02*
X7317Y10146D01*
X163Y3274D02*
X7317Y10428D01*
X163Y4971D02*
X7317Y12126D01*
X163Y4689D02*
X7317Y11843D01*
X163Y5254D02*
X7317Y12408D01*
X163Y9959D02*
X7317Y2805D01*
X163Y4406D02*
X7317Y11560D01*
X227Y510D02*
X7317Y7600D01*
X227Y510D02*
X7317Y7600D01*
X163Y729D02*
X7317Y7883D01*
X510Y227D02*
X7317Y7034D01*
X729Y163D02*
X7317Y6751D01*
X346Y346D02*
X7317Y7317D01*
X163Y9393D02*
X7317Y2239D01*
X163Y9110D02*
X7317Y1956D01*
X163Y9676D02*
X7317Y2522D01*
X163Y8545D02*
X7317Y1391D01*
X163Y8827D02*
X7317Y1673D01*
X2426Y163D02*
X7317Y5054D01*
X2709Y163D02*
X7317Y4772D01*
X2143Y163D02*
X7317Y5337D01*
X3274Y163D02*
X7317Y4206D01*
X2992Y163D02*
X7317Y4489D01*
X1294Y163D02*
X7317Y6186D01*
X1577Y163D02*
X7317Y5903D01*
X1012Y163D02*
X7317Y6469D01*
X1860Y163D02*
X7317Y5620D01*
X787Y163D02*
X6693Y163D01*
X163Y2426D02*
X7317Y9580D01*
X163Y2143D02*
X7317Y9297D01*
X163Y2709D02*
X7317Y9863D01*
X163Y1577D02*
X7317Y8731D01*
X163Y1012D02*
X7317Y8166D01*
X163Y1860D02*
X7317Y9014D01*
X163Y8262D02*
X7317Y1108D01*
X163Y7979D02*
X7317Y825D01*
X163Y1294D02*
X7317Y8449D01*
X163Y7413D02*
X7181Y395D01*
X163Y7696D02*
X7282Y578D01*
X163Y6848D02*
X6832Y179D01*
X163Y6565D02*
X6565Y163D01*
X163Y7130D02*
X7031Y262D01*
X163Y5999D02*
X5999Y163D01*
X163Y6282D02*
X6282Y163D01*
X163Y5433D02*
X5433Y163D01*
X163Y5150D02*
X5150Y163D01*
X163Y5716D02*
X5716Y163D01*
X163Y4585D02*
X4585Y163D01*
X163Y4868D02*
X4868Y163D01*
X3290Y13755D02*
X4190Y14656D01*
X3290Y14469D02*
X4190Y13568D01*
X1960Y14667D02*
X3030Y13597D01*
X3290Y13472D02*
X4190Y14373D01*
X3290Y14186D02*
X4190Y13286D01*
X1960Y14384D02*
X3030Y13314D01*
X1960Y13557D02*
X2663Y14259D01*
X1960Y13510D02*
Y15591D01*
X1700Y13564D02*
Y15645D01*
X3290Y13190D02*
X4190Y14090D01*
X3290Y12872D02*
Y15880D01*
X3030Y12925D02*
Y14526D01*
X3290Y12907D02*
X4190Y13807D01*
X3290Y13903D02*
X4190Y13003D01*
X1960Y13819D02*
X2942Y12837D01*
X1960Y13536D02*
X2800Y12696D01*
X1960Y14102D02*
X3030Y13032D01*
X1858Y13355D02*
X2609Y12604D01*
X987Y12483D02*
X1922Y13418D01*
X163Y13740D02*
X1700Y15276D01*
X163Y15050D02*
X1675Y13538D01*
X163Y15333D02*
X1700Y13796D01*
X163Y13174D02*
X1700Y14711D01*
X163Y12891D02*
X1700Y14428D01*
X163Y13457D02*
X1700Y14994D01*
X163Y14484D02*
X1392Y13256D01*
X163Y14201D02*
X1250Y13114D01*
X163Y14767D02*
X1533Y13397D01*
X163Y13636D02*
X968Y12831D01*
X163Y13919D02*
X1109Y12973D01*
X163Y11194D02*
X3030Y14061D01*
X163Y10911D02*
X3030Y13778D01*
X163Y11477D02*
X3030Y14344D01*
X163Y10628D02*
X3030Y13495D01*
X163Y9497D02*
X4190Y13524D01*
X163Y12608D02*
X1700Y14145D01*
X163Y12325D02*
X1700Y13862D01*
X163Y787D02*
X163Y16142D01*
X803Y12667D02*
X1700Y13564D01*
X788Y12667D02*
X1700Y13579D01*
X2771Y12667D02*
X3030Y12925D01*
X163Y10345D02*
X3030Y13212D01*
X163Y9214D02*
X4190Y13241D01*
X2955Y12483D02*
X3252Y12780D01*
X2768Y12667D02*
X3030Y12930D01*
X163Y13070D02*
X636Y12598D01*
X163Y13353D02*
X826Y12690D01*
X190Y598D02*
X598Y190D01*
X492Y234D02*
X605Y187D01*
X163Y8648D02*
X4261Y12747D01*
X726Y163D02*
X787D01*
X605Y187D02*
X726Y163D01*
X187Y605D02*
X234Y492D01*
X302Y389D01*
X163Y726D02*
X187Y605D01*
X389Y302D02*
X492Y234D01*
X302Y389D02*
X389Y302D01*
X163Y8931D02*
X4190Y12958D01*
X163Y8083D02*
X4526Y12445D01*
X163Y8366D02*
X4403Y12605D01*
X163Y9780D02*
X2670Y12287D01*
X163Y3453D02*
X3453Y163D01*
X163Y3736D02*
X3736Y163D01*
X163Y11760D02*
X694Y12291D01*
X163Y10063D02*
X2556Y12456D01*
X163Y12043D02*
X587Y12467D01*
X163Y787D02*
X163Y726D01*
X163Y1756D02*
X1756Y163D01*
X163Y3171D02*
X3171Y163D01*
X163Y4019D02*
X4019Y163D01*
X163Y4302D02*
X4302Y163D01*
X163Y2605D02*
X2605Y163D01*
X163Y2888D02*
X2888Y163D01*
X163Y2039D02*
X2039Y163D01*
X163Y1474D02*
X1474Y163D01*
X163Y2322D02*
X2322Y163D01*
X163Y908D02*
X908Y163D01*
X163Y1191D02*
X1191Y163D01*
M02*
